M48
; DRILL file {KiCad (6.0.5)} date Sun Jul  3 20:58:53 2022
; FORMAT={-:-/ absolute / metric / decimal}
; #@! TF.CreationDate,2022-07-03T20:58:53+09:00
; #@! TF.GenerationSoftware,Kicad,Pcbnew,(6.0.5)
; #@! TF.FileFunction,Plated,1,2,PTH
FMAT,2
METRIC
; #@! TA.AperFunction,Plated,PTH,ViaDrill
T1C0.400
; #@! TA.AperFunction,Plated,PTH,ComponentDrill
T2C0.700
; #@! TA.AperFunction,Plated,PTH,ComponentDrill
T3C0.762
; #@! TA.AperFunction,Plated,PTH,ComponentDrill
T4C0.800
; #@! TA.AperFunction,Plated,PTH,ComponentDrill
T5C0.900
; #@! TA.AperFunction,Plated,PTH,ComponentDrill
T6C0.950
; #@! TA.AperFunction,Plated,PTH,ComponentDrill
T7C1.000
; #@! TA.AperFunction,Plated,PTH,ComponentDrill
T8C1.100
; #@! TA.AperFunction,Plated,PTH,ComponentDrill
T9C3.000
%
G90
G05
T1
X56.134Y-100.33
X59.182Y-136.652
X62.738Y-129.794
X72.136Y-105.918
X72.39Y-136.906
X73.939Y-117.856
X73.939Y-128.778
X75.184Y-97.79
X75.184Y-102.362
X75.184Y-130.048
X75.692Y-85.598
X77.636Y-147.32
X79.13Y-137.414
X79.13Y-141.106
X79.979Y-136.231
X81.026Y-73.914
X84.582Y-161.544
X86.868Y-108.204
X86.868Y-118.364
X88.392Y-80.264
X88.567Y-157.813
X89.408Y-121.666
X91.742Y-110.236
X91.742Y-140.208
X91.948Y-104.918
X91.948Y-105.918
X92.456Y-126.746
X93.218Y-113.03
X93.98Y-109.728
X94.234Y-141.224
X95.758Y-154.006
X96.52Y-130.81
X97.028Y-143.814
X97.028Y-147.32
X104.14Y-102.409
X118.11Y-147.574
X118.364Y-146.304
X118.364Y-150.876
X119.634Y-154.178
X120.396Y-124.714
X120.904Y-160.528
X121.412Y-132.08
X124.46Y-130.81
X129.032Y-107.188
X132.08Y-95.758
X139.446Y-107.188
X142.24Y-104.394
T2
X53.649Y-133.597
X54.077Y-100.012
X55.593Y-138.29
X56.021Y-95.319
X58.928Y-102.362
X58.928Y-104.902
X58.928Y-107.442
X58.928Y-109.982
X58.928Y-112.522
X58.928Y-115.062
X58.928Y-117.602
X58.928Y-124.968
X58.928Y-127.508
X64.008Y-102.362
X64.008Y-104.902
X64.008Y-107.442
X64.008Y-109.982
X64.008Y-112.522
X64.008Y-115.062
X64.008Y-117.602
X64.008Y-124.968
X64.008Y-127.508
X79.037Y-162.341
X80.072Y-71.875
X83.731Y-164.285
X84.328Y-108.204
X84.328Y-110.744
X84.328Y-113.284
X84.328Y-115.824
X84.328Y-118.364
X84.328Y-127.762
X84.328Y-130.302
X84.328Y-135.382
X84.328Y-137.922
X84.765Y-69.931
X88.858Y-149.347
X89.408Y-108.204
X89.408Y-110.744
X89.408Y-113.284
X89.408Y-115.824
X89.408Y-118.364
X89.408Y-127.762
X89.408Y-130.302
X89.408Y-135.382
X89.408Y-137.922
X93.938Y-149.347
X96.478Y-149.347
X101.558Y-149.347
X104.098Y-149.347
X106.446Y-87.376
X106.446Y-92.456
X106.446Y-97.536
X109.178Y-149.347
X111.526Y-87.376
X111.526Y-92.456
X111.526Y-97.536
X111.718Y-149.347
X116.798Y-149.347
X117.315Y-164.713
X118.349Y-70.359
X122.008Y-162.769
X123.043Y-72.303
X143.764Y-108.966
X143.764Y-114.046
X146.059Y-139.325
X146.487Y-96.354
X148.003Y-134.631
X148.431Y-101.047
T3
X51.249Y-134.591
X51.731Y-99.04
X52.221Y-136.937
X52.703Y-96.694
X53.193Y-139.284
X53.675Y-94.347
X71.12Y-149.828
X73.66Y-149.828
X76.2Y-149.828
X78.065Y-164.687
X79.1Y-69.528
X80.412Y-165.659
X81.447Y-68.556
X82.759Y-166.631
X83.793Y-67.584
X118.287Y-167.06
X119.321Y-68.013
X120.633Y-166.088
X121.668Y-68.985
X122.523Y-134.366
X122.523Y-136.906
X122.523Y-139.446
X122.523Y-141.986
X122.523Y-144.526
X122.523Y-147.066
X122.98Y-165.116
X124.015Y-69.957
X132.683Y-134.366
X132.683Y-147.066
X135.223Y-134.366
X135.223Y-147.066
X148.405Y-140.297
X148.834Y-95.382
X149.377Y-137.95
X149.806Y-97.729
X150.349Y-135.603
X150.778Y-100.075
T4
X55.995Y-132.625
X56.952Y-134.934
X57.411Y-98.601
X58.368Y-96.291
X69.86Y-102.347
X69.86Y-104.887
X69.86Y-107.427
X69.86Y-109.967
X69.86Y-112.507
X69.86Y-115.047
X69.86Y-117.587
X69.86Y-120.127
X69.86Y-122.667
X69.86Y-125.207
X69.86Y-127.747
X69.86Y-130.287
X69.86Y-132.827
X69.86Y-135.367
X70.931Y-94.488
X73.431Y-94.488
X77.48Y-102.347
X77.48Y-104.887
X77.48Y-107.427
X77.48Y-109.967
X77.48Y-112.507
X77.48Y-115.047
X77.48Y-117.587
X77.48Y-120.127
X77.48Y-122.667
X77.48Y-125.207
X77.48Y-127.747
X77.48Y-130.287
X77.48Y-132.827
X77.48Y-135.367
X80.009Y-159.994
X82.296Y-122.747
X82.296Y-125.247
X82.319Y-160.951
X83.428Y-73.234
X85.737Y-72.277
X94.807Y-97.536
X97.307Y-97.536
X106.446Y-89.916
X106.446Y-94.996
X106.446Y-100.076
X108.946Y-89.916
X108.946Y-94.996
X108.946Y-100.076
X116.38Y-162.351
X118.689Y-161.395
X119.724Y-73.678
X122.034Y-74.635
X125.795Y-94.488
X128.295Y-94.488
X143.727Y-138.316
X144.684Y-136.006
X145.113Y-99.673
X146.069Y-101.982
X147.574Y-111.506
X147.574Y-114.006
T5
X91.948Y-153.157
X91.948Y-155.697
X99.568Y-153.157
X99.568Y-155.697
X107.188Y-153.157
X107.188Y-155.697
X114.808Y-153.157
X114.808Y-155.697
T6
X53.865Y-115.122
X53.865Y-117.622
X53.865Y-120.122
X53.865Y-122.622
X83.392Y-143.239
X85.892Y-143.239
X88.392Y-143.239
X90.892Y-143.239
X93.392Y-143.239
X99.882Y-143.239
X102.382Y-143.239
X104.882Y-143.239
X107.382Y-143.239
T7
X66.04Y-82.296
X66.04Y-84.836
X66.04Y-87.376
X66.04Y-89.916
X66.04Y-92.456
X66.04Y-94.996
X66.04Y-97.536
X81.28Y-82.296
X81.28Y-84.836
X81.28Y-87.376
X81.28Y-89.916
X81.28Y-92.456
X81.28Y-94.996
X81.28Y-97.536
X85.092Y-82.48
X85.092Y-85.02
X85.092Y-87.56
X85.092Y-90.1
X85.092Y-92.64
X85.092Y-95.18
X85.092Y-97.72
X85.092Y-100.26
X115.316Y-133.644
X115.316Y-136.144
X117.092Y-82.48
X117.092Y-85.02
X117.092Y-87.56
X117.092Y-90.1
X117.092Y-92.64
X117.092Y-95.18
X117.092Y-97.72
X117.092Y-100.26
X120.904Y-82.296
X120.904Y-84.836
X120.904Y-87.376
X120.904Y-89.916
X120.904Y-92.456
X120.904Y-94.996
X120.904Y-97.536
X121.253Y-100.711
X122.682Y-118.872
X122.682Y-129.032
X123.793Y-100.711
X125.222Y-118.872
X125.222Y-129.032
X126.333Y-100.711
X127.762Y-118.872
X127.762Y-129.032
X128.873Y-100.711
X130.302Y-118.872
X130.302Y-129.032
X131.413Y-100.711
X132.842Y-118.872
X132.842Y-129.032
X133.953Y-100.711
X135.382Y-118.872
X135.382Y-129.032
X136.144Y-82.296
X136.144Y-84.836
X136.144Y-87.376
X136.144Y-89.916
X136.144Y-92.456
X136.144Y-94.996
X136.144Y-97.536
X136.493Y-100.711
X139.033Y-100.711
T8
X80.554Y-149.658
X80.554Y-156.158
X85.054Y-149.658
X85.054Y-156.158
X100.838Y-133.604
X108.458Y-133.604
X144.054Y-117.146
X144.054Y-123.646
X148.554Y-117.146
X148.554Y-123.646
T9
X86.614Y-121.977
X115.57Y-121.977
X122.483Y-113.451
X137.803Y-113.451
T0
M30
