G04 #@! TF.GenerationSoftware,KiCad,Pcbnew,(6.0.5)*
G04 #@! TF.CreationDate,2022-07-10T22:39:27+09:00*
G04 #@! TF.ProjectId,main board,6d61696e-2062-46f6-9172-642e6b696361,rev?*
G04 #@! TF.SameCoordinates,Original*
G04 #@! TF.FileFunction,Legend,Bot*
G04 #@! TF.FilePolarity,Positive*
%FSLAX46Y46*%
G04 Gerber Fmt 4.6, Leading zero omitted, Abs format (unit mm)*
G04 Created by KiCad (PCBNEW (6.0.5)) date 2022-07-10 22:39:27*
%MOMM*%
%LPD*%
G01*
G04 APERTURE LIST*
%ADD10C,0.150000*%
%ADD11C,0.120000*%
G04 APERTURE END LIST*
D10*
X111282380Y-128101904D02*
X111330000Y-128054285D01*
X111377619Y-127959047D01*
X111377619Y-127720952D01*
X111330000Y-127625714D01*
X111282380Y-127578095D01*
X111187142Y-127530476D01*
X111091904Y-127530476D01*
X110949047Y-127578095D01*
X110377619Y-128149523D01*
X110377619Y-127530476D01*
X111377619Y-126911428D02*
X111377619Y-126816190D01*
X111330000Y-126720952D01*
X111282380Y-126673333D01*
X111187142Y-126625714D01*
X110996666Y-126578095D01*
X110758571Y-126578095D01*
X110568095Y-126625714D01*
X110472857Y-126673333D01*
X110425238Y-126720952D01*
X110377619Y-126816190D01*
X110377619Y-126911428D01*
X110425238Y-127006666D01*
X110472857Y-127054285D01*
X110568095Y-127101904D01*
X110758571Y-127149523D01*
X110996666Y-127149523D01*
X111187142Y-127101904D01*
X111282380Y-127054285D01*
X111330000Y-127006666D01*
X111377619Y-126911428D01*
X111282380Y-126197142D02*
X111330000Y-126149523D01*
X111377619Y-126054285D01*
X111377619Y-125816190D01*
X111330000Y-125720952D01*
X111282380Y-125673333D01*
X111187142Y-125625714D01*
X111091904Y-125625714D01*
X110949047Y-125673333D01*
X110377619Y-126244761D01*
X110377619Y-125625714D01*
X111282380Y-125244761D02*
X111330000Y-125197142D01*
X111377619Y-125101904D01*
X111377619Y-124863809D01*
X111330000Y-124768571D01*
X111282380Y-124720952D01*
X111187142Y-124673333D01*
X111091904Y-124673333D01*
X110949047Y-124720952D01*
X110377619Y-125292380D01*
X110377619Y-124673333D01*
X110758571Y-124244761D02*
X110758571Y-123482857D01*
X111282380Y-123054285D02*
X111330000Y-123006666D01*
X111377619Y-122911428D01*
X111377619Y-122673333D01*
X111330000Y-122578095D01*
X111282380Y-122530476D01*
X111187142Y-122482857D01*
X111091904Y-122482857D01*
X110949047Y-122530476D01*
X110377619Y-123101904D01*
X110377619Y-122482857D01*
X111377619Y-121863809D02*
X111377619Y-121768571D01*
X111330000Y-121673333D01*
X111282380Y-121625714D01*
X111187142Y-121578095D01*
X110996666Y-121530476D01*
X110758571Y-121530476D01*
X110568095Y-121578095D01*
X110472857Y-121625714D01*
X110425238Y-121673333D01*
X110377619Y-121768571D01*
X110377619Y-121863809D01*
X110425238Y-121959047D01*
X110472857Y-122006666D01*
X110568095Y-122054285D01*
X110758571Y-122101904D01*
X110996666Y-122101904D01*
X111187142Y-122054285D01*
X111282380Y-122006666D01*
X111330000Y-121959047D01*
X111377619Y-121863809D01*
X111282380Y-121149523D02*
X111330000Y-121101904D01*
X111377619Y-121006666D01*
X111377619Y-120768571D01*
X111330000Y-120673333D01*
X111282380Y-120625714D01*
X111187142Y-120578095D01*
X111091904Y-120578095D01*
X110949047Y-120625714D01*
X110377619Y-121197142D01*
X110377619Y-120578095D01*
X111377619Y-120244761D02*
X111377619Y-119625714D01*
X110996666Y-119959047D01*
X110996666Y-119816190D01*
X110949047Y-119720952D01*
X110901428Y-119673333D01*
X110806190Y-119625714D01*
X110568095Y-119625714D01*
X110472857Y-119673333D01*
X110425238Y-119720952D01*
X110377619Y-119816190D01*
X110377619Y-120101904D01*
X110425238Y-120197142D01*
X110472857Y-120244761D01*
X110377619Y-118435238D02*
X111377619Y-118435238D01*
X110663333Y-118101904D01*
X111377619Y-117768571D01*
X110377619Y-117768571D01*
X111044285Y-116863809D02*
X110377619Y-116863809D01*
X111044285Y-117292380D02*
X110520476Y-117292380D01*
X110425238Y-117244761D01*
X110377619Y-117149523D01*
X110377619Y-117006666D01*
X110425238Y-116911428D01*
X110472857Y-116863809D01*
X111044285Y-116387619D02*
X110377619Y-116387619D01*
X110949047Y-116387619D02*
X110996666Y-116340000D01*
X111044285Y-116244761D01*
X111044285Y-116101904D01*
X110996666Y-116006666D01*
X110901428Y-115959047D01*
X110377619Y-115959047D01*
X110377619Y-115054285D02*
X110901428Y-115054285D01*
X110996666Y-115101904D01*
X111044285Y-115197142D01*
X111044285Y-115387619D01*
X110996666Y-115482857D01*
X110425238Y-115054285D02*
X110377619Y-115149523D01*
X110377619Y-115387619D01*
X110425238Y-115482857D01*
X110520476Y-115530476D01*
X110615714Y-115530476D01*
X110710952Y-115482857D01*
X110758571Y-115387619D01*
X110758571Y-115149523D01*
X110806190Y-115054285D01*
X111044285Y-114720952D02*
X111044285Y-114340000D01*
X111377619Y-114578095D02*
X110520476Y-114578095D01*
X110425238Y-114530476D01*
X110377619Y-114435238D01*
X110377619Y-114340000D01*
X111044285Y-114101904D02*
X110377619Y-113863809D01*
X111044285Y-113625714D02*
X110377619Y-113863809D01*
X110139523Y-113959047D01*
X110091904Y-114006666D01*
X110044285Y-114101904D01*
X111044285Y-112816190D02*
X110377619Y-112816190D01*
X111044285Y-113244761D02*
X110520476Y-113244761D01*
X110425238Y-113197142D01*
X110377619Y-113101904D01*
X110377619Y-112959047D01*
X110425238Y-112863809D01*
X110472857Y-112816190D01*
X111044285Y-111911428D02*
X110377619Y-111911428D01*
X111044285Y-112340000D02*
X110520476Y-112340000D01*
X110425238Y-112292380D01*
X110377619Y-112197142D01*
X110377619Y-112054285D01*
X110425238Y-111959047D01*
X110472857Y-111911428D01*
X110282380Y-111673333D02*
X110282380Y-110911428D01*
X110663333Y-110720952D02*
X110663333Y-110244761D01*
X110377619Y-110816190D02*
X111377619Y-110482857D01*
X110377619Y-110149523D01*
X110377619Y-109816190D02*
X111044285Y-109816190D01*
X110853809Y-109816190D02*
X110949047Y-109768571D01*
X110996666Y-109720952D01*
X111044285Y-109625714D01*
X111044285Y-109530476D01*
X111044285Y-109340000D02*
X111044285Y-108959047D01*
X111377619Y-109197142D02*
X110520476Y-109197142D01*
X110425238Y-109149523D01*
X110377619Y-109054285D01*
X110377619Y-108959047D01*
X110425238Y-108244761D02*
X110377619Y-108340000D01*
X110377619Y-108530476D01*
X110425238Y-108625714D01*
X110520476Y-108673333D01*
X110901428Y-108673333D01*
X110996666Y-108625714D01*
X111044285Y-108530476D01*
X111044285Y-108340000D01*
X110996666Y-108244761D01*
X110901428Y-108197142D01*
X110806190Y-108197142D01*
X110710952Y-108673333D01*
X110377619Y-107768571D02*
X111044285Y-107768571D01*
X110949047Y-107768571D02*
X110996666Y-107720952D01*
X111044285Y-107625714D01*
X111044285Y-107482857D01*
X110996666Y-107387619D01*
X110901428Y-107340000D01*
X110377619Y-107340000D01*
X110901428Y-107340000D02*
X110996666Y-107292380D01*
X111044285Y-107197142D01*
X111044285Y-107054285D01*
X110996666Y-106959047D01*
X110901428Y-106911428D01*
X110377619Y-106911428D01*
X110377619Y-106435238D02*
X111044285Y-106435238D01*
X111377619Y-106435238D02*
X111330000Y-106482857D01*
X111282380Y-106435238D01*
X111330000Y-106387619D01*
X111377619Y-106435238D01*
X111282380Y-106435238D01*
X110425238Y-106006666D02*
X110377619Y-105911428D01*
X110377619Y-105720952D01*
X110425238Y-105625714D01*
X110520476Y-105578095D01*
X110568095Y-105578095D01*
X110663333Y-105625714D01*
X110710952Y-105720952D01*
X110710952Y-105863809D01*
X110758571Y-105959047D01*
X110853809Y-106006666D01*
X110901428Y-106006666D01*
X110996666Y-105959047D01*
X111044285Y-105863809D01*
X111044285Y-105720952D01*
X110996666Y-105625714D01*
X108767619Y-127673333D02*
X109767619Y-127673333D01*
X109053333Y-127340000D01*
X109767619Y-127006666D01*
X108767619Y-127006666D01*
X108767619Y-126101904D02*
X109291428Y-126101904D01*
X109386666Y-126149523D01*
X109434285Y-126244761D01*
X109434285Y-126435238D01*
X109386666Y-126530476D01*
X108815238Y-126101904D02*
X108767619Y-126197142D01*
X108767619Y-126435238D01*
X108815238Y-126530476D01*
X108910476Y-126578095D01*
X109005714Y-126578095D01*
X109100952Y-126530476D01*
X109148571Y-126435238D01*
X109148571Y-126197142D01*
X109196190Y-126101904D01*
X108767619Y-125625714D02*
X109434285Y-125625714D01*
X109767619Y-125625714D02*
X109720000Y-125673333D01*
X109672380Y-125625714D01*
X109720000Y-125578095D01*
X109767619Y-125625714D01*
X109672380Y-125625714D01*
X109434285Y-125149523D02*
X108767619Y-125149523D01*
X109339047Y-125149523D02*
X109386666Y-125101904D01*
X109434285Y-125006666D01*
X109434285Y-124863809D01*
X109386666Y-124768571D01*
X109291428Y-124720952D01*
X108767619Y-124720952D01*
X109291428Y-123149523D02*
X109243809Y-123006666D01*
X109196190Y-122959047D01*
X109100952Y-122911428D01*
X108958095Y-122911428D01*
X108862857Y-122959047D01*
X108815238Y-123006666D01*
X108767619Y-123101904D01*
X108767619Y-123482857D01*
X109767619Y-123482857D01*
X109767619Y-123149523D01*
X109720000Y-123054285D01*
X109672380Y-123006666D01*
X109577142Y-122959047D01*
X109481904Y-122959047D01*
X109386666Y-123006666D01*
X109339047Y-123054285D01*
X109291428Y-123149523D01*
X109291428Y-123482857D01*
X108767619Y-122340000D02*
X108815238Y-122435238D01*
X108862857Y-122482857D01*
X108958095Y-122530476D01*
X109243809Y-122530476D01*
X109339047Y-122482857D01*
X109386666Y-122435238D01*
X109434285Y-122340000D01*
X109434285Y-122197142D01*
X109386666Y-122101904D01*
X109339047Y-122054285D01*
X109243809Y-122006666D01*
X108958095Y-122006666D01*
X108862857Y-122054285D01*
X108815238Y-122101904D01*
X108767619Y-122197142D01*
X108767619Y-122340000D01*
X108767619Y-121149523D02*
X109291428Y-121149523D01*
X109386666Y-121197142D01*
X109434285Y-121292380D01*
X109434285Y-121482857D01*
X109386666Y-121578095D01*
X108815238Y-121149523D02*
X108767619Y-121244761D01*
X108767619Y-121482857D01*
X108815238Y-121578095D01*
X108910476Y-121625714D01*
X109005714Y-121625714D01*
X109100952Y-121578095D01*
X109148571Y-121482857D01*
X109148571Y-121244761D01*
X109196190Y-121149523D01*
X108767619Y-120673333D02*
X109434285Y-120673333D01*
X109243809Y-120673333D02*
X109339047Y-120625714D01*
X109386666Y-120578095D01*
X109434285Y-120482857D01*
X109434285Y-120387619D01*
X108767619Y-119625714D02*
X109767619Y-119625714D01*
X108815238Y-119625714D02*
X108767619Y-119720952D01*
X108767619Y-119911428D01*
X108815238Y-120006666D01*
X108862857Y-120054285D01*
X108958095Y-120101904D01*
X109243809Y-120101904D01*
X109339047Y-120054285D01*
X109386666Y-120006666D01*
X109434285Y-119911428D01*
X109434285Y-119720952D01*
X109386666Y-119625714D01*
X108767619Y-118387619D02*
X109767619Y-118387619D01*
X109767619Y-118006666D01*
X109720000Y-117911428D01*
X109672380Y-117863809D01*
X109577142Y-117816190D01*
X109434285Y-117816190D01*
X109339047Y-117863809D01*
X109291428Y-117911428D01*
X109243809Y-118006666D01*
X109243809Y-118387619D01*
X108767619Y-117244761D02*
X108815238Y-117340000D01*
X108862857Y-117387619D01*
X108958095Y-117435238D01*
X109243809Y-117435238D01*
X109339047Y-117387619D01*
X109386666Y-117340000D01*
X109434285Y-117244761D01*
X109434285Y-117101904D01*
X109386666Y-117006666D01*
X109339047Y-116959047D01*
X109243809Y-116911428D01*
X108958095Y-116911428D01*
X108862857Y-116959047D01*
X108815238Y-117006666D01*
X108767619Y-117101904D01*
X108767619Y-117244761D01*
X109434285Y-116578095D02*
X108767619Y-116387619D01*
X109243809Y-116197142D01*
X108767619Y-116006666D01*
X109434285Y-115816190D01*
X108815238Y-115054285D02*
X108767619Y-115149523D01*
X108767619Y-115340000D01*
X108815238Y-115435238D01*
X108910476Y-115482857D01*
X109291428Y-115482857D01*
X109386666Y-115435238D01*
X109434285Y-115340000D01*
X109434285Y-115149523D01*
X109386666Y-115054285D01*
X109291428Y-115006666D01*
X109196190Y-115006666D01*
X109100952Y-115482857D01*
X108767619Y-114578095D02*
X109434285Y-114578095D01*
X109243809Y-114578095D02*
X109339047Y-114530476D01*
X109386666Y-114482857D01*
X109434285Y-114387619D01*
X109434285Y-114292380D01*
X108815238Y-113578095D02*
X108767619Y-113673333D01*
X108767619Y-113863809D01*
X108815238Y-113959047D01*
X108910476Y-114006666D01*
X109291428Y-114006666D01*
X109386666Y-113959047D01*
X109434285Y-113863809D01*
X109434285Y-113673333D01*
X109386666Y-113578095D01*
X109291428Y-113530476D01*
X109196190Y-113530476D01*
X109100952Y-114006666D01*
X108767619Y-112673333D02*
X109767619Y-112673333D01*
X108815238Y-112673333D02*
X108767619Y-112768571D01*
X108767619Y-112959047D01*
X108815238Y-113054285D01*
X108862857Y-113101904D01*
X108958095Y-113149523D01*
X109243809Y-113149523D01*
X109339047Y-113101904D01*
X109386666Y-113054285D01*
X109434285Y-112959047D01*
X109434285Y-112768571D01*
X109386666Y-112673333D01*
X108767619Y-111435238D02*
X109767619Y-111435238D01*
X109386666Y-111435238D02*
X109434285Y-111340000D01*
X109434285Y-111149523D01*
X109386666Y-111054285D01*
X109339047Y-111006666D01*
X109243809Y-110959047D01*
X108958095Y-110959047D01*
X108862857Y-111006666D01*
X108815238Y-111054285D01*
X108767619Y-111149523D01*
X108767619Y-111340000D01*
X108815238Y-111435238D01*
X109434285Y-110625714D02*
X108767619Y-110387619D01*
X109434285Y-110149523D02*
X108767619Y-110387619D01*
X108529523Y-110482857D01*
X108481904Y-110530476D01*
X108434285Y-110625714D01*
X109767619Y-109149523D02*
X109767619Y-108578095D01*
X108767619Y-108863809D02*
X109767619Y-108863809D01*
X109767619Y-107959047D02*
X109053333Y-107959047D01*
X108910476Y-108006666D01*
X108815238Y-108101904D01*
X108767619Y-108244761D01*
X108767619Y-108340000D01*
X109767619Y-107578095D02*
X109767619Y-106959047D01*
X109386666Y-107292380D01*
X109386666Y-107149523D01*
X109339047Y-107054285D01*
X109291428Y-107006666D01*
X109196190Y-106959047D01*
X108958095Y-106959047D01*
X108862857Y-107006666D01*
X108815238Y-107054285D01*
X108767619Y-107149523D01*
X108767619Y-107435238D01*
X108815238Y-107530476D01*
X108862857Y-107578095D01*
X109291428Y-106197142D02*
X109243809Y-106054285D01*
X109196190Y-106006666D01*
X109100952Y-105959047D01*
X108958095Y-105959047D01*
X108862857Y-106006666D01*
X108815238Y-106054285D01*
X108767619Y-106149523D01*
X108767619Y-106530476D01*
X109767619Y-106530476D01*
X109767619Y-106197142D01*
X109720000Y-106101904D01*
X109672380Y-106054285D01*
X109577142Y-106006666D01*
X109481904Y-106006666D01*
X109386666Y-106054285D01*
X109339047Y-106101904D01*
X109291428Y-106197142D01*
X109291428Y-106530476D01*
X107157619Y-123030476D02*
X108157619Y-123030476D01*
X108157619Y-122792380D01*
X108110000Y-122649523D01*
X108014761Y-122554285D01*
X107919523Y-122506666D01*
X107729047Y-122459047D01*
X107586190Y-122459047D01*
X107395714Y-122506666D01*
X107300476Y-122554285D01*
X107205238Y-122649523D01*
X107157619Y-122792380D01*
X107157619Y-123030476D01*
X107205238Y-121649523D02*
X107157619Y-121744761D01*
X107157619Y-121935238D01*
X107205238Y-122030476D01*
X107300476Y-122078095D01*
X107681428Y-122078095D01*
X107776666Y-122030476D01*
X107824285Y-121935238D01*
X107824285Y-121744761D01*
X107776666Y-121649523D01*
X107681428Y-121601904D01*
X107586190Y-121601904D01*
X107490952Y-122078095D01*
X107205238Y-121220952D02*
X107157619Y-121125714D01*
X107157619Y-120935238D01*
X107205238Y-120840000D01*
X107300476Y-120792380D01*
X107348095Y-120792380D01*
X107443333Y-120840000D01*
X107490952Y-120935238D01*
X107490952Y-121078095D01*
X107538571Y-121173333D01*
X107633809Y-121220952D01*
X107681428Y-121220952D01*
X107776666Y-121173333D01*
X107824285Y-121078095D01*
X107824285Y-120935238D01*
X107776666Y-120840000D01*
X107157619Y-120363809D02*
X107824285Y-120363809D01*
X108157619Y-120363809D02*
X108110000Y-120411428D01*
X108062380Y-120363809D01*
X108110000Y-120316190D01*
X108157619Y-120363809D01*
X108062380Y-120363809D01*
X107824285Y-119459047D02*
X107014761Y-119459047D01*
X106919523Y-119506666D01*
X106871904Y-119554285D01*
X106824285Y-119649523D01*
X106824285Y-119792380D01*
X106871904Y-119887619D01*
X107205238Y-119459047D02*
X107157619Y-119554285D01*
X107157619Y-119744761D01*
X107205238Y-119840000D01*
X107252857Y-119887619D01*
X107348095Y-119935238D01*
X107633809Y-119935238D01*
X107729047Y-119887619D01*
X107776666Y-119840000D01*
X107824285Y-119744761D01*
X107824285Y-119554285D01*
X107776666Y-119459047D01*
X107824285Y-118982857D02*
X107157619Y-118982857D01*
X107729047Y-118982857D02*
X107776666Y-118935238D01*
X107824285Y-118840000D01*
X107824285Y-118697142D01*
X107776666Y-118601904D01*
X107681428Y-118554285D01*
X107157619Y-118554285D01*
X107205238Y-117697142D02*
X107157619Y-117792380D01*
X107157619Y-117982857D01*
X107205238Y-118078095D01*
X107300476Y-118125714D01*
X107681428Y-118125714D01*
X107776666Y-118078095D01*
X107824285Y-117982857D01*
X107824285Y-117792380D01*
X107776666Y-117697142D01*
X107681428Y-117649523D01*
X107586190Y-117649523D01*
X107490952Y-118125714D01*
X107157619Y-116792380D02*
X108157619Y-116792380D01*
X107205238Y-116792380D02*
X107157619Y-116887619D01*
X107157619Y-117078095D01*
X107205238Y-117173333D01*
X107252857Y-117220952D01*
X107348095Y-117268571D01*
X107633809Y-117268571D01*
X107729047Y-117220952D01*
X107776666Y-117173333D01*
X107824285Y-117078095D01*
X107824285Y-116887619D01*
X107776666Y-116792380D01*
X107157619Y-115554285D02*
X108157619Y-115554285D01*
X107776666Y-115554285D02*
X107824285Y-115459047D01*
X107824285Y-115268571D01*
X107776666Y-115173333D01*
X107729047Y-115125714D01*
X107633809Y-115078095D01*
X107348095Y-115078095D01*
X107252857Y-115125714D01*
X107205238Y-115173333D01*
X107157619Y-115268571D01*
X107157619Y-115459047D01*
X107205238Y-115554285D01*
X107824285Y-114744761D02*
X107157619Y-114506666D01*
X107824285Y-114268571D02*
X107157619Y-114506666D01*
X106919523Y-114601904D01*
X106871904Y-114649523D01*
X106824285Y-114744761D01*
X108062380Y-112792380D02*
X108062380Y-112030476D01*
X108014761Y-113268571D02*
X108014761Y-112840000D01*
X107729047Y-112744761D02*
X107729047Y-112078095D01*
X107157619Y-113220952D02*
X107157619Y-113030476D01*
X108300476Y-113030476D02*
X107157619Y-113030476D01*
X108300476Y-112411428D02*
X107157619Y-112411428D01*
X107538571Y-112316190D02*
X107300476Y-112030476D01*
X107586190Y-112554285D02*
X107252857Y-112840000D01*
X107729047Y-112363809D02*
X107443333Y-112268571D01*
X107729047Y-112506666D02*
X107490952Y-112601904D01*
X107729047Y-112840000D02*
X107586190Y-113268571D01*
X108157619Y-111792380D02*
X108157619Y-110601904D01*
X107586190Y-111601904D02*
X107586190Y-110744761D01*
X108300476Y-111411428D02*
X108014761Y-111411428D01*
X107776666Y-111173333D02*
X107157619Y-111173333D01*
X108300476Y-110935238D02*
X108014761Y-110935238D01*
X107490952Y-110935238D02*
X107205238Y-110649523D01*
X107443333Y-111459047D02*
X107205238Y-111697142D01*
X108062380Y-111173333D02*
X107871904Y-110982857D01*
X107681428Y-110554285D01*
X108062380Y-111220952D02*
X107824285Y-111411428D01*
X107633809Y-111792380D01*
X150150267Y-96347713D02*
X150898169Y-96037922D01*
X151004381Y-96045470D01*
X151066598Y-96071242D01*
X151147039Y-96141007D01*
X151219931Y-96316984D01*
X151212382Y-96423196D01*
X151186611Y-96485413D01*
X151116846Y-96565853D01*
X150368943Y-96875645D01*
X151675506Y-97416841D02*
X151456830Y-96888909D01*
X151566168Y-97152875D02*
X150642288Y-97535559D01*
X150737825Y-97392901D01*
X150789368Y-97268466D01*
X150796916Y-97162255D01*
X150879188Y-98107484D02*
X151116087Y-98679409D01*
X151340480Y-98225665D01*
X151395149Y-98357648D01*
X151475589Y-98427414D01*
X151537807Y-98453185D01*
X151644018Y-98460733D01*
X151863990Y-98369618D01*
X151933755Y-98289178D01*
X151959526Y-98226960D01*
X151967074Y-98120749D01*
X151857736Y-97856783D01*
X151777296Y-97787018D01*
X151715079Y-97761247D01*
X150589864Y-137076584D02*
X151337766Y-137386375D01*
X151407532Y-137466816D01*
X151433303Y-137529033D01*
X151440851Y-137635244D01*
X151367959Y-137811221D01*
X151287519Y-137880987D01*
X151225302Y-137906758D01*
X151119090Y-137914306D01*
X150371188Y-137604515D01*
X150912384Y-138911078D02*
X151131060Y-138383147D01*
X151021722Y-138647112D02*
X150097842Y-138264429D01*
X150266271Y-138231110D01*
X150390706Y-138179567D01*
X150471146Y-138109802D01*
X149968450Y-139447852D02*
X150584369Y-139702975D01*
X149707611Y-139082097D02*
X150458640Y-139135471D01*
X150221741Y-139707396D01*
X80669472Y-166917634D02*
X80359681Y-167665536D01*
X80279241Y-167735302D01*
X80217024Y-167761073D01*
X80110812Y-167768621D01*
X79934835Y-167695729D01*
X79865069Y-167615289D01*
X79839298Y-167553072D01*
X79831750Y-167446860D01*
X80141541Y-166698958D01*
X79305650Y-166352720D02*
X79481627Y-166425612D01*
X79551393Y-166506053D01*
X79577164Y-166568270D01*
X79610484Y-166736699D01*
X79581586Y-166930899D01*
X79435802Y-167282853D01*
X79355361Y-167352618D01*
X79293144Y-167378390D01*
X79186932Y-167385938D01*
X79010955Y-167313046D01*
X78941190Y-167232605D01*
X78915419Y-167170388D01*
X78907870Y-167064177D01*
X78998986Y-166844205D01*
X79079426Y-166774440D01*
X79141643Y-166748669D01*
X79247855Y-166741120D01*
X79423832Y-166814012D01*
X79493597Y-166894453D01*
X79519368Y-166956670D01*
X79526917Y-167062882D01*
X51522365Y-97179472D02*
X50774463Y-96869681D01*
X50704697Y-96789241D01*
X50678926Y-96727024D01*
X50671378Y-96620812D01*
X50744270Y-96444835D01*
X50824710Y-96375069D01*
X50886927Y-96349298D01*
X50993139Y-96341750D01*
X51741041Y-96651541D01*
X51581992Y-95915609D02*
X51589541Y-96021820D01*
X51615312Y-96084038D01*
X51685077Y-96164478D01*
X51729072Y-96182701D01*
X51835283Y-96175153D01*
X51897500Y-96149381D01*
X51977941Y-96079616D01*
X52050833Y-95903639D01*
X52043285Y-95797427D01*
X52017513Y-95735210D01*
X51947748Y-95654770D01*
X51903754Y-95636547D01*
X51797542Y-95644095D01*
X51735325Y-95669866D01*
X51654884Y-95739632D01*
X51581992Y-95915609D01*
X51501552Y-95985374D01*
X51439335Y-96011145D01*
X51333123Y-96018694D01*
X51157146Y-95945802D01*
X51087381Y-95865361D01*
X51061609Y-95803144D01*
X51054061Y-95696932D01*
X51126953Y-95520955D01*
X51207394Y-95451190D01*
X51269611Y-95425419D01*
X51375822Y-95417870D01*
X51551799Y-95490762D01*
X51621565Y-95571203D01*
X51647336Y-95633420D01*
X51654884Y-95739632D01*
X88725333Y-139141380D02*
X88725333Y-139855666D01*
X88772952Y-139998523D01*
X88868190Y-140093761D01*
X89011047Y-140141380D01*
X89106285Y-140141380D01*
X87820571Y-139474714D02*
X87820571Y-140141380D01*
X88058666Y-139093761D02*
X88296761Y-139808047D01*
X87677714Y-139808047D01*
X122092286Y-166406267D02*
X122402077Y-167154169D01*
X122394529Y-167260381D01*
X122368757Y-167322598D01*
X122298992Y-167403039D01*
X122123015Y-167475931D01*
X122016803Y-167468382D01*
X121954586Y-167442611D01*
X121874146Y-167372846D01*
X121564354Y-166624943D01*
X121023158Y-167931506D02*
X121551090Y-167712830D01*
X121287124Y-167822168D02*
X120904440Y-166898288D01*
X121047098Y-166993825D01*
X121171533Y-167045368D01*
X121277744Y-167052916D01*
X119804584Y-167353864D02*
X120244527Y-167171634D01*
X120470751Y-167593353D01*
X120408534Y-167567582D01*
X120302322Y-167560034D01*
X120082351Y-167651149D01*
X120012585Y-167731589D01*
X119986814Y-167793807D01*
X119979266Y-167900018D01*
X120070381Y-168119990D01*
X120150821Y-168189755D01*
X120213039Y-168215526D01*
X120319250Y-168223074D01*
X120539221Y-168131959D01*
X120608987Y-168051519D01*
X120634758Y-167989302D01*
X120820584Y-67850135D02*
X121130375Y-67102233D01*
X121210816Y-67032467D01*
X121273033Y-67006696D01*
X121379244Y-66999148D01*
X121555221Y-67072040D01*
X121624987Y-67152480D01*
X121650758Y-67214697D01*
X121658306Y-67320909D01*
X121348515Y-68068811D01*
X122655078Y-67527615D02*
X122127147Y-67308939D01*
X122391112Y-67418277D02*
X122008429Y-68342157D01*
X121975110Y-68173728D01*
X121923567Y-68049293D01*
X121853802Y-67968853D01*
X122660795Y-68509290D02*
X122686566Y-68571508D01*
X122756332Y-68651948D01*
X122976303Y-68743063D01*
X123082514Y-68735515D01*
X123144732Y-68709744D01*
X123225172Y-68639978D01*
X123261618Y-68551990D01*
X123272293Y-68401784D01*
X122963038Y-67655176D01*
X123534963Y-67892076D01*
X80531656Y-68107502D02*
X80221865Y-67359599D01*
X80229413Y-67253388D01*
X80255184Y-67191171D01*
X80324950Y-67110730D01*
X80500927Y-67037838D01*
X80607138Y-67045386D01*
X80669356Y-67071158D01*
X80749796Y-67140923D01*
X81059587Y-67888826D01*
X81160841Y-66764493D02*
X81336818Y-66691601D01*
X81443029Y-66699149D01*
X81505247Y-66724920D01*
X81647904Y-66820457D01*
X81764790Y-66978211D01*
X81910575Y-67330165D01*
X81903026Y-67436377D01*
X81877255Y-67498594D01*
X81807490Y-67579034D01*
X81631513Y-67651926D01*
X81525301Y-67644378D01*
X81463084Y-67618607D01*
X81382643Y-67548841D01*
X81291528Y-67328870D01*
X81299077Y-67222659D01*
X81324848Y-67160441D01*
X81394613Y-67080001D01*
X81570590Y-67007109D01*
X81676802Y-67014657D01*
X81739019Y-67040428D01*
X81819460Y-67110194D01*
X103965333Y-139141380D02*
X103965333Y-139855666D01*
X104012952Y-139998523D01*
X104108190Y-140093761D01*
X104251047Y-140141380D01*
X104346285Y-140141380D01*
X102965333Y-140141380D02*
X103536761Y-140141380D01*
X103251047Y-140141380D02*
X103251047Y-139141380D01*
X103346285Y-139284238D01*
X103441523Y-139379476D01*
X103536761Y-139427095D01*
X118318380Y-134560666D02*
X119032666Y-134560666D01*
X119175523Y-134513047D01*
X119270761Y-134417809D01*
X119318380Y-134274952D01*
X119318380Y-134179714D01*
X118318380Y-134941619D02*
X118318380Y-135560666D01*
X118699333Y-135227333D01*
X118699333Y-135370190D01*
X118746952Y-135465428D01*
X118794571Y-135513047D01*
X118889809Y-135560666D01*
X119127904Y-135560666D01*
X119223142Y-135513047D01*
X119270761Y-135465428D01*
X119318380Y-135370190D01*
X119318380Y-135084476D01*
X119270761Y-134989238D01*
X119223142Y-134941619D01*
X51597502Y-137908343D02*
X50849599Y-138218134D01*
X50743388Y-138210586D01*
X50681171Y-138184815D01*
X50600730Y-138115049D01*
X50527838Y-137939072D01*
X50535386Y-137832861D01*
X50561158Y-137770643D01*
X50630923Y-137690203D01*
X51378826Y-137380412D01*
X51233041Y-137028458D02*
X50977919Y-136412538D01*
X50218047Y-137191170D01*
X56867380Y-118538666D02*
X57581666Y-118538666D01*
X57724523Y-118491047D01*
X57819761Y-118395809D01*
X57867380Y-118252952D01*
X57867380Y-118157714D01*
X56962619Y-118967238D02*
X56915000Y-119014857D01*
X56867380Y-119110095D01*
X56867380Y-119348190D01*
X56915000Y-119443428D01*
X56962619Y-119491047D01*
X57057857Y-119538666D01*
X57153095Y-119538666D01*
X57295952Y-119491047D01*
X57867380Y-118919619D01*
X57867380Y-119538666D01*
D11*
X147174571Y-94694555D02*
X150090619Y-101734517D01*
X150090619Y-101734517D02*
X152437273Y-100762501D01*
X152437273Y-100762501D02*
X149521225Y-93722539D01*
X149521225Y-93722539D02*
X147174571Y-94694555D01*
X151854063Y-99354509D02*
G75*
G03*
X150104435Y-95130532I-2048141J1625981D01*
G01*
X149662014Y-133944018D02*
X146745966Y-140983980D01*
X146745966Y-140983980D02*
X149092620Y-141955996D01*
X149092620Y-141955996D02*
X152008668Y-134916034D01*
X152008668Y-134916034D02*
X149662014Y-133944018D01*
X149675830Y-140548003D02*
G75*
G03*
X151425458Y-136324026I-298513J2597996D01*
G01*
X84417877Y-165943909D02*
X77377915Y-163027861D01*
X77377915Y-163027861D02*
X76405899Y-165374515D01*
X76405899Y-165374515D02*
X83445861Y-168290563D01*
X83445861Y-168290563D02*
X84417877Y-165943909D01*
X77813892Y-165957725D02*
G75*
G03*
X82037869Y-167707353I2597996J298513D01*
G01*
X52417986Y-100699772D02*
X55334034Y-93659810D01*
X55334034Y-93659810D02*
X52987380Y-92687794D01*
X52987380Y-92687794D02*
X50071332Y-99727756D01*
X50071332Y-99727756D02*
X52417986Y-100699772D01*
X52404170Y-94095787D02*
G75*
G03*
X50654542Y-98319764I298513J-2597996D01*
G01*
X95942000Y-143039000D02*
X95192000Y-143039000D01*
X92642000Y-141539000D02*
X84142000Y-141539000D01*
X84142000Y-141539000D02*
X84142000Y-140789000D01*
X92642000Y-140789000D02*
X92642000Y-141539000D01*
X95952000Y-140779000D02*
X95952000Y-146749000D01*
X84142000Y-140789000D02*
X92642000Y-140789000D01*
X94142000Y-141539000D02*
X94142000Y-140789000D01*
X80842000Y-140789000D02*
X82642000Y-140789000D01*
X80832000Y-146749000D02*
X80832000Y-140779000D01*
X82642000Y-141539000D02*
X80842000Y-141539000D01*
X95942000Y-140789000D02*
X95942000Y-141539000D01*
X80842000Y-143039000D02*
X81592000Y-143039000D01*
X81592000Y-145989000D02*
X88392000Y-145989000D01*
X94142000Y-140789000D02*
X95942000Y-140789000D01*
X96242000Y-140489000D02*
X96242000Y-141739000D01*
X94992000Y-140489000D02*
X96242000Y-140489000D01*
X82642000Y-140789000D02*
X82642000Y-141539000D01*
X80842000Y-141539000D02*
X80842000Y-140789000D01*
X95192000Y-143039000D02*
X95192000Y-145989000D01*
X80832000Y-140779000D02*
X95952000Y-140779000D01*
X95192000Y-145989000D02*
X88392000Y-145989000D01*
X81592000Y-143039000D02*
X81592000Y-145989000D01*
X95942000Y-141539000D02*
X94142000Y-141539000D01*
X95952000Y-146749000D02*
X80832000Y-146749000D01*
X123667340Y-163456467D02*
X116627378Y-166372515D01*
X116627378Y-166372515D02*
X117599394Y-168719169D01*
X117599394Y-168719169D02*
X124639356Y-165803121D01*
X124639356Y-165803121D02*
X123667340Y-163456467D01*
X119007386Y-168135959D02*
G75*
G03*
X123231363Y-166386331I1625981J2048141D01*
G01*
X117662123Y-68699881D02*
X124702085Y-71615929D01*
X124702085Y-71615929D02*
X125674101Y-69269275D01*
X125674101Y-69269275D02*
X118634139Y-66353227D01*
X118634139Y-66353227D02*
X117662123Y-68699881D01*
X124266108Y-68686065D02*
G75*
G03*
X120042131Y-66936437I-2597996J-298513D01*
G01*
X78412660Y-71187323D02*
X85452622Y-68271275D01*
X85452622Y-68271275D02*
X84480606Y-65924621D01*
X84480606Y-65924621D02*
X77440644Y-68840669D01*
X77440644Y-68840669D02*
X78412660Y-71187323D01*
X83072614Y-66507831D02*
G75*
G03*
X78848637Y-68257459I-1625981J-2048141D01*
G01*
X109182000Y-143039000D02*
X109182000Y-145989000D01*
X98082000Y-145989000D02*
X103632000Y-145989000D01*
X108132000Y-141539000D02*
X108132000Y-140789000D01*
X100632000Y-140789000D02*
X106632000Y-140789000D01*
X97332000Y-141539000D02*
X97332000Y-140789000D01*
X98082000Y-143039000D02*
X98082000Y-145989000D01*
X108132000Y-140789000D02*
X109932000Y-140789000D01*
X108982000Y-140489000D02*
X110232000Y-140489000D01*
X109182000Y-145989000D02*
X103632000Y-145989000D01*
X97332000Y-140789000D02*
X99132000Y-140789000D01*
X106632000Y-140789000D02*
X106632000Y-141539000D01*
X109932000Y-141539000D02*
X108132000Y-141539000D01*
X97332000Y-143039000D02*
X98082000Y-143039000D01*
X99132000Y-140789000D02*
X99132000Y-141539000D01*
X99132000Y-141539000D02*
X97332000Y-141539000D01*
X109932000Y-143039000D02*
X109182000Y-143039000D01*
X109942000Y-146749000D02*
X97322000Y-146749000D01*
X110232000Y-140489000D02*
X110232000Y-141739000D01*
X97322000Y-146749000D02*
X97322000Y-140779000D01*
X109942000Y-140779000D02*
X109942000Y-146749000D01*
X97322000Y-140779000D02*
X109942000Y-140779000D01*
X100632000Y-141539000D02*
X100632000Y-140789000D01*
X109932000Y-140789000D02*
X109932000Y-141539000D01*
X106632000Y-141539000D02*
X100632000Y-141539000D01*
X117016000Y-131094000D02*
X117766000Y-131094000D01*
X117766000Y-131094000D02*
X117766000Y-132894000D01*
X117776000Y-131084000D02*
X117776000Y-138704000D01*
X111806000Y-131084000D02*
X117776000Y-131084000D01*
X118066000Y-137744000D02*
X118066000Y-138994000D01*
X117016000Y-132894000D02*
X117016000Y-131094000D01*
X115516000Y-138694000D02*
X115516000Y-137944000D01*
X117016000Y-135394000D02*
X117016000Y-134394000D01*
X117776000Y-138704000D02*
X111806000Y-138704000D01*
X117766000Y-138694000D02*
X117016000Y-138694000D01*
X117016000Y-138694000D02*
X117016000Y-136894000D01*
X117766000Y-136894000D02*
X117766000Y-138694000D01*
X115516000Y-131094000D02*
X115516000Y-131844000D01*
X117766000Y-134394000D02*
X117766000Y-135394000D01*
X117016000Y-134394000D02*
X117766000Y-134394000D01*
X117766000Y-135394000D02*
X117016000Y-135394000D01*
X117016000Y-136894000D02*
X117766000Y-136894000D01*
X115516000Y-131844000D02*
X112566000Y-131844000D01*
X115516000Y-137944000D02*
X112566000Y-137944000D01*
X117766000Y-132894000D02*
X117016000Y-132894000D01*
X112566000Y-131844000D02*
X112566000Y-134894000D01*
X118066000Y-138994000D02*
X116816000Y-138994000D01*
X112566000Y-137944000D02*
X112566000Y-134894000D01*
X111806000Y-138704000D02*
X111806000Y-131084000D01*
X54852347Y-139971222D02*
X51936299Y-132931260D01*
X51936299Y-132931260D02*
X49589645Y-133903276D01*
X49589645Y-133903276D02*
X52505693Y-140943238D01*
X52505693Y-140943238D02*
X54852347Y-139971222D01*
X50172855Y-135311268D02*
G75*
G03*
X51922483Y-139535245I2048141J-1625981D01*
G01*
X56325000Y-112562000D02*
X56325000Y-125182000D01*
X54065000Y-124422000D02*
X51115000Y-124422000D01*
X56315000Y-123372000D02*
X56315000Y-125172000D01*
X54065000Y-112572000D02*
X54065000Y-113322000D01*
X56315000Y-115872000D02*
X56315000Y-121872000D01*
X50355000Y-112562000D02*
X56325000Y-112562000D01*
X56325000Y-125182000D02*
X50355000Y-125182000D01*
X55565000Y-115872000D02*
X56315000Y-115872000D01*
X55565000Y-112572000D02*
X56315000Y-112572000D01*
X56315000Y-114372000D02*
X55565000Y-114372000D01*
X55565000Y-121872000D02*
X55565000Y-115872000D01*
X50355000Y-125182000D02*
X50355000Y-112562000D01*
X51115000Y-113322000D02*
X51115000Y-118872000D01*
X55565000Y-114372000D02*
X55565000Y-112572000D01*
X51115000Y-124422000D02*
X51115000Y-118872000D01*
X56315000Y-125172000D02*
X55565000Y-125172000D01*
X55565000Y-123372000D02*
X56315000Y-123372000D01*
X56615000Y-125472000D02*
X55365000Y-125472000D01*
X55565000Y-125172000D02*
X55565000Y-123372000D01*
X56315000Y-121872000D02*
X55565000Y-121872000D01*
X54065000Y-125172000D02*
X54065000Y-124422000D01*
X54065000Y-113322000D02*
X51115000Y-113322000D01*
X56315000Y-112572000D02*
X56315000Y-114372000D01*
X56615000Y-124222000D02*
X56615000Y-125472000D01*
M02*
