G04 #@! TF.GenerationSoftware,KiCad,Pcbnew,(6.0.5)*
G04 #@! TF.CreationDate,2022-07-10T22:39:27+09:00*
G04 #@! TF.ProjectId,main board,6d61696e-2062-46f6-9172-642e6b696361,rev?*
G04 #@! TF.SameCoordinates,Original*
G04 #@! TF.FileFunction,Legend,Top*
G04 #@! TF.FilePolarity,Positive*
%FSLAX46Y46*%
G04 Gerber Fmt 4.6, Leading zero omitted, Abs format (unit mm)*
G04 Created by KiCad (PCBNEW (6.0.5)) date 2022-07-10 22:39:27*
%MOMM*%
%LPD*%
G01*
G04 APERTURE LIST*
%ADD10C,0.150000*%
%ADD11C,0.300000*%
%ADD12C,0.120000*%
G04 APERTURE END LIST*
D10*
X105623809Y-73250619D02*
X105623809Y-74250619D01*
X105290476Y-73536333D01*
X104957142Y-74250619D01*
X104957142Y-73250619D01*
X104052380Y-73250619D02*
X104052380Y-73774428D01*
X104100000Y-73869666D01*
X104195238Y-73917285D01*
X104385714Y-73917285D01*
X104480952Y-73869666D01*
X104052380Y-73298238D02*
X104147619Y-73250619D01*
X104385714Y-73250619D01*
X104480952Y-73298238D01*
X104528571Y-73393476D01*
X104528571Y-73488714D01*
X104480952Y-73583952D01*
X104385714Y-73631571D01*
X104147619Y-73631571D01*
X104052380Y-73679190D01*
X103576190Y-73250619D02*
X103576190Y-73917285D01*
X103576190Y-74250619D02*
X103623809Y-74203000D01*
X103576190Y-74155380D01*
X103528571Y-74203000D01*
X103576190Y-74250619D01*
X103576190Y-74155380D01*
X103100000Y-73917285D02*
X103100000Y-73250619D01*
X103100000Y-73822047D02*
X103052380Y-73869666D01*
X102957142Y-73917285D01*
X102814285Y-73917285D01*
X102719047Y-73869666D01*
X102671428Y-73774428D01*
X102671428Y-73250619D01*
X101100000Y-73774428D02*
X100957142Y-73726809D01*
X100909523Y-73679190D01*
X100861904Y-73583952D01*
X100861904Y-73441095D01*
X100909523Y-73345857D01*
X100957142Y-73298238D01*
X101052380Y-73250619D01*
X101433333Y-73250619D01*
X101433333Y-74250619D01*
X101100000Y-74250619D01*
X101004761Y-74203000D01*
X100957142Y-74155380D01*
X100909523Y-74060142D01*
X100909523Y-73964904D01*
X100957142Y-73869666D01*
X101004761Y-73822047D01*
X101100000Y-73774428D01*
X101433333Y-73774428D01*
X100290476Y-73250619D02*
X100385714Y-73298238D01*
X100433333Y-73345857D01*
X100480952Y-73441095D01*
X100480952Y-73726809D01*
X100433333Y-73822047D01*
X100385714Y-73869666D01*
X100290476Y-73917285D01*
X100147619Y-73917285D01*
X100052380Y-73869666D01*
X100004761Y-73822047D01*
X99957142Y-73726809D01*
X99957142Y-73441095D01*
X100004761Y-73345857D01*
X100052380Y-73298238D01*
X100147619Y-73250619D01*
X100290476Y-73250619D01*
X99100000Y-73250619D02*
X99100000Y-73774428D01*
X99147619Y-73869666D01*
X99242857Y-73917285D01*
X99433333Y-73917285D01*
X99528571Y-73869666D01*
X99100000Y-73298238D02*
X99195238Y-73250619D01*
X99433333Y-73250619D01*
X99528571Y-73298238D01*
X99576190Y-73393476D01*
X99576190Y-73488714D01*
X99528571Y-73583952D01*
X99433333Y-73631571D01*
X99195238Y-73631571D01*
X99100000Y-73679190D01*
X98623809Y-73250619D02*
X98623809Y-73917285D01*
X98623809Y-73726809D02*
X98576190Y-73822047D01*
X98528571Y-73869666D01*
X98433333Y-73917285D01*
X98338095Y-73917285D01*
X97576190Y-73250619D02*
X97576190Y-74250619D01*
X97576190Y-73298238D02*
X97671428Y-73250619D01*
X97861904Y-73250619D01*
X97957142Y-73298238D01*
X98004761Y-73345857D01*
X98052380Y-73441095D01*
X98052380Y-73726809D01*
X98004761Y-73822047D01*
X97957142Y-73869666D01*
X97861904Y-73917285D01*
X97671428Y-73917285D01*
X97576190Y-73869666D01*
X107790476Y-71640619D02*
X107790476Y-72640619D01*
X107409523Y-72640619D01*
X107314285Y-72593000D01*
X107266666Y-72545380D01*
X107219047Y-72450142D01*
X107219047Y-72307285D01*
X107266666Y-72212047D01*
X107314285Y-72164428D01*
X107409523Y-72116809D01*
X107790476Y-72116809D01*
X106647619Y-71640619D02*
X106742857Y-71688238D01*
X106790476Y-71735857D01*
X106838095Y-71831095D01*
X106838095Y-72116809D01*
X106790476Y-72212047D01*
X106742857Y-72259666D01*
X106647619Y-72307285D01*
X106504761Y-72307285D01*
X106409523Y-72259666D01*
X106361904Y-72212047D01*
X106314285Y-72116809D01*
X106314285Y-71831095D01*
X106361904Y-71735857D01*
X106409523Y-71688238D01*
X106504761Y-71640619D01*
X106647619Y-71640619D01*
X105980952Y-72307285D02*
X105790476Y-71640619D01*
X105600000Y-72116809D01*
X105409523Y-71640619D01*
X105219047Y-72307285D01*
X104457142Y-71688238D02*
X104552380Y-71640619D01*
X104742857Y-71640619D01*
X104838095Y-71688238D01*
X104885714Y-71783476D01*
X104885714Y-72164428D01*
X104838095Y-72259666D01*
X104742857Y-72307285D01*
X104552380Y-72307285D01*
X104457142Y-72259666D01*
X104409523Y-72164428D01*
X104409523Y-72069190D01*
X104885714Y-71973952D01*
X103980952Y-71640619D02*
X103980952Y-72307285D01*
X103980952Y-72116809D02*
X103933333Y-72212047D01*
X103885714Y-72259666D01*
X103790476Y-72307285D01*
X103695238Y-72307285D01*
X102980952Y-71688238D02*
X103076190Y-71640619D01*
X103266666Y-71640619D01*
X103361904Y-71688238D01*
X103409523Y-71783476D01*
X103409523Y-72164428D01*
X103361904Y-72259666D01*
X103266666Y-72307285D01*
X103076190Y-72307285D01*
X102980952Y-72259666D01*
X102933333Y-72164428D01*
X102933333Y-72069190D01*
X103409523Y-71973952D01*
X102076190Y-71640619D02*
X102076190Y-72640619D01*
X102076190Y-71688238D02*
X102171428Y-71640619D01*
X102361904Y-71640619D01*
X102457142Y-71688238D01*
X102504761Y-71735857D01*
X102552380Y-71831095D01*
X102552380Y-72116809D01*
X102504761Y-72212047D01*
X102457142Y-72259666D01*
X102361904Y-72307285D01*
X102171428Y-72307285D01*
X102076190Y-72259666D01*
X100838095Y-71640619D02*
X100838095Y-72640619D01*
X100838095Y-72259666D02*
X100742857Y-72307285D01*
X100552380Y-72307285D01*
X100457142Y-72259666D01*
X100409523Y-72212047D01*
X100361904Y-72116809D01*
X100361904Y-71831095D01*
X100409523Y-71735857D01*
X100457142Y-71688238D01*
X100552380Y-71640619D01*
X100742857Y-71640619D01*
X100838095Y-71688238D01*
X100028571Y-72307285D02*
X99790476Y-71640619D01*
X99552380Y-72307285D02*
X99790476Y-71640619D01*
X99885714Y-71402523D01*
X99933333Y-71354904D01*
X100028571Y-71307285D01*
X98552380Y-72640619D02*
X97980952Y-72640619D01*
X98266666Y-71640619D02*
X98266666Y-72640619D01*
X97361904Y-72640619D02*
X97361904Y-71926333D01*
X97409523Y-71783476D01*
X97504761Y-71688238D01*
X97647619Y-71640619D01*
X97742857Y-71640619D01*
X96980952Y-72640619D02*
X96361904Y-72640619D01*
X96695238Y-72259666D01*
X96552380Y-72259666D01*
X96457142Y-72212047D01*
X96409523Y-72164428D01*
X96361904Y-72069190D01*
X96361904Y-71831095D01*
X96409523Y-71735857D01*
X96457142Y-71688238D01*
X96552380Y-71640619D01*
X96838095Y-71640619D01*
X96933333Y-71688238D01*
X96980952Y-71735857D01*
X95600000Y-72164428D02*
X95457142Y-72116809D01*
X95409523Y-72069190D01*
X95361904Y-71973952D01*
X95361904Y-71831095D01*
X95409523Y-71735857D01*
X95457142Y-71688238D01*
X95552380Y-71640619D01*
X95933333Y-71640619D01*
X95933333Y-72640619D01*
X95600000Y-72640619D01*
X95504761Y-72593000D01*
X95457142Y-72545380D01*
X95409523Y-72450142D01*
X95409523Y-72354904D01*
X95457142Y-72259666D01*
X95504761Y-72212047D01*
X95600000Y-72164428D01*
X95933333Y-72164428D01*
D11*
X110953142Y-67647428D02*
X110953142Y-69147428D01*
X110453142Y-68076000D01*
X109953142Y-69147428D01*
X109953142Y-67647428D01*
X108596000Y-68647428D02*
X108596000Y-67647428D01*
X109238857Y-68647428D02*
X109238857Y-67861714D01*
X109167428Y-67718857D01*
X109024571Y-67647428D01*
X108810285Y-67647428D01*
X108667428Y-67718857D01*
X108596000Y-67790285D01*
X107881714Y-68647428D02*
X107881714Y-67647428D01*
X107881714Y-68504571D02*
X107810285Y-68576000D01*
X107667428Y-68647428D01*
X107453142Y-68647428D01*
X107310285Y-68576000D01*
X107238857Y-68433142D01*
X107238857Y-67647428D01*
X105881714Y-67647428D02*
X105881714Y-68433142D01*
X105953142Y-68576000D01*
X106096000Y-68647428D01*
X106381714Y-68647428D01*
X106524571Y-68576000D01*
X105881714Y-67718857D02*
X106024571Y-67647428D01*
X106381714Y-67647428D01*
X106524571Y-67718857D01*
X106596000Y-67861714D01*
X106596000Y-68004571D01*
X106524571Y-68147428D01*
X106381714Y-68218857D01*
X106024571Y-68218857D01*
X105881714Y-68290285D01*
X105381714Y-68647428D02*
X104810285Y-68647428D01*
X105167428Y-69147428D02*
X105167428Y-67861714D01*
X105096000Y-67718857D01*
X104953142Y-67647428D01*
X104810285Y-67647428D01*
X104453142Y-68647428D02*
X104096000Y-67647428D01*
X103738857Y-68647428D02*
X104096000Y-67647428D01*
X104238857Y-67290285D01*
X104310285Y-67218857D01*
X104453142Y-67147428D01*
X102524571Y-68647428D02*
X102524571Y-67647428D01*
X103167428Y-68647428D02*
X103167428Y-67861714D01*
X103096000Y-67718857D01*
X102953142Y-67647428D01*
X102738857Y-67647428D01*
X102596000Y-67718857D01*
X102524571Y-67790285D01*
X101167428Y-68647428D02*
X101167428Y-67647428D01*
X101810285Y-68647428D02*
X101810285Y-67861714D01*
X101738857Y-67718857D01*
X101596000Y-67647428D01*
X101381714Y-67647428D01*
X101238857Y-67718857D01*
X101167428Y-67790285D01*
X100810285Y-67504571D02*
X99667428Y-67504571D01*
X99381714Y-68076000D02*
X98667428Y-68076000D01*
X99524571Y-67647428D02*
X99024571Y-69147428D01*
X98524571Y-67647428D01*
X98024571Y-67647428D02*
X98024571Y-68647428D01*
X98024571Y-68361714D02*
X97953142Y-68504571D01*
X97881714Y-68576000D01*
X97738857Y-68647428D01*
X97596000Y-68647428D01*
X97310285Y-68647428D02*
X96738857Y-68647428D01*
X97096000Y-69147428D02*
X97096000Y-67861714D01*
X97024571Y-67718857D01*
X96881714Y-67647428D01*
X96738857Y-67647428D01*
X95667428Y-67718857D02*
X95810285Y-67647428D01*
X96096000Y-67647428D01*
X96238857Y-67718857D01*
X96310285Y-67861714D01*
X96310285Y-68433142D01*
X96238857Y-68576000D01*
X96096000Y-68647428D01*
X95810285Y-68647428D01*
X95667428Y-68576000D01*
X95596000Y-68433142D01*
X95596000Y-68290285D01*
X96310285Y-68147428D01*
X94953142Y-67647428D02*
X94953142Y-68647428D01*
X94953142Y-68504571D02*
X94881714Y-68576000D01*
X94738857Y-68647428D01*
X94524571Y-68647428D01*
X94381714Y-68576000D01*
X94310285Y-68433142D01*
X94310285Y-67647428D01*
X94310285Y-68433142D02*
X94238857Y-68576000D01*
X94096000Y-68647428D01*
X93881714Y-68647428D01*
X93738857Y-68576000D01*
X93667428Y-68433142D01*
X93667428Y-67647428D01*
X92953142Y-67647428D02*
X92953142Y-68647428D01*
X92953142Y-69147428D02*
X93024571Y-69076000D01*
X92953142Y-69004571D01*
X92881714Y-69076000D01*
X92953142Y-69147428D01*
X92953142Y-69004571D01*
X92310285Y-67718857D02*
X92167428Y-67647428D01*
X91881714Y-67647428D01*
X91738857Y-67718857D01*
X91667428Y-67861714D01*
X91667428Y-67933142D01*
X91738857Y-68076000D01*
X91881714Y-68147428D01*
X92096000Y-68147428D01*
X92238857Y-68218857D01*
X92310285Y-68361714D01*
X92310285Y-68433142D01*
X92238857Y-68576000D01*
X92096000Y-68647428D01*
X91881714Y-68647428D01*
X91738857Y-68576000D01*
D10*
X97322190Y-161191380D02*
X97322190Y-160191380D01*
X97655523Y-160905666D01*
X97988857Y-160191380D01*
X97988857Y-161191380D01*
X98893619Y-161191380D02*
X98893619Y-160667571D01*
X98846000Y-160572333D01*
X98750761Y-160524714D01*
X98560285Y-160524714D01*
X98465047Y-160572333D01*
X98893619Y-161143761D02*
X98798380Y-161191380D01*
X98560285Y-161191380D01*
X98465047Y-161143761D01*
X98417428Y-161048523D01*
X98417428Y-160953285D01*
X98465047Y-160858047D01*
X98560285Y-160810428D01*
X98798380Y-160810428D01*
X98893619Y-160762809D01*
X99369809Y-161191380D02*
X99369809Y-160524714D01*
X99369809Y-160191380D02*
X99322190Y-160239000D01*
X99369809Y-160286619D01*
X99417428Y-160239000D01*
X99369809Y-160191380D01*
X99369809Y-160286619D01*
X99846000Y-160524714D02*
X99846000Y-161191380D01*
X99846000Y-160619952D02*
X99893619Y-160572333D01*
X99988857Y-160524714D01*
X100131714Y-160524714D01*
X100226952Y-160572333D01*
X100274571Y-160667571D01*
X100274571Y-161191380D01*
X101846000Y-160667571D02*
X101988857Y-160715190D01*
X102036476Y-160762809D01*
X102084095Y-160858047D01*
X102084095Y-161000904D01*
X102036476Y-161096142D01*
X101988857Y-161143761D01*
X101893619Y-161191380D01*
X101512666Y-161191380D01*
X101512666Y-160191380D01*
X101846000Y-160191380D01*
X101941238Y-160239000D01*
X101988857Y-160286619D01*
X102036476Y-160381857D01*
X102036476Y-160477095D01*
X101988857Y-160572333D01*
X101941238Y-160619952D01*
X101846000Y-160667571D01*
X101512666Y-160667571D01*
X102655523Y-161191380D02*
X102560285Y-161143761D01*
X102512666Y-161096142D01*
X102465047Y-161000904D01*
X102465047Y-160715190D01*
X102512666Y-160619952D01*
X102560285Y-160572333D01*
X102655523Y-160524714D01*
X102798380Y-160524714D01*
X102893619Y-160572333D01*
X102941238Y-160619952D01*
X102988857Y-160715190D01*
X102988857Y-161000904D01*
X102941238Y-161096142D01*
X102893619Y-161143761D01*
X102798380Y-161191380D01*
X102655523Y-161191380D01*
X103846000Y-161191380D02*
X103846000Y-160667571D01*
X103798380Y-160572333D01*
X103703142Y-160524714D01*
X103512666Y-160524714D01*
X103417428Y-160572333D01*
X103846000Y-161143761D02*
X103750761Y-161191380D01*
X103512666Y-161191380D01*
X103417428Y-161143761D01*
X103369809Y-161048523D01*
X103369809Y-160953285D01*
X103417428Y-160858047D01*
X103512666Y-160810428D01*
X103750761Y-160810428D01*
X103846000Y-160762809D01*
X104322190Y-161191380D02*
X104322190Y-160524714D01*
X104322190Y-160715190D02*
X104369809Y-160619952D01*
X104417428Y-160572333D01*
X104512666Y-160524714D01*
X104607904Y-160524714D01*
X105369809Y-161191380D02*
X105369809Y-160191380D01*
X105369809Y-161143761D02*
X105274571Y-161191380D01*
X105084095Y-161191380D01*
X104988857Y-161143761D01*
X104941238Y-161096142D01*
X104893619Y-161000904D01*
X104893619Y-160715190D01*
X104941238Y-160619952D01*
X104988857Y-160572333D01*
X105084095Y-160524714D01*
X105274571Y-160524714D01*
X105369809Y-160572333D01*
X95155523Y-162801380D02*
X95155523Y-161801380D01*
X95536476Y-161801380D01*
X95631714Y-161849000D01*
X95679333Y-161896619D01*
X95726952Y-161991857D01*
X95726952Y-162134714D01*
X95679333Y-162229952D01*
X95631714Y-162277571D01*
X95536476Y-162325190D01*
X95155523Y-162325190D01*
X96298380Y-162801380D02*
X96203142Y-162753761D01*
X96155523Y-162706142D01*
X96107904Y-162610904D01*
X96107904Y-162325190D01*
X96155523Y-162229952D01*
X96203142Y-162182333D01*
X96298380Y-162134714D01*
X96441238Y-162134714D01*
X96536476Y-162182333D01*
X96584095Y-162229952D01*
X96631714Y-162325190D01*
X96631714Y-162610904D01*
X96584095Y-162706142D01*
X96536476Y-162753761D01*
X96441238Y-162801380D01*
X96298380Y-162801380D01*
X96965047Y-162134714D02*
X97155523Y-162801380D01*
X97346000Y-162325190D01*
X97536476Y-162801380D01*
X97726952Y-162134714D01*
X98488857Y-162753761D02*
X98393619Y-162801380D01*
X98203142Y-162801380D01*
X98107904Y-162753761D01*
X98060285Y-162658523D01*
X98060285Y-162277571D01*
X98107904Y-162182333D01*
X98203142Y-162134714D01*
X98393619Y-162134714D01*
X98488857Y-162182333D01*
X98536476Y-162277571D01*
X98536476Y-162372809D01*
X98060285Y-162468047D01*
X98965047Y-162801380D02*
X98965047Y-162134714D01*
X98965047Y-162325190D02*
X99012666Y-162229952D01*
X99060285Y-162182333D01*
X99155523Y-162134714D01*
X99250761Y-162134714D01*
X99965047Y-162753761D02*
X99869809Y-162801380D01*
X99679333Y-162801380D01*
X99584095Y-162753761D01*
X99536476Y-162658523D01*
X99536476Y-162277571D01*
X99584095Y-162182333D01*
X99679333Y-162134714D01*
X99869809Y-162134714D01*
X99965047Y-162182333D01*
X100012666Y-162277571D01*
X100012666Y-162372809D01*
X99536476Y-162468047D01*
X100869809Y-162801380D02*
X100869809Y-161801380D01*
X100869809Y-162753761D02*
X100774571Y-162801380D01*
X100584095Y-162801380D01*
X100488857Y-162753761D01*
X100441238Y-162706142D01*
X100393619Y-162610904D01*
X100393619Y-162325190D01*
X100441238Y-162229952D01*
X100488857Y-162182333D01*
X100584095Y-162134714D01*
X100774571Y-162134714D01*
X100869809Y-162182333D01*
X102107904Y-162801380D02*
X102107904Y-161801380D01*
X102107904Y-162182333D02*
X102203142Y-162134714D01*
X102393619Y-162134714D01*
X102488857Y-162182333D01*
X102536476Y-162229952D01*
X102584095Y-162325190D01*
X102584095Y-162610904D01*
X102536476Y-162706142D01*
X102488857Y-162753761D01*
X102393619Y-162801380D01*
X102203142Y-162801380D01*
X102107904Y-162753761D01*
X102917428Y-162134714D02*
X103155523Y-162801380D01*
X103393619Y-162134714D02*
X103155523Y-162801380D01*
X103060285Y-163039476D01*
X103012666Y-163087095D01*
X102917428Y-163134714D01*
X104393619Y-161801380D02*
X104965047Y-161801380D01*
X104679333Y-162801380D02*
X104679333Y-161801380D01*
X105584095Y-161801380D02*
X105584095Y-162515666D01*
X105536476Y-162658523D01*
X105441238Y-162753761D01*
X105298380Y-162801380D01*
X105203142Y-162801380D01*
X105965047Y-161801380D02*
X106584095Y-161801380D01*
X106250761Y-162182333D01*
X106393619Y-162182333D01*
X106488857Y-162229952D01*
X106536476Y-162277571D01*
X106584095Y-162372809D01*
X106584095Y-162610904D01*
X106536476Y-162706142D01*
X106488857Y-162753761D01*
X106393619Y-162801380D01*
X106107904Y-162801380D01*
X106012666Y-162753761D01*
X105965047Y-162706142D01*
X107346000Y-162277571D02*
X107488857Y-162325190D01*
X107536476Y-162372809D01*
X107584095Y-162468047D01*
X107584095Y-162610904D01*
X107536476Y-162706142D01*
X107488857Y-162753761D01*
X107393619Y-162801380D01*
X107012666Y-162801380D01*
X107012666Y-161801380D01*
X107346000Y-161801380D01*
X107441238Y-161849000D01*
X107488857Y-161896619D01*
X107536476Y-161991857D01*
X107536476Y-162087095D01*
X107488857Y-162182333D01*
X107441238Y-162229952D01*
X107346000Y-162277571D01*
X107012666Y-162277571D01*
D11*
X91992857Y-166794571D02*
X91992857Y-165294571D01*
X92492857Y-166366000D01*
X92992857Y-165294571D01*
X92992857Y-166794571D01*
X94350000Y-165794571D02*
X94350000Y-166794571D01*
X93707142Y-165794571D02*
X93707142Y-166580285D01*
X93778571Y-166723142D01*
X93921428Y-166794571D01*
X94135714Y-166794571D01*
X94278571Y-166723142D01*
X94350000Y-166651714D01*
X95064285Y-165794571D02*
X95064285Y-166794571D01*
X95064285Y-165937428D02*
X95135714Y-165866000D01*
X95278571Y-165794571D01*
X95492857Y-165794571D01*
X95635714Y-165866000D01*
X95707142Y-166008857D01*
X95707142Y-166794571D01*
X97064285Y-166794571D02*
X97064285Y-166008857D01*
X96992857Y-165866000D01*
X96850000Y-165794571D01*
X96564285Y-165794571D01*
X96421428Y-165866000D01*
X97064285Y-166723142D02*
X96921428Y-166794571D01*
X96564285Y-166794571D01*
X96421428Y-166723142D01*
X96350000Y-166580285D01*
X96350000Y-166437428D01*
X96421428Y-166294571D01*
X96564285Y-166223142D01*
X96921428Y-166223142D01*
X97064285Y-166151714D01*
X97564285Y-165794571D02*
X98135714Y-165794571D01*
X97778571Y-165294571D02*
X97778571Y-166580285D01*
X97850000Y-166723142D01*
X97992857Y-166794571D01*
X98135714Y-166794571D01*
X98492857Y-165794571D02*
X98850000Y-166794571D01*
X99207142Y-165794571D02*
X98850000Y-166794571D01*
X98707142Y-167151714D01*
X98635714Y-167223142D01*
X98492857Y-167294571D01*
X100421428Y-165794571D02*
X100421428Y-166794571D01*
X99778571Y-165794571D02*
X99778571Y-166580285D01*
X99850000Y-166723142D01*
X99992857Y-166794571D01*
X100207142Y-166794571D01*
X100350000Y-166723142D01*
X100421428Y-166651714D01*
X101778571Y-165794571D02*
X101778571Y-166794571D01*
X101135714Y-165794571D02*
X101135714Y-166580285D01*
X101207142Y-166723142D01*
X101350000Y-166794571D01*
X101564285Y-166794571D01*
X101707142Y-166723142D01*
X101778571Y-166651714D01*
X102135714Y-166937428D02*
X103278571Y-166937428D01*
X103564285Y-166366000D02*
X104278571Y-166366000D01*
X103421428Y-166794571D02*
X103921428Y-165294571D01*
X104421428Y-166794571D01*
X104921428Y-166794571D02*
X104921428Y-165794571D01*
X104921428Y-166080285D02*
X104992857Y-165937428D01*
X105064285Y-165866000D01*
X105207142Y-165794571D01*
X105350000Y-165794571D01*
X105635714Y-165794571D02*
X106207142Y-165794571D01*
X105850000Y-165294571D02*
X105850000Y-166580285D01*
X105921428Y-166723142D01*
X106064285Y-166794571D01*
X106207142Y-166794571D01*
X107278571Y-166723142D02*
X107135714Y-166794571D01*
X106850000Y-166794571D01*
X106707142Y-166723142D01*
X106635714Y-166580285D01*
X106635714Y-166008857D01*
X106707142Y-165866000D01*
X106850000Y-165794571D01*
X107135714Y-165794571D01*
X107278571Y-165866000D01*
X107350000Y-166008857D01*
X107350000Y-166151714D01*
X106635714Y-166294571D01*
X107992857Y-166794571D02*
X107992857Y-165794571D01*
X107992857Y-165937428D02*
X108064285Y-165866000D01*
X108207142Y-165794571D01*
X108421428Y-165794571D01*
X108564285Y-165866000D01*
X108635714Y-166008857D01*
X108635714Y-166794571D01*
X108635714Y-166008857D02*
X108707142Y-165866000D01*
X108850000Y-165794571D01*
X109064285Y-165794571D01*
X109207142Y-165866000D01*
X109278571Y-166008857D01*
X109278571Y-166794571D01*
X109992857Y-166794571D02*
X109992857Y-165794571D01*
X109992857Y-165294571D02*
X109921428Y-165366000D01*
X109992857Y-165437428D01*
X110064285Y-165366000D01*
X109992857Y-165294571D01*
X109992857Y-165437428D01*
X110635714Y-166723142D02*
X110778571Y-166794571D01*
X111064285Y-166794571D01*
X111207142Y-166723142D01*
X111278571Y-166580285D01*
X111278571Y-166508857D01*
X111207142Y-166366000D01*
X111064285Y-166294571D01*
X110850000Y-166294571D01*
X110707142Y-166223142D01*
X110635714Y-166080285D01*
X110635714Y-166008857D01*
X110707142Y-165866000D01*
X110850000Y-165794571D01*
X111064285Y-165794571D01*
X111207142Y-165866000D01*
D10*
X142438380Y-112148857D02*
X141962190Y-112482190D01*
X142438380Y-112720285D02*
X141438380Y-112720285D01*
X141438380Y-112339333D01*
X141486000Y-112244095D01*
X141533619Y-112196476D01*
X141628857Y-112148857D01*
X141771714Y-112148857D01*
X141866952Y-112196476D01*
X141914571Y-112244095D01*
X141962190Y-112339333D01*
X141962190Y-112720285D01*
X141438380Y-111815523D02*
X141438380Y-111196476D01*
X141819333Y-111529809D01*
X141819333Y-111386952D01*
X141866952Y-111291714D01*
X141914571Y-111244095D01*
X142009809Y-111196476D01*
X142247904Y-111196476D01*
X142343142Y-111244095D01*
X142390761Y-111291714D01*
X142438380Y-111386952D01*
X142438380Y-111672666D01*
X142390761Y-111767904D01*
X142343142Y-111815523D01*
X142438380Y-110244095D02*
X142438380Y-110815523D01*
X142438380Y-110529809D02*
X141438380Y-110529809D01*
X141581238Y-110625047D01*
X141676476Y-110720285D01*
X141724095Y-110815523D01*
X104227333Y-90273142D02*
X104179714Y-90320761D01*
X104036857Y-90368380D01*
X103941619Y-90368380D01*
X103798761Y-90320761D01*
X103703523Y-90225523D01*
X103655904Y-90130285D01*
X103608285Y-89939809D01*
X103608285Y-89796952D01*
X103655904Y-89606476D01*
X103703523Y-89511238D01*
X103798761Y-89416000D01*
X103941619Y-89368380D01*
X104036857Y-89368380D01*
X104179714Y-89416000D01*
X104227333Y-89463619D01*
X104608285Y-89463619D02*
X104655904Y-89416000D01*
X104751142Y-89368380D01*
X104989238Y-89368380D01*
X105084476Y-89416000D01*
X105132095Y-89463619D01*
X105179714Y-89558857D01*
X105179714Y-89654095D01*
X105132095Y-89796952D01*
X104560666Y-90368380D01*
X105179714Y-90368380D01*
X82399109Y-163150065D02*
X82524838Y-163717569D01*
X82927040Y-163368741D02*
X82544356Y-164292621D01*
X82192402Y-164146836D01*
X82122637Y-164066396D01*
X82096866Y-164004179D01*
X82089317Y-163897967D01*
X82143986Y-163765984D01*
X82224427Y-163696219D01*
X82286644Y-163670448D01*
X82392856Y-163662899D01*
X82744810Y-163808684D01*
X81700917Y-163840172D02*
X81638700Y-163865943D01*
X81532488Y-163873491D01*
X81312517Y-163782376D01*
X81242752Y-163701936D01*
X81216980Y-163639718D01*
X81209432Y-163533507D01*
X81245878Y-163445518D01*
X81344541Y-163331759D01*
X82091149Y-163022504D01*
X81519223Y-162785604D01*
X80828580Y-163581923D02*
X80212661Y-163326800D01*
X80991292Y-162566928D01*
X140946857Y-125230000D02*
X140851619Y-125182380D01*
X140708761Y-125182380D01*
X140565904Y-125230000D01*
X140470666Y-125325238D01*
X140423047Y-125420476D01*
X140375428Y-125610952D01*
X140375428Y-125753809D01*
X140423047Y-125944285D01*
X140470666Y-126039523D01*
X140565904Y-126134761D01*
X140708761Y-126182380D01*
X140804000Y-126182380D01*
X140946857Y-126134761D01*
X140994476Y-126087142D01*
X140994476Y-125753809D01*
X140804000Y-125753809D01*
X141327809Y-125515714D02*
X141565904Y-126182380D01*
X141804000Y-125515714D02*
X141565904Y-126182380D01*
X141470666Y-126420476D01*
X141423047Y-126468095D01*
X141327809Y-126515714D01*
X142184952Y-126182380D02*
X142184952Y-125515714D01*
X142184952Y-125706190D02*
X142232571Y-125610952D01*
X142280190Y-125563333D01*
X142375428Y-125515714D01*
X142470666Y-125515714D01*
X142946857Y-126182380D02*
X142851619Y-126134761D01*
X142804000Y-126087142D01*
X142756380Y-125991904D01*
X142756380Y-125706190D01*
X142804000Y-125610952D01*
X142851619Y-125563333D01*
X142946857Y-125515714D01*
X143089714Y-125515714D01*
X143184952Y-125563333D01*
X143232571Y-125610952D01*
X143280190Y-125706190D01*
X143280190Y-125991904D01*
X143232571Y-126087142D01*
X143184952Y-126134761D01*
X143089714Y-126182380D01*
X142946857Y-126182380D01*
X145042095Y-126087142D02*
X144994476Y-126134761D01*
X144851619Y-126182380D01*
X144756380Y-126182380D01*
X144613523Y-126134761D01*
X144518285Y-126039523D01*
X144470666Y-125944285D01*
X144423047Y-125753809D01*
X144423047Y-125610952D01*
X144470666Y-125420476D01*
X144518285Y-125325238D01*
X144613523Y-125230000D01*
X144756380Y-125182380D01*
X144851619Y-125182380D01*
X144994476Y-125230000D01*
X145042095Y-125277619D01*
X145899238Y-126182380D02*
X145899238Y-125658571D01*
X145851619Y-125563333D01*
X145756380Y-125515714D01*
X145565904Y-125515714D01*
X145470666Y-125563333D01*
X145899238Y-126134761D02*
X145804000Y-126182380D01*
X145565904Y-126182380D01*
X145470666Y-126134761D01*
X145423047Y-126039523D01*
X145423047Y-125944285D01*
X145470666Y-125849047D01*
X145565904Y-125801428D01*
X145804000Y-125801428D01*
X145899238Y-125753809D01*
X146518285Y-126182380D02*
X146423047Y-126134761D01*
X146375428Y-126039523D01*
X146375428Y-125182380D01*
X146899238Y-126182380D02*
X146899238Y-125515714D01*
X146899238Y-125182380D02*
X146851619Y-125230000D01*
X146899238Y-125277619D01*
X146946857Y-125230000D01*
X146899238Y-125182380D01*
X146899238Y-125277619D01*
X147375428Y-126182380D02*
X147375428Y-125182380D01*
X147375428Y-125563333D02*
X147470666Y-125515714D01*
X147661142Y-125515714D01*
X147756380Y-125563333D01*
X147804000Y-125610952D01*
X147851619Y-125706190D01*
X147851619Y-125991904D01*
X147804000Y-126087142D01*
X147756380Y-126134761D01*
X147661142Y-126182380D01*
X147470666Y-126182380D01*
X147375428Y-126134761D01*
X148280190Y-126182380D02*
X148280190Y-125515714D01*
X148280190Y-125706190D02*
X148327809Y-125610952D01*
X148375428Y-125563333D01*
X148470666Y-125515714D01*
X148565904Y-125515714D01*
X149327809Y-126182380D02*
X149327809Y-125658571D01*
X149280190Y-125563333D01*
X149184952Y-125515714D01*
X148994476Y-125515714D01*
X148899238Y-125563333D01*
X149327809Y-126134761D02*
X149232571Y-126182380D01*
X148994476Y-126182380D01*
X148899238Y-126134761D01*
X148851619Y-126039523D01*
X148851619Y-125944285D01*
X148899238Y-125849047D01*
X148994476Y-125801428D01*
X149232571Y-125801428D01*
X149327809Y-125753809D01*
X149661142Y-125515714D02*
X150042095Y-125515714D01*
X149804000Y-125182380D02*
X149804000Y-126039523D01*
X149851619Y-126134761D01*
X149946857Y-126182380D01*
X150042095Y-126182380D01*
X150375428Y-126182380D02*
X150375428Y-125515714D01*
X150375428Y-125182380D02*
X150327809Y-125230000D01*
X150375428Y-125277619D01*
X150423047Y-125230000D01*
X150375428Y-125182380D01*
X150375428Y-125277619D01*
X150994476Y-126182380D02*
X150899238Y-126134761D01*
X150851619Y-126087142D01*
X150804000Y-125991904D01*
X150804000Y-125706190D01*
X150851619Y-125610952D01*
X150899238Y-125563333D01*
X150994476Y-125515714D01*
X151137333Y-125515714D01*
X151232571Y-125563333D01*
X151280190Y-125610952D01*
X151327809Y-125706190D01*
X151327809Y-125991904D01*
X151280190Y-126087142D01*
X151232571Y-126134761D01*
X151137333Y-126182380D01*
X150994476Y-126182380D01*
X151756380Y-125515714D02*
X151756380Y-126182380D01*
X151756380Y-125610952D02*
X151804000Y-125563333D01*
X151899238Y-125515714D01*
X152042095Y-125515714D01*
X152137333Y-125563333D01*
X152184952Y-125658571D01*
X152184952Y-126182380D01*
X119213196Y-164493956D02*
X118723006Y-164181574D01*
X118685264Y-164712632D02*
X118302581Y-163788752D01*
X118654535Y-163642968D01*
X118760747Y-163650517D01*
X118822964Y-163676288D01*
X118903404Y-163746053D01*
X118958073Y-163878036D01*
X118950525Y-163984248D01*
X118924754Y-164046465D01*
X118854988Y-164126905D01*
X118503034Y-164272689D01*
X119138472Y-163442515D02*
X119710397Y-163205616D01*
X119548222Y-163685131D01*
X119680205Y-163630462D01*
X119786416Y-163638010D01*
X119848633Y-163663781D01*
X119929074Y-163733547D01*
X120020189Y-163953518D01*
X120012641Y-164059730D01*
X119986869Y-164121947D01*
X119917104Y-164202387D01*
X119653138Y-164311726D01*
X119546927Y-164304177D01*
X119484709Y-164278406D01*
X120546288Y-162859378D02*
X120106346Y-163041609D01*
X120244582Y-163499774D01*
X120270353Y-163437557D01*
X120340119Y-163357117D01*
X120560090Y-163266002D01*
X120666301Y-163273550D01*
X120728519Y-163299321D01*
X120808959Y-163369087D01*
X120900074Y-163589058D01*
X120892526Y-163695269D01*
X120866755Y-163757487D01*
X120796989Y-163837927D01*
X120577018Y-163929042D01*
X120470806Y-163921494D01*
X120408589Y-163895723D01*
X83602652Y-161023823D02*
X83664869Y-160998052D01*
X83815075Y-161008727D01*
X83903064Y-161045173D01*
X84016823Y-161143836D01*
X84068366Y-161268271D01*
X84075914Y-161374482D01*
X84047016Y-161568682D01*
X83992347Y-161700665D01*
X83875461Y-161858419D01*
X83795021Y-161928185D01*
X83670586Y-161979727D01*
X83520380Y-161969052D01*
X83432392Y-161932606D01*
X83318632Y-161833943D01*
X83292861Y-161771726D01*
X82464518Y-161531700D02*
X82640495Y-161604592D01*
X82746707Y-161597044D01*
X82808924Y-161571272D01*
X82951581Y-161475736D01*
X83068468Y-161317982D01*
X83214252Y-160966027D01*
X83206704Y-160859816D01*
X83180932Y-160797599D01*
X83111167Y-160717158D01*
X82935190Y-160644266D01*
X82828978Y-160651814D01*
X82766761Y-160677586D01*
X82686321Y-160747351D01*
X82595206Y-160967323D01*
X82602754Y-161073534D01*
X82628525Y-161135751D01*
X82698291Y-161216192D01*
X82874268Y-161289084D01*
X82980479Y-161281536D01*
X83042697Y-161255764D01*
X83123137Y-161185999D01*
X104227333Y-97988380D02*
X103894000Y-97512190D01*
X103655904Y-97988380D02*
X103655904Y-96988380D01*
X104036857Y-96988380D01*
X104132095Y-97036000D01*
X104179714Y-97083619D01*
X104227333Y-97178857D01*
X104227333Y-97321714D01*
X104179714Y-97416952D01*
X104132095Y-97464571D01*
X104036857Y-97512190D01*
X103655904Y-97512190D01*
X105084476Y-97321714D02*
X105084476Y-97988380D01*
X104846380Y-96940761D02*
X104608285Y-97655047D01*
X105227333Y-97655047D01*
X104227333Y-87828380D02*
X103894000Y-87352190D01*
X103655904Y-87828380D02*
X103655904Y-86828380D01*
X104036857Y-86828380D01*
X104132095Y-86876000D01*
X104179714Y-86923619D01*
X104227333Y-87018857D01*
X104227333Y-87161714D01*
X104179714Y-87256952D01*
X104132095Y-87304571D01*
X104036857Y-87352190D01*
X103655904Y-87352190D01*
X104608285Y-86923619D02*
X104655904Y-86876000D01*
X104751142Y-86828380D01*
X104989238Y-86828380D01*
X105084476Y-86876000D01*
X105132095Y-86923619D01*
X105179714Y-87018857D01*
X105179714Y-87114095D01*
X105132095Y-87256952D01*
X104560666Y-87828380D01*
X105179714Y-87828380D01*
X103980380Y-155165095D02*
X102980380Y-155165095D01*
X102980380Y-154927000D01*
X103028000Y-154784142D01*
X103123238Y-154688904D01*
X103218476Y-154641285D01*
X103408952Y-154593666D01*
X103551809Y-154593666D01*
X103742285Y-154641285D01*
X103837523Y-154688904D01*
X103932761Y-154784142D01*
X103980380Y-154927000D01*
X103980380Y-155165095D01*
X102980380Y-154260333D02*
X102980380Y-153641285D01*
X103361333Y-153974619D01*
X103361333Y-153831761D01*
X103408952Y-153736523D01*
X103456571Y-153688904D01*
X103551809Y-153641285D01*
X103789904Y-153641285D01*
X103885142Y-153688904D01*
X103932761Y-153736523D01*
X103980380Y-153831761D01*
X103980380Y-154117476D01*
X103932761Y-154212714D01*
X103885142Y-154260333D01*
X86225142Y-116276380D02*
X85891809Y-115800190D01*
X85653714Y-116276380D02*
X85653714Y-115276380D01*
X86034666Y-115276380D01*
X86129904Y-115324000D01*
X86177523Y-115371619D01*
X86225142Y-115466857D01*
X86225142Y-115609714D01*
X86177523Y-115704952D01*
X86129904Y-115752571D01*
X86034666Y-115800190D01*
X85653714Y-115800190D01*
X86606095Y-115371619D02*
X86653714Y-115324000D01*
X86748952Y-115276380D01*
X86987047Y-115276380D01*
X87082285Y-115324000D01*
X87129904Y-115371619D01*
X87177523Y-115466857D01*
X87177523Y-115562095D01*
X87129904Y-115704952D01*
X86558476Y-116276380D01*
X87177523Y-116276380D01*
X87558476Y-115371619D02*
X87606095Y-115324000D01*
X87701333Y-115276380D01*
X87939428Y-115276380D01*
X88034666Y-115324000D01*
X88082285Y-115371619D01*
X88129904Y-115466857D01*
X88129904Y-115562095D01*
X88082285Y-115704952D01*
X87510857Y-116276380D01*
X88129904Y-116276380D01*
X119220380Y-155165095D02*
X118220380Y-155165095D01*
X118220380Y-154927000D01*
X118268000Y-154784142D01*
X118363238Y-154688904D01*
X118458476Y-154641285D01*
X118648952Y-154593666D01*
X118791809Y-154593666D01*
X118982285Y-154641285D01*
X119077523Y-154688904D01*
X119172761Y-154784142D01*
X119220380Y-154927000D01*
X119220380Y-155165095D01*
X118220380Y-153688904D02*
X118220380Y-154165095D01*
X118696571Y-154212714D01*
X118648952Y-154165095D01*
X118601333Y-154069857D01*
X118601333Y-153831761D01*
X118648952Y-153736523D01*
X118696571Y-153688904D01*
X118791809Y-153641285D01*
X119029904Y-153641285D01*
X119125142Y-153688904D01*
X119172761Y-153736523D01*
X119220380Y-153831761D01*
X119220380Y-154069857D01*
X119172761Y-154165095D01*
X119125142Y-154212714D01*
X72898095Y-119086380D02*
X72898095Y-119895904D01*
X72945714Y-119991142D01*
X72993333Y-120038761D01*
X73088571Y-120086380D01*
X73279047Y-120086380D01*
X73374285Y-120038761D01*
X73421904Y-119991142D01*
X73469523Y-119895904D01*
X73469523Y-119086380D01*
X73850476Y-119086380D02*
X74469523Y-119086380D01*
X74136190Y-119467333D01*
X74279047Y-119467333D01*
X74374285Y-119514952D01*
X74421904Y-119562571D01*
X74469523Y-119657809D01*
X74469523Y-119895904D01*
X74421904Y-119991142D01*
X74374285Y-120038761D01*
X74279047Y-120086380D01*
X73993333Y-120086380D01*
X73898095Y-120038761D01*
X73850476Y-119991142D01*
X121671041Y-71202065D02*
X121796770Y-71769569D01*
X122198972Y-71420741D02*
X121816288Y-72344621D01*
X121464334Y-72198836D01*
X121394569Y-72118396D01*
X121368798Y-72056179D01*
X121361249Y-71949967D01*
X121415918Y-71817984D01*
X121496359Y-71748219D01*
X121558576Y-71722448D01*
X121664788Y-71714899D01*
X122016742Y-71860684D01*
X120980397Y-71998383D02*
X120408472Y-71761484D01*
X120862216Y-71537091D01*
X120730233Y-71482422D01*
X120660468Y-71401982D01*
X120634697Y-71339764D01*
X120627148Y-71233553D01*
X120718263Y-71013581D01*
X120798704Y-70943816D01*
X120860921Y-70918045D01*
X120967133Y-70910496D01*
X121231098Y-71019835D01*
X121300864Y-71100275D01*
X121326635Y-71162492D01*
X120092964Y-71527711D02*
X120030747Y-71553482D01*
X119924535Y-71561031D01*
X119704564Y-71469916D01*
X119634798Y-71389475D01*
X119609027Y-71327258D01*
X119601479Y-71221046D01*
X119637925Y-71133058D01*
X119736588Y-71019298D01*
X120483196Y-70710043D01*
X119911270Y-70473144D01*
X60825142Y-110434380D02*
X60491809Y-109958190D01*
X60253714Y-110434380D02*
X60253714Y-109434380D01*
X60634666Y-109434380D01*
X60729904Y-109482000D01*
X60777523Y-109529619D01*
X60825142Y-109624857D01*
X60825142Y-109767714D01*
X60777523Y-109862952D01*
X60729904Y-109910571D01*
X60634666Y-109958190D01*
X60253714Y-109958190D01*
X61777523Y-110434380D02*
X61206095Y-110434380D01*
X61491809Y-110434380D02*
X61491809Y-109434380D01*
X61396571Y-109577238D01*
X61301333Y-109672476D01*
X61206095Y-109720095D01*
X62729904Y-110434380D02*
X62158476Y-110434380D01*
X62444190Y-110434380D02*
X62444190Y-109434380D01*
X62348952Y-109577238D01*
X62253714Y-109672476D01*
X62158476Y-109720095D01*
X58051737Y-135907307D02*
X58113954Y-135933078D01*
X58212618Y-136046838D01*
X58249064Y-136134826D01*
X58259738Y-136285032D01*
X58208196Y-136409467D01*
X58138431Y-136489907D01*
X57980676Y-136606793D01*
X57848694Y-136661462D01*
X57654494Y-136690360D01*
X57548282Y-136682812D01*
X57423847Y-136631270D01*
X57325184Y-136517510D01*
X57288738Y-136429521D01*
X57278063Y-136279315D01*
X57303835Y-136217098D01*
X57088285Y-135945584D02*
X56833163Y-135329665D01*
X57921049Y-135342930D01*
X104227333Y-92908380D02*
X103894000Y-92432190D01*
X103655904Y-92908380D02*
X103655904Y-91908380D01*
X104036857Y-91908380D01*
X104132095Y-91956000D01*
X104179714Y-92003619D01*
X104227333Y-92098857D01*
X104227333Y-92241714D01*
X104179714Y-92336952D01*
X104132095Y-92384571D01*
X104036857Y-92432190D01*
X103655904Y-92432190D01*
X104560666Y-91908380D02*
X105179714Y-91908380D01*
X104846380Y-92289333D01*
X104989238Y-92289333D01*
X105084476Y-92336952D01*
X105132095Y-92384571D01*
X105179714Y-92479809D01*
X105179714Y-92717904D01*
X105132095Y-92813142D01*
X105084476Y-92860761D01*
X104989238Y-92908380D01*
X104703523Y-92908380D01*
X104608285Y-92860761D01*
X104560666Y-92813142D01*
X105433904Y-134056380D02*
X105433904Y-133056380D01*
X105672000Y-133056380D01*
X105814857Y-133104000D01*
X105910095Y-133199238D01*
X105957714Y-133294476D01*
X106005333Y-133484952D01*
X106005333Y-133627809D01*
X105957714Y-133818285D01*
X105910095Y-133913523D01*
X105814857Y-134008761D01*
X105672000Y-134056380D01*
X105433904Y-134056380D01*
X106957714Y-134056380D02*
X106386285Y-134056380D01*
X106672000Y-134056380D02*
X106672000Y-133056380D01*
X106576761Y-133199238D01*
X106481523Y-133294476D01*
X106386285Y-133342095D01*
X103624095Y-134056380D02*
X103624095Y-133056380D01*
X104195523Y-134056380D02*
X103766952Y-133484952D01*
X104195523Y-133056380D02*
X103624095Y-133627809D01*
X71538030Y-91095142D02*
X71490411Y-91142761D01*
X71347554Y-91190380D01*
X71252316Y-91190380D01*
X71109459Y-91142761D01*
X71014221Y-91047523D01*
X70966602Y-90952285D01*
X70918983Y-90761809D01*
X70918983Y-90618952D01*
X70966602Y-90428476D01*
X71014221Y-90333238D01*
X71109459Y-90238000D01*
X71252316Y-90190380D01*
X71347554Y-90190380D01*
X71490411Y-90238000D01*
X71538030Y-90285619D01*
X72490411Y-91190380D02*
X71918983Y-91190380D01*
X72204697Y-91190380D02*
X72204697Y-90190380D01*
X72109459Y-90333238D01*
X72014221Y-90428476D01*
X71918983Y-90476095D01*
X73395173Y-90190380D02*
X72918983Y-90190380D01*
X72871364Y-90666571D01*
X72918983Y-90618952D01*
X73014221Y-90571333D01*
X73252316Y-90571333D01*
X73347554Y-90618952D01*
X73395173Y-90666571D01*
X73442792Y-90761809D01*
X73442792Y-90999904D01*
X73395173Y-91095142D01*
X73347554Y-91142761D01*
X73252316Y-91190380D01*
X73014221Y-91190380D01*
X72918983Y-91142761D01*
X72871364Y-91095142D01*
X81875196Y-71529956D02*
X81385006Y-71217574D01*
X81347264Y-71748632D02*
X80964581Y-70824752D01*
X81316535Y-70678968D01*
X81422747Y-70686517D01*
X81484964Y-70712288D01*
X81565404Y-70782053D01*
X81620073Y-70914036D01*
X81612525Y-71020248D01*
X81586754Y-71082465D01*
X81516988Y-71162905D01*
X81165034Y-71308689D01*
X81800472Y-70478515D02*
X82372397Y-70241616D01*
X82210222Y-70721131D01*
X82342205Y-70666462D01*
X82448416Y-70674010D01*
X82510633Y-70699781D01*
X82591074Y-70769547D01*
X82682189Y-70989518D01*
X82674641Y-71095730D01*
X82648869Y-71157947D01*
X82579104Y-71238387D01*
X82315138Y-71347726D01*
X82208927Y-71340177D01*
X82146709Y-71314406D01*
X82944323Y-70004717D02*
X83032311Y-69968271D01*
X83138523Y-69975819D01*
X83200740Y-70001590D01*
X83281181Y-70071355D01*
X83398067Y-70229110D01*
X83489182Y-70449081D01*
X83518080Y-70643281D01*
X83510532Y-70749492D01*
X83484760Y-70811710D01*
X83414995Y-70892150D01*
X83327006Y-70928596D01*
X83220795Y-70921048D01*
X83158578Y-70895277D01*
X83078137Y-70825511D01*
X82961251Y-70667757D01*
X82870136Y-70447786D01*
X82841238Y-70253586D01*
X82848786Y-70147374D01*
X82874557Y-70085157D01*
X82944323Y-70004717D01*
X150481142Y-113398857D02*
X150528761Y-113446476D01*
X150576380Y-113589333D01*
X150576380Y-113684571D01*
X150528761Y-113827428D01*
X150433523Y-113922666D01*
X150338285Y-113970285D01*
X150147809Y-114017904D01*
X150004952Y-114017904D01*
X149814476Y-113970285D01*
X149719238Y-113922666D01*
X149624000Y-113827428D01*
X149576380Y-113684571D01*
X149576380Y-113589333D01*
X149624000Y-113446476D01*
X149671619Y-113398857D01*
X150576380Y-112446476D02*
X150576380Y-113017904D01*
X150576380Y-112732190D02*
X149576380Y-112732190D01*
X149719238Y-112827428D01*
X149814476Y-112922666D01*
X149862095Y-113017904D01*
X149576380Y-111589333D02*
X149576380Y-111779809D01*
X149624000Y-111875047D01*
X149671619Y-111922666D01*
X149814476Y-112017904D01*
X150004952Y-112065523D01*
X150385904Y-112065523D01*
X150481142Y-112017904D01*
X150528761Y-111970285D01*
X150576380Y-111875047D01*
X150576380Y-111684571D01*
X150528761Y-111589333D01*
X150481142Y-111541714D01*
X150385904Y-111494095D01*
X150147809Y-111494095D01*
X150052571Y-111541714D01*
X150004952Y-111589333D01*
X149957333Y-111684571D01*
X149957333Y-111875047D01*
X150004952Y-111970285D01*
X150052571Y-112017904D01*
X150147809Y-112065523D01*
X86225142Y-128214380D02*
X85891809Y-127738190D01*
X85653714Y-128214380D02*
X85653714Y-127214380D01*
X86034666Y-127214380D01*
X86129904Y-127262000D01*
X86177523Y-127309619D01*
X86225142Y-127404857D01*
X86225142Y-127547714D01*
X86177523Y-127642952D01*
X86129904Y-127690571D01*
X86034666Y-127738190D01*
X85653714Y-127738190D01*
X86606095Y-127309619D02*
X86653714Y-127262000D01*
X86748952Y-127214380D01*
X86987047Y-127214380D01*
X87082285Y-127262000D01*
X87129904Y-127309619D01*
X87177523Y-127404857D01*
X87177523Y-127500095D01*
X87129904Y-127642952D01*
X86558476Y-128214380D01*
X87177523Y-128214380D01*
X88034666Y-127547714D02*
X88034666Y-128214380D01*
X87796571Y-127166761D02*
X87558476Y-127881047D01*
X88177523Y-127881047D01*
X145355967Y-99517249D02*
X145418185Y-99543021D01*
X145516848Y-99656780D01*
X145553294Y-99744769D01*
X145563969Y-99894975D01*
X145512426Y-100019409D01*
X145442661Y-100099850D01*
X145284907Y-100216736D01*
X145152924Y-100271405D01*
X144958724Y-100300303D01*
X144852512Y-100292755D01*
X144728078Y-100241212D01*
X144629414Y-100127452D01*
X144592968Y-100039464D01*
X144582294Y-99889258D01*
X144608065Y-99827041D01*
X145079495Y-98600918D02*
X145298172Y-99128849D01*
X145188833Y-98864884D02*
X144264954Y-99247567D01*
X144433383Y-99280887D01*
X144557817Y-99332429D01*
X144638258Y-99402195D01*
X144097820Y-98595201D02*
X144035603Y-98569430D01*
X143955163Y-98499665D01*
X143864048Y-98279693D01*
X143871596Y-98173482D01*
X143897367Y-98111264D01*
X143967132Y-98030824D01*
X144055121Y-97994378D01*
X144205327Y-97983703D01*
X144951934Y-98292958D01*
X144715035Y-97721033D01*
X86225142Y-130754380D02*
X85891809Y-130278190D01*
X85653714Y-130754380D02*
X85653714Y-129754380D01*
X86034666Y-129754380D01*
X86129904Y-129802000D01*
X86177523Y-129849619D01*
X86225142Y-129944857D01*
X86225142Y-130087714D01*
X86177523Y-130182952D01*
X86129904Y-130230571D01*
X86034666Y-130278190D01*
X85653714Y-130278190D01*
X86606095Y-129849619D02*
X86653714Y-129802000D01*
X86748952Y-129754380D01*
X86987047Y-129754380D01*
X87082285Y-129802000D01*
X87129904Y-129849619D01*
X87177523Y-129944857D01*
X87177523Y-130040095D01*
X87129904Y-130182952D01*
X86558476Y-130754380D01*
X87177523Y-130754380D01*
X88082285Y-129754380D02*
X87606095Y-129754380D01*
X87558476Y-130230571D01*
X87606095Y-130182952D01*
X87701333Y-130135333D01*
X87939428Y-130135333D01*
X88034666Y-130182952D01*
X88082285Y-130230571D01*
X88129904Y-130325809D01*
X88129904Y-130563904D01*
X88082285Y-130659142D01*
X88034666Y-130706761D01*
X87939428Y-130754380D01*
X87701333Y-130754380D01*
X87606095Y-130706761D01*
X87558476Y-130659142D01*
X116945040Y-146037904D02*
X117754564Y-146037904D01*
X117849802Y-145990285D01*
X117897421Y-145942666D01*
X117945040Y-145847428D01*
X117945040Y-145656952D01*
X117897421Y-145561714D01*
X117849802Y-145514095D01*
X117754564Y-145466476D01*
X116945040Y-145466476D01*
X117040279Y-145037904D02*
X116992660Y-144990285D01*
X116945040Y-144895047D01*
X116945040Y-144656952D01*
X116992660Y-144561714D01*
X117040279Y-144514095D01*
X117135517Y-144466476D01*
X117230755Y-144466476D01*
X117373612Y-144514095D01*
X117945040Y-145085523D01*
X117945040Y-144466476D01*
X119176750Y-161611967D02*
X119150978Y-161674185D01*
X119037219Y-161772848D01*
X118949230Y-161809294D01*
X118799024Y-161819969D01*
X118674590Y-161768426D01*
X118594149Y-161698661D01*
X118477263Y-161540907D01*
X118422594Y-161408924D01*
X118393696Y-161214724D01*
X118401244Y-161108512D01*
X118452787Y-160984078D01*
X118566547Y-160885414D01*
X118654535Y-160848968D01*
X118804741Y-160838294D01*
X118866958Y-160864065D01*
X120093081Y-161335495D02*
X119565150Y-161554172D01*
X119829115Y-161444833D02*
X119446432Y-160520954D01*
X119413112Y-160689383D01*
X119361570Y-160813817D01*
X119291804Y-160894258D01*
X120629855Y-160391561D02*
X120884978Y-161007481D01*
X120264100Y-160130722D02*
X120317474Y-160881751D01*
X120889399Y-160644852D01*
X60825142Y-102814380D02*
X60491809Y-102338190D01*
X60253714Y-102814380D02*
X60253714Y-101814380D01*
X60634666Y-101814380D01*
X60729904Y-101862000D01*
X60777523Y-101909619D01*
X60825142Y-102004857D01*
X60825142Y-102147714D01*
X60777523Y-102242952D01*
X60729904Y-102290571D01*
X60634666Y-102338190D01*
X60253714Y-102338190D01*
X61777523Y-102814380D02*
X61206095Y-102814380D01*
X61491809Y-102814380D02*
X61491809Y-101814380D01*
X61396571Y-101957238D01*
X61301333Y-102052476D01*
X61206095Y-102100095D01*
X62634666Y-102147714D02*
X62634666Y-102814380D01*
X62396571Y-101766761D02*
X62158476Y-102481047D01*
X62777523Y-102481047D01*
X113615482Y-147879380D02*
X113282149Y-147403190D01*
X113044054Y-147879380D02*
X113044054Y-146879380D01*
X113425006Y-146879380D01*
X113520244Y-146927000D01*
X113567863Y-146974619D01*
X113615482Y-147069857D01*
X113615482Y-147212714D01*
X113567863Y-147307952D01*
X113520244Y-147355571D01*
X113425006Y-147403190D01*
X113044054Y-147403190D01*
X114567863Y-147879380D02*
X113996435Y-147879380D01*
X114282149Y-147879380D02*
X114282149Y-146879380D01*
X114186911Y-147022238D01*
X114091673Y-147117476D01*
X113996435Y-147165095D01*
X115139292Y-147307952D02*
X115044054Y-147260333D01*
X114996435Y-147212714D01*
X114948816Y-147117476D01*
X114948816Y-147069857D01*
X114996435Y-146974619D01*
X115044054Y-146927000D01*
X115139292Y-146879380D01*
X115329768Y-146879380D01*
X115425006Y-146927000D01*
X115472625Y-146974619D01*
X115520244Y-147069857D01*
X115520244Y-147117476D01*
X115472625Y-147212714D01*
X115425006Y-147260333D01*
X115329768Y-147307952D01*
X115139292Y-147307952D01*
X115044054Y-147355571D01*
X114996435Y-147403190D01*
X114948816Y-147498428D01*
X114948816Y-147688904D01*
X114996435Y-147784142D01*
X115044054Y-147831761D01*
X115139292Y-147879380D01*
X115329768Y-147879380D01*
X115425006Y-147831761D01*
X115472625Y-147784142D01*
X115520244Y-147688904D01*
X115520244Y-147498428D01*
X115472625Y-147403190D01*
X115425006Y-147355571D01*
X115329768Y-147307952D01*
X86225142Y-113736380D02*
X85891809Y-113260190D01*
X85653714Y-113736380D02*
X85653714Y-112736380D01*
X86034666Y-112736380D01*
X86129904Y-112784000D01*
X86177523Y-112831619D01*
X86225142Y-112926857D01*
X86225142Y-113069714D01*
X86177523Y-113164952D01*
X86129904Y-113212571D01*
X86034666Y-113260190D01*
X85653714Y-113260190D01*
X86606095Y-112831619D02*
X86653714Y-112784000D01*
X86748952Y-112736380D01*
X86987047Y-112736380D01*
X87082285Y-112784000D01*
X87129904Y-112831619D01*
X87177523Y-112926857D01*
X87177523Y-113022095D01*
X87129904Y-113164952D01*
X86558476Y-113736380D01*
X87177523Y-113736380D01*
X88129904Y-113736380D02*
X87558476Y-113736380D01*
X87844190Y-113736380D02*
X87844190Y-112736380D01*
X87748952Y-112879238D01*
X87653714Y-112974476D01*
X87558476Y-113022095D01*
X57416176Y-99858652D02*
X57441947Y-99920869D01*
X57431272Y-100071075D01*
X57394826Y-100159064D01*
X57296163Y-100272823D01*
X57171728Y-100324366D01*
X57065517Y-100331914D01*
X56871317Y-100303016D01*
X56739334Y-100248347D01*
X56581580Y-100131461D01*
X56511814Y-100051021D01*
X56460272Y-99926586D01*
X56470947Y-99776380D01*
X56507393Y-99688392D01*
X56606056Y-99574632D01*
X56668273Y-99548861D01*
X57194910Y-99148491D02*
X57114469Y-99218256D01*
X57052252Y-99244027D01*
X56946040Y-99251576D01*
X56902046Y-99233353D01*
X56832281Y-99152912D01*
X56806509Y-99090695D01*
X56798961Y-98984484D01*
X56871853Y-98808506D01*
X56952294Y-98738741D01*
X57014511Y-98712970D01*
X57120722Y-98705421D01*
X57164717Y-98723645D01*
X57234482Y-98804085D01*
X57260253Y-98866302D01*
X57267802Y-98972514D01*
X57194910Y-99148491D01*
X57202458Y-99254702D01*
X57228229Y-99316920D01*
X57297994Y-99397360D01*
X57473972Y-99470252D01*
X57580183Y-99462704D01*
X57642400Y-99436932D01*
X57722841Y-99367167D01*
X57795733Y-99191190D01*
X57788185Y-99084978D01*
X57762413Y-99022761D01*
X57692648Y-98942321D01*
X57516671Y-98869429D01*
X57410459Y-98876977D01*
X57348242Y-98902748D01*
X57267802Y-98972514D01*
X90755482Y-147879380D02*
X90422149Y-147403190D01*
X90184054Y-147879380D02*
X90184054Y-146879380D01*
X90565006Y-146879380D01*
X90660244Y-146927000D01*
X90707863Y-146974619D01*
X90755482Y-147069857D01*
X90755482Y-147212714D01*
X90707863Y-147307952D01*
X90660244Y-147355571D01*
X90565006Y-147403190D01*
X90184054Y-147403190D01*
X91707863Y-147879380D02*
X91136435Y-147879380D01*
X91422149Y-147879380D02*
X91422149Y-146879380D01*
X91326911Y-147022238D01*
X91231673Y-147117476D01*
X91136435Y-147165095D01*
X92612625Y-146879380D02*
X92136435Y-146879380D01*
X92088816Y-147355571D01*
X92136435Y-147307952D01*
X92231673Y-147260333D01*
X92469768Y-147260333D01*
X92565006Y-147307952D01*
X92612625Y-147355571D01*
X92660244Y-147450809D01*
X92660244Y-147688904D01*
X92612625Y-147784142D01*
X92565006Y-147831761D01*
X92469768Y-147879380D01*
X92231673Y-147879380D01*
X92136435Y-147831761D01*
X92088816Y-147784142D01*
X104227333Y-100433142D02*
X104179714Y-100480761D01*
X104036857Y-100528380D01*
X103941619Y-100528380D01*
X103798761Y-100480761D01*
X103703523Y-100385523D01*
X103655904Y-100290285D01*
X103608285Y-100099809D01*
X103608285Y-99956952D01*
X103655904Y-99766476D01*
X103703523Y-99671238D01*
X103798761Y-99576000D01*
X103941619Y-99528380D01*
X104036857Y-99528380D01*
X104179714Y-99576000D01*
X104227333Y-99623619D01*
X105084476Y-99861714D02*
X105084476Y-100528380D01*
X104846380Y-99480761D02*
X104608285Y-100195047D01*
X105227333Y-100195047D01*
X126357142Y-91543142D02*
X126309523Y-91590761D01*
X126166666Y-91638380D01*
X126071428Y-91638380D01*
X125928571Y-91590761D01*
X125833333Y-91495523D01*
X125785714Y-91400285D01*
X125738095Y-91209809D01*
X125738095Y-91066952D01*
X125785714Y-90876476D01*
X125833333Y-90781238D01*
X125928571Y-90686000D01*
X126071428Y-90638380D01*
X126166666Y-90638380D01*
X126309523Y-90686000D01*
X126357142Y-90733619D01*
X127309523Y-91638380D02*
X126738095Y-91638380D01*
X127023809Y-91638380D02*
X127023809Y-90638380D01*
X126928571Y-90781238D01*
X126833333Y-90876476D01*
X126738095Y-90924095D01*
X127928571Y-90638380D02*
X128023809Y-90638380D01*
X128119047Y-90686000D01*
X128166666Y-90733619D01*
X128214285Y-90828857D01*
X128261904Y-91019333D01*
X128261904Y-91257428D01*
X128214285Y-91447904D01*
X128166666Y-91543142D01*
X128119047Y-91590761D01*
X128023809Y-91638380D01*
X127928571Y-91638380D01*
X127833333Y-91590761D01*
X127785714Y-91543142D01*
X127738095Y-91447904D01*
X127690476Y-91257428D01*
X127690476Y-91019333D01*
X127738095Y-90828857D01*
X127785714Y-90733619D01*
X127833333Y-90686000D01*
X127928571Y-90638380D01*
X76485904Y-94956380D02*
X76485904Y-95765904D01*
X76533523Y-95861142D01*
X76581142Y-95908761D01*
X76676380Y-95956380D01*
X76866857Y-95956380D01*
X76962095Y-95908761D01*
X77009714Y-95861142D01*
X77057333Y-95765904D01*
X77057333Y-94956380D01*
X78057333Y-95956380D02*
X77485904Y-95956380D01*
X77771619Y-95956380D02*
X77771619Y-94956380D01*
X77676380Y-95099238D01*
X77581142Y-95194476D01*
X77485904Y-95242095D01*
X79009714Y-95956380D02*
X78438285Y-95956380D01*
X78724000Y-95956380D02*
X78724000Y-94956380D01*
X78628761Y-95099238D01*
X78533523Y-95194476D01*
X78438285Y-95242095D01*
X68040952Y-97940761D02*
X68183809Y-97988380D01*
X68421904Y-97988380D01*
X68517142Y-97940761D01*
X68564761Y-97893142D01*
X68612380Y-97797904D01*
X68612380Y-97702666D01*
X68564761Y-97607428D01*
X68517142Y-97559809D01*
X68421904Y-97512190D01*
X68231428Y-97464571D01*
X68136190Y-97416952D01*
X68088571Y-97369333D01*
X68040952Y-97274095D01*
X68040952Y-97178857D01*
X68088571Y-97083619D01*
X68136190Y-97036000D01*
X68231428Y-96988380D01*
X68469523Y-96988380D01*
X68612380Y-97036000D01*
X69421904Y-97940761D02*
X69326666Y-97988380D01*
X69136190Y-97988380D01*
X69040952Y-97940761D01*
X68993333Y-97845523D01*
X68993333Y-97464571D01*
X69040952Y-97369333D01*
X69136190Y-97321714D01*
X69326666Y-97321714D01*
X69421904Y-97369333D01*
X69469523Y-97464571D01*
X69469523Y-97559809D01*
X68993333Y-97655047D01*
X70279047Y-97940761D02*
X70183809Y-97988380D01*
X69993333Y-97988380D01*
X69898095Y-97940761D01*
X69850476Y-97845523D01*
X69850476Y-97464571D01*
X69898095Y-97369333D01*
X69993333Y-97321714D01*
X70183809Y-97321714D01*
X70279047Y-97369333D01*
X70326666Y-97464571D01*
X70326666Y-97559809D01*
X69850476Y-97655047D01*
X71136190Y-97940761D02*
X71040952Y-97988380D01*
X70850476Y-97988380D01*
X70755238Y-97940761D01*
X70707619Y-97845523D01*
X70707619Y-97464571D01*
X70755238Y-97369333D01*
X70850476Y-97321714D01*
X71040952Y-97321714D01*
X71136190Y-97369333D01*
X71183809Y-97464571D01*
X71183809Y-97559809D01*
X70707619Y-97655047D01*
X72040952Y-97988380D02*
X72040952Y-96988380D01*
X72040952Y-97940761D02*
X71945714Y-97988380D01*
X71755238Y-97988380D01*
X71660000Y-97940761D01*
X71612380Y-97893142D01*
X71564761Y-97797904D01*
X71564761Y-97512190D01*
X71612380Y-97416952D01*
X71660000Y-97369333D01*
X71755238Y-97321714D01*
X71945714Y-97321714D01*
X72040952Y-97369333D01*
X72945714Y-97321714D02*
X72945714Y-97988380D01*
X72517142Y-97321714D02*
X72517142Y-97845523D01*
X72564761Y-97940761D01*
X72660000Y-97988380D01*
X72802857Y-97988380D01*
X72898095Y-97940761D01*
X72945714Y-97893142D01*
X73421904Y-97988380D02*
X73421904Y-97321714D01*
X73421904Y-96988380D02*
X73374285Y-97036000D01*
X73421904Y-97083619D01*
X73469523Y-97036000D01*
X73421904Y-96988380D01*
X73421904Y-97083619D01*
X73898095Y-97321714D02*
X73898095Y-97988380D01*
X73898095Y-97416952D02*
X73945714Y-97369333D01*
X74040952Y-97321714D01*
X74183809Y-97321714D01*
X74279047Y-97369333D01*
X74326666Y-97464571D01*
X74326666Y-97988380D01*
X74945714Y-97988380D02*
X74850476Y-97940761D01*
X74802857Y-97893142D01*
X74755238Y-97797904D01*
X74755238Y-97512190D01*
X74802857Y-97416952D01*
X74850476Y-97369333D01*
X74945714Y-97321714D01*
X75088571Y-97321714D01*
X75183809Y-97369333D01*
X75231428Y-97416952D01*
X75279047Y-97512190D01*
X75279047Y-97797904D01*
X75231428Y-97893142D01*
X75183809Y-97940761D01*
X75088571Y-97988380D01*
X74945714Y-97988380D01*
X75469523Y-98083619D02*
X76231428Y-98083619D01*
X76374285Y-96988380D02*
X77040952Y-97988380D01*
X77040952Y-96988380D02*
X76374285Y-97988380D01*
X77421904Y-97988380D02*
X77421904Y-97321714D01*
X77421904Y-96988380D02*
X77374285Y-97036000D01*
X77421904Y-97083619D01*
X77469523Y-97036000D01*
X77421904Y-96988380D01*
X77421904Y-97083619D01*
X78326666Y-97988380D02*
X78326666Y-97464571D01*
X78279047Y-97369333D01*
X78183809Y-97321714D01*
X77993333Y-97321714D01*
X77898095Y-97369333D01*
X78326666Y-97940761D02*
X78231428Y-97988380D01*
X77993333Y-97988380D01*
X77898095Y-97940761D01*
X77850476Y-97845523D01*
X77850476Y-97750285D01*
X77898095Y-97655047D01*
X77993333Y-97607428D01*
X78231428Y-97607428D01*
X78326666Y-97559809D01*
X78945714Y-97988380D02*
X78850476Y-97940761D01*
X78802857Y-97893142D01*
X78755238Y-97797904D01*
X78755238Y-97512190D01*
X78802857Y-97416952D01*
X78850476Y-97369333D01*
X78945714Y-97321714D01*
X79088571Y-97321714D01*
X79183809Y-97369333D01*
X79231428Y-97416952D01*
X79279047Y-97512190D01*
X79279047Y-97797904D01*
X79231428Y-97893142D01*
X79183809Y-97940761D01*
X79088571Y-97988380D01*
X78945714Y-97988380D01*
X73493333Y-152820380D02*
X73160000Y-152344190D01*
X72921904Y-152820380D02*
X72921904Y-151820380D01*
X73302857Y-151820380D01*
X73398095Y-151868000D01*
X73445714Y-151915619D01*
X73493333Y-152010857D01*
X73493333Y-152153714D01*
X73445714Y-152248952D01*
X73398095Y-152296571D01*
X73302857Y-152344190D01*
X72921904Y-152344190D01*
X74445714Y-152820380D02*
X73874285Y-152820380D01*
X74160000Y-152820380D02*
X74160000Y-151820380D01*
X74064761Y-151963238D01*
X73969523Y-152058476D01*
X73874285Y-152106095D01*
X86225142Y-111196380D02*
X85891809Y-110720190D01*
X85653714Y-111196380D02*
X85653714Y-110196380D01*
X86034666Y-110196380D01*
X86129904Y-110244000D01*
X86177523Y-110291619D01*
X86225142Y-110386857D01*
X86225142Y-110529714D01*
X86177523Y-110624952D01*
X86129904Y-110672571D01*
X86034666Y-110720190D01*
X85653714Y-110720190D01*
X86606095Y-110291619D02*
X86653714Y-110244000D01*
X86748952Y-110196380D01*
X86987047Y-110196380D01*
X87082285Y-110244000D01*
X87129904Y-110291619D01*
X87177523Y-110386857D01*
X87177523Y-110482095D01*
X87129904Y-110624952D01*
X86558476Y-111196380D01*
X87177523Y-111196380D01*
X87796571Y-110196380D02*
X87891809Y-110196380D01*
X87987047Y-110244000D01*
X88034666Y-110291619D01*
X88082285Y-110386857D01*
X88129904Y-110577333D01*
X88129904Y-110815428D01*
X88082285Y-111005904D01*
X88034666Y-111101142D01*
X87987047Y-111148761D01*
X87891809Y-111196380D01*
X87796571Y-111196380D01*
X87701333Y-111148761D01*
X87653714Y-111101142D01*
X87606095Y-111005904D01*
X87558476Y-110815428D01*
X87558476Y-110577333D01*
X87606095Y-110386857D01*
X87653714Y-110291619D01*
X87701333Y-110244000D01*
X87796571Y-110196380D01*
X119602595Y-73322053D02*
X119664812Y-73296282D01*
X119815018Y-73306957D01*
X119903006Y-73343403D01*
X120016766Y-73442066D01*
X120068309Y-73566501D01*
X120075857Y-73672712D01*
X120046959Y-73866912D01*
X119992290Y-73998895D01*
X119875404Y-74156649D01*
X119794963Y-74226415D01*
X119670529Y-74277957D01*
X119520323Y-74267282D01*
X119432334Y-74230836D01*
X119318575Y-74132173D01*
X119292803Y-74069956D01*
X118759155Y-72869604D02*
X119287087Y-73088281D01*
X119023121Y-72978942D02*
X118640438Y-73902822D01*
X118783095Y-73807285D01*
X118907530Y-73755743D01*
X119013741Y-73748195D01*
X117879270Y-72505144D02*
X118407201Y-72723820D01*
X118143236Y-72614482D02*
X117760552Y-73538362D01*
X117903210Y-73442825D01*
X118027645Y-73391282D01*
X118133856Y-73383734D01*
X96360380Y-155165095D02*
X95360380Y-155165095D01*
X95360380Y-154927000D01*
X95408000Y-154784142D01*
X95503238Y-154688904D01*
X95598476Y-154641285D01*
X95788952Y-154593666D01*
X95931809Y-154593666D01*
X96122285Y-154641285D01*
X96217523Y-154688904D01*
X96312761Y-154784142D01*
X96360380Y-154927000D01*
X96360380Y-155165095D01*
X95455619Y-154212714D02*
X95408000Y-154165095D01*
X95360380Y-154069857D01*
X95360380Y-153831761D01*
X95408000Y-153736523D01*
X95455619Y-153688904D01*
X95550857Y-153641285D01*
X95646095Y-153641285D01*
X95788952Y-153688904D01*
X96360380Y-154260333D01*
X96360380Y-153641285D01*
X55273956Y-136310803D02*
X54961574Y-136800993D01*
X55492632Y-136838735D02*
X54568752Y-137221418D01*
X54422968Y-136869464D01*
X54430517Y-136763252D01*
X54456288Y-136701035D01*
X54526053Y-136620595D01*
X54658036Y-136565926D01*
X54764248Y-136573474D01*
X54826465Y-136599245D01*
X54906905Y-136669011D01*
X55052689Y-137020965D01*
X54292281Y-136305087D02*
X54230063Y-136279315D01*
X54149623Y-136209550D01*
X54058508Y-135989579D01*
X54066056Y-135883367D01*
X54091827Y-135821150D01*
X54161593Y-135740709D01*
X54249581Y-135704263D01*
X54399787Y-135693589D01*
X55146395Y-136002844D01*
X54909495Y-135430918D01*
X54162888Y-135121663D02*
X54155340Y-135227875D01*
X54129568Y-135290092D01*
X54059803Y-135370532D01*
X54015809Y-135388755D01*
X53909597Y-135381207D01*
X53847380Y-135355436D01*
X53766940Y-135285670D01*
X53694048Y-135109693D01*
X53701596Y-135003482D01*
X53727367Y-134941264D01*
X53797132Y-134860824D01*
X53841127Y-134842601D01*
X53947338Y-134850149D01*
X54009556Y-134875921D01*
X54089996Y-134945686D01*
X54162888Y-135121663D01*
X54243328Y-135191429D01*
X54305546Y-135217200D01*
X54411757Y-135224748D01*
X54587734Y-135151856D01*
X54657500Y-135071416D01*
X54683271Y-135009198D01*
X54690819Y-134902987D01*
X54617927Y-134727010D01*
X54537487Y-134657244D01*
X54475269Y-134631473D01*
X54369058Y-134623925D01*
X54193081Y-134696817D01*
X54123315Y-134777257D01*
X54097544Y-134839475D01*
X54089996Y-134945686D01*
X61301333Y-127960380D02*
X60968000Y-127484190D01*
X60729904Y-127960380D02*
X60729904Y-126960380D01*
X61110857Y-126960380D01*
X61206095Y-127008000D01*
X61253714Y-127055619D01*
X61301333Y-127150857D01*
X61301333Y-127293714D01*
X61253714Y-127388952D01*
X61206095Y-127436571D01*
X61110857Y-127484190D01*
X60729904Y-127484190D01*
X62206095Y-126960380D02*
X61729904Y-126960380D01*
X61682285Y-127436571D01*
X61729904Y-127388952D01*
X61825142Y-127341333D01*
X62063238Y-127341333D01*
X62158476Y-127388952D01*
X62206095Y-127436571D01*
X62253714Y-127531809D01*
X62253714Y-127769904D01*
X62206095Y-127865142D01*
X62158476Y-127912761D01*
X62063238Y-127960380D01*
X61825142Y-127960380D01*
X61729904Y-127912761D01*
X61682285Y-127865142D01*
X105995482Y-147879380D02*
X105662149Y-147403190D01*
X105424054Y-147879380D02*
X105424054Y-146879380D01*
X105805006Y-146879380D01*
X105900244Y-146927000D01*
X105947863Y-146974619D01*
X105995482Y-147069857D01*
X105995482Y-147212714D01*
X105947863Y-147307952D01*
X105900244Y-147355571D01*
X105805006Y-147403190D01*
X105424054Y-147403190D01*
X106947863Y-147879380D02*
X106376435Y-147879380D01*
X106662149Y-147879380D02*
X106662149Y-146879380D01*
X106566911Y-147022238D01*
X106471673Y-147117476D01*
X106376435Y-147165095D01*
X107281197Y-146879380D02*
X107947863Y-146879380D01*
X107519292Y-147879380D01*
X86225142Y-108656380D02*
X85891809Y-108180190D01*
X85653714Y-108656380D02*
X85653714Y-107656380D01*
X86034666Y-107656380D01*
X86129904Y-107704000D01*
X86177523Y-107751619D01*
X86225142Y-107846857D01*
X86225142Y-107989714D01*
X86177523Y-108084952D01*
X86129904Y-108132571D01*
X86034666Y-108180190D01*
X85653714Y-108180190D01*
X87177523Y-108656380D02*
X86606095Y-108656380D01*
X86891809Y-108656380D02*
X86891809Y-107656380D01*
X86796571Y-107799238D01*
X86701333Y-107894476D01*
X86606095Y-107942095D01*
X87653714Y-108656380D02*
X87844190Y-108656380D01*
X87939428Y-108608761D01*
X87987047Y-108561142D01*
X88082285Y-108418285D01*
X88129904Y-108227809D01*
X88129904Y-107846857D01*
X88082285Y-107751619D01*
X88034666Y-107704000D01*
X87939428Y-107656380D01*
X87748952Y-107656380D01*
X87653714Y-107704000D01*
X87606095Y-107751619D01*
X87558476Y-107846857D01*
X87558476Y-108084952D01*
X87606095Y-108180190D01*
X87653714Y-108227809D01*
X87748952Y-108275428D01*
X87939428Y-108275428D01*
X88034666Y-108227809D01*
X88082285Y-108180190D01*
X88129904Y-108084952D01*
X82129333Y-121007142D02*
X82081714Y-121054761D01*
X81938857Y-121102380D01*
X81843619Y-121102380D01*
X81700761Y-121054761D01*
X81605523Y-120959523D01*
X81557904Y-120864285D01*
X81510285Y-120673809D01*
X81510285Y-120530952D01*
X81557904Y-120340476D01*
X81605523Y-120245238D01*
X81700761Y-120150000D01*
X81843619Y-120102380D01*
X81938857Y-120102380D01*
X82081714Y-120150000D01*
X82129333Y-120197619D01*
X83034095Y-120102380D02*
X82557904Y-120102380D01*
X82510285Y-120578571D01*
X82557904Y-120530952D01*
X82653142Y-120483333D01*
X82891238Y-120483333D01*
X82986476Y-120530952D01*
X83034095Y-120578571D01*
X83081714Y-120673809D01*
X83081714Y-120911904D01*
X83034095Y-121007142D01*
X82986476Y-121054761D01*
X82891238Y-121102380D01*
X82653142Y-121102380D01*
X82557904Y-121054761D01*
X82510285Y-121007142D01*
X86225142Y-135834380D02*
X85891809Y-135358190D01*
X85653714Y-135834380D02*
X85653714Y-134834380D01*
X86034666Y-134834380D01*
X86129904Y-134882000D01*
X86177523Y-134929619D01*
X86225142Y-135024857D01*
X86225142Y-135167714D01*
X86177523Y-135262952D01*
X86129904Y-135310571D01*
X86034666Y-135358190D01*
X85653714Y-135358190D01*
X86606095Y-134929619D02*
X86653714Y-134882000D01*
X86748952Y-134834380D01*
X86987047Y-134834380D01*
X87082285Y-134882000D01*
X87129904Y-134929619D01*
X87177523Y-135024857D01*
X87177523Y-135120095D01*
X87129904Y-135262952D01*
X86558476Y-135834380D01*
X87177523Y-135834380D01*
X88034666Y-134834380D02*
X87844190Y-134834380D01*
X87748952Y-134882000D01*
X87701333Y-134929619D01*
X87606095Y-135072476D01*
X87558476Y-135262952D01*
X87558476Y-135643904D01*
X87606095Y-135739142D01*
X87653714Y-135786761D01*
X87748952Y-135834380D01*
X87939428Y-135834380D01*
X88034666Y-135786761D01*
X88082285Y-135739142D01*
X88129904Y-135643904D01*
X88129904Y-135405809D01*
X88082285Y-135310571D01*
X88034666Y-135262952D01*
X87939428Y-135215333D01*
X87748952Y-135215333D01*
X87653714Y-135262952D01*
X87606095Y-135310571D01*
X87558476Y-135405809D01*
X145130684Y-136111018D02*
X145157537Y-136172776D01*
X145149485Y-136323146D01*
X145114580Y-136411757D01*
X145017917Y-136527221D01*
X144894401Y-136580928D01*
X144788337Y-136590328D01*
X144593663Y-136564824D01*
X144460746Y-136512467D01*
X144300976Y-136398351D01*
X144229817Y-136319141D01*
X144176111Y-136195625D01*
X144184163Y-136045256D01*
X144219067Y-135956644D01*
X144315730Y-135841180D01*
X144377488Y-135814327D01*
X145568344Y-135259811D02*
X145358914Y-135791478D01*
X145463629Y-135525645D02*
X144533211Y-135159144D01*
X144631223Y-135300112D01*
X144684930Y-135423628D01*
X144694330Y-135529692D01*
X144760093Y-134583171D02*
X144986975Y-134007198D01*
X145219252Y-134456957D01*
X145271610Y-134324040D01*
X145350820Y-134252881D01*
X145412578Y-134226028D01*
X145518642Y-134216627D01*
X145740170Y-134303890D01*
X145811329Y-134383100D01*
X145838182Y-134444858D01*
X145847583Y-134550922D01*
X145742868Y-134816755D01*
X145663657Y-134887914D01*
X145601899Y-134914767D01*
X60825142Y-105354380D02*
X60491809Y-104878190D01*
X60253714Y-105354380D02*
X60253714Y-104354380D01*
X60634666Y-104354380D01*
X60729904Y-104402000D01*
X60777523Y-104449619D01*
X60825142Y-104544857D01*
X60825142Y-104687714D01*
X60777523Y-104782952D01*
X60729904Y-104830571D01*
X60634666Y-104878190D01*
X60253714Y-104878190D01*
X61777523Y-105354380D02*
X61206095Y-105354380D01*
X61491809Y-105354380D02*
X61491809Y-104354380D01*
X61396571Y-104497238D01*
X61301333Y-104592476D01*
X61206095Y-104640095D01*
X62110857Y-104354380D02*
X62729904Y-104354380D01*
X62396571Y-104735333D01*
X62539428Y-104735333D01*
X62634666Y-104782952D01*
X62682285Y-104830571D01*
X62729904Y-104925809D01*
X62729904Y-105163904D01*
X62682285Y-105259142D01*
X62634666Y-105306761D01*
X62539428Y-105354380D01*
X62253714Y-105354380D01*
X62158476Y-105306761D01*
X62110857Y-105259142D01*
X78200857Y-157186380D02*
X78391333Y-157186380D01*
X78486571Y-157234000D01*
X78581809Y-157329238D01*
X78629428Y-157519714D01*
X78629428Y-157853047D01*
X78581809Y-158043523D01*
X78486571Y-158138761D01*
X78391333Y-158186380D01*
X78200857Y-158186380D01*
X78105619Y-158138761D01*
X78010380Y-158043523D01*
X77962761Y-157853047D01*
X77962761Y-157519714D01*
X78010380Y-157329238D01*
X78105619Y-157234000D01*
X78200857Y-157186380D01*
X79058000Y-157519714D02*
X79058000Y-158519714D01*
X79058000Y-157567333D02*
X79153238Y-157519714D01*
X79343714Y-157519714D01*
X79438952Y-157567333D01*
X79486571Y-157614952D01*
X79534190Y-157710190D01*
X79534190Y-157995904D01*
X79486571Y-158091142D01*
X79438952Y-158138761D01*
X79343714Y-158186380D01*
X79153238Y-158186380D01*
X79058000Y-158138761D01*
X80343714Y-158138761D02*
X80248476Y-158186380D01*
X80058000Y-158186380D01*
X79962761Y-158138761D01*
X79915142Y-158043523D01*
X79915142Y-157662571D01*
X79962761Y-157567333D01*
X80058000Y-157519714D01*
X80248476Y-157519714D01*
X80343714Y-157567333D01*
X80391333Y-157662571D01*
X80391333Y-157757809D01*
X79915142Y-157853047D01*
X80819904Y-157519714D02*
X80819904Y-158186380D01*
X80819904Y-157614952D02*
X80867523Y-157567333D01*
X80962761Y-157519714D01*
X81105619Y-157519714D01*
X81200857Y-157567333D01*
X81248476Y-157662571D01*
X81248476Y-158186380D01*
X81724666Y-158186380D02*
X81724666Y-157186380D01*
X82058000Y-157900666D01*
X82391333Y-157186380D01*
X82391333Y-158186380D01*
X82724666Y-157186380D02*
X83058000Y-158186380D01*
X83391333Y-157186380D01*
X85058000Y-158186380D02*
X84724666Y-157710190D01*
X84486571Y-158186380D02*
X84486571Y-157186380D01*
X84867523Y-157186380D01*
X84962761Y-157234000D01*
X85010380Y-157281619D01*
X85058000Y-157376857D01*
X85058000Y-157519714D01*
X85010380Y-157614952D01*
X84962761Y-157662571D01*
X84867523Y-157710190D01*
X84486571Y-157710190D01*
X85867523Y-158138761D02*
X85772285Y-158186380D01*
X85581809Y-158186380D01*
X85486571Y-158138761D01*
X85438952Y-158043523D01*
X85438952Y-157662571D01*
X85486571Y-157567333D01*
X85581809Y-157519714D01*
X85772285Y-157519714D01*
X85867523Y-157567333D01*
X85915142Y-157662571D01*
X85915142Y-157757809D01*
X85438952Y-157853047D01*
X86296095Y-158138761D02*
X86391333Y-158186380D01*
X86581809Y-158186380D01*
X86677047Y-158138761D01*
X86724666Y-158043523D01*
X86724666Y-157995904D01*
X86677047Y-157900666D01*
X86581809Y-157853047D01*
X86438952Y-157853047D01*
X86343714Y-157805428D01*
X86296095Y-157710190D01*
X86296095Y-157662571D01*
X86343714Y-157567333D01*
X86438952Y-157519714D01*
X86581809Y-157519714D01*
X86677047Y-157567333D01*
X87534190Y-158138761D02*
X87438952Y-158186380D01*
X87248476Y-158186380D01*
X87153238Y-158138761D01*
X87105619Y-158043523D01*
X87105619Y-157662571D01*
X87153238Y-157567333D01*
X87248476Y-157519714D01*
X87438952Y-157519714D01*
X87534190Y-157567333D01*
X87581809Y-157662571D01*
X87581809Y-157757809D01*
X87105619Y-157853047D01*
X87867523Y-157519714D02*
X88248476Y-157519714D01*
X88010380Y-157186380D02*
X88010380Y-158043523D01*
X88058000Y-158138761D01*
X88153238Y-158186380D01*
X88248476Y-158186380D01*
X98375482Y-147879380D02*
X98042149Y-147403190D01*
X97804054Y-147879380D02*
X97804054Y-146879380D01*
X98185006Y-146879380D01*
X98280244Y-146927000D01*
X98327863Y-146974619D01*
X98375482Y-147069857D01*
X98375482Y-147212714D01*
X98327863Y-147307952D01*
X98280244Y-147355571D01*
X98185006Y-147403190D01*
X97804054Y-147403190D01*
X99327863Y-147879380D02*
X98756435Y-147879380D01*
X99042149Y-147879380D02*
X99042149Y-146879380D01*
X98946911Y-147022238D01*
X98851673Y-147117476D01*
X98756435Y-147165095D01*
X100185006Y-146879380D02*
X99994530Y-146879380D01*
X99899292Y-146927000D01*
X99851673Y-146974619D01*
X99756435Y-147117476D01*
X99708816Y-147307952D01*
X99708816Y-147688904D01*
X99756435Y-147784142D01*
X99804054Y-147831761D01*
X99899292Y-147879380D01*
X100089768Y-147879380D01*
X100185006Y-147831761D01*
X100232625Y-147784142D01*
X100280244Y-147688904D01*
X100280244Y-147450809D01*
X100232625Y-147355571D01*
X100185006Y-147307952D01*
X100089768Y-147260333D01*
X99899292Y-147260333D01*
X99804054Y-147307952D01*
X99756435Y-147355571D01*
X99708816Y-147450809D01*
X82278692Y-74307737D02*
X82252921Y-74369954D01*
X82139161Y-74468618D01*
X82051173Y-74505064D01*
X81900967Y-74515738D01*
X81776532Y-74464196D01*
X81696092Y-74394431D01*
X81579206Y-74236676D01*
X81524537Y-74104694D01*
X81495639Y-73910494D01*
X81503187Y-73804282D01*
X81554729Y-73679847D01*
X81668489Y-73581184D01*
X81756478Y-73544738D01*
X81906684Y-73534063D01*
X81968901Y-73559835D01*
X82755081Y-74213495D02*
X82931058Y-74140603D01*
X83000823Y-74060163D01*
X83026595Y-73997946D01*
X83059914Y-73829517D01*
X83031016Y-73635317D01*
X82885232Y-73283363D01*
X82804792Y-73213597D01*
X82742575Y-73187826D01*
X82636363Y-73180278D01*
X82460386Y-73253170D01*
X82390620Y-73333610D01*
X82364849Y-73395827D01*
X82357301Y-73502039D01*
X82448416Y-73722010D01*
X82528856Y-73791776D01*
X82591074Y-73817547D01*
X82697285Y-73825095D01*
X82873262Y-73752203D01*
X82943028Y-73671763D01*
X82968799Y-73609546D01*
X82976347Y-73503334D01*
X147237934Y-137927041D02*
X146670430Y-138052770D01*
X147019258Y-138454972D02*
X146095378Y-138072288D01*
X146241163Y-137720334D01*
X146321603Y-137650569D01*
X146383820Y-137624798D01*
X146490032Y-137617249D01*
X146622015Y-137671918D01*
X146691780Y-137752359D01*
X146717551Y-137814576D01*
X146725100Y-137920788D01*
X146579315Y-138272742D01*
X146441616Y-137236397D02*
X146678515Y-136664472D01*
X146902908Y-137118216D01*
X146957577Y-136986233D01*
X147038017Y-136916468D01*
X147100235Y-136890697D01*
X147206446Y-136883148D01*
X147426418Y-136974263D01*
X147496183Y-137054704D01*
X147521954Y-137116921D01*
X147529503Y-137223133D01*
X147420164Y-137487098D01*
X147339724Y-137556864D01*
X147277507Y-137582635D01*
X147314489Y-136000136D02*
X147930409Y-136255259D01*
X146871420Y-136074324D02*
X147440219Y-136567640D01*
X147677118Y-135995715D01*
X60825142Y-112974380D02*
X60491809Y-112498190D01*
X60253714Y-112974380D02*
X60253714Y-111974380D01*
X60634666Y-111974380D01*
X60729904Y-112022000D01*
X60777523Y-112069619D01*
X60825142Y-112164857D01*
X60825142Y-112307714D01*
X60777523Y-112402952D01*
X60729904Y-112450571D01*
X60634666Y-112498190D01*
X60253714Y-112498190D01*
X61777523Y-112974380D02*
X61206095Y-112974380D01*
X61491809Y-112974380D02*
X61491809Y-111974380D01*
X61396571Y-112117238D01*
X61301333Y-112212476D01*
X61206095Y-112260095D01*
X62396571Y-111974380D02*
X62491809Y-111974380D01*
X62587047Y-112022000D01*
X62634666Y-112069619D01*
X62682285Y-112164857D01*
X62729904Y-112355333D01*
X62729904Y-112593428D01*
X62682285Y-112783904D01*
X62634666Y-112879142D01*
X62587047Y-112926761D01*
X62491809Y-112974380D01*
X62396571Y-112974380D01*
X62301333Y-112926761D01*
X62253714Y-112879142D01*
X62206095Y-112783904D01*
X62158476Y-112593428D01*
X62158476Y-112355333D01*
X62206095Y-112164857D01*
X62253714Y-112069619D01*
X62301333Y-112022000D01*
X62396571Y-111974380D01*
X61301333Y-115514380D02*
X60968000Y-115038190D01*
X60729904Y-115514380D02*
X60729904Y-114514380D01*
X61110857Y-114514380D01*
X61206095Y-114562000D01*
X61253714Y-114609619D01*
X61301333Y-114704857D01*
X61301333Y-114847714D01*
X61253714Y-114942952D01*
X61206095Y-114990571D01*
X61110857Y-115038190D01*
X60729904Y-115038190D01*
X61777523Y-115514380D02*
X61968000Y-115514380D01*
X62063238Y-115466761D01*
X62110857Y-115419142D01*
X62206095Y-115276285D01*
X62253714Y-115085809D01*
X62253714Y-114704857D01*
X62206095Y-114609619D01*
X62158476Y-114562000D01*
X62063238Y-114514380D01*
X61872761Y-114514380D01*
X61777523Y-114562000D01*
X61729904Y-114609619D01*
X61682285Y-114704857D01*
X61682285Y-114942952D01*
X61729904Y-115038190D01*
X61777523Y-115085809D01*
X61872761Y-115133428D01*
X62063238Y-115133428D01*
X62158476Y-115085809D01*
X62206095Y-115038190D01*
X62253714Y-114942952D01*
X86225142Y-118816380D02*
X85891809Y-118340190D01*
X85653714Y-118816380D02*
X85653714Y-117816380D01*
X86034666Y-117816380D01*
X86129904Y-117864000D01*
X86177523Y-117911619D01*
X86225142Y-118006857D01*
X86225142Y-118149714D01*
X86177523Y-118244952D01*
X86129904Y-118292571D01*
X86034666Y-118340190D01*
X85653714Y-118340190D01*
X86606095Y-117911619D02*
X86653714Y-117864000D01*
X86748952Y-117816380D01*
X86987047Y-117816380D01*
X87082285Y-117864000D01*
X87129904Y-117911619D01*
X87177523Y-118006857D01*
X87177523Y-118102095D01*
X87129904Y-118244952D01*
X86558476Y-118816380D01*
X87177523Y-118816380D01*
X87510857Y-117816380D02*
X88129904Y-117816380D01*
X87796571Y-118197333D01*
X87939428Y-118197333D01*
X88034666Y-118244952D01*
X88082285Y-118292571D01*
X88129904Y-118387809D01*
X88129904Y-118625904D01*
X88082285Y-118721142D01*
X88034666Y-118768761D01*
X87939428Y-118816380D01*
X87653714Y-118816380D01*
X87558476Y-118768761D01*
X87510857Y-118721142D01*
X148237956Y-98972803D02*
X147925574Y-99462993D01*
X148456632Y-99500735D02*
X147532752Y-99883418D01*
X147386968Y-99531464D01*
X147394517Y-99425252D01*
X147420288Y-99363035D01*
X147490053Y-99282595D01*
X147622036Y-99227926D01*
X147728248Y-99235474D01*
X147790465Y-99261245D01*
X147870905Y-99331011D01*
X148016689Y-99682965D01*
X147186515Y-99047527D02*
X146949616Y-98475602D01*
X147429131Y-98637777D01*
X147374462Y-98505794D01*
X147382010Y-98399583D01*
X147407781Y-98337366D01*
X147477547Y-98256925D01*
X147697518Y-98165810D01*
X147803730Y-98173358D01*
X147865947Y-98199130D01*
X147946387Y-98268895D01*
X148055726Y-98532861D01*
X148048177Y-98639072D01*
X148022406Y-98701290D01*
X146822055Y-98167642D02*
X146585155Y-97595716D01*
X147064671Y-97757892D01*
X147010002Y-97625909D01*
X147017550Y-97519698D01*
X147043321Y-97457480D01*
X147113087Y-97377040D01*
X147333058Y-97285925D01*
X147439269Y-97293473D01*
X147501487Y-97319244D01*
X147581927Y-97389010D01*
X147691265Y-97652975D01*
X147683717Y-97759187D01*
X147657946Y-97821404D01*
X55289934Y-98303041D02*
X54722430Y-98428770D01*
X55071258Y-98830972D02*
X54147378Y-98448288D01*
X54293163Y-98096334D01*
X54373603Y-98026569D01*
X54435820Y-98000798D01*
X54542032Y-97993249D01*
X54674015Y-98047918D01*
X54743780Y-98128359D01*
X54769551Y-98190576D01*
X54777100Y-98296788D01*
X54631315Y-98648742D01*
X54599827Y-97604849D02*
X54574056Y-97542632D01*
X54566508Y-97436420D01*
X54657623Y-97216449D01*
X54738063Y-97146684D01*
X54800281Y-97120912D01*
X54906492Y-97113364D01*
X54994481Y-97149810D01*
X55108240Y-97248473D01*
X55417495Y-97995081D01*
X55654395Y-97423155D01*
X55836625Y-96983213D02*
X55909517Y-96807236D01*
X55901969Y-96701024D01*
X55876197Y-96638807D01*
X55780661Y-96496149D01*
X55622907Y-96379263D01*
X55270953Y-96233479D01*
X55164741Y-96241027D01*
X55102524Y-96266798D01*
X55022083Y-96336564D01*
X54949191Y-96512541D01*
X54956740Y-96618752D01*
X54982511Y-96680970D01*
X55052276Y-96761410D01*
X55272248Y-96852525D01*
X55378459Y-96844977D01*
X55440676Y-96819206D01*
X55521117Y-96749440D01*
X55594009Y-96573463D01*
X55586461Y-96467252D01*
X55560689Y-96405034D01*
X55490924Y-96324594D01*
X111600380Y-155165095D02*
X110600380Y-155165095D01*
X110600380Y-154927000D01*
X110648000Y-154784142D01*
X110743238Y-154688904D01*
X110838476Y-154641285D01*
X111028952Y-154593666D01*
X111171809Y-154593666D01*
X111362285Y-154641285D01*
X111457523Y-154688904D01*
X111552761Y-154784142D01*
X111600380Y-154927000D01*
X111600380Y-155165095D01*
X110933714Y-153736523D02*
X111600380Y-153736523D01*
X110552761Y-153974619D02*
X111267047Y-154212714D01*
X111267047Y-153593666D01*
X96711047Y-105624380D02*
X96711047Y-106433904D01*
X96758666Y-106529142D01*
X96806285Y-106576761D01*
X96901523Y-106624380D01*
X97092000Y-106624380D01*
X97187238Y-106576761D01*
X97234857Y-106529142D01*
X97282476Y-106433904D01*
X97282476Y-105624380D01*
X98282476Y-106624380D02*
X97711047Y-106624380D01*
X97996761Y-106624380D02*
X97996761Y-105624380D01*
X97901523Y-105767238D01*
X97806285Y-105862476D01*
X97711047Y-105910095D01*
X99663428Y-105624380D02*
X99853904Y-105624380D01*
X99949142Y-105672000D01*
X100044380Y-105767238D01*
X100092000Y-105957714D01*
X100092000Y-106291047D01*
X100044380Y-106481523D01*
X99949142Y-106576761D01*
X99853904Y-106624380D01*
X99663428Y-106624380D01*
X99568190Y-106576761D01*
X99472952Y-106481523D01*
X99425333Y-106291047D01*
X99425333Y-105957714D01*
X99472952Y-105767238D01*
X99568190Y-105672000D01*
X99663428Y-105624380D01*
X100520571Y-105957714D02*
X100520571Y-106957714D01*
X100520571Y-106005333D02*
X100615809Y-105957714D01*
X100806285Y-105957714D01*
X100901523Y-106005333D01*
X100949142Y-106052952D01*
X100996761Y-106148190D01*
X100996761Y-106433904D01*
X100949142Y-106529142D01*
X100901523Y-106576761D01*
X100806285Y-106624380D01*
X100615809Y-106624380D01*
X100520571Y-106576761D01*
X101806285Y-106576761D02*
X101711047Y-106624380D01*
X101520571Y-106624380D01*
X101425333Y-106576761D01*
X101377714Y-106481523D01*
X101377714Y-106100571D01*
X101425333Y-106005333D01*
X101520571Y-105957714D01*
X101711047Y-105957714D01*
X101806285Y-106005333D01*
X101853904Y-106100571D01*
X101853904Y-106195809D01*
X101377714Y-106291047D01*
X102282476Y-105957714D02*
X102282476Y-106624380D01*
X102282476Y-106052952D02*
X102330095Y-106005333D01*
X102425333Y-105957714D01*
X102568190Y-105957714D01*
X102663428Y-106005333D01*
X102711047Y-106100571D01*
X102711047Y-106624380D01*
X103949142Y-106624380D02*
X103949142Y-105624380D01*
X104282476Y-106338666D01*
X104615809Y-105624380D01*
X104615809Y-106624380D01*
X104949142Y-105624380D02*
X105282476Y-106624380D01*
X105615809Y-105624380D01*
X61301333Y-118054380D02*
X60968000Y-117578190D01*
X60729904Y-118054380D02*
X60729904Y-117054380D01*
X61110857Y-117054380D01*
X61206095Y-117102000D01*
X61253714Y-117149619D01*
X61301333Y-117244857D01*
X61301333Y-117387714D01*
X61253714Y-117482952D01*
X61206095Y-117530571D01*
X61110857Y-117578190D01*
X60729904Y-117578190D01*
X61872761Y-117482952D02*
X61777523Y-117435333D01*
X61729904Y-117387714D01*
X61682285Y-117292476D01*
X61682285Y-117244857D01*
X61729904Y-117149619D01*
X61777523Y-117102000D01*
X61872761Y-117054380D01*
X62063238Y-117054380D01*
X62158476Y-117102000D01*
X62206095Y-117149619D01*
X62253714Y-117244857D01*
X62253714Y-117292476D01*
X62206095Y-117387714D01*
X62158476Y-117435333D01*
X62063238Y-117482952D01*
X61872761Y-117482952D01*
X61777523Y-117530571D01*
X61729904Y-117578190D01*
X61682285Y-117673428D01*
X61682285Y-117863904D01*
X61729904Y-117959142D01*
X61777523Y-118006761D01*
X61872761Y-118054380D01*
X62063238Y-118054380D01*
X62158476Y-118006761D01*
X62206095Y-117959142D01*
X62253714Y-117863904D01*
X62253714Y-117673428D01*
X62206095Y-117578190D01*
X62158476Y-117530571D01*
X62063238Y-117482952D01*
X61301333Y-125420380D02*
X60968000Y-124944190D01*
X60729904Y-125420380D02*
X60729904Y-124420380D01*
X61110857Y-124420380D01*
X61206095Y-124468000D01*
X61253714Y-124515619D01*
X61301333Y-124610857D01*
X61301333Y-124753714D01*
X61253714Y-124848952D01*
X61206095Y-124896571D01*
X61110857Y-124944190D01*
X60729904Y-124944190D01*
X61634666Y-124420380D02*
X62301333Y-124420380D01*
X61872761Y-125420380D01*
X95890221Y-94143142D02*
X95842602Y-94190761D01*
X95699745Y-94238380D01*
X95604507Y-94238380D01*
X95461649Y-94190761D01*
X95366411Y-94095523D01*
X95318792Y-94000285D01*
X95271173Y-93809809D01*
X95271173Y-93666952D01*
X95318792Y-93476476D01*
X95366411Y-93381238D01*
X95461649Y-93286000D01*
X95604507Y-93238380D01*
X95699745Y-93238380D01*
X95842602Y-93286000D01*
X95890221Y-93333619D01*
X96842602Y-94238380D02*
X96271173Y-94238380D01*
X96556888Y-94238380D02*
X96556888Y-93238380D01*
X96461649Y-93381238D01*
X96366411Y-93476476D01*
X96271173Y-93524095D01*
X121118380Y-124713904D02*
X121927904Y-124713904D01*
X122023142Y-124666285D01*
X122070761Y-124618666D01*
X122118380Y-124523428D01*
X122118380Y-124332952D01*
X122070761Y-124237714D01*
X122023142Y-124190095D01*
X121927904Y-124142476D01*
X121118380Y-124142476D01*
X121451714Y-123237714D02*
X122118380Y-123237714D01*
X121070761Y-123475809D02*
X121785047Y-123713904D01*
X121785047Y-123094857D01*
X60825142Y-107894380D02*
X60491809Y-107418190D01*
X60253714Y-107894380D02*
X60253714Y-106894380D01*
X60634666Y-106894380D01*
X60729904Y-106942000D01*
X60777523Y-106989619D01*
X60825142Y-107084857D01*
X60825142Y-107227714D01*
X60777523Y-107322952D01*
X60729904Y-107370571D01*
X60634666Y-107418190D01*
X60253714Y-107418190D01*
X61777523Y-107894380D02*
X61206095Y-107894380D01*
X61491809Y-107894380D02*
X61491809Y-106894380D01*
X61396571Y-107037238D01*
X61301333Y-107132476D01*
X61206095Y-107180095D01*
X62158476Y-106989619D02*
X62206095Y-106942000D01*
X62301333Y-106894380D01*
X62539428Y-106894380D01*
X62634666Y-106942000D01*
X62682285Y-106989619D01*
X62729904Y-107084857D01*
X62729904Y-107180095D01*
X62682285Y-107322952D01*
X62110857Y-107894380D01*
X62729904Y-107894380D01*
X129221095Y-111403380D02*
X129221095Y-112212904D01*
X129268714Y-112308142D01*
X129316333Y-112355761D01*
X129411571Y-112403380D01*
X129602047Y-112403380D01*
X129697285Y-112355761D01*
X129744904Y-112308142D01*
X129792523Y-112212904D01*
X129792523Y-111403380D01*
X130744904Y-111403380D02*
X130268714Y-111403380D01*
X130221095Y-111879571D01*
X130268714Y-111831952D01*
X130363952Y-111784333D01*
X130602047Y-111784333D01*
X130697285Y-111831952D01*
X130744904Y-111879571D01*
X130792523Y-111974809D01*
X130792523Y-112212904D01*
X130744904Y-112308142D01*
X130697285Y-112355761D01*
X130602047Y-112403380D01*
X130363952Y-112403380D01*
X130268714Y-112355761D01*
X130221095Y-112308142D01*
X126721095Y-114403380D02*
X126721095Y-113403380D01*
X127054428Y-114117666D01*
X127387761Y-113403380D01*
X127387761Y-114403380D01*
X127863952Y-114403380D02*
X127863952Y-113403380D01*
X128244904Y-113403380D01*
X128340142Y-113451000D01*
X128387761Y-113498619D01*
X128435380Y-113593857D01*
X128435380Y-113736714D01*
X128387761Y-113831952D01*
X128340142Y-113879571D01*
X128244904Y-113927190D01*
X127863952Y-113927190D01*
X128863952Y-113403380D02*
X128863952Y-114212904D01*
X128911571Y-114308142D01*
X128959190Y-114355761D01*
X129054428Y-114403380D01*
X129244904Y-114403380D01*
X129340142Y-114355761D01*
X129387761Y-114308142D01*
X129435380Y-114212904D01*
X129435380Y-113403380D01*
X130340142Y-113403380D02*
X130149666Y-113403380D01*
X130054428Y-113451000D01*
X130006809Y-113498619D01*
X129911571Y-113641476D01*
X129863952Y-113831952D01*
X129863952Y-114212904D01*
X129911571Y-114308142D01*
X129959190Y-114355761D01*
X130054428Y-114403380D01*
X130244904Y-114403380D01*
X130340142Y-114355761D01*
X130387761Y-114308142D01*
X130435380Y-114212904D01*
X130435380Y-113974809D01*
X130387761Y-113879571D01*
X130340142Y-113831952D01*
X130244904Y-113784333D01*
X130054428Y-113784333D01*
X129959190Y-113831952D01*
X129911571Y-113879571D01*
X129863952Y-113974809D01*
X131054428Y-113403380D02*
X131149666Y-113403380D01*
X131244904Y-113451000D01*
X131292523Y-113498619D01*
X131340142Y-113593857D01*
X131387761Y-113784333D01*
X131387761Y-114022428D01*
X131340142Y-114212904D01*
X131292523Y-114308142D01*
X131244904Y-114355761D01*
X131149666Y-114403380D01*
X131054428Y-114403380D01*
X130959190Y-114355761D01*
X130911571Y-114308142D01*
X130863952Y-114212904D01*
X130816333Y-114022428D01*
X130816333Y-113784333D01*
X130863952Y-113593857D01*
X130911571Y-113498619D01*
X130959190Y-113451000D01*
X131054428Y-113403380D01*
X132292523Y-113403380D02*
X131816333Y-113403380D01*
X131768714Y-113879571D01*
X131816333Y-113831952D01*
X131911571Y-113784333D01*
X132149666Y-113784333D01*
X132244904Y-113831952D01*
X132292523Y-113879571D01*
X132340142Y-113974809D01*
X132340142Y-114212904D01*
X132292523Y-114308142D01*
X132244904Y-114355761D01*
X132149666Y-114403380D01*
X131911571Y-114403380D01*
X131816333Y-114355761D01*
X131768714Y-114308142D01*
X132959190Y-113403380D02*
X133054428Y-113403380D01*
X133149666Y-113451000D01*
X133197285Y-113498619D01*
X133244904Y-113593857D01*
X133292523Y-113784333D01*
X133292523Y-114022428D01*
X133244904Y-114212904D01*
X133197285Y-114308142D01*
X133149666Y-114355761D01*
X133054428Y-114403380D01*
X132959190Y-114403380D01*
X132863952Y-114355761D01*
X132816333Y-114308142D01*
X132768714Y-114212904D01*
X132721095Y-114022428D01*
X132721095Y-113784333D01*
X132768714Y-113593857D01*
X132816333Y-113498619D01*
X132863952Y-113451000D01*
X132959190Y-113403380D01*
X86701333Y-138374380D02*
X86368000Y-137898190D01*
X86129904Y-138374380D02*
X86129904Y-137374380D01*
X86510857Y-137374380D01*
X86606095Y-137422000D01*
X86653714Y-137469619D01*
X86701333Y-137564857D01*
X86701333Y-137707714D01*
X86653714Y-137802952D01*
X86606095Y-137850571D01*
X86510857Y-137898190D01*
X86129904Y-137898190D01*
X87558476Y-137374380D02*
X87368000Y-137374380D01*
X87272761Y-137422000D01*
X87225142Y-137469619D01*
X87129904Y-137612476D01*
X87082285Y-137802952D01*
X87082285Y-138183904D01*
X87129904Y-138279142D01*
X87177523Y-138326761D01*
X87272761Y-138374380D01*
X87463238Y-138374380D01*
X87558476Y-138326761D01*
X87606095Y-138279142D01*
X87653714Y-138183904D01*
X87653714Y-137945809D01*
X87606095Y-137850571D01*
X87558476Y-137802952D01*
X87463238Y-137755333D01*
X87272761Y-137755333D01*
X87177523Y-137802952D01*
X87129904Y-137850571D01*
X87082285Y-137945809D01*
X104227333Y-95353142D02*
X104179714Y-95400761D01*
X104036857Y-95448380D01*
X103941619Y-95448380D01*
X103798761Y-95400761D01*
X103703523Y-95305523D01*
X103655904Y-95210285D01*
X103608285Y-95019809D01*
X103608285Y-94876952D01*
X103655904Y-94686476D01*
X103703523Y-94591238D01*
X103798761Y-94496000D01*
X103941619Y-94448380D01*
X104036857Y-94448380D01*
X104179714Y-94496000D01*
X104227333Y-94543619D01*
X104560666Y-94448380D02*
X105179714Y-94448380D01*
X104846380Y-94829333D01*
X104989238Y-94829333D01*
X105084476Y-94876952D01*
X105132095Y-94924571D01*
X105179714Y-95019809D01*
X105179714Y-95257904D01*
X105132095Y-95353142D01*
X105084476Y-95400761D01*
X104989238Y-95448380D01*
X104703523Y-95448380D01*
X104608285Y-95400761D01*
X104560666Y-95353142D01*
X132619904Y-95464380D02*
X132619904Y-96273904D01*
X132667523Y-96369142D01*
X132715142Y-96416761D01*
X132810380Y-96464380D01*
X133000857Y-96464380D01*
X133096095Y-96416761D01*
X133143714Y-96369142D01*
X133191333Y-96273904D01*
X133191333Y-95464380D01*
X134191333Y-96464380D02*
X133619904Y-96464380D01*
X133905619Y-96464380D02*
X133905619Y-95464380D01*
X133810380Y-95607238D01*
X133715142Y-95702476D01*
X133619904Y-95750095D01*
X134810380Y-95464380D02*
X134905619Y-95464380D01*
X135000857Y-95512000D01*
X135048476Y-95559619D01*
X135096095Y-95654857D01*
X135143714Y-95845333D01*
X135143714Y-96083428D01*
X135096095Y-96273904D01*
X135048476Y-96369142D01*
X135000857Y-96416761D01*
X134905619Y-96464380D01*
X134810380Y-96464380D01*
X134715142Y-96416761D01*
X134667523Y-96369142D01*
X134619904Y-96273904D01*
X134572285Y-96083428D01*
X134572285Y-95845333D01*
X134619904Y-95654857D01*
X134667523Y-95559619D01*
X134715142Y-95512000D01*
X134810380Y-95464380D01*
X122946840Y-98448761D02*
X123089697Y-98496380D01*
X123327792Y-98496380D01*
X123423030Y-98448761D01*
X123470649Y-98401142D01*
X123518268Y-98305904D01*
X123518268Y-98210666D01*
X123470649Y-98115428D01*
X123423030Y-98067809D01*
X123327792Y-98020190D01*
X123137316Y-97972571D01*
X123042078Y-97924952D01*
X122994459Y-97877333D01*
X122946840Y-97782095D01*
X122946840Y-97686857D01*
X122994459Y-97591619D01*
X123042078Y-97544000D01*
X123137316Y-97496380D01*
X123375411Y-97496380D01*
X123518268Y-97544000D01*
X124327792Y-98448761D02*
X124232554Y-98496380D01*
X124042078Y-98496380D01*
X123946840Y-98448761D01*
X123899221Y-98353523D01*
X123899221Y-97972571D01*
X123946840Y-97877333D01*
X124042078Y-97829714D01*
X124232554Y-97829714D01*
X124327792Y-97877333D01*
X124375411Y-97972571D01*
X124375411Y-98067809D01*
X123899221Y-98163047D01*
X125184935Y-98448761D02*
X125089697Y-98496380D01*
X124899221Y-98496380D01*
X124803983Y-98448761D01*
X124756364Y-98353523D01*
X124756364Y-97972571D01*
X124803983Y-97877333D01*
X124899221Y-97829714D01*
X125089697Y-97829714D01*
X125184935Y-97877333D01*
X125232554Y-97972571D01*
X125232554Y-98067809D01*
X124756364Y-98163047D01*
X126042078Y-98448761D02*
X125946840Y-98496380D01*
X125756364Y-98496380D01*
X125661126Y-98448761D01*
X125613507Y-98353523D01*
X125613507Y-97972571D01*
X125661126Y-97877333D01*
X125756364Y-97829714D01*
X125946840Y-97829714D01*
X126042078Y-97877333D01*
X126089697Y-97972571D01*
X126089697Y-98067809D01*
X125613507Y-98163047D01*
X126946840Y-98496380D02*
X126946840Y-97496380D01*
X126946840Y-98448761D02*
X126851602Y-98496380D01*
X126661126Y-98496380D01*
X126565888Y-98448761D01*
X126518268Y-98401142D01*
X126470649Y-98305904D01*
X126470649Y-98020190D01*
X126518268Y-97924952D01*
X126565888Y-97877333D01*
X126661126Y-97829714D01*
X126851602Y-97829714D01*
X126946840Y-97877333D01*
X127851602Y-97829714D02*
X127851602Y-98496380D01*
X127423030Y-97829714D02*
X127423030Y-98353523D01*
X127470649Y-98448761D01*
X127565888Y-98496380D01*
X127708745Y-98496380D01*
X127803983Y-98448761D01*
X127851602Y-98401142D01*
X128327792Y-98496380D02*
X128327792Y-97829714D01*
X128327792Y-97496380D02*
X128280173Y-97544000D01*
X128327792Y-97591619D01*
X128375411Y-97544000D01*
X128327792Y-97496380D01*
X128327792Y-97591619D01*
X128803983Y-97829714D02*
X128803983Y-98496380D01*
X128803983Y-97924952D02*
X128851602Y-97877333D01*
X128946840Y-97829714D01*
X129089697Y-97829714D01*
X129184935Y-97877333D01*
X129232554Y-97972571D01*
X129232554Y-98496380D01*
X129851602Y-98496380D02*
X129756364Y-98448761D01*
X129708745Y-98401142D01*
X129661126Y-98305904D01*
X129661126Y-98020190D01*
X129708745Y-97924952D01*
X129756364Y-97877333D01*
X129851602Y-97829714D01*
X129994459Y-97829714D01*
X130089697Y-97877333D01*
X130137316Y-97924952D01*
X130184935Y-98020190D01*
X130184935Y-98305904D01*
X130137316Y-98401142D01*
X130089697Y-98448761D01*
X129994459Y-98496380D01*
X129851602Y-98496380D01*
X130375411Y-98591619D02*
X131137316Y-98591619D01*
X131280173Y-97496380D02*
X131946840Y-98496380D01*
X131946840Y-97496380D02*
X131280173Y-98496380D01*
X132327792Y-98496380D02*
X132327792Y-97829714D01*
X132327792Y-97496380D02*
X132280173Y-97544000D01*
X132327792Y-97591619D01*
X132375411Y-97544000D01*
X132327792Y-97496380D01*
X132327792Y-97591619D01*
X133232554Y-98496380D02*
X133232554Y-97972571D01*
X133184935Y-97877333D01*
X133089697Y-97829714D01*
X132899221Y-97829714D01*
X132803983Y-97877333D01*
X133232554Y-98448761D02*
X133137316Y-98496380D01*
X132899221Y-98496380D01*
X132803983Y-98448761D01*
X132756364Y-98353523D01*
X132756364Y-98258285D01*
X132803983Y-98163047D01*
X132899221Y-98115428D01*
X133137316Y-98115428D01*
X133232554Y-98067809D01*
X133851602Y-98496380D02*
X133756364Y-98448761D01*
X133708745Y-98401142D01*
X133661126Y-98305904D01*
X133661126Y-98020190D01*
X133708745Y-97924952D01*
X133756364Y-97877333D01*
X133851602Y-97829714D01*
X133994459Y-97829714D01*
X134089697Y-97877333D01*
X134137316Y-97924952D01*
X134184935Y-98020190D01*
X134184935Y-98305904D01*
X134137316Y-98401142D01*
X134089697Y-98448761D01*
X133994459Y-98496380D01*
X133851602Y-98496380D01*
D12*
X144684000Y-109586000D02*
X144684000Y-113426000D01*
X142844000Y-109586000D02*
X142844000Y-113426000D01*
X105676000Y-88496000D02*
X109716000Y-88496000D01*
X105676000Y-88496000D02*
X105676000Y-89121000D01*
X105676000Y-91336000D02*
X109716000Y-91336000D01*
X109716000Y-90711000D02*
X109716000Y-91336000D01*
X109716000Y-88496000D02*
X109716000Y-89121000D01*
X105676000Y-90711000D02*
X105676000Y-91336000D01*
X79154083Y-163437217D02*
X82701780Y-164906721D01*
X79858220Y-161737279D02*
X83405917Y-163206783D01*
X149554000Y-122646000D02*
X149554000Y-118146000D01*
X147054000Y-116896000D02*
X145554000Y-116896000D01*
X143054000Y-118146000D02*
X143054000Y-122646000D01*
X145554000Y-123896000D02*
X147054000Y-123896000D01*
X121055780Y-162245279D02*
X117508083Y-163714783D01*
X121759917Y-163945217D02*
X118212220Y-165414721D01*
X80902353Y-161828889D02*
X84634827Y-163374930D01*
X84874004Y-162797505D02*
X84634827Y-163374930D01*
X85721648Y-160751112D02*
X85482470Y-161328537D01*
X81989174Y-159205071D02*
X81749997Y-159782496D01*
X81141530Y-161251464D02*
X80902353Y-161828889D01*
X81989174Y-159205071D02*
X85721648Y-160751112D01*
X110906000Y-96616000D02*
X107066000Y-96616000D01*
X110906000Y-98456000D02*
X107066000Y-98456000D01*
X110906000Y-88296000D02*
X107066000Y-88296000D01*
X110906000Y-86456000D02*
X107066000Y-86456000D01*
X101113000Y-151867000D02*
X98023000Y-151867000D01*
X98023170Y-151867000D02*
G75*
G03*
X99568462Y-157417000I1544830J-2560000D01*
G01*
X99567538Y-157417000D02*
G75*
G03*
X101112830Y-151867000I462J2990000D01*
G01*
X102068000Y-154427000D02*
G75*
G03*
X102068000Y-154427000I-2500000J0D01*
G01*
X88788000Y-114904000D02*
X84948000Y-114904000D01*
X88788000Y-116744000D02*
X84948000Y-116744000D01*
X116353000Y-151867000D02*
X113263000Y-151867000D01*
X113263170Y-151867000D02*
G75*
G03*
X114808462Y-157417000I1544830J-2560000D01*
G01*
X114807538Y-157417000D02*
G75*
G03*
X116352830Y-151867000I462J2990000D01*
G01*
X117308000Y-154427000D02*
G75*
G03*
X117308000Y-154427000I-2500000J0D01*
G01*
X72670000Y-101017000D02*
X71420000Y-101017000D01*
X75920000Y-101017000D02*
X74670000Y-101017000D01*
X71420000Y-136697000D02*
X75920000Y-136697000D01*
X75920000Y-136697000D02*
X75920000Y-101017000D01*
X68420000Y-136757000D02*
X78920000Y-136757000D01*
X71420000Y-101017000D02*
X71420000Y-136697000D01*
X78920000Y-100957000D02*
X68420000Y-100957000D01*
X68420000Y-100957000D02*
X68420000Y-136757000D01*
X78920000Y-136757000D02*
X78920000Y-100957000D01*
X72670000Y-101017000D02*
G75*
G03*
X74670000Y-101017000I1000000J0D01*
G01*
X119482220Y-69789279D02*
X123029917Y-71258783D01*
X118778083Y-71489217D02*
X122325780Y-72958721D01*
X59548000Y-109062000D02*
X63388000Y-109062000D01*
X59548000Y-110902000D02*
X63388000Y-110902000D01*
X58196889Y-133480353D02*
X59742930Y-137212827D01*
X57696537Y-138060470D02*
X57119112Y-138299648D01*
X59742930Y-137212827D02*
X59165505Y-137452004D01*
X56150496Y-134327997D02*
X55573071Y-134567174D01*
X58196889Y-133480353D02*
X57619464Y-133719530D01*
X55573071Y-134567174D02*
X57119112Y-138299648D01*
X110906000Y-93376000D02*
X107066000Y-93376000D01*
X110906000Y-91536000D02*
X107066000Y-91536000D01*
X102948000Y-132134000D02*
X102948000Y-135074000D01*
X101928000Y-135074000D02*
X107368000Y-135074000D01*
X101928000Y-132134000D02*
X107368000Y-132134000D01*
X101928000Y-134944000D02*
X101928000Y-135074000D01*
X102708000Y-132134000D02*
X102708000Y-135074000D01*
X107368000Y-135074000D02*
X107368000Y-134944000D01*
X102828000Y-132134000D02*
X102828000Y-135074000D01*
X101928000Y-132264000D02*
X101928000Y-132134000D01*
X107368000Y-132134000D02*
X107368000Y-132264000D01*
X72500888Y-91927000D02*
X72500888Y-93448000D01*
X72460888Y-95528000D02*
X72460888Y-97053000D01*
X72860888Y-91997000D02*
X72860888Y-93448000D01*
X73501888Y-95528000D02*
X73501888Y-96712000D01*
X73541888Y-92288000D02*
X73541888Y-93448000D01*
X74261888Y-95528000D02*
X74261888Y-96042000D01*
X74301888Y-95528000D02*
X74301888Y-95988000D01*
X73061888Y-95528000D02*
X73061888Y-96916000D01*
X72740888Y-91968000D02*
X72740888Y-93448000D01*
X74621888Y-93573000D02*
X74621888Y-95403000D01*
X74541888Y-93390000D02*
X74541888Y-95586000D01*
X73781888Y-95528000D02*
X73781888Y-96523000D01*
X72981888Y-95528000D02*
X72981888Y-96943000D01*
X72860888Y-95528000D02*
X72860888Y-96979000D01*
X73901888Y-92551000D02*
X73901888Y-93448000D01*
X72420888Y-95528000D02*
X72420888Y-97057000D01*
X72260888Y-91909000D02*
X72260888Y-97067000D01*
X73821888Y-92484000D02*
X73821888Y-93448000D01*
X72340888Y-91912000D02*
X72340888Y-97064000D01*
X73581888Y-95528000D02*
X73581888Y-96663000D01*
X73181888Y-95528000D02*
X73181888Y-96870000D01*
X74661888Y-93683000D02*
X74661888Y-95293000D01*
X73781888Y-92453000D02*
X73781888Y-93448000D01*
X74421888Y-95528000D02*
X74421888Y-95807000D01*
X73741888Y-95528000D02*
X73741888Y-96553000D01*
X72220888Y-91908000D02*
X72220888Y-97068000D01*
X73101888Y-95528000D02*
X73101888Y-96902000D01*
X73181888Y-92106000D02*
X73181888Y-93448000D01*
X73461888Y-95528000D02*
X73461888Y-96735000D01*
X73621888Y-92339000D02*
X73621888Y-93448000D01*
X73501888Y-92264000D02*
X73501888Y-93448000D01*
X74101888Y-95528000D02*
X74101888Y-96231000D01*
X74261888Y-92934000D02*
X74261888Y-93448000D01*
X73341888Y-92178000D02*
X73341888Y-93448000D01*
X73421888Y-95528000D02*
X73421888Y-96756000D01*
X72780888Y-95528000D02*
X72780888Y-96999000D01*
X74781888Y-94204000D02*
X74781888Y-94772000D01*
X69376113Y-93013000D02*
X69876113Y-93013000D01*
X74061888Y-92703000D02*
X74061888Y-93448000D01*
X73621888Y-95528000D02*
X73621888Y-96637000D01*
X73981888Y-95528000D02*
X73981888Y-96352000D01*
X74381888Y-95528000D02*
X74381888Y-95871000D01*
X74421888Y-93169000D02*
X74421888Y-93448000D01*
X73461888Y-92241000D02*
X73461888Y-93448000D01*
X72420888Y-91919000D02*
X72420888Y-93448000D01*
X73141888Y-95528000D02*
X73141888Y-96886000D01*
X72580888Y-91938000D02*
X72580888Y-93448000D01*
X72901888Y-92008000D02*
X72901888Y-93448000D01*
X72941888Y-95528000D02*
X72941888Y-96956000D01*
X74381888Y-93105000D02*
X74381888Y-93448000D01*
X72180888Y-91908000D02*
X72180888Y-97068000D01*
X72780888Y-91977000D02*
X72780888Y-93448000D01*
X73381888Y-92198000D02*
X73381888Y-93448000D01*
X72620888Y-95528000D02*
X72620888Y-97031000D01*
X72300888Y-91910000D02*
X72300888Y-97066000D01*
X72540888Y-95528000D02*
X72540888Y-97044000D01*
X73861888Y-95528000D02*
X73861888Y-96459000D01*
X74581888Y-93477000D02*
X74581888Y-95499000D01*
X72580888Y-95528000D02*
X72580888Y-97038000D01*
X73021888Y-92046000D02*
X73021888Y-93448000D01*
X73661888Y-92366000D02*
X73661888Y-93448000D01*
X73941888Y-95528000D02*
X73941888Y-96389000D01*
X74301888Y-92988000D02*
X74301888Y-93448000D01*
X72540888Y-91932000D02*
X72540888Y-93448000D01*
X74181888Y-95528000D02*
X74181888Y-96141000D01*
X73261888Y-92140000D02*
X73261888Y-93448000D01*
X72660888Y-91952000D02*
X72660888Y-93448000D01*
X74341888Y-95528000D02*
X74341888Y-95931000D01*
X73221888Y-95528000D02*
X73221888Y-96853000D01*
X74021888Y-95528000D02*
X74021888Y-96314000D01*
X72820888Y-95528000D02*
X72820888Y-96989000D01*
X72620888Y-91945000D02*
X72620888Y-93448000D01*
X73381888Y-95528000D02*
X73381888Y-96778000D01*
X73901888Y-95528000D02*
X73901888Y-96425000D01*
X72700888Y-91960000D02*
X72700888Y-93448000D01*
X74141888Y-95528000D02*
X74141888Y-96187000D01*
X72500888Y-95528000D02*
X72500888Y-97049000D01*
X73101888Y-92074000D02*
X73101888Y-93448000D01*
X73261888Y-95528000D02*
X73261888Y-96836000D01*
X72820888Y-91987000D02*
X72820888Y-93448000D01*
X72380888Y-91915000D02*
X72380888Y-97061000D01*
X72660888Y-95528000D02*
X72660888Y-97024000D01*
X74741888Y-93970000D02*
X74741888Y-95006000D01*
X74221888Y-92883000D02*
X74221888Y-93448000D01*
X74341888Y-93045000D02*
X74341888Y-93448000D01*
X73301888Y-92159000D02*
X73301888Y-93448000D01*
X73661888Y-95528000D02*
X73661888Y-96610000D01*
X74061888Y-95528000D02*
X74061888Y-96273000D01*
X74501888Y-93310000D02*
X74501888Y-95666000D01*
X73141888Y-92090000D02*
X73141888Y-93448000D01*
X73581888Y-92313000D02*
X73581888Y-93448000D01*
X73741888Y-92423000D02*
X73741888Y-93448000D01*
X73421888Y-92220000D02*
X73421888Y-93448000D01*
X74021888Y-92662000D02*
X74021888Y-93448000D01*
X74461888Y-95528000D02*
X74461888Y-95739000D01*
X74461888Y-93237000D02*
X74461888Y-93448000D01*
X72460888Y-91923000D02*
X72460888Y-93448000D01*
X74701888Y-93811000D02*
X74701888Y-95165000D01*
X74221888Y-95528000D02*
X74221888Y-96093000D01*
X73861888Y-92517000D02*
X73861888Y-93448000D01*
X73301888Y-95528000D02*
X73301888Y-96817000D01*
X73981888Y-92624000D02*
X73981888Y-93448000D01*
X72740888Y-95528000D02*
X72740888Y-97008000D01*
X72981888Y-92033000D02*
X72981888Y-93448000D01*
X73701888Y-95528000D02*
X73701888Y-96583000D01*
X73021888Y-95528000D02*
X73021888Y-96930000D01*
X74181888Y-92835000D02*
X74181888Y-93448000D01*
X74101888Y-92745000D02*
X74101888Y-93448000D01*
X72901888Y-95528000D02*
X72901888Y-96968000D01*
X69626113Y-92763000D02*
X69626113Y-93263000D01*
X73541888Y-95528000D02*
X73541888Y-96688000D01*
X73221888Y-92123000D02*
X73221888Y-93448000D01*
X72941888Y-92020000D02*
X72941888Y-93448000D01*
X73821888Y-95528000D02*
X73821888Y-96492000D01*
X72700888Y-95528000D02*
X72700888Y-97016000D01*
X73941888Y-92587000D02*
X73941888Y-93448000D01*
X73701888Y-92393000D02*
X73701888Y-93448000D01*
X74141888Y-92789000D02*
X74141888Y-93448000D01*
X73061888Y-92060000D02*
X73061888Y-93448000D01*
X73341888Y-95528000D02*
X73341888Y-96798000D01*
X74800888Y-94488000D02*
G75*
G03*
X74800888Y-94488000I-2620000J0D01*
G01*
X83717780Y-69281279D02*
X80170083Y-70750783D01*
X84421917Y-70981217D02*
X80874220Y-72450721D01*
X148994000Y-110736000D02*
X148994000Y-114776000D01*
X148994000Y-110736000D02*
X148369000Y-110736000D01*
X146779000Y-114776000D02*
X146154000Y-114776000D01*
X146779000Y-110736000D02*
X146154000Y-110736000D01*
X148994000Y-114776000D02*
X148369000Y-114776000D01*
X146154000Y-110736000D02*
X146154000Y-114776000D01*
X88788000Y-128682000D02*
X84948000Y-128682000D01*
X88788000Y-126842000D02*
X84948000Y-126842000D01*
X143272496Y-97243997D02*
X142695071Y-97483174D01*
X142695071Y-97483174D02*
X144241112Y-101215648D01*
X144818537Y-100976470D02*
X144241112Y-101215648D01*
X145318889Y-96396353D02*
X144741464Y-96635530D01*
X145318889Y-96396353D02*
X146864930Y-100128827D01*
X146864930Y-100128827D02*
X146287505Y-100368004D01*
X88788000Y-131222000D02*
X84948000Y-131222000D01*
X88788000Y-129382000D02*
X84948000Y-129382000D01*
X119983000Y-149606000D02*
X140303000Y-149606000D01*
X140303000Y-149606000D02*
X140303000Y-131826000D01*
X140303000Y-131826000D02*
X119983000Y-131826000D01*
X119983000Y-131826000D02*
X119983000Y-149606000D01*
X135223000Y-144526000D02*
X140303000Y-144526000D01*
X140303000Y-144526000D02*
X140303000Y-136906000D01*
X140303000Y-136906000D02*
X135223000Y-136906000D01*
X135223000Y-136906000D02*
X135223000Y-144526000D01*
X121071977Y-158921425D02*
X117339503Y-160467466D01*
X121311154Y-159498850D02*
X121071977Y-158921425D01*
X122158798Y-161545243D02*
X121919621Y-160967818D01*
X118426324Y-163091284D02*
X118187147Y-162513859D01*
X122158798Y-161545243D02*
X118426324Y-163091284D01*
X117578681Y-161044891D02*
X117339503Y-160467466D01*
X59548000Y-103282000D02*
X63388000Y-103282000D01*
X59548000Y-101442000D02*
X63388000Y-101442000D01*
X112338340Y-148427000D02*
X116178340Y-148427000D01*
X112338340Y-150267000D02*
X116178340Y-150267000D01*
X88788000Y-114204000D02*
X84948000Y-114204000D01*
X88788000Y-112364000D02*
X84948000Y-112364000D01*
X57188536Y-97397530D02*
X56611111Y-97158353D01*
X56611111Y-97158353D02*
X55065070Y-100890827D01*
X59234929Y-98245174D02*
X57688888Y-101977648D01*
X55642495Y-101130004D02*
X55065070Y-100890827D01*
X57688888Y-101977648D02*
X57111463Y-101738470D01*
X59234929Y-98245174D02*
X58657504Y-98005997D01*
X89478340Y-150267000D02*
X93318340Y-150267000D01*
X89478340Y-148427000D02*
X93318340Y-148427000D01*
X105676000Y-98656000D02*
X109716000Y-98656000D01*
X105676000Y-100871000D02*
X105676000Y-101496000D01*
X105676000Y-101496000D02*
X109716000Y-101496000D01*
X109716000Y-100871000D02*
X109716000Y-101496000D01*
X109716000Y-98656000D02*
X109716000Y-99281000D01*
X105676000Y-98656000D02*
X105676000Y-99281000D01*
X124490113Y-92763000D02*
X124490113Y-93263000D01*
X127684888Y-91987000D02*
X127684888Y-93448000D01*
X129325888Y-95528000D02*
X129325888Y-95739000D01*
X129245888Y-95528000D02*
X129245888Y-95871000D01*
X128605888Y-95528000D02*
X128605888Y-96553000D01*
X128805888Y-95528000D02*
X128805888Y-96389000D01*
X129085888Y-95528000D02*
X129085888Y-96093000D01*
X127484888Y-91945000D02*
X127484888Y-93448000D01*
X127324888Y-91923000D02*
X127324888Y-93448000D01*
X128365888Y-95528000D02*
X128365888Y-96712000D01*
X128285888Y-95528000D02*
X128285888Y-96756000D01*
X129445888Y-93477000D02*
X129445888Y-95499000D01*
X128725888Y-95528000D02*
X128725888Y-96459000D01*
X128125888Y-95528000D02*
X128125888Y-96836000D01*
X128085888Y-92123000D02*
X128085888Y-93448000D01*
X127404888Y-95528000D02*
X127404888Y-97044000D01*
X127644888Y-95528000D02*
X127644888Y-96999000D01*
X127805888Y-95528000D02*
X127805888Y-96956000D01*
X128485888Y-95528000D02*
X128485888Y-96637000D01*
X128245888Y-95528000D02*
X128245888Y-96778000D01*
X129005888Y-92789000D02*
X129005888Y-93448000D01*
X128565888Y-95528000D02*
X128565888Y-96583000D01*
X127124888Y-91909000D02*
X127124888Y-97067000D01*
X127444888Y-95528000D02*
X127444888Y-97038000D01*
X128445888Y-95528000D02*
X128445888Y-96663000D01*
X127604888Y-91968000D02*
X127604888Y-93448000D01*
X127965888Y-92074000D02*
X127965888Y-93448000D01*
X128405888Y-92288000D02*
X128405888Y-93448000D01*
X127164888Y-91910000D02*
X127164888Y-97066000D01*
X127885888Y-95528000D02*
X127885888Y-96930000D01*
X127845888Y-92033000D02*
X127845888Y-93448000D01*
X128925888Y-95528000D02*
X128925888Y-96273000D01*
X124240113Y-93013000D02*
X124740113Y-93013000D01*
X129125888Y-95528000D02*
X129125888Y-96042000D01*
X127364888Y-95528000D02*
X127364888Y-97049000D01*
X127284888Y-95528000D02*
X127284888Y-97057000D01*
X127845888Y-95528000D02*
X127845888Y-96943000D01*
X128805888Y-92587000D02*
X128805888Y-93448000D01*
X128205888Y-95528000D02*
X128205888Y-96798000D01*
X128405888Y-95528000D02*
X128405888Y-96688000D01*
X128525888Y-92366000D02*
X128525888Y-93448000D01*
X128685888Y-92484000D02*
X128685888Y-93448000D01*
X127324888Y-95528000D02*
X127324888Y-97053000D01*
X127604888Y-95528000D02*
X127604888Y-97008000D01*
X128165888Y-92159000D02*
X128165888Y-93448000D01*
X129525888Y-93683000D02*
X129525888Y-95293000D01*
X127765888Y-95528000D02*
X127765888Y-96968000D01*
X127364888Y-91927000D02*
X127364888Y-93448000D01*
X128245888Y-92198000D02*
X128245888Y-93448000D01*
X129485888Y-93573000D02*
X129485888Y-95403000D01*
X129405888Y-93390000D02*
X129405888Y-95586000D01*
X129325888Y-93237000D02*
X129325888Y-93448000D01*
X127284888Y-91919000D02*
X127284888Y-93448000D01*
X127484888Y-95528000D02*
X127484888Y-97031000D01*
X127684888Y-95528000D02*
X127684888Y-96989000D01*
X128485888Y-92339000D02*
X128485888Y-93448000D01*
X127084888Y-91908000D02*
X127084888Y-97068000D01*
X128445888Y-92313000D02*
X128445888Y-93448000D01*
X129365888Y-93310000D02*
X129365888Y-95666000D01*
X128205888Y-92178000D02*
X128205888Y-93448000D01*
X129085888Y-92883000D02*
X129085888Y-93448000D01*
X129125888Y-92934000D02*
X129125888Y-93448000D01*
X128645888Y-92453000D02*
X128645888Y-93448000D01*
X128925888Y-92703000D02*
X128925888Y-93448000D01*
X127524888Y-95528000D02*
X127524888Y-97024000D01*
X129285888Y-93169000D02*
X129285888Y-93448000D01*
X129165888Y-95528000D02*
X129165888Y-95988000D01*
X128165888Y-95528000D02*
X128165888Y-96817000D01*
X127244888Y-91915000D02*
X127244888Y-97061000D01*
X128005888Y-92090000D02*
X128005888Y-93448000D01*
X129245888Y-93105000D02*
X129245888Y-93448000D01*
X127885888Y-92046000D02*
X127885888Y-93448000D01*
X128765888Y-95528000D02*
X128765888Y-96425000D01*
X128125888Y-92140000D02*
X128125888Y-93448000D01*
X127444888Y-91938000D02*
X127444888Y-93448000D01*
X128365888Y-92264000D02*
X128365888Y-93448000D01*
X129565888Y-93811000D02*
X129565888Y-95165000D01*
X129205888Y-95528000D02*
X129205888Y-95931000D01*
X127524888Y-91952000D02*
X127524888Y-93448000D01*
X128045888Y-92106000D02*
X128045888Y-93448000D01*
X128645888Y-95528000D02*
X128645888Y-96523000D01*
X127044888Y-91908000D02*
X127044888Y-97068000D01*
X129165888Y-92988000D02*
X129165888Y-93448000D01*
X129005888Y-95528000D02*
X129005888Y-96187000D01*
X128525888Y-95528000D02*
X128525888Y-96610000D01*
X128325888Y-95528000D02*
X128325888Y-96735000D01*
X127564888Y-95528000D02*
X127564888Y-97016000D01*
X127204888Y-91912000D02*
X127204888Y-97064000D01*
X128885888Y-92662000D02*
X128885888Y-93448000D01*
X129205888Y-93045000D02*
X129205888Y-93448000D01*
X127724888Y-91997000D02*
X127724888Y-93448000D01*
X127724888Y-95528000D02*
X127724888Y-96979000D01*
X129285888Y-95528000D02*
X129285888Y-95807000D01*
X129045888Y-95528000D02*
X129045888Y-96141000D01*
X128845888Y-92624000D02*
X128845888Y-93448000D01*
X128965888Y-92745000D02*
X128965888Y-93448000D01*
X128045888Y-95528000D02*
X128045888Y-96870000D01*
X128725888Y-92517000D02*
X128725888Y-93448000D01*
X128845888Y-95528000D02*
X128845888Y-96352000D01*
X128765888Y-92551000D02*
X128765888Y-93448000D01*
X127564888Y-91960000D02*
X127564888Y-93448000D01*
X128565888Y-92393000D02*
X128565888Y-93448000D01*
X128605888Y-92423000D02*
X128605888Y-93448000D01*
X127805888Y-92020000D02*
X127805888Y-93448000D01*
X127925888Y-95528000D02*
X127925888Y-96916000D01*
X128965888Y-95528000D02*
X128965888Y-96231000D01*
X127404888Y-91932000D02*
X127404888Y-93448000D01*
X128685888Y-95528000D02*
X128685888Y-96492000D01*
X129605888Y-93970000D02*
X129605888Y-95006000D01*
X128285888Y-92220000D02*
X128285888Y-93448000D01*
X129045888Y-92835000D02*
X129045888Y-93448000D01*
X128085888Y-95528000D02*
X128085888Y-96853000D01*
X129645888Y-94204000D02*
X129645888Y-94772000D01*
X127765888Y-92008000D02*
X127765888Y-93448000D01*
X128005888Y-95528000D02*
X128005888Y-96886000D01*
X128885888Y-95528000D02*
X128885888Y-96314000D01*
X127925888Y-92060000D02*
X127925888Y-93448000D01*
X128325888Y-92241000D02*
X128325888Y-93448000D01*
X127644888Y-91977000D02*
X127644888Y-93448000D01*
X127965888Y-95528000D02*
X127965888Y-96902000D01*
X129664888Y-94488000D02*
G75*
G03*
X129664888Y-94488000I-2620000J0D01*
G01*
X82550000Y-81026000D02*
X82550000Y-98806000D01*
X64770000Y-81026000D02*
X82550000Y-81026000D01*
X82550000Y-98806000D02*
X64770000Y-98806000D01*
X64770000Y-98806000D02*
X64770000Y-81026000D01*
X76200000Y-152368000D02*
G75*
G03*
X76200000Y-152368000I-2540000J0D01*
G01*
X69850000Y-156178000D02*
X77470000Y-156178000D01*
X77470000Y-156178000D02*
X77470000Y-148558000D01*
X77470000Y-148558000D02*
X69850000Y-148558000D01*
X69850000Y-148558000D02*
X69850000Y-156178000D01*
X88788000Y-111664000D02*
X84948000Y-111664000D01*
X88788000Y-109824000D02*
X84948000Y-109824000D01*
X120434004Y-74913505D02*
X120194827Y-75490930D01*
X117549174Y-71321071D02*
X121281648Y-72867112D01*
X121281648Y-72867112D02*
X121042470Y-73444537D01*
X116701530Y-73367464D02*
X116462353Y-73944889D01*
X117549174Y-71321071D02*
X117309997Y-71898496D01*
X116462353Y-73944889D02*
X120194827Y-75490930D01*
X93493000Y-151867000D02*
X90403000Y-151867000D01*
X90403170Y-151867000D02*
G75*
G03*
X91948462Y-157417000I1544830J-2560000D01*
G01*
X91947538Y-157417000D02*
G75*
G03*
X93492830Y-151867000I462J2990000D01*
G01*
X94448000Y-154427000D02*
G75*
G03*
X94448000Y-154427000I-2500000J0D01*
G01*
X53025279Y-134468220D02*
X54494783Y-138015917D01*
X54725217Y-133764083D02*
X56194721Y-137311780D01*
X59548000Y-126588000D02*
X63388000Y-126588000D01*
X59548000Y-128428000D02*
X63388000Y-128428000D01*
X104718340Y-150267000D02*
X108558340Y-150267000D01*
X104718340Y-148427000D02*
X108558340Y-148427000D01*
X88788000Y-107284000D02*
X84948000Y-107284000D01*
X88788000Y-109124000D02*
X84948000Y-109124000D01*
X84564000Y-125237888D02*
X83336000Y-125237888D01*
X81256000Y-124717888D02*
X79816000Y-124717888D01*
X84724000Y-124877888D02*
X83336000Y-124877888D01*
X84122000Y-125837888D02*
X83336000Y-125837888D01*
X81256000Y-125917888D02*
X80553000Y-125917888D01*
X84197000Y-125757888D02*
X83336000Y-125757888D01*
X84625000Y-125117888D02*
X83336000Y-125117888D01*
X81256000Y-125277888D02*
X80049000Y-125277888D01*
X84678000Y-124997888D02*
X83336000Y-124997888D01*
X84832000Y-124476888D02*
X83336000Y-124476888D01*
X81256000Y-125157888D02*
X79986000Y-125157888D01*
X81256000Y-125077888D02*
X79948000Y-125077888D01*
X83995000Y-125957888D02*
X83336000Y-125957888D01*
X84861000Y-124276888D02*
X83336000Y-124276888D01*
X81256000Y-125477888D02*
X80174000Y-125477888D01*
X81256000Y-125557888D02*
X80231000Y-125557888D01*
X81256000Y-124596888D02*
X79785000Y-124596888D01*
X81256000Y-124356888D02*
X79740000Y-124356888D01*
X84857000Y-124316888D02*
X83336000Y-124316888D01*
X84865000Y-124236888D02*
X83336000Y-124236888D01*
X81256000Y-124877888D02*
X79868000Y-124877888D01*
X81256000Y-124957888D02*
X79898000Y-124957888D01*
X83901000Y-126037888D02*
X83336000Y-126037888D01*
X81256000Y-125397888D02*
X80121000Y-125397888D01*
X84021000Y-121442113D02*
X83521000Y-121442113D01*
X84445000Y-125437888D02*
X83336000Y-125437888D01*
X83615000Y-126237888D02*
X83336000Y-126237888D01*
X81256000Y-124757888D02*
X79828000Y-124757888D01*
X81256000Y-124676888D02*
X79805000Y-124676888D01*
X81256000Y-126157888D02*
X80853000Y-126157888D01*
X81256000Y-125957888D02*
X80597000Y-125957888D01*
X84875000Y-124076888D02*
X79717000Y-124076888D01*
X84543000Y-125277888D02*
X83336000Y-125277888D01*
X81256000Y-125637888D02*
X80292000Y-125637888D01*
X81256000Y-125237888D02*
X80028000Y-125237888D01*
X84267000Y-125677888D02*
X83336000Y-125677888D01*
X84824000Y-124516888D02*
X83336000Y-124516888D01*
X84816000Y-124556888D02*
X83336000Y-124556888D01*
X84874000Y-124116888D02*
X79718000Y-124116888D01*
X84839000Y-124436888D02*
X83336000Y-124436888D01*
X84586000Y-125197888D02*
X83336000Y-125197888D01*
X81256000Y-126197888D02*
X80913000Y-126197888D01*
X84776000Y-124717888D02*
X83336000Y-124717888D01*
X83771000Y-121192113D02*
X83771000Y-121692113D01*
X83739000Y-126157888D02*
X83336000Y-126157888D01*
X84807000Y-124596888D02*
X83336000Y-124596888D01*
X84661000Y-125037888D02*
X83336000Y-125037888D01*
X81256000Y-124436888D02*
X79753000Y-124436888D01*
X84869000Y-124196888D02*
X79723000Y-124196888D01*
X83394000Y-126357888D02*
X81198000Y-126357888D01*
X83211000Y-126437888D02*
X81381000Y-126437888D01*
X81256000Y-125797888D02*
X80432000Y-125797888D01*
X84764000Y-124757888D02*
X83336000Y-124757888D01*
X81256000Y-126037888D02*
X80691000Y-126037888D01*
X84751000Y-124797888D02*
X83336000Y-124797888D01*
X81256000Y-124316888D02*
X79735000Y-124316888D01*
X83307000Y-126397888D02*
X81285000Y-126397888D01*
X81256000Y-126237888D02*
X80977000Y-126237888D01*
X81256000Y-125437888D02*
X80147000Y-125437888D01*
X84852000Y-124356888D02*
X83336000Y-124356888D01*
X84233000Y-125717888D02*
X83336000Y-125717888D01*
X81256000Y-124837888D02*
X79854000Y-124837888D01*
X84797000Y-124636888D02*
X83336000Y-124636888D01*
X81256000Y-124797888D02*
X79841000Y-124797888D01*
X84160000Y-125797888D02*
X83336000Y-125797888D01*
X81256000Y-124556888D02*
X79776000Y-124556888D01*
X81256000Y-126117888D02*
X80796000Y-126117888D01*
X81256000Y-126277888D02*
X81045000Y-126277888D01*
X82814000Y-126557888D02*
X81778000Y-126557888D01*
X82973000Y-126517888D02*
X81619000Y-126517888D01*
X81256000Y-125597888D02*
X80261000Y-125597888D01*
X84039000Y-125917888D02*
X83336000Y-125917888D01*
X84331000Y-125597888D02*
X83336000Y-125597888D01*
X84300000Y-125637888D02*
X83336000Y-125637888D01*
X81256000Y-124236888D02*
X79727000Y-124236888D01*
X83949000Y-125997888D02*
X83336000Y-125997888D01*
X84471000Y-125397888D02*
X83336000Y-125397888D01*
X84644000Y-125077888D02*
X83336000Y-125077888D01*
X83679000Y-126197888D02*
X83336000Y-126197888D01*
X84710000Y-124917888D02*
X83336000Y-124917888D01*
X81256000Y-125997888D02*
X80643000Y-125997888D01*
X84876000Y-124036888D02*
X79716000Y-124036888D01*
X82580000Y-126597888D02*
X82012000Y-126597888D01*
X84361000Y-125557888D02*
X83336000Y-125557888D01*
X81256000Y-124636888D02*
X79795000Y-124636888D01*
X83850000Y-126077888D02*
X83336000Y-126077888D01*
X84606000Y-125157888D02*
X83336000Y-125157888D01*
X81256000Y-125197888D02*
X80006000Y-125197888D01*
X84391000Y-125517888D02*
X83336000Y-125517888D01*
X81256000Y-124917888D02*
X79882000Y-124917888D01*
X83474000Y-126317888D02*
X81118000Y-126317888D01*
X81256000Y-125517888D02*
X80201000Y-125517888D01*
X84872000Y-124156888D02*
X79720000Y-124156888D01*
X84738000Y-124837888D02*
X83336000Y-124837888D01*
X81256000Y-125717888D02*
X80359000Y-125717888D01*
X83547000Y-126277888D02*
X83336000Y-126277888D01*
X84846000Y-124396888D02*
X83336000Y-124396888D01*
X83101000Y-126477888D02*
X81491000Y-126477888D01*
X81256000Y-124476888D02*
X79760000Y-124476888D01*
X81256000Y-125037888D02*
X79931000Y-125037888D01*
X84496000Y-125357888D02*
X83336000Y-125357888D01*
X81256000Y-124516888D02*
X79768000Y-124516888D01*
X81256000Y-124396888D02*
X79746000Y-124396888D01*
X81256000Y-125317888D02*
X80072000Y-125317888D01*
X81256000Y-125837888D02*
X80470000Y-125837888D01*
X84520000Y-125317888D02*
X83336000Y-125317888D01*
X84876000Y-123996888D02*
X79716000Y-123996888D01*
X81256000Y-125357888D02*
X80096000Y-125357888D01*
X84694000Y-124957888D02*
X83336000Y-124957888D01*
X81256000Y-125117888D02*
X79967000Y-125117888D01*
X81256000Y-125877888D02*
X80511000Y-125877888D01*
X84081000Y-125877888D02*
X83336000Y-125877888D01*
X84418000Y-125477888D02*
X83336000Y-125477888D01*
X84787000Y-124676888D02*
X83336000Y-124676888D01*
X81256000Y-125757888D02*
X80395000Y-125757888D01*
X81256000Y-125677888D02*
X80325000Y-125677888D01*
X81256000Y-124276888D02*
X79731000Y-124276888D01*
X81256000Y-126077888D02*
X80742000Y-126077888D01*
X81256000Y-124997888D02*
X79914000Y-124997888D01*
X83796000Y-126117888D02*
X83336000Y-126117888D01*
X84916000Y-123996888D02*
G75*
G03*
X84916000Y-123996888I-2620000J0D01*
G01*
X88788000Y-134462000D02*
X84948000Y-134462000D01*
X88788000Y-136302000D02*
X84948000Y-136302000D01*
X145614861Y-137527875D02*
X145033350Y-137298812D01*
X147095526Y-133768988D02*
X145614861Y-137527875D01*
X145034651Y-132957188D02*
X144453140Y-132728125D01*
X147095526Y-133768988D02*
X146514015Y-133539925D01*
X143553986Y-136716075D02*
X142972475Y-136487012D01*
X144453140Y-132728125D02*
X142972475Y-136487012D01*
X59548000Y-105822000D02*
X63388000Y-105822000D01*
X59548000Y-103982000D02*
X63388000Y-103982000D01*
X83554000Y-149408000D02*
X82054000Y-149408000D01*
X86054000Y-155158000D02*
X86054000Y-150658000D01*
X82054000Y-156408000D02*
X83554000Y-156408000D01*
X79554000Y-150658000D02*
X79554000Y-155158000D01*
X97098340Y-148427000D02*
X100938340Y-148427000D01*
X97098340Y-150267000D02*
X100938340Y-150267000D01*
X80973174Y-75998930D02*
X80733997Y-75421505D01*
X83858004Y-72406496D02*
X83618827Y-71829071D01*
X83618827Y-71829071D02*
X79886353Y-73375112D01*
X84705648Y-74452889D02*
X84466471Y-73875464D01*
X80125531Y-73952537D02*
X79886353Y-73375112D01*
X84705648Y-74452889D02*
X80973174Y-75998930D01*
X146950783Y-135034083D02*
X145481279Y-138581780D01*
X148650721Y-135738220D02*
X147181217Y-139285917D01*
X59548000Y-113442000D02*
X63388000Y-113442000D01*
X59548000Y-111602000D02*
X63388000Y-111602000D01*
X59548000Y-114142000D02*
X63388000Y-114142000D01*
X59548000Y-115982000D02*
X63388000Y-115982000D01*
X88788000Y-119284000D02*
X84948000Y-119284000D01*
X88788000Y-117444000D02*
X84948000Y-117444000D01*
X145989279Y-97384220D02*
X147458783Y-100931917D01*
X147689217Y-96680083D02*
X149158721Y-100227780D01*
X56702721Y-96114220D02*
X55233217Y-99661917D01*
X55002783Y-95410083D02*
X53533279Y-98957780D01*
X108733000Y-151867000D02*
X105643000Y-151867000D01*
X105643170Y-151867000D02*
G75*
G03*
X107188462Y-157417000I1544830J-2560000D01*
G01*
X107187538Y-157417000D02*
G75*
G03*
X108732830Y-151867000I462J2990000D01*
G01*
X109688000Y-154427000D02*
G75*
G03*
X109688000Y-154427000I-2500000J0D01*
G01*
X101092000Y-125279000D02*
X101092000Y-80779000D01*
X83312000Y-125279000D02*
X83312000Y-80829000D01*
X119092000Y-117279000D02*
X83092000Y-117279000D01*
X101092000Y-125279000D02*
X83312000Y-125279000D01*
X118872000Y-80829000D02*
X118872000Y-125279000D01*
X118872000Y-125279000D02*
X101092000Y-125279000D01*
X83312000Y-80829000D02*
X118872000Y-80829000D01*
X117070000Y-121977000D02*
G75*
G03*
X117070000Y-121977000I-1500000J0D01*
G01*
X108592000Y-117279000D02*
G75*
G03*
X108592000Y-117279000I-7500000J0D01*
G01*
X88114000Y-121977000D02*
G75*
G03*
X88114000Y-121977000I-1500000J0D01*
G01*
X59548000Y-118522000D02*
X63388000Y-118522000D01*
X59548000Y-116682000D02*
X63388000Y-116682000D01*
X59548000Y-125888000D02*
X63388000Y-125888000D01*
X59548000Y-124048000D02*
X63388000Y-124048000D01*
X97097888Y-95171000D02*
X97097888Y-96496000D01*
X96296888Y-94967000D02*
X96296888Y-96496000D01*
X97817888Y-98576000D02*
X97817888Y-99437000D01*
X97617888Y-98576000D02*
X97617888Y-99601000D01*
X97457888Y-98576000D02*
X97457888Y-99711000D01*
X98417888Y-96438000D02*
X98417888Y-98634000D01*
X97937888Y-98576000D02*
X97937888Y-99321000D01*
X97897888Y-98576000D02*
X97897888Y-99362000D01*
X97577888Y-95441000D02*
X97577888Y-96496000D01*
X96977888Y-95122000D02*
X96977888Y-96496000D01*
X96937888Y-95108000D02*
X96937888Y-96496000D01*
X96576888Y-98576000D02*
X96576888Y-100064000D01*
X96777888Y-95056000D02*
X96777888Y-96496000D01*
X98257888Y-98576000D02*
X98257888Y-98919000D01*
X97857888Y-98576000D02*
X97857888Y-99400000D01*
X96656888Y-95025000D02*
X96656888Y-96496000D01*
X97817888Y-95635000D02*
X97817888Y-96496000D01*
X96336888Y-98576000D02*
X96336888Y-100101000D01*
X96416888Y-98576000D02*
X96416888Y-100092000D01*
X97497888Y-98576000D02*
X97497888Y-99685000D01*
X97337888Y-95289000D02*
X97337888Y-96496000D01*
X96536888Y-95000000D02*
X96536888Y-96496000D01*
X98297888Y-96217000D02*
X98297888Y-96496000D01*
X98137888Y-98576000D02*
X98137888Y-99090000D01*
X96256888Y-94963000D02*
X96256888Y-100109000D01*
X96977888Y-98576000D02*
X96977888Y-99950000D01*
X97577888Y-98576000D02*
X97577888Y-99631000D01*
X96897888Y-95094000D02*
X96897888Y-96496000D01*
X97257888Y-95246000D02*
X97257888Y-96496000D01*
X97857888Y-95672000D02*
X97857888Y-96496000D01*
X96376888Y-94975000D02*
X96376888Y-96496000D01*
X97177888Y-98576000D02*
X97177888Y-99865000D01*
X97097888Y-98576000D02*
X97097888Y-99901000D01*
X97537888Y-95414000D02*
X97537888Y-96496000D01*
X97777888Y-95599000D02*
X97777888Y-96496000D01*
X98297888Y-98576000D02*
X98297888Y-98855000D01*
X98177888Y-98576000D02*
X98177888Y-99036000D01*
X98617888Y-97018000D02*
X98617888Y-98054000D01*
X98017888Y-98576000D02*
X98017888Y-99235000D01*
X97697888Y-98576000D02*
X97697888Y-99540000D01*
X98017888Y-95837000D02*
X98017888Y-96496000D01*
X97537888Y-98576000D02*
X97537888Y-99658000D01*
X96817888Y-95068000D02*
X96817888Y-96496000D01*
X96576888Y-95008000D02*
X96576888Y-96496000D01*
X97737888Y-95565000D02*
X97737888Y-96496000D01*
X97137888Y-95188000D02*
X97137888Y-96496000D01*
X96456888Y-98576000D02*
X96456888Y-100086000D01*
X98097888Y-95931000D02*
X98097888Y-96496000D01*
X97417888Y-95336000D02*
X97417888Y-96496000D01*
X97777888Y-98576000D02*
X97777888Y-99473000D01*
X97897888Y-95710000D02*
X97897888Y-96496000D01*
X96416888Y-94980000D02*
X96416888Y-96496000D01*
X97217888Y-95226000D02*
X97217888Y-96496000D01*
X96897888Y-98576000D02*
X96897888Y-99978000D01*
X97737888Y-98576000D02*
X97737888Y-99507000D01*
X96777888Y-98576000D02*
X96777888Y-100016000D01*
X96496888Y-94993000D02*
X96496888Y-96496000D01*
X96376888Y-98576000D02*
X96376888Y-100097000D01*
X98097888Y-98576000D02*
X98097888Y-99141000D01*
X96736888Y-98576000D02*
X96736888Y-100027000D01*
X93502113Y-95811000D02*
X93502113Y-96311000D01*
X97017888Y-98576000D02*
X97017888Y-99934000D01*
X97977888Y-98576000D02*
X97977888Y-99279000D01*
X97137888Y-98576000D02*
X97137888Y-99884000D01*
X97217888Y-98576000D02*
X97217888Y-99846000D01*
X93252113Y-96061000D02*
X93752113Y-96061000D01*
X96096888Y-94956000D02*
X96096888Y-100116000D01*
X97297888Y-95268000D02*
X97297888Y-96496000D01*
X96056888Y-94956000D02*
X96056888Y-100116000D01*
X96696888Y-98576000D02*
X96696888Y-100037000D01*
X96857888Y-95081000D02*
X96857888Y-96496000D01*
X98377888Y-96358000D02*
X98377888Y-98714000D01*
X96736888Y-95045000D02*
X96736888Y-96496000D01*
X98337888Y-98576000D02*
X98337888Y-98787000D01*
X98177888Y-96036000D02*
X98177888Y-96496000D01*
X98257888Y-96153000D02*
X98257888Y-96496000D01*
X98057888Y-95883000D02*
X98057888Y-96496000D01*
X98657888Y-97252000D02*
X98657888Y-97820000D01*
X97377888Y-98576000D02*
X97377888Y-99760000D01*
X96937888Y-98576000D02*
X96937888Y-99964000D01*
X97257888Y-98576000D02*
X97257888Y-99826000D01*
X97057888Y-95154000D02*
X97057888Y-96496000D01*
X96616888Y-95016000D02*
X96616888Y-96496000D01*
X97057888Y-98576000D02*
X97057888Y-99918000D01*
X97937888Y-95751000D02*
X97937888Y-96496000D01*
X97297888Y-98576000D02*
X97297888Y-99804000D01*
X96136888Y-94957000D02*
X96136888Y-100115000D01*
X96496888Y-98576000D02*
X96496888Y-100079000D01*
X96817888Y-98576000D02*
X96817888Y-100004000D01*
X98217888Y-98576000D02*
X98217888Y-98979000D01*
X96616888Y-98576000D02*
X96616888Y-100056000D01*
X97697888Y-95532000D02*
X97697888Y-96496000D01*
X97177888Y-95207000D02*
X97177888Y-96496000D01*
X98577888Y-96859000D02*
X98577888Y-98213000D01*
X98137888Y-95982000D02*
X98137888Y-96496000D01*
X96176888Y-94958000D02*
X96176888Y-100114000D01*
X97337888Y-98576000D02*
X97337888Y-99783000D01*
X96857888Y-98576000D02*
X96857888Y-99991000D01*
X97657888Y-95501000D02*
X97657888Y-96496000D01*
X98337888Y-96285000D02*
X98337888Y-96496000D01*
X97377888Y-95312000D02*
X97377888Y-96496000D01*
X98497888Y-96621000D02*
X98497888Y-98451000D01*
X96456888Y-94986000D02*
X96456888Y-96496000D01*
X96336888Y-94971000D02*
X96336888Y-96496000D01*
X98457888Y-96525000D02*
X98457888Y-98547000D01*
X98217888Y-96093000D02*
X98217888Y-96496000D01*
X96536888Y-98576000D02*
X96536888Y-100072000D01*
X96656888Y-98576000D02*
X96656888Y-100047000D01*
X96216888Y-94960000D02*
X96216888Y-100112000D01*
X97417888Y-98576000D02*
X97417888Y-99736000D01*
X98537888Y-96731000D02*
X98537888Y-98341000D01*
X97617888Y-95471000D02*
X97617888Y-96496000D01*
X97657888Y-98576000D02*
X97657888Y-99571000D01*
X97977888Y-95793000D02*
X97977888Y-96496000D01*
X96296888Y-98576000D02*
X96296888Y-100105000D01*
X96696888Y-95035000D02*
X96696888Y-96496000D01*
X97017888Y-95138000D02*
X97017888Y-96496000D01*
X97497888Y-95387000D02*
X97497888Y-96496000D01*
X97457888Y-95361000D02*
X97457888Y-96496000D01*
X98057888Y-98576000D02*
X98057888Y-99189000D01*
X98676888Y-97536000D02*
G75*
G03*
X98676888Y-97536000I-2620000J0D01*
G01*
X137922000Y-116332000D02*
X120142000Y-116332000D01*
X120142000Y-116332000D02*
X120142000Y-131572000D01*
X120142000Y-131572000D02*
X137922000Y-131572000D01*
X137922000Y-131572000D02*
X137922000Y-116332000D01*
X59548000Y-108362000D02*
X63388000Y-108362000D01*
X59548000Y-106522000D02*
X63388000Y-106522000D01*
X119983000Y-115951000D02*
X140303000Y-115951000D01*
X140303000Y-115951000D02*
X140303000Y-99441000D01*
X140303000Y-99441000D02*
X119983000Y-99441000D01*
X119983000Y-99441000D02*
X119983000Y-115951000D01*
X139303000Y-113451000D02*
G75*
G03*
X139303000Y-113451000I-1500000J0D01*
G01*
X123983000Y-113451000D02*
G75*
G03*
X123983000Y-113451000I-1500000J0D01*
G01*
X88788000Y-137002000D02*
X84948000Y-137002000D01*
X88788000Y-138842000D02*
X84948000Y-138842000D01*
X105676000Y-93576000D02*
X105676000Y-94201000D01*
X105676000Y-93576000D02*
X109716000Y-93576000D01*
X105676000Y-95791000D02*
X105676000Y-96416000D01*
X109716000Y-95791000D02*
X109716000Y-96416000D01*
X105676000Y-96416000D02*
X109716000Y-96416000D01*
X109716000Y-93576000D02*
X109716000Y-94201000D01*
X119634000Y-81026000D02*
X137414000Y-81026000D01*
X137414000Y-81026000D02*
X137414000Y-98806000D01*
X137414000Y-98806000D02*
X119634000Y-98806000D01*
X119634000Y-98806000D02*
X119634000Y-81026000D01*
M02*
