G04 #@! TF.GenerationSoftware,KiCad,Pcbnew,(6.0.5)*
G04 #@! TF.CreationDate,2022-07-03T20:58:49+09:00*
G04 #@! TF.ProjectId,main board,6d61696e-2062-46f6-9172-642e6b696361,rev?*
G04 #@! TF.SameCoordinates,Original*
G04 #@! TF.FileFunction,Profile,NP*
%FSLAX46Y46*%
G04 Gerber Fmt 4.6, Leading zero omitted, Abs format (unit mm)*
G04 Created by KiCad (PCBNEW (6.0.5)) date 2022-07-03 20:58:49*
%MOMM*%
%LPD*%
G01*
G04 APERTURE LIST*
G04 #@! TA.AperFunction,Profile*
%ADD10C,0.200000*%
G04 #@! TD*
G04 APERTURE END LIST*
D10*
X68032457Y-71338290D02*
G75*
G03*
X71122492Y-71230448I1455343J2623390D01*
G01*
X61587476Y-79080617D02*
G75*
G03*
X61631491Y-155660768I39504524J-38267383D01*
G01*
X71267379Y-163559330D02*
G75*
G03*
X68119747Y-163494039I-1626779J-2520670D01*
G01*
X137842000Y-160046105D02*
G75*
G03*
X137842000Y-160046105I-1750000J0D01*
G01*
X137842000Y-74836105D02*
G75*
G03*
X137842000Y-74836105I-1750000J0D01*
G01*
X134064230Y-163494078D02*
G75*
G03*
X130916645Y-163559368I-1520830J-2585922D01*
G01*
X71267355Y-163559368D02*
G75*
G03*
X130916645Y-163559368I29824645J46211367D01*
G01*
X62313243Y-158734378D02*
G75*
G03*
X61631491Y-155660768I-2834143J983778D01*
G01*
X139897315Y-76068788D02*
G75*
G03*
X140596524Y-79080617I2853985J-924512D01*
G01*
X67842000Y-160046105D02*
G75*
G03*
X67842000Y-160046105I-1750000J0D01*
G01*
X62313193Y-158734361D02*
G75*
G03*
X68119747Y-163494039I3778807J-1311739D01*
G01*
X61587470Y-79080611D02*
G75*
G03*
X62286677Y-76068791I-2154770J2087311D01*
G01*
X68032455Y-71338295D02*
G75*
G03*
X62286677Y-76068791I-1940455J-3497805D01*
G01*
X131061508Y-71230448D02*
G75*
G03*
X71122492Y-71230448I-29969508J-46117553D01*
G01*
X134064257Y-163494033D02*
G75*
G03*
X139870800Y-158734363I2027743J3447933D01*
G01*
X67842000Y-74836105D02*
G75*
G03*
X67842000Y-74836105I-1750000J0D01*
G01*
X139897317Y-76068789D02*
G75*
G03*
X134151548Y-71338300I-3805317J1232689D01*
G01*
X140552509Y-155660768D02*
G75*
G03*
X140596524Y-79080617I-39460509J38312768D01*
G01*
X140552509Y-155660768D02*
G75*
G03*
X139870800Y-158734363I2152591J-2089832D01*
G01*
X131061502Y-71230457D02*
G75*
G03*
X134151548Y-71338300I1634698J2515557D01*
G01*
M02*
