G04 #@! TF.GenerationSoftware,KiCad,Pcbnew,(6.0.5)*
G04 #@! TF.CreationDate,2022-07-10T22:39:27+09:00*
G04 #@! TF.ProjectId,main board,6d61696e-2062-46f6-9172-642e6b696361,rev?*
G04 #@! TF.SameCoordinates,Original*
G04 #@! TF.FileFunction,Copper,L1,Top*
G04 #@! TF.FilePolarity,Positive*
%FSLAX46Y46*%
G04 Gerber Fmt 4.6, Leading zero omitted, Abs format (unit mm)*
G04 Created by KiCad (PCBNEW (6.0.5)) date 2022-07-10 22:39:27*
%MOMM*%
%LPD*%
G01*
G04 APERTURE LIST*
G04 Aperture macros list*
%AMRoundRect*
0 Rectangle with rounded corners*
0 $1 Rounding radius*
0 $2 $3 $4 $5 $6 $7 $8 $9 X,Y pos of 4 corners*
0 Add a 4 corners polygon primitive as box body*
4,1,4,$2,$3,$4,$5,$6,$7,$8,$9,$2,$3,0*
0 Add four circle primitives for the rounded corners*
1,1,$1+$1,$2,$3*
1,1,$1+$1,$4,$5*
1,1,$1+$1,$6,$7*
1,1,$1+$1,$8,$9*
0 Add four rect primitives between the rounded corners*
20,1,$1+$1,$2,$3,$4,$5,0*
20,1,$1+$1,$4,$5,$6,$7,0*
20,1,$1+$1,$6,$7,$8,$9,0*
20,1,$1+$1,$8,$9,$2,$3,0*%
%AMHorizOval*
0 Thick line with rounded ends*
0 $1 width*
0 $2 $3 position (X,Y) of the first rounded end (center of the circle)*
0 $4 $5 position (X,Y) of the second rounded end (center of the circle)*
0 Add line between two ends*
20,1,$1,$2,$3,$4,$5,0*
0 Add two circle primitives to create the rounded ends*
1,1,$1,$2,$3*
1,1,$1,$4,$5*%
G04 Aperture macros list end*
G04 #@! TA.AperFunction,ComponentPad*
%ADD10C,1.400000*%
G04 #@! TD*
G04 #@! TA.AperFunction,ComponentPad*
%ADD11O,1.400000X1.400000*%
G04 #@! TD*
G04 #@! TA.AperFunction,ComponentPad*
%ADD12C,1.600000*%
G04 #@! TD*
G04 #@! TA.AperFunction,ComponentPad*
%ADD13HorizOval,1.400000X0.000000X0.000000X0.000000X0.000000X0*%
G04 #@! TD*
G04 #@! TA.AperFunction,ComponentPad*
%ADD14C,2.000000*%
G04 #@! TD*
G04 #@! TA.AperFunction,ComponentPad*
%ADD15HorizOval,1.400000X0.000000X0.000000X0.000000X0.000000X0*%
G04 #@! TD*
G04 #@! TA.AperFunction,ComponentPad*
%ADD16R,1.800000X1.800000*%
G04 #@! TD*
G04 #@! TA.AperFunction,ComponentPad*
%ADD17C,1.800000*%
G04 #@! TD*
G04 #@! TA.AperFunction,ComponentPad*
%ADD18R,2.400000X1.600000*%
G04 #@! TD*
G04 #@! TA.AperFunction,ComponentPad*
%ADD19O,2.400000X1.600000*%
G04 #@! TD*
G04 #@! TA.AperFunction,ComponentPad*
%ADD20O,2.200000X2.200000*%
G04 #@! TD*
G04 #@! TA.AperFunction,ComponentPad*
%ADD21R,2.200000X2.200000*%
G04 #@! TD*
G04 #@! TA.AperFunction,ComponentPad*
%ADD22R,1.600000X1.600000*%
G04 #@! TD*
G04 #@! TA.AperFunction,ComponentPad*
%ADD23C,1.524000*%
G04 #@! TD*
G04 #@! TA.AperFunction,ComponentPad*
%ADD24C,1.700000*%
G04 #@! TD*
G04 #@! TA.AperFunction,ComponentPad*
%ADD25HorizOval,1.400000X0.000000X0.000000X0.000000X0.000000X0*%
G04 #@! TD*
G04 #@! TA.AperFunction,ComponentPad*
%ADD26HorizOval,1.400000X0.000000X0.000000X0.000000X0.000000X0*%
G04 #@! TD*
G04 #@! TA.AperFunction,ComponentPad*
%ADD27C,3.000000*%
G04 #@! TD*
G04 #@! TA.AperFunction,ComponentPad*
%ADD28O,1.700000X2.500000*%
G04 #@! TD*
G04 #@! TA.AperFunction,ComponentPad*
%ADD29RoundRect,0.250000X0.600000X0.725000X-0.600000X0.725000X-0.600000X-0.725000X0.600000X-0.725000X0*%
G04 #@! TD*
G04 #@! TA.AperFunction,ComponentPad*
%ADD30O,1.700000X1.950000*%
G04 #@! TD*
G04 #@! TA.AperFunction,ComponentPad*
%ADD31RoundRect,0.250000X0.750000X-0.600000X0.750000X0.600000X-0.750000X0.600000X-0.750000X-0.600000X0*%
G04 #@! TD*
G04 #@! TA.AperFunction,ComponentPad*
%ADD32O,2.000000X1.700000*%
G04 #@! TD*
G04 #@! TA.AperFunction,ComponentPad*
%ADD33RoundRect,0.250000X0.725000X-0.600000X0.725000X0.600000X-0.725000X0.600000X-0.725000X-0.600000X0*%
G04 #@! TD*
G04 #@! TA.AperFunction,ComponentPad*
%ADD34O,1.950000X1.700000*%
G04 #@! TD*
G04 #@! TA.AperFunction,ViaPad*
%ADD35C,0.800000*%
G04 #@! TD*
G04 #@! TA.AperFunction,Conductor*
%ADD36C,0.500000*%
G04 #@! TD*
G04 APERTURE END LIST*
D10*
X143764000Y-108966000D03*
D11*
X143764000Y-114046000D03*
D12*
X106446000Y-89916000D03*
X108946000Y-89916000D03*
D10*
X78933346Y-162349984D03*
D13*
X83626654Y-164294016D03*
D14*
X144054000Y-123646000D03*
X144054000Y-117146000D03*
X148554000Y-123646000D03*
X148554000Y-117146000D03*
D10*
X121980654Y-162857984D03*
D15*
X117287346Y-164802016D03*
D12*
X82157151Y-160811646D03*
X84466850Y-161768355D03*
D10*
X111526000Y-97536000D03*
D11*
X106446000Y-97536000D03*
D10*
X111526000Y-87376000D03*
D11*
X106446000Y-87376000D03*
D16*
X99568000Y-153157000D03*
D17*
X99568000Y-155697000D03*
D11*
X84328000Y-115824000D03*
D10*
X89408000Y-115824000D03*
D16*
X114808000Y-153157000D03*
D17*
X114808000Y-155697000D03*
D18*
X69860000Y-102347000D03*
D19*
X69860000Y-104887000D03*
X69860000Y-107427000D03*
X69860000Y-109967000D03*
X69860000Y-112507000D03*
X69860000Y-115047000D03*
X69860000Y-117587000D03*
X69860000Y-120127000D03*
X69860000Y-122667000D03*
X69860000Y-125207000D03*
X69860000Y-127747000D03*
X69860000Y-130287000D03*
X69860000Y-132827000D03*
X69860000Y-135367000D03*
X77480000Y-135367000D03*
X77480000Y-132827000D03*
X77480000Y-130287000D03*
X77480000Y-127747000D03*
X77480000Y-125207000D03*
X77480000Y-122667000D03*
X77480000Y-120127000D03*
X77480000Y-117587000D03*
X77480000Y-115047000D03*
X77480000Y-112507000D03*
X77480000Y-109967000D03*
X77480000Y-107427000D03*
X77480000Y-104887000D03*
X77480000Y-102347000D03*
D10*
X118557346Y-70401984D03*
D13*
X123250654Y-72346016D03*
D10*
X58928000Y-109982000D03*
D11*
X64008000Y-109982000D03*
D12*
X57179646Y-134735151D03*
X58136355Y-137044850D03*
D10*
X111526000Y-92456000D03*
D11*
X106446000Y-92456000D03*
D20*
X108458000Y-133604000D03*
D21*
X100838000Y-133604000D03*
D22*
X70930888Y-94488000D03*
D12*
X73430888Y-94488000D03*
D10*
X84642654Y-69893984D03*
D15*
X79949346Y-71838016D03*
D12*
X147574000Y-111506000D03*
X147574000Y-114006000D03*
D10*
X89408000Y-127762000D03*
D11*
X84328000Y-127762000D03*
D12*
X144301646Y-97651151D03*
X145258355Y-99960850D03*
D10*
X89408000Y-130302000D03*
D11*
X84328000Y-130302000D03*
D23*
X122523000Y-147066000D03*
X122523000Y-144526000D03*
X122523000Y-141986000D03*
X122523000Y-139446000D03*
X122523000Y-136906000D03*
X122523000Y-134366000D03*
X132683000Y-147066000D03*
X135223000Y-147066000D03*
X132683000Y-134366000D03*
X135223000Y-134366000D03*
D12*
X120904000Y-160528000D03*
X118594301Y-161484709D03*
D10*
X58928000Y-102362000D03*
D11*
X64008000Y-102362000D03*
D10*
X111718340Y-149347000D03*
D11*
X116798340Y-149347000D03*
D10*
X89408000Y-113284000D03*
D11*
X84328000Y-113284000D03*
D12*
X57628354Y-98413151D03*
X56671645Y-100722850D03*
D10*
X88858340Y-149347000D03*
D11*
X93938340Y-149347000D03*
D12*
X106446000Y-100076000D03*
X108946000Y-100076000D03*
D22*
X125794888Y-94488000D03*
D12*
X128294888Y-94488000D03*
D24*
X81280000Y-97536000D03*
X81280000Y-94996000D03*
X81280000Y-92456000D03*
X81280000Y-89916000D03*
X81280000Y-87376000D03*
X81280000Y-84836000D03*
X81280000Y-82296000D03*
X66040000Y-82296000D03*
X66040000Y-84836000D03*
X66040000Y-87376000D03*
X66040000Y-89916000D03*
X66040000Y-92456000D03*
X66040000Y-94996000D03*
X66040000Y-97536000D03*
D23*
X71120000Y-149828000D03*
X73660000Y-149828000D03*
X76200000Y-149828000D03*
D10*
X89408000Y-110744000D03*
D11*
X84328000Y-110744000D03*
D12*
X117717151Y-72927646D03*
X120026850Y-73884355D03*
D16*
X91948000Y-153157000D03*
D17*
X91948000Y-155697000D03*
D10*
X53637984Y-133543346D03*
D25*
X55582016Y-138236654D03*
D10*
X58928000Y-127508000D03*
D11*
X64008000Y-127508000D03*
D10*
X104098340Y-149347000D03*
D11*
X109178340Y-149347000D03*
D10*
X89408000Y-108204000D03*
D11*
X84328000Y-108204000D03*
D22*
X82296000Y-122746888D03*
D12*
X82296000Y-125246888D03*
D10*
X89408000Y-135382000D03*
D11*
X84328000Y-135382000D03*
D12*
X145492127Y-133964978D03*
X144575874Y-136291022D03*
D10*
X58928000Y-104902000D03*
D11*
X64008000Y-104902000D03*
D14*
X80554000Y-156158000D03*
X80554000Y-149658000D03*
X85054000Y-156158000D03*
X85054000Y-149658000D03*
D10*
X96478340Y-149347000D03*
D11*
X101558340Y-149347000D03*
D12*
X83450850Y-73435646D03*
X81141151Y-74392355D03*
D10*
X148038016Y-134813346D03*
D26*
X146093984Y-139506654D03*
D10*
X58928000Y-112522000D03*
D11*
X64008000Y-112522000D03*
D10*
X58928000Y-115062000D03*
D11*
X64008000Y-115062000D03*
D10*
X89408000Y-118364000D03*
D11*
X84328000Y-118364000D03*
D10*
X146601984Y-96459346D03*
D25*
X148546016Y-101152654D03*
D10*
X56090016Y-95189346D03*
D26*
X54145984Y-99882654D03*
D16*
X107188000Y-153157000D03*
D17*
X107188000Y-155697000D03*
D27*
X115570000Y-121977000D03*
X86614000Y-121977000D03*
D24*
X85092000Y-82480000D03*
X85092000Y-85020000D03*
X85092000Y-87560000D03*
X85092000Y-90100000D03*
X85092000Y-92640000D03*
X85092000Y-95180000D03*
X85092000Y-97720000D03*
X85092000Y-100260000D03*
X117092000Y-100260000D03*
X117092000Y-97720000D03*
X117092000Y-95180000D03*
X117092000Y-92640000D03*
X117092000Y-90100000D03*
X117092000Y-87560000D03*
X117092000Y-85020000D03*
X117092000Y-82480000D03*
D10*
X58928000Y-117602000D03*
D11*
X64008000Y-117602000D03*
D10*
X58928000Y-124968000D03*
D11*
X64008000Y-124968000D03*
D22*
X94806888Y-97536000D03*
D12*
X97306888Y-97536000D03*
D24*
X122682000Y-118872000D03*
X125222000Y-118872000D03*
X127762000Y-118872000D03*
X130302000Y-118872000D03*
X132842000Y-118872000D03*
X135382000Y-118872000D03*
X135382000Y-129032000D03*
X132842000Y-129032000D03*
X130302000Y-129032000D03*
X127762000Y-129032000D03*
X125222000Y-129032000D03*
X122682000Y-129032000D03*
D10*
X58928000Y-107442000D03*
D11*
X64008000Y-107442000D03*
D27*
X137803000Y-113451000D03*
X122483000Y-113451000D03*
D28*
X121253000Y-100711000D03*
X123793000Y-100711000D03*
X126333000Y-100711000D03*
X128873000Y-100711000D03*
X131413000Y-100711000D03*
X133953000Y-100711000D03*
X136493000Y-100711000D03*
X139033000Y-100711000D03*
D10*
X89408000Y-137922000D03*
D11*
X84328000Y-137922000D03*
D12*
X106446000Y-94996000D03*
X108946000Y-94996000D03*
D24*
X136144000Y-97536000D03*
X136144000Y-94996000D03*
X136144000Y-92456000D03*
X136144000Y-89916000D03*
X136144000Y-87376000D03*
X136144000Y-84836000D03*
X136144000Y-82296000D03*
X120904000Y-82296000D03*
X120904000Y-84836000D03*
X120904000Y-87376000D03*
X120904000Y-89916000D03*
X120904000Y-92456000D03*
X120904000Y-94996000D03*
X120904000Y-97536000D03*
D23*
X150777938Y-100075182D03*
X149805922Y-97728528D03*
X148833906Y-95381874D03*
X148405301Y-140296661D03*
X149377317Y-137950007D03*
X150349333Y-135603353D03*
X78065234Y-164687196D03*
X80411888Y-165659212D03*
X82758542Y-166631228D03*
X53674699Y-94347129D03*
X52702683Y-96693783D03*
X51730667Y-99040437D03*
D29*
X93392000Y-143239000D03*
D30*
X90892000Y-143239000D03*
X88392000Y-143239000D03*
X85892000Y-143239000D03*
X83392000Y-143239000D03*
D23*
X118286713Y-167059834D03*
X120633367Y-166087818D03*
X122980021Y-165115802D03*
X124014766Y-69956594D03*
X121668112Y-68984578D03*
X119321458Y-68012562D03*
X83793287Y-67583956D03*
X81446633Y-68555972D03*
X79099979Y-69527988D03*
D29*
X107382000Y-143239000D03*
D30*
X104882000Y-143239000D03*
X102382000Y-143239000D03*
X99882000Y-143239000D03*
D31*
X115316000Y-136144000D03*
D32*
X115316000Y-133644000D03*
D23*
X51248980Y-134590595D03*
X52220996Y-136937249D03*
X53193012Y-139283903D03*
D33*
X53865000Y-122622000D03*
D34*
X53865000Y-120122000D03*
X53865000Y-117622000D03*
X53865000Y-115122000D03*
D35*
X145288000Y-104648000D03*
X89408000Y-121666000D03*
X93218000Y-113030000D03*
X104140000Y-102409011D03*
X91948000Y-104918497D03*
X72136000Y-105918000D03*
X91948000Y-105918000D03*
X132080000Y-95758000D03*
X88392000Y-78740000D03*
X114808000Y-78994000D03*
X87376000Y-75184000D03*
X77636500Y-147320000D03*
X95758000Y-154006500D03*
X88566677Y-157813323D03*
X62738000Y-129794000D03*
X73939020Y-128778000D03*
X73939020Y-117856000D03*
X129032000Y-107188000D03*
X139446000Y-107188000D03*
X118364000Y-146304000D03*
X120396000Y-124714000D03*
X142240000Y-104394000D03*
X79979020Y-136231500D03*
X79129520Y-137414000D03*
X79129520Y-141105520D03*
X72390000Y-136906000D03*
X91741500Y-110236000D03*
X75184000Y-97790000D03*
X75184000Y-102362000D03*
X75184000Y-130048000D03*
X75692000Y-85598000D03*
X88392000Y-80264000D03*
X86868000Y-107026980D03*
X86868000Y-119107979D03*
X124460000Y-130810000D03*
X121412000Y-132080000D03*
X92456000Y-126746000D03*
X93980000Y-109728000D03*
X119634000Y-154178000D03*
X118364000Y-150876000D03*
X97028000Y-143814020D03*
X118110000Y-147574000D03*
X96520000Y-130810000D03*
X91741500Y-140208000D03*
X97028000Y-147320000D03*
X94234000Y-141224000D03*
D36*
X119696480Y-130364480D02*
X121412000Y-132080000D01*
X86240965Y-124460000D02*
X117918480Y-124460000D01*
X117918480Y-124460000D02*
X119696480Y-126238000D01*
X84594479Y-122813514D02*
X86240965Y-124460000D01*
X86124021Y-119107979D02*
X84594479Y-120637521D01*
X84594479Y-120637521D02*
X84594479Y-122813514D01*
X86868000Y-119107979D02*
X86124021Y-119107979D01*
X119696480Y-126238000D02*
X119696480Y-130364480D01*
X79248000Y-91948000D02*
X81280000Y-89916000D01*
X86868000Y-106680000D02*
X79248000Y-99060000D01*
X79248000Y-99060000D02*
X79248000Y-91948000D01*
X86868000Y-107026980D02*
X86868000Y-106680000D01*
X112867851Y-152914917D02*
X112867851Y-148870856D01*
X90642249Y-158687519D02*
X107095248Y-158687520D01*
X107095248Y-158687520D02*
X112867851Y-152914917D01*
X76200000Y-149828000D02*
X80077751Y-153705751D01*
X80077751Y-153705751D02*
X85660481Y-153705751D01*
X112867851Y-148870856D02*
X108776995Y-144780000D01*
X125794888Y-94488000D02*
X123952000Y-94488000D01*
X123952000Y-94488000D02*
X120904000Y-97536000D01*
X103923000Y-144780000D02*
X102382000Y-143239000D01*
X108776995Y-144780000D02*
X103923000Y-144780000D01*
X85660481Y-153705751D02*
X90642249Y-158687519D01*
X144678345Y-111506000D02*
X147574000Y-111506000D01*
X142614489Y-109442144D02*
X144678345Y-111506000D01*
X142614489Y-107321511D02*
X142614489Y-109442144D01*
X145288000Y-104648000D02*
X142614489Y-107321511D01*
X89408000Y-121666000D02*
X93218000Y-117856000D01*
X106446000Y-87376000D02*
X106446000Y-89916000D01*
X93218000Y-117856000D02*
X93218000Y-113030000D01*
X104140000Y-92222000D02*
X106446000Y-89916000D01*
X104140000Y-102409011D02*
X104140000Y-92222000D01*
X105156000Y-103378000D02*
X103615503Y-104918497D01*
X106446000Y-94996000D02*
X105156000Y-96286000D01*
X72136000Y-110231000D02*
X69860000Y-112507000D01*
X103615503Y-104918497D02*
X91948000Y-104918497D01*
X105156000Y-96286000D02*
X105156000Y-103378000D01*
X106446000Y-92456000D02*
X106446000Y-94996000D01*
X72136000Y-105918000D02*
X72136000Y-110231000D01*
X106446000Y-103866000D02*
X105156000Y-105156000D01*
X106446000Y-97536000D02*
X106446000Y-100076000D01*
X104394000Y-105918000D02*
X91948000Y-105918000D01*
X106446000Y-100076000D02*
X106446000Y-103866000D01*
X105156000Y-105156000D02*
X104394000Y-105918000D01*
X150003511Y-112168435D02*
X150003511Y-119746408D01*
X146801076Y-108966000D02*
X150003511Y-112168435D01*
X138566115Y-133154489D02*
X134424489Y-133154489D01*
X150349333Y-135603353D02*
X150349333Y-132823333D01*
X132080000Y-95758000D02*
X128778000Y-92456000D01*
X138234489Y-131515430D02*
X138234489Y-133154489D01*
X150003511Y-119746408D02*
X138234489Y-131515430D01*
X139386604Y-132334000D02*
X138566115Y-133154489D01*
X150349333Y-132823333D02*
X149860000Y-132334000D01*
X134424489Y-133154489D02*
X130302000Y-129032000D01*
X143764000Y-108966000D02*
X146801076Y-108966000D01*
X128778000Y-92456000D02*
X120904000Y-92456000D01*
X149860000Y-132334000D02*
X139386604Y-132334000D01*
X54977548Y-136937249D02*
X57179646Y-134735151D01*
X117092000Y-100260000D02*
X119604489Y-97747511D01*
X88518543Y-125246888D02*
X99415655Y-136144000D01*
X57179646Y-134735151D02*
X57179646Y-122081508D01*
X147718332Y-136291022D02*
X149377317Y-137950007D01*
X120026850Y-70625840D02*
X121668112Y-68984578D01*
X147573600Y-99960850D02*
X149805922Y-97728528D01*
X82296000Y-125246888D02*
X88518543Y-125246888D01*
X82157151Y-160811646D02*
X82157151Y-163913949D01*
X88392000Y-76200000D02*
X87376000Y-75184000D01*
X81446633Y-68555972D02*
X81446633Y-71431429D01*
X57628354Y-98413151D02*
X54422051Y-98413151D01*
X82157151Y-163913949D02*
X80411888Y-165659212D01*
X52220996Y-136937249D02*
X54977548Y-136937249D01*
X120026850Y-73884355D02*
X120026850Y-70625840D01*
X57179646Y-122081508D02*
X57752077Y-121509077D01*
X81446633Y-71431429D02*
X83450850Y-73435646D01*
X88392000Y-78740000D02*
X88392000Y-76200000D01*
X144575874Y-136291022D02*
X147718332Y-136291022D01*
X54422051Y-98413151D02*
X52702683Y-96693783D01*
X118594301Y-161484709D02*
X118594301Y-164048752D01*
X118594301Y-164048752D02*
X120633367Y-166087818D01*
X119604489Y-97747511D02*
X119604489Y-96295511D01*
X145258355Y-99960850D02*
X147573600Y-99960850D01*
X114917205Y-78994000D02*
X120026850Y-73884355D01*
X99415655Y-136144000D02*
X115316000Y-136144000D01*
X114808000Y-78994000D02*
X114917205Y-78994000D01*
X57752077Y-121509077D02*
X53865000Y-117622000D01*
X119604489Y-96295511D02*
X120904000Y-94996000D01*
X93938340Y-153706660D02*
X93938340Y-149347000D01*
X91948000Y-155697000D02*
X93938340Y-153706660D01*
X101558340Y-153706660D02*
X101558340Y-149347000D01*
X99568000Y-155697000D02*
X101558340Y-153706660D01*
X109178340Y-153706660D02*
X109178340Y-149347000D01*
X107188000Y-155697000D02*
X109178340Y-153706660D01*
X114808000Y-155697000D02*
X116798340Y-153706660D01*
X116798340Y-153706660D02*
X116798340Y-149347000D01*
X94996000Y-140716000D02*
X95131371Y-140716000D01*
X92902000Y-138622000D02*
X94996000Y-140716000D01*
X103886000Y-141478000D02*
X104882000Y-142474000D01*
X95893371Y-141478000D02*
X103886000Y-141478000D01*
X95131371Y-140716000D02*
X95893371Y-141478000D01*
X104882000Y-142474000D02*
X104882000Y-143239000D01*
X90108000Y-138622000D02*
X92902000Y-138622000D01*
X89408000Y-137922000D02*
X90108000Y-138622000D01*
X85370731Y-154405271D02*
X88566677Y-157601217D01*
X99882000Y-147568995D02*
X99882000Y-143239000D01*
X85803991Y-152982739D02*
X85780499Y-153006231D01*
X75698175Y-148616489D02*
X74988489Y-149326175D01*
X74988489Y-149326175D02*
X74988489Y-150329825D01*
X79063935Y-154405271D02*
X85370731Y-154405271D01*
X88566677Y-157601217D02*
X88566677Y-157813323D01*
X95758000Y-154006500D02*
X95758000Y-151692995D01*
X77636500Y-147320000D02*
X80666081Y-147320000D01*
X85803991Y-152457910D02*
X85803991Y-152982739D01*
X60452000Y-127508000D02*
X62738000Y-129794000D01*
X85780499Y-153006231D02*
X81091567Y-153006231D01*
X74988489Y-150329825D02*
X79063935Y-154405271D01*
X80666081Y-147320000D02*
X85803991Y-152457910D01*
X58928000Y-127508000D02*
X60452000Y-127508000D01*
X95758000Y-151692995D02*
X99882000Y-147568995D01*
X81091567Y-153006231D02*
X76701825Y-148616489D01*
X76701825Y-148616489D02*
X75698175Y-148616489D01*
X73939020Y-128778000D02*
X73939020Y-117856000D01*
X120396000Y-129794000D02*
X120396000Y-124714000D01*
X142240000Y-104394000D02*
X142240000Y-95758000D01*
X129032000Y-107188000D02*
X139446000Y-107188000D01*
X138938000Y-92456000D02*
X136144000Y-92456000D01*
X121158000Y-149098000D02*
X122326228Y-149098000D01*
X142240000Y-95758000D02*
X138938000Y-92456000D01*
X122326228Y-149098000D02*
X124473365Y-146950863D01*
X118364000Y-146304000D02*
X121158000Y-149098000D01*
X124473365Y-146950863D02*
X124473365Y-133871365D01*
X124473365Y-133871365D02*
X120396000Y-129794000D01*
X85892000Y-143239000D02*
X80916511Y-138263511D01*
X78209423Y-138263511D02*
X73089520Y-133143608D01*
X73089520Y-133143608D02*
X73089520Y-105576520D01*
X80916511Y-138263511D02*
X78209423Y-138263511D01*
X73089520Y-105576520D02*
X69860000Y-102347000D01*
X79756000Y-139954000D02*
X78232000Y-139954000D01*
X83041000Y-143239000D02*
X79756000Y-139954000D01*
X83392000Y-143239000D02*
X83041000Y-143239000D01*
X69860000Y-115047000D02*
X72327519Y-117514519D01*
X78232000Y-139954000D02*
X72327519Y-134049519D01*
X72327519Y-134049519D02*
X72327519Y-117514519D01*
X111526000Y-87376000D02*
X114250000Y-90100000D01*
X114250000Y-90100000D02*
X117092000Y-90100000D01*
X116908000Y-92456000D02*
X117092000Y-92640000D01*
X111526000Y-92456000D02*
X116908000Y-92456000D01*
X114736000Y-97536000D02*
X117092000Y-95180000D01*
X111526000Y-97536000D02*
X114736000Y-97536000D01*
X124714000Y-118872000D02*
X116927511Y-111085511D01*
X89709260Y-109419605D02*
X82350395Y-109419605D01*
X80064395Y-107133605D02*
X80064395Y-101775037D01*
X125222000Y-118872000D02*
X124714000Y-118872000D01*
X80064395Y-101775037D02*
X78687327Y-100397969D01*
X67510969Y-100807739D02*
X67510969Y-105077969D01*
X82350395Y-109419605D02*
X80064395Y-107133605D01*
X67920739Y-100397969D02*
X67510969Y-100807739D01*
X91375166Y-111085511D02*
X89709260Y-109419605D01*
X78687327Y-100397969D02*
X67920739Y-100397969D01*
X67510969Y-105077969D02*
X69860000Y-107427000D01*
X116927511Y-111085511D02*
X91375166Y-111085511D01*
X78397577Y-101097489D02*
X68210489Y-101097489D01*
X115944489Y-112134489D02*
X84076009Y-112134489D01*
X68210489Y-103770489D02*
X69327000Y-104887000D01*
X68210489Y-101097489D02*
X68210489Y-103770489D01*
X69327000Y-104887000D02*
X69860000Y-104887000D01*
X122682000Y-118872000D02*
X115944489Y-112134489D01*
X84076009Y-112134489D02*
X79248000Y-107306480D01*
X79248000Y-107306480D02*
X79248000Y-101947912D01*
X79248000Y-101947912D02*
X78397577Y-101097489D01*
X79979020Y-136231500D02*
X79979020Y-112838932D01*
X79979020Y-112838932D02*
X77480000Y-110339912D01*
X77480000Y-110339912D02*
X77480000Y-109967000D01*
X82433520Y-144663520D02*
X79129520Y-141359520D01*
X79129520Y-137414000D02*
X79129520Y-121776520D01*
X96478340Y-149347000D02*
X91794860Y-144663520D01*
X91794860Y-144663520D02*
X82433520Y-144663520D01*
X79129520Y-121776520D02*
X77480000Y-120127000D01*
X91260511Y-157046511D02*
X87376000Y-153162000D01*
X100126987Y-157046511D02*
X91260511Y-157046511D01*
X71628000Y-126975000D02*
X69860000Y-125207000D01*
X82322730Y-145542000D02*
X71628000Y-134847270D01*
X71628000Y-134847270D02*
X71628000Y-126975000D01*
X87376000Y-153162000D02*
X87376000Y-145542000D01*
X104098340Y-153075158D02*
X100126987Y-157046511D01*
X104098340Y-149347000D02*
X104098340Y-153075158D01*
X87376000Y-145542000D02*
X82322730Y-145542000D01*
X86614000Y-146304000D02*
X81788000Y-146304000D01*
X111718340Y-153075158D02*
X106805498Y-157988000D01*
X86360000Y-153416000D02*
X86503511Y-153272489D01*
X106805498Y-157988000D02*
X90932000Y-157988000D01*
X86503511Y-146414489D02*
X86614000Y-146304000D01*
X86503511Y-153272489D02*
X86503511Y-146414489D01*
X111718340Y-149347000D02*
X111718340Y-153075158D01*
X90932000Y-157988000D02*
X86360000Y-153416000D01*
X81788000Y-146304000D02*
X72390000Y-136906000D01*
X97282000Y-139446000D02*
X84328000Y-128676345D01*
X84328000Y-128676345D02*
X84328000Y-127762000D01*
X122523000Y-139446000D02*
X97282000Y-139446000D01*
X123024825Y-140657511D02*
X96520000Y-140716000D01*
X84328000Y-131927655D02*
X84328000Y-130302000D01*
X122523000Y-136906000D02*
X123734511Y-138117511D01*
X88931856Y-136531511D02*
X84328000Y-131927655D01*
X123734511Y-139947825D02*
X123024825Y-140657511D01*
X123734511Y-138117511D02*
X123734511Y-139947825D01*
X96520000Y-140716000D02*
X91694000Y-136652000D01*
X91694000Y-136652000D02*
X88931856Y-136531511D01*
X127000000Y-135128000D02*
X123952000Y-132080000D01*
X136681511Y-118333724D02*
X134425787Y-116078000D01*
X121382489Y-129570276D02*
X121382489Y-122711511D01*
X110376489Y-86718435D02*
X114614924Y-82480000D01*
X110376489Y-98184489D02*
X110376489Y-86718435D01*
X127000000Y-145413498D02*
X127000000Y-135128000D01*
X128270000Y-116078000D02*
X110376489Y-98184489D01*
X80554000Y-156158000D02*
X83783040Y-159387040D01*
X123952000Y-132080000D02*
X123892213Y-132080000D01*
X123892213Y-132080000D02*
X121382489Y-129570276D01*
X121382489Y-122711511D02*
X122428000Y-121666000D01*
X134425787Y-121666000D02*
X136681511Y-119410276D01*
X134425787Y-116078000D02*
X128270000Y-116078000D01*
X122428000Y-121666000D02*
X134425787Y-121666000D01*
X83783040Y-159387040D02*
X113026458Y-159387040D01*
X113026458Y-159387040D02*
X127000000Y-145413498D01*
X114614924Y-82480000D02*
X117092000Y-82480000D01*
X136681511Y-119410276D02*
X136681511Y-118333724D01*
X126746000Y-127508000D02*
X140716000Y-127508000D01*
X140716000Y-127508000D02*
X140716000Y-97536000D01*
X125222000Y-129032000D02*
X126746000Y-127508000D01*
X140716000Y-97536000D02*
X136144000Y-97536000D01*
X91741500Y-108911845D02*
X81280000Y-98450345D01*
X91741500Y-110236000D02*
X91741500Y-108911845D01*
X81280000Y-98450345D02*
X81280000Y-97536000D01*
X126333000Y-100711000D02*
X130436489Y-96607511D01*
X133604000Y-95504000D02*
X133604000Y-87630000D01*
X132431880Y-96607511D02*
X133604000Y-95504000D01*
X130436489Y-96607511D02*
X132431880Y-96607511D01*
X133604000Y-87630000D02*
X136144000Y-84836000D01*
X128873000Y-100711000D02*
X130572520Y-99011480D01*
X130572520Y-99011480D02*
X131366520Y-99011480D01*
X131366520Y-99011480D02*
X134620000Y-95758000D01*
X134620000Y-88900000D02*
X136144000Y-87376000D01*
X134620000Y-95758000D02*
X134620000Y-88900000D01*
X75184000Y-130048000D02*
X75184000Y-102362000D01*
X75184000Y-97790000D02*
X75184000Y-90932000D01*
X75184000Y-90932000D02*
X81280000Y-84836000D01*
X58136355Y-137044850D02*
X58136355Y-135665645D01*
X80772000Y-82296000D02*
X81280000Y-82296000D01*
X55582016Y-138236654D02*
X56944551Y-138236654D01*
X58136355Y-135665645D02*
X66802000Y-127000000D01*
X69681377Y-95926623D02*
X69681377Y-93386623D01*
X56944551Y-138236654D02*
X58136355Y-137044850D01*
X66802000Y-127000000D02*
X66802000Y-98806000D01*
X66802000Y-98806000D02*
X69681377Y-95926623D01*
X69681377Y-93386623D02*
X80772000Y-82296000D01*
X54145984Y-99882654D02*
X55831449Y-99882654D01*
X58877865Y-89458135D02*
X58877865Y-99364135D01*
X57519150Y-100722850D02*
X56671645Y-100722850D01*
X66040000Y-82296000D02*
X58877865Y-89458135D01*
X58877865Y-99364135D02*
X57519150Y-100722850D01*
X55831449Y-99882654D02*
X56671645Y-100722850D01*
X79277645Y-74392355D02*
X81141151Y-74392355D01*
X79949346Y-71838016D02*
X79949346Y-73200550D01*
X79949346Y-73200550D02*
X81141151Y-74392355D01*
X68834000Y-84836000D02*
X79277645Y-74392355D01*
X68834000Y-84836000D02*
X66040000Y-84836000D01*
X87376000Y-72898000D02*
X75692000Y-85598000D01*
X89360896Y-72927646D02*
X87376000Y-72898000D01*
X117717151Y-71242179D02*
X118557346Y-70401984D01*
X117717151Y-72927646D02*
X117717151Y-71242179D01*
X117717151Y-72927646D02*
X89360896Y-72927646D01*
X145410179Y-97651151D02*
X146601984Y-96459346D01*
X144301646Y-97651151D02*
X145410179Y-97651151D01*
X139135376Y-83449589D02*
X139135376Y-91664106D01*
X144301646Y-97651151D02*
X144301646Y-96830376D01*
X144301646Y-96830376D02*
X139135376Y-91664106D01*
X88392000Y-80264000D02*
X135949787Y-80264000D01*
X135949787Y-80264000D02*
X139135376Y-83449589D01*
X130810000Y-136906000D02*
X141478000Y-136906000D01*
X141478000Y-136906000D02*
X145492127Y-133964978D01*
X145492127Y-133964978D02*
X147189648Y-133964978D01*
X124460000Y-130810000D02*
X130810000Y-136906000D01*
X147189648Y-133964978D02*
X148038016Y-134813346D01*
X92456000Y-126746000D02*
X96520000Y-130810000D01*
X86391511Y-102139511D02*
X93980000Y-109728000D01*
X86391511Y-81941724D02*
X86391511Y-102139511D01*
X81280000Y-87376000D02*
X83792489Y-84863511D01*
X118364000Y-150876000D02*
X118364000Y-147828000D01*
X121980654Y-162857984D02*
X121980654Y-161604654D01*
X119634000Y-154178000D02*
X120650000Y-156718000D01*
X94234000Y-141357031D02*
X93218000Y-140208000D01*
X85630276Y-81180489D02*
X86391511Y-81941724D01*
X83792489Y-81941724D02*
X84553724Y-81180489D01*
X94234000Y-141357031D02*
X94234000Y-141224000D01*
X97028000Y-143814020D02*
X97028000Y-147320000D01*
X120904000Y-157282874D02*
X120904000Y-160528000D01*
X83792489Y-84863511D02*
X83792489Y-81941724D01*
X121980654Y-161604654D02*
X120904000Y-160528000D01*
X118364000Y-147828000D02*
X118110000Y-147574000D01*
X84553724Y-81180489D02*
X85630276Y-81180489D01*
X120650000Y-156718000D02*
X120904000Y-157282874D01*
X93218000Y-140208000D02*
X91741500Y-140208000D01*
X51248980Y-134590595D02*
X52590735Y-134590595D01*
X52590735Y-134590595D02*
X53637984Y-133543346D01*
X55247799Y-94347129D02*
X56090016Y-95189346D01*
X53674699Y-94347129D02*
X55247799Y-94347129D01*
X83793287Y-69044617D02*
X84642654Y-69893984D01*
X83793287Y-67583956D02*
X83793287Y-69044617D01*
X123250654Y-70720706D02*
X124014766Y-69956594D01*
X123250654Y-72346016D02*
X123250654Y-70720706D01*
X148546016Y-101152654D02*
X149700466Y-101152654D01*
X149700466Y-101152654D02*
X150777938Y-100075182D01*
X147615294Y-139506654D02*
X148405301Y-140296661D01*
X146093984Y-139506654D02*
X147615294Y-139506654D01*
X118286713Y-165801383D02*
X117287346Y-164802016D01*
X118286713Y-167059834D02*
X118286713Y-165801383D01*
M02*
