G04 #@! TF.GenerationSoftware,KiCad,Pcbnew,(6.0.5)*
G04 #@! TF.CreationDate,2022-07-03T20:58:49+09:00*
G04 #@! TF.ProjectId,main board,6d61696e-2062-46f6-9172-642e6b696361,rev?*
G04 #@! TF.SameCoordinates,Original*
G04 #@! TF.FileFunction,Soldermask,Top*
G04 #@! TF.FilePolarity,Negative*
%FSLAX46Y46*%
G04 Gerber Fmt 4.6, Leading zero omitted, Abs format (unit mm)*
G04 Created by KiCad (PCBNEW (6.0.5)) date 2022-07-03 20:58:49*
%MOMM*%
%LPD*%
G01*
G04 APERTURE LIST*
G04 Aperture macros list*
%AMRoundRect*
0 Rectangle with rounded corners*
0 $1 Rounding radius*
0 $2 $3 $4 $5 $6 $7 $8 $9 X,Y pos of 4 corners*
0 Add a 4 corners polygon primitive as box body*
4,1,4,$2,$3,$4,$5,$6,$7,$8,$9,$2,$3,0*
0 Add four circle primitives for the rounded corners*
1,1,$1+$1,$2,$3*
1,1,$1+$1,$4,$5*
1,1,$1+$1,$6,$7*
1,1,$1+$1,$8,$9*
0 Add four rect primitives between the rounded corners*
20,1,$1+$1,$2,$3,$4,$5,0*
20,1,$1+$1,$4,$5,$6,$7,0*
20,1,$1+$1,$6,$7,$8,$9,0*
20,1,$1+$1,$8,$9,$2,$3,0*%
%AMHorizOval*
0 Thick line with rounded ends*
0 $1 width*
0 $2 $3 position (X,Y) of the first rounded end (center of the circle)*
0 $4 $5 position (X,Y) of the second rounded end (center of the circle)*
0 Add line between two ends*
20,1,$1,$2,$3,$4,$5,0*
0 Add two circle primitives to create the rounded ends*
1,1,$1,$2,$3*
1,1,$1,$4,$5*%
G04 Aperture macros list end*
%ADD10C,1.400000*%
%ADD11O,1.400000X1.400000*%
%ADD12C,1.600000*%
%ADD13HorizOval,1.400000X0.000000X0.000000X0.000000X0.000000X0*%
%ADD14HorizOval,1.400000X0.000000X0.000000X0.000000X0.000000X0*%
%ADD15HorizOval,1.400000X0.000000X0.000000X0.000000X0.000000X0*%
%ADD16C,2.000000*%
%ADD17R,1.800000X1.800000*%
%ADD18C,1.800000*%
%ADD19R,2.400000X1.600000*%
%ADD20O,2.400000X1.600000*%
%ADD21HorizOval,1.400000X0.000000X0.000000X0.000000X0.000000X0*%
%ADD22R,2.200000X2.200000*%
%ADD23O,2.200000X2.200000*%
%ADD24R,1.600000X1.600000*%
%ADD25C,1.524000*%
%ADD26C,1.700000*%
%ADD27C,3.000000*%
%ADD28O,1.700000X2.500000*%
%ADD29RoundRect,0.250000X0.600000X0.725000X-0.600000X0.725000X-0.600000X-0.725000X0.600000X-0.725000X0*%
%ADD30O,1.700000X1.950000*%
%ADD31RoundRect,0.250000X0.750000X-0.600000X0.750000X0.600000X-0.750000X0.600000X-0.750000X-0.600000X0*%
%ADD32O,2.000000X1.700000*%
%ADD33RoundRect,0.250000X0.725000X-0.600000X0.725000X0.600000X-0.725000X0.600000X-0.725000X-0.600000X0*%
%ADD34O,1.950000X1.700000*%
G04 APERTURE END LIST*
D10*
X143764000Y-108966000D03*
D11*
X143764000Y-114046000D03*
D12*
X106446000Y-89916000D03*
X108946000Y-89916000D03*
D10*
X54077321Y-100012453D03*
D13*
X56021353Y-95319145D03*
D10*
X55592747Y-138289900D03*
D14*
X53648715Y-133596592D03*
D10*
X117314697Y-164713180D03*
D15*
X122008005Y-162769148D03*
D12*
X119724080Y-73677886D03*
X122033779Y-74634595D03*
D16*
X144054000Y-123646000D03*
X144054000Y-117146000D03*
X148554000Y-123646000D03*
X148554000Y-117146000D03*
D10*
X111526000Y-97536000D03*
D11*
X106446000Y-97536000D03*
D10*
X111526000Y-87376000D03*
D11*
X106446000Y-87376000D03*
D17*
X99568000Y-153157000D03*
D18*
X99568000Y-155697000D03*
D10*
X89408000Y-115824000D03*
D11*
X84328000Y-115824000D03*
D10*
X148431285Y-101047198D03*
D14*
X146487253Y-96353890D03*
D17*
X114808000Y-153157000D03*
D18*
X114808000Y-155697000D03*
D19*
X69860000Y-102347000D03*
D20*
X69860000Y-104887000D03*
X69860000Y-107427000D03*
X69860000Y-109967000D03*
X69860000Y-112507000D03*
X69860000Y-115047000D03*
X69860000Y-117587000D03*
X69860000Y-120127000D03*
X69860000Y-122667000D03*
X69860000Y-125207000D03*
X69860000Y-127747000D03*
X69860000Y-130287000D03*
X69860000Y-132827000D03*
X69860000Y-135367000D03*
X77480000Y-135367000D03*
X77480000Y-132827000D03*
X77480000Y-130287000D03*
X77480000Y-127747000D03*
X77480000Y-125207000D03*
X77480000Y-122667000D03*
X77480000Y-120127000D03*
X77480000Y-117587000D03*
X77480000Y-115047000D03*
X77480000Y-112507000D03*
X77480000Y-109967000D03*
X77480000Y-107427000D03*
X77480000Y-104887000D03*
X77480000Y-102347000D03*
D10*
X58928000Y-109982000D03*
D11*
X64008000Y-109982000D03*
D10*
X123042750Y-72303247D03*
D21*
X118349442Y-70359215D03*
D10*
X111526000Y-92456000D03*
D11*
X106446000Y-92456000D03*
D22*
X100838000Y-133604000D03*
D23*
X108458000Y-133604000D03*
D12*
X145112615Y-99672560D03*
X146069324Y-101982259D03*
D24*
X70930888Y-94488000D03*
D12*
X73430888Y-94488000D03*
X147574000Y-111506000D03*
X147574000Y-114006000D03*
D10*
X89408000Y-127762000D03*
D11*
X84328000Y-127762000D03*
D12*
X80009266Y-159993889D03*
X82318965Y-160950598D03*
D10*
X89408000Y-130302000D03*
D11*
X84328000Y-130302000D03*
D10*
X80071995Y-71874642D03*
D15*
X84765303Y-69930610D03*
D25*
X122523000Y-147066000D03*
X122523000Y-144526000D03*
X122523000Y-141986000D03*
X122523000Y-139446000D03*
X122523000Y-136906000D03*
X122523000Y-134366000D03*
X132683000Y-147066000D03*
X135223000Y-147066000D03*
X132683000Y-134366000D03*
X135223000Y-134366000D03*
D10*
X58928000Y-102362000D03*
D11*
X64008000Y-102362000D03*
D10*
X111718340Y-149347000D03*
D11*
X116798340Y-149347000D03*
D10*
X89408000Y-113284000D03*
D11*
X84328000Y-113284000D03*
D10*
X88858340Y-149347000D03*
D11*
X93938340Y-149347000D03*
D12*
X58368006Y-96291161D03*
X57411297Y-98600860D03*
X106446000Y-100076000D03*
X108946000Y-100076000D03*
D24*
X125794888Y-94488000D03*
D12*
X128294888Y-94488000D03*
D26*
X81280000Y-97536000D03*
X81280000Y-94996000D03*
X81280000Y-92456000D03*
X81280000Y-89916000D03*
X81280000Y-87376000D03*
X81280000Y-84836000D03*
X81280000Y-82296000D03*
X66040000Y-82296000D03*
X66040000Y-84836000D03*
X66040000Y-87376000D03*
X66040000Y-89916000D03*
X66040000Y-92456000D03*
X66040000Y-94996000D03*
X66040000Y-97536000D03*
D25*
X76200000Y-149828000D03*
X73660000Y-149828000D03*
X71120000Y-149828000D03*
D10*
X89408000Y-110744000D03*
D11*
X84328000Y-110744000D03*
D12*
X118689335Y-161394510D03*
X116379636Y-162351219D03*
D17*
X91948000Y-153157000D03*
D18*
X91948000Y-155697000D03*
D10*
X58928000Y-127508000D03*
D11*
X64008000Y-127508000D03*
D10*
X83730558Y-164284574D03*
D21*
X79037250Y-162340542D03*
D10*
X104098340Y-149347000D03*
D11*
X109178340Y-149347000D03*
D10*
X89408000Y-108204000D03*
D11*
X84328000Y-108204000D03*
D24*
X82296000Y-122746888D03*
D12*
X82296000Y-125246888D03*
D10*
X89408000Y-135382000D03*
D11*
X84328000Y-135382000D03*
D10*
X58928000Y-104902000D03*
D11*
X64008000Y-104902000D03*
D16*
X80554000Y-156158000D03*
X80554000Y-149658000D03*
X85054000Y-156158000D03*
X85054000Y-149658000D03*
D10*
X96478340Y-149347000D03*
D11*
X101558340Y-149347000D03*
D10*
X58928000Y-112522000D03*
D11*
X64008000Y-112522000D03*
D10*
X58928000Y-115062000D03*
D11*
X64008000Y-115062000D03*
D10*
X89408000Y-118364000D03*
D11*
X84328000Y-118364000D03*
D17*
X107188000Y-153157000D03*
D18*
X107188000Y-155697000D03*
D27*
X115570000Y-121977000D03*
X86614000Y-121977000D03*
D26*
X85092000Y-82480000D03*
X85092000Y-85020000D03*
X85092000Y-87560000D03*
X85092000Y-90100000D03*
X85092000Y-92640000D03*
X85092000Y-95180000D03*
X85092000Y-97720000D03*
X85092000Y-100260000D03*
X117092000Y-100260000D03*
X117092000Y-97720000D03*
X117092000Y-95180000D03*
X117092000Y-92640000D03*
X117092000Y-90100000D03*
X117092000Y-87560000D03*
X117092000Y-85020000D03*
X117092000Y-82480000D03*
D10*
X58928000Y-117602000D03*
D11*
X64008000Y-117602000D03*
D10*
X58928000Y-124968000D03*
D11*
X64008000Y-124968000D03*
D24*
X94806888Y-97536000D03*
D12*
X97306888Y-97536000D03*
D26*
X122682000Y-118872000D03*
X125222000Y-118872000D03*
X127762000Y-118872000D03*
X130302000Y-118872000D03*
X132842000Y-118872000D03*
X135382000Y-118872000D03*
X135382000Y-129032000D03*
X132842000Y-129032000D03*
X130302000Y-129032000D03*
X127762000Y-129032000D03*
X125222000Y-129032000D03*
X122682000Y-129032000D03*
D10*
X58928000Y-107442000D03*
D11*
X64008000Y-107442000D03*
D10*
X146058648Y-139324645D03*
D13*
X148002680Y-134631337D03*
D12*
X55995369Y-132624576D03*
X56952078Y-134934275D03*
X85737319Y-72277264D03*
X83427620Y-73233973D03*
D27*
X137803000Y-113451000D03*
X122483000Y-113451000D03*
D28*
X121253000Y-100711000D03*
X123793000Y-100711000D03*
X126333000Y-100711000D03*
X128873000Y-100711000D03*
X131413000Y-100711000D03*
X133953000Y-100711000D03*
X136493000Y-100711000D03*
X139033000Y-100711000D03*
D10*
X89408000Y-137922000D03*
D11*
X84328000Y-137922000D03*
D12*
X106446000Y-94996000D03*
X108946000Y-94996000D03*
D26*
X136144000Y-97536000D03*
X136144000Y-94996000D03*
X136144000Y-92456000D03*
X136144000Y-89916000D03*
X136144000Y-87376000D03*
X136144000Y-84836000D03*
X136144000Y-82296000D03*
X120904000Y-82296000D03*
X120904000Y-84836000D03*
X120904000Y-87376000D03*
X120904000Y-89916000D03*
X120904000Y-92456000D03*
X120904000Y-94996000D03*
X120904000Y-97536000D03*
D12*
X144684009Y-136005975D03*
X143727300Y-138315674D03*
D25*
X150777938Y-100075182D03*
X149805922Y-97728528D03*
X148833906Y-95381874D03*
X148405301Y-140296661D03*
X149377317Y-137950007D03*
X150349333Y-135603353D03*
X78065234Y-164687196D03*
X80411888Y-165659212D03*
X82758542Y-166631228D03*
X53674699Y-94347129D03*
X52702683Y-96693783D03*
X51730667Y-99040437D03*
D29*
X93392000Y-143239000D03*
D30*
X90892000Y-143239000D03*
X88392000Y-143239000D03*
X85892000Y-143239000D03*
X83392000Y-143239000D03*
D25*
X118286713Y-167059834D03*
X120633367Y-166087818D03*
X122980021Y-165115802D03*
X124014766Y-69956594D03*
X121668112Y-68984578D03*
X119321458Y-68012562D03*
X83793287Y-67583956D03*
X81446633Y-68555972D03*
X79099979Y-69527988D03*
D29*
X107382000Y-143239000D03*
D30*
X104882000Y-143239000D03*
X102382000Y-143239000D03*
X99882000Y-143239000D03*
D31*
X115316000Y-136144000D03*
D32*
X115316000Y-133644000D03*
D25*
X51248980Y-134590595D03*
X52220996Y-136937249D03*
X53193012Y-139283903D03*
D33*
X53865000Y-122622000D03*
D34*
X53865000Y-120122000D03*
X53865000Y-117622000D03*
X53865000Y-115122000D03*
M02*
