G04 #@! TF.GenerationSoftware,KiCad,Pcbnew,(6.0.5)*
G04 #@! TF.CreationDate,2022-07-03T20:58:49+09:00*
G04 #@! TF.ProjectId,main board,6d61696e-2062-46f6-9172-642e6b696361,rev?*
G04 #@! TF.SameCoordinates,Original*
G04 #@! TF.FileFunction,Copper,L2,Bot*
G04 #@! TF.FilePolarity,Positive*
%FSLAX46Y46*%
G04 Gerber Fmt 4.6, Leading zero omitted, Abs format (unit mm)*
G04 Created by KiCad (PCBNEW (6.0.5)) date 2022-07-03 20:58:49*
%MOMM*%
%LPD*%
G01*
G04 APERTURE LIST*
G04 Aperture macros list*
%AMRoundRect*
0 Rectangle with rounded corners*
0 $1 Rounding radius*
0 $2 $3 $4 $5 $6 $7 $8 $9 X,Y pos of 4 corners*
0 Add a 4 corners polygon primitive as box body*
4,1,4,$2,$3,$4,$5,$6,$7,$8,$9,$2,$3,0*
0 Add four circle primitives for the rounded corners*
1,1,$1+$1,$2,$3*
1,1,$1+$1,$4,$5*
1,1,$1+$1,$6,$7*
1,1,$1+$1,$8,$9*
0 Add four rect primitives between the rounded corners*
20,1,$1+$1,$2,$3,$4,$5,0*
20,1,$1+$1,$4,$5,$6,$7,0*
20,1,$1+$1,$6,$7,$8,$9,0*
20,1,$1+$1,$8,$9,$2,$3,0*%
%AMHorizOval*
0 Thick line with rounded ends*
0 $1 width*
0 $2 $3 position (X,Y) of the first rounded end (center of the circle)*
0 $4 $5 position (X,Y) of the second rounded end (center of the circle)*
0 Add line between two ends*
20,1,$1,$2,$3,$4,$5,0*
0 Add two circle primitives to create the rounded ends*
1,1,$1,$2,$3*
1,1,$1,$4,$5*%
G04 Aperture macros list end*
G04 #@! TA.AperFunction,ComponentPad*
%ADD10C,1.400000*%
G04 #@! TD*
G04 #@! TA.AperFunction,ComponentPad*
%ADD11O,1.400000X1.400000*%
G04 #@! TD*
G04 #@! TA.AperFunction,ComponentPad*
%ADD12C,1.600000*%
G04 #@! TD*
G04 #@! TA.AperFunction,ComponentPad*
%ADD13HorizOval,1.400000X0.000000X0.000000X0.000000X0.000000X0*%
G04 #@! TD*
G04 #@! TA.AperFunction,ComponentPad*
%ADD14HorizOval,1.400000X0.000000X0.000000X0.000000X0.000000X0*%
G04 #@! TD*
G04 #@! TA.AperFunction,ComponentPad*
%ADD15HorizOval,1.400000X0.000000X0.000000X0.000000X0.000000X0*%
G04 #@! TD*
G04 #@! TA.AperFunction,ComponentPad*
%ADD16C,2.000000*%
G04 #@! TD*
G04 #@! TA.AperFunction,ComponentPad*
%ADD17R,1.800000X1.800000*%
G04 #@! TD*
G04 #@! TA.AperFunction,ComponentPad*
%ADD18C,1.800000*%
G04 #@! TD*
G04 #@! TA.AperFunction,ComponentPad*
%ADD19R,2.400000X1.600000*%
G04 #@! TD*
G04 #@! TA.AperFunction,ComponentPad*
%ADD20O,2.400000X1.600000*%
G04 #@! TD*
G04 #@! TA.AperFunction,ComponentPad*
%ADD21HorizOval,1.400000X0.000000X0.000000X0.000000X0.000000X0*%
G04 #@! TD*
G04 #@! TA.AperFunction,ComponentPad*
%ADD22R,2.200000X2.200000*%
G04 #@! TD*
G04 #@! TA.AperFunction,ComponentPad*
%ADD23O,2.200000X2.200000*%
G04 #@! TD*
G04 #@! TA.AperFunction,ComponentPad*
%ADD24R,1.600000X1.600000*%
G04 #@! TD*
G04 #@! TA.AperFunction,ComponentPad*
%ADD25C,1.524000*%
G04 #@! TD*
G04 #@! TA.AperFunction,ComponentPad*
%ADD26C,1.700000*%
G04 #@! TD*
G04 #@! TA.AperFunction,ComponentPad*
%ADD27C,3.000000*%
G04 #@! TD*
G04 #@! TA.AperFunction,ComponentPad*
%ADD28O,1.700000X2.500000*%
G04 #@! TD*
G04 #@! TA.AperFunction,ComponentPad*
%ADD29RoundRect,0.250000X0.600000X0.725000X-0.600000X0.725000X-0.600000X-0.725000X0.600000X-0.725000X0*%
G04 #@! TD*
G04 #@! TA.AperFunction,ComponentPad*
%ADD30O,1.700000X1.950000*%
G04 #@! TD*
G04 #@! TA.AperFunction,ComponentPad*
%ADD31RoundRect,0.250000X0.750000X-0.600000X0.750000X0.600000X-0.750000X0.600000X-0.750000X-0.600000X0*%
G04 #@! TD*
G04 #@! TA.AperFunction,ComponentPad*
%ADD32O,2.000000X1.700000*%
G04 #@! TD*
G04 #@! TA.AperFunction,ComponentPad*
%ADD33RoundRect,0.250000X0.725000X-0.600000X0.725000X0.600000X-0.725000X0.600000X-0.725000X-0.600000X0*%
G04 #@! TD*
G04 #@! TA.AperFunction,ComponentPad*
%ADD34O,1.950000X1.700000*%
G04 #@! TD*
G04 #@! TA.AperFunction,ViaPad*
%ADD35C,0.800000*%
G04 #@! TD*
G04 #@! TA.AperFunction,Conductor*
%ADD36C,0.500000*%
G04 #@! TD*
G04 APERTURE END LIST*
D10*
X143764000Y-108966000D03*
D11*
X143764000Y-114046000D03*
D12*
X106446000Y-89916000D03*
X108946000Y-89916000D03*
D10*
X54077321Y-100012453D03*
D13*
X56021353Y-95319145D03*
D10*
X55592747Y-138289900D03*
D14*
X53648715Y-133596592D03*
D10*
X117314697Y-164713180D03*
D15*
X122008005Y-162769148D03*
D12*
X119724080Y-73677886D03*
X122033779Y-74634595D03*
D16*
X144054000Y-123646000D03*
X144054000Y-117146000D03*
X148554000Y-123646000D03*
X148554000Y-117146000D03*
D10*
X111526000Y-97536000D03*
D11*
X106446000Y-97536000D03*
D10*
X111526000Y-87376000D03*
D11*
X106446000Y-87376000D03*
D17*
X99568000Y-153157000D03*
D18*
X99568000Y-155697000D03*
D10*
X89408000Y-115824000D03*
D11*
X84328000Y-115824000D03*
D10*
X148431285Y-101047198D03*
D14*
X146487253Y-96353890D03*
D17*
X114808000Y-153157000D03*
D18*
X114808000Y-155697000D03*
D19*
X69860000Y-102347000D03*
D20*
X69860000Y-104887000D03*
X69860000Y-107427000D03*
X69860000Y-109967000D03*
X69860000Y-112507000D03*
X69860000Y-115047000D03*
X69860000Y-117587000D03*
X69860000Y-120127000D03*
X69860000Y-122667000D03*
X69860000Y-125207000D03*
X69860000Y-127747000D03*
X69860000Y-130287000D03*
X69860000Y-132827000D03*
X69860000Y-135367000D03*
X77480000Y-135367000D03*
X77480000Y-132827000D03*
X77480000Y-130287000D03*
X77480000Y-127747000D03*
X77480000Y-125207000D03*
X77480000Y-122667000D03*
X77480000Y-120127000D03*
X77480000Y-117587000D03*
X77480000Y-115047000D03*
X77480000Y-112507000D03*
X77480000Y-109967000D03*
X77480000Y-107427000D03*
X77480000Y-104887000D03*
X77480000Y-102347000D03*
D10*
X58928000Y-109982000D03*
D11*
X64008000Y-109982000D03*
D10*
X123042750Y-72303247D03*
D21*
X118349442Y-70359215D03*
D10*
X111526000Y-92456000D03*
D11*
X106446000Y-92456000D03*
D22*
X100838000Y-133604000D03*
D23*
X108458000Y-133604000D03*
D12*
X145112615Y-99672560D03*
X146069324Y-101982259D03*
D24*
X70930888Y-94488000D03*
D12*
X73430888Y-94488000D03*
X147574000Y-111506000D03*
X147574000Y-114006000D03*
D10*
X89408000Y-127762000D03*
D11*
X84328000Y-127762000D03*
D12*
X80009266Y-159993889D03*
X82318965Y-160950598D03*
D10*
X89408000Y-130302000D03*
D11*
X84328000Y-130302000D03*
D10*
X80071995Y-71874642D03*
D15*
X84765303Y-69930610D03*
D25*
X122523000Y-147066000D03*
X122523000Y-144526000D03*
X122523000Y-141986000D03*
X122523000Y-139446000D03*
X122523000Y-136906000D03*
X122523000Y-134366000D03*
X132683000Y-147066000D03*
X135223000Y-147066000D03*
X132683000Y-134366000D03*
X135223000Y-134366000D03*
D10*
X58928000Y-102362000D03*
D11*
X64008000Y-102362000D03*
D10*
X111718340Y-149347000D03*
D11*
X116798340Y-149347000D03*
D10*
X89408000Y-113284000D03*
D11*
X84328000Y-113284000D03*
D10*
X88858340Y-149347000D03*
D11*
X93938340Y-149347000D03*
D12*
X58368006Y-96291161D03*
X57411297Y-98600860D03*
X106446000Y-100076000D03*
X108946000Y-100076000D03*
D24*
X125794888Y-94488000D03*
D12*
X128294888Y-94488000D03*
D26*
X81280000Y-97536000D03*
X81280000Y-94996000D03*
X81280000Y-92456000D03*
X81280000Y-89916000D03*
X81280000Y-87376000D03*
X81280000Y-84836000D03*
X81280000Y-82296000D03*
X66040000Y-82296000D03*
X66040000Y-84836000D03*
X66040000Y-87376000D03*
X66040000Y-89916000D03*
X66040000Y-92456000D03*
X66040000Y-94996000D03*
X66040000Y-97536000D03*
D25*
X76200000Y-149828000D03*
X73660000Y-149828000D03*
X71120000Y-149828000D03*
D10*
X89408000Y-110744000D03*
D11*
X84328000Y-110744000D03*
D12*
X118689335Y-161394510D03*
X116379636Y-162351219D03*
D17*
X91948000Y-153157000D03*
D18*
X91948000Y-155697000D03*
D10*
X58928000Y-127508000D03*
D11*
X64008000Y-127508000D03*
D10*
X83730558Y-164284574D03*
D21*
X79037250Y-162340542D03*
D10*
X104098340Y-149347000D03*
D11*
X109178340Y-149347000D03*
D10*
X89408000Y-108204000D03*
D11*
X84328000Y-108204000D03*
D24*
X82296000Y-122746888D03*
D12*
X82296000Y-125246888D03*
D10*
X89408000Y-135382000D03*
D11*
X84328000Y-135382000D03*
D10*
X58928000Y-104902000D03*
D11*
X64008000Y-104902000D03*
D16*
X80554000Y-156158000D03*
X80554000Y-149658000D03*
X85054000Y-156158000D03*
X85054000Y-149658000D03*
D10*
X96478340Y-149347000D03*
D11*
X101558340Y-149347000D03*
D10*
X58928000Y-112522000D03*
D11*
X64008000Y-112522000D03*
D10*
X58928000Y-115062000D03*
D11*
X64008000Y-115062000D03*
D10*
X89408000Y-118364000D03*
D11*
X84328000Y-118364000D03*
D17*
X107188000Y-153157000D03*
D18*
X107188000Y-155697000D03*
D27*
X115570000Y-121977000D03*
X86614000Y-121977000D03*
D26*
X85092000Y-82480000D03*
X85092000Y-85020000D03*
X85092000Y-87560000D03*
X85092000Y-90100000D03*
X85092000Y-92640000D03*
X85092000Y-95180000D03*
X85092000Y-97720000D03*
X85092000Y-100260000D03*
X117092000Y-100260000D03*
X117092000Y-97720000D03*
X117092000Y-95180000D03*
X117092000Y-92640000D03*
X117092000Y-90100000D03*
X117092000Y-87560000D03*
X117092000Y-85020000D03*
X117092000Y-82480000D03*
D10*
X58928000Y-117602000D03*
D11*
X64008000Y-117602000D03*
D10*
X58928000Y-124968000D03*
D11*
X64008000Y-124968000D03*
D24*
X94806888Y-97536000D03*
D12*
X97306888Y-97536000D03*
D26*
X122682000Y-118872000D03*
X125222000Y-118872000D03*
X127762000Y-118872000D03*
X130302000Y-118872000D03*
X132842000Y-118872000D03*
X135382000Y-118872000D03*
X135382000Y-129032000D03*
X132842000Y-129032000D03*
X130302000Y-129032000D03*
X127762000Y-129032000D03*
X125222000Y-129032000D03*
X122682000Y-129032000D03*
D10*
X58928000Y-107442000D03*
D11*
X64008000Y-107442000D03*
D10*
X146058648Y-139324645D03*
D13*
X148002680Y-134631337D03*
D12*
X55995369Y-132624576D03*
X56952078Y-134934275D03*
X85737319Y-72277264D03*
X83427620Y-73233973D03*
D27*
X137803000Y-113451000D03*
X122483000Y-113451000D03*
D28*
X121253000Y-100711000D03*
X123793000Y-100711000D03*
X126333000Y-100711000D03*
X128873000Y-100711000D03*
X131413000Y-100711000D03*
X133953000Y-100711000D03*
X136493000Y-100711000D03*
X139033000Y-100711000D03*
D10*
X89408000Y-137922000D03*
D11*
X84328000Y-137922000D03*
D12*
X106446000Y-94996000D03*
X108946000Y-94996000D03*
D26*
X136144000Y-97536000D03*
X136144000Y-94996000D03*
X136144000Y-92456000D03*
X136144000Y-89916000D03*
X136144000Y-87376000D03*
X136144000Y-84836000D03*
X136144000Y-82296000D03*
X120904000Y-82296000D03*
X120904000Y-84836000D03*
X120904000Y-87376000D03*
X120904000Y-89916000D03*
X120904000Y-92456000D03*
X120904000Y-94996000D03*
X120904000Y-97536000D03*
D12*
X144684009Y-136005975D03*
X143727300Y-138315674D03*
D25*
X150777938Y-100075182D03*
X149805922Y-97728528D03*
X148833906Y-95381874D03*
X148405301Y-140296661D03*
X149377317Y-137950007D03*
X150349333Y-135603353D03*
X78065234Y-164687196D03*
X80411888Y-165659212D03*
X82758542Y-166631228D03*
X53674699Y-94347129D03*
X52702683Y-96693783D03*
X51730667Y-99040437D03*
D29*
X93392000Y-143239000D03*
D30*
X90892000Y-143239000D03*
X88392000Y-143239000D03*
X85892000Y-143239000D03*
X83392000Y-143239000D03*
D25*
X118286713Y-167059834D03*
X120633367Y-166087818D03*
X122980021Y-165115802D03*
X124014766Y-69956594D03*
X121668112Y-68984578D03*
X119321458Y-68012562D03*
X83793287Y-67583956D03*
X81446633Y-68555972D03*
X79099979Y-69527988D03*
D29*
X107382000Y-143239000D03*
D30*
X104882000Y-143239000D03*
X102382000Y-143239000D03*
X99882000Y-143239000D03*
D31*
X115316000Y-136144000D03*
D32*
X115316000Y-133644000D03*
D25*
X51248980Y-134590595D03*
X52220996Y-136937249D03*
X53193012Y-139283903D03*
D33*
X53865000Y-122622000D03*
D34*
X53865000Y-120122000D03*
X53865000Y-117622000D03*
X53865000Y-115122000D03*
D35*
X89408000Y-121666000D03*
X93218000Y-113030000D03*
X104140000Y-102409011D03*
X91948000Y-104918497D03*
X72136000Y-105918000D03*
X91948000Y-105918000D03*
X132080000Y-95758000D03*
X120904000Y-160528000D03*
X59182000Y-136652000D03*
X84582000Y-161544000D03*
X56134000Y-100330000D03*
X81026000Y-73914000D03*
X77636500Y-147320000D03*
X95758000Y-154006500D03*
X88566677Y-157813323D03*
X62738000Y-129794000D03*
X73939020Y-128778000D03*
X73939020Y-117856000D03*
X129032000Y-107188000D03*
X139446000Y-107188000D03*
X118364000Y-146304000D03*
X120396000Y-124714000D03*
X142240000Y-104394000D03*
X79979020Y-136231500D03*
X79129520Y-137414000D03*
X79129520Y-141105520D03*
X72390000Y-136906000D03*
X91741500Y-110236000D03*
X75184000Y-97790000D03*
X75184000Y-102362000D03*
X75184000Y-130048000D03*
X75692000Y-85598000D03*
X88392000Y-80264000D03*
X86868000Y-108204000D03*
X86868000Y-118364000D03*
X124460000Y-130810000D03*
X121412000Y-132080000D03*
X92456000Y-126746000D03*
X93980000Y-109728000D03*
X119634000Y-154178000D03*
X118364000Y-150876000D03*
X97028000Y-143814020D03*
X118110000Y-147574000D03*
X96520000Y-130810000D03*
X91741500Y-140208000D03*
X97028000Y-147320000D03*
X94234000Y-141224000D03*
D36*
X82216112Y-122667000D02*
X82296000Y-122746888D01*
X90892000Y-114768000D02*
X90892000Y-114848000D01*
X52440480Y-123511750D02*
X53896730Y-124968000D01*
X69088000Y-149509336D02*
X70618175Y-151039511D01*
X89408000Y-127762000D02*
X90892000Y-129246000D01*
X118831511Y-101559511D02*
X120404489Y-101559511D01*
X58928000Y-124968000D02*
X60452000Y-126492000D01*
X89408000Y-110744000D02*
X90892000Y-112228000D01*
X69088000Y-147320000D02*
X69088000Y-149509336D01*
X83545633Y-123996521D02*
X90887479Y-123996521D01*
X90892000Y-109688000D02*
X94806888Y-105773112D01*
X53896730Y-124968000D02*
X58928000Y-124968000D01*
X90892000Y-143239000D02*
X90892000Y-136692000D01*
X130302000Y-118872000D02*
X130302000Y-104902000D01*
X90892000Y-112308000D02*
X90892000Y-109688000D01*
X117896489Y-101559511D02*
X118391511Y-101064489D01*
X89408000Y-130302000D02*
X90718000Y-131612000D01*
X118323511Y-101559511D02*
X120904000Y-98979022D01*
X102362000Y-139700000D02*
X94488000Y-139700000D01*
X94488000Y-139700000D02*
X90892000Y-143239000D01*
X121920000Y-104648000D02*
X118831511Y-101559511D01*
X90892000Y-114848000D02*
X90892000Y-112308000D01*
X66040000Y-97536000D02*
X67882888Y-97536000D01*
X100838000Y-133604000D02*
X100527000Y-133604000D01*
X67882888Y-97536000D02*
X70930888Y-94488000D01*
X90892000Y-109688000D02*
X89408000Y-108204000D01*
X90892000Y-119928000D02*
X90892000Y-117308000D01*
X100527000Y-133604000D02*
X90892000Y-143239000D01*
X90892000Y-123992000D02*
X90892000Y-119928000D01*
X117388489Y-101559511D02*
X117896489Y-101559511D01*
X90892000Y-112228000D02*
X90892000Y-112308000D01*
X70618175Y-151039511D02*
X74988489Y-151039511D01*
X90892000Y-129500000D02*
X90892000Y-123992000D01*
X90892000Y-117308000D02*
X90892000Y-114848000D01*
X60452000Y-138684000D02*
X69088000Y-147320000D01*
X77480000Y-122667000D02*
X82216112Y-122667000D01*
X117388489Y-101559511D02*
X118323511Y-101559511D01*
X58868000Y-115122000D02*
X58928000Y-115062000D01*
X60452000Y-126492000D02*
X60452000Y-138684000D01*
X66040000Y-97536000D02*
X61214000Y-102362000D01*
X74988489Y-151039511D02*
X76200000Y-149828000D01*
X89408000Y-135382000D02*
X90718000Y-136692000D01*
X94806888Y-105773112D02*
X94806888Y-97536000D01*
X89408000Y-115824000D02*
X90892000Y-117308000D01*
X53865000Y-115122000D02*
X52440480Y-116546520D01*
X120904000Y-98979022D02*
X120904000Y-97536000D01*
X118391511Y-101064489D02*
X118391511Y-99019511D01*
X90892000Y-119848000D02*
X90892000Y-119928000D01*
X82296000Y-122746888D02*
X83545633Y-123996521D01*
X90892000Y-136692000D02*
X90892000Y-131612000D01*
X61214000Y-102362000D02*
X58928000Y-102362000D01*
X98830399Y-101559511D02*
X117388489Y-101559511D01*
X94806888Y-97536000D02*
X98830399Y-101559511D01*
X52440480Y-116546520D02*
X52440480Y-123511750D01*
X120404489Y-101559511D02*
X121253000Y-100711000D01*
X90892000Y-131612000D02*
X90892000Y-129500000D01*
X89408000Y-113284000D02*
X90892000Y-114768000D01*
X130048000Y-104648000D02*
X121920000Y-104648000D01*
X118391511Y-99019511D02*
X117092000Y-97720000D01*
X89408000Y-118364000D02*
X90892000Y-119848000D01*
X118323511Y-101559511D02*
X118831511Y-101559511D01*
X58928000Y-117602000D02*
X58928000Y-104902000D01*
X119634000Y-139700000D02*
X102362000Y-139700000D01*
X53865000Y-115122000D02*
X58868000Y-115122000D01*
X90887479Y-123996521D02*
X90892000Y-123992000D01*
X122523000Y-141986000D02*
X119634000Y-139700000D01*
X102382000Y-143239000D02*
X102362000Y-139954000D01*
X58928000Y-102362000D02*
X58928000Y-117602000D01*
X90892000Y-129246000D02*
X90892000Y-129500000D01*
X90718000Y-136692000D02*
X90892000Y-136692000D01*
X90718000Y-131612000D02*
X90892000Y-131612000D01*
X130302000Y-104902000D02*
X130048000Y-104648000D01*
X56370000Y-120127000D02*
X69860000Y-120127000D01*
X93392000Y-143239000D02*
X94816520Y-144663520D01*
X88055000Y-153157000D02*
X85054000Y-156158000D01*
X72181377Y-93238489D02*
X67797511Y-93238489D01*
X97306888Y-95274888D02*
X97306888Y-97536000D01*
X88432489Y-101559511D02*
X94717112Y-95274888D01*
X108946000Y-84455966D02*
X108946000Y-89916000D01*
X85054000Y-149658000D02*
X85054000Y-156158000D01*
X94717112Y-95274888D02*
X97306888Y-95274888D01*
X118689335Y-161394510D02*
X118689335Y-157038335D01*
X127762000Y-125222000D02*
X127762000Y-118872000D01*
X148554000Y-123646000D02*
X146978000Y-125222000D01*
X118305511Y-133154489D02*
X123502489Y-133154489D01*
X118689335Y-161394510D02*
X118689335Y-164143786D01*
X127762000Y-129032000D02*
X127762000Y-125222000D01*
X123793000Y-97885000D02*
X123793000Y-100711000D01*
X128294888Y-94488000D02*
X135636000Y-94488000D01*
X108946000Y-100076000D02*
X108946000Y-89916000D01*
X118305511Y-133154489D02*
X123639511Y-133154489D01*
X128294888Y-94488000D02*
X128294888Y-96209112D01*
X149566427Y-97968023D02*
X149805922Y-97728528D01*
X149606000Y-111974000D02*
X149606000Y-100616580D01*
X85054000Y-158215563D02*
X82318965Y-160950598D01*
X73430888Y-94488000D02*
X72181377Y-93238489D01*
X115316000Y-136144000D02*
X118305511Y-133154489D01*
X107696489Y-98826489D02*
X108946000Y-100076000D01*
X128294888Y-96209112D02*
X123793000Y-100711000D01*
X67797511Y-93238489D02*
X66040000Y-94996000D01*
X124460000Y-134112000D02*
X124460000Y-146304000D01*
X53865000Y-117622000D02*
X56370000Y-120127000D01*
X147433285Y-136005975D02*
X149377317Y-137950007D01*
X144684009Y-136005975D02*
X126353975Y-136005975D01*
X91948000Y-153157000D02*
X88055000Y-153157000D01*
X149566427Y-100577007D02*
X149566427Y-97968023D01*
X82318965Y-160950598D02*
X82318965Y-163752135D01*
X82296000Y-125246888D02*
X77519888Y-125246888D01*
X80502399Y-101559511D02*
X88432489Y-101559511D01*
X120396000Y-142240000D02*
X120899000Y-142743000D01*
X120899000Y-142743000D02*
X120899000Y-147066000D01*
X118689335Y-157038335D02*
X114808000Y-153157000D01*
X73430888Y-94488000D02*
X80502399Y-101559511D01*
X144684009Y-136005975D02*
X147433285Y-136005975D01*
X57411297Y-98600860D02*
X62435140Y-98600860D01*
X74979888Y-125246888D02*
X69860000Y-120127000D01*
X94816520Y-144663520D02*
X105957480Y-144663520D01*
X148554000Y-123646000D02*
X148554000Y-117146000D01*
X114808000Y-153157000D02*
X91948000Y-153157000D01*
X149606000Y-100616580D02*
X149566427Y-100577007D01*
X135636000Y-94488000D02*
X136144000Y-94996000D01*
X54609760Y-98600860D02*
X52702683Y-96693783D01*
X85054000Y-156158000D02*
X85054000Y-158215563D01*
X123952000Y-133604000D02*
X124460000Y-134112000D01*
X62435140Y-98600860D02*
X66040000Y-94996000D01*
X52220996Y-136937249D02*
X54949104Y-136937249D01*
X147574000Y-114006000D02*
X149606000Y-111974000D01*
X105957480Y-144663520D02*
X107382000Y-143239000D01*
X119724080Y-73677886D02*
X119724080Y-70928610D01*
X83427620Y-73233973D02*
X97306888Y-87113241D01*
X120904000Y-94996000D02*
X123793000Y-97885000D01*
X108381000Y-142240000D02*
X120396000Y-142240000D01*
X54949104Y-136937249D02*
X56952078Y-134934275D01*
X107382000Y-143239000D02*
X108381000Y-142240000D01*
X116908000Y-100076000D02*
X117092000Y-100260000D01*
X119724080Y-73677886D02*
X108946000Y-84455966D01*
X82318965Y-163752135D02*
X80411888Y-165659212D01*
X123698000Y-147066000D02*
X122523000Y-147066000D01*
X148554000Y-114986000D02*
X147574000Y-114006000D01*
X118689335Y-164143786D02*
X120633367Y-166087818D01*
X82296000Y-125246888D02*
X74979888Y-125246888D01*
X97306888Y-97536000D02*
X98597377Y-98826489D01*
X83427620Y-70536959D02*
X81446633Y-68555972D01*
X146978000Y-125222000D02*
X127762000Y-125222000D01*
X126353975Y-136005975D02*
X123952000Y-133604000D01*
X140436055Y-94996000D02*
X145112615Y-99672560D01*
X122523000Y-147066000D02*
X120899000Y-147066000D01*
X136144000Y-94996000D02*
X140436055Y-94996000D01*
X147861890Y-99672560D02*
X149805922Y-97728528D01*
X77519888Y-125246888D02*
X77480000Y-125207000D01*
X123502489Y-133154489D02*
X123952000Y-133604000D01*
X123639511Y-133154489D02*
X127762000Y-129032000D01*
X97306888Y-87113241D02*
X97306888Y-95274888D01*
X83427620Y-73233973D02*
X83427620Y-70536959D01*
X108946000Y-100076000D02*
X116908000Y-100076000D01*
X119724080Y-70928610D02*
X121668112Y-68984578D01*
X57411297Y-98600860D02*
X54609760Y-98600860D01*
X98597377Y-98826489D02*
X107696489Y-98826489D01*
X124460000Y-146304000D02*
X123698000Y-147066000D01*
X145112615Y-99672560D02*
X147861890Y-99672560D01*
X120899000Y-147066000D02*
X114808000Y-153157000D01*
X148554000Y-117146000D02*
X148554000Y-114986000D01*
X73649520Y-121376520D02*
X84358445Y-121376520D01*
X103838989Y-102409011D02*
X104140000Y-102409011D01*
X69860000Y-117587000D02*
X64023000Y-117587000D01*
X69860000Y-117587000D02*
X73649520Y-121376520D01*
X69621000Y-117348000D02*
X69860000Y-117587000D01*
X85777486Y-119957479D02*
X87699479Y-119957479D01*
X87699479Y-119957479D02*
X89408000Y-121666000D01*
X93218000Y-113030000D02*
X103838989Y-102409011D01*
X64023000Y-117587000D02*
X64008000Y-117602000D01*
X84358445Y-121376520D02*
X85777486Y-119957479D01*
X91948000Y-104918497D02*
X90666983Y-103637480D01*
X64008000Y-112522000D02*
X69845000Y-112522000D01*
X90666983Y-103637480D02*
X74416520Y-103637480D01*
X69845000Y-112522000D02*
X69860000Y-112507000D01*
X74416520Y-103637480D02*
X72136000Y-105918000D01*
X64008000Y-109982000D02*
X69845000Y-109982000D01*
X73649520Y-106177480D02*
X69860000Y-109967000D01*
X91688520Y-106177480D02*
X73649520Y-106177480D01*
X91948000Y-105918000D02*
X91688520Y-106177480D01*
X69845000Y-109982000D02*
X69860000Y-109967000D01*
X59182000Y-134679837D02*
X57126739Y-132624576D01*
X55023353Y-133596592D02*
X55995369Y-132624576D01*
X120904000Y-160528000D02*
X123814978Y-160528000D01*
X62204839Y-96291161D02*
X66040000Y-92456000D01*
X146069324Y-101982259D02*
X146069324Y-106660676D01*
X81026000Y-73914000D02*
X81026000Y-77470000D01*
X84582000Y-161544000D02*
X85389219Y-162351219D01*
X57395990Y-95319145D02*
X58368006Y-96291161D01*
X58368006Y-96291161D02*
X62204839Y-96291161D01*
X122033779Y-73312218D02*
X123042750Y-72303247D01*
X122833778Y-90526222D02*
X122833778Y-75434594D01*
X120904000Y-92456000D02*
X122833778Y-90526222D01*
X116379636Y-163778119D02*
X117314697Y-164713180D01*
X123814978Y-160528000D02*
X143727300Y-140615678D01*
X146069324Y-106660676D02*
X143764000Y-108966000D01*
X53648715Y-133596592D02*
X55023353Y-133596592D01*
X57126739Y-132624576D02*
X55995369Y-132624576D01*
X81026000Y-77470000D02*
X66040000Y-92456000D01*
X122833778Y-75434594D02*
X122033779Y-74634595D01*
X143764000Y-103204202D02*
X139571278Y-99011480D01*
X51054000Y-123190000D02*
X51054000Y-105410000D01*
X116379636Y-162351219D02*
X116379636Y-163778119D01*
X147004385Y-101047198D02*
X146069324Y-101982259D01*
X132080000Y-97487480D02*
X132080000Y-95758000D01*
X122033779Y-74634595D02*
X122033779Y-73312218D01*
X143727300Y-140615678D02*
X143727300Y-138315674D01*
X55995369Y-132624576D02*
X55995369Y-128131369D01*
X79037250Y-160965905D02*
X80009266Y-159993889D01*
X51054000Y-105410000D02*
X56134000Y-100330000D01*
X146058648Y-139324645D02*
X144736271Y-139324645D01*
X144736271Y-139324645D02*
X143727300Y-138315674D01*
X133604000Y-99011480D02*
X132080000Y-97487480D01*
X148431285Y-101047198D02*
X147004385Y-101047198D01*
X85389219Y-162351219D02*
X116379636Y-162351219D01*
X84765303Y-69930610D02*
X84765303Y-71305248D01*
X143764000Y-108966000D02*
X143764000Y-103204202D01*
X84765303Y-71305248D02*
X85737319Y-72277264D01*
X56021353Y-95319145D02*
X57395990Y-95319145D01*
X139571278Y-99011480D02*
X133604000Y-99011480D01*
X59182000Y-136652000D02*
X59182000Y-134679837D01*
X55995369Y-128131369D02*
X51054000Y-123190000D01*
X79037250Y-162340542D02*
X79037250Y-160965905D01*
X143764000Y-114046000D02*
X143764000Y-123356000D01*
X145034000Y-114046000D02*
X147574000Y-111506000D01*
X143764000Y-123356000D02*
X144054000Y-123646000D01*
X143764000Y-114046000D02*
X145034000Y-114046000D01*
X115316000Y-133644000D02*
X108498000Y-133644000D01*
X108498000Y-133644000D02*
X108458000Y-133604000D01*
X95504000Y-157734000D02*
X95758000Y-157480000D01*
X88646000Y-157734000D02*
X95504000Y-157734000D01*
X62738000Y-130412088D02*
X77636500Y-145310588D01*
X77636500Y-145310588D02*
X77636500Y-147320000D01*
X95758000Y-157480000D02*
X95758000Y-154006500D01*
X88566677Y-157813323D02*
X88646000Y-157734000D01*
X62738000Y-129794000D02*
X62738000Y-130412088D01*
X61214000Y-125628345D02*
X61214000Y-125984000D01*
X61214000Y-138430000D02*
X69342000Y-146558000D01*
X58207655Y-122622000D02*
X61214000Y-125628345D01*
X53865000Y-122622000D02*
X58207655Y-122622000D01*
X70452480Y-146620480D02*
X69377750Y-146620480D01*
X73660000Y-149828000D02*
X70452480Y-146620480D01*
X61214000Y-125984000D02*
X61214000Y-138430000D01*
X70777568Y-131577480D02*
X71540489Y-132340401D01*
X71540489Y-132340401D02*
X71540489Y-137257880D01*
X84328000Y-113284000D02*
X82565000Y-115047000D01*
X71540489Y-137257880D02*
X72204609Y-137922000D01*
X68983392Y-131577480D02*
X70777568Y-131577480D01*
X53865000Y-120122000D02*
X53865000Y-120159000D01*
X82565000Y-115047000D02*
X77480000Y-115047000D01*
X55626000Y-121920000D02*
X66802000Y-121920000D01*
X73939020Y-117856000D02*
X74671000Y-117856000D01*
X72706480Y-137922000D02*
X73939020Y-136689460D01*
X73939020Y-136689460D02*
X73939020Y-128778000D01*
X53865000Y-120159000D02*
X55626000Y-121920000D01*
X72204609Y-137922000D02*
X72706480Y-137922000D01*
X66802000Y-129396088D02*
X68983392Y-131577480D01*
X74671000Y-117856000D02*
X77480000Y-115047000D01*
X66802000Y-121920000D02*
X66802000Y-129396088D01*
X120396000Y-124714000D02*
X120396000Y-112681965D01*
X88392000Y-143239000D02*
X91457000Y-146304000D01*
X120396000Y-112681965D02*
X125889965Y-107188000D01*
X125889965Y-107188000D02*
X129032000Y-107188000D01*
X91457000Y-146304000D02*
X118364000Y-146304000D01*
X139446000Y-107188000D02*
X142240000Y-104394000D01*
X69845000Y-102362000D02*
X69860000Y-102347000D01*
X64008000Y-102362000D02*
X69845000Y-102362000D01*
X69845000Y-115062000D02*
X69860000Y-115047000D01*
X64008000Y-115062000D02*
X69845000Y-115062000D01*
X64008000Y-129515000D02*
X69860000Y-135367000D01*
X64008000Y-127508000D02*
X64008000Y-129515000D01*
X64008000Y-124968000D02*
X64008000Y-127508000D01*
X84328000Y-135382000D02*
X77495000Y-135382000D01*
X84328000Y-135382000D02*
X84328000Y-137922000D01*
X77495000Y-135382000D02*
X77480000Y-135367000D01*
X64008000Y-107442000D02*
X69845000Y-107442000D01*
X69845000Y-107442000D02*
X69860000Y-107427000D01*
X69845000Y-104902000D02*
X69860000Y-104887000D01*
X64008000Y-104902000D02*
X69845000Y-104902000D01*
X87537202Y-149347000D02*
X79979020Y-141788818D01*
X82565000Y-109967000D02*
X77480000Y-109967000D01*
X79979020Y-141788818D02*
X79979020Y-136231500D01*
X84328000Y-108204000D02*
X82565000Y-109967000D01*
X88858340Y-149347000D02*
X87537202Y-149347000D01*
X79129520Y-141105520D02*
X79129520Y-137414000D01*
X84328000Y-118364000D02*
X82565000Y-120127000D01*
X82565000Y-120127000D02*
X77480000Y-120127000D01*
X72390000Y-136906000D02*
X72390000Y-125197000D01*
X72390000Y-125197000D02*
X69860000Y-122667000D01*
X82565000Y-112507000D02*
X77480000Y-112507000D01*
X84328000Y-110744000D02*
X82565000Y-112507000D01*
X82565000Y-117587000D02*
X77480000Y-117587000D01*
X84328000Y-115824000D02*
X82565000Y-117587000D01*
X84328000Y-127762000D02*
X77495000Y-127762000D01*
X77495000Y-127762000D02*
X77480000Y-127747000D01*
X84328000Y-130302000D02*
X77495000Y-130302000D01*
X77495000Y-130302000D02*
X77480000Y-130287000D01*
X83730558Y-164284574D02*
X83730558Y-165659212D01*
X83730558Y-165659212D02*
X82758542Y-166631228D01*
X53193012Y-139283903D02*
X54598744Y-139283903D01*
X54598744Y-139283903D02*
X55592747Y-138289900D01*
X53105305Y-99040437D02*
X54077321Y-100012453D01*
X51730667Y-99040437D02*
X53105305Y-99040437D01*
X79099979Y-69527988D02*
X79099979Y-70902626D01*
X79099979Y-70902626D02*
X80071995Y-71874642D01*
X119321458Y-68012562D02*
X119321458Y-69387199D01*
X119321458Y-69387199D02*
X118349442Y-70359215D01*
X148833906Y-95381874D02*
X147459269Y-95381874D01*
X147459269Y-95381874D02*
X146487253Y-96353890D01*
X149377317Y-134631337D02*
X150349333Y-135603353D01*
X148002680Y-134631337D02*
X149377317Y-134631337D01*
X122008005Y-164143786D02*
X122980021Y-165115802D01*
X122008005Y-162769148D02*
X122008005Y-164143786D01*
X80554000Y-149658000D02*
X80554000Y-156158000D01*
X91591520Y-127254000D02*
X91591520Y-110385980D01*
X93369520Y-129032000D02*
X91591520Y-127254000D01*
X122682000Y-129032000D02*
X93369520Y-129032000D01*
X91591520Y-110385980D02*
X91741500Y-110236000D01*
X78486000Y-155956000D02*
X78486000Y-141663391D01*
X78486000Y-141663391D02*
X75184000Y-138361391D01*
X75184000Y-138361391D02*
X75184000Y-130048000D01*
X77303235Y-157138765D02*
X78486000Y-155956000D01*
X75184000Y-102362000D02*
X75184000Y-97790000D01*
X78065234Y-164687196D02*
X77303235Y-163925197D01*
X77303235Y-163925197D02*
X77303235Y-157138765D01*
X75692000Y-94996000D02*
X81280000Y-94996000D01*
X75692000Y-85598000D02*
X75692000Y-94996000D01*
X81474213Y-80264000D02*
X79980489Y-81757724D01*
X79980489Y-91156489D02*
X81280000Y-92456000D01*
X79980489Y-81757724D02*
X79980489Y-91156489D01*
X88392000Y-80264000D02*
X81474213Y-80264000D01*
X121412000Y-132080000D02*
X123190000Y-132080000D01*
X123190000Y-132080000D02*
X124460000Y-130810000D01*
X86868000Y-108204000D02*
X86868000Y-118364000D01*
X119634000Y-154178000D02*
X119634000Y-152146000D01*
X97282000Y-147574000D02*
X97028000Y-147320000D01*
X93980000Y-109728000D02*
X92368489Y-111339511D01*
X118110000Y-147574000D02*
X97282000Y-147574000D01*
X92368489Y-126658489D02*
X92456000Y-126746000D01*
X94437980Y-141224000D02*
X97028000Y-143814020D01*
X91741500Y-140208000D02*
X91741500Y-135588500D01*
X91741500Y-135588500D02*
X96520000Y-130810000D01*
X94234000Y-141224000D02*
X94437980Y-141224000D01*
X119634000Y-152146000D02*
X118364000Y-150876000D01*
X92368489Y-111339511D02*
X92368489Y-126658489D01*
M02*
