%TF.GenerationSoftware,KiCad,Pcbnew,(6.0.5)*%
%TF.CreationDate,2022-10-17T22:26:28+09:00*%
%TF.ProjectId,kikker_PSU,6b696b6b-6572-45f5-9053-552e6b696361,rev?*%
%TF.SameCoordinates,Original*%
%TF.FileFunction,Legend,Top*%
%TF.FilePolarity,Positive*%
%FSLAX46Y46*%
G04 Gerber Fmt 4.6, Leading zero omitted, Abs format (unit mm)*
G04 Created by KiCad (PCBNEW (6.0.5)) date 2022-10-17 22:26:28*
%MOMM*%
%LPD*%
G01*
G04 APERTURE LIST*
%ADD10C,0.150000*%
%ADD11C,0.254000*%
%ADD12C,0.120000*%
%ADD13C,0.100000*%
%ADD14C,0.200000*%
G04 APERTURE END LIST*
D10*
%TO.C,R2*%
X132553333Y-96972380D02*
X132220000Y-96496190D01*
X131981904Y-96972380D02*
X131981904Y-95972380D01*
X132362857Y-95972380D01*
X132458095Y-96020000D01*
X132505714Y-96067619D01*
X132553333Y-96162857D01*
X132553333Y-96305714D01*
X132505714Y-96400952D01*
X132458095Y-96448571D01*
X132362857Y-96496190D01*
X131981904Y-96496190D01*
X132934285Y-96067619D02*
X132981904Y-96020000D01*
X133077142Y-95972380D01*
X133315238Y-95972380D01*
X133410476Y-96020000D01*
X133458095Y-96067619D01*
X133505714Y-96162857D01*
X133505714Y-96258095D01*
X133458095Y-96400952D01*
X132886666Y-96972380D01*
X133505714Y-96972380D01*
%TO.C,Q1*%
X153574761Y-77184619D02*
X153479523Y-77137000D01*
X153384285Y-77041761D01*
X153241428Y-76898904D01*
X153146190Y-76851285D01*
X153050952Y-76851285D01*
X153098571Y-77089380D02*
X153003333Y-77041761D01*
X152908095Y-76946523D01*
X152860476Y-76756047D01*
X152860476Y-76422714D01*
X152908095Y-76232238D01*
X153003333Y-76137000D01*
X153098571Y-76089380D01*
X153289047Y-76089380D01*
X153384285Y-76137000D01*
X153479523Y-76232238D01*
X153527142Y-76422714D01*
X153527142Y-76756047D01*
X153479523Y-76946523D01*
X153384285Y-77041761D01*
X153289047Y-77089380D01*
X153098571Y-77089380D01*
X154479523Y-77089380D02*
X153908095Y-77089380D01*
X154193809Y-77089380D02*
X154193809Y-76089380D01*
X154098571Y-76232238D01*
X154003333Y-76327476D01*
X153908095Y-76375095D01*
X150574761Y-86233380D02*
X150574761Y-85233380D01*
X151146190Y-86233380D02*
X150717619Y-85661952D01*
X151146190Y-85233380D02*
X150574761Y-85804809D01*
X152098571Y-86233380D02*
X151527142Y-86233380D01*
X151812857Y-86233380D02*
X151812857Y-85233380D01*
X151717619Y-85376238D01*
X151622380Y-85471476D01*
X151527142Y-85519095D01*
X153003333Y-85233380D02*
X152527142Y-85233380D01*
X152479523Y-85709571D01*
X152527142Y-85661952D01*
X152622380Y-85614333D01*
X152860476Y-85614333D01*
X152955714Y-85661952D01*
X153003333Y-85709571D01*
X153050952Y-85804809D01*
X153050952Y-86042904D01*
X153003333Y-86138142D01*
X152955714Y-86185761D01*
X152860476Y-86233380D01*
X152622380Y-86233380D01*
X152527142Y-86185761D01*
X152479523Y-86138142D01*
X153431904Y-85947666D02*
X153908095Y-85947666D01*
X153336666Y-86233380D02*
X153670000Y-85233380D01*
X154003333Y-86233380D01*
X154289047Y-85328619D02*
X154336666Y-85281000D01*
X154431904Y-85233380D01*
X154670000Y-85233380D01*
X154765238Y-85281000D01*
X154812857Y-85328619D01*
X154860476Y-85423857D01*
X154860476Y-85519095D01*
X154812857Y-85661952D01*
X154241428Y-86233380D01*
X154860476Y-86233380D01*
X155479523Y-85233380D02*
X155574761Y-85233380D01*
X155670000Y-85281000D01*
X155717619Y-85328619D01*
X155765238Y-85423857D01*
X155812857Y-85614333D01*
X155812857Y-85852428D01*
X155765238Y-86042904D01*
X155717619Y-86138142D01*
X155670000Y-86185761D01*
X155574761Y-86233380D01*
X155479523Y-86233380D01*
X155384285Y-86185761D01*
X155336666Y-86138142D01*
X155289047Y-86042904D01*
X155241428Y-85852428D01*
X155241428Y-85614333D01*
X155289047Y-85423857D01*
X155336666Y-85328619D01*
X155384285Y-85281000D01*
X155479523Y-85233380D01*
X156241428Y-86233380D02*
X156241428Y-85233380D01*
X156479523Y-85233380D01*
X156622380Y-85281000D01*
X156717619Y-85376238D01*
X156765238Y-85471476D01*
X156812857Y-85661952D01*
X156812857Y-85804809D01*
X156765238Y-85995285D01*
X156717619Y-86090523D01*
X156622380Y-86185761D01*
X156479523Y-86233380D01*
X156241428Y-86233380D01*
%TO.C,J1*%
X174452380Y-99373333D02*
X175166666Y-99373333D01*
X175309523Y-99420952D01*
X175404761Y-99516190D01*
X175452380Y-99659047D01*
X175452380Y-99754285D01*
X175452380Y-98373333D02*
X175452380Y-98944761D01*
X175452380Y-98659047D02*
X174452380Y-98659047D01*
X174595238Y-98754285D01*
X174690476Y-98849523D01*
X174738095Y-98944761D01*
%TO.C,R3*%
X140173333Y-96972380D02*
X139840000Y-96496190D01*
X139601904Y-96972380D02*
X139601904Y-95972380D01*
X139982857Y-95972380D01*
X140078095Y-96020000D01*
X140125714Y-96067619D01*
X140173333Y-96162857D01*
X140173333Y-96305714D01*
X140125714Y-96400952D01*
X140078095Y-96448571D01*
X139982857Y-96496190D01*
X139601904Y-96496190D01*
X140506666Y-95972380D02*
X141125714Y-95972380D01*
X140792380Y-96353333D01*
X140935238Y-96353333D01*
X141030476Y-96400952D01*
X141078095Y-96448571D01*
X141125714Y-96543809D01*
X141125714Y-96781904D01*
X141078095Y-96877142D01*
X141030476Y-96924761D01*
X140935238Y-96972380D01*
X140649523Y-96972380D01*
X140554285Y-96924761D01*
X140506666Y-96877142D01*
%TO.C,D1*%
X165631904Y-104212380D02*
X165631904Y-103212380D01*
X165870000Y-103212380D01*
X166012857Y-103260000D01*
X166108095Y-103355238D01*
X166155714Y-103450476D01*
X166203333Y-103640952D01*
X166203333Y-103783809D01*
X166155714Y-103974285D01*
X166108095Y-104069523D01*
X166012857Y-104164761D01*
X165870000Y-104212380D01*
X165631904Y-104212380D01*
X167155714Y-104212380D02*
X166584285Y-104212380D01*
X166870000Y-104212380D02*
X166870000Y-103212380D01*
X166774761Y-103355238D01*
X166679523Y-103450476D01*
X166584285Y-103498095D01*
X161028095Y-104932380D02*
X161028095Y-103932380D01*
X161599523Y-104932380D02*
X161170952Y-104360952D01*
X161599523Y-103932380D02*
X161028095Y-104503809D01*
%TO.C,U1*%
X160891619Y-90678095D02*
X160082095Y-90678095D01*
X159986857Y-90725714D01*
X159939238Y-90773333D01*
X159891619Y-90868571D01*
X159891619Y-91059047D01*
X159939238Y-91154285D01*
X159986857Y-91201904D01*
X160082095Y-91249523D01*
X160891619Y-91249523D01*
X159891619Y-92249523D02*
X159891619Y-91678095D01*
X159891619Y-91963809D02*
X160891619Y-91963809D01*
X160748761Y-91868571D01*
X160653523Y-91773333D01*
X160605904Y-91678095D01*
X150065714Y-92535238D02*
X148732380Y-90535238D01*
X148732380Y-92535238D02*
X150065714Y-90535238D01*
X147018095Y-90535238D02*
X147970476Y-90535238D01*
X147970476Y-92535238D01*
X145494285Y-92535238D02*
X145875238Y-92535238D01*
X146065714Y-92440000D01*
X146160952Y-92344761D01*
X146351428Y-92059047D01*
X146446666Y-91678095D01*
X146446666Y-90916190D01*
X146351428Y-90725714D01*
X146256190Y-90630476D01*
X146065714Y-90535238D01*
X145684761Y-90535238D01*
X145494285Y-90630476D01*
X145399047Y-90725714D01*
X145303809Y-90916190D01*
X145303809Y-91392380D01*
X145399047Y-91582857D01*
X145494285Y-91678095D01*
X145684761Y-91773333D01*
X146065714Y-91773333D01*
X146256190Y-91678095D01*
X146351428Y-91582857D01*
X146446666Y-91392380D01*
X144065714Y-92535238D02*
X143875238Y-92535238D01*
X143684761Y-92440000D01*
X143589523Y-92344761D01*
X143494285Y-92154285D01*
X143399047Y-91773333D01*
X143399047Y-91297142D01*
X143494285Y-90916190D01*
X143589523Y-90725714D01*
X143684761Y-90630476D01*
X143875238Y-90535238D01*
X144065714Y-90535238D01*
X144256190Y-90630476D01*
X144351428Y-90725714D01*
X144446666Y-90916190D01*
X144541904Y-91297142D01*
X144541904Y-91773333D01*
X144446666Y-92154285D01*
X144351428Y-92344761D01*
X144256190Y-92440000D01*
X144065714Y-92535238D01*
X142160952Y-92535238D02*
X141970476Y-92535238D01*
X141780000Y-92440000D01*
X141684761Y-92344761D01*
X141589523Y-92154285D01*
X141494285Y-91773333D01*
X141494285Y-91297142D01*
X141589523Y-90916190D01*
X141684761Y-90725714D01*
X141780000Y-90630476D01*
X141970476Y-90535238D01*
X142160952Y-90535238D01*
X142351428Y-90630476D01*
X142446666Y-90725714D01*
X142541904Y-90916190D01*
X142637142Y-91297142D01*
X142637142Y-91773333D01*
X142541904Y-92154285D01*
X142446666Y-92344761D01*
X142351428Y-92440000D01*
X142160952Y-92535238D01*
X140541904Y-90535238D02*
X140160952Y-90535238D01*
X139970476Y-90630476D01*
X139875238Y-90725714D01*
X139684761Y-91011428D01*
X139589523Y-91392380D01*
X139589523Y-92154285D01*
X139684761Y-92344761D01*
X139780000Y-92440000D01*
X139970476Y-92535238D01*
X140351428Y-92535238D01*
X140541904Y-92440000D01*
X140637142Y-92344761D01*
X140732380Y-92154285D01*
X140732380Y-91678095D01*
X140637142Y-91487619D01*
X140541904Y-91392380D01*
X140351428Y-91297142D01*
X139970476Y-91297142D01*
X139780000Y-91392380D01*
X139684761Y-91487619D01*
X139589523Y-91678095D01*
%TO.C,R4*%
X134786666Y-92257619D02*
X135120000Y-92733809D01*
X135358095Y-92257619D02*
X135358095Y-93257619D01*
X134977142Y-93257619D01*
X134881904Y-93210000D01*
X134834285Y-93162380D01*
X134786666Y-93067142D01*
X134786666Y-92924285D01*
X134834285Y-92829047D01*
X134881904Y-92781428D01*
X134977142Y-92733809D01*
X135358095Y-92733809D01*
X133929523Y-92924285D02*
X133929523Y-92257619D01*
X134167619Y-93305238D02*
X134405714Y-92590952D01*
X133786666Y-92590952D01*
X139413809Y-90852738D02*
X140366190Y-90852738D01*
X140461428Y-89900357D01*
X140366190Y-89995595D01*
X140175714Y-90090833D01*
X139699523Y-90090833D01*
X139509047Y-89995595D01*
X139413809Y-89900357D01*
X139318571Y-89709880D01*
X139318571Y-89233690D01*
X139413809Y-89043214D01*
X139509047Y-88947976D01*
X139699523Y-88852738D01*
X140175714Y-88852738D01*
X140366190Y-88947976D01*
X140461428Y-89043214D01*
X138651904Y-90852738D02*
X138175714Y-88852738D01*
X137794761Y-90281309D01*
X137413809Y-88852738D01*
X136937619Y-90852738D01*
X135128095Y-88852738D02*
X136270952Y-88852738D01*
X135699523Y-88852738D02*
X135699523Y-90852738D01*
X135890000Y-90567023D01*
X136080476Y-90376547D01*
X136270952Y-90281309D01*
X134366190Y-88852738D02*
X133890000Y-88852738D01*
X133890000Y-89233690D01*
X134080476Y-89328928D01*
X134270952Y-89519404D01*
X134366190Y-89805119D01*
X134366190Y-90281309D01*
X134270952Y-90567023D01*
X134080476Y-90757500D01*
X133794761Y-90852738D01*
X133413809Y-90852738D01*
X133128095Y-90757500D01*
X132937619Y-90567023D01*
X132842380Y-90281309D01*
X132842380Y-89805119D01*
X132937619Y-89519404D01*
X133128095Y-89328928D01*
X133318571Y-89233690D01*
X133318571Y-88852738D01*
X132842380Y-88852738D01*
X131413809Y-90852738D02*
X131413809Y-89424166D01*
X131509047Y-89138452D01*
X131699523Y-88947976D01*
X131985238Y-88852738D01*
X132175714Y-88852738D01*
%TO.C,J2*%
X174452380Y-89273333D02*
X175166666Y-89273333D01*
X175309523Y-89320952D01*
X175404761Y-89416190D01*
X175452380Y-89559047D01*
X175452380Y-89654285D01*
X174547619Y-88844761D02*
X174500000Y-88797142D01*
X174452380Y-88701904D01*
X174452380Y-88463809D01*
X174500000Y-88368571D01*
X174547619Y-88320952D01*
X174642857Y-88273333D01*
X174738095Y-88273333D01*
X174880952Y-88320952D01*
X175452380Y-88892380D01*
X175452380Y-88273333D01*
D11*
%TO.C,SW1*%
X163178915Y-120759839D02*
X163093388Y-120588787D01*
X162879573Y-120374971D01*
X162751283Y-120332208D01*
X162665757Y-120332208D01*
X162537468Y-120374971D01*
X162451941Y-120460498D01*
X162409178Y-120588787D01*
X162409178Y-120674313D01*
X162451941Y-120802603D01*
X162580231Y-121016418D01*
X162622994Y-121144708D01*
X162622994Y-121230234D01*
X162580231Y-121358523D01*
X162494705Y-121444049D01*
X162366415Y-121486813D01*
X162280889Y-121486813D01*
X162152600Y-121444049D01*
X161938784Y-121230234D01*
X161853258Y-121059181D01*
X161511153Y-120802603D02*
X162195363Y-119690761D01*
X161382863Y-120161156D01*
X161853258Y-119348656D01*
X160741416Y-120032866D01*
X160826943Y-118322341D02*
X161340100Y-118835499D01*
X161083521Y-118578920D02*
X160185496Y-119476946D01*
X160399311Y-119434183D01*
X160570364Y-119434183D01*
X160698653Y-119476946D01*
D10*
%TO.C,C1*%
X142957142Y-110656666D02*
X143004761Y-110704285D01*
X143052380Y-110847142D01*
X143052380Y-110942380D01*
X143004761Y-111085238D01*
X142909523Y-111180476D01*
X142814285Y-111228095D01*
X142623809Y-111275714D01*
X142480952Y-111275714D01*
X142290476Y-111228095D01*
X142195238Y-111180476D01*
X142100000Y-111085238D01*
X142052380Y-110942380D01*
X142052380Y-110847142D01*
X142100000Y-110704285D01*
X142147619Y-110656666D01*
X143052380Y-109704285D02*
X143052380Y-110275714D01*
X143052380Y-109990000D02*
X142052380Y-109990000D01*
X142195238Y-110085238D01*
X142290476Y-110180476D01*
X142338095Y-110275714D01*
%TO.C,C2*%
X160737142Y-110656666D02*
X160784761Y-110704285D01*
X160832380Y-110847142D01*
X160832380Y-110942380D01*
X160784761Y-111085238D01*
X160689523Y-111180476D01*
X160594285Y-111228095D01*
X160403809Y-111275714D01*
X160260952Y-111275714D01*
X160070476Y-111228095D01*
X159975238Y-111180476D01*
X159880000Y-111085238D01*
X159832380Y-110942380D01*
X159832380Y-110847142D01*
X159880000Y-110704285D01*
X159927619Y-110656666D01*
X159927619Y-110275714D02*
X159880000Y-110228095D01*
X159832380Y-110132857D01*
X159832380Y-109894761D01*
X159880000Y-109799523D01*
X159927619Y-109751904D01*
X160022857Y-109704285D01*
X160118095Y-109704285D01*
X160260952Y-109751904D01*
X160832380Y-110323333D01*
X160832380Y-109704285D01*
D12*
%TO.C,R2*%
X130800000Y-97440000D02*
X134640000Y-97440000D01*
X130800000Y-95600000D02*
X134640000Y-95600000D01*
%TO.C,Q1*%
X158750000Y-75621000D02*
X158750000Y-90861000D01*
X148590000Y-90861000D02*
X148590000Y-75621000D01*
X148590000Y-83241000D02*
X158750000Y-83241000D01*
X148590000Y-75621000D02*
X158750000Y-75621000D01*
X158750000Y-90861000D02*
X148590000Y-90861000D01*
G36*
X156718000Y-92385000D02*
G01*
X155702000Y-92385000D01*
X155702000Y-90861000D01*
X156718000Y-90861000D01*
X156718000Y-92385000D01*
G37*
X156718000Y-92385000D02*
X155702000Y-92385000D01*
X155702000Y-90861000D01*
X156718000Y-90861000D01*
X156718000Y-92385000D01*
G36*
X151638000Y-92385000D02*
G01*
X150622000Y-92385000D01*
X150622000Y-90861000D01*
X151638000Y-90861000D01*
X151638000Y-92385000D01*
G37*
X151638000Y-92385000D02*
X150622000Y-92385000D01*
X150622000Y-90861000D01*
X151638000Y-90861000D01*
X151638000Y-92385000D01*
G36*
X154178000Y-92385000D02*
G01*
X153162000Y-92385000D01*
X153162000Y-90861000D01*
X154178000Y-90861000D01*
X154178000Y-92385000D01*
G37*
X154178000Y-92385000D02*
X153162000Y-92385000D01*
X153162000Y-90861000D01*
X154178000Y-90861000D01*
X154178000Y-92385000D01*
%TO.C,J1*%
X171650000Y-102840000D02*
X171650000Y-102090000D01*
X173900000Y-101040000D02*
X173150000Y-101040000D01*
X173900000Y-102840000D02*
X173900000Y-101040000D01*
X173900000Y-99540000D02*
X173900000Y-98540000D01*
X173900000Y-97040000D02*
X173900000Y-95240000D01*
X173150000Y-102840000D02*
X173900000Y-102840000D01*
X171650000Y-102090000D02*
X168700000Y-102090000D01*
X173150000Y-101040000D02*
X173150000Y-102840000D01*
X173900000Y-95240000D02*
X173150000Y-95240000D01*
X171650000Y-95990000D02*
X168700000Y-95990000D01*
X174200000Y-94940000D02*
X172950000Y-94940000D01*
X173150000Y-97040000D02*
X173900000Y-97040000D01*
X173910000Y-102850000D02*
X173910000Y-95230000D01*
X173150000Y-98540000D02*
X173150000Y-99540000D01*
X173910000Y-95230000D02*
X167940000Y-95230000D01*
X171650000Y-95240000D02*
X171650000Y-95990000D01*
X173900000Y-98540000D02*
X173150000Y-98540000D01*
X173150000Y-99540000D02*
X173900000Y-99540000D01*
X168700000Y-102090000D02*
X168700000Y-99040000D01*
X173150000Y-95240000D02*
X173150000Y-97040000D01*
X167940000Y-95230000D02*
X167940000Y-102850000D01*
X167940000Y-102850000D02*
X173910000Y-102850000D01*
X174200000Y-96190000D02*
X174200000Y-94940000D01*
X168700000Y-95990000D02*
X168700000Y-99040000D01*
%TO.C,R3*%
X142260000Y-95600000D02*
X138420000Y-95600000D01*
X142260000Y-97440000D02*
X138420000Y-97440000D01*
%TO.C,D1*%
X163710000Y-104760000D02*
X163710000Y-108600000D01*
X162450000Y-104760000D02*
X170290000Y-104760000D01*
X162450000Y-105240000D02*
X162450000Y-104760000D01*
X162450000Y-108600000D02*
X170290000Y-108600000D01*
X170290000Y-104760000D02*
X170290000Y-105240000D01*
X162450000Y-108120000D02*
X162450000Y-108600000D01*
X163830000Y-104760000D02*
X163830000Y-108600000D01*
X163590000Y-104760000D02*
X163590000Y-108600000D01*
X170290000Y-108600000D02*
X170290000Y-108120000D01*
%TO.C,U1*%
X165100000Y-82550000D02*
X124460000Y-82550000D01*
X124460000Y-82550000D02*
X124460000Y-100330000D01*
X124460000Y-100330000D02*
X165100000Y-100330000D01*
X165100000Y-100330000D02*
X165100000Y-82550000D01*
%TO.C,R4*%
X125730000Y-94202500D02*
X146050000Y-94202500D01*
X125730000Y-85312500D02*
X125730000Y-94202500D01*
X146050000Y-85312500D02*
X146050000Y-94202500D01*
X146050000Y-85312500D02*
X125730000Y-85312500D01*
%TO.C,J2*%
X173900000Y-87190000D02*
X173150000Y-87190000D01*
X168700000Y-84640000D02*
X168700000Y-88940000D01*
X173150000Y-93990000D02*
X173900000Y-93990000D01*
X173900000Y-83890000D02*
X173150000Y-83890000D01*
X171650000Y-93990000D02*
X171650000Y-93240000D01*
X171650000Y-84640000D02*
X168700000Y-84640000D01*
X173150000Y-90690000D02*
X173900000Y-90690000D01*
X167940000Y-94000000D02*
X173910000Y-94000000D01*
X173900000Y-92190000D02*
X173150000Y-92190000D01*
X173910000Y-94000000D02*
X173910000Y-83880000D01*
X167940000Y-83880000D02*
X167940000Y-94000000D01*
X174200000Y-83590000D02*
X172950000Y-83590000D01*
X173900000Y-93990000D02*
X173900000Y-92190000D01*
X173150000Y-92190000D02*
X173150000Y-93990000D01*
X168700000Y-93240000D02*
X168700000Y-88940000D01*
X173900000Y-90690000D02*
X173900000Y-87190000D01*
X173150000Y-83890000D02*
X173150000Y-85690000D01*
X173150000Y-87190000D02*
X173150000Y-90690000D01*
X174200000Y-84840000D02*
X174200000Y-83590000D01*
X173900000Y-85690000D02*
X173900000Y-83890000D01*
X171650000Y-93240000D02*
X168700000Y-93240000D01*
X171650000Y-83890000D02*
X171650000Y-84640000D01*
X173910000Y-83880000D02*
X167940000Y-83880000D01*
X173150000Y-85690000D02*
X173900000Y-85690000D01*
D13*
%TO.C,SW1*%
X160737713Y-124794389D02*
X166486492Y-119045611D01*
X166486492Y-119045611D02*
X162894389Y-115453508D01*
D14*
X157827969Y-119727969D02*
X157827969Y-119727969D01*
X157827969Y-119727969D02*
X157827969Y-119727969D01*
D13*
X157145611Y-121202287D02*
X160737713Y-124794389D01*
X162894389Y-115453508D02*
X157145611Y-121202287D01*
D14*
X157898680Y-119798680D02*
X157898680Y-119798680D01*
X157827968Y-119727968D02*
G75*
G03*
X157898680Y-119798680I35356J-35356D01*
G01*
X157898679Y-119798679D02*
G75*
G03*
X157827969Y-119727969I-35355J35355D01*
G01*
X157827968Y-119727968D02*
G75*
G03*
X157898680Y-119798680I35356J-35356D01*
G01*
D12*
%TO.C,C1*%
X141470000Y-110490000D02*
G75*
G03*
X141470000Y-110490000I-8120000J0D01*
G01*
%TO.C,C2*%
X159250000Y-110490000D02*
G75*
G03*
X159250000Y-110490000I-8120000J0D01*
G01*
%TD*%
M02*
