%TF.GenerationSoftware,KiCad,Pcbnew,(6.0.5)*%
%TF.CreationDate,2022-10-18T17:48:47+09:00*%
%TF.ProjectId,line_sensor_right,6c696e65-5f73-4656-9e73-6f725f726967,rev?*%
%TF.SameCoordinates,Original*%
%TF.FileFunction,Legend,Top*%
%TF.FilePolarity,Positive*%
%FSLAX46Y46*%
G04 Gerber Fmt 4.6, Leading zero omitted, Abs format (unit mm)*
G04 Created by KiCad (PCBNEW (6.0.5)) date 2022-10-18 17:48:47*
%MOMM*%
%LPD*%
G01*
G04 APERTURE LIST*
%ADD10C,0.120000*%
G04 APERTURE END LIST*
D10*
%TO.C,D6*%
X160315000Y-70832000D02*
X160315000Y-70676000D01*
X160315000Y-68516000D02*
X160315000Y-68360000D01*
X159795961Y-68516000D02*
G75*
G03*
X157713870Y-68516163I-1040961J-1080000D01*
G01*
X157713870Y-70675837D02*
G75*
G03*
X159795961Y-70676000I1041130J1079837D01*
G01*
X160315000Y-68360484D02*
G75*
G03*
X157082665Y-68517392I-1560000J-1235516D01*
G01*
X157082665Y-70674608D02*
G75*
G03*
X160315000Y-70831516I1672335J1078608D01*
G01*
%TO.C,D3*%
X181378135Y-118523656D02*
X181461954Y-118392087D01*
X182622521Y-116570361D02*
X182706340Y-116438792D01*
X178736577Y-116654180D02*
G75*
G03*
X181378395Y-118523248I1989970J11144D01*
G01*
X182706080Y-116439200D02*
G75*
G03*
X179895649Y-114834803I-1979533J-203836D01*
G01*
X182184768Y-116291482D02*
G75*
G03*
X180428663Y-115172912I-1458221J-351554D01*
G01*
X179268271Y-116994363D02*
G75*
G03*
X181024201Y-118113207I1458276J351327D01*
G01*
%TO.C,D5*%
X160315000Y-96456000D02*
X160315000Y-96300000D01*
X160315000Y-98772000D02*
X160315000Y-98616000D01*
X157082665Y-98614608D02*
G75*
G03*
X160315000Y-98771516I1672335J1078608D01*
G01*
X159795961Y-96456000D02*
G75*
G03*
X157713870Y-96456163I-1040961J-1080000D01*
G01*
X157713870Y-98615837D02*
G75*
G03*
X159795961Y-98616000I1041130J1079837D01*
G01*
X160315000Y-96300484D02*
G75*
G03*
X157082665Y-96457392I-1560000J-1235516D01*
G01*
%TO.C,D7*%
X160315000Y-56862000D02*
X160315000Y-56706000D01*
X160315000Y-54546000D02*
X160315000Y-54390000D01*
X157713870Y-56705837D02*
G75*
G03*
X159795961Y-56706000I1041130J1079837D01*
G01*
X159795961Y-54546000D02*
G75*
G03*
X157713870Y-54546163I-1040961J-1080000D01*
G01*
X157082665Y-56704608D02*
G75*
G03*
X160315000Y-56861516I1672335J1078608D01*
G01*
X160315000Y-54390484D02*
G75*
G03*
X157082665Y-54547392I-1560000J-1235516D01*
G01*
%TO.C,U1*%
X143647998Y-111679364D02*
X148492881Y-110151778D01*
X148492881Y-110151778D02*
X149256673Y-112574219D01*
X149256673Y-112574219D02*
X144411791Y-114101805D01*
X144411791Y-114101805D02*
X143647998Y-111679364D01*
X144029895Y-112890584D02*
X146452336Y-112126792D01*
X146452336Y-112126792D02*
X146834232Y-113338012D01*
X146834232Y-113338012D02*
X144411791Y-114101805D01*
X144411791Y-114101805D02*
X144029895Y-112890584D01*
%TO.C,D1*%
X138761680Y-116841908D02*
X138677861Y-116710339D01*
X137517294Y-114888613D02*
X137433475Y-114757044D01*
X136484003Y-118107788D02*
G75*
G03*
X138240108Y-116989218I297884J1470124D01*
G01*
X135950989Y-118445897D02*
G75*
G03*
X138761420Y-116841500I830898J1808233D01*
G01*
X137433735Y-114757453D02*
G75*
G03*
X134791918Y-116626520I-651848J-1880211D01*
G01*
X137079541Y-115167493D02*
G75*
G03*
X135323611Y-116286337I-297654J-1470171D01*
G01*
%TO.C,U3*%
X168625223Y-111362999D02*
X171047664Y-112126792D01*
X171047664Y-112126792D02*
X170665768Y-113338012D01*
X170665768Y-113338012D02*
X168243327Y-112574219D01*
X168243327Y-112574219D02*
X168625223Y-111362999D01*
X169007119Y-110151778D02*
X173852002Y-111679364D01*
X173852002Y-111679364D02*
X173088209Y-114101805D01*
X173088209Y-114101805D02*
X168243326Y-112574219D01*
X168243326Y-112574219D02*
X169007119Y-110151778D01*
%TO.C,U7*%
X157478000Y-65024000D02*
X160018000Y-65024000D01*
X160018000Y-65024000D02*
X160018000Y-59944000D01*
X160018000Y-59944000D02*
X157478000Y-59944000D01*
X157478000Y-59944000D02*
X157478000Y-65024000D01*
X158748000Y-65024000D02*
X160018000Y-65024000D01*
X160018000Y-65024000D02*
X160018000Y-62484000D01*
X160018000Y-62484000D02*
X158748000Y-62484000D01*
X158748000Y-62484000D02*
X158748000Y-65024000D01*
%TO.C,U6*%
X158748000Y-78994000D02*
X160018000Y-78994000D01*
X160018000Y-78994000D02*
X160018000Y-76454000D01*
X160018000Y-76454000D02*
X158748000Y-76454000D01*
X158748000Y-76454000D02*
X158748000Y-78994000D01*
X157478000Y-78994000D02*
X160018000Y-78994000D01*
X160018000Y-78994000D02*
X160018000Y-73914000D01*
X160018000Y-73914000D02*
X157478000Y-73914000D01*
X157478000Y-73914000D02*
X157478000Y-78994000D01*
%TO.C,J1*%
X154045000Y-114025000D02*
X154045000Y-120025000D01*
X153285000Y-120025000D02*
X153285000Y-114025000D01*
X162555000Y-111365000D02*
X162555000Y-114025000D01*
X152335000Y-111365000D02*
X152335000Y-114025000D01*
X163545000Y-114025000D02*
X163545000Y-120025000D01*
X164205000Y-114025000D02*
X164205000Y-120025000D01*
X164205000Y-120025000D02*
X163445000Y-120025000D01*
X154045000Y-120025000D02*
X153285000Y-120025000D01*
X163445000Y-120025000D02*
X163445000Y-114025000D01*
X163905000Y-114025000D02*
X163905000Y-120025000D01*
X163665000Y-114025000D02*
X163665000Y-120025000D01*
X161665000Y-114025000D02*
X161665000Y-120025000D01*
X158365000Y-110967929D02*
X158365000Y-111365000D01*
X164025000Y-114025000D02*
X164025000Y-120025000D01*
X156585000Y-110967929D02*
X156585000Y-111365000D01*
X163825000Y-108655000D02*
X165095000Y-108655000D01*
X163785000Y-114025000D02*
X163785000Y-120025000D01*
X165155000Y-114025000D02*
X165155000Y-111365000D01*
X159125000Y-120025000D02*
X158365000Y-120025000D01*
X156585000Y-114025000D02*
X156585000Y-120025000D01*
X165155000Y-111365000D02*
X152335000Y-111365000D01*
X155825000Y-110967929D02*
X155825000Y-111365000D01*
X159125000Y-110967929D02*
X159125000Y-111365000D01*
X163445000Y-111035000D02*
X163445000Y-111365000D01*
X152335000Y-114025000D02*
X165155000Y-114025000D01*
X160905000Y-120025000D02*
X160905000Y-114025000D01*
X158365000Y-120025000D02*
X158365000Y-114025000D01*
X160905000Y-110967929D02*
X160905000Y-111365000D01*
X155825000Y-120025000D02*
X155825000Y-114025000D01*
X160015000Y-111365000D02*
X160015000Y-114025000D01*
X154045000Y-110967929D02*
X154045000Y-111365000D01*
X164145000Y-114025000D02*
X164145000Y-120025000D01*
X156585000Y-120025000D02*
X155825000Y-120025000D01*
X165095000Y-108655000D02*
X165095000Y-109925000D01*
X154935000Y-111365000D02*
X154935000Y-114025000D01*
X161665000Y-110967929D02*
X161665000Y-111365000D01*
X161665000Y-120025000D02*
X160905000Y-120025000D01*
X164205000Y-111035000D02*
X164205000Y-111365000D01*
X159125000Y-114025000D02*
X159125000Y-120025000D01*
X153285000Y-110967929D02*
X153285000Y-111365000D01*
X157475000Y-111365000D02*
X157475000Y-114025000D01*
%TO.C,U4*%
X158748000Y-92964000D02*
X160018000Y-92964000D01*
X160018000Y-92964000D02*
X160018000Y-90424000D01*
X160018000Y-90424000D02*
X158748000Y-90424000D01*
X158748000Y-90424000D02*
X158748000Y-92964000D01*
X157478000Y-92964000D02*
X160018000Y-92964000D01*
X160018000Y-92964000D02*
X160018000Y-87884000D01*
X160018000Y-87884000D02*
X157478000Y-87884000D01*
X157478000Y-87884000D02*
X157478000Y-92964000D01*
%TO.C,D4*%
X160315000Y-84802000D02*
X160315000Y-84646000D01*
X160315000Y-82486000D02*
X160315000Y-82330000D01*
X157713870Y-84645837D02*
G75*
G03*
X159795961Y-84646000I1041130J1079837D01*
G01*
X160315000Y-82330484D02*
G75*
G03*
X157082665Y-82487392I-1560000J-1235516D01*
G01*
X159795961Y-82486000D02*
G75*
G03*
X157713870Y-82486163I-1040961J-1080000D01*
G01*
X157082665Y-84644608D02*
G75*
G03*
X160315000Y-84801516I1672335J1078608D01*
G01*
%TO.C,U5*%
X157478000Y-106934000D02*
X160018000Y-106934000D01*
X160018000Y-106934000D02*
X160018000Y-101854000D01*
X160018000Y-101854000D02*
X157478000Y-101854000D01*
X157478000Y-101854000D02*
X157478000Y-106934000D01*
X158748000Y-106934000D02*
X160018000Y-106934000D01*
X160018000Y-106934000D02*
X160018000Y-104394000D01*
X160018000Y-104394000D02*
X158748000Y-104394000D01*
X158748000Y-104394000D02*
X158748000Y-106934000D01*
%TD*%
M02*
