%FSLAX45Y45*%
G04 Gerber Fmt 4.5, Leading zero omitted, Abs format (unit mm)*
G04 Created by KiCad (PCBNEW (6.0.5)) date 2022-10-18 17:48:54*
%MOMM*%
%LPD*%
G01*
G04 APERTURE LIST*
%TA.AperFunction,Profile*%
%ADD10C,0.200000*%
%TD*%
%ADD11C,0.200000*%
%ADD12C,0.040000*%
%ADD13C,0.076200*%
%ADD14C,0.090000*%
%ADD15C,0.100000*%
G04 APERTURE END LIST*
D10*
X15474961Y-4931961D02*
X15474961Y-10468455D01*
X13169650Y-12262153D02*
G75*
G03*
X12991047Y-12073686I-174480J13513D01*
G01*
X15300494Y-10666824D02*
G75*
G03*
X15474961Y-10468455I-25544J198374D01*
G01*
X15671040Y-4732000D02*
G75*
G03*
X15474961Y-4931961I3920J-199960D01*
G01*
X13169649Y-12262153D02*
G75*
G03*
X13402776Y-12377128I139581J-10817D01*
G01*
X18759139Y-12074075D02*
G75*
G03*
X18580341Y-12262353I-4309J-174945D01*
G01*
X16049961Y-4980000D02*
G75*
G03*
X16049961Y-4980000I-175000J0D01*
G01*
X18347203Y-12377180D02*
G75*
G03*
X13402776Y-12377128I-2472242J-2752820D01*
G01*
X16078883Y-4731999D02*
X15671040Y-4731999D01*
X18347206Y-12377178D02*
G75*
G03*
X18580341Y-12262353I93545J104158D01*
G01*
X15300493Y-10666819D02*
G75*
G03*
X12873654Y-11777067I574467J-4463181D01*
G01*
X18759139Y-12074067D02*
G75*
G03*
X18876722Y-11777473I4181J169947D01*
G01*
X16274961Y-10468455D02*
X16274961Y-4931961D01*
X16274965Y-10468455D02*
G75*
G03*
X16449429Y-10666819I199995J-5D01*
G01*
X16274959Y-4931961D02*
G75*
G03*
X16078883Y-4731999I-199999J1D01*
G01*
X18876721Y-11777474D02*
G75*
G03*
X16449429Y-10666819I-3001761J-3352526D01*
G01*
X12873652Y-11777064D02*
G75*
G03*
X12991047Y-12073686I113388J-126666D01*
G01*
D11*
D12*
X13162600Y-11765600D02*
X13202600Y-11805600D01*
X13202600Y-11765600D02*
X13162600Y-11805600D01*
X13416600Y-12095800D02*
X13456600Y-12135800D01*
X13456600Y-12095800D02*
X13416600Y-12135800D01*
X14102400Y-11384600D02*
X14142400Y-11424600D01*
X14142400Y-11384600D02*
X14102400Y-11424600D01*
X14559600Y-10978200D02*
X14599600Y-11018200D01*
X14599600Y-10978200D02*
X14559600Y-11018200D01*
X15093000Y-10978200D02*
X15133000Y-11018200D01*
X15133000Y-10978200D02*
X15093000Y-11018200D01*
X15601000Y-5822000D02*
X15641000Y-5862000D01*
X15641000Y-5822000D02*
X15601000Y-5862000D01*
X15651800Y-5237800D02*
X15691800Y-5277800D01*
X15691800Y-5237800D02*
X15651800Y-5277800D01*
X15702600Y-10495600D02*
X15742600Y-10535600D01*
X15742600Y-10495600D02*
X15702600Y-10535600D01*
X16083600Y-6685600D02*
X16123600Y-6725600D01*
X16123600Y-6685600D02*
X16083600Y-6725600D01*
X16083600Y-8082600D02*
X16123600Y-8122600D01*
X16123600Y-8082600D02*
X16083600Y-8122600D01*
X16083600Y-9479600D02*
X16123600Y-9519600D01*
X16123600Y-9479600D02*
X16083600Y-9519600D01*
X16109000Y-5237800D02*
X16149000Y-5277800D01*
X16149000Y-5237800D02*
X16109000Y-5277800D01*
X16134400Y-10343200D02*
X16174400Y-10383200D01*
X16174400Y-10343200D02*
X16134400Y-10383200D01*
X16159800Y-10724200D02*
X16199800Y-10764200D01*
X16199800Y-10724200D02*
X16159800Y-10764200D01*
X16363000Y-11308400D02*
X16403000Y-11348400D01*
X16403000Y-11308400D02*
X16363000Y-11348400D01*
X16591600Y-11003600D02*
X16631600Y-11043600D01*
X16631600Y-11003600D02*
X16591600Y-11043600D01*
X17023400Y-11410000D02*
X17063400Y-11450000D01*
X17063400Y-11410000D02*
X17023400Y-11450000D01*
D13*
X14402900Y-11167936D02*
G75*
G03*
X14402900Y-11167936I-38100J0D01*
G01*
X14479279Y-11410180D02*
G75*
G03*
X14479279Y-11410180I-38100J0D01*
G01*
X14887388Y-11015178D02*
G75*
G03*
X14887388Y-11015178I-38100J0D01*
G01*
X14963767Y-11257422D02*
G75*
G03*
X14963767Y-11257422I-38100J0D01*
G01*
X15785900Y-5994400D02*
G75*
G03*
X15785900Y-5994400I-38100J0D01*
G01*
X15785900Y-6502400D02*
G75*
G03*
X15785900Y-6502400I-38100J0D01*
G01*
X15785900Y-7391400D02*
G75*
G03*
X15785900Y-7391400I-38100J0D01*
G01*
X15785900Y-7899400D02*
G75*
G03*
X15785900Y-7899400I-38100J0D01*
G01*
X15785900Y-8788400D02*
G75*
G03*
X15785900Y-8788400I-38100J0D01*
G01*
X15785900Y-9296400D02*
G75*
G03*
X15785900Y-9296400I-38100J0D01*
G01*
X15785900Y-10185400D02*
G75*
G03*
X15785900Y-10185400I-38100J0D01*
G01*
X15785900Y-10693400D02*
G75*
G03*
X15785900Y-10693400I-38100J0D01*
G01*
X16039900Y-5994400D02*
G75*
G03*
X16039900Y-5994400I-38100J0D01*
G01*
X16039900Y-6502400D02*
G75*
G03*
X16039900Y-6502400I-38100J0D01*
G01*
X16039900Y-7391400D02*
G75*
G03*
X16039900Y-7391400I-38100J0D01*
G01*
X16039900Y-7899400D02*
G75*
G03*
X16039900Y-7899400I-38100J0D01*
G01*
X16039900Y-8788400D02*
G75*
G03*
X16039900Y-8788400I-38100J0D01*
G01*
X16039900Y-9296400D02*
G75*
G03*
X16039900Y-9296400I-38100J0D01*
G01*
X16039900Y-10185400D02*
G75*
G03*
X16039900Y-10185400I-38100J0D01*
G01*
X16039900Y-10693400D02*
G75*
G03*
X16039900Y-10693400I-38100J0D01*
G01*
X16862433Y-11257422D02*
G75*
G03*
X16862433Y-11257422I-38100J0D01*
G01*
X16938812Y-11015178D02*
G75*
G03*
X16938812Y-11015178I-38100J0D01*
G01*
X17346921Y-11410180D02*
G75*
G03*
X17346921Y-11410180I-38100J0D01*
G01*
X17423300Y-11167936D02*
G75*
G03*
X17423300Y-11167936I-38100J0D01*
G01*
D14*
X13571078Y-11687003D02*
X13571078Y-11777003D01*
X13526078Y-11732003D02*
X13616078Y-11732003D01*
X13785299Y-11550529D02*
X13785299Y-11640529D01*
X13740299Y-11595529D02*
X13830299Y-11595529D01*
X15748500Y-5517600D02*
X15748500Y-5607600D01*
X15703500Y-5562600D02*
X15793500Y-5562600D01*
X15748500Y-6914600D02*
X15748500Y-7004600D01*
X15703500Y-6959600D02*
X15793500Y-6959600D01*
X15748500Y-8311600D02*
X15748500Y-8401600D01*
X15703500Y-8356600D02*
X15793500Y-8356600D01*
X15748500Y-9708600D02*
X15748500Y-9798600D01*
X15703500Y-9753600D02*
X15793500Y-9753600D01*
X16002500Y-5517600D02*
X16002500Y-5607600D01*
X15957500Y-5562600D02*
X16047500Y-5562600D01*
X16002500Y-6914600D02*
X16002500Y-7004600D01*
X15957500Y-6959600D02*
X16047500Y-6959600D01*
X16002500Y-8311600D02*
X16002500Y-8401600D01*
X15957500Y-8356600D02*
X16047500Y-8356600D01*
X16002500Y-9708600D02*
X16002500Y-9798600D01*
X15957500Y-9753600D02*
X16047500Y-9753600D01*
X17965544Y-11551067D02*
X17965544Y-11641067D01*
X17920544Y-11596067D02*
X18010544Y-11596067D01*
X18179765Y-11687541D02*
X18179765Y-11777541D01*
X18134765Y-11732541D02*
X18224765Y-11732541D01*
D15*
X15401856Y-11027856D02*
X15401856Y-10957144D01*
X15331144Y-10957144D01*
X15331144Y-11027856D01*
X15401856Y-11027856D01*
X15655856Y-11027856D02*
X15655856Y-10957144D01*
X15585144Y-10957144D01*
X15585144Y-11027856D01*
X15655856Y-11027856D01*
X15909856Y-11027856D02*
X15909856Y-10957144D01*
X15839144Y-10957144D01*
X15839144Y-11027856D01*
X15909856Y-11027856D01*
X16163856Y-11027856D02*
X16163856Y-10957144D01*
X16093144Y-10957144D01*
X16093144Y-11027856D01*
X16163856Y-11027856D01*
X16417856Y-11027856D02*
X16417856Y-10957144D01*
X16347144Y-10957144D01*
X16347144Y-11027856D01*
X16417856Y-11027856D01*
D11*
X13064655Y-12733494D02*
X13064655Y-12533494D01*
X13112274Y-12533494D01*
X13140846Y-12543018D01*
X13159894Y-12562066D01*
X13169417Y-12581113D01*
X13178941Y-12619208D01*
X13178941Y-12647780D01*
X13169417Y-12685875D01*
X13159894Y-12704923D01*
X13140846Y-12723970D01*
X13112274Y-12733494D01*
X13064655Y-12733494D01*
X13264655Y-12733494D02*
X13264655Y-12600161D01*
X13264655Y-12638256D02*
X13274179Y-12619208D01*
X13283703Y-12609685D01*
X13302751Y-12600161D01*
X13321798Y-12600161D01*
X13388465Y-12733494D02*
X13388465Y-12600161D01*
X13388465Y-12533494D02*
X13378941Y-12543018D01*
X13388465Y-12552542D01*
X13397989Y-12543018D01*
X13388465Y-12533494D01*
X13388465Y-12552542D01*
X13512274Y-12733494D02*
X13493227Y-12723970D01*
X13483703Y-12704923D01*
X13483703Y-12533494D01*
X13617036Y-12733494D02*
X13597989Y-12723970D01*
X13588465Y-12704923D01*
X13588465Y-12533494D01*
X13845608Y-12733494D02*
X13845608Y-12533494D01*
X13912274Y-12676351D01*
X13978941Y-12533494D01*
X13978941Y-12733494D01*
X14159894Y-12733494D02*
X14159894Y-12628732D01*
X14150370Y-12609685D01*
X14131322Y-12600161D01*
X14093227Y-12600161D01*
X14074179Y-12609685D01*
X14159894Y-12723970D02*
X14140846Y-12733494D01*
X14093227Y-12733494D01*
X14074179Y-12723970D01*
X14064655Y-12704923D01*
X14064655Y-12685875D01*
X14074179Y-12666828D01*
X14093227Y-12657304D01*
X14140846Y-12657304D01*
X14159894Y-12647780D01*
X14255132Y-12600161D02*
X14255132Y-12800161D01*
X14255132Y-12609685D02*
X14274179Y-12600161D01*
X14312274Y-12600161D01*
X14331322Y-12609685D01*
X14340846Y-12619208D01*
X14350370Y-12638256D01*
X14350370Y-12695399D01*
X14340846Y-12714447D01*
X14331322Y-12723970D01*
X14312274Y-12733494D01*
X14274179Y-12733494D01*
X14255132Y-12723970D01*
X14436084Y-12714447D02*
X14445608Y-12723970D01*
X14436084Y-12733494D01*
X14426560Y-12723970D01*
X14436084Y-12714447D01*
X14436084Y-12733494D01*
X14436084Y-12609685D02*
X14445608Y-12619208D01*
X14436084Y-12628732D01*
X14426560Y-12619208D01*
X14436084Y-12609685D01*
X14436084Y-12628732D01*
D12*
X12767036Y-13043018D02*
X12807036Y-13083018D01*
X12807036Y-13043018D02*
X12767036Y-13083018D01*
D11*
X13102751Y-12953494D02*
X13121798Y-12953494D01*
X13140846Y-12963018D01*
X13150370Y-12972542D01*
X13159894Y-12991589D01*
X13169417Y-13029685D01*
X13169417Y-13077304D01*
X13159894Y-13115399D01*
X13150370Y-13134447D01*
X13140846Y-13143970D01*
X13121798Y-13153494D01*
X13102751Y-13153494D01*
X13083703Y-13143970D01*
X13074179Y-13134447D01*
X13064655Y-13115399D01*
X13055132Y-13077304D01*
X13055132Y-13029685D01*
X13064655Y-12991589D01*
X13074179Y-12972542D01*
X13083703Y-12963018D01*
X13102751Y-12953494D01*
X13255132Y-13134447D02*
X13264655Y-13143970D01*
X13255132Y-13153494D01*
X13245608Y-13143970D01*
X13255132Y-13134447D01*
X13255132Y-13153494D01*
X13436084Y-13020161D02*
X13436084Y-13153494D01*
X13388465Y-12943970D02*
X13340846Y-13086828D01*
X13464655Y-13086828D01*
X13578941Y-12953494D02*
X13597989Y-12953494D01*
X13617036Y-12963018D01*
X13626560Y-12972542D01*
X13636084Y-12991589D01*
X13645608Y-13029685D01*
X13645608Y-13077304D01*
X13636084Y-13115399D01*
X13626560Y-13134447D01*
X13617036Y-13143970D01*
X13597989Y-13153494D01*
X13578941Y-13153494D01*
X13559894Y-13143970D01*
X13550370Y-13134447D01*
X13540846Y-13115399D01*
X13531322Y-13077304D01*
X13531322Y-13029685D01*
X13540846Y-12991589D01*
X13550370Y-12972542D01*
X13559894Y-12963018D01*
X13578941Y-12953494D01*
X13769417Y-12953494D02*
X13788465Y-12953494D01*
X13807513Y-12963018D01*
X13817036Y-12972542D01*
X13826560Y-12991589D01*
X13836084Y-13029685D01*
X13836084Y-13077304D01*
X13826560Y-13115399D01*
X13817036Y-13134447D01*
X13807513Y-13143970D01*
X13788465Y-13153494D01*
X13769417Y-13153494D01*
X13750370Y-13143970D01*
X13740846Y-13134447D01*
X13731322Y-13115399D01*
X13721798Y-13077304D01*
X13721798Y-13029685D01*
X13731322Y-12991589D01*
X13740846Y-12972542D01*
X13750370Y-12963018D01*
X13769417Y-12953494D01*
X13921798Y-13153494D02*
X13921798Y-13020161D01*
X13921798Y-13039208D02*
X13931322Y-13029685D01*
X13950370Y-13020161D01*
X13978941Y-13020161D01*
X13997989Y-13029685D01*
X14007513Y-13048732D01*
X14007513Y-13153494D01*
X14007513Y-13048732D02*
X14017036Y-13029685D01*
X14036084Y-13020161D01*
X14064655Y-13020161D01*
X14083703Y-13029685D01*
X14093227Y-13048732D01*
X14093227Y-13153494D01*
X14188465Y-13153494D02*
X14188465Y-13020161D01*
X14188465Y-13039208D02*
X14197989Y-13029685D01*
X14217036Y-13020161D01*
X14245608Y-13020161D01*
X14264655Y-13029685D01*
X14274179Y-13048732D01*
X14274179Y-13153494D01*
X14274179Y-13048732D02*
X14283703Y-13029685D01*
X14302751Y-13020161D01*
X14331322Y-13020161D01*
X14350370Y-13029685D01*
X14359894Y-13048732D01*
X14359894Y-13153494D01*
X14750370Y-12943970D02*
X14578941Y-13201113D01*
X15007513Y-12953494D02*
X15026560Y-12953494D01*
X15045608Y-12963018D01*
X15055132Y-12972542D01*
X15064655Y-12991589D01*
X15074179Y-13029685D01*
X15074179Y-13077304D01*
X15064655Y-13115399D01*
X15055132Y-13134447D01*
X15045608Y-13143970D01*
X15026560Y-13153494D01*
X15007513Y-13153494D01*
X14988465Y-13143970D01*
X14978941Y-13134447D01*
X14969417Y-13115399D01*
X14959894Y-13077304D01*
X14959894Y-13029685D01*
X14969417Y-12991589D01*
X14978941Y-12972542D01*
X14988465Y-12963018D01*
X15007513Y-12953494D01*
X15159894Y-13134447D02*
X15169417Y-13143970D01*
X15159894Y-13153494D01*
X15150370Y-13143970D01*
X15159894Y-13134447D01*
X15159894Y-13153494D01*
X15293227Y-12953494D02*
X15312274Y-12953494D01*
X15331322Y-12963018D01*
X15340846Y-12972542D01*
X15350370Y-12991589D01*
X15359894Y-13029685D01*
X15359894Y-13077304D01*
X15350370Y-13115399D01*
X15340846Y-13134447D01*
X15331322Y-13143970D01*
X15312274Y-13153494D01*
X15293227Y-13153494D01*
X15274179Y-13143970D01*
X15264655Y-13134447D01*
X15255132Y-13115399D01*
X15245608Y-13077304D01*
X15245608Y-13029685D01*
X15255132Y-12991589D01*
X15264655Y-12972542D01*
X15274179Y-12963018D01*
X15293227Y-12953494D01*
X15550370Y-13153494D02*
X15436084Y-13153494D01*
X15493227Y-13153494D02*
X15493227Y-12953494D01*
X15474179Y-12982066D01*
X15455132Y-13001113D01*
X15436084Y-13010637D01*
X15731322Y-12953494D02*
X15636084Y-12953494D01*
X15626560Y-13048732D01*
X15636084Y-13039208D01*
X15655132Y-13029685D01*
X15702751Y-13029685D01*
X15721798Y-13039208D01*
X15731322Y-13048732D01*
X15740846Y-13067780D01*
X15740846Y-13115399D01*
X15731322Y-13134447D01*
X15721798Y-13143970D01*
X15702751Y-13153494D01*
X15655132Y-13153494D01*
X15636084Y-13143970D01*
X15626560Y-13134447D01*
X15807513Y-12953494D02*
X15940846Y-12953494D01*
X15855132Y-13153494D01*
X16007513Y-12953494D02*
X16007513Y-12991589D01*
X16083703Y-12953494D02*
X16083703Y-12991589D01*
X16378941Y-13229685D02*
X16369417Y-13220161D01*
X16350370Y-13191589D01*
X16340846Y-13172542D01*
X16331322Y-13143970D01*
X16321798Y-13096351D01*
X16321798Y-13058256D01*
X16331322Y-13010637D01*
X16340846Y-12982066D01*
X16350370Y-12963018D01*
X16369417Y-12934447D01*
X16378941Y-12924923D01*
X16559894Y-13153494D02*
X16445608Y-13153494D01*
X16502751Y-13153494D02*
X16502751Y-12953494D01*
X16483703Y-12982066D01*
X16464655Y-13001113D01*
X16445608Y-13010637D01*
X16626560Y-12953494D02*
X16759894Y-12953494D01*
X16674179Y-13153494D01*
X16988465Y-13153494D02*
X16988465Y-12953494D01*
X17074179Y-13153494D02*
X17074179Y-13048732D01*
X17064656Y-13029685D01*
X17045608Y-13020161D01*
X17017036Y-13020161D01*
X16997989Y-13029685D01*
X16988465Y-13039208D01*
X17197989Y-13153494D02*
X17178941Y-13143970D01*
X17169417Y-13134447D01*
X17159894Y-13115399D01*
X17159894Y-13058256D01*
X17169417Y-13039208D01*
X17178941Y-13029685D01*
X17197989Y-13020161D01*
X17226560Y-13020161D01*
X17245608Y-13029685D01*
X17255132Y-13039208D01*
X17264656Y-13058256D01*
X17264656Y-13115399D01*
X17255132Y-13134447D01*
X17245608Y-13143970D01*
X17226560Y-13153494D01*
X17197989Y-13153494D01*
X17378941Y-13153494D02*
X17359894Y-13143970D01*
X17350370Y-13124923D01*
X17350370Y-12953494D01*
X17531322Y-13143970D02*
X17512275Y-13153494D01*
X17474179Y-13153494D01*
X17455132Y-13143970D01*
X17445608Y-13124923D01*
X17445608Y-13048732D01*
X17455132Y-13029685D01*
X17474179Y-13020161D01*
X17512275Y-13020161D01*
X17531322Y-13029685D01*
X17540846Y-13048732D01*
X17540846Y-13067780D01*
X17445608Y-13086828D01*
X17617036Y-13143970D02*
X17636084Y-13153494D01*
X17674179Y-13153494D01*
X17693227Y-13143970D01*
X17702751Y-13124923D01*
X17702751Y-13115399D01*
X17693227Y-13096351D01*
X17674179Y-13086828D01*
X17645608Y-13086828D01*
X17626560Y-13077304D01*
X17617036Y-13058256D01*
X17617036Y-13048732D01*
X17626560Y-13029685D01*
X17645608Y-13020161D01*
X17674179Y-13020161D01*
X17693227Y-13029685D01*
X17769417Y-13229685D02*
X17778941Y-13220161D01*
X17797989Y-13191589D01*
X17807513Y-13172542D01*
X17817036Y-13143970D01*
X17826560Y-13096351D01*
X17826560Y-13058256D01*
X17817036Y-13010637D01*
X17807513Y-12982066D01*
X17797989Y-12963018D01*
X17778941Y-12934447D01*
X17769417Y-12924923D01*
D13*
X12807036Y-13327018D02*
G75*
G03*
X12807036Y-13327018I-38100J0D01*
G01*
D11*
X13102751Y-13217494D02*
X13121798Y-13217494D01*
X13140846Y-13227018D01*
X13150370Y-13236542D01*
X13159894Y-13255589D01*
X13169417Y-13293685D01*
X13169417Y-13341304D01*
X13159894Y-13379399D01*
X13150370Y-13398447D01*
X13140846Y-13407970D01*
X13121798Y-13417494D01*
X13102751Y-13417494D01*
X13083703Y-13407970D01*
X13074179Y-13398447D01*
X13064655Y-13379399D01*
X13055132Y-13341304D01*
X13055132Y-13293685D01*
X13064655Y-13255589D01*
X13074179Y-13236542D01*
X13083703Y-13227018D01*
X13102751Y-13217494D01*
X13255132Y-13398447D02*
X13264655Y-13407970D01*
X13255132Y-13417494D01*
X13245608Y-13407970D01*
X13255132Y-13398447D01*
X13255132Y-13417494D01*
X13331322Y-13217494D02*
X13464655Y-13217494D01*
X13378941Y-13417494D01*
X13626560Y-13217494D02*
X13588465Y-13217494D01*
X13569417Y-13227018D01*
X13559894Y-13236542D01*
X13540846Y-13265113D01*
X13531322Y-13303208D01*
X13531322Y-13379399D01*
X13540846Y-13398447D01*
X13550370Y-13407970D01*
X13569417Y-13417494D01*
X13607513Y-13417494D01*
X13626560Y-13407970D01*
X13636084Y-13398447D01*
X13645608Y-13379399D01*
X13645608Y-13331780D01*
X13636084Y-13312732D01*
X13626560Y-13303208D01*
X13607513Y-13293685D01*
X13569417Y-13293685D01*
X13550370Y-13303208D01*
X13540846Y-13312732D01*
X13531322Y-13331780D01*
X13721798Y-13236542D02*
X13731322Y-13227018D01*
X13750370Y-13217494D01*
X13797989Y-13217494D01*
X13817036Y-13227018D01*
X13826560Y-13236542D01*
X13836084Y-13255589D01*
X13836084Y-13274637D01*
X13826560Y-13303208D01*
X13712274Y-13417494D01*
X13836084Y-13417494D01*
X13921798Y-13417494D02*
X13921798Y-13284161D01*
X13921798Y-13303208D02*
X13931322Y-13293685D01*
X13950370Y-13284161D01*
X13978941Y-13284161D01*
X13997989Y-13293685D01*
X14007513Y-13312732D01*
X14007513Y-13417494D01*
X14007513Y-13312732D02*
X14017036Y-13293685D01*
X14036084Y-13284161D01*
X14064655Y-13284161D01*
X14083703Y-13293685D01*
X14093227Y-13312732D01*
X14093227Y-13417494D01*
X14188465Y-13417494D02*
X14188465Y-13284161D01*
X14188465Y-13303208D02*
X14197989Y-13293685D01*
X14217036Y-13284161D01*
X14245608Y-13284161D01*
X14264655Y-13293685D01*
X14274179Y-13312732D01*
X14274179Y-13417494D01*
X14274179Y-13312732D02*
X14283703Y-13293685D01*
X14302751Y-13284161D01*
X14331322Y-13284161D01*
X14350370Y-13293685D01*
X14359894Y-13312732D01*
X14359894Y-13417494D01*
X14750370Y-13207970D02*
X14578941Y-13465113D01*
X15007513Y-13217494D02*
X15026560Y-13217494D01*
X15045608Y-13227018D01*
X15055132Y-13236542D01*
X15064655Y-13255589D01*
X15074179Y-13293685D01*
X15074179Y-13341304D01*
X15064655Y-13379399D01*
X15055132Y-13398447D01*
X15045608Y-13407970D01*
X15026560Y-13417494D01*
X15007513Y-13417494D01*
X14988465Y-13407970D01*
X14978941Y-13398447D01*
X14969417Y-13379399D01*
X14959894Y-13341304D01*
X14959894Y-13293685D01*
X14969417Y-13255589D01*
X14978941Y-13236542D01*
X14988465Y-13227018D01*
X15007513Y-13217494D01*
X15159894Y-13398447D02*
X15169417Y-13407970D01*
X15159894Y-13417494D01*
X15150370Y-13407970D01*
X15159894Y-13398447D01*
X15159894Y-13417494D01*
X15293227Y-13217494D02*
X15312274Y-13217494D01*
X15331322Y-13227018D01*
X15340846Y-13236542D01*
X15350370Y-13255589D01*
X15359894Y-13293685D01*
X15359894Y-13341304D01*
X15350370Y-13379399D01*
X15340846Y-13398447D01*
X15331322Y-13407970D01*
X15312274Y-13417494D01*
X15293227Y-13417494D01*
X15274179Y-13407970D01*
X15264655Y-13398447D01*
X15255132Y-13379399D01*
X15245608Y-13341304D01*
X15245608Y-13293685D01*
X15255132Y-13255589D01*
X15264655Y-13236542D01*
X15274179Y-13227018D01*
X15293227Y-13217494D01*
X15426560Y-13217494D02*
X15550370Y-13217494D01*
X15483703Y-13293685D01*
X15512274Y-13293685D01*
X15531322Y-13303208D01*
X15540846Y-13312732D01*
X15550370Y-13331780D01*
X15550370Y-13379399D01*
X15540846Y-13398447D01*
X15531322Y-13407970D01*
X15512274Y-13417494D01*
X15455132Y-13417494D01*
X15436084Y-13407970D01*
X15426560Y-13398447D01*
X15674179Y-13217494D02*
X15693227Y-13217494D01*
X15712274Y-13227018D01*
X15721798Y-13236542D01*
X15731322Y-13255589D01*
X15740846Y-13293685D01*
X15740846Y-13341304D01*
X15731322Y-13379399D01*
X15721798Y-13398447D01*
X15712274Y-13407970D01*
X15693227Y-13417494D01*
X15674179Y-13417494D01*
X15655132Y-13407970D01*
X15645608Y-13398447D01*
X15636084Y-13379399D01*
X15626560Y-13341304D01*
X15626560Y-13293685D01*
X15636084Y-13255589D01*
X15645608Y-13236542D01*
X15655132Y-13227018D01*
X15674179Y-13217494D01*
X15864655Y-13217494D02*
X15883703Y-13217494D01*
X15902751Y-13227018D01*
X15912274Y-13236542D01*
X15921798Y-13255589D01*
X15931322Y-13293685D01*
X15931322Y-13341304D01*
X15921798Y-13379399D01*
X15912274Y-13398447D01*
X15902751Y-13407970D01*
X15883703Y-13417494D01*
X15864655Y-13417494D01*
X15845608Y-13407970D01*
X15836084Y-13398447D01*
X15826560Y-13379399D01*
X15817036Y-13341304D01*
X15817036Y-13293685D01*
X15826560Y-13255589D01*
X15836084Y-13236542D01*
X15845608Y-13227018D01*
X15864655Y-13217494D01*
X16007513Y-13217494D02*
X16007513Y-13255589D01*
X16083703Y-13217494D02*
X16083703Y-13255589D01*
X16378941Y-13493685D02*
X16369417Y-13484161D01*
X16350370Y-13455589D01*
X16340846Y-13436542D01*
X16331322Y-13407970D01*
X16321798Y-13360351D01*
X16321798Y-13322256D01*
X16331322Y-13274637D01*
X16340846Y-13246066D01*
X16350370Y-13227018D01*
X16369417Y-13198447D01*
X16378941Y-13188923D01*
X16445608Y-13236542D02*
X16455132Y-13227018D01*
X16474179Y-13217494D01*
X16521798Y-13217494D01*
X16540846Y-13227018D01*
X16550370Y-13236542D01*
X16559894Y-13255589D01*
X16559894Y-13274637D01*
X16550370Y-13303208D01*
X16436084Y-13417494D01*
X16559894Y-13417494D01*
X16731322Y-13284161D02*
X16731322Y-13417494D01*
X16683703Y-13207970D02*
X16636084Y-13350828D01*
X16759894Y-13350828D01*
X16988465Y-13417494D02*
X16988465Y-13217494D01*
X17074179Y-13417494D02*
X17074179Y-13312732D01*
X17064656Y-13293685D01*
X17045608Y-13284161D01*
X17017036Y-13284161D01*
X16997989Y-13293685D01*
X16988465Y-13303208D01*
X17197989Y-13417494D02*
X17178941Y-13407970D01*
X17169417Y-13398447D01*
X17159894Y-13379399D01*
X17159894Y-13322256D01*
X17169417Y-13303208D01*
X17178941Y-13293685D01*
X17197989Y-13284161D01*
X17226560Y-13284161D01*
X17245608Y-13293685D01*
X17255132Y-13303208D01*
X17264656Y-13322256D01*
X17264656Y-13379399D01*
X17255132Y-13398447D01*
X17245608Y-13407970D01*
X17226560Y-13417494D01*
X17197989Y-13417494D01*
X17378941Y-13417494D02*
X17359894Y-13407970D01*
X17350370Y-13388923D01*
X17350370Y-13217494D01*
X17531322Y-13407970D02*
X17512275Y-13417494D01*
X17474179Y-13417494D01*
X17455132Y-13407970D01*
X17445608Y-13388923D01*
X17445608Y-13312732D01*
X17455132Y-13293685D01*
X17474179Y-13284161D01*
X17512275Y-13284161D01*
X17531322Y-13293685D01*
X17540846Y-13312732D01*
X17540846Y-13331780D01*
X17445608Y-13350828D01*
X17617036Y-13407970D02*
X17636084Y-13417494D01*
X17674179Y-13417494D01*
X17693227Y-13407970D01*
X17702751Y-13388923D01*
X17702751Y-13379399D01*
X17693227Y-13360351D01*
X17674179Y-13350828D01*
X17645608Y-13350828D01*
X17626560Y-13341304D01*
X17617036Y-13322256D01*
X17617036Y-13312732D01*
X17626560Y-13293685D01*
X17645608Y-13284161D01*
X17674179Y-13284161D01*
X17693227Y-13293685D01*
X17769417Y-13493685D02*
X17778941Y-13484161D01*
X17797989Y-13455589D01*
X17807513Y-13436542D01*
X17817036Y-13407970D01*
X17826560Y-13360351D01*
X17826560Y-13322256D01*
X17817036Y-13274637D01*
X17807513Y-13246066D01*
X17797989Y-13227018D01*
X17778941Y-13198447D01*
X17769417Y-13188923D01*
D14*
X12762036Y-13546018D02*
X12762036Y-13636018D01*
X12717036Y-13591018D02*
X12807036Y-13591018D01*
D11*
X13102751Y-13481494D02*
X13121798Y-13481494D01*
X13140846Y-13491018D01*
X13150370Y-13500542D01*
X13159894Y-13519589D01*
X13169417Y-13557685D01*
X13169417Y-13605304D01*
X13159894Y-13643399D01*
X13150370Y-13662447D01*
X13140846Y-13671970D01*
X13121798Y-13681494D01*
X13102751Y-13681494D01*
X13083703Y-13671970D01*
X13074179Y-13662447D01*
X13064655Y-13643399D01*
X13055132Y-13605304D01*
X13055132Y-13557685D01*
X13064655Y-13519589D01*
X13074179Y-13500542D01*
X13083703Y-13491018D01*
X13102751Y-13481494D01*
X13255132Y-13662447D02*
X13264655Y-13671970D01*
X13255132Y-13681494D01*
X13245608Y-13671970D01*
X13255132Y-13662447D01*
X13255132Y-13681494D01*
X13359894Y-13681494D02*
X13397989Y-13681494D01*
X13417036Y-13671970D01*
X13426560Y-13662447D01*
X13445608Y-13633875D01*
X13455132Y-13595780D01*
X13455132Y-13519589D01*
X13445608Y-13500542D01*
X13436084Y-13491018D01*
X13417036Y-13481494D01*
X13378941Y-13481494D01*
X13359894Y-13491018D01*
X13350370Y-13500542D01*
X13340846Y-13519589D01*
X13340846Y-13567208D01*
X13350370Y-13586256D01*
X13359894Y-13595780D01*
X13378941Y-13605304D01*
X13417036Y-13605304D01*
X13436084Y-13595780D01*
X13445608Y-13586256D01*
X13455132Y-13567208D01*
X13578941Y-13481494D02*
X13597989Y-13481494D01*
X13617036Y-13491018D01*
X13626560Y-13500542D01*
X13636084Y-13519589D01*
X13645608Y-13557685D01*
X13645608Y-13605304D01*
X13636084Y-13643399D01*
X13626560Y-13662447D01*
X13617036Y-13671970D01*
X13597989Y-13681494D01*
X13578941Y-13681494D01*
X13559894Y-13671970D01*
X13550370Y-13662447D01*
X13540846Y-13643399D01*
X13531322Y-13605304D01*
X13531322Y-13557685D01*
X13540846Y-13519589D01*
X13550370Y-13500542D01*
X13559894Y-13491018D01*
X13578941Y-13481494D01*
X13769417Y-13481494D02*
X13788465Y-13481494D01*
X13807513Y-13491018D01*
X13817036Y-13500542D01*
X13826560Y-13519589D01*
X13836084Y-13557685D01*
X13836084Y-13605304D01*
X13826560Y-13643399D01*
X13817036Y-13662447D01*
X13807513Y-13671970D01*
X13788465Y-13681494D01*
X13769417Y-13681494D01*
X13750370Y-13671970D01*
X13740846Y-13662447D01*
X13731322Y-13643399D01*
X13721798Y-13605304D01*
X13721798Y-13557685D01*
X13731322Y-13519589D01*
X13740846Y-13500542D01*
X13750370Y-13491018D01*
X13769417Y-13481494D01*
X13921798Y-13681494D02*
X13921798Y-13548161D01*
X13921798Y-13567208D02*
X13931322Y-13557685D01*
X13950370Y-13548161D01*
X13978941Y-13548161D01*
X13997989Y-13557685D01*
X14007513Y-13576732D01*
X14007513Y-13681494D01*
X14007513Y-13576732D02*
X14017036Y-13557685D01*
X14036084Y-13548161D01*
X14064655Y-13548161D01*
X14083703Y-13557685D01*
X14093227Y-13576732D01*
X14093227Y-13681494D01*
X14188465Y-13681494D02*
X14188465Y-13548161D01*
X14188465Y-13567208D02*
X14197989Y-13557685D01*
X14217036Y-13548161D01*
X14245608Y-13548161D01*
X14264655Y-13557685D01*
X14274179Y-13576732D01*
X14274179Y-13681494D01*
X14274179Y-13576732D02*
X14283703Y-13557685D01*
X14302751Y-13548161D01*
X14331322Y-13548161D01*
X14350370Y-13557685D01*
X14359894Y-13576732D01*
X14359894Y-13681494D01*
X14750370Y-13471970D02*
X14578941Y-13729113D01*
X15007513Y-13481494D02*
X15026560Y-13481494D01*
X15045608Y-13491018D01*
X15055132Y-13500542D01*
X15064655Y-13519589D01*
X15074179Y-13557685D01*
X15074179Y-13605304D01*
X15064655Y-13643399D01*
X15055132Y-13662447D01*
X15045608Y-13671970D01*
X15026560Y-13681494D01*
X15007513Y-13681494D01*
X14988465Y-13671970D01*
X14978941Y-13662447D01*
X14969417Y-13643399D01*
X14959894Y-13605304D01*
X14959894Y-13557685D01*
X14969417Y-13519589D01*
X14978941Y-13500542D01*
X14988465Y-13491018D01*
X15007513Y-13481494D01*
X15159894Y-13662447D02*
X15169417Y-13671970D01*
X15159894Y-13681494D01*
X15150370Y-13671970D01*
X15159894Y-13662447D01*
X15159894Y-13681494D01*
X15293227Y-13481494D02*
X15312274Y-13481494D01*
X15331322Y-13491018D01*
X15340846Y-13500542D01*
X15350370Y-13519589D01*
X15359894Y-13557685D01*
X15359894Y-13605304D01*
X15350370Y-13643399D01*
X15340846Y-13662447D01*
X15331322Y-13671970D01*
X15312274Y-13681494D01*
X15293227Y-13681494D01*
X15274179Y-13671970D01*
X15264655Y-13662447D01*
X15255132Y-13643399D01*
X15245608Y-13605304D01*
X15245608Y-13557685D01*
X15255132Y-13519589D01*
X15264655Y-13500542D01*
X15274179Y-13491018D01*
X15293227Y-13481494D01*
X15426560Y-13481494D02*
X15550370Y-13481494D01*
X15483703Y-13557685D01*
X15512274Y-13557685D01*
X15531322Y-13567208D01*
X15540846Y-13576732D01*
X15550370Y-13595780D01*
X15550370Y-13643399D01*
X15540846Y-13662447D01*
X15531322Y-13671970D01*
X15512274Y-13681494D01*
X15455132Y-13681494D01*
X15436084Y-13671970D01*
X15426560Y-13662447D01*
X15731322Y-13481494D02*
X15636084Y-13481494D01*
X15626560Y-13576732D01*
X15636084Y-13567208D01*
X15655132Y-13557685D01*
X15702751Y-13557685D01*
X15721798Y-13567208D01*
X15731322Y-13576732D01*
X15740846Y-13595780D01*
X15740846Y-13643399D01*
X15731322Y-13662447D01*
X15721798Y-13671970D01*
X15702751Y-13681494D01*
X15655132Y-13681494D01*
X15636084Y-13671970D01*
X15626560Y-13662447D01*
X15912274Y-13548161D02*
X15912274Y-13681494D01*
X15864655Y-13471970D02*
X15817036Y-13614828D01*
X15940846Y-13614828D01*
X16007513Y-13481494D02*
X16007513Y-13519589D01*
X16083703Y-13481494D02*
X16083703Y-13519589D01*
X16378941Y-13757685D02*
X16369417Y-13748161D01*
X16350370Y-13719589D01*
X16340846Y-13700542D01*
X16331322Y-13671970D01*
X16321798Y-13624351D01*
X16321798Y-13586256D01*
X16331322Y-13538637D01*
X16340846Y-13510066D01*
X16350370Y-13491018D01*
X16369417Y-13462447D01*
X16378941Y-13452923D01*
X16559894Y-13681494D02*
X16445608Y-13681494D01*
X16502751Y-13681494D02*
X16502751Y-13481494D01*
X16483703Y-13510066D01*
X16464655Y-13529113D01*
X16445608Y-13538637D01*
X16636084Y-13500542D02*
X16645608Y-13491018D01*
X16664655Y-13481494D01*
X16712274Y-13481494D01*
X16731322Y-13491018D01*
X16740846Y-13500542D01*
X16750370Y-13519589D01*
X16750370Y-13538637D01*
X16740846Y-13567208D01*
X16626560Y-13681494D01*
X16750370Y-13681494D01*
X16988465Y-13681494D02*
X16988465Y-13481494D01*
X17074179Y-13681494D02*
X17074179Y-13576732D01*
X17064656Y-13557685D01*
X17045608Y-13548161D01*
X17017036Y-13548161D01*
X16997989Y-13557685D01*
X16988465Y-13567208D01*
X17197989Y-13681494D02*
X17178941Y-13671970D01*
X17169417Y-13662447D01*
X17159894Y-13643399D01*
X17159894Y-13586256D01*
X17169417Y-13567208D01*
X17178941Y-13557685D01*
X17197989Y-13548161D01*
X17226560Y-13548161D01*
X17245608Y-13557685D01*
X17255132Y-13567208D01*
X17264656Y-13586256D01*
X17264656Y-13643399D01*
X17255132Y-13662447D01*
X17245608Y-13671970D01*
X17226560Y-13681494D01*
X17197989Y-13681494D01*
X17378941Y-13681494D02*
X17359894Y-13671970D01*
X17350370Y-13652923D01*
X17350370Y-13481494D01*
X17531322Y-13671970D02*
X17512275Y-13681494D01*
X17474179Y-13681494D01*
X17455132Y-13671970D01*
X17445608Y-13652923D01*
X17445608Y-13576732D01*
X17455132Y-13557685D01*
X17474179Y-13548161D01*
X17512275Y-13548161D01*
X17531322Y-13557685D01*
X17540846Y-13576732D01*
X17540846Y-13595780D01*
X17445608Y-13614828D01*
X17617036Y-13671970D02*
X17636084Y-13681494D01*
X17674179Y-13681494D01*
X17693227Y-13671970D01*
X17702751Y-13652923D01*
X17702751Y-13643399D01*
X17693227Y-13624351D01*
X17674179Y-13614828D01*
X17645608Y-13614828D01*
X17626560Y-13605304D01*
X17617036Y-13586256D01*
X17617036Y-13576732D01*
X17626560Y-13557685D01*
X17645608Y-13548161D01*
X17674179Y-13548161D01*
X17693227Y-13557685D01*
X17769417Y-13757685D02*
X17778941Y-13748161D01*
X17797989Y-13719589D01*
X17807513Y-13700542D01*
X17817036Y-13671970D01*
X17826560Y-13624351D01*
X17826560Y-13586256D01*
X17817036Y-13538637D01*
X17807513Y-13510066D01*
X17797989Y-13491018D01*
X17778941Y-13462447D01*
X17769417Y-13452923D01*
D15*
X12792392Y-13890374D02*
X12792392Y-13819662D01*
X12721681Y-13819662D01*
X12721681Y-13890374D01*
X12792392Y-13890374D01*
D11*
X13169417Y-13945494D02*
X13055132Y-13945494D01*
X13112274Y-13945494D02*
X13112274Y-13745494D01*
X13093227Y-13774066D01*
X13074179Y-13793113D01*
X13055132Y-13802637D01*
X13255132Y-13926447D02*
X13264655Y-13935970D01*
X13255132Y-13945494D01*
X13245608Y-13935970D01*
X13255132Y-13926447D01*
X13255132Y-13945494D01*
X13388465Y-13745494D02*
X13407513Y-13745494D01*
X13426560Y-13755018D01*
X13436084Y-13764542D01*
X13445608Y-13783589D01*
X13455132Y-13821685D01*
X13455132Y-13869304D01*
X13445608Y-13907399D01*
X13436084Y-13926447D01*
X13426560Y-13935970D01*
X13407513Y-13945494D01*
X13388465Y-13945494D01*
X13369417Y-13935970D01*
X13359894Y-13926447D01*
X13350370Y-13907399D01*
X13340846Y-13869304D01*
X13340846Y-13821685D01*
X13350370Y-13783589D01*
X13359894Y-13764542D01*
X13369417Y-13755018D01*
X13388465Y-13745494D01*
X13578941Y-13745494D02*
X13597989Y-13745494D01*
X13617036Y-13755018D01*
X13626560Y-13764542D01*
X13636084Y-13783589D01*
X13645608Y-13821685D01*
X13645608Y-13869304D01*
X13636084Y-13907399D01*
X13626560Y-13926447D01*
X13617036Y-13935970D01*
X13597989Y-13945494D01*
X13578941Y-13945494D01*
X13559894Y-13935970D01*
X13550370Y-13926447D01*
X13540846Y-13907399D01*
X13531322Y-13869304D01*
X13531322Y-13821685D01*
X13540846Y-13783589D01*
X13550370Y-13764542D01*
X13559894Y-13755018D01*
X13578941Y-13745494D01*
X13769417Y-13745494D02*
X13788465Y-13745494D01*
X13807513Y-13755018D01*
X13817036Y-13764542D01*
X13826560Y-13783589D01*
X13836084Y-13821685D01*
X13836084Y-13869304D01*
X13826560Y-13907399D01*
X13817036Y-13926447D01*
X13807513Y-13935970D01*
X13788465Y-13945494D01*
X13769417Y-13945494D01*
X13750370Y-13935970D01*
X13740846Y-13926447D01*
X13731322Y-13907399D01*
X13721798Y-13869304D01*
X13721798Y-13821685D01*
X13731322Y-13783589D01*
X13740846Y-13764542D01*
X13750370Y-13755018D01*
X13769417Y-13745494D01*
X13921798Y-13945494D02*
X13921798Y-13812161D01*
X13921798Y-13831208D02*
X13931322Y-13821685D01*
X13950370Y-13812161D01*
X13978941Y-13812161D01*
X13997989Y-13821685D01*
X14007513Y-13840732D01*
X14007513Y-13945494D01*
X14007513Y-13840732D02*
X14017036Y-13821685D01*
X14036084Y-13812161D01*
X14064655Y-13812161D01*
X14083703Y-13821685D01*
X14093227Y-13840732D01*
X14093227Y-13945494D01*
X14188465Y-13945494D02*
X14188465Y-13812161D01*
X14188465Y-13831208D02*
X14197989Y-13821685D01*
X14217036Y-13812161D01*
X14245608Y-13812161D01*
X14264655Y-13821685D01*
X14274179Y-13840732D01*
X14274179Y-13945494D01*
X14274179Y-13840732D02*
X14283703Y-13821685D01*
X14302751Y-13812161D01*
X14331322Y-13812161D01*
X14350370Y-13821685D01*
X14359894Y-13840732D01*
X14359894Y-13945494D01*
X14750370Y-13735970D02*
X14578941Y-13993113D01*
X15007513Y-13745494D02*
X15026560Y-13745494D01*
X15045608Y-13755018D01*
X15055132Y-13764542D01*
X15064655Y-13783589D01*
X15074179Y-13821685D01*
X15074179Y-13869304D01*
X15064655Y-13907399D01*
X15055132Y-13926447D01*
X15045608Y-13935970D01*
X15026560Y-13945494D01*
X15007513Y-13945494D01*
X14988465Y-13935970D01*
X14978941Y-13926447D01*
X14969417Y-13907399D01*
X14959894Y-13869304D01*
X14959894Y-13821685D01*
X14969417Y-13783589D01*
X14978941Y-13764542D01*
X14988465Y-13755018D01*
X15007513Y-13745494D01*
X15159894Y-13926447D02*
X15169417Y-13935970D01*
X15159894Y-13945494D01*
X15150370Y-13935970D01*
X15159894Y-13926447D01*
X15159894Y-13945494D01*
X15293227Y-13745494D02*
X15312274Y-13745494D01*
X15331322Y-13755018D01*
X15340846Y-13764542D01*
X15350370Y-13783589D01*
X15359894Y-13821685D01*
X15359894Y-13869304D01*
X15350370Y-13907399D01*
X15340846Y-13926447D01*
X15331322Y-13935970D01*
X15312274Y-13945494D01*
X15293227Y-13945494D01*
X15274179Y-13935970D01*
X15264655Y-13926447D01*
X15255132Y-13907399D01*
X15245608Y-13869304D01*
X15245608Y-13821685D01*
X15255132Y-13783589D01*
X15264655Y-13764542D01*
X15274179Y-13755018D01*
X15293227Y-13745494D01*
X15426560Y-13745494D02*
X15550370Y-13745494D01*
X15483703Y-13821685D01*
X15512274Y-13821685D01*
X15531322Y-13831208D01*
X15540846Y-13840732D01*
X15550370Y-13859780D01*
X15550370Y-13907399D01*
X15540846Y-13926447D01*
X15531322Y-13935970D01*
X15512274Y-13945494D01*
X15455132Y-13945494D01*
X15436084Y-13935970D01*
X15426560Y-13926447D01*
X15645608Y-13945494D02*
X15683703Y-13945494D01*
X15702751Y-13935970D01*
X15712274Y-13926447D01*
X15731322Y-13897875D01*
X15740846Y-13859780D01*
X15740846Y-13783589D01*
X15731322Y-13764542D01*
X15721798Y-13755018D01*
X15702751Y-13745494D01*
X15664655Y-13745494D01*
X15645608Y-13755018D01*
X15636084Y-13764542D01*
X15626560Y-13783589D01*
X15626560Y-13831208D01*
X15636084Y-13850256D01*
X15645608Y-13859780D01*
X15664655Y-13869304D01*
X15702751Y-13869304D01*
X15721798Y-13859780D01*
X15731322Y-13850256D01*
X15740846Y-13831208D01*
X15912274Y-13812161D02*
X15912274Y-13945494D01*
X15864655Y-13735970D02*
X15817036Y-13878828D01*
X15940846Y-13878828D01*
X16007513Y-13745494D02*
X16007513Y-13783589D01*
X16083703Y-13745494D02*
X16083703Y-13783589D01*
X16378941Y-14021685D02*
X16369417Y-14012161D01*
X16350370Y-13983589D01*
X16340846Y-13964542D01*
X16331322Y-13935970D01*
X16321798Y-13888351D01*
X16321798Y-13850256D01*
X16331322Y-13802637D01*
X16340846Y-13774066D01*
X16350370Y-13755018D01*
X16369417Y-13726447D01*
X16378941Y-13716923D01*
X16550370Y-13745494D02*
X16455132Y-13745494D01*
X16445608Y-13840732D01*
X16455132Y-13831208D01*
X16474179Y-13821685D01*
X16521798Y-13821685D01*
X16540846Y-13831208D01*
X16550370Y-13840732D01*
X16559894Y-13859780D01*
X16559894Y-13907399D01*
X16550370Y-13926447D01*
X16540846Y-13935970D01*
X16521798Y-13945494D01*
X16474179Y-13945494D01*
X16455132Y-13935970D01*
X16445608Y-13926447D01*
X16797989Y-13945494D02*
X16797989Y-13745494D01*
X16883703Y-13945494D02*
X16883703Y-13840732D01*
X16874179Y-13821685D01*
X16855132Y-13812161D01*
X16826560Y-13812161D01*
X16807513Y-13821685D01*
X16797989Y-13831208D01*
X17007513Y-13945494D02*
X16988465Y-13935970D01*
X16978941Y-13926447D01*
X16969417Y-13907399D01*
X16969417Y-13850256D01*
X16978941Y-13831208D01*
X16988465Y-13821685D01*
X17007513Y-13812161D01*
X17036084Y-13812161D01*
X17055132Y-13821685D01*
X17064656Y-13831208D01*
X17074179Y-13850256D01*
X17074179Y-13907399D01*
X17064656Y-13926447D01*
X17055132Y-13935970D01*
X17036084Y-13945494D01*
X17007513Y-13945494D01*
X17188465Y-13945494D02*
X17169417Y-13935970D01*
X17159894Y-13916923D01*
X17159894Y-13745494D01*
X17340846Y-13935970D02*
X17321798Y-13945494D01*
X17283703Y-13945494D01*
X17264656Y-13935970D01*
X17255132Y-13916923D01*
X17255132Y-13840732D01*
X17264656Y-13821685D01*
X17283703Y-13812161D01*
X17321798Y-13812161D01*
X17340846Y-13821685D01*
X17350370Y-13840732D01*
X17350370Y-13859780D01*
X17255132Y-13878828D01*
X17426560Y-13935970D02*
X17445608Y-13945494D01*
X17483703Y-13945494D01*
X17502751Y-13935970D01*
X17512275Y-13916923D01*
X17512275Y-13907399D01*
X17502751Y-13888351D01*
X17483703Y-13878828D01*
X17455132Y-13878828D01*
X17436084Y-13869304D01*
X17426560Y-13850256D01*
X17426560Y-13840732D01*
X17436084Y-13821685D01*
X17455132Y-13812161D01*
X17483703Y-13812161D01*
X17502751Y-13821685D01*
X17578941Y-14021685D02*
X17588465Y-14012161D01*
X17607513Y-13983589D01*
X17617036Y-13964542D01*
X17626560Y-13935970D01*
X17636084Y-13888351D01*
X17636084Y-13850256D01*
X17626560Y-13802637D01*
X17617036Y-13774066D01*
X17607513Y-13755018D01*
X17588465Y-13726447D01*
X17578941Y-13716923D01*
M02*
