%TF.GenerationSoftware,KiCad,Pcbnew,(6.0.5)*%
%TF.CreationDate,2022-10-18T17:48:47+09:00*%
%TF.ProjectId,line_sensor_right,6c696e65-5f73-4656-9e73-6f725f726967,rev?*%
%TF.SameCoordinates,Original*%
%TF.FileFunction,Copper,L2,Bot*%
%TF.FilePolarity,Positive*%
%FSLAX46Y46*%
G04 Gerber Fmt 4.6, Leading zero omitted, Abs format (unit mm)*
G04 Created by KiCad (PCBNEW (6.0.5)) date 2022-10-18 17:48:47*
%MOMM*%
%LPD*%
G01*
G04 APERTURE LIST*
G04 Aperture macros list*
%AMRoundRect*
0 Rectangle with rounded corners*
0 $1 Rounding radius*
0 $2 $3 $4 $5 $6 $7 $8 $9 X,Y pos of 4 corners*
0 Add a 4 corners polygon primitive as box body*
4,1,4,$2,$3,$4,$5,$6,$7,$8,$9,$2,$3,0*
0 Add four circle primitives for the rounded corners*
1,1,$1+$1,$2,$3*
1,1,$1+$1,$4,$5*
1,1,$1+$1,$6,$7*
1,1,$1+$1,$8,$9*
0 Add four rect primitives between the rounded corners*
20,1,$1+$1,$2,$3,$4,$5,0*
20,1,$1+$1,$4,$5,$6,$7,0*
20,1,$1+$1,$6,$7,$8,$9,0*
20,1,$1+$1,$8,$9,$2,$3,0*%
%AMRotRect*
0 Rectangle, with rotation*
0 The origin of the aperture is its center*
0 $1 length*
0 $2 width*
0 $3 Rotation angle, in degrees counterclockwise*
0 Add horizontal line*
21,1,$1,$2,0,0,$3*%
G04 Aperture macros list end*
%TA.AperFunction,ComponentPad*%
%ADD10R,1.800000X1.800000*%
%TD*%
%TA.AperFunction,ComponentPad*%
%ADD11C,1.800000*%
%TD*%
%TA.AperFunction,ComponentPad*%
%ADD12RotRect,1.800000X1.800000X147.500000*%
%TD*%
%TA.AperFunction,ComponentPad*%
%ADD13C,1.524000*%
%TD*%
%TA.AperFunction,ComponentPad*%
%ADD14RotRect,1.800000X1.800000X212.500000*%
%TD*%
%TA.AperFunction,ComponentPad*%
%ADD15R,1.700000X1.700000*%
%TD*%
%TA.AperFunction,ComponentPad*%
%ADD16O,1.700000X1.700000*%
%TD*%
%TA.AperFunction,SMDPad,CuDef*%
%ADD17RoundRect,0.140000X0.140000X0.170000X-0.140000X0.170000X-0.140000X-0.170000X0.140000X-0.170000X0*%
%TD*%
%TA.AperFunction,SMDPad,CuDef*%
%ADD18RoundRect,0.140000X0.204231X-0.082400X0.120033X0.184640X-0.204231X0.082400X-0.120033X-0.184640X0*%
%TD*%
%TA.AperFunction,SMDPad,CuDef*%
%ADD19RoundRect,0.140000X0.120033X-0.184640X0.204231X0.082400X-0.120033X0.184640X-0.204231X-0.082400X0*%
%TD*%
%TA.AperFunction,ViaPad*%
%ADD20C,0.800000*%
%TD*%
%TA.AperFunction,Conductor*%
%ADD21C,0.250000*%
%TD*%
G04 APERTURE END LIST*
D10*
%TO.P,D6,1,K*%
%TO.N,Net-(D6-Pad1)*%
X160025000Y-69596000D03*
D11*
%TO.P,D6,2,A*%
%TO.N,R Trim*%
X157485000Y-69596000D03*
%TD*%
D12*
%TO.P,D3,1,K*%
%TO.N,Net-(D3-Pad1)*%
X181797654Y-117325407D03*
D11*
%TO.P,D3,2,A*%
%TO.N,R Trim*%
X179655440Y-115960666D03*
%TD*%
D10*
%TO.P,D5,1,K*%
%TO.N,Net-(D5-Pad1)*%
X160025000Y-97536000D03*
D11*
%TO.P,D5,2,A*%
%TO.N,R Trim*%
X157485000Y-97536000D03*
%TD*%
D10*
%TO.P,D7,1,K*%
%TO.N,Net-(U7-Pad1)*%
X160025000Y-55626000D03*
D11*
%TO.P,D7,2,A*%
%TO.N,R Trim*%
X157485000Y-55626000D03*
%TD*%
D13*
%TO.P,U1,1,K(-)*%
%TO.N,Net-(D1-Pad1)*%
X149256673Y-112574219D03*
%TO.P,U1,2,VCC*%
%TO.N,+5V*%
X148492881Y-110151778D03*
%TO.P,U1,3,VOUT*%
%TO.N,Line Data 1*%
X143647998Y-111679364D03*
%TO.P,U1,4,GND*%
%TO.N,GND*%
X144411791Y-114101805D03*
%TD*%
D14*
%TO.P,D1,1,K*%
%TO.N,Net-(D1-Pad1)*%
X137852994Y-115955293D03*
D11*
%TO.P,D1,2,A*%
%TO.N,R Trim*%
X135710780Y-117320034D03*
%TD*%
D13*
%TO.P,U3,1,K(-)*%
%TO.N,Net-(D3-Pad1)*%
X173088209Y-114101805D03*
%TO.P,U3,2,VCC*%
%TO.N,+5V*%
X173852002Y-111679364D03*
%TO.P,U3,3,VOUT*%
%TO.N,Line Data 1*%
X169007119Y-110151778D03*
%TO.P,U3,4,GND*%
%TO.N,GND*%
X168243327Y-112574219D03*
%TD*%
%TO.P,U7,1,K(-)*%
%TO.N,Net-(U7-Pad1)*%
X160018000Y-59944000D03*
%TO.P,U7,2,VCC*%
%TO.N,+5V*%
X157478000Y-59944000D03*
%TO.P,U7,3,VOUT*%
%TO.N,Line Data 2*%
X157478000Y-65024000D03*
%TO.P,U7,4,GND*%
%TO.N,GND*%
X160018000Y-65024000D03*
%TD*%
%TO.P,U6,1,K(-)*%
%TO.N,Net-(D6-Pad1)*%
X160018000Y-73914000D03*
%TO.P,U6,2,VCC*%
%TO.N,+5V*%
X157478000Y-73914000D03*
%TO.P,U6,3,VOUT*%
%TO.N,Line Data 2*%
X157478000Y-78994000D03*
%TO.P,U6,4,GND*%
%TO.N,GND*%
X160018000Y-78994000D03*
%TD*%
D15*
%TO.P,J1,1,Pin_1*%
%TO.N,R Trim*%
X163825000Y-109925000D03*
D16*
%TO.P,J1,2,Pin_2*%
%TO.N,+5V*%
X161285000Y-109925000D03*
%TO.P,J1,3,Pin_3*%
%TO.N,GND*%
X158745000Y-109925000D03*
%TO.P,J1,4,Pin_4*%
%TO.N,Line Data 1*%
X156205000Y-109925000D03*
%TO.P,J1,5,Pin_5*%
%TO.N,Line Data 2*%
X153665000Y-109925000D03*
%TD*%
D13*
%TO.P,U4,1,K(-)*%
%TO.N,Net-(D4-Pad1)*%
X160018000Y-87884000D03*
%TO.P,U4,2,VCC*%
%TO.N,+5V*%
X157478000Y-87884000D03*
%TO.P,U4,3,VOUT*%
%TO.N,Line Data 2*%
X157478000Y-92964000D03*
%TO.P,U4,4,GND*%
%TO.N,GND*%
X160018000Y-92964000D03*
%TD*%
D10*
%TO.P,D4,1,K*%
%TO.N,Net-(D4-Pad1)*%
X160025000Y-83566000D03*
D11*
%TO.P,D4,2,A*%
%TO.N,R Trim*%
X157485000Y-83566000D03*
%TD*%
D13*
%TO.P,U5,1,K(-)*%
%TO.N,Net-(D5-Pad1)*%
X160018000Y-101854000D03*
%TO.P,U5,2,VCC*%
%TO.N,+5V*%
X157478000Y-101854000D03*
%TO.P,U5,3,VOUT*%
%TO.N,Line Data 1*%
X157478000Y-106934000D03*
%TO.P,U5,4,GND*%
%TO.N,GND*%
X160018000Y-106934000D03*
%TD*%
D17*
%TO.P,C5,1*%
%TO.N,GND*%
X159230000Y-104394000D03*
%TO.P,C5,2*%
%TO.N,+5V*%
X158270000Y-104394000D03*
%TD*%
%TO.P,C4,1*%
%TO.N,GND*%
X159230000Y-90424000D03*
%TO.P,C4,2*%
%TO.N,+5V*%
X158270000Y-90424000D03*
%TD*%
%TO.P,C6,1*%
%TO.N,GND*%
X159230000Y-76454000D03*
%TO.P,C6,2*%
%TO.N,+5V*%
X158270000Y-76454000D03*
%TD*%
D18*
%TO.P,C1,1*%
%TO.N,GND*%
X146592678Y-112675568D03*
%TO.P,C1,2*%
%TO.N,+5V*%
X146304000Y-111760000D03*
%TD*%
D17*
%TO.P,C7,1*%
%TO.N,GND*%
X159230000Y-62484000D03*
%TO.P,C7,2*%
%TO.N,+5V*%
X158270000Y-62484000D03*
%TD*%
D19*
%TO.P,C3,1*%
%TO.N,GND*%
X170797661Y-112522000D03*
%TO.P,C3,2*%
%TO.N,+5V*%
X171086339Y-111606432D03*
%TD*%
D20*
%TO.N,GND*%
X170434000Y-114300000D03*
X134366000Y-121158000D03*
X161544000Y-103632000D03*
X161036000Y-94996000D03*
X161798000Y-107442000D03*
X166116000Y-110236000D03*
X161036000Y-67056000D03*
X145796000Y-109982000D03*
X151130000Y-109982000D03*
X161036000Y-81026000D03*
X156210000Y-58420000D03*
X131826000Y-117856000D03*
X161290000Y-52578000D03*
X163830000Y-113284000D03*
X141224000Y-114046000D03*
X156718000Y-52578000D03*
X157226000Y-105156000D03*
%TD*%
D21*
%TO.N,+5V*%
X156260489Y-100636489D02*
X156260489Y-92433511D01*
X158270000Y-76454000D02*
X157478000Y-75662000D01*
X156260489Y-78463511D02*
X158270000Y-76454000D01*
X158270000Y-104394000D02*
X157478000Y-103602000D01*
X162459511Y-108750489D02*
X169142390Y-108750489D01*
X158270000Y-90424000D02*
X157478000Y-89632000D01*
X157478000Y-101854000D02*
X156260489Y-100636489D01*
X161285000Y-109925000D02*
X158564511Y-107204511D01*
X161285000Y-109925000D02*
X159722292Y-111487708D01*
X159722292Y-111487708D02*
X146576292Y-111487708D01*
X146884659Y-111760000D02*
X148492881Y-110151778D01*
X156260489Y-72696489D02*
X156260489Y-64493511D01*
X156260489Y-64493511D02*
X158270000Y-62484000D01*
X146304000Y-111760000D02*
X146884659Y-111760000D01*
X171086339Y-111606432D02*
X171159271Y-111679364D01*
X171086339Y-110694438D02*
X171086339Y-111606432D01*
X156260489Y-86666489D02*
X156260489Y-78463511D01*
X158270000Y-62484000D02*
X157478000Y-61692000D01*
X169142390Y-108750489D02*
X171086339Y-110694438D01*
X158564511Y-107204511D02*
X158564511Y-104688511D01*
X157478000Y-75662000D02*
X157478000Y-73914000D01*
X157478000Y-61692000D02*
X157478000Y-59944000D01*
X157478000Y-103602000D02*
X157478000Y-101854000D01*
X171159271Y-111679364D02*
X173852002Y-111679364D01*
X156260489Y-92433511D02*
X158270000Y-90424000D01*
X161285000Y-109925000D02*
X162459511Y-108750489D01*
X146576292Y-111487708D02*
X146304000Y-111760000D01*
X170967615Y-111487708D02*
X171086339Y-111606432D01*
X158564511Y-104688511D02*
X158270000Y-104394000D01*
X157478000Y-89632000D02*
X157478000Y-87884000D01*
X157478000Y-73914000D02*
X156260489Y-72696489D01*
X157478000Y-87884000D02*
X156260489Y-86666489D01*
%TO.N,R Trim*%
X141478000Y-116586000D02*
X140208000Y-117856000D01*
X163825000Y-109925000D02*
X163825000Y-109987000D01*
X144272000Y-116586000D02*
X141478000Y-116586000D01*
X149352000Y-114808000D02*
X146050000Y-114808000D01*
X136246746Y-117856000D02*
X135710780Y-117320034D01*
X160782000Y-113030000D02*
X151130000Y-113030000D01*
X146050000Y-114808000D02*
X144272000Y-116586000D01*
X151130000Y-113030000D02*
X149352000Y-114808000D01*
X163825000Y-109987000D02*
X160782000Y-113030000D01*
X140208000Y-117856000D02*
X136246746Y-117856000D01*
%TD*%
%TA.AperFunction,Conductor*%
%TO.N,GND*%
G36*
X169835834Y-108215944D02*
G01*
X170675188Y-108436592D01*
X170678669Y-108437561D01*
X171899348Y-108796171D01*
X171902800Y-108797239D01*
X172745875Y-109071411D01*
X173112738Y-109190717D01*
X173116131Y-109191874D01*
X173497475Y-109328100D01*
X174314258Y-109619875D01*
X174317643Y-109621139D01*
X175503026Y-110083326D01*
X175506369Y-110084685D01*
X176671774Y-110578033D01*
X176677980Y-110580660D01*
X176681287Y-110582116D01*
X177838201Y-111111485D01*
X177841465Y-111113035D01*
X178982735Y-111675365D01*
X178985953Y-111677008D01*
X180110630Y-112271833D01*
X180113800Y-112273568D01*
X180355719Y-112410533D01*
X181221017Y-112900430D01*
X181224078Y-112902223D01*
X182059842Y-113407582D01*
X182312779Y-113560525D01*
X182315844Y-113562438D01*
X182529902Y-113700405D01*
X183384440Y-114251182D01*
X183385265Y-114251714D01*
X183388259Y-114253705D01*
X184437505Y-114973384D01*
X184440422Y-114975447D01*
X184964917Y-115357767D01*
X185468551Y-115724881D01*
X185471440Y-115727051D01*
X186477651Y-116505653D01*
X186480477Y-116507905D01*
X187463957Y-117315045D01*
X187466716Y-117317377D01*
X187468475Y-117318906D01*
X188392627Y-118122793D01*
X188407421Y-118138035D01*
X188419870Y-118153240D01*
X188419876Y-118153244D01*
X188419879Y-118153248D01*
X188430451Y-118160484D01*
X188451171Y-118178249D01*
X188562156Y-118296546D01*
X188575693Y-118313755D01*
X188677042Y-118468606D01*
X188687394Y-118487897D01*
X188760407Y-118657957D01*
X188767262Y-118678744D01*
X188779642Y-118731250D01*
X188809734Y-118858886D01*
X188812887Y-118880553D01*
X188816047Y-118935404D01*
X188823276Y-119060878D01*
X188823531Y-119065309D01*
X188822887Y-119087192D01*
X188816509Y-119141723D01*
X188801385Y-119271016D01*
X188796962Y-119292456D01*
X188743961Y-119469780D01*
X188735891Y-119490135D01*
X188652996Y-119655599D01*
X188641526Y-119674247D01*
X188534569Y-119818375D01*
X188531233Y-119822870D01*
X188516706Y-119839252D01*
X188382359Y-119966527D01*
X188365216Y-119980148D01*
X188210853Y-120082251D01*
X188191610Y-120092698D01*
X188021909Y-120166533D01*
X188001149Y-120173491D01*
X187821224Y-120216834D01*
X187799573Y-120220093D01*
X187647655Y-120229586D01*
X187625454Y-120229012D01*
X187621358Y-120228543D01*
X187616579Y-120227617D01*
X187610563Y-120227395D01*
X187610295Y-120227347D01*
X187610025Y-120227376D01*
X187604034Y-120227155D01*
X187599194Y-120227727D01*
X187599188Y-120227727D01*
X187593763Y-120228368D01*
X187583402Y-120229161D01*
X187394348Y-120235795D01*
X187337939Y-120237775D01*
X187337938Y-120237775D01*
X187334180Y-120237907D01*
X187118803Y-120271447D01*
X187082272Y-120277136D01*
X187067406Y-120279451D01*
X187063783Y-120280469D01*
X187063778Y-120280470D01*
X186811109Y-120351458D01*
X186811103Y-120351460D01*
X186807480Y-120352478D01*
X186804008Y-120353919D01*
X186804001Y-120353921D01*
X186700936Y-120396685D01*
X186558105Y-120455947D01*
X186322831Y-120588386D01*
X186105008Y-120747909D01*
X185907739Y-120932243D01*
X185733833Y-121138764D01*
X185731770Y-121141910D01*
X185731769Y-121141911D01*
X185587828Y-121361385D01*
X185587824Y-121361393D01*
X185585766Y-121364530D01*
X185584093Y-121367898D01*
X185584090Y-121367903D01*
X185574486Y-121387236D01*
X185465648Y-121606327D01*
X185464386Y-121609876D01*
X185378078Y-121852585D01*
X185375188Y-121860711D01*
X185315676Y-122124059D01*
X185315291Y-122127794D01*
X185315290Y-122127797D01*
X185288344Y-122388871D01*
X185287957Y-122392622D01*
X185288019Y-122396383D01*
X185288019Y-122396389D01*
X185291824Y-122626141D01*
X185291327Y-122639596D01*
X185290371Y-122650142D01*
X185290756Y-122656143D01*
X185290735Y-122656412D01*
X185290790Y-122656677D01*
X185291175Y-122662670D01*
X185292228Y-122667411D01*
X185292228Y-122667413D01*
X185292581Y-122669001D01*
X185292862Y-122671868D01*
X185292914Y-122672231D01*
X185292898Y-122672233D01*
X185295544Y-122699193D01*
X185292643Y-122826136D01*
X185289609Y-122850887D01*
X185256415Y-122998575D01*
X185248566Y-123022245D01*
X185186935Y-123160506D01*
X185174579Y-123182165D01*
X185086925Y-123305583D01*
X185070546Y-123324382D01*
X184960302Y-123428119D01*
X184940541Y-123443326D01*
X184812031Y-123523319D01*
X184789658Y-123534338D01*
X184647911Y-123587453D01*
X184623811Y-123593850D01*
X184561740Y-123603886D01*
X184474366Y-123618013D01*
X184449484Y-123619537D01*
X184350736Y-123615789D01*
X184298218Y-123613795D01*
X184273516Y-123610388D01*
X184126345Y-123574969D01*
X184102797Y-123566764D01*
X184021934Y-123529246D01*
X183965482Y-123503054D01*
X183944011Y-123490372D01*
X183846273Y-123418713D01*
X183828547Y-123402947D01*
X183827563Y-123401890D01*
X183824534Y-123398085D01*
X183820118Y-123394021D01*
X183819946Y-123393810D01*
X183819721Y-123393655D01*
X183815297Y-123389584D01*
X183812486Y-123387704D01*
X183811311Y-123386732D01*
X182989632Y-122672083D01*
X182915250Y-122607390D01*
X182915244Y-122607385D01*
X182914499Y-122606737D01*
X181989553Y-121852585D01*
X181041087Y-121128237D01*
X181012500Y-121107811D01*
X180070891Y-120435020D01*
X180070871Y-120435006D01*
X180070059Y-120434426D01*
X180068560Y-120433425D01*
X179078310Y-119772426D01*
X179078308Y-119772424D01*
X179077453Y-119771854D01*
X178395397Y-119347302D01*
X178065128Y-119141723D01*
X178065119Y-119141718D01*
X178064273Y-119141191D01*
X177031545Y-118543076D01*
X175980313Y-117978114D01*
X175953498Y-117964784D01*
X175655131Y-117816466D01*
X174911643Y-117446878D01*
X173826615Y-116949903D01*
X172965956Y-116588358D01*
X172727282Y-116488096D01*
X172727272Y-116488092D01*
X172726327Y-116487695D01*
X172725399Y-116487340D01*
X172725373Y-116487329D01*
X171612818Y-116061074D01*
X171612817Y-116061074D01*
X171611894Y-116060720D01*
X171610975Y-116060401D01*
X171610953Y-116060393D01*
X171224124Y-115926135D01*
X178242535Y-115926135D01*
X178242832Y-115931288D01*
X178242832Y-115931291D01*
X178251814Y-116087064D01*
X178255867Y-116157363D01*
X178257004Y-116162409D01*
X178257005Y-116162415D01*
X178279707Y-116263151D01*
X178306786Y-116383308D01*
X178308728Y-116388090D01*
X178308729Y-116388094D01*
X178390048Y-116588358D01*
X178393924Y-116597903D01*
X178514941Y-116795385D01*
X178666587Y-116970450D01*
X178844789Y-117118396D01*
X179044762Y-117235250D01*
X179261134Y-117317875D01*
X179266200Y-117318906D01*
X179266201Y-117318906D01*
X179319286Y-117329706D01*
X179488096Y-117364051D01*
X179618764Y-117368842D01*
X179714389Y-117372349D01*
X179714393Y-117372349D01*
X179719553Y-117372538D01*
X179724673Y-117371882D01*
X179724675Y-117371882D01*
X179917675Y-117347158D01*
X179987785Y-117358342D01*
X180040719Y-117405656D01*
X180059670Y-117474076D01*
X180056955Y-117498226D01*
X180042433Y-117566843D01*
X180053481Y-117712081D01*
X180104848Y-117848380D01*
X180192405Y-117964784D01*
X180198566Y-117969720D01*
X180198569Y-117969723D01*
X180238556Y-118001759D01*
X180238562Y-118001763D01*
X180241219Y-118003892D01*
X180244096Y-118005725D01*
X180244099Y-118005727D01*
X180567122Y-118211515D01*
X181840516Y-119022756D01*
X181896589Y-119050469D01*
X181904316Y-119052104D01*
X181904318Y-119052105D01*
X181945771Y-119060878D01*
X182039090Y-119080628D01*
X182096197Y-119076284D01*
X182175382Y-119070261D01*
X182175385Y-119070260D01*
X182184328Y-119069580D01*
X182304568Y-119024265D01*
X182312229Y-119021378D01*
X182320627Y-119018213D01*
X182437031Y-118930656D01*
X182441967Y-118924495D01*
X182441970Y-118924492D01*
X182474006Y-118884505D01*
X182474010Y-118884499D01*
X182476139Y-118881842D01*
X182533955Y-118791090D01*
X182924377Y-118178249D01*
X183495003Y-117282545D01*
X183522716Y-117226472D01*
X183552875Y-117083971D01*
X183544240Y-116970450D01*
X183542508Y-116947679D01*
X183542507Y-116947676D01*
X183541827Y-116938733D01*
X183490460Y-116802434D01*
X183402903Y-116686030D01*
X183396742Y-116681094D01*
X183396739Y-116681091D01*
X183356752Y-116649055D01*
X183356746Y-116649051D01*
X183354089Y-116646922D01*
X183284058Y-116602307D01*
X182369280Y-116019530D01*
X181754792Y-115628058D01*
X181698719Y-115600345D01*
X181690992Y-115598710D01*
X181690990Y-115598709D01*
X181623370Y-115584398D01*
X181556218Y-115570186D01*
X181502748Y-115574253D01*
X181419926Y-115580553D01*
X181419923Y-115580554D01*
X181410980Y-115581234D01*
X181307772Y-115620130D01*
X181286736Y-115628058D01*
X181274681Y-115632601D01*
X181225744Y-115669411D01*
X181216686Y-115676224D01*
X181150223Y-115701188D01*
X181080814Y-115686256D01*
X181030497Y-115636170D01*
X181018741Y-115606226D01*
X181018144Y-115603847D01*
X180993365Y-115505199D01*
X180981715Y-115478405D01*
X180903070Y-115297534D01*
X180903068Y-115297531D01*
X180901010Y-115292797D01*
X180775204Y-115098331D01*
X180760291Y-115081941D01*
X180681486Y-114995336D01*
X180619327Y-114927024D01*
X180615276Y-114923825D01*
X180615272Y-114923821D01*
X180441617Y-114786677D01*
X180441612Y-114786674D01*
X180437563Y-114783476D01*
X180433047Y-114780983D01*
X180433044Y-114780981D01*
X180239319Y-114674039D01*
X180239315Y-114674037D01*
X180234795Y-114671542D01*
X180229926Y-114669818D01*
X180229922Y-114669816D01*
X180021343Y-114595954D01*
X180021339Y-114595953D01*
X180016468Y-114594228D01*
X180011375Y-114593321D01*
X180011372Y-114593320D01*
X179793535Y-114554517D01*
X179793529Y-114554516D01*
X179788446Y-114553611D01*
X179715536Y-114552720D01*
X179562021Y-114550845D01*
X179562019Y-114550845D01*
X179556851Y-114550782D01*
X179327904Y-114585816D01*
X179107754Y-114657772D01*
X179103166Y-114660160D01*
X179103162Y-114660162D01*
X178960848Y-114734246D01*
X178902312Y-114764718D01*
X178898179Y-114767821D01*
X178898176Y-114767823D01*
X178786151Y-114851934D01*
X178717095Y-114903783D01*
X178557079Y-115071230D01*
X178554165Y-115075502D01*
X178554164Y-115075503D01*
X178538592Y-115098331D01*
X178426559Y-115262565D01*
X178329042Y-115472647D01*
X178267147Y-115695835D01*
X178242535Y-115926135D01*
X171224124Y-115926135D01*
X171023080Y-115856358D01*
X170484443Y-115669411D01*
X170483470Y-115669108D01*
X170483453Y-115669102D01*
X169590836Y-115390780D01*
X169345115Y-115314163D01*
X168195063Y-114995336D01*
X168194140Y-114995111D01*
X168194119Y-114995106D01*
X167036399Y-114713483D01*
X167036378Y-114713478D01*
X167035452Y-114713253D01*
X165867455Y-114468200D01*
X164692253Y-114260424D01*
X164286505Y-114201930D01*
X163512024Y-114090278D01*
X163512006Y-114090276D01*
X163511037Y-114090136D01*
X163510045Y-114090025D01*
X163510021Y-114090022D01*
X162326027Y-113957621D01*
X162325995Y-113957618D01*
X162325003Y-113957507D01*
X162324027Y-113957429D01*
X162324004Y-113957427D01*
X161136353Y-113862753D01*
X161136351Y-113862753D01*
X161135349Y-113862673D01*
X161072161Y-113859655D01*
X161005077Y-113836426D01*
X160961197Y-113780613D01*
X160954457Y-113709937D01*
X160986998Y-113646837D01*
X161006855Y-113632996D01*
X167549104Y-113632996D01*
X167558401Y-113645012D01*
X167601396Y-113675117D01*
X167610882Y-113680595D01*
X167802320Y-113769864D01*
X167812612Y-113773610D01*
X168016636Y-113828278D01*
X168027431Y-113830181D01*
X168237852Y-113848591D01*
X168248802Y-113848591D01*
X168459223Y-113830181D01*
X168470018Y-113828278D01*
X168674042Y-113773610D01*
X168684334Y-113769864D01*
X168875772Y-113680595D01*
X168885258Y-113675117D01*
X168929091Y-113644426D01*
X168937466Y-113633948D01*
X168930398Y-113620500D01*
X168656552Y-113346654D01*
X170808531Y-113346654D01*
X170817926Y-113351549D01*
X170827591Y-113352762D01*
X170976913Y-113356150D01*
X170992551Y-113354534D01*
X171136571Y-113321020D01*
X171151330Y-113315561D01*
X171282485Y-113247286D01*
X171295420Y-113238329D01*
X171405478Y-113139579D01*
X171415777Y-113127690D01*
X171485337Y-113023390D01*
X171489538Y-113009930D01*
X171483595Y-113004601D01*
X170980804Y-112846071D01*
X170964923Y-112845756D01*
X170963355Y-112846720D01*
X170959453Y-112853541D01*
X170808837Y-113331237D01*
X170808531Y-113346654D01*
X168656552Y-113346654D01*
X168256139Y-112946241D01*
X168242195Y-112938627D01*
X168240362Y-112938758D01*
X168233747Y-112943009D01*
X167555534Y-113621222D01*
X167549104Y-113632996D01*
X161006855Y-113632996D01*
X161028083Y-113618200D01*
X161035593Y-113616018D01*
X161042412Y-113611985D01*
X161042417Y-113611983D01*
X161053028Y-113605707D01*
X161070776Y-113597012D01*
X161089617Y-113589552D01*
X161125387Y-113563564D01*
X161135307Y-113557048D01*
X161166535Y-113538580D01*
X161166538Y-113538578D01*
X161173362Y-113534542D01*
X161187683Y-113520221D01*
X161202717Y-113507380D01*
X161204162Y-113506330D01*
X161219107Y-113495472D01*
X161247298Y-113461395D01*
X161255288Y-113452616D01*
X162128210Y-112579694D01*
X166968955Y-112579694D01*
X166987365Y-112790115D01*
X166989268Y-112800910D01*
X167043936Y-113004934D01*
X167047682Y-113015226D01*
X167136950Y-113206660D01*
X167142430Y-113216151D01*
X167173121Y-113259984D01*
X167183598Y-113268359D01*
X167197045Y-113261291D01*
X167871305Y-112587031D01*
X167877683Y-112575351D01*
X168607735Y-112575351D01*
X168607866Y-112577184D01*
X168612117Y-112583799D01*
X169290330Y-113262012D01*
X169302104Y-113268442D01*
X169314120Y-113259145D01*
X169344224Y-113216151D01*
X169349704Y-113206660D01*
X169438972Y-113015226D01*
X169442718Y-113004934D01*
X169497386Y-112800910D01*
X169499289Y-112790115D01*
X169510356Y-112663619D01*
X169943921Y-112663619D01*
X169945537Y-112679257D01*
X169979051Y-112823277D01*
X169984510Y-112838036D01*
X170052785Y-112969192D01*
X170061742Y-112982127D01*
X170160492Y-113092185D01*
X170172382Y-113102484D01*
X170296640Y-113185355D01*
X170303799Y-113189138D01*
X170317448Y-113190484D01*
X170323727Y-113180445D01*
X170473589Y-112705143D01*
X170473904Y-112689262D01*
X170472940Y-112687694D01*
X170466119Y-112683792D01*
X169964453Y-112525617D01*
X169950353Y-112525337D01*
X169946895Y-112532529D01*
X169943921Y-112663619D01*
X169510356Y-112663619D01*
X169517699Y-112579694D01*
X169517699Y-112568744D01*
X169499289Y-112358323D01*
X169497386Y-112347528D01*
X169442718Y-112143504D01*
X169438972Y-112133212D01*
X169349704Y-111941778D01*
X169344224Y-111932287D01*
X169313533Y-111888454D01*
X169303056Y-111880079D01*
X169289609Y-111887147D01*
X168615349Y-112561407D01*
X168607735Y-112575351D01*
X167877683Y-112575351D01*
X167878919Y-112573087D01*
X167878788Y-112571254D01*
X167874537Y-112564639D01*
X167196324Y-111886426D01*
X167184550Y-111879996D01*
X167172534Y-111889293D01*
X167142430Y-111932287D01*
X167136950Y-111941778D01*
X167047682Y-112133212D01*
X167043936Y-112143504D01*
X166989268Y-112347528D01*
X166987365Y-112358323D01*
X166968955Y-112568744D01*
X166968955Y-112579694D01*
X162128210Y-112579694D01*
X163387500Y-111320405D01*
X163449812Y-111286379D01*
X163476595Y-111283500D01*
X164723134Y-111283500D01*
X164785316Y-111276745D01*
X164921705Y-111225615D01*
X165038261Y-111138261D01*
X165125615Y-111021705D01*
X165176745Y-110885316D01*
X165183500Y-110823134D01*
X165183500Y-109509989D01*
X165203502Y-109441868D01*
X165257158Y-109395375D01*
X165309500Y-109383989D01*
X167765523Y-109383989D01*
X167833644Y-109403991D01*
X167880137Y-109457647D01*
X167890241Y-109527921D01*
X167879718Y-109563239D01*
X167808679Y-109715582D01*
X167751141Y-109930315D01*
X167731766Y-110151778D01*
X167751141Y-110373241D01*
X167789616Y-110516829D01*
X167806909Y-110581367D01*
X167808679Y-110587974D01*
X167811001Y-110592955D01*
X167811002Y-110592956D01*
X167900305Y-110784467D01*
X167900308Y-110784472D01*
X167902631Y-110789454D01*
X167905787Y-110793961D01*
X167905788Y-110793963D01*
X168024134Y-110962978D01*
X168030142Y-110971559D01*
X168157664Y-111099081D01*
X168191690Y-111161393D01*
X168186625Y-111232208D01*
X168144078Y-111289044D01*
X168079550Y-111313697D01*
X168027432Y-111318256D01*
X168016636Y-111320160D01*
X167812612Y-111374828D01*
X167802320Y-111378574D01*
X167610886Y-111467842D01*
X167601395Y-111473322D01*
X167557562Y-111504013D01*
X167549187Y-111514490D01*
X167556255Y-111527937D01*
X168230515Y-112202197D01*
X168244459Y-112209811D01*
X168246292Y-112209680D01*
X168252907Y-112205429D01*
X168931120Y-111527216D01*
X168952347Y-111488343D01*
X169002550Y-111438142D01*
X169051952Y-111423209D01*
X169129142Y-111416456D01*
X169228582Y-111407756D01*
X169392030Y-111363960D01*
X169438005Y-111351641D01*
X169438007Y-111351640D01*
X169443315Y-111350218D01*
X169448297Y-111347895D01*
X169639809Y-111258592D01*
X169639814Y-111258589D01*
X169644796Y-111256266D01*
X169772696Y-111166709D01*
X169822389Y-111131914D01*
X169822392Y-111131912D01*
X169826900Y-111128755D01*
X169984096Y-110971559D01*
X169987255Y-110967048D01*
X170097074Y-110810210D01*
X170152531Y-110765882D01*
X170223150Y-110758573D01*
X170289382Y-110793386D01*
X170406217Y-110910221D01*
X170440243Y-110972533D01*
X170435178Y-111043348D01*
X170421948Y-111069226D01*
X170384903Y-111124772D01*
X170384898Y-111124781D01*
X170381329Y-111130133D01*
X170378918Y-111136101D01*
X170368444Y-111162023D01*
X170368440Y-111162034D01*
X170367512Y-111164331D01*
X170366764Y-111166704D01*
X170366762Y-111166709D01*
X170276624Y-111452588D01*
X170243931Y-111556278D01*
X170235635Y-111592216D01*
X170231917Y-111756023D01*
X170236151Y-111774216D01*
X170236329Y-111774981D01*
X170232287Y-111845863D01*
X170197756Y-111897323D01*
X170189840Y-111904425D01*
X170179545Y-111916310D01*
X170109985Y-112020610D01*
X170105784Y-112034070D01*
X170111727Y-112039399D01*
X170376794Y-112122975D01*
X170432688Y-112158996D01*
X170454135Y-112182899D01*
X170460727Y-112187295D01*
X170460729Y-112187297D01*
X170585089Y-112270235D01*
X170585094Y-112270238D01*
X170590449Y-112273809D01*
X170605327Y-112279820D01*
X170622339Y-112286694D01*
X170622350Y-112286698D01*
X170624647Y-112287626D01*
X170627020Y-112288374D01*
X170627025Y-112288376D01*
X170903522Y-112375555D01*
X171073818Y-112429249D01*
X171076227Y-112429805D01*
X171076230Y-112429806D01*
X171084200Y-112431646D01*
X171109756Y-112437546D01*
X171116185Y-112437692D01*
X171116186Y-112437692D01*
X171142543Y-112438290D01*
X171273563Y-112441264D01*
X171304842Y-112433985D01*
X171371290Y-112436538D01*
X171630869Y-112518383D01*
X171644969Y-112518663D01*
X171648427Y-112511471D01*
X171650139Y-112436007D01*
X171671681Y-112368357D01*
X171726377Y-112323093D01*
X171776107Y-112312864D01*
X172678998Y-112312864D01*
X172747119Y-112332866D01*
X172782211Y-112366593D01*
X172863047Y-112482038D01*
X172875025Y-112499145D01*
X173002085Y-112626205D01*
X173036111Y-112688517D01*
X173031046Y-112759332D01*
X172988499Y-112816168D01*
X172923971Y-112840821D01*
X172866746Y-112845827D01*
X172756077Y-112875481D01*
X172657323Y-112901942D01*
X172657321Y-112901943D01*
X172652013Y-112903365D01*
X172647032Y-112905687D01*
X172647031Y-112905688D01*
X172455520Y-112994991D01*
X172455515Y-112994994D01*
X172450533Y-112997317D01*
X172446026Y-113000473D01*
X172446024Y-113000474D01*
X172272939Y-113121669D01*
X172272936Y-113121671D01*
X172268428Y-113124828D01*
X172111232Y-113282024D01*
X172108075Y-113286532D01*
X172108073Y-113286535D01*
X171991782Y-113452616D01*
X171983721Y-113464129D01*
X171981398Y-113469111D01*
X171981395Y-113469116D01*
X171892092Y-113660627D01*
X171889769Y-113665609D01*
X171888347Y-113670917D01*
X171888346Y-113670919D01*
X171880445Y-113700405D01*
X171832231Y-113880342D01*
X171812856Y-114101805D01*
X171832231Y-114323268D01*
X171889769Y-114538001D01*
X171892091Y-114542982D01*
X171892092Y-114542983D01*
X171981395Y-114734494D01*
X171981398Y-114734499D01*
X171983721Y-114739481D01*
X171986877Y-114743988D01*
X171986878Y-114743990D01*
X172102446Y-114909038D01*
X172111232Y-114921586D01*
X172268428Y-115078782D01*
X172272936Y-115081939D01*
X172272939Y-115081941D01*
X172348704Y-115134992D01*
X172450532Y-115206293D01*
X172455514Y-115208616D01*
X172455519Y-115208619D01*
X172646019Y-115297450D01*
X172652013Y-115300245D01*
X172657321Y-115301667D01*
X172657323Y-115301668D01*
X172703955Y-115314163D01*
X172866746Y-115357783D01*
X173088209Y-115377158D01*
X173309672Y-115357783D01*
X173472463Y-115314163D01*
X173519095Y-115301668D01*
X173519097Y-115301667D01*
X173524405Y-115300245D01*
X173530399Y-115297450D01*
X173720899Y-115208619D01*
X173720904Y-115208616D01*
X173725886Y-115206293D01*
X173827714Y-115134992D01*
X173903479Y-115081941D01*
X173903482Y-115081939D01*
X173907990Y-115078782D01*
X174065186Y-114921586D01*
X174073973Y-114909038D01*
X174189540Y-114743990D01*
X174189541Y-114743988D01*
X174192697Y-114739481D01*
X174195020Y-114734499D01*
X174195023Y-114734494D01*
X174284326Y-114542983D01*
X174284327Y-114542982D01*
X174286649Y-114538001D01*
X174344187Y-114323268D01*
X174363562Y-114101805D01*
X174344187Y-113880342D01*
X174295973Y-113700405D01*
X174288072Y-113670919D01*
X174288071Y-113670917D01*
X174286649Y-113665609D01*
X174284326Y-113660627D01*
X174195023Y-113469116D01*
X174195020Y-113469111D01*
X174192697Y-113464129D01*
X174184636Y-113452616D01*
X174068345Y-113286535D01*
X174068343Y-113286532D01*
X174065186Y-113282024D01*
X173938126Y-113154964D01*
X173904100Y-113092652D01*
X173909165Y-113021837D01*
X173951712Y-112965001D01*
X174016240Y-112940348D01*
X174073465Y-112935342D01*
X174217053Y-112896867D01*
X174282888Y-112879227D01*
X174282890Y-112879226D01*
X174288198Y-112877804D01*
X174338487Y-112854354D01*
X174484692Y-112786178D01*
X174484697Y-112786175D01*
X174489679Y-112783852D01*
X174602087Y-112705143D01*
X174667272Y-112659500D01*
X174667275Y-112659498D01*
X174671783Y-112656341D01*
X174828979Y-112499145D01*
X174840958Y-112482038D01*
X174953333Y-112321549D01*
X174953334Y-112321547D01*
X174956490Y-112317040D01*
X174958813Y-112312058D01*
X174958816Y-112312053D01*
X175048119Y-112120542D01*
X175048120Y-112120541D01*
X175050442Y-112115560D01*
X175051942Y-112109964D01*
X175076733Y-112017442D01*
X175107980Y-111900827D01*
X175127355Y-111679364D01*
X175107980Y-111457901D01*
X175069340Y-111313697D01*
X175051865Y-111248478D01*
X175051864Y-111248476D01*
X175050442Y-111243168D01*
X175041952Y-111224961D01*
X174958816Y-111046675D01*
X174958813Y-111046670D01*
X174956490Y-111041688D01*
X174953333Y-111037179D01*
X174832138Y-110864094D01*
X174832136Y-110864091D01*
X174828979Y-110859583D01*
X174671783Y-110702387D01*
X174667275Y-110699230D01*
X174667272Y-110699228D01*
X174589366Y-110644678D01*
X174489679Y-110574876D01*
X174484697Y-110572553D01*
X174484692Y-110572550D01*
X174293180Y-110483247D01*
X174293179Y-110483246D01*
X174288198Y-110480924D01*
X174282890Y-110479502D01*
X174282888Y-110479501D01*
X174138622Y-110440845D01*
X174073465Y-110423386D01*
X173852002Y-110404011D01*
X173630539Y-110423386D01*
X173565382Y-110440845D01*
X173421116Y-110479501D01*
X173421114Y-110479502D01*
X173415806Y-110480924D01*
X173410825Y-110483246D01*
X173410824Y-110483247D01*
X173219313Y-110572550D01*
X173219308Y-110572553D01*
X173214326Y-110574876D01*
X173209819Y-110578032D01*
X173209817Y-110578033D01*
X173036732Y-110699228D01*
X173036729Y-110699230D01*
X173032221Y-110702387D01*
X172875025Y-110859583D01*
X172871868Y-110864091D01*
X172871866Y-110864094D01*
X172782211Y-110992135D01*
X172726754Y-111036463D01*
X172678998Y-111045864D01*
X171845839Y-111045864D01*
X171777718Y-111025862D01*
X171731225Y-110972206D01*
X171719839Y-110919864D01*
X171719839Y-110773205D01*
X171720366Y-110762022D01*
X171722041Y-110754529D01*
X171721299Y-110730907D01*
X171719901Y-110686452D01*
X171719839Y-110682493D01*
X171719839Y-110654582D01*
X171719334Y-110650582D01*
X171718401Y-110638739D01*
X171718035Y-110627077D01*
X171717012Y-110594549D01*
X171711360Y-110575095D01*
X171707352Y-110555738D01*
X171705807Y-110543508D01*
X171705807Y-110543507D01*
X171704813Y-110535641D01*
X171701894Y-110528268D01*
X171688535Y-110494526D01*
X171684690Y-110483296D01*
X171674568Y-110448455D01*
X171674568Y-110448454D01*
X171672357Y-110440845D01*
X171668324Y-110434026D01*
X171668322Y-110434021D01*
X171662046Y-110423410D01*
X171653351Y-110405662D01*
X171645891Y-110386821D01*
X171632046Y-110367764D01*
X171619903Y-110351051D01*
X171613387Y-110341131D01*
X171594919Y-110309903D01*
X171594917Y-110309900D01*
X171590881Y-110303076D01*
X171576560Y-110288755D01*
X171563719Y-110273721D01*
X171556470Y-110263744D01*
X171551811Y-110257331D01*
X171517734Y-110229140D01*
X171508955Y-110221150D01*
X169714705Y-108426899D01*
X169680679Y-108364587D01*
X169685744Y-108293771D01*
X169728291Y-108236936D01*
X169794811Y-108212125D01*
X169835834Y-108215944D01*
G37*
%TD.AperFunction*%
%TA.AperFunction,Conductor*%
G36*
X157305666Y-47848495D02*
G01*
X157352159Y-47902151D01*
X157362263Y-47972425D01*
X157332769Y-48037005D01*
X157320623Y-48049225D01*
X157242044Y-48118137D01*
X157149186Y-48199572D01*
X157146477Y-48202661D01*
X156956698Y-48419061D01*
X156956694Y-48419067D01*
X156953980Y-48422161D01*
X156951691Y-48425587D01*
X156951687Y-48425592D01*
X156933761Y-48452421D01*
X156789498Y-48668326D01*
X156658554Y-48933854D01*
X156657229Y-48937759D01*
X156657228Y-48937760D01*
X156602515Y-49098941D01*
X156563389Y-49214202D01*
X156562585Y-49218246D01*
X156562583Y-49218252D01*
X156532603Y-49368973D01*
X156505630Y-49504573D01*
X156486267Y-49799999D01*
X156505630Y-50095425D01*
X156563389Y-50385796D01*
X156658554Y-50666144D01*
X156789498Y-50931672D01*
X156953980Y-51177837D01*
X156956694Y-51180931D01*
X156956698Y-51180937D01*
X157146477Y-51397337D01*
X157149186Y-51400426D01*
X157152275Y-51403135D01*
X157368675Y-51592914D01*
X157368681Y-51592918D01*
X157371775Y-51595632D01*
X157375201Y-51597921D01*
X157375206Y-51597925D01*
X157559018Y-51720743D01*
X157617940Y-51760114D01*
X157621639Y-51761938D01*
X157621644Y-51761941D01*
X157757926Y-51829147D01*
X157883468Y-51891058D01*
X157887373Y-51892383D01*
X157887374Y-51892384D01*
X158159903Y-51984895D01*
X158159907Y-51984896D01*
X158163816Y-51986223D01*
X158167860Y-51987027D01*
X158167866Y-51987029D01*
X158450148Y-52043179D01*
X158450154Y-52043180D01*
X158454187Y-52043982D01*
X158458292Y-52044251D01*
X158458299Y-52044252D01*
X158745494Y-52063075D01*
X158749613Y-52063345D01*
X158753732Y-52063075D01*
X159040927Y-52044252D01*
X159040934Y-52044251D01*
X159045039Y-52043982D01*
X159049072Y-52043180D01*
X159049078Y-52043179D01*
X159331360Y-51987029D01*
X159331366Y-51987027D01*
X159335410Y-51986223D01*
X159339319Y-51984896D01*
X159339323Y-51984895D01*
X159611852Y-51892384D01*
X159611853Y-51892383D01*
X159615758Y-51891058D01*
X159741300Y-51829147D01*
X159877582Y-51761941D01*
X159877587Y-51761938D01*
X159881286Y-51760114D01*
X159940208Y-51720743D01*
X160124020Y-51597925D01*
X160124025Y-51597921D01*
X160127451Y-51595632D01*
X160130545Y-51592918D01*
X160130551Y-51592914D01*
X160346951Y-51403135D01*
X160350040Y-51400426D01*
X160352749Y-51397337D01*
X160542528Y-51180937D01*
X160542532Y-51180931D01*
X160545246Y-51177837D01*
X160709728Y-50931672D01*
X160840672Y-50666144D01*
X160935837Y-50385796D01*
X160993596Y-50095425D01*
X161012959Y-49799999D01*
X160993596Y-49504573D01*
X160966624Y-49368973D01*
X160936643Y-49218252D01*
X160936641Y-49218246D01*
X160935837Y-49214202D01*
X160896712Y-49098941D01*
X160841998Y-48937760D01*
X160841997Y-48937759D01*
X160840672Y-48933854D01*
X160709728Y-48668326D01*
X160565465Y-48452421D01*
X160547539Y-48425592D01*
X160547535Y-48425587D01*
X160545246Y-48422161D01*
X160542532Y-48419067D01*
X160542528Y-48419061D01*
X160352749Y-48202661D01*
X160350040Y-48199572D01*
X160257182Y-48118137D01*
X160178603Y-48049225D01*
X160140576Y-47989271D01*
X160140998Y-47918276D01*
X160179737Y-47858779D01*
X160244492Y-47829671D01*
X160261681Y-47828493D01*
X160733226Y-47828493D01*
X160755049Y-47830397D01*
X160758302Y-47830969D01*
X160763641Y-47831908D01*
X160763642Y-47831908D01*
X160772478Y-47833462D01*
X160786733Y-47831882D01*
X160812837Y-47831709D01*
X160819608Y-47832369D01*
X160999148Y-47849870D01*
X161018374Y-47853265D01*
X161068247Y-47866121D01*
X161223217Y-47906071D01*
X161241689Y-47912395D01*
X161255317Y-47918276D01*
X161435904Y-47996209D01*
X161435920Y-47996216D01*
X161453187Y-48005315D01*
X161632138Y-48118140D01*
X161647788Y-48129793D01*
X161807171Y-48268922D01*
X161820832Y-48282855D01*
X161956791Y-48444919D01*
X161968143Y-48460805D01*
X162077433Y-48641931D01*
X162086195Y-48659380D01*
X162166187Y-48855210D01*
X162172148Y-48873803D01*
X162220927Y-49079648D01*
X162220927Y-49079650D01*
X162223943Y-49098941D01*
X162237907Y-49278632D01*
X162237259Y-49295482D01*
X162237413Y-49295484D01*
X162237303Y-49304460D01*
X162235922Y-49313330D01*
X162237086Y-49322233D01*
X162237086Y-49322238D01*
X162240049Y-49344900D01*
X162241113Y-49361236D01*
X162241113Y-104631294D01*
X162239366Y-104652202D01*
X162237002Y-104666254D01*
X162236037Y-104671986D01*
X162235978Y-104676853D01*
X162235961Y-104678262D01*
X162235884Y-104684538D01*
X162236574Y-104689357D01*
X162236703Y-104691340D01*
X162237370Y-104697907D01*
X162253755Y-104970235D01*
X162254701Y-104985965D01*
X162255377Y-104989675D01*
X162255378Y-104989680D01*
X162281531Y-105133132D01*
X162308861Y-105283040D01*
X162398261Y-105571475D01*
X162399801Y-105574917D01*
X162399804Y-105574924D01*
X162451516Y-105690473D01*
X162521613Y-105847104D01*
X162677135Y-106105947D01*
X162679463Y-106108939D01*
X162679468Y-106108946D01*
X162719056Y-106159821D01*
X162862580Y-106344268D01*
X163075273Y-106558625D01*
X163078244Y-106560975D01*
X163078246Y-106560976D01*
X163263200Y-106707224D01*
X163312141Y-106745923D01*
X163315370Y-106747897D01*
X163315375Y-106747901D01*
X163566525Y-106901477D01*
X163566533Y-106901481D01*
X163569764Y-106903457D01*
X163573206Y-106905030D01*
X163573214Y-106905034D01*
X163840973Y-107027378D01*
X163840978Y-107027380D01*
X163844423Y-107028954D01*
X163848033Y-107030104D01*
X163848036Y-107030105D01*
X164128547Y-107119452D01*
X164128551Y-107119453D01*
X164132152Y-107120600D01*
X164398491Y-107171304D01*
X164411512Y-107174511D01*
X164416284Y-107175959D01*
X164422231Y-107176798D01*
X164422492Y-107176874D01*
X164422764Y-107176873D01*
X164428713Y-107177713D01*
X164433585Y-107177644D01*
X164433590Y-107177644D01*
X164452347Y-107177377D01*
X164472013Y-107178638D01*
X164999599Y-107254250D01*
X165690618Y-107353285D01*
X165694113Y-107353837D01*
X166947883Y-107570381D01*
X166951419Y-107571044D01*
X168198432Y-107823443D01*
X168201962Y-107824211D01*
X168391477Y-107868261D01*
X168453301Y-107903166D01*
X168486439Y-107965954D01*
X168480370Y-108036691D01*
X168437022Y-108092918D01*
X168370157Y-108116783D01*
X168362951Y-108116989D01*
X162538274Y-108116989D01*
X162527090Y-108116462D01*
X162519602Y-108114788D01*
X162456126Y-108116783D01*
X162451544Y-108116927D01*
X162447586Y-108116989D01*
X162419655Y-108116989D01*
X162415740Y-108117484D01*
X162415736Y-108117484D01*
X162415678Y-108117492D01*
X162415649Y-108117495D01*
X162403807Y-108118428D01*
X162359621Y-108119816D01*
X162342255Y-108124861D01*
X162340169Y-108125467D01*
X162320817Y-108129475D01*
X162308579Y-108131021D01*
X162308577Y-108131022D01*
X162300714Y-108132015D01*
X162259597Y-108148295D01*
X162248396Y-108152130D01*
X162205917Y-108164471D01*
X162199098Y-108168504D01*
X162199093Y-108168506D01*
X162188482Y-108174782D01*
X162170732Y-108183479D01*
X162151894Y-108190937D01*
X162145478Y-108195598D01*
X162145477Y-108195599D01*
X162116136Y-108216917D01*
X162106212Y-108223436D01*
X162074971Y-108241911D01*
X162074966Y-108241915D01*
X162068148Y-108245947D01*
X162053824Y-108260271D01*
X162038792Y-108273110D01*
X162022404Y-108285017D01*
X162013728Y-108295505D01*
X161994223Y-108319082D01*
X161986233Y-108327862D01*
X161742345Y-108571750D01*
X161680033Y-108605776D01*
X161631154Y-108606702D01*
X161418373Y-108568800D01*
X161418367Y-108568799D01*
X161413284Y-108567894D01*
X161339452Y-108566992D01*
X161195081Y-108565228D01*
X161195079Y-108565228D01*
X161189911Y-108565165D01*
X160969091Y-108598955D01*
X160956532Y-108603060D01*
X160885568Y-108605210D01*
X160828294Y-108572389D01*
X160536152Y-108280247D01*
X160502126Y-108217935D01*
X160507191Y-108147120D01*
X160549738Y-108090284D01*
X160571997Y-108076957D01*
X160650445Y-108040376D01*
X160659931Y-108034898D01*
X160703764Y-108004207D01*
X160712139Y-107993729D01*
X160705071Y-107980281D01*
X159747885Y-107023095D01*
X159713859Y-106960783D01*
X159715694Y-106935132D01*
X160382408Y-106935132D01*
X160382539Y-106936965D01*
X160386790Y-106943580D01*
X161065003Y-107621793D01*
X161076777Y-107628223D01*
X161088793Y-107618926D01*
X161118897Y-107575932D01*
X161124377Y-107566441D01*
X161213645Y-107375007D01*
X161217391Y-107364715D01*
X161272059Y-107160691D01*
X161273962Y-107149896D01*
X161292372Y-106939475D01*
X161292372Y-106928525D01*
X161273962Y-106718104D01*
X161272059Y-106707309D01*
X161217391Y-106503285D01*
X161213645Y-106492993D01*
X161124377Y-106301559D01*
X161118897Y-106292068D01*
X161088206Y-106248235D01*
X161077729Y-106239860D01*
X161064282Y-106246928D01*
X160390022Y-106921188D01*
X160382408Y-106935132D01*
X159715694Y-106935132D01*
X159718924Y-106889968D01*
X159747885Y-106844905D01*
X160705793Y-105886997D01*
X160712223Y-105875223D01*
X160702926Y-105863207D01*
X160659931Y-105833102D01*
X160650445Y-105827624D01*
X160459007Y-105738355D01*
X160448715Y-105734609D01*
X160244691Y-105679941D01*
X160233896Y-105678038D01*
X160023475Y-105659628D01*
X160012525Y-105659628D01*
X159802104Y-105678038D01*
X159791309Y-105679941D01*
X159587285Y-105734609D01*
X159576993Y-105738355D01*
X159380575Y-105829947D01*
X159379905Y-105828510D01*
X159318006Y-105843522D01*
X159250916Y-105820296D01*
X159207033Y-105764486D01*
X159198011Y-105717665D01*
X159198011Y-105338000D01*
X159218013Y-105269879D01*
X159271669Y-105223386D01*
X159324011Y-105212000D01*
X159432969Y-105212000D01*
X159437898Y-105211807D01*
X159465756Y-105209614D01*
X159478359Y-105207312D01*
X159621784Y-105165643D01*
X159636220Y-105159396D01*
X159763499Y-105084124D01*
X159775926Y-105074484D01*
X159880484Y-104969926D01*
X159890124Y-104957499D01*
X159965396Y-104830220D01*
X159971643Y-104815784D01*
X160013312Y-104672359D01*
X160014768Y-104664391D01*
X160011948Y-104650969D01*
X160000487Y-104648000D01*
X159309012Y-104648000D01*
X159240891Y-104627998D01*
X159194398Y-104574342D01*
X159186115Y-104545215D01*
X159185950Y-104545257D01*
X159184297Y-104538819D01*
X159184006Y-104537796D01*
X159183979Y-104537580D01*
X159183979Y-104537579D01*
X159182985Y-104529714D01*
X159166705Y-104488597D01*
X159162870Y-104477396D01*
X159150529Y-104434917D01*
X159146496Y-104428098D01*
X159146494Y-104428093D01*
X159140218Y-104417482D01*
X159131521Y-104399732D01*
X159124063Y-104380894D01*
X159098082Y-104345134D01*
X159091564Y-104335212D01*
X159076046Y-104308972D01*
X159058500Y-104244834D01*
X159058500Y-104158516D01*
X159057043Y-104140000D01*
X159056111Y-104128156D01*
X159056110Y-104128151D01*
X159055617Y-104121885D01*
X159484000Y-104121885D01*
X159488475Y-104137124D01*
X159489865Y-104138329D01*
X159497548Y-104140000D01*
X159998424Y-104140000D01*
X160013219Y-104135656D01*
X160015063Y-104125225D01*
X160013312Y-104115641D01*
X159971643Y-103972216D01*
X159965396Y-103957780D01*
X159890124Y-103830501D01*
X159880484Y-103818074D01*
X159775926Y-103713516D01*
X159763499Y-103703876D01*
X159636220Y-103628604D01*
X159621784Y-103622357D01*
X159501395Y-103587381D01*
X159487295Y-103587421D01*
X159484000Y-103594691D01*
X159484000Y-104121885D01*
X159055617Y-104121885D01*
X159055606Y-104121746D01*
X159022468Y-104007683D01*
X159012106Y-103972016D01*
X159012105Y-103972014D01*
X159009894Y-103964403D01*
X158993546Y-103936760D01*
X158976000Y-103872621D01*
X158976000Y-103600442D01*
X158972027Y-103586911D01*
X158964129Y-103585776D01*
X158838216Y-103622357D01*
X158823778Y-103628605D01*
X158814628Y-103634016D01*
X158745812Y-103651474D01*
X158686353Y-103634015D01*
X158676423Y-103628143D01*
X158676424Y-103628143D01*
X158669597Y-103624106D01*
X158661986Y-103621895D01*
X158661984Y-103621894D01*
X158588144Y-103600442D01*
X158512254Y-103578394D01*
X158505849Y-103577890D01*
X158505844Y-103577889D01*
X158477940Y-103575693D01*
X158477932Y-103575693D01*
X158475484Y-103575500D01*
X158399595Y-103575500D01*
X158331474Y-103555498D01*
X158310499Y-103538595D01*
X158148404Y-103376499D01*
X158114379Y-103314187D01*
X158111500Y-103287404D01*
X158111500Y-103027004D01*
X158131502Y-102958883D01*
X158165229Y-102923791D01*
X158293270Y-102834136D01*
X158293273Y-102834134D01*
X158297781Y-102830977D01*
X158454977Y-102673781D01*
X158582488Y-102491676D01*
X158584811Y-102486694D01*
X158584814Y-102486689D01*
X158633805Y-102381627D01*
X158680723Y-102328342D01*
X158749000Y-102308881D01*
X158816960Y-102329423D01*
X158862195Y-102381627D01*
X158911186Y-102486689D01*
X158911189Y-102486694D01*
X158913512Y-102491676D01*
X159041023Y-102673781D01*
X159198219Y-102830977D01*
X159202727Y-102834134D01*
X159202730Y-102834136D01*
X159278495Y-102887187D01*
X159380323Y-102958488D01*
X159385305Y-102960811D01*
X159385310Y-102960814D01*
X159527256Y-103027004D01*
X159581804Y-103052440D01*
X159587112Y-103053862D01*
X159587114Y-103053863D01*
X159652949Y-103071503D01*
X159796537Y-103109978D01*
X160018000Y-103129353D01*
X160239463Y-103109978D01*
X160383051Y-103071503D01*
X160448886Y-103053863D01*
X160448888Y-103053862D01*
X160454196Y-103052440D01*
X160508744Y-103027004D01*
X160650690Y-102960814D01*
X160650695Y-102960811D01*
X160655677Y-102958488D01*
X160757505Y-102887187D01*
X160833270Y-102834136D01*
X160833273Y-102834134D01*
X160837781Y-102830977D01*
X160994977Y-102673781D01*
X161122488Y-102491676D01*
X161124811Y-102486694D01*
X161124814Y-102486689D01*
X161214117Y-102295178D01*
X161214118Y-102295177D01*
X161216440Y-102290196D01*
X161273978Y-102075463D01*
X161293353Y-101854000D01*
X161273978Y-101632537D01*
X161216440Y-101417804D01*
X161173805Y-101326373D01*
X161124814Y-101221311D01*
X161124811Y-101221306D01*
X161122488Y-101216324D01*
X160994977Y-101034219D01*
X160837781Y-100877023D01*
X160833273Y-100873866D01*
X160833270Y-100873864D01*
X160757505Y-100820813D01*
X160655677Y-100749512D01*
X160650695Y-100747189D01*
X160650690Y-100747186D01*
X160459178Y-100657883D01*
X160459177Y-100657882D01*
X160454196Y-100655560D01*
X160448888Y-100654138D01*
X160448886Y-100654137D01*
X160348781Y-100627314D01*
X160239463Y-100598022D01*
X160018000Y-100578647D01*
X159796537Y-100598022D01*
X159687219Y-100627314D01*
X159587114Y-100654137D01*
X159587112Y-100654138D01*
X159581804Y-100655560D01*
X159576823Y-100657882D01*
X159576822Y-100657883D01*
X159385311Y-100747186D01*
X159385306Y-100747189D01*
X159380324Y-100749512D01*
X159375817Y-100752668D01*
X159375815Y-100752669D01*
X159202730Y-100873864D01*
X159202727Y-100873866D01*
X159198219Y-100877023D01*
X159041023Y-101034219D01*
X158913512Y-101216324D01*
X158911189Y-101221306D01*
X158911186Y-101221311D01*
X158862195Y-101326373D01*
X158815277Y-101379658D01*
X158747000Y-101399119D01*
X158679040Y-101378577D01*
X158633805Y-101326373D01*
X158584814Y-101221311D01*
X158584811Y-101221306D01*
X158582488Y-101216324D01*
X158454977Y-101034219D01*
X158297781Y-100877023D01*
X158293273Y-100873866D01*
X158293270Y-100873864D01*
X158217505Y-100820813D01*
X158115677Y-100749512D01*
X158110695Y-100747189D01*
X158110690Y-100747186D01*
X157919178Y-100657883D01*
X157919177Y-100657882D01*
X157914196Y-100655560D01*
X157908888Y-100654138D01*
X157908886Y-100654137D01*
X157808781Y-100627314D01*
X157699463Y-100598022D01*
X157478000Y-100578647D01*
X157256537Y-100598022D01*
X157251223Y-100599446D01*
X157251217Y-100599447D01*
X157217486Y-100608485D01*
X157146510Y-100606796D01*
X157095779Y-100575874D01*
X156930894Y-100410989D01*
X156896868Y-100348677D01*
X156893989Y-100321894D01*
X156893989Y-99001084D01*
X156913991Y-98932963D01*
X156967647Y-98886470D01*
X157037921Y-98876366D01*
X157064937Y-98883374D01*
X157085858Y-98891363D01*
X157085866Y-98891365D01*
X157090694Y-98893209D01*
X157095760Y-98894240D01*
X157095761Y-98894240D01*
X157148846Y-98905040D01*
X157317656Y-98939385D01*
X157447089Y-98944131D01*
X157543949Y-98947683D01*
X157543953Y-98947683D01*
X157549113Y-98947872D01*
X157554233Y-98947216D01*
X157554235Y-98947216D01*
X157628166Y-98937745D01*
X157778847Y-98918442D01*
X157783795Y-98916957D01*
X157783802Y-98916956D01*
X157995747Y-98853369D01*
X158000690Y-98851886D01*
X158005324Y-98849616D01*
X158204049Y-98752262D01*
X158204052Y-98752260D01*
X158208684Y-98749991D01*
X158397243Y-98615494D01*
X158442309Y-98570585D01*
X158504681Y-98536669D01*
X158575487Y-98541857D01*
X158632249Y-98584503D01*
X158649231Y-98615607D01*
X158674385Y-98682705D01*
X158761739Y-98799261D01*
X158878295Y-98886615D01*
X159014684Y-98937745D01*
X159076866Y-98944500D01*
X160973134Y-98944500D01*
X161035316Y-98937745D01*
X161171705Y-98886615D01*
X161288261Y-98799261D01*
X161375615Y-98682705D01*
X161426745Y-98546316D01*
X161433500Y-98484134D01*
X161433500Y-96587866D01*
X161426745Y-96525684D01*
X161375615Y-96389295D01*
X161288261Y-96272739D01*
X161171705Y-96185385D01*
X161035316Y-96134255D01*
X160973134Y-96127500D01*
X159076866Y-96127500D01*
X159014684Y-96134255D01*
X158878295Y-96185385D01*
X158761739Y-96272739D01*
X158674385Y-96389295D01*
X158671233Y-96397703D01*
X158671232Y-96397705D01*
X158650538Y-96452906D01*
X158607897Y-96509671D01*
X158541335Y-96534371D01*
X158471986Y-96519164D01*
X158449167Y-96502666D01*
X158448887Y-96502358D01*
X158316373Y-96397705D01*
X158271177Y-96362011D01*
X158271172Y-96362008D01*
X158267123Y-96358810D01*
X158262607Y-96356317D01*
X158262604Y-96356315D01*
X158068879Y-96249373D01*
X158068875Y-96249371D01*
X158064355Y-96246876D01*
X158059486Y-96245152D01*
X158059482Y-96245150D01*
X157850903Y-96171288D01*
X157850899Y-96171287D01*
X157846028Y-96169562D01*
X157840935Y-96168655D01*
X157840932Y-96168654D01*
X157623095Y-96129851D01*
X157623089Y-96129850D01*
X157618006Y-96128945D01*
X157545096Y-96128054D01*
X157391581Y-96126179D01*
X157391579Y-96126179D01*
X157386411Y-96126116D01*
X157157464Y-96161150D01*
X157083317Y-96185385D01*
X157059134Y-96193289D01*
X156988170Y-96195440D01*
X156927308Y-96158884D01*
X156895872Y-96095226D01*
X156893989Y-96073524D01*
X156893989Y-94287040D01*
X156913991Y-94218919D01*
X156967647Y-94172426D01*
X157037921Y-94162322D01*
X157052600Y-94165333D01*
X157079072Y-94172426D01*
X157256537Y-94219978D01*
X157478000Y-94239353D01*
X157699463Y-94219978D01*
X157876928Y-94172426D01*
X157908886Y-94163863D01*
X157908888Y-94163862D01*
X157914196Y-94162440D01*
X157920190Y-94159645D01*
X158110690Y-94070814D01*
X158110695Y-94070811D01*
X158115677Y-94068488D01*
X158180959Y-94022777D01*
X159323777Y-94022777D01*
X159333074Y-94034793D01*
X159376069Y-94064898D01*
X159385555Y-94070376D01*
X159576993Y-94159645D01*
X159587285Y-94163391D01*
X159791309Y-94218059D01*
X159802104Y-94219962D01*
X160012525Y-94238372D01*
X160023475Y-94238372D01*
X160233896Y-94219962D01*
X160244691Y-94218059D01*
X160448715Y-94163391D01*
X160459007Y-94159645D01*
X160650445Y-94070376D01*
X160659931Y-94064898D01*
X160703764Y-94034207D01*
X160712139Y-94023729D01*
X160705071Y-94010281D01*
X160030812Y-93336022D01*
X160016868Y-93328408D01*
X160015035Y-93328539D01*
X160008420Y-93332790D01*
X159330207Y-94011003D01*
X159323777Y-94022777D01*
X158180959Y-94022777D01*
X158217505Y-93997187D01*
X158293270Y-93944136D01*
X158293273Y-93944134D01*
X158297781Y-93940977D01*
X158454977Y-93783781D01*
X158542894Y-93658223D01*
X158579331Y-93606185D01*
X158579332Y-93606183D01*
X158582488Y-93601676D01*
X158584811Y-93596694D01*
X158584814Y-93596689D01*
X158634081Y-93491035D01*
X158680999Y-93437750D01*
X158749276Y-93418289D01*
X158817236Y-93438831D01*
X158862471Y-93491035D01*
X158911623Y-93596441D01*
X158917103Y-93605932D01*
X158947794Y-93649765D01*
X158958271Y-93658140D01*
X158971718Y-93651072D01*
X159645978Y-92976812D01*
X159652356Y-92965132D01*
X160382408Y-92965132D01*
X160382539Y-92966965D01*
X160386790Y-92973580D01*
X161065003Y-93651793D01*
X161076777Y-93658223D01*
X161088793Y-93648926D01*
X161118897Y-93605932D01*
X161124377Y-93596441D01*
X161213645Y-93405007D01*
X161217391Y-93394715D01*
X161272059Y-93190691D01*
X161273962Y-93179896D01*
X161292372Y-92969475D01*
X161292372Y-92958525D01*
X161273962Y-92748104D01*
X161272059Y-92737309D01*
X161217391Y-92533285D01*
X161213645Y-92522993D01*
X161124377Y-92331559D01*
X161118897Y-92322068D01*
X161088206Y-92278235D01*
X161077729Y-92269860D01*
X161064282Y-92276928D01*
X160390022Y-92951188D01*
X160382408Y-92965132D01*
X159652356Y-92965132D01*
X159653592Y-92962868D01*
X159653461Y-92961035D01*
X159649210Y-92954420D01*
X158970997Y-92276207D01*
X158959223Y-92269777D01*
X158947207Y-92279074D01*
X158917103Y-92322068D01*
X158911623Y-92331559D01*
X158862471Y-92436965D01*
X158815553Y-92490250D01*
X158747276Y-92509711D01*
X158679316Y-92489169D01*
X158634081Y-92436965D01*
X158584814Y-92331311D01*
X158584811Y-92331306D01*
X158582488Y-92326324D01*
X158579331Y-92321815D01*
X158458136Y-92148730D01*
X158458134Y-92148727D01*
X158454977Y-92144219D01*
X158297781Y-91987023D01*
X158293273Y-91983866D01*
X158293270Y-91983864D01*
X158216143Y-91929859D01*
X158179600Y-91904271D01*
X159323860Y-91904271D01*
X159330928Y-91917718D01*
X160005188Y-92591978D01*
X160019132Y-92599592D01*
X160020965Y-92599461D01*
X160027580Y-92595210D01*
X160705793Y-91916997D01*
X160712223Y-91905223D01*
X160702926Y-91893207D01*
X160659931Y-91863102D01*
X160650445Y-91857624D01*
X160459007Y-91768355D01*
X160448715Y-91764609D01*
X160244691Y-91709941D01*
X160233896Y-91708038D01*
X160023475Y-91689628D01*
X160012525Y-91689628D01*
X159802104Y-91708038D01*
X159791309Y-91709941D01*
X159587285Y-91764609D01*
X159576993Y-91768355D01*
X159385559Y-91857623D01*
X159376068Y-91863103D01*
X159332235Y-91893794D01*
X159323860Y-91904271D01*
X158179600Y-91904271D01*
X158115677Y-91859512D01*
X158110695Y-91857189D01*
X158110690Y-91857186D01*
X158016005Y-91813034D01*
X157962720Y-91766117D01*
X157943259Y-91697839D01*
X157963801Y-91629879D01*
X157980160Y-91609744D01*
X158310499Y-91279405D01*
X158372811Y-91245379D01*
X158399594Y-91242500D01*
X158475484Y-91242500D01*
X158477932Y-91242307D01*
X158477940Y-91242307D01*
X158505844Y-91240111D01*
X158505849Y-91240110D01*
X158512254Y-91239606D01*
X158611005Y-91210916D01*
X158661984Y-91196106D01*
X158661986Y-91196105D01*
X158669597Y-91193894D01*
X158678469Y-91188647D01*
X158686353Y-91183985D01*
X158755170Y-91166526D01*
X158814628Y-91183984D01*
X158823778Y-91189395D01*
X158838216Y-91195643D01*
X158958605Y-91230619D01*
X158972705Y-91230579D01*
X158976000Y-91223309D01*
X158976000Y-91217558D01*
X159484000Y-91217558D01*
X159487973Y-91231089D01*
X159495871Y-91232224D01*
X159621784Y-91195643D01*
X159636220Y-91189396D01*
X159763499Y-91114124D01*
X159775926Y-91104484D01*
X159880484Y-90999926D01*
X159890124Y-90987499D01*
X159965396Y-90860220D01*
X159971643Y-90845784D01*
X160013312Y-90702359D01*
X160014768Y-90694391D01*
X160011948Y-90680969D01*
X160000487Y-90678000D01*
X159502115Y-90678000D01*
X159486876Y-90682475D01*
X159485671Y-90683865D01*
X159484000Y-90691548D01*
X159484000Y-91217558D01*
X158976000Y-91217558D01*
X158976000Y-90945379D01*
X158993546Y-90881240D01*
X159005859Y-90860420D01*
X159005859Y-90860419D01*
X159009894Y-90853597D01*
X159055606Y-90696254D01*
X159056582Y-90683865D01*
X159058307Y-90661940D01*
X159058307Y-90661932D01*
X159058500Y-90659484D01*
X159058500Y-90188516D01*
X159057043Y-90170000D01*
X159056111Y-90158156D01*
X159056110Y-90158151D01*
X159055617Y-90151885D01*
X159484000Y-90151885D01*
X159488475Y-90167124D01*
X159489865Y-90168329D01*
X159497548Y-90170000D01*
X159998424Y-90170000D01*
X160013219Y-90165656D01*
X160015063Y-90155225D01*
X160013312Y-90145641D01*
X159971643Y-90002216D01*
X159965396Y-89987780D01*
X159890124Y-89860501D01*
X159880484Y-89848074D01*
X159775926Y-89743516D01*
X159763499Y-89733876D01*
X159636220Y-89658604D01*
X159621784Y-89652357D01*
X159501395Y-89617381D01*
X159487295Y-89617421D01*
X159484000Y-89624691D01*
X159484000Y-90151885D01*
X159055617Y-90151885D01*
X159055606Y-90151746D01*
X159022468Y-90037683D01*
X159012106Y-90002016D01*
X159012105Y-90002014D01*
X159009894Y-89994403D01*
X158993546Y-89966760D01*
X158976000Y-89902621D01*
X158976000Y-89630442D01*
X158972027Y-89616911D01*
X158964129Y-89615776D01*
X158838216Y-89652357D01*
X158823778Y-89658605D01*
X158814628Y-89664016D01*
X158745812Y-89681474D01*
X158686353Y-89664015D01*
X158676423Y-89658143D01*
X158676424Y-89658143D01*
X158669597Y-89654106D01*
X158661986Y-89651895D01*
X158661984Y-89651894D01*
X158588144Y-89630442D01*
X158512254Y-89608394D01*
X158505849Y-89607890D01*
X158505844Y-89607889D01*
X158477940Y-89605693D01*
X158477932Y-89605693D01*
X158475484Y-89605500D01*
X158399595Y-89605500D01*
X158331474Y-89585498D01*
X158310499Y-89568595D01*
X158148404Y-89406499D01*
X158114379Y-89344187D01*
X158111500Y-89317404D01*
X158111500Y-89057004D01*
X158131502Y-88988883D01*
X158165229Y-88953791D01*
X158293270Y-88864136D01*
X158293273Y-88864134D01*
X158297781Y-88860977D01*
X158454977Y-88703781D01*
X158582488Y-88521676D01*
X158584811Y-88516694D01*
X158584814Y-88516689D01*
X158633805Y-88411627D01*
X158680723Y-88358342D01*
X158749000Y-88338881D01*
X158816960Y-88359423D01*
X158862195Y-88411627D01*
X158911186Y-88516689D01*
X158911189Y-88516694D01*
X158913512Y-88521676D01*
X159041023Y-88703781D01*
X159198219Y-88860977D01*
X159202727Y-88864134D01*
X159202730Y-88864136D01*
X159278495Y-88917187D01*
X159380323Y-88988488D01*
X159385305Y-88990811D01*
X159385310Y-88990814D01*
X159527256Y-89057004D01*
X159581804Y-89082440D01*
X159587112Y-89083862D01*
X159587114Y-89083863D01*
X159652949Y-89101503D01*
X159796537Y-89139978D01*
X160018000Y-89159353D01*
X160239463Y-89139978D01*
X160383051Y-89101503D01*
X160448886Y-89083863D01*
X160448888Y-89083862D01*
X160454196Y-89082440D01*
X160508744Y-89057004D01*
X160650690Y-88990814D01*
X160650695Y-88990811D01*
X160655677Y-88988488D01*
X160757505Y-88917187D01*
X160833270Y-88864136D01*
X160833273Y-88864134D01*
X160837781Y-88860977D01*
X160994977Y-88703781D01*
X161122488Y-88521676D01*
X161124811Y-88516694D01*
X161124814Y-88516689D01*
X161214117Y-88325178D01*
X161214118Y-88325177D01*
X161216440Y-88320196D01*
X161273978Y-88105463D01*
X161293353Y-87884000D01*
X161273978Y-87662537D01*
X161216440Y-87447804D01*
X161173805Y-87356373D01*
X161124814Y-87251311D01*
X161124811Y-87251306D01*
X161122488Y-87246324D01*
X160994977Y-87064219D01*
X160837781Y-86907023D01*
X160833273Y-86903866D01*
X160833270Y-86903864D01*
X160757505Y-86850813D01*
X160655677Y-86779512D01*
X160650695Y-86777189D01*
X160650690Y-86777186D01*
X160459178Y-86687883D01*
X160459177Y-86687882D01*
X160454196Y-86685560D01*
X160448888Y-86684138D01*
X160448886Y-86684137D01*
X160348781Y-86657314D01*
X160239463Y-86628022D01*
X160018000Y-86608647D01*
X159796537Y-86628022D01*
X159687219Y-86657314D01*
X159587114Y-86684137D01*
X159587112Y-86684138D01*
X159581804Y-86685560D01*
X159576823Y-86687882D01*
X159576822Y-86687883D01*
X159385311Y-86777186D01*
X159385306Y-86777189D01*
X159380324Y-86779512D01*
X159375817Y-86782668D01*
X159375815Y-86782669D01*
X159202730Y-86903864D01*
X159202727Y-86903866D01*
X159198219Y-86907023D01*
X159041023Y-87064219D01*
X158913512Y-87246324D01*
X158911189Y-87251306D01*
X158911186Y-87251311D01*
X158862195Y-87356373D01*
X158815277Y-87409658D01*
X158747000Y-87429119D01*
X158679040Y-87408577D01*
X158633805Y-87356373D01*
X158584814Y-87251311D01*
X158584811Y-87251306D01*
X158582488Y-87246324D01*
X158454977Y-87064219D01*
X158297781Y-86907023D01*
X158293273Y-86903866D01*
X158293270Y-86903864D01*
X158217505Y-86850813D01*
X158115677Y-86779512D01*
X158110695Y-86777189D01*
X158110690Y-86777186D01*
X157919178Y-86687883D01*
X157919177Y-86687882D01*
X157914196Y-86685560D01*
X157908888Y-86684138D01*
X157908886Y-86684137D01*
X157808781Y-86657314D01*
X157699463Y-86628022D01*
X157478000Y-86608647D01*
X157256537Y-86628022D01*
X157251223Y-86629446D01*
X157251217Y-86629447D01*
X157217486Y-86638485D01*
X157146510Y-86636796D01*
X157095779Y-86605874D01*
X156930894Y-86440989D01*
X156896868Y-86378677D01*
X156893989Y-86351894D01*
X156893989Y-85031084D01*
X156913991Y-84962963D01*
X156967647Y-84916470D01*
X157037921Y-84906366D01*
X157064937Y-84913374D01*
X157085858Y-84921363D01*
X157085866Y-84921365D01*
X157090694Y-84923209D01*
X157095760Y-84924240D01*
X157095761Y-84924240D01*
X157148846Y-84935040D01*
X157317656Y-84969385D01*
X157447089Y-84974131D01*
X157543949Y-84977683D01*
X157543953Y-84977683D01*
X157549113Y-84977872D01*
X157554233Y-84977216D01*
X157554235Y-84977216D01*
X157628166Y-84967745D01*
X157778847Y-84948442D01*
X157783795Y-84946957D01*
X157783802Y-84946956D01*
X157995747Y-84883369D01*
X158000690Y-84881886D01*
X158005324Y-84879616D01*
X158204049Y-84782262D01*
X158204052Y-84782260D01*
X158208684Y-84779991D01*
X158397243Y-84645494D01*
X158442309Y-84600585D01*
X158504681Y-84566669D01*
X158575487Y-84571857D01*
X158632249Y-84614503D01*
X158649231Y-84645607D01*
X158674385Y-84712705D01*
X158761739Y-84829261D01*
X158878295Y-84916615D01*
X159014684Y-84967745D01*
X159076866Y-84974500D01*
X160973134Y-84974500D01*
X161035316Y-84967745D01*
X161171705Y-84916615D01*
X161288261Y-84829261D01*
X161375615Y-84712705D01*
X161426745Y-84576316D01*
X161433500Y-84514134D01*
X161433500Y-82617866D01*
X161426745Y-82555684D01*
X161375615Y-82419295D01*
X161288261Y-82302739D01*
X161171705Y-82215385D01*
X161035316Y-82164255D01*
X160973134Y-82157500D01*
X159076866Y-82157500D01*
X159014684Y-82164255D01*
X158878295Y-82215385D01*
X158761739Y-82302739D01*
X158674385Y-82419295D01*
X158671233Y-82427703D01*
X158671232Y-82427705D01*
X158650538Y-82482906D01*
X158607897Y-82539671D01*
X158541335Y-82564371D01*
X158471986Y-82549164D01*
X158449167Y-82532666D01*
X158448887Y-82532358D01*
X158316373Y-82427705D01*
X158271177Y-82392011D01*
X158271172Y-82392008D01*
X158267123Y-82388810D01*
X158262607Y-82386317D01*
X158262604Y-82386315D01*
X158068879Y-82279373D01*
X158068875Y-82279371D01*
X158064355Y-82276876D01*
X158059486Y-82275152D01*
X158059482Y-82275150D01*
X157850903Y-82201288D01*
X157850899Y-82201287D01*
X157846028Y-82199562D01*
X157840935Y-82198655D01*
X157840932Y-82198654D01*
X157623095Y-82159851D01*
X157623089Y-82159850D01*
X157618006Y-82158945D01*
X157545096Y-82158054D01*
X157391581Y-82156179D01*
X157391579Y-82156179D01*
X157386411Y-82156116D01*
X157157464Y-82191150D01*
X157083317Y-82215385D01*
X157059134Y-82223289D01*
X156988170Y-82225440D01*
X156927308Y-82188884D01*
X156895872Y-82125226D01*
X156893989Y-82103524D01*
X156893989Y-80317040D01*
X156913991Y-80248919D01*
X156967647Y-80202426D01*
X157037921Y-80192322D01*
X157052600Y-80195333D01*
X157079072Y-80202426D01*
X157256537Y-80249978D01*
X157478000Y-80269353D01*
X157699463Y-80249978D01*
X157876928Y-80202426D01*
X157908886Y-80193863D01*
X157908888Y-80193862D01*
X157914196Y-80192440D01*
X157920190Y-80189645D01*
X158110690Y-80100814D01*
X158110695Y-80100811D01*
X158115677Y-80098488D01*
X158180959Y-80052777D01*
X159323777Y-80052777D01*
X159333074Y-80064793D01*
X159376069Y-80094898D01*
X159385555Y-80100376D01*
X159576993Y-80189645D01*
X159587285Y-80193391D01*
X159791309Y-80248059D01*
X159802104Y-80249962D01*
X160012525Y-80268372D01*
X160023475Y-80268372D01*
X160233896Y-80249962D01*
X160244691Y-80248059D01*
X160448715Y-80193391D01*
X160459007Y-80189645D01*
X160650445Y-80100376D01*
X160659931Y-80094898D01*
X160703764Y-80064207D01*
X160712139Y-80053729D01*
X160705071Y-80040281D01*
X160030812Y-79366022D01*
X160016868Y-79358408D01*
X160015035Y-79358539D01*
X160008420Y-79362790D01*
X159330207Y-80041003D01*
X159323777Y-80052777D01*
X158180959Y-80052777D01*
X158217505Y-80027187D01*
X158293270Y-79974136D01*
X158293273Y-79974134D01*
X158297781Y-79970977D01*
X158454977Y-79813781D01*
X158542894Y-79688223D01*
X158579331Y-79636185D01*
X158579332Y-79636183D01*
X158582488Y-79631676D01*
X158584811Y-79626694D01*
X158584814Y-79626689D01*
X158634081Y-79521035D01*
X158680999Y-79467750D01*
X158749276Y-79448289D01*
X158817236Y-79468831D01*
X158862471Y-79521035D01*
X158911623Y-79626441D01*
X158917103Y-79635932D01*
X158947794Y-79679765D01*
X158958271Y-79688140D01*
X158971718Y-79681072D01*
X159645978Y-79006812D01*
X159652356Y-78995132D01*
X160382408Y-78995132D01*
X160382539Y-78996965D01*
X160386790Y-79003580D01*
X161065003Y-79681793D01*
X161076777Y-79688223D01*
X161088793Y-79678926D01*
X161118897Y-79635932D01*
X161124377Y-79626441D01*
X161213645Y-79435007D01*
X161217391Y-79424715D01*
X161272059Y-79220691D01*
X161273962Y-79209896D01*
X161292372Y-78999475D01*
X161292372Y-78988525D01*
X161273962Y-78778104D01*
X161272059Y-78767309D01*
X161217391Y-78563285D01*
X161213645Y-78552993D01*
X161124377Y-78361559D01*
X161118897Y-78352068D01*
X161088206Y-78308235D01*
X161077729Y-78299860D01*
X161064282Y-78306928D01*
X160390022Y-78981188D01*
X160382408Y-78995132D01*
X159652356Y-78995132D01*
X159653592Y-78992868D01*
X159653461Y-78991035D01*
X159649210Y-78984420D01*
X158970997Y-78306207D01*
X158959223Y-78299777D01*
X158947207Y-78309074D01*
X158917103Y-78352068D01*
X158911623Y-78361559D01*
X158862471Y-78466965D01*
X158815553Y-78520250D01*
X158747276Y-78539711D01*
X158679316Y-78519169D01*
X158634081Y-78466965D01*
X158584814Y-78361311D01*
X158584811Y-78361306D01*
X158582488Y-78356324D01*
X158579331Y-78351815D01*
X158458136Y-78178730D01*
X158458134Y-78178727D01*
X158454977Y-78174219D01*
X158297781Y-78017023D01*
X158293273Y-78013866D01*
X158293270Y-78013864D01*
X158216143Y-77959859D01*
X158179600Y-77934271D01*
X159323860Y-77934271D01*
X159330928Y-77947718D01*
X160005188Y-78621978D01*
X160019132Y-78629592D01*
X160020965Y-78629461D01*
X160027580Y-78625210D01*
X160705793Y-77946997D01*
X160712223Y-77935223D01*
X160702926Y-77923207D01*
X160659931Y-77893102D01*
X160650445Y-77887624D01*
X160459007Y-77798355D01*
X160448715Y-77794609D01*
X160244691Y-77739941D01*
X160233896Y-77738038D01*
X160023475Y-77719628D01*
X160012525Y-77719628D01*
X159802104Y-77738038D01*
X159791309Y-77739941D01*
X159587285Y-77794609D01*
X159576993Y-77798355D01*
X159385559Y-77887623D01*
X159376068Y-77893103D01*
X159332235Y-77923794D01*
X159323860Y-77934271D01*
X158179600Y-77934271D01*
X158115677Y-77889512D01*
X158110695Y-77887189D01*
X158110690Y-77887186D01*
X158016005Y-77843034D01*
X157962720Y-77796117D01*
X157943259Y-77727839D01*
X157963801Y-77659879D01*
X157980160Y-77639744D01*
X158310499Y-77309405D01*
X158372811Y-77275379D01*
X158399594Y-77272500D01*
X158475484Y-77272500D01*
X158477932Y-77272307D01*
X158477940Y-77272307D01*
X158505844Y-77270111D01*
X158505849Y-77270110D01*
X158512254Y-77269606D01*
X158611005Y-77240916D01*
X158661984Y-77226106D01*
X158661986Y-77226105D01*
X158669597Y-77223894D01*
X158678469Y-77218647D01*
X158686353Y-77213985D01*
X158755170Y-77196526D01*
X158814628Y-77213984D01*
X158823778Y-77219395D01*
X158838216Y-77225643D01*
X158958605Y-77260619D01*
X158972705Y-77260579D01*
X158976000Y-77253309D01*
X158976000Y-77247558D01*
X159484000Y-77247558D01*
X159487973Y-77261089D01*
X159495871Y-77262224D01*
X159621784Y-77225643D01*
X159636220Y-77219396D01*
X159763499Y-77144124D01*
X159775926Y-77134484D01*
X159880484Y-77029926D01*
X159890124Y-77017499D01*
X159965396Y-76890220D01*
X159971643Y-76875784D01*
X160013312Y-76732359D01*
X160014768Y-76724391D01*
X160011948Y-76710969D01*
X160000487Y-76708000D01*
X159502115Y-76708000D01*
X159486876Y-76712475D01*
X159485671Y-76713865D01*
X159484000Y-76721548D01*
X159484000Y-77247558D01*
X158976000Y-77247558D01*
X158976000Y-76975379D01*
X158993546Y-76911240D01*
X159005859Y-76890420D01*
X159005859Y-76890419D01*
X159009894Y-76883597D01*
X159055606Y-76726254D01*
X159056582Y-76713865D01*
X159058307Y-76691940D01*
X159058307Y-76691932D01*
X159058500Y-76689484D01*
X159058500Y-76218516D01*
X159057043Y-76200000D01*
X159056111Y-76188156D01*
X159056110Y-76188151D01*
X159055617Y-76181885D01*
X159484000Y-76181885D01*
X159488475Y-76197124D01*
X159489865Y-76198329D01*
X159497548Y-76200000D01*
X159998424Y-76200000D01*
X160013219Y-76195656D01*
X160015063Y-76185225D01*
X160013312Y-76175641D01*
X159971643Y-76032216D01*
X159965396Y-76017780D01*
X159890124Y-75890501D01*
X159880484Y-75878074D01*
X159775926Y-75773516D01*
X159763499Y-75763876D01*
X159636220Y-75688604D01*
X159621784Y-75682357D01*
X159501395Y-75647381D01*
X159487295Y-75647421D01*
X159484000Y-75654691D01*
X159484000Y-76181885D01*
X159055617Y-76181885D01*
X159055606Y-76181746D01*
X159022468Y-76067683D01*
X159012106Y-76032016D01*
X159012105Y-76032014D01*
X159009894Y-76024403D01*
X158993546Y-75996760D01*
X158976000Y-75932621D01*
X158976000Y-75660442D01*
X158972027Y-75646911D01*
X158964129Y-75645776D01*
X158838216Y-75682357D01*
X158823778Y-75688605D01*
X158814628Y-75694016D01*
X158745812Y-75711474D01*
X158686353Y-75694015D01*
X158676423Y-75688143D01*
X158676424Y-75688143D01*
X158669597Y-75684106D01*
X158661986Y-75681895D01*
X158661984Y-75681894D01*
X158588144Y-75660442D01*
X158512254Y-75638394D01*
X158505849Y-75637890D01*
X158505844Y-75637889D01*
X158477940Y-75635693D01*
X158477932Y-75635693D01*
X158475484Y-75635500D01*
X158399595Y-75635500D01*
X158331474Y-75615498D01*
X158310499Y-75598595D01*
X158148404Y-75436499D01*
X158114379Y-75374187D01*
X158111500Y-75347404D01*
X158111500Y-75087004D01*
X158131502Y-75018883D01*
X158165229Y-74983791D01*
X158293270Y-74894136D01*
X158293273Y-74894134D01*
X158297781Y-74890977D01*
X158454977Y-74733781D01*
X158582488Y-74551676D01*
X158584811Y-74546694D01*
X158584814Y-74546689D01*
X158633805Y-74441627D01*
X158680723Y-74388342D01*
X158749000Y-74368881D01*
X158816960Y-74389423D01*
X158862195Y-74441627D01*
X158911186Y-74546689D01*
X158911189Y-74546694D01*
X158913512Y-74551676D01*
X159041023Y-74733781D01*
X159198219Y-74890977D01*
X159202727Y-74894134D01*
X159202730Y-74894136D01*
X159278495Y-74947187D01*
X159380323Y-75018488D01*
X159385305Y-75020811D01*
X159385310Y-75020814D01*
X159527256Y-75087004D01*
X159581804Y-75112440D01*
X159587112Y-75113862D01*
X159587114Y-75113863D01*
X159652949Y-75131503D01*
X159796537Y-75169978D01*
X160018000Y-75189353D01*
X160239463Y-75169978D01*
X160383051Y-75131503D01*
X160448886Y-75113863D01*
X160448888Y-75113862D01*
X160454196Y-75112440D01*
X160508744Y-75087004D01*
X160650690Y-75020814D01*
X160650695Y-75020811D01*
X160655677Y-75018488D01*
X160757505Y-74947187D01*
X160833270Y-74894136D01*
X160833273Y-74894134D01*
X160837781Y-74890977D01*
X160994977Y-74733781D01*
X161122488Y-74551676D01*
X161124811Y-74546694D01*
X161124814Y-74546689D01*
X161214117Y-74355178D01*
X161214118Y-74355177D01*
X161216440Y-74350196D01*
X161273978Y-74135463D01*
X161293353Y-73914000D01*
X161273978Y-73692537D01*
X161216440Y-73477804D01*
X161173805Y-73386373D01*
X161124814Y-73281311D01*
X161124811Y-73281306D01*
X161122488Y-73276324D01*
X160994977Y-73094219D01*
X160837781Y-72937023D01*
X160833273Y-72933866D01*
X160833270Y-72933864D01*
X160757505Y-72880813D01*
X160655677Y-72809512D01*
X160650695Y-72807189D01*
X160650690Y-72807186D01*
X160459178Y-72717883D01*
X160459177Y-72717882D01*
X160454196Y-72715560D01*
X160448888Y-72714138D01*
X160448886Y-72714137D01*
X160348781Y-72687314D01*
X160239463Y-72658022D01*
X160018000Y-72638647D01*
X159796537Y-72658022D01*
X159687219Y-72687314D01*
X159587114Y-72714137D01*
X159587112Y-72714138D01*
X159581804Y-72715560D01*
X159576823Y-72717882D01*
X159576822Y-72717883D01*
X159385311Y-72807186D01*
X159385306Y-72807189D01*
X159380324Y-72809512D01*
X159375817Y-72812668D01*
X159375815Y-72812669D01*
X159202730Y-72933864D01*
X159202727Y-72933866D01*
X159198219Y-72937023D01*
X159041023Y-73094219D01*
X158913512Y-73276324D01*
X158911189Y-73281306D01*
X158911186Y-73281311D01*
X158862195Y-73386373D01*
X158815277Y-73439658D01*
X158747000Y-73459119D01*
X158679040Y-73438577D01*
X158633805Y-73386373D01*
X158584814Y-73281311D01*
X158584811Y-73281306D01*
X158582488Y-73276324D01*
X158454977Y-73094219D01*
X158297781Y-72937023D01*
X158293273Y-72933866D01*
X158293270Y-72933864D01*
X158217505Y-72880813D01*
X158115677Y-72809512D01*
X158110695Y-72807189D01*
X158110690Y-72807186D01*
X157919178Y-72717883D01*
X157919177Y-72717882D01*
X157914196Y-72715560D01*
X157908888Y-72714138D01*
X157908886Y-72714137D01*
X157808781Y-72687314D01*
X157699463Y-72658022D01*
X157478000Y-72638647D01*
X157256537Y-72658022D01*
X157251223Y-72659446D01*
X157251217Y-72659447D01*
X157217486Y-72668485D01*
X157146510Y-72666796D01*
X157095779Y-72635874D01*
X156930894Y-72470989D01*
X156896868Y-72408677D01*
X156893989Y-72381894D01*
X156893989Y-71061084D01*
X156913991Y-70992963D01*
X156967647Y-70946470D01*
X157037921Y-70936366D01*
X157064937Y-70943374D01*
X157085858Y-70951363D01*
X157085866Y-70951365D01*
X157090694Y-70953209D01*
X157095760Y-70954240D01*
X157095761Y-70954240D01*
X157148846Y-70965040D01*
X157317656Y-70999385D01*
X157447089Y-71004131D01*
X157543949Y-71007683D01*
X157543953Y-71007683D01*
X157549113Y-71007872D01*
X157554233Y-71007216D01*
X157554235Y-71007216D01*
X157628166Y-70997745D01*
X157778847Y-70978442D01*
X157783795Y-70976957D01*
X157783802Y-70976956D01*
X157995747Y-70913369D01*
X158000690Y-70911886D01*
X158005324Y-70909616D01*
X158204049Y-70812262D01*
X158204052Y-70812260D01*
X158208684Y-70809991D01*
X158397243Y-70675494D01*
X158442309Y-70630585D01*
X158504681Y-70596669D01*
X158575487Y-70601857D01*
X158632249Y-70644503D01*
X158649231Y-70675607D01*
X158674385Y-70742705D01*
X158761739Y-70859261D01*
X158878295Y-70946615D01*
X159014684Y-70997745D01*
X159076866Y-71004500D01*
X160973134Y-71004500D01*
X161035316Y-70997745D01*
X161171705Y-70946615D01*
X161288261Y-70859261D01*
X161375615Y-70742705D01*
X161426745Y-70606316D01*
X161433500Y-70544134D01*
X161433500Y-68647866D01*
X161426745Y-68585684D01*
X161375615Y-68449295D01*
X161288261Y-68332739D01*
X161171705Y-68245385D01*
X161035316Y-68194255D01*
X160973134Y-68187500D01*
X159076866Y-68187500D01*
X159014684Y-68194255D01*
X158878295Y-68245385D01*
X158761739Y-68332739D01*
X158674385Y-68449295D01*
X158671233Y-68457703D01*
X158671232Y-68457705D01*
X158650538Y-68512906D01*
X158607897Y-68569671D01*
X158541335Y-68594371D01*
X158471986Y-68579164D01*
X158449167Y-68562666D01*
X158448887Y-68562358D01*
X158316373Y-68457705D01*
X158271177Y-68422011D01*
X158271172Y-68422008D01*
X158267123Y-68418810D01*
X158262607Y-68416317D01*
X158262604Y-68416315D01*
X158068879Y-68309373D01*
X158068875Y-68309371D01*
X158064355Y-68306876D01*
X158059486Y-68305152D01*
X158059482Y-68305150D01*
X157850903Y-68231288D01*
X157850899Y-68231287D01*
X157846028Y-68229562D01*
X157840935Y-68228655D01*
X157840932Y-68228654D01*
X157623095Y-68189851D01*
X157623089Y-68189850D01*
X157618006Y-68188945D01*
X157545096Y-68188054D01*
X157391581Y-68186179D01*
X157391579Y-68186179D01*
X157386411Y-68186116D01*
X157157464Y-68221150D01*
X157083317Y-68245385D01*
X157059134Y-68253289D01*
X156988170Y-68255440D01*
X156927308Y-68218884D01*
X156895872Y-68155226D01*
X156893989Y-68133524D01*
X156893989Y-66347040D01*
X156913991Y-66278919D01*
X156967647Y-66232426D01*
X157037921Y-66222322D01*
X157052600Y-66225333D01*
X157079072Y-66232426D01*
X157256537Y-66279978D01*
X157478000Y-66299353D01*
X157699463Y-66279978D01*
X157876928Y-66232426D01*
X157908886Y-66223863D01*
X157908888Y-66223862D01*
X157914196Y-66222440D01*
X157920190Y-66219645D01*
X158110690Y-66130814D01*
X158110695Y-66130811D01*
X158115677Y-66128488D01*
X158180959Y-66082777D01*
X159323777Y-66082777D01*
X159333074Y-66094793D01*
X159376069Y-66124898D01*
X159385555Y-66130376D01*
X159576993Y-66219645D01*
X159587285Y-66223391D01*
X159791309Y-66278059D01*
X159802104Y-66279962D01*
X160012525Y-66298372D01*
X160023475Y-66298372D01*
X160233896Y-66279962D01*
X160244691Y-66278059D01*
X160448715Y-66223391D01*
X160459007Y-66219645D01*
X160650445Y-66130376D01*
X160659931Y-66124898D01*
X160703764Y-66094207D01*
X160712139Y-66083729D01*
X160705071Y-66070281D01*
X160030812Y-65396022D01*
X160016868Y-65388408D01*
X160015035Y-65388539D01*
X160008420Y-65392790D01*
X159330207Y-66071003D01*
X159323777Y-66082777D01*
X158180959Y-66082777D01*
X158217505Y-66057187D01*
X158293270Y-66004136D01*
X158293273Y-66004134D01*
X158297781Y-66000977D01*
X158454977Y-65843781D01*
X158542894Y-65718223D01*
X158579331Y-65666185D01*
X158579332Y-65666183D01*
X158582488Y-65661676D01*
X158584811Y-65656694D01*
X158584814Y-65656689D01*
X158634081Y-65551035D01*
X158680999Y-65497750D01*
X158749276Y-65478289D01*
X158817236Y-65498831D01*
X158862471Y-65551035D01*
X158911623Y-65656441D01*
X158917103Y-65665932D01*
X158947794Y-65709765D01*
X158958271Y-65718140D01*
X158971718Y-65711072D01*
X159645978Y-65036812D01*
X159652356Y-65025132D01*
X160382408Y-65025132D01*
X160382539Y-65026965D01*
X160386790Y-65033580D01*
X161065003Y-65711793D01*
X161076777Y-65718223D01*
X161088793Y-65708926D01*
X161118897Y-65665932D01*
X161124377Y-65656441D01*
X161213645Y-65465007D01*
X161217391Y-65454715D01*
X161272059Y-65250691D01*
X161273962Y-65239896D01*
X161292372Y-65029475D01*
X161292372Y-65018525D01*
X161273962Y-64808104D01*
X161272059Y-64797309D01*
X161217391Y-64593285D01*
X161213645Y-64582993D01*
X161124377Y-64391559D01*
X161118897Y-64382068D01*
X161088206Y-64338235D01*
X161077729Y-64329860D01*
X161064282Y-64336928D01*
X160390022Y-65011188D01*
X160382408Y-65025132D01*
X159652356Y-65025132D01*
X159653592Y-65022868D01*
X159653461Y-65021035D01*
X159649210Y-65014420D01*
X158970997Y-64336207D01*
X158959223Y-64329777D01*
X158947207Y-64339074D01*
X158917103Y-64382068D01*
X158911623Y-64391559D01*
X158862471Y-64496965D01*
X158815553Y-64550250D01*
X158747276Y-64569711D01*
X158679316Y-64549169D01*
X158634081Y-64496965D01*
X158584814Y-64391311D01*
X158584811Y-64391306D01*
X158582488Y-64386324D01*
X158579331Y-64381815D01*
X158458136Y-64208730D01*
X158458134Y-64208727D01*
X158454977Y-64204219D01*
X158297781Y-64047023D01*
X158293273Y-64043866D01*
X158293270Y-64043864D01*
X158216143Y-63989859D01*
X158179600Y-63964271D01*
X159323860Y-63964271D01*
X159330928Y-63977718D01*
X160005188Y-64651978D01*
X160019132Y-64659592D01*
X160020965Y-64659461D01*
X160027580Y-64655210D01*
X160705793Y-63976997D01*
X160712223Y-63965223D01*
X160702926Y-63953207D01*
X160659931Y-63923102D01*
X160650445Y-63917624D01*
X160459007Y-63828355D01*
X160448715Y-63824609D01*
X160244691Y-63769941D01*
X160233896Y-63768038D01*
X160023475Y-63749628D01*
X160012525Y-63749628D01*
X159802104Y-63768038D01*
X159791309Y-63769941D01*
X159587285Y-63824609D01*
X159576993Y-63828355D01*
X159385559Y-63917623D01*
X159376068Y-63923103D01*
X159332235Y-63953794D01*
X159323860Y-63964271D01*
X158179600Y-63964271D01*
X158115677Y-63919512D01*
X158110695Y-63917189D01*
X158110690Y-63917186D01*
X158016005Y-63873034D01*
X157962720Y-63826117D01*
X157943259Y-63757839D01*
X157963801Y-63689879D01*
X157980160Y-63669744D01*
X158310499Y-63339405D01*
X158372811Y-63305379D01*
X158399594Y-63302500D01*
X158475484Y-63302500D01*
X158477932Y-63302307D01*
X158477940Y-63302307D01*
X158505844Y-63300111D01*
X158505849Y-63300110D01*
X158512254Y-63299606D01*
X158611005Y-63270916D01*
X158661984Y-63256106D01*
X158661986Y-63256105D01*
X158669597Y-63253894D01*
X158678469Y-63248647D01*
X158686353Y-63243985D01*
X158755170Y-63226526D01*
X158814628Y-63243984D01*
X158823778Y-63249395D01*
X158838216Y-63255643D01*
X158958605Y-63290619D01*
X158972705Y-63290579D01*
X158976000Y-63283309D01*
X158976000Y-63277558D01*
X159484000Y-63277558D01*
X159487973Y-63291089D01*
X159495871Y-63292224D01*
X159621784Y-63255643D01*
X159636220Y-63249396D01*
X159763499Y-63174124D01*
X159775926Y-63164484D01*
X159880484Y-63059926D01*
X159890124Y-63047499D01*
X159965396Y-62920220D01*
X159971643Y-62905784D01*
X160013312Y-62762359D01*
X160014768Y-62754391D01*
X160011948Y-62740969D01*
X160000487Y-62738000D01*
X159502115Y-62738000D01*
X159486876Y-62742475D01*
X159485671Y-62743865D01*
X159484000Y-62751548D01*
X159484000Y-63277558D01*
X158976000Y-63277558D01*
X158976000Y-63005379D01*
X158993546Y-62941240D01*
X159005859Y-62920420D01*
X159005859Y-62920419D01*
X159009894Y-62913597D01*
X159055606Y-62756254D01*
X159056582Y-62743865D01*
X159058307Y-62721940D01*
X159058307Y-62721932D01*
X159058500Y-62719484D01*
X159058500Y-62248516D01*
X159057043Y-62230000D01*
X159056111Y-62218156D01*
X159056110Y-62218151D01*
X159055617Y-62211885D01*
X159484000Y-62211885D01*
X159488475Y-62227124D01*
X159489865Y-62228329D01*
X159497548Y-62230000D01*
X159998424Y-62230000D01*
X160013219Y-62225656D01*
X160015063Y-62215225D01*
X160013312Y-62205641D01*
X159971643Y-62062216D01*
X159965396Y-62047780D01*
X159890124Y-61920501D01*
X159880484Y-61908074D01*
X159775926Y-61803516D01*
X159763499Y-61793876D01*
X159636220Y-61718604D01*
X159621784Y-61712357D01*
X159501395Y-61677381D01*
X159487295Y-61677421D01*
X159484000Y-61684691D01*
X159484000Y-62211885D01*
X159055617Y-62211885D01*
X159055606Y-62211746D01*
X159022468Y-62097683D01*
X159012106Y-62062016D01*
X159012105Y-62062014D01*
X159009894Y-62054403D01*
X158993546Y-62026760D01*
X158976000Y-61962621D01*
X158976000Y-61690442D01*
X158972027Y-61676911D01*
X158964129Y-61675776D01*
X158838216Y-61712357D01*
X158823778Y-61718605D01*
X158814628Y-61724016D01*
X158745812Y-61741474D01*
X158686353Y-61724015D01*
X158676423Y-61718143D01*
X158676424Y-61718143D01*
X158669597Y-61714106D01*
X158661986Y-61711895D01*
X158661984Y-61711894D01*
X158588144Y-61690442D01*
X158512254Y-61668394D01*
X158505849Y-61667890D01*
X158505844Y-61667889D01*
X158477940Y-61665693D01*
X158477932Y-61665693D01*
X158475484Y-61665500D01*
X158399595Y-61665500D01*
X158331474Y-61645498D01*
X158310499Y-61628595D01*
X158148404Y-61466499D01*
X158114379Y-61404187D01*
X158111500Y-61377404D01*
X158111500Y-61117004D01*
X158131502Y-61048883D01*
X158165229Y-61013791D01*
X158293270Y-60924136D01*
X158293273Y-60924134D01*
X158297781Y-60920977D01*
X158454977Y-60763781D01*
X158582488Y-60581676D01*
X158584811Y-60576694D01*
X158584814Y-60576689D01*
X158633805Y-60471627D01*
X158680723Y-60418342D01*
X158749000Y-60398881D01*
X158816960Y-60419423D01*
X158862195Y-60471627D01*
X158911186Y-60576689D01*
X158911189Y-60576694D01*
X158913512Y-60581676D01*
X159041023Y-60763781D01*
X159198219Y-60920977D01*
X159202727Y-60924134D01*
X159202730Y-60924136D01*
X159278495Y-60977187D01*
X159380323Y-61048488D01*
X159385305Y-61050811D01*
X159385310Y-61050814D01*
X159527256Y-61117004D01*
X159581804Y-61142440D01*
X159587112Y-61143862D01*
X159587114Y-61143863D01*
X159652949Y-61161503D01*
X159796537Y-61199978D01*
X160018000Y-61219353D01*
X160239463Y-61199978D01*
X160383051Y-61161503D01*
X160448886Y-61143863D01*
X160448888Y-61143862D01*
X160454196Y-61142440D01*
X160508744Y-61117004D01*
X160650690Y-61050814D01*
X160650695Y-61050811D01*
X160655677Y-61048488D01*
X160757505Y-60977187D01*
X160833270Y-60924136D01*
X160833273Y-60924134D01*
X160837781Y-60920977D01*
X160994977Y-60763781D01*
X161122488Y-60581676D01*
X161124811Y-60576694D01*
X161124814Y-60576689D01*
X161214117Y-60385178D01*
X161214118Y-60385177D01*
X161216440Y-60380196D01*
X161273978Y-60165463D01*
X161293353Y-59944000D01*
X161273978Y-59722537D01*
X161216440Y-59507804D01*
X161173805Y-59416373D01*
X161124814Y-59311311D01*
X161124811Y-59311306D01*
X161122488Y-59306324D01*
X160994977Y-59124219D01*
X160837781Y-58967023D01*
X160833273Y-58963866D01*
X160833270Y-58963864D01*
X160757505Y-58910813D01*
X160655677Y-58839512D01*
X160650695Y-58837189D01*
X160650690Y-58837186D01*
X160459178Y-58747883D01*
X160459177Y-58747882D01*
X160454196Y-58745560D01*
X160448888Y-58744138D01*
X160448886Y-58744137D01*
X160383051Y-58726497D01*
X160239463Y-58688022D01*
X160018000Y-58668647D01*
X159796537Y-58688022D01*
X159652949Y-58726497D01*
X159587114Y-58744137D01*
X159587112Y-58744138D01*
X159581804Y-58745560D01*
X159576823Y-58747882D01*
X159576822Y-58747883D01*
X159385311Y-58837186D01*
X159385306Y-58837189D01*
X159380324Y-58839512D01*
X159375817Y-58842668D01*
X159375815Y-58842669D01*
X159202730Y-58963864D01*
X159202727Y-58963866D01*
X159198219Y-58967023D01*
X159041023Y-59124219D01*
X158913512Y-59306324D01*
X158911189Y-59311306D01*
X158911186Y-59311311D01*
X158862195Y-59416373D01*
X158815277Y-59469658D01*
X158747000Y-59489119D01*
X158679040Y-59468577D01*
X158633805Y-59416373D01*
X158584814Y-59311311D01*
X158584811Y-59311306D01*
X158582488Y-59306324D01*
X158454977Y-59124219D01*
X158297781Y-58967023D01*
X158293273Y-58963866D01*
X158293270Y-58963864D01*
X158217505Y-58910813D01*
X158115677Y-58839512D01*
X158110695Y-58837189D01*
X158110690Y-58837186D01*
X157919178Y-58747883D01*
X157919177Y-58747882D01*
X157914196Y-58745560D01*
X157908888Y-58744138D01*
X157908886Y-58744137D01*
X157843051Y-58726497D01*
X157699463Y-58688022D01*
X157478000Y-58668647D01*
X157256537Y-58688022D01*
X157112949Y-58726497D01*
X157047114Y-58744137D01*
X157047112Y-58744138D01*
X157041804Y-58745560D01*
X157036823Y-58747882D01*
X157036822Y-58747883D01*
X156845311Y-58837186D01*
X156845306Y-58837189D01*
X156840324Y-58839512D01*
X156835817Y-58842668D01*
X156835815Y-58842669D01*
X156662730Y-58963864D01*
X156662727Y-58963866D01*
X156658219Y-58967023D01*
X156501023Y-59124219D01*
X156373512Y-59306324D01*
X156371189Y-59311306D01*
X156371186Y-59311311D01*
X156322195Y-59416373D01*
X156279560Y-59507804D01*
X156222022Y-59722537D01*
X156202647Y-59944000D01*
X156222022Y-60165463D01*
X156279560Y-60380196D01*
X156281882Y-60385177D01*
X156281883Y-60385178D01*
X156371186Y-60576689D01*
X156371189Y-60576694D01*
X156373512Y-60581676D01*
X156501023Y-60763781D01*
X156658219Y-60920977D01*
X156662727Y-60924134D01*
X156662730Y-60924136D01*
X156790771Y-61013791D01*
X156835099Y-61069248D01*
X156844500Y-61117004D01*
X156844500Y-61613233D01*
X156843973Y-61624416D01*
X156842298Y-61631909D01*
X156842547Y-61639835D01*
X156842547Y-61639836D01*
X156844438Y-61699986D01*
X156844500Y-61703945D01*
X156844500Y-61731856D01*
X156844997Y-61735790D01*
X156844997Y-61735791D01*
X156845005Y-61735856D01*
X156845938Y-61747693D01*
X156847327Y-61791889D01*
X156850705Y-61803516D01*
X156852978Y-61811339D01*
X156856987Y-61830700D01*
X156859526Y-61850797D01*
X156862445Y-61858168D01*
X156862445Y-61858170D01*
X156875804Y-61891912D01*
X156879649Y-61903142D01*
X156891982Y-61945593D01*
X156896015Y-61952412D01*
X156896017Y-61952417D01*
X156902293Y-61963028D01*
X156910988Y-61980776D01*
X156918448Y-61999617D01*
X156923110Y-62006033D01*
X156923110Y-62006034D01*
X156944436Y-62035387D01*
X156950952Y-62045307D01*
X156973458Y-62083362D01*
X156987779Y-62097683D01*
X157000619Y-62112716D01*
X157012528Y-62129107D01*
X157018634Y-62134158D01*
X157046605Y-62157298D01*
X157055384Y-62165288D01*
X157285001Y-62394905D01*
X157319027Y-62457217D01*
X157313962Y-62528032D01*
X157285001Y-62573095D01*
X156574786Y-63283309D01*
X155868236Y-63989859D01*
X155859950Y-63997399D01*
X155853471Y-64001511D01*
X155848046Y-64007288D01*
X155806846Y-64051162D01*
X155804091Y-64054004D01*
X155784354Y-64073741D01*
X155781874Y-64076938D01*
X155774171Y-64085958D01*
X155743903Y-64118190D01*
X155740084Y-64125136D01*
X155740082Y-64125139D01*
X155734141Y-64135945D01*
X155723290Y-64152464D01*
X155710875Y-64168470D01*
X155707730Y-64175739D01*
X155707727Y-64175743D01*
X155693315Y-64209048D01*
X155688098Y-64219698D01*
X155666794Y-64258451D01*
X155664823Y-64266126D01*
X155664823Y-64266127D01*
X155661756Y-64278073D01*
X155655352Y-64296777D01*
X155647308Y-64315366D01*
X155646069Y-64323189D01*
X155646066Y-64323199D01*
X155640390Y-64359035D01*
X155637984Y-64370655D01*
X155626989Y-64413481D01*
X155626989Y-64433735D01*
X155625438Y-64453445D01*
X155622269Y-64473454D01*
X155623015Y-64481346D01*
X155626430Y-64517472D01*
X155626989Y-64529330D01*
X155626989Y-72617722D01*
X155626462Y-72628905D01*
X155624787Y-72636398D01*
X155625036Y-72644324D01*
X155625036Y-72644325D01*
X155626927Y-72704475D01*
X155626989Y-72708434D01*
X155626989Y-72736345D01*
X155627486Y-72740279D01*
X155627486Y-72740280D01*
X155627494Y-72740345D01*
X155628427Y-72752182D01*
X155629816Y-72796378D01*
X155633632Y-72809512D01*
X155635467Y-72815828D01*
X155639476Y-72835189D01*
X155642015Y-72855286D01*
X155644934Y-72862657D01*
X155644934Y-72862659D01*
X155658293Y-72896401D01*
X155662138Y-72907631D01*
X155674471Y-72950082D01*
X155678504Y-72956901D01*
X155678506Y-72956906D01*
X155684782Y-72967517D01*
X155693477Y-72985265D01*
X155700937Y-73004106D01*
X155705599Y-73010522D01*
X155705599Y-73010523D01*
X155726925Y-73039876D01*
X155733441Y-73049796D01*
X155755947Y-73087851D01*
X155770268Y-73102172D01*
X155783108Y-73117205D01*
X155795017Y-73133596D01*
X155801123Y-73138647D01*
X155829094Y-73161787D01*
X155837873Y-73169777D01*
X156199874Y-73531778D01*
X156233900Y-73594090D01*
X156232486Y-73653484D01*
X156222022Y-73692537D01*
X156202647Y-73914000D01*
X156222022Y-74135463D01*
X156279560Y-74350196D01*
X156281882Y-74355177D01*
X156281883Y-74355178D01*
X156371186Y-74546689D01*
X156371189Y-74546694D01*
X156373512Y-74551676D01*
X156501023Y-74733781D01*
X156658219Y-74890977D01*
X156662727Y-74894134D01*
X156662730Y-74894136D01*
X156790771Y-74983791D01*
X156835099Y-75039248D01*
X156844500Y-75087004D01*
X156844500Y-75583233D01*
X156843973Y-75594416D01*
X156842298Y-75601909D01*
X156842547Y-75609835D01*
X156842547Y-75609836D01*
X156844438Y-75669986D01*
X156844500Y-75673945D01*
X156844500Y-75701856D01*
X156844997Y-75705790D01*
X156844997Y-75705791D01*
X156845005Y-75705856D01*
X156845938Y-75717693D01*
X156847327Y-75761889D01*
X156850705Y-75773516D01*
X156852978Y-75781339D01*
X156856987Y-75800700D01*
X156859526Y-75820797D01*
X156862445Y-75828168D01*
X156862445Y-75828170D01*
X156875804Y-75861912D01*
X156879649Y-75873142D01*
X156891982Y-75915593D01*
X156896015Y-75922412D01*
X156896017Y-75922417D01*
X156902293Y-75933028D01*
X156910988Y-75950776D01*
X156918448Y-75969617D01*
X156923110Y-75976033D01*
X156923110Y-75976034D01*
X156944436Y-76005387D01*
X156950952Y-76015307D01*
X156973458Y-76053362D01*
X156987779Y-76067683D01*
X157000619Y-76082716D01*
X157012528Y-76099107D01*
X157018634Y-76104158D01*
X157046605Y-76127298D01*
X157055384Y-76135288D01*
X157285001Y-76364905D01*
X157319027Y-76427217D01*
X157313962Y-76498032D01*
X157285001Y-76543095D01*
X156574786Y-77253309D01*
X155868236Y-77959859D01*
X155859950Y-77967399D01*
X155853471Y-77971511D01*
X155848046Y-77977288D01*
X155806846Y-78021162D01*
X155804091Y-78024004D01*
X155784354Y-78043741D01*
X155781874Y-78046938D01*
X155774171Y-78055958D01*
X155743903Y-78088190D01*
X155740084Y-78095136D01*
X155740082Y-78095139D01*
X155734141Y-78105945D01*
X155723290Y-78122464D01*
X155710875Y-78138470D01*
X155707730Y-78145739D01*
X155707727Y-78145743D01*
X155693315Y-78179048D01*
X155688098Y-78189698D01*
X155666794Y-78228451D01*
X155664823Y-78236126D01*
X155664823Y-78236127D01*
X155661756Y-78248073D01*
X155655352Y-78266777D01*
X155647308Y-78285366D01*
X155646069Y-78293189D01*
X155646066Y-78293199D01*
X155640390Y-78329035D01*
X155637984Y-78340655D01*
X155626989Y-78383481D01*
X155626989Y-78403735D01*
X155625438Y-78423445D01*
X155622269Y-78443454D01*
X155623015Y-78451346D01*
X155626430Y-78487472D01*
X155626989Y-78499330D01*
X155626989Y-86587722D01*
X155626462Y-86598905D01*
X155624787Y-86606398D01*
X155625036Y-86614324D01*
X155625036Y-86614325D01*
X155626927Y-86674475D01*
X155626989Y-86678434D01*
X155626989Y-86706345D01*
X155627486Y-86710279D01*
X155627486Y-86710280D01*
X155627494Y-86710345D01*
X155628427Y-86722182D01*
X155629816Y-86766378D01*
X155633632Y-86779512D01*
X155635467Y-86785828D01*
X155639476Y-86805189D01*
X155642015Y-86825286D01*
X155644934Y-86832657D01*
X155644934Y-86832659D01*
X155658293Y-86866401D01*
X155662138Y-86877631D01*
X155674471Y-86920082D01*
X155678504Y-86926901D01*
X155678506Y-86926906D01*
X155684782Y-86937517D01*
X155693477Y-86955265D01*
X155700937Y-86974106D01*
X155705599Y-86980522D01*
X155705599Y-86980523D01*
X155726925Y-87009876D01*
X155733441Y-87019796D01*
X155755947Y-87057851D01*
X155770268Y-87072172D01*
X155783108Y-87087205D01*
X155795017Y-87103596D01*
X155801123Y-87108647D01*
X155829094Y-87131787D01*
X155837873Y-87139777D01*
X156199874Y-87501778D01*
X156233900Y-87564090D01*
X156232486Y-87623484D01*
X156222022Y-87662537D01*
X156202647Y-87884000D01*
X156222022Y-88105463D01*
X156279560Y-88320196D01*
X156281882Y-88325177D01*
X156281883Y-88325178D01*
X156371186Y-88516689D01*
X156371189Y-88516694D01*
X156373512Y-88521676D01*
X156501023Y-88703781D01*
X156658219Y-88860977D01*
X156662727Y-88864134D01*
X156662730Y-88864136D01*
X156790771Y-88953791D01*
X156835099Y-89009248D01*
X156844500Y-89057004D01*
X156844500Y-89553233D01*
X156843973Y-89564416D01*
X156842298Y-89571909D01*
X156842547Y-89579835D01*
X156842547Y-89579836D01*
X156844438Y-89639986D01*
X156844500Y-89643945D01*
X156844500Y-89671856D01*
X156844997Y-89675790D01*
X156844997Y-89675791D01*
X156845005Y-89675856D01*
X156845938Y-89687693D01*
X156847327Y-89731889D01*
X156850705Y-89743516D01*
X156852978Y-89751339D01*
X156856987Y-89770700D01*
X156859526Y-89790797D01*
X156862445Y-89798168D01*
X156862445Y-89798170D01*
X156875804Y-89831912D01*
X156879649Y-89843142D01*
X156891982Y-89885593D01*
X156896015Y-89892412D01*
X156896017Y-89892417D01*
X156902293Y-89903028D01*
X156910988Y-89920776D01*
X156918448Y-89939617D01*
X156923110Y-89946033D01*
X156923110Y-89946034D01*
X156944436Y-89975387D01*
X156950952Y-89985307D01*
X156973458Y-90023362D01*
X156987779Y-90037683D01*
X157000619Y-90052716D01*
X157012528Y-90069107D01*
X157018634Y-90074158D01*
X157046605Y-90097298D01*
X157055384Y-90105288D01*
X157285001Y-90334905D01*
X157319027Y-90397217D01*
X157313962Y-90468032D01*
X157285001Y-90513095D01*
X156574786Y-91223309D01*
X155868236Y-91929859D01*
X155859950Y-91937399D01*
X155853471Y-91941511D01*
X155848046Y-91947288D01*
X155806846Y-91991162D01*
X155804091Y-91994004D01*
X155784354Y-92013741D01*
X155781874Y-92016938D01*
X155774171Y-92025958D01*
X155743903Y-92058190D01*
X155740084Y-92065136D01*
X155740082Y-92065139D01*
X155734141Y-92075945D01*
X155723290Y-92092464D01*
X155710875Y-92108470D01*
X155707730Y-92115739D01*
X155707727Y-92115743D01*
X155693315Y-92149048D01*
X155688098Y-92159698D01*
X155666794Y-92198451D01*
X155664823Y-92206126D01*
X155664823Y-92206127D01*
X155661756Y-92218073D01*
X155655352Y-92236777D01*
X155647308Y-92255366D01*
X155646069Y-92263189D01*
X155646066Y-92263199D01*
X155640390Y-92299035D01*
X155637984Y-92310655D01*
X155626989Y-92353481D01*
X155626989Y-92373735D01*
X155625438Y-92393445D01*
X155622269Y-92413454D01*
X155623015Y-92421346D01*
X155626430Y-92457472D01*
X155626989Y-92469330D01*
X155626989Y-100557722D01*
X155626462Y-100568905D01*
X155624787Y-100576398D01*
X155625036Y-100584324D01*
X155625036Y-100584325D01*
X155626927Y-100644475D01*
X155626989Y-100648434D01*
X155626989Y-100676345D01*
X155627486Y-100680279D01*
X155627486Y-100680280D01*
X155627494Y-100680345D01*
X155628427Y-100692182D01*
X155629816Y-100736378D01*
X155633632Y-100749512D01*
X155635467Y-100755828D01*
X155639476Y-100775189D01*
X155642015Y-100795286D01*
X155644934Y-100802657D01*
X155644934Y-100802659D01*
X155658293Y-100836401D01*
X155662138Y-100847631D01*
X155674471Y-100890082D01*
X155678504Y-100896901D01*
X155678506Y-100896906D01*
X155684782Y-100907517D01*
X155693477Y-100925265D01*
X155700937Y-100944106D01*
X155705599Y-100950522D01*
X155705599Y-100950523D01*
X155726925Y-100979876D01*
X155733441Y-100989796D01*
X155755947Y-101027851D01*
X155770268Y-101042172D01*
X155783108Y-101057205D01*
X155795017Y-101073596D01*
X155801123Y-101078647D01*
X155829094Y-101101787D01*
X155837873Y-101109777D01*
X156199874Y-101471778D01*
X156233900Y-101534090D01*
X156232486Y-101593484D01*
X156222022Y-101632537D01*
X156202647Y-101854000D01*
X156222022Y-102075463D01*
X156279560Y-102290196D01*
X156281882Y-102295177D01*
X156281883Y-102295178D01*
X156371186Y-102486689D01*
X156371189Y-102486694D01*
X156373512Y-102491676D01*
X156501023Y-102673781D01*
X156658219Y-102830977D01*
X156662727Y-102834134D01*
X156662730Y-102834136D01*
X156790771Y-102923791D01*
X156835099Y-102979248D01*
X156844500Y-103027004D01*
X156844500Y-103523233D01*
X156843973Y-103534416D01*
X156842298Y-103541909D01*
X156842547Y-103549835D01*
X156842547Y-103549836D01*
X156844438Y-103609986D01*
X156844500Y-103613945D01*
X156844500Y-103641856D01*
X156844997Y-103645790D01*
X156844997Y-103645791D01*
X156845005Y-103645856D01*
X156845938Y-103657693D01*
X156847327Y-103701889D01*
X156850705Y-103713516D01*
X156852978Y-103721339D01*
X156856987Y-103740700D01*
X156859526Y-103760797D01*
X156862445Y-103768168D01*
X156862445Y-103768170D01*
X156875804Y-103801912D01*
X156879649Y-103813142D01*
X156891982Y-103855593D01*
X156896015Y-103862412D01*
X156896017Y-103862417D01*
X156902293Y-103873028D01*
X156910988Y-103890776D01*
X156918448Y-103909617D01*
X156923110Y-103916033D01*
X156923110Y-103916034D01*
X156944436Y-103945387D01*
X156950952Y-103955307D01*
X156973458Y-103993362D01*
X156987779Y-104007683D01*
X157000619Y-104022716D01*
X157012528Y-104039107D01*
X157018634Y-104044158D01*
X157046605Y-104067298D01*
X157055384Y-104075288D01*
X157444595Y-104464499D01*
X157478621Y-104526811D01*
X157481500Y-104553594D01*
X157481500Y-104629484D01*
X157481693Y-104631932D01*
X157481693Y-104631940D01*
X157483009Y-104648655D01*
X157484394Y-104666254D01*
X157530106Y-104823597D01*
X157613512Y-104964629D01*
X157729371Y-105080488D01*
X157736192Y-105084522D01*
X157869150Y-105163153D01*
X157917603Y-105215046D01*
X157931011Y-105271607D01*
X157931011Y-105575859D01*
X157911009Y-105643980D01*
X157857353Y-105690473D01*
X157787079Y-105700577D01*
X157772399Y-105697565D01*
X157704784Y-105679447D01*
X157704776Y-105679446D01*
X157699463Y-105678022D01*
X157478000Y-105658647D01*
X157256537Y-105678022D01*
X157112949Y-105716497D01*
X157047114Y-105734137D01*
X157047112Y-105734138D01*
X157041804Y-105735560D01*
X157036823Y-105737882D01*
X157036822Y-105737883D01*
X156845311Y-105827186D01*
X156845306Y-105827189D01*
X156840324Y-105829512D01*
X156835817Y-105832668D01*
X156835815Y-105832669D01*
X156662730Y-105953864D01*
X156662727Y-105953866D01*
X156658219Y-105957023D01*
X156501023Y-106114219D01*
X156497866Y-106118727D01*
X156497864Y-106118730D01*
X156413048Y-106239860D01*
X156373512Y-106296324D01*
X156371189Y-106301306D01*
X156371186Y-106301311D01*
X156281883Y-106492822D01*
X156279560Y-106497804D01*
X156222022Y-106712537D01*
X156202647Y-106934000D01*
X156222022Y-107155463D01*
X156260497Y-107299051D01*
X156275169Y-107353807D01*
X156279560Y-107370196D01*
X156281882Y-107375177D01*
X156281883Y-107375178D01*
X156371186Y-107566689D01*
X156371189Y-107566694D01*
X156373512Y-107571676D01*
X156376668Y-107576183D01*
X156376669Y-107576185D01*
X156413107Y-107628223D01*
X156501023Y-107753781D01*
X156658219Y-107910977D01*
X156662727Y-107914134D01*
X156662730Y-107914136D01*
X156699364Y-107939787D01*
X156840323Y-108038488D01*
X156845305Y-108040811D01*
X156845310Y-108040814D01*
X157036822Y-108130117D01*
X157041804Y-108132440D01*
X157047112Y-108133862D01*
X157047114Y-108133863D01*
X157109122Y-108150478D01*
X157256537Y-108189978D01*
X157478000Y-108209353D01*
X157699463Y-108189978D01*
X157846878Y-108150478D01*
X157908886Y-108133863D01*
X157908888Y-108133862D01*
X157914196Y-108132440D01*
X157919178Y-108130117D01*
X158110690Y-108040814D01*
X158110695Y-108040811D01*
X158115677Y-108038488D01*
X158256637Y-107939786D01*
X158323909Y-107917099D01*
X158392769Y-107934384D01*
X158418001Y-107953905D01*
X158962975Y-108498879D01*
X158997001Y-108561191D01*
X158995694Y-108590795D01*
X158999000Y-108590795D01*
X158999000Y-110053000D01*
X158978998Y-110121121D01*
X158925342Y-110167614D01*
X158873000Y-110179000D01*
X158617000Y-110179000D01*
X158548879Y-110158998D01*
X158502386Y-110105342D01*
X158491000Y-110053000D01*
X158491000Y-108608102D01*
X158487082Y-108594758D01*
X158472806Y-108592771D01*
X158434324Y-108598660D01*
X158424288Y-108601051D01*
X158221868Y-108667212D01*
X158212359Y-108671209D01*
X158023463Y-108769542D01*
X158014738Y-108775036D01*
X157844433Y-108902905D01*
X157836726Y-108909748D01*
X157689590Y-109063717D01*
X157683109Y-109071722D01*
X157578498Y-109225074D01*
X157523587Y-109270076D01*
X157453062Y-109278247D01*
X157389315Y-109246993D01*
X157368618Y-109222509D01*
X157287822Y-109097617D01*
X157287820Y-109097614D01*
X157285014Y-109093277D01*
X157134670Y-108928051D01*
X157130619Y-108924852D01*
X157130615Y-108924848D01*
X156963414Y-108792800D01*
X156963410Y-108792798D01*
X156959359Y-108789598D01*
X156923028Y-108769542D01*
X156907136Y-108760769D01*
X156763789Y-108681638D01*
X156758920Y-108679914D01*
X156758916Y-108679912D01*
X156558087Y-108608795D01*
X156558083Y-108608794D01*
X156553212Y-108607069D01*
X156548119Y-108606162D01*
X156548116Y-108606161D01*
X156338373Y-108568800D01*
X156338367Y-108568799D01*
X156333284Y-108567894D01*
X156259452Y-108566992D01*
X156115081Y-108565228D01*
X156115079Y-108565228D01*
X156109911Y-108565165D01*
X155889091Y-108598955D01*
X155676756Y-108668357D01*
X155478607Y-108771507D01*
X155474474Y-108774610D01*
X155474471Y-108774612D01*
X155313064Y-108895800D01*
X155299965Y-108905635D01*
X155145629Y-109067138D01*
X155038201Y-109224621D01*
X154983293Y-109269621D01*
X154912768Y-109277792D01*
X154849021Y-109246538D01*
X154828324Y-109222054D01*
X154747822Y-109097617D01*
X154747820Y-109097614D01*
X154745014Y-109093277D01*
X154594670Y-108928051D01*
X154590619Y-108924852D01*
X154590615Y-108924848D01*
X154423414Y-108792800D01*
X154423410Y-108792798D01*
X154419359Y-108789598D01*
X154383028Y-108769542D01*
X154367136Y-108760769D01*
X154223789Y-108681638D01*
X154218920Y-108679914D01*
X154218916Y-108679912D01*
X154018087Y-108608795D01*
X154018083Y-108608794D01*
X154013212Y-108607069D01*
X154008119Y-108606162D01*
X154008116Y-108606161D01*
X153798373Y-108568800D01*
X153798367Y-108568799D01*
X153793284Y-108567894D01*
X153719452Y-108566992D01*
X153575081Y-108565228D01*
X153575079Y-108565228D01*
X153569911Y-108565165D01*
X153349091Y-108598955D01*
X153136756Y-108668357D01*
X152938607Y-108771507D01*
X152934474Y-108774610D01*
X152934471Y-108774612D01*
X152773064Y-108895800D01*
X152759965Y-108905635D01*
X152605629Y-109067138D01*
X152479743Y-109251680D01*
X152385688Y-109454305D01*
X152325989Y-109669570D01*
X152302251Y-109891695D01*
X152302548Y-109896848D01*
X152302548Y-109896851D01*
X152308011Y-109991590D01*
X152315110Y-110114715D01*
X152316247Y-110119761D01*
X152316248Y-110119767D01*
X152340046Y-110225361D01*
X152364222Y-110332639D01*
X152448266Y-110539616D01*
X152450966Y-110544022D01*
X152450968Y-110544026D01*
X152523491Y-110662374D01*
X152542029Y-110730907D01*
X152520572Y-110798584D01*
X152465933Y-110843917D01*
X152416058Y-110854208D01*
X149764955Y-110854208D01*
X149696834Y-110834206D01*
X149650341Y-110780550D01*
X149640237Y-110710276D01*
X149650760Y-110674958D01*
X149688998Y-110592956D01*
X149688999Y-110592955D01*
X149691321Y-110587974D01*
X149693092Y-110581367D01*
X149710384Y-110516829D01*
X149748859Y-110373241D01*
X149768234Y-110151778D01*
X149748859Y-109930315D01*
X149691321Y-109715582D01*
X149658474Y-109645142D01*
X149599695Y-109519089D01*
X149599692Y-109519084D01*
X149597369Y-109514102D01*
X149555499Y-109454305D01*
X149473017Y-109336508D01*
X149473015Y-109336505D01*
X149469858Y-109331997D01*
X149312662Y-109174801D01*
X149308154Y-109171644D01*
X149308151Y-109171642D01*
X149196234Y-109093277D01*
X149130558Y-109047290D01*
X149125576Y-109044967D01*
X149125571Y-109044964D01*
X148934059Y-108955661D01*
X148934058Y-108955660D01*
X148929077Y-108953338D01*
X148923769Y-108951916D01*
X148923767Y-108951915D01*
X148834705Y-108928051D01*
X148714344Y-108895800D01*
X148492881Y-108876425D01*
X148271418Y-108895800D01*
X148151057Y-108928051D01*
X148061995Y-108951915D01*
X148061993Y-108951916D01*
X148056685Y-108953338D01*
X148051704Y-108955660D01*
X148051703Y-108955661D01*
X147860192Y-109044964D01*
X147860187Y-109044967D01*
X147855205Y-109047290D01*
X147850698Y-109050446D01*
X147850696Y-109050447D01*
X147677611Y-109171642D01*
X147677608Y-109171644D01*
X147673100Y-109174801D01*
X147515904Y-109331997D01*
X147512747Y-109336505D01*
X147512745Y-109336508D01*
X147430263Y-109454305D01*
X147388393Y-109514102D01*
X147386070Y-109519084D01*
X147386067Y-109519089D01*
X147327288Y-109645142D01*
X147294441Y-109715582D01*
X147236903Y-109930315D01*
X147217528Y-110151778D01*
X147236903Y-110373241D01*
X147238327Y-110378554D01*
X147238328Y-110378561D01*
X147247366Y-110412292D01*
X147245677Y-110483268D01*
X147214755Y-110533999D01*
X146931451Y-110817303D01*
X146869139Y-110851329D01*
X146842356Y-110854208D01*
X146655059Y-110854208D01*
X146643876Y-110853681D01*
X146636383Y-110852006D01*
X146628457Y-110852255D01*
X146628456Y-110852255D01*
X146568306Y-110854146D01*
X146564347Y-110854208D01*
X146536436Y-110854208D01*
X146532502Y-110854705D01*
X146532501Y-110854705D01*
X146532436Y-110854713D01*
X146520599Y-110855646D01*
X146488341Y-110856660D01*
X146484322Y-110856786D01*
X146476403Y-110857035D01*
X146456949Y-110862687D01*
X146437592Y-110866695D01*
X146425362Y-110868240D01*
X146425361Y-110868240D01*
X146417495Y-110869234D01*
X146410124Y-110872153D01*
X146410122Y-110872153D01*
X146376380Y-110885512D01*
X146365150Y-110889357D01*
X146330309Y-110899479D01*
X146330308Y-110899479D01*
X146322699Y-110901690D01*
X146315880Y-110905723D01*
X146315875Y-110905725D01*
X146305264Y-110912001D01*
X146287516Y-110920696D01*
X146268675Y-110928156D01*
X146245839Y-110944747D01*
X146209672Y-110962977D01*
X146050077Y-111013297D01*
X145844686Y-111078056D01*
X145844681Y-111078058D01*
X145842308Y-111078806D01*
X145840011Y-111079734D01*
X145840000Y-111079738D01*
X145826500Y-111085193D01*
X145808110Y-111092623D01*
X145802755Y-111096194D01*
X145802750Y-111096197D01*
X145678390Y-111179135D01*
X145678388Y-111179137D01*
X145671796Y-111183533D01*
X145666504Y-111189431D01*
X145579518Y-111286379D01*
X145562372Y-111305488D01*
X145558711Y-111312520D01*
X145558710Y-111312522D01*
X145540296Y-111347895D01*
X145486714Y-111450824D01*
X145484918Y-111458543D01*
X145484917Y-111458545D01*
X145465924Y-111540167D01*
X145449578Y-111610409D01*
X145453296Y-111774216D01*
X145461592Y-111810154D01*
X145462334Y-111812507D01*
X145462335Y-111812511D01*
X145579119Y-112182899D01*
X145585173Y-112202101D01*
X145586101Y-112204398D01*
X145586105Y-112204409D01*
X145587897Y-112208844D01*
X145598990Y-112236299D01*
X145602558Y-112241648D01*
X145602560Y-112241653D01*
X145665286Y-112335707D01*
X145689900Y-112372614D01*
X145695799Y-112377906D01*
X145695799Y-112377907D01*
X145704389Y-112385614D01*
X145741735Y-112445995D01*
X145742964Y-112507956D01*
X145740554Y-112518313D01*
X145738938Y-112533949D01*
X145741781Y-112659288D01*
X145746060Y-112672725D01*
X145753983Y-112673681D01*
X146019049Y-112590106D01*
X146085497Y-112587553D01*
X146116776Y-112594832D01*
X146247796Y-112591858D01*
X146274153Y-112591260D01*
X146274154Y-112591260D01*
X146280583Y-112591114D01*
X146312268Y-112583799D01*
X146314109Y-112583374D01*
X146314112Y-112583373D01*
X146316521Y-112582817D01*
X146498441Y-112525458D01*
X146763314Y-112441944D01*
X146763319Y-112441942D01*
X146765692Y-112441194D01*
X146767989Y-112440266D01*
X146768000Y-112440262D01*
X146791311Y-112430843D01*
X146799890Y-112427377D01*
X146805249Y-112423803D01*
X146818556Y-112414929D01*
X146884503Y-112393818D01*
X146888458Y-112393694D01*
X146892649Y-112393562D01*
X146896602Y-112393500D01*
X146924515Y-112393500D01*
X146928450Y-112393003D01*
X146928515Y-112392995D01*
X146940352Y-112392062D01*
X146972610Y-112391048D01*
X146976629Y-112390922D01*
X146984548Y-112390673D01*
X147004002Y-112385021D01*
X147023359Y-112381013D01*
X147035589Y-112379468D01*
X147035590Y-112379468D01*
X147043456Y-112378474D01*
X147050827Y-112375555D01*
X147050829Y-112375555D01*
X147084571Y-112362196D01*
X147095801Y-112358351D01*
X147130642Y-112348229D01*
X147130643Y-112348229D01*
X147138252Y-112346018D01*
X147145071Y-112341985D01*
X147145076Y-112341983D01*
X147155687Y-112335707D01*
X147173435Y-112327012D01*
X147192276Y-112319552D01*
X147201482Y-112312864D01*
X147228046Y-112293564D01*
X147237966Y-112287048D01*
X147269194Y-112268580D01*
X147269197Y-112268578D01*
X147276021Y-112264542D01*
X147290342Y-112250221D01*
X147305376Y-112237380D01*
X147315353Y-112230131D01*
X147321766Y-112225472D01*
X147349957Y-112191395D01*
X147357947Y-112182616D01*
X147382450Y-112158113D01*
X147444762Y-112124087D01*
X147471545Y-112121208D01*
X147898532Y-112121208D01*
X147966653Y-112141210D01*
X148013146Y-112194866D01*
X148023250Y-112265140D01*
X148020238Y-112279820D01*
X148002120Y-112347435D01*
X148002119Y-112347443D01*
X148000695Y-112352756D01*
X147981320Y-112574219D01*
X148000695Y-112795682D01*
X148016416Y-112854354D01*
X148054786Y-112997549D01*
X148058233Y-113010415D01*
X148060555Y-113015396D01*
X148060556Y-113015397D01*
X148149859Y-113206908D01*
X148149862Y-113206913D01*
X148152185Y-113211895D01*
X148155341Y-113216402D01*
X148155342Y-113216404D01*
X148252062Y-113354534D01*
X148279696Y-113394000D01*
X148436892Y-113551196D01*
X148441400Y-113554353D01*
X148441403Y-113554355D01*
X148450215Y-113560525D01*
X148618996Y-113678707D01*
X148623978Y-113681030D01*
X148623983Y-113681033D01*
X148744576Y-113737266D01*
X148820477Y-113772659D01*
X148825785Y-113774081D01*
X148825787Y-113774082D01*
X148850161Y-113780613D01*
X149035210Y-113830197D01*
X149132644Y-113838721D01*
X149198762Y-113864584D01*
X149240402Y-113922088D01*
X149244343Y-113992975D01*
X149210758Y-114053337D01*
X149126500Y-114137595D01*
X149064188Y-114171621D01*
X149037405Y-114174500D01*
X146128768Y-114174500D01*
X146117585Y-114173973D01*
X146110092Y-114172298D01*
X146102166Y-114172547D01*
X146102165Y-114172547D01*
X146042002Y-114174438D01*
X146038044Y-114174500D01*
X146010144Y-114174500D01*
X146006154Y-114175004D01*
X145994320Y-114175936D01*
X145950111Y-114177326D01*
X145942497Y-114179538D01*
X145942492Y-114179539D01*
X145930659Y-114182977D01*
X145911296Y-114186988D01*
X145891203Y-114189526D01*
X145883836Y-114192443D01*
X145883835Y-114192443D01*
X145858077Y-114202641D01*
X145787377Y-114209119D01*
X145724398Y-114176345D01*
X145689135Y-114114725D01*
X145686175Y-114096470D01*
X145667753Y-113885909D01*
X145665850Y-113875114D01*
X145611182Y-113671090D01*
X145607436Y-113660798D01*
X145518168Y-113469364D01*
X145512688Y-113459873D01*
X145481997Y-113416040D01*
X145471520Y-113407665D01*
X145458073Y-113414733D01*
X143723998Y-115148808D01*
X143717568Y-115160582D01*
X143726865Y-115172598D01*
X143769860Y-115202703D01*
X143779346Y-115208181D01*
X143970784Y-115297450D01*
X143981076Y-115301196D01*
X144185100Y-115355864D01*
X144195895Y-115357767D01*
X144302290Y-115367076D01*
X144368408Y-115392940D01*
X144410048Y-115450443D01*
X144413988Y-115521331D01*
X144380403Y-115581692D01*
X144046500Y-115915595D01*
X143984188Y-115949621D01*
X143957405Y-115952500D01*
X141556767Y-115952500D01*
X141545584Y-115951973D01*
X141538091Y-115950298D01*
X141530165Y-115950547D01*
X141530164Y-115950547D01*
X141470014Y-115952438D01*
X141466055Y-115952500D01*
X141438144Y-115952500D01*
X141434210Y-115952997D01*
X141434209Y-115952997D01*
X141434144Y-115953005D01*
X141422307Y-115953938D01*
X141390490Y-115954938D01*
X141386029Y-115955078D01*
X141378110Y-115955327D01*
X141360454Y-115960456D01*
X141358658Y-115960978D01*
X141339306Y-115964986D01*
X141332235Y-115965880D01*
X141319203Y-115967526D01*
X141311834Y-115970443D01*
X141311832Y-115970444D01*
X141278097Y-115983800D01*
X141266869Y-115987645D01*
X141224407Y-115999982D01*
X141217585Y-116004016D01*
X141217579Y-116004019D01*
X141206968Y-116010294D01*
X141189218Y-116018990D01*
X141177756Y-116023528D01*
X141177751Y-116023531D01*
X141170383Y-116026448D01*
X141163968Y-116031109D01*
X141134625Y-116052427D01*
X141124707Y-116058943D01*
X141119611Y-116061957D01*
X141086637Y-116081458D01*
X141072313Y-116095782D01*
X141057281Y-116108621D01*
X141040893Y-116120528D01*
X141014696Y-116152195D01*
X141012712Y-116154593D01*
X141004722Y-116163373D01*
X139982500Y-117185595D01*
X139920188Y-117219621D01*
X139893405Y-117222500D01*
X138917606Y-117222500D01*
X138849485Y-117202498D01*
X138802992Y-117148842D01*
X138792888Y-117078568D01*
X138822382Y-117013988D01*
X138849906Y-116990233D01*
X138912543Y-116950329D01*
X139409429Y-116633778D01*
X139412086Y-116631649D01*
X139412092Y-116631645D01*
X139452079Y-116599609D01*
X139452082Y-116599606D01*
X139458243Y-116594670D01*
X139505370Y-116532017D01*
X139540404Y-116485440D01*
X139540404Y-116485439D01*
X139545800Y-116478266D01*
X139597167Y-116341967D01*
X139608215Y-116196729D01*
X139586851Y-116095782D01*
X139579692Y-116061957D01*
X139579691Y-116061955D01*
X139578056Y-116054228D01*
X139550343Y-115998155D01*
X138870393Y-114930847D01*
X138533314Y-114401738D01*
X138533312Y-114401735D01*
X138531479Y-114398858D01*
X138529346Y-114396195D01*
X138497310Y-114356208D01*
X138497307Y-114356205D01*
X138492371Y-114350044D01*
X138456774Y-114323268D01*
X138383141Y-114267883D01*
X138383140Y-114267883D01*
X138375967Y-114262487D01*
X138363913Y-114257944D01*
X138290378Y-114230231D01*
X138239668Y-114211120D01*
X138230725Y-114210440D01*
X138230722Y-114210439D01*
X138147900Y-114204139D01*
X138094430Y-114200072D01*
X138027278Y-114214284D01*
X137959658Y-114228595D01*
X137959656Y-114228596D01*
X137951929Y-114230231D01*
X137895856Y-114257944D01*
X137267140Y-114658480D01*
X136412881Y-115202703D01*
X136296559Y-115276808D01*
X136293902Y-115278937D01*
X136293896Y-115278941D01*
X136253909Y-115310977D01*
X136253906Y-115310980D01*
X136247745Y-115315916D01*
X136242998Y-115322227D01*
X136242997Y-115322228D01*
X136189809Y-115392940D01*
X136160188Y-115432320D01*
X136108821Y-115568619D01*
X136108141Y-115577562D01*
X136108140Y-115577565D01*
X136102630Y-115650012D01*
X136097773Y-115713857D01*
X136099630Y-115722633D01*
X136099631Y-115722642D01*
X136112801Y-115784868D01*
X136107338Y-115855654D01*
X136064472Y-115912249D01*
X135997813Y-115936685D01*
X135967436Y-115935004D01*
X135848875Y-115913885D01*
X135848869Y-115913884D01*
X135843786Y-115912979D01*
X135770876Y-115912088D01*
X135617361Y-115910213D01*
X135617359Y-115910213D01*
X135612191Y-115910150D01*
X135383244Y-115945184D01*
X135163094Y-116017140D01*
X135158506Y-116019528D01*
X135158502Y-116019530D01*
X134987354Y-116108624D01*
X134957652Y-116124086D01*
X134953519Y-116127189D01*
X134953516Y-116127191D01*
X134776570Y-116260046D01*
X134772435Y-116263151D01*
X134612419Y-116430598D01*
X134481899Y-116621933D01*
X134384382Y-116832015D01*
X134322487Y-117055203D01*
X134297875Y-117285503D01*
X134298172Y-117290656D01*
X134298172Y-117290659D01*
X134305880Y-117424342D01*
X134311207Y-117516731D01*
X134312344Y-117521777D01*
X134312345Y-117521783D01*
X134344521Y-117664557D01*
X134362126Y-117742676D01*
X134364068Y-117747458D01*
X134364069Y-117747462D01*
X134392089Y-117816466D01*
X134449264Y-117957271D01*
X134570281Y-118154753D01*
X134721927Y-118329818D01*
X134900129Y-118477764D01*
X135100102Y-118594618D01*
X135104927Y-118596460D01*
X135104928Y-118596461D01*
X135179445Y-118624917D01*
X135316474Y-118677243D01*
X135321540Y-118678274D01*
X135321541Y-118678274D01*
X135323861Y-118678746D01*
X135543436Y-118723419D01*
X135674104Y-118728210D01*
X135769729Y-118731717D01*
X135769733Y-118731717D01*
X135774893Y-118731906D01*
X135780013Y-118731250D01*
X135780015Y-118731250D01*
X135853050Y-118721894D01*
X136004627Y-118702476D01*
X136009575Y-118700991D01*
X136009582Y-118700990D01*
X136221527Y-118637403D01*
X136226470Y-118635920D01*
X136294389Y-118602647D01*
X136429829Y-118536296D01*
X136429832Y-118536294D01*
X136434464Y-118534025D01*
X136464051Y-118512921D01*
X136537219Y-118489500D01*
X140091225Y-118489500D01*
X140159346Y-118509502D01*
X140205839Y-118563158D01*
X140215943Y-118633432D01*
X140186449Y-118698012D01*
X140154371Y-118724535D01*
X139573601Y-119060878D01*
X139435624Y-119140785D01*
X138422431Y-119771426D01*
X138421576Y-119771997D01*
X138421560Y-119772007D01*
X137659792Y-120280470D01*
X137429811Y-120433977D01*
X137429003Y-120434555D01*
X137429002Y-120434555D01*
X136459614Y-121127163D01*
X136459592Y-121127179D01*
X136458768Y-121127768D01*
X135510286Y-121852096D01*
X135173971Y-122126298D01*
X134586086Y-122605608D01*
X134586066Y-122605625D01*
X134585325Y-122606229D01*
X134584600Y-122606859D01*
X134584584Y-122606873D01*
X133699106Y-123376977D01*
X133695967Y-123379511D01*
X133693954Y-123380787D01*
X133689421Y-123384759D01*
X133689191Y-123384909D01*
X133689012Y-123385117D01*
X133684513Y-123389060D01*
X133680668Y-123393655D01*
X133680343Y-123394043D01*
X133678232Y-123396023D01*
X133677995Y-123396265D01*
X133677984Y-123396255D01*
X133658217Y-123414791D01*
X133555740Y-123489919D01*
X133534258Y-123502605D01*
X133396871Y-123566328D01*
X133373316Y-123574532D01*
X133226057Y-123609939D01*
X133201347Y-123613341D01*
X133137853Y-123615731D01*
X133050007Y-123619038D01*
X133025107Y-123617504D01*
X132875608Y-123593272D01*
X132851497Y-123586861D01*
X132711542Y-123534338D01*
X132709709Y-123533650D01*
X132687336Y-123522616D01*
X132655950Y-123503054D01*
X132558809Y-123442510D01*
X132539048Y-123427284D01*
X132503770Y-123394043D01*
X132428825Y-123323427D01*
X132412450Y-123304604D01*
X132324845Y-123181057D01*
X132312501Y-123159378D01*
X132250961Y-123021007D01*
X132243129Y-122997320D01*
X132210591Y-122851913D01*
X132210057Y-122849523D01*
X132207046Y-122824762D01*
X132204407Y-122703857D01*
X132206124Y-122680197D01*
X132206422Y-122678426D01*
X132207598Y-122673703D01*
X132208133Y-122667743D01*
X132208195Y-122667480D01*
X132208181Y-122667209D01*
X132208720Y-122661200D01*
X132208050Y-122650893D01*
X132207803Y-122640510D01*
X132207938Y-122632879D01*
X132212190Y-122391153D01*
X132184749Y-122122562D01*
X132125509Y-121859151D01*
X132123009Y-121852096D01*
X132090568Y-121760567D01*
X132035314Y-121604673D01*
X131915447Y-121362751D01*
X131767615Y-121136830D01*
X131593925Y-120930127D01*
X131396849Y-120745586D01*
X131179193Y-120585835D01*
X130944058Y-120453148D01*
X130705619Y-120353921D01*
X130698259Y-120350858D01*
X130698256Y-120350857D01*
X130694791Y-120349415D01*
X130538893Y-120305438D01*
X130438566Y-120277136D01*
X130438561Y-120277135D01*
X130434942Y-120276114D01*
X130291040Y-120253549D01*
X130171932Y-120234871D01*
X130171926Y-120234870D01*
X130168212Y-120234288D01*
X129934808Y-120225849D01*
X129921390Y-120224642D01*
X129915746Y-120223829D01*
X129915741Y-120223829D01*
X129910921Y-120223134D01*
X129904908Y-120223203D01*
X129904638Y-120223167D01*
X129904369Y-120223209D01*
X129898369Y-120223277D01*
X129893564Y-120224081D01*
X129890055Y-120224668D01*
X129861285Y-120226142D01*
X129744929Y-120218757D01*
X129702879Y-120216088D01*
X129681242Y-120212809D01*
X129595996Y-120192190D01*
X129501414Y-120169312D01*
X129480668Y-120162338D01*
X129311084Y-120088379D01*
X129291857Y-120077920D01*
X129247050Y-120048231D01*
X129137623Y-119975725D01*
X129120504Y-119962102D01*
X128986285Y-119834759D01*
X128971777Y-119818375D01*
X128861619Y-119669725D01*
X128850164Y-119651075D01*
X128767396Y-119485613D01*
X128759341Y-119465261D01*
X128706455Y-119287966D01*
X128702044Y-119266528D01*
X128680637Y-119082756D01*
X128680003Y-119060878D01*
X128690392Y-118881842D01*
X128690721Y-118876177D01*
X128693881Y-118854523D01*
X128708779Y-118791438D01*
X128730841Y-118698012D01*
X128736402Y-118674463D01*
X128743263Y-118653679D01*
X128816302Y-118483694D01*
X128826657Y-118464410D01*
X128928011Y-118309630D01*
X128941546Y-118292430D01*
X129047643Y-118179381D01*
X129059668Y-118169326D01*
X129059434Y-118169062D01*
X129066521Y-118162772D01*
X129074479Y-118157608D01*
X129074484Y-118157602D01*
X129074489Y-118157599D01*
X129081073Y-118149949D01*
X129081076Y-118149946D01*
X129092482Y-118136692D01*
X129105302Y-118123806D01*
X130036891Y-117313667D01*
X130039651Y-117311336D01*
X130754290Y-116724983D01*
X131022978Y-116504528D01*
X131025799Y-116502279D01*
X131047566Y-116485440D01*
X132031950Y-115723917D01*
X132034773Y-115721797D01*
X133062792Y-114972622D01*
X133065729Y-114970545D01*
X133123620Y-114930847D01*
X133591614Y-114609923D01*
X134114756Y-114251182D01*
X134117765Y-114249181D01*
X134337975Y-114107280D01*
X143137419Y-114107280D01*
X143155829Y-114317701D01*
X143157732Y-114328496D01*
X143212400Y-114532520D01*
X143216146Y-114542812D01*
X143305414Y-114734246D01*
X143310894Y-114743737D01*
X143341585Y-114787570D01*
X143352062Y-114795945D01*
X143365509Y-114788877D01*
X144039769Y-114114617D01*
X144047383Y-114100673D01*
X144047252Y-114098840D01*
X144043001Y-114092225D01*
X143364788Y-113414012D01*
X143353014Y-113407582D01*
X143340998Y-113416879D01*
X143310894Y-113459873D01*
X143305414Y-113469364D01*
X143216146Y-113660798D01*
X143212400Y-113671090D01*
X143157732Y-113875114D01*
X143155829Y-113885909D01*
X143137419Y-114096330D01*
X143137419Y-114107280D01*
X134337975Y-114107280D01*
X134717639Y-113862628D01*
X135187020Y-113560163D01*
X135190044Y-113558276D01*
X136222826Y-112933918D01*
X136278621Y-112900188D01*
X136281739Y-112898364D01*
X136548785Y-112747204D01*
X137388712Y-112271767D01*
X137391848Y-112270051D01*
X138508922Y-111679364D01*
X142372645Y-111679364D01*
X142392020Y-111900827D01*
X142423267Y-112017442D01*
X142448059Y-112109964D01*
X142449558Y-112115560D01*
X142451880Y-112120541D01*
X142451881Y-112120542D01*
X142541184Y-112312053D01*
X142541187Y-112312058D01*
X142543510Y-112317040D01*
X142546666Y-112321547D01*
X142546667Y-112321549D01*
X142659043Y-112482038D01*
X142671021Y-112499145D01*
X142828217Y-112656341D01*
X142832725Y-112659498D01*
X142832728Y-112659500D01*
X142897913Y-112705143D01*
X143010321Y-112783852D01*
X143015303Y-112786175D01*
X143015308Y-112786178D01*
X143161513Y-112854354D01*
X143211802Y-112877804D01*
X143217110Y-112879226D01*
X143217112Y-112879227D01*
X143282947Y-112896867D01*
X143426535Y-112935342D01*
X143604339Y-112950897D01*
X143670456Y-112976760D01*
X143704889Y-113017795D01*
X143724720Y-113055524D01*
X144398979Y-113729783D01*
X144412923Y-113737397D01*
X144414756Y-113737266D01*
X144421371Y-113733015D01*
X144990088Y-113164298D01*
X145900518Y-113164298D01*
X145901810Y-113172172D01*
X145974562Y-113281258D01*
X145984861Y-113293147D01*
X146094919Y-113391897D01*
X146107854Y-113400854D01*
X146239009Y-113469129D01*
X146253768Y-113474588D01*
X146397788Y-113508102D01*
X146413426Y-113509718D01*
X146562748Y-113506330D01*
X146570784Y-113505322D01*
X146582737Y-113498597D01*
X146582122Y-113486770D01*
X146432261Y-113011471D01*
X146423409Y-112998279D01*
X146421722Y-112997549D01*
X146413892Y-112998265D01*
X145912231Y-113156439D01*
X145900518Y-113164298D01*
X144990088Y-113164298D01*
X145099584Y-113054802D01*
X145106014Y-113043028D01*
X145096717Y-113031012D01*
X145053722Y-113000907D01*
X145044236Y-112995429D01*
X144852798Y-112906160D01*
X144842506Y-112902414D01*
X144638482Y-112847746D01*
X144631553Y-112846524D01*
X146914660Y-112846524D01*
X146915376Y-112854354D01*
X147065992Y-113332044D01*
X147074585Y-113344851D01*
X147085088Y-113343472D01*
X147093699Y-113338923D01*
X147217957Y-113256052D01*
X147229847Y-113245753D01*
X147328597Y-113135695D01*
X147337554Y-113122760D01*
X147405829Y-112991604D01*
X147411288Y-112976845D01*
X147444802Y-112832825D01*
X147446418Y-112817187D01*
X147443575Y-112691848D01*
X147439296Y-112678411D01*
X147431373Y-112677455D01*
X146928582Y-112835985D01*
X146915390Y-112844837D01*
X146914660Y-112846524D01*
X144631553Y-112846524D01*
X144627686Y-112845842D01*
X144575567Y-112841283D01*
X144509449Y-112815420D01*
X144467809Y-112757917D01*
X144463868Y-112687030D01*
X144497453Y-112626667D01*
X144624975Y-112499145D01*
X144636954Y-112482038D01*
X144749329Y-112321549D01*
X144749330Y-112321547D01*
X144752486Y-112317040D01*
X144754809Y-112312058D01*
X144754812Y-112312053D01*
X144844115Y-112120542D01*
X144844116Y-112120541D01*
X144846438Y-112115560D01*
X144847938Y-112109964D01*
X144872729Y-112017442D01*
X144903976Y-111900827D01*
X144923351Y-111679364D01*
X144903976Y-111457901D01*
X144865336Y-111313697D01*
X144847861Y-111248478D01*
X144847860Y-111248476D01*
X144846438Y-111243168D01*
X144837948Y-111224961D01*
X144754812Y-111046675D01*
X144754809Y-111046670D01*
X144752486Y-111041688D01*
X144749329Y-111037179D01*
X144628134Y-110864094D01*
X144628132Y-110864091D01*
X144624975Y-110859583D01*
X144467779Y-110702387D01*
X144463271Y-110699230D01*
X144463268Y-110699228D01*
X144385362Y-110644678D01*
X144285675Y-110574876D01*
X144280693Y-110572553D01*
X144280688Y-110572550D01*
X144089176Y-110483247D01*
X144089175Y-110483246D01*
X144084194Y-110480924D01*
X144078886Y-110479502D01*
X144078884Y-110479501D01*
X143934618Y-110440845D01*
X143869461Y-110423386D01*
X143647998Y-110404011D01*
X143426535Y-110423386D01*
X143361378Y-110440845D01*
X143217112Y-110479501D01*
X143217110Y-110479502D01*
X143211802Y-110480924D01*
X143206821Y-110483246D01*
X143206820Y-110483247D01*
X143015309Y-110572550D01*
X143015304Y-110572553D01*
X143010322Y-110574876D01*
X143005815Y-110578032D01*
X143005813Y-110578033D01*
X142832728Y-110699228D01*
X142832725Y-110699230D01*
X142828217Y-110702387D01*
X142671021Y-110859583D01*
X142667864Y-110864091D01*
X142667862Y-110864094D01*
X142546667Y-111037179D01*
X142543510Y-111041688D01*
X142541187Y-111046670D01*
X142541184Y-111046675D01*
X142458048Y-111224961D01*
X142449558Y-111243168D01*
X142448136Y-111248476D01*
X142448135Y-111248478D01*
X142430660Y-111313697D01*
X142392020Y-111457901D01*
X142372645Y-111679364D01*
X138508922Y-111679364D01*
X138516331Y-111675446D01*
X138519530Y-111673812D01*
X139660600Y-111111687D01*
X139663863Y-111110137D01*
X140820569Y-110580959D01*
X140823875Y-110579504D01*
X141995234Y-110083721D01*
X141998581Y-110082360D01*
X142374543Y-109935794D01*
X143183763Y-109620326D01*
X143187109Y-109619077D01*
X144215744Y-109251680D01*
X144384964Y-109191240D01*
X144388383Y-109190073D01*
X145598085Y-108796728D01*
X145601536Y-108795661D01*
X146054671Y-108662557D01*
X146821950Y-108437177D01*
X146825380Y-108436222D01*
X148055653Y-108112850D01*
X148059154Y-108111983D01*
X148141185Y-108092918D01*
X149107808Y-107868261D01*
X149298128Y-107824028D01*
X149301658Y-107823261D01*
X150548363Y-107570946D01*
X150551914Y-107570280D01*
X151234626Y-107452373D01*
X151805381Y-107353802D01*
X151808884Y-107353248D01*
X152462732Y-107259543D01*
X153019615Y-107179734D01*
X153042353Y-107178554D01*
X153053199Y-107178973D01*
X153053204Y-107178973D01*
X153058073Y-107179161D01*
X153064016Y-107178469D01*
X153064285Y-107178476D01*
X153064546Y-107178407D01*
X153070541Y-107177709D01*
X153075234Y-107176409D01*
X153078357Y-107175798D01*
X153082613Y-107174805D01*
X153274129Y-107138335D01*
X153367104Y-107120630D01*
X153370717Y-107119479D01*
X153370721Y-107119478D01*
X153651207Y-107030125D01*
X153651209Y-107030124D01*
X153654826Y-107028972D01*
X153658269Y-107027399D01*
X153658276Y-107027396D01*
X153926035Y-106905041D01*
X153926038Y-106905039D01*
X153929479Y-106903467D01*
X153932709Y-106901492D01*
X154183862Y-106747905D01*
X154183868Y-106747901D01*
X154187096Y-106745927D01*
X154190063Y-106743581D01*
X154190070Y-106743576D01*
X154420985Y-106560979D01*
X154420988Y-106560976D01*
X154423959Y-106558627D01*
X154636648Y-106344270D01*
X154822092Y-106105952D01*
X154824038Y-106102714D01*
X154824043Y-106102706D01*
X154975665Y-105850358D01*
X154975669Y-105850350D01*
X154977615Y-105847112D01*
X155100971Y-105571488D01*
X155173348Y-105338000D01*
X155189257Y-105286679D01*
X155189259Y-105286672D01*
X155190379Y-105283058D01*
X155222121Y-105108982D01*
X155243870Y-104989712D01*
X155243870Y-104989708D01*
X155244549Y-104985987D01*
X155244778Y-104982197D01*
X155260844Y-104715361D01*
X155262363Y-104702027D01*
X155262382Y-104701915D01*
X155262382Y-104701911D01*
X155263189Y-104697116D01*
X155263342Y-104684564D01*
X155261595Y-104672359D01*
X155259385Y-104656928D01*
X155258113Y-104639069D01*
X155258113Y-55591469D01*
X156072095Y-55591469D01*
X156085427Y-55822697D01*
X156086564Y-55827743D01*
X156086565Y-55827749D01*
X156118741Y-55970523D01*
X156136346Y-56048642D01*
X156223484Y-56263237D01*
X156344501Y-56460719D01*
X156496147Y-56635784D01*
X156674349Y-56783730D01*
X156874322Y-56900584D01*
X157090694Y-56983209D01*
X157095760Y-56984240D01*
X157095761Y-56984240D01*
X157148846Y-56995040D01*
X157317656Y-57029385D01*
X157447089Y-57034131D01*
X157543949Y-57037683D01*
X157543953Y-57037683D01*
X157549113Y-57037872D01*
X157554233Y-57037216D01*
X157554235Y-57037216D01*
X157628166Y-57027745D01*
X157778847Y-57008442D01*
X157783795Y-57006957D01*
X157783802Y-57006956D01*
X157995747Y-56943369D01*
X158000690Y-56941886D01*
X158081236Y-56902427D01*
X158204049Y-56842262D01*
X158204052Y-56842260D01*
X158208684Y-56839991D01*
X158397243Y-56705494D01*
X158442309Y-56660585D01*
X158504681Y-56626669D01*
X158575487Y-56631857D01*
X158632249Y-56674503D01*
X158649231Y-56705607D01*
X158674385Y-56772705D01*
X158761739Y-56889261D01*
X158878295Y-56976615D01*
X159014684Y-57027745D01*
X159076866Y-57034500D01*
X160973134Y-57034500D01*
X161035316Y-57027745D01*
X161171705Y-56976615D01*
X161288261Y-56889261D01*
X161375615Y-56772705D01*
X161426745Y-56636316D01*
X161433500Y-56574134D01*
X161433500Y-54677866D01*
X161426745Y-54615684D01*
X161375615Y-54479295D01*
X161288261Y-54362739D01*
X161171705Y-54275385D01*
X161035316Y-54224255D01*
X160973134Y-54217500D01*
X159076866Y-54217500D01*
X159014684Y-54224255D01*
X158878295Y-54275385D01*
X158761739Y-54362739D01*
X158674385Y-54479295D01*
X158671233Y-54487703D01*
X158671232Y-54487705D01*
X158650538Y-54542906D01*
X158607897Y-54599671D01*
X158541335Y-54624371D01*
X158471986Y-54609164D01*
X158449167Y-54592666D01*
X158448887Y-54592358D01*
X158316373Y-54487705D01*
X158271177Y-54452011D01*
X158271172Y-54452008D01*
X158267123Y-54448810D01*
X158262607Y-54446317D01*
X158262604Y-54446315D01*
X158068879Y-54339373D01*
X158068875Y-54339371D01*
X158064355Y-54336876D01*
X158059486Y-54335152D01*
X158059482Y-54335150D01*
X157850903Y-54261288D01*
X157850899Y-54261287D01*
X157846028Y-54259562D01*
X157840935Y-54258655D01*
X157840932Y-54258654D01*
X157623095Y-54219851D01*
X157623089Y-54219850D01*
X157618006Y-54218945D01*
X157545096Y-54218054D01*
X157391581Y-54216179D01*
X157391579Y-54216179D01*
X157386411Y-54216116D01*
X157157464Y-54251150D01*
X156937314Y-54323106D01*
X156932726Y-54325494D01*
X156932722Y-54325496D01*
X156736461Y-54427663D01*
X156731872Y-54430052D01*
X156727739Y-54433155D01*
X156727736Y-54433157D01*
X156550790Y-54566012D01*
X156546655Y-54569117D01*
X156386639Y-54736564D01*
X156256119Y-54927899D01*
X156158602Y-55137981D01*
X156096707Y-55361169D01*
X156072095Y-55591469D01*
X155258113Y-55591469D01*
X155258113Y-49368973D01*
X155259613Y-49349588D01*
X155261923Y-49334755D01*
X155261923Y-49334751D01*
X155263304Y-49325882D01*
X155262140Y-49316981D01*
X155262140Y-49316976D01*
X155261444Y-49311657D01*
X155260759Y-49285558D01*
X155275261Y-49098940D01*
X155278277Y-49079648D01*
X155292300Y-49020475D01*
X155327057Y-48873800D01*
X155333018Y-48855208D01*
X155385961Y-48725597D01*
X155413012Y-48659373D01*
X155421772Y-48641927D01*
X155531063Y-48460803D01*
X155542415Y-48444917D01*
X155678380Y-48282848D01*
X155692051Y-48268907D01*
X155771481Y-48199572D01*
X155851415Y-48129797D01*
X155867074Y-48118136D01*
X155976375Y-48049225D01*
X156046029Y-48005311D01*
X156063288Y-47996216D01*
X156257537Y-47912389D01*
X156275998Y-47906070D01*
X156291201Y-47902151D01*
X156480846Y-47853265D01*
X156500063Y-47849872D01*
X156679395Y-47832393D01*
X156696320Y-47832713D01*
X156696319Y-47832567D01*
X156705293Y-47832501D01*
X156714191Y-47833708D01*
X156739444Y-47829901D01*
X156758227Y-47828493D01*
X157237545Y-47828493D01*
X157305666Y-47848495D01*
G37*
%TD.AperFunction*%
%TD*%
M02*
