M48
; DRILL file {KiCad (6.0.5)} date Tue Oct 18 17:48:53 2022
; FORMAT={3:3/ absolute / metric / keep zeros}
; #@! TF.CreationDate,2022-10-18T17:48:53+09:00
; #@! TF.GenerationSoftware,Kicad,Pcbnew,(6.0.5)
; #@! TF.FileFunction,MixedPlating,1,2
FMAT,2
METRIC
; #@! TA.AperFunction,Plated,PTH,ViaDrill
T1C0.400
; #@! TA.AperFunction,Plated,PTH,ComponentDrill
T2C0.762
; #@! TA.AperFunction,Plated,PTH,ComponentDrill
T3C0.900
; #@! TA.AperFunction,Plated,PTH,ComponentDrill
T4C1.000
%
G90
G05
T1
X131826Y-117856
X134366Y-121158
X141224Y-114046
X145796Y-109982
X151130Y-109982
X156210Y-058420
X156718Y-052578
X157226Y-105156
X161036Y-067056
X161036Y-081026
X161036Y-094996
X161290Y-052578
X161544Y-103632
X161798Y-107442
X163830Y-113284
X166116Y-110236
X170434Y-114300
T2
X143648Y-111679
X144412Y-114102
X148493Y-110152
X149257Y-112574
X157478Y-059944
X157478Y-065024
X157478Y-073914
X157478Y-078994
X157478Y-087884
X157478Y-092964
X157478Y-101854
X157478Y-106934
X160018Y-059944
X160018Y-065024
X160018Y-073914
X160018Y-078994
X160018Y-087884
X160018Y-092964
X160018Y-101854
X160018Y-106934
X168243Y-112574
X169007Y-110152
X173088Y-114102
X173852Y-111679
T3
X135711Y-117320
X137853Y-115955
X157485Y-055626
X157485Y-069596
X157485Y-083566
X157485Y-097536
X160025Y-055626
X160025Y-069596
X160025Y-083566
X160025Y-097536
X179655Y-115961
X181798Y-117325
T4
X153665Y-109925
X156205Y-109925
X158745Y-109925
X161285Y-109925
X163825Y-109925
T0
M30
