%TF.GenerationSoftware,KiCad,Pcbnew,(6.0.5)*%
%TF.CreationDate,2022-10-18T17:48:47+09:00*%
%TF.ProjectId,line_sensor_right,6c696e65-5f73-4656-9e73-6f725f726967,rev?*%
%TF.SameCoordinates,Original*%
%TF.FileFunction,Soldermask,Bot*%
%TF.FilePolarity,Negative*%
%FSLAX46Y46*%
G04 Gerber Fmt 4.6, Leading zero omitted, Abs format (unit mm)*
G04 Created by KiCad (PCBNEW (6.0.5)) date 2022-10-18 17:48:47*
%MOMM*%
%LPD*%
G01*
G04 APERTURE LIST*
G04 Aperture macros list*
%AMRoundRect*
0 Rectangle with rounded corners*
0 $1 Rounding radius*
0 $2 $3 $4 $5 $6 $7 $8 $9 X,Y pos of 4 corners*
0 Add a 4 corners polygon primitive as box body*
4,1,4,$2,$3,$4,$5,$6,$7,$8,$9,$2,$3,0*
0 Add four circle primitives for the rounded corners*
1,1,$1+$1,$2,$3*
1,1,$1+$1,$4,$5*
1,1,$1+$1,$6,$7*
1,1,$1+$1,$8,$9*
0 Add four rect primitives between the rounded corners*
20,1,$1+$1,$2,$3,$4,$5,0*
20,1,$1+$1,$4,$5,$6,$7,0*
20,1,$1+$1,$6,$7,$8,$9,0*
20,1,$1+$1,$8,$9,$2,$3,0*%
%AMRotRect*
0 Rectangle, with rotation*
0 The origin of the aperture is its center*
0 $1 length*
0 $2 width*
0 $3 Rotation angle, in degrees counterclockwise*
0 Add horizontal line*
21,1,$1,$2,0,0,$3*%
G04 Aperture macros list end*
%ADD10R,1.800000X1.800000*%
%ADD11C,1.800000*%
%ADD12RotRect,1.800000X1.800000X147.500000*%
%ADD13C,1.524000*%
%ADD14RotRect,1.800000X1.800000X212.500000*%
%ADD15R,1.700000X1.700000*%
%ADD16O,1.700000X1.700000*%
%ADD17RoundRect,0.140000X0.140000X0.170000X-0.140000X0.170000X-0.140000X-0.170000X0.140000X-0.170000X0*%
%ADD18RoundRect,0.140000X0.204231X-0.082400X0.120033X0.184640X-0.204231X0.082400X-0.120033X-0.184640X0*%
%ADD19RoundRect,0.140000X0.120033X-0.184640X0.204231X0.082400X-0.120033X0.184640X-0.204231X-0.082400X0*%
G04 APERTURE END LIST*
D10*
%TO.C,D6*%
X160025000Y-69596000D03*
D11*
X157485000Y-69596000D03*
%TD*%
D12*
%TO.C,D3*%
X181797654Y-117325407D03*
D11*
X179655440Y-115960666D03*
%TD*%
D10*
%TO.C,D5*%
X160025000Y-97536000D03*
D11*
X157485000Y-97536000D03*
%TD*%
D10*
%TO.C,D7*%
X160025000Y-55626000D03*
D11*
X157485000Y-55626000D03*
%TD*%
D13*
%TO.C,U1*%
X149256673Y-112574219D03*
X148492881Y-110151778D03*
X143647998Y-111679364D03*
X144411791Y-114101805D03*
%TD*%
D14*
%TO.C,D1*%
X137852994Y-115955293D03*
D11*
X135710780Y-117320034D03*
%TD*%
D13*
%TO.C,U3*%
X173088209Y-114101805D03*
X173852002Y-111679364D03*
X169007119Y-110151778D03*
X168243327Y-112574219D03*
%TD*%
%TO.C,U7*%
X160018000Y-59944000D03*
X157478000Y-59944000D03*
X157478000Y-65024000D03*
X160018000Y-65024000D03*
%TD*%
%TO.C,U6*%
X160018000Y-73914000D03*
X157478000Y-73914000D03*
X157478000Y-78994000D03*
X160018000Y-78994000D03*
%TD*%
D15*
%TO.C,J1*%
X163825000Y-109925000D03*
D16*
X161285000Y-109925000D03*
X158745000Y-109925000D03*
X156205000Y-109925000D03*
X153665000Y-109925000D03*
%TD*%
D13*
%TO.C,U4*%
X160018000Y-87884000D03*
X157478000Y-87884000D03*
X157478000Y-92964000D03*
X160018000Y-92964000D03*
%TD*%
D10*
%TO.C,D4*%
X160025000Y-83566000D03*
D11*
X157485000Y-83566000D03*
%TD*%
D13*
%TO.C,U5*%
X160018000Y-101854000D03*
X157478000Y-101854000D03*
X157478000Y-106934000D03*
X160018000Y-106934000D03*
%TD*%
D17*
%TO.C,C5*%
X159230000Y-104394000D03*
X158270000Y-104394000D03*
%TD*%
%TO.C,C4*%
X159230000Y-90424000D03*
X158270000Y-90424000D03*
%TD*%
%TO.C,C6*%
X159230000Y-76454000D03*
X158270000Y-76454000D03*
%TD*%
D18*
%TO.C,C1*%
X146592678Y-112675568D03*
X146304000Y-111760000D03*
%TD*%
D17*
%TO.C,C7*%
X159230000Y-62484000D03*
X158270000Y-62484000D03*
%TD*%
D19*
%TO.C,C3*%
X170797661Y-112522000D03*
X171086339Y-111606432D03*
%TD*%
M02*
