%TF.GenerationSoftware,KiCad,Pcbnew,(6.0.5)*%
%TF.CreationDate,2023-02-27T23:38:09+09:00*%
%TF.ProjectId,Kiker_PSU,4b696b65-725f-4505-9355-2e6b69636164,rev?*%
%TF.SameCoordinates,Original*%
%TF.FileFunction,Copper,L2,Bot*%
%TF.FilePolarity,Positive*%
%FSLAX46Y46*%
G04 Gerber Fmt 4.6, Leading zero omitted, Abs format (unit mm)*
G04 Created by KiCad (PCBNEW (6.0.5)) date 2023-02-27 23:38:09*
%MOMM*%
%LPD*%
G01*
G04 APERTURE LIST*
G04 Aperture macros list*
%AMRoundRect*
0 Rectangle with rounded corners*
0 $1 Rounding radius*
0 $2 $3 $4 $5 $6 $7 $8 $9 X,Y pos of 4 corners*
0 Add a 4 corners polygon primitive as box body*
4,1,4,$2,$3,$4,$5,$6,$7,$8,$9,$2,$3,0*
0 Add four circle primitives for the rounded corners*
1,1,$1+$1,$2,$3*
1,1,$1+$1,$4,$5*
1,1,$1+$1,$6,$7*
1,1,$1+$1,$8,$9*
0 Add four rect primitives between the rounded corners*
20,1,$1+$1,$2,$3,$4,$5,0*
20,1,$1+$1,$4,$5,$6,$7,0*
20,1,$1+$1,$6,$7,$8,$9,0*
20,1,$1+$1,$8,$9,$2,$3,0*%
G04 Aperture macros list end*
%TA.AperFunction,ComponentPad*%
%ADD10R,2.400000X2.400000*%
%TD*%
%TA.AperFunction,ComponentPad*%
%ADD11O,2.400000X2.400000*%
%TD*%
%TA.AperFunction,ComponentPad*%
%ADD12C,1.800000*%
%TD*%
%TA.AperFunction,ComponentPad*%
%ADD13C,1.524000*%
%TD*%
%TA.AperFunction,ComponentPad*%
%ADD14C,2.000000*%
%TD*%
%TA.AperFunction,ComponentPad*%
%ADD15RoundRect,0.250000X-0.725000X0.600000X-0.725000X-0.600000X0.725000X-0.600000X0.725000X0.600000X0*%
%TD*%
%TA.AperFunction,ComponentPad*%
%ADD16O,1.950000X1.700000*%
%TD*%
%TA.AperFunction,ComponentPad*%
%ADD17C,1.400000*%
%TD*%
%TA.AperFunction,ComponentPad*%
%ADD18O,1.400000X1.400000*%
%TD*%
%TA.AperFunction,ComponentPad*%
%ADD19RoundRect,0.250000X-0.750000X0.600000X-0.750000X-0.600000X0.750000X-0.600000X0.750000X0.600000X0*%
%TD*%
%TA.AperFunction,ComponentPad*%
%ADD20O,2.000000X1.700000*%
%TD*%
%TA.AperFunction,ComponentPad*%
%ADD21RoundRect,0.250000X0.750000X-0.600000X0.750000X0.600000X-0.750000X0.600000X-0.750000X-0.600000X0*%
%TD*%
%TA.AperFunction,ViaPad*%
%ADD22C,0.800000*%
%TD*%
%TA.AperFunction,Conductor*%
%ADD23C,0.250000*%
%TD*%
%TA.AperFunction,Conductor*%
%ADD24C,2.000000*%
%TD*%
G04 APERTURE END LIST*
D10*
%TO.P,D1,1,K*%
%TO.N,+12V*%
X150241000Y-92583000D03*
D11*
%TO.P,D1,2,A*%
%TO.N,Net-(D1-Pad2)*%
X150241000Y-82423000D03*
%TD*%
D12*
%TO.P,R3,1*%
%TO.N,Net-(C1-Pad2)*%
X114300000Y-87217500D03*
%TO.P,R3,2*%
%TO.N,Net-(Q1-Pad2)*%
X134620000Y-87217500D03*
%TD*%
D13*
%TO.P,U1,1,IN+*%
%TO.N,+12V*%
X153670000Y-97790000D03*
%TO.P,U1,2,IN-*%
%TO.N,GND*%
X153670000Y-80010000D03*
%TO.P,U1,3,OUT+*%
%TO.N,Net-(C1-Pad1)*%
X113030000Y-97790000D03*
%TO.P,U1,4,OUT-*%
%TO.N,Net-(Q1-Pad3)*%
X113030000Y-80010000D03*
%TD*%
D14*
%TO.P,C1,1*%
%TO.N,Net-(C1-Pad1)*%
X156845000Y-112903000D03*
%TO.P,C1,2*%
%TO.N,Net-(C1-Pad2)*%
X156845000Y-105403000D03*
%TD*%
D15*
%TO.P,Kiker,1,Pin_1*%
%TO.N,Net-(J2-Pad1)*%
X160020000Y-83900000D03*
D16*
%TO.P,Kiker,2,Pin_2*%
%TO.N,Net-(C1-Pad1)*%
X160020000Y-86400000D03*
%TO.P,Kiker,3,Pin_3*%
%TO.N,Net-(C1-Pad2)*%
X160020000Y-88900000D03*
%TD*%
D17*
%TO.P,R1,1*%
%TO.N,Net-(Q1-Pad3)*%
X118750000Y-93980000D03*
D18*
%TO.P,R1,2*%
%TO.N,Net-(Q1-Pad1)*%
X123830000Y-93980000D03*
%TD*%
D17*
%TO.P,R2,1*%
%TO.N,Net-(J2-Pad1)*%
X131318000Y-93980000D03*
D18*
%TO.P,R2,2*%
%TO.N,Net-(Q1-Pad1)*%
X126238000Y-93980000D03*
%TD*%
D12*
%TO.P,Q1,3,S*%
%TO.N,Net-(Q1-Pad3)*%
X144780000Y-90861000D03*
%TO.P,Q1,2,D*%
%TO.N,Net-(Q1-Pad2)*%
X142240000Y-90861000D03*
%TO.P,Q1,1,G*%
%TO.N,Net-(Q1-Pad1)*%
X139700000Y-90861000D03*
%TD*%
D19*
%TO.P,PSU,1,Pin_1*%
%TO.N,GND*%
X160020000Y-95250000D03*
D20*
%TO.P,PSU,2,Pin_2*%
%TO.N,Net-(D1-Pad2)*%
X160020000Y-97750000D03*
%TD*%
D21*
%TO.P,REF\u002A\u002A,1*%
%TO.N,Net-(C1-Pad1)*%
X133350000Y-76835000D03*
D20*
%TO.P,REF\u002A\u002A,2*%
%TO.N,GND*%
X133350000Y-74335000D03*
%TD*%
D22*
%TO.N,GND*%
X121158000Y-120523000D03*
X118110000Y-111633000D03*
X143002000Y-119507000D03*
X159004000Y-111633000D03*
X155702000Y-115062000D03*
X127254000Y-115316000D03*
X112141000Y-99949000D03*
X114046000Y-83947000D03*
X115697000Y-85598000D03*
X116840000Y-86868000D03*
X136525000Y-79883000D03*
X149098000Y-77343000D03*
X153162000Y-82423000D03*
X138684000Y-70104000D03*
X140970000Y-82804000D03*
X119634000Y-77978000D03*
X121539000Y-79756000D03*
%TO.N,Net-(C1-Pad1)*%
X114109500Y-98869500D03*
X148209000Y-112903000D03*
X118110000Y-102870000D03*
X144145000Y-112903000D03*
X158559500Y-108648500D03*
X137668000Y-112903000D03*
X133477000Y-112903000D03*
X135509000Y-112903000D03*
X115379500Y-100139500D03*
X139827000Y-112903000D03*
X159258000Y-104775000D03*
X160178295Y-91852295D03*
X127635000Y-112395000D03*
X150241000Y-112903000D03*
X123698000Y-108458000D03*
X125031500Y-109791500D03*
X159258000Y-103378000D03*
X162219520Y-88224480D03*
X159258000Y-107569000D03*
X141986000Y-112903000D03*
X121031000Y-105791000D03*
X156845000Y-110744000D03*
X126365000Y-111125000D03*
X129540000Y-112903000D03*
X161734500Y-86931500D03*
X146177000Y-112903000D03*
X131445000Y-112903000D03*
X154432000Y-112903000D03*
X159258000Y-101981000D03*
X161257795Y-90772795D03*
X152400000Y-112903000D03*
X159131000Y-92837000D03*
X162219520Y-89811071D03*
X116776500Y-101536500D03*
X122428000Y-107188000D03*
X159258000Y-106172000D03*
X119507000Y-104267000D03*
X157607000Y-109601000D03*
%TO.N,Net-(C1-Pad2)*%
X124523500Y-104584500D03*
X115585750Y-88503250D03*
X134246000Y-105403000D03*
X156728002Y-91958002D03*
X153737000Y-102295000D03*
X138437000Y-105403000D03*
X151733704Y-100107296D03*
X116332000Y-89789000D03*
X152026000Y-105403000D03*
X116332000Y-94615000D03*
X146565000Y-105403000D03*
X117538500Y-97599500D03*
X150121000Y-105403000D03*
X120015000Y-100076000D03*
X122364500Y-102425500D03*
X123507500Y-103568500D03*
X116332000Y-92964000D03*
X151708489Y-98862511D03*
X118745000Y-98806000D03*
X130563000Y-105403000D03*
X157734000Y-90932000D03*
X144914000Y-105403000D03*
X116332000Y-91313000D03*
X143009000Y-105403000D03*
X125857000Y-105410000D03*
X155007000Y-103565000D03*
X140723000Y-105403000D03*
X152530500Y-101088500D03*
X158760002Y-89926002D03*
X154058000Y-105403000D03*
X148343000Y-105403000D03*
X132341000Y-105403000D03*
X127381000Y-105410000D03*
X116332000Y-96393000D03*
X121221500Y-101282500D03*
X128905000Y-105410000D03*
X136278000Y-105403000D03*
%TO.N,GND*%
X163322000Y-91567000D03*
X161290000Y-99568000D03*
X118999000Y-82931000D03*
X146685000Y-89027000D03*
X161544000Y-93472000D03*
X163322000Y-85217000D03*
X116967000Y-81026000D03*
X164465000Y-99949000D03*
X162052000Y-82931000D03*
X159639000Y-81661000D03*
X150114000Y-85471000D03*
%TD*%
D23*
%TO.N,GND*%
X163519040Y-91369960D02*
X163519040Y-85414040D01*
X163322000Y-91567000D02*
X163519040Y-91369960D01*
X163519040Y-85414040D02*
X163322000Y-85217000D01*
D24*
%TO.N,Net-(C1-Pad1)*%
X162194520Y-89748938D02*
X162194520Y-87391520D01*
X156845000Y-112903000D02*
X156845000Y-110363000D01*
X158559500Y-93281500D02*
X157820480Y-94020520D01*
X160887504Y-91055953D02*
X160785047Y-91055953D01*
X156210000Y-99695000D02*
X156210000Y-96988458D01*
X159258000Y-100036458D02*
X157820480Y-98598938D01*
X159258000Y-107950000D02*
X159258000Y-102743000D01*
X162194520Y-89748938D02*
X160887504Y-91055953D01*
X156210000Y-96988458D02*
X156210000Y-95631000D01*
X162194520Y-87391520D02*
X161203000Y-86400000D01*
X161203000Y-86400000D02*
X160020000Y-86400000D01*
X160785047Y-91055953D02*
X158559500Y-93281500D01*
X156210000Y-95631000D02*
X158559500Y-93281500D01*
X159258000Y-102743000D02*
X159258000Y-100036458D01*
X128143000Y-112903000D02*
X156845000Y-112903000D01*
X159258000Y-102743000D02*
X156210000Y-99695000D01*
X157820480Y-94020520D02*
X157820480Y-98598938D01*
X159258000Y-100036458D02*
X156210000Y-96988458D01*
X113030000Y-97790000D02*
X128143000Y-112903000D01*
X156845000Y-110363000D02*
X159258000Y-107950000D01*
%TO.N,Net-(C1-Pad2)*%
X156845000Y-105403000D02*
X154181500Y-102739500D01*
X156728002Y-91958002D02*
X156791502Y-91894502D01*
X155120498Y-91894502D02*
X156791502Y-91894502D01*
X151708489Y-98862511D02*
X151708489Y-96977514D01*
X154181500Y-102739500D02*
X151708489Y-100266489D01*
X151708489Y-100266489D02*
X151708489Y-98862511D01*
X151708489Y-95306511D02*
X155120498Y-91894502D01*
X125342000Y-105403000D02*
X156845000Y-105403000D01*
X151708489Y-96977514D02*
X151708489Y-95306511D01*
X116332000Y-89249500D02*
X116332000Y-96393000D01*
X158760002Y-89926002D02*
X159829570Y-88856433D01*
X159829570Y-88856433D02*
X159976433Y-88856433D01*
X116332000Y-96393000D02*
X125342000Y-105403000D01*
X154181500Y-102739500D02*
X152857514Y-101415514D01*
X114300000Y-87217500D02*
X116332000Y-89249500D01*
X151708489Y-96977514D02*
X156728002Y-91958002D01*
X156791502Y-91894502D02*
X158760002Y-89926002D01*
%TO.N,Net-(J2-Pad1)*%
X144630158Y-93980000D02*
X154710158Y-83900000D01*
X154710158Y-83900000D02*
X160020000Y-83900000D01*
X131318000Y-93980000D02*
X144630158Y-93980000D01*
%TO.N,Net-(Q1-Pad1)*%
X123830000Y-93980000D02*
X126238000Y-93980000D01*
X126238000Y-93980000D02*
X129357000Y-90861000D01*
X129357000Y-90861000D02*
X139700000Y-90861000D01*
%TO.N,Net-(Q1-Pad2)*%
X142240000Y-90861000D02*
X142240000Y-90290409D01*
X139167091Y-87217500D02*
X134620000Y-87217500D01*
X142240000Y-90290409D02*
X139167091Y-87217500D01*
%TO.N,Net-(Q1-Pad3)*%
X118750000Y-85730000D02*
X119517000Y-84963000D01*
X118750000Y-85730000D02*
X113030000Y-80010000D01*
X119517000Y-84963000D02*
X140023183Y-84963000D01*
X118750000Y-93980000D02*
X118750000Y-85730000D01*
X144709283Y-89649100D02*
X144709283Y-90790283D01*
X140023183Y-84963000D02*
X144709283Y-89649100D01*
%TD*%
%TA.AperFunction,Conductor*%
%TO.N,GND*%
G36*
X137745766Y-68230540D02*
G01*
X137762769Y-68238725D01*
X149484508Y-75006237D01*
X163142889Y-82891864D01*
X163158920Y-82902850D01*
X163177615Y-82917906D01*
X163191877Y-82923827D01*
X163214148Y-82935823D01*
X163353720Y-83030209D01*
X163367784Y-83041254D01*
X163511414Y-83171542D01*
X163523779Y-83184472D01*
X163647513Y-83333794D01*
X163657921Y-83348346D01*
X163755906Y-83508219D01*
X163759252Y-83513679D01*
X163767493Y-83529555D01*
X163844391Y-83707586D01*
X163850300Y-83724470D01*
X163882317Y-83842159D01*
X163901205Y-83911591D01*
X163904663Y-83929140D01*
X163912930Y-83995734D01*
X163928553Y-84121587D01*
X163929491Y-84139454D01*
X163926587Y-84295445D01*
X163923238Y-84319644D01*
X163923509Y-84319693D01*
X163922642Y-84324476D01*
X163921405Y-84329190D01*
X163920125Y-84341677D01*
X163920380Y-84346543D01*
X163920325Y-84348757D01*
X163919999Y-84355204D01*
X163825496Y-85594341D01*
X163825457Y-85595152D01*
X163825456Y-85595162D01*
X163817899Y-85750801D01*
X163775421Y-86625679D01*
X163774643Y-86641693D01*
X163751361Y-86708763D01*
X163695513Y-86752599D01*
X163624832Y-86759283D01*
X163561758Y-86726693D01*
X163537369Y-86694276D01*
X163535708Y-86690364D01*
X163518201Y-86662564D01*
X163511572Y-86650654D01*
X163497174Y-86621132D01*
X163451877Y-86556920D01*
X163448219Y-86551434D01*
X163409049Y-86489234D01*
X163409048Y-86489233D01*
X163406353Y-86484953D01*
X163403012Y-86481164D01*
X163403008Y-86481158D01*
X163384622Y-86460303D01*
X163376176Y-86449608D01*
X163359529Y-86426010D01*
X163357246Y-86422773D01*
X163337611Y-86401270D01*
X163297895Y-86361554D01*
X163292476Y-86355784D01*
X163249170Y-86306662D01*
X163249167Y-86306659D01*
X163245822Y-86302865D01*
X163213531Y-86276341D01*
X163204412Y-86268071D01*
X162286675Y-85350334D01*
X162284221Y-85347812D01*
X162219138Y-85278988D01*
X162219135Y-85278986D01*
X162215668Y-85275319D01*
X162153239Y-85227589D01*
X162148108Y-85223448D01*
X162092133Y-85175809D01*
X162092132Y-85175808D01*
X162088280Y-85172530D01*
X162083955Y-85169911D01*
X162083950Y-85169907D01*
X162060176Y-85155509D01*
X162048929Y-85147837D01*
X162022826Y-85127880D01*
X161953592Y-85090757D01*
X161947868Y-85087493D01*
X161884966Y-85049398D01*
X161880642Y-85046779D01*
X161850181Y-85034472D01*
X161837841Y-85028692D01*
X161813350Y-85015560D01*
X161813351Y-85015560D01*
X161808891Y-85013169D01*
X161804110Y-85011523D01*
X161804106Y-85011521D01*
X161734599Y-84987588D01*
X161728421Y-84985278D01*
X161660266Y-84957742D01*
X161660267Y-84957742D01*
X161655571Y-84955845D01*
X161623539Y-84948568D01*
X161610441Y-84944837D01*
X161579369Y-84934138D01*
X161554098Y-84929773D01*
X161490376Y-84898468D01*
X161453695Y-84837682D01*
X161455952Y-84765945D01*
X161490632Y-84661388D01*
X161492797Y-84654861D01*
X161503500Y-84550400D01*
X161503500Y-84188736D01*
X161506163Y-84162970D01*
X161520439Y-84094634D01*
X161521474Y-84089680D01*
X161522009Y-84077912D01*
X161529482Y-83913334D01*
X161532486Y-83847183D01*
X161531461Y-83838319D01*
X161504585Y-83606044D01*
X161505038Y-83605992D01*
X161503500Y-83590299D01*
X161503500Y-83249600D01*
X161502115Y-83236251D01*
X161493238Y-83150692D01*
X161493237Y-83150688D01*
X161492526Y-83143834D01*
X161485904Y-83123984D01*
X161438868Y-82983002D01*
X161436550Y-82976054D01*
X161343478Y-82825652D01*
X161218303Y-82700695D01*
X161212072Y-82696854D01*
X161073968Y-82611725D01*
X161073966Y-82611724D01*
X161067738Y-82607885D01*
X160919787Y-82558812D01*
X160906389Y-82554368D01*
X160906387Y-82554368D01*
X160899861Y-82552203D01*
X160893025Y-82551503D01*
X160893022Y-82551502D01*
X160849969Y-82547091D01*
X160795400Y-82541500D01*
X160710376Y-82541500D01*
X160650836Y-82526545D01*
X160625891Y-82513169D01*
X160396369Y-82434138D01*
X160279184Y-82413897D01*
X160161074Y-82393496D01*
X160161068Y-82393495D01*
X160157164Y-82392821D01*
X160153203Y-82392641D01*
X160153202Y-82392641D01*
X160129494Y-82391564D01*
X160129475Y-82391564D01*
X160128075Y-82391500D01*
X154734174Y-82391500D01*
X154730656Y-82391451D01*
X154636008Y-82388807D01*
X154636005Y-82388807D01*
X154630953Y-82388666D01*
X154553060Y-82399059D01*
X154546519Y-82399758D01*
X154517826Y-82402067D01*
X154473235Y-82405654D01*
X154473231Y-82405655D01*
X154468193Y-82406060D01*
X154436280Y-82413899D01*
X154422900Y-82416426D01*
X154390338Y-82420771D01*
X154385497Y-82422232D01*
X154385495Y-82422233D01*
X154315129Y-82443478D01*
X154308768Y-82445219D01*
X154232452Y-82463963D01*
X154227792Y-82465941D01*
X154202207Y-82476801D01*
X154189397Y-82481438D01*
X154157950Y-82490933D01*
X154153402Y-82493151D01*
X154153395Y-82493154D01*
X154087340Y-82525371D01*
X154081338Y-82528107D01*
X154049787Y-82541500D01*
X154009002Y-82558812D01*
X153984690Y-82574123D01*
X153981202Y-82576319D01*
X153969298Y-82582945D01*
X153939770Y-82597346D01*
X153935633Y-82600265D01*
X153935632Y-82600265D01*
X153875561Y-82642641D01*
X153870072Y-82646301D01*
X153807872Y-82685471D01*
X153803591Y-82688167D01*
X153799802Y-82691508D01*
X153799796Y-82691512D01*
X153778941Y-82709898D01*
X153768246Y-82718344D01*
X153741411Y-82737274D01*
X153719908Y-82756909D01*
X153680192Y-82796625D01*
X153674422Y-82802044D01*
X153625300Y-82845350D01*
X153625297Y-82845353D01*
X153621503Y-82848698D01*
X153618293Y-82852606D01*
X153618292Y-82852607D01*
X153594979Y-82880989D01*
X153586709Y-82890108D01*
X146432878Y-90043939D01*
X146370566Y-90077965D01*
X146299751Y-90072900D01*
X146242915Y-90030353D01*
X146218104Y-89963833D01*
X146217783Y-89954844D01*
X146217783Y-89673116D01*
X146217832Y-89669598D01*
X146220476Y-89574950D01*
X146220476Y-89574947D01*
X146220617Y-89569895D01*
X146210224Y-89492002D01*
X146209524Y-89485453D01*
X146203629Y-89412177D01*
X146203628Y-89412173D01*
X146203223Y-89407135D01*
X146195384Y-89375222D01*
X146192856Y-89361838D01*
X146189181Y-89334294D01*
X146188512Y-89329280D01*
X146165805Y-89254071D01*
X146164064Y-89247708D01*
X146145320Y-89171394D01*
X146132482Y-89141148D01*
X146127844Y-89128337D01*
X146119813Y-89101738D01*
X146118350Y-89096892D01*
X146116132Y-89092344D01*
X146116129Y-89092337D01*
X146083912Y-89026282D01*
X146081176Y-89020280D01*
X146052445Y-88952595D01*
X146050471Y-88947944D01*
X146032964Y-88920144D01*
X146026335Y-88908234D01*
X146011937Y-88878712D01*
X145966640Y-88814500D01*
X145962982Y-88809014D01*
X145923812Y-88746814D01*
X145923811Y-88746813D01*
X145921116Y-88742533D01*
X145917775Y-88738744D01*
X145917771Y-88738738D01*
X145899385Y-88717883D01*
X145890939Y-88707188D01*
X145888857Y-88704237D01*
X145872009Y-88680353D01*
X145852374Y-88658850D01*
X145812658Y-88619134D01*
X145807239Y-88613364D01*
X145763933Y-88564242D01*
X145763930Y-88564239D01*
X145760585Y-88560445D01*
X145728294Y-88533921D01*
X145719175Y-88525651D01*
X141106858Y-83913334D01*
X141104404Y-83910812D01*
X141039321Y-83841988D01*
X141039318Y-83841986D01*
X141035851Y-83838319D01*
X140973422Y-83790589D01*
X140968291Y-83786448D01*
X140912316Y-83738809D01*
X140912315Y-83738808D01*
X140908463Y-83735530D01*
X140904138Y-83732911D01*
X140904133Y-83732907D01*
X140880359Y-83718509D01*
X140869112Y-83710837D01*
X140843009Y-83690880D01*
X140773775Y-83653757D01*
X140768051Y-83650493D01*
X140746655Y-83637535D01*
X140700825Y-83609779D01*
X140670364Y-83597472D01*
X140658024Y-83591692D01*
X140654533Y-83589820D01*
X140629074Y-83576169D01*
X140624293Y-83574523D01*
X140624289Y-83574521D01*
X140554782Y-83550588D01*
X140548604Y-83548278D01*
X140480449Y-83520742D01*
X140480450Y-83520742D01*
X140475754Y-83518845D01*
X140443722Y-83511568D01*
X140430624Y-83507837D01*
X140399552Y-83497138D01*
X140322083Y-83483757D01*
X140315679Y-83482477D01*
X140239039Y-83465065D01*
X140206230Y-83463001D01*
X140192730Y-83461415D01*
X140160347Y-83455821D01*
X140156390Y-83455641D01*
X140156387Y-83455641D01*
X140132677Y-83454564D01*
X140132658Y-83454564D01*
X140131258Y-83454500D01*
X140075075Y-83454500D01*
X140067163Y-83454251D01*
X140061569Y-83453899D01*
X139996770Y-83449822D01*
X139957728Y-83453650D01*
X139955191Y-83453899D01*
X139942895Y-83454500D01*
X119541016Y-83454500D01*
X119537498Y-83454451D01*
X119442850Y-83451807D01*
X119442847Y-83451807D01*
X119437795Y-83451666D01*
X119359902Y-83462059D01*
X119353361Y-83462758D01*
X119328617Y-83464749D01*
X119280077Y-83468654D01*
X119280073Y-83468655D01*
X119275035Y-83469060D01*
X119243122Y-83476899D01*
X119229742Y-83479426D01*
X119197180Y-83483771D01*
X119192339Y-83485232D01*
X119192337Y-83485233D01*
X119121971Y-83506478D01*
X119115610Y-83508219D01*
X119039294Y-83526963D01*
X119034634Y-83528941D01*
X119009049Y-83539801D01*
X118996239Y-83544438D01*
X118964792Y-83553933D01*
X118960244Y-83556151D01*
X118960237Y-83556154D01*
X118894182Y-83588371D01*
X118888179Y-83591107D01*
X118865508Y-83600730D01*
X118794987Y-83608934D01*
X118727182Y-83573841D01*
X117531492Y-82378151D01*
X148528296Y-82378151D01*
X148528520Y-82382817D01*
X148528520Y-82382822D01*
X148533820Y-82493154D01*
X148540480Y-82631798D01*
X148555213Y-82705866D01*
X148584402Y-82852607D01*
X148590021Y-82880857D01*
X148591600Y-82885255D01*
X148591602Y-82885262D01*
X148636022Y-83008980D01*
X148675831Y-83119858D01*
X148678048Y-83123984D01*
X148778763Y-83311424D01*
X148796025Y-83343551D01*
X148798820Y-83347294D01*
X148798822Y-83347297D01*
X148945171Y-83543282D01*
X148945176Y-83543288D01*
X148947963Y-83547020D01*
X148951272Y-83550300D01*
X148951277Y-83550306D01*
X149120955Y-83718509D01*
X149128307Y-83725797D01*
X149132069Y-83728555D01*
X149132072Y-83728558D01*
X149287005Y-83842159D01*
X149333094Y-83875953D01*
X149337229Y-83878129D01*
X149337233Y-83878131D01*
X149404143Y-83913334D01*
X149557827Y-83994191D01*
X149797568Y-84077912D01*
X150047050Y-84125278D01*
X150167532Y-84130011D01*
X150296125Y-84135064D01*
X150296130Y-84135064D01*
X150300793Y-84135247D01*
X150399774Y-84124407D01*
X150548569Y-84108112D01*
X150548575Y-84108111D01*
X150553222Y-84107602D01*
X150602478Y-84094634D01*
X150794273Y-84044138D01*
X150798793Y-84042948D01*
X150917353Y-83992011D01*
X151027807Y-83944557D01*
X151027810Y-83944555D01*
X151032110Y-83942708D01*
X151036090Y-83940245D01*
X151036094Y-83940243D01*
X151244064Y-83811547D01*
X151244066Y-83811545D01*
X151248047Y-83809082D01*
X151251624Y-83806054D01*
X151438289Y-83648031D01*
X151438291Y-83648029D01*
X151441862Y-83645006D01*
X151609295Y-83454084D01*
X151612037Y-83449822D01*
X151744141Y-83244442D01*
X151746669Y-83240512D01*
X151850967Y-83008980D01*
X151919896Y-82764575D01*
X151930115Y-82684252D01*
X151951545Y-82515798D01*
X151951545Y-82515792D01*
X151951943Y-82512667D01*
X151952551Y-82489470D01*
X151954208Y-82426160D01*
X151954291Y-82423000D01*
X151952512Y-82399058D01*
X151935818Y-82174411D01*
X151935817Y-82174407D01*
X151935472Y-82169759D01*
X151879428Y-81922082D01*
X151787391Y-81685409D01*
X151766866Y-81649498D01*
X151663702Y-81468997D01*
X151663700Y-81468995D01*
X151661383Y-81464940D01*
X151504171Y-81265517D01*
X151345629Y-81116376D01*
X151322610Y-81094722D01*
X151322608Y-81094720D01*
X151319209Y-81091523D01*
X151286421Y-81068777D01*
X152975777Y-81068777D01*
X152985074Y-81080793D01*
X153028069Y-81110898D01*
X153037555Y-81116376D01*
X153228993Y-81205645D01*
X153239285Y-81209391D01*
X153443309Y-81264059D01*
X153454104Y-81265962D01*
X153664525Y-81284372D01*
X153675475Y-81284372D01*
X153885896Y-81265962D01*
X153896691Y-81264059D01*
X154100715Y-81209391D01*
X154111007Y-81205645D01*
X154302445Y-81116376D01*
X154311931Y-81110898D01*
X154355764Y-81080207D01*
X154364139Y-81069729D01*
X154357071Y-81056281D01*
X153682812Y-80382022D01*
X153668868Y-80374408D01*
X153667035Y-80374539D01*
X153660420Y-80378790D01*
X152982207Y-81057003D01*
X152975777Y-81068777D01*
X151286421Y-81068777D01*
X151189114Y-81001273D01*
X151114393Y-80949437D01*
X151114390Y-80949435D01*
X151110561Y-80946779D01*
X151106384Y-80944719D01*
X151106377Y-80944715D01*
X150886996Y-80836528D01*
X150886992Y-80836527D01*
X150882810Y-80834464D01*
X150640960Y-80757047D01*
X150636355Y-80756297D01*
X150394935Y-80716980D01*
X150394934Y-80716980D01*
X150390323Y-80716229D01*
X150263365Y-80714567D01*
X150141083Y-80712966D01*
X150141080Y-80712966D01*
X150136406Y-80712905D01*
X149884787Y-80747149D01*
X149640993Y-80818208D01*
X149410380Y-80924522D01*
X149406471Y-80927085D01*
X149201928Y-81061189D01*
X149201923Y-81061193D01*
X149198015Y-81063755D01*
X149008562Y-81232848D01*
X148846183Y-81428087D01*
X148714447Y-81645182D01*
X148616246Y-81879365D01*
X148553738Y-82125490D01*
X148528296Y-82378151D01*
X117531492Y-82378151D01*
X115168816Y-80015475D01*
X152395628Y-80015475D01*
X152414038Y-80225896D01*
X152415941Y-80236691D01*
X152470609Y-80440715D01*
X152474355Y-80451007D01*
X152563623Y-80642441D01*
X152569103Y-80651932D01*
X152599794Y-80695765D01*
X152610271Y-80704140D01*
X152623718Y-80697072D01*
X153297978Y-80022812D01*
X153304356Y-80011132D01*
X154034408Y-80011132D01*
X154034539Y-80012965D01*
X154038790Y-80019580D01*
X154717003Y-80697793D01*
X154728777Y-80704223D01*
X154740793Y-80694926D01*
X154770897Y-80651932D01*
X154776377Y-80642441D01*
X154865645Y-80451007D01*
X154869391Y-80440715D01*
X154924059Y-80236691D01*
X154925962Y-80225896D01*
X154944372Y-80015475D01*
X154944372Y-80004525D01*
X154925962Y-79794104D01*
X154924059Y-79783309D01*
X154869391Y-79579285D01*
X154865645Y-79568993D01*
X154776377Y-79377559D01*
X154770897Y-79368068D01*
X154740206Y-79324235D01*
X154729729Y-79315860D01*
X154716282Y-79322928D01*
X154042022Y-79997188D01*
X154034408Y-80011132D01*
X153304356Y-80011132D01*
X153305592Y-80008868D01*
X153305461Y-80007035D01*
X153301210Y-80000420D01*
X152622997Y-79322207D01*
X152611223Y-79315777D01*
X152599207Y-79325074D01*
X152569103Y-79368068D01*
X152563623Y-79377559D01*
X152474355Y-79568993D01*
X152470609Y-79579285D01*
X152415941Y-79783309D01*
X152414038Y-79794104D01*
X152395628Y-80004525D01*
X152395628Y-80015475D01*
X115168816Y-80015475D01*
X114053536Y-78900195D01*
X114051626Y-78898569D01*
X114051619Y-78898563D01*
X113919132Y-78785808D01*
X113919130Y-78785806D01*
X113915280Y-78782530D01*
X113707642Y-78656779D01*
X113482571Y-78565845D01*
X113437727Y-78555657D01*
X113250787Y-78513185D01*
X113250784Y-78513184D01*
X113245856Y-78512065D01*
X113240809Y-78511747D01*
X113240806Y-78511747D01*
X113020350Y-78497877D01*
X113003587Y-78496822D01*
X112815524Y-78515263D01*
X112767025Y-78520018D01*
X112767024Y-78520018D01*
X112761998Y-78520511D01*
X112527304Y-78582519D01*
X112305544Y-78681254D01*
X112102422Y-78814174D01*
X112098688Y-78817584D01*
X111934499Y-78967508D01*
X111923164Y-78977858D01*
X111846105Y-79075083D01*
X111775527Y-79164129D01*
X111775523Y-79164135D01*
X111772382Y-79168098D01*
X111769911Y-79172520D01*
X111689801Y-79315860D01*
X111653955Y-79379998D01*
X111652224Y-79384755D01*
X111581420Y-79579285D01*
X111570930Y-79608105D01*
X111525444Y-79846553D01*
X111525303Y-79851614D01*
X111520726Y-80015475D01*
X111518666Y-80089205D01*
X111519335Y-80094218D01*
X111519335Y-80094220D01*
X111538345Y-80236691D01*
X111550771Y-80329820D01*
X111552233Y-80334661D01*
X111552233Y-80334663D01*
X111566532Y-80382022D01*
X111620933Y-80562208D01*
X111727346Y-80780388D01*
X111754025Y-80818208D01*
X111827642Y-80922565D01*
X111867274Y-80978747D01*
X111886909Y-81000250D01*
X117204595Y-86317936D01*
X117238621Y-86380248D01*
X117241500Y-86407031D01*
X117241500Y-87721469D01*
X117221498Y-87789590D01*
X117167842Y-87836083D01*
X117097568Y-87846187D01*
X117032988Y-87816693D01*
X117026405Y-87810564D01*
X115323536Y-86107695D01*
X115321626Y-86106069D01*
X115321619Y-86106063D01*
X115189132Y-85993308D01*
X115189130Y-85993306D01*
X115185280Y-85990030D01*
X114977642Y-85864279D01*
X114752571Y-85773345D01*
X114653343Y-85750801D01*
X114520787Y-85720685D01*
X114520784Y-85720684D01*
X114515856Y-85719565D01*
X114510809Y-85719247D01*
X114510806Y-85719247D01*
X114290350Y-85705377D01*
X114273587Y-85704322D01*
X114085524Y-85722763D01*
X114037025Y-85727518D01*
X114037024Y-85727518D01*
X114031998Y-85728011D01*
X113797304Y-85790019D01*
X113575544Y-85888754D01*
X113372422Y-86021674D01*
X113193164Y-86185358D01*
X113127607Y-86268071D01*
X113045527Y-86371629D01*
X113045523Y-86371635D01*
X113042382Y-86375598D01*
X112982421Y-86482886D01*
X112944111Y-86551434D01*
X112923955Y-86587498D01*
X112885207Y-86693956D01*
X112863863Y-86752599D01*
X112840930Y-86815605D01*
X112839982Y-86820574D01*
X112839981Y-86820578D01*
X112820473Y-86922845D01*
X112795444Y-87054053D01*
X112788666Y-87296705D01*
X112820771Y-87537320D01*
X112822233Y-87542161D01*
X112822233Y-87542163D01*
X112882015Y-87740169D01*
X112890933Y-87769708D01*
X112997346Y-87987888D01*
X113000259Y-87992017D01*
X113119901Y-88161619D01*
X113137274Y-88186247D01*
X113156909Y-88207750D01*
X114786595Y-89837436D01*
X114820621Y-89899748D01*
X114823500Y-89926531D01*
X114823500Y-96368984D01*
X114823451Y-96372502D01*
X114820895Y-96464024D01*
X114820666Y-96472205D01*
X114826062Y-96512641D01*
X114831058Y-96550086D01*
X114831758Y-96556639D01*
X114838060Y-96634965D01*
X114840424Y-96644588D01*
X114845897Y-96666870D01*
X114848426Y-96680258D01*
X114852771Y-96712820D01*
X114854232Y-96717661D01*
X114854233Y-96717663D01*
X114875478Y-96788029D01*
X114877219Y-96794390D01*
X114895963Y-96870706D01*
X114897941Y-96875366D01*
X114908801Y-96900951D01*
X114913438Y-96913761D01*
X114922933Y-96945208D01*
X114925151Y-96949756D01*
X114925154Y-96949763D01*
X114957371Y-97015818D01*
X114960107Y-97021820D01*
X114975380Y-97057801D01*
X114990812Y-97094156D01*
X114993504Y-97098430D01*
X115008319Y-97121956D01*
X115014945Y-97133860D01*
X115029346Y-97163388D01*
X115032265Y-97167525D01*
X115032265Y-97167526D01*
X115074641Y-97227597D01*
X115078301Y-97233086D01*
X115120167Y-97299567D01*
X115123508Y-97303356D01*
X115123512Y-97303362D01*
X115141898Y-97324217D01*
X115150344Y-97334912D01*
X115169274Y-97361747D01*
X115188909Y-97383250D01*
X115228625Y-97422966D01*
X115234044Y-97428736D01*
X115277350Y-97477858D01*
X115277353Y-97477861D01*
X115280698Y-97481655D01*
X115284606Y-97484865D01*
X115284607Y-97484866D01*
X115312989Y-97508179D01*
X115322108Y-97516449D01*
X124258325Y-106452666D01*
X124260779Y-106455188D01*
X124329332Y-106527681D01*
X124391757Y-106575408D01*
X124396892Y-106579552D01*
X124452850Y-106627176D01*
X124456720Y-106630470D01*
X124461045Y-106633089D01*
X124461050Y-106633093D01*
X124484824Y-106647491D01*
X124496071Y-106655163D01*
X124522174Y-106675120D01*
X124526632Y-106677510D01*
X124526633Y-106677511D01*
X124591401Y-106712239D01*
X124597126Y-106715504D01*
X124664358Y-106756221D01*
X124694817Y-106768527D01*
X124707158Y-106774307D01*
X124736109Y-106789831D01*
X124740890Y-106791477D01*
X124740894Y-106791479D01*
X124810401Y-106815412D01*
X124816579Y-106817722D01*
X124848159Y-106830481D01*
X124889429Y-106847155D01*
X124894369Y-106848277D01*
X124894368Y-106848277D01*
X124921460Y-106854432D01*
X124934559Y-106858163D01*
X124965631Y-106868862D01*
X125043100Y-106882243D01*
X125049504Y-106883523D01*
X125126144Y-106900935D01*
X125158953Y-106902999D01*
X125172453Y-106904585D01*
X125204836Y-106910179D01*
X125208793Y-106910359D01*
X125208796Y-106910359D01*
X125232506Y-106911436D01*
X125232525Y-106911436D01*
X125233925Y-106911500D01*
X125290107Y-106911500D01*
X125298018Y-106911749D01*
X125368412Y-106916178D01*
X125409991Y-106912101D01*
X125422287Y-106911500D01*
X156780771Y-106911500D01*
X156790657Y-106911888D01*
X156840070Y-106915777D01*
X156845000Y-106916165D01*
X156849932Y-106915777D01*
X156854882Y-106915777D01*
X156854882Y-106915892D01*
X156865534Y-106915809D01*
X156866357Y-106915861D01*
X156866370Y-106915861D01*
X156871413Y-106916178D01*
X156939828Y-106909470D01*
X156978061Y-106905721D01*
X156980214Y-106905529D01*
X156983262Y-106905284D01*
X156983523Y-106905338D01*
X156983517Y-106905263D01*
X157012322Y-106902996D01*
X157081711Y-106897535D01*
X157082790Y-106897276D01*
X157086965Y-106896940D01*
X157091886Y-106895731D01*
X157096869Y-106894924D01*
X157096872Y-106894940D01*
X157102993Y-106893894D01*
X157102990Y-106893878D01*
X157107964Y-106892983D01*
X157113002Y-106892489D01*
X157202427Y-106868862D01*
X157213824Y-106865851D01*
X157216596Y-106865152D01*
X157286885Y-106848277D01*
X157312594Y-106842105D01*
X157315074Y-106841078D01*
X157316543Y-106840659D01*
X157317790Y-106840244D01*
X157322706Y-106839037D01*
X157327366Y-106837059D01*
X157332167Y-106835462D01*
X157332172Y-106835478D01*
X157338037Y-106833470D01*
X157338031Y-106833454D01*
X157342802Y-106831774D01*
X157347696Y-106830481D01*
X157435296Y-106791479D01*
X157440179Y-106789305D01*
X157443210Y-106788003D01*
X157484053Y-106771085D01*
X157531963Y-106751240D01*
X157535836Y-106748867D01*
X157540422Y-106746728D01*
X157541501Y-106746164D01*
X157546156Y-106744188D01*
X157550434Y-106741494D01*
X157554927Y-106739145D01*
X157554935Y-106739160D01*
X157560395Y-106736244D01*
X157560387Y-106736229D01*
X157563184Y-106734704D01*
X157563345Y-106734669D01*
X157565621Y-106733454D01*
X157569460Y-106731745D01*
X157570109Y-106733202D01*
X157632568Y-106719656D01*
X157699072Y-106744508D01*
X157741583Y-106801371D01*
X157749500Y-106845329D01*
X157749500Y-107272969D01*
X157729498Y-107341090D01*
X157712595Y-107362064D01*
X155795334Y-109279325D01*
X155792812Y-109281779D01*
X155720319Y-109350332D01*
X155717252Y-109354344D01*
X155672592Y-109412757D01*
X155668448Y-109417892D01*
X155617530Y-109477720D01*
X155614911Y-109482045D01*
X155614907Y-109482050D01*
X155600509Y-109505824D01*
X155592837Y-109517071D01*
X155572880Y-109543174D01*
X155570490Y-109547632D01*
X155570489Y-109547633D01*
X155535761Y-109612401D01*
X155532496Y-109618126D01*
X155491779Y-109685358D01*
X155489884Y-109690049D01*
X155479473Y-109715817D01*
X155473693Y-109728158D01*
X155458169Y-109757109D01*
X155456523Y-109761890D01*
X155456521Y-109761894D01*
X155432588Y-109831401D01*
X155430278Y-109837579D01*
X155400845Y-109910429D01*
X155399723Y-109915368D01*
X155393568Y-109942460D01*
X155389837Y-109955559D01*
X155379138Y-109986631D01*
X155365757Y-110064100D01*
X155364477Y-110070504D01*
X155347065Y-110147144D01*
X155345001Y-110179953D01*
X155343415Y-110193453D01*
X155337821Y-110225836D01*
X155336500Y-110254925D01*
X155336500Y-110311108D01*
X155336251Y-110319019D01*
X155331822Y-110389413D01*
X155332316Y-110394448D01*
X155335899Y-110430992D01*
X155336500Y-110443288D01*
X155336500Y-111268500D01*
X155316498Y-111336621D01*
X155262842Y-111383114D01*
X155210500Y-111394500D01*
X128820031Y-111394500D01*
X128751910Y-111374498D01*
X128730936Y-111357595D01*
X114053536Y-96680195D01*
X114051626Y-96678569D01*
X114051619Y-96678563D01*
X113919132Y-96565808D01*
X113919130Y-96565806D01*
X113915280Y-96562530D01*
X113707642Y-96436779D01*
X113482571Y-96345845D01*
X113404778Y-96328171D01*
X113250787Y-96293185D01*
X113250784Y-96293184D01*
X113245856Y-96292065D01*
X113240809Y-96291747D01*
X113240806Y-96291747D01*
X113020350Y-96277877D01*
X113003587Y-96276822D01*
X112815524Y-96295263D01*
X112767025Y-96300018D01*
X112767024Y-96300018D01*
X112761998Y-96300511D01*
X112527304Y-96362519D01*
X112522687Y-96364575D01*
X112522686Y-96364575D01*
X112507618Y-96371284D01*
X112305544Y-96461254D01*
X112102422Y-96594174D01*
X111923164Y-96757858D01*
X111894208Y-96794392D01*
X111775527Y-96944129D01*
X111775523Y-96944135D01*
X111772382Y-96948098D01*
X111741181Y-97003926D01*
X111659951Y-97149270D01*
X111653955Y-97159998D01*
X111633407Y-97216452D01*
X111579912Y-97363428D01*
X111570930Y-97388105D01*
X111569982Y-97393074D01*
X111569981Y-97393078D01*
X111531395Y-97595355D01*
X111525444Y-97626553D01*
X111518666Y-97869205D01*
X111550771Y-98109820D01*
X111552233Y-98114661D01*
X111552233Y-98114663D01*
X111609781Y-98305270D01*
X111620933Y-98342208D01*
X111727346Y-98560388D01*
X111762189Y-98609781D01*
X111849760Y-98733919D01*
X111867274Y-98758747D01*
X111886909Y-98780250D01*
X127059325Y-113952666D01*
X127061779Y-113955188D01*
X127130332Y-114027681D01*
X127134358Y-114030759D01*
X127134359Y-114030760D01*
X127192750Y-114075403D01*
X127197862Y-114079528D01*
X127257720Y-114130471D01*
X127285833Y-114147497D01*
X127297060Y-114155154D01*
X127323174Y-114175120D01*
X127327637Y-114177513D01*
X127392397Y-114212237D01*
X127398127Y-114215505D01*
X127461026Y-114253598D01*
X127461031Y-114253601D01*
X127465358Y-114256221D01*
X127470047Y-114258116D01*
X127470054Y-114258119D01*
X127495828Y-114268533D01*
X127508164Y-114274312D01*
X127532649Y-114287440D01*
X127532653Y-114287442D01*
X127537109Y-114289831D01*
X127541891Y-114291478D01*
X127541892Y-114291478D01*
X127611381Y-114315405D01*
X127617551Y-114317711D01*
X127626904Y-114321490D01*
X127685743Y-114345263D01*
X127685746Y-114345264D01*
X127690429Y-114347156D01*
X127717191Y-114353236D01*
X127722471Y-114354436D01*
X127735575Y-114358169D01*
X127766631Y-114368862D01*
X127771611Y-114369722D01*
X127771622Y-114369725D01*
X127844065Y-114382238D01*
X127850533Y-114383530D01*
X127922212Y-114399815D01*
X127922221Y-114399816D01*
X127927145Y-114400935D01*
X127959951Y-114402999D01*
X127973455Y-114404586D01*
X127995683Y-114408425D01*
X128001933Y-114409505D01*
X128001936Y-114409505D01*
X128005836Y-114410179D01*
X128009793Y-114410359D01*
X128009796Y-114410359D01*
X128033506Y-114411436D01*
X128033525Y-114411436D01*
X128034925Y-114411500D01*
X128091108Y-114411500D01*
X128099019Y-114411749D01*
X128169413Y-114416178D01*
X128210993Y-114412101D01*
X128223289Y-114411500D01*
X156780771Y-114411500D01*
X156790657Y-114411888D01*
X156828000Y-114414827D01*
X156845000Y-114416165D01*
X156849931Y-114415777D01*
X156849935Y-114415777D01*
X156862012Y-114414827D01*
X156877604Y-114414569D01*
X156892759Y-114415257D01*
X156892766Y-114415257D01*
X156897817Y-114415486D01*
X156902837Y-114414905D01*
X156902843Y-114414905D01*
X156989504Y-114404878D01*
X156994098Y-114404431D01*
X157015410Y-114402753D01*
X157081711Y-114397535D01*
X157082790Y-114397276D01*
X157086965Y-114396940D01*
X157104971Y-114392518D01*
X157120533Y-114389718D01*
X157133923Y-114388168D01*
X157133930Y-114388167D01*
X157138956Y-114387585D01*
X157143823Y-114386208D01*
X157144913Y-114385992D01*
X157215621Y-114392381D01*
X157271651Y-114435983D01*
X157295213Y-114502956D01*
X157278826Y-114572036D01*
X157258484Y-114598687D01*
X145424454Y-126432819D01*
X145362142Y-126466844D01*
X145291326Y-126461780D01*
X145234490Y-126419233D01*
X145209679Y-126352713D01*
X145209857Y-126332523D01*
X145218753Y-126232847D01*
X145218753Y-126232845D01*
X145218973Y-126230381D01*
X145219415Y-126188220D01*
X145214521Y-126116434D01*
X145201081Y-125919275D01*
X145201080Y-125919269D01*
X145200789Y-125914998D01*
X145145254Y-125646832D01*
X145053839Y-125388685D01*
X144928235Y-125145332D01*
X144918898Y-125132046D01*
X144773230Y-124924782D01*
X144770767Y-124921277D01*
X144665534Y-124808033D01*
X144587268Y-124723808D01*
X144587265Y-124723805D01*
X144584347Y-124720665D01*
X144581032Y-124717951D01*
X144581028Y-124717948D01*
X144375745Y-124549926D01*
X144372427Y-124547210D01*
X144138926Y-124404121D01*
X144127609Y-124399153D01*
X143892095Y-124295769D01*
X143892091Y-124295768D01*
X143888167Y-124294045D01*
X143624788Y-124219020D01*
X143620546Y-124218416D01*
X143620540Y-124218415D01*
X143402132Y-124187331D01*
X143353665Y-124180433D01*
X143209811Y-124179680D01*
X143084099Y-124179022D01*
X143084093Y-124179022D01*
X143079813Y-124179000D01*
X143075569Y-124179559D01*
X143075565Y-124179559D01*
X142992939Y-124190437D01*
X142808300Y-124214745D01*
X142804160Y-124215878D01*
X142804158Y-124215878D01*
X142731230Y-124235829D01*
X142544150Y-124287008D01*
X142540202Y-124288692D01*
X142296204Y-124392766D01*
X142296200Y-124392768D01*
X142292252Y-124394452D01*
X142272347Y-124406365D01*
X142060947Y-124532884D01*
X142060943Y-124532887D01*
X142057265Y-124535088D01*
X141843540Y-124706314D01*
X141751186Y-124803635D01*
X141688491Y-124869702D01*
X141655030Y-124904962D01*
X141495224Y-125127356D01*
X141367079Y-125369381D01*
X141365607Y-125373404D01*
X141365605Y-125373408D01*
X141325601Y-125482724D01*
X141272965Y-125626557D01*
X141214626Y-125894127D01*
X141214290Y-125898397D01*
X141206026Y-126003394D01*
X141180740Y-126069736D01*
X141123602Y-126111875D01*
X141052752Y-126116434D01*
X140991320Y-126082605D01*
X139007235Y-124098523D01*
X138993693Y-124082514D01*
X138982049Y-124066160D01*
X138973281Y-124057176D01*
X138969603Y-124054419D01*
X138967094Y-124052136D01*
X138966763Y-124051823D01*
X138589357Y-123695762D01*
X138508229Y-123619222D01*
X138508221Y-123619215D01*
X138506893Y-123617962D01*
X138017556Y-123207361D01*
X138017546Y-123207353D01*
X138017544Y-123207352D01*
X138016142Y-123206175D01*
X138014686Y-123205091D01*
X138014676Y-123205083D01*
X137503746Y-122824712D01*
X137502278Y-122823619D01*
X136967040Y-122471589D01*
X136412239Y-122151276D01*
X135964533Y-121926430D01*
X135841372Y-121864576D01*
X135841356Y-121864568D01*
X135839752Y-121863763D01*
X135251516Y-121610024D01*
X134833757Y-121457974D01*
X134651258Y-121391550D01*
X134651252Y-121391548D01*
X134649521Y-121390918D01*
X134647774Y-121390395D01*
X134647762Y-121390391D01*
X134340218Y-121298319D01*
X134035806Y-121207184D01*
X133412445Y-121059446D01*
X132781549Y-120948202D01*
X132779732Y-120947990D01*
X132779714Y-120947987D01*
X132147069Y-120874043D01*
X132147056Y-120874042D01*
X132145252Y-120873831D01*
X131505707Y-120836582D01*
X130865079Y-120836582D01*
X130574669Y-120853497D01*
X130227349Y-120873726D01*
X130227339Y-120873727D01*
X130225534Y-120873832D01*
X130223737Y-120874042D01*
X130223726Y-120874043D01*
X129907385Y-120911018D01*
X129589237Y-120948204D01*
X129587458Y-120948518D01*
X129587449Y-120948519D01*
X128960121Y-121059135D01*
X128960117Y-121059136D01*
X128958341Y-121059449D01*
X128956598Y-121059862D01*
X128956584Y-121059865D01*
X128543592Y-121157746D01*
X128334981Y-121207188D01*
X127721265Y-121390922D01*
X127719545Y-121391548D01*
X127719536Y-121391551D01*
X127512608Y-121466867D01*
X127119271Y-121610030D01*
X126531036Y-121863769D01*
X126529432Y-121864574D01*
X126529416Y-121864582D01*
X126252039Y-122003887D01*
X125958549Y-122151283D01*
X125403748Y-122471597D01*
X124868510Y-122823627D01*
X124867053Y-122824712D01*
X124867042Y-122824720D01*
X124356113Y-123205091D01*
X124356100Y-123205101D01*
X124354647Y-123206183D01*
X124353253Y-123207353D01*
X124353243Y-123207361D01*
X124249345Y-123294542D01*
X123863896Y-123617971D01*
X123862570Y-123619222D01*
X123862560Y-123619231D01*
X123414683Y-124041780D01*
X123410024Y-124045917D01*
X123406500Y-124048426D01*
X123403024Y-124051818D01*
X123403018Y-124051823D01*
X123400997Y-124053796D01*
X123397516Y-124057193D01*
X123380769Y-124079539D01*
X123369042Y-124093063D01*
X121898855Y-125563249D01*
X121836543Y-125597275D01*
X121765727Y-125592210D01*
X121708892Y-125549663D01*
X121684052Y-125482724D01*
X121678433Y-125400292D01*
X121678432Y-125400286D01*
X121678141Y-125396015D01*
X121671841Y-125365591D01*
X121627015Y-125149139D01*
X121622606Y-125127849D01*
X121531191Y-124869702D01*
X121405587Y-124626349D01*
X121395614Y-124612158D01*
X121326853Y-124514322D01*
X121248119Y-124402294D01*
X121078904Y-124220197D01*
X121064620Y-124204825D01*
X121064617Y-124204822D01*
X121061699Y-124201682D01*
X121058384Y-124198968D01*
X121058380Y-124198965D01*
X120926571Y-124091081D01*
X120849779Y-124028227D01*
X120616278Y-123885138D01*
X120612342Y-123883410D01*
X120369447Y-123776786D01*
X120369443Y-123776785D01*
X120365519Y-123775062D01*
X120102140Y-123700037D01*
X120097898Y-123699433D01*
X120097892Y-123699432D01*
X119897408Y-123670899D01*
X119831017Y-123661450D01*
X119687163Y-123660697D01*
X119561451Y-123660039D01*
X119561445Y-123660039D01*
X119557165Y-123660017D01*
X119552921Y-123660576D01*
X119552917Y-123660576D01*
X119433876Y-123676248D01*
X119285652Y-123695762D01*
X119281512Y-123696895D01*
X119281510Y-123696895D01*
X119208582Y-123716846D01*
X119021502Y-123768025D01*
X119017554Y-123769709D01*
X118773556Y-123873783D01*
X118773552Y-123873785D01*
X118769604Y-123875469D01*
X118749699Y-123887382D01*
X118538299Y-124013901D01*
X118538295Y-124013904D01*
X118534617Y-124016105D01*
X118320892Y-124187331D01*
X118132382Y-124385979D01*
X117972576Y-124608373D01*
X117914560Y-124717948D01*
X117913973Y-124719056D01*
X117864420Y-124769899D01*
X117795246Y-124785881D01*
X117728412Y-124761928D01*
X117685808Y-124707335D01*
X117587096Y-124463243D01*
X117586198Y-124460958D01*
X116902174Y-122669839D01*
X116901320Y-122667536D01*
X116252333Y-120863415D01*
X116251524Y-120861096D01*
X115637812Y-119044639D01*
X115637049Y-119042304D01*
X115058874Y-117214275D01*
X115058156Y-117211927D01*
X114515715Y-115372960D01*
X114515043Y-115370598D01*
X114253277Y-114414905D01*
X114008536Y-113521367D01*
X114007920Y-113519032D01*
X113987212Y-113437197D01*
X113537553Y-111660278D01*
X113536976Y-111657899D01*
X113102942Y-109790398D01*
X113102409Y-109788000D01*
X112704840Y-107912317D01*
X112704355Y-107909910D01*
X112343439Y-106026932D01*
X112343000Y-106024516D01*
X112119751Y-104723055D01*
X112018840Y-104134782D01*
X112018453Y-104132388D01*
X112014491Y-104106239D01*
X111887639Y-103269136D01*
X111731186Y-102236693D01*
X111730842Y-102234261D01*
X111578991Y-101080848D01*
X111480580Y-100333343D01*
X111480288Y-100330946D01*
X111479152Y-100320787D01*
X111267121Y-98425482D01*
X111266875Y-98423064D01*
X111259790Y-98346194D01*
X111189520Y-97583842D01*
X111090896Y-96513884D01*
X111090694Y-96511436D01*
X110951955Y-94599146D01*
X110951801Y-94596695D01*
X110850360Y-92682065D01*
X110850254Y-92679612D01*
X110786151Y-90763368D01*
X110786093Y-90760912D01*
X110759351Y-88843788D01*
X110759341Y-88841333D01*
X110769394Y-87027820D01*
X110769969Y-86924099D01*
X110770006Y-86921646D01*
X110773174Y-86795155D01*
X110818004Y-85004883D01*
X110818090Y-85002428D01*
X110903434Y-83087064D01*
X110903567Y-83084612D01*
X111026230Y-81171222D01*
X111026411Y-81168773D01*
X111186343Y-79258140D01*
X111186572Y-79255695D01*
X111363677Y-77542370D01*
X111383711Y-77348564D01*
X111383985Y-77346137D01*
X111395162Y-77255350D01*
X111416121Y-77085105D01*
X111444297Y-77019940D01*
X111503231Y-76980352D01*
X111574213Y-76978910D01*
X111634370Y-77015701D01*
X111703502Y-77091677D01*
X111913595Y-77267341D01*
X111917236Y-77269625D01*
X112141944Y-77410585D01*
X112141948Y-77410587D01*
X112145584Y-77412868D01*
X112210215Y-77442050D01*
X112391265Y-77523798D01*
X112391269Y-77523800D01*
X112395177Y-77525564D01*
X112399297Y-77526784D01*
X112399296Y-77526784D01*
X112653643Y-77602125D01*
X112653647Y-77602126D01*
X112657756Y-77603343D01*
X112661990Y-77603991D01*
X112661995Y-77603992D01*
X112924218Y-77644117D01*
X112924220Y-77644117D01*
X112928460Y-77644766D01*
X113067832Y-77646956D01*
X113197991Y-77649001D01*
X113197997Y-77649001D01*
X113202282Y-77649068D01*
X113474155Y-77616168D01*
X113739047Y-77546675D01*
X113743007Y-77545035D01*
X113743012Y-77545033D01*
X113879257Y-77488598D01*
X113992056Y-77441875D01*
X114151715Y-77348578D01*
X114224799Y-77305871D01*
X114224800Y-77305870D01*
X114228502Y-77303707D01*
X114444009Y-77134728D01*
X114485729Y-77091677D01*
X114631606Y-76941143D01*
X114634589Y-76938065D01*
X114637122Y-76934617D01*
X114637126Y-76934612D01*
X114794177Y-76720812D01*
X114796715Y-76717357D01*
X114830219Y-76655650D01*
X114925338Y-76480464D01*
X114925339Y-76480462D01*
X114927388Y-76476688D01*
X114985591Y-76322658D01*
X115022671Y-76224529D01*
X115022672Y-76224525D01*
X115024189Y-76220511D01*
X115067503Y-76031392D01*
X115084369Y-75957751D01*
X115084370Y-75957747D01*
X115085327Y-75953567D01*
X115088394Y-75919209D01*
X115109451Y-75683261D01*
X115109451Y-75683259D01*
X115109671Y-75680795D01*
X115110113Y-75638634D01*
X115109913Y-75635695D01*
X115091779Y-75369689D01*
X115091778Y-75369683D01*
X115091487Y-75365412D01*
X115078605Y-75303208D01*
X115084377Y-75232448D01*
X115127489Y-75176041D01*
X115194254Y-75151896D01*
X115264983Y-75168536D01*
X117058304Y-76203812D01*
X117075534Y-76215775D01*
X117091011Y-76228555D01*
X117101805Y-76234963D01*
X117106023Y-76236654D01*
X117108820Y-76238098D01*
X117328710Y-76356650D01*
X117665970Y-76538481D01*
X117816038Y-76608452D01*
X118244943Y-76808435D01*
X118244958Y-76808442D01*
X118246572Y-76809194D01*
X118248232Y-76809853D01*
X118248238Y-76809856D01*
X118840240Y-77045018D01*
X118840255Y-77045024D01*
X118841933Y-77045690D01*
X118843658Y-77046261D01*
X118843673Y-77046267D01*
X119448310Y-77246597D01*
X119448316Y-77246599D01*
X119450037Y-77247169D01*
X120068826Y-77412951D01*
X120070601Y-77413317D01*
X120070616Y-77413321D01*
X120694410Y-77542103D01*
X120694416Y-77542104D01*
X120696208Y-77542474D01*
X121064365Y-77596389D01*
X121328229Y-77635031D01*
X121328234Y-77635032D01*
X121330060Y-77635299D01*
X121331882Y-77635458D01*
X121331896Y-77635460D01*
X121966416Y-77690955D01*
X121966422Y-77690955D01*
X121968236Y-77691114D01*
X122608578Y-77709728D01*
X123248919Y-77691079D01*
X123250744Y-77690919D01*
X123250749Y-77690919D01*
X123885247Y-77635392D01*
X123885262Y-77635390D01*
X123887093Y-77635230D01*
X124520939Y-77542370D01*
X124717167Y-77501848D01*
X124796817Y-77485400D01*
X131841500Y-77485400D01*
X131841837Y-77488646D01*
X131841837Y-77488650D01*
X131847971Y-77547764D01*
X131852474Y-77591166D01*
X131854655Y-77597702D01*
X131854655Y-77597704D01*
X131892116Y-77709986D01*
X131908450Y-77758946D01*
X132001522Y-77909348D01*
X132126697Y-78034305D01*
X132132927Y-78038145D01*
X132132928Y-78038146D01*
X132270090Y-78122694D01*
X132277262Y-78127115D01*
X132357005Y-78153564D01*
X132438611Y-78180632D01*
X132438613Y-78180632D01*
X132445139Y-78182797D01*
X132451975Y-78183497D01*
X132451978Y-78183498D01*
X132495031Y-78187909D01*
X132549600Y-78193500D01*
X134150400Y-78193500D01*
X134153646Y-78193163D01*
X134153650Y-78193163D01*
X134249308Y-78183238D01*
X134249312Y-78183237D01*
X134256166Y-78182526D01*
X134262702Y-78180345D01*
X134262704Y-78180345D01*
X134394806Y-78136272D01*
X134423946Y-78126550D01*
X134574348Y-78033478D01*
X134699305Y-77908303D01*
X134711737Y-77888135D01*
X134788275Y-77763968D01*
X134788276Y-77763966D01*
X134792115Y-77757738D01*
X134838900Y-77616684D01*
X134845632Y-77596389D01*
X134845632Y-77596387D01*
X134847797Y-77589861D01*
X134858500Y-77485400D01*
X134858500Y-76868869D01*
X140126689Y-76868869D01*
X140143238Y-77155883D01*
X140144063Y-77160088D01*
X140144064Y-77160096D01*
X140164564Y-77264585D01*
X140198586Y-77437995D01*
X140199973Y-77442045D01*
X140199974Y-77442050D01*
X140290321Y-77705930D01*
X140291710Y-77709986D01*
X140293637Y-77713817D01*
X140391979Y-77909348D01*
X140420885Y-77966822D01*
X140467265Y-78034305D01*
X140569624Y-78183238D01*
X140583721Y-78203750D01*
X140777206Y-78416388D01*
X140780501Y-78419143D01*
X140780502Y-78419144D01*
X140901147Y-78520018D01*
X140997759Y-78600798D01*
X141241298Y-78753571D01*
X141503318Y-78871877D01*
X141507437Y-78873097D01*
X141774857Y-78952311D01*
X141774862Y-78952312D01*
X141778970Y-78953529D01*
X141783204Y-78954177D01*
X141783209Y-78954178D01*
X142031811Y-78992219D01*
X142063153Y-78997015D01*
X142209485Y-78999314D01*
X142346317Y-79001464D01*
X142346323Y-79001464D01*
X142350608Y-79001531D01*
X142354860Y-79001016D01*
X142354868Y-79001016D01*
X142631756Y-78967508D01*
X142631761Y-78967507D01*
X142636017Y-78966992D01*
X142699753Y-78950271D01*
X152975860Y-78950271D01*
X152982928Y-78963718D01*
X153657188Y-79637978D01*
X153671132Y-79645592D01*
X153672965Y-79645461D01*
X153679580Y-79641210D01*
X154357793Y-78962997D01*
X154364223Y-78951223D01*
X154354926Y-78939207D01*
X154311931Y-78909102D01*
X154302445Y-78903624D01*
X154111007Y-78814355D01*
X154100715Y-78810609D01*
X153896691Y-78755941D01*
X153885896Y-78754038D01*
X153675475Y-78735628D01*
X153664525Y-78735628D01*
X153454104Y-78754038D01*
X153443309Y-78755941D01*
X153239285Y-78810609D01*
X153228993Y-78814355D01*
X153037559Y-78903623D01*
X153028068Y-78909103D01*
X152984235Y-78939794D01*
X152975860Y-78950271D01*
X142699753Y-78950271D01*
X142732602Y-78941653D01*
X142909954Y-78895126D01*
X142909955Y-78895126D01*
X142914097Y-78894039D01*
X143179704Y-78784021D01*
X143392971Y-78659398D01*
X143424219Y-78641138D01*
X143424220Y-78641137D01*
X143427922Y-78638974D01*
X143654159Y-78461582D01*
X143695285Y-78419144D01*
X143851244Y-78258206D01*
X143854227Y-78255128D01*
X143856760Y-78251680D01*
X143856764Y-78251675D01*
X144021887Y-78026886D01*
X144024425Y-78023431D01*
X144075655Y-77929078D01*
X144159554Y-77774555D01*
X144159555Y-77774553D01*
X144161604Y-77770779D01*
X144248054Y-77541997D01*
X144261707Y-77505866D01*
X144261708Y-77505862D01*
X144263225Y-77501848D01*
X144301449Y-77334953D01*
X144326449Y-77225797D01*
X144326450Y-77225793D01*
X144327407Y-77221613D01*
X144335437Y-77131644D01*
X144352743Y-76937726D01*
X144352743Y-76937724D01*
X144352963Y-76935260D01*
X144353427Y-76891000D01*
X144347895Y-76809856D01*
X144334165Y-76608452D01*
X144334164Y-76608446D01*
X144333873Y-76604175D01*
X144329336Y-76582264D01*
X144280732Y-76347565D01*
X144275574Y-76322658D01*
X144179607Y-76051657D01*
X144047750Y-75796188D01*
X144034488Y-75777317D01*
X143935535Y-75636522D01*
X143882441Y-75560977D01*
X143704685Y-75369689D01*
X143689661Y-75353521D01*
X143689658Y-75353519D01*
X143686740Y-75350378D01*
X143464268Y-75168287D01*
X143219142Y-75018073D01*
X143201048Y-75010130D01*
X142959830Y-74904243D01*
X142955898Y-74902517D01*
X142929963Y-74895129D01*
X142817652Y-74863137D01*
X142679406Y-74823756D01*
X142466704Y-74793485D01*
X142399036Y-74783854D01*
X142399034Y-74783854D01*
X142394784Y-74783249D01*
X142390495Y-74783227D01*
X142390488Y-74783226D01*
X142111583Y-74781765D01*
X142111576Y-74781765D01*
X142107297Y-74781743D01*
X142103053Y-74782302D01*
X142103049Y-74782302D01*
X141977660Y-74798810D01*
X141822266Y-74819268D01*
X141818126Y-74820401D01*
X141818124Y-74820401D01*
X141741311Y-74841415D01*
X141544964Y-74895129D01*
X141541016Y-74896813D01*
X141284476Y-75006237D01*
X141284472Y-75006239D01*
X141280524Y-75007923D01*
X141197729Y-75057475D01*
X141037521Y-75153357D01*
X141037517Y-75153360D01*
X141033839Y-75155561D01*
X140809472Y-75335313D01*
X140611577Y-75543851D01*
X140443814Y-75777317D01*
X140309288Y-76031392D01*
X140307813Y-76035423D01*
X140213304Y-76293682D01*
X140210489Y-76301373D01*
X140149245Y-76582264D01*
X140142807Y-76664064D01*
X140127196Y-76862428D01*
X140127195Y-76862428D01*
X140127196Y-76862430D01*
X140126689Y-76868869D01*
X134858500Y-76868869D01*
X134858500Y-76184600D01*
X134857381Y-76173812D01*
X134848238Y-76085692D01*
X134848237Y-76085688D01*
X134847526Y-76078834D01*
X134791550Y-75911054D01*
X134698478Y-75760652D01*
X134573303Y-75635695D01*
X134427220Y-75545647D01*
X134379727Y-75492876D01*
X134368303Y-75422804D01*
X134396577Y-75357680D01*
X134406364Y-75347218D01*
X134516906Y-75241766D01*
X134523941Y-75233814D01*
X134655141Y-75057475D01*
X134660745Y-75048438D01*
X134760357Y-74852516D01*
X134764357Y-74842665D01*
X134829534Y-74632760D01*
X134831817Y-74622376D01*
X134833861Y-74606957D01*
X134831665Y-74592793D01*
X134818478Y-74589000D01*
X131883808Y-74589000D01*
X131870277Y-74592973D01*
X131868752Y-74603580D01*
X131893477Y-74721421D01*
X131896537Y-74731617D01*
X131977263Y-74936029D01*
X131981994Y-74945561D01*
X132096016Y-75133462D01*
X132102280Y-75142052D01*
X132246327Y-75308052D01*
X132253956Y-75315470D01*
X132285569Y-75341391D01*
X132325564Y-75400051D01*
X132327496Y-75471021D01*
X132290752Y-75531770D01*
X132271983Y-75545969D01*
X132125652Y-75636522D01*
X132000695Y-75761697D01*
X131996855Y-75767927D01*
X131996854Y-75767928D01*
X131917412Y-75896807D01*
X131907885Y-75912262D01*
X131905581Y-75919209D01*
X131860310Y-76055698D01*
X131852203Y-76080139D01*
X131841500Y-76184600D01*
X131841500Y-77485400D01*
X124796817Y-77485400D01*
X125146510Y-77413187D01*
X125146525Y-77413183D01*
X125148314Y-77412814D01*
X125397135Y-77346137D01*
X125765343Y-77247468D01*
X125765359Y-77247463D01*
X125767095Y-77246998D01*
X126375188Y-77045486D01*
X126376862Y-77044821D01*
X126376881Y-77044814D01*
X126968854Y-76809625D01*
X126968858Y-76809623D01*
X126970535Y-76808957D01*
X127551123Y-76538214D01*
X127552716Y-76537355D01*
X127552726Y-76537350D01*
X127942111Y-76327388D01*
X128114987Y-76234171D01*
X128117729Y-76232480D01*
X128658661Y-75898818D01*
X128660219Y-75897857D01*
X128673310Y-75888691D01*
X129026035Y-75641704D01*
X129184974Y-75530411D01*
X129687476Y-75133076D01*
X130166026Y-74707195D01*
X130619005Y-74254211D01*
X130774635Y-74079329D01*
X130789128Y-74063043D01*
X131866139Y-74063043D01*
X131868335Y-74077207D01*
X131881522Y-74081000D01*
X133077885Y-74081000D01*
X133093124Y-74076525D01*
X133094329Y-74075135D01*
X133096000Y-74067452D01*
X133096000Y-74062885D01*
X133604000Y-74062885D01*
X133608475Y-74078124D01*
X133609865Y-74079329D01*
X133617548Y-74081000D01*
X134816192Y-74081000D01*
X134829723Y-74077027D01*
X134831248Y-74066420D01*
X134806523Y-73948579D01*
X134803463Y-73938383D01*
X134722737Y-73733971D01*
X134718006Y-73724439D01*
X134603984Y-73536538D01*
X134597720Y-73527948D01*
X134453673Y-73361948D01*
X134446042Y-73354528D01*
X134276089Y-73215174D01*
X134267322Y-73209150D01*
X134076318Y-73100424D01*
X134066654Y-73095959D01*
X133860059Y-73020969D01*
X133849792Y-73018198D01*
X133632345Y-72978877D01*
X133624116Y-72977944D01*
X133619624Y-72977732D01*
X133606876Y-72981475D01*
X133605671Y-72982865D01*
X133604000Y-72990548D01*
X133604000Y-74062885D01*
X133096000Y-74062885D01*
X133096000Y-72999030D01*
X133091690Y-72984352D01*
X133079807Y-72982289D01*
X132975675Y-72991124D01*
X132965203Y-72992914D01*
X132752465Y-73048130D01*
X132742425Y-73051665D01*
X132542030Y-73141937D01*
X132532744Y-73147106D01*
X132350425Y-73269850D01*
X132342130Y-73276519D01*
X132183100Y-73428228D01*
X132176059Y-73436186D01*
X132044859Y-73612525D01*
X132039255Y-73621562D01*
X131939643Y-73817484D01*
X131935643Y-73827335D01*
X131870466Y-74037240D01*
X131868183Y-74047624D01*
X131866139Y-74063043D01*
X130789128Y-74063043D01*
X131043669Y-73777015D01*
X131043674Y-73777009D01*
X131044879Y-73775655D01*
X131240739Y-73527948D01*
X131441061Y-73274598D01*
X131441066Y-73274592D01*
X131442208Y-73273147D01*
X131443265Y-73271637D01*
X131443275Y-73271624D01*
X131808589Y-72749899D01*
X131809647Y-72748388D01*
X131840195Y-72698863D01*
X132133847Y-72222777D01*
X132137280Y-72217571D01*
X132140039Y-72214230D01*
X132146447Y-72203437D01*
X132148253Y-72198934D01*
X132148259Y-72198921D01*
X132156836Y-72177530D01*
X132164665Y-72161425D01*
X133571363Y-69724955D01*
X133622746Y-69675962D01*
X133692459Y-69662526D01*
X133758370Y-69688912D01*
X133799689Y-69747142D01*
X133827842Y-69829370D01*
X133856968Y-69887280D01*
X133926567Y-70025663D01*
X133950890Y-70074025D01*
X133953316Y-70077554D01*
X133953319Y-70077560D01*
X134103573Y-70296179D01*
X134106004Y-70299716D01*
X134290312Y-70502269D01*
X134500405Y-70677933D01*
X134504046Y-70680217D01*
X134728754Y-70821177D01*
X134728758Y-70821179D01*
X134732394Y-70823460D01*
X134800274Y-70854109D01*
X134978075Y-70934390D01*
X134978079Y-70934392D01*
X134981987Y-70936156D01*
X134986107Y-70937376D01*
X134986106Y-70937376D01*
X135240453Y-71012717D01*
X135240457Y-71012718D01*
X135244566Y-71013935D01*
X135248800Y-71014583D01*
X135248805Y-71014584D01*
X135511028Y-71054709D01*
X135511030Y-71054709D01*
X135515270Y-71055358D01*
X135654642Y-71057548D01*
X135784801Y-71059593D01*
X135784807Y-71059593D01*
X135789092Y-71059660D01*
X136060965Y-71026760D01*
X136325857Y-70957267D01*
X136329817Y-70955627D01*
X136329822Y-70955625D01*
X136452361Y-70904867D01*
X136578866Y-70852467D01*
X136815312Y-70714299D01*
X137030819Y-70545320D01*
X137072539Y-70502269D01*
X137218416Y-70351735D01*
X137221399Y-70348657D01*
X137223932Y-70345209D01*
X137223936Y-70345204D01*
X137380987Y-70131404D01*
X137383525Y-70127949D01*
X137410884Y-70077560D01*
X137512148Y-69891056D01*
X137512149Y-69891054D01*
X137514198Y-69887280D01*
X137610999Y-69631103D01*
X137651903Y-69452505D01*
X137671179Y-69368343D01*
X137671180Y-69368339D01*
X137672137Y-69364159D01*
X137680640Y-69268891D01*
X137696261Y-69093853D01*
X137696261Y-69093851D01*
X137696481Y-69091387D01*
X137696923Y-69049226D01*
X137695979Y-69035382D01*
X137678589Y-68780281D01*
X137678588Y-68780275D01*
X137678297Y-68776004D01*
X137622762Y-68507838D01*
X137581000Y-68389906D01*
X137577116Y-68319015D01*
X137612174Y-68257279D01*
X137675044Y-68224296D01*
X137745766Y-68230540D01*
G37*
%TD.AperFunction*%
%TA.AperFunction,Conductor*%
G36*
X163731040Y-90381065D02*
G01*
X163775582Y-90436350D01*
X163785095Y-90480237D01*
X163785350Y-90487656D01*
X163789777Y-90616704D01*
X163789830Y-90617563D01*
X163789831Y-90617579D01*
X163805815Y-90875491D01*
X163867481Y-91870520D01*
X163867554Y-91871332D01*
X163867555Y-91871347D01*
X163882986Y-92043302D01*
X163979759Y-93121713D01*
X164126526Y-94369330D01*
X164126656Y-94370222D01*
X164297687Y-95543912D01*
X164307670Y-95612422D01*
X164307818Y-95613275D01*
X164307821Y-95613291D01*
X164504424Y-96742994D01*
X164523053Y-96850041D01*
X164523225Y-96850889D01*
X164523225Y-96850890D01*
X164763645Y-98037484D01*
X164772511Y-98081244D01*
X164772700Y-98082060D01*
X164772706Y-98082088D01*
X165019517Y-99148141D01*
X165055854Y-99305093D01*
X165372866Y-100520656D01*
X165441625Y-100757352D01*
X165506668Y-100981255D01*
X165506463Y-101052251D01*
X165467907Y-101111866D01*
X165403242Y-101141173D01*
X165332997Y-101130866D01*
X165293373Y-101102177D01*
X165276077Y-101083565D01*
X165272761Y-101080851D01*
X165272758Y-101080848D01*
X165067475Y-100912826D01*
X165064157Y-100910110D01*
X164857800Y-100783655D01*
X164834318Y-100769265D01*
X164834317Y-100769265D01*
X164830656Y-100767021D01*
X164826720Y-100765293D01*
X164583825Y-100658669D01*
X164583821Y-100658668D01*
X164579897Y-100656945D01*
X164316518Y-100581920D01*
X164312276Y-100581316D01*
X164312270Y-100581315D01*
X164111786Y-100552782D01*
X164045395Y-100543333D01*
X163901541Y-100542580D01*
X163775829Y-100541922D01*
X163775823Y-100541922D01*
X163771543Y-100541900D01*
X163767299Y-100542459D01*
X163767295Y-100542459D01*
X163648254Y-100558131D01*
X163500030Y-100577645D01*
X163495890Y-100578778D01*
X163495888Y-100578778D01*
X163428234Y-100597286D01*
X163235880Y-100649908D01*
X163231932Y-100651592D01*
X162987934Y-100755666D01*
X162987930Y-100755668D01*
X162983982Y-100757352D01*
X162865366Y-100828342D01*
X162752677Y-100895784D01*
X162752673Y-100895787D01*
X162748995Y-100897988D01*
X162535270Y-101069214D01*
X162440790Y-101168775D01*
X162356345Y-101257762D01*
X162346760Y-101267862D01*
X162186954Y-101490256D01*
X162058809Y-101732281D01*
X162057337Y-101736304D01*
X162057335Y-101736308D01*
X162014824Y-101852475D01*
X161964695Y-101989457D01*
X161906356Y-102257027D01*
X161884869Y-102530038D01*
X161885286Y-102537276D01*
X161900634Y-102803440D01*
X161953357Y-103072173D01*
X161954744Y-103076223D01*
X161954745Y-103076228D01*
X162040675Y-103327208D01*
X162042064Y-103331264D01*
X162071190Y-103389174D01*
X162140789Y-103527557D01*
X162165112Y-103575919D01*
X162167538Y-103579448D01*
X162167541Y-103579454D01*
X162306561Y-103781728D01*
X162320226Y-103801610D01*
X162323113Y-103804783D01*
X162323114Y-103804784D01*
X162501644Y-104000987D01*
X162504534Y-104004163D01*
X162714627Y-104179827D01*
X162718268Y-104182111D01*
X162942976Y-104323071D01*
X162942980Y-104323073D01*
X162946616Y-104325354D01*
X163014496Y-104356003D01*
X163192297Y-104436284D01*
X163192301Y-104436286D01*
X163196209Y-104438050D01*
X163200329Y-104439270D01*
X163200328Y-104439270D01*
X163454675Y-104514611D01*
X163454679Y-104514612D01*
X163458788Y-104515829D01*
X163463022Y-104516477D01*
X163463027Y-104516478D01*
X163725250Y-104556603D01*
X163725252Y-104556603D01*
X163729492Y-104557252D01*
X163868864Y-104559442D01*
X163999023Y-104561487D01*
X163999029Y-104561487D01*
X164003314Y-104561554D01*
X164275187Y-104528654D01*
X164540079Y-104459161D01*
X164544039Y-104457521D01*
X164544044Y-104457519D01*
X164666583Y-104406761D01*
X164793088Y-104354361D01*
X165029534Y-104216193D01*
X165245041Y-104047214D01*
X165263326Y-104028346D01*
X165412415Y-103874498D01*
X165435621Y-103850551D01*
X165438154Y-103847103D01*
X165438158Y-103847098D01*
X165595209Y-103633298D01*
X165597747Y-103629843D01*
X165625106Y-103579454D01*
X165726370Y-103392950D01*
X165726371Y-103392948D01*
X165728420Y-103389174D01*
X165825221Y-103132997D01*
X165868196Y-102945358D01*
X165902901Y-102883422D01*
X165965582Y-102850082D01*
X166036338Y-102855922D01*
X166092705Y-102899088D01*
X166109888Y-102931712D01*
X166401089Y-103760405D01*
X166515214Y-104085180D01*
X166517581Y-104092827D01*
X166518340Y-104096880D01*
X166520349Y-104102569D01*
X166520403Y-104102837D01*
X166520530Y-104103079D01*
X166522521Y-104108717D01*
X166524830Y-104113004D01*
X166527811Y-104118540D01*
X166537942Y-104143375D01*
X166582091Y-104296508D01*
X166583626Y-104301834D01*
X166587350Y-104319341D01*
X166614117Y-104511343D01*
X166615323Y-104529200D01*
X166614616Y-104723055D01*
X166613280Y-104740899D01*
X166592938Y-104879415D01*
X166585111Y-104932708D01*
X166581259Y-104950187D01*
X166526198Y-105136064D01*
X166519910Y-105152814D01*
X166439067Y-105329016D01*
X166430473Y-105344703D01*
X166325469Y-105507686D01*
X166314736Y-105521999D01*
X166208962Y-105643946D01*
X166195906Y-105655952D01*
X166189871Y-105661840D01*
X166182622Y-105667133D01*
X166177151Y-105674248D01*
X166163181Y-105692414D01*
X166152395Y-105704700D01*
X158536052Y-113321108D01*
X158473740Y-113355133D01*
X158402924Y-113350069D01*
X158346088Y-113307522D01*
X158321277Y-113241002D01*
X158324437Y-113202599D01*
X158338381Y-113144518D01*
X158338381Y-113144517D01*
X158339535Y-113139711D01*
X158340649Y-113125560D01*
X158342922Y-113109685D01*
X158345439Y-113097635D01*
X158345439Y-113097634D01*
X158346474Y-113092680D01*
X158347315Y-113074161D01*
X158349023Y-113058437D01*
X158351504Y-113044071D01*
X158352179Y-113040164D01*
X158353500Y-113011075D01*
X158353500Y-112967229D01*
X158353888Y-112957343D01*
X158357777Y-112907930D01*
X158358165Y-112903000D01*
X158357777Y-112898065D01*
X158356827Y-112885988D01*
X158356569Y-112870396D01*
X158357257Y-112855241D01*
X158357257Y-112855234D01*
X158357486Y-112850183D01*
X158354335Y-112822949D01*
X158353500Y-112808468D01*
X158353500Y-111040031D01*
X158373502Y-110971910D01*
X158390405Y-110950936D01*
X160307684Y-109033658D01*
X160310206Y-109031204D01*
X160379005Y-108966144D01*
X160382681Y-108962668D01*
X160430412Y-108900239D01*
X160434554Y-108895107D01*
X160482187Y-108839138D01*
X160482189Y-108839135D01*
X160485470Y-108835280D01*
X160488090Y-108830954D01*
X160488095Y-108830947D01*
X160502491Y-108807176D01*
X160510163Y-108795929D01*
X160530120Y-108769826D01*
X160567247Y-108700584D01*
X160570510Y-108694863D01*
X160608602Y-108631966D01*
X160608603Y-108631965D01*
X160611220Y-108627643D01*
X160623534Y-108597166D01*
X160629303Y-108584850D01*
X160644831Y-108555891D01*
X160670423Y-108481567D01*
X160672718Y-108475429D01*
X160700258Y-108407267D01*
X160700259Y-108407263D01*
X160702155Y-108402571D01*
X160709432Y-108370539D01*
X160713163Y-108357441D01*
X160723862Y-108326369D01*
X160737243Y-108248900D01*
X160738526Y-108242482D01*
X160754815Y-108170786D01*
X160754815Y-108170785D01*
X160755935Y-108165856D01*
X160757999Y-108133047D01*
X160759585Y-108119547D01*
X160765179Y-108087164D01*
X160766500Y-108058075D01*
X160766500Y-108001893D01*
X160766749Y-107993981D01*
X160770860Y-107928642D01*
X160771178Y-107923588D01*
X160767101Y-107882009D01*
X160766500Y-107869713D01*
X160766500Y-102767016D01*
X160766549Y-102763498D01*
X160769193Y-102668850D01*
X160769193Y-102668847D01*
X160769334Y-102663795D01*
X160767607Y-102650850D01*
X160766500Y-102634188D01*
X160766500Y-100060474D01*
X160766549Y-100056956D01*
X160769193Y-99962308D01*
X160769193Y-99962305D01*
X160769334Y-99957253D01*
X160758941Y-99879360D01*
X160758241Y-99872811D01*
X160752346Y-99799535D01*
X160752345Y-99799531D01*
X160751940Y-99794493D01*
X160744101Y-99762580D01*
X160741573Y-99749196D01*
X160737898Y-99721652D01*
X160737229Y-99716638D01*
X160735767Y-99711795D01*
X160714522Y-99641429D01*
X160712781Y-99635066D01*
X160695244Y-99563667D01*
X160694037Y-99558752D01*
X160681199Y-99528506D01*
X160676561Y-99515695D01*
X160668530Y-99489096D01*
X160667067Y-99484250D01*
X160664849Y-99479702D01*
X160664846Y-99479695D01*
X160632629Y-99413640D01*
X160629893Y-99407638D01*
X160601162Y-99339953D01*
X160599188Y-99335302D01*
X160581681Y-99307502D01*
X160575052Y-99295592D01*
X160560654Y-99266070D01*
X160538093Y-99234088D01*
X160515170Y-99166894D01*
X160532215Y-99097973D01*
X160583814Y-99049209D01*
X160609400Y-99039498D01*
X160617704Y-99037343D01*
X160617711Y-99037341D01*
X160622872Y-99036001D01*
X160833075Y-98941312D01*
X161024319Y-98812559D01*
X161058188Y-98780250D01*
X161106755Y-98733919D01*
X161191135Y-98653424D01*
X161328754Y-98468458D01*
X161332653Y-98460791D01*
X161430822Y-98267704D01*
X161433240Y-98262949D01*
X161461651Y-98171453D01*
X161500024Y-98047871D01*
X161501607Y-98042773D01*
X161502308Y-98037484D01*
X161531198Y-97819511D01*
X161531198Y-97819506D01*
X161531898Y-97814226D01*
X161523249Y-97583842D01*
X161507374Y-97508179D01*
X161477002Y-97363428D01*
X161475907Y-97358209D01*
X161452748Y-97299567D01*
X161393185Y-97148744D01*
X161393184Y-97148742D01*
X161391224Y-97143779D01*
X161377982Y-97121956D01*
X161274390Y-96951243D01*
X161271623Y-96946683D01*
X161259764Y-96933017D01*
X161124023Y-96776588D01*
X161124021Y-96776586D01*
X161120523Y-96772555D01*
X161084471Y-96742994D01*
X161044476Y-96684334D01*
X161042545Y-96613364D01*
X161079290Y-96552616D01*
X161098059Y-96538416D01*
X161237807Y-96451937D01*
X161249208Y-96442901D01*
X161363739Y-96328171D01*
X161372751Y-96316760D01*
X161457816Y-96178757D01*
X161463963Y-96165576D01*
X161515138Y-96011290D01*
X161518005Y-95997914D01*
X161527672Y-95903562D01*
X161528000Y-95897146D01*
X161528000Y-95522115D01*
X161523525Y-95506876D01*
X161522135Y-95505671D01*
X161514452Y-95504000D01*
X159892000Y-95504000D01*
X159823879Y-95483998D01*
X159777386Y-95430342D01*
X159766000Y-95378000D01*
X159766000Y-95122000D01*
X159786002Y-95053879D01*
X159839658Y-95007386D01*
X159892000Y-94996000D01*
X161509884Y-94996000D01*
X161525123Y-94991525D01*
X161526328Y-94990135D01*
X161527999Y-94982452D01*
X161527999Y-94602905D01*
X161527662Y-94596386D01*
X161517743Y-94500794D01*
X161514851Y-94487400D01*
X161463412Y-94333216D01*
X161457239Y-94320038D01*
X161371937Y-94182193D01*
X161362901Y-94170792D01*
X161248171Y-94056261D01*
X161236760Y-94047249D01*
X161098757Y-93962184D01*
X161085576Y-93956037D01*
X160931290Y-93904862D01*
X160917914Y-93901995D01*
X160823562Y-93892328D01*
X160817145Y-93892000D01*
X160386531Y-93892000D01*
X160318410Y-93871998D01*
X160271917Y-93818342D01*
X160261813Y-93748068D01*
X160291307Y-93683488D01*
X160297436Y-93676905D01*
X161551971Y-92422370D01*
X161582690Y-92399804D01*
X161584001Y-92399118D01*
X161588660Y-92397141D01*
X161616468Y-92379629D01*
X161628368Y-92373006D01*
X161653335Y-92360830D01*
X161653344Y-92360824D01*
X161657891Y-92358607D01*
X161662027Y-92355690D01*
X161662031Y-92355687D01*
X161722098Y-92313313D01*
X161727548Y-92309678D01*
X161794071Y-92267786D01*
X161818716Y-92246058D01*
X161829413Y-92237610D01*
X161853011Y-92220964D01*
X161853013Y-92220962D01*
X161856250Y-92218679D01*
X161877754Y-92199045D01*
X161917478Y-92159321D01*
X161923248Y-92153902D01*
X161972362Y-92110603D01*
X161972365Y-92110600D01*
X161976159Y-92107255D01*
X162002678Y-92074969D01*
X162010948Y-92065851D01*
X163244186Y-90832613D01*
X163246708Y-90830159D01*
X163315525Y-90765082D01*
X163319201Y-90761606D01*
X163327739Y-90750440D01*
X163366924Y-90699188D01*
X163371066Y-90694055D01*
X163418707Y-90638077D01*
X163418709Y-90638074D01*
X163421990Y-90634219D01*
X163439011Y-90606113D01*
X163446687Y-90594861D01*
X163463570Y-90572780D01*
X163463573Y-90572776D01*
X163466640Y-90568764D01*
X163469027Y-90564312D01*
X163469031Y-90564306D01*
X163503767Y-90499522D01*
X163507037Y-90493790D01*
X163545113Y-90430921D01*
X163545120Y-90430907D01*
X163547331Y-90427256D01*
X163547335Y-90427252D01*
X163547741Y-90426581D01*
X163547881Y-90426666D01*
X163594885Y-90376189D01*
X163663678Y-90358638D01*
X163731040Y-90381065D01*
G37*
%TD.AperFunction*%
%TD*%
M02*
