M48
; DRILL file {KiCad (6.0.5)} date Mon Feb 27 23:38:14 2023
; FORMAT={-:-/ absolute / inch / decimal}
; #@! TF.CreationDate,2023-02-27T23:38:14+09:00
; #@! TF.GenerationSoftware,Kicad,Pcbnew,(6.0.5)
; #@! TF.FileFunction,Plated,1,2,PTH
FMAT,2
INCH
; #@! TA.AperFunction,Plated,PTH,ViaDrill
T1C0.0157
; #@! TA.AperFunction,Plated,PTH,ComponentDrill
T2C0.0276
; #@! TA.AperFunction,Plated,PTH,ComponentDrill
T3C0.0300
; #@! TA.AperFunction,Plated,PTH,ComponentDrill
T4C0.0374
; #@! TA.AperFunction,Plated,PTH,ComponentDrill
T5C0.0394
; #@! TA.AperFunction,Plated,PTH,ComponentDrill
T6C0.0472
%
G90
G05
T1
X4.415Y-3.935
X4.49Y-3.305
X4.4925Y-3.8925
X4.5425Y-3.9425
X4.5506Y-3.4844
X4.555Y-3.37
X4.58Y-3.535
X4.58Y-3.595
X4.58Y-3.66
X4.58Y-3.725
X4.58Y-3.795
X4.5975Y-3.9975
X4.6Y-3.42
X4.605Y-3.19
X4.6275Y-3.8425
X4.65Y-4.05
X4.65Y-4.395
X4.675Y-3.89
X4.685Y-3.265
X4.705Y-4.105
X4.71Y-3.07
X4.725Y-3.94
X4.765Y-4.165
X4.77Y-4.745
X4.7725Y-3.9875
X4.785Y-3.14
X4.8175Y-4.0325
X4.82Y-4.22
X4.8625Y-4.0775
X4.87Y-4.27
X4.9025Y-4.1175
X4.9225Y-4.3225
X4.955Y-4.15
X4.975Y-4.375
X5.01Y-4.54
X5.015Y-4.15
X5.025Y-4.425
X5.075Y-4.15
X5.1Y-4.445
X5.1403Y-4.1497
X5.175Y-4.445
X5.2103Y-4.1497
X5.255Y-4.445
X5.2853Y-4.1497
X5.335Y-4.445
X5.3653Y-4.1497
X5.375Y-3.145
X5.42Y-4.445
X5.4503Y-4.1497
X5.46Y-2.76
X5.505Y-4.445
X5.5403Y-4.1497
X5.55Y-3.26
X5.59Y-4.445
X5.63Y-4.705
X5.6303Y-4.1497
X5.675Y-4.445
X5.7053Y-4.1497
X5.755Y-4.445
X5.7703Y-4.1497
X5.775Y-3.505
X5.835Y-4.445
X5.8403Y-4.1497
X5.87Y-3.045
X5.91Y-3.365
X5.9103Y-4.1497
X5.915Y-4.445
X5.9728Y-3.8922
X5.9738Y-3.9412
X5.9853Y-4.1497
X6.0Y-4.445
X6.0051Y-3.9799
X6.03Y-3.245
X6.0526Y-4.0274
X6.0653Y-4.1497
X6.08Y-4.445
X6.1026Y-4.0774
X6.13Y-4.53
X6.1704Y-3.6204
X6.175Y-4.36
X6.205Y-4.315
X6.21Y-3.58
X6.2425Y-4.2775
X6.2504Y-3.5404
X6.26Y-4.395
X6.265Y-3.655
X6.27Y-4.015
X6.27Y-4.07
X6.27Y-4.125
X6.27Y-4.18
X6.27Y-4.235
X6.285Y-3.215
X6.3062Y-3.6162
X6.3487Y-3.5737
X6.35Y-3.92
X6.36Y-3.68
X6.3675Y-3.4225
X6.38Y-3.265
X6.3866Y-3.4734
X6.3866Y-3.5359
X6.43Y-3.355
X6.43Y-3.605
X6.475Y-3.935
T2
X4.6752Y-3.7
X4.8752Y-3.7
X4.97Y-3.7
X5.17Y-3.7
T3
X4.45Y-3.15
X4.45Y-3.85
X6.05Y-3.15
X6.05Y-3.85
T4
X6.3Y-3.3031
X6.3Y-3.4016
X6.3Y-3.5
T5
X4.5Y-3.4338
X5.25Y-2.9266
X5.25Y-3.025
X5.3Y-3.4338
X5.5Y-3.5772
X5.6Y-3.5772
X5.7Y-3.5772
X6.175Y-4.1497
X6.175Y-4.445
X6.3Y-3.75
X6.3Y-3.8484
T6
X5.915Y-3.245
X5.915Y-3.645
T0
M30
