%FSLAX45Y45*%
G04 Gerber Fmt 4.5, Leading zero omitted, Abs format (unit mm)*
G04 Created by KiCad (PCBNEW (6.0.5)) date 2023-02-27 23:38:15*
%MOMM*%
%LPD*%
G01*
G04 APERTURE LIST*
%TA.AperFunction,Profile*%
%ADD10C,0.200000*%
%TD*%
%ADD11C,0.200000*%
%ADD12C,0.040000*%
%ADD13C,0.070000*%
%ADD14C,0.076200*%
%ADD15C,0.095000*%
%ADD16C,0.100000*%
%ADD17C,0.120000*%
G04 APERTURE END LIST*
D10*
X11409673Y-7390691D02*
G75*
G03*
X11111438Y-7537492I-100003J-173179D01*
G01*
X16343988Y-8247616D02*
X13680868Y-6710072D01*
X11459692Y-7563863D02*
G75*
G03*
X11459692Y-7563863I-150000J0D01*
G01*
X13407668Y-6783272D02*
X13170154Y-7194657D01*
X11735865Y-7579005D02*
X11409671Y-7390694D01*
X14470622Y-12618822D02*
G75*
G03*
X14470622Y-12618822I-150000J0D01*
G01*
X14932918Y-9659822D02*
G75*
G03*
X14932918Y-9659822I-160000J0D01*
G01*
X12118357Y-12566924D02*
G75*
G03*
X12118357Y-12566924I-150000J0D01*
G01*
X13680870Y-6710069D02*
G75*
G03*
X13407668Y-6783272I-100000J-173201D01*
G01*
X13861001Y-12442045D02*
G75*
G03*
X12376078Y-12442045I-742461J-742465D01*
G01*
X11783717Y-12643694D02*
G75*
G03*
X12109778Y-12708345I184653J76724D01*
G01*
X11111435Y-7537492D02*
G75*
G03*
X11783684Y-12643708I9813535J-1305378D01*
G01*
X16443217Y-8438784D02*
G75*
G03*
X16343988Y-8247616I-199247J17914D01*
G01*
X11735865Y-7579005D02*
G75*
G03*
X13170154Y-7194657I524963J909348D01*
G01*
X14479721Y-12777920D02*
X16654135Y-10603487D01*
X12109778Y-12708345D02*
X12376078Y-12442045D01*
X14196878Y-12777919D02*
G75*
G03*
X14479721Y-12777920I141422J141420D01*
G01*
X13718373Y-6904923D02*
G75*
G03*
X13718373Y-6904923I-150000J0D01*
G01*
X13861002Y-12442044D02*
X14196878Y-12777919D01*
X16539795Y-10255112D02*
G75*
G03*
X16539795Y-10255112I-150000J0D01*
G01*
X16654133Y-10603485D02*
G75*
G03*
X16700480Y-10393173I-141363J141415D01*
G01*
X16443177Y-8438781D02*
G75*
G03*
X16700480Y-10393173I4481793J-404089D01*
G01*
D11*
D12*
X11194100Y-9974900D02*
X11234100Y-10014900D01*
X11234100Y-9974900D02*
X11194100Y-10014900D01*
X11384600Y-8374700D02*
X11424600Y-8414700D01*
X11424600Y-8374700D02*
X11384600Y-8414700D01*
X11390950Y-9866950D02*
X11430950Y-9906950D01*
X11430950Y-9866950D02*
X11390950Y-9906950D01*
X11517950Y-9993950D02*
X11557950Y-10033950D01*
X11557950Y-9993950D02*
X11517950Y-10033950D01*
X11538575Y-8830325D02*
X11578575Y-8870325D01*
X11578575Y-8830325D02*
X11538575Y-8870325D01*
X11549700Y-8539800D02*
X11589700Y-8579800D01*
X11589700Y-8539800D02*
X11549700Y-8579800D01*
X11613200Y-8958900D02*
X11653200Y-8998900D01*
X11653200Y-8958900D02*
X11613200Y-8998900D01*
X11613200Y-9111300D02*
X11653200Y-9151300D01*
X11653200Y-9111300D02*
X11613200Y-9151300D01*
X11613200Y-9276400D02*
X11653200Y-9316400D01*
X11653200Y-9276400D02*
X11613200Y-9316400D01*
X11613200Y-9441500D02*
X11653200Y-9481500D01*
X11653200Y-9441500D02*
X11613200Y-9481500D01*
X11613200Y-9619300D02*
X11653200Y-9659300D01*
X11653200Y-9619300D02*
X11613200Y-9659300D01*
X11657650Y-10133650D02*
X11697650Y-10173650D01*
X11697650Y-10133650D02*
X11657650Y-10173650D01*
X11664000Y-8666800D02*
X11704000Y-8706800D01*
X11704000Y-8666800D02*
X11664000Y-8706800D01*
X11676700Y-8082600D02*
X11716700Y-8122600D01*
X11716700Y-8082600D02*
X11676700Y-8122600D01*
X11733850Y-9739950D02*
X11773850Y-9779950D01*
X11773850Y-9739950D02*
X11733850Y-9779950D01*
X11791000Y-10267000D02*
X11831000Y-10307000D01*
X11831000Y-10267000D02*
X11791000Y-10307000D01*
X11791000Y-11143300D02*
X11831000Y-11183300D01*
X11831000Y-11143300D02*
X11791000Y-11183300D01*
X11854500Y-9860600D02*
X11894500Y-9900600D01*
X11894500Y-9860600D02*
X11854500Y-9900600D01*
X11879900Y-8273100D02*
X11919900Y-8313100D01*
X11919900Y-8273100D02*
X11879900Y-8313100D01*
X11930700Y-10406700D02*
X11970700Y-10446700D01*
X11970700Y-10406700D02*
X11930700Y-10446700D01*
X11943400Y-7777800D02*
X11983400Y-7817800D01*
X11983400Y-7777800D02*
X11943400Y-7817800D01*
X11981500Y-9987600D02*
X12021500Y-10027600D01*
X12021500Y-9987600D02*
X11981500Y-10027600D01*
X12083100Y-10559100D02*
X12123100Y-10599100D01*
X12123100Y-10559100D02*
X12083100Y-10599100D01*
X12095800Y-12032300D02*
X12135800Y-12072300D01*
X12135800Y-12032300D02*
X12095800Y-12072300D01*
X12102150Y-10108250D02*
X12142150Y-10148250D01*
X12142150Y-10108250D02*
X12102150Y-10148250D01*
X12133900Y-7955600D02*
X12173900Y-7995600D01*
X12173900Y-7955600D02*
X12133900Y-7995600D01*
X12216450Y-10222550D02*
X12256450Y-10262550D01*
X12256450Y-10222550D02*
X12216450Y-10262550D01*
X12222800Y-10698800D02*
X12262800Y-10738800D01*
X12262800Y-10698800D02*
X12222800Y-10738800D01*
X12330750Y-10336850D02*
X12370750Y-10376850D01*
X12370750Y-10336850D02*
X12330750Y-10376850D01*
X12349800Y-10825800D02*
X12389800Y-10865800D01*
X12389800Y-10825800D02*
X12349800Y-10865800D01*
X12432350Y-10438450D02*
X12472350Y-10478450D01*
X12472350Y-10438450D02*
X12432350Y-10478450D01*
X12483150Y-10959150D02*
X12523150Y-10999150D01*
X12523150Y-10959150D02*
X12483150Y-10999150D01*
X12565700Y-10521000D02*
X12605700Y-10561000D01*
X12605700Y-10521000D02*
X12565700Y-10561000D01*
X12616500Y-11092500D02*
X12656500Y-11132500D01*
X12656500Y-11092500D02*
X12616500Y-11132500D01*
X12705400Y-11511600D02*
X12745400Y-11551600D01*
X12745400Y-11511600D02*
X12705400Y-11551600D01*
X12718100Y-10521000D02*
X12758100Y-10561000D01*
X12758100Y-10521000D02*
X12718100Y-10561000D01*
X12743500Y-11219500D02*
X12783500Y-11259500D01*
X12783500Y-11219500D02*
X12743500Y-11259500D01*
X12870500Y-10521000D02*
X12910500Y-10561000D01*
X12910500Y-10521000D02*
X12870500Y-10561000D01*
X12934000Y-11270300D02*
X12974000Y-11310300D01*
X12974000Y-11270300D02*
X12934000Y-11310300D01*
X13036300Y-10520300D02*
X13076300Y-10560300D01*
X13076300Y-10520300D02*
X13036300Y-10560300D01*
X13124500Y-11270300D02*
X13164500Y-11310300D01*
X13164500Y-11270300D02*
X13124500Y-11310300D01*
X13214100Y-10520300D02*
X13254100Y-10560300D01*
X13254100Y-10520300D02*
X13214100Y-10560300D01*
X13327700Y-11270300D02*
X13367700Y-11310300D01*
X13367700Y-11270300D02*
X13327700Y-11310300D01*
X13404600Y-10520300D02*
X13444600Y-10560300D01*
X13444600Y-10520300D02*
X13404600Y-10560300D01*
X13530900Y-11270300D02*
X13570900Y-11310300D01*
X13570900Y-11270300D02*
X13530900Y-11310300D01*
X13607800Y-10520300D02*
X13647800Y-10560300D01*
X13647800Y-10520300D02*
X13607800Y-10560300D01*
X13632500Y-7968300D02*
X13672500Y-8008300D01*
X13672500Y-7968300D02*
X13632500Y-8008300D01*
X13746800Y-11270300D02*
X13786800Y-11310300D01*
X13786800Y-11270300D02*
X13746800Y-11310300D01*
X13823700Y-10520300D02*
X13863700Y-10560300D01*
X13863700Y-10520300D02*
X13823700Y-10560300D01*
X13848400Y-6990400D02*
X13888400Y-7030400D01*
X13888400Y-6990400D02*
X13848400Y-7030400D01*
X13962700Y-11270300D02*
X14002700Y-11310300D01*
X14002700Y-11270300D02*
X13962700Y-11310300D01*
X14052300Y-10520300D02*
X14092300Y-10560300D01*
X14092300Y-10520300D02*
X14052300Y-10560300D01*
X14077000Y-8260400D02*
X14117000Y-8300400D01*
X14117000Y-8260400D02*
X14077000Y-8300400D01*
X14178600Y-11270300D02*
X14218600Y-11310300D01*
X14218600Y-11270300D02*
X14178600Y-11310300D01*
X14280200Y-11930700D02*
X14320200Y-11970700D01*
X14320200Y-11930700D02*
X14280200Y-11970700D01*
X14280900Y-10520300D02*
X14320900Y-10560300D01*
X14320900Y-10520300D02*
X14280900Y-10560300D01*
X14394500Y-11270300D02*
X14434500Y-11310300D01*
X14434500Y-11270300D02*
X14394500Y-11310300D01*
X14471400Y-10520300D02*
X14511400Y-10560300D01*
X14511400Y-10520300D02*
X14471400Y-10560300D01*
X14597700Y-11270300D02*
X14637700Y-11310300D01*
X14637700Y-11270300D02*
X14597700Y-11310300D01*
X14636500Y-10520300D02*
X14676500Y-10560300D01*
X14676500Y-10520300D02*
X14636500Y-10560300D01*
X14648500Y-8882700D02*
X14688500Y-8922700D01*
X14688500Y-8882700D02*
X14648500Y-8922700D01*
X14800900Y-11270300D02*
X14840900Y-11310300D01*
X14840900Y-11270300D02*
X14800900Y-11310300D01*
X14814300Y-10520300D02*
X14854300Y-10560300D01*
X14854300Y-10520300D02*
X14814300Y-10560300D01*
X14889800Y-7714300D02*
X14929800Y-7754300D01*
X14929800Y-7714300D02*
X14889800Y-7754300D01*
X14991400Y-8527100D02*
X15031400Y-8567100D01*
X15031400Y-8527100D02*
X14991400Y-8567100D01*
X14992100Y-10520300D02*
X15032100Y-10560300D01*
X15032100Y-10520300D02*
X14992100Y-10560300D01*
X15004100Y-11270300D02*
X15044100Y-11310300D01*
X15044100Y-11270300D02*
X15004100Y-11310300D01*
X15150849Y-9866251D02*
X15190849Y-9906251D01*
X15190849Y-9866251D02*
X15150849Y-9906251D01*
X15153370Y-9990730D02*
X15193370Y-10030730D01*
X15193370Y-9990730D02*
X15153370Y-10030730D01*
X15182600Y-10520300D02*
X15222600Y-10560300D01*
X15222600Y-10520300D02*
X15182600Y-10560300D01*
X15220000Y-11270300D02*
X15260000Y-11310300D01*
X15260000Y-11270300D02*
X15220000Y-11310300D01*
X15233050Y-10088850D02*
X15273050Y-10128850D01*
X15273050Y-10088850D02*
X15233050Y-10128850D01*
X15296200Y-8222300D02*
X15336200Y-8262300D01*
X15336200Y-8222300D02*
X15296200Y-8262300D01*
X15353700Y-10209500D02*
X15393700Y-10249500D01*
X15393700Y-10209500D02*
X15353700Y-10249500D01*
X15385800Y-10520300D02*
X15425800Y-10560300D01*
X15425800Y-10520300D02*
X15385800Y-10560300D01*
X15423200Y-11270300D02*
X15463200Y-11310300D01*
X15463200Y-11270300D02*
X15423200Y-11310300D01*
X15480700Y-10336500D02*
X15520700Y-10376500D01*
X15520700Y-10336500D02*
X15480700Y-10376500D01*
X15550200Y-11486200D02*
X15590200Y-11526200D01*
X15590200Y-11486200D02*
X15550200Y-11526200D01*
X15652800Y-9175800D02*
X15692800Y-9215800D01*
X15692800Y-9175800D02*
X15652800Y-9215800D01*
X15664500Y-11054400D02*
X15704500Y-11094400D01*
X15704500Y-11054400D02*
X15664500Y-11094400D01*
X15740700Y-10940100D02*
X15780700Y-10980100D01*
X15780700Y-10940100D02*
X15740700Y-10980100D01*
X15753400Y-9073200D02*
X15793400Y-9113200D01*
X15793400Y-9073200D02*
X15753400Y-9113200D01*
X15835950Y-10844850D02*
X15875950Y-10884850D01*
X15875950Y-10844850D02*
X15835950Y-10884850D01*
X15856000Y-8972600D02*
X15896000Y-9012600D01*
X15896000Y-8972600D02*
X15856000Y-9012600D01*
X15880400Y-11143300D02*
X15920400Y-11183300D01*
X15920400Y-11143300D02*
X15880400Y-11183300D01*
X15893100Y-9263700D02*
X15933100Y-9303700D01*
X15933100Y-9263700D02*
X15893100Y-9303700D01*
X15905800Y-10178100D02*
X15945800Y-10218100D01*
X15945800Y-10178100D02*
X15905800Y-10218100D01*
X15905800Y-10317800D02*
X15945800Y-10357800D01*
X15945800Y-10317800D02*
X15905800Y-10357800D01*
X15905800Y-10457500D02*
X15945800Y-10497500D01*
X15945800Y-10457500D02*
X15905800Y-10497500D01*
X15905800Y-10597200D02*
X15945800Y-10637200D01*
X15945800Y-10597200D02*
X15905800Y-10637200D01*
X15905800Y-10736900D02*
X15945800Y-10776900D01*
X15945800Y-10736900D02*
X15905800Y-10776900D01*
X15943900Y-8146100D02*
X15983900Y-8186100D01*
X15983900Y-8146100D02*
X15943900Y-8186100D01*
X15997829Y-9165230D02*
X16037829Y-9205230D01*
X16037829Y-9165230D02*
X15997829Y-9205230D01*
X16105779Y-9057280D02*
X16145779Y-9097280D01*
X16145779Y-9057280D02*
X16105779Y-9097280D01*
X16109000Y-9936800D02*
X16149000Y-9976800D01*
X16149000Y-9936800D02*
X16109000Y-9976800D01*
X16134400Y-9327200D02*
X16174400Y-9367200D01*
X16174400Y-9327200D02*
X16134400Y-9367200D01*
X16153450Y-8673150D02*
X16193450Y-8713150D01*
X16193450Y-8673150D02*
X16153450Y-8713150D01*
X16185200Y-8273100D02*
X16225200Y-8313100D01*
X16225200Y-8273100D02*
X16185200Y-8313100D01*
X16201952Y-8802448D02*
X16241952Y-8842448D01*
X16241952Y-8802448D02*
X16201952Y-8842448D01*
X16201952Y-8961107D02*
X16241952Y-9001107D01*
X16241952Y-8961107D02*
X16201952Y-9001107D01*
X16312200Y-8501700D02*
X16352200Y-8541700D01*
X16352200Y-8501700D02*
X16312200Y-8541700D01*
X16312200Y-9136700D02*
X16352200Y-9176700D01*
X16352200Y-9136700D02*
X16312200Y-9176700D01*
X16426500Y-9974900D02*
X16466500Y-10014900D01*
X16466500Y-9974900D02*
X16426500Y-10014900D01*
D13*
X11910000Y-9398000D02*
G75*
G03*
X11910000Y-9398000I-35000J0D01*
G01*
X12418000Y-9398000D02*
G75*
G03*
X12418000Y-9398000I-35000J0D01*
G01*
X12658800Y-9398000D02*
G75*
G03*
X12658800Y-9398000I-35000J0D01*
G01*
X13166800Y-9398000D02*
G75*
G03*
X13166800Y-9398000I-35000J0D01*
G01*
D14*
X11303000Y-7962900D02*
X11303000Y-8039100D01*
X11264900Y-8001000D02*
X11341100Y-8001000D01*
X11303000Y-9740900D02*
X11303000Y-9817100D01*
X11264900Y-9779000D02*
X11341100Y-9779000D01*
X15367000Y-7962900D02*
X15367000Y-8039100D01*
X15328900Y-8001000D02*
X15405100Y-8001000D01*
X15367000Y-9740900D02*
X15367000Y-9817100D01*
X15328900Y-9779000D02*
X15405100Y-9779000D01*
D15*
X16035588Y-8423588D02*
X16035588Y-8356412D01*
X15968412Y-8356412D01*
X15968412Y-8423588D01*
X16035588Y-8423588D01*
X16035588Y-8673588D02*
X16035588Y-8606412D01*
X15968412Y-8606412D01*
X15968412Y-8673588D01*
X16035588Y-8673588D01*
X16035588Y-8923588D02*
X16035588Y-8856412D01*
X15968412Y-8856412D01*
X15968412Y-8923588D01*
X16035588Y-8923588D01*
D16*
X11430000Y-8771750D02*
X11480000Y-8721750D01*
X11430000Y-8671750D01*
X11380000Y-8721750D01*
X11430000Y-8771750D01*
X13335000Y-7483500D02*
X13385000Y-7433500D01*
X13335000Y-7383500D01*
X13285000Y-7433500D01*
X13335000Y-7483500D01*
X13335000Y-7733500D02*
X13385000Y-7683500D01*
X13335000Y-7633500D01*
X13285000Y-7683500D01*
X13335000Y-7733500D01*
X13462000Y-8771750D02*
X13512000Y-8721750D01*
X13462000Y-8671750D01*
X13412000Y-8721750D01*
X13462000Y-8771750D01*
X13970000Y-9136100D02*
X14020000Y-9086100D01*
X13970000Y-9036100D01*
X13920000Y-9086100D01*
X13970000Y-9136100D01*
X14224000Y-9136100D02*
X14274000Y-9086100D01*
X14224000Y-9036100D01*
X14174000Y-9086100D01*
X14224000Y-9136100D01*
X14478000Y-9136100D02*
X14528000Y-9086100D01*
X14478000Y-9036100D01*
X14428000Y-9086100D01*
X14478000Y-9136100D01*
X15684500Y-10590300D02*
X15734500Y-10540300D01*
X15684500Y-10490300D01*
X15634500Y-10540300D01*
X15684500Y-10590300D01*
X15684500Y-11340300D02*
X15734500Y-11290300D01*
X15684500Y-11240300D01*
X15634500Y-11290300D01*
X15684500Y-11340300D01*
X16002000Y-9575000D02*
X16052000Y-9525000D01*
X16002000Y-9475000D01*
X15952000Y-9525000D01*
X16002000Y-9575000D01*
X16002000Y-9825000D02*
X16052000Y-9775000D01*
X16002000Y-9725000D01*
X15952000Y-9775000D01*
X16002000Y-9825000D01*
D17*
X14964100Y-8182300D02*
X15084100Y-8302300D01*
X15084100Y-8182300D02*
X14964100Y-8302300D01*
X15084100Y-8242300D02*
G75*
G03*
X15084100Y-8242300I-60000J0D01*
G01*
X14964100Y-9198300D02*
X15084100Y-9318300D01*
X15084100Y-9198300D02*
X14964100Y-9318300D01*
X15084100Y-9258300D02*
G75*
G03*
X15084100Y-9258300I-60000J0D01*
G01*
D11*
X11272615Y-13156975D02*
X11272615Y-12956975D01*
X11320234Y-12956975D01*
X11348806Y-12966499D01*
X11367853Y-12985546D01*
X11377377Y-13004594D01*
X11386901Y-13042689D01*
X11386901Y-13071261D01*
X11377377Y-13109356D01*
X11367853Y-13128403D01*
X11348806Y-13147451D01*
X11320234Y-13156975D01*
X11272615Y-13156975D01*
X11472615Y-13156975D02*
X11472615Y-13023642D01*
X11472615Y-13061737D02*
X11482139Y-13042689D01*
X11491663Y-13033165D01*
X11510710Y-13023642D01*
X11529758Y-13023642D01*
X11596425Y-13156975D02*
X11596425Y-13023642D01*
X11596425Y-12956975D02*
X11586901Y-12966499D01*
X11596425Y-12976023D01*
X11605949Y-12966499D01*
X11596425Y-12956975D01*
X11596425Y-12976023D01*
X11720234Y-13156975D02*
X11701187Y-13147451D01*
X11691663Y-13128403D01*
X11691663Y-12956975D01*
X11824996Y-13156975D02*
X11805949Y-13147451D01*
X11796425Y-13128403D01*
X11796425Y-12956975D01*
X12053568Y-13156975D02*
X12053568Y-12956975D01*
X12120234Y-13099832D01*
X12186901Y-12956975D01*
X12186901Y-13156975D01*
X12367853Y-13156975D02*
X12367853Y-13052213D01*
X12358330Y-13033165D01*
X12339282Y-13023642D01*
X12301187Y-13023642D01*
X12282139Y-13033165D01*
X12367853Y-13147451D02*
X12348806Y-13156975D01*
X12301187Y-13156975D01*
X12282139Y-13147451D01*
X12272615Y-13128403D01*
X12272615Y-13109356D01*
X12282139Y-13090308D01*
X12301187Y-13080784D01*
X12348806Y-13080784D01*
X12367853Y-13071261D01*
X12463091Y-13023642D02*
X12463091Y-13223642D01*
X12463091Y-13033165D02*
X12482139Y-13023642D01*
X12520234Y-13023642D01*
X12539282Y-13033165D01*
X12548806Y-13042689D01*
X12558330Y-13061737D01*
X12558330Y-13118880D01*
X12548806Y-13137927D01*
X12539282Y-13147451D01*
X12520234Y-13156975D01*
X12482139Y-13156975D01*
X12463091Y-13147451D01*
X12644044Y-13137927D02*
X12653568Y-13147451D01*
X12644044Y-13156975D01*
X12634520Y-13147451D01*
X12644044Y-13137927D01*
X12644044Y-13156975D01*
X12644044Y-13033165D02*
X12653568Y-13042689D01*
X12644044Y-13052213D01*
X12634520Y-13042689D01*
X12644044Y-13033165D01*
X12644044Y-13052213D01*
D12*
X10974996Y-13466499D02*
X11014996Y-13506499D01*
X11014996Y-13466499D02*
X10974996Y-13506499D01*
D11*
X11310710Y-13376975D02*
X11329758Y-13376975D01*
X11348806Y-13386499D01*
X11358330Y-13396023D01*
X11367853Y-13415070D01*
X11377377Y-13453165D01*
X11377377Y-13500784D01*
X11367853Y-13538880D01*
X11358330Y-13557927D01*
X11348806Y-13567451D01*
X11329758Y-13576975D01*
X11310710Y-13576975D01*
X11291663Y-13567451D01*
X11282139Y-13557927D01*
X11272615Y-13538880D01*
X11263091Y-13500784D01*
X11263091Y-13453165D01*
X11272615Y-13415070D01*
X11282139Y-13396023D01*
X11291663Y-13386499D01*
X11310710Y-13376975D01*
X11463091Y-13557927D02*
X11472615Y-13567451D01*
X11463091Y-13576975D01*
X11453568Y-13567451D01*
X11463091Y-13557927D01*
X11463091Y-13576975D01*
X11644044Y-13443642D02*
X11644044Y-13576975D01*
X11596425Y-13367451D02*
X11548806Y-13510308D01*
X11672615Y-13510308D01*
X11786901Y-13376975D02*
X11805949Y-13376975D01*
X11824996Y-13386499D01*
X11834520Y-13396023D01*
X11844044Y-13415070D01*
X11853568Y-13453165D01*
X11853568Y-13500784D01*
X11844044Y-13538880D01*
X11834520Y-13557927D01*
X11824996Y-13567451D01*
X11805949Y-13576975D01*
X11786901Y-13576975D01*
X11767853Y-13567451D01*
X11758330Y-13557927D01*
X11748806Y-13538880D01*
X11739282Y-13500784D01*
X11739282Y-13453165D01*
X11748806Y-13415070D01*
X11758330Y-13396023D01*
X11767853Y-13386499D01*
X11786901Y-13376975D01*
X11977377Y-13376975D02*
X11996425Y-13376975D01*
X12015472Y-13386499D01*
X12024996Y-13396023D01*
X12034520Y-13415070D01*
X12044044Y-13453165D01*
X12044044Y-13500784D01*
X12034520Y-13538880D01*
X12024996Y-13557927D01*
X12015472Y-13567451D01*
X11996425Y-13576975D01*
X11977377Y-13576975D01*
X11958330Y-13567451D01*
X11948806Y-13557927D01*
X11939282Y-13538880D01*
X11929758Y-13500784D01*
X11929758Y-13453165D01*
X11939282Y-13415070D01*
X11948806Y-13396023D01*
X11958330Y-13386499D01*
X11977377Y-13376975D01*
X12129758Y-13576975D02*
X12129758Y-13443642D01*
X12129758Y-13462689D02*
X12139282Y-13453165D01*
X12158330Y-13443642D01*
X12186901Y-13443642D01*
X12205949Y-13453165D01*
X12215472Y-13472213D01*
X12215472Y-13576975D01*
X12215472Y-13472213D02*
X12224996Y-13453165D01*
X12244044Y-13443642D01*
X12272615Y-13443642D01*
X12291663Y-13453165D01*
X12301187Y-13472213D01*
X12301187Y-13576975D01*
X12396425Y-13576975D02*
X12396425Y-13443642D01*
X12396425Y-13462689D02*
X12405949Y-13453165D01*
X12424996Y-13443642D01*
X12453568Y-13443642D01*
X12472615Y-13453165D01*
X12482139Y-13472213D01*
X12482139Y-13576975D01*
X12482139Y-13472213D02*
X12491663Y-13453165D01*
X12510710Y-13443642D01*
X12539282Y-13443642D01*
X12558330Y-13453165D01*
X12567853Y-13472213D01*
X12567853Y-13576975D01*
X12958330Y-13367451D02*
X12786901Y-13624594D01*
X13215472Y-13376975D02*
X13234520Y-13376975D01*
X13253568Y-13386499D01*
X13263091Y-13396023D01*
X13272615Y-13415070D01*
X13282139Y-13453165D01*
X13282139Y-13500784D01*
X13272615Y-13538880D01*
X13263091Y-13557927D01*
X13253568Y-13567451D01*
X13234520Y-13576975D01*
X13215472Y-13576975D01*
X13196425Y-13567451D01*
X13186901Y-13557927D01*
X13177377Y-13538880D01*
X13167853Y-13500784D01*
X13167853Y-13453165D01*
X13177377Y-13415070D01*
X13186901Y-13396023D01*
X13196425Y-13386499D01*
X13215472Y-13376975D01*
X13367853Y-13557927D02*
X13377377Y-13567451D01*
X13367853Y-13576975D01*
X13358330Y-13567451D01*
X13367853Y-13557927D01*
X13367853Y-13576975D01*
X13501187Y-13376975D02*
X13520234Y-13376975D01*
X13539282Y-13386499D01*
X13548806Y-13396023D01*
X13558330Y-13415070D01*
X13567853Y-13453165D01*
X13567853Y-13500784D01*
X13558330Y-13538880D01*
X13548806Y-13557927D01*
X13539282Y-13567451D01*
X13520234Y-13576975D01*
X13501187Y-13576975D01*
X13482139Y-13567451D01*
X13472615Y-13557927D01*
X13463091Y-13538880D01*
X13453568Y-13500784D01*
X13453568Y-13453165D01*
X13463091Y-13415070D01*
X13472615Y-13396023D01*
X13482139Y-13386499D01*
X13501187Y-13376975D01*
X13758330Y-13576975D02*
X13644044Y-13576975D01*
X13701187Y-13576975D02*
X13701187Y-13376975D01*
X13682139Y-13405546D01*
X13663091Y-13424594D01*
X13644044Y-13434118D01*
X13939282Y-13376975D02*
X13844044Y-13376975D01*
X13834520Y-13472213D01*
X13844044Y-13462689D01*
X13863091Y-13453165D01*
X13910710Y-13453165D01*
X13929758Y-13462689D01*
X13939282Y-13472213D01*
X13948806Y-13491261D01*
X13948806Y-13538880D01*
X13939282Y-13557927D01*
X13929758Y-13567451D01*
X13910710Y-13576975D01*
X13863091Y-13576975D01*
X13844044Y-13567451D01*
X13834520Y-13557927D01*
X14015472Y-13376975D02*
X14148806Y-13376975D01*
X14063091Y-13576975D01*
X14215472Y-13376975D02*
X14215472Y-13415070D01*
X14291663Y-13376975D02*
X14291663Y-13415070D01*
X14586901Y-13653165D02*
X14577377Y-13643642D01*
X14558330Y-13615070D01*
X14548806Y-13596023D01*
X14539282Y-13567451D01*
X14529758Y-13519832D01*
X14529758Y-13481737D01*
X14539282Y-13434118D01*
X14548806Y-13405546D01*
X14558330Y-13386499D01*
X14577377Y-13357927D01*
X14586901Y-13348403D01*
X14767853Y-13576975D02*
X14653568Y-13576975D01*
X14710710Y-13576975D02*
X14710710Y-13376975D01*
X14691663Y-13405546D01*
X14672615Y-13424594D01*
X14653568Y-13434118D01*
X14891663Y-13376975D02*
X14910710Y-13376975D01*
X14929758Y-13386499D01*
X14939282Y-13396023D01*
X14948806Y-13415070D01*
X14958330Y-13453165D01*
X14958330Y-13500784D01*
X14948806Y-13538880D01*
X14939282Y-13557927D01*
X14929758Y-13567451D01*
X14910710Y-13576975D01*
X14891663Y-13576975D01*
X14872615Y-13567451D01*
X14863091Y-13557927D01*
X14853568Y-13538880D01*
X14844044Y-13500784D01*
X14844044Y-13453165D01*
X14853568Y-13415070D01*
X14863091Y-13396023D01*
X14872615Y-13386499D01*
X14891663Y-13376975D01*
X15024996Y-13376975D02*
X15148806Y-13376975D01*
X15082139Y-13453165D01*
X15110710Y-13453165D01*
X15129758Y-13462689D01*
X15139282Y-13472213D01*
X15148806Y-13491261D01*
X15148806Y-13538880D01*
X15139282Y-13557927D01*
X15129758Y-13567451D01*
X15110710Y-13576975D01*
X15053568Y-13576975D01*
X15034520Y-13567451D01*
X15024996Y-13557927D01*
X15386901Y-13576975D02*
X15386901Y-13376975D01*
X15472615Y-13576975D02*
X15472615Y-13472213D01*
X15463091Y-13453165D01*
X15444044Y-13443642D01*
X15415472Y-13443642D01*
X15396425Y-13453165D01*
X15386901Y-13462689D01*
X15596425Y-13576975D02*
X15577377Y-13567451D01*
X15567853Y-13557927D01*
X15558330Y-13538880D01*
X15558330Y-13481737D01*
X15567853Y-13462689D01*
X15577377Y-13453165D01*
X15596425Y-13443642D01*
X15624996Y-13443642D01*
X15644044Y-13453165D01*
X15653568Y-13462689D01*
X15663091Y-13481737D01*
X15663091Y-13538880D01*
X15653568Y-13557927D01*
X15644044Y-13567451D01*
X15624996Y-13576975D01*
X15596425Y-13576975D01*
X15777377Y-13576975D02*
X15758330Y-13567451D01*
X15748806Y-13548403D01*
X15748806Y-13376975D01*
X15929758Y-13567451D02*
X15910710Y-13576975D01*
X15872615Y-13576975D01*
X15853568Y-13567451D01*
X15844044Y-13548403D01*
X15844044Y-13472213D01*
X15853568Y-13453165D01*
X15872615Y-13443642D01*
X15910710Y-13443642D01*
X15929758Y-13453165D01*
X15939282Y-13472213D01*
X15939282Y-13491261D01*
X15844044Y-13510308D01*
X16015472Y-13567451D02*
X16034520Y-13576975D01*
X16072615Y-13576975D01*
X16091663Y-13567451D01*
X16101187Y-13548403D01*
X16101187Y-13538880D01*
X16091663Y-13519832D01*
X16072615Y-13510308D01*
X16044044Y-13510308D01*
X16024996Y-13500784D01*
X16015472Y-13481737D01*
X16015472Y-13472213D01*
X16024996Y-13453165D01*
X16044044Y-13443642D01*
X16072615Y-13443642D01*
X16091663Y-13453165D01*
X16167853Y-13653165D02*
X16177377Y-13643642D01*
X16196425Y-13615070D01*
X16205949Y-13596023D01*
X16215472Y-13567451D01*
X16224996Y-13519832D01*
X16224996Y-13481737D01*
X16215472Y-13434118D01*
X16205949Y-13405546D01*
X16196425Y-13386499D01*
X16177377Y-13357927D01*
X16167853Y-13348403D01*
D13*
X11014996Y-13750499D02*
G75*
G03*
X11014996Y-13750499I-35000J0D01*
G01*
D11*
X11310710Y-13640975D02*
X11329758Y-13640975D01*
X11348806Y-13650499D01*
X11358330Y-13660023D01*
X11367853Y-13679070D01*
X11377377Y-13717165D01*
X11377377Y-13764784D01*
X11367853Y-13802880D01*
X11358330Y-13821927D01*
X11348806Y-13831451D01*
X11329758Y-13840975D01*
X11310710Y-13840975D01*
X11291663Y-13831451D01*
X11282139Y-13821927D01*
X11272615Y-13802880D01*
X11263091Y-13764784D01*
X11263091Y-13717165D01*
X11272615Y-13679070D01*
X11282139Y-13660023D01*
X11291663Y-13650499D01*
X11310710Y-13640975D01*
X11463091Y-13821927D02*
X11472615Y-13831451D01*
X11463091Y-13840975D01*
X11453568Y-13831451D01*
X11463091Y-13821927D01*
X11463091Y-13840975D01*
X11539282Y-13640975D02*
X11672615Y-13640975D01*
X11586901Y-13840975D01*
X11786901Y-13640975D02*
X11805949Y-13640975D01*
X11824996Y-13650499D01*
X11834520Y-13660023D01*
X11844044Y-13679070D01*
X11853568Y-13717165D01*
X11853568Y-13764784D01*
X11844044Y-13802880D01*
X11834520Y-13821927D01*
X11824996Y-13831451D01*
X11805949Y-13840975D01*
X11786901Y-13840975D01*
X11767853Y-13831451D01*
X11758330Y-13821927D01*
X11748806Y-13802880D01*
X11739282Y-13764784D01*
X11739282Y-13717165D01*
X11748806Y-13679070D01*
X11758330Y-13660023D01*
X11767853Y-13650499D01*
X11786901Y-13640975D01*
X11977377Y-13640975D02*
X11996425Y-13640975D01*
X12015472Y-13650499D01*
X12024996Y-13660023D01*
X12034520Y-13679070D01*
X12044044Y-13717165D01*
X12044044Y-13764784D01*
X12034520Y-13802880D01*
X12024996Y-13821927D01*
X12015472Y-13831451D01*
X11996425Y-13840975D01*
X11977377Y-13840975D01*
X11958330Y-13831451D01*
X11948806Y-13821927D01*
X11939282Y-13802880D01*
X11929758Y-13764784D01*
X11929758Y-13717165D01*
X11939282Y-13679070D01*
X11948806Y-13660023D01*
X11958330Y-13650499D01*
X11977377Y-13640975D01*
X12129758Y-13840975D02*
X12129758Y-13707642D01*
X12129758Y-13726689D02*
X12139282Y-13717165D01*
X12158330Y-13707642D01*
X12186901Y-13707642D01*
X12205949Y-13717165D01*
X12215472Y-13736213D01*
X12215472Y-13840975D01*
X12215472Y-13736213D02*
X12224996Y-13717165D01*
X12244044Y-13707642D01*
X12272615Y-13707642D01*
X12291663Y-13717165D01*
X12301187Y-13736213D01*
X12301187Y-13840975D01*
X12396425Y-13840975D02*
X12396425Y-13707642D01*
X12396425Y-13726689D02*
X12405949Y-13717165D01*
X12424996Y-13707642D01*
X12453568Y-13707642D01*
X12472615Y-13717165D01*
X12482139Y-13736213D01*
X12482139Y-13840975D01*
X12482139Y-13736213D02*
X12491663Y-13717165D01*
X12510710Y-13707642D01*
X12539282Y-13707642D01*
X12558330Y-13717165D01*
X12567853Y-13736213D01*
X12567853Y-13840975D01*
X12958330Y-13631451D02*
X12786901Y-13888594D01*
X13215472Y-13640975D02*
X13234520Y-13640975D01*
X13253568Y-13650499D01*
X13263091Y-13660023D01*
X13272615Y-13679070D01*
X13282139Y-13717165D01*
X13282139Y-13764784D01*
X13272615Y-13802880D01*
X13263091Y-13821927D01*
X13253568Y-13831451D01*
X13234520Y-13840975D01*
X13215472Y-13840975D01*
X13196425Y-13831451D01*
X13186901Y-13821927D01*
X13177377Y-13802880D01*
X13167853Y-13764784D01*
X13167853Y-13717165D01*
X13177377Y-13679070D01*
X13186901Y-13660023D01*
X13196425Y-13650499D01*
X13215472Y-13640975D01*
X13367853Y-13821927D02*
X13377377Y-13831451D01*
X13367853Y-13840975D01*
X13358330Y-13831451D01*
X13367853Y-13821927D01*
X13367853Y-13840975D01*
X13501187Y-13640975D02*
X13520234Y-13640975D01*
X13539282Y-13650499D01*
X13548806Y-13660023D01*
X13558330Y-13679070D01*
X13567853Y-13717165D01*
X13567853Y-13764784D01*
X13558330Y-13802880D01*
X13548806Y-13821927D01*
X13539282Y-13831451D01*
X13520234Y-13840975D01*
X13501187Y-13840975D01*
X13482139Y-13831451D01*
X13472615Y-13821927D01*
X13463091Y-13802880D01*
X13453568Y-13764784D01*
X13453568Y-13717165D01*
X13463091Y-13679070D01*
X13472615Y-13660023D01*
X13482139Y-13650499D01*
X13501187Y-13640975D01*
X13644044Y-13660023D02*
X13653568Y-13650499D01*
X13672615Y-13640975D01*
X13720234Y-13640975D01*
X13739282Y-13650499D01*
X13748806Y-13660023D01*
X13758330Y-13679070D01*
X13758330Y-13698118D01*
X13748806Y-13726689D01*
X13634520Y-13840975D01*
X13758330Y-13840975D01*
X13824996Y-13640975D02*
X13958330Y-13640975D01*
X13872615Y-13840975D01*
X14120234Y-13640975D02*
X14082139Y-13640975D01*
X14063091Y-13650499D01*
X14053568Y-13660023D01*
X14034520Y-13688594D01*
X14024996Y-13726689D01*
X14024996Y-13802880D01*
X14034520Y-13821927D01*
X14044044Y-13831451D01*
X14063091Y-13840975D01*
X14101187Y-13840975D01*
X14120234Y-13831451D01*
X14129758Y-13821927D01*
X14139282Y-13802880D01*
X14139282Y-13755261D01*
X14129758Y-13736213D01*
X14120234Y-13726689D01*
X14101187Y-13717165D01*
X14063091Y-13717165D01*
X14044044Y-13726689D01*
X14034520Y-13736213D01*
X14024996Y-13755261D01*
X14215472Y-13640975D02*
X14215472Y-13679070D01*
X14291663Y-13640975D02*
X14291663Y-13679070D01*
X14586901Y-13917165D02*
X14577377Y-13907642D01*
X14558330Y-13879070D01*
X14548806Y-13860023D01*
X14539282Y-13831451D01*
X14529758Y-13783832D01*
X14529758Y-13745737D01*
X14539282Y-13698118D01*
X14548806Y-13669546D01*
X14558330Y-13650499D01*
X14577377Y-13621927D01*
X14586901Y-13612403D01*
X14748806Y-13707642D02*
X14748806Y-13840975D01*
X14701187Y-13631451D02*
X14653568Y-13774308D01*
X14777377Y-13774308D01*
X15005949Y-13840975D02*
X15005949Y-13640975D01*
X15091663Y-13840975D02*
X15091663Y-13736213D01*
X15082139Y-13717165D01*
X15063091Y-13707642D01*
X15034520Y-13707642D01*
X15015472Y-13717165D01*
X15005949Y-13726689D01*
X15215472Y-13840975D02*
X15196425Y-13831451D01*
X15186901Y-13821927D01*
X15177377Y-13802880D01*
X15177377Y-13745737D01*
X15186901Y-13726689D01*
X15196425Y-13717165D01*
X15215472Y-13707642D01*
X15244044Y-13707642D01*
X15263091Y-13717165D01*
X15272615Y-13726689D01*
X15282139Y-13745737D01*
X15282139Y-13802880D01*
X15272615Y-13821927D01*
X15263091Y-13831451D01*
X15244044Y-13840975D01*
X15215472Y-13840975D01*
X15396425Y-13840975D02*
X15377377Y-13831451D01*
X15367853Y-13812403D01*
X15367853Y-13640975D01*
X15548806Y-13831451D02*
X15529758Y-13840975D01*
X15491663Y-13840975D01*
X15472615Y-13831451D01*
X15463091Y-13812403D01*
X15463091Y-13736213D01*
X15472615Y-13717165D01*
X15491663Y-13707642D01*
X15529758Y-13707642D01*
X15548806Y-13717165D01*
X15558330Y-13736213D01*
X15558330Y-13755261D01*
X15463091Y-13774308D01*
X15634520Y-13831451D02*
X15653568Y-13840975D01*
X15691663Y-13840975D01*
X15710710Y-13831451D01*
X15720234Y-13812403D01*
X15720234Y-13802880D01*
X15710710Y-13783832D01*
X15691663Y-13774308D01*
X15663091Y-13774308D01*
X15644044Y-13764784D01*
X15634520Y-13745737D01*
X15634520Y-13736213D01*
X15644044Y-13717165D01*
X15663091Y-13707642D01*
X15691663Y-13707642D01*
X15710710Y-13717165D01*
X15786901Y-13917165D02*
X15796425Y-13907642D01*
X15815472Y-13879070D01*
X15824996Y-13860023D01*
X15834520Y-13831451D01*
X15844044Y-13783832D01*
X15844044Y-13745737D01*
X15834520Y-13698118D01*
X15824996Y-13669546D01*
X15815472Y-13650499D01*
X15796425Y-13621927D01*
X15786901Y-13612403D01*
D14*
X10976896Y-13976399D02*
X10976896Y-14052599D01*
X10938796Y-14014499D02*
X11014996Y-14014499D01*
D11*
X11310710Y-13904975D02*
X11329758Y-13904975D01*
X11348806Y-13914499D01*
X11358330Y-13924023D01*
X11367853Y-13943070D01*
X11377377Y-13981165D01*
X11377377Y-14028784D01*
X11367853Y-14066880D01*
X11358330Y-14085927D01*
X11348806Y-14095451D01*
X11329758Y-14104975D01*
X11310710Y-14104975D01*
X11291663Y-14095451D01*
X11282139Y-14085927D01*
X11272615Y-14066880D01*
X11263091Y-14028784D01*
X11263091Y-13981165D01*
X11272615Y-13943070D01*
X11282139Y-13924023D01*
X11291663Y-13914499D01*
X11310710Y-13904975D01*
X11463091Y-14085927D02*
X11472615Y-14095451D01*
X11463091Y-14104975D01*
X11453568Y-14095451D01*
X11463091Y-14085927D01*
X11463091Y-14104975D01*
X11539282Y-13904975D02*
X11672615Y-13904975D01*
X11586901Y-14104975D01*
X11834520Y-13904975D02*
X11796425Y-13904975D01*
X11777377Y-13914499D01*
X11767853Y-13924023D01*
X11748806Y-13952594D01*
X11739282Y-13990689D01*
X11739282Y-14066880D01*
X11748806Y-14085927D01*
X11758330Y-14095451D01*
X11777377Y-14104975D01*
X11815472Y-14104975D01*
X11834520Y-14095451D01*
X11844044Y-14085927D01*
X11853568Y-14066880D01*
X11853568Y-14019261D01*
X11844044Y-14000213D01*
X11834520Y-13990689D01*
X11815472Y-13981165D01*
X11777377Y-13981165D01*
X11758330Y-13990689D01*
X11748806Y-14000213D01*
X11739282Y-14019261D01*
X11929758Y-13924023D02*
X11939282Y-13914499D01*
X11958330Y-13904975D01*
X12005949Y-13904975D01*
X12024996Y-13914499D01*
X12034520Y-13924023D01*
X12044044Y-13943070D01*
X12044044Y-13962118D01*
X12034520Y-13990689D01*
X11920234Y-14104975D01*
X12044044Y-14104975D01*
X12129758Y-14104975D02*
X12129758Y-13971642D01*
X12129758Y-13990689D02*
X12139282Y-13981165D01*
X12158330Y-13971642D01*
X12186901Y-13971642D01*
X12205949Y-13981165D01*
X12215472Y-14000213D01*
X12215472Y-14104975D01*
X12215472Y-14000213D02*
X12224996Y-13981165D01*
X12244044Y-13971642D01*
X12272615Y-13971642D01*
X12291663Y-13981165D01*
X12301187Y-14000213D01*
X12301187Y-14104975D01*
X12396425Y-14104975D02*
X12396425Y-13971642D01*
X12396425Y-13990689D02*
X12405949Y-13981165D01*
X12424996Y-13971642D01*
X12453568Y-13971642D01*
X12472615Y-13981165D01*
X12482139Y-14000213D01*
X12482139Y-14104975D01*
X12482139Y-14000213D02*
X12491663Y-13981165D01*
X12510710Y-13971642D01*
X12539282Y-13971642D01*
X12558330Y-13981165D01*
X12567853Y-14000213D01*
X12567853Y-14104975D01*
X12958330Y-13895451D02*
X12786901Y-14152594D01*
X13215472Y-13904975D02*
X13234520Y-13904975D01*
X13253568Y-13914499D01*
X13263091Y-13924023D01*
X13272615Y-13943070D01*
X13282139Y-13981165D01*
X13282139Y-14028784D01*
X13272615Y-14066880D01*
X13263091Y-14085927D01*
X13253568Y-14095451D01*
X13234520Y-14104975D01*
X13215472Y-14104975D01*
X13196425Y-14095451D01*
X13186901Y-14085927D01*
X13177377Y-14066880D01*
X13167853Y-14028784D01*
X13167853Y-13981165D01*
X13177377Y-13943070D01*
X13186901Y-13924023D01*
X13196425Y-13914499D01*
X13215472Y-13904975D01*
X13367853Y-14085927D02*
X13377377Y-14095451D01*
X13367853Y-14104975D01*
X13358330Y-14095451D01*
X13367853Y-14085927D01*
X13367853Y-14104975D01*
X13501187Y-13904975D02*
X13520234Y-13904975D01*
X13539282Y-13914499D01*
X13548806Y-13924023D01*
X13558330Y-13943070D01*
X13567853Y-13981165D01*
X13567853Y-14028784D01*
X13558330Y-14066880D01*
X13548806Y-14085927D01*
X13539282Y-14095451D01*
X13520234Y-14104975D01*
X13501187Y-14104975D01*
X13482139Y-14095451D01*
X13472615Y-14085927D01*
X13463091Y-14066880D01*
X13453568Y-14028784D01*
X13453568Y-13981165D01*
X13463091Y-13943070D01*
X13472615Y-13924023D01*
X13482139Y-13914499D01*
X13501187Y-13904975D01*
X13634520Y-13904975D02*
X13758330Y-13904975D01*
X13691663Y-13981165D01*
X13720234Y-13981165D01*
X13739282Y-13990689D01*
X13748806Y-14000213D01*
X13758330Y-14019261D01*
X13758330Y-14066880D01*
X13748806Y-14085927D01*
X13739282Y-14095451D01*
X13720234Y-14104975D01*
X13663091Y-14104975D01*
X13644044Y-14095451D01*
X13634520Y-14085927D01*
X13882139Y-13904975D02*
X13901187Y-13904975D01*
X13920234Y-13914499D01*
X13929758Y-13924023D01*
X13939282Y-13943070D01*
X13948806Y-13981165D01*
X13948806Y-14028784D01*
X13939282Y-14066880D01*
X13929758Y-14085927D01*
X13920234Y-14095451D01*
X13901187Y-14104975D01*
X13882139Y-14104975D01*
X13863091Y-14095451D01*
X13853568Y-14085927D01*
X13844044Y-14066880D01*
X13834520Y-14028784D01*
X13834520Y-13981165D01*
X13844044Y-13943070D01*
X13853568Y-13924023D01*
X13863091Y-13914499D01*
X13882139Y-13904975D01*
X14072615Y-13904975D02*
X14091663Y-13904975D01*
X14110710Y-13914499D01*
X14120234Y-13924023D01*
X14129758Y-13943070D01*
X14139282Y-13981165D01*
X14139282Y-14028784D01*
X14129758Y-14066880D01*
X14120234Y-14085927D01*
X14110710Y-14095451D01*
X14091663Y-14104975D01*
X14072615Y-14104975D01*
X14053568Y-14095451D01*
X14044044Y-14085927D01*
X14034520Y-14066880D01*
X14024996Y-14028784D01*
X14024996Y-13981165D01*
X14034520Y-13943070D01*
X14044044Y-13924023D01*
X14053568Y-13914499D01*
X14072615Y-13904975D01*
X14215472Y-13904975D02*
X14215472Y-13943070D01*
X14291663Y-13904975D02*
X14291663Y-13943070D01*
X14586901Y-14181165D02*
X14577377Y-14171642D01*
X14558330Y-14143070D01*
X14548806Y-14124023D01*
X14539282Y-14095451D01*
X14529758Y-14047832D01*
X14529758Y-14009737D01*
X14539282Y-13962118D01*
X14548806Y-13933546D01*
X14558330Y-13914499D01*
X14577377Y-13885927D01*
X14586901Y-13876403D01*
X14748806Y-13971642D02*
X14748806Y-14104975D01*
X14701187Y-13895451D02*
X14653568Y-14038308D01*
X14777377Y-14038308D01*
X15005949Y-14104975D02*
X15005949Y-13904975D01*
X15091663Y-14104975D02*
X15091663Y-14000213D01*
X15082139Y-13981165D01*
X15063091Y-13971642D01*
X15034520Y-13971642D01*
X15015472Y-13981165D01*
X15005949Y-13990689D01*
X15215472Y-14104975D02*
X15196425Y-14095451D01*
X15186901Y-14085927D01*
X15177377Y-14066880D01*
X15177377Y-14009737D01*
X15186901Y-13990689D01*
X15196425Y-13981165D01*
X15215472Y-13971642D01*
X15244044Y-13971642D01*
X15263091Y-13981165D01*
X15272615Y-13990689D01*
X15282139Y-14009737D01*
X15282139Y-14066880D01*
X15272615Y-14085927D01*
X15263091Y-14095451D01*
X15244044Y-14104975D01*
X15215472Y-14104975D01*
X15396425Y-14104975D02*
X15377377Y-14095451D01*
X15367853Y-14076403D01*
X15367853Y-13904975D01*
X15548806Y-14095451D02*
X15529758Y-14104975D01*
X15491663Y-14104975D01*
X15472615Y-14095451D01*
X15463091Y-14076403D01*
X15463091Y-14000213D01*
X15472615Y-13981165D01*
X15491663Y-13971642D01*
X15529758Y-13971642D01*
X15548806Y-13981165D01*
X15558330Y-14000213D01*
X15558330Y-14019261D01*
X15463091Y-14038308D01*
X15634520Y-14095451D02*
X15653568Y-14104975D01*
X15691663Y-14104975D01*
X15710710Y-14095451D01*
X15720234Y-14076403D01*
X15720234Y-14066880D01*
X15710710Y-14047832D01*
X15691663Y-14038308D01*
X15663091Y-14038308D01*
X15644044Y-14028784D01*
X15634520Y-14009737D01*
X15634520Y-14000213D01*
X15644044Y-13981165D01*
X15663091Y-13971642D01*
X15691663Y-13971642D01*
X15710710Y-13981165D01*
X15786901Y-14181165D02*
X15796425Y-14171642D01*
X15815472Y-14143070D01*
X15824996Y-14124023D01*
X15834520Y-14095451D01*
X15844044Y-14047832D01*
X15844044Y-14009737D01*
X15834520Y-13962118D01*
X15824996Y-13933546D01*
X15815472Y-13914499D01*
X15796425Y-13885927D01*
X15786901Y-13876403D01*
D15*
X11001084Y-14312087D02*
X11001084Y-14244911D01*
X10933908Y-14244911D01*
X10933908Y-14312087D01*
X11001084Y-14312087D01*
D11*
X11310710Y-14168975D02*
X11329758Y-14168975D01*
X11348806Y-14178499D01*
X11358330Y-14188023D01*
X11367853Y-14207070D01*
X11377377Y-14245165D01*
X11377377Y-14292784D01*
X11367853Y-14330880D01*
X11358330Y-14349927D01*
X11348806Y-14359451D01*
X11329758Y-14368975D01*
X11310710Y-14368975D01*
X11291663Y-14359451D01*
X11282139Y-14349927D01*
X11272615Y-14330880D01*
X11263091Y-14292784D01*
X11263091Y-14245165D01*
X11272615Y-14207070D01*
X11282139Y-14188023D01*
X11291663Y-14178499D01*
X11310710Y-14168975D01*
X11463091Y-14349927D02*
X11472615Y-14359451D01*
X11463091Y-14368975D01*
X11453568Y-14359451D01*
X11463091Y-14349927D01*
X11463091Y-14368975D01*
X11567853Y-14368975D02*
X11605949Y-14368975D01*
X11624996Y-14359451D01*
X11634520Y-14349927D01*
X11653568Y-14321356D01*
X11663091Y-14283261D01*
X11663091Y-14207070D01*
X11653568Y-14188023D01*
X11644044Y-14178499D01*
X11624996Y-14168975D01*
X11586901Y-14168975D01*
X11567853Y-14178499D01*
X11558330Y-14188023D01*
X11548806Y-14207070D01*
X11548806Y-14254689D01*
X11558330Y-14273737D01*
X11567853Y-14283261D01*
X11586901Y-14292784D01*
X11624996Y-14292784D01*
X11644044Y-14283261D01*
X11653568Y-14273737D01*
X11663091Y-14254689D01*
X11844044Y-14168975D02*
X11748806Y-14168975D01*
X11739282Y-14264213D01*
X11748806Y-14254689D01*
X11767853Y-14245165D01*
X11815472Y-14245165D01*
X11834520Y-14254689D01*
X11844044Y-14264213D01*
X11853568Y-14283261D01*
X11853568Y-14330880D01*
X11844044Y-14349927D01*
X11834520Y-14359451D01*
X11815472Y-14368975D01*
X11767853Y-14368975D01*
X11748806Y-14359451D01*
X11739282Y-14349927D01*
X11977377Y-14168975D02*
X11996425Y-14168975D01*
X12015472Y-14178499D01*
X12024996Y-14188023D01*
X12034520Y-14207070D01*
X12044044Y-14245165D01*
X12044044Y-14292784D01*
X12034520Y-14330880D01*
X12024996Y-14349927D01*
X12015472Y-14359451D01*
X11996425Y-14368975D01*
X11977377Y-14368975D01*
X11958330Y-14359451D01*
X11948806Y-14349927D01*
X11939282Y-14330880D01*
X11929758Y-14292784D01*
X11929758Y-14245165D01*
X11939282Y-14207070D01*
X11948806Y-14188023D01*
X11958330Y-14178499D01*
X11977377Y-14168975D01*
X12129758Y-14368975D02*
X12129758Y-14235642D01*
X12129758Y-14254689D02*
X12139282Y-14245165D01*
X12158330Y-14235642D01*
X12186901Y-14235642D01*
X12205949Y-14245165D01*
X12215472Y-14264213D01*
X12215472Y-14368975D01*
X12215472Y-14264213D02*
X12224996Y-14245165D01*
X12244044Y-14235642D01*
X12272615Y-14235642D01*
X12291663Y-14245165D01*
X12301187Y-14264213D01*
X12301187Y-14368975D01*
X12396425Y-14368975D02*
X12396425Y-14235642D01*
X12396425Y-14254689D02*
X12405949Y-14245165D01*
X12424996Y-14235642D01*
X12453568Y-14235642D01*
X12472615Y-14245165D01*
X12482139Y-14264213D01*
X12482139Y-14368975D01*
X12482139Y-14264213D02*
X12491663Y-14245165D01*
X12510710Y-14235642D01*
X12539282Y-14235642D01*
X12558330Y-14245165D01*
X12567853Y-14264213D01*
X12567853Y-14368975D01*
X12958330Y-14159451D02*
X12786901Y-14416594D01*
X13215472Y-14168975D02*
X13234520Y-14168975D01*
X13253568Y-14178499D01*
X13263091Y-14188023D01*
X13272615Y-14207070D01*
X13282139Y-14245165D01*
X13282139Y-14292784D01*
X13272615Y-14330880D01*
X13263091Y-14349927D01*
X13253568Y-14359451D01*
X13234520Y-14368975D01*
X13215472Y-14368975D01*
X13196425Y-14359451D01*
X13186901Y-14349927D01*
X13177377Y-14330880D01*
X13167853Y-14292784D01*
X13167853Y-14245165D01*
X13177377Y-14207070D01*
X13186901Y-14188023D01*
X13196425Y-14178499D01*
X13215472Y-14168975D01*
X13367853Y-14349927D02*
X13377377Y-14359451D01*
X13367853Y-14368975D01*
X13358330Y-14359451D01*
X13367853Y-14349927D01*
X13367853Y-14368975D01*
X13501187Y-14168975D02*
X13520234Y-14168975D01*
X13539282Y-14178499D01*
X13548806Y-14188023D01*
X13558330Y-14207070D01*
X13567853Y-14245165D01*
X13567853Y-14292784D01*
X13558330Y-14330880D01*
X13548806Y-14349927D01*
X13539282Y-14359451D01*
X13520234Y-14368975D01*
X13501187Y-14368975D01*
X13482139Y-14359451D01*
X13472615Y-14349927D01*
X13463091Y-14330880D01*
X13453568Y-14292784D01*
X13453568Y-14245165D01*
X13463091Y-14207070D01*
X13472615Y-14188023D01*
X13482139Y-14178499D01*
X13501187Y-14168975D01*
X13634520Y-14168975D02*
X13758330Y-14168975D01*
X13691663Y-14245165D01*
X13720234Y-14245165D01*
X13739282Y-14254689D01*
X13748806Y-14264213D01*
X13758330Y-14283261D01*
X13758330Y-14330880D01*
X13748806Y-14349927D01*
X13739282Y-14359451D01*
X13720234Y-14368975D01*
X13663091Y-14368975D01*
X13644044Y-14359451D01*
X13634520Y-14349927D01*
X13824996Y-14168975D02*
X13958330Y-14168975D01*
X13872615Y-14368975D01*
X14120234Y-14235642D02*
X14120234Y-14368975D01*
X14072615Y-14159451D02*
X14024996Y-14302308D01*
X14148806Y-14302308D01*
X14215472Y-14168975D02*
X14215472Y-14207070D01*
X14291663Y-14168975D02*
X14291663Y-14207070D01*
X14586901Y-14445165D02*
X14577377Y-14435642D01*
X14558330Y-14407070D01*
X14548806Y-14388023D01*
X14539282Y-14359451D01*
X14529758Y-14311832D01*
X14529758Y-14273737D01*
X14539282Y-14226118D01*
X14548806Y-14197546D01*
X14558330Y-14178499D01*
X14577377Y-14149927D01*
X14586901Y-14140403D01*
X14644044Y-14168975D02*
X14767853Y-14168975D01*
X14701187Y-14245165D01*
X14729758Y-14245165D01*
X14748806Y-14254689D01*
X14758330Y-14264213D01*
X14767853Y-14283261D01*
X14767853Y-14330880D01*
X14758330Y-14349927D01*
X14748806Y-14359451D01*
X14729758Y-14368975D01*
X14672615Y-14368975D01*
X14653568Y-14359451D01*
X14644044Y-14349927D01*
X15005949Y-14368975D02*
X15005949Y-14168975D01*
X15091663Y-14368975D02*
X15091663Y-14264213D01*
X15082139Y-14245165D01*
X15063091Y-14235642D01*
X15034520Y-14235642D01*
X15015472Y-14245165D01*
X15005949Y-14254689D01*
X15215472Y-14368975D02*
X15196425Y-14359451D01*
X15186901Y-14349927D01*
X15177377Y-14330880D01*
X15177377Y-14273737D01*
X15186901Y-14254689D01*
X15196425Y-14245165D01*
X15215472Y-14235642D01*
X15244044Y-14235642D01*
X15263091Y-14245165D01*
X15272615Y-14254689D01*
X15282139Y-14273737D01*
X15282139Y-14330880D01*
X15272615Y-14349927D01*
X15263091Y-14359451D01*
X15244044Y-14368975D01*
X15215472Y-14368975D01*
X15396425Y-14368975D02*
X15377377Y-14359451D01*
X15367853Y-14340403D01*
X15367853Y-14168975D01*
X15548806Y-14359451D02*
X15529758Y-14368975D01*
X15491663Y-14368975D01*
X15472615Y-14359451D01*
X15463091Y-14340403D01*
X15463091Y-14264213D01*
X15472615Y-14245165D01*
X15491663Y-14235642D01*
X15529758Y-14235642D01*
X15548806Y-14245165D01*
X15558330Y-14264213D01*
X15558330Y-14283261D01*
X15463091Y-14302308D01*
X15634520Y-14359451D02*
X15653568Y-14368975D01*
X15691663Y-14368975D01*
X15710710Y-14359451D01*
X15720234Y-14340403D01*
X15720234Y-14330880D01*
X15710710Y-14311832D01*
X15691663Y-14302308D01*
X15663091Y-14302308D01*
X15644044Y-14292784D01*
X15634520Y-14273737D01*
X15634520Y-14264213D01*
X15644044Y-14245165D01*
X15663091Y-14235642D01*
X15691663Y-14235642D01*
X15710710Y-14245165D01*
X15786901Y-14445165D02*
X15796425Y-14435642D01*
X15815472Y-14407070D01*
X15824996Y-14388023D01*
X15834520Y-14359451D01*
X15844044Y-14311832D01*
X15844044Y-14273737D01*
X15834520Y-14226118D01*
X15824996Y-14197546D01*
X15815472Y-14178499D01*
X15796425Y-14149927D01*
X15786901Y-14140403D01*
D16*
X10964996Y-14592499D02*
X11014996Y-14542499D01*
X10964996Y-14492499D01*
X10914996Y-14542499D01*
X10964996Y-14592499D01*
D11*
X11377377Y-14632975D02*
X11263091Y-14632975D01*
X11320234Y-14632975D02*
X11320234Y-14432975D01*
X11301187Y-14461546D01*
X11282139Y-14480594D01*
X11263091Y-14490118D01*
X11463091Y-14613927D02*
X11472615Y-14623451D01*
X11463091Y-14632975D01*
X11453568Y-14623451D01*
X11463091Y-14613927D01*
X11463091Y-14632975D01*
X11596425Y-14432975D02*
X11615472Y-14432975D01*
X11634520Y-14442499D01*
X11644044Y-14452023D01*
X11653568Y-14471070D01*
X11663091Y-14509165D01*
X11663091Y-14556784D01*
X11653568Y-14594880D01*
X11644044Y-14613927D01*
X11634520Y-14623451D01*
X11615472Y-14632975D01*
X11596425Y-14632975D01*
X11577377Y-14623451D01*
X11567853Y-14613927D01*
X11558330Y-14594880D01*
X11548806Y-14556784D01*
X11548806Y-14509165D01*
X11558330Y-14471070D01*
X11567853Y-14452023D01*
X11577377Y-14442499D01*
X11596425Y-14432975D01*
X11786901Y-14432975D02*
X11805949Y-14432975D01*
X11824996Y-14442499D01*
X11834520Y-14452023D01*
X11844044Y-14471070D01*
X11853568Y-14509165D01*
X11853568Y-14556784D01*
X11844044Y-14594880D01*
X11834520Y-14613927D01*
X11824996Y-14623451D01*
X11805949Y-14632975D01*
X11786901Y-14632975D01*
X11767853Y-14623451D01*
X11758330Y-14613927D01*
X11748806Y-14594880D01*
X11739282Y-14556784D01*
X11739282Y-14509165D01*
X11748806Y-14471070D01*
X11758330Y-14452023D01*
X11767853Y-14442499D01*
X11786901Y-14432975D01*
X11977377Y-14432975D02*
X11996425Y-14432975D01*
X12015472Y-14442499D01*
X12024996Y-14452023D01*
X12034520Y-14471070D01*
X12044044Y-14509165D01*
X12044044Y-14556784D01*
X12034520Y-14594880D01*
X12024996Y-14613927D01*
X12015472Y-14623451D01*
X11996425Y-14632975D01*
X11977377Y-14632975D01*
X11958330Y-14623451D01*
X11948806Y-14613927D01*
X11939282Y-14594880D01*
X11929758Y-14556784D01*
X11929758Y-14509165D01*
X11939282Y-14471070D01*
X11948806Y-14452023D01*
X11958330Y-14442499D01*
X11977377Y-14432975D01*
X12129758Y-14632975D02*
X12129758Y-14499642D01*
X12129758Y-14518689D02*
X12139282Y-14509165D01*
X12158330Y-14499642D01*
X12186901Y-14499642D01*
X12205949Y-14509165D01*
X12215472Y-14528213D01*
X12215472Y-14632975D01*
X12215472Y-14528213D02*
X12224996Y-14509165D01*
X12244044Y-14499642D01*
X12272615Y-14499642D01*
X12291663Y-14509165D01*
X12301187Y-14528213D01*
X12301187Y-14632975D01*
X12396425Y-14632975D02*
X12396425Y-14499642D01*
X12396425Y-14518689D02*
X12405949Y-14509165D01*
X12424996Y-14499642D01*
X12453568Y-14499642D01*
X12472615Y-14509165D01*
X12482139Y-14528213D01*
X12482139Y-14632975D01*
X12482139Y-14528213D02*
X12491663Y-14509165D01*
X12510710Y-14499642D01*
X12539282Y-14499642D01*
X12558330Y-14509165D01*
X12567853Y-14528213D01*
X12567853Y-14632975D01*
X12958330Y-14423451D02*
X12786901Y-14680594D01*
X13215472Y-14432975D02*
X13234520Y-14432975D01*
X13253568Y-14442499D01*
X13263091Y-14452023D01*
X13272615Y-14471070D01*
X13282139Y-14509165D01*
X13282139Y-14556784D01*
X13272615Y-14594880D01*
X13263091Y-14613927D01*
X13253568Y-14623451D01*
X13234520Y-14632975D01*
X13215472Y-14632975D01*
X13196425Y-14623451D01*
X13186901Y-14613927D01*
X13177377Y-14594880D01*
X13167853Y-14556784D01*
X13167853Y-14509165D01*
X13177377Y-14471070D01*
X13186901Y-14452023D01*
X13196425Y-14442499D01*
X13215472Y-14432975D01*
X13367853Y-14613927D02*
X13377377Y-14623451D01*
X13367853Y-14632975D01*
X13358330Y-14623451D01*
X13367853Y-14613927D01*
X13367853Y-14632975D01*
X13501187Y-14432975D02*
X13520234Y-14432975D01*
X13539282Y-14442499D01*
X13548806Y-14452023D01*
X13558330Y-14471070D01*
X13567853Y-14509165D01*
X13567853Y-14556784D01*
X13558330Y-14594880D01*
X13548806Y-14613927D01*
X13539282Y-14623451D01*
X13520234Y-14632975D01*
X13501187Y-14632975D01*
X13482139Y-14623451D01*
X13472615Y-14613927D01*
X13463091Y-14594880D01*
X13453568Y-14556784D01*
X13453568Y-14509165D01*
X13463091Y-14471070D01*
X13472615Y-14452023D01*
X13482139Y-14442499D01*
X13501187Y-14432975D01*
X13634520Y-14432975D02*
X13758330Y-14432975D01*
X13691663Y-14509165D01*
X13720234Y-14509165D01*
X13739282Y-14518689D01*
X13748806Y-14528213D01*
X13758330Y-14547261D01*
X13758330Y-14594880D01*
X13748806Y-14613927D01*
X13739282Y-14623451D01*
X13720234Y-14632975D01*
X13663091Y-14632975D01*
X13644044Y-14623451D01*
X13634520Y-14613927D01*
X13853568Y-14632975D02*
X13891663Y-14632975D01*
X13910710Y-14623451D01*
X13920234Y-14613927D01*
X13939282Y-14585356D01*
X13948806Y-14547261D01*
X13948806Y-14471070D01*
X13939282Y-14452023D01*
X13929758Y-14442499D01*
X13910710Y-14432975D01*
X13872615Y-14432975D01*
X13853568Y-14442499D01*
X13844044Y-14452023D01*
X13834520Y-14471070D01*
X13834520Y-14518689D01*
X13844044Y-14537737D01*
X13853568Y-14547261D01*
X13872615Y-14556784D01*
X13910710Y-14556784D01*
X13929758Y-14547261D01*
X13939282Y-14537737D01*
X13948806Y-14518689D01*
X14120234Y-14499642D02*
X14120234Y-14632975D01*
X14072615Y-14423451D02*
X14024996Y-14566308D01*
X14148806Y-14566308D01*
X14215472Y-14432975D02*
X14215472Y-14471070D01*
X14291663Y-14432975D02*
X14291663Y-14471070D01*
X14586901Y-14709165D02*
X14577377Y-14699642D01*
X14558330Y-14671070D01*
X14548806Y-14652023D01*
X14539282Y-14623451D01*
X14529758Y-14575832D01*
X14529758Y-14537737D01*
X14539282Y-14490118D01*
X14548806Y-14461546D01*
X14558330Y-14442499D01*
X14577377Y-14413927D01*
X14586901Y-14404403D01*
X14767853Y-14632975D02*
X14653568Y-14632975D01*
X14710710Y-14632975D02*
X14710710Y-14432975D01*
X14691663Y-14461546D01*
X14672615Y-14480594D01*
X14653568Y-14490118D01*
X14958330Y-14632975D02*
X14844044Y-14632975D01*
X14901187Y-14632975D02*
X14901187Y-14432975D01*
X14882139Y-14461546D01*
X14863091Y-14480594D01*
X14844044Y-14490118D01*
X15196425Y-14632975D02*
X15196425Y-14432975D01*
X15282139Y-14632975D02*
X15282139Y-14528213D01*
X15272615Y-14509165D01*
X15253568Y-14499642D01*
X15224996Y-14499642D01*
X15205949Y-14509165D01*
X15196425Y-14518689D01*
X15405949Y-14632975D02*
X15386901Y-14623451D01*
X15377377Y-14613927D01*
X15367853Y-14594880D01*
X15367853Y-14537737D01*
X15377377Y-14518689D01*
X15386901Y-14509165D01*
X15405949Y-14499642D01*
X15434520Y-14499642D01*
X15453568Y-14509165D01*
X15463091Y-14518689D01*
X15472615Y-14537737D01*
X15472615Y-14594880D01*
X15463091Y-14613927D01*
X15453568Y-14623451D01*
X15434520Y-14632975D01*
X15405949Y-14632975D01*
X15586901Y-14632975D02*
X15567853Y-14623451D01*
X15558330Y-14604403D01*
X15558330Y-14432975D01*
X15739282Y-14623451D02*
X15720234Y-14632975D01*
X15682139Y-14632975D01*
X15663091Y-14623451D01*
X15653568Y-14604403D01*
X15653568Y-14528213D01*
X15663091Y-14509165D01*
X15682139Y-14499642D01*
X15720234Y-14499642D01*
X15739282Y-14509165D01*
X15748806Y-14528213D01*
X15748806Y-14547261D01*
X15653568Y-14566308D01*
X15824996Y-14623451D02*
X15844044Y-14632975D01*
X15882139Y-14632975D01*
X15901187Y-14623451D01*
X15910710Y-14604403D01*
X15910710Y-14594880D01*
X15901187Y-14575832D01*
X15882139Y-14566308D01*
X15853568Y-14566308D01*
X15834520Y-14556784D01*
X15824996Y-14537737D01*
X15824996Y-14528213D01*
X15834520Y-14509165D01*
X15853568Y-14499642D01*
X15882139Y-14499642D01*
X15901187Y-14509165D01*
X15977377Y-14709165D02*
X15986901Y-14699642D01*
X16005949Y-14671070D01*
X16015472Y-14652023D01*
X16024996Y-14623451D01*
X16034520Y-14575832D01*
X16034520Y-14537737D01*
X16024996Y-14490118D01*
X16015472Y-14461546D01*
X16005949Y-14442499D01*
X15986901Y-14413927D01*
X15977377Y-14404403D01*
D17*
X10894996Y-14746499D02*
X11014996Y-14866499D01*
X11014996Y-14746499D02*
X10894996Y-14866499D01*
X11014996Y-14806499D02*
G75*
G03*
X11014996Y-14806499I-60000J0D01*
G01*
D11*
X11377377Y-14896975D02*
X11263091Y-14896975D01*
X11320234Y-14896975D02*
X11320234Y-14696975D01*
X11301187Y-14725546D01*
X11282139Y-14744594D01*
X11263091Y-14754118D01*
X11463091Y-14877927D02*
X11472615Y-14887451D01*
X11463091Y-14896975D01*
X11453568Y-14887451D01*
X11463091Y-14877927D01*
X11463091Y-14896975D01*
X11548806Y-14716023D02*
X11558330Y-14706499D01*
X11577377Y-14696975D01*
X11624996Y-14696975D01*
X11644044Y-14706499D01*
X11653568Y-14716023D01*
X11663091Y-14735070D01*
X11663091Y-14754118D01*
X11653568Y-14782689D01*
X11539282Y-14896975D01*
X11663091Y-14896975D01*
X11786901Y-14696975D02*
X11805949Y-14696975D01*
X11824996Y-14706499D01*
X11834520Y-14716023D01*
X11844044Y-14735070D01*
X11853568Y-14773165D01*
X11853568Y-14820784D01*
X11844044Y-14858880D01*
X11834520Y-14877927D01*
X11824996Y-14887451D01*
X11805949Y-14896975D01*
X11786901Y-14896975D01*
X11767853Y-14887451D01*
X11758330Y-14877927D01*
X11748806Y-14858880D01*
X11739282Y-14820784D01*
X11739282Y-14773165D01*
X11748806Y-14735070D01*
X11758330Y-14716023D01*
X11767853Y-14706499D01*
X11786901Y-14696975D01*
X11977377Y-14696975D02*
X11996425Y-14696975D01*
X12015472Y-14706499D01*
X12024996Y-14716023D01*
X12034520Y-14735070D01*
X12044044Y-14773165D01*
X12044044Y-14820784D01*
X12034520Y-14858880D01*
X12024996Y-14877927D01*
X12015472Y-14887451D01*
X11996425Y-14896975D01*
X11977377Y-14896975D01*
X11958330Y-14887451D01*
X11948806Y-14877927D01*
X11939282Y-14858880D01*
X11929758Y-14820784D01*
X11929758Y-14773165D01*
X11939282Y-14735070D01*
X11948806Y-14716023D01*
X11958330Y-14706499D01*
X11977377Y-14696975D01*
X12129758Y-14896975D02*
X12129758Y-14763642D01*
X12129758Y-14782689D02*
X12139282Y-14773165D01*
X12158330Y-14763642D01*
X12186901Y-14763642D01*
X12205949Y-14773165D01*
X12215472Y-14792213D01*
X12215472Y-14896975D01*
X12215472Y-14792213D02*
X12224996Y-14773165D01*
X12244044Y-14763642D01*
X12272615Y-14763642D01*
X12291663Y-14773165D01*
X12301187Y-14792213D01*
X12301187Y-14896975D01*
X12396425Y-14896975D02*
X12396425Y-14763642D01*
X12396425Y-14782689D02*
X12405949Y-14773165D01*
X12424996Y-14763642D01*
X12453568Y-14763642D01*
X12472615Y-14773165D01*
X12482139Y-14792213D01*
X12482139Y-14896975D01*
X12482139Y-14792213D02*
X12491663Y-14773165D01*
X12510710Y-14763642D01*
X12539282Y-14763642D01*
X12558330Y-14773165D01*
X12567853Y-14792213D01*
X12567853Y-14896975D01*
X12958330Y-14687451D02*
X12786901Y-14944594D01*
X13215472Y-14696975D02*
X13234520Y-14696975D01*
X13253568Y-14706499D01*
X13263091Y-14716023D01*
X13272615Y-14735070D01*
X13282139Y-14773165D01*
X13282139Y-14820784D01*
X13272615Y-14858880D01*
X13263091Y-14877927D01*
X13253568Y-14887451D01*
X13234520Y-14896975D01*
X13215472Y-14896975D01*
X13196425Y-14887451D01*
X13186901Y-14877927D01*
X13177377Y-14858880D01*
X13167853Y-14820784D01*
X13167853Y-14773165D01*
X13177377Y-14735070D01*
X13186901Y-14716023D01*
X13196425Y-14706499D01*
X13215472Y-14696975D01*
X13367853Y-14877927D02*
X13377377Y-14887451D01*
X13367853Y-14896975D01*
X13358330Y-14887451D01*
X13367853Y-14877927D01*
X13367853Y-14896975D01*
X13501187Y-14696975D02*
X13520234Y-14696975D01*
X13539282Y-14706499D01*
X13548806Y-14716023D01*
X13558330Y-14735070D01*
X13567853Y-14773165D01*
X13567853Y-14820784D01*
X13558330Y-14858880D01*
X13548806Y-14877927D01*
X13539282Y-14887451D01*
X13520234Y-14896975D01*
X13501187Y-14896975D01*
X13482139Y-14887451D01*
X13472615Y-14877927D01*
X13463091Y-14858880D01*
X13453568Y-14820784D01*
X13453568Y-14773165D01*
X13463091Y-14735070D01*
X13472615Y-14716023D01*
X13482139Y-14706499D01*
X13501187Y-14696975D01*
X13739282Y-14763642D02*
X13739282Y-14896975D01*
X13691663Y-14687451D02*
X13644044Y-14830308D01*
X13767853Y-14830308D01*
X13824996Y-14696975D02*
X13958330Y-14696975D01*
X13872615Y-14896975D01*
X14024996Y-14716023D02*
X14034520Y-14706499D01*
X14053568Y-14696975D01*
X14101187Y-14696975D01*
X14120234Y-14706499D01*
X14129758Y-14716023D01*
X14139282Y-14735070D01*
X14139282Y-14754118D01*
X14129758Y-14782689D01*
X14015472Y-14896975D01*
X14139282Y-14896975D01*
X14215472Y-14696975D02*
X14215472Y-14735070D01*
X14291663Y-14696975D02*
X14291663Y-14735070D01*
X14586901Y-14973165D02*
X14577377Y-14963642D01*
X14558330Y-14935070D01*
X14548806Y-14916023D01*
X14539282Y-14887451D01*
X14529758Y-14839832D01*
X14529758Y-14801737D01*
X14539282Y-14754118D01*
X14548806Y-14725546D01*
X14558330Y-14706499D01*
X14577377Y-14677927D01*
X14586901Y-14668403D01*
X14653568Y-14716023D02*
X14663091Y-14706499D01*
X14682139Y-14696975D01*
X14729758Y-14696975D01*
X14748806Y-14706499D01*
X14758330Y-14716023D01*
X14767853Y-14735070D01*
X14767853Y-14754118D01*
X14758330Y-14782689D01*
X14644044Y-14896975D01*
X14767853Y-14896975D01*
X15005949Y-14896975D02*
X15005949Y-14696975D01*
X15091663Y-14896975D02*
X15091663Y-14792213D01*
X15082139Y-14773165D01*
X15063091Y-14763642D01*
X15034520Y-14763642D01*
X15015472Y-14773165D01*
X15005949Y-14782689D01*
X15215472Y-14896975D02*
X15196425Y-14887451D01*
X15186901Y-14877927D01*
X15177377Y-14858880D01*
X15177377Y-14801737D01*
X15186901Y-14782689D01*
X15196425Y-14773165D01*
X15215472Y-14763642D01*
X15244044Y-14763642D01*
X15263091Y-14773165D01*
X15272615Y-14782689D01*
X15282139Y-14801737D01*
X15282139Y-14858880D01*
X15272615Y-14877927D01*
X15263091Y-14887451D01*
X15244044Y-14896975D01*
X15215472Y-14896975D01*
X15396425Y-14896975D02*
X15377377Y-14887451D01*
X15367853Y-14868403D01*
X15367853Y-14696975D01*
X15548806Y-14887451D02*
X15529758Y-14896975D01*
X15491663Y-14896975D01*
X15472615Y-14887451D01*
X15463091Y-14868403D01*
X15463091Y-14792213D01*
X15472615Y-14773165D01*
X15491663Y-14763642D01*
X15529758Y-14763642D01*
X15548806Y-14773165D01*
X15558330Y-14792213D01*
X15558330Y-14811261D01*
X15463091Y-14830308D01*
X15634520Y-14887451D02*
X15653568Y-14896975D01*
X15691663Y-14896975D01*
X15710710Y-14887451D01*
X15720234Y-14868403D01*
X15720234Y-14858880D01*
X15710710Y-14839832D01*
X15691663Y-14830308D01*
X15663091Y-14830308D01*
X15644044Y-14820784D01*
X15634520Y-14801737D01*
X15634520Y-14792213D01*
X15644044Y-14773165D01*
X15663091Y-14763642D01*
X15691663Y-14763642D01*
X15710710Y-14773165D01*
X15786901Y-14973165D02*
X15796425Y-14963642D01*
X15815472Y-14935070D01*
X15824996Y-14916023D01*
X15834520Y-14887451D01*
X15844044Y-14839832D01*
X15844044Y-14801737D01*
X15834520Y-14754118D01*
X15824996Y-14725546D01*
X15815472Y-14706499D01*
X15796425Y-14677927D01*
X15786901Y-14668403D01*
M02*
