%TF.GenerationSoftware,KiCad,Pcbnew,(6.0.5)*%
%TF.CreationDate,2023-02-27T23:38:10+09:00*%
%TF.ProjectId,Kiker_PSU,4b696b65-725f-4505-9355-2e6b69636164,rev?*%
%TF.SameCoordinates,Original*%
%TF.FileFunction,Profile,NP*%
%FSLAX46Y46*%
G04 Gerber Fmt 4.6, Leading zero omitted, Abs format (unit mm)*
G04 Created by KiCad (PCBNEW (6.0.5)) date 2023-02-27 23:38:10*
%MOMM*%
%LPD*%
G01*
G04 APERTURE LIST*
%TA.AperFunction,Profile*%
%ADD10C,0.200000*%
%TD*%
%TA.AperFunction,Profile*%
%ADD11C,0.120000*%
%TD*%
G04 APERTURE END LIST*
D10*
X114096731Y-73906906D02*
G75*
G03*
X111114380Y-75374920I-1000031J-1731794D01*
G01*
X163439876Y-82476163D02*
X136808684Y-67100722D01*
X114596920Y-75638634D02*
G75*
G03*
X114596920Y-75638634I-1500000J0D01*
G01*
X134076680Y-67832720D02*
X131701545Y-71946572D01*
X117358651Y-75790050D02*
X114096709Y-73906945D01*
X144706222Y-126188220D02*
G75*
G03*
X144706222Y-126188220I-1500000J0D01*
G01*
X149329180Y-96598220D02*
G75*
G03*
X149329180Y-96598220I-1600000J0D01*
G01*
X121183574Y-125669237D02*
G75*
G03*
X121183574Y-125669237I-1500000J0D01*
G01*
X136808701Y-67100693D02*
G75*
G03*
X134076680Y-67832720I-1000001J-1732007D01*
G01*
X138610013Y-124420446D02*
G75*
G03*
X123760777Y-124420455I-7424613J-7424654D01*
G01*
X117837175Y-126436941D02*
G75*
G03*
X121097783Y-127083447I1846525J767241D01*
G01*
X111114351Y-75374916D02*
G75*
G03*
X117836840Y-126437080I98135349J-13053784D01*
G01*
X164432172Y-84387844D02*
G75*
G03*
X163439876Y-82476163I-1992472J179144D01*
G01*
X117358651Y-75790050D02*
G75*
G03*
X131701545Y-71946572I5249629J9093480D01*
G01*
X144797206Y-127779204D02*
X166541351Y-106034871D01*
X121097783Y-127083447D02*
X123760777Y-124420455D01*
X141968785Y-127779195D02*
G75*
G03*
X144797206Y-127779204I1414215J1414195D01*
G01*
X137183730Y-69049226D02*
G75*
G03*
X137183730Y-69049226I-1500000J0D01*
G01*
X138610021Y-124420438D02*
X141968785Y-127779195D01*
X165397952Y-102551120D02*
G75*
G03*
X165397952Y-102551120I-1500000J0D01*
G01*
X166541333Y-106034853D02*
G75*
G03*
X167004800Y-103931730I-1413633J1414153D01*
G01*
X164431772Y-84387808D02*
G75*
G03*
X167004800Y-103931730I44817928J-4040892D01*
G01*
D11*
%TO.C,Q1*%
X143840000Y-76891000D02*
G75*
G03*
X143840000Y-76891000I-1600000J0D01*
G01*
%TD*%
M02*
