%TF.GenerationSoftware,KiCad,Pcbnew,(6.0.5)*%
%TF.CreationDate,2023-02-27T23:38:10+09:00*%
%TF.ProjectId,Kiker_PSU,4b696b65-725f-4505-9355-2e6b69636164,rev?*%
%TF.SameCoordinates,Original*%
%TF.FileFunction,Legend,Top*%
%TF.FilePolarity,Positive*%
%FSLAX46Y46*%
G04 Gerber Fmt 4.6, Leading zero omitted, Abs format (unit mm)*
G04 Created by KiCad (PCBNEW (6.0.5)) date 2023-02-27 23:38:10*
%MOMM*%
%LPD*%
G01*
G04 APERTURE LIST*
%ADD10C,0.300000*%
%ADD11C,0.150000*%
%ADD12C,0.120000*%
G04 APERTURE END LIST*
D10*
X132414238Y-107977952D02*
X135152333Y-107977952D01*
X132652333Y-108335095D02*
X134914238Y-108335095D01*
X132176142Y-108692238D02*
X135271380Y-108692238D01*
X132295190Y-109763666D02*
X135033285Y-109763666D01*
X133723761Y-107620809D02*
X133723761Y-108692238D01*
X133723761Y-109763666D02*
X133723761Y-110477952D01*
X134199952Y-108930333D02*
X133009476Y-109763666D01*
X133485666Y-108692238D02*
X133009476Y-109287476D01*
X134319000Y-109406523D02*
X135271380Y-109763666D01*
X134438047Y-110001761D02*
X135271380Y-110358904D01*
X132890428Y-109287476D02*
X133485666Y-109525571D01*
X133128523Y-110001761D02*
X132176142Y-110358904D01*
X137414238Y-107858904D02*
X137295190Y-109168428D01*
X136819000Y-109882714D01*
X136342809Y-110239857D01*
X135866619Y-110477952D01*
X137295190Y-109168428D02*
X138009476Y-109763666D01*
X138604714Y-110239857D01*
X139080904Y-110477952D01*
X139557095Y-108216047D02*
X142652333Y-108216047D01*
X139795190Y-109049380D02*
X142414238Y-109049380D01*
X140509476Y-110477952D02*
X141819000Y-110477952D01*
X140628523Y-109644619D02*
X140628523Y-110477952D01*
X141104714Y-107620809D02*
X141104714Y-108930333D01*
X140747571Y-109287476D02*
X141342809Y-109525571D01*
X142057095Y-109644619D02*
X142652333Y-110239857D01*
X141819000Y-110120809D02*
X141819000Y-110477952D01*
X140033285Y-109644619D02*
X139676142Y-110358904D01*
X144080904Y-109763666D02*
X145509476Y-109763666D01*
X145509476Y-110477952D02*
X146342809Y-110477952D01*
X143247571Y-108216047D02*
X143247571Y-110477952D01*
X144080904Y-108930333D02*
X144080904Y-110001761D01*
X144080904Y-108930333D02*
X145509476Y-108930333D01*
X145509476Y-109763666D01*
X143247571Y-108216047D02*
X146342809Y-108216047D01*
X146342809Y-110477952D01*
X144557095Y-107620809D02*
X144319000Y-108216047D01*
D11*
X127635095Y-76800000D02*
X127539857Y-76752380D01*
X127397000Y-76752380D01*
X127254142Y-76800000D01*
X127158904Y-76895238D01*
X127111285Y-76990476D01*
X127063666Y-77180952D01*
X127063666Y-77323809D01*
X127111285Y-77514285D01*
X127158904Y-77609523D01*
X127254142Y-77704761D01*
X127397000Y-77752380D01*
X127492238Y-77752380D01*
X127635095Y-77704761D01*
X127682714Y-77657142D01*
X127682714Y-77323809D01*
X127492238Y-77323809D01*
X128111285Y-77752380D02*
X128111285Y-76752380D01*
X128682714Y-77752380D01*
X128682714Y-76752380D01*
X129158904Y-77752380D02*
X129158904Y-76752380D01*
X129397000Y-76752380D01*
X129539857Y-76800000D01*
X129635095Y-76895238D01*
X129682714Y-76990476D01*
X129730333Y-77180952D01*
X129730333Y-77323809D01*
X129682714Y-77514285D01*
X129635095Y-77609523D01*
X129539857Y-77704761D01*
X129397000Y-77752380D01*
X129158904Y-77752380D01*
X126682714Y-78981428D02*
X127444619Y-78981428D01*
X127063666Y-79362380D02*
X127063666Y-78600476D01*
X128349380Y-78695714D02*
X128349380Y-79362380D01*
X128111285Y-78314761D02*
X127873190Y-79029047D01*
X128492238Y-79029047D01*
X129016047Y-78790952D02*
X128920809Y-78743333D01*
X128873190Y-78695714D01*
X128825571Y-78600476D01*
X128825571Y-78552857D01*
X128873190Y-78457619D01*
X128920809Y-78410000D01*
X129016047Y-78362380D01*
X129206523Y-78362380D01*
X129301761Y-78410000D01*
X129349380Y-78457619D01*
X129397000Y-78552857D01*
X129397000Y-78600476D01*
X129349380Y-78695714D01*
X129301761Y-78743333D01*
X129206523Y-78790952D01*
X129016047Y-78790952D01*
X128920809Y-78838571D01*
X128873190Y-78886190D01*
X128825571Y-78981428D01*
X128825571Y-79171904D01*
X128873190Y-79267142D01*
X128920809Y-79314761D01*
X129016047Y-79362380D01*
X129206523Y-79362380D01*
X129301761Y-79314761D01*
X129349380Y-79267142D01*
X129397000Y-79171904D01*
X129397000Y-78981428D01*
X129349380Y-78886190D01*
X129301761Y-78838571D01*
X129206523Y-78790952D01*
X129730333Y-78695714D02*
X129968428Y-79362380D01*
X130206523Y-78695714D01*
%TO.C,D1*%
X150566380Y-87606095D02*
X149566380Y-87606095D01*
X149566380Y-87368000D01*
X149614000Y-87225142D01*
X149709238Y-87129904D01*
X149804476Y-87082285D01*
X149994952Y-87034666D01*
X150137809Y-87034666D01*
X150328285Y-87082285D01*
X150423523Y-87129904D01*
X150518761Y-87225142D01*
X150566380Y-87368000D01*
X150566380Y-87606095D01*
X150566380Y-86082285D02*
X150566380Y-86653714D01*
X150566380Y-86368000D02*
X149566380Y-86368000D01*
X149709238Y-86463238D01*
X149804476Y-86558476D01*
X149852095Y-86653714D01*
X150693380Y-89669904D02*
X149693380Y-89669904D01*
X150693380Y-89098476D02*
X150121952Y-89527047D01*
X149693380Y-89098476D02*
X150264809Y-89669904D01*
%TO.C,R3*%
X130516333Y-88336380D02*
X130183000Y-87860190D01*
X129944904Y-88336380D02*
X129944904Y-87336380D01*
X130325857Y-87336380D01*
X130421095Y-87384000D01*
X130468714Y-87431619D01*
X130516333Y-87526857D01*
X130516333Y-87669714D01*
X130468714Y-87764952D01*
X130421095Y-87812571D01*
X130325857Y-87860190D01*
X129944904Y-87860190D01*
X130849666Y-87336380D02*
X131468714Y-87336380D01*
X131135380Y-87717333D01*
X131278238Y-87717333D01*
X131373476Y-87764952D01*
X131421095Y-87812571D01*
X131468714Y-87907809D01*
X131468714Y-88145904D01*
X131421095Y-88241142D01*
X131373476Y-88288761D01*
X131278238Y-88336380D01*
X130992523Y-88336380D01*
X130897285Y-88288761D01*
X130849666Y-88241142D01*
X120936190Y-86122261D02*
X119983809Y-86122261D01*
X119888571Y-87074642D01*
X119983809Y-86979404D01*
X120174285Y-86884166D01*
X120650476Y-86884166D01*
X120840952Y-86979404D01*
X120936190Y-87074642D01*
X121031428Y-87265119D01*
X121031428Y-87741309D01*
X120936190Y-87931785D01*
X120840952Y-88027023D01*
X120650476Y-88122261D01*
X120174285Y-88122261D01*
X119983809Y-88027023D01*
X119888571Y-87931785D01*
X121698095Y-86122261D02*
X122174285Y-88122261D01*
X122555238Y-86693690D01*
X122936190Y-88122261D01*
X123412380Y-86122261D01*
X125221904Y-88122261D02*
X124079047Y-88122261D01*
X124650476Y-88122261D02*
X124650476Y-86122261D01*
X124460000Y-86407976D01*
X124269523Y-86598452D01*
X124079047Y-86693690D01*
X125983809Y-88122261D02*
X126460000Y-88122261D01*
X126460000Y-87741309D01*
X126269523Y-87646071D01*
X126079047Y-87455595D01*
X125983809Y-87169880D01*
X125983809Y-86693690D01*
X126079047Y-86407976D01*
X126269523Y-86217500D01*
X126555238Y-86122261D01*
X126936190Y-86122261D01*
X127221904Y-86217500D01*
X127412380Y-86407976D01*
X127507619Y-86693690D01*
X127507619Y-87169880D01*
X127412380Y-87455595D01*
X127221904Y-87646071D01*
X127031428Y-87741309D01*
X127031428Y-88122261D01*
X127507619Y-88122261D01*
X128936190Y-86122261D02*
X128936190Y-87550833D01*
X128840952Y-87836547D01*
X128650476Y-88027023D01*
X128364761Y-88122261D01*
X128174285Y-88122261D01*
%TO.C,U1*%
X159797619Y-88138095D02*
X158988095Y-88138095D01*
X158892857Y-88185714D01*
X158845238Y-88233333D01*
X158797619Y-88328571D01*
X158797619Y-88519047D01*
X158845238Y-88614285D01*
X158892857Y-88661904D01*
X158988095Y-88709523D01*
X159797619Y-88709523D01*
X158797619Y-89709523D02*
X158797619Y-89138095D01*
X158797619Y-89423809D02*
X159797619Y-89423809D01*
X159654761Y-89328571D01*
X159559523Y-89233333D01*
X159511904Y-89138095D01*
X132763285Y-95297761D02*
X134096619Y-97297761D01*
X134096619Y-95297761D02*
X132763285Y-97297761D01*
X135810904Y-97297761D02*
X134858523Y-97297761D01*
X134858523Y-95297761D01*
X137334714Y-95297761D02*
X136953761Y-95297761D01*
X136763285Y-95393000D01*
X136668047Y-95488238D01*
X136477571Y-95773952D01*
X136382333Y-96154904D01*
X136382333Y-96916809D01*
X136477571Y-97107285D01*
X136572809Y-97202523D01*
X136763285Y-97297761D01*
X137144238Y-97297761D01*
X137334714Y-97202523D01*
X137429952Y-97107285D01*
X137525190Y-96916809D01*
X137525190Y-96440619D01*
X137429952Y-96250142D01*
X137334714Y-96154904D01*
X137144238Y-96059666D01*
X136763285Y-96059666D01*
X136572809Y-96154904D01*
X136477571Y-96250142D01*
X136382333Y-96440619D01*
X138763285Y-95297761D02*
X138953761Y-95297761D01*
X139144238Y-95393000D01*
X139239476Y-95488238D01*
X139334714Y-95678714D01*
X139429952Y-96059666D01*
X139429952Y-96535857D01*
X139334714Y-96916809D01*
X139239476Y-97107285D01*
X139144238Y-97202523D01*
X138953761Y-97297761D01*
X138763285Y-97297761D01*
X138572809Y-97202523D01*
X138477571Y-97107285D01*
X138382333Y-96916809D01*
X138287095Y-96535857D01*
X138287095Y-96059666D01*
X138382333Y-95678714D01*
X138477571Y-95488238D01*
X138572809Y-95393000D01*
X138763285Y-95297761D01*
X140668047Y-95297761D02*
X140858523Y-95297761D01*
X141049000Y-95393000D01*
X141144238Y-95488238D01*
X141239476Y-95678714D01*
X141334714Y-96059666D01*
X141334714Y-96535857D01*
X141239476Y-96916809D01*
X141144238Y-97107285D01*
X141049000Y-97202523D01*
X140858523Y-97297761D01*
X140668047Y-97297761D01*
X140477571Y-97202523D01*
X140382333Y-97107285D01*
X140287095Y-96916809D01*
X140191857Y-96535857D01*
X140191857Y-96059666D01*
X140287095Y-95678714D01*
X140382333Y-95488238D01*
X140477571Y-95393000D01*
X140668047Y-95297761D01*
X142287095Y-97297761D02*
X142668047Y-97297761D01*
X142858523Y-97202523D01*
X142953761Y-97107285D01*
X143144238Y-96821571D01*
X143239476Y-96440619D01*
X143239476Y-95678714D01*
X143144238Y-95488238D01*
X143049000Y-95393000D01*
X142858523Y-95297761D01*
X142477571Y-95297761D01*
X142287095Y-95393000D01*
X142191857Y-95488238D01*
X142096619Y-95678714D01*
X142096619Y-96154904D01*
X142191857Y-96345380D01*
X142287095Y-96440619D01*
X142477571Y-96535857D01*
X142858523Y-96535857D01*
X143049000Y-96440619D01*
X143144238Y-96345380D01*
X143239476Y-96154904D01*
%TO.C,C1*%
X152757142Y-109319666D02*
X152804761Y-109367285D01*
X152852380Y-109510142D01*
X152852380Y-109605380D01*
X152804761Y-109748238D01*
X152709523Y-109843476D01*
X152614285Y-109891095D01*
X152423809Y-109938714D01*
X152280952Y-109938714D01*
X152090476Y-109891095D01*
X151995238Y-109843476D01*
X151900000Y-109748238D01*
X151852380Y-109605380D01*
X151852380Y-109510142D01*
X151900000Y-109367285D01*
X151947619Y-109319666D01*
X152852380Y-108367285D02*
X152852380Y-108938714D01*
X152852380Y-108653000D02*
X151852380Y-108653000D01*
X151995238Y-108748238D01*
X152090476Y-108843476D01*
X152138095Y-108938714D01*
%TO.C,Kiker*%
X164022380Y-88042857D02*
X163022380Y-88042857D01*
X164022380Y-87471428D02*
X163450952Y-87900000D01*
X163022380Y-87471428D02*
X163593809Y-88042857D01*
X164022380Y-87042857D02*
X163355714Y-87042857D01*
X163022380Y-87042857D02*
X163070000Y-87090476D01*
X163117619Y-87042857D01*
X163070000Y-86995238D01*
X163022380Y-87042857D01*
X163117619Y-87042857D01*
X164022380Y-86566666D02*
X163022380Y-86566666D01*
X163641428Y-86471428D02*
X164022380Y-86185714D01*
X163355714Y-86185714D02*
X163736666Y-86566666D01*
X163974761Y-85376190D02*
X164022380Y-85471428D01*
X164022380Y-85661904D01*
X163974761Y-85757142D01*
X163879523Y-85804761D01*
X163498571Y-85804761D01*
X163403333Y-85757142D01*
X163355714Y-85661904D01*
X163355714Y-85471428D01*
X163403333Y-85376190D01*
X163498571Y-85328571D01*
X163593809Y-85328571D01*
X163689047Y-85804761D01*
X164022380Y-84900000D02*
X163355714Y-84900000D01*
X163546190Y-84900000D02*
X163450952Y-84852380D01*
X163403333Y-84804761D01*
X163355714Y-84709523D01*
X163355714Y-84614285D01*
%TO.C,R1*%
X121123333Y-96210380D02*
X120790000Y-95734190D01*
X120551904Y-96210380D02*
X120551904Y-95210380D01*
X120932857Y-95210380D01*
X121028095Y-95258000D01*
X121075714Y-95305619D01*
X121123333Y-95400857D01*
X121123333Y-95543714D01*
X121075714Y-95638952D01*
X121028095Y-95686571D01*
X120932857Y-95734190D01*
X120551904Y-95734190D01*
X122075714Y-96210380D02*
X121504285Y-96210380D01*
X121790000Y-96210380D02*
X121790000Y-95210380D01*
X121694761Y-95353238D01*
X121599523Y-95448476D01*
X121504285Y-95496095D01*
%TO.C,R2*%
X128611333Y-96352380D02*
X128278000Y-95876190D01*
X128039904Y-96352380D02*
X128039904Y-95352380D01*
X128420857Y-95352380D01*
X128516095Y-95400000D01*
X128563714Y-95447619D01*
X128611333Y-95542857D01*
X128611333Y-95685714D01*
X128563714Y-95780952D01*
X128516095Y-95828571D01*
X128420857Y-95876190D01*
X128039904Y-95876190D01*
X128992285Y-95447619D02*
X129039904Y-95400000D01*
X129135142Y-95352380D01*
X129373238Y-95352380D01*
X129468476Y-95400000D01*
X129516095Y-95447619D01*
X129563714Y-95542857D01*
X129563714Y-95638095D01*
X129516095Y-95780952D01*
X128944666Y-96352380D01*
X129563714Y-96352380D01*
%TO.C,Q1*%
X142144761Y-82335619D02*
X142049523Y-82288000D01*
X141954285Y-82192761D01*
X141811428Y-82049904D01*
X141716190Y-82002285D01*
X141620952Y-82002285D01*
X141668571Y-82240380D02*
X141573333Y-82192761D01*
X141478095Y-82097523D01*
X141430476Y-81907047D01*
X141430476Y-81573714D01*
X141478095Y-81383238D01*
X141573333Y-81288000D01*
X141668571Y-81240380D01*
X141859047Y-81240380D01*
X141954285Y-81288000D01*
X142049523Y-81383238D01*
X142097142Y-81573714D01*
X142097142Y-81907047D01*
X142049523Y-82097523D01*
X141954285Y-82192761D01*
X141859047Y-82240380D01*
X141668571Y-82240380D01*
X143049523Y-82240380D02*
X142478095Y-82240380D01*
X142763809Y-82240380D02*
X142763809Y-81240380D01*
X142668571Y-81383238D01*
X142573333Y-81478476D01*
X142478095Y-81526095D01*
X139144761Y-83693380D02*
X139144761Y-82693380D01*
X139716190Y-83693380D02*
X139287619Y-83121952D01*
X139716190Y-82693380D02*
X139144761Y-83264809D01*
X140668571Y-83693380D02*
X140097142Y-83693380D01*
X140382857Y-83693380D02*
X140382857Y-82693380D01*
X140287619Y-82836238D01*
X140192380Y-82931476D01*
X140097142Y-82979095D01*
X141573333Y-82693380D02*
X141097142Y-82693380D01*
X141049523Y-83169571D01*
X141097142Y-83121952D01*
X141192380Y-83074333D01*
X141430476Y-83074333D01*
X141525714Y-83121952D01*
X141573333Y-83169571D01*
X141620952Y-83264809D01*
X141620952Y-83502904D01*
X141573333Y-83598142D01*
X141525714Y-83645761D01*
X141430476Y-83693380D01*
X141192380Y-83693380D01*
X141097142Y-83645761D01*
X141049523Y-83598142D01*
X142001904Y-83407666D02*
X142478095Y-83407666D01*
X141906666Y-83693380D02*
X142240000Y-82693380D01*
X142573333Y-83693380D01*
X142859047Y-82788619D02*
X142906666Y-82741000D01*
X143001904Y-82693380D01*
X143240000Y-82693380D01*
X143335238Y-82741000D01*
X143382857Y-82788619D01*
X143430476Y-82883857D01*
X143430476Y-82979095D01*
X143382857Y-83121952D01*
X142811428Y-83693380D01*
X143430476Y-83693380D01*
X144049523Y-82693380D02*
X144144761Y-82693380D01*
X144240000Y-82741000D01*
X144287619Y-82788619D01*
X144335238Y-82883857D01*
X144382857Y-83074333D01*
X144382857Y-83312428D01*
X144335238Y-83502904D01*
X144287619Y-83598142D01*
X144240000Y-83645761D01*
X144144761Y-83693380D01*
X144049523Y-83693380D01*
X143954285Y-83645761D01*
X143906666Y-83598142D01*
X143859047Y-83502904D01*
X143811428Y-83312428D01*
X143811428Y-83074333D01*
X143859047Y-82883857D01*
X143906666Y-82788619D01*
X143954285Y-82741000D01*
X144049523Y-82693380D01*
X144811428Y-83693380D02*
X144811428Y-82693380D01*
X145049523Y-82693380D01*
X145192380Y-82741000D01*
X145287619Y-82836238D01*
X145335238Y-82931476D01*
X145382857Y-83121952D01*
X145382857Y-83264809D01*
X145335238Y-83455285D01*
X145287619Y-83550523D01*
X145192380Y-83645761D01*
X145049523Y-83693380D01*
X144811428Y-83693380D01*
%TO.C,PSU*%
X164022380Y-97761904D02*
X163022380Y-97761904D01*
X163022380Y-97380952D01*
X163070000Y-97285714D01*
X163117619Y-97238095D01*
X163212857Y-97190476D01*
X163355714Y-97190476D01*
X163450952Y-97238095D01*
X163498571Y-97285714D01*
X163546190Y-97380952D01*
X163546190Y-97761904D01*
X163974761Y-96809523D02*
X164022380Y-96666666D01*
X164022380Y-96428571D01*
X163974761Y-96333333D01*
X163927142Y-96285714D01*
X163831904Y-96238095D01*
X163736666Y-96238095D01*
X163641428Y-96285714D01*
X163593809Y-96333333D01*
X163546190Y-96428571D01*
X163498571Y-96619047D01*
X163450952Y-96714285D01*
X163403333Y-96761904D01*
X163308095Y-96809523D01*
X163212857Y-96809523D01*
X163117619Y-96761904D01*
X163070000Y-96714285D01*
X163022380Y-96619047D01*
X163022380Y-96380952D01*
X163070000Y-96238095D01*
X163022380Y-95809523D02*
X163831904Y-95809523D01*
X163927142Y-95761904D01*
X163974761Y-95714285D01*
X164022380Y-95619047D01*
X164022380Y-95428571D01*
X163974761Y-95333333D01*
X163927142Y-95285714D01*
X163831904Y-95238095D01*
X163022380Y-95238095D01*
D12*
%TO.C,D1*%
X148321000Y-90283000D02*
X152161000Y-90283000D01*
X148321000Y-90163000D02*
X152161000Y-90163000D01*
X148321000Y-91423000D02*
X148321000Y-83583000D01*
X152161000Y-91423000D02*
X152161000Y-83583000D01*
X148321000Y-90043000D02*
X152161000Y-90043000D01*
X152161000Y-83583000D02*
X151681000Y-83583000D01*
X148321000Y-83583000D02*
X148801000Y-83583000D01*
X151681000Y-91423000D02*
X152161000Y-91423000D01*
X148801000Y-91423000D02*
X148321000Y-91423000D01*
%TO.C,R3*%
X114300000Y-82772500D02*
X114300000Y-91662500D01*
X134620000Y-82772500D02*
X134620000Y-91662500D01*
X114300000Y-91662500D02*
X134620000Y-91662500D01*
X134620000Y-82772500D02*
X114300000Y-82772500D01*
%TO.C,U1*%
X153670000Y-80010000D02*
X113030000Y-80010000D01*
X113030000Y-80010000D02*
X113030000Y-97790000D01*
X113030000Y-97790000D02*
X153670000Y-97790000D01*
X153670000Y-97790000D02*
X153670000Y-80010000D01*
%TO.C,C1*%
X164965000Y-109153000D02*
G75*
G03*
X164965000Y-109153000I-8120000J0D01*
G01*
%TO.C,Kiker*%
X161720000Y-83150000D02*
X162470000Y-83150000D01*
X161720000Y-89650000D02*
X161720000Y-91450000D01*
X161720000Y-88150000D02*
X162470000Y-88150000D01*
X162470000Y-83150000D02*
X162470000Y-81350000D01*
X156510000Y-81340000D02*
X156510000Y-91460000D01*
X160220000Y-81350000D02*
X160220000Y-82100000D01*
X157270000Y-90700000D02*
X157270000Y-86400000D01*
X157270000Y-82100000D02*
X157270000Y-86400000D01*
X162480000Y-91460000D02*
X162480000Y-81340000D01*
X162470000Y-81350000D02*
X161720000Y-81350000D01*
X161720000Y-91450000D02*
X162470000Y-91450000D01*
X162470000Y-84650000D02*
X161720000Y-84650000D01*
X161720000Y-84650000D02*
X161720000Y-88150000D01*
X162470000Y-89650000D02*
X161720000Y-89650000D01*
X162770000Y-82300000D02*
X162770000Y-81050000D01*
X160220000Y-82100000D02*
X157270000Y-82100000D01*
X162770000Y-81050000D02*
X161520000Y-81050000D01*
X156510000Y-91460000D02*
X162480000Y-91460000D01*
X161720000Y-81350000D02*
X161720000Y-83150000D01*
X162470000Y-88150000D02*
X162470000Y-84650000D01*
X160220000Y-90700000D02*
X157270000Y-90700000D01*
X162480000Y-81340000D02*
X156510000Y-81340000D01*
X162470000Y-91450000D02*
X162470000Y-89650000D01*
X160220000Y-91450000D02*
X160220000Y-90700000D01*
%TO.C,R1*%
X119370000Y-93060000D02*
X123210000Y-93060000D01*
X119370000Y-94900000D02*
X123210000Y-94900000D01*
%TO.C,R2*%
X130698000Y-93060000D02*
X126858000Y-93060000D01*
X130698000Y-94900000D02*
X126858000Y-94900000D01*
%TO.C,Q1*%
G36*
X145288000Y-89845000D02*
G01*
X144272000Y-89845000D01*
X144272000Y-88321000D01*
X145288000Y-88321000D01*
X145288000Y-89845000D01*
G37*
X145288000Y-89845000D02*
X144272000Y-89845000D01*
X144272000Y-88321000D01*
X145288000Y-88321000D01*
X145288000Y-89845000D01*
G36*
X140208000Y-89845000D02*
G01*
X139192000Y-89845000D01*
X139192000Y-88321000D01*
X140208000Y-88321000D01*
X140208000Y-89845000D01*
G37*
X140208000Y-89845000D02*
X139192000Y-89845000D01*
X139192000Y-88321000D01*
X140208000Y-88321000D01*
X140208000Y-89845000D01*
G36*
X142748000Y-89845000D02*
G01*
X141732000Y-89845000D01*
X141732000Y-88321000D01*
X142748000Y-88321000D01*
X142748000Y-89845000D01*
G37*
X142748000Y-89845000D02*
X141732000Y-89845000D01*
X141732000Y-88321000D01*
X142748000Y-88321000D01*
X142748000Y-89845000D01*
X147320000Y-73081000D02*
X147320000Y-88321000D01*
X137160000Y-73081000D02*
X147320000Y-73081000D01*
X137160000Y-80701000D02*
X147320000Y-80701000D01*
X137160000Y-88321000D02*
X137160000Y-73081000D01*
X147320000Y-88321000D02*
X137160000Y-88321000D01*
%TO.C,PSU*%
X162770000Y-92400000D02*
X161520000Y-92400000D01*
X162470000Y-97000000D02*
X162470000Y-96000000D01*
X162480000Y-100310000D02*
X162480000Y-92690000D01*
X161720000Y-100300000D02*
X162470000Y-100300000D01*
X161720000Y-96000000D02*
X161720000Y-97000000D01*
X161720000Y-97000000D02*
X162470000Y-97000000D01*
X161720000Y-98500000D02*
X161720000Y-100300000D01*
X161720000Y-92700000D02*
X161720000Y-94500000D01*
X160220000Y-92700000D02*
X160220000Y-93450000D01*
X160220000Y-93450000D02*
X157270000Y-93450000D01*
X160220000Y-99550000D02*
X157270000Y-99550000D01*
X162480000Y-92690000D02*
X156510000Y-92690000D01*
X162770000Y-93650000D02*
X162770000Y-92400000D01*
X162470000Y-96000000D02*
X161720000Y-96000000D01*
X161720000Y-94500000D02*
X162470000Y-94500000D01*
X162470000Y-92700000D02*
X161720000Y-92700000D01*
X156510000Y-92690000D02*
X156510000Y-100310000D01*
X160220000Y-100300000D02*
X160220000Y-99550000D01*
X162470000Y-94500000D02*
X162470000Y-92700000D01*
X162470000Y-100300000D02*
X162470000Y-98500000D01*
X157270000Y-99550000D02*
X157270000Y-96500000D01*
X162470000Y-98500000D02*
X161720000Y-98500000D01*
X157270000Y-93450000D02*
X157270000Y-96500000D01*
X156510000Y-100310000D02*
X162480000Y-100310000D01*
%TO.C,REF\u002A\u002A*%
X133150000Y-72535000D02*
X136100000Y-72535000D01*
X130600000Y-79685000D02*
X131850000Y-79685000D01*
X130890000Y-71775000D02*
X130890000Y-79395000D01*
X130900000Y-77585000D02*
X130900000Y-79385000D01*
X136100000Y-72535000D02*
X136100000Y-75585000D01*
X136860000Y-71775000D02*
X130890000Y-71775000D01*
X131650000Y-79385000D02*
X131650000Y-77585000D01*
X130600000Y-78435000D02*
X130600000Y-79685000D01*
X131650000Y-73585000D02*
X131650000Y-71785000D01*
X133150000Y-78635000D02*
X136100000Y-78635000D01*
X131650000Y-71785000D02*
X130900000Y-71785000D01*
X131650000Y-75085000D02*
X130900000Y-75085000D01*
X133150000Y-71785000D02*
X133150000Y-72535000D01*
X136100000Y-78635000D02*
X136100000Y-75585000D01*
X130900000Y-79385000D02*
X131650000Y-79385000D01*
X130890000Y-79395000D02*
X136860000Y-79395000D01*
X131650000Y-76085000D02*
X131650000Y-75085000D01*
X136860000Y-79395000D02*
X136860000Y-71775000D01*
X133150000Y-79385000D02*
X133150000Y-78635000D01*
X130900000Y-75085000D02*
X130900000Y-76085000D01*
X131650000Y-77585000D02*
X130900000Y-77585000D01*
X130900000Y-73585000D02*
X131650000Y-73585000D01*
X130900000Y-76085000D02*
X131650000Y-76085000D01*
X130900000Y-71785000D02*
X130900000Y-73585000D01*
%TD*%
M02*
