%FSLAX45Y45*%
G04 Gerber Fmt 4.5, Leading zero omitted, Abs format (unit mm)*
G04 Created by KiCad (PCBNEW (6.0.5)) date 2023-02-27 23:38:15*
%MOMM*%
%LPD*%
G01*
G04 APERTURE LIST*
%TA.AperFunction,Profile*%
%ADD10C,0.200000*%
%TD*%
%ADD11C,0.200000*%
G04 APERTURE END LIST*
D10*
X11409673Y-7390691D02*
G75*
G03*
X11111438Y-7537492I-100003J-173179D01*
G01*
X16343988Y-8247616D02*
X13680868Y-6710072D01*
X11459692Y-7563863D02*
G75*
G03*
X11459692Y-7563863I-150000J0D01*
G01*
X13407668Y-6783272D02*
X13170154Y-7194657D01*
X11735865Y-7579005D02*
X11409671Y-7390694D01*
X14470622Y-12618822D02*
G75*
G03*
X14470622Y-12618822I-150000J0D01*
G01*
X14932918Y-9659822D02*
G75*
G03*
X14932918Y-9659822I-160000J0D01*
G01*
X12118357Y-12566924D02*
G75*
G03*
X12118357Y-12566924I-150000J0D01*
G01*
X13680870Y-6710069D02*
G75*
G03*
X13407668Y-6783272I-100000J-173201D01*
G01*
X13861001Y-12442045D02*
G75*
G03*
X12376078Y-12442045I-742461J-742465D01*
G01*
X11783717Y-12643694D02*
G75*
G03*
X12109778Y-12708345I184653J76724D01*
G01*
X11111435Y-7537492D02*
G75*
G03*
X11783684Y-12643708I9813535J-1305378D01*
G01*
X16443217Y-8438784D02*
G75*
G03*
X16343988Y-8247616I-199247J17914D01*
G01*
X11735865Y-7579005D02*
G75*
G03*
X13170154Y-7194657I524963J909348D01*
G01*
X14479721Y-12777920D02*
X16654135Y-10603487D01*
X12109778Y-12708345D02*
X12376078Y-12442045D01*
X14196878Y-12777919D02*
G75*
G03*
X14479721Y-12777920I141422J141420D01*
G01*
X13718373Y-6904923D02*
G75*
G03*
X13718373Y-6904923I-150000J0D01*
G01*
X13861002Y-12442044D02*
X14196878Y-12777919D01*
X16539795Y-10255112D02*
G75*
G03*
X16539795Y-10255112I-150000J0D01*
G01*
X16654133Y-10603485D02*
G75*
G03*
X16700480Y-10393173I-141363J141415D01*
G01*
X16443177Y-8438781D02*
G75*
G03*
X16700480Y-10393173I4481793J-404089D01*
G01*
D11*
X11272615Y-13156975D02*
X11272615Y-12956975D01*
X11320234Y-12956975D01*
X11348806Y-12966499D01*
X11367853Y-12985546D01*
X11377377Y-13004594D01*
X11386901Y-13042689D01*
X11386901Y-13071261D01*
X11377377Y-13109356D01*
X11367853Y-13128403D01*
X11348806Y-13147451D01*
X11320234Y-13156975D01*
X11272615Y-13156975D01*
X11472615Y-13156975D02*
X11472615Y-13023642D01*
X11472615Y-13061737D02*
X11482139Y-13042689D01*
X11491663Y-13033165D01*
X11510710Y-13023642D01*
X11529758Y-13023642D01*
X11596425Y-13156975D02*
X11596425Y-13023642D01*
X11596425Y-12956975D02*
X11586901Y-12966499D01*
X11596425Y-12976023D01*
X11605949Y-12966499D01*
X11596425Y-12956975D01*
X11596425Y-12976023D01*
X11720234Y-13156975D02*
X11701187Y-13147451D01*
X11691663Y-13128403D01*
X11691663Y-12956975D01*
X11824996Y-13156975D02*
X11805949Y-13147451D01*
X11796425Y-13128403D01*
X11796425Y-12956975D01*
X12053568Y-13156975D02*
X12053568Y-12956975D01*
X12120234Y-13099832D01*
X12186901Y-12956975D01*
X12186901Y-13156975D01*
X12367853Y-13156975D02*
X12367853Y-13052213D01*
X12358330Y-13033165D01*
X12339282Y-13023642D01*
X12301187Y-13023642D01*
X12282139Y-13033165D01*
X12367853Y-13147451D02*
X12348806Y-13156975D01*
X12301187Y-13156975D01*
X12282139Y-13147451D01*
X12272615Y-13128403D01*
X12272615Y-13109356D01*
X12282139Y-13090308D01*
X12301187Y-13080784D01*
X12348806Y-13080784D01*
X12367853Y-13071261D01*
X12463091Y-13023642D02*
X12463091Y-13223642D01*
X12463091Y-13033165D02*
X12482139Y-13023642D01*
X12520234Y-13023642D01*
X12539282Y-13033165D01*
X12548806Y-13042689D01*
X12558330Y-13061737D01*
X12558330Y-13118880D01*
X12548806Y-13137927D01*
X12539282Y-13147451D01*
X12520234Y-13156975D01*
X12482139Y-13156975D01*
X12463091Y-13147451D01*
X12644044Y-13137927D02*
X12653568Y-13147451D01*
X12644044Y-13156975D01*
X12634520Y-13147451D01*
X12644044Y-13137927D01*
X12644044Y-13156975D01*
X12644044Y-13033165D02*
X12653568Y-13042689D01*
X12644044Y-13052213D01*
X12634520Y-13042689D01*
X12644044Y-13033165D01*
X12644044Y-13052213D01*
M02*
