%TF.GenerationSoftware,KiCad,Pcbnew,(6.0.5)*%
%TF.CreationDate,2023-02-27T23:38:09+09:00*%
%TF.ProjectId,Kiker_PSU,4b696b65-725f-4505-9355-2e6b69636164,rev?*%
%TF.SameCoordinates,Original*%
%TF.FileFunction,Copper,L1,Top*%
%TF.FilePolarity,Positive*%
%FSLAX46Y46*%
G04 Gerber Fmt 4.6, Leading zero omitted, Abs format (unit mm)*
G04 Created by KiCad (PCBNEW (6.0.5)) date 2023-02-27 23:38:09*
%MOMM*%
%LPD*%
G01*
G04 APERTURE LIST*
G04 Aperture macros list*
%AMRoundRect*
0 Rectangle with rounded corners*
0 $1 Rounding radius*
0 $2 $3 $4 $5 $6 $7 $8 $9 X,Y pos of 4 corners*
0 Add a 4 corners polygon primitive as box body*
4,1,4,$2,$3,$4,$5,$6,$7,$8,$9,$2,$3,0*
0 Add four circle primitives for the rounded corners*
1,1,$1+$1,$2,$3*
1,1,$1+$1,$4,$5*
1,1,$1+$1,$6,$7*
1,1,$1+$1,$8,$9*
0 Add four rect primitives between the rounded corners*
20,1,$1+$1,$2,$3,$4,$5,0*
20,1,$1+$1,$4,$5,$6,$7,0*
20,1,$1+$1,$6,$7,$8,$9,0*
20,1,$1+$1,$8,$9,$2,$3,0*%
G04 Aperture macros list end*
%TA.AperFunction,ComponentPad*%
%ADD10R,2.400000X2.400000*%
%TD*%
%TA.AperFunction,ComponentPad*%
%ADD11O,2.400000X2.400000*%
%TD*%
%TA.AperFunction,ComponentPad*%
%ADD12C,1.800000*%
%TD*%
%TA.AperFunction,ComponentPad*%
%ADD13C,1.524000*%
%TD*%
%TA.AperFunction,ComponentPad*%
%ADD14C,2.000000*%
%TD*%
%TA.AperFunction,ComponentPad*%
%ADD15RoundRect,0.250000X-0.725000X0.600000X-0.725000X-0.600000X0.725000X-0.600000X0.725000X0.600000X0*%
%TD*%
%TA.AperFunction,ComponentPad*%
%ADD16O,1.950000X1.700000*%
%TD*%
%TA.AperFunction,ComponentPad*%
%ADD17C,1.400000*%
%TD*%
%TA.AperFunction,ComponentPad*%
%ADD18O,1.400000X1.400000*%
%TD*%
%TA.AperFunction,ComponentPad*%
%ADD19RoundRect,0.250000X-0.750000X0.600000X-0.750000X-0.600000X0.750000X-0.600000X0.750000X0.600000X0*%
%TD*%
%TA.AperFunction,ComponentPad*%
%ADD20O,2.000000X1.700000*%
%TD*%
%TA.AperFunction,ComponentPad*%
%ADD21RoundRect,0.250000X0.750000X-0.600000X0.750000X0.600000X-0.750000X0.600000X-0.750000X-0.600000X0*%
%TD*%
%TA.AperFunction,ViaPad*%
%ADD22C,0.800000*%
%TD*%
%TA.AperFunction,Conductor*%
%ADD23C,0.250000*%
%TD*%
%TA.AperFunction,Conductor*%
%ADD24C,2.000000*%
%TD*%
G04 APERTURE END LIST*
D10*
%TO.P,D1,1,K*%
%TO.N,+12V*%
X150241000Y-92583000D03*
D11*
%TO.P,D1,2,A*%
%TO.N,Net-(D1-Pad2)*%
X150241000Y-82423000D03*
%TD*%
D12*
%TO.P,R3,1*%
%TO.N,Net-(C1-Pad2)*%
X114300000Y-87217500D03*
%TO.P,R3,2*%
%TO.N,Net-(Q1-Pad2)*%
X134620000Y-87217500D03*
%TD*%
D13*
%TO.P,U1,1,IN+*%
%TO.N,+12V*%
X153670000Y-97790000D03*
%TO.P,U1,2,IN-*%
%TO.N,GND*%
X153670000Y-80010000D03*
%TO.P,U1,3,OUT+*%
%TO.N,Net-(C1-Pad1)*%
X113030000Y-97790000D03*
%TO.P,U1,4,OUT-*%
%TO.N,Net-(Q1-Pad3)*%
X113030000Y-80010000D03*
%TD*%
D14*
%TO.P,C1,1*%
%TO.N,Net-(C1-Pad1)*%
X156845000Y-112903000D03*
%TO.P,C1,2*%
%TO.N,Net-(C1-Pad2)*%
X156845000Y-105403000D03*
%TD*%
D15*
%TO.P,Kiker,1,Pin_1*%
%TO.N,Net-(J2-Pad1)*%
X160020000Y-83900000D03*
D16*
%TO.P,Kiker,2,Pin_2*%
%TO.N,Net-(C1-Pad1)*%
X160020000Y-86400000D03*
%TO.P,Kiker,3,Pin_3*%
%TO.N,Net-(C1-Pad2)*%
X160020000Y-88900000D03*
%TD*%
D17*
%TO.P,R1,1*%
%TO.N,Net-(Q1-Pad3)*%
X118750000Y-93980000D03*
D18*
%TO.P,R1,2*%
%TO.N,Net-(Q1-Pad1)*%
X123830000Y-93980000D03*
%TD*%
D17*
%TO.P,R2,1*%
%TO.N,Net-(J2-Pad1)*%
X131318000Y-93980000D03*
D18*
%TO.P,R2,2*%
%TO.N,Net-(Q1-Pad1)*%
X126238000Y-93980000D03*
%TD*%
D12*
%TO.P,Q1,3,S*%
%TO.N,Net-(Q1-Pad3)*%
X144780000Y-90861000D03*
%TO.P,Q1,2,D*%
%TO.N,Net-(Q1-Pad2)*%
X142240000Y-90861000D03*
%TO.P,Q1,1,G*%
%TO.N,Net-(Q1-Pad1)*%
X139700000Y-90861000D03*
%TD*%
D19*
%TO.P,PSU,1,Pin_1*%
%TO.N,GND*%
X160020000Y-95250000D03*
D20*
%TO.P,PSU,2,Pin_2*%
%TO.N,Net-(D1-Pad2)*%
X160020000Y-97750000D03*
%TD*%
D21*
%TO.P,REF\u002A\u002A,1*%
%TO.N,Net-(C1-Pad1)*%
X133350000Y-76835000D03*
D20*
%TO.P,REF\u002A\u002A,2*%
%TO.N,GND*%
X133350000Y-74335000D03*
%TD*%
D22*
%TO.N,GND*%
X121158000Y-120523000D03*
X118110000Y-111633000D03*
X143002000Y-119507000D03*
X159004000Y-111633000D03*
X155702000Y-115062000D03*
X127254000Y-115316000D03*
X112141000Y-99949000D03*
X114046000Y-83947000D03*
X115697000Y-85598000D03*
X116840000Y-86868000D03*
X136525000Y-79883000D03*
X149098000Y-77343000D03*
X153162000Y-82423000D03*
X138684000Y-70104000D03*
X140970000Y-82804000D03*
X119634000Y-77978000D03*
X121539000Y-79756000D03*
%TO.N,Net-(C1-Pad1)*%
X114109500Y-98869500D03*
X148209000Y-112903000D03*
X118110000Y-102870000D03*
X144145000Y-112903000D03*
X158559500Y-108648500D03*
X137668000Y-112903000D03*
X133477000Y-112903000D03*
X135509000Y-112903000D03*
X115379500Y-100139500D03*
X139827000Y-112903000D03*
X159258000Y-104775000D03*
X160178295Y-91852295D03*
X127635000Y-112395000D03*
X150241000Y-112903000D03*
X123698000Y-108458000D03*
X125031500Y-109791500D03*
X159258000Y-103378000D03*
X162219520Y-88224480D03*
X159258000Y-107569000D03*
X141986000Y-112903000D03*
X121031000Y-105791000D03*
X156845000Y-110744000D03*
X126365000Y-111125000D03*
X129540000Y-112903000D03*
X161734500Y-86931500D03*
X146177000Y-112903000D03*
X131445000Y-112903000D03*
X154432000Y-112903000D03*
X159258000Y-101981000D03*
X161257795Y-90772795D03*
X152400000Y-112903000D03*
X159131000Y-92837000D03*
X162219520Y-89811071D03*
X116776500Y-101536500D03*
X122428000Y-107188000D03*
X159258000Y-106172000D03*
X119507000Y-104267000D03*
X157607000Y-109601000D03*
%TO.N,Net-(C1-Pad2)*%
X124523500Y-104584500D03*
X115585750Y-88503250D03*
X134246000Y-105403000D03*
X156728002Y-91958002D03*
X153737000Y-102295000D03*
X138437000Y-105403000D03*
X151733704Y-100107296D03*
X116332000Y-89789000D03*
X152026000Y-105403000D03*
X116332000Y-94615000D03*
X146565000Y-105403000D03*
X117538500Y-97599500D03*
X150121000Y-105403000D03*
X120015000Y-100076000D03*
X122364500Y-102425500D03*
X123507500Y-103568500D03*
X116332000Y-92964000D03*
X151708489Y-98862511D03*
X118745000Y-98806000D03*
X130563000Y-105403000D03*
X157734000Y-90932000D03*
X144914000Y-105403000D03*
X116332000Y-91313000D03*
X143009000Y-105403000D03*
X125857000Y-105410000D03*
X155007000Y-103565000D03*
X140723000Y-105403000D03*
X152530500Y-101088500D03*
X158760002Y-89926002D03*
X154058000Y-105403000D03*
X148343000Y-105403000D03*
X132341000Y-105403000D03*
X127381000Y-105410000D03*
X116332000Y-96393000D03*
X121221500Y-101282500D03*
X128905000Y-105410000D03*
X136278000Y-105403000D03*
%TO.N,GND*%
X163322000Y-91567000D03*
X161290000Y-99568000D03*
X118999000Y-82931000D03*
X146685000Y-89027000D03*
X161544000Y-93472000D03*
X163322000Y-85217000D03*
X116967000Y-81026000D03*
X164465000Y-99949000D03*
X162052000Y-82931000D03*
X159639000Y-81661000D03*
X150114000Y-85471000D03*
%TD*%
D23*
%TO.N,GND*%
X163544040Y-91344960D02*
X163322000Y-91567000D01*
X163544040Y-85439040D02*
X163544040Y-91344960D01*
X163322000Y-85217000D02*
X163544040Y-85439040D01*
D24*
%TO.N,Net-(C1-Pad1)*%
X162219520Y-87416520D02*
X162219520Y-88224480D01*
X158559500Y-108648500D02*
X159258000Y-107950000D01*
X131445000Y-112903000D02*
X133477000Y-112903000D01*
X148209000Y-112903000D02*
X150241000Y-112903000D01*
X127635000Y-112395000D02*
X128143000Y-112903000D01*
X135509000Y-112903000D02*
X137668000Y-112903000D01*
X156845000Y-110363000D02*
X157607000Y-109601000D01*
X156845000Y-110744000D02*
X156845000Y-110363000D01*
X154432000Y-112903000D02*
X156845000Y-112903000D01*
X116776500Y-101536500D02*
X118110000Y-102870000D01*
X122428000Y-107188000D02*
X123698000Y-108458000D01*
X119507000Y-104267000D02*
X121031000Y-105791000D01*
X159258000Y-104775000D02*
X159258000Y-103378000D01*
X159193591Y-92837000D02*
X159131000Y-92837000D01*
X150241000Y-112903000D02*
X152400000Y-112903000D01*
X160178295Y-91852295D02*
X159193591Y-92837000D01*
X133477000Y-112903000D02*
X135509000Y-112903000D01*
D23*
X113030000Y-97790000D02*
X112268001Y-97028001D01*
D24*
X115379500Y-100139500D02*
X116776500Y-101536500D01*
X159258000Y-103378000D02*
X159258000Y-101981000D01*
D23*
X131572000Y-78613000D02*
X133350000Y-76835000D01*
D24*
X157607000Y-109601000D02*
X158559500Y-108648500D01*
X125031500Y-109791500D02*
X126365000Y-111125000D01*
X139827000Y-112903000D02*
X141986000Y-112903000D01*
X137668000Y-112903000D02*
X139827000Y-112903000D01*
X113030000Y-97790000D02*
X114109500Y-98869500D01*
X159258000Y-107569000D02*
X159258000Y-106172000D01*
X146177000Y-112903000D02*
X148209000Y-112903000D01*
X162219520Y-88224480D02*
X162219520Y-89811071D01*
D23*
X121031000Y-78613000D02*
X131572000Y-78613000D01*
X112268001Y-87375999D02*
X121031000Y-78613000D01*
D24*
X129540000Y-112903000D02*
X131445000Y-112903000D01*
X161203000Y-86400000D02*
X161734500Y-86931500D01*
X161257795Y-90772795D02*
X160178295Y-91852295D01*
X156845000Y-112903000D02*
X156845000Y-110744000D01*
X128143000Y-112903000D02*
X129540000Y-112903000D01*
X126365000Y-111125000D02*
X127635000Y-112395000D01*
X161734500Y-86931500D02*
X162219520Y-87416520D01*
X160020000Y-86400000D02*
X161203000Y-86400000D01*
X159258000Y-107950000D02*
X159258000Y-107569000D01*
X141986000Y-112903000D02*
X144145000Y-112903000D01*
X114109500Y-98869500D02*
X115379500Y-100139500D01*
X152400000Y-112903000D02*
X154432000Y-112903000D01*
X159258000Y-106172000D02*
X159258000Y-104775000D01*
X162219520Y-89811071D02*
X161257795Y-90772795D01*
X118110000Y-102870000D02*
X119507000Y-104267000D01*
X144145000Y-112903000D02*
X146177000Y-112903000D01*
X123698000Y-108458000D02*
X125031500Y-109791500D01*
D23*
X112268001Y-97028001D02*
X112268001Y-87375999D01*
D24*
X121031000Y-105791000D02*
X122428000Y-107188000D01*
%TO.N,Net-(C1-Pad2)*%
X157734000Y-90932000D02*
X156845000Y-91821000D01*
X125857000Y-105410000D02*
X127381000Y-105410000D01*
X148343000Y-105403000D02*
X150121000Y-105403000D01*
X116332000Y-92964000D02*
X116332000Y-94615000D01*
X146565000Y-105403000D02*
X148343000Y-105403000D01*
X128905000Y-105410000D02*
X129286000Y-105410000D01*
X122364500Y-102425500D02*
X123507500Y-103568500D01*
X159766000Y-88900000D02*
X157734000Y-90932000D01*
X124523500Y-104584500D02*
X125349000Y-105410000D01*
X150121000Y-105403000D02*
X152026000Y-105403000D01*
X125349000Y-105410000D02*
X125857000Y-105410000D01*
X129293000Y-105403000D02*
X130563000Y-105403000D01*
X115585750Y-88503250D02*
X116332000Y-89249500D01*
X144914000Y-105403000D02*
X146565000Y-105403000D01*
X151733704Y-100291704D02*
X151733704Y-100107296D01*
X117538500Y-97599500D02*
X118745000Y-98806000D01*
X140723000Y-105403000D02*
X143009000Y-105403000D01*
X120015000Y-100076000D02*
X121221500Y-101282500D01*
X151733704Y-100107296D02*
X151733704Y-98964295D01*
X116332000Y-89249500D02*
X116332000Y-89789000D01*
X154058000Y-105403000D02*
X156845000Y-105403000D01*
X152530500Y-101088500D02*
X151733704Y-100291704D01*
X127381000Y-105410000D02*
X128905000Y-105410000D01*
X132341000Y-105403000D02*
X134246000Y-105403000D01*
X116332000Y-96393000D02*
X117538500Y-97599500D01*
X118745000Y-98806000D02*
X120015000Y-100076000D01*
X153737000Y-102295000D02*
X152530500Y-101088500D01*
X156845000Y-105403000D02*
X155007000Y-103565000D01*
X116332000Y-89789000D02*
X116332000Y-91313000D01*
X138437000Y-105403000D02*
X140723000Y-105403000D01*
X123507500Y-103568500D02*
X124523500Y-104584500D01*
X134246000Y-105403000D02*
X136278000Y-105403000D01*
X116332000Y-91313000D02*
X116332000Y-92964000D01*
X129286000Y-105410000D02*
X129293000Y-105403000D01*
X130563000Y-105403000D02*
X132341000Y-105403000D01*
X160020000Y-88900000D02*
X159766000Y-88900000D01*
X114300000Y-87217500D02*
X115585750Y-88503250D01*
X152026000Y-105403000D02*
X154058000Y-105403000D01*
X155007000Y-103565000D02*
X153737000Y-102295000D01*
X143009000Y-105403000D02*
X144914000Y-105403000D01*
X136278000Y-105403000D02*
X138437000Y-105403000D01*
X121221500Y-101282500D02*
X122364500Y-102425500D01*
X116332000Y-94615000D02*
X116332000Y-96393000D01*
%TO.N,+12V*%
X153670000Y-96012000D02*
X150241000Y-92583000D01*
X153670000Y-97790000D02*
X153670000Y-96012000D01*
%TO.N,Net-(D1-Pad2)*%
X152640511Y-84822511D02*
X150241000Y-82423000D01*
X160020000Y-97750000D02*
X159120070Y-97750000D01*
X159120070Y-97750000D02*
X152640511Y-91270441D01*
X152640511Y-91270441D02*
X152640511Y-84822511D01*
%TD*%
%TA.AperFunction,Conductor*%
%TO.N,GND*%
G36*
X137745766Y-68230540D02*
G01*
X137762769Y-68238725D01*
X149484508Y-75006237D01*
X163142889Y-82891864D01*
X163158920Y-82902850D01*
X163177615Y-82917906D01*
X163191877Y-82923827D01*
X163214148Y-82935823D01*
X163353720Y-83030209D01*
X163367784Y-83041254D01*
X163511414Y-83171542D01*
X163523779Y-83184472D01*
X163647513Y-83333794D01*
X163657921Y-83348346D01*
X163759252Y-83513679D01*
X163767493Y-83529555D01*
X163844281Y-83707332D01*
X163844391Y-83707586D01*
X163850300Y-83724470D01*
X163885474Y-83853764D01*
X163901205Y-83911591D01*
X163904663Y-83929140D01*
X163912930Y-83995734D01*
X163928553Y-84121587D01*
X163929491Y-84139454D01*
X163926587Y-84295445D01*
X163923238Y-84319644D01*
X163923509Y-84319693D01*
X163922642Y-84324476D01*
X163921405Y-84329190D01*
X163920125Y-84341677D01*
X163920380Y-84346543D01*
X163920325Y-84348757D01*
X163919999Y-84355204D01*
X163825496Y-85594341D01*
X163825457Y-85595152D01*
X163825456Y-85595162D01*
X163775405Y-86625983D01*
X163752123Y-86693053D01*
X163696275Y-86736889D01*
X163625594Y-86743573D01*
X163562519Y-86710983D01*
X163536305Y-86675106D01*
X163522174Y-86646132D01*
X163476877Y-86581920D01*
X163473219Y-86576434D01*
X163434049Y-86514234D01*
X163434048Y-86514233D01*
X163431353Y-86509953D01*
X163428012Y-86506164D01*
X163428008Y-86506158D01*
X163409622Y-86485303D01*
X163401176Y-86474608D01*
X163384529Y-86451010D01*
X163382246Y-86447773D01*
X163362611Y-86426270D01*
X163322895Y-86386554D01*
X163317476Y-86380784D01*
X163274170Y-86331662D01*
X163274167Y-86331659D01*
X163270822Y-86327865D01*
X163238531Y-86301341D01*
X163229412Y-86293071D01*
X162286675Y-85350334D01*
X162284221Y-85347812D01*
X162219138Y-85278988D01*
X162219135Y-85278986D01*
X162215668Y-85275319D01*
X162153239Y-85227589D01*
X162148108Y-85223448D01*
X162092133Y-85175809D01*
X162092132Y-85175808D01*
X162088280Y-85172530D01*
X162083955Y-85169911D01*
X162083950Y-85169907D01*
X162060176Y-85155509D01*
X162048929Y-85147837D01*
X162022826Y-85127880D01*
X161953592Y-85090757D01*
X161947868Y-85087493D01*
X161884966Y-85049398D01*
X161880642Y-85046779D01*
X161850181Y-85034472D01*
X161837841Y-85028692D01*
X161813350Y-85015560D01*
X161813351Y-85015560D01*
X161808891Y-85013169D01*
X161804110Y-85011523D01*
X161804106Y-85011521D01*
X161734599Y-84987588D01*
X161728421Y-84985278D01*
X161660266Y-84957742D01*
X161660267Y-84957742D01*
X161655571Y-84955845D01*
X161623539Y-84948568D01*
X161610441Y-84944837D01*
X161579369Y-84934138D01*
X161554098Y-84929773D01*
X161490376Y-84898468D01*
X161453695Y-84837682D01*
X161455952Y-84765945D01*
X161461785Y-84748361D01*
X161492797Y-84654861D01*
X161503500Y-84550400D01*
X161503500Y-83249600D01*
X161503163Y-83246350D01*
X161493238Y-83150692D01*
X161493237Y-83150688D01*
X161492526Y-83143834D01*
X161485904Y-83123984D01*
X161438868Y-82983002D01*
X161436550Y-82976054D01*
X161343478Y-82825652D01*
X161218303Y-82700695D01*
X161098953Y-82627126D01*
X161073968Y-82611725D01*
X161073966Y-82611724D01*
X161067738Y-82607885D01*
X160907254Y-82554655D01*
X160906389Y-82554368D01*
X160906387Y-82554368D01*
X160899861Y-82552203D01*
X160893025Y-82551503D01*
X160893022Y-82551502D01*
X160849969Y-82547091D01*
X160795400Y-82541500D01*
X159244600Y-82541500D01*
X159241354Y-82541837D01*
X159241350Y-82541837D01*
X159145692Y-82551762D01*
X159145688Y-82551763D01*
X159138834Y-82552474D01*
X159132298Y-82554655D01*
X159132296Y-82554655D01*
X159062671Y-82577884D01*
X158971054Y-82608450D01*
X158820652Y-82701522D01*
X158695695Y-82826697D01*
X158691855Y-82832927D01*
X158691854Y-82832928D01*
X158637352Y-82921347D01*
X158602885Y-82977262D01*
X158600581Y-82984209D01*
X158566466Y-83087064D01*
X158547203Y-83145139D01*
X158536500Y-83249600D01*
X158536500Y-84550400D01*
X158536837Y-84553646D01*
X158536837Y-84553650D01*
X158539119Y-84575639D01*
X158547474Y-84656166D01*
X158603450Y-84823946D01*
X158696522Y-84974348D01*
X158821697Y-85099305D01*
X158827927Y-85103145D01*
X158827928Y-85103146D01*
X158908469Y-85152792D01*
X158955962Y-85205564D01*
X158967386Y-85275636D01*
X158939112Y-85340760D01*
X158934415Y-85345991D01*
X158931345Y-85348698D01*
X158928135Y-85352606D01*
X158928134Y-85352607D01*
X158829441Y-85472759D01*
X158777266Y-85536278D01*
X158655159Y-85746078D01*
X158653346Y-85750801D01*
X158584224Y-85930873D01*
X158568167Y-85972702D01*
X158567133Y-85977652D01*
X158567132Y-85977655D01*
X158523256Y-86187681D01*
X158518526Y-86210320D01*
X158507514Y-86452817D01*
X158508095Y-86457837D01*
X158508095Y-86457841D01*
X158534008Y-86681792D01*
X158535415Y-86693956D01*
X158536791Y-86698820D01*
X158536792Y-86698823D01*
X158554679Y-86762033D01*
X158601510Y-86927532D01*
X158603644Y-86932108D01*
X158603646Y-86932114D01*
X158701962Y-87142954D01*
X158704099Y-87147536D01*
X158840544Y-87348307D01*
X158926092Y-87438772D01*
X158943632Y-87457320D01*
X158975903Y-87520558D01*
X158968863Y-87591205D01*
X158919226Y-87650513D01*
X158859433Y-87688167D01*
X158855644Y-87691508D01*
X158855638Y-87691512D01*
X158834783Y-87709898D01*
X158824088Y-87718344D01*
X158797253Y-87737274D01*
X158775750Y-87756909D01*
X158736034Y-87796625D01*
X158730264Y-87802044D01*
X158681142Y-87845350D01*
X158681139Y-87845353D01*
X158677345Y-87848698D01*
X158674135Y-87852606D01*
X158674134Y-87852607D01*
X158650821Y-87880989D01*
X158642551Y-87890108D01*
X155735195Y-90797464D01*
X155733569Y-90799374D01*
X155733563Y-90799381D01*
X155653482Y-90893476D01*
X155617530Y-90935720D01*
X155491779Y-91143358D01*
X155400845Y-91368429D01*
X155399725Y-91373359D01*
X155353477Y-91576922D01*
X155318880Y-91638918D01*
X155256257Y-91672369D01*
X155185491Y-91666653D01*
X155141513Y-91638102D01*
X154185916Y-90682505D01*
X154151890Y-90620193D01*
X154149011Y-90593410D01*
X154149011Y-84846527D01*
X154149060Y-84843009D01*
X154151704Y-84748361D01*
X154151704Y-84748358D01*
X154151845Y-84743306D01*
X154141452Y-84665413D01*
X154140752Y-84658864D01*
X154134857Y-84585588D01*
X154134856Y-84585584D01*
X154134451Y-84580546D01*
X154126612Y-84548633D01*
X154124084Y-84535249D01*
X154120409Y-84507705D01*
X154119740Y-84502691D01*
X154097033Y-84427482D01*
X154095292Y-84421119D01*
X154077755Y-84349720D01*
X154076548Y-84344805D01*
X154063710Y-84314559D01*
X154059072Y-84301748D01*
X154051041Y-84275149D01*
X154049578Y-84270303D01*
X154047360Y-84265755D01*
X154047357Y-84265748D01*
X154015140Y-84199693D01*
X154012404Y-84193691D01*
X153993152Y-84148336D01*
X153981699Y-84121355D01*
X153964192Y-84093555D01*
X153957563Y-84081645D01*
X153943165Y-84052123D01*
X153897868Y-83987911D01*
X153894210Y-83982425D01*
X153855040Y-83920225D01*
X153855039Y-83920224D01*
X153852344Y-83915944D01*
X153849003Y-83912155D01*
X153848999Y-83912149D01*
X153830613Y-83891294D01*
X153822167Y-83880599D01*
X153816939Y-83873188D01*
X153803237Y-83853764D01*
X153783602Y-83832261D01*
X153743886Y-83792545D01*
X153738467Y-83786775D01*
X153695161Y-83737653D01*
X153695158Y-83737650D01*
X153691813Y-83733856D01*
X153659522Y-83707332D01*
X153650403Y-83699062D01*
X151901985Y-81950644D01*
X151873647Y-81907216D01*
X151789084Y-81689762D01*
X151789083Y-81689760D01*
X151787391Y-81685409D01*
X151766866Y-81649498D01*
X151663702Y-81468997D01*
X151663700Y-81468995D01*
X151661383Y-81464940D01*
X151504171Y-81265517D01*
X151401329Y-81168773D01*
X151322610Y-81094722D01*
X151322608Y-81094720D01*
X151319209Y-81091523D01*
X151286421Y-81068777D01*
X152975777Y-81068777D01*
X152985074Y-81080793D01*
X153028069Y-81110898D01*
X153037555Y-81116376D01*
X153228993Y-81205645D01*
X153239285Y-81209391D01*
X153443309Y-81264059D01*
X153454104Y-81265962D01*
X153664525Y-81284372D01*
X153675475Y-81284372D01*
X153885896Y-81265962D01*
X153896691Y-81264059D01*
X154100715Y-81209391D01*
X154111007Y-81205645D01*
X154302445Y-81116376D01*
X154311931Y-81110898D01*
X154355764Y-81080207D01*
X154364139Y-81069729D01*
X154357071Y-81056281D01*
X153682812Y-80382022D01*
X153668868Y-80374408D01*
X153667035Y-80374539D01*
X153660420Y-80378790D01*
X152982207Y-81057003D01*
X152975777Y-81068777D01*
X151286421Y-81068777D01*
X151173060Y-80990136D01*
X151114393Y-80949437D01*
X151114390Y-80949435D01*
X151110561Y-80946779D01*
X151106384Y-80944719D01*
X151106377Y-80944715D01*
X150886996Y-80836528D01*
X150886992Y-80836527D01*
X150882810Y-80834464D01*
X150640960Y-80757047D01*
X150636355Y-80756297D01*
X150394935Y-80716980D01*
X150394934Y-80716980D01*
X150390323Y-80716229D01*
X150263365Y-80714567D01*
X150141083Y-80712966D01*
X150141080Y-80712966D01*
X150136406Y-80712905D01*
X149884787Y-80747149D01*
X149640993Y-80818208D01*
X149410380Y-80924522D01*
X149406471Y-80927085D01*
X149201928Y-81061189D01*
X149201923Y-81061193D01*
X149198015Y-81063755D01*
X149139058Y-81116376D01*
X149034315Y-81209863D01*
X149008562Y-81232848D01*
X148846183Y-81428087D01*
X148714447Y-81645182D01*
X148616246Y-81879365D01*
X148553738Y-82125490D01*
X148528296Y-82378151D01*
X148540480Y-82631798D01*
X148554349Y-82701522D01*
X148578218Y-82821517D01*
X148590021Y-82880857D01*
X148591600Y-82885255D01*
X148591602Y-82885262D01*
X148627128Y-82984209D01*
X148675831Y-83119858D01*
X148678048Y-83123984D01*
X148778763Y-83311424D01*
X148796025Y-83343551D01*
X148798820Y-83347294D01*
X148798822Y-83347297D01*
X148945171Y-83543282D01*
X148945176Y-83543288D01*
X148947963Y-83547020D01*
X148951272Y-83550300D01*
X148951277Y-83550306D01*
X149124990Y-83722509D01*
X149128307Y-83725797D01*
X149132069Y-83728555D01*
X149132072Y-83728558D01*
X149274955Y-83833324D01*
X149333094Y-83875953D01*
X149337229Y-83878129D01*
X149337233Y-83878131D01*
X149401891Y-83912149D01*
X149557827Y-83994191D01*
X149716603Y-84049638D01*
X149764156Y-84079497D01*
X151095106Y-85410447D01*
X151129132Y-85472759D01*
X151132011Y-85499542D01*
X151132011Y-90748500D01*
X151112009Y-90816621D01*
X151058353Y-90863114D01*
X151006011Y-90874500D01*
X148992866Y-90874500D01*
X148930684Y-90881255D01*
X148794295Y-90932385D01*
X148677739Y-91019739D01*
X148590385Y-91136295D01*
X148539255Y-91272684D01*
X148532500Y-91334866D01*
X148532500Y-93831134D01*
X148539255Y-93893316D01*
X148590385Y-94029705D01*
X148677739Y-94146261D01*
X148794295Y-94233615D01*
X148930684Y-94284745D01*
X148992866Y-94291500D01*
X149763969Y-94291500D01*
X149832090Y-94311502D01*
X149853064Y-94328405D01*
X152124595Y-96599937D01*
X152158621Y-96662249D01*
X152161500Y-96689032D01*
X152161500Y-97357523D01*
X152141498Y-97425644D01*
X152087842Y-97472137D01*
X152017568Y-97482241D01*
X152009734Y-97480860D01*
X151928338Y-97463856D01*
X151928339Y-97463856D01*
X151923384Y-97462821D01*
X151680887Y-97451809D01*
X151675867Y-97452390D01*
X151675863Y-97452390D01*
X151444775Y-97479128D01*
X151444771Y-97479129D01*
X151439748Y-97479710D01*
X151434884Y-97481086D01*
X151434881Y-97481087D01*
X151339140Y-97508179D01*
X151206172Y-97545805D01*
X151201596Y-97547939D01*
X151201590Y-97547941D01*
X150990750Y-97646257D01*
X150990746Y-97646259D01*
X150986168Y-97648394D01*
X150981987Y-97651235D01*
X150981986Y-97651236D01*
X150948428Y-97674042D01*
X150785397Y-97784839D01*
X150609023Y-97951627D01*
X150605945Y-97955653D01*
X150605944Y-97955654D01*
X150464657Y-98140449D01*
X150464654Y-98140453D01*
X150461584Y-98144469D01*
X150346873Y-98358404D01*
X150267842Y-98587926D01*
X150253126Y-98673124D01*
X150231266Y-98799685D01*
X150226525Y-98827131D01*
X150225204Y-98856220D01*
X150225204Y-100267688D01*
X150225155Y-100271206D01*
X150222370Y-100370909D01*
X150223039Y-100375923D01*
X150232762Y-100448790D01*
X150233463Y-100455351D01*
X150239319Y-100528132D01*
X150239764Y-100533669D01*
X150246510Y-100561134D01*
X150247601Y-100565574D01*
X150250130Y-100578962D01*
X150254475Y-100611524D01*
X150255936Y-100616365D01*
X150255937Y-100616367D01*
X150277182Y-100686733D01*
X150278923Y-100693094D01*
X150297667Y-100769410D01*
X150299645Y-100774070D01*
X150310505Y-100799655D01*
X150315142Y-100812465D01*
X150324637Y-100843912D01*
X150326855Y-100848460D01*
X150326858Y-100848467D01*
X150359075Y-100914522D01*
X150361811Y-100920524D01*
X150392516Y-100992860D01*
X150395208Y-100997134D01*
X150410023Y-101020660D01*
X150416649Y-101032564D01*
X150431050Y-101062092D01*
X150433969Y-101066229D01*
X150433969Y-101066230D01*
X150476345Y-101126301D01*
X150480005Y-101131790D01*
X150514012Y-101185791D01*
X150521871Y-101198271D01*
X150525212Y-101202060D01*
X150525216Y-101202066D01*
X150543602Y-101222921D01*
X150552048Y-101233616D01*
X150570978Y-101260451D01*
X150590613Y-101281954D01*
X150630329Y-101321670D01*
X150635748Y-101327440D01*
X150679054Y-101376562D01*
X150679057Y-101376565D01*
X150682402Y-101380359D01*
X150686310Y-101383569D01*
X150686311Y-101383570D01*
X150714693Y-101406883D01*
X150723812Y-101415153D01*
X152988064Y-103679405D01*
X153022090Y-103741717D01*
X153017025Y-103812532D01*
X152974478Y-103869368D01*
X152907958Y-103894179D01*
X152898969Y-103894500D01*
X129317001Y-103894500D01*
X129313482Y-103894451D01*
X129218849Y-103891807D01*
X129218846Y-103891807D01*
X129213794Y-103891666D01*
X129148387Y-103900393D01*
X129131725Y-103901500D01*
X126026031Y-103901500D01*
X125957910Y-103881498D01*
X125936936Y-103864595D01*
X118648430Y-96576089D01*
X145615869Y-96576089D01*
X145632418Y-96863103D01*
X145633243Y-96867308D01*
X145633244Y-96867316D01*
X145652980Y-96967910D01*
X145687766Y-97145215D01*
X145689153Y-97149265D01*
X145689154Y-97149270D01*
X145761902Y-97361747D01*
X145780890Y-97417206D01*
X145821401Y-97497754D01*
X145896091Y-97646257D01*
X145910065Y-97674042D01*
X145951346Y-97734106D01*
X146064039Y-97898075D01*
X146072901Y-97910970D01*
X146075788Y-97914143D01*
X146075789Y-97914144D01*
X146253840Y-98109820D01*
X146266386Y-98123608D01*
X146269681Y-98126363D01*
X146269682Y-98126364D01*
X146324667Y-98172338D01*
X146486939Y-98308018D01*
X146730478Y-98460791D01*
X146992498Y-98579097D01*
X146996617Y-98580317D01*
X147264037Y-98659531D01*
X147264042Y-98659532D01*
X147268150Y-98660749D01*
X147272384Y-98661397D01*
X147272389Y-98661398D01*
X147520991Y-98699439D01*
X147552333Y-98704235D01*
X147698665Y-98706534D01*
X147835497Y-98708684D01*
X147835503Y-98708684D01*
X147839788Y-98708751D01*
X147844040Y-98708236D01*
X147844048Y-98708236D01*
X148120936Y-98674728D01*
X148120941Y-98674727D01*
X148125197Y-98674212D01*
X148340882Y-98617628D01*
X148399134Y-98602346D01*
X148399135Y-98602346D01*
X148403277Y-98601259D01*
X148668884Y-98491241D01*
X148917102Y-98346194D01*
X149143339Y-98168802D01*
X149150535Y-98161377D01*
X149340424Y-97965426D01*
X149343407Y-97962348D01*
X149345940Y-97958900D01*
X149345944Y-97958895D01*
X149511067Y-97734106D01*
X149513605Y-97730651D01*
X149613968Y-97545805D01*
X149648734Y-97481775D01*
X149648735Y-97481773D01*
X149650784Y-97477999D01*
X149719826Y-97295286D01*
X149750887Y-97213086D01*
X149750888Y-97213082D01*
X149752405Y-97209068D01*
X149808860Y-96962570D01*
X149815629Y-96933017D01*
X149815630Y-96933013D01*
X149816587Y-96928833D01*
X149819076Y-96900951D01*
X149841923Y-96644946D01*
X149841923Y-96644944D01*
X149842143Y-96642480D01*
X149842607Y-96598220D01*
X149839773Y-96556647D01*
X149823345Y-96315672D01*
X149823344Y-96315666D01*
X149823053Y-96311395D01*
X149818516Y-96289484D01*
X149765623Y-96034075D01*
X149764754Y-96029878D01*
X149668787Y-95758877D01*
X149536930Y-95503408D01*
X149523668Y-95484537D01*
X149374084Y-95271702D01*
X149371621Y-95268197D01*
X149175920Y-95057598D01*
X148953448Y-94875507D01*
X148708322Y-94725293D01*
X148690228Y-94717350D01*
X148449010Y-94611463D01*
X148445078Y-94609737D01*
X148419143Y-94602349D01*
X148172714Y-94532152D01*
X148172715Y-94532152D01*
X148168586Y-94530976D01*
X147955884Y-94500705D01*
X147888216Y-94491074D01*
X147888214Y-94491074D01*
X147883964Y-94490469D01*
X147879675Y-94490447D01*
X147879668Y-94490446D01*
X147600763Y-94488985D01*
X147600756Y-94488985D01*
X147596477Y-94488963D01*
X147592233Y-94489522D01*
X147592229Y-94489522D01*
X147466840Y-94506030D01*
X147311446Y-94526488D01*
X147307306Y-94527621D01*
X147307304Y-94527621D01*
X147230491Y-94548635D01*
X147034144Y-94602349D01*
X147030196Y-94604033D01*
X146773656Y-94713457D01*
X146773652Y-94713459D01*
X146769704Y-94715143D01*
X146702667Y-94755264D01*
X146526701Y-94860577D01*
X146526697Y-94860580D01*
X146523019Y-94862781D01*
X146298652Y-95042533D01*
X146100757Y-95251071D01*
X145932994Y-95484537D01*
X145798468Y-95738612D01*
X145699669Y-96008593D01*
X145638425Y-96289484D01*
X145631987Y-96371284D01*
X145616376Y-96569648D01*
X145616375Y-96569648D01*
X145616376Y-96569650D01*
X145615869Y-96576089D01*
X118648430Y-96576089D01*
X117877405Y-95805064D01*
X117843379Y-95742752D01*
X117840500Y-95715969D01*
X117840500Y-95060510D01*
X117860502Y-94992389D01*
X117914158Y-94945896D01*
X117984432Y-94935792D01*
X118038768Y-94957296D01*
X118143442Y-95030589D01*
X118148420Y-95032910D01*
X118148423Y-95032912D01*
X118208103Y-95060741D01*
X118335090Y-95119956D01*
X118340398Y-95121378D01*
X118340400Y-95121379D01*
X118534030Y-95173262D01*
X118534032Y-95173262D01*
X118539345Y-95174686D01*
X118750000Y-95193116D01*
X118960655Y-95174686D01*
X118965968Y-95173262D01*
X118965970Y-95173262D01*
X119159600Y-95121379D01*
X119159602Y-95121378D01*
X119164910Y-95119956D01*
X119291897Y-95060741D01*
X119351577Y-95032912D01*
X119351580Y-95032910D01*
X119356558Y-95030589D01*
X119529776Y-94909301D01*
X119679301Y-94759776D01*
X119800589Y-94586558D01*
X119826508Y-94530976D01*
X119887633Y-94399892D01*
X119887634Y-94399891D01*
X119889956Y-94394910D01*
X119897050Y-94368437D01*
X119943262Y-94195970D01*
X119943262Y-94195968D01*
X119944686Y-94190655D01*
X119963116Y-93980000D01*
X122616884Y-93980000D01*
X122635314Y-94190655D01*
X122636738Y-94195968D01*
X122636738Y-94195970D01*
X122682951Y-94368437D01*
X122690044Y-94394910D01*
X122692366Y-94399891D01*
X122692367Y-94399892D01*
X122753493Y-94530976D01*
X122779411Y-94586558D01*
X122900699Y-94759776D01*
X123050224Y-94909301D01*
X123223442Y-95030589D01*
X123228420Y-95032910D01*
X123228423Y-95032912D01*
X123288103Y-95060741D01*
X123415090Y-95119956D01*
X123420398Y-95121378D01*
X123420400Y-95121379D01*
X123614030Y-95173262D01*
X123614032Y-95173262D01*
X123619345Y-95174686D01*
X123830000Y-95193116D01*
X124040655Y-95174686D01*
X124045968Y-95173262D01*
X124045970Y-95173262D01*
X124239600Y-95121379D01*
X124239602Y-95121378D01*
X124244910Y-95119956D01*
X124371897Y-95060741D01*
X124431577Y-95032912D01*
X124431580Y-95032910D01*
X124436558Y-95030589D01*
X124609776Y-94909301D01*
X124759301Y-94759776D01*
X124880589Y-94586558D01*
X124919805Y-94502459D01*
X124966722Y-94449174D01*
X125035000Y-94429713D01*
X125102959Y-94450255D01*
X125148195Y-94502459D01*
X125187411Y-94586558D01*
X125308699Y-94759776D01*
X125458224Y-94909301D01*
X125631442Y-95030589D01*
X125636420Y-95032910D01*
X125636423Y-95032912D01*
X125696103Y-95060741D01*
X125823090Y-95119956D01*
X125828398Y-95121378D01*
X125828400Y-95121379D01*
X126022030Y-95173262D01*
X126022032Y-95173262D01*
X126027345Y-95174686D01*
X126238000Y-95193116D01*
X126448655Y-95174686D01*
X126453968Y-95173262D01*
X126453970Y-95173262D01*
X126647600Y-95121379D01*
X126647602Y-95121378D01*
X126652910Y-95119956D01*
X126779897Y-95060741D01*
X126839577Y-95032912D01*
X126839580Y-95032910D01*
X126844558Y-95030589D01*
X127017776Y-94909301D01*
X127167301Y-94759776D01*
X127288589Y-94586558D01*
X127314508Y-94530976D01*
X127375633Y-94399892D01*
X127375634Y-94399891D01*
X127377956Y-94394910D01*
X127385050Y-94368437D01*
X127431262Y-94195970D01*
X127431262Y-94195968D01*
X127432686Y-94190655D01*
X127451116Y-93980000D01*
X130104884Y-93980000D01*
X130123314Y-94190655D01*
X130124738Y-94195968D01*
X130124738Y-94195970D01*
X130170951Y-94368437D01*
X130178044Y-94394910D01*
X130180366Y-94399891D01*
X130180367Y-94399892D01*
X130241493Y-94530976D01*
X130267411Y-94586558D01*
X130388699Y-94759776D01*
X130538224Y-94909301D01*
X130711442Y-95030589D01*
X130716420Y-95032910D01*
X130716423Y-95032912D01*
X130776103Y-95060741D01*
X130903090Y-95119956D01*
X130908398Y-95121378D01*
X130908400Y-95121379D01*
X131102030Y-95173262D01*
X131102032Y-95173262D01*
X131107345Y-95174686D01*
X131318000Y-95193116D01*
X131528655Y-95174686D01*
X131533968Y-95173262D01*
X131533970Y-95173262D01*
X131727600Y-95121379D01*
X131727602Y-95121378D01*
X131732910Y-95119956D01*
X131859897Y-95060741D01*
X131919577Y-95032912D01*
X131919580Y-95032910D01*
X131924558Y-95030589D01*
X132097776Y-94909301D01*
X132247301Y-94759776D01*
X132368589Y-94586558D01*
X132394508Y-94530976D01*
X132455633Y-94399892D01*
X132455634Y-94399891D01*
X132457956Y-94394910D01*
X132465050Y-94368437D01*
X132511262Y-94195970D01*
X132511262Y-94195968D01*
X132512686Y-94190655D01*
X132531116Y-93980000D01*
X132512686Y-93769345D01*
X132457956Y-93565090D01*
X132441727Y-93530287D01*
X132370912Y-93378423D01*
X132370910Y-93378420D01*
X132368589Y-93373442D01*
X132247301Y-93200224D01*
X132097776Y-93050699D01*
X131924558Y-92929411D01*
X131919580Y-92927090D01*
X131919577Y-92927088D01*
X131737892Y-92842367D01*
X131737891Y-92842366D01*
X131732910Y-92840044D01*
X131727602Y-92838622D01*
X131727600Y-92838621D01*
X131533970Y-92786738D01*
X131533968Y-92786738D01*
X131528655Y-92785314D01*
X131318000Y-92766884D01*
X131107345Y-92785314D01*
X131102032Y-92786738D01*
X131102030Y-92786738D01*
X130908400Y-92838621D01*
X130908398Y-92838622D01*
X130903090Y-92840044D01*
X130898109Y-92842366D01*
X130898108Y-92842367D01*
X130716423Y-92927088D01*
X130716420Y-92927090D01*
X130711442Y-92929411D01*
X130538224Y-93050699D01*
X130388699Y-93200224D01*
X130267411Y-93373442D01*
X130265090Y-93378420D01*
X130265088Y-93378423D01*
X130194273Y-93530287D01*
X130178044Y-93565090D01*
X130123314Y-93769345D01*
X130104884Y-93980000D01*
X127451116Y-93980000D01*
X127432686Y-93769345D01*
X127377956Y-93565090D01*
X127361727Y-93530287D01*
X127290912Y-93378423D01*
X127290910Y-93378420D01*
X127288589Y-93373442D01*
X127167301Y-93200224D01*
X127017776Y-93050699D01*
X126844558Y-92929411D01*
X126839580Y-92927090D01*
X126839577Y-92927088D01*
X126657892Y-92842367D01*
X126657891Y-92842366D01*
X126652910Y-92840044D01*
X126647602Y-92838622D01*
X126647600Y-92838621D01*
X126453970Y-92786738D01*
X126453968Y-92786738D01*
X126448655Y-92785314D01*
X126238000Y-92766884D01*
X126027345Y-92785314D01*
X126022032Y-92786738D01*
X126022030Y-92786738D01*
X125828400Y-92838621D01*
X125828398Y-92838622D01*
X125823090Y-92840044D01*
X125818109Y-92842366D01*
X125818108Y-92842367D01*
X125636423Y-92927088D01*
X125636420Y-92927090D01*
X125631442Y-92929411D01*
X125458224Y-93050699D01*
X125308699Y-93200224D01*
X125187411Y-93373442D01*
X125185090Y-93378420D01*
X125185088Y-93378423D01*
X125148195Y-93457541D01*
X125101278Y-93510826D01*
X125033000Y-93530287D01*
X124965041Y-93509745D01*
X124919805Y-93457541D01*
X124882912Y-93378423D01*
X124882910Y-93378420D01*
X124880589Y-93373442D01*
X124759301Y-93200224D01*
X124609776Y-93050699D01*
X124436558Y-92929411D01*
X124431580Y-92927090D01*
X124431577Y-92927088D01*
X124249892Y-92842367D01*
X124249891Y-92842366D01*
X124244910Y-92840044D01*
X124239602Y-92838622D01*
X124239600Y-92838621D01*
X124045970Y-92786738D01*
X124045968Y-92786738D01*
X124040655Y-92785314D01*
X123830000Y-92766884D01*
X123619345Y-92785314D01*
X123614032Y-92786738D01*
X123614030Y-92786738D01*
X123420400Y-92838621D01*
X123420398Y-92838622D01*
X123415090Y-92840044D01*
X123410109Y-92842366D01*
X123410108Y-92842367D01*
X123228423Y-92927088D01*
X123228420Y-92927090D01*
X123223442Y-92929411D01*
X123050224Y-93050699D01*
X122900699Y-93200224D01*
X122779411Y-93373442D01*
X122777090Y-93378420D01*
X122777088Y-93378423D01*
X122706273Y-93530287D01*
X122690044Y-93565090D01*
X122635314Y-93769345D01*
X122616884Y-93980000D01*
X119963116Y-93980000D01*
X119944686Y-93769345D01*
X119889956Y-93565090D01*
X119873727Y-93530287D01*
X119802912Y-93378423D01*
X119802910Y-93378420D01*
X119800589Y-93373442D01*
X119679301Y-93200224D01*
X119529776Y-93050699D01*
X119356558Y-92929411D01*
X119351580Y-92927090D01*
X119351577Y-92927088D01*
X119169892Y-92842367D01*
X119169891Y-92842366D01*
X119164910Y-92840044D01*
X119159602Y-92838622D01*
X119159600Y-92838621D01*
X118965970Y-92786738D01*
X118965968Y-92786738D01*
X118960655Y-92785314D01*
X118750000Y-92766884D01*
X118539345Y-92785314D01*
X118534032Y-92786738D01*
X118534030Y-92786738D01*
X118340400Y-92838621D01*
X118340398Y-92838622D01*
X118335090Y-92840044D01*
X118330109Y-92842366D01*
X118330108Y-92842367D01*
X118148423Y-92927088D01*
X118148420Y-92927090D01*
X118143442Y-92929411D01*
X118038768Y-93002704D01*
X117971497Y-93025391D01*
X117902636Y-93008106D01*
X117854052Y-92956336D01*
X117840500Y-92899490D01*
X117840500Y-90826469D01*
X138287095Y-90826469D01*
X138287392Y-90831622D01*
X138287392Y-90831625D01*
X138293020Y-90929233D01*
X138300427Y-91057697D01*
X138301564Y-91062743D01*
X138301565Y-91062749D01*
X138333741Y-91205523D01*
X138351346Y-91283642D01*
X138353288Y-91288424D01*
X138353289Y-91288428D01*
X138428467Y-91473568D01*
X138438484Y-91498237D01*
X138559501Y-91695719D01*
X138711147Y-91870784D01*
X138889349Y-92018730D01*
X139089322Y-92135584D01*
X139305694Y-92218209D01*
X139310760Y-92219240D01*
X139310761Y-92219240D01*
X139363846Y-92230040D01*
X139532656Y-92264385D01*
X139663324Y-92269176D01*
X139758949Y-92272683D01*
X139758953Y-92272683D01*
X139764113Y-92272872D01*
X139769233Y-92272216D01*
X139769235Y-92272216D01*
X139842270Y-92262860D01*
X139993847Y-92243442D01*
X139998795Y-92241957D01*
X139998802Y-92241956D01*
X140210747Y-92178369D01*
X140215690Y-92176886D01*
X140296236Y-92137427D01*
X140419049Y-92077262D01*
X140419052Y-92077260D01*
X140423684Y-92074991D01*
X140612243Y-91940494D01*
X140776303Y-91777005D01*
X140779319Y-91772808D01*
X140779326Y-91772800D01*
X140866960Y-91650844D01*
X140922954Y-91607196D01*
X140993658Y-91600750D01*
X141056622Y-91633553D01*
X141076715Y-91658536D01*
X141096800Y-91691313D01*
X141096804Y-91691318D01*
X141099501Y-91695719D01*
X141251147Y-91870784D01*
X141429349Y-92018730D01*
X141629322Y-92135584D01*
X141845694Y-92218209D01*
X141850760Y-92219240D01*
X141850761Y-92219240D01*
X141903846Y-92230040D01*
X142072656Y-92264385D01*
X142203324Y-92269176D01*
X142298949Y-92272683D01*
X142298953Y-92272683D01*
X142304113Y-92272872D01*
X142309233Y-92272216D01*
X142309235Y-92272216D01*
X142382270Y-92262860D01*
X142533847Y-92243442D01*
X142538795Y-92241957D01*
X142538802Y-92241956D01*
X142750747Y-92178369D01*
X142755690Y-92176886D01*
X142836236Y-92137427D01*
X142959049Y-92077262D01*
X142959052Y-92077260D01*
X142963684Y-92074991D01*
X143152243Y-91940494D01*
X143316303Y-91777005D01*
X143319319Y-91772808D01*
X143319326Y-91772800D01*
X143406960Y-91650844D01*
X143462954Y-91607196D01*
X143533658Y-91600750D01*
X143596622Y-91633553D01*
X143616715Y-91658536D01*
X143636800Y-91691313D01*
X143636804Y-91691318D01*
X143639501Y-91695719D01*
X143791147Y-91870784D01*
X143969349Y-92018730D01*
X144169322Y-92135584D01*
X144385694Y-92218209D01*
X144390760Y-92219240D01*
X144390761Y-92219240D01*
X144443846Y-92230040D01*
X144612656Y-92264385D01*
X144743324Y-92269176D01*
X144838949Y-92272683D01*
X144838953Y-92272683D01*
X144844113Y-92272872D01*
X144849233Y-92272216D01*
X144849235Y-92272216D01*
X144922270Y-92262860D01*
X145073847Y-92243442D01*
X145078795Y-92241957D01*
X145078802Y-92241956D01*
X145290747Y-92178369D01*
X145295690Y-92176886D01*
X145376236Y-92137427D01*
X145499049Y-92077262D01*
X145499052Y-92077260D01*
X145503684Y-92074991D01*
X145692243Y-91940494D01*
X145856303Y-91777005D01*
X145991458Y-91588917D01*
X145997387Y-91576922D01*
X146091784Y-91385922D01*
X146091785Y-91385920D01*
X146094078Y-91381280D01*
X146161408Y-91159671D01*
X146191640Y-90930041D01*
X146192503Y-90894729D01*
X146193245Y-90864365D01*
X146193245Y-90864361D01*
X146193327Y-90861000D01*
X146180108Y-90700210D01*
X146174773Y-90635318D01*
X146174772Y-90635312D01*
X146174349Y-90630167D01*
X146131222Y-90458471D01*
X146119184Y-90410544D01*
X146119183Y-90410540D01*
X146117925Y-90405533D01*
X146115866Y-90400797D01*
X146027630Y-90197868D01*
X146027628Y-90197865D01*
X146025570Y-90193131D01*
X145899764Y-89998665D01*
X145743887Y-89827358D01*
X145739836Y-89824159D01*
X145739832Y-89824155D01*
X145566177Y-89687011D01*
X145566172Y-89687008D01*
X145562123Y-89683810D01*
X145557607Y-89681317D01*
X145557604Y-89681315D01*
X145363879Y-89574373D01*
X145363875Y-89574371D01*
X145359355Y-89571876D01*
X145354486Y-89570152D01*
X145354482Y-89570150D01*
X145145903Y-89496288D01*
X145145899Y-89496287D01*
X145141028Y-89494562D01*
X145135935Y-89493655D01*
X145135932Y-89493654D01*
X144918095Y-89454851D01*
X144918089Y-89454850D01*
X144913006Y-89453945D01*
X144840096Y-89453054D01*
X144686581Y-89451179D01*
X144686579Y-89451179D01*
X144681411Y-89451116D01*
X144452464Y-89486150D01*
X144232314Y-89558106D01*
X144227726Y-89560494D01*
X144227722Y-89560496D01*
X144201065Y-89574373D01*
X144026872Y-89665052D01*
X144022739Y-89668155D01*
X144022736Y-89668157D01*
X143845790Y-89801012D01*
X143841655Y-89804117D01*
X143838083Y-89807855D01*
X143724674Y-89926531D01*
X143681639Y-89971564D01*
X143614306Y-90070271D01*
X143559397Y-90115271D01*
X143488872Y-90123442D01*
X143425125Y-90092188D01*
X143404428Y-90067705D01*
X143378048Y-90026927D01*
X143359764Y-89998665D01*
X143203887Y-89827358D01*
X143199836Y-89824159D01*
X143199832Y-89824155D01*
X143026177Y-89687011D01*
X143026172Y-89687008D01*
X143022123Y-89683810D01*
X143017607Y-89681317D01*
X143017604Y-89681315D01*
X142823879Y-89574373D01*
X142823875Y-89574371D01*
X142819355Y-89571876D01*
X142814486Y-89570152D01*
X142814482Y-89570150D01*
X142605903Y-89496288D01*
X142605899Y-89496287D01*
X142601028Y-89494562D01*
X142595935Y-89493655D01*
X142595932Y-89493654D01*
X142378095Y-89454851D01*
X142378089Y-89454850D01*
X142373006Y-89453945D01*
X142300096Y-89453054D01*
X142146581Y-89451179D01*
X142146579Y-89451179D01*
X142141411Y-89451116D01*
X141912464Y-89486150D01*
X141692314Y-89558106D01*
X141687726Y-89560494D01*
X141687722Y-89560496D01*
X141661065Y-89574373D01*
X141486872Y-89665052D01*
X141482739Y-89668155D01*
X141482736Y-89668157D01*
X141305790Y-89801012D01*
X141301655Y-89804117D01*
X141298083Y-89807855D01*
X141184674Y-89926531D01*
X141141639Y-89971564D01*
X141074306Y-90070271D01*
X141019397Y-90115271D01*
X140948872Y-90123442D01*
X140885125Y-90092188D01*
X140864428Y-90067705D01*
X140838048Y-90026927D01*
X140819764Y-89998665D01*
X140663887Y-89827358D01*
X140659836Y-89824159D01*
X140659832Y-89824155D01*
X140486177Y-89687011D01*
X140486172Y-89687008D01*
X140482123Y-89683810D01*
X140477607Y-89681317D01*
X140477604Y-89681315D01*
X140283879Y-89574373D01*
X140283875Y-89574371D01*
X140279355Y-89571876D01*
X140274486Y-89570152D01*
X140274482Y-89570150D01*
X140065903Y-89496288D01*
X140065899Y-89496287D01*
X140061028Y-89494562D01*
X140055935Y-89493655D01*
X140055932Y-89493654D01*
X139838095Y-89454851D01*
X139838089Y-89454850D01*
X139833006Y-89453945D01*
X139760096Y-89453054D01*
X139606581Y-89451179D01*
X139606579Y-89451179D01*
X139601411Y-89451116D01*
X139372464Y-89486150D01*
X139152314Y-89558106D01*
X139147726Y-89560494D01*
X139147722Y-89560496D01*
X139121065Y-89574373D01*
X138946872Y-89665052D01*
X138942739Y-89668155D01*
X138942736Y-89668157D01*
X138765790Y-89801012D01*
X138761655Y-89804117D01*
X138758083Y-89807855D01*
X138644674Y-89926531D01*
X138601639Y-89971564D01*
X138598730Y-89975829D01*
X138598724Y-89975837D01*
X138583152Y-89998665D01*
X138471119Y-90162899D01*
X138373602Y-90372981D01*
X138311707Y-90596169D01*
X138287095Y-90826469D01*
X117840500Y-90826469D01*
X117840500Y-89273516D01*
X117840549Y-89269998D01*
X117843193Y-89175350D01*
X117843193Y-89175347D01*
X117843334Y-89170295D01*
X117832941Y-89092402D01*
X117832241Y-89085853D01*
X117826346Y-89012577D01*
X117826345Y-89012573D01*
X117825940Y-89007535D01*
X117818101Y-88975622D01*
X117815573Y-88962238D01*
X117811898Y-88934694D01*
X117811229Y-88929680D01*
X117788522Y-88854471D01*
X117786781Y-88848108D01*
X117785720Y-88843788D01*
X117768037Y-88771794D01*
X117755199Y-88741548D01*
X117750561Y-88728737D01*
X117742530Y-88702138D01*
X117741067Y-88697292D01*
X117738849Y-88692744D01*
X117738846Y-88692737D01*
X117706629Y-88626682D01*
X117703893Y-88620680D01*
X117675162Y-88552995D01*
X117673188Y-88548344D01*
X117655681Y-88520544D01*
X117649052Y-88508634D01*
X117634654Y-88479112D01*
X117589357Y-88414900D01*
X117585699Y-88409414D01*
X117546529Y-88347214D01*
X117546528Y-88347213D01*
X117543833Y-88342933D01*
X117540492Y-88339144D01*
X117540488Y-88339138D01*
X117522102Y-88318283D01*
X117513656Y-88307588D01*
X117511574Y-88304637D01*
X117494726Y-88280753D01*
X117475091Y-88259250D01*
X117435375Y-88219534D01*
X117429956Y-88213764D01*
X117386650Y-88164642D01*
X117386647Y-88164639D01*
X117383302Y-88160845D01*
X117351011Y-88134321D01*
X117341892Y-88126051D01*
X116398810Y-87182969D01*
X133207095Y-87182969D01*
X133207392Y-87188122D01*
X133207392Y-87188125D01*
X133215994Y-87337315D01*
X133220427Y-87414197D01*
X133221564Y-87419243D01*
X133221565Y-87419249D01*
X133245326Y-87524681D01*
X133271346Y-87640142D01*
X133273288Y-87644924D01*
X133273289Y-87644928D01*
X133354672Y-87845350D01*
X133358484Y-87854737D01*
X133479501Y-88052219D01*
X133631147Y-88227284D01*
X133809349Y-88375230D01*
X134009322Y-88492084D01*
X134225694Y-88574709D01*
X134230760Y-88575740D01*
X134230761Y-88575740D01*
X134283846Y-88586540D01*
X134452656Y-88620885D01*
X134583324Y-88625676D01*
X134678949Y-88629183D01*
X134678953Y-88629183D01*
X134684113Y-88629372D01*
X134689233Y-88628716D01*
X134689235Y-88628716D01*
X134762270Y-88619360D01*
X134913847Y-88599942D01*
X134918795Y-88598457D01*
X134918802Y-88598456D01*
X135130747Y-88534869D01*
X135135690Y-88533386D01*
X135173686Y-88514772D01*
X135339049Y-88433762D01*
X135339052Y-88433760D01*
X135343684Y-88431491D01*
X135532243Y-88296994D01*
X135696303Y-88133505D01*
X135831458Y-87945417D01*
X135858794Y-87890108D01*
X135931784Y-87742422D01*
X135931785Y-87742420D01*
X135934078Y-87737780D01*
X136001408Y-87516171D01*
X136031640Y-87286541D01*
X136033327Y-87217500D01*
X136023419Y-87096988D01*
X136014773Y-86991818D01*
X136014772Y-86991812D01*
X136014349Y-86986667D01*
X135957925Y-86762033D01*
X135955866Y-86757297D01*
X135867630Y-86554368D01*
X135867628Y-86554365D01*
X135865570Y-86549631D01*
X135739764Y-86355165D01*
X135583887Y-86183858D01*
X135579836Y-86180659D01*
X135579832Y-86180655D01*
X135406177Y-86043511D01*
X135406172Y-86043508D01*
X135402123Y-86040310D01*
X135397607Y-86037817D01*
X135397604Y-86037815D01*
X135203879Y-85930873D01*
X135203875Y-85930871D01*
X135199355Y-85928376D01*
X135194486Y-85926652D01*
X135194482Y-85926650D01*
X134985903Y-85852788D01*
X134985899Y-85852787D01*
X134981028Y-85851062D01*
X134975935Y-85850155D01*
X134975932Y-85850154D01*
X134758095Y-85811351D01*
X134758089Y-85811350D01*
X134753006Y-85810445D01*
X134680096Y-85809554D01*
X134526581Y-85807679D01*
X134526579Y-85807679D01*
X134521411Y-85807616D01*
X134292464Y-85842650D01*
X134072314Y-85914606D01*
X134067726Y-85916994D01*
X134067722Y-85916996D01*
X133932456Y-85987411D01*
X133866872Y-86021552D01*
X133862739Y-86024655D01*
X133862736Y-86024657D01*
X133685790Y-86157512D01*
X133681655Y-86160617D01*
X133521639Y-86328064D01*
X133518725Y-86332336D01*
X133518724Y-86332337D01*
X133503152Y-86355165D01*
X133391119Y-86519399D01*
X133293602Y-86729481D01*
X133231707Y-86952669D01*
X133207095Y-87182969D01*
X116398810Y-87182969D01*
X115323536Y-86107695D01*
X115321626Y-86106069D01*
X115321619Y-86106063D01*
X115189132Y-85993308D01*
X115189130Y-85993306D01*
X115185280Y-85990030D01*
X114977642Y-85864279D01*
X114939035Y-85848681D01*
X114883370Y-85804619D01*
X114860361Y-85737454D01*
X114877318Y-85668512D01*
X114897142Y-85642762D01*
X120524430Y-80015475D01*
X152395628Y-80015475D01*
X152414038Y-80225896D01*
X152415941Y-80236691D01*
X152470609Y-80440715D01*
X152474355Y-80451007D01*
X152563623Y-80642441D01*
X152569103Y-80651932D01*
X152599794Y-80695765D01*
X152610271Y-80704140D01*
X152623718Y-80697072D01*
X153297978Y-80022812D01*
X153304356Y-80011132D01*
X154034408Y-80011132D01*
X154034539Y-80012965D01*
X154038790Y-80019580D01*
X154717003Y-80697793D01*
X154728777Y-80704223D01*
X154740793Y-80694926D01*
X154770897Y-80651932D01*
X154776377Y-80642441D01*
X154865645Y-80451007D01*
X154869391Y-80440715D01*
X154924059Y-80236691D01*
X154925962Y-80225896D01*
X154944372Y-80015475D01*
X154944372Y-80004525D01*
X154925962Y-79794104D01*
X154924059Y-79783309D01*
X154869391Y-79579285D01*
X154865645Y-79568993D01*
X154776377Y-79377559D01*
X154770897Y-79368068D01*
X154740206Y-79324235D01*
X154729729Y-79315860D01*
X154716282Y-79322928D01*
X154042022Y-79997188D01*
X154034408Y-80011132D01*
X153304356Y-80011132D01*
X153305592Y-80008868D01*
X153305461Y-80007035D01*
X153301210Y-80000420D01*
X152622997Y-79322207D01*
X152611223Y-79315777D01*
X152599207Y-79325074D01*
X152569103Y-79368068D01*
X152563623Y-79377559D01*
X152474355Y-79568993D01*
X152470609Y-79579285D01*
X152415941Y-79783309D01*
X152414038Y-79794104D01*
X152395628Y-80004525D01*
X152395628Y-80015475D01*
X120524430Y-80015475D01*
X121256500Y-79283405D01*
X121318812Y-79249379D01*
X121345595Y-79246500D01*
X131493233Y-79246500D01*
X131504416Y-79247027D01*
X131511909Y-79248702D01*
X131519835Y-79248453D01*
X131519836Y-79248453D01*
X131579986Y-79246562D01*
X131583945Y-79246500D01*
X131611856Y-79246500D01*
X131615791Y-79246003D01*
X131615856Y-79245995D01*
X131627693Y-79245062D01*
X131659951Y-79244048D01*
X131663970Y-79243922D01*
X131671889Y-79243673D01*
X131691343Y-79238021D01*
X131710700Y-79234013D01*
X131722930Y-79232468D01*
X131722931Y-79232468D01*
X131730797Y-79231474D01*
X131738168Y-79228555D01*
X131738170Y-79228555D01*
X131771912Y-79215196D01*
X131783142Y-79211351D01*
X131817983Y-79201229D01*
X131817984Y-79201229D01*
X131825593Y-79199018D01*
X131832412Y-79194985D01*
X131832417Y-79194983D01*
X131843028Y-79188707D01*
X131860776Y-79180012D01*
X131879617Y-79172552D01*
X131915387Y-79146564D01*
X131925307Y-79140048D01*
X131956535Y-79121580D01*
X131956538Y-79121578D01*
X131963362Y-79117542D01*
X131977683Y-79103221D01*
X131992717Y-79090380D01*
X132002694Y-79083131D01*
X132009107Y-79078472D01*
X132037298Y-79044395D01*
X132045288Y-79035616D01*
X132850499Y-78230405D01*
X132912811Y-78196379D01*
X132939594Y-78193500D01*
X134150400Y-78193500D01*
X134153646Y-78193163D01*
X134153650Y-78193163D01*
X134249308Y-78183238D01*
X134249312Y-78183237D01*
X134256166Y-78182526D01*
X134262702Y-78180345D01*
X134262704Y-78180345D01*
X134396760Y-78135620D01*
X134423946Y-78126550D01*
X134574348Y-78033478D01*
X134626797Y-77980938D01*
X134694134Y-77913483D01*
X134699305Y-77908303D01*
X134711737Y-77888135D01*
X134788275Y-77763968D01*
X134788276Y-77763966D01*
X134792115Y-77757738D01*
X134838900Y-77616684D01*
X134845632Y-77596389D01*
X134845632Y-77596387D01*
X134847797Y-77589861D01*
X134858500Y-77485400D01*
X134858500Y-76868869D01*
X140126689Y-76868869D01*
X140143238Y-77155883D01*
X140144063Y-77160088D01*
X140144064Y-77160096D01*
X140164564Y-77264585D01*
X140198586Y-77437995D01*
X140199973Y-77442045D01*
X140199974Y-77442050D01*
X140290321Y-77705930D01*
X140291710Y-77709986D01*
X140293637Y-77713817D01*
X140381310Y-77888135D01*
X140420885Y-77966822D01*
X140518229Y-78108458D01*
X140569624Y-78183238D01*
X140583721Y-78203750D01*
X140777206Y-78416388D01*
X140780501Y-78419143D01*
X140780502Y-78419144D01*
X140831258Y-78461582D01*
X140997759Y-78600798D01*
X141241298Y-78753571D01*
X141503318Y-78871877D01*
X141507437Y-78873097D01*
X141774857Y-78952311D01*
X141774862Y-78952312D01*
X141778970Y-78953529D01*
X141783204Y-78954177D01*
X141783209Y-78954178D01*
X142031811Y-78992219D01*
X142063153Y-78997015D01*
X142209485Y-78999314D01*
X142346317Y-79001464D01*
X142346323Y-79001464D01*
X142350608Y-79001531D01*
X142354860Y-79001016D01*
X142354868Y-79001016D01*
X142631756Y-78967508D01*
X142631761Y-78967507D01*
X142636017Y-78966992D01*
X142699753Y-78950271D01*
X152975860Y-78950271D01*
X152982928Y-78963718D01*
X153657188Y-79637978D01*
X153671132Y-79645592D01*
X153672965Y-79645461D01*
X153679580Y-79641210D01*
X154357793Y-78962997D01*
X154364223Y-78951223D01*
X154354926Y-78939207D01*
X154311931Y-78909102D01*
X154302445Y-78903624D01*
X154111007Y-78814355D01*
X154100715Y-78810609D01*
X153896691Y-78755941D01*
X153885896Y-78754038D01*
X153675475Y-78735628D01*
X153664525Y-78735628D01*
X153454104Y-78754038D01*
X153443309Y-78755941D01*
X153239285Y-78810609D01*
X153228993Y-78814355D01*
X153037559Y-78903623D01*
X153028068Y-78909103D01*
X152984235Y-78939794D01*
X152975860Y-78950271D01*
X142699753Y-78950271D01*
X142732602Y-78941653D01*
X142909954Y-78895126D01*
X142909955Y-78895126D01*
X142914097Y-78894039D01*
X143179704Y-78784021D01*
X143427922Y-78638974D01*
X143654159Y-78461582D01*
X143695285Y-78419144D01*
X143851244Y-78258206D01*
X143854227Y-78255128D01*
X143856760Y-78251680D01*
X143856764Y-78251675D01*
X144017045Y-78033478D01*
X144024425Y-78023431D01*
X144042173Y-77990744D01*
X144159554Y-77774555D01*
X144159555Y-77774553D01*
X144161604Y-77770779D01*
X144248054Y-77541997D01*
X144261707Y-77505866D01*
X144261708Y-77505862D01*
X144263225Y-77501848D01*
X144301449Y-77334953D01*
X144326449Y-77225797D01*
X144326450Y-77225793D01*
X144327407Y-77221613D01*
X144335437Y-77131644D01*
X144352743Y-76937726D01*
X144352743Y-76937724D01*
X144352963Y-76935260D01*
X144353427Y-76891000D01*
X144347895Y-76809856D01*
X144334165Y-76608452D01*
X144334164Y-76608446D01*
X144333873Y-76604175D01*
X144329336Y-76582264D01*
X144280732Y-76347565D01*
X144275574Y-76322658D01*
X144179607Y-76051657D01*
X144047750Y-75796188D01*
X144034488Y-75777317D01*
X143935535Y-75636522D01*
X143882441Y-75560977D01*
X143704685Y-75369689D01*
X143689661Y-75353521D01*
X143689658Y-75353519D01*
X143686740Y-75350378D01*
X143464268Y-75168287D01*
X143219142Y-75018073D01*
X143201048Y-75010130D01*
X142959830Y-74904243D01*
X142955898Y-74902517D01*
X142929963Y-74895129D01*
X142817652Y-74863137D01*
X142679406Y-74823756D01*
X142466704Y-74793485D01*
X142399036Y-74783854D01*
X142399034Y-74783854D01*
X142394784Y-74783249D01*
X142390495Y-74783227D01*
X142390488Y-74783226D01*
X142111583Y-74781765D01*
X142111576Y-74781765D01*
X142107297Y-74781743D01*
X142103053Y-74782302D01*
X142103049Y-74782302D01*
X141977660Y-74798810D01*
X141822266Y-74819268D01*
X141818126Y-74820401D01*
X141818124Y-74820401D01*
X141741311Y-74841415D01*
X141544964Y-74895129D01*
X141541016Y-74896813D01*
X141284476Y-75006237D01*
X141284472Y-75006239D01*
X141280524Y-75007923D01*
X141197729Y-75057475D01*
X141037521Y-75153357D01*
X141037517Y-75153360D01*
X141033839Y-75155561D01*
X140809472Y-75335313D01*
X140611577Y-75543851D01*
X140443814Y-75777317D01*
X140309288Y-76031392D01*
X140307813Y-76035423D01*
X140213304Y-76293682D01*
X140210489Y-76301373D01*
X140149245Y-76582264D01*
X140142807Y-76664064D01*
X140127196Y-76862428D01*
X140127195Y-76862428D01*
X140127196Y-76862430D01*
X140126689Y-76868869D01*
X134858500Y-76868869D01*
X134858500Y-76184600D01*
X134857381Y-76173812D01*
X134848238Y-76085692D01*
X134848237Y-76085688D01*
X134847526Y-76078834D01*
X134791550Y-75911054D01*
X134698478Y-75760652D01*
X134573303Y-75635695D01*
X134427220Y-75545647D01*
X134379727Y-75492876D01*
X134368303Y-75422804D01*
X134396577Y-75357680D01*
X134406364Y-75347218D01*
X134516906Y-75241766D01*
X134523941Y-75233814D01*
X134655141Y-75057475D01*
X134660745Y-75048438D01*
X134760357Y-74852516D01*
X134764357Y-74842665D01*
X134829534Y-74632760D01*
X134831817Y-74622376D01*
X134833861Y-74606957D01*
X134831665Y-74592793D01*
X134818478Y-74589000D01*
X131883808Y-74589000D01*
X131870277Y-74592973D01*
X131868752Y-74603580D01*
X131893477Y-74721421D01*
X131896537Y-74731617D01*
X131977263Y-74936029D01*
X131981994Y-74945561D01*
X132096016Y-75133462D01*
X132102280Y-75142052D01*
X132246327Y-75308052D01*
X132253956Y-75315470D01*
X132285569Y-75341391D01*
X132325564Y-75400051D01*
X132327496Y-75471021D01*
X132290752Y-75531770D01*
X132271983Y-75545969D01*
X132125652Y-75636522D01*
X132000695Y-75761697D01*
X131996855Y-75767927D01*
X131996854Y-75767928D01*
X131917412Y-75896807D01*
X131907885Y-75912262D01*
X131905581Y-75919209D01*
X131860310Y-76055698D01*
X131852203Y-76080139D01*
X131841500Y-76184600D01*
X131841500Y-77395405D01*
X131821498Y-77463526D01*
X131804595Y-77484500D01*
X131346500Y-77942595D01*
X131284188Y-77976621D01*
X131257405Y-77979500D01*
X121109767Y-77979500D01*
X121098584Y-77978973D01*
X121091091Y-77977298D01*
X121083165Y-77977547D01*
X121083164Y-77977547D01*
X121023014Y-77979438D01*
X121019055Y-77979500D01*
X120991144Y-77979500D01*
X120987210Y-77979997D01*
X120987209Y-77979997D01*
X120987144Y-77980005D01*
X120975307Y-77980938D01*
X120943049Y-77981952D01*
X120939030Y-77982078D01*
X120931111Y-77982327D01*
X120911657Y-77987979D01*
X120892300Y-77991987D01*
X120880070Y-77993532D01*
X120880069Y-77993532D01*
X120872203Y-77994526D01*
X120864832Y-77997445D01*
X120864830Y-77997445D01*
X120831088Y-78010804D01*
X120819858Y-78014649D01*
X120785017Y-78024771D01*
X120785016Y-78024771D01*
X120777407Y-78026982D01*
X120770588Y-78031015D01*
X120770583Y-78031017D01*
X120759972Y-78037293D01*
X120742224Y-78045988D01*
X120723383Y-78053448D01*
X120716967Y-78058110D01*
X120716966Y-78058110D01*
X120687613Y-78079436D01*
X120677693Y-78085952D01*
X120646465Y-78104420D01*
X120646462Y-78104422D01*
X120639638Y-78108458D01*
X120625317Y-78122779D01*
X120610284Y-78135619D01*
X120593893Y-78147528D01*
X120588842Y-78153634D01*
X120565702Y-78181605D01*
X120557712Y-78190384D01*
X111875748Y-86872347D01*
X111867462Y-86879887D01*
X111860983Y-86883999D01*
X111855558Y-86889776D01*
X111814358Y-86933650D01*
X111811603Y-86936492D01*
X111791866Y-86956229D01*
X111789386Y-86959426D01*
X111781683Y-86968446D01*
X111751415Y-87000678D01*
X111747596Y-87007624D01*
X111747594Y-87007627D01*
X111741653Y-87018433D01*
X111730802Y-87034952D01*
X111718387Y-87050958D01*
X111715242Y-87058227D01*
X111715239Y-87058231D01*
X111700827Y-87091536D01*
X111695610Y-87102186D01*
X111674306Y-87140939D01*
X111672335Y-87148614D01*
X111672335Y-87148615D01*
X111669268Y-87160561D01*
X111662864Y-87179265D01*
X111654820Y-87197854D01*
X111653581Y-87205677D01*
X111653578Y-87205687D01*
X111647902Y-87241523D01*
X111645496Y-87253143D01*
X111637782Y-87283191D01*
X111634501Y-87295969D01*
X111634501Y-87316223D01*
X111632950Y-87335933D01*
X111629781Y-87355942D01*
X111630527Y-87363834D01*
X111633942Y-87399960D01*
X111634501Y-87411818D01*
X111634501Y-96949234D01*
X111633974Y-96960417D01*
X111632299Y-96967910D01*
X111632548Y-96975836D01*
X111632548Y-96975837D01*
X111634439Y-97035987D01*
X111634501Y-97039946D01*
X111634501Y-97067857D01*
X111634998Y-97071791D01*
X111634998Y-97071792D01*
X111635006Y-97071857D01*
X111635939Y-97083694D01*
X111637328Y-97127890D01*
X111639539Y-97135500D01*
X111640779Y-97143329D01*
X111638371Y-97143710D01*
X111638207Y-97202590D01*
X111635817Y-97209833D01*
X111570930Y-97388105D01*
X111569982Y-97393074D01*
X111569981Y-97393078D01*
X111538626Y-97557449D01*
X111525444Y-97626553D01*
X111518666Y-97869205D01*
X111550771Y-98109820D01*
X111552233Y-98114661D01*
X111552233Y-98114663D01*
X111609781Y-98305270D01*
X111620933Y-98342208D01*
X111727346Y-98560388D01*
X111867274Y-98758747D01*
X111886909Y-98780250D01*
X112966409Y-99859750D01*
X114355963Y-101249305D01*
X114355969Y-101249310D01*
X115752963Y-102646305D01*
X115752970Y-102646311D01*
X116966909Y-103860250D01*
X118483463Y-105376805D01*
X118483470Y-105376811D01*
X119887909Y-106781250D01*
X121404463Y-108297805D01*
X121404469Y-108297810D01*
X122674463Y-109567805D01*
X122674470Y-109567811D01*
X125221909Y-112115250D01*
X126611463Y-113504805D01*
X126611468Y-113504809D01*
X127059325Y-113952666D01*
X127061779Y-113955188D01*
X127130332Y-114027681D01*
X127192769Y-114075418D01*
X127197868Y-114079531D01*
X127257720Y-114130470D01*
X127262045Y-114133089D01*
X127262050Y-114133093D01*
X127285824Y-114147491D01*
X127297071Y-114155163D01*
X127323174Y-114175120D01*
X127392416Y-114212247D01*
X127398137Y-114215510D01*
X127465357Y-114256220D01*
X127495834Y-114268534D01*
X127508150Y-114274303D01*
X127537109Y-114289831D01*
X127611433Y-114315423D01*
X127617561Y-114317714D01*
X127644739Y-114328695D01*
X127685733Y-114345258D01*
X127685737Y-114345259D01*
X127690429Y-114347155D01*
X127695368Y-114348277D01*
X127695371Y-114348278D01*
X127722460Y-114354432D01*
X127735559Y-114358163D01*
X127766631Y-114368862D01*
X127844100Y-114382243D01*
X127850504Y-114383523D01*
X127927144Y-114400935D01*
X127959953Y-114402999D01*
X127973453Y-114404585D01*
X128005836Y-114410179D01*
X128009793Y-114410359D01*
X128009796Y-114410359D01*
X128033506Y-114411436D01*
X128033525Y-114411436D01*
X128034925Y-114411500D01*
X128091107Y-114411500D01*
X128099018Y-114411749D01*
X128169412Y-114416178D01*
X128210991Y-114412101D01*
X128223287Y-114411500D01*
X156780771Y-114411500D01*
X156790657Y-114411888D01*
X156828000Y-114414827D01*
X156845000Y-114416165D01*
X156849931Y-114415777D01*
X156849935Y-114415777D01*
X156862012Y-114414827D01*
X156877604Y-114414569D01*
X156892759Y-114415257D01*
X156892766Y-114415257D01*
X156897817Y-114415486D01*
X156902837Y-114414905D01*
X156902843Y-114414905D01*
X156989504Y-114404878D01*
X156994098Y-114404431D01*
X157015410Y-114402753D01*
X157081711Y-114397535D01*
X157082790Y-114397276D01*
X157086965Y-114396940D01*
X157104971Y-114392518D01*
X157120533Y-114389718D01*
X157133923Y-114388168D01*
X157133930Y-114388167D01*
X157138956Y-114387585D01*
X157143823Y-114386208D01*
X157144913Y-114385992D01*
X157215621Y-114392381D01*
X157271651Y-114435983D01*
X157295213Y-114502956D01*
X157278826Y-114572036D01*
X157258484Y-114598687D01*
X145424454Y-126432819D01*
X145362142Y-126466844D01*
X145291326Y-126461780D01*
X145234490Y-126419233D01*
X145209679Y-126352713D01*
X145209857Y-126332523D01*
X145218753Y-126232847D01*
X145218753Y-126232845D01*
X145218973Y-126230381D01*
X145219415Y-126188220D01*
X145214521Y-126116434D01*
X145201081Y-125919275D01*
X145201080Y-125919269D01*
X145200789Y-125914998D01*
X145145254Y-125646832D01*
X145053839Y-125388685D01*
X144928235Y-125145332D01*
X144918898Y-125132046D01*
X144773230Y-124924782D01*
X144770767Y-124921277D01*
X144665534Y-124808033D01*
X144587268Y-124723808D01*
X144587265Y-124723805D01*
X144584347Y-124720665D01*
X144581032Y-124717951D01*
X144581028Y-124717948D01*
X144375745Y-124549926D01*
X144372427Y-124547210D01*
X144138926Y-124404121D01*
X144127609Y-124399153D01*
X143892095Y-124295769D01*
X143892091Y-124295768D01*
X143888167Y-124294045D01*
X143624788Y-124219020D01*
X143620546Y-124218416D01*
X143620540Y-124218415D01*
X143402132Y-124187331D01*
X143353665Y-124180433D01*
X143209811Y-124179680D01*
X143084099Y-124179022D01*
X143084093Y-124179022D01*
X143079813Y-124179000D01*
X143075569Y-124179559D01*
X143075565Y-124179559D01*
X142992939Y-124190437D01*
X142808300Y-124214745D01*
X142804160Y-124215878D01*
X142804158Y-124215878D01*
X142731230Y-124235829D01*
X142544150Y-124287008D01*
X142540202Y-124288692D01*
X142296204Y-124392766D01*
X142296200Y-124392768D01*
X142292252Y-124394452D01*
X142272347Y-124406365D01*
X142060947Y-124532884D01*
X142060943Y-124532887D01*
X142057265Y-124535088D01*
X141843540Y-124706314D01*
X141751186Y-124803635D01*
X141688491Y-124869702D01*
X141655030Y-124904962D01*
X141495224Y-125127356D01*
X141367079Y-125369381D01*
X141365607Y-125373404D01*
X141365605Y-125373408D01*
X141325601Y-125482724D01*
X141272965Y-125626557D01*
X141214626Y-125894127D01*
X141214290Y-125898397D01*
X141206026Y-126003394D01*
X141180740Y-126069736D01*
X141123602Y-126111875D01*
X141052752Y-126116434D01*
X140991320Y-126082605D01*
X139007235Y-124098523D01*
X138993693Y-124082514D01*
X138982049Y-124066160D01*
X138973281Y-124057176D01*
X138969603Y-124054419D01*
X138967094Y-124052136D01*
X138966763Y-124051823D01*
X138589357Y-123695762D01*
X138508229Y-123619222D01*
X138508221Y-123619215D01*
X138506893Y-123617962D01*
X138017556Y-123207361D01*
X138017546Y-123207353D01*
X138017544Y-123207352D01*
X138016142Y-123206175D01*
X138014686Y-123205091D01*
X138014676Y-123205083D01*
X137503746Y-122824712D01*
X137502278Y-122823619D01*
X136967040Y-122471589D01*
X136412239Y-122151276D01*
X135964533Y-121926430D01*
X135841372Y-121864576D01*
X135841356Y-121864568D01*
X135839752Y-121863763D01*
X135251516Y-121610024D01*
X134833757Y-121457974D01*
X134651258Y-121391550D01*
X134651252Y-121391548D01*
X134649521Y-121390918D01*
X134647774Y-121390395D01*
X134647762Y-121390391D01*
X134340218Y-121298319D01*
X134035806Y-121207184D01*
X133412445Y-121059446D01*
X132781549Y-120948202D01*
X132779732Y-120947990D01*
X132779714Y-120947987D01*
X132147069Y-120874043D01*
X132147056Y-120874042D01*
X132145252Y-120873831D01*
X131505707Y-120836582D01*
X130865079Y-120836582D01*
X130574669Y-120853497D01*
X130227349Y-120873726D01*
X130227339Y-120873727D01*
X130225534Y-120873832D01*
X130223737Y-120874042D01*
X130223726Y-120874043D01*
X129907385Y-120911018D01*
X129589237Y-120948204D01*
X129587458Y-120948518D01*
X129587449Y-120948519D01*
X128960121Y-121059135D01*
X128960117Y-121059136D01*
X128958341Y-121059449D01*
X128956598Y-121059862D01*
X128956584Y-121059865D01*
X128543592Y-121157746D01*
X128334981Y-121207188D01*
X127721265Y-121390922D01*
X127719545Y-121391548D01*
X127719536Y-121391551D01*
X127512608Y-121466867D01*
X127119271Y-121610030D01*
X126531036Y-121863769D01*
X126529432Y-121864574D01*
X126529416Y-121864582D01*
X126252039Y-122003887D01*
X125958549Y-122151283D01*
X125403748Y-122471597D01*
X124868510Y-122823627D01*
X124867053Y-122824712D01*
X124867042Y-122824720D01*
X124356113Y-123205091D01*
X124356100Y-123205101D01*
X124354647Y-123206183D01*
X124353253Y-123207353D01*
X124353243Y-123207361D01*
X124249345Y-123294542D01*
X123863896Y-123617971D01*
X123862570Y-123619222D01*
X123862560Y-123619231D01*
X123414683Y-124041780D01*
X123410024Y-124045917D01*
X123406500Y-124048426D01*
X123403024Y-124051818D01*
X123403018Y-124051823D01*
X123400997Y-124053796D01*
X123397516Y-124057193D01*
X123380769Y-124079539D01*
X123369042Y-124093063D01*
X121898855Y-125563249D01*
X121836543Y-125597275D01*
X121765727Y-125592210D01*
X121708892Y-125549663D01*
X121684052Y-125482724D01*
X121678433Y-125400292D01*
X121678432Y-125400286D01*
X121678141Y-125396015D01*
X121671841Y-125365591D01*
X121627015Y-125149139D01*
X121622606Y-125127849D01*
X121531191Y-124869702D01*
X121405587Y-124626349D01*
X121395614Y-124612158D01*
X121326853Y-124514322D01*
X121248119Y-124402294D01*
X121078904Y-124220197D01*
X121064620Y-124204825D01*
X121064617Y-124204822D01*
X121061699Y-124201682D01*
X121058384Y-124198968D01*
X121058380Y-124198965D01*
X120926571Y-124091081D01*
X120849779Y-124028227D01*
X120616278Y-123885138D01*
X120612342Y-123883410D01*
X120369447Y-123776786D01*
X120369443Y-123776785D01*
X120365519Y-123775062D01*
X120102140Y-123700037D01*
X120097898Y-123699433D01*
X120097892Y-123699432D01*
X119897408Y-123670899D01*
X119831017Y-123661450D01*
X119687163Y-123660697D01*
X119561451Y-123660039D01*
X119561445Y-123660039D01*
X119557165Y-123660017D01*
X119552921Y-123660576D01*
X119552917Y-123660576D01*
X119433876Y-123676248D01*
X119285652Y-123695762D01*
X119281512Y-123696895D01*
X119281510Y-123696895D01*
X119208582Y-123716846D01*
X119021502Y-123768025D01*
X119017554Y-123769709D01*
X118773556Y-123873783D01*
X118773552Y-123873785D01*
X118769604Y-123875469D01*
X118749699Y-123887382D01*
X118538299Y-124013901D01*
X118538295Y-124013904D01*
X118534617Y-124016105D01*
X118320892Y-124187331D01*
X118132382Y-124385979D01*
X117972576Y-124608373D01*
X117914560Y-124717948D01*
X117913973Y-124719056D01*
X117864420Y-124769899D01*
X117795246Y-124785881D01*
X117728412Y-124761928D01*
X117685808Y-124707335D01*
X117587096Y-124463243D01*
X117586198Y-124460958D01*
X116902174Y-122669839D01*
X116901320Y-122667536D01*
X116252333Y-120863415D01*
X116251524Y-120861096D01*
X115637812Y-119044639D01*
X115637049Y-119042304D01*
X115058874Y-117214275D01*
X115058156Y-117211927D01*
X114515715Y-115372960D01*
X114515043Y-115370598D01*
X114253277Y-114414905D01*
X114008536Y-113521367D01*
X114007920Y-113519032D01*
X114004322Y-113504811D01*
X113537553Y-111660278D01*
X113536976Y-111657899D01*
X113102942Y-109790398D01*
X113102409Y-109788000D01*
X112704840Y-107912317D01*
X112704355Y-107909910D01*
X112343439Y-106026932D01*
X112343000Y-106024516D01*
X112119751Y-104723055D01*
X112018840Y-104134782D01*
X112018453Y-104132388D01*
X112014491Y-104106239D01*
X111887639Y-103269136D01*
X111731186Y-102236693D01*
X111730842Y-102234261D01*
X111578147Y-101074433D01*
X111480580Y-100333343D01*
X111480288Y-100330946D01*
X111473212Y-100267688D01*
X111267121Y-98425482D01*
X111266875Y-98423064D01*
X111264371Y-98395891D01*
X111195273Y-97646257D01*
X111090896Y-96513884D01*
X111090694Y-96511436D01*
X110951955Y-94599146D01*
X110951801Y-94596695D01*
X110850360Y-92682065D01*
X110850254Y-92679612D01*
X110786151Y-90763368D01*
X110786093Y-90760912D01*
X110759351Y-88843788D01*
X110759341Y-88841333D01*
X110769266Y-87050958D01*
X110769969Y-86924099D01*
X110770006Y-86921646D01*
X110774122Y-86757297D01*
X110818004Y-85004883D01*
X110818090Y-85002428D01*
X110903434Y-83087064D01*
X110903567Y-83084612D01*
X111026230Y-81171222D01*
X111026411Y-81168773D01*
X111123408Y-80010000D01*
X111754647Y-80010000D01*
X111774022Y-80231463D01*
X111831560Y-80446196D01*
X111833882Y-80451177D01*
X111833883Y-80451178D01*
X111923186Y-80642689D01*
X111923189Y-80642694D01*
X111925512Y-80647676D01*
X111928668Y-80652183D01*
X111928669Y-80652185D01*
X112046293Y-80820169D01*
X112053023Y-80829781D01*
X112210219Y-80986977D01*
X112214727Y-80990134D01*
X112214730Y-80990136D01*
X112290495Y-81043187D01*
X112392323Y-81114488D01*
X112397305Y-81116811D01*
X112397310Y-81116814D01*
X112587810Y-81205645D01*
X112593804Y-81208440D01*
X112599112Y-81209862D01*
X112599114Y-81209863D01*
X112664949Y-81227503D01*
X112808537Y-81265978D01*
X113030000Y-81285353D01*
X113251463Y-81265978D01*
X113395051Y-81227503D01*
X113460886Y-81209863D01*
X113460888Y-81209862D01*
X113466196Y-81208440D01*
X113472190Y-81205645D01*
X113662690Y-81116814D01*
X113662695Y-81116811D01*
X113667677Y-81114488D01*
X113769505Y-81043187D01*
X113845270Y-80990136D01*
X113845273Y-80990134D01*
X113849781Y-80986977D01*
X114006977Y-80829781D01*
X114013708Y-80820169D01*
X114131331Y-80652185D01*
X114131332Y-80652183D01*
X114134488Y-80647676D01*
X114136811Y-80642694D01*
X114136814Y-80642689D01*
X114226117Y-80451178D01*
X114226118Y-80451177D01*
X114228440Y-80446196D01*
X114285978Y-80231463D01*
X114305353Y-80010000D01*
X114285978Y-79788537D01*
X114228440Y-79573804D01*
X114226117Y-79568822D01*
X114136814Y-79377311D01*
X114136811Y-79377306D01*
X114134488Y-79372324D01*
X114131331Y-79367815D01*
X114010136Y-79194730D01*
X114010134Y-79194727D01*
X114006977Y-79190219D01*
X113849781Y-79033023D01*
X113845273Y-79029866D01*
X113845270Y-79029864D01*
X113753925Y-78965904D01*
X113667677Y-78905512D01*
X113662695Y-78903189D01*
X113662690Y-78903186D01*
X113471178Y-78813883D01*
X113471177Y-78813882D01*
X113466196Y-78811560D01*
X113460888Y-78810138D01*
X113460886Y-78810137D01*
X113363420Y-78784021D01*
X113251463Y-78754022D01*
X113030000Y-78734647D01*
X112808537Y-78754022D01*
X112696580Y-78784021D01*
X112599114Y-78810137D01*
X112599112Y-78810138D01*
X112593804Y-78811560D01*
X112588823Y-78813882D01*
X112588822Y-78813883D01*
X112397311Y-78903186D01*
X112397306Y-78903189D01*
X112392324Y-78905512D01*
X112387817Y-78908668D01*
X112387815Y-78908669D01*
X112214730Y-79029864D01*
X112214727Y-79029866D01*
X112210219Y-79033023D01*
X112053023Y-79190219D01*
X112049866Y-79194727D01*
X112049864Y-79194730D01*
X111928669Y-79367815D01*
X111925512Y-79372324D01*
X111923189Y-79377306D01*
X111923186Y-79377311D01*
X111833883Y-79568822D01*
X111831560Y-79573804D01*
X111774022Y-79788537D01*
X111754647Y-80010000D01*
X111123408Y-80010000D01*
X111186343Y-79258140D01*
X111186572Y-79255695D01*
X111363677Y-77542370D01*
X111383711Y-77348564D01*
X111383985Y-77346137D01*
X111395162Y-77255350D01*
X111416121Y-77085105D01*
X111444297Y-77019940D01*
X111503231Y-76980352D01*
X111574213Y-76978910D01*
X111634370Y-77015701D01*
X111703502Y-77091677D01*
X111913595Y-77267341D01*
X111917236Y-77269625D01*
X112141944Y-77410585D01*
X112141948Y-77410587D01*
X112145584Y-77412868D01*
X112257779Y-77463526D01*
X112391265Y-77523798D01*
X112391269Y-77523800D01*
X112395177Y-77525564D01*
X112399297Y-77526784D01*
X112399296Y-77526784D01*
X112653643Y-77602125D01*
X112653647Y-77602126D01*
X112657756Y-77603343D01*
X112661990Y-77603991D01*
X112661995Y-77603992D01*
X112924218Y-77644117D01*
X112924220Y-77644117D01*
X112928460Y-77644766D01*
X113067832Y-77646956D01*
X113197991Y-77649001D01*
X113197997Y-77649001D01*
X113202282Y-77649068D01*
X113474155Y-77616168D01*
X113739047Y-77546675D01*
X113743007Y-77545035D01*
X113743012Y-77545033D01*
X113879257Y-77488598D01*
X113992056Y-77441875D01*
X114151715Y-77348578D01*
X114224799Y-77305871D01*
X114224800Y-77305870D01*
X114228502Y-77303707D01*
X114444009Y-77134728D01*
X114485729Y-77091677D01*
X114631606Y-76941143D01*
X114634589Y-76938065D01*
X114637122Y-76934617D01*
X114637126Y-76934612D01*
X114794177Y-76720812D01*
X114796715Y-76717357D01*
X114830219Y-76655650D01*
X114925338Y-76480464D01*
X114925339Y-76480462D01*
X114927388Y-76476688D01*
X114985591Y-76322658D01*
X115022671Y-76224529D01*
X115022672Y-76224525D01*
X115024189Y-76220511D01*
X115067503Y-76031392D01*
X115084369Y-75957751D01*
X115084370Y-75957747D01*
X115085327Y-75953567D01*
X115088394Y-75919209D01*
X115109451Y-75683261D01*
X115109451Y-75683259D01*
X115109671Y-75680795D01*
X115110113Y-75638634D01*
X115109913Y-75635695D01*
X115091779Y-75369689D01*
X115091778Y-75369683D01*
X115091487Y-75365412D01*
X115078605Y-75303208D01*
X115084377Y-75232448D01*
X115127489Y-75176041D01*
X115194254Y-75151896D01*
X115264983Y-75168536D01*
X117058304Y-76203812D01*
X117075534Y-76215775D01*
X117091011Y-76228555D01*
X117101805Y-76234963D01*
X117106023Y-76236654D01*
X117108820Y-76238098D01*
X117328710Y-76356650D01*
X117665970Y-76538481D01*
X117816038Y-76608452D01*
X118244943Y-76808435D01*
X118244958Y-76808442D01*
X118246572Y-76809194D01*
X118248232Y-76809853D01*
X118248238Y-76809856D01*
X118840240Y-77045018D01*
X118840255Y-77045024D01*
X118841933Y-77045690D01*
X118843658Y-77046261D01*
X118843673Y-77046267D01*
X119448310Y-77246597D01*
X119448316Y-77246599D01*
X119450037Y-77247169D01*
X120068826Y-77412951D01*
X120070601Y-77413317D01*
X120070616Y-77413321D01*
X120694410Y-77542103D01*
X120694416Y-77542104D01*
X120696208Y-77542474D01*
X121064365Y-77596389D01*
X121328229Y-77635031D01*
X121328234Y-77635032D01*
X121330060Y-77635299D01*
X121331882Y-77635458D01*
X121331896Y-77635460D01*
X121966416Y-77690955D01*
X121966422Y-77690955D01*
X121968236Y-77691114D01*
X122608578Y-77709728D01*
X123248919Y-77691079D01*
X123250744Y-77690919D01*
X123250749Y-77690919D01*
X123885247Y-77635392D01*
X123885262Y-77635390D01*
X123887093Y-77635230D01*
X124520939Y-77542370D01*
X124717167Y-77501848D01*
X125146510Y-77413187D01*
X125146525Y-77413183D01*
X125148314Y-77412814D01*
X125397135Y-77346137D01*
X125765343Y-77247468D01*
X125765359Y-77247463D01*
X125767095Y-77246998D01*
X126375188Y-77045486D01*
X126376862Y-77044821D01*
X126376881Y-77044814D01*
X126968854Y-76809625D01*
X126968858Y-76809623D01*
X126970535Y-76808957D01*
X127551123Y-76538214D01*
X127552716Y-76537355D01*
X127552726Y-76537350D01*
X127942111Y-76327388D01*
X128114987Y-76234171D01*
X128117729Y-76232480D01*
X128658661Y-75898818D01*
X128660219Y-75897857D01*
X128673310Y-75888691D01*
X129026035Y-75641704D01*
X129184974Y-75530411D01*
X129687476Y-75133076D01*
X130166026Y-74707195D01*
X130619005Y-74254211D01*
X130774635Y-74079329D01*
X130789128Y-74063043D01*
X131866139Y-74063043D01*
X131868335Y-74077207D01*
X131881522Y-74081000D01*
X133077885Y-74081000D01*
X133093124Y-74076525D01*
X133094329Y-74075135D01*
X133096000Y-74067452D01*
X133096000Y-74062885D01*
X133604000Y-74062885D01*
X133608475Y-74078124D01*
X133609865Y-74079329D01*
X133617548Y-74081000D01*
X134816192Y-74081000D01*
X134829723Y-74077027D01*
X134831248Y-74066420D01*
X134806523Y-73948579D01*
X134803463Y-73938383D01*
X134722737Y-73733971D01*
X134718006Y-73724439D01*
X134603984Y-73536538D01*
X134597720Y-73527948D01*
X134453673Y-73361948D01*
X134446042Y-73354528D01*
X134276089Y-73215174D01*
X134267322Y-73209150D01*
X134076318Y-73100424D01*
X134066654Y-73095959D01*
X133860059Y-73020969D01*
X133849792Y-73018198D01*
X133632345Y-72978877D01*
X133624116Y-72977944D01*
X133619624Y-72977732D01*
X133606876Y-72981475D01*
X133605671Y-72982865D01*
X133604000Y-72990548D01*
X133604000Y-74062885D01*
X133096000Y-74062885D01*
X133096000Y-72999030D01*
X133091690Y-72984352D01*
X133079807Y-72982289D01*
X132975675Y-72991124D01*
X132965203Y-72992914D01*
X132752465Y-73048130D01*
X132742425Y-73051665D01*
X132542030Y-73141937D01*
X132532744Y-73147106D01*
X132350425Y-73269850D01*
X132342130Y-73276519D01*
X132183100Y-73428228D01*
X132176059Y-73436186D01*
X132044859Y-73612525D01*
X132039255Y-73621562D01*
X131939643Y-73817484D01*
X131935643Y-73827335D01*
X131870466Y-74037240D01*
X131868183Y-74047624D01*
X131866139Y-74063043D01*
X130789128Y-74063043D01*
X131043669Y-73777015D01*
X131043674Y-73777009D01*
X131044879Y-73775655D01*
X131240739Y-73527948D01*
X131441061Y-73274598D01*
X131441066Y-73274592D01*
X131442208Y-73273147D01*
X131443265Y-73271637D01*
X131443275Y-73271624D01*
X131808589Y-72749899D01*
X131809647Y-72748388D01*
X131840195Y-72698863D01*
X132133847Y-72222777D01*
X132137280Y-72217571D01*
X132140039Y-72214230D01*
X132146447Y-72203437D01*
X132148253Y-72198934D01*
X132148259Y-72198921D01*
X132156836Y-72177530D01*
X132164665Y-72161425D01*
X133571363Y-69724955D01*
X133622746Y-69675962D01*
X133692459Y-69662526D01*
X133758370Y-69688912D01*
X133799689Y-69747142D01*
X133827842Y-69829370D01*
X133856968Y-69887280D01*
X133926567Y-70025663D01*
X133950890Y-70074025D01*
X133953316Y-70077554D01*
X133953319Y-70077560D01*
X134103573Y-70296179D01*
X134106004Y-70299716D01*
X134290312Y-70502269D01*
X134500405Y-70677933D01*
X134504046Y-70680217D01*
X134728754Y-70821177D01*
X134728758Y-70821179D01*
X134732394Y-70823460D01*
X134800274Y-70854109D01*
X134978075Y-70934390D01*
X134978079Y-70934392D01*
X134981987Y-70936156D01*
X134986107Y-70937376D01*
X134986106Y-70937376D01*
X135240453Y-71012717D01*
X135240457Y-71012718D01*
X135244566Y-71013935D01*
X135248800Y-71014583D01*
X135248805Y-71014584D01*
X135511028Y-71054709D01*
X135511030Y-71054709D01*
X135515270Y-71055358D01*
X135654642Y-71057548D01*
X135784801Y-71059593D01*
X135784807Y-71059593D01*
X135789092Y-71059660D01*
X136060965Y-71026760D01*
X136325857Y-70957267D01*
X136329817Y-70955627D01*
X136329822Y-70955625D01*
X136452361Y-70904867D01*
X136578866Y-70852467D01*
X136815312Y-70714299D01*
X137030819Y-70545320D01*
X137072539Y-70502269D01*
X137218416Y-70351735D01*
X137221399Y-70348657D01*
X137223932Y-70345209D01*
X137223936Y-70345204D01*
X137380987Y-70131404D01*
X137383525Y-70127949D01*
X137410884Y-70077560D01*
X137512148Y-69891056D01*
X137512149Y-69891054D01*
X137514198Y-69887280D01*
X137610999Y-69631103D01*
X137651903Y-69452505D01*
X137671179Y-69368343D01*
X137671180Y-69368339D01*
X137672137Y-69364159D01*
X137680640Y-69268891D01*
X137696261Y-69093853D01*
X137696261Y-69093851D01*
X137696481Y-69091387D01*
X137696923Y-69049226D01*
X137695979Y-69035382D01*
X137678589Y-68780281D01*
X137678588Y-68780275D01*
X137678297Y-68776004D01*
X137622762Y-68507838D01*
X137581000Y-68389906D01*
X137577116Y-68319015D01*
X137612174Y-68257279D01*
X137675044Y-68224296D01*
X137745766Y-68230540D01*
G37*
%TD.AperFunction*%
%TA.AperFunction,Conductor*%
G36*
X163742515Y-90486234D02*
G01*
X163782476Y-90544916D01*
X163788494Y-90579301D01*
X163789777Y-90616704D01*
X163789830Y-90617563D01*
X163789831Y-90617579D01*
X163806119Y-90880402D01*
X163867481Y-91870520D01*
X163867554Y-91871332D01*
X163867555Y-91871347D01*
X163886033Y-92077262D01*
X163979759Y-93121713D01*
X164126526Y-94369330D01*
X164126656Y-94370222D01*
X164297687Y-95543912D01*
X164307670Y-95612422D01*
X164307818Y-95613275D01*
X164307821Y-95613291D01*
X164498300Y-96707806D01*
X164523053Y-96850041D01*
X164523225Y-96850889D01*
X164523225Y-96850890D01*
X164769238Y-98065089D01*
X164772511Y-98081244D01*
X164772700Y-98082060D01*
X164772706Y-98082088D01*
X165050544Y-99282158D01*
X165055854Y-99305093D01*
X165372866Y-100520656D01*
X165441625Y-100757352D01*
X165506668Y-100981255D01*
X165506463Y-101052251D01*
X165467907Y-101111866D01*
X165403242Y-101141173D01*
X165332997Y-101130866D01*
X165293373Y-101102177D01*
X165276077Y-101083565D01*
X165272761Y-101080851D01*
X165272758Y-101080848D01*
X165067475Y-100912826D01*
X165064157Y-100910110D01*
X164830656Y-100767021D01*
X164824902Y-100764495D01*
X164583825Y-100658669D01*
X164583821Y-100658668D01*
X164579897Y-100656945D01*
X164316518Y-100581920D01*
X164312276Y-100581316D01*
X164312270Y-100581315D01*
X164111786Y-100552782D01*
X164045395Y-100543333D01*
X163901541Y-100542580D01*
X163775829Y-100541922D01*
X163775823Y-100541922D01*
X163771543Y-100541900D01*
X163767299Y-100542459D01*
X163767295Y-100542459D01*
X163648254Y-100558131D01*
X163500030Y-100577645D01*
X163495890Y-100578778D01*
X163495888Y-100578778D01*
X163422960Y-100598729D01*
X163235880Y-100649908D01*
X163231932Y-100651592D01*
X162987934Y-100755666D01*
X162987930Y-100755668D01*
X162983982Y-100757352D01*
X162910142Y-100801544D01*
X162752677Y-100895784D01*
X162752673Y-100895787D01*
X162748995Y-100897988D01*
X162535270Y-101069214D01*
X162451818Y-101157154D01*
X162353793Y-101260451D01*
X162346760Y-101267862D01*
X162186954Y-101490256D01*
X162058809Y-101732281D01*
X162057337Y-101736304D01*
X162057335Y-101736308D01*
X161991033Y-101917486D01*
X161964695Y-101989457D01*
X161906356Y-102257027D01*
X161884869Y-102530038D01*
X161885286Y-102537276D01*
X161900634Y-102803440D01*
X161953357Y-103072173D01*
X161954744Y-103076223D01*
X161954745Y-103076228D01*
X162040675Y-103327208D01*
X162042064Y-103331264D01*
X162071190Y-103389174D01*
X162140789Y-103527557D01*
X162165112Y-103575919D01*
X162167538Y-103579448D01*
X162167541Y-103579454D01*
X162306561Y-103781728D01*
X162320226Y-103801610D01*
X162323113Y-103804783D01*
X162323114Y-103804784D01*
X162501644Y-104000987D01*
X162504534Y-104004163D01*
X162714627Y-104179827D01*
X162718268Y-104182111D01*
X162942976Y-104323071D01*
X162942980Y-104323073D01*
X162946616Y-104325354D01*
X163014496Y-104356003D01*
X163192297Y-104436284D01*
X163192301Y-104436286D01*
X163196209Y-104438050D01*
X163200329Y-104439270D01*
X163200328Y-104439270D01*
X163454675Y-104514611D01*
X163454679Y-104514612D01*
X163458788Y-104515829D01*
X163463022Y-104516477D01*
X163463027Y-104516478D01*
X163725250Y-104556603D01*
X163725252Y-104556603D01*
X163729492Y-104557252D01*
X163868864Y-104559442D01*
X163999023Y-104561487D01*
X163999029Y-104561487D01*
X164003314Y-104561554D01*
X164275187Y-104528654D01*
X164540079Y-104459161D01*
X164544039Y-104457521D01*
X164544044Y-104457519D01*
X164666583Y-104406761D01*
X164793088Y-104354361D01*
X165029534Y-104216193D01*
X165245041Y-104047214D01*
X165263326Y-104028346D01*
X165405631Y-103881498D01*
X165435621Y-103850551D01*
X165438154Y-103847103D01*
X165438158Y-103847098D01*
X165595209Y-103633298D01*
X165597747Y-103629843D01*
X165625106Y-103579454D01*
X165726370Y-103392950D01*
X165726371Y-103392948D01*
X165728420Y-103389174D01*
X165825221Y-103132997D01*
X165868196Y-102945358D01*
X165902901Y-102883422D01*
X165965582Y-102850082D01*
X166036338Y-102855922D01*
X166092705Y-102899088D01*
X166109888Y-102931712D01*
X166401089Y-103760405D01*
X166515214Y-104085180D01*
X166517581Y-104092827D01*
X166518340Y-104096880D01*
X166520349Y-104102569D01*
X166520403Y-104102837D01*
X166520530Y-104103079D01*
X166522521Y-104108717D01*
X166524830Y-104113004D01*
X166527811Y-104118540D01*
X166537942Y-104143375D01*
X166582091Y-104296508D01*
X166583626Y-104301834D01*
X166587350Y-104319341D01*
X166614117Y-104511343D01*
X166615323Y-104529200D01*
X166614616Y-104723055D01*
X166613280Y-104740899D01*
X166592938Y-104879415D01*
X166585111Y-104932708D01*
X166581259Y-104950187D01*
X166526198Y-105136064D01*
X166519910Y-105152814D01*
X166439067Y-105329016D01*
X166430473Y-105344703D01*
X166325469Y-105507686D01*
X166314736Y-105521999D01*
X166208962Y-105643946D01*
X166195906Y-105655952D01*
X166189871Y-105661840D01*
X166182622Y-105667133D01*
X166177151Y-105674248D01*
X166163181Y-105692414D01*
X166152395Y-105704700D01*
X158536052Y-113321108D01*
X158473740Y-113355133D01*
X158402924Y-113350069D01*
X158346088Y-113307522D01*
X158321277Y-113241002D01*
X158324437Y-113202599D01*
X158338381Y-113144518D01*
X158338381Y-113144517D01*
X158339535Y-113139711D01*
X158340649Y-113125560D01*
X158342922Y-113109685D01*
X158345439Y-113097635D01*
X158345439Y-113097634D01*
X158346474Y-113092680D01*
X158347315Y-113074161D01*
X158349023Y-113058437D01*
X158351504Y-113044071D01*
X158352179Y-113040164D01*
X158353500Y-113011075D01*
X158353500Y-112967229D01*
X158353888Y-112957343D01*
X158357777Y-112907930D01*
X158358165Y-112903000D01*
X158357777Y-112898065D01*
X158356827Y-112885988D01*
X158356569Y-112870396D01*
X158357257Y-112855241D01*
X158357257Y-112855234D01*
X158357486Y-112850183D01*
X158354335Y-112822949D01*
X158353500Y-112808468D01*
X158353500Y-111040031D01*
X158373502Y-110971910D01*
X158390405Y-110950936D01*
X158716805Y-110624536D01*
X159669305Y-109672037D01*
X159669311Y-109672030D01*
X160307666Y-109033675D01*
X160310188Y-109031221D01*
X160379012Y-108966138D01*
X160379014Y-108966135D01*
X160382681Y-108962668D01*
X160430411Y-108900239D01*
X160434552Y-108895108D01*
X160482191Y-108839133D01*
X160482192Y-108839132D01*
X160485470Y-108835280D01*
X160488089Y-108830955D01*
X160488093Y-108830950D01*
X160502491Y-108807176D01*
X160510163Y-108795929D01*
X160530120Y-108769826D01*
X160567243Y-108700592D01*
X160570507Y-108694868D01*
X160608602Y-108631966D01*
X160611221Y-108627642D01*
X160623528Y-108597181D01*
X160629308Y-108584841D01*
X160642440Y-108560350D01*
X160644831Y-108555891D01*
X160670412Y-108481599D01*
X160672722Y-108475421D01*
X160700258Y-108407266D01*
X160702155Y-108402571D01*
X160709432Y-108370539D01*
X160713163Y-108357441D01*
X160723862Y-108326369D01*
X160737243Y-108248900D01*
X160738526Y-108242482D01*
X160754815Y-108170786D01*
X160754815Y-108170785D01*
X160755935Y-108165856D01*
X160757999Y-108133047D01*
X160759585Y-108119547D01*
X160765179Y-108087164D01*
X160766500Y-108058075D01*
X160766500Y-108001893D01*
X160766749Y-107993981D01*
X160770860Y-107928642D01*
X160771178Y-107923588D01*
X160767101Y-107882009D01*
X160766500Y-107869713D01*
X160766500Y-101919999D01*
X160766298Y-101917486D01*
X160752346Y-101744076D01*
X160752345Y-101744071D01*
X160751940Y-101739035D01*
X160712186Y-101577182D01*
X160695244Y-101508208D01*
X160694037Y-101503294D01*
X160690110Y-101494041D01*
X160601165Y-101284502D01*
X160599188Y-101279844D01*
X160505371Y-101130866D01*
X160472528Y-101078712D01*
X160472526Y-101078709D01*
X160469833Y-101074433D01*
X160387686Y-100981255D01*
X160312650Y-100896142D01*
X160312647Y-100896139D01*
X160309302Y-100892345D01*
X160255884Y-100848467D01*
X160125628Y-100741474D01*
X160125625Y-100741472D01*
X160121722Y-100738266D01*
X159972802Y-100651592D01*
X159916290Y-100618701D01*
X159916288Y-100618700D01*
X159911922Y-100616159D01*
X159822726Y-100581920D01*
X159690022Y-100530980D01*
X159690018Y-100530979D01*
X159685298Y-100529167D01*
X159680348Y-100528133D01*
X159680345Y-100528132D01*
X159452631Y-100480560D01*
X159452627Y-100480560D01*
X159447680Y-100479526D01*
X159205183Y-100468514D01*
X159200163Y-100469095D01*
X159200159Y-100469095D01*
X158969071Y-100495833D01*
X158969067Y-100495834D01*
X158964044Y-100496415D01*
X158959180Y-100497791D01*
X158959177Y-100497792D01*
X158848300Y-100529167D01*
X158730468Y-100562510D01*
X158725892Y-100564644D01*
X158725886Y-100564646D01*
X158515046Y-100662962D01*
X158515042Y-100662964D01*
X158510464Y-100665099D01*
X158506283Y-100667940D01*
X158506282Y-100667941D01*
X158469268Y-100693096D01*
X158309693Y-100801544D01*
X158133319Y-100968332D01*
X158130241Y-100972358D01*
X158130240Y-100972359D01*
X157988953Y-101157154D01*
X157988950Y-101157158D01*
X157985880Y-101161174D01*
X157983490Y-101165632D01*
X157983489Y-101165633D01*
X157938622Y-101249310D01*
X157871169Y-101375109D01*
X157792138Y-101604631D01*
X157750821Y-101843836D01*
X157749500Y-101872925D01*
X157749500Y-103869969D01*
X157729498Y-103938090D01*
X157675842Y-103984583D01*
X157605568Y-103994687D01*
X157540988Y-103965193D01*
X157534405Y-103959064D01*
X153279109Y-99703768D01*
X153245083Y-99641456D01*
X153242204Y-99614673D01*
X153242204Y-99396772D01*
X153262206Y-99328651D01*
X153315862Y-99282158D01*
X153386136Y-99272054D01*
X153393970Y-99273435D01*
X153466641Y-99288616D01*
X153480320Y-99291474D01*
X153722817Y-99302486D01*
X153727837Y-99301905D01*
X153727841Y-99301905D01*
X153958929Y-99275167D01*
X153958933Y-99275166D01*
X153963956Y-99274585D01*
X153968820Y-99273209D01*
X153968823Y-99273208D01*
X154171480Y-99215862D01*
X154197532Y-99208490D01*
X154202108Y-99206356D01*
X154202114Y-99206354D01*
X154412954Y-99108038D01*
X154412958Y-99108036D01*
X154417536Y-99105901D01*
X154618307Y-98969456D01*
X154794681Y-98802668D01*
X154866486Y-98708751D01*
X154939047Y-98613846D01*
X154939050Y-98613842D01*
X154942120Y-98609826D01*
X154966415Y-98564517D01*
X155054439Y-98400352D01*
X155056831Y-98395891D01*
X155135862Y-98166369D01*
X155171102Y-97962348D01*
X155176504Y-97931074D01*
X155176505Y-97931068D01*
X155177179Y-97927164D01*
X155177770Y-97914144D01*
X155178436Y-97899494D01*
X155178436Y-97899475D01*
X155178500Y-97898075D01*
X155178500Y-96245962D01*
X155198502Y-96177841D01*
X155252158Y-96131348D01*
X155322432Y-96121244D01*
X155387012Y-96150738D01*
X155393595Y-96156867D01*
X158036413Y-98799685D01*
X158038867Y-98802207D01*
X158107402Y-98874681D01*
X158111419Y-98877752D01*
X158111422Y-98877755D01*
X158169831Y-98922412D01*
X158174962Y-98926553D01*
X158234790Y-98977470D01*
X158239111Y-98980087D01*
X158239118Y-98980092D01*
X158262887Y-98994487D01*
X158274144Y-99002166D01*
X158296221Y-99019045D01*
X158296227Y-99019049D01*
X158300244Y-99022120D01*
X158369474Y-99059241D01*
X158375204Y-99062509D01*
X158438100Y-99100601D01*
X158438105Y-99100604D01*
X158442427Y-99103221D01*
X158447115Y-99105115D01*
X158447123Y-99105119D01*
X158472895Y-99115531D01*
X158485240Y-99121314D01*
X158514179Y-99136831D01*
X158518960Y-99138477D01*
X158518964Y-99138479D01*
X158588468Y-99162411D01*
X158594646Y-99164721D01*
X158642515Y-99184061D01*
X158667499Y-99194155D01*
X158672439Y-99195277D01*
X158672438Y-99195277D01*
X158699530Y-99201432D01*
X158712629Y-99205163D01*
X158743701Y-99215862D01*
X158821170Y-99229243D01*
X158827574Y-99230523D01*
X158904214Y-99247935D01*
X158937023Y-99249999D01*
X158950523Y-99251585D01*
X158982906Y-99257179D01*
X158986863Y-99257359D01*
X158986866Y-99257359D01*
X159010576Y-99258436D01*
X159010595Y-99258436D01*
X159011995Y-99258500D01*
X159068177Y-99258500D01*
X159076088Y-99258749D01*
X159146482Y-99263178D01*
X159188061Y-99259101D01*
X159200357Y-99258500D01*
X160081001Y-99258500D01*
X160083509Y-99258298D01*
X160083514Y-99258298D01*
X160256924Y-99244346D01*
X160256929Y-99244345D01*
X160261965Y-99243940D01*
X160266873Y-99242734D01*
X160266876Y-99242734D01*
X160492792Y-99187244D01*
X160497706Y-99186037D01*
X160502358Y-99184062D01*
X160502362Y-99184061D01*
X160657788Y-99118086D01*
X160721156Y-99091188D01*
X160827040Y-99024509D01*
X160922288Y-98964528D01*
X160922291Y-98964526D01*
X160926567Y-98961833D01*
X160972166Y-98921633D01*
X161104858Y-98804650D01*
X161104861Y-98804647D01*
X161108655Y-98801302D01*
X161125947Y-98780250D01*
X161259526Y-98617628D01*
X161259528Y-98617625D01*
X161262734Y-98613722D01*
X161384841Y-98403922D01*
X161406783Y-98346761D01*
X161470018Y-98182028D01*
X161470020Y-98182021D01*
X161471833Y-98177298D01*
X161495276Y-98065080D01*
X161498277Y-98053498D01*
X161501607Y-98042773D01*
X161503892Y-98025535D01*
X161505462Y-98016328D01*
X161520439Y-97944634D01*
X161521474Y-97939680D01*
X161522043Y-97927164D01*
X161524460Y-97873928D01*
X161525422Y-97863089D01*
X161531198Y-97819511D01*
X161531198Y-97819505D01*
X161531898Y-97814226D01*
X161530926Y-97788317D01*
X161529955Y-97762463D01*
X161529996Y-97752022D01*
X161532257Y-97702237D01*
X161532257Y-97702231D01*
X161532486Y-97697183D01*
X161531450Y-97688224D01*
X161525673Y-97638303D01*
X161524927Y-97628546D01*
X161524666Y-97621578D01*
X161523249Y-97583842D01*
X161522155Y-97578628D01*
X161522154Y-97578620D01*
X161515791Y-97548294D01*
X161513941Y-97536904D01*
X161507548Y-97481655D01*
X161504585Y-97456044D01*
X161484015Y-97383349D01*
X161457524Y-97289734D01*
X161438490Y-97222468D01*
X161436356Y-97217892D01*
X161436354Y-97217886D01*
X161338038Y-97007046D01*
X161338036Y-97007042D01*
X161335901Y-97002464D01*
X161199456Y-96801693D01*
X161111208Y-96708373D01*
X161078937Y-96645135D01*
X161085977Y-96574488D01*
X161130094Y-96518863D01*
X161136454Y-96514656D01*
X161237807Y-96451937D01*
X161249208Y-96442901D01*
X161363739Y-96328171D01*
X161372751Y-96316760D01*
X161457816Y-96178757D01*
X161463963Y-96165576D01*
X161515138Y-96011290D01*
X161518005Y-95997914D01*
X161527672Y-95903562D01*
X161528000Y-95897146D01*
X161528000Y-95522115D01*
X161523525Y-95506876D01*
X161522135Y-95505671D01*
X161514452Y-95504000D01*
X159892000Y-95504000D01*
X159823879Y-95483998D01*
X159777386Y-95430342D01*
X159766000Y-95378000D01*
X159766000Y-95122000D01*
X159786002Y-95053879D01*
X159839658Y-95007386D01*
X159892000Y-94996000D01*
X161509884Y-94996000D01*
X161525123Y-94991525D01*
X161526328Y-94990135D01*
X161527999Y-94982452D01*
X161527999Y-94602905D01*
X161527662Y-94596386D01*
X161517743Y-94500794D01*
X161514851Y-94487400D01*
X161463412Y-94333216D01*
X161457239Y-94320038D01*
X161371937Y-94182193D01*
X161362901Y-94170792D01*
X161248171Y-94056261D01*
X161236760Y-94047249D01*
X161098757Y-93962184D01*
X161085576Y-93956037D01*
X160931290Y-93904862D01*
X160917914Y-93901995D01*
X160823562Y-93892328D01*
X160817145Y-93892000D01*
X160576124Y-93892000D01*
X160508003Y-93871998D01*
X160461510Y-93818342D01*
X160451406Y-93748068D01*
X160480900Y-93683488D01*
X160487028Y-93676905D01*
X161288100Y-92875831D01*
X162367600Y-91796331D01*
X163269203Y-90894729D01*
X163271726Y-90892275D01*
X163340525Y-90827215D01*
X163344201Y-90823739D01*
X163349644Y-90816621D01*
X163391924Y-90761321D01*
X163396066Y-90756188D01*
X163443707Y-90700210D01*
X163443709Y-90700207D01*
X163446990Y-90696352D01*
X163464011Y-90668246D01*
X163471687Y-90656994D01*
X163488570Y-90634913D01*
X163488573Y-90634909D01*
X163491640Y-90630897D01*
X163494027Y-90626445D01*
X163494031Y-90626439D01*
X163528767Y-90561655D01*
X163532037Y-90555922D01*
X163554793Y-90518349D01*
X163607192Y-90470443D01*
X163677172Y-90458471D01*
X163742515Y-90486234D01*
G37*
%TD.AperFunction*%
%TD*%
M02*
