0
SECTION
2
HEADER
9
$INSUNITS
70
4
9
$ACADVER
1
AC1014
9
$HANDSEED
5
FFFF
0
ENDSEC
0
SECTION
2
TABLES
0
TABLE
2
VPORT
5
8
100
AcDbSymbolTable
0
ENDTAB
0
TABLE
2
LTYPE
5
5
100
AcDbSymbolTable
0
LTYPE
5
14
100
AcDbSymbolTableRecord
100
AcDbLinetypeTableRecord
2
BYBLOCK
70
0
0
LTYPE
5
15
100
AcDbSymbolTableRecord
100
AcDbLinetypeTableRecord
2
BYLAYER
70
0
0
ENDTAB
0
TABLE
2
LAYER
5
2
100
AcDbSymbolTable
70
2
0
LAYER
5
50
100
AcDbSymbolTableRecord
100
AcDbLayerTableRecord
2
0
70
0
6
CONTINUOUS
0
ENDTAB
0
TABLE
2
STYLE
5
3
100
AcDbSymbolTable
70
1
0
STYLE
5
11
100
AcDbSymbolTableRecord
100
AcDbTextStyleTableRecord
2
STANDARD
70
0
0
ENDTAB
0
TABLE
2
VIEW
5
6
100
AcDbSymbolTable
70
0
0
ENDTAB
0
TABLE
2
UCS
5
7
100
AcDbSymbolTable
70
0
0
ENDTAB
0
TABLE
2
APPID
5
9
100
AcDbSymbolTable
70
2
0
APPID
5
12
100
AcDbSymbolTableRecord
100
AcDbRegAppTableRecord
2
ACAD
70
0
0
ENDTAB
0
TABLE
2
DIMSTYLE
5
A
100
AcDbSymbolTable
70
1
0
ENDTAB
0
TABLE
2
BLOCK_RECORD
5
1
100
AcDbSymbolTable
70
1
0
BLOCK_RECORD
5
1F
100
AcDbSymbolTableRecord
100
AcDbBlockTableRecord
2
*MODEL_SPACE
0
BLOCK_RECORD
5
1B
100
AcDbSymbolTableRecord
100
AcDbBlockTableRecord
2
*PAPER_SPACE
0
ENDTAB
0
ENDSEC
0
SECTION
2
BLOCKS
0
BLOCK
5
20
100
AcDbEntity
100
AcDbBlockBegin
2
*MODEL_SPACE
0
ENDBLK
5
21
100
AcDbEntity
100
AcDbBlockEnd
0
BLOCK
5
1C
100
AcDbEntity
100
AcDbBlockBegin
2
*PAPER_SPACE
0
ENDBLK
5
1D
100
AcDbEntity
100
AcDbBlockEnd
0
ENDSEC
0
SECTION
2
ENTITIES
0
LWPOLYLINE
5
100
100
AcDbEntity
8
0
100
AcDbPolyline
90
25
70
1
43
0.0
10
-39.411965536402455
20
71.462377753648269
10
-18.585786437626894
20
50.636198654872459
42
-0.19891236737965626
10
-18
20
49.221985092499374
10
-18.000000268220898
20
32.000078437552382
10
-18.000000224531533
20
25.000117639845989
42
0.41421356363669465
10
-16.000000221728342
20
23.000117634020789
10
-0.084020023820527978
20
23.000117656328563
10
15.946646361516841
20
23.00011760963762
42
0.41421356237309537
10
17.946646367342037
20
25.000117603812413
10
17.94664640246992
20
31.949666614966532
10
17.995029789992113
20
49.225260171135602
42
-0.19818459783314257
10
18.580808383863786
20
50.633872398004812
10
39.410639637955079
20
71.463703652095944
42
0.40778635077141279
10
39.441398791671887
20
74.260687567693239
42
-0.40778635077141334
10
39.525986464393149
20
81.952393335585811
10
42.101644554478142
20
84.528051425670753
42
0.46415308668743777
10
41.846162109266338
20
87.572400625996195
42
-0.16479481960928449
10
40.341733574486618
20
89.65235374604157
42
0.21939430466614199
10
39.223175575294988
20
90.898528578794654
42
0.20654807527389241
10
-39.223175575281616
20
90.898528578765237
42
0.21939430466612941
10
-40.341733574486099
20
89.652353746041797
42
-0.16479481960928904
10
-41.846162109265862
20
87.57240062599638
42
0.46415308668744026
10
-42.101644554477687
20
84.528051425670995
10
-39.526015464548706
20
81.952422335741971
42
-0.40785926719816018
10
-39.442378850574798
20
74.25972297553993
42
0.40785926719815746
0
CIRCLE
5
101
100
AcDbEntity
8
0
100
AcDbCircle
10
15.946654246225155
20
31.955267950470425
30
0
40
1.5000000000000013
210
0
220
-0
230
1
0
CIRCLE
5
102
100
AcDbEntity
8
0
100
AcDbCircle
10
-15.999999999999995
20
32.000078437552382
30
0
40
1.4999999999999991
210
0
220
-0
230
1
0
CIRCLE
5
103
100
AcDbEntity
8
0
100
AcDbCircle
10
39.900903057695558
20
85.862843834820978
30
0
40
1.5000000000000036
210
0
220
-0
230
1
0
CIRCLE
5
104
100
AcDbEntity
8
0
100
AcDbCircle
10
-39.900903057695068
20
85.862843834821149
30
0
40
1.5000000000000036
210
0
220
-0
230
1
0
LWPOLYLINE
5
105
100
AcDbEntity
8
0
100
AcDbPolyline
90
4
70
1
43
0.0
10
20.000000000000107
20
69.200001162290548
10
20.000000268220901
20
88.800001162290584
10
33.000000476837165
20
88.800001162290556
10
33.000000476837137
20
69.200001162290533
0
ENDSEC
0
SECTION
2
OBJECTS
0
DICTIONARY
5
C
100
AcDbDictionary
3
ACAD_GROUP
350
D
3
ACAD_MLINESTYLE
350
17
0
DICTIONARY
5
D
100
AcDbDictionary
0
DICTIONARY
5
1A
330
C
100
AcDbDictionary
0
DICTIONARY
5
17
100
AcDbDictionary
0
ENDSEC
0
EOF
