M48
; DRILL file {KiCad (5.1.12)-1} date 08/19/22 23:51:54
; FORMAT={3:3/ absolute / metric / suppress leading zeros}
; #@! TF.CreationDate,2022-08-19T23:51:54+09:00
; #@! TF.GenerationSoftware,Kicad,Pcbnew,(5.1.12)-1
FMAT,2
METRIC,TZ
T1C0.300
T2C0.400
T3C1.000
%
G90
G05
T1
X1590Y-13100
X2120Y-15000
X2250Y-8760
X2630Y-9640
X2810Y-6180
X2840Y-4220
X3070Y-16810
X3330Y-16050
X3460Y-20000
X3540Y-18680
X3860Y-13810
X4570Y-19160
X5190Y-12670
X5500Y-19070
X6090Y-10370
X8580Y-20470
X9700Y-20500
X10240Y-11070
X10700Y-6560
X11940Y-19410
X12330Y-12800
X12790Y-11950
X12980Y-19660
X13150Y-12800
X13300Y-5270
X13370Y-840
T2
X1920Y-19120
X2940Y-12770
X7440Y-10390
X11130Y-11260
X12170Y-5960
T3
X400Y-1600
X400Y-4140
X400Y-6680
X400Y-9220
X400Y-11760
X400Y-14300
X400Y-16840
X400Y-19380
X15600Y-1580
X15600Y-4120
X15600Y-6660
X15600Y-9200
X15600Y-11740
X15600Y-14280
X15600Y-16820
X15600Y-19360
T0
M30
