G04 #@! TF.GenerationSoftware,KiCad,Pcbnew,(5.1.12)-1*
G04 #@! TF.CreationDate,2022-08-19T23:51:52+09:00*
G04 #@! TF.ProjectId,main,6d61696e-2e6b-4696-9361-645f70636258,rev?*
G04 #@! TF.SameCoordinates,PX7e5ca20PY5e39180*
G04 #@! TF.FileFunction,Copper,L2,Bot*
G04 #@! TF.FilePolarity,Positive*
%FSLAX46Y46*%
G04 Gerber Fmt 4.6, Leading zero omitted, Abs format (unit mm)*
G04 Created by KiCad (PCBNEW (5.1.12)-1) date 2022-08-19 23:51:52*
%MOMM*%
%LPD*%
G01*
G04 APERTURE LIST*
G04 #@! TA.AperFunction,ComponentPad*
%ADD10O,1.700000X1.700000*%
G04 #@! TD*
G04 #@! TA.AperFunction,ComponentPad*
%ADD11R,1.700000X1.700000*%
G04 #@! TD*
G04 #@! TA.AperFunction,ViaPad*
%ADD12C,0.600000*%
G04 #@! TD*
G04 #@! TA.AperFunction,ViaPad*
%ADD13C,0.800000*%
G04 #@! TD*
G04 #@! TA.AperFunction,Conductor*
%ADD14C,0.250000*%
G04 #@! TD*
G04 #@! TA.AperFunction,Conductor*
%ADD15C,0.500000*%
G04 #@! TD*
G04 #@! TA.AperFunction,Conductor*
%ADD16C,0.750000*%
G04 #@! TD*
G04 #@! TA.AperFunction,Conductor*
%ADD17C,0.254000*%
G04 #@! TD*
G04 #@! TA.AperFunction,Conductor*
%ADD18C,0.100000*%
G04 #@! TD*
G04 APERTURE END LIST*
D10*
G04 #@! TO.P,J3,8*
G04 #@! TO.N,SDA1*
X15600000Y-19360000D03*
G04 #@! TO.P,J3,7*
G04 #@! TO.N,SCL1*
X15600000Y-16820000D03*
G04 #@! TO.P,J3,6*
G04 #@! TO.N,B-PWM1*
X15600000Y-14280000D03*
G04 #@! TO.P,J3,5*
G04 #@! TO.N,B-PWM6*
X15600000Y-11740000D03*
G04 #@! TO.P,J3,4*
G04 #@! TO.N,B-PWM4*
X15600000Y-9200000D03*
G04 #@! TO.P,J3,3*
G04 #@! TO.N,B-PWM3*
X15600000Y-6660000D03*
G04 #@! TO.P,J3,2*
G04 #@! TO.N,B-PWM2*
X15600000Y-4120000D03*
D11*
G04 #@! TO.P,J3,1*
G04 #@! TO.N,B-PWM5*
X15600000Y-1580000D03*
G04 #@! TD*
D10*
G04 #@! TO.P,J1,8*
G04 #@! TO.N,Net-(J1-Pad8)*
X400000Y-19380000D03*
G04 #@! TO.P,J1,7*
G04 #@! TO.N,TX1*
X400000Y-16840000D03*
G04 #@! TO.P,J1,6*
G04 #@! TO.N,RX1*
X400000Y-14300000D03*
G04 #@! TO.P,J1,5*
G04 #@! TO.N,MISO*
X400000Y-11760000D03*
G04 #@! TO.P,J1,4*
G04 #@! TO.N,MOSI*
X400000Y-9220000D03*
G04 #@! TO.P,J1,3*
G04 #@! TO.N,SCK*
X400000Y-6680000D03*
G04 #@! TO.P,J1,2*
G04 #@! TO.N,GND*
X400000Y-4140000D03*
D11*
G04 #@! TO.P,J1,1*
G04 #@! TO.N,+5V*
X400000Y-1600000D03*
G04 #@! TD*
D12*
G04 #@! TO.N,GND*
X10700000Y-6560000D03*
X12790000Y-11950000D03*
X4570000Y-19160000D03*
X10240000Y-11070000D03*
X2810000Y-6180000D03*
X13370000Y-840000D03*
X2840000Y-4220000D03*
G04 #@! TO.N,Net-(C1-Pad1)*
X2630000Y-9640000D03*
X2120000Y-15000000D03*
G04 #@! TO.N,Net-(C2-Pad1)*
X2250000Y-8760000D03*
X1590000Y-13100000D03*
D13*
G04 #@! TO.N,+5V*
X2940000Y-12770000D03*
X7440000Y-10390000D03*
X11130000Y-11260000D03*
X1920000Y-19120000D03*
X12170000Y-5960000D03*
D12*
G04 #@! TO.N,B-PWM5*
X5190000Y-12670000D03*
G04 #@! TO.N,B-PWM4*
X12980000Y-19660000D03*
X9700000Y-20500000D03*
G04 #@! TO.N,B-PWM2*
X13150000Y-12800000D03*
X3460000Y-20000000D03*
G04 #@! TO.N,B-PWM3*
X11940000Y-19410000D03*
X8580000Y-20470000D03*
G04 #@! TO.N,RX1LED*
X13300000Y-5270000D03*
X6090000Y-10370000D03*
G04 #@! TO.N,TX1LED*
X5500000Y-19070000D03*
X12330000Y-12800000D03*
G04 #@! TO.N,SDA1*
X3070000Y-16810000D03*
G04 #@! TO.N,SCL1*
X3330000Y-16050000D03*
G04 #@! TO.N,Net-(J1-Pad8)*
X3860000Y-13810000D03*
X3539990Y-18680000D03*
G04 #@! TD*
D14*
G04 #@! TO.N,GND*
X4570000Y-19160000D02*
X4570000Y-18846410D01*
X4971411Y-18444999D02*
X4570000Y-18846410D01*
X5786375Y-18444999D02*
X4971411Y-18444999D01*
X12281374Y-11950000D02*
X5786375Y-18444999D01*
X12790000Y-11950000D02*
X12281374Y-11950000D01*
D15*
X10240000Y-7020000D02*
X10700000Y-6560000D01*
X10240000Y-11070000D02*
X10240000Y-7020000D01*
X3700000Y-840000D02*
X400000Y-4140000D01*
X13370000Y-840000D02*
X3700000Y-840000D01*
X770000Y-4140000D02*
X2810000Y-6180000D01*
X400000Y-4140000D02*
X770000Y-4140000D01*
D14*
G04 #@! TO.N,Net-(C1-Pad1)*
X2215001Y-13564999D02*
X2215001Y-10054999D01*
X2215001Y-10054999D02*
X2630000Y-9640000D01*
X1790000Y-13990000D02*
X2215001Y-13564999D01*
X1790000Y-14670000D02*
X1790000Y-13990000D01*
X2120000Y-15000000D02*
X1790000Y-14670000D01*
G04 #@! TO.N,Net-(C2-Pad1)*
X1590000Y-9420000D02*
X2250000Y-8760000D01*
X1590000Y-13100000D02*
X1590000Y-9420000D01*
G04 #@! TO.N,+5V*
X2784989Y-15260013D02*
X2784989Y-12925011D01*
X1970000Y-16075002D02*
X2784989Y-15260013D01*
X1970000Y-16984998D02*
X1970000Y-16075002D01*
X1440000Y-17514998D02*
X1970000Y-16984998D01*
X2784989Y-12925011D02*
X2940000Y-12770000D01*
X1440000Y-18640000D02*
X1440000Y-17514998D01*
X1920000Y-19120000D02*
X1440000Y-18640000D01*
X3339999Y-12370001D02*
X3981413Y-12370001D01*
X2940000Y-12770000D02*
X3339999Y-12370001D01*
X3981413Y-12370001D02*
X5451402Y-13839990D01*
X5451402Y-13839990D02*
X6630010Y-13839990D01*
X7440000Y-13030000D02*
X7440000Y-10390000D01*
X6630010Y-13839990D02*
X7440000Y-13030000D01*
D16*
X11130000Y-11475002D02*
X11130000Y-11260000D01*
X10660001Y-11945001D02*
X11130000Y-11475002D01*
X8995001Y-11945001D02*
X10660001Y-11945001D01*
X7440000Y-10390000D02*
X8995001Y-11945001D01*
X14174999Y-9450003D02*
X14174999Y-7964999D01*
X13440001Y-10185001D02*
X14174999Y-9450003D01*
X12204999Y-10185001D02*
X13440001Y-10185001D01*
X14174999Y-7964999D02*
X12170000Y-5960000D01*
X11130000Y-11260000D02*
X12204999Y-10185001D01*
D14*
G04 #@! TO.N,B-PWM5*
X13090000Y-4090000D02*
X15600000Y-1580000D01*
X5825002Y-4090000D02*
X13090000Y-4090000D01*
X3255001Y-6660001D02*
X5825002Y-4090000D01*
X3255001Y-10735001D02*
X3255001Y-6660001D01*
X5190000Y-12670000D02*
X3255001Y-10735001D01*
G04 #@! TO.N,B-PWM4*
X11990010Y-20649990D02*
X12980000Y-19660000D01*
X9819990Y-20649990D02*
X11990010Y-20649990D01*
X9700000Y-20530000D02*
X9819990Y-20649990D01*
X9700000Y-20500000D02*
X9700000Y-20530000D01*
G04 #@! TO.N,B-PWM2*
X3664999Y-19795001D02*
X3460000Y-20000000D01*
X6142179Y-19795001D02*
X3664999Y-19795001D01*
X10567180Y-15370000D02*
X6142179Y-19795001D01*
X10570000Y-15370000D02*
X10567180Y-15370000D01*
X10570000Y-15370000D02*
X10570000Y-15367180D01*
X10570000Y-15367180D02*
X11317180Y-14620000D01*
X11317180Y-14620000D02*
X12370000Y-14620000D01*
X13150000Y-13840000D02*
X13150000Y-12800000D01*
X12370000Y-14620000D02*
X13150000Y-13840000D01*
G04 #@! TO.N,B-PWM3*
X8580000Y-20470000D02*
X8050000Y-19940000D01*
X8050000Y-19940000D02*
X8050000Y-19160000D01*
X8050000Y-19160000D02*
X8720000Y-18490000D01*
X11020000Y-18490000D02*
X11940000Y-19410000D01*
X8720000Y-18490000D02*
X11020000Y-18490000D01*
G04 #@! TO.N,RX1LED*
X13300000Y-5270000D02*
X12570010Y-4540010D01*
X12570010Y-4540010D02*
X11129990Y-4540010D01*
X11129990Y-4540010D02*
X8630000Y-7040000D01*
X8630000Y-7040000D02*
X8630000Y-8600000D01*
X6795001Y-9664999D02*
X6090000Y-10370000D01*
X7565001Y-9664999D02*
X6795001Y-9664999D01*
X8630000Y-8600000D02*
X7565001Y-9664999D01*
G04 #@! TO.N,TX1LED*
X12330000Y-12970770D02*
X12330000Y-12800000D01*
X6230770Y-19070000D02*
X12330000Y-12970770D01*
X5500000Y-19070000D02*
X6230770Y-19070000D01*
G04 #@! TO.N,SDA1*
X2760000Y-17120000D02*
X3070000Y-16810000D01*
X2645001Y-17234999D02*
X2760000Y-17120000D01*
X2645001Y-20085001D02*
X2645001Y-17234999D01*
X3209990Y-20649990D02*
X2645001Y-20085001D01*
X5923600Y-20649990D02*
X3209990Y-20649990D01*
X8533600Y-18039990D02*
X5923600Y-20649990D01*
X14279990Y-18039990D02*
X8533600Y-18039990D01*
X15600000Y-19360000D02*
X14279990Y-18039990D01*
G04 #@! TO.N,SCL1*
X3234999Y-13509999D02*
X3234999Y-15954999D01*
X4160001Y-13184999D02*
X3559999Y-13184999D01*
X5265002Y-14290000D02*
X4160001Y-13184999D01*
X9304964Y-14290000D02*
X5265002Y-14290000D01*
X12624964Y-10970000D02*
X9304964Y-14290000D01*
X3234999Y-15954999D02*
X3330000Y-16050000D01*
X13800000Y-10970000D02*
X12624964Y-10970000D01*
X14424999Y-11594999D02*
X13800000Y-10970000D01*
X14424999Y-15644999D02*
X14424999Y-11594999D01*
X3559999Y-13184999D02*
X3234999Y-13509999D01*
X15600000Y-16820000D02*
X14424999Y-15644999D01*
G04 #@! TO.N,Net-(J1-Pad8)*
X3860000Y-13820000D02*
X3685009Y-13994991D01*
X3860000Y-13810000D02*
X3860000Y-13820000D01*
X3685009Y-15480007D02*
X3917502Y-15712500D01*
X3685009Y-13994991D02*
X3685009Y-15480007D01*
X4100000Y-18680000D02*
X3539990Y-18680000D01*
X4730000Y-18050000D02*
X4100000Y-18680000D01*
X4730000Y-16524998D02*
X4730000Y-18050000D01*
X3685009Y-15480007D02*
X4730000Y-16524998D01*
G04 #@! TD*
D17*
G04 #@! TO.N,GND*
X13665000Y-11909802D02*
X13665000Y-12019597D01*
X13592889Y-11971414D01*
X13422729Y-11900932D01*
X13242089Y-11865000D01*
X13057911Y-11865000D01*
X12877271Y-11900932D01*
X12740000Y-11957791D01*
X12720183Y-11949583D01*
X12939766Y-11730000D01*
X13485199Y-11730000D01*
X13665000Y-11909802D01*
G04 #@! TA.AperFunction,Conductor*
D18*
G36*
X13665000Y-11909802D02*
G01*
X13665000Y-12019597D01*
X13592889Y-11971414D01*
X13422729Y-11900932D01*
X13242089Y-11865000D01*
X13057911Y-11865000D01*
X12877271Y-11900932D01*
X12740000Y-11957791D01*
X12720183Y-11949583D01*
X12939766Y-11730000D01*
X13485199Y-11730000D01*
X13665000Y-11909802D01*
G37*
G04 #@! TD.AperFunction*
D17*
X11174774Y-5658102D02*
X11135000Y-5858061D01*
X11135000Y-6061939D01*
X11174774Y-6261898D01*
X11252795Y-6450256D01*
X11366063Y-6619774D01*
X11510226Y-6763937D01*
X11616776Y-6835132D01*
X13165000Y-8383356D01*
X13164999Y-9031648D01*
X13021646Y-9175001D01*
X12254603Y-9175001D01*
X12204998Y-9170115D01*
X12155393Y-9175001D01*
X12155391Y-9175001D01*
X12007005Y-9189616D01*
X11816619Y-9247369D01*
X11641159Y-9341154D01*
X11487366Y-9467368D01*
X11455738Y-9505907D01*
X10576777Y-10384868D01*
X10470226Y-10456063D01*
X10326063Y-10600226D01*
X10212795Y-10769744D01*
X10144343Y-10935001D01*
X9413357Y-10935001D01*
X8391578Y-9913223D01*
X9141003Y-9163799D01*
X9170001Y-9140001D01*
X9202830Y-9099999D01*
X9264974Y-9024277D01*
X9335546Y-8892247D01*
X9335925Y-8890998D01*
X9379003Y-8748986D01*
X9390000Y-8637333D01*
X9390000Y-8637324D01*
X9393676Y-8600001D01*
X9390000Y-8562678D01*
X9390000Y-7354801D01*
X11237053Y-5507749D01*
X11174774Y-5658102D01*
G04 #@! TA.AperFunction,Conductor*
D18*
G36*
X11174774Y-5658102D02*
G01*
X11135000Y-5858061D01*
X11135000Y-6061939D01*
X11174774Y-6261898D01*
X11252795Y-6450256D01*
X11366063Y-6619774D01*
X11510226Y-6763937D01*
X11616776Y-6835132D01*
X13165000Y-8383356D01*
X13164999Y-9031648D01*
X13021646Y-9175001D01*
X12254603Y-9175001D01*
X12204998Y-9170115D01*
X12155393Y-9175001D01*
X12155391Y-9175001D01*
X12007005Y-9189616D01*
X11816619Y-9247369D01*
X11641159Y-9341154D01*
X11487366Y-9467368D01*
X11455738Y-9505907D01*
X10576777Y-10384868D01*
X10470226Y-10456063D01*
X10326063Y-10600226D01*
X10212795Y-10769744D01*
X10144343Y-10935001D01*
X9413357Y-10935001D01*
X8391578Y-9913223D01*
X9141003Y-9163799D01*
X9170001Y-9140001D01*
X9202830Y-9099999D01*
X9264974Y-9024277D01*
X9335546Y-8892247D01*
X9335925Y-8890998D01*
X9379003Y-8748986D01*
X9390000Y-8637333D01*
X9390000Y-8637324D01*
X9393676Y-8600001D01*
X9390000Y-8562678D01*
X9390000Y-7354801D01*
X11237053Y-5507749D01*
X11174774Y-5658102D01*
G37*
G04 #@! TD.AperFunction*
D17*
X14111928Y-730000D02*
X14111928Y-1993270D01*
X12775199Y-3330000D01*
X5862324Y-3330000D01*
X5825001Y-3326324D01*
X5787678Y-3330000D01*
X5787669Y-3330000D01*
X5676016Y-3340997D01*
X5532755Y-3384454D01*
X5400726Y-3455026D01*
X5285001Y-3549999D01*
X5261203Y-3578997D01*
X2743999Y-6096202D01*
X2715001Y-6120000D01*
X2691203Y-6148998D01*
X2691202Y-6148999D01*
X2620027Y-6235725D01*
X2549455Y-6367755D01*
X2505999Y-6511016D01*
X2491325Y-6660001D01*
X2495002Y-6697333D01*
X2495002Y-7855417D01*
X2342089Y-7825000D01*
X2157911Y-7825000D01*
X1977271Y-7860932D01*
X1807111Y-7931414D01*
X1653972Y-8033738D01*
X1523738Y-8163972D01*
X1491831Y-8211724D01*
X1346632Y-8066525D01*
X1172240Y-7950000D01*
X1346632Y-7833475D01*
X1553475Y-7626632D01*
X1715990Y-7383411D01*
X1827932Y-7113158D01*
X1885000Y-6826260D01*
X1885000Y-6533740D01*
X1827932Y-6246842D01*
X1715990Y-5976589D01*
X1553475Y-5733368D01*
X1346632Y-5526525D01*
X1164466Y-5404805D01*
X1281355Y-5335178D01*
X1497588Y-5140269D01*
X1671641Y-4906920D01*
X1796825Y-4644099D01*
X1841476Y-4496890D01*
X1720155Y-4267000D01*
X527000Y-4267000D01*
X527000Y-4287000D01*
X273000Y-4287000D01*
X273000Y-4267000D01*
X253000Y-4267000D01*
X253000Y-4013000D01*
X273000Y-4013000D01*
X273000Y-3993000D01*
X527000Y-3993000D01*
X527000Y-4013000D01*
X1720155Y-4013000D01*
X1841476Y-3783110D01*
X1796825Y-3635901D01*
X1671641Y-3373080D01*
X1497588Y-3139731D01*
X1413534Y-3063966D01*
X1494180Y-3039502D01*
X1604494Y-2980537D01*
X1701185Y-2901185D01*
X1780537Y-2804494D01*
X1839502Y-2694180D01*
X1875812Y-2574482D01*
X1888072Y-2450000D01*
X1888072Y-750000D01*
X1879208Y-660000D01*
X14118822Y-660000D01*
X14111928Y-730000D01*
G04 #@! TA.AperFunction,Conductor*
D18*
G36*
X14111928Y-730000D02*
G01*
X14111928Y-1993270D01*
X12775199Y-3330000D01*
X5862324Y-3330000D01*
X5825001Y-3326324D01*
X5787678Y-3330000D01*
X5787669Y-3330000D01*
X5676016Y-3340997D01*
X5532755Y-3384454D01*
X5400726Y-3455026D01*
X5285001Y-3549999D01*
X5261203Y-3578997D01*
X2743999Y-6096202D01*
X2715001Y-6120000D01*
X2691203Y-6148998D01*
X2691202Y-6148999D01*
X2620027Y-6235725D01*
X2549455Y-6367755D01*
X2505999Y-6511016D01*
X2491325Y-6660001D01*
X2495002Y-6697333D01*
X2495002Y-7855417D01*
X2342089Y-7825000D01*
X2157911Y-7825000D01*
X1977271Y-7860932D01*
X1807111Y-7931414D01*
X1653972Y-8033738D01*
X1523738Y-8163972D01*
X1491831Y-8211724D01*
X1346632Y-8066525D01*
X1172240Y-7950000D01*
X1346632Y-7833475D01*
X1553475Y-7626632D01*
X1715990Y-7383411D01*
X1827932Y-7113158D01*
X1885000Y-6826260D01*
X1885000Y-6533740D01*
X1827932Y-6246842D01*
X1715990Y-5976589D01*
X1553475Y-5733368D01*
X1346632Y-5526525D01*
X1164466Y-5404805D01*
X1281355Y-5335178D01*
X1497588Y-5140269D01*
X1671641Y-4906920D01*
X1796825Y-4644099D01*
X1841476Y-4496890D01*
X1720155Y-4267000D01*
X527000Y-4267000D01*
X527000Y-4287000D01*
X273000Y-4287000D01*
X273000Y-4267000D01*
X253000Y-4267000D01*
X253000Y-4013000D01*
X273000Y-4013000D01*
X273000Y-3993000D01*
X527000Y-3993000D01*
X527000Y-4013000D01*
X1720155Y-4013000D01*
X1841476Y-3783110D01*
X1796825Y-3635901D01*
X1671641Y-3373080D01*
X1497588Y-3139731D01*
X1413534Y-3063966D01*
X1494180Y-3039502D01*
X1604494Y-2980537D01*
X1701185Y-2901185D01*
X1780537Y-2804494D01*
X1839502Y-2694180D01*
X1875812Y-2574482D01*
X1888072Y-2450000D01*
X1888072Y-750000D01*
X1879208Y-660000D01*
X14118822Y-660000D01*
X14111928Y-730000D01*
G37*
G04 #@! TD.AperFunction*
G04 #@! TD*
M02*
