G04 #@! TF.GenerationSoftware,KiCad,Pcbnew,(5.1.12)-1*
G04 #@! TF.CreationDate,2022-08-19T23:51:52+09:00*
G04 #@! TF.ProjectId,main,6d61696e-2e6b-4696-9361-645f70636258,rev?*
G04 #@! TF.SameCoordinates,PX7e5ca20PY5e39180*
G04 #@! TF.FileFunction,Soldermask,Top*
G04 #@! TF.FilePolarity,Negative*
%FSLAX46Y46*%
G04 Gerber Fmt 4.6, Leading zero omitted, Abs format (unit mm)*
G04 Created by KiCad (PCBNEW (5.1.12)-1) date 2022-08-19 23:51:52*
%MOMM*%
%LPD*%
G01*
G04 APERTURE LIST*
%ADD10O,1.900000X1.900000*%
G04 APERTURE END LIST*
G04 #@! TO.C,C2*
G36*
G01*
X3080000Y-7390000D02*
X2640000Y-7390000D01*
G75*
G02*
X2450000Y-7200000I0J190000D01*
G01*
X2450000Y-6820000D01*
G75*
G02*
X2640000Y-6630000I190000J0D01*
G01*
X3080000Y-6630000D01*
G75*
G02*
X3270000Y-6820000I0J-190000D01*
G01*
X3270000Y-7200000D01*
G75*
G02*
X3080000Y-7390000I-190000J0D01*
G01*
G37*
G36*
G01*
X3080000Y-8350000D02*
X2640000Y-8350000D01*
G75*
G02*
X2450000Y-8160000I0J190000D01*
G01*
X2450000Y-7780000D01*
G75*
G02*
X2640000Y-7590000I190000J0D01*
G01*
X3080000Y-7590000D01*
G75*
G02*
X3270000Y-7780000I0J-190000D01*
G01*
X3270000Y-8160000D01*
G75*
G02*
X3080000Y-8350000I-190000J0D01*
G01*
G37*
G04 #@! TD*
G04 #@! TO.C,U1*
G36*
G01*
X6030000Y-13240000D02*
X11230000Y-13240000D01*
G75*
G02*
X11330000Y-13340000I0J-100000D01*
G01*
X11330000Y-18540000D01*
G75*
G02*
X11230000Y-18640000I-100000J0D01*
G01*
X6030000Y-18640000D01*
G75*
G02*
X5930000Y-18540000I0J100000D01*
G01*
X5930000Y-13340000D01*
G75*
G02*
X6030000Y-13240000I100000J0D01*
G01*
G37*
G36*
G01*
X11442500Y-13215000D02*
X12492500Y-13215000D01*
G75*
G02*
X12605000Y-13327500I0J-112500D01*
G01*
X12605000Y-13552500D01*
G75*
G02*
X12492500Y-13665000I-112500J0D01*
G01*
X11442500Y-13665000D01*
G75*
G02*
X11330000Y-13552500I0J112500D01*
G01*
X11330000Y-13327500D01*
G75*
G02*
X11442500Y-13215000I112500J0D01*
G01*
G37*
G36*
G01*
X11442500Y-13715000D02*
X12492500Y-13715000D01*
G75*
G02*
X12605000Y-13827500I0J-112500D01*
G01*
X12605000Y-14052500D01*
G75*
G02*
X12492500Y-14165000I-112500J0D01*
G01*
X11442500Y-14165000D01*
G75*
G02*
X11330000Y-14052500I0J112500D01*
G01*
X11330000Y-13827500D01*
G75*
G02*
X11442500Y-13715000I112500J0D01*
G01*
G37*
G36*
G01*
X11442500Y-14215000D02*
X12492500Y-14215000D01*
G75*
G02*
X12605000Y-14327500I0J-112500D01*
G01*
X12605000Y-14552500D01*
G75*
G02*
X12492500Y-14665000I-112500J0D01*
G01*
X11442500Y-14665000D01*
G75*
G02*
X11330000Y-14552500I0J112500D01*
G01*
X11330000Y-14327500D01*
G75*
G02*
X11442500Y-14215000I112500J0D01*
G01*
G37*
G36*
G01*
X11442500Y-14715000D02*
X12492500Y-14715000D01*
G75*
G02*
X12605000Y-14827500I0J-112500D01*
G01*
X12605000Y-15052500D01*
G75*
G02*
X12492500Y-15165000I-112500J0D01*
G01*
X11442500Y-15165000D01*
G75*
G02*
X11330000Y-15052500I0J112500D01*
G01*
X11330000Y-14827500D01*
G75*
G02*
X11442500Y-14715000I112500J0D01*
G01*
G37*
G36*
G01*
X11442500Y-15215000D02*
X12492500Y-15215000D01*
G75*
G02*
X12605000Y-15327500I0J-112500D01*
G01*
X12605000Y-15552500D01*
G75*
G02*
X12492500Y-15665000I-112500J0D01*
G01*
X11442500Y-15665000D01*
G75*
G02*
X11330000Y-15552500I0J112500D01*
G01*
X11330000Y-15327500D01*
G75*
G02*
X11442500Y-15215000I112500J0D01*
G01*
G37*
G36*
G01*
X11442500Y-15715000D02*
X12492500Y-15715000D01*
G75*
G02*
X12605000Y-15827500I0J-112500D01*
G01*
X12605000Y-16052500D01*
G75*
G02*
X12492500Y-16165000I-112500J0D01*
G01*
X11442500Y-16165000D01*
G75*
G02*
X11330000Y-16052500I0J112500D01*
G01*
X11330000Y-15827500D01*
G75*
G02*
X11442500Y-15715000I112500J0D01*
G01*
G37*
G36*
G01*
X11442500Y-16215000D02*
X12492500Y-16215000D01*
G75*
G02*
X12605000Y-16327500I0J-112500D01*
G01*
X12605000Y-16552500D01*
G75*
G02*
X12492500Y-16665000I-112500J0D01*
G01*
X11442500Y-16665000D01*
G75*
G02*
X11330000Y-16552500I0J112500D01*
G01*
X11330000Y-16327500D01*
G75*
G02*
X11442500Y-16215000I112500J0D01*
G01*
G37*
G36*
G01*
X11442500Y-16715000D02*
X12492500Y-16715000D01*
G75*
G02*
X12605000Y-16827500I0J-112500D01*
G01*
X12605000Y-17052500D01*
G75*
G02*
X12492500Y-17165000I-112500J0D01*
G01*
X11442500Y-17165000D01*
G75*
G02*
X11330000Y-17052500I0J112500D01*
G01*
X11330000Y-16827500D01*
G75*
G02*
X11442500Y-16715000I112500J0D01*
G01*
G37*
G36*
G01*
X11442500Y-17215000D02*
X12492500Y-17215000D01*
G75*
G02*
X12605000Y-17327500I0J-112500D01*
G01*
X12605000Y-17552500D01*
G75*
G02*
X12492500Y-17665000I-112500J0D01*
G01*
X11442500Y-17665000D01*
G75*
G02*
X11330000Y-17552500I0J112500D01*
G01*
X11330000Y-17327500D01*
G75*
G02*
X11442500Y-17215000I112500J0D01*
G01*
G37*
G36*
G01*
X11442500Y-17715000D02*
X12492500Y-17715000D01*
G75*
G02*
X12605000Y-17827500I0J-112500D01*
G01*
X12605000Y-18052500D01*
G75*
G02*
X12492500Y-18165000I-112500J0D01*
G01*
X11442500Y-18165000D01*
G75*
G02*
X11330000Y-18052500I0J112500D01*
G01*
X11330000Y-17827500D01*
G75*
G02*
X11442500Y-17715000I112500J0D01*
G01*
G37*
G36*
G01*
X11442500Y-18215000D02*
X12492500Y-18215000D01*
G75*
G02*
X12605000Y-18327500I0J-112500D01*
G01*
X12605000Y-18552500D01*
G75*
G02*
X12492500Y-18665000I-112500J0D01*
G01*
X11442500Y-18665000D01*
G75*
G02*
X11330000Y-18552500I0J112500D01*
G01*
X11330000Y-18327500D01*
G75*
G02*
X11442500Y-18215000I112500J0D01*
G01*
G37*
G36*
G01*
X11017500Y-18640000D02*
X11242500Y-18640000D01*
G75*
G02*
X11355000Y-18752500I0J-112500D01*
G01*
X11355000Y-19802500D01*
G75*
G02*
X11242500Y-19915000I-112500J0D01*
G01*
X11017500Y-19915000D01*
G75*
G02*
X10905000Y-19802500I0J112500D01*
G01*
X10905000Y-18752500D01*
G75*
G02*
X11017500Y-18640000I112500J0D01*
G01*
G37*
G36*
G01*
X10517500Y-18640000D02*
X10742500Y-18640000D01*
G75*
G02*
X10855000Y-18752500I0J-112500D01*
G01*
X10855000Y-19802500D01*
G75*
G02*
X10742500Y-19915000I-112500J0D01*
G01*
X10517500Y-19915000D01*
G75*
G02*
X10405000Y-19802500I0J112500D01*
G01*
X10405000Y-18752500D01*
G75*
G02*
X10517500Y-18640000I112500J0D01*
G01*
G37*
G36*
G01*
X10017500Y-18640000D02*
X10242500Y-18640000D01*
G75*
G02*
X10355000Y-18752500I0J-112500D01*
G01*
X10355000Y-19802500D01*
G75*
G02*
X10242500Y-19915000I-112500J0D01*
G01*
X10017500Y-19915000D01*
G75*
G02*
X9905000Y-19802500I0J112500D01*
G01*
X9905000Y-18752500D01*
G75*
G02*
X10017500Y-18640000I112500J0D01*
G01*
G37*
G36*
G01*
X9517500Y-18640000D02*
X9742500Y-18640000D01*
G75*
G02*
X9855000Y-18752500I0J-112500D01*
G01*
X9855000Y-19802500D01*
G75*
G02*
X9742500Y-19915000I-112500J0D01*
G01*
X9517500Y-19915000D01*
G75*
G02*
X9405000Y-19802500I0J112500D01*
G01*
X9405000Y-18752500D01*
G75*
G02*
X9517500Y-18640000I112500J0D01*
G01*
G37*
G36*
G01*
X9017500Y-18640000D02*
X9242500Y-18640000D01*
G75*
G02*
X9355000Y-18752500I0J-112500D01*
G01*
X9355000Y-19802500D01*
G75*
G02*
X9242500Y-19915000I-112500J0D01*
G01*
X9017500Y-19915000D01*
G75*
G02*
X8905000Y-19802500I0J112500D01*
G01*
X8905000Y-18752500D01*
G75*
G02*
X9017500Y-18640000I112500J0D01*
G01*
G37*
G36*
G01*
X8517500Y-18640000D02*
X8742500Y-18640000D01*
G75*
G02*
X8855000Y-18752500I0J-112500D01*
G01*
X8855000Y-19802500D01*
G75*
G02*
X8742500Y-19915000I-112500J0D01*
G01*
X8517500Y-19915000D01*
G75*
G02*
X8405000Y-19802500I0J112500D01*
G01*
X8405000Y-18752500D01*
G75*
G02*
X8517500Y-18640000I112500J0D01*
G01*
G37*
G36*
G01*
X8017500Y-18640000D02*
X8242500Y-18640000D01*
G75*
G02*
X8355000Y-18752500I0J-112500D01*
G01*
X8355000Y-19802500D01*
G75*
G02*
X8242500Y-19915000I-112500J0D01*
G01*
X8017500Y-19915000D01*
G75*
G02*
X7905000Y-19802500I0J112500D01*
G01*
X7905000Y-18752500D01*
G75*
G02*
X8017500Y-18640000I112500J0D01*
G01*
G37*
G36*
G01*
X7517500Y-18640000D02*
X7742500Y-18640000D01*
G75*
G02*
X7855000Y-18752500I0J-112500D01*
G01*
X7855000Y-19802500D01*
G75*
G02*
X7742500Y-19915000I-112500J0D01*
G01*
X7517500Y-19915000D01*
G75*
G02*
X7405000Y-19802500I0J112500D01*
G01*
X7405000Y-18752500D01*
G75*
G02*
X7517500Y-18640000I112500J0D01*
G01*
G37*
G36*
G01*
X7017500Y-18640000D02*
X7242500Y-18640000D01*
G75*
G02*
X7355000Y-18752500I0J-112500D01*
G01*
X7355000Y-19802500D01*
G75*
G02*
X7242500Y-19915000I-112500J0D01*
G01*
X7017500Y-19915000D01*
G75*
G02*
X6905000Y-19802500I0J112500D01*
G01*
X6905000Y-18752500D01*
G75*
G02*
X7017500Y-18640000I112500J0D01*
G01*
G37*
G36*
G01*
X6517500Y-18640000D02*
X6742500Y-18640000D01*
G75*
G02*
X6855000Y-18752500I0J-112500D01*
G01*
X6855000Y-19802500D01*
G75*
G02*
X6742500Y-19915000I-112500J0D01*
G01*
X6517500Y-19915000D01*
G75*
G02*
X6405000Y-19802500I0J112500D01*
G01*
X6405000Y-18752500D01*
G75*
G02*
X6517500Y-18640000I112500J0D01*
G01*
G37*
G36*
G01*
X6017500Y-18640000D02*
X6242500Y-18640000D01*
G75*
G02*
X6355000Y-18752500I0J-112500D01*
G01*
X6355000Y-19802500D01*
G75*
G02*
X6242500Y-19915000I-112500J0D01*
G01*
X6017500Y-19915000D01*
G75*
G02*
X5905000Y-19802500I0J112500D01*
G01*
X5905000Y-18752500D01*
G75*
G02*
X6017500Y-18640000I112500J0D01*
G01*
G37*
G36*
G01*
X4767500Y-18215000D02*
X5817500Y-18215000D01*
G75*
G02*
X5930000Y-18327500I0J-112500D01*
G01*
X5930000Y-18552500D01*
G75*
G02*
X5817500Y-18665000I-112500J0D01*
G01*
X4767500Y-18665000D01*
G75*
G02*
X4655000Y-18552500I0J112500D01*
G01*
X4655000Y-18327500D01*
G75*
G02*
X4767500Y-18215000I112500J0D01*
G01*
G37*
G36*
G01*
X4767500Y-17715000D02*
X5817500Y-17715000D01*
G75*
G02*
X5930000Y-17827500I0J-112500D01*
G01*
X5930000Y-18052500D01*
G75*
G02*
X5817500Y-18165000I-112500J0D01*
G01*
X4767500Y-18165000D01*
G75*
G02*
X4655000Y-18052500I0J112500D01*
G01*
X4655000Y-17827500D01*
G75*
G02*
X4767500Y-17715000I112500J0D01*
G01*
G37*
G36*
G01*
X4767500Y-17215000D02*
X5817500Y-17215000D01*
G75*
G02*
X5930000Y-17327500I0J-112500D01*
G01*
X5930000Y-17552500D01*
G75*
G02*
X5817500Y-17665000I-112500J0D01*
G01*
X4767500Y-17665000D01*
G75*
G02*
X4655000Y-17552500I0J112500D01*
G01*
X4655000Y-17327500D01*
G75*
G02*
X4767500Y-17215000I112500J0D01*
G01*
G37*
G36*
G01*
X4767500Y-16715000D02*
X5817500Y-16715000D01*
G75*
G02*
X5930000Y-16827500I0J-112500D01*
G01*
X5930000Y-17052500D01*
G75*
G02*
X5817500Y-17165000I-112500J0D01*
G01*
X4767500Y-17165000D01*
G75*
G02*
X4655000Y-17052500I0J112500D01*
G01*
X4655000Y-16827500D01*
G75*
G02*
X4767500Y-16715000I112500J0D01*
G01*
G37*
G36*
G01*
X4767500Y-16215000D02*
X5817500Y-16215000D01*
G75*
G02*
X5930000Y-16327500I0J-112500D01*
G01*
X5930000Y-16552500D01*
G75*
G02*
X5817500Y-16665000I-112500J0D01*
G01*
X4767500Y-16665000D01*
G75*
G02*
X4655000Y-16552500I0J112500D01*
G01*
X4655000Y-16327500D01*
G75*
G02*
X4767500Y-16215000I112500J0D01*
G01*
G37*
G36*
G01*
X4767500Y-15715000D02*
X5817500Y-15715000D01*
G75*
G02*
X5930000Y-15827500I0J-112500D01*
G01*
X5930000Y-16052500D01*
G75*
G02*
X5817500Y-16165000I-112500J0D01*
G01*
X4767500Y-16165000D01*
G75*
G02*
X4655000Y-16052500I0J112500D01*
G01*
X4655000Y-15827500D01*
G75*
G02*
X4767500Y-15715000I112500J0D01*
G01*
G37*
G36*
G01*
X4767500Y-15215000D02*
X5817500Y-15215000D01*
G75*
G02*
X5930000Y-15327500I0J-112500D01*
G01*
X5930000Y-15552500D01*
G75*
G02*
X5817500Y-15665000I-112500J0D01*
G01*
X4767500Y-15665000D01*
G75*
G02*
X4655000Y-15552500I0J112500D01*
G01*
X4655000Y-15327500D01*
G75*
G02*
X4767500Y-15215000I112500J0D01*
G01*
G37*
G36*
G01*
X4767500Y-14715000D02*
X5817500Y-14715000D01*
G75*
G02*
X5930000Y-14827500I0J-112500D01*
G01*
X5930000Y-15052500D01*
G75*
G02*
X5817500Y-15165000I-112500J0D01*
G01*
X4767500Y-15165000D01*
G75*
G02*
X4655000Y-15052500I0J112500D01*
G01*
X4655000Y-14827500D01*
G75*
G02*
X4767500Y-14715000I112500J0D01*
G01*
G37*
G36*
G01*
X4767500Y-14215000D02*
X5817500Y-14215000D01*
G75*
G02*
X5930000Y-14327500I0J-112500D01*
G01*
X5930000Y-14552500D01*
G75*
G02*
X5817500Y-14665000I-112500J0D01*
G01*
X4767500Y-14665000D01*
G75*
G02*
X4655000Y-14552500I0J112500D01*
G01*
X4655000Y-14327500D01*
G75*
G02*
X4767500Y-14215000I112500J0D01*
G01*
G37*
G36*
G01*
X4767500Y-13715000D02*
X5817500Y-13715000D01*
G75*
G02*
X5930000Y-13827500I0J-112500D01*
G01*
X5930000Y-14052500D01*
G75*
G02*
X5817500Y-14165000I-112500J0D01*
G01*
X4767500Y-14165000D01*
G75*
G02*
X4655000Y-14052500I0J112500D01*
G01*
X4655000Y-13827500D01*
G75*
G02*
X4767500Y-13715000I112500J0D01*
G01*
G37*
G36*
G01*
X4767500Y-13215000D02*
X5817500Y-13215000D01*
G75*
G02*
X5930000Y-13327500I0J-112500D01*
G01*
X5930000Y-13552500D01*
G75*
G02*
X5817500Y-13665000I-112500J0D01*
G01*
X4767500Y-13665000D01*
G75*
G02*
X4655000Y-13552500I0J112500D01*
G01*
X4655000Y-13327500D01*
G75*
G02*
X4767500Y-13215000I112500J0D01*
G01*
G37*
G36*
G01*
X6017500Y-11965000D02*
X6242500Y-11965000D01*
G75*
G02*
X6355000Y-12077500I0J-112500D01*
G01*
X6355000Y-13127500D01*
G75*
G02*
X6242500Y-13240000I-112500J0D01*
G01*
X6017500Y-13240000D01*
G75*
G02*
X5905000Y-13127500I0J112500D01*
G01*
X5905000Y-12077500D01*
G75*
G02*
X6017500Y-11965000I112500J0D01*
G01*
G37*
G36*
G01*
X6517500Y-11965000D02*
X6742500Y-11965000D01*
G75*
G02*
X6855000Y-12077500I0J-112500D01*
G01*
X6855000Y-13127500D01*
G75*
G02*
X6742500Y-13240000I-112500J0D01*
G01*
X6517500Y-13240000D01*
G75*
G02*
X6405000Y-13127500I0J112500D01*
G01*
X6405000Y-12077500D01*
G75*
G02*
X6517500Y-11965000I112500J0D01*
G01*
G37*
G36*
G01*
X7017500Y-11965000D02*
X7242500Y-11965000D01*
G75*
G02*
X7355000Y-12077500I0J-112500D01*
G01*
X7355000Y-13127500D01*
G75*
G02*
X7242500Y-13240000I-112500J0D01*
G01*
X7017500Y-13240000D01*
G75*
G02*
X6905000Y-13127500I0J112500D01*
G01*
X6905000Y-12077500D01*
G75*
G02*
X7017500Y-11965000I112500J0D01*
G01*
G37*
G36*
G01*
X7517500Y-11965000D02*
X7742500Y-11965000D01*
G75*
G02*
X7855000Y-12077500I0J-112500D01*
G01*
X7855000Y-13127500D01*
G75*
G02*
X7742500Y-13240000I-112500J0D01*
G01*
X7517500Y-13240000D01*
G75*
G02*
X7405000Y-13127500I0J112500D01*
G01*
X7405000Y-12077500D01*
G75*
G02*
X7517500Y-11965000I112500J0D01*
G01*
G37*
G36*
G01*
X8017500Y-11965000D02*
X8242500Y-11965000D01*
G75*
G02*
X8355000Y-12077500I0J-112500D01*
G01*
X8355000Y-13127500D01*
G75*
G02*
X8242500Y-13240000I-112500J0D01*
G01*
X8017500Y-13240000D01*
G75*
G02*
X7905000Y-13127500I0J112500D01*
G01*
X7905000Y-12077500D01*
G75*
G02*
X8017500Y-11965000I112500J0D01*
G01*
G37*
G36*
G01*
X8517500Y-11965000D02*
X8742500Y-11965000D01*
G75*
G02*
X8855000Y-12077500I0J-112500D01*
G01*
X8855000Y-13127500D01*
G75*
G02*
X8742500Y-13240000I-112500J0D01*
G01*
X8517500Y-13240000D01*
G75*
G02*
X8405000Y-13127500I0J112500D01*
G01*
X8405000Y-12077500D01*
G75*
G02*
X8517500Y-11965000I112500J0D01*
G01*
G37*
G36*
G01*
X9017500Y-11965000D02*
X9242500Y-11965000D01*
G75*
G02*
X9355000Y-12077500I0J-112500D01*
G01*
X9355000Y-13127500D01*
G75*
G02*
X9242500Y-13240000I-112500J0D01*
G01*
X9017500Y-13240000D01*
G75*
G02*
X8905000Y-13127500I0J112500D01*
G01*
X8905000Y-12077500D01*
G75*
G02*
X9017500Y-11965000I112500J0D01*
G01*
G37*
G36*
G01*
X9517500Y-11965000D02*
X9742500Y-11965000D01*
G75*
G02*
X9855000Y-12077500I0J-112500D01*
G01*
X9855000Y-13127500D01*
G75*
G02*
X9742500Y-13240000I-112500J0D01*
G01*
X9517500Y-13240000D01*
G75*
G02*
X9405000Y-13127500I0J112500D01*
G01*
X9405000Y-12077500D01*
G75*
G02*
X9517500Y-11965000I112500J0D01*
G01*
G37*
G36*
G01*
X10017500Y-11965000D02*
X10242500Y-11965000D01*
G75*
G02*
X10355000Y-12077500I0J-112500D01*
G01*
X10355000Y-13127500D01*
G75*
G02*
X10242500Y-13240000I-112500J0D01*
G01*
X10017500Y-13240000D01*
G75*
G02*
X9905000Y-13127500I0J112500D01*
G01*
X9905000Y-12077500D01*
G75*
G02*
X10017500Y-11965000I112500J0D01*
G01*
G37*
G36*
G01*
X10517500Y-11965000D02*
X10742500Y-11965000D01*
G75*
G02*
X10855000Y-12077500I0J-112500D01*
G01*
X10855000Y-13127500D01*
G75*
G02*
X10742500Y-13240000I-112500J0D01*
G01*
X10517500Y-13240000D01*
G75*
G02*
X10405000Y-13127500I0J112500D01*
G01*
X10405000Y-12077500D01*
G75*
G02*
X10517500Y-11965000I112500J0D01*
G01*
G37*
G36*
G01*
X11017500Y-11965000D02*
X11242500Y-11965000D01*
G75*
G02*
X11355000Y-12077500I0J-112500D01*
G01*
X11355000Y-13127500D01*
G75*
G02*
X11242500Y-13240000I-112500J0D01*
G01*
X11017500Y-13240000D01*
G75*
G02*
X10905000Y-13127500I0J112500D01*
G01*
X10905000Y-12077500D01*
G75*
G02*
X11017500Y-11965000I112500J0D01*
G01*
G37*
G04 #@! TD*
G04 #@! TO.C,R21*
G36*
G01*
X9435000Y-7660000D02*
X8965000Y-7660000D01*
G75*
G02*
X8780000Y-7475000I0J185000D01*
G01*
X8780000Y-7105000D01*
G75*
G02*
X8965000Y-6920000I185000J0D01*
G01*
X9435000Y-6920000D01*
G75*
G02*
X9620000Y-7105000I0J-185000D01*
G01*
X9620000Y-7475000D01*
G75*
G02*
X9435000Y-7660000I-185000J0D01*
G01*
G37*
G36*
G01*
X9435000Y-8680000D02*
X8965000Y-8680000D01*
G75*
G02*
X8780000Y-8495000I0J185000D01*
G01*
X8780000Y-8125000D01*
G75*
G02*
X8965000Y-7940000I185000J0D01*
G01*
X9435000Y-7940000D01*
G75*
G02*
X9620000Y-8125000I0J-185000D01*
G01*
X9620000Y-8495000D01*
G75*
G02*
X9435000Y-8680000I-185000J0D01*
G01*
G37*
G04 #@! TD*
G04 #@! TO.C,R20*
G36*
G01*
X8435000Y-7660000D02*
X7965000Y-7660000D01*
G75*
G02*
X7780000Y-7475000I0J185000D01*
G01*
X7780000Y-7105000D01*
G75*
G02*
X7965000Y-6920000I185000J0D01*
G01*
X8435000Y-6920000D01*
G75*
G02*
X8620000Y-7105000I0J-185000D01*
G01*
X8620000Y-7475000D01*
G75*
G02*
X8435000Y-7660000I-185000J0D01*
G01*
G37*
G36*
G01*
X8435000Y-8680000D02*
X7965000Y-8680000D01*
G75*
G02*
X7780000Y-8495000I0J185000D01*
G01*
X7780000Y-8125000D01*
G75*
G02*
X7965000Y-7940000I185000J0D01*
G01*
X8435000Y-7940000D01*
G75*
G02*
X8620000Y-8125000I0J-185000D01*
G01*
X8620000Y-8495000D01*
G75*
G02*
X8435000Y-8680000I-185000J0D01*
G01*
G37*
G04 #@! TD*
G04 #@! TO.C,R13*
G36*
G01*
X11435000Y-7660000D02*
X10965000Y-7660000D01*
G75*
G02*
X10780000Y-7475000I0J185000D01*
G01*
X10780000Y-7105000D01*
G75*
G02*
X10965000Y-6920000I185000J0D01*
G01*
X11435000Y-6920000D01*
G75*
G02*
X11620000Y-7105000I0J-185000D01*
G01*
X11620000Y-7475000D01*
G75*
G02*
X11435000Y-7660000I-185000J0D01*
G01*
G37*
G36*
G01*
X11435000Y-8680000D02*
X10965000Y-8680000D01*
G75*
G02*
X10780000Y-8495000I0J185000D01*
G01*
X10780000Y-8125000D01*
G75*
G02*
X10965000Y-7940000I185000J0D01*
G01*
X11435000Y-7940000D01*
G75*
G02*
X11620000Y-8125000I0J-185000D01*
G01*
X11620000Y-8495000D01*
G75*
G02*
X11435000Y-8680000I-185000J0D01*
G01*
G37*
G04 #@! TD*
G04 #@! TO.C,R12*
G36*
G01*
X12435000Y-7660000D02*
X11965000Y-7660000D01*
G75*
G02*
X11780000Y-7475000I0J185000D01*
G01*
X11780000Y-7105000D01*
G75*
G02*
X11965000Y-6920000I185000J0D01*
G01*
X12435000Y-6920000D01*
G75*
G02*
X12620000Y-7105000I0J-185000D01*
G01*
X12620000Y-7475000D01*
G75*
G02*
X12435000Y-7660000I-185000J0D01*
G01*
G37*
G36*
G01*
X12435000Y-8680000D02*
X11965000Y-8680000D01*
G75*
G02*
X11780000Y-8495000I0J185000D01*
G01*
X11780000Y-8125000D01*
G75*
G02*
X11965000Y-7940000I185000J0D01*
G01*
X12435000Y-7940000D01*
G75*
G02*
X12620000Y-8125000I0J-185000D01*
G01*
X12620000Y-8495000D01*
G75*
G02*
X12435000Y-8680000I-185000J0D01*
G01*
G37*
G04 #@! TD*
G04 #@! TO.C,R11*
G36*
G01*
X10435000Y-7660000D02*
X9965000Y-7660000D01*
G75*
G02*
X9780000Y-7475000I0J185000D01*
G01*
X9780000Y-7105000D01*
G75*
G02*
X9965000Y-6920000I185000J0D01*
G01*
X10435000Y-6920000D01*
G75*
G02*
X10620000Y-7105000I0J-185000D01*
G01*
X10620000Y-7475000D01*
G75*
G02*
X10435000Y-7660000I-185000J0D01*
G01*
G37*
G36*
G01*
X10435000Y-8680000D02*
X9965000Y-8680000D01*
G75*
G02*
X9780000Y-8495000I0J185000D01*
G01*
X9780000Y-8125000D01*
G75*
G02*
X9965000Y-7940000I185000J0D01*
G01*
X10435000Y-7940000D01*
G75*
G02*
X10620000Y-8125000I0J-185000D01*
G01*
X10620000Y-8495000D01*
G75*
G02*
X10435000Y-8680000I-185000J0D01*
G01*
G37*
G04 #@! TD*
D10*
G04 #@! TO.C,J3*
X15600000Y-19360000D03*
X15600000Y-16820000D03*
X15600000Y-14280000D03*
X15600000Y-11740000D03*
X15600000Y-9200000D03*
X15600000Y-6660000D03*
X15600000Y-4120000D03*
G36*
G01*
X16550000Y-730000D02*
X16550000Y-2430000D01*
G75*
G02*
X16450000Y-2530000I-100000J0D01*
G01*
X14750000Y-2530000D01*
G75*
G02*
X14650000Y-2430000I0J100000D01*
G01*
X14650000Y-730000D01*
G75*
G02*
X14750000Y-630000I100000J0D01*
G01*
X16450000Y-630000D01*
G75*
G02*
X16550000Y-730000I0J-100000D01*
G01*
G37*
G04 #@! TD*
G04 #@! TO.C,J1*
X400000Y-19380000D03*
X400000Y-16840000D03*
X400000Y-14300000D03*
X400000Y-11760000D03*
X400000Y-9220000D03*
X400000Y-6680000D03*
X400000Y-4140000D03*
G36*
G01*
X1350000Y-750000D02*
X1350000Y-2450000D01*
G75*
G02*
X1250000Y-2550000I-100000J0D01*
G01*
X-450000Y-2550000D01*
G75*
G02*
X-550000Y-2450000I0J100000D01*
G01*
X-550000Y-750000D01*
G75*
G02*
X-450000Y-650000I100000J0D01*
G01*
X1250000Y-650000D01*
G75*
G02*
X1350000Y-750000I0J-100000D01*
G01*
G37*
G04 #@! TD*
G04 #@! TO.C,D5*
G36*
G01*
X11422500Y-9710000D02*
X10977500Y-9710000D01*
G75*
G02*
X10780000Y-9512500I0J197500D01*
G01*
X10780000Y-9117500D01*
G75*
G02*
X10977500Y-8920000I197500J0D01*
G01*
X11422500Y-8920000D01*
G75*
G02*
X11620000Y-9117500I0J-197500D01*
G01*
X11620000Y-9512500D01*
G75*
G02*
X11422500Y-9710000I-197500J0D01*
G01*
G37*
G36*
G01*
X11422500Y-10680000D02*
X10977500Y-10680000D01*
G75*
G02*
X10780000Y-10482500I0J197500D01*
G01*
X10780000Y-10087500D01*
G75*
G02*
X10977500Y-9890000I197500J0D01*
G01*
X11422500Y-9890000D01*
G75*
G02*
X11620000Y-10087500I0J-197500D01*
G01*
X11620000Y-10482500D01*
G75*
G02*
X11422500Y-10680000I-197500J0D01*
G01*
G37*
G04 #@! TD*
G04 #@! TO.C,D4*
G36*
G01*
X12422500Y-9710000D02*
X11977500Y-9710000D01*
G75*
G02*
X11780000Y-9512500I0J197500D01*
G01*
X11780000Y-9117500D01*
G75*
G02*
X11977500Y-8920000I197500J0D01*
G01*
X12422500Y-8920000D01*
G75*
G02*
X12620000Y-9117500I0J-197500D01*
G01*
X12620000Y-9512500D01*
G75*
G02*
X12422500Y-9710000I-197500J0D01*
G01*
G37*
G36*
G01*
X12422500Y-10680000D02*
X11977500Y-10680000D01*
G75*
G02*
X11780000Y-10482500I0J197500D01*
G01*
X11780000Y-10087500D01*
G75*
G02*
X11977500Y-9890000I197500J0D01*
G01*
X12422500Y-9890000D01*
G75*
G02*
X12620000Y-10087500I0J-197500D01*
G01*
X12620000Y-10482500D01*
G75*
G02*
X12422500Y-10680000I-197500J0D01*
G01*
G37*
G04 #@! TD*
G04 #@! TO.C,D3*
G36*
G01*
X10422500Y-9710000D02*
X9977500Y-9710000D01*
G75*
G02*
X9780000Y-9512500I0J197500D01*
G01*
X9780000Y-9117500D01*
G75*
G02*
X9977500Y-8920000I197500J0D01*
G01*
X10422500Y-8920000D01*
G75*
G02*
X10620000Y-9117500I0J-197500D01*
G01*
X10620000Y-9512500D01*
G75*
G02*
X10422500Y-9710000I-197500J0D01*
G01*
G37*
G36*
G01*
X10422500Y-10680000D02*
X9977500Y-10680000D01*
G75*
G02*
X9780000Y-10482500I0J197500D01*
G01*
X9780000Y-10087500D01*
G75*
G02*
X9977500Y-9890000I197500J0D01*
G01*
X10422500Y-9890000D01*
G75*
G02*
X10620000Y-10087500I0J-197500D01*
G01*
X10620000Y-10482500D01*
G75*
G02*
X10422500Y-10680000I-197500J0D01*
G01*
G37*
G04 #@! TD*
G04 #@! TO.C,C4*
G36*
G01*
X8620000Y-9850000D02*
X8180000Y-9850000D01*
G75*
G02*
X7990000Y-9660000I0J190000D01*
G01*
X7990000Y-9280000D01*
G75*
G02*
X8180000Y-9090000I190000J0D01*
G01*
X8620000Y-9090000D01*
G75*
G02*
X8810000Y-9280000I0J-190000D01*
G01*
X8810000Y-9660000D01*
G75*
G02*
X8620000Y-9850000I-190000J0D01*
G01*
G37*
G36*
G01*
X8620000Y-10810000D02*
X8180000Y-10810000D01*
G75*
G02*
X7990000Y-10620000I0J190000D01*
G01*
X7990000Y-10240000D01*
G75*
G02*
X8180000Y-10050000I190000J0D01*
G01*
X8620000Y-10050000D01*
G75*
G02*
X8810000Y-10240000I0J-190000D01*
G01*
X8810000Y-10620000D01*
G75*
G02*
X8620000Y-10810000I-190000J0D01*
G01*
G37*
G04 #@! TD*
G04 #@! TO.C,C1*
G36*
G01*
X4420000Y-10720000D02*
X4420000Y-10280000D01*
G75*
G02*
X4610000Y-10090000I190000J0D01*
G01*
X4990000Y-10090000D01*
G75*
G02*
X5180000Y-10280000I0J-190000D01*
G01*
X5180000Y-10720000D01*
G75*
G02*
X4990000Y-10910000I-190000J0D01*
G01*
X4610000Y-10910000D01*
G75*
G02*
X4420000Y-10720000I0J190000D01*
G01*
G37*
G36*
G01*
X3460000Y-10720000D02*
X3460000Y-10280000D01*
G75*
G02*
X3650000Y-10090000I190000J0D01*
G01*
X4030000Y-10090000D01*
G75*
G02*
X4220000Y-10280000I0J-190000D01*
G01*
X4220000Y-10720000D01*
G75*
G02*
X4030000Y-10910000I-190000J0D01*
G01*
X3650000Y-10910000D01*
G75*
G02*
X3460000Y-10720000I0J190000D01*
G01*
G37*
G04 #@! TD*
G04 #@! TO.C,J2*
G36*
G01*
X9625000Y-4670000D02*
X9625000Y-6050000D01*
G75*
G02*
X9525000Y-6150000I-100000J0D01*
G01*
X9075000Y-6150000D01*
G75*
G02*
X8975000Y-6050000I0J100000D01*
G01*
X8975000Y-4670000D01*
G75*
G02*
X9075000Y-4570000I100000J0D01*
G01*
X9525000Y-4570000D01*
G75*
G02*
X9625000Y-4670000I0J-100000D01*
G01*
G37*
G36*
G01*
X8975000Y-4670000D02*
X8975000Y-6050000D01*
G75*
G02*
X8875000Y-6150000I-100000J0D01*
G01*
X8425000Y-6150000D01*
G75*
G02*
X8325000Y-6050000I0J100000D01*
G01*
X8325000Y-4670000D01*
G75*
G02*
X8425000Y-4570000I100000J0D01*
G01*
X8875000Y-4570000D01*
G75*
G02*
X8975000Y-4670000I0J-100000D01*
G01*
G37*
G36*
G01*
X8325000Y-4670000D02*
X8325000Y-6050000D01*
G75*
G02*
X8225000Y-6150000I-100000J0D01*
G01*
X7775000Y-6150000D01*
G75*
G02*
X7675000Y-6050000I0J100000D01*
G01*
X7675000Y-4670000D01*
G75*
G02*
X7775000Y-4570000I100000J0D01*
G01*
X8225000Y-4570000D01*
G75*
G02*
X8325000Y-4670000I0J-100000D01*
G01*
G37*
G36*
G01*
X7675000Y-4670000D02*
X7675000Y-6050000D01*
G75*
G02*
X7575000Y-6150000I-100000J0D01*
G01*
X7125000Y-6150000D01*
G75*
G02*
X7025000Y-6050000I0J100000D01*
G01*
X7025000Y-4670000D01*
G75*
G02*
X7125000Y-4570000I100000J0D01*
G01*
X7575000Y-4570000D01*
G75*
G02*
X7675000Y-4670000I0J-100000D01*
G01*
G37*
G36*
G01*
X7025000Y-4670000D02*
X7025000Y-6050000D01*
G75*
G02*
X6925000Y-6150000I-100000J0D01*
G01*
X6475000Y-6150000D01*
G75*
G02*
X6375000Y-6050000I0J100000D01*
G01*
X6375000Y-4670000D01*
G75*
G02*
X6475000Y-4570000I100000J0D01*
G01*
X6925000Y-4570000D01*
G75*
G02*
X7025000Y-4670000I0J-100000D01*
G01*
G37*
G36*
G01*
X11300000Y-4500000D02*
X11300000Y-6050000D01*
G75*
G02*
X11200000Y-6150000I-100000J0D01*
G01*
X9775000Y-6150000D01*
G75*
G02*
X9675000Y-6050000I0J100000D01*
G01*
X9675000Y-4500000D01*
G75*
G02*
X9775000Y-4400000I100000J0D01*
G01*
X11200000Y-4400000D01*
G75*
G02*
X11300000Y-4500000I0J-100000D01*
G01*
G37*
G36*
G01*
X6325000Y-4500000D02*
X6325000Y-6050000D01*
G75*
G02*
X6225000Y-6150000I-100000J0D01*
G01*
X4800000Y-6150000D01*
G75*
G02*
X4700000Y-6050000I0J100000D01*
G01*
X4700000Y-4500000D01*
G75*
G02*
X4800000Y-4400000I100000J0D01*
G01*
X6225000Y-4400000D01*
G75*
G02*
X6325000Y-4500000I0J-100000D01*
G01*
G37*
G36*
G01*
X12300000Y-2050000D02*
X12300000Y-3350000D01*
G75*
G02*
X12200000Y-3450000I-100000J0D01*
G01*
X10550000Y-3450000D01*
G75*
G02*
X10450000Y-3350000I0J100000D01*
G01*
X10450000Y-2050000D01*
G75*
G02*
X10550000Y-1950000I100000J0D01*
G01*
X12200000Y-1950000D01*
G75*
G02*
X12300000Y-2050000I0J-100000D01*
G01*
G37*
G36*
G01*
X5550000Y-2050000D02*
X5550000Y-3350000D01*
G75*
G02*
X5450000Y-3450000I-100000J0D01*
G01*
X3800000Y-3450000D01*
G75*
G02*
X3700000Y-3350000I0J100000D01*
G01*
X3700000Y-2050000D01*
G75*
G02*
X3800000Y-1950000I100000J0D01*
G01*
X5450000Y-1950000D01*
G75*
G02*
X5550000Y-2050000I0J-100000D01*
G01*
G37*
G36*
G01*
X10150000Y-1750000D02*
X10150000Y-3650000D01*
G75*
G02*
X10050000Y-3750000I-100000J0D01*
G01*
X8250000Y-3750000D01*
G75*
G02*
X8150000Y-3650000I0J100000D01*
G01*
X8150000Y-1750000D01*
G75*
G02*
X8250000Y-1650000I100000J0D01*
G01*
X10050000Y-1650000D01*
G75*
G02*
X10150000Y-1750000I0J-100000D01*
G01*
G37*
G36*
G01*
X7050000Y-1750000D02*
X7050000Y-3650000D01*
G75*
G02*
X6950000Y-3750000I-100000J0D01*
G01*
X5950000Y-3750000D01*
G75*
G02*
X5850000Y-3650000I0J100000D01*
G01*
X5850000Y-1750000D01*
G75*
G02*
X5950000Y-1650000I100000J0D01*
G01*
X6950000Y-1650000D01*
G75*
G02*
X7050000Y-1750000I0J-100000D01*
G01*
G37*
G04 #@! TD*
G04 #@! TO.C,Y1*
G36*
G01*
X3600000Y-8050000D02*
X3600000Y-6850000D01*
G75*
G02*
X3700000Y-6750000I100000J0D01*
G01*
X5100000Y-6750000D01*
G75*
G02*
X5200000Y-6850000I0J-100000D01*
G01*
X5200000Y-8050000D01*
G75*
G02*
X5100000Y-8150000I-100000J0D01*
G01*
X3700000Y-8150000D01*
G75*
G02*
X3600000Y-8050000I0J100000D01*
G01*
G37*
G36*
G01*
X5800000Y-8050000D02*
X5800000Y-6850000D01*
G75*
G02*
X5900000Y-6750000I100000J0D01*
G01*
X7300000Y-6750000D01*
G75*
G02*
X7400000Y-6850000I0J-100000D01*
G01*
X7400000Y-8050000D01*
G75*
G02*
X7300000Y-8150000I-100000J0D01*
G01*
X5900000Y-8150000D01*
G75*
G02*
X5800000Y-8050000I0J100000D01*
G01*
G37*
G36*
G01*
X5800000Y-9750000D02*
X5800000Y-8550000D01*
G75*
G02*
X5900000Y-8450000I100000J0D01*
G01*
X7300000Y-8450000D01*
G75*
G02*
X7400000Y-8550000I0J-100000D01*
G01*
X7400000Y-9750000D01*
G75*
G02*
X7300000Y-9850000I-100000J0D01*
G01*
X5900000Y-9850000D01*
G75*
G02*
X5800000Y-9750000I0J100000D01*
G01*
G37*
G36*
G01*
X3600000Y-9750000D02*
X3600000Y-8550000D01*
G75*
G02*
X3700000Y-8450000I100000J0D01*
G01*
X5100000Y-8450000D01*
G75*
G02*
X5200000Y-8550000I0J-100000D01*
G01*
X5200000Y-9750000D01*
G75*
G02*
X5100000Y-9850000I-100000J0D01*
G01*
X3700000Y-9850000D01*
G75*
G02*
X3600000Y-9750000I0J100000D01*
G01*
G37*
G04 #@! TD*
M02*
