M48
; DRILL file {KiCad (6.0.5)} date Mon Oct 17 22:54:24 2022
; FORMAT={-:-/ absolute / metric / decimal}
; #@! TF.CreationDate,2022-10-17T22:54:24+09:00
; #@! TF.GenerationSoftware,Kicad,Pcbnew,(6.0.5)
; #@! TF.FileFunction,Plated,1,2,PTH
FMAT,2
METRIC
; #@! TA.AperFunction,Plated,PTH,ViaDrill
T1C0.400
; #@! TA.AperFunction,Plated,PTH,ComponentDrill
T2C0.500
; #@! TA.AperFunction,Plated,PTH,ComponentDrill
T3C0.700
; #@! TA.AperFunction,Plated,PTH,ComponentDrill
T4C0.800
; #@! TA.AperFunction,Plated,PTH,ComponentDrill
T5C1.000
; #@! TA.AperFunction,Plated,PTH,ComponentDrill
T6C1.400
; #@! TA.AperFunction,Plated,PTH,ComponentDrill
T7C1.700
%
G90
G05
T1
X124.714Y-104.648
X130.556Y-111.252
X130.556Y-115.316
X130.556Y-120.65
X131.826Y-99.822
X135.128Y-96.774
X136.144Y-103.632
X136.652Y-111.252
X136.652Y-115.57
X139.192Y-97.028
X139.954Y-80.772
X141.732Y-101.854
X144.018Y-108.966
X144.272Y-84.074
X145.034Y-93.472
X150.495Y-100.203
X151.638Y-101.092
X151.638Y-111.252
X152.146Y-92.456
X153.162Y-101.092
X155.956Y-93.218
X155.956Y-111.252
X156.21Y-82.296
X156.21Y-87.63
X159.258Y-98.552
X159.766Y-103.378
X160.274Y-111.252
X160.782Y-90.932
X161.29Y-94.488
X162.052Y-82.042
X163.83Y-99.06
X165.1Y-103.378
X173.99Y-105.156
T3
X143.002Y-112.776
X143.002Y-115.062
X143.002Y-117.348
X148.082Y-112.776
X148.082Y-115.062
X148.082Y-117.348
T4
X148.162Y-83.566
X148.162Y-87.376
X153.162Y-83.566
X153.162Y-87.376
X165.94Y-112.019
X168.139Y-110.749
X170.339Y-109.479
T5
X161.163Y-87.025
X163.328Y-85.775
X164.592Y-92.964
X166.757Y-91.714
X168.021Y-98.903
X170.186Y-97.653
T6
X128.606Y-103.042
X137.586Y-94.062
T7
X137.403Y-87.371
X140.203Y-84.571
T2
G00X125.207Y-99.19
M15
G01X124.076Y-98.059
M16
G05
G00X127.823Y-96.574
M15
G01X126.692Y-95.443
M16
G05
G00X130.864Y-93.533
M15
G01X129.733Y-92.402
M16
G05
G00X133.48Y-90.917
M15
G01X132.349Y-89.786
M16
G05
T5
G00X134.604Y-117.348
M15
G01X132.604Y-117.348
M16
G05
G00X134.604Y-123.348
M15
G01X132.604Y-123.348
M16
G05
T0
M30
