%TF.GenerationSoftware,KiCad,Pcbnew,(6.0.5)*%
%TF.CreationDate,2022-10-17T22:54:22+09:00*%
%TF.ProjectId,psu_board,7073755f-626f-4617-9264-2e6b69636164,rev?*%
%TF.SameCoordinates,Original*%
%TF.FileFunction,Profile,NP*%
%FSLAX46Y46*%
G04 Gerber Fmt 4.6, Leading zero omitted, Abs format (unit mm)*
G04 Created by KiCad (PCBNEW (6.0.5)) date 2022-10-17 22:54:22*
%MOMM*%
%LPD*%
G01*
G04 APERTURE LIST*
%TA.AperFunction,Profile*%
%ADD10C,0.200000*%
%TD*%
G04 APERTURE END LIST*
D10*
X118956033Y-99549887D02*
G75*
G03*
X118956010Y-102378291I1414167J-1414213D01*
G01*
X126910961Y-115990097D02*
X119651769Y-123249288D01*
X179185994Y-108663346D02*
G75*
G03*
X179185994Y-108663346I-1500000J0D01*
G01*
X126910961Y-115990097D02*
G75*
G03*
X126910961Y-110333243I-2828431J2828427D01*
G01*
X142803484Y-77342276D02*
G75*
G03*
X162347407Y-79915282I15503016J42245176D01*
G01*
X179634551Y-107538346D02*
X164259053Y-80907202D01*
X145684100Y-80449124D02*
G75*
G03*
X145684100Y-80449124I-1500000J0D01*
G01*
X142240000Y-119634000D02*
X165100000Y-119634000D01*
X165100000Y-119634000D02*
X165100000Y-130048000D01*
X165100000Y-130048000D02*
X142240000Y-130048000D01*
X142240000Y-130048000D02*
X142240000Y-119634000D01*
X169159719Y-115895404D02*
G75*
G03*
X167695613Y-121359498I1999981J-3464096D01*
G01*
X142803502Y-77342228D02*
G75*
G03*
X140700247Y-77805626I-689002J-1877572D01*
G01*
X178902469Y-110270342D02*
G75*
G03*
X179634551Y-107538346I-999969J1732042D01*
G01*
X119651771Y-123249290D02*
G75*
G03*
X120298137Y-126510232I1414229J-1414210D01*
G01*
X169159714Y-115895396D02*
X178902500Y-110270396D01*
X140700247Y-77805626D02*
X118956010Y-99549864D01*
X172596586Y-131250156D02*
G75*
G03*
X172596586Y-131250156I-1500000J0D01*
G01*
X118956010Y-102378291D02*
X126910961Y-110333243D01*
X171360306Y-133232748D02*
G75*
G03*
X172828636Y-130250156I-263706J1982548D01*
G01*
X172828636Y-130250156D02*
X167695613Y-121359498D01*
X120298137Y-126510231D02*
G75*
G03*
X171360299Y-133232693I38008363J91413131D01*
G01*
X122047000Y-101140854D02*
G75*
G03*
X122047000Y-101140854I-1500000J0D01*
G01*
X164259050Y-80907203D02*
G75*
G03*
X162347407Y-79915282I-1732050J-999997D01*
G01*
X122565983Y-124663502D02*
G75*
G03*
X122565983Y-124663502I-1500000J0D01*
G01*
M02*
