%TF.GenerationSoftware,KiCad,Pcbnew,(6.0.5)*%
%TF.CreationDate,2022-10-17T22:54:22+09:00*%
%TF.ProjectId,psu_board,7073755f-626f-4617-9264-2e6b69636164,rev?*%
%TF.SameCoordinates,Original*%
%TF.FileFunction,Legend,Top*%
%TF.FilePolarity,Positive*%
%FSLAX46Y46*%
G04 Gerber Fmt 4.6, Leading zero omitted, Abs format (unit mm)*
G04 Created by KiCad (PCBNEW (6.0.5)) date 2022-10-17 22:54:22*
%MOMM*%
%LPD*%
G01*
G04 APERTURE LIST*
%ADD10C,0.150000*%
%ADD11C,0.120000*%
G04 APERTURE END LIST*
D10*
%TO.C,F1*%
X125438503Y-91619907D02*
X125202800Y-91855609D01*
X125573190Y-92225999D02*
X124866083Y-91518892D01*
X125202800Y-91182174D01*
X126549670Y-91249518D02*
X126145609Y-91653579D01*
X126347640Y-91451548D02*
X125640533Y-90744442D01*
X125674205Y-90912800D01*
X125674205Y-91047487D01*
X125640533Y-91148503D01*
%TO.C,SW1*%
X140008761Y-118681333D02*
X140056380Y-118538476D01*
X140056380Y-118300380D01*
X140008761Y-118205142D01*
X139961142Y-118157523D01*
X139865904Y-118109904D01*
X139770666Y-118109904D01*
X139675428Y-118157523D01*
X139627809Y-118205142D01*
X139580190Y-118300380D01*
X139532571Y-118490857D01*
X139484952Y-118586095D01*
X139437333Y-118633714D01*
X139342095Y-118681333D01*
X139246857Y-118681333D01*
X139151619Y-118633714D01*
X139104000Y-118586095D01*
X139056380Y-118490857D01*
X139056380Y-118252761D01*
X139104000Y-118109904D01*
X139056380Y-117776571D02*
X140056380Y-117538476D01*
X139342095Y-117348000D01*
X140056380Y-117157523D01*
X139056380Y-116919428D01*
X140056380Y-116014666D02*
X140056380Y-116586095D01*
X140056380Y-116300380D02*
X139056380Y-116300380D01*
X139199238Y-116395619D01*
X139294476Y-116490857D01*
X139342095Y-116586095D01*
X132984952Y-110800380D02*
X133175428Y-110800380D01*
X133270666Y-110848000D01*
X133365904Y-110943238D01*
X133413523Y-111133714D01*
X133413523Y-111467047D01*
X133365904Y-111657523D01*
X133270666Y-111752761D01*
X133175428Y-111800380D01*
X132984952Y-111800380D01*
X132889714Y-111752761D01*
X132794476Y-111657523D01*
X132746857Y-111467047D01*
X132746857Y-111133714D01*
X132794476Y-110943238D01*
X132889714Y-110848000D01*
X132984952Y-110800380D01*
X133842095Y-111800380D02*
X133842095Y-110800380D01*
X134413523Y-111800380D01*
X134413523Y-110800380D01*
%TO.C,C2*%
X150495333Y-87733142D02*
X150447714Y-87780761D01*
X150304857Y-87828380D01*
X150209619Y-87828380D01*
X150066761Y-87780761D01*
X149971523Y-87685523D01*
X149923904Y-87590285D01*
X149876285Y-87399809D01*
X149876285Y-87256952D01*
X149923904Y-87066476D01*
X149971523Y-86971238D01*
X150066761Y-86876000D01*
X150209619Y-86828380D01*
X150304857Y-86828380D01*
X150447714Y-86876000D01*
X150495333Y-86923619D01*
X150876285Y-86923619D02*
X150923904Y-86876000D01*
X151019142Y-86828380D01*
X151257238Y-86828380D01*
X151352476Y-86876000D01*
X151400095Y-86923619D01*
X151447714Y-87018857D01*
X151447714Y-87114095D01*
X151400095Y-87256952D01*
X150828666Y-87828380D01*
X151447714Y-87828380D01*
%TO.C,R2*%
X145375333Y-117434380D02*
X145042000Y-116958190D01*
X144803904Y-117434380D02*
X144803904Y-116434380D01*
X145184857Y-116434380D01*
X145280095Y-116482000D01*
X145327714Y-116529619D01*
X145375333Y-116624857D01*
X145375333Y-116767714D01*
X145327714Y-116862952D01*
X145280095Y-116910571D01*
X145184857Y-116958190D01*
X144803904Y-116958190D01*
X145756285Y-116529619D02*
X145803904Y-116482000D01*
X145899142Y-116434380D01*
X146137238Y-116434380D01*
X146232476Y-116482000D01*
X146280095Y-116529619D01*
X146327714Y-116624857D01*
X146327714Y-116720095D01*
X146280095Y-116862952D01*
X145708666Y-117434380D01*
X146327714Y-117434380D01*
%TO.C,D1*%
X130793862Y-97293687D02*
X130086755Y-96586581D01*
X130255114Y-96418222D01*
X130389801Y-96350878D01*
X130524488Y-96350878D01*
X130625503Y-96384550D01*
X130793862Y-96485565D01*
X130894877Y-96586581D01*
X130995893Y-96754939D01*
X131029564Y-96855955D01*
X131029564Y-96990642D01*
X130962221Y-97125329D01*
X130793862Y-97293687D01*
X131871358Y-96216191D02*
X131467297Y-96620252D01*
X131669328Y-96418222D02*
X130962221Y-95711115D01*
X130995893Y-95879474D01*
X130995893Y-96014161D01*
X130962221Y-96115176D01*
X127043503Y-101850149D02*
X126336396Y-101143042D01*
X127447564Y-101446088D02*
X126740457Y-101345073D01*
X126740457Y-100738981D02*
X126740457Y-101547103D01*
%TO.C,R3*%
X145375333Y-115148380D02*
X145042000Y-114672190D01*
X144803904Y-115148380D02*
X144803904Y-114148380D01*
X145184857Y-114148380D01*
X145280095Y-114196000D01*
X145327714Y-114243619D01*
X145375333Y-114338857D01*
X145375333Y-114481714D01*
X145327714Y-114576952D01*
X145280095Y-114624571D01*
X145184857Y-114672190D01*
X144803904Y-114672190D01*
X145708666Y-114148380D02*
X146327714Y-114148380D01*
X145994380Y-114529333D01*
X146137238Y-114529333D01*
X146232476Y-114576952D01*
X146280095Y-114624571D01*
X146327714Y-114719809D01*
X146327714Y-114957904D01*
X146280095Y-115053142D01*
X146232476Y-115100761D01*
X146137238Y-115148380D01*
X145851523Y-115148380D01*
X145756285Y-115100761D01*
X145708666Y-115053142D01*
%TO.C,C1*%
X150495333Y-83923142D02*
X150447714Y-83970761D01*
X150304857Y-84018380D01*
X150209619Y-84018380D01*
X150066761Y-83970761D01*
X149971523Y-83875523D01*
X149923904Y-83780285D01*
X149876285Y-83589809D01*
X149876285Y-83446952D01*
X149923904Y-83256476D01*
X149971523Y-83161238D01*
X150066761Y-83066000D01*
X150209619Y-83018380D01*
X150304857Y-83018380D01*
X150447714Y-83066000D01*
X150495333Y-83113619D01*
X151447714Y-84018380D02*
X150876285Y-84018380D01*
X151162000Y-84018380D02*
X151162000Y-83018380D01*
X151066761Y-83161238D01*
X150971523Y-83256476D01*
X150876285Y-83304095D01*
%TO.C,MES1*%
X151931904Y-129089380D02*
X151931904Y-128089380D01*
X152265238Y-128803666D01*
X152598571Y-128089380D01*
X152598571Y-129089380D01*
X153074761Y-128565571D02*
X153408095Y-128565571D01*
X153550952Y-129089380D02*
X153074761Y-129089380D01*
X153074761Y-128089380D01*
X153550952Y-128089380D01*
X153931904Y-129041761D02*
X154074761Y-129089380D01*
X154312857Y-129089380D01*
X154408095Y-129041761D01*
X154455714Y-128994142D01*
X154503333Y-128898904D01*
X154503333Y-128803666D01*
X154455714Y-128708428D01*
X154408095Y-128660809D01*
X154312857Y-128613190D01*
X154122380Y-128565571D01*
X154027142Y-128517952D01*
X153979523Y-128470333D01*
X153931904Y-128375095D01*
X153931904Y-128279857D01*
X153979523Y-128184619D01*
X154027142Y-128137000D01*
X154122380Y-128089380D01*
X154360476Y-128089380D01*
X154503333Y-128137000D01*
X155455714Y-129089380D02*
X154884285Y-129089380D01*
X155170000Y-129089380D02*
X155170000Y-128089380D01*
X155074761Y-128232238D01*
X154979523Y-128327476D01*
X154884285Y-128375095D01*
%TO.C,BT1*%
X134732176Y-83011344D02*
X134866863Y-82944000D01*
X134934206Y-82944000D01*
X135035222Y-82977672D01*
X135136237Y-83078687D01*
X135169909Y-83179703D01*
X135169909Y-83247046D01*
X135136237Y-83348061D01*
X134866863Y-83617435D01*
X134159756Y-82910329D01*
X134395458Y-82674626D01*
X134496474Y-82640955D01*
X134563817Y-82640955D01*
X134664832Y-82674626D01*
X134732176Y-82741970D01*
X134765848Y-82842985D01*
X134765848Y-82910329D01*
X134732176Y-83011344D01*
X134496474Y-83247046D01*
X134765848Y-82304237D02*
X135169909Y-81900176D01*
X135674985Y-82809313D02*
X134967878Y-82102206D01*
X136483107Y-82001191D02*
X136079046Y-82405252D01*
X136281077Y-82203222D02*
X135573970Y-81496115D01*
X135607642Y-81664474D01*
X135607642Y-81799161D01*
X135573970Y-81900176D01*
%TO.C,RV1*%
X169680040Y-114608045D02*
X169153269Y-114362319D01*
X169185168Y-114893759D02*
X168685168Y-114027734D01*
X169015082Y-113837258D01*
X169121371Y-113830878D01*
X169186419Y-113848308D01*
X169275278Y-113906977D01*
X169346706Y-114030695D01*
X169353086Y-114136983D01*
X169335656Y-114202032D01*
X169276987Y-114290890D01*
X168947073Y-114481366D01*
X169427475Y-113599162D02*
X170216151Y-114298521D01*
X170004826Y-113265829D01*
X171247133Y-113703283D02*
X170752262Y-113988997D01*
X170999697Y-113846140D02*
X170499697Y-112980115D01*
X170488647Y-113151452D01*
X170453788Y-113281549D01*
X170395119Y-113370408D01*
%TO.C,R1*%
X145375333Y-115880380D02*
X145042000Y-115404190D01*
X144803904Y-115880380D02*
X144803904Y-114880380D01*
X145184857Y-114880380D01*
X145280095Y-114928000D01*
X145327714Y-114975619D01*
X145375333Y-115070857D01*
X145375333Y-115213714D01*
X145327714Y-115308952D01*
X145280095Y-115356571D01*
X145184857Y-115404190D01*
X144803904Y-115404190D01*
X146327714Y-115880380D02*
X145756285Y-115880380D01*
X146042000Y-115880380D02*
X146042000Y-114880380D01*
X145946761Y-115023238D01*
X145851523Y-115118476D01*
X145756285Y-115166095D01*
%TO.C,U1*%
X150110095Y-100929380D02*
X150110095Y-101738904D01*
X150157714Y-101834142D01*
X150205333Y-101881761D01*
X150300571Y-101929380D01*
X150491047Y-101929380D01*
X150586285Y-101881761D01*
X150633904Y-101834142D01*
X150681523Y-101738904D01*
X150681523Y-100929380D01*
X151681523Y-101929380D02*
X151110095Y-101929380D01*
X151395809Y-101929380D02*
X151395809Y-100929380D01*
X151300571Y-101072238D01*
X151205333Y-101167476D01*
X151110095Y-101215095D01*
D11*
%TO.C,F1*%
X121593795Y-98080102D02*
X125185897Y-101672205D01*
X132370102Y-87303795D02*
X126981949Y-92691949D01*
X130574051Y-96284051D02*
X135962205Y-90895897D01*
X135962205Y-90895897D02*
X132370102Y-87303795D01*
X125185897Y-101672205D02*
X130574051Y-96284051D01*
X126981949Y-92691949D02*
X121593795Y-98080102D01*
%TO.C,SW1*%
X126104000Y-106848000D02*
X126104000Y-127848000D01*
X128904000Y-124848000D02*
X138304000Y-124848000D01*
X141104000Y-127848000D02*
X141104000Y-106848000D01*
X128904000Y-109848000D02*
X128904000Y-124848000D01*
X133604000Y-106848000D02*
X126104000Y-106848000D01*
X126104000Y-127848000D02*
X141104000Y-127848000D01*
X138304000Y-124848000D02*
X138304000Y-109848000D01*
X133604000Y-109848000D02*
X128904000Y-109848000D01*
X138304000Y-109848000D02*
X133604000Y-109848000D01*
X141104000Y-106848000D02*
X133604000Y-106848000D01*
%TO.C,C2*%
X147992000Y-85655000D02*
X147992000Y-86321000D01*
X147992000Y-89097000D02*
X153332000Y-89097000D01*
X147992000Y-88431000D02*
X147992000Y-89097000D01*
X147992000Y-85655000D02*
X153332000Y-85655000D01*
X153332000Y-85655000D02*
X153332000Y-86321000D01*
X153332000Y-88431000D02*
X153332000Y-89097000D01*
%TO.C,R2*%
X147462000Y-115982000D02*
X143622000Y-115982000D01*
X147462000Y-114142000D02*
X143622000Y-114142000D01*
%TO.C,D1*%
X136426473Y-95221528D02*
X136327478Y-95320523D01*
X129585215Y-99276785D02*
X132371216Y-102062786D01*
X134934478Y-93927523D02*
X128471522Y-100390479D01*
X137720478Y-96713523D02*
X134934478Y-93927523D01*
X129765527Y-101882474D02*
X129864522Y-101783479D01*
X129415509Y-99446491D02*
X132201510Y-102232492D01*
X129500362Y-99361638D02*
X132286363Y-102147639D01*
X131257522Y-103176479D02*
X137720478Y-96713523D01*
X128471522Y-100390479D02*
X131257522Y-103176479D01*
%TO.C,R3*%
X147462000Y-113696000D02*
X143622000Y-113696000D01*
X147462000Y-111856000D02*
X143622000Y-111856000D01*
%TO.C,C1*%
X147992000Y-81845000D02*
X147992000Y-82511000D01*
X147992000Y-81845000D02*
X153332000Y-81845000D01*
X147992000Y-84621000D02*
X147992000Y-85287000D01*
X153332000Y-84621000D02*
X153332000Y-85287000D01*
X147992000Y-85287000D02*
X153332000Y-85287000D01*
X153332000Y-81845000D02*
X153332000Y-82511000D01*
%TO.C,MES1*%
X142240000Y-119493000D02*
X153670000Y-119493000D01*
X165100000Y-119493000D02*
X165100000Y-129653000D01*
X142240000Y-129653000D02*
X142240000Y-119493000D01*
X165100000Y-129653000D02*
X153670000Y-129653000D01*
X153670000Y-119493000D02*
X165100000Y-119493000D01*
X153670000Y-129653000D02*
X142240000Y-129653000D01*
%TO.C,J1*%
X165436428Y-84326592D02*
X164786909Y-84701592D01*
X163127583Y-83927554D02*
X164686428Y-83027554D01*
X158402359Y-85443227D02*
X157319828Y-86068227D01*
X164686428Y-83027554D02*
X164311428Y-82378035D01*
X158104635Y-86827554D02*
X159663481Y-85927554D01*
X161453544Y-84028035D02*
X160587519Y-84528035D01*
X159663481Y-85927554D02*
X159288481Y-85278035D01*
X164315089Y-82364375D02*
X157715975Y-86174375D01*
X157729635Y-86178035D02*
X158104635Y-86827554D01*
X157715975Y-86174375D02*
X160700975Y-91344546D01*
X161828544Y-84677554D02*
X161453544Y-84028035D01*
X166261909Y-87256367D02*
X163620532Y-88781367D01*
X160587519Y-84528035D02*
X160962519Y-85177554D01*
X162752583Y-83278035D02*
X163127583Y-83927554D01*
X160700975Y-91344546D02*
X167300089Y-87534546D01*
X164311428Y-82378035D02*
X162752583Y-83278035D01*
X167300089Y-87534546D02*
X164315089Y-82364375D01*
X159504154Y-87751592D02*
X160979154Y-90306367D01*
X158854635Y-88126592D02*
X159504154Y-87751592D01*
X160962519Y-85177554D02*
X161828544Y-84677554D01*
X159288481Y-85278035D02*
X157729635Y-86178035D01*
X164786909Y-84701592D02*
X166261909Y-87256367D01*
X160979154Y-90306367D02*
X163620532Y-88781367D01*
X157319828Y-86068227D02*
X157944828Y-87150759D01*
%TO.C,J3*%
X165712635Y-100004997D02*
X166362154Y-99629997D01*
X166521481Y-97805959D02*
X166146481Y-97156440D01*
X171644909Y-96579997D02*
X173119909Y-99134772D01*
X168686544Y-96555959D02*
X168311544Y-95906440D01*
X166362154Y-99629997D02*
X167837154Y-102184772D01*
X167558975Y-103222951D02*
X174158089Y-99412951D01*
X167837154Y-102184772D02*
X170478532Y-100659772D01*
X166146481Y-97156440D02*
X164587635Y-98056440D01*
X171169428Y-94256440D02*
X169610583Y-95156440D01*
X172294428Y-96204997D02*
X171644909Y-96579997D01*
X165260359Y-97321632D02*
X164177828Y-97946632D01*
X164177828Y-97946632D02*
X164802828Y-99029164D01*
X171173089Y-94242780D02*
X164573975Y-98052780D01*
X174158089Y-99412951D02*
X171173089Y-94242780D01*
X169985583Y-95805959D02*
X171544428Y-94905959D01*
X164962635Y-98705959D02*
X166521481Y-97805959D01*
X164573975Y-98052780D02*
X167558975Y-103222951D01*
X164587635Y-98056440D02*
X164962635Y-98705959D01*
X171544428Y-94905959D02*
X171169428Y-94256440D01*
X169610583Y-95156440D02*
X169985583Y-95805959D01*
X173119909Y-99134772D02*
X170478532Y-100659772D01*
X167820519Y-97055959D02*
X168686544Y-96555959D01*
X168311544Y-95906440D02*
X167445519Y-96406440D01*
X167445519Y-96406440D02*
X167820519Y-97055959D01*
%TO.C,BT1*%
X139418274Y-92299697D02*
X134454385Y-87335808D01*
X140167808Y-81622385D02*
X145131697Y-86586274D01*
X135302913Y-86487280D02*
X134100831Y-85285198D01*
X145131697Y-86586274D02*
X139418274Y-92299697D01*
X135804959Y-88969224D02*
X135592827Y-89605620D01*
X135168563Y-89181356D02*
X135804959Y-88969224D01*
X134454385Y-87335808D02*
X135302913Y-86487280D01*
X134100831Y-85285198D02*
X138117198Y-81268831D01*
X135592827Y-89605620D02*
X135168563Y-89181356D01*
X138117198Y-81268831D02*
X139319279Y-82470913D01*
X139319279Y-82470913D02*
X140167808Y-81622385D01*
%TO.C,J2*%
X165257544Y-90616757D02*
X164882544Y-89967238D01*
X167744089Y-88303578D02*
X161144975Y-92113578D01*
X162283635Y-94065795D02*
X162933154Y-93690795D01*
X164882544Y-89967238D02*
X164016519Y-90467238D01*
X169690909Y-93195570D02*
X167049532Y-94720570D01*
X168865428Y-90265795D02*
X168215909Y-90640795D01*
X164016519Y-90467238D02*
X164391519Y-91116757D01*
X166181583Y-89217238D02*
X166556583Y-89866757D01*
X163092481Y-91866757D02*
X162717481Y-91217238D01*
X161158635Y-92117238D02*
X161533635Y-92766757D01*
X164129975Y-97283749D02*
X170729089Y-93473749D01*
X166556583Y-89866757D02*
X168115428Y-88966757D01*
X170729089Y-93473749D02*
X167744089Y-88303578D01*
X161144975Y-92113578D02*
X164129975Y-97283749D01*
X167740428Y-88317238D02*
X166181583Y-89217238D01*
X168115428Y-88966757D02*
X167740428Y-88317238D01*
X160748828Y-92007430D02*
X161373828Y-93089962D01*
X164408154Y-96245570D02*
X167049532Y-94720570D01*
X168215909Y-90640795D02*
X169690909Y-93195570D01*
X162933154Y-93690795D02*
X164408154Y-96245570D01*
X162717481Y-91217238D02*
X161158635Y-92117238D01*
X161831359Y-91382430D02*
X160748828Y-92007430D01*
X164391519Y-91116757D02*
X165257544Y-90616757D01*
X161533635Y-92766757D02*
X163092481Y-91866757D01*
%TO.C,RV1*%
X173634875Y-110497544D02*
X171099875Y-106106795D01*
X165173806Y-115382544D02*
X162638806Y-110991795D01*
X173634875Y-110497544D02*
X165173806Y-115382544D01*
X171099875Y-106106795D02*
X162638806Y-110991795D01*
%TO.C,R1*%
X143622000Y-118268000D02*
X147462000Y-118268000D01*
X143622000Y-116428000D02*
X147462000Y-116428000D01*
%TD*%
M02*
