G04 #@! TF.GenerationSoftware,KiCad,Pcbnew,(5.1.12)-1*
G04 #@! TF.CreationDate,2022-09-04T19:37:19+09:00*
G04 #@! TF.ProjectId,AT,41542e6b-6963-4616-945f-706362585858,rev?*
G04 #@! TF.SameCoordinates,PX791ddc0PY4323800*
G04 #@! TF.FileFunction,Copper,L2,Bot*
G04 #@! TF.FilePolarity,Positive*
%FSLAX46Y46*%
G04 Gerber Fmt 4.6, Leading zero omitted, Abs format (unit mm)*
G04 Created by KiCad (PCBNEW (5.1.12)-1) date 2022-09-04 19:37:19*
%MOMM*%
%LPD*%
G01*
G04 APERTURE LIST*
G04 #@! TA.AperFunction,ComponentPad*
%ADD10O,1.700000X1.950000*%
G04 #@! TD*
G04 #@! TA.AperFunction,ComponentPad*
%ADD11O,1.000000X1.600000*%
G04 #@! TD*
G04 #@! TA.AperFunction,ComponentPad*
%ADD12O,1.000000X2.100000*%
G04 #@! TD*
G04 #@! TA.AperFunction,ViaPad*
%ADD13C,0.800000*%
G04 #@! TD*
G04 #@! TA.AperFunction,Conductor*
%ADD14C,0.250000*%
G04 #@! TD*
G04 #@! TA.AperFunction,Conductor*
%ADD15C,0.254000*%
G04 #@! TD*
G04 #@! TA.AperFunction,Conductor*
%ADD16C,0.100000*%
G04 #@! TD*
G04 APERTURE END LIST*
D10*
G04 #@! TO.P,J2,5*
G04 #@! TO.N,Net-(J2-Pad5)*
X12510000Y-21460000D03*
G04 #@! TO.P,J2,4*
G04 #@! TO.N,Net-(J2-Pad4)*
X10010000Y-21460000D03*
G04 #@! TO.P,J2,3*
G04 #@! TO.N,N/C*
X7510000Y-21460000D03*
G04 #@! TO.P,J2,2*
G04 #@! TO.N,Net-(J2-Pad2)*
X5010000Y-21460000D03*
G04 #@! TO.P,J2,1*
G04 #@! TO.N,GND*
G04 #@! TA.AperFunction,ComponentPad*
G36*
G01*
X1660000Y-22185000D02*
X1660000Y-20735000D01*
G75*
G02*
X1910000Y-20485000I250000J0D01*
G01*
X3110000Y-20485000D01*
G75*
G02*
X3360000Y-20735000I0J-250000D01*
G01*
X3360000Y-22185000D01*
G75*
G02*
X3110000Y-22435000I-250000J0D01*
G01*
X1910000Y-22435000D01*
G75*
G02*
X1660000Y-22185000I0J250000D01*
G01*
G37*
G04 #@! TD.AperFunction*
G04 #@! TD*
D11*
G04 #@! TO.P,J1,S1*
G04 #@! TO.N,GND*
X3080000Y-2025000D03*
X11720000Y-2025000D03*
D12*
X3080000Y-6205000D03*
X11720000Y-6205000D03*
G04 #@! TD*
D13*
G04 #@! TO.N,GND*
X11260000Y-12210000D03*
X12510000Y-18870000D03*
X1760000Y-14120000D03*
X5390000Y-24240000D03*
X13750000Y-2120000D03*
X7830000Y-1310000D03*
X1340000Y-1480000D03*
G04 #@! TO.N,Net-(F1-Pad2)*
X9630000Y-4510000D03*
X5150000Y-4520000D03*
G04 #@! TO.N,Net-(J2-Pad4)*
X4660000Y-17020000D03*
X7920000Y-19370000D03*
G04 #@! TD*
D14*
G04 #@! TO.N,Net-(F1-Pad2)*
X9630000Y-4510000D02*
X9630000Y-3890000D01*
X9630000Y-3890000D02*
X9220000Y-3480000D01*
X9220000Y-3480000D02*
X6190000Y-3480000D01*
X6190000Y-3480000D02*
X5150000Y-4520000D01*
X5150000Y-4520000D02*
X5150000Y-4520000D01*
G04 #@! TO.N,Net-(J2-Pad4)*
X7920000Y-19370000D02*
X6140000Y-19370000D01*
X4660000Y-17890000D02*
X4660000Y-17020000D01*
X6140000Y-19370000D02*
X4660000Y-17890000D01*
G04 #@! TD*
D15*
G04 #@! TO.N,GND*
X2555024Y-710724D02*
X2367236Y-832631D01*
X2206839Y-988831D01*
X2079997Y-1173322D01*
X1991585Y-1379013D01*
X1945000Y-1598000D01*
X1945000Y-1898000D01*
X2953000Y-1898000D01*
X2953000Y-1878000D01*
X3207000Y-1878000D01*
X3207000Y-1898000D01*
X4215000Y-1898000D01*
X4215000Y-1598000D01*
X4168415Y-1379013D01*
X4080003Y-1173322D01*
X3953161Y-988831D01*
X3792764Y-832631D01*
X3604976Y-710724D01*
X3463240Y-660000D01*
X11336760Y-660000D01*
X11195024Y-710724D01*
X11007236Y-832631D01*
X10846839Y-988831D01*
X10719997Y-1173322D01*
X10631585Y-1379013D01*
X10585000Y-1598000D01*
X10585000Y-1898000D01*
X11593000Y-1898000D01*
X11593000Y-1878000D01*
X11847000Y-1878000D01*
X11847000Y-1898000D01*
X12855000Y-1898000D01*
X12855000Y-1598000D01*
X12808415Y-1379013D01*
X12720003Y-1173322D01*
X12593161Y-988831D01*
X12432764Y-832631D01*
X12244976Y-710724D01*
X12103240Y-660000D01*
X14340000Y-660000D01*
X14340001Y-24940000D01*
X660000Y-24940000D01*
X660000Y-22435000D01*
X1021928Y-22435000D01*
X1034188Y-22559482D01*
X1070498Y-22679180D01*
X1129463Y-22789494D01*
X1208815Y-22886185D01*
X1305506Y-22965537D01*
X1415820Y-23024502D01*
X1535518Y-23060812D01*
X1660000Y-23073072D01*
X2224250Y-23070000D01*
X2383000Y-22911250D01*
X2383000Y-21587000D01*
X1183750Y-21587000D01*
X1025000Y-21745750D01*
X1021928Y-22435000D01*
X660000Y-22435000D01*
X660000Y-20485000D01*
X1021928Y-20485000D01*
X1025000Y-21174250D01*
X1183750Y-21333000D01*
X2383000Y-21333000D01*
X2383000Y-20008750D01*
X2637000Y-20008750D01*
X2637000Y-21333000D01*
X2657000Y-21333000D01*
X2657000Y-21587000D01*
X2637000Y-21587000D01*
X2637000Y-22911250D01*
X2795750Y-23070000D01*
X3360000Y-23073072D01*
X3484482Y-23060812D01*
X3604180Y-23024502D01*
X3714494Y-22965537D01*
X3811185Y-22886185D01*
X3890537Y-22789494D01*
X3949502Y-22679180D01*
X3960055Y-22644392D01*
X4180987Y-22825706D01*
X4438967Y-22963599D01*
X4718890Y-23048513D01*
X5010000Y-23077185D01*
X5301111Y-23048513D01*
X5581034Y-22963599D01*
X5839014Y-22825706D01*
X6065134Y-22640134D01*
X6250706Y-22414014D01*
X6260000Y-22396626D01*
X6269294Y-22414014D01*
X6454866Y-22640134D01*
X6680987Y-22825706D01*
X6938967Y-22963599D01*
X7218890Y-23048513D01*
X7510000Y-23077185D01*
X7801111Y-23048513D01*
X8081034Y-22963599D01*
X8339014Y-22825706D01*
X8565134Y-22640134D01*
X8750706Y-22414014D01*
X8760000Y-22396626D01*
X8769294Y-22414014D01*
X8954866Y-22640134D01*
X9180987Y-22825706D01*
X9438967Y-22963599D01*
X9718890Y-23048513D01*
X10010000Y-23077185D01*
X10301111Y-23048513D01*
X10581034Y-22963599D01*
X10839014Y-22825706D01*
X11065134Y-22640134D01*
X11250706Y-22414014D01*
X11260000Y-22396626D01*
X11269294Y-22414014D01*
X11454866Y-22640134D01*
X11680987Y-22825706D01*
X11938967Y-22963599D01*
X12218890Y-23048513D01*
X12510000Y-23077185D01*
X12801111Y-23048513D01*
X13081034Y-22963599D01*
X13339014Y-22825706D01*
X13565134Y-22640134D01*
X13750706Y-22414014D01*
X13888599Y-22156033D01*
X13973513Y-21876110D01*
X13995000Y-21657949D01*
X13995000Y-21262050D01*
X13973513Y-21043889D01*
X13888599Y-20763966D01*
X13750706Y-20505986D01*
X13565134Y-20279866D01*
X13339013Y-20094294D01*
X13081033Y-19956401D01*
X12801110Y-19871487D01*
X12510000Y-19842815D01*
X12218889Y-19871487D01*
X11938966Y-19956401D01*
X11680986Y-20094294D01*
X11454866Y-20279866D01*
X11269294Y-20505987D01*
X11260000Y-20523374D01*
X11250706Y-20505986D01*
X11065134Y-20279866D01*
X10839013Y-20094294D01*
X10581033Y-19956401D01*
X10301110Y-19871487D01*
X10010000Y-19842815D01*
X9718889Y-19871487D01*
X9438966Y-19956401D01*
X9180986Y-20094294D01*
X8954866Y-20279866D01*
X8769294Y-20505987D01*
X8760000Y-20523374D01*
X8750706Y-20505986D01*
X8565134Y-20279866D01*
X8500556Y-20226869D01*
X8579774Y-20173937D01*
X8723937Y-20029774D01*
X8837205Y-19860256D01*
X8915226Y-19671898D01*
X8955000Y-19471939D01*
X8955000Y-19268061D01*
X8915226Y-19068102D01*
X8837205Y-18879744D01*
X8723937Y-18710226D01*
X8579774Y-18566063D01*
X8410256Y-18452795D01*
X8221898Y-18374774D01*
X8021939Y-18335000D01*
X7818061Y-18335000D01*
X7618102Y-18374774D01*
X7429744Y-18452795D01*
X7260226Y-18566063D01*
X7216289Y-18610000D01*
X6454802Y-18610000D01*
X5488225Y-17643424D01*
X5577205Y-17510256D01*
X5655226Y-17321898D01*
X5695000Y-17121939D01*
X5695000Y-16918061D01*
X5655226Y-16718102D01*
X5577205Y-16529744D01*
X5463937Y-16360226D01*
X5319774Y-16216063D01*
X5150256Y-16102795D01*
X4961898Y-16024774D01*
X4761939Y-15985000D01*
X4558061Y-15985000D01*
X4358102Y-16024774D01*
X4169744Y-16102795D01*
X4000226Y-16216063D01*
X3856063Y-16360226D01*
X3742795Y-16529744D01*
X3664774Y-16718102D01*
X3625000Y-16918061D01*
X3625000Y-17121939D01*
X3664774Y-17321898D01*
X3742795Y-17510256D01*
X3856063Y-17679774D01*
X3900000Y-17723711D01*
X3900000Y-17852678D01*
X3896324Y-17890000D01*
X3900000Y-17927322D01*
X3900000Y-17927332D01*
X3910997Y-18038985D01*
X3954454Y-18182246D01*
X4025026Y-18314276D01*
X4042034Y-18335000D01*
X4119999Y-18430001D01*
X4149003Y-18453804D01*
X5576201Y-19881003D01*
X5599999Y-19910001D01*
X5628997Y-19933799D01*
X5715723Y-20004974D01*
X5847753Y-20075546D01*
X5991014Y-20119003D01*
X6102667Y-20130000D01*
X6102676Y-20130000D01*
X6139999Y-20133676D01*
X6177322Y-20130000D01*
X6637478Y-20130000D01*
X6454866Y-20279866D01*
X6269294Y-20505987D01*
X6260000Y-20523374D01*
X6250706Y-20505986D01*
X6065134Y-20279866D01*
X5839013Y-20094294D01*
X5581033Y-19956401D01*
X5301110Y-19871487D01*
X5010000Y-19842815D01*
X4718889Y-19871487D01*
X4438966Y-19956401D01*
X4180986Y-20094294D01*
X3960055Y-20275608D01*
X3949502Y-20240820D01*
X3890537Y-20130506D01*
X3811185Y-20033815D01*
X3714494Y-19954463D01*
X3604180Y-19895498D01*
X3484482Y-19859188D01*
X3360000Y-19846928D01*
X2795750Y-19850000D01*
X2637000Y-20008750D01*
X2383000Y-20008750D01*
X2224250Y-19850000D01*
X1660000Y-19846928D01*
X1535518Y-19859188D01*
X1415820Y-19895498D01*
X1305506Y-19954463D01*
X1208815Y-20033815D01*
X1129463Y-20130506D01*
X1070498Y-20240820D01*
X1034188Y-20360518D01*
X1021928Y-20485000D01*
X660000Y-20485000D01*
X660000Y-6332000D01*
X1945000Y-6332000D01*
X1945000Y-6882000D01*
X1991585Y-7100987D01*
X2079997Y-7306678D01*
X2206839Y-7491169D01*
X2367236Y-7647369D01*
X2555024Y-7769276D01*
X2778126Y-7849119D01*
X2953000Y-7722954D01*
X2953000Y-6332000D01*
X1945000Y-6332000D01*
X660000Y-6332000D01*
X660000Y-5528000D01*
X1945000Y-5528000D01*
X1945000Y-6078000D01*
X2953000Y-6078000D01*
X2953000Y-4687046D01*
X3207000Y-4687046D01*
X3207000Y-6078000D01*
X3227000Y-6078000D01*
X3227000Y-6332000D01*
X3207000Y-6332000D01*
X3207000Y-7722954D01*
X3381874Y-7849119D01*
X3604976Y-7769276D01*
X3792764Y-7647369D01*
X3953161Y-7491169D01*
X4080003Y-7306678D01*
X4168415Y-7100987D01*
X4215000Y-6882000D01*
X4215000Y-6621904D01*
X4229978Y-6628108D01*
X4415448Y-6665000D01*
X4604552Y-6665000D01*
X4790022Y-6628108D01*
X4964731Y-6555741D01*
X5121964Y-6450681D01*
X5255681Y-6316964D01*
X5360741Y-6159731D01*
X5433108Y-5985022D01*
X5470000Y-5799552D01*
X5470000Y-5610448D01*
X5451091Y-5515386D01*
X5451898Y-5515226D01*
X5640256Y-5437205D01*
X5809774Y-5323937D01*
X5953937Y-5179774D01*
X6067205Y-5010256D01*
X6145226Y-4821898D01*
X6185000Y-4621939D01*
X6185000Y-4559801D01*
X6504802Y-4240000D01*
X8628429Y-4240000D01*
X8595000Y-4408061D01*
X8595000Y-4611939D01*
X8634774Y-4811898D01*
X8712795Y-5000256D01*
X8826063Y-5169774D01*
X8970226Y-5313937D01*
X9139744Y-5427205D01*
X9328102Y-5505226D01*
X9350061Y-5509594D01*
X9330000Y-5610448D01*
X9330000Y-5799552D01*
X9366892Y-5985022D01*
X9439259Y-6159731D01*
X9544319Y-6316964D01*
X9678036Y-6450681D01*
X9835269Y-6555741D01*
X10009978Y-6628108D01*
X10195448Y-6665000D01*
X10384552Y-6665000D01*
X10570022Y-6628108D01*
X10585000Y-6621904D01*
X10585000Y-6882000D01*
X10631585Y-7100987D01*
X10719997Y-7306678D01*
X10846839Y-7491169D01*
X11007236Y-7647369D01*
X11195024Y-7769276D01*
X11418126Y-7849119D01*
X11593000Y-7722954D01*
X11593000Y-6332000D01*
X11847000Y-6332000D01*
X11847000Y-7722954D01*
X12021874Y-7849119D01*
X12244976Y-7769276D01*
X12432764Y-7647369D01*
X12593161Y-7491169D01*
X12720003Y-7306678D01*
X12808415Y-7100987D01*
X12855000Y-6882000D01*
X12855000Y-6332000D01*
X11847000Y-6332000D01*
X11593000Y-6332000D01*
X11573000Y-6332000D01*
X11573000Y-6078000D01*
X11593000Y-6078000D01*
X11593000Y-4687046D01*
X11847000Y-4687046D01*
X11847000Y-6078000D01*
X12855000Y-6078000D01*
X12855000Y-5528000D01*
X12808415Y-5309013D01*
X12720003Y-5103322D01*
X12593161Y-4918831D01*
X12432764Y-4762631D01*
X12244976Y-4640724D01*
X12021874Y-4560881D01*
X11847000Y-4687046D01*
X11593000Y-4687046D01*
X11418126Y-4560881D01*
X11195024Y-4640724D01*
X11007236Y-4762631D01*
X10846839Y-4918831D01*
X10845117Y-4921335D01*
X10744731Y-4854259D01*
X10626538Y-4805302D01*
X10665000Y-4611939D01*
X10665000Y-4408061D01*
X10625226Y-4208102D01*
X10547205Y-4019744D01*
X10433937Y-3850226D01*
X10384933Y-3801222D01*
X10379003Y-3741014D01*
X10335546Y-3597753D01*
X10272605Y-3480001D01*
X10264974Y-3465724D01*
X10170001Y-3349999D01*
X10140997Y-3326196D01*
X9783804Y-2969003D01*
X9760001Y-2939999D01*
X9644276Y-2845026D01*
X9512247Y-2774454D01*
X9368986Y-2730997D01*
X9257333Y-2720000D01*
X9257322Y-2720000D01*
X9220000Y-2716324D01*
X9182678Y-2720000D01*
X6227322Y-2720000D01*
X6189999Y-2716324D01*
X6152676Y-2720000D01*
X6152667Y-2720000D01*
X6041014Y-2730997D01*
X5897753Y-2774454D01*
X5765723Y-2845026D01*
X5682083Y-2913668D01*
X5649999Y-2939999D01*
X5626201Y-2968997D01*
X5110199Y-3485000D01*
X5048061Y-3485000D01*
X4848102Y-3524774D01*
X4659744Y-3602795D01*
X4490226Y-3716063D01*
X4346063Y-3860226D01*
X4232795Y-4029744D01*
X4154774Y-4218102D01*
X4115000Y-4418061D01*
X4115000Y-4621939D01*
X4153147Y-4813717D01*
X4055269Y-4854259D01*
X3954883Y-4921335D01*
X3953161Y-4918831D01*
X3792764Y-4762631D01*
X3604976Y-4640724D01*
X3381874Y-4560881D01*
X3207000Y-4687046D01*
X2953000Y-4687046D01*
X2778126Y-4560881D01*
X2555024Y-4640724D01*
X2367236Y-4762631D01*
X2206839Y-4918831D01*
X2079997Y-5103322D01*
X1991585Y-5309013D01*
X1945000Y-5528000D01*
X660000Y-5528000D01*
X660000Y-2152000D01*
X1945000Y-2152000D01*
X1945000Y-2452000D01*
X1991585Y-2670987D01*
X2079997Y-2876678D01*
X2206839Y-3061169D01*
X2367236Y-3217369D01*
X2555024Y-3339276D01*
X2778126Y-3419119D01*
X2953000Y-3292954D01*
X2953000Y-2152000D01*
X3207000Y-2152000D01*
X3207000Y-3292954D01*
X3381874Y-3419119D01*
X3604976Y-3339276D01*
X3792764Y-3217369D01*
X3953161Y-3061169D01*
X4080003Y-2876678D01*
X4168415Y-2670987D01*
X4215000Y-2452000D01*
X4215000Y-2152000D01*
X10585000Y-2152000D01*
X10585000Y-2452000D01*
X10631585Y-2670987D01*
X10719997Y-2876678D01*
X10846839Y-3061169D01*
X11007236Y-3217369D01*
X11195024Y-3339276D01*
X11418126Y-3419119D01*
X11593000Y-3292954D01*
X11593000Y-2152000D01*
X11847000Y-2152000D01*
X11847000Y-3292954D01*
X12021874Y-3419119D01*
X12244976Y-3339276D01*
X12432764Y-3217369D01*
X12593161Y-3061169D01*
X12720003Y-2876678D01*
X12808415Y-2670987D01*
X12855000Y-2452000D01*
X12855000Y-2152000D01*
X11847000Y-2152000D01*
X11593000Y-2152000D01*
X10585000Y-2152000D01*
X4215000Y-2152000D01*
X3207000Y-2152000D01*
X2953000Y-2152000D01*
X1945000Y-2152000D01*
X660000Y-2152000D01*
X660000Y-660000D01*
X2696760Y-660000D01*
X2555024Y-710724D01*
G04 #@! TA.AperFunction,Conductor*
D16*
G36*
X2555024Y-710724D02*
G01*
X2367236Y-832631D01*
X2206839Y-988831D01*
X2079997Y-1173322D01*
X1991585Y-1379013D01*
X1945000Y-1598000D01*
X1945000Y-1898000D01*
X2953000Y-1898000D01*
X2953000Y-1878000D01*
X3207000Y-1878000D01*
X3207000Y-1898000D01*
X4215000Y-1898000D01*
X4215000Y-1598000D01*
X4168415Y-1379013D01*
X4080003Y-1173322D01*
X3953161Y-988831D01*
X3792764Y-832631D01*
X3604976Y-710724D01*
X3463240Y-660000D01*
X11336760Y-660000D01*
X11195024Y-710724D01*
X11007236Y-832631D01*
X10846839Y-988831D01*
X10719997Y-1173322D01*
X10631585Y-1379013D01*
X10585000Y-1598000D01*
X10585000Y-1898000D01*
X11593000Y-1898000D01*
X11593000Y-1878000D01*
X11847000Y-1878000D01*
X11847000Y-1898000D01*
X12855000Y-1898000D01*
X12855000Y-1598000D01*
X12808415Y-1379013D01*
X12720003Y-1173322D01*
X12593161Y-988831D01*
X12432764Y-832631D01*
X12244976Y-710724D01*
X12103240Y-660000D01*
X14340000Y-660000D01*
X14340001Y-24940000D01*
X660000Y-24940000D01*
X660000Y-22435000D01*
X1021928Y-22435000D01*
X1034188Y-22559482D01*
X1070498Y-22679180D01*
X1129463Y-22789494D01*
X1208815Y-22886185D01*
X1305506Y-22965537D01*
X1415820Y-23024502D01*
X1535518Y-23060812D01*
X1660000Y-23073072D01*
X2224250Y-23070000D01*
X2383000Y-22911250D01*
X2383000Y-21587000D01*
X1183750Y-21587000D01*
X1025000Y-21745750D01*
X1021928Y-22435000D01*
X660000Y-22435000D01*
X660000Y-20485000D01*
X1021928Y-20485000D01*
X1025000Y-21174250D01*
X1183750Y-21333000D01*
X2383000Y-21333000D01*
X2383000Y-20008750D01*
X2637000Y-20008750D01*
X2637000Y-21333000D01*
X2657000Y-21333000D01*
X2657000Y-21587000D01*
X2637000Y-21587000D01*
X2637000Y-22911250D01*
X2795750Y-23070000D01*
X3360000Y-23073072D01*
X3484482Y-23060812D01*
X3604180Y-23024502D01*
X3714494Y-22965537D01*
X3811185Y-22886185D01*
X3890537Y-22789494D01*
X3949502Y-22679180D01*
X3960055Y-22644392D01*
X4180987Y-22825706D01*
X4438967Y-22963599D01*
X4718890Y-23048513D01*
X5010000Y-23077185D01*
X5301111Y-23048513D01*
X5581034Y-22963599D01*
X5839014Y-22825706D01*
X6065134Y-22640134D01*
X6250706Y-22414014D01*
X6260000Y-22396626D01*
X6269294Y-22414014D01*
X6454866Y-22640134D01*
X6680987Y-22825706D01*
X6938967Y-22963599D01*
X7218890Y-23048513D01*
X7510000Y-23077185D01*
X7801111Y-23048513D01*
X8081034Y-22963599D01*
X8339014Y-22825706D01*
X8565134Y-22640134D01*
X8750706Y-22414014D01*
X8760000Y-22396626D01*
X8769294Y-22414014D01*
X8954866Y-22640134D01*
X9180987Y-22825706D01*
X9438967Y-22963599D01*
X9718890Y-23048513D01*
X10010000Y-23077185D01*
X10301111Y-23048513D01*
X10581034Y-22963599D01*
X10839014Y-22825706D01*
X11065134Y-22640134D01*
X11250706Y-22414014D01*
X11260000Y-22396626D01*
X11269294Y-22414014D01*
X11454866Y-22640134D01*
X11680987Y-22825706D01*
X11938967Y-22963599D01*
X12218890Y-23048513D01*
X12510000Y-23077185D01*
X12801111Y-23048513D01*
X13081034Y-22963599D01*
X13339014Y-22825706D01*
X13565134Y-22640134D01*
X13750706Y-22414014D01*
X13888599Y-22156033D01*
X13973513Y-21876110D01*
X13995000Y-21657949D01*
X13995000Y-21262050D01*
X13973513Y-21043889D01*
X13888599Y-20763966D01*
X13750706Y-20505986D01*
X13565134Y-20279866D01*
X13339013Y-20094294D01*
X13081033Y-19956401D01*
X12801110Y-19871487D01*
X12510000Y-19842815D01*
X12218889Y-19871487D01*
X11938966Y-19956401D01*
X11680986Y-20094294D01*
X11454866Y-20279866D01*
X11269294Y-20505987D01*
X11260000Y-20523374D01*
X11250706Y-20505986D01*
X11065134Y-20279866D01*
X10839013Y-20094294D01*
X10581033Y-19956401D01*
X10301110Y-19871487D01*
X10010000Y-19842815D01*
X9718889Y-19871487D01*
X9438966Y-19956401D01*
X9180986Y-20094294D01*
X8954866Y-20279866D01*
X8769294Y-20505987D01*
X8760000Y-20523374D01*
X8750706Y-20505986D01*
X8565134Y-20279866D01*
X8500556Y-20226869D01*
X8579774Y-20173937D01*
X8723937Y-20029774D01*
X8837205Y-19860256D01*
X8915226Y-19671898D01*
X8955000Y-19471939D01*
X8955000Y-19268061D01*
X8915226Y-19068102D01*
X8837205Y-18879744D01*
X8723937Y-18710226D01*
X8579774Y-18566063D01*
X8410256Y-18452795D01*
X8221898Y-18374774D01*
X8021939Y-18335000D01*
X7818061Y-18335000D01*
X7618102Y-18374774D01*
X7429744Y-18452795D01*
X7260226Y-18566063D01*
X7216289Y-18610000D01*
X6454802Y-18610000D01*
X5488225Y-17643424D01*
X5577205Y-17510256D01*
X5655226Y-17321898D01*
X5695000Y-17121939D01*
X5695000Y-16918061D01*
X5655226Y-16718102D01*
X5577205Y-16529744D01*
X5463937Y-16360226D01*
X5319774Y-16216063D01*
X5150256Y-16102795D01*
X4961898Y-16024774D01*
X4761939Y-15985000D01*
X4558061Y-15985000D01*
X4358102Y-16024774D01*
X4169744Y-16102795D01*
X4000226Y-16216063D01*
X3856063Y-16360226D01*
X3742795Y-16529744D01*
X3664774Y-16718102D01*
X3625000Y-16918061D01*
X3625000Y-17121939D01*
X3664774Y-17321898D01*
X3742795Y-17510256D01*
X3856063Y-17679774D01*
X3900000Y-17723711D01*
X3900000Y-17852678D01*
X3896324Y-17890000D01*
X3900000Y-17927322D01*
X3900000Y-17927332D01*
X3910997Y-18038985D01*
X3954454Y-18182246D01*
X4025026Y-18314276D01*
X4042034Y-18335000D01*
X4119999Y-18430001D01*
X4149003Y-18453804D01*
X5576201Y-19881003D01*
X5599999Y-19910001D01*
X5628997Y-19933799D01*
X5715723Y-20004974D01*
X5847753Y-20075546D01*
X5991014Y-20119003D01*
X6102667Y-20130000D01*
X6102676Y-20130000D01*
X6139999Y-20133676D01*
X6177322Y-20130000D01*
X6637478Y-20130000D01*
X6454866Y-20279866D01*
X6269294Y-20505987D01*
X6260000Y-20523374D01*
X6250706Y-20505986D01*
X6065134Y-20279866D01*
X5839013Y-20094294D01*
X5581033Y-19956401D01*
X5301110Y-19871487D01*
X5010000Y-19842815D01*
X4718889Y-19871487D01*
X4438966Y-19956401D01*
X4180986Y-20094294D01*
X3960055Y-20275608D01*
X3949502Y-20240820D01*
X3890537Y-20130506D01*
X3811185Y-20033815D01*
X3714494Y-19954463D01*
X3604180Y-19895498D01*
X3484482Y-19859188D01*
X3360000Y-19846928D01*
X2795750Y-19850000D01*
X2637000Y-20008750D01*
X2383000Y-20008750D01*
X2224250Y-19850000D01*
X1660000Y-19846928D01*
X1535518Y-19859188D01*
X1415820Y-19895498D01*
X1305506Y-19954463D01*
X1208815Y-20033815D01*
X1129463Y-20130506D01*
X1070498Y-20240820D01*
X1034188Y-20360518D01*
X1021928Y-20485000D01*
X660000Y-20485000D01*
X660000Y-6332000D01*
X1945000Y-6332000D01*
X1945000Y-6882000D01*
X1991585Y-7100987D01*
X2079997Y-7306678D01*
X2206839Y-7491169D01*
X2367236Y-7647369D01*
X2555024Y-7769276D01*
X2778126Y-7849119D01*
X2953000Y-7722954D01*
X2953000Y-6332000D01*
X1945000Y-6332000D01*
X660000Y-6332000D01*
X660000Y-5528000D01*
X1945000Y-5528000D01*
X1945000Y-6078000D01*
X2953000Y-6078000D01*
X2953000Y-4687046D01*
X3207000Y-4687046D01*
X3207000Y-6078000D01*
X3227000Y-6078000D01*
X3227000Y-6332000D01*
X3207000Y-6332000D01*
X3207000Y-7722954D01*
X3381874Y-7849119D01*
X3604976Y-7769276D01*
X3792764Y-7647369D01*
X3953161Y-7491169D01*
X4080003Y-7306678D01*
X4168415Y-7100987D01*
X4215000Y-6882000D01*
X4215000Y-6621904D01*
X4229978Y-6628108D01*
X4415448Y-6665000D01*
X4604552Y-6665000D01*
X4790022Y-6628108D01*
X4964731Y-6555741D01*
X5121964Y-6450681D01*
X5255681Y-6316964D01*
X5360741Y-6159731D01*
X5433108Y-5985022D01*
X5470000Y-5799552D01*
X5470000Y-5610448D01*
X5451091Y-5515386D01*
X5451898Y-5515226D01*
X5640256Y-5437205D01*
X5809774Y-5323937D01*
X5953937Y-5179774D01*
X6067205Y-5010256D01*
X6145226Y-4821898D01*
X6185000Y-4621939D01*
X6185000Y-4559801D01*
X6504802Y-4240000D01*
X8628429Y-4240000D01*
X8595000Y-4408061D01*
X8595000Y-4611939D01*
X8634774Y-4811898D01*
X8712795Y-5000256D01*
X8826063Y-5169774D01*
X8970226Y-5313937D01*
X9139744Y-5427205D01*
X9328102Y-5505226D01*
X9350061Y-5509594D01*
X9330000Y-5610448D01*
X9330000Y-5799552D01*
X9366892Y-5985022D01*
X9439259Y-6159731D01*
X9544319Y-6316964D01*
X9678036Y-6450681D01*
X9835269Y-6555741D01*
X10009978Y-6628108D01*
X10195448Y-6665000D01*
X10384552Y-6665000D01*
X10570022Y-6628108D01*
X10585000Y-6621904D01*
X10585000Y-6882000D01*
X10631585Y-7100987D01*
X10719997Y-7306678D01*
X10846839Y-7491169D01*
X11007236Y-7647369D01*
X11195024Y-7769276D01*
X11418126Y-7849119D01*
X11593000Y-7722954D01*
X11593000Y-6332000D01*
X11847000Y-6332000D01*
X11847000Y-7722954D01*
X12021874Y-7849119D01*
X12244976Y-7769276D01*
X12432764Y-7647369D01*
X12593161Y-7491169D01*
X12720003Y-7306678D01*
X12808415Y-7100987D01*
X12855000Y-6882000D01*
X12855000Y-6332000D01*
X11847000Y-6332000D01*
X11593000Y-6332000D01*
X11573000Y-6332000D01*
X11573000Y-6078000D01*
X11593000Y-6078000D01*
X11593000Y-4687046D01*
X11847000Y-4687046D01*
X11847000Y-6078000D01*
X12855000Y-6078000D01*
X12855000Y-5528000D01*
X12808415Y-5309013D01*
X12720003Y-5103322D01*
X12593161Y-4918831D01*
X12432764Y-4762631D01*
X12244976Y-4640724D01*
X12021874Y-4560881D01*
X11847000Y-4687046D01*
X11593000Y-4687046D01*
X11418126Y-4560881D01*
X11195024Y-4640724D01*
X11007236Y-4762631D01*
X10846839Y-4918831D01*
X10845117Y-4921335D01*
X10744731Y-4854259D01*
X10626538Y-4805302D01*
X10665000Y-4611939D01*
X10665000Y-4408061D01*
X10625226Y-4208102D01*
X10547205Y-4019744D01*
X10433937Y-3850226D01*
X10384933Y-3801222D01*
X10379003Y-3741014D01*
X10335546Y-3597753D01*
X10272605Y-3480001D01*
X10264974Y-3465724D01*
X10170001Y-3349999D01*
X10140997Y-3326196D01*
X9783804Y-2969003D01*
X9760001Y-2939999D01*
X9644276Y-2845026D01*
X9512247Y-2774454D01*
X9368986Y-2730997D01*
X9257333Y-2720000D01*
X9257322Y-2720000D01*
X9220000Y-2716324D01*
X9182678Y-2720000D01*
X6227322Y-2720000D01*
X6189999Y-2716324D01*
X6152676Y-2720000D01*
X6152667Y-2720000D01*
X6041014Y-2730997D01*
X5897753Y-2774454D01*
X5765723Y-2845026D01*
X5682083Y-2913668D01*
X5649999Y-2939999D01*
X5626201Y-2968997D01*
X5110199Y-3485000D01*
X5048061Y-3485000D01*
X4848102Y-3524774D01*
X4659744Y-3602795D01*
X4490226Y-3716063D01*
X4346063Y-3860226D01*
X4232795Y-4029744D01*
X4154774Y-4218102D01*
X4115000Y-4418061D01*
X4115000Y-4621939D01*
X4153147Y-4813717D01*
X4055269Y-4854259D01*
X3954883Y-4921335D01*
X3953161Y-4918831D01*
X3792764Y-4762631D01*
X3604976Y-4640724D01*
X3381874Y-4560881D01*
X3207000Y-4687046D01*
X2953000Y-4687046D01*
X2778126Y-4560881D01*
X2555024Y-4640724D01*
X2367236Y-4762631D01*
X2206839Y-4918831D01*
X2079997Y-5103322D01*
X1991585Y-5309013D01*
X1945000Y-5528000D01*
X660000Y-5528000D01*
X660000Y-2152000D01*
X1945000Y-2152000D01*
X1945000Y-2452000D01*
X1991585Y-2670987D01*
X2079997Y-2876678D01*
X2206839Y-3061169D01*
X2367236Y-3217369D01*
X2555024Y-3339276D01*
X2778126Y-3419119D01*
X2953000Y-3292954D01*
X2953000Y-2152000D01*
X3207000Y-2152000D01*
X3207000Y-3292954D01*
X3381874Y-3419119D01*
X3604976Y-3339276D01*
X3792764Y-3217369D01*
X3953161Y-3061169D01*
X4080003Y-2876678D01*
X4168415Y-2670987D01*
X4215000Y-2452000D01*
X4215000Y-2152000D01*
X10585000Y-2152000D01*
X10585000Y-2452000D01*
X10631585Y-2670987D01*
X10719997Y-2876678D01*
X10846839Y-3061169D01*
X11007236Y-3217369D01*
X11195024Y-3339276D01*
X11418126Y-3419119D01*
X11593000Y-3292954D01*
X11593000Y-2152000D01*
X11847000Y-2152000D01*
X11847000Y-3292954D01*
X12021874Y-3419119D01*
X12244976Y-3339276D01*
X12432764Y-3217369D01*
X12593161Y-3061169D01*
X12720003Y-2876678D01*
X12808415Y-2670987D01*
X12855000Y-2452000D01*
X12855000Y-2152000D01*
X11847000Y-2152000D01*
X11593000Y-2152000D01*
X10585000Y-2152000D01*
X4215000Y-2152000D01*
X3207000Y-2152000D01*
X2953000Y-2152000D01*
X1945000Y-2152000D01*
X660000Y-2152000D01*
X660000Y-660000D01*
X2696760Y-660000D01*
X2555024Y-710724D01*
G37*
G04 #@! TD.AperFunction*
G04 #@! TD*
M02*
