G04 #@! TF.GenerationSoftware,KiCad,Pcbnew,(5.1.12)-1*
G04 #@! TF.CreationDate,2022-09-04T19:37:19+09:00*
G04 #@! TF.ProjectId,AT,41542e6b-6963-4616-945f-706362585858,rev?*
G04 #@! TF.SameCoordinates,PX791ddc0PY4323800*
G04 #@! TF.FileFunction,Soldermask,Top*
G04 #@! TF.FilePolarity,Negative*
%FSLAX46Y46*%
G04 Gerber Fmt 4.6, Leading zero omitted, Abs format (unit mm)*
G04 Created by KiCad (PCBNEW (5.1.12)-1) date 2022-09-04 19:37:19*
%MOMM*%
%LPD*%
G01*
G04 APERTURE LIST*
%ADD10O,1.900000X2.150000*%
%ADD11C,0.850000*%
%ADD12O,1.200000X1.800000*%
%ADD13O,1.200000X2.300000*%
G04 APERTURE END LIST*
G04 #@! TO.C,U1*
G36*
G01*
X6550000Y-9370000D02*
X6550000Y-9070000D01*
G75*
G02*
X6650000Y-8970000I100000J0D01*
G01*
X8050000Y-8970000D01*
G75*
G02*
X8150000Y-9070000I0J-100000D01*
G01*
X8150000Y-9370000D01*
G75*
G02*
X8050000Y-9470000I-100000J0D01*
G01*
X6650000Y-9470000D01*
G75*
G02*
X6550000Y-9370000I0J100000D01*
G01*
G37*
G36*
G01*
X6550000Y-9870000D02*
X6550000Y-9570000D01*
G75*
G02*
X6650000Y-9470000I100000J0D01*
G01*
X8050000Y-9470000D01*
G75*
G02*
X8150000Y-9570000I0J-100000D01*
G01*
X8150000Y-9870000D01*
G75*
G02*
X8050000Y-9970000I-100000J0D01*
G01*
X6650000Y-9970000D01*
G75*
G02*
X6550000Y-9870000I0J100000D01*
G01*
G37*
G36*
G01*
X6550000Y-10370000D02*
X6550000Y-10070000D01*
G75*
G02*
X6650000Y-9970000I100000J0D01*
G01*
X8050000Y-9970000D01*
G75*
G02*
X8150000Y-10070000I0J-100000D01*
G01*
X8150000Y-10370000D01*
G75*
G02*
X8050000Y-10470000I-100000J0D01*
G01*
X6650000Y-10470000D01*
G75*
G02*
X6550000Y-10370000I0J100000D01*
G01*
G37*
G36*
G01*
X6550000Y-10870000D02*
X6550000Y-10570000D01*
G75*
G02*
X6650000Y-10470000I100000J0D01*
G01*
X8050000Y-10470000D01*
G75*
G02*
X8150000Y-10570000I0J-100000D01*
G01*
X8150000Y-10870000D01*
G75*
G02*
X8050000Y-10970000I-100000J0D01*
G01*
X6650000Y-10970000D01*
G75*
G02*
X6550000Y-10870000I0J100000D01*
G01*
G37*
G36*
G01*
X6550000Y-11370000D02*
X6550000Y-11070000D01*
G75*
G02*
X6650000Y-10970000I100000J0D01*
G01*
X8050000Y-10970000D01*
G75*
G02*
X8150000Y-11070000I0J-100000D01*
G01*
X8150000Y-11370000D01*
G75*
G02*
X8050000Y-11470000I-100000J0D01*
G01*
X6650000Y-11470000D01*
G75*
G02*
X6550000Y-11370000I0J100000D01*
G01*
G37*
G36*
G01*
X2150000Y-11370000D02*
X2150000Y-11070000D01*
G75*
G02*
X2250000Y-10970000I100000J0D01*
G01*
X3650000Y-10970000D01*
G75*
G02*
X3750000Y-11070000I0J-100000D01*
G01*
X3750000Y-11370000D01*
G75*
G02*
X3650000Y-11470000I-100000J0D01*
G01*
X2250000Y-11470000D01*
G75*
G02*
X2150000Y-11370000I0J100000D01*
G01*
G37*
G36*
G01*
X2150000Y-10870000D02*
X2150000Y-10570000D01*
G75*
G02*
X2250000Y-10470000I100000J0D01*
G01*
X3650000Y-10470000D01*
G75*
G02*
X3750000Y-10570000I0J-100000D01*
G01*
X3750000Y-10870000D01*
G75*
G02*
X3650000Y-10970000I-100000J0D01*
G01*
X2250000Y-10970000D01*
G75*
G02*
X2150000Y-10870000I0J100000D01*
G01*
G37*
G36*
G01*
X2150000Y-10370000D02*
X2150000Y-10070000D01*
G75*
G02*
X2250000Y-9970000I100000J0D01*
G01*
X3650000Y-9970000D01*
G75*
G02*
X3750000Y-10070000I0J-100000D01*
G01*
X3750000Y-10370000D01*
G75*
G02*
X3650000Y-10470000I-100000J0D01*
G01*
X2250000Y-10470000D01*
G75*
G02*
X2150000Y-10370000I0J100000D01*
G01*
G37*
G36*
G01*
X2150000Y-9870000D02*
X2150000Y-9570000D01*
G75*
G02*
X2250000Y-9470000I100000J0D01*
G01*
X3650000Y-9470000D01*
G75*
G02*
X3750000Y-9570000I0J-100000D01*
G01*
X3750000Y-9870000D01*
G75*
G02*
X3650000Y-9970000I-100000J0D01*
G01*
X2250000Y-9970000D01*
G75*
G02*
X2150000Y-9870000I0J100000D01*
G01*
G37*
G36*
G01*
X2150000Y-9370000D02*
X2150000Y-9070000D01*
G75*
G02*
X2250000Y-8970000I100000J0D01*
G01*
X3650000Y-8970000D01*
G75*
G02*
X3750000Y-9070000I0J-100000D01*
G01*
X3750000Y-9370000D01*
G75*
G02*
X3650000Y-9470000I-100000J0D01*
G01*
X2250000Y-9470000D01*
G75*
G02*
X2150000Y-9370000I0J100000D01*
G01*
G37*
G04 #@! TD*
G04 #@! TO.C,R4*
G36*
G01*
X9215000Y-14110000D02*
X9685000Y-14110000D01*
G75*
G02*
X9870000Y-14295000I0J-185000D01*
G01*
X9870000Y-14665000D01*
G75*
G02*
X9685000Y-14850000I-185000J0D01*
G01*
X9215000Y-14850000D01*
G75*
G02*
X9030000Y-14665000I0J185000D01*
G01*
X9030000Y-14295000D01*
G75*
G02*
X9215000Y-14110000I185000J0D01*
G01*
G37*
G36*
G01*
X9215000Y-13090000D02*
X9685000Y-13090000D01*
G75*
G02*
X9870000Y-13275000I0J-185000D01*
G01*
X9870000Y-13645000D01*
G75*
G02*
X9685000Y-13830000I-185000J0D01*
G01*
X9215000Y-13830000D01*
G75*
G02*
X9030000Y-13645000I0J185000D01*
G01*
X9030000Y-13275000D01*
G75*
G02*
X9215000Y-13090000I185000J0D01*
G01*
G37*
G04 #@! TD*
G04 #@! TO.C,R3*
G36*
G01*
X11715000Y-16215000D02*
X11065000Y-16215000D01*
G75*
G02*
X10815000Y-15965000I0J250000D01*
G01*
X10815000Y-15465000D01*
G75*
G02*
X11065000Y-15215000I250000J0D01*
G01*
X11715000Y-15215000D01*
G75*
G02*
X11965000Y-15465000I0J-250000D01*
G01*
X11965000Y-15965000D01*
G75*
G02*
X11715000Y-16215000I-250000J0D01*
G01*
G37*
G36*
G01*
X11715000Y-17865000D02*
X11065000Y-17865000D01*
G75*
G02*
X10815000Y-17615000I0J250000D01*
G01*
X10815000Y-17115000D01*
G75*
G02*
X11065000Y-16865000I250000J0D01*
G01*
X11715000Y-16865000D01*
G75*
G02*
X11965000Y-17115000I0J-250000D01*
G01*
X11965000Y-17615000D01*
G75*
G02*
X11715000Y-17865000I-250000J0D01*
G01*
G37*
G04 #@! TD*
G04 #@! TO.C,R2*
G36*
G01*
X14050000Y-7025000D02*
X14050000Y-6555000D01*
G75*
G02*
X14235000Y-6370000I185000J0D01*
G01*
X14605000Y-6370000D01*
G75*
G02*
X14790000Y-6555000I0J-185000D01*
G01*
X14790000Y-7025000D01*
G75*
G02*
X14605000Y-7210000I-185000J0D01*
G01*
X14235000Y-7210000D01*
G75*
G02*
X14050000Y-7025000I0J185000D01*
G01*
G37*
G36*
G01*
X13030000Y-7025000D02*
X13030000Y-6555000D01*
G75*
G02*
X13215000Y-6370000I185000J0D01*
G01*
X13585000Y-6370000D01*
G75*
G02*
X13770000Y-6555000I0J-185000D01*
G01*
X13770000Y-7025000D01*
G75*
G02*
X13585000Y-7210000I-185000J0D01*
G01*
X13215000Y-7210000D01*
G75*
G02*
X13030000Y-7025000I0J185000D01*
G01*
G37*
G04 #@! TD*
G04 #@! TO.C,R1*
G36*
G01*
X1295000Y-7050000D02*
X1765000Y-7050000D01*
G75*
G02*
X1950000Y-7235000I0J-185000D01*
G01*
X1950000Y-7605000D01*
G75*
G02*
X1765000Y-7790000I-185000J0D01*
G01*
X1295000Y-7790000D01*
G75*
G02*
X1110000Y-7605000I0J185000D01*
G01*
X1110000Y-7235000D01*
G75*
G02*
X1295000Y-7050000I185000J0D01*
G01*
G37*
G36*
G01*
X1295000Y-6030000D02*
X1765000Y-6030000D01*
G75*
G02*
X1950000Y-6215000I0J-185000D01*
G01*
X1950000Y-6585000D01*
G75*
G02*
X1765000Y-6770000I-185000J0D01*
G01*
X1295000Y-6770000D01*
G75*
G02*
X1110000Y-6585000I0J185000D01*
G01*
X1110000Y-6215000D01*
G75*
G02*
X1295000Y-6030000I185000J0D01*
G01*
G37*
G04 #@! TD*
D10*
G04 #@! TO.C,J2*
X12510000Y-21460000D03*
X10010000Y-21460000D03*
X7510000Y-21460000D03*
X5010000Y-21460000D03*
G36*
G01*
X1560000Y-22255589D02*
X1560000Y-20664411D01*
G75*
G02*
X1839411Y-20385000I279411J0D01*
G01*
X3180589Y-20385000D01*
G75*
G02*
X3460000Y-20664411I0J-279411D01*
G01*
X3460000Y-22255589D01*
G75*
G02*
X3180589Y-22535000I-279411J0D01*
G01*
X1839411Y-22535000D01*
G75*
G02*
X1560000Y-22255589I0J279411D01*
G01*
G37*
G04 #@! TD*
G04 #@! TO.C,J1*
G36*
G01*
X4300000Y-6195000D02*
X4300000Y-7345000D01*
G75*
G02*
X4200000Y-7445000I-100000J0D01*
G01*
X3900000Y-7445000D01*
G75*
G02*
X3800000Y-7345000I0J100000D01*
G01*
X3800000Y-6195000D01*
G75*
G02*
X3900000Y-6095000I100000J0D01*
G01*
X4200000Y-6095000D01*
G75*
G02*
X4300000Y-6195000I0J-100000D01*
G01*
G37*
G36*
G01*
X5100000Y-6195000D02*
X5100000Y-7345000D01*
G75*
G02*
X5000000Y-7445000I-100000J0D01*
G01*
X4700000Y-7445000D01*
G75*
G02*
X4600000Y-7345000I0J100000D01*
G01*
X4600000Y-6195000D01*
G75*
G02*
X4700000Y-6095000I100000J0D01*
G01*
X5000000Y-6095000D01*
G75*
G02*
X5100000Y-6195000I0J-100000D01*
G01*
G37*
G36*
G01*
X9900000Y-6195000D02*
X9900000Y-7345000D01*
G75*
G02*
X9800000Y-7445000I-100000J0D01*
G01*
X9500000Y-7445000D01*
G75*
G02*
X9400000Y-7345000I0J100000D01*
G01*
X9400000Y-6195000D01*
G75*
G02*
X9500000Y-6095000I100000J0D01*
G01*
X9800000Y-6095000D01*
G75*
G02*
X9900000Y-6195000I0J-100000D01*
G01*
G37*
G36*
G01*
X10700000Y-6195000D02*
X10700000Y-7345000D01*
G75*
G02*
X10600000Y-7445000I-100000J0D01*
G01*
X10300000Y-7445000D01*
G75*
G02*
X10200000Y-7345000I0J100000D01*
G01*
X10200000Y-6195000D01*
G75*
G02*
X10300000Y-6095000I100000J0D01*
G01*
X10600000Y-6095000D01*
G75*
G02*
X10700000Y-6195000I0J-100000D01*
G01*
G37*
G36*
G01*
X11000000Y-6195000D02*
X11000000Y-7345000D01*
G75*
G02*
X10900000Y-7445000I-100000J0D01*
G01*
X10600000Y-7445000D01*
G75*
G02*
X10500000Y-7345000I0J100000D01*
G01*
X10500000Y-6195000D01*
G75*
G02*
X10600000Y-6095000I100000J0D01*
G01*
X10900000Y-6095000D01*
G75*
G02*
X11000000Y-6195000I0J-100000D01*
G01*
G37*
G36*
G01*
X10200000Y-6195000D02*
X10200000Y-7345000D01*
G75*
G02*
X10100000Y-7445000I-100000J0D01*
G01*
X9800000Y-7445000D01*
G75*
G02*
X9700000Y-7345000I0J100000D01*
G01*
X9700000Y-6195000D01*
G75*
G02*
X9800000Y-6095000I100000J0D01*
G01*
X10100000Y-6095000D01*
G75*
G02*
X10200000Y-6195000I0J-100000D01*
G01*
G37*
G36*
G01*
X9400000Y-6195000D02*
X9400000Y-7345000D01*
G75*
G02*
X9300000Y-7445000I-100000J0D01*
G01*
X9000000Y-7445000D01*
G75*
G02*
X8900000Y-7345000I0J100000D01*
G01*
X8900000Y-6195000D01*
G75*
G02*
X9000000Y-6095000I100000J0D01*
G01*
X9300000Y-6095000D01*
G75*
G02*
X9400000Y-6195000I0J-100000D01*
G01*
G37*
G36*
G01*
X8900000Y-6195000D02*
X8900000Y-7345000D01*
G75*
G02*
X8800000Y-7445000I-100000J0D01*
G01*
X8500000Y-7445000D01*
G75*
G02*
X8400000Y-7345000I0J100000D01*
G01*
X8400000Y-6195000D01*
G75*
G02*
X8500000Y-6095000I100000J0D01*
G01*
X8800000Y-6095000D01*
G75*
G02*
X8900000Y-6195000I0J-100000D01*
G01*
G37*
G36*
G01*
X8400000Y-6195000D02*
X8400000Y-7345000D01*
G75*
G02*
X8300000Y-7445000I-100000J0D01*
G01*
X8000000Y-7445000D01*
G75*
G02*
X7900000Y-7345000I0J100000D01*
G01*
X7900000Y-6195000D01*
G75*
G02*
X8000000Y-6095000I100000J0D01*
G01*
X8300000Y-6095000D01*
G75*
G02*
X8400000Y-6195000I0J-100000D01*
G01*
G37*
G36*
G01*
X7900000Y-6195000D02*
X7900000Y-7345000D01*
G75*
G02*
X7800000Y-7445000I-100000J0D01*
G01*
X7500000Y-7445000D01*
G75*
G02*
X7400000Y-7345000I0J100000D01*
G01*
X7400000Y-6195000D01*
G75*
G02*
X7500000Y-6095000I100000J0D01*
G01*
X7800000Y-6095000D01*
G75*
G02*
X7900000Y-6195000I0J-100000D01*
G01*
G37*
G36*
G01*
X7400000Y-6195000D02*
X7400000Y-7345000D01*
G75*
G02*
X7300000Y-7445000I-100000J0D01*
G01*
X7000000Y-7445000D01*
G75*
G02*
X6900000Y-7345000I0J100000D01*
G01*
X6900000Y-6195000D01*
G75*
G02*
X7000000Y-6095000I100000J0D01*
G01*
X7300000Y-6095000D01*
G75*
G02*
X7400000Y-6195000I0J-100000D01*
G01*
G37*
G36*
G01*
X6900000Y-6195000D02*
X6900000Y-7345000D01*
G75*
G02*
X6800000Y-7445000I-100000J0D01*
G01*
X6500000Y-7445000D01*
G75*
G02*
X6400000Y-7345000I0J100000D01*
G01*
X6400000Y-6195000D01*
G75*
G02*
X6500000Y-6095000I100000J0D01*
G01*
X6800000Y-6095000D01*
G75*
G02*
X6900000Y-6195000I0J-100000D01*
G01*
G37*
G36*
G01*
X6400000Y-6195000D02*
X6400000Y-7345000D01*
G75*
G02*
X6300000Y-7445000I-100000J0D01*
G01*
X6000000Y-7445000D01*
G75*
G02*
X5900000Y-7345000I0J100000D01*
G01*
X5900000Y-6195000D01*
G75*
G02*
X6000000Y-6095000I100000J0D01*
G01*
X6300000Y-6095000D01*
G75*
G02*
X6400000Y-6195000I0J-100000D01*
G01*
G37*
G36*
G01*
X5900000Y-6195000D02*
X5900000Y-7345000D01*
G75*
G02*
X5800000Y-7445000I-100000J0D01*
G01*
X5500000Y-7445000D01*
G75*
G02*
X5400000Y-7345000I0J100000D01*
G01*
X5400000Y-6195000D01*
G75*
G02*
X5500000Y-6095000I100000J0D01*
G01*
X5800000Y-6095000D01*
G75*
G02*
X5900000Y-6195000I0J-100000D01*
G01*
G37*
G36*
G01*
X5400000Y-6195000D02*
X5400000Y-7345000D01*
G75*
G02*
X5300000Y-7445000I-100000J0D01*
G01*
X5000000Y-7445000D01*
G75*
G02*
X4900000Y-7345000I0J100000D01*
G01*
X4900000Y-6195000D01*
G75*
G02*
X5000000Y-6095000I100000J0D01*
G01*
X5300000Y-6095000D01*
G75*
G02*
X5400000Y-6195000I0J-100000D01*
G01*
G37*
G36*
G01*
X4600000Y-6195000D02*
X4600000Y-7345000D01*
G75*
G02*
X4500000Y-7445000I-100000J0D01*
G01*
X4200000Y-7445000D01*
G75*
G02*
X4100000Y-7345000I0J100000D01*
G01*
X4100000Y-6195000D01*
G75*
G02*
X4200000Y-6095000I100000J0D01*
G01*
X4500000Y-6095000D01*
G75*
G02*
X4600000Y-6195000I0J-100000D01*
G01*
G37*
D11*
X10290000Y-5705000D03*
X4510000Y-5705000D03*
D12*
X3080000Y-2025000D03*
X11720000Y-2025000D03*
D13*
X3080000Y-6205000D03*
X11720000Y-6205000D03*
G04 #@! TD*
G04 #@! TO.C,F1*
G36*
G01*
X13896250Y-9990000D02*
X13283750Y-9990000D01*
G75*
G02*
X13015000Y-9721250I0J268750D01*
G01*
X13015000Y-9183750D01*
G75*
G02*
X13283750Y-8915000I268750J0D01*
G01*
X13896250Y-8915000D01*
G75*
G02*
X14165000Y-9183750I0J-268750D01*
G01*
X14165000Y-9721250D01*
G75*
G02*
X13896250Y-9990000I-268750J0D01*
G01*
G37*
G36*
G01*
X13896250Y-11565000D02*
X13283750Y-11565000D01*
G75*
G02*
X13015000Y-11296250I0J268750D01*
G01*
X13015000Y-10758750D01*
G75*
G02*
X13283750Y-10490000I268750J0D01*
G01*
X13896250Y-10490000D01*
G75*
G02*
X14165000Y-10758750I0J-268750D01*
G01*
X14165000Y-11296250D01*
G75*
G02*
X13896250Y-11565000I-268750J0D01*
G01*
G37*
G04 #@! TD*
G04 #@! TO.C,D2*
G36*
G01*
X9476250Y-16272500D02*
X8863750Y-16272500D01*
G75*
G02*
X8595000Y-16003750I0J268750D01*
G01*
X8595000Y-15466250D01*
G75*
G02*
X8863750Y-15197500I268750J0D01*
G01*
X9476250Y-15197500D01*
G75*
G02*
X9745000Y-15466250I0J-268750D01*
G01*
X9745000Y-16003750D01*
G75*
G02*
X9476250Y-16272500I-268750J0D01*
G01*
G37*
G36*
G01*
X9476250Y-17847500D02*
X8863750Y-17847500D01*
G75*
G02*
X8595000Y-17578750I0J268750D01*
G01*
X8595000Y-17041250D01*
G75*
G02*
X8863750Y-16772500I268750J0D01*
G01*
X9476250Y-16772500D01*
G75*
G02*
X9745000Y-17041250I0J-268750D01*
G01*
X9745000Y-17578750D01*
G75*
G02*
X9476250Y-17847500I-268750J0D01*
G01*
G37*
G04 #@! TD*
G04 #@! TO.C,D1*
G36*
G01*
X7696250Y-16292500D02*
X7083750Y-16292500D01*
G75*
G02*
X6815000Y-16023750I0J268750D01*
G01*
X6815000Y-15486250D01*
G75*
G02*
X7083750Y-15217500I268750J0D01*
G01*
X7696250Y-15217500D01*
G75*
G02*
X7965000Y-15486250I0J-268750D01*
G01*
X7965000Y-16023750D01*
G75*
G02*
X7696250Y-16292500I-268750J0D01*
G01*
G37*
G36*
G01*
X7696250Y-17867500D02*
X7083750Y-17867500D01*
G75*
G02*
X6815000Y-17598750I0J268750D01*
G01*
X6815000Y-17061250D01*
G75*
G02*
X7083750Y-16792500I268750J0D01*
G01*
X7696250Y-16792500D01*
G75*
G02*
X7965000Y-17061250I0J-268750D01*
G01*
X7965000Y-17598750D01*
G75*
G02*
X7696250Y-17867500I-268750J0D01*
G01*
G37*
G04 #@! TD*
G04 #@! TO.C,C3*
G36*
G01*
X10125000Y-9700000D02*
X9075000Y-9700000D01*
G75*
G02*
X8775000Y-9400000I0J300000D01*
G01*
X8775000Y-8800000D01*
G75*
G02*
X9075000Y-8500000I300000J0D01*
G01*
X10125000Y-8500000D01*
G75*
G02*
X10425000Y-8800000I0J-300000D01*
G01*
X10425000Y-9400000D01*
G75*
G02*
X10125000Y-9700000I-300000J0D01*
G01*
G37*
G36*
G01*
X10125000Y-11600000D02*
X9075000Y-11600000D01*
G75*
G02*
X8775000Y-11300000I0J300000D01*
G01*
X8775000Y-10700000D01*
G75*
G02*
X9075000Y-10400000I300000J0D01*
G01*
X10125000Y-10400000D01*
G75*
G02*
X10425000Y-10700000I0J-300000D01*
G01*
X10425000Y-11300000D01*
G75*
G02*
X10125000Y-11600000I-300000J0D01*
G01*
G37*
G04 #@! TD*
G04 #@! TO.C,C2*
G36*
G01*
X11095000Y-10400000D02*
X12145000Y-10400000D01*
G75*
G02*
X12445000Y-10700000I0J-300000D01*
G01*
X12445000Y-11300000D01*
G75*
G02*
X12145000Y-11600000I-300000J0D01*
G01*
X11095000Y-11600000D01*
G75*
G02*
X10795000Y-11300000I0J300000D01*
G01*
X10795000Y-10700000D01*
G75*
G02*
X11095000Y-10400000I300000J0D01*
G01*
G37*
G36*
G01*
X11095000Y-8500000D02*
X12145000Y-8500000D01*
G75*
G02*
X12445000Y-8800000I0J-300000D01*
G01*
X12445000Y-9400000D01*
G75*
G02*
X12145000Y-9700000I-300000J0D01*
G01*
X11095000Y-9700000D01*
G75*
G02*
X10795000Y-9400000I0J300000D01*
G01*
X10795000Y-8800000D01*
G75*
G02*
X11095000Y-8500000I300000J0D01*
G01*
G37*
G04 #@! TD*
G04 #@! TO.C,C1*
G36*
G01*
X13280000Y-13625000D02*
X13880000Y-13625000D01*
G75*
G02*
X14155000Y-13900000I0J-275000D01*
G01*
X14155000Y-14450000D01*
G75*
G02*
X13880000Y-14725000I-275000J0D01*
G01*
X13280000Y-14725000D01*
G75*
G02*
X13005000Y-14450000I0J275000D01*
G01*
X13005000Y-13900000D01*
G75*
G02*
X13280000Y-13625000I275000J0D01*
G01*
G37*
G36*
G01*
X13280000Y-12075000D02*
X13880000Y-12075000D01*
G75*
G02*
X14155000Y-12350000I0J-275000D01*
G01*
X14155000Y-12900000D01*
G75*
G02*
X13880000Y-13175000I-275000J0D01*
G01*
X13280000Y-13175000D01*
G75*
G02*
X13005000Y-12900000I0J275000D01*
G01*
X13005000Y-12350000D01*
G75*
G02*
X13280000Y-12075000I275000J0D01*
G01*
G37*
G04 #@! TD*
M02*
