M48
; DRILL file {KiCad (5.1.12)-1} date 09/04/22 19:37:21
; FORMAT={3:3/ absolute / metric / keep zeros}
; #@! TF.CreationDate,2022-09-04T19:37:21+09:00
; #@! TF.GenerationSoftware,Kicad,Pcbnew,(5.1.12)-1
FMAT,2
METRIC
T1C0.400
T2C0.600
T3C0.950
T4C0.650
%
G90
G05
T1
X001340Y-001480
X001760Y-014120
X004660Y-017020
X005150Y-004520
X005390Y-024240
X007830Y-001310
X007920Y-019370
X009630Y-004510
X011260Y-012210
X012510Y-018870
X013750Y-002120
T3
X002510Y-021460
X005010Y-021460
X007510Y-021460
X010010Y-021460
X012510Y-021460
T4
X004510Y-005705
X010290Y-005705
T2
G00X003080Y-002325
M15
G01X003080Y-001725
M16
G05
G00X003080Y-006755
M15
G01X003080Y-005655
M16
G05
G00X011720Y-002325
M15
G01X011720Y-001725
M16
G05
G00X011720Y-006755
M15
G01X011720Y-005655
M16
G05
T0
M30
