%TF.GenerationSoftware,KiCad,Pcbnew,(6.0.5)*%
%TF.CreationDate,2022-10-17T22:28:47+09:00*%
%TF.ProjectId,kikker_board,6b696b6b-6572-45f6-926f-6172642e6b69,rev?*%
%TF.SameCoordinates,Original*%
%TF.FileFunction,Copper,L1,Top*%
%TF.FilePolarity,Positive*%
%FSLAX46Y46*%
G04 Gerber Fmt 4.6, Leading zero omitted, Abs format (unit mm)*
G04 Created by KiCad (PCBNEW (6.0.5)) date 2022-10-17 22:28:47*
%MOMM*%
%LPD*%
G01*
G04 APERTURE LIST*
G04 Aperture macros list*
%AMRoundRect*
0 Rectangle with rounded corners*
0 $1 Rounding radius*
0 $2 $3 $4 $5 $6 $7 $8 $9 X,Y pos of 4 corners*
0 Add a 4 corners polygon primitive as box body*
4,1,4,$2,$3,$4,$5,$6,$7,$8,$9,$2,$3,0*
0 Add four circle primitives for the rounded corners*
1,1,$1+$1,$2,$3*
1,1,$1+$1,$4,$5*
1,1,$1+$1,$6,$7*
1,1,$1+$1,$8,$9*
0 Add four rect primitives between the rounded corners*
20,1,$1+$1,$2,$3,$4,$5,0*
20,1,$1+$1,$4,$5,$6,$7,0*
20,1,$1+$1,$6,$7,$8,$9,0*
20,1,$1+$1,$8,$9,$2,$3,0*%
%AMHorizOval*
0 Thick line with rounded ends*
0 $1 width*
0 $2 $3 position (X,Y) of the first rounded end (center of the circle)*
0 $4 $5 position (X,Y) of the second rounded end (center of the circle)*
0 Add line between two ends*
20,1,$1,$2,$3,$4,$5,0*
0 Add two circle primitives to create the rounded ends*
1,1,$1,$2,$3*
1,1,$1,$4,$5*%
%AMRotRect*
0 Rectangle, with rotation*
0 The origin of the aperture is its center*
0 $1 length*
0 $2 width*
0 $3 Rotation angle, in degrees counterclockwise*
0 Add horizontal line*
21,1,$1,$2,0,0,$3*%
G04 Aperture macros list end*
%TA.AperFunction,ComponentPad*%
%ADD10C,1.600000*%
%TD*%
%TA.AperFunction,ComponentPad*%
%ADD11C,2.600000*%
%TD*%
%TA.AperFunction,ComponentPad*%
%ADD12C,1.800000*%
%TD*%
%TA.AperFunction,ComponentPad*%
%ADD13C,1.400000*%
%TD*%
%TA.AperFunction,ComponentPad*%
%ADD14O,1.400000X1.400000*%
%TD*%
%TA.AperFunction,ComponentPad*%
%ADD15RoundRect,0.250000X-0.750000X0.600000X-0.750000X-0.600000X0.750000X-0.600000X0.750000X0.600000X0*%
%TD*%
%TA.AperFunction,ComponentPad*%
%ADD16O,2.000000X1.700000*%
%TD*%
%TA.AperFunction,ComponentPad*%
%ADD17RotRect,1.700000X1.700000X300.000000*%
%TD*%
%TA.AperFunction,ComponentPad*%
%ADD18HorizOval,1.700000X0.000000X0.000000X0.000000X0.000000X0*%
%TD*%
%TA.AperFunction,ComponentPad*%
%ADD19RoundRect,0.250000X0.750000X-0.600000X0.750000X0.600000X-0.750000X0.600000X-0.750000X-0.600000X0*%
%TD*%
%TA.AperFunction,ComponentPad*%
%ADD20R,1.700000X1.700000*%
%TD*%
%TA.AperFunction,ComponentPad*%
%ADD21O,1.700000X1.700000*%
%TD*%
%TA.AperFunction,ComponentPad*%
%ADD22RoundRect,0.250000X0.725000X-0.600000X0.725000X0.600000X-0.725000X0.600000X-0.725000X-0.600000X0*%
%TD*%
%TA.AperFunction,ComponentPad*%
%ADD23O,1.950000X1.700000*%
%TD*%
%TA.AperFunction,ViaPad*%
%ADD24C,0.800000*%
%TD*%
%TA.AperFunction,Conductor*%
%ADD25C,0.250000*%
%TD*%
%TA.AperFunction,Conductor*%
%ADD26C,2.000000*%
%TD*%
G04 APERTURE END LIST*
D10*
%TO.P,C1,1*%
%TO.N,GND*%
X138176000Y-85070000D03*
%TO.P,C1,2*%
%TO.N,+5V*%
X138176000Y-82570000D03*
%TD*%
D11*
%TO.P,Q1,1,G*%
%TO.N,Net-(Q1-Pad1)*%
X147320000Y-98440000D03*
%TO.P,Q1,2,D*%
%TO.N,Net-(Q1-Pad2)*%
X152400000Y-98440000D03*
%TO.P,Q1,3,S*%
%TO.N,Net-(J2-Pad1)*%
X157480000Y-98440000D03*
%TD*%
D12*
%TO.P,R3,1*%
%TO.N,Net-(J3-Pad2)*%
X169545000Y-76422500D03*
%TO.P,R3,2*%
%TO.N,Net-(Q1-Pad2)*%
X189865000Y-76422500D03*
%TD*%
D13*
%TO.P,R1,1*%
%TO.N,FET 1*%
X140970000Y-77216000D03*
D14*
%TO.P,R1,2*%
%TO.N,Net-(Q1-Pad1)*%
X140970000Y-82296000D03*
%TD*%
D13*
%TO.P,R2,1*%
%TO.N,Net-(Q1-Pad1)*%
X140970000Y-85246000D03*
D14*
%TO.P,R2,2*%
%TO.N,Net-(J2-Pad1)*%
X140970000Y-90326000D03*
%TD*%
D15*
%TO.P,J3,1,Pin_1*%
%TO.N,Net-(J2-Pad2)*%
X172610000Y-84475000D03*
D16*
%TO.P,J3,2,Pin_2*%
%TO.N,Net-(J3-Pad2)*%
X172610000Y-86975000D03*
%TD*%
D17*
%TO.P,J5,1,Pin_1*%
%TO.N,Brightness*%
X182714183Y-83944500D03*
D18*
%TO.P,J5,2,Pin_2*%
%TO.N,Kathode*%
X180514478Y-85214500D03*
%TD*%
D19*
%TO.P,J1,1,Pin_1*%
%TO.N,FET 1*%
X128270000Y-87590000D03*
D16*
%TO.P,J1,2,Pin_2*%
%TO.N,FET 2*%
X128270000Y-85090000D03*
%TD*%
D20*
%TO.P,J4,1,Pin_1*%
%TO.N,Vout*%
X116332000Y-73152000D03*
D21*
%TO.P,J4,2,Pin_2*%
%TO.N,+5V*%
X116332000Y-75692000D03*
%TO.P,J4,3,Pin_3*%
%TO.N,GND*%
X116332000Y-78232000D03*
%TO.P,J4,4,Pin_4*%
%TO.N,Kathode*%
X116332000Y-80772000D03*
%TD*%
D22*
%TO.P,J6,1,Pin_1*%
%TO.N,GND*%
X121285000Y-81915000D03*
D23*
%TO.P,J6,2,Pin_2*%
%TO.N,+5V*%
X121285000Y-79415000D03*
%TO.P,J6,3,Pin_3*%
%TO.N,Brightness*%
X121285000Y-76915000D03*
%TO.P,J6,4,Pin_4*%
%TO.N,Vout*%
X121285000Y-74415000D03*
%TD*%
D22*
%TO.P,J2,1,Pin_1*%
%TO.N,Net-(J2-Pad1)*%
X128270000Y-79375000D03*
D23*
%TO.P,J2,2,Pin_2*%
%TO.N,Net-(J2-Pad2)*%
X128270000Y-76875000D03*
%TO.P,J2,3,Pin_3*%
%TO.N,FET 2*%
X128270000Y-74375000D03*
%TD*%
D24*
%TO.N,GND*%
X164084000Y-77470000D03*
X163830000Y-87122000D03*
X165862000Y-99060000D03*
X186690000Y-73406000D03*
X143764000Y-73406000D03*
X172720000Y-73406000D03*
X125984000Y-81788000D03*
X176276000Y-80010000D03*
X167132000Y-81534000D03*
X143256000Y-83566000D03*
X160274000Y-99060000D03*
X191262000Y-79502000D03*
X161036000Y-87122000D03*
X123444000Y-80518000D03*
X160782000Y-73660000D03*
X125222000Y-77216000D03*
X167132000Y-87122000D03*
X167132000Y-73406000D03*
X186436000Y-82042000D03*
X188468000Y-79502000D03*
X162052000Y-92202000D03*
X191262000Y-72898000D03*
X164084000Y-95758000D03*
X130810000Y-78994000D03*
X172466000Y-79756000D03*
X113538000Y-72898000D03*
X183642000Y-79502000D03*
X161036000Y-81534000D03*
X168148000Y-92202000D03*
X118364000Y-80264000D03*
X113538000Y-79248000D03*
%TD*%
D25*
%TO.N,+5V*%
X142748000Y-75438000D02*
X142748000Y-77998000D01*
X125984000Y-74716000D02*
X125984000Y-73152000D01*
X121285000Y-79415000D02*
X125984000Y-74716000D01*
X126746000Y-72390000D02*
X139700000Y-72390000D01*
X125984000Y-73152000D02*
X126746000Y-72390000D01*
X116332000Y-75692000D02*
X120055000Y-79415000D01*
X139700000Y-72390000D02*
X142748000Y-75438000D01*
X120055000Y-79415000D02*
X121285000Y-79415000D01*
X142748000Y-77998000D02*
X138176000Y-82570000D01*
D26*
%TO.N,FET 1*%
X134105131Y-85858869D02*
X134105131Y-82289131D01*
X139178263Y-77216000D02*
X134105131Y-82289131D01*
X140970000Y-77216000D02*
X139178263Y-77216000D01*
X132334000Y-87630000D02*
X134105131Y-85858869D01*
X128818458Y-87590000D02*
X128270000Y-87590000D01*
X128858458Y-87630000D02*
X132334000Y-87630000D01*
X128818458Y-87590000D02*
X128858458Y-87630000D01*
%TO.N,FET 2*%
X132287000Y-74375000D02*
X133565836Y-75653836D01*
X131826000Y-83566000D02*
X130302000Y-85090000D01*
X128270000Y-74375000D02*
X132287000Y-74375000D01*
X131826000Y-81457672D02*
X131826000Y-83566000D01*
X133565836Y-75653836D02*
X133565836Y-79717836D01*
X130302000Y-85090000D02*
X128270000Y-85090000D01*
X133565836Y-79717836D02*
X131826000Y-81457672D01*
%TO.N,Net-(J3-Pad2)*%
X169545000Y-86610000D02*
X169545000Y-76422500D01*
X169910000Y-86975000D02*
X169545000Y-86610000D01*
X172610000Y-86975000D02*
X169910000Y-86975000D01*
D25*
%TO.N,Vout*%
X116332000Y-73152000D02*
X120022000Y-73152000D01*
X120022000Y-73152000D02*
X121285000Y-74415000D01*
D26*
%TO.N,Net-(Q1-Pad1)*%
X140970000Y-85246000D02*
X143169520Y-87445520D01*
X143169520Y-87445520D02*
X143169520Y-94289520D01*
X140970000Y-85246000D02*
X140970000Y-82296000D01*
X143169520Y-94289520D02*
X147320000Y-98440000D01*
%TO.N,Net-(Q1-Pad2)*%
X175260000Y-84328000D02*
X175260000Y-88392000D01*
X175260000Y-88392000D02*
X173990000Y-89662000D01*
X183165500Y-76422500D02*
X175260000Y-84328000D01*
X189865000Y-76422500D02*
X183165500Y-76422500D01*
X173990000Y-89662000D02*
X161178000Y-89662000D01*
X161178000Y-89662000D02*
X152400000Y-98440000D01*
%TD*%
%TA.AperFunction,Conductor*%
%TO.N,GND*%
G36*
X192348722Y-72028476D02*
G01*
X193977397Y-72028476D01*
X193996788Y-72029977D01*
X194020480Y-72033667D01*
X194029384Y-72032503D01*
X194029387Y-72032503D01*
X194035737Y-72031673D01*
X194061061Y-72030931D01*
X194230027Y-72043022D01*
X194247821Y-72045581D01*
X194438145Y-72086989D01*
X194455393Y-72092054D01*
X194637896Y-72160129D01*
X194654242Y-72167595D01*
X194712737Y-72199537D01*
X194825193Y-72260946D01*
X194840316Y-72270665D01*
X194996245Y-72387396D01*
X195009829Y-72399168D01*
X195027679Y-72417018D01*
X195147557Y-72536900D01*
X195159329Y-72550486D01*
X195276054Y-72706414D01*
X195285773Y-72721537D01*
X195379119Y-72892490D01*
X195386586Y-72908842D01*
X195454658Y-73091347D01*
X195459722Y-73108593D01*
X195498911Y-73288735D01*
X195501125Y-73298914D01*
X195503683Y-73316704D01*
X195504722Y-73331220D01*
X195515279Y-73478810D01*
X195514571Y-73495858D01*
X195514576Y-73495858D01*
X195514467Y-73504833D01*
X195513085Y-73513706D01*
X195515321Y-73530801D01*
X195517212Y-73545263D01*
X195518276Y-73561602D01*
X195518276Y-74403019D01*
X195498274Y-74471140D01*
X195444618Y-74517633D01*
X195374344Y-74527737D01*
X195309764Y-74498243D01*
X195280310Y-74460809D01*
X195250754Y-74403545D01*
X195250754Y-74403544D01*
X195248789Y-74399738D01*
X195238816Y-74385547D01*
X195147692Y-74255891D01*
X195091321Y-74175683D01*
X195021242Y-74100269D01*
X194907822Y-73978214D01*
X194907819Y-73978211D01*
X194904901Y-73975071D01*
X194901586Y-73972357D01*
X194901582Y-73972354D01*
X194707798Y-73813744D01*
X194692981Y-73801616D01*
X194459480Y-73658527D01*
X194455544Y-73656799D01*
X194212649Y-73550175D01*
X194212645Y-73550174D01*
X194208721Y-73548451D01*
X193945342Y-73473426D01*
X193941100Y-73472822D01*
X193941094Y-73472821D01*
X193693302Y-73437555D01*
X193674219Y-73434839D01*
X193530365Y-73434086D01*
X193404653Y-73433428D01*
X193404647Y-73433428D01*
X193400367Y-73433406D01*
X193396123Y-73433965D01*
X193396119Y-73433965D01*
X193297641Y-73446930D01*
X193128854Y-73469151D01*
X193124714Y-73470284D01*
X193124712Y-73470284D01*
X193081465Y-73482115D01*
X192864704Y-73541414D01*
X192860756Y-73543098D01*
X192616758Y-73647172D01*
X192616754Y-73647174D01*
X192612806Y-73648858D01*
X192570304Y-73674295D01*
X192381501Y-73787290D01*
X192381497Y-73787293D01*
X192377819Y-73789494D01*
X192164094Y-73960720D01*
X192082486Y-74046717D01*
X192010830Y-74122227D01*
X191975584Y-74159368D01*
X191815778Y-74381762D01*
X191687633Y-74623787D01*
X191686161Y-74627810D01*
X191686159Y-74627814D01*
X191601089Y-74860277D01*
X191593519Y-74880963D01*
X191535180Y-75148533D01*
X191534844Y-75152803D01*
X191514841Y-75406964D01*
X191513693Y-75421544D01*
X191514110Y-75428782D01*
X191529458Y-75694946D01*
X191582181Y-75963679D01*
X191583568Y-75967729D01*
X191583569Y-75967734D01*
X191665000Y-76205573D01*
X191670888Y-76222770D01*
X191711851Y-76304217D01*
X191780643Y-76440994D01*
X191793936Y-76467425D01*
X191796362Y-76470954D01*
X191796365Y-76470960D01*
X191900329Y-76622227D01*
X191949050Y-76693116D01*
X191951937Y-76696289D01*
X191951938Y-76696290D01*
X192097358Y-76856105D01*
X192133358Y-76895669D01*
X192136653Y-76898424D01*
X192136654Y-76898425D01*
X192179076Y-76933895D01*
X192343451Y-77071333D01*
X192347092Y-77073617D01*
X192571800Y-77214577D01*
X192571804Y-77214579D01*
X192575440Y-77216860D01*
X192691659Y-77269335D01*
X192821121Y-77327790D01*
X192821125Y-77327792D01*
X192825033Y-77329556D01*
X192850957Y-77337235D01*
X193083499Y-77406117D01*
X193083503Y-77406118D01*
X193087612Y-77407335D01*
X193091846Y-77407983D01*
X193091851Y-77407984D01*
X193354074Y-77448109D01*
X193354076Y-77448109D01*
X193358316Y-77448758D01*
X193497688Y-77450948D01*
X193627847Y-77452993D01*
X193627853Y-77452993D01*
X193632138Y-77453060D01*
X193904011Y-77420160D01*
X194168903Y-77350667D01*
X194172863Y-77349027D01*
X194172868Y-77349025D01*
X194315057Y-77290128D01*
X194421912Y-77245867D01*
X194631511Y-77123387D01*
X194654655Y-77109863D01*
X194654656Y-77109862D01*
X194658358Y-77107699D01*
X194873865Y-76938720D01*
X194880210Y-76932173D01*
X195037787Y-76769566D01*
X195064445Y-76742057D01*
X195066978Y-76738609D01*
X195066982Y-76738604D01*
X195216637Y-76534873D01*
X195226571Y-76521349D01*
X195247280Y-76483209D01*
X195281545Y-76420100D01*
X195331628Y-76369778D01*
X195400966Y-76354522D01*
X195467545Y-76379175D01*
X195510227Y-76435909D01*
X195518276Y-76480222D01*
X195518276Y-77315914D01*
X195516776Y-77335298D01*
X195514639Y-77349025D01*
X195513085Y-77359005D01*
X195515005Y-77373689D01*
X195515717Y-77399433D01*
X195514112Y-77420859D01*
X195502325Y-77578164D01*
X195499518Y-77596786D01*
X195454117Y-77795706D01*
X195448569Y-77813695D01*
X195374025Y-78003634D01*
X195365858Y-78020593D01*
X195263840Y-78197296D01*
X195253231Y-78212856D01*
X195126018Y-78372377D01*
X195113211Y-78386181D01*
X194998089Y-78492998D01*
X194963636Y-78524966D01*
X194948921Y-78536701D01*
X194806709Y-78633658D01*
X194791537Y-78641629D01*
X194791568Y-78641685D01*
X194783739Y-78646078D01*
X194775368Y-78649317D01*
X194768242Y-78654776D01*
X194768239Y-78654777D01*
X194750091Y-78668677D01*
X194736474Y-78677767D01*
X188389987Y-82341913D01*
X184572613Y-84545875D01*
X184543871Y-84562469D01*
X184474876Y-84579207D01*
X184407784Y-84555987D01*
X184363897Y-84500179D01*
X184357148Y-84429504D01*
X184365016Y-84403816D01*
X184367999Y-84396840D01*
X184368001Y-84396834D01*
X184371528Y-84388584D01*
X184374853Y-84360911D01*
X184387830Y-84252881D01*
X184388901Y-84243967D01*
X184381396Y-84198873D01*
X184366284Y-84108076D01*
X184366283Y-84108073D01*
X184364987Y-84100286D01*
X184339746Y-84043057D01*
X183441612Y-82487443D01*
X183404671Y-82436969D01*
X183398568Y-82431947D01*
X183398566Y-82431945D01*
X183299129Y-82350123D01*
X183299130Y-82350123D01*
X183292196Y-82344418D01*
X183283945Y-82340890D01*
X183283943Y-82340889D01*
X183216132Y-82311896D01*
X183158267Y-82287155D01*
X183149358Y-82286085D01*
X183149355Y-82286084D01*
X183057905Y-82275098D01*
X183013650Y-82269782D01*
X183004794Y-82271256D01*
X183004792Y-82271256D01*
X182877759Y-82292399D01*
X182877756Y-82292400D01*
X182869969Y-82293696D01*
X182812740Y-82318937D01*
X181257126Y-83217071D01*
X181206652Y-83254012D01*
X181201630Y-83260115D01*
X181201628Y-83260117D01*
X181157467Y-83313785D01*
X181114101Y-83366487D01*
X181110573Y-83374738D01*
X181110572Y-83374740D01*
X181095587Y-83409789D01*
X181056838Y-83500416D01*
X181055768Y-83509325D01*
X181055767Y-83509328D01*
X181048202Y-83572301D01*
X181039465Y-83645033D01*
X181040939Y-83653889D01*
X181040939Y-83653891D01*
X181059940Y-83768051D01*
X181051394Y-83838532D01*
X181006099Y-83893203D01*
X180938438Y-83914707D01*
X180893591Y-83907511D01*
X180867569Y-83898296D01*
X180867561Y-83898294D01*
X180862690Y-83896569D01*
X180857597Y-83895662D01*
X180857594Y-83895661D01*
X180647851Y-83858300D01*
X180647845Y-83858299D01*
X180642762Y-83857394D01*
X180568930Y-83856492D01*
X180424559Y-83854728D01*
X180424557Y-83854728D01*
X180419389Y-83854665D01*
X180198569Y-83888455D01*
X179986234Y-83957857D01*
X179959214Y-83971923D01*
X179822567Y-84043057D01*
X179788085Y-84061007D01*
X179783952Y-84064110D01*
X179783949Y-84064112D01*
X179613578Y-84192030D01*
X179609443Y-84195135D01*
X179605871Y-84198873D01*
X179462891Y-84348493D01*
X179455107Y-84356638D01*
X179329221Y-84541180D01*
X179292096Y-84621159D01*
X179252965Y-84705461D01*
X179235166Y-84743805D01*
X179175467Y-84959070D01*
X179151729Y-85181195D01*
X179152026Y-85186348D01*
X179152026Y-85186351D01*
X179164284Y-85398946D01*
X179164588Y-85404215D01*
X179165725Y-85409261D01*
X179165726Y-85409267D01*
X179178727Y-85466955D01*
X179213700Y-85622139D01*
X179297744Y-85829116D01*
X179310737Y-85850319D01*
X179409718Y-86011841D01*
X179414465Y-86019588D01*
X179560728Y-86188438D01*
X179732604Y-86331132D01*
X179925478Y-86443838D01*
X180134170Y-86523530D01*
X180139238Y-86524561D01*
X180139241Y-86524562D01*
X180246857Y-86546457D01*
X180353075Y-86568067D01*
X180358250Y-86568257D01*
X180358252Y-86568257D01*
X180571148Y-86576064D01*
X180571154Y-86576064D01*
X180576315Y-86576253D01*
X180581325Y-86575611D01*
X180650249Y-86592495D01*
X180699128Y-86643986D01*
X180712408Y-86713730D01*
X180685875Y-86779582D01*
X180650006Y-86810592D01*
X176890072Y-88981391D01*
X176821077Y-88998129D01*
X176753985Y-88974909D01*
X176710098Y-88919101D01*
X176704203Y-88844359D01*
X176711435Y-88812529D01*
X176715163Y-88799441D01*
X176725862Y-88768369D01*
X176739243Y-88690900D01*
X176740526Y-88684482D01*
X176741249Y-88681302D01*
X176757935Y-88607856D01*
X176759999Y-88575047D01*
X176761585Y-88561547D01*
X176767179Y-88529164D01*
X176767689Y-88517938D01*
X176768436Y-88501494D01*
X176768436Y-88501475D01*
X176768500Y-88500075D01*
X176768500Y-88443893D01*
X176768749Y-88435981D01*
X176772860Y-88370642D01*
X176773178Y-88365588D01*
X176769101Y-88324009D01*
X176768500Y-88311713D01*
X176768500Y-85005031D01*
X176788502Y-84936910D01*
X176805405Y-84915936D01*
X183753437Y-77967905D01*
X183815749Y-77933879D01*
X183842532Y-77931000D01*
X189926001Y-77931000D01*
X189928509Y-77930798D01*
X189928514Y-77930798D01*
X190101924Y-77916846D01*
X190101929Y-77916845D01*
X190106965Y-77916440D01*
X190111873Y-77915234D01*
X190111876Y-77915234D01*
X190337792Y-77859744D01*
X190342706Y-77858537D01*
X190347358Y-77856562D01*
X190347362Y-77856561D01*
X190531440Y-77778424D01*
X190566156Y-77763688D01*
X190714080Y-77670535D01*
X190767288Y-77637028D01*
X190767291Y-77637026D01*
X190771567Y-77634333D01*
X190851772Y-77563623D01*
X190949858Y-77477150D01*
X190949861Y-77477147D01*
X190953655Y-77473802D01*
X190970748Y-77452993D01*
X191104526Y-77290128D01*
X191104528Y-77290125D01*
X191107734Y-77286222D01*
X191213179Y-77105050D01*
X191227299Y-77080790D01*
X191227300Y-77080788D01*
X191229841Y-77076422D01*
X191242068Y-77044570D01*
X191315020Y-76854522D01*
X191315021Y-76854518D01*
X191316833Y-76849798D01*
X191317868Y-76844845D01*
X191365440Y-76617131D01*
X191365440Y-76617127D01*
X191366474Y-76612180D01*
X191377486Y-76369683D01*
X191376905Y-76364659D01*
X191350167Y-76133571D01*
X191350166Y-76133567D01*
X191349585Y-76128544D01*
X191345081Y-76112625D01*
X191284866Y-75899831D01*
X191283490Y-75894968D01*
X191281356Y-75890392D01*
X191281354Y-75890386D01*
X191183038Y-75679546D01*
X191183036Y-75679542D01*
X191180901Y-75674964D01*
X191174832Y-75666033D01*
X191075731Y-75520212D01*
X191044456Y-75474193D01*
X190877668Y-75297819D01*
X190853589Y-75279409D01*
X190688846Y-75153453D01*
X190688842Y-75153450D01*
X190684826Y-75150380D01*
X190595445Y-75102454D01*
X190504080Y-75053465D01*
X190470891Y-75035669D01*
X190241369Y-74956638D01*
X190124184Y-74936397D01*
X190006074Y-74915996D01*
X190006068Y-74915995D01*
X190002164Y-74915321D01*
X189998203Y-74915141D01*
X189998202Y-74915141D01*
X189974494Y-74914064D01*
X189974475Y-74914064D01*
X189973075Y-74914000D01*
X183189502Y-74914000D01*
X183185983Y-74913951D01*
X183091350Y-74911307D01*
X183091347Y-74911307D01*
X183086295Y-74911166D01*
X183008402Y-74921559D01*
X183001861Y-74922258D01*
X182973168Y-74924567D01*
X182928577Y-74928154D01*
X182928573Y-74928155D01*
X182923535Y-74928560D01*
X182891622Y-74936399D01*
X182878242Y-74938926D01*
X182845680Y-74943271D01*
X182840839Y-74944732D01*
X182840837Y-74944733D01*
X182770471Y-74965978D01*
X182764110Y-74967719D01*
X182687794Y-74986463D01*
X182683134Y-74988441D01*
X182657549Y-74999301D01*
X182644739Y-75003938D01*
X182613292Y-75013433D01*
X182608744Y-75015651D01*
X182608737Y-75015654D01*
X182542682Y-75047871D01*
X182536680Y-75050607D01*
X182503256Y-75064795D01*
X182464344Y-75081312D01*
X182443223Y-75094613D01*
X182436544Y-75098819D01*
X182424640Y-75105445D01*
X182395112Y-75119846D01*
X182390975Y-75122765D01*
X182390974Y-75122765D01*
X182380175Y-75130383D01*
X182335899Y-75161617D01*
X182330903Y-75165141D01*
X182325414Y-75168801D01*
X182272342Y-75202223D01*
X182258933Y-75210667D01*
X182255144Y-75214008D01*
X182255138Y-75214012D01*
X182234283Y-75232398D01*
X182223588Y-75240844D01*
X182196753Y-75259774D01*
X182175250Y-75279409D01*
X182135534Y-75319125D01*
X182129764Y-75324544D01*
X182080642Y-75367850D01*
X182080639Y-75367853D01*
X182076845Y-75371198D01*
X182073635Y-75375106D01*
X182073634Y-75375107D01*
X182050321Y-75403489D01*
X182042051Y-75412608D01*
X174210334Y-83244325D01*
X174207812Y-83246779D01*
X174146576Y-83304687D01*
X174135319Y-83315332D01*
X174132252Y-83319343D01*
X174132247Y-83319349D01*
X174109119Y-83349600D01*
X174051855Y-83391568D01*
X173980991Y-83395915D01*
X173920004Y-83362245D01*
X173838483Y-83280866D01*
X173833303Y-83275695D01*
X173827072Y-83271854D01*
X173688968Y-83186725D01*
X173688966Y-83186724D01*
X173682738Y-83182885D01*
X173522254Y-83129655D01*
X173521389Y-83129368D01*
X173521387Y-83129368D01*
X173514861Y-83127203D01*
X173508025Y-83126503D01*
X173508022Y-83126502D01*
X173464969Y-83122091D01*
X173410400Y-83116500D01*
X171809600Y-83116500D01*
X171806354Y-83116837D01*
X171806350Y-83116837D01*
X171710692Y-83126762D01*
X171710688Y-83126763D01*
X171703834Y-83127474D01*
X171697298Y-83129655D01*
X171697296Y-83129655D01*
X171565194Y-83173728D01*
X171536054Y-83183450D01*
X171385652Y-83276522D01*
X171380479Y-83281704D01*
X171268673Y-83393705D01*
X171206390Y-83427784D01*
X171135570Y-83422781D01*
X171078698Y-83380284D01*
X171053829Y-83313785D01*
X171053500Y-83304687D01*
X171053500Y-76361499D01*
X171052939Y-76354522D01*
X171039346Y-76185576D01*
X171039345Y-76185571D01*
X171038940Y-76180535D01*
X171026867Y-76131380D01*
X170982244Y-75949708D01*
X170981037Y-75944794D01*
X170977965Y-75937555D01*
X170903406Y-75761908D01*
X170886188Y-75721344D01*
X170796981Y-75579686D01*
X170759528Y-75520212D01*
X170759526Y-75520209D01*
X170756833Y-75515933D01*
X170691923Y-75442306D01*
X170599650Y-75337642D01*
X170599647Y-75337639D01*
X170596302Y-75333845D01*
X170582007Y-75322103D01*
X170412628Y-75182974D01*
X170412625Y-75182972D01*
X170408722Y-75179766D01*
X170256759Y-75091321D01*
X170203290Y-75060201D01*
X170203288Y-75060200D01*
X170198922Y-75057659D01*
X170173423Y-75047871D01*
X169977022Y-74972480D01*
X169977018Y-74972479D01*
X169972298Y-74970667D01*
X169967348Y-74969633D01*
X169967345Y-74969632D01*
X169739631Y-74922060D01*
X169739627Y-74922060D01*
X169734680Y-74921026D01*
X169492183Y-74910014D01*
X169487163Y-74910595D01*
X169487159Y-74910595D01*
X169256071Y-74937333D01*
X169256067Y-74937334D01*
X169251044Y-74937915D01*
X169246180Y-74939291D01*
X169246177Y-74939292D01*
X169145718Y-74967719D01*
X169017468Y-75004010D01*
X169012892Y-75006144D01*
X169012886Y-75006146D01*
X168802046Y-75104462D01*
X168802042Y-75104464D01*
X168797464Y-75106599D01*
X168793283Y-75109440D01*
X168793282Y-75109441D01*
X168734760Y-75149213D01*
X168596693Y-75243044D01*
X168420319Y-75409832D01*
X168417241Y-75413858D01*
X168417240Y-75413859D01*
X168275953Y-75598654D01*
X168275950Y-75598658D01*
X168272880Y-75602674D01*
X168270490Y-75607132D01*
X168270489Y-75607133D01*
X168212620Y-75715058D01*
X168158169Y-75816609D01*
X168079138Y-76046131D01*
X168067653Y-76112625D01*
X168041469Y-76264217D01*
X168037821Y-76285336D01*
X168037641Y-76289297D01*
X168037641Y-76289298D01*
X168036655Y-76311020D01*
X168036500Y-76314425D01*
X168036500Y-86585984D01*
X168036451Y-86589502D01*
X168033960Y-86678695D01*
X168033666Y-86689205D01*
X168041647Y-86749015D01*
X168044058Y-86767086D01*
X168044759Y-86773647D01*
X168048706Y-86822702D01*
X168051060Y-86851965D01*
X168058897Y-86883870D01*
X168061426Y-86897258D01*
X168065771Y-86929820D01*
X168067232Y-86934661D01*
X168067233Y-86934663D01*
X168088478Y-87005029D01*
X168090219Y-87011390D01*
X168108963Y-87087706D01*
X168110941Y-87092366D01*
X168121801Y-87117951D01*
X168126438Y-87130761D01*
X168135933Y-87162208D01*
X168138151Y-87166756D01*
X168138154Y-87166763D01*
X168170371Y-87232818D01*
X168173107Y-87238820D01*
X168203812Y-87311156D01*
X168206504Y-87315430D01*
X168221319Y-87338956D01*
X168227945Y-87350860D01*
X168242346Y-87380388D01*
X168245265Y-87384525D01*
X168245265Y-87384526D01*
X168287641Y-87444597D01*
X168291301Y-87450086D01*
X168330471Y-87512286D01*
X168333167Y-87516567D01*
X168336508Y-87520356D01*
X168336512Y-87520362D01*
X168354898Y-87541217D01*
X168363344Y-87551912D01*
X168382274Y-87578747D01*
X168401909Y-87600250D01*
X168441625Y-87639966D01*
X168447044Y-87645736D01*
X168490350Y-87694858D01*
X168490353Y-87694861D01*
X168493698Y-87698655D01*
X168497606Y-87701865D01*
X168497607Y-87701866D01*
X168525989Y-87725179D01*
X168535108Y-87733449D01*
X168740064Y-87938405D01*
X168774090Y-88000717D01*
X168769025Y-88071532D01*
X168726478Y-88128368D01*
X168659958Y-88153179D01*
X168650969Y-88153500D01*
X161202016Y-88153500D01*
X161198498Y-88153451D01*
X161103850Y-88150807D01*
X161103847Y-88150807D01*
X161098795Y-88150666D01*
X161020902Y-88161059D01*
X161014361Y-88161758D01*
X160985668Y-88164067D01*
X160941077Y-88167654D01*
X160941073Y-88167655D01*
X160936035Y-88168060D01*
X160904122Y-88175899D01*
X160890742Y-88178426D01*
X160858180Y-88182771D01*
X160853339Y-88184232D01*
X160853337Y-88184233D01*
X160782971Y-88205478D01*
X160776610Y-88207219D01*
X160700294Y-88225963D01*
X160695634Y-88227941D01*
X160670049Y-88238801D01*
X160657239Y-88243438D01*
X160625792Y-88252933D01*
X160621244Y-88255151D01*
X160621237Y-88255154D01*
X160555182Y-88287371D01*
X160549180Y-88290107D01*
X160504496Y-88309075D01*
X160476844Y-88320812D01*
X160452532Y-88336123D01*
X160449044Y-88338319D01*
X160437140Y-88344945D01*
X160407612Y-88359346D01*
X160403475Y-88362265D01*
X160403474Y-88362265D01*
X160343403Y-88404641D01*
X160337914Y-88408301D01*
X160281396Y-88443893D01*
X160271433Y-88450167D01*
X160267644Y-88453508D01*
X160267638Y-88453512D01*
X160246783Y-88471898D01*
X160236088Y-88480344D01*
X160209253Y-88499274D01*
X160187750Y-88518909D01*
X160148034Y-88558625D01*
X160142264Y-88564044D01*
X160093142Y-88607350D01*
X160093139Y-88607353D01*
X160089345Y-88610698D01*
X160086135Y-88614606D01*
X160086134Y-88614607D01*
X160062821Y-88642989D01*
X160054551Y-88652108D01*
X152070699Y-96635960D01*
X152016863Y-96667830D01*
X151764874Y-96741278D01*
X151520763Y-96853815D01*
X151516854Y-96856378D01*
X151299881Y-96998631D01*
X151299876Y-96998635D01*
X151295968Y-97001197D01*
X151095426Y-97180188D01*
X150923544Y-97386854D01*
X150784096Y-97616656D01*
X150680148Y-97864545D01*
X150613981Y-98125077D01*
X150587050Y-98392526D01*
X150587274Y-98397192D01*
X150587274Y-98397197D01*
X150589482Y-98443160D01*
X150599947Y-98661019D01*
X150652388Y-98924656D01*
X150743220Y-99177646D01*
X150870450Y-99414431D01*
X150873241Y-99418168D01*
X150873245Y-99418175D01*
X150969421Y-99546969D01*
X151031281Y-99629810D01*
X151034590Y-99633090D01*
X151034595Y-99633096D01*
X151143492Y-99741046D01*
X151222180Y-99819050D01*
X151225942Y-99821808D01*
X151225945Y-99821811D01*
X151227418Y-99822891D01*
X151438954Y-99977995D01*
X151443089Y-99980171D01*
X151443093Y-99980173D01*
X151672698Y-100100975D01*
X151676840Y-100103154D01*
X151930613Y-100191775D01*
X151935206Y-100192647D01*
X152190109Y-100241042D01*
X152190112Y-100241042D01*
X152194698Y-100241913D01*
X152322370Y-100246929D01*
X152458625Y-100252283D01*
X152458630Y-100252283D01*
X152463293Y-100252466D01*
X152567607Y-100241042D01*
X152725844Y-100223713D01*
X152725850Y-100223712D01*
X152730497Y-100223203D01*
X152735021Y-100222012D01*
X152985918Y-100155956D01*
X152985920Y-100155955D01*
X152990441Y-100154765D01*
X152994738Y-100152919D01*
X153233120Y-100050502D01*
X153233122Y-100050501D01*
X153237414Y-100048657D01*
X153399037Y-99948642D01*
X153462017Y-99909669D01*
X153462021Y-99909666D01*
X153465990Y-99907210D01*
X153671149Y-99733530D01*
X153848382Y-99531434D01*
X153851712Y-99526258D01*
X153991269Y-99309291D01*
X153993797Y-99305361D01*
X154104199Y-99060278D01*
X154141209Y-98929051D01*
X154170356Y-98825704D01*
X154202530Y-98770811D01*
X154580815Y-98392526D01*
X155667050Y-98392526D01*
X155667274Y-98397192D01*
X155667274Y-98397197D01*
X155669482Y-98443160D01*
X155679947Y-98661019D01*
X155732388Y-98924656D01*
X155823220Y-99177646D01*
X155950450Y-99414431D01*
X155953241Y-99418168D01*
X155953245Y-99418175D01*
X156049421Y-99546969D01*
X156111281Y-99629810D01*
X156114590Y-99633090D01*
X156114595Y-99633096D01*
X156223492Y-99741046D01*
X156302180Y-99819050D01*
X156305942Y-99821808D01*
X156305945Y-99821811D01*
X156307418Y-99822891D01*
X156518954Y-99977995D01*
X156523089Y-99980171D01*
X156523093Y-99980173D01*
X156752698Y-100100975D01*
X156756840Y-100103154D01*
X157010613Y-100191775D01*
X157015206Y-100192647D01*
X157270109Y-100241042D01*
X157270112Y-100241042D01*
X157274698Y-100241913D01*
X157402370Y-100246929D01*
X157538625Y-100252283D01*
X157538630Y-100252283D01*
X157543293Y-100252466D01*
X157647607Y-100241042D01*
X157805844Y-100223713D01*
X157805850Y-100223712D01*
X157810497Y-100223203D01*
X157815021Y-100222012D01*
X158065918Y-100155956D01*
X158065920Y-100155955D01*
X158070441Y-100154765D01*
X158074738Y-100152919D01*
X158313120Y-100050502D01*
X158313122Y-100050501D01*
X158317414Y-100048657D01*
X158479037Y-99948642D01*
X158542017Y-99909669D01*
X158542021Y-99909666D01*
X158545990Y-99907210D01*
X158751149Y-99733530D01*
X158928382Y-99531434D01*
X158931712Y-99526258D01*
X159071269Y-99309291D01*
X159073797Y-99305361D01*
X159184199Y-99060278D01*
X159221209Y-98929051D01*
X159255893Y-98806072D01*
X159255894Y-98806069D01*
X159257163Y-98801568D01*
X159275043Y-98661019D01*
X159290688Y-98538045D01*
X159290688Y-98538041D01*
X159291086Y-98534915D01*
X159293571Y-98440000D01*
X159273650Y-98171937D01*
X159214327Y-97909763D01*
X159116902Y-97659238D01*
X158983518Y-97425864D01*
X158817105Y-97214769D01*
X158621317Y-97030591D01*
X158400457Y-96877374D01*
X158396264Y-96875306D01*
X158163564Y-96760551D01*
X158163561Y-96760550D01*
X158159376Y-96758486D01*
X158111745Y-96743239D01*
X158057621Y-96725914D01*
X157903370Y-96676538D01*
X157898763Y-96675788D01*
X157898760Y-96675787D01*
X157642674Y-96634081D01*
X157642675Y-96634081D01*
X157638063Y-96633330D01*
X157507719Y-96631624D01*
X157373961Y-96629873D01*
X157373958Y-96629873D01*
X157369284Y-96629812D01*
X157102937Y-96666060D01*
X157098451Y-96667368D01*
X157098449Y-96667368D01*
X157069565Y-96675787D01*
X156844874Y-96741278D01*
X156600763Y-96853815D01*
X156596854Y-96856378D01*
X156379881Y-96998631D01*
X156379876Y-96998635D01*
X156375968Y-97001197D01*
X156175426Y-97180188D01*
X156003544Y-97386854D01*
X155864096Y-97616656D01*
X155760148Y-97864545D01*
X155693981Y-98125077D01*
X155667050Y-98392526D01*
X154580815Y-98392526D01*
X161765936Y-91207405D01*
X161828248Y-91173379D01*
X161855031Y-91170500D01*
X173965984Y-91170500D01*
X173969502Y-91170549D01*
X174064150Y-91173193D01*
X174064153Y-91173193D01*
X174069205Y-91173334D01*
X174147098Y-91162941D01*
X174153639Y-91162242D01*
X174182332Y-91159933D01*
X174226923Y-91156346D01*
X174226927Y-91156345D01*
X174231965Y-91155940D01*
X174263878Y-91148101D01*
X174277258Y-91145574D01*
X174309820Y-91141229D01*
X174314661Y-91139768D01*
X174314663Y-91139767D01*
X174385029Y-91118522D01*
X174391392Y-91116781D01*
X174467706Y-91098037D01*
X174497952Y-91085199D01*
X174510763Y-91080561D01*
X174537362Y-91072530D01*
X174542208Y-91071067D01*
X174546756Y-91068849D01*
X174546763Y-91068846D01*
X174612818Y-91036629D01*
X174618820Y-91033893D01*
X174673393Y-91010728D01*
X174691156Y-91003188D01*
X174718956Y-90985681D01*
X174730868Y-90979052D01*
X174747177Y-90971098D01*
X174817172Y-90959215D01*
X174882480Y-90987060D01*
X174922366Y-91045794D01*
X174926495Y-91106225D01*
X174892578Y-91298570D01*
X174878566Y-91539116D01*
X174877538Y-91556756D01*
X174876006Y-91570324D01*
X174874760Y-91577729D01*
X174874607Y-91590281D01*
X174875297Y-91595097D01*
X174878564Y-91617913D01*
X174879836Y-91635774D01*
X174879836Y-93272239D01*
X174859834Y-93340360D01*
X174806178Y-93386853D01*
X174735904Y-93396957D01*
X174671324Y-93367463D01*
X174641870Y-93330029D01*
X174612315Y-93272767D01*
X174612315Y-93272766D01*
X174610350Y-93268960D01*
X174600377Y-93254769D01*
X174455345Y-93048410D01*
X174452882Y-93044905D01*
X174266462Y-92844293D01*
X174263147Y-92841579D01*
X174263143Y-92841576D01*
X174057860Y-92673554D01*
X174054542Y-92670838D01*
X173821041Y-92527749D01*
X173817105Y-92526021D01*
X173574210Y-92419397D01*
X173574206Y-92419396D01*
X173570282Y-92417673D01*
X173306903Y-92342648D01*
X173302661Y-92342044D01*
X173302655Y-92342043D01*
X173102171Y-92313510D01*
X173035780Y-92304061D01*
X172891926Y-92303308D01*
X172766214Y-92302650D01*
X172766208Y-92302650D01*
X172761928Y-92302628D01*
X172757684Y-92303187D01*
X172757680Y-92303187D01*
X172638639Y-92318859D01*
X172490415Y-92338373D01*
X172486275Y-92339506D01*
X172486273Y-92339506D01*
X172466779Y-92344839D01*
X172226265Y-92410636D01*
X172222317Y-92412320D01*
X171978319Y-92516394D01*
X171978315Y-92516396D01*
X171974367Y-92518080D01*
X171855751Y-92589070D01*
X171743062Y-92656512D01*
X171743058Y-92656515D01*
X171739380Y-92658716D01*
X171525655Y-92829942D01*
X171337145Y-93028590D01*
X171177339Y-93250984D01*
X171049194Y-93493009D01*
X171047722Y-93497032D01*
X171047720Y-93497036D01*
X170956551Y-93746165D01*
X170955080Y-93750185D01*
X170896741Y-94017755D01*
X170875254Y-94290766D01*
X170875671Y-94298004D01*
X170891019Y-94564168D01*
X170943742Y-94832901D01*
X170945129Y-94836951D01*
X170945130Y-94836956D01*
X171011356Y-95030386D01*
X171032449Y-95091992D01*
X171061575Y-95149902D01*
X171131696Y-95289323D01*
X171155497Y-95336647D01*
X171157923Y-95340176D01*
X171157926Y-95340182D01*
X171202268Y-95404699D01*
X171310611Y-95562338D01*
X171494919Y-95764891D01*
X171705012Y-95940555D01*
X171708653Y-95942839D01*
X171933361Y-96083799D01*
X171933365Y-96083801D01*
X171937001Y-96086082D01*
X172061798Y-96142430D01*
X172182682Y-96197012D01*
X172182686Y-96197014D01*
X172186594Y-96198778D01*
X172190714Y-96199998D01*
X172190713Y-96199998D01*
X172445060Y-96275339D01*
X172445064Y-96275340D01*
X172449173Y-96276557D01*
X172453407Y-96277205D01*
X172453412Y-96277206D01*
X172715635Y-96317331D01*
X172715637Y-96317331D01*
X172719877Y-96317980D01*
X172859249Y-96320170D01*
X172989408Y-96322215D01*
X172989414Y-96322215D01*
X172993699Y-96322282D01*
X173265572Y-96289382D01*
X173530464Y-96219889D01*
X173534424Y-96218249D01*
X173534429Y-96218247D01*
X173656968Y-96167489D01*
X173783473Y-96115089D01*
X174019919Y-95976921D01*
X174235426Y-95807942D01*
X174277146Y-95764891D01*
X174359396Y-95680015D01*
X174426006Y-95611279D01*
X174428539Y-95607831D01*
X174428543Y-95607826D01*
X174585594Y-95394026D01*
X174588132Y-95390571D01*
X174594863Y-95378175D01*
X174610462Y-95349445D01*
X174643106Y-95289322D01*
X174693187Y-95239002D01*
X174762525Y-95223745D01*
X174829105Y-95248397D01*
X174871786Y-95305132D01*
X174879836Y-95349445D01*
X174879837Y-98436924D01*
X174879837Y-99470614D01*
X174878337Y-99489998D01*
X174874646Y-99513705D01*
X174876641Y-99528957D01*
X174877384Y-99554284D01*
X174865301Y-99723258D01*
X174862744Y-99741046D01*
X174827257Y-99904192D01*
X174821340Y-99931392D01*
X174816277Y-99948637D01*
X174758072Y-100104697D01*
X174748208Y-100131145D01*
X174740740Y-100147497D01*
X174647407Y-100318431D01*
X174647393Y-100318456D01*
X174637674Y-100333580D01*
X174520943Y-100489518D01*
X174509171Y-100503104D01*
X174371440Y-100640840D01*
X174357856Y-100652611D01*
X174310778Y-100687855D01*
X174201921Y-100769347D01*
X174186797Y-100779067D01*
X174015839Y-100872420D01*
X173999487Y-100879888D01*
X173816981Y-100947963D01*
X173799731Y-100953028D01*
X173704567Y-100973731D01*
X173609399Y-100994435D01*
X173591609Y-100996994D01*
X173521564Y-101002005D01*
X173430000Y-101008556D01*
X173410685Y-101007753D01*
X173403474Y-101007665D01*
X173394603Y-101006284D01*
X173366718Y-101009931D01*
X173363047Y-101010411D01*
X173346707Y-101011475D01*
X152351823Y-101011476D01*
X131433657Y-101011476D01*
X131414271Y-101009976D01*
X131399439Y-101007666D01*
X131399436Y-101007666D01*
X131390567Y-101006285D01*
X131375310Y-101008280D01*
X131349990Y-101009023D01*
X131181013Y-100996936D01*
X131163227Y-100994379D01*
X131054827Y-100970797D01*
X130972897Y-100952973D01*
X130955655Y-100947911D01*
X130773140Y-100879835D01*
X130756800Y-100872372D01*
X130585850Y-100779024D01*
X130570726Y-100769305D01*
X130461924Y-100687855D01*
X130414792Y-100652572D01*
X130401207Y-100640799D01*
X130263482Y-100503071D01*
X130251709Y-100489485D01*
X130134984Y-100333555D01*
X130125265Y-100318431D01*
X130031917Y-100147473D01*
X130024449Y-100131120D01*
X129956385Y-99948628D01*
X129951320Y-99931379D01*
X129909918Y-99741046D01*
X129907360Y-99723252D01*
X129900678Y-99629810D01*
X129895773Y-99561221D01*
X129896489Y-99543997D01*
X129896598Y-99535130D01*
X129897979Y-99526258D01*
X129893851Y-99494686D01*
X129892788Y-99478351D01*
X129892788Y-95354320D01*
X129912790Y-95286199D01*
X129966446Y-95239706D01*
X130036720Y-95229602D01*
X130101300Y-95259096D01*
X130131353Y-95297705D01*
X130151448Y-95337661D01*
X130153874Y-95341190D01*
X130153877Y-95341196D01*
X130197522Y-95404699D01*
X130306562Y-95563352D01*
X130490870Y-95765905D01*
X130494165Y-95768660D01*
X130494166Y-95768661D01*
X130545529Y-95811607D01*
X130700963Y-95941569D01*
X130704604Y-95943853D01*
X130929312Y-96084813D01*
X130929316Y-96084815D01*
X130932952Y-96087096D01*
X130998586Y-96116731D01*
X131178633Y-96198026D01*
X131178637Y-96198028D01*
X131182545Y-96199792D01*
X131186665Y-96201012D01*
X131186664Y-96201012D01*
X131441011Y-96276353D01*
X131441015Y-96276354D01*
X131445124Y-96277571D01*
X131449358Y-96278219D01*
X131449363Y-96278220D01*
X131711586Y-96318345D01*
X131711588Y-96318345D01*
X131715828Y-96318994D01*
X131855200Y-96321184D01*
X131985359Y-96323229D01*
X131985365Y-96323229D01*
X131989650Y-96323296D01*
X132261523Y-96290396D01*
X132526415Y-96220903D01*
X132530375Y-96219263D01*
X132530380Y-96219261D01*
X132652919Y-96168503D01*
X132779424Y-96116103D01*
X133015870Y-95977935D01*
X133231377Y-95808956D01*
X133235349Y-95804858D01*
X133418974Y-95615371D01*
X133421957Y-95612293D01*
X133424490Y-95608845D01*
X133424494Y-95608840D01*
X133581545Y-95395040D01*
X133584083Y-95391585D01*
X133586129Y-95387817D01*
X133712706Y-95154692D01*
X133712707Y-95154690D01*
X133714756Y-95150916D01*
X133811557Y-94894739D01*
X133852461Y-94716141D01*
X133871737Y-94631979D01*
X133871738Y-94631975D01*
X133872695Y-94627795D01*
X133875637Y-94594837D01*
X133896819Y-94357489D01*
X133896819Y-94357487D01*
X133897039Y-94355023D01*
X133897481Y-94312862D01*
X133895684Y-94286496D01*
X133879147Y-94043917D01*
X133879146Y-94043911D01*
X133878855Y-94039640D01*
X133875578Y-94023813D01*
X133824189Y-93775671D01*
X133823320Y-93771474D01*
X133731905Y-93513327D01*
X133606301Y-93269974D01*
X133596328Y-93255783D01*
X133451296Y-93049424D01*
X133448833Y-93045919D01*
X133262413Y-92845307D01*
X133259098Y-92842593D01*
X133259094Y-92842590D01*
X133053811Y-92674568D01*
X133050493Y-92671852D01*
X132816992Y-92528763D01*
X132810746Y-92526021D01*
X132570161Y-92420411D01*
X132570157Y-92420410D01*
X132566233Y-92418687D01*
X132302854Y-92343662D01*
X132298612Y-92343058D01*
X132298606Y-92343057D01*
X132098122Y-92314524D01*
X132031731Y-92305075D01*
X131887877Y-92304322D01*
X131762165Y-92303664D01*
X131762159Y-92303664D01*
X131757879Y-92303642D01*
X131753635Y-92304201D01*
X131753631Y-92304201D01*
X131634590Y-92319873D01*
X131486366Y-92339387D01*
X131482226Y-92340520D01*
X131482224Y-92340520D01*
X131409296Y-92360471D01*
X131222216Y-92411650D01*
X131218268Y-92413334D01*
X130974270Y-92517408D01*
X130974266Y-92517410D01*
X130970318Y-92519094D01*
X130950413Y-92531007D01*
X130739013Y-92657526D01*
X130739009Y-92657529D01*
X130735331Y-92659730D01*
X130521606Y-92830956D01*
X130505967Y-92847436D01*
X130337009Y-93025481D01*
X130333096Y-93029604D01*
X130173290Y-93251998D01*
X130171286Y-93255783D01*
X130130143Y-93333489D01*
X130080590Y-93384332D01*
X130011416Y-93400314D01*
X129944582Y-93376360D01*
X129901308Y-93320076D01*
X129892788Y-93274530D01*
X129892788Y-91643414D01*
X129894534Y-91622510D01*
X129897864Y-91602717D01*
X129898017Y-91590165D01*
X129897170Y-91584252D01*
X129896111Y-91573722D01*
X129895839Y-91569043D01*
X129880077Y-91298474D01*
X129846179Y-91106228D01*
X129829976Y-91014333D01*
X129829975Y-91014327D01*
X129829340Y-91010728D01*
X129745543Y-90730818D01*
X129629820Y-90462526D01*
X129483735Y-90209483D01*
X129309263Y-89975107D01*
X129108764Y-89762570D01*
X129057373Y-89719442D01*
X129016777Y-89685375D01*
X128884949Y-89574744D01*
X128881891Y-89572732D01*
X128881885Y-89572728D01*
X128668897Y-89432624D01*
X128657915Y-89424514D01*
X128652125Y-89419732D01*
X128647940Y-89417246D01*
X128647935Y-89417243D01*
X128645518Y-89415808D01*
X128645517Y-89415808D01*
X128641332Y-89413322D01*
X128615422Y-89402931D01*
X128599321Y-89395102D01*
X128529775Y-89354941D01*
X128480786Y-89303554D01*
X128467357Y-89233839D01*
X128493750Y-89167931D01*
X128551585Y-89126754D01*
X128620699Y-89122959D01*
X128630714Y-89125234D01*
X128642603Y-89127935D01*
X128675409Y-89129999D01*
X128688913Y-89131586D01*
X128711141Y-89135425D01*
X128717391Y-89136505D01*
X128717394Y-89136505D01*
X128721294Y-89137179D01*
X128725251Y-89137359D01*
X128725254Y-89137359D01*
X128748964Y-89138436D01*
X128748983Y-89138436D01*
X128750383Y-89138500D01*
X128806566Y-89138500D01*
X128814477Y-89138749D01*
X128884871Y-89143178D01*
X128926451Y-89139101D01*
X128938747Y-89138500D01*
X132309984Y-89138500D01*
X132313502Y-89138549D01*
X132408150Y-89141193D01*
X132408153Y-89141193D01*
X132413205Y-89141334D01*
X132491098Y-89130941D01*
X132497639Y-89130242D01*
X132526332Y-89127933D01*
X132570923Y-89124346D01*
X132570927Y-89124345D01*
X132575965Y-89123940D01*
X132607878Y-89116101D01*
X132621258Y-89113574D01*
X132653820Y-89109229D01*
X132658661Y-89107768D01*
X132658663Y-89107767D01*
X132729029Y-89086522D01*
X132735392Y-89084781D01*
X132811706Y-89066037D01*
X132841952Y-89053199D01*
X132854763Y-89048561D01*
X132881362Y-89040530D01*
X132886208Y-89039067D01*
X132890756Y-89036849D01*
X132890763Y-89036846D01*
X132956818Y-89004629D01*
X132962820Y-89001893D01*
X133011119Y-88981391D01*
X133035156Y-88971188D01*
X133062956Y-88953681D01*
X133074860Y-88947055D01*
X133104388Y-88932654D01*
X133168600Y-88887357D01*
X133174086Y-88883699D01*
X133236286Y-88844529D01*
X133236287Y-88844528D01*
X133240567Y-88841833D01*
X133244356Y-88838492D01*
X133244362Y-88838488D01*
X133265217Y-88820102D01*
X133275912Y-88811656D01*
X133293243Y-88799430D01*
X133302747Y-88792726D01*
X133324250Y-88773091D01*
X133363966Y-88733375D01*
X133369736Y-88727956D01*
X133418858Y-88684650D01*
X133418861Y-88684647D01*
X133422655Y-88681302D01*
X133449179Y-88649011D01*
X133457449Y-88639892D01*
X135154797Y-86942544D01*
X135157319Y-86940090D01*
X135226132Y-86875017D01*
X135229812Y-86871537D01*
X135277549Y-86809100D01*
X135281662Y-86804001D01*
X135332601Y-86744149D01*
X135335220Y-86739824D01*
X135335224Y-86739819D01*
X135349622Y-86716045D01*
X135357294Y-86704798D01*
X135377251Y-86678695D01*
X135414378Y-86609453D01*
X135417641Y-86603732D01*
X135455733Y-86540835D01*
X135455734Y-86540834D01*
X135458351Y-86536512D01*
X135470665Y-86506035D01*
X135476434Y-86493719D01*
X135491962Y-86464760D01*
X135517554Y-86390436D01*
X135519849Y-86384298D01*
X135547389Y-86316136D01*
X135547390Y-86316132D01*
X135549286Y-86311440D01*
X135550696Y-86305236D01*
X135556563Y-86279409D01*
X135560294Y-86266310D01*
X135570993Y-86235238D01*
X135584374Y-86157769D01*
X135584715Y-86156062D01*
X137454493Y-86156062D01*
X137463789Y-86168077D01*
X137514994Y-86203931D01*
X137524489Y-86209414D01*
X137721947Y-86301490D01*
X137732239Y-86305236D01*
X137942688Y-86361625D01*
X137953481Y-86363528D01*
X138170525Y-86382517D01*
X138181475Y-86382517D01*
X138398519Y-86363528D01*
X138409312Y-86361625D01*
X138619761Y-86305236D01*
X138630053Y-86301490D01*
X138827511Y-86209414D01*
X138837006Y-86203931D01*
X138889048Y-86167491D01*
X138897424Y-86157012D01*
X138890356Y-86143566D01*
X138188812Y-85442022D01*
X138174868Y-85434408D01*
X138173035Y-85434539D01*
X138166420Y-85438790D01*
X137460923Y-86144287D01*
X137454493Y-86156062D01*
X135584715Y-86156062D01*
X135585657Y-86151351D01*
X135586103Y-86149391D01*
X135603066Y-86074725D01*
X135605130Y-86041916D01*
X135606716Y-86028416D01*
X135612310Y-85996033D01*
X135612490Y-85992073D01*
X135613567Y-85968363D01*
X135613567Y-85968344D01*
X135613631Y-85966944D01*
X135613631Y-85910762D01*
X135613880Y-85902850D01*
X135617991Y-85837511D01*
X135618309Y-85832457D01*
X135614232Y-85790878D01*
X135613631Y-85778582D01*
X135613631Y-85075475D01*
X136863483Y-85075475D01*
X136882472Y-85292519D01*
X136884375Y-85303312D01*
X136940764Y-85513761D01*
X136944510Y-85524053D01*
X137036586Y-85721511D01*
X137042069Y-85731006D01*
X137078509Y-85783048D01*
X137088988Y-85791424D01*
X137102434Y-85784356D01*
X137803978Y-85082812D01*
X137811592Y-85068868D01*
X137811461Y-85067035D01*
X137807210Y-85060420D01*
X137101713Y-84354923D01*
X137089938Y-84348493D01*
X137077923Y-84357789D01*
X137042069Y-84408994D01*
X137036586Y-84418489D01*
X136944510Y-84615947D01*
X136940764Y-84626239D01*
X136884375Y-84836688D01*
X136882472Y-84847481D01*
X136863483Y-85064525D01*
X136863483Y-85075475D01*
X135613631Y-85075475D01*
X135613631Y-82966162D01*
X135633633Y-82898041D01*
X135650536Y-82877067D01*
X139766199Y-78761405D01*
X139828511Y-78727379D01*
X139855294Y-78724500D01*
X140821405Y-78724500D01*
X140889526Y-78744502D01*
X140936019Y-78798158D01*
X140946123Y-78868432D01*
X140916629Y-78933012D01*
X140910500Y-78939595D01*
X138589247Y-81260848D01*
X138526935Y-81294874D01*
X138467542Y-81293460D01*
X138404087Y-81276457D01*
X138176000Y-81256502D01*
X137947913Y-81276457D01*
X137942600Y-81277881D01*
X137942598Y-81277881D01*
X137732067Y-81334293D01*
X137732065Y-81334294D01*
X137726757Y-81335716D01*
X137721776Y-81338039D01*
X137721775Y-81338039D01*
X137524238Y-81430151D01*
X137524233Y-81430154D01*
X137519251Y-81432477D01*
X137438357Y-81489120D01*
X137336211Y-81560643D01*
X137336208Y-81560645D01*
X137331700Y-81563802D01*
X137169802Y-81725700D01*
X137038477Y-81913251D01*
X137036154Y-81918233D01*
X137036151Y-81918238D01*
X136944039Y-82115775D01*
X136941716Y-82120757D01*
X136940294Y-82126065D01*
X136940293Y-82126067D01*
X136897416Y-82286084D01*
X136882457Y-82341913D01*
X136862502Y-82570000D01*
X136882457Y-82798087D01*
X136883881Y-82803400D01*
X136883881Y-82803402D01*
X136913509Y-82913972D01*
X136941716Y-83019243D01*
X136944039Y-83024224D01*
X136944039Y-83024225D01*
X137036151Y-83221762D01*
X137036154Y-83221767D01*
X137038477Y-83226749D01*
X137100504Y-83315332D01*
X137160246Y-83400652D01*
X137169802Y-83414300D01*
X137331700Y-83576198D01*
X137336208Y-83579355D01*
X137336211Y-83579357D01*
X137361788Y-83597266D01*
X137519251Y-83707523D01*
X137524235Y-83709847D01*
X137526528Y-83711171D01*
X137575521Y-83762553D01*
X137588957Y-83832267D01*
X137562571Y-83898178D01*
X137526528Y-83929409D01*
X137514998Y-83936066D01*
X137462952Y-83972509D01*
X137454576Y-83982988D01*
X137461644Y-83996434D01*
X138163188Y-84697978D01*
X138177132Y-84705592D01*
X138178965Y-84705461D01*
X138185580Y-84701210D01*
X138891077Y-83995713D01*
X138897507Y-83983938D01*
X138888211Y-83971923D01*
X138837002Y-83936066D01*
X138825472Y-83929409D01*
X138776479Y-83878027D01*
X138763042Y-83808313D01*
X138789429Y-83742402D01*
X138825472Y-83711171D01*
X138827765Y-83709847D01*
X138832749Y-83707523D01*
X138990212Y-83597266D01*
X139015789Y-83579357D01*
X139015792Y-83579355D01*
X139020300Y-83576198D01*
X139182198Y-83414300D01*
X139191755Y-83400652D01*
X139232287Y-83342766D01*
X139287744Y-83298438D01*
X139358364Y-83291129D01*
X139421724Y-83323160D01*
X139457709Y-83384361D01*
X139461500Y-83415037D01*
X139461500Y-84245212D01*
X139441498Y-84313333D01*
X139387842Y-84359826D01*
X139317568Y-84369930D01*
X139265814Y-84347524D01*
X139265146Y-84347455D01*
X139249566Y-84355644D01*
X138548022Y-85057188D01*
X138540408Y-85071132D01*
X138540539Y-85072965D01*
X138544790Y-85079580D01*
X139250287Y-85785077D01*
X139262062Y-85791507D01*
X139274077Y-85782211D01*
X139309931Y-85731006D01*
X139314467Y-85723150D01*
X139365849Y-85674156D01*
X139435563Y-85660719D01*
X139501474Y-85687106D01*
X139539571Y-85736917D01*
X139546801Y-85753950D01*
X139551438Y-85766761D01*
X139560933Y-85798208D01*
X139563151Y-85802756D01*
X139563154Y-85802763D01*
X139595371Y-85868818D01*
X139598107Y-85874820D01*
X139628812Y-85947156D01*
X139631504Y-85951430D01*
X139646319Y-85974956D01*
X139652945Y-85986860D01*
X139667346Y-86016388D01*
X139670265Y-86020525D01*
X139670265Y-86020526D01*
X139712641Y-86080597D01*
X139716301Y-86086086D01*
X139758167Y-86152567D01*
X139761508Y-86156356D01*
X139761512Y-86156362D01*
X139779898Y-86177217D01*
X139788344Y-86187912D01*
X139807274Y-86214747D01*
X139809944Y-86217671D01*
X139821438Y-86230258D01*
X139826909Y-86236250D01*
X139866625Y-86275966D01*
X139872044Y-86281736D01*
X139915350Y-86330858D01*
X139915353Y-86330861D01*
X139918698Y-86334655D01*
X139922606Y-86337865D01*
X139922607Y-86337866D01*
X139950989Y-86361179D01*
X139960108Y-86369449D01*
X141624115Y-88033456D01*
X141658141Y-88095768D01*
X141661020Y-88122551D01*
X141661020Y-89117016D01*
X141641018Y-89185137D01*
X141587362Y-89231630D01*
X141517088Y-89241734D01*
X141481772Y-89231212D01*
X141384910Y-89186044D01*
X141379602Y-89184622D01*
X141379600Y-89184621D01*
X141185970Y-89132738D01*
X141185968Y-89132738D01*
X141180655Y-89131314D01*
X140970000Y-89112884D01*
X140759345Y-89131314D01*
X140754032Y-89132738D01*
X140754030Y-89132738D01*
X140560400Y-89184621D01*
X140560398Y-89184622D01*
X140555090Y-89186044D01*
X140550109Y-89188366D01*
X140550108Y-89188367D01*
X140368423Y-89273088D01*
X140368420Y-89273090D01*
X140363442Y-89275411D01*
X140190224Y-89396699D01*
X140040699Y-89546224D01*
X139919411Y-89719442D01*
X139917090Y-89724420D01*
X139917088Y-89724423D01*
X139899300Y-89762570D01*
X139830044Y-89911090D01*
X139775314Y-90115345D01*
X139756884Y-90326000D01*
X139775314Y-90536655D01*
X139776738Y-90541968D01*
X139776738Y-90541970D01*
X139785811Y-90575829D01*
X139830044Y-90740910D01*
X139832366Y-90745891D01*
X139832367Y-90745892D01*
X139912370Y-90917458D01*
X139919411Y-90932558D01*
X140040699Y-91105776D01*
X140190224Y-91255301D01*
X140363442Y-91376589D01*
X140368420Y-91378910D01*
X140368423Y-91378912D01*
X140458229Y-91420789D01*
X140555090Y-91465956D01*
X140560398Y-91467378D01*
X140560400Y-91467379D01*
X140754030Y-91519262D01*
X140754032Y-91519262D01*
X140759345Y-91520686D01*
X140970000Y-91539116D01*
X141180655Y-91520686D01*
X141185968Y-91519262D01*
X141185970Y-91519262D01*
X141379600Y-91467379D01*
X141379602Y-91467378D01*
X141384910Y-91465956D01*
X141481771Y-91420789D01*
X141551961Y-91410128D01*
X141616774Y-91439108D01*
X141655631Y-91498527D01*
X141661020Y-91534984D01*
X141661020Y-94265504D01*
X141660971Y-94269022D01*
X141658186Y-94368725D01*
X141658855Y-94373739D01*
X141668578Y-94446606D01*
X141669278Y-94453159D01*
X141675580Y-94531485D01*
X141683417Y-94563390D01*
X141685946Y-94576778D01*
X141690291Y-94609340D01*
X141691752Y-94614181D01*
X141691753Y-94614183D01*
X141712998Y-94684549D01*
X141714739Y-94690910D01*
X141733483Y-94767226D01*
X141735461Y-94771886D01*
X141746321Y-94797471D01*
X141750958Y-94810281D01*
X141760453Y-94841728D01*
X141762671Y-94846276D01*
X141762674Y-94846283D01*
X141794891Y-94912338D01*
X141797627Y-94918340D01*
X141828332Y-94990676D01*
X141843643Y-95014988D01*
X141845839Y-95018476D01*
X141852465Y-95030380D01*
X141866866Y-95059908D01*
X141892202Y-95095823D01*
X141912161Y-95124117D01*
X141915821Y-95129606D01*
X141929241Y-95150916D01*
X141957687Y-95196087D01*
X141961028Y-95199876D01*
X141961032Y-95199882D01*
X141979418Y-95220737D01*
X141987864Y-95231432D01*
X142006794Y-95258267D01*
X142026429Y-95279770D01*
X142066145Y-95319486D01*
X142071564Y-95325256D01*
X142114870Y-95374378D01*
X142114873Y-95374381D01*
X142118218Y-95378175D01*
X142122126Y-95381385D01*
X142122127Y-95381386D01*
X142150509Y-95404699D01*
X142159628Y-95412969D01*
X145520797Y-98774138D01*
X145555280Y-98838651D01*
X145572388Y-98924656D01*
X145573966Y-98929051D01*
X145573969Y-98929061D01*
X145619464Y-99055775D01*
X145663220Y-99177646D01*
X145790450Y-99414431D01*
X145793241Y-99418168D01*
X145793245Y-99418175D01*
X145889421Y-99546969D01*
X145951281Y-99629810D01*
X145954590Y-99633090D01*
X145954595Y-99633096D01*
X146063492Y-99741046D01*
X146142180Y-99819050D01*
X146145942Y-99821808D01*
X146145945Y-99821811D01*
X146147418Y-99822891D01*
X146358954Y-99977995D01*
X146363089Y-99980171D01*
X146363093Y-99980173D01*
X146592698Y-100100975D01*
X146596840Y-100103154D01*
X146850613Y-100191775D01*
X146855206Y-100192647D01*
X147110109Y-100241042D01*
X147110112Y-100241042D01*
X147114698Y-100241913D01*
X147242370Y-100246929D01*
X147378625Y-100252283D01*
X147378630Y-100252283D01*
X147383293Y-100252466D01*
X147487607Y-100241042D01*
X147645844Y-100223713D01*
X147645850Y-100223712D01*
X147650497Y-100223203D01*
X147655021Y-100222012D01*
X147905918Y-100155956D01*
X147905920Y-100155955D01*
X147910441Y-100154765D01*
X147914738Y-100152919D01*
X148153120Y-100050502D01*
X148153122Y-100050501D01*
X148157414Y-100048657D01*
X148319037Y-99948642D01*
X148382017Y-99909669D01*
X148382021Y-99909666D01*
X148385990Y-99907210D01*
X148591149Y-99733530D01*
X148768382Y-99531434D01*
X148771712Y-99526258D01*
X148911269Y-99309291D01*
X148913797Y-99305361D01*
X149024199Y-99060278D01*
X149061209Y-98929051D01*
X149095893Y-98806072D01*
X149095894Y-98806069D01*
X149097163Y-98801568D01*
X149115043Y-98661019D01*
X149130688Y-98538045D01*
X149130688Y-98538041D01*
X149131086Y-98534915D01*
X149133571Y-98440000D01*
X149113650Y-98171937D01*
X149054327Y-97909763D01*
X148956902Y-97659238D01*
X148823518Y-97425864D01*
X148657105Y-97214769D01*
X148461317Y-97030591D01*
X148240457Y-96877374D01*
X148236264Y-96875306D01*
X148003564Y-96760551D01*
X148003561Y-96760550D01*
X147999376Y-96758486D01*
X147951745Y-96743239D01*
X147871373Y-96717512D01*
X147743370Y-96676538D01*
X147738766Y-96675788D01*
X147738761Y-96675787D01*
X147719582Y-96672664D01*
X147650738Y-96637397D01*
X144714925Y-93701584D01*
X144680899Y-93639272D01*
X144678020Y-93612489D01*
X144678020Y-87469536D01*
X144678069Y-87466018D01*
X144680713Y-87371370D01*
X144680713Y-87371367D01*
X144680854Y-87366315D01*
X144670461Y-87288422D01*
X144669761Y-87281873D01*
X144663866Y-87208597D01*
X144663865Y-87208593D01*
X144663460Y-87203555D01*
X144655621Y-87171642D01*
X144653093Y-87158258D01*
X144652974Y-87157362D01*
X144648749Y-87125700D01*
X144647287Y-87120857D01*
X144626042Y-87050491D01*
X144624301Y-87044128D01*
X144605557Y-86967814D01*
X144592719Y-86937568D01*
X144588081Y-86924757D01*
X144580050Y-86898158D01*
X144578587Y-86893312D01*
X144576369Y-86888764D01*
X144576366Y-86888757D01*
X144544149Y-86822702D01*
X144541413Y-86816700D01*
X144512682Y-86749015D01*
X144510708Y-86744364D01*
X144493201Y-86716564D01*
X144486572Y-86704654D01*
X144481483Y-86694219D01*
X144472174Y-86675132D01*
X144426877Y-86610920D01*
X144423219Y-86605434D01*
X144384049Y-86543234D01*
X144384048Y-86543233D01*
X144381353Y-86538953D01*
X144378012Y-86535164D01*
X144378008Y-86535158D01*
X144359622Y-86514303D01*
X144351176Y-86503608D01*
X144348437Y-86499725D01*
X144332246Y-86476773D01*
X144312611Y-86455270D01*
X144272895Y-86415554D01*
X144267476Y-86409784D01*
X144224170Y-86360662D01*
X144224167Y-86360659D01*
X144220822Y-86356865D01*
X144188531Y-86330341D01*
X144179412Y-86322071D01*
X142515405Y-84658064D01*
X142481379Y-84595752D01*
X142478500Y-84568969D01*
X142478500Y-82234999D01*
X142474713Y-82187925D01*
X142464346Y-82059076D01*
X142464345Y-82059071D01*
X142463940Y-82054035D01*
X142461147Y-82042661D01*
X142407244Y-81823208D01*
X142406037Y-81818294D01*
X142403864Y-81813173D01*
X142313165Y-81599502D01*
X142311188Y-81594844D01*
X142238256Y-81479031D01*
X142184528Y-81393712D01*
X142184526Y-81393709D01*
X142181833Y-81389433D01*
X142083992Y-81278453D01*
X142024650Y-81211142D01*
X142024647Y-81211139D01*
X142021302Y-81207345D01*
X141987572Y-81179639D01*
X141837628Y-81056474D01*
X141837625Y-81056472D01*
X141833722Y-81053266D01*
X141716495Y-80985038D01*
X141628290Y-80933701D01*
X141628288Y-80933700D01*
X141623922Y-80931159D01*
X141610672Y-80926073D01*
X141402022Y-80845980D01*
X141402018Y-80845979D01*
X141397298Y-80844167D01*
X141392348Y-80843133D01*
X141392345Y-80843132D01*
X141164631Y-80795560D01*
X141164627Y-80795560D01*
X141159680Y-80794526D01*
X141146330Y-80793920D01*
X141079187Y-80770850D01*
X141035175Y-80715142D01*
X141028268Y-80644482D01*
X141062949Y-80578955D01*
X143140247Y-78501657D01*
X143148537Y-78494113D01*
X143155018Y-78490000D01*
X143201659Y-78440332D01*
X143204413Y-78437491D01*
X143224134Y-78417770D01*
X143226612Y-78414575D01*
X143234318Y-78405553D01*
X143241270Y-78398150D01*
X143264586Y-78373321D01*
X143274346Y-78355568D01*
X143285199Y-78339045D01*
X143292753Y-78329306D01*
X143297613Y-78323041D01*
X143315176Y-78282457D01*
X143320383Y-78271827D01*
X143341695Y-78233060D01*
X143343666Y-78225383D01*
X143343668Y-78225378D01*
X143346732Y-78213442D01*
X143353138Y-78194730D01*
X143358034Y-78183417D01*
X143361181Y-78176145D01*
X143364899Y-78152675D01*
X143368097Y-78132481D01*
X143370504Y-78120860D01*
X143370725Y-78120000D01*
X150186761Y-78120000D01*
X150187031Y-78124119D01*
X150205094Y-78399695D01*
X150205696Y-78408886D01*
X150206500Y-78412926D01*
X150206500Y-78412929D01*
X150258579Y-78674748D01*
X150262175Y-78692828D01*
X150263501Y-78696734D01*
X150263502Y-78696738D01*
X150329576Y-78891384D01*
X150355234Y-78966970D01*
X150357055Y-78970663D01*
X150357056Y-78970665D01*
X150371745Y-79000451D01*
X150483279Y-79226619D01*
X150644119Y-79467335D01*
X150646831Y-79470427D01*
X150646836Y-79470434D01*
X150774604Y-79616124D01*
X150835004Y-79684996D01*
X150838093Y-79687705D01*
X151049565Y-79873163D01*
X151049571Y-79873168D01*
X151052665Y-79875881D01*
X151293380Y-80036721D01*
X151297079Y-80038545D01*
X151297084Y-80038548D01*
X151549335Y-80162944D01*
X151553030Y-80164766D01*
X151556928Y-80166089D01*
X151556930Y-80166090D01*
X151823262Y-80256498D01*
X151823266Y-80256499D01*
X151827172Y-80257825D01*
X151831216Y-80258629D01*
X151831222Y-80258631D01*
X152107071Y-80313500D01*
X152107074Y-80313500D01*
X152111114Y-80314304D01*
X152115225Y-80314573D01*
X152115229Y-80314574D01*
X152395881Y-80332969D01*
X152400000Y-80333239D01*
X152404119Y-80332969D01*
X152684771Y-80314574D01*
X152684775Y-80314573D01*
X152688886Y-80314304D01*
X152692926Y-80313500D01*
X152692929Y-80313500D01*
X152968778Y-80258631D01*
X152968784Y-80258629D01*
X152972828Y-80257825D01*
X152976734Y-80256499D01*
X152976738Y-80256498D01*
X153243070Y-80166090D01*
X153243072Y-80166089D01*
X153246970Y-80164766D01*
X153250665Y-80162944D01*
X153502916Y-80038548D01*
X153502921Y-80038545D01*
X153506620Y-80036721D01*
X153747335Y-79875881D01*
X153750429Y-79873168D01*
X153750435Y-79873163D01*
X153961907Y-79687705D01*
X153964996Y-79684996D01*
X154025396Y-79616124D01*
X154153164Y-79470434D01*
X154153169Y-79470427D01*
X154155881Y-79467335D01*
X154316721Y-79226619D01*
X154428255Y-79000451D01*
X154442944Y-78970665D01*
X154442945Y-78970663D01*
X154444766Y-78966970D01*
X154470424Y-78891384D01*
X154536498Y-78696738D01*
X154536499Y-78696734D01*
X154537825Y-78692828D01*
X154541422Y-78674748D01*
X154593500Y-78412929D01*
X154593500Y-78412926D01*
X154594304Y-78408886D01*
X154594907Y-78399695D01*
X154612969Y-78124119D01*
X154613239Y-78120000D01*
X154605611Y-78003626D01*
X154594574Y-77835229D01*
X154594573Y-77835225D01*
X154594304Y-77831114D01*
X154591786Y-77818456D01*
X154538631Y-77551222D01*
X154538629Y-77551216D01*
X154537825Y-77547172D01*
X154530565Y-77525783D01*
X154446090Y-77276930D01*
X154446089Y-77276928D01*
X154444766Y-77273030D01*
X154432181Y-77247509D01*
X154350145Y-77081158D01*
X154316721Y-77013381D01*
X154155881Y-76772665D01*
X154153169Y-76769573D01*
X154153164Y-76769566D01*
X153967705Y-76558093D01*
X153964996Y-76555004D01*
X153922324Y-76517581D01*
X153750435Y-76366837D01*
X153750429Y-76366832D01*
X153747335Y-76364119D01*
X153506620Y-76203279D01*
X153502921Y-76201455D01*
X153502916Y-76201452D01*
X153250665Y-76077056D01*
X153250663Y-76077055D01*
X153246970Y-76075234D01*
X153240121Y-76072909D01*
X152976738Y-75983502D01*
X152976734Y-75983501D01*
X152972828Y-75982175D01*
X152968784Y-75981371D01*
X152968778Y-75981369D01*
X152692929Y-75926500D01*
X152692926Y-75926500D01*
X152688886Y-75925696D01*
X152684775Y-75925427D01*
X152684771Y-75925426D01*
X152404119Y-75907031D01*
X152400000Y-75906761D01*
X152395881Y-75907031D01*
X152115229Y-75925426D01*
X152115225Y-75925427D01*
X152111114Y-75925696D01*
X152107074Y-75926500D01*
X152107071Y-75926500D01*
X151831222Y-75981369D01*
X151831216Y-75981371D01*
X151827172Y-75982175D01*
X151823266Y-75983501D01*
X151823262Y-75983502D01*
X151559879Y-76072909D01*
X151553030Y-76075234D01*
X151549337Y-76077055D01*
X151549335Y-76077056D01*
X151406869Y-76147313D01*
X151293381Y-76203279D01*
X151052665Y-76364119D01*
X151049573Y-76366831D01*
X151049566Y-76366836D01*
X150877676Y-76517581D01*
X150835004Y-76555004D01*
X150832295Y-76558093D01*
X150646836Y-76769566D01*
X150646831Y-76769573D01*
X150644119Y-76772665D01*
X150483279Y-77013381D01*
X150449855Y-77081158D01*
X150367820Y-77247509D01*
X150355234Y-77273030D01*
X150353911Y-77276928D01*
X150353910Y-77276930D01*
X150269436Y-77525783D01*
X150262175Y-77547172D01*
X150261371Y-77551216D01*
X150261369Y-77551222D01*
X150208214Y-77818456D01*
X150205696Y-77831114D01*
X150205427Y-77835225D01*
X150205426Y-77835229D01*
X150190840Y-78057769D01*
X150188805Y-78088810D01*
X150186761Y-78120000D01*
X143370725Y-78120000D01*
X143379528Y-78085711D01*
X143379528Y-78085710D01*
X143381500Y-78078030D01*
X143381500Y-78057769D01*
X143383051Y-78038058D01*
X143383498Y-78035240D01*
X143386219Y-78018057D01*
X143382059Y-77974046D01*
X143381500Y-77962189D01*
X143381500Y-75516767D01*
X143382027Y-75505584D01*
X143383702Y-75498091D01*
X143381562Y-75430000D01*
X143381500Y-75426043D01*
X143381500Y-75398144D01*
X143380996Y-75394153D01*
X143380063Y-75382311D01*
X143379990Y-75379966D01*
X143378674Y-75338111D01*
X143376462Y-75330497D01*
X143376461Y-75330492D01*
X143373023Y-75318659D01*
X143369012Y-75299295D01*
X143367467Y-75287064D01*
X143366474Y-75279203D01*
X143363557Y-75271836D01*
X143363556Y-75271831D01*
X143350198Y-75238092D01*
X143346354Y-75226865D01*
X143343374Y-75216610D01*
X143334018Y-75184407D01*
X143326367Y-75171470D01*
X143323707Y-75166972D01*
X143315012Y-75149224D01*
X143307552Y-75130383D01*
X143281564Y-75094613D01*
X143275048Y-75084693D01*
X143256580Y-75053465D01*
X143256578Y-75053462D01*
X143252542Y-75046638D01*
X143238221Y-75032317D01*
X143225380Y-75017283D01*
X143224634Y-75016256D01*
X143213472Y-75000893D01*
X143179395Y-74972702D01*
X143170616Y-74964712D01*
X140449475Y-72243570D01*
X140415449Y-72181258D01*
X140420514Y-72110442D01*
X140463061Y-72053607D01*
X140529581Y-72028796D01*
X140538570Y-72028475D01*
X192348722Y-72028476D01*
G37*
%TD.AperFunction*%
%TA.AperFunction,Conductor*%
G36*
X114928725Y-72048477D02*
G01*
X114975218Y-72102133D01*
X114985322Y-72172407D01*
X114983186Y-72183623D01*
X114983028Y-72184286D01*
X114980255Y-72191684D01*
X114973500Y-72253866D01*
X114973500Y-74050134D01*
X114980255Y-74112316D01*
X115031385Y-74248705D01*
X115118739Y-74365261D01*
X115235295Y-74452615D01*
X115243704Y-74455767D01*
X115243705Y-74455768D01*
X115352451Y-74496535D01*
X115409216Y-74539176D01*
X115433916Y-74605738D01*
X115418709Y-74675087D01*
X115399316Y-74701568D01*
X115294022Y-74811752D01*
X115272629Y-74834138D01*
X115269715Y-74838410D01*
X115269714Y-74838411D01*
X115198108Y-74943381D01*
X115146743Y-75018680D01*
X115106467Y-75105448D01*
X115056192Y-75213757D01*
X115052688Y-75221305D01*
X114992989Y-75436570D01*
X114969251Y-75658695D01*
X114969548Y-75663848D01*
X114969548Y-75663851D01*
X114976243Y-75779963D01*
X114982110Y-75881715D01*
X114983247Y-75886761D01*
X114983248Y-75886767D01*
X114999875Y-75960542D01*
X115031222Y-76099639D01*
X115074454Y-76206107D01*
X115108595Y-76290186D01*
X115115266Y-76306616D01*
X115159730Y-76379175D01*
X115221652Y-76480222D01*
X115231987Y-76497088D01*
X115378250Y-76665938D01*
X115550126Y-76808632D01*
X115620573Y-76849798D01*
X115623955Y-76851774D01*
X115672679Y-76903412D01*
X115685750Y-76973195D01*
X115659019Y-77038967D01*
X115618562Y-77072327D01*
X115610457Y-77076546D01*
X115601738Y-77082036D01*
X115431433Y-77209905D01*
X115423726Y-77216748D01*
X115276590Y-77370717D01*
X115270104Y-77378727D01*
X115150098Y-77554649D01*
X115145000Y-77563623D01*
X115055338Y-77756783D01*
X115051775Y-77766470D01*
X114996389Y-77966183D01*
X114997912Y-77974607D01*
X115010292Y-77978000D01*
X117668459Y-77978000D01*
X117668459Y-77982775D01*
X117705133Y-77982792D01*
X117758672Y-78014576D01*
X118664637Y-78920542D01*
X119551348Y-79807253D01*
X119558888Y-79815539D01*
X119563000Y-79822018D01*
X119568777Y-79827443D01*
X119612651Y-79868643D01*
X119615493Y-79871398D01*
X119635230Y-79891135D01*
X119638427Y-79893615D01*
X119647447Y-79901318D01*
X119679679Y-79931586D01*
X119686625Y-79935405D01*
X119686628Y-79935407D01*
X119697434Y-79941348D01*
X119713953Y-79952199D01*
X119729959Y-79964614D01*
X119737228Y-79967759D01*
X119737232Y-79967762D01*
X119770537Y-79982174D01*
X119781187Y-79987391D01*
X119819940Y-80008695D01*
X119827615Y-80010666D01*
X119827616Y-80010666D01*
X119839562Y-80013733D01*
X119858267Y-80020137D01*
X119876855Y-80028181D01*
X119884681Y-80029421D01*
X119884686Y-80029422D01*
X119892336Y-80030634D01*
X119956488Y-80061049D01*
X119980339Y-80089716D01*
X120025881Y-80164766D01*
X120058377Y-80218317D01*
X120061874Y-80222347D01*
X120194572Y-80375268D01*
X120209477Y-80392445D01*
X120213608Y-80395832D01*
X120245529Y-80422006D01*
X120285524Y-80480666D01*
X120287455Y-80551636D01*
X120250710Y-80612384D01*
X120231941Y-80626584D01*
X120092193Y-80713063D01*
X120080792Y-80722099D01*
X119966261Y-80836829D01*
X119957249Y-80848240D01*
X119872184Y-80986243D01*
X119866037Y-80999424D01*
X119814862Y-81153710D01*
X119811995Y-81167086D01*
X119802328Y-81261438D01*
X119802000Y-81267855D01*
X119802000Y-81642885D01*
X119806475Y-81658124D01*
X119807865Y-81659329D01*
X119815548Y-81661000D01*
X122749884Y-81661000D01*
X122765123Y-81656525D01*
X122766328Y-81655135D01*
X122767999Y-81647452D01*
X122767999Y-81267905D01*
X122767662Y-81261386D01*
X122757743Y-81165794D01*
X122754851Y-81152400D01*
X122703412Y-80998216D01*
X122697239Y-80985038D01*
X122611937Y-80847193D01*
X122602901Y-80835792D01*
X122488171Y-80721261D01*
X122476757Y-80712247D01*
X122337287Y-80626277D01*
X122289793Y-80573505D01*
X122278369Y-80503434D01*
X122306643Y-80438310D01*
X122316430Y-80427847D01*
X122349991Y-80395832D01*
X122431135Y-80318424D01*
X122568754Y-80133458D01*
X122571611Y-80127840D01*
X122622067Y-80028598D01*
X122673240Y-79927949D01*
X122677529Y-79914138D01*
X122740024Y-79712871D01*
X122741607Y-79707773D01*
X122754333Y-79611754D01*
X122771198Y-79484511D01*
X122771198Y-79484506D01*
X122771898Y-79479226D01*
X122768594Y-79391203D01*
X122763449Y-79254173D01*
X122763249Y-79248842D01*
X122750186Y-79186585D01*
X122717004Y-79028435D01*
X122717002Y-79028430D01*
X122715907Y-79023209D01*
X122706920Y-79000451D01*
X122705734Y-78997449D01*
X122699316Y-78926743D01*
X122733831Y-78862073D01*
X126376247Y-75219657D01*
X126384537Y-75212113D01*
X126391018Y-75208000D01*
X126437659Y-75158332D01*
X126440413Y-75155491D01*
X126460135Y-75135769D01*
X126462612Y-75132576D01*
X126470317Y-75123555D01*
X126473800Y-75119846D01*
X126500586Y-75091321D01*
X126504407Y-75084371D01*
X126510346Y-75073568D01*
X126521202Y-75057041D01*
X126528757Y-75047302D01*
X126528758Y-75047300D01*
X126533614Y-75041040D01*
X126551174Y-75000460D01*
X126556391Y-74989812D01*
X126573875Y-74958009D01*
X126573876Y-74958007D01*
X126577695Y-74951060D01*
X126582733Y-74931437D01*
X126589137Y-74912734D01*
X126594033Y-74901420D01*
X126594033Y-74901419D01*
X126597181Y-74894145D01*
X126598421Y-74886319D01*
X126600634Y-74878701D01*
X126602690Y-74879299D01*
X126628365Y-74825147D01*
X126688635Y-74787624D01*
X126759624Y-74788641D01*
X126818794Y-74827877D01*
X126843637Y-74874709D01*
X126851510Y-74902532D01*
X126853644Y-74907108D01*
X126853646Y-74907114D01*
X126951962Y-75117954D01*
X126954099Y-75122536D01*
X126956940Y-75126717D01*
X126956941Y-75126718D01*
X126985541Y-75168801D01*
X127090544Y-75323307D01*
X127257332Y-75499681D01*
X127348805Y-75569617D01*
X127351048Y-75571332D01*
X127393016Y-75628596D01*
X127397361Y-75699460D01*
X127362705Y-75761423D01*
X127344886Y-75775948D01*
X127290681Y-75812441D01*
X127286824Y-75816120D01*
X127286822Y-75816122D01*
X127223481Y-75876547D01*
X127123865Y-75971576D01*
X127120682Y-75975854D01*
X127098065Y-76006252D01*
X126986246Y-76156542D01*
X126983830Y-76161293D01*
X126983828Y-76161297D01*
X126961317Y-76205573D01*
X126881760Y-76362051D01*
X126880178Y-76367145D01*
X126880177Y-76367148D01*
X126839668Y-76497608D01*
X126813393Y-76582227D01*
X126812692Y-76587516D01*
X126783824Y-76805327D01*
X126783102Y-76810774D01*
X126791751Y-77041158D01*
X126792846Y-77046377D01*
X126799025Y-77075827D01*
X126839093Y-77266791D01*
X126841051Y-77271750D01*
X126841052Y-77271752D01*
X126917996Y-77466584D01*
X126923776Y-77481221D01*
X126926543Y-77485780D01*
X126926544Y-77485783D01*
X126988315Y-77587578D01*
X127043377Y-77678317D01*
X127046874Y-77682347D01*
X127179538Y-77835229D01*
X127194477Y-77852445D01*
X127230120Y-77881670D01*
X127270114Y-77940329D01*
X127272046Y-78011299D01*
X127235302Y-78072048D01*
X127216532Y-78086248D01*
X127212392Y-78088810D01*
X127070652Y-78176522D01*
X126945695Y-78301697D01*
X126941855Y-78307927D01*
X126941854Y-78307928D01*
X126905829Y-78366372D01*
X126852885Y-78452262D01*
X126850581Y-78459209D01*
X126822162Y-78544891D01*
X126797203Y-78620139D01*
X126786500Y-78724600D01*
X126786500Y-80025400D01*
X126786837Y-80028646D01*
X126786837Y-80028650D01*
X126796678Y-80123492D01*
X126797474Y-80131166D01*
X126799655Y-80137702D01*
X126799655Y-80137704D01*
X126825029Y-80213757D01*
X126853450Y-80298946D01*
X126946522Y-80449348D01*
X127071697Y-80574305D01*
X127077927Y-80578145D01*
X127077928Y-80578146D01*
X127215090Y-80662694D01*
X127222262Y-80667115D01*
X127302005Y-80693564D01*
X127383611Y-80720632D01*
X127383613Y-80720632D01*
X127390139Y-80722797D01*
X127396975Y-80723497D01*
X127396978Y-80723498D01*
X127440031Y-80727909D01*
X127494600Y-80733500D01*
X129045400Y-80733500D01*
X129048646Y-80733163D01*
X129048650Y-80733163D01*
X129144308Y-80723238D01*
X129144312Y-80723237D01*
X129151166Y-80722526D01*
X129157702Y-80720345D01*
X129157704Y-80720345D01*
X129289806Y-80676272D01*
X129318946Y-80666550D01*
X129469348Y-80573478D01*
X129594305Y-80448303D01*
X129598146Y-80442072D01*
X129683275Y-80303968D01*
X129683276Y-80303966D01*
X129687115Y-80297738D01*
X129714970Y-80213757D01*
X129740632Y-80136389D01*
X129740632Y-80136387D01*
X129742797Y-80129861D01*
X129753500Y-80025400D01*
X129753500Y-78724600D01*
X129750445Y-78695156D01*
X129743238Y-78625692D01*
X129743237Y-78625688D01*
X129742526Y-78618834D01*
X129686550Y-78451054D01*
X129593478Y-78300652D01*
X129468303Y-78175695D01*
X129456336Y-78168318D01*
X129388679Y-78126614D01*
X129322660Y-78085919D01*
X129275168Y-78033148D01*
X129263744Y-77963076D01*
X129292018Y-77897952D01*
X129301805Y-77887490D01*
X129383820Y-77809251D01*
X129416135Y-77778424D01*
X129553754Y-77593458D01*
X129573486Y-77554649D01*
X129615983Y-77471063D01*
X129658240Y-77387949D01*
X129662671Y-77373681D01*
X129725024Y-77172871D01*
X129726607Y-77167773D01*
X129737395Y-77086377D01*
X129756198Y-76944511D01*
X129756198Y-76944506D01*
X129756898Y-76939226D01*
X129756227Y-76921338D01*
X129748449Y-76714173D01*
X129748249Y-76708842D01*
X129700907Y-76483209D01*
X129686778Y-76447433D01*
X129618185Y-76273744D01*
X129618184Y-76273742D01*
X129616224Y-76268779D01*
X129498554Y-76074865D01*
X129480315Y-76006252D01*
X129502066Y-75938670D01*
X129556903Y-75893575D01*
X129606273Y-75883500D01*
X131609968Y-75883500D01*
X131678089Y-75903502D01*
X131699064Y-75920405D01*
X132020432Y-76241774D01*
X132054457Y-76304086D01*
X132057336Y-76330869D01*
X132057336Y-79040805D01*
X132037334Y-79108926D01*
X132020431Y-79129900D01*
X130776334Y-80373997D01*
X130773812Y-80376451D01*
X130708398Y-80438310D01*
X130701319Y-80445004D01*
X130694043Y-80454521D01*
X130653592Y-80507429D01*
X130649448Y-80512564D01*
X130622403Y-80544342D01*
X130598530Y-80572392D01*
X130595911Y-80576717D01*
X130595907Y-80576722D01*
X130581509Y-80600496D01*
X130573837Y-80611743D01*
X130553880Y-80637846D01*
X130551490Y-80642304D01*
X130551489Y-80642305D01*
X130516761Y-80707073D01*
X130513496Y-80712798D01*
X130472779Y-80780030D01*
X130466505Y-80795560D01*
X130460473Y-80810489D01*
X130454693Y-80822830D01*
X130439169Y-80851781D01*
X130437523Y-80856562D01*
X130437521Y-80856566D01*
X130413588Y-80926073D01*
X130411278Y-80932251D01*
X130381845Y-81005101D01*
X130380723Y-81010040D01*
X130374568Y-81037132D01*
X130370837Y-81050231D01*
X130360138Y-81081303D01*
X130346757Y-81158772D01*
X130345477Y-81165176D01*
X130328065Y-81241816D01*
X130326001Y-81274625D01*
X130324415Y-81288125D01*
X130318821Y-81320508D01*
X130317500Y-81349597D01*
X130317500Y-81405780D01*
X130317251Y-81413691D01*
X130312822Y-81484085D01*
X130313316Y-81489120D01*
X130316899Y-81525664D01*
X130317500Y-81537960D01*
X130317500Y-82888969D01*
X130297498Y-82957090D01*
X130280595Y-82978064D01*
X129714064Y-83544595D01*
X129651752Y-83578621D01*
X129624969Y-83581500D01*
X128208999Y-83581500D01*
X128206491Y-83581702D01*
X128206486Y-83581702D01*
X128033076Y-83595654D01*
X128033071Y-83595655D01*
X128028035Y-83596060D01*
X128023127Y-83597266D01*
X128023124Y-83597266D01*
X127864942Y-83636119D01*
X127792294Y-83653963D01*
X127787642Y-83655938D01*
X127787638Y-83655939D01*
X127673545Y-83704369D01*
X127568844Y-83748812D01*
X127564560Y-83751510D01*
X127367712Y-83875472D01*
X127367709Y-83875474D01*
X127363433Y-83878167D01*
X127349941Y-83890062D01*
X127185142Y-84035350D01*
X127185139Y-84035353D01*
X127181345Y-84038698D01*
X127178135Y-84042606D01*
X127178134Y-84042607D01*
X127049777Y-84198873D01*
X127027266Y-84226278D01*
X127024724Y-84230646D01*
X126952393Y-84354923D01*
X126905159Y-84436078D01*
X126903346Y-84440801D01*
X126819982Y-84657972D01*
X126819980Y-84657979D01*
X126818167Y-84662702D01*
X126809235Y-84705461D01*
X126794726Y-84774911D01*
X126791723Y-84786502D01*
X126788393Y-84797227D01*
X126786108Y-84814465D01*
X126784538Y-84823672D01*
X126768526Y-84900320D01*
X126768297Y-84905369D01*
X126768296Y-84905375D01*
X126765540Y-84966072D01*
X126764578Y-84976911D01*
X126758102Y-85025774D01*
X126758302Y-85031104D01*
X126758302Y-85031105D01*
X126760045Y-85077537D01*
X126760004Y-85087978D01*
X126758305Y-85125400D01*
X126757514Y-85142817D01*
X126758095Y-85147838D01*
X126758095Y-85147840D01*
X126764327Y-85201697D01*
X126765073Y-85211451D01*
X126766751Y-85256158D01*
X126767845Y-85261372D01*
X126767846Y-85261380D01*
X126774209Y-85291706D01*
X126776059Y-85303096D01*
X126785415Y-85383956D01*
X126786791Y-85388820D01*
X126786792Y-85388823D01*
X126792577Y-85409267D01*
X126851510Y-85617532D01*
X126853644Y-85622108D01*
X126853646Y-85622114D01*
X126951962Y-85832954D01*
X126954099Y-85837536D01*
X127090544Y-86038307D01*
X127094023Y-86041986D01*
X127094027Y-86041991D01*
X127178440Y-86131255D01*
X127210712Y-86194493D01*
X127203672Y-86265139D01*
X127159555Y-86320765D01*
X127153195Y-86324972D01*
X127093965Y-86361625D01*
X127045652Y-86391522D01*
X126920695Y-86516697D01*
X126916855Y-86522927D01*
X126916854Y-86522928D01*
X126842233Y-86643986D01*
X126827885Y-86667262D01*
X126811532Y-86716564D01*
X126782536Y-86803987D01*
X126772203Y-86835139D01*
X126771503Y-86841975D01*
X126771502Y-86841978D01*
X126770479Y-86851965D01*
X126761500Y-86939600D01*
X126761500Y-87552188D01*
X126761370Y-87557903D01*
X126757514Y-87642817D01*
X126758095Y-87647837D01*
X126758095Y-87647841D01*
X126760665Y-87670050D01*
X126761500Y-87684532D01*
X126761500Y-88115566D01*
X126741498Y-88183687D01*
X126687842Y-88230180D01*
X126617568Y-88240284D01*
X126572491Y-88224680D01*
X116766534Y-82562095D01*
X119802001Y-82562095D01*
X119802338Y-82568614D01*
X119812257Y-82664206D01*
X119815149Y-82677600D01*
X119866588Y-82831784D01*
X119872761Y-82844962D01*
X119958063Y-82982807D01*
X119967099Y-82994208D01*
X120081829Y-83108739D01*
X120093240Y-83117751D01*
X120231243Y-83202816D01*
X120244424Y-83208963D01*
X120398710Y-83260138D01*
X120412086Y-83263005D01*
X120506438Y-83272672D01*
X120512854Y-83273000D01*
X121012885Y-83273000D01*
X121028124Y-83268525D01*
X121029329Y-83267135D01*
X121031000Y-83259452D01*
X121031000Y-83254884D01*
X121539000Y-83254884D01*
X121543475Y-83270123D01*
X121544865Y-83271328D01*
X121552548Y-83272999D01*
X122057095Y-83272999D01*
X122063614Y-83272662D01*
X122159206Y-83262743D01*
X122172600Y-83259851D01*
X122326784Y-83208412D01*
X122339962Y-83202239D01*
X122477807Y-83116937D01*
X122489208Y-83107901D01*
X122603739Y-82993171D01*
X122612751Y-82981760D01*
X122697816Y-82843757D01*
X122703963Y-82830576D01*
X122755138Y-82676290D01*
X122758005Y-82662914D01*
X122767672Y-82568562D01*
X122768000Y-82562146D01*
X122768000Y-82187115D01*
X122763525Y-82171876D01*
X122762135Y-82170671D01*
X122754452Y-82169000D01*
X121557115Y-82169000D01*
X121541876Y-82173475D01*
X121540671Y-82174865D01*
X121539000Y-82182548D01*
X121539000Y-83254884D01*
X121031000Y-83254884D01*
X121031000Y-82187115D01*
X121026525Y-82171876D01*
X121025135Y-82170671D01*
X121017452Y-82169000D01*
X119820116Y-82169000D01*
X119804877Y-82173475D01*
X119803672Y-82174865D01*
X119802001Y-82182548D01*
X119802001Y-82562095D01*
X116766534Y-82562095D01*
X116415024Y-82359111D01*
X116366035Y-82307724D01*
X116352605Y-82238009D01*
X116378997Y-82172101D01*
X116436833Y-82130923D01*
X116462022Y-82125018D01*
X116555845Y-82112999D01*
X116610288Y-82106025D01*
X116610289Y-82106025D01*
X116615416Y-82105368D01*
X116620366Y-82103883D01*
X116824429Y-82042661D01*
X116824434Y-82042659D01*
X116829384Y-82041174D01*
X117029994Y-81942896D01*
X117211860Y-81813173D01*
X117370096Y-81655489D01*
X117500453Y-81474077D01*
X117522163Y-81430151D01*
X117597136Y-81278453D01*
X117597137Y-81278451D01*
X117599430Y-81273811D01*
X117664370Y-81060069D01*
X117693529Y-80838590D01*
X117694216Y-80810489D01*
X117695074Y-80775365D01*
X117695074Y-80775361D01*
X117695156Y-80772000D01*
X117676852Y-80549361D01*
X117622431Y-80332702D01*
X117533354Y-80127840D01*
X117475588Y-80038548D01*
X117414822Y-79944617D01*
X117414820Y-79944614D01*
X117412014Y-79940277D01*
X117261670Y-79775051D01*
X117257619Y-79771852D01*
X117257615Y-79771848D01*
X117090414Y-79639800D01*
X117090410Y-79639798D01*
X117086359Y-79636598D01*
X117044569Y-79613529D01*
X116994598Y-79563097D01*
X116979826Y-79493654D01*
X117004942Y-79427248D01*
X117032294Y-79400641D01*
X117207328Y-79275792D01*
X117215200Y-79269139D01*
X117366052Y-79118812D01*
X117372730Y-79110965D01*
X117497003Y-78938020D01*
X117502313Y-78929183D01*
X117596670Y-78738267D01*
X117600469Y-78728672D01*
X117662377Y-78524910D01*
X117664555Y-78514837D01*
X117665986Y-78503962D01*
X117663775Y-78489778D01*
X117650617Y-78486000D01*
X115015225Y-78486000D01*
X115001694Y-78489973D01*
X115000257Y-78499966D01*
X115030565Y-78634446D01*
X115033645Y-78644275D01*
X115113770Y-78841603D01*
X115118413Y-78850794D01*
X115229694Y-79032388D01*
X115235777Y-79040699D01*
X115375213Y-79201667D01*
X115382580Y-79208883D01*
X115546434Y-79344916D01*
X115554881Y-79350831D01*
X115623969Y-79391203D01*
X115672693Y-79442842D01*
X115685764Y-79512625D01*
X115659033Y-79578396D01*
X115618584Y-79611752D01*
X115605607Y-79618507D01*
X115601474Y-79621610D01*
X115601471Y-79621612D01*
X115431100Y-79749530D01*
X115426965Y-79752635D01*
X115423393Y-79756373D01*
X115314824Y-79869984D01*
X115272629Y-79914138D01*
X115269715Y-79918410D01*
X115269714Y-79918411D01*
X115241509Y-79959758D01*
X115146743Y-80098680D01*
X115099716Y-80199992D01*
X115072497Y-80258631D01*
X115052688Y-80301305D01*
X114992989Y-80516570D01*
X114969251Y-80738695D01*
X114969548Y-80743848D01*
X114969548Y-80743851D01*
X114974849Y-80835792D01*
X114982110Y-80961715D01*
X114983247Y-80966761D01*
X114983248Y-80966767D01*
X114999106Y-81037132D01*
X115031222Y-81179639D01*
X115033164Y-81184421D01*
X115033165Y-81184425D01*
X115094905Y-81336472D01*
X115102001Y-81407113D01*
X115069779Y-81470377D01*
X115008469Y-81506177D01*
X114937537Y-81503147D01*
X114915153Y-81492990D01*
X110070115Y-78695156D01*
X110054079Y-78684163D01*
X110042392Y-78674748D01*
X110042388Y-78674745D01*
X110035396Y-78669113D01*
X110021724Y-78663434D01*
X109999069Y-78651173D01*
X109851005Y-78550207D01*
X109836284Y-78538466D01*
X109828654Y-78531385D01*
X109686736Y-78399685D01*
X109673938Y-78385890D01*
X109647267Y-78352441D01*
X109546745Y-78226374D01*
X109536139Y-78210818D01*
X109518849Y-78180866D01*
X109434137Y-78034122D01*
X109425969Y-78017159D01*
X109424956Y-78014577D01*
X109351442Y-77827241D01*
X109345893Y-77809251D01*
X109335496Y-77763688D01*
X109314973Y-77673757D01*
X109300503Y-77610349D01*
X109297697Y-77591728D01*
X109284830Y-77419964D01*
X109285506Y-77402988D01*
X109285424Y-77402987D01*
X109285534Y-77394019D01*
X109286916Y-77385144D01*
X109285418Y-77373681D01*
X109282788Y-77353569D01*
X109281725Y-77337235D01*
X109281725Y-76497608D01*
X109301727Y-76429487D01*
X109355383Y-76382994D01*
X109425657Y-76372890D01*
X109490237Y-76402384D01*
X109520290Y-76440993D01*
X109540385Y-76480949D01*
X109542811Y-76484478D01*
X109542814Y-76484484D01*
X109683773Y-76689579D01*
X109695499Y-76706640D01*
X109698386Y-76709813D01*
X109698387Y-76709814D01*
X109831049Y-76855608D01*
X109879807Y-76909193D01*
X110089900Y-77084857D01*
X110093541Y-77087141D01*
X110318249Y-77228101D01*
X110318253Y-77228103D01*
X110321889Y-77230384D01*
X110408156Y-77269335D01*
X110567570Y-77341314D01*
X110567574Y-77341316D01*
X110571482Y-77343080D01*
X110625244Y-77359005D01*
X110829948Y-77419641D01*
X110829952Y-77419642D01*
X110834061Y-77420859D01*
X110838295Y-77421507D01*
X110838300Y-77421508D01*
X111100523Y-77461633D01*
X111100525Y-77461633D01*
X111104765Y-77462282D01*
X111244137Y-77464472D01*
X111374296Y-77466517D01*
X111374302Y-77466517D01*
X111378587Y-77466584D01*
X111650460Y-77433684D01*
X111915352Y-77364191D01*
X111919312Y-77362551D01*
X111919317Y-77362549D01*
X112041951Y-77311752D01*
X112168361Y-77259391D01*
X112404807Y-77121223D01*
X112620314Y-76952244D01*
X112632930Y-76939226D01*
X112762687Y-76805327D01*
X112810894Y-76755581D01*
X112813427Y-76752133D01*
X112813431Y-76752128D01*
X112970482Y-76538328D01*
X112973020Y-76534873D01*
X113001071Y-76483209D01*
X113101643Y-76297980D01*
X113101644Y-76297978D01*
X113103693Y-76294204D01*
X113177213Y-76099639D01*
X113198976Y-76042045D01*
X113198977Y-76042041D01*
X113200494Y-76038027D01*
X113236294Y-75881715D01*
X113260674Y-75775267D01*
X113260675Y-75775263D01*
X113261632Y-75771083D01*
X113262513Y-75761219D01*
X113285756Y-75500777D01*
X113285756Y-75500775D01*
X113285976Y-75498311D01*
X113286418Y-75456150D01*
X113285474Y-75442306D01*
X113268084Y-75187205D01*
X113268083Y-75187199D01*
X113267792Y-75182928D01*
X113264867Y-75168801D01*
X113231182Y-75006146D01*
X113212257Y-74914762D01*
X113120842Y-74656615D01*
X113017177Y-74455768D01*
X112997203Y-74417069D01*
X112997203Y-74417068D01*
X112995238Y-74413262D01*
X112986906Y-74401406D01*
X112876014Y-74243623D01*
X112837770Y-74189207D01*
X112688365Y-74028428D01*
X112654271Y-73991738D01*
X112654268Y-73991735D01*
X112651350Y-73988595D01*
X112648035Y-73985881D01*
X112648031Y-73985878D01*
X112442748Y-73817856D01*
X112439430Y-73815140D01*
X112205929Y-73672051D01*
X112201993Y-73670323D01*
X111959098Y-73563699D01*
X111959094Y-73563698D01*
X111955170Y-73561975D01*
X111691791Y-73486950D01*
X111687549Y-73486346D01*
X111687543Y-73486345D01*
X111487059Y-73457812D01*
X111420668Y-73448363D01*
X111276814Y-73447610D01*
X111151102Y-73446952D01*
X111151096Y-73446952D01*
X111146816Y-73446930D01*
X111142572Y-73447489D01*
X111142568Y-73447489D01*
X111023527Y-73463161D01*
X110875303Y-73482675D01*
X110871163Y-73483808D01*
X110871161Y-73483808D01*
X110798233Y-73503759D01*
X110611153Y-73554938D01*
X110607205Y-73556622D01*
X110363207Y-73660696D01*
X110363203Y-73660698D01*
X110359255Y-73662382D01*
X110339350Y-73674295D01*
X110127950Y-73800814D01*
X110127946Y-73800817D01*
X110124268Y-73803018D01*
X109910543Y-73974244D01*
X109799189Y-74091586D01*
X109779518Y-74112316D01*
X109722033Y-74172892D01*
X109562227Y-74395286D01*
X109560223Y-74399071D01*
X109519080Y-74476777D01*
X109469527Y-74527620D01*
X109400353Y-74543602D01*
X109333519Y-74519648D01*
X109290245Y-74463364D01*
X109281725Y-74417818D01*
X109281725Y-73582800D01*
X109283225Y-73563417D01*
X109283337Y-73562695D01*
X109286916Y-73539709D01*
X109285752Y-73530809D01*
X109285752Y-73530801D01*
X109284913Y-73524389D01*
X109284166Y-73499113D01*
X109296106Y-73331220D01*
X109298638Y-73313516D01*
X109299892Y-73307723D01*
X109327117Y-73181875D01*
X109339606Y-73124146D01*
X109344618Y-73106980D01*
X109404250Y-72946166D01*
X109411985Y-72925309D01*
X109419371Y-72909036D01*
X109511783Y-72738727D01*
X109521403Y-72723657D01*
X109613882Y-72599238D01*
X109636990Y-72568150D01*
X109648649Y-72554592D01*
X109785086Y-72417018D01*
X109798547Y-72405246D01*
X109953088Y-72288371D01*
X109968081Y-72278624D01*
X110137605Y-72184809D01*
X110153827Y-72177282D01*
X110334926Y-72108411D01*
X110352050Y-72103256D01*
X110541084Y-72060715D01*
X110558764Y-72058037D01*
X110614498Y-72053607D01*
X110719367Y-72045272D01*
X110738135Y-72045900D01*
X110745731Y-72045930D01*
X110754612Y-72047238D01*
X110763499Y-72046001D01*
X110763502Y-72046001D01*
X110786143Y-72042849D01*
X110802469Y-72041650D01*
X112390013Y-72028479D01*
X112391058Y-72028475D01*
X114860604Y-72028475D01*
X114928725Y-72048477D01*
G37*
%TD.AperFunction*%
%TD*%
M02*
