G04 #@! TF.GenerationSoftware,KiCad,Pcbnew,(5.1.12)-1*
G04 #@! TF.CreationDate,2022-09-04T19:37:19+09:00*
G04 #@! TF.ProjectId,AT,41542e6b-6963-4616-945f-706362585858,rev?*
G04 #@! TF.SameCoordinates,PX791ddc0PY4323800*
G04 #@! TF.FileFunction,Legend,Top*
G04 #@! TF.FilePolarity,Positive*
%FSLAX46Y46*%
G04 Gerber Fmt 4.6, Leading zero omitted, Abs format (unit mm)*
G04 Created by KiCad (PCBNEW (5.1.12)-1) date 2022-09-04 19:37:19*
%MOMM*%
%LPD*%
G01*
G04 APERTURE LIST*
%ADD10C,0.150000*%
%ADD11C,0.120000*%
%ADD12C,0.125000*%
%ADD13O,1.900000X2.150000*%
%ADD14C,0.850000*%
%ADD15O,1.200000X1.800000*%
%ADD16O,1.200000X2.300000*%
G04 APERTURE END LIST*
D10*
G04 #@! TO.C,U1*
X3475000Y-8545000D02*
X3475000Y-8770000D01*
X6825000Y-8545000D02*
X6825000Y-8845000D01*
X6825000Y-11895000D02*
X6825000Y-11595000D01*
X3475000Y-11895000D02*
X3475000Y-11595000D01*
X3475000Y-8545000D02*
X6825000Y-8545000D01*
X3475000Y-11895000D02*
X6825000Y-11895000D01*
X3475000Y-8770000D02*
X2250000Y-8770000D01*
D11*
G04 #@! TO.C,R4*
X9830000Y-13816359D02*
X9830000Y-14123641D01*
X9070000Y-13816359D02*
X9070000Y-14123641D01*
G04 #@! TO.C,R3*
X10867500Y-16777258D02*
X10867500Y-16302742D01*
X11912500Y-16777258D02*
X11912500Y-16302742D01*
G04 #@! TO.C,R2*
X13756359Y-6410000D02*
X14063641Y-6410000D01*
X13756359Y-7170000D02*
X14063641Y-7170000D01*
G04 #@! TO.C,R1*
X1910000Y-6756359D02*
X1910000Y-7063641D01*
X1150000Y-6756359D02*
X1150000Y-7063641D01*
G04 #@! TO.C,J2*
X7510000Y-30770000D02*
X-50000Y-30770000D01*
X-50000Y-30770000D02*
X-50000Y-19050000D01*
X-50000Y-19050000D02*
X1370000Y-19050000D01*
X1370000Y-19050000D02*
X1370000Y-23550000D01*
X1370000Y-23550000D02*
X7510000Y-23550000D01*
X7510000Y-30770000D02*
X15070000Y-30770000D01*
X15070000Y-30770000D02*
X15070000Y-19050000D01*
X15070000Y-19050000D02*
X13650000Y-19050000D01*
X13650000Y-19050000D02*
X13650000Y-23550000D01*
X13650000Y-23550000D02*
X7510000Y-23550000D01*
X2260000Y-24660000D02*
X2260000Y-30160000D01*
X2260000Y-30160000D02*
X2760000Y-30160000D01*
X2760000Y-30160000D02*
X2760000Y-24660000D01*
X2760000Y-24660000D02*
X2260000Y-24660000D01*
X4760000Y-24660000D02*
X4760000Y-30160000D01*
X4760000Y-30160000D02*
X5260000Y-30160000D01*
X5260000Y-30160000D02*
X5260000Y-24660000D01*
X5260000Y-24660000D02*
X4760000Y-24660000D01*
X7260000Y-24660000D02*
X7260000Y-30160000D01*
X7260000Y-30160000D02*
X7760000Y-30160000D01*
X7760000Y-30160000D02*
X7760000Y-24660000D01*
X7760000Y-24660000D02*
X7260000Y-24660000D01*
X9760000Y-24660000D02*
X9760000Y-30160000D01*
X9760000Y-30160000D02*
X10260000Y-30160000D01*
X10260000Y-30160000D02*
X10260000Y-24660000D01*
X10260000Y-24660000D02*
X9760000Y-24660000D01*
X12260000Y-24660000D02*
X12260000Y-30160000D01*
X12260000Y-30160000D02*
X12760000Y-30160000D01*
X12760000Y-30160000D02*
X12760000Y-24660000D01*
X12760000Y-24660000D02*
X12260000Y-24660000D01*
X2510000Y-19960000D02*
X2210000Y-19360000D01*
X2210000Y-19360000D02*
X2810000Y-19360000D01*
X2810000Y-19360000D02*
X2510000Y-19960000D01*
G04 #@! TO.C,J1*
X11980000Y-4950000D02*
X11980000Y-3030000D01*
X2820000Y-3030000D02*
X2820000Y-4950000D01*
X2820000Y-1020000D02*
X2820000Y685000D01*
X11980000Y685000D02*
X11980000Y-1020000D01*
X2820000Y685000D02*
X11980000Y685000D01*
G04 #@! TO.C,F1*
X13080000Y-10402779D02*
X13080000Y-10077221D01*
X14100000Y-10402779D02*
X14100000Y-10077221D01*
G04 #@! TO.C,D2*
X8435000Y-15722500D02*
X8435000Y-18007500D01*
X8435000Y-18007500D02*
X9905000Y-18007500D01*
X9905000Y-18007500D02*
X9905000Y-15722500D01*
G04 #@! TO.C,D1*
X6655000Y-15742500D02*
X6655000Y-18027500D01*
X6655000Y-18027500D02*
X8125000Y-18027500D01*
X8125000Y-18027500D02*
X8125000Y-15742500D01*
G04 #@! TO.C,C3*
X8865000Y-10311252D02*
X8865000Y-9788748D01*
X10335000Y-10311252D02*
X10335000Y-9788748D01*
G04 #@! TO.C,C2*
X12355000Y-9788748D02*
X12355000Y-10311252D01*
X10885000Y-9788748D02*
X10885000Y-10311252D01*
G04 #@! TO.C,C1*
X14090000Y-13259420D02*
X14090000Y-13540580D01*
X13070000Y-13259420D02*
X13070000Y-13540580D01*
G04 #@! TO.C,U1*
D10*
X4388095Y-7072380D02*
X4388095Y-7881904D01*
X4435714Y-7977142D01*
X4483333Y-8024761D01*
X4578571Y-8072380D01*
X4769047Y-8072380D01*
X4864285Y-8024761D01*
X4911904Y-7977142D01*
X4959523Y-7881904D01*
X4959523Y-7072380D01*
X5959523Y-8072380D02*
X5388095Y-8072380D01*
X5673809Y-8072380D02*
X5673809Y-7072380D01*
X5578571Y-7215238D01*
X5483333Y-7310476D01*
X5388095Y-7358095D01*
G04 #@! TO.C,R4*
D12*
X12466190Y-14703333D02*
X12228095Y-14870000D01*
X12466190Y-14989047D02*
X11966190Y-14989047D01*
X11966190Y-14798571D01*
X11990000Y-14750952D01*
X12013809Y-14727142D01*
X12061428Y-14703333D01*
X12132857Y-14703333D01*
X12180476Y-14727142D01*
X12204285Y-14750952D01*
X12228095Y-14798571D01*
X12228095Y-14989047D01*
X12132857Y-14274761D02*
X12466190Y-14274761D01*
X11942380Y-14393809D02*
X12299523Y-14512857D01*
X12299523Y-14203333D01*
G04 #@! TO.C,R3*
D10*
X10153333Y-19262380D02*
X9820000Y-18786190D01*
X9581904Y-19262380D02*
X9581904Y-18262380D01*
X9962857Y-18262380D01*
X10058095Y-18310000D01*
X10105714Y-18357619D01*
X10153333Y-18452857D01*
X10153333Y-18595714D01*
X10105714Y-18690952D01*
X10058095Y-18738571D01*
X9962857Y-18786190D01*
X9581904Y-18786190D01*
X10486666Y-18262380D02*
X11105714Y-18262380D01*
X10772380Y-18643333D01*
X10915238Y-18643333D01*
X11010476Y-18690952D01*
X11058095Y-18738571D01*
X11105714Y-18833809D01*
X11105714Y-19071904D01*
X11058095Y-19167142D01*
X11010476Y-19214761D01*
X10915238Y-19262380D01*
X10629523Y-19262380D01*
X10534285Y-19214761D01*
X10486666Y-19167142D01*
G04 #@! TO.C,R2*
X15232380Y-5416666D02*
X14756190Y-5750000D01*
X15232380Y-5988095D02*
X14232380Y-5988095D01*
X14232380Y-5607142D01*
X14280000Y-5511904D01*
X14327619Y-5464285D01*
X14422857Y-5416666D01*
X14565714Y-5416666D01*
X14660952Y-5464285D01*
X14708571Y-5511904D01*
X14756190Y-5607142D01*
X14756190Y-5988095D01*
X14327619Y-5035714D02*
X14280000Y-4988095D01*
X14232380Y-4892857D01*
X14232380Y-4654761D01*
X14280000Y-4559523D01*
X14327619Y-4511904D01*
X14422857Y-4464285D01*
X14518095Y-4464285D01*
X14660952Y-4511904D01*
X15232380Y-5083333D01*
X15232380Y-4464285D01*
G04 #@! TO.C,R1*
X2052380Y-9026666D02*
X1576190Y-9360000D01*
X2052380Y-9598095D02*
X1052380Y-9598095D01*
X1052380Y-9217142D01*
X1100000Y-9121904D01*
X1147619Y-9074285D01*
X1242857Y-9026666D01*
X1385714Y-9026666D01*
X1480952Y-9074285D01*
X1528571Y-9121904D01*
X1576190Y-9217142D01*
X1576190Y-9598095D01*
X2052380Y-8074285D02*
X2052380Y-8645714D01*
X2052380Y-8360000D02*
X1052380Y-8360000D01*
X1195238Y-8455238D01*
X1290476Y-8550476D01*
X1338095Y-8645714D01*
G04 #@! TO.C,J2*
X7176666Y-17412380D02*
X7176666Y-18126666D01*
X7129047Y-18269523D01*
X7033809Y-18364761D01*
X6890952Y-18412380D01*
X6795714Y-18412380D01*
X7605238Y-17507619D02*
X7652857Y-17460000D01*
X7748095Y-17412380D01*
X7986190Y-17412380D01*
X8081428Y-17460000D01*
X8129047Y-17507619D01*
X8176666Y-17602857D01*
X8176666Y-17698095D01*
X8129047Y-17840952D01*
X7557619Y-18412380D01*
X8176666Y-18412380D01*
G04 #@! TO.C,J1*
X7066666Y-7952380D02*
X7066666Y-8666666D01*
X7019047Y-8809523D01*
X6923809Y-8904761D01*
X6780952Y-8952380D01*
X6685714Y-8952380D01*
X8066666Y-8952380D02*
X7495238Y-8952380D01*
X7780952Y-8952380D02*
X7780952Y-7952380D01*
X7685714Y-8095238D01*
X7590476Y-8190476D01*
X7495238Y-8238095D01*
G04 #@! TO.C,F1*
X13508571Y-8193333D02*
X13508571Y-8526666D01*
X14032380Y-8526666D02*
X13032380Y-8526666D01*
X13032380Y-8050476D01*
X14032380Y-7145714D02*
X14032380Y-7717142D01*
X14032380Y-7431428D02*
X13032380Y-7431428D01*
X13175238Y-7526666D01*
X13270476Y-7621904D01*
X13318095Y-7717142D01*
G04 #@! TO.C,D2*
X7091904Y-14684880D02*
X7091904Y-13684880D01*
X7330000Y-13684880D01*
X7472857Y-13732500D01*
X7568095Y-13827738D01*
X7615714Y-13922976D01*
X7663333Y-14113452D01*
X7663333Y-14256309D01*
X7615714Y-14446785D01*
X7568095Y-14542023D01*
X7472857Y-14637261D01*
X7330000Y-14684880D01*
X7091904Y-14684880D01*
X8044285Y-13780119D02*
X8091904Y-13732500D01*
X8187142Y-13684880D01*
X8425238Y-13684880D01*
X8520476Y-13732500D01*
X8568095Y-13780119D01*
X8615714Y-13875357D01*
X8615714Y-13970595D01*
X8568095Y-14113452D01*
X7996666Y-14684880D01*
X8615714Y-14684880D01*
G04 #@! TO.C,D1*
X6412380Y-17280595D02*
X5412380Y-17280595D01*
X5412380Y-17042500D01*
X5460000Y-16899642D01*
X5555238Y-16804404D01*
X5650476Y-16756785D01*
X5840952Y-16709166D01*
X5983809Y-16709166D01*
X6174285Y-16756785D01*
X6269523Y-16804404D01*
X6364761Y-16899642D01*
X6412380Y-17042500D01*
X6412380Y-17280595D01*
X6412380Y-15756785D02*
X6412380Y-16328214D01*
X6412380Y-16042500D02*
X5412380Y-16042500D01*
X5555238Y-16137738D01*
X5650476Y-16232976D01*
X5698095Y-16328214D01*
G04 #@! TO.C,C3*
X8277142Y-10216666D02*
X8324761Y-10264285D01*
X8372380Y-10407142D01*
X8372380Y-10502380D01*
X8324761Y-10645238D01*
X8229523Y-10740476D01*
X8134285Y-10788095D01*
X7943809Y-10835714D01*
X7800952Y-10835714D01*
X7610476Y-10788095D01*
X7515238Y-10740476D01*
X7420000Y-10645238D01*
X7372380Y-10502380D01*
X7372380Y-10407142D01*
X7420000Y-10264285D01*
X7467619Y-10216666D01*
X7372380Y-9883333D02*
X7372380Y-9264285D01*
X7753333Y-9597619D01*
X7753333Y-9454761D01*
X7800952Y-9359523D01*
X7848571Y-9311904D01*
X7943809Y-9264285D01*
X8181904Y-9264285D01*
X8277142Y-9311904D01*
X8324761Y-9359523D01*
X8372380Y-9454761D01*
X8372380Y-9740476D01*
X8324761Y-9835714D01*
X8277142Y-9883333D01*
G04 #@! TO.C,C2*
X13657142Y-10216666D02*
X13704761Y-10264285D01*
X13752380Y-10407142D01*
X13752380Y-10502380D01*
X13704761Y-10645238D01*
X13609523Y-10740476D01*
X13514285Y-10788095D01*
X13323809Y-10835714D01*
X13180952Y-10835714D01*
X12990476Y-10788095D01*
X12895238Y-10740476D01*
X12800000Y-10645238D01*
X12752380Y-10502380D01*
X12752380Y-10407142D01*
X12800000Y-10264285D01*
X12847619Y-10216666D01*
X12847619Y-9835714D02*
X12800000Y-9788095D01*
X12752380Y-9692857D01*
X12752380Y-9454761D01*
X12800000Y-9359523D01*
X12847619Y-9311904D01*
X12942857Y-9264285D01*
X13038095Y-9264285D01*
X13180952Y-9311904D01*
X13752380Y-9883333D01*
X13752380Y-9264285D01*
G04 #@! TO.C,C1*
X11923333Y-12837142D02*
X11875714Y-12884761D01*
X11732857Y-12932380D01*
X11637619Y-12932380D01*
X11494761Y-12884761D01*
X11399523Y-12789523D01*
X11351904Y-12694285D01*
X11304285Y-12503809D01*
X11304285Y-12360952D01*
X11351904Y-12170476D01*
X11399523Y-12075238D01*
X11494761Y-11980000D01*
X11637619Y-11932380D01*
X11732857Y-11932380D01*
X11875714Y-11980000D01*
X11923333Y-12027619D01*
X12875714Y-12932380D02*
X12304285Y-12932380D01*
X12590000Y-12932380D02*
X12590000Y-11932380D01*
X12494761Y-12075238D01*
X12399523Y-12170476D01*
X12304285Y-12218095D01*
G04 #@! TD*
%LPC*%
G04 #@! TO.C,U1*
G36*
G01*
X6550000Y-9370000D02*
X6550000Y-9070000D01*
G75*
G02*
X6650000Y-8970000I100000J0D01*
G01*
X8050000Y-8970000D01*
G75*
G02*
X8150000Y-9070000I0J-100000D01*
G01*
X8150000Y-9370000D01*
G75*
G02*
X8050000Y-9470000I-100000J0D01*
G01*
X6650000Y-9470000D01*
G75*
G02*
X6550000Y-9370000I0J100000D01*
G01*
G37*
G36*
G01*
X6550000Y-9870000D02*
X6550000Y-9570000D01*
G75*
G02*
X6650000Y-9470000I100000J0D01*
G01*
X8050000Y-9470000D01*
G75*
G02*
X8150000Y-9570000I0J-100000D01*
G01*
X8150000Y-9870000D01*
G75*
G02*
X8050000Y-9970000I-100000J0D01*
G01*
X6650000Y-9970000D01*
G75*
G02*
X6550000Y-9870000I0J100000D01*
G01*
G37*
G36*
G01*
X6550000Y-10370000D02*
X6550000Y-10070000D01*
G75*
G02*
X6650000Y-9970000I100000J0D01*
G01*
X8050000Y-9970000D01*
G75*
G02*
X8150000Y-10070000I0J-100000D01*
G01*
X8150000Y-10370000D01*
G75*
G02*
X8050000Y-10470000I-100000J0D01*
G01*
X6650000Y-10470000D01*
G75*
G02*
X6550000Y-10370000I0J100000D01*
G01*
G37*
G36*
G01*
X6550000Y-10870000D02*
X6550000Y-10570000D01*
G75*
G02*
X6650000Y-10470000I100000J0D01*
G01*
X8050000Y-10470000D01*
G75*
G02*
X8150000Y-10570000I0J-100000D01*
G01*
X8150000Y-10870000D01*
G75*
G02*
X8050000Y-10970000I-100000J0D01*
G01*
X6650000Y-10970000D01*
G75*
G02*
X6550000Y-10870000I0J100000D01*
G01*
G37*
G36*
G01*
X6550000Y-11370000D02*
X6550000Y-11070000D01*
G75*
G02*
X6650000Y-10970000I100000J0D01*
G01*
X8050000Y-10970000D01*
G75*
G02*
X8150000Y-11070000I0J-100000D01*
G01*
X8150000Y-11370000D01*
G75*
G02*
X8050000Y-11470000I-100000J0D01*
G01*
X6650000Y-11470000D01*
G75*
G02*
X6550000Y-11370000I0J100000D01*
G01*
G37*
G36*
G01*
X2150000Y-11370000D02*
X2150000Y-11070000D01*
G75*
G02*
X2250000Y-10970000I100000J0D01*
G01*
X3650000Y-10970000D01*
G75*
G02*
X3750000Y-11070000I0J-100000D01*
G01*
X3750000Y-11370000D01*
G75*
G02*
X3650000Y-11470000I-100000J0D01*
G01*
X2250000Y-11470000D01*
G75*
G02*
X2150000Y-11370000I0J100000D01*
G01*
G37*
G36*
G01*
X2150000Y-10870000D02*
X2150000Y-10570000D01*
G75*
G02*
X2250000Y-10470000I100000J0D01*
G01*
X3650000Y-10470000D01*
G75*
G02*
X3750000Y-10570000I0J-100000D01*
G01*
X3750000Y-10870000D01*
G75*
G02*
X3650000Y-10970000I-100000J0D01*
G01*
X2250000Y-10970000D01*
G75*
G02*
X2150000Y-10870000I0J100000D01*
G01*
G37*
G36*
G01*
X2150000Y-10370000D02*
X2150000Y-10070000D01*
G75*
G02*
X2250000Y-9970000I100000J0D01*
G01*
X3650000Y-9970000D01*
G75*
G02*
X3750000Y-10070000I0J-100000D01*
G01*
X3750000Y-10370000D01*
G75*
G02*
X3650000Y-10470000I-100000J0D01*
G01*
X2250000Y-10470000D01*
G75*
G02*
X2150000Y-10370000I0J100000D01*
G01*
G37*
G36*
G01*
X2150000Y-9870000D02*
X2150000Y-9570000D01*
G75*
G02*
X2250000Y-9470000I100000J0D01*
G01*
X3650000Y-9470000D01*
G75*
G02*
X3750000Y-9570000I0J-100000D01*
G01*
X3750000Y-9870000D01*
G75*
G02*
X3650000Y-9970000I-100000J0D01*
G01*
X2250000Y-9970000D01*
G75*
G02*
X2150000Y-9870000I0J100000D01*
G01*
G37*
G36*
G01*
X2150000Y-9370000D02*
X2150000Y-9070000D01*
G75*
G02*
X2250000Y-8970000I100000J0D01*
G01*
X3650000Y-8970000D01*
G75*
G02*
X3750000Y-9070000I0J-100000D01*
G01*
X3750000Y-9370000D01*
G75*
G02*
X3650000Y-9470000I-100000J0D01*
G01*
X2250000Y-9470000D01*
G75*
G02*
X2150000Y-9370000I0J100000D01*
G01*
G37*
G04 #@! TD*
G04 #@! TO.C,R4*
G36*
G01*
X9215000Y-14110000D02*
X9685000Y-14110000D01*
G75*
G02*
X9870000Y-14295000I0J-185000D01*
G01*
X9870000Y-14665000D01*
G75*
G02*
X9685000Y-14850000I-185000J0D01*
G01*
X9215000Y-14850000D01*
G75*
G02*
X9030000Y-14665000I0J185000D01*
G01*
X9030000Y-14295000D01*
G75*
G02*
X9215000Y-14110000I185000J0D01*
G01*
G37*
G36*
G01*
X9215000Y-13090000D02*
X9685000Y-13090000D01*
G75*
G02*
X9870000Y-13275000I0J-185000D01*
G01*
X9870000Y-13645000D01*
G75*
G02*
X9685000Y-13830000I-185000J0D01*
G01*
X9215000Y-13830000D01*
G75*
G02*
X9030000Y-13645000I0J185000D01*
G01*
X9030000Y-13275000D01*
G75*
G02*
X9215000Y-13090000I185000J0D01*
G01*
G37*
G04 #@! TD*
G04 #@! TO.C,R3*
G36*
G01*
X11715000Y-16215000D02*
X11065000Y-16215000D01*
G75*
G02*
X10815000Y-15965000I0J250000D01*
G01*
X10815000Y-15465000D01*
G75*
G02*
X11065000Y-15215000I250000J0D01*
G01*
X11715000Y-15215000D01*
G75*
G02*
X11965000Y-15465000I0J-250000D01*
G01*
X11965000Y-15965000D01*
G75*
G02*
X11715000Y-16215000I-250000J0D01*
G01*
G37*
G36*
G01*
X11715000Y-17865000D02*
X11065000Y-17865000D01*
G75*
G02*
X10815000Y-17615000I0J250000D01*
G01*
X10815000Y-17115000D01*
G75*
G02*
X11065000Y-16865000I250000J0D01*
G01*
X11715000Y-16865000D01*
G75*
G02*
X11965000Y-17115000I0J-250000D01*
G01*
X11965000Y-17615000D01*
G75*
G02*
X11715000Y-17865000I-250000J0D01*
G01*
G37*
G04 #@! TD*
G04 #@! TO.C,R2*
G36*
G01*
X14050000Y-7025000D02*
X14050000Y-6555000D01*
G75*
G02*
X14235000Y-6370000I185000J0D01*
G01*
X14605000Y-6370000D01*
G75*
G02*
X14790000Y-6555000I0J-185000D01*
G01*
X14790000Y-7025000D01*
G75*
G02*
X14605000Y-7210000I-185000J0D01*
G01*
X14235000Y-7210000D01*
G75*
G02*
X14050000Y-7025000I0J185000D01*
G01*
G37*
G36*
G01*
X13030000Y-7025000D02*
X13030000Y-6555000D01*
G75*
G02*
X13215000Y-6370000I185000J0D01*
G01*
X13585000Y-6370000D01*
G75*
G02*
X13770000Y-6555000I0J-185000D01*
G01*
X13770000Y-7025000D01*
G75*
G02*
X13585000Y-7210000I-185000J0D01*
G01*
X13215000Y-7210000D01*
G75*
G02*
X13030000Y-7025000I0J185000D01*
G01*
G37*
G04 #@! TD*
G04 #@! TO.C,R1*
G36*
G01*
X1295000Y-7050000D02*
X1765000Y-7050000D01*
G75*
G02*
X1950000Y-7235000I0J-185000D01*
G01*
X1950000Y-7605000D01*
G75*
G02*
X1765000Y-7790000I-185000J0D01*
G01*
X1295000Y-7790000D01*
G75*
G02*
X1110000Y-7605000I0J185000D01*
G01*
X1110000Y-7235000D01*
G75*
G02*
X1295000Y-7050000I185000J0D01*
G01*
G37*
G36*
G01*
X1295000Y-6030000D02*
X1765000Y-6030000D01*
G75*
G02*
X1950000Y-6215000I0J-185000D01*
G01*
X1950000Y-6585000D01*
G75*
G02*
X1765000Y-6770000I-185000J0D01*
G01*
X1295000Y-6770000D01*
G75*
G02*
X1110000Y-6585000I0J185000D01*
G01*
X1110000Y-6215000D01*
G75*
G02*
X1295000Y-6030000I185000J0D01*
G01*
G37*
G04 #@! TD*
D13*
G04 #@! TO.C,J2*
X12510000Y-21460000D03*
X10010000Y-21460000D03*
X7510000Y-21460000D03*
X5010000Y-21460000D03*
G36*
G01*
X1560000Y-22255589D02*
X1560000Y-20664411D01*
G75*
G02*
X1839411Y-20385000I279411J0D01*
G01*
X3180589Y-20385000D01*
G75*
G02*
X3460000Y-20664411I0J-279411D01*
G01*
X3460000Y-22255589D01*
G75*
G02*
X3180589Y-22535000I-279411J0D01*
G01*
X1839411Y-22535000D01*
G75*
G02*
X1560000Y-22255589I0J279411D01*
G01*
G37*
G04 #@! TD*
G04 #@! TO.C,J1*
G36*
G01*
X4300000Y-6195000D02*
X4300000Y-7345000D01*
G75*
G02*
X4200000Y-7445000I-100000J0D01*
G01*
X3900000Y-7445000D01*
G75*
G02*
X3800000Y-7345000I0J100000D01*
G01*
X3800000Y-6195000D01*
G75*
G02*
X3900000Y-6095000I100000J0D01*
G01*
X4200000Y-6095000D01*
G75*
G02*
X4300000Y-6195000I0J-100000D01*
G01*
G37*
G36*
G01*
X5100000Y-6195000D02*
X5100000Y-7345000D01*
G75*
G02*
X5000000Y-7445000I-100000J0D01*
G01*
X4700000Y-7445000D01*
G75*
G02*
X4600000Y-7345000I0J100000D01*
G01*
X4600000Y-6195000D01*
G75*
G02*
X4700000Y-6095000I100000J0D01*
G01*
X5000000Y-6095000D01*
G75*
G02*
X5100000Y-6195000I0J-100000D01*
G01*
G37*
G36*
G01*
X9900000Y-6195000D02*
X9900000Y-7345000D01*
G75*
G02*
X9800000Y-7445000I-100000J0D01*
G01*
X9500000Y-7445000D01*
G75*
G02*
X9400000Y-7345000I0J100000D01*
G01*
X9400000Y-6195000D01*
G75*
G02*
X9500000Y-6095000I100000J0D01*
G01*
X9800000Y-6095000D01*
G75*
G02*
X9900000Y-6195000I0J-100000D01*
G01*
G37*
G36*
G01*
X10700000Y-6195000D02*
X10700000Y-7345000D01*
G75*
G02*
X10600000Y-7445000I-100000J0D01*
G01*
X10300000Y-7445000D01*
G75*
G02*
X10200000Y-7345000I0J100000D01*
G01*
X10200000Y-6195000D01*
G75*
G02*
X10300000Y-6095000I100000J0D01*
G01*
X10600000Y-6095000D01*
G75*
G02*
X10700000Y-6195000I0J-100000D01*
G01*
G37*
G36*
G01*
X11000000Y-6195000D02*
X11000000Y-7345000D01*
G75*
G02*
X10900000Y-7445000I-100000J0D01*
G01*
X10600000Y-7445000D01*
G75*
G02*
X10500000Y-7345000I0J100000D01*
G01*
X10500000Y-6195000D01*
G75*
G02*
X10600000Y-6095000I100000J0D01*
G01*
X10900000Y-6095000D01*
G75*
G02*
X11000000Y-6195000I0J-100000D01*
G01*
G37*
G36*
G01*
X10200000Y-6195000D02*
X10200000Y-7345000D01*
G75*
G02*
X10100000Y-7445000I-100000J0D01*
G01*
X9800000Y-7445000D01*
G75*
G02*
X9700000Y-7345000I0J100000D01*
G01*
X9700000Y-6195000D01*
G75*
G02*
X9800000Y-6095000I100000J0D01*
G01*
X10100000Y-6095000D01*
G75*
G02*
X10200000Y-6195000I0J-100000D01*
G01*
G37*
G36*
G01*
X9400000Y-6195000D02*
X9400000Y-7345000D01*
G75*
G02*
X9300000Y-7445000I-100000J0D01*
G01*
X9000000Y-7445000D01*
G75*
G02*
X8900000Y-7345000I0J100000D01*
G01*
X8900000Y-6195000D01*
G75*
G02*
X9000000Y-6095000I100000J0D01*
G01*
X9300000Y-6095000D01*
G75*
G02*
X9400000Y-6195000I0J-100000D01*
G01*
G37*
G36*
G01*
X8900000Y-6195000D02*
X8900000Y-7345000D01*
G75*
G02*
X8800000Y-7445000I-100000J0D01*
G01*
X8500000Y-7445000D01*
G75*
G02*
X8400000Y-7345000I0J100000D01*
G01*
X8400000Y-6195000D01*
G75*
G02*
X8500000Y-6095000I100000J0D01*
G01*
X8800000Y-6095000D01*
G75*
G02*
X8900000Y-6195000I0J-100000D01*
G01*
G37*
G36*
G01*
X8400000Y-6195000D02*
X8400000Y-7345000D01*
G75*
G02*
X8300000Y-7445000I-100000J0D01*
G01*
X8000000Y-7445000D01*
G75*
G02*
X7900000Y-7345000I0J100000D01*
G01*
X7900000Y-6195000D01*
G75*
G02*
X8000000Y-6095000I100000J0D01*
G01*
X8300000Y-6095000D01*
G75*
G02*
X8400000Y-6195000I0J-100000D01*
G01*
G37*
G36*
G01*
X7900000Y-6195000D02*
X7900000Y-7345000D01*
G75*
G02*
X7800000Y-7445000I-100000J0D01*
G01*
X7500000Y-7445000D01*
G75*
G02*
X7400000Y-7345000I0J100000D01*
G01*
X7400000Y-6195000D01*
G75*
G02*
X7500000Y-6095000I100000J0D01*
G01*
X7800000Y-6095000D01*
G75*
G02*
X7900000Y-6195000I0J-100000D01*
G01*
G37*
G36*
G01*
X7400000Y-6195000D02*
X7400000Y-7345000D01*
G75*
G02*
X7300000Y-7445000I-100000J0D01*
G01*
X7000000Y-7445000D01*
G75*
G02*
X6900000Y-7345000I0J100000D01*
G01*
X6900000Y-6195000D01*
G75*
G02*
X7000000Y-6095000I100000J0D01*
G01*
X7300000Y-6095000D01*
G75*
G02*
X7400000Y-6195000I0J-100000D01*
G01*
G37*
G36*
G01*
X6900000Y-6195000D02*
X6900000Y-7345000D01*
G75*
G02*
X6800000Y-7445000I-100000J0D01*
G01*
X6500000Y-7445000D01*
G75*
G02*
X6400000Y-7345000I0J100000D01*
G01*
X6400000Y-6195000D01*
G75*
G02*
X6500000Y-6095000I100000J0D01*
G01*
X6800000Y-6095000D01*
G75*
G02*
X6900000Y-6195000I0J-100000D01*
G01*
G37*
G36*
G01*
X6400000Y-6195000D02*
X6400000Y-7345000D01*
G75*
G02*
X6300000Y-7445000I-100000J0D01*
G01*
X6000000Y-7445000D01*
G75*
G02*
X5900000Y-7345000I0J100000D01*
G01*
X5900000Y-6195000D01*
G75*
G02*
X6000000Y-6095000I100000J0D01*
G01*
X6300000Y-6095000D01*
G75*
G02*
X6400000Y-6195000I0J-100000D01*
G01*
G37*
G36*
G01*
X5900000Y-6195000D02*
X5900000Y-7345000D01*
G75*
G02*
X5800000Y-7445000I-100000J0D01*
G01*
X5500000Y-7445000D01*
G75*
G02*
X5400000Y-7345000I0J100000D01*
G01*
X5400000Y-6195000D01*
G75*
G02*
X5500000Y-6095000I100000J0D01*
G01*
X5800000Y-6095000D01*
G75*
G02*
X5900000Y-6195000I0J-100000D01*
G01*
G37*
G36*
G01*
X5400000Y-6195000D02*
X5400000Y-7345000D01*
G75*
G02*
X5300000Y-7445000I-100000J0D01*
G01*
X5000000Y-7445000D01*
G75*
G02*
X4900000Y-7345000I0J100000D01*
G01*
X4900000Y-6195000D01*
G75*
G02*
X5000000Y-6095000I100000J0D01*
G01*
X5300000Y-6095000D01*
G75*
G02*
X5400000Y-6195000I0J-100000D01*
G01*
G37*
G36*
G01*
X4600000Y-6195000D02*
X4600000Y-7345000D01*
G75*
G02*
X4500000Y-7445000I-100000J0D01*
G01*
X4200000Y-7445000D01*
G75*
G02*
X4100000Y-7345000I0J100000D01*
G01*
X4100000Y-6195000D01*
G75*
G02*
X4200000Y-6095000I100000J0D01*
G01*
X4500000Y-6095000D01*
G75*
G02*
X4600000Y-6195000I0J-100000D01*
G01*
G37*
D14*
X10290000Y-5705000D03*
X4510000Y-5705000D03*
D15*
X3080000Y-2025000D03*
X11720000Y-2025000D03*
D16*
X3080000Y-6205000D03*
X11720000Y-6205000D03*
G04 #@! TD*
G04 #@! TO.C,F1*
G36*
G01*
X13896250Y-9990000D02*
X13283750Y-9990000D01*
G75*
G02*
X13015000Y-9721250I0J268750D01*
G01*
X13015000Y-9183750D01*
G75*
G02*
X13283750Y-8915000I268750J0D01*
G01*
X13896250Y-8915000D01*
G75*
G02*
X14165000Y-9183750I0J-268750D01*
G01*
X14165000Y-9721250D01*
G75*
G02*
X13896250Y-9990000I-268750J0D01*
G01*
G37*
G36*
G01*
X13896250Y-11565000D02*
X13283750Y-11565000D01*
G75*
G02*
X13015000Y-11296250I0J268750D01*
G01*
X13015000Y-10758750D01*
G75*
G02*
X13283750Y-10490000I268750J0D01*
G01*
X13896250Y-10490000D01*
G75*
G02*
X14165000Y-10758750I0J-268750D01*
G01*
X14165000Y-11296250D01*
G75*
G02*
X13896250Y-11565000I-268750J0D01*
G01*
G37*
G04 #@! TD*
G04 #@! TO.C,D2*
G36*
G01*
X9476250Y-16272500D02*
X8863750Y-16272500D01*
G75*
G02*
X8595000Y-16003750I0J268750D01*
G01*
X8595000Y-15466250D01*
G75*
G02*
X8863750Y-15197500I268750J0D01*
G01*
X9476250Y-15197500D01*
G75*
G02*
X9745000Y-15466250I0J-268750D01*
G01*
X9745000Y-16003750D01*
G75*
G02*
X9476250Y-16272500I-268750J0D01*
G01*
G37*
G36*
G01*
X9476250Y-17847500D02*
X8863750Y-17847500D01*
G75*
G02*
X8595000Y-17578750I0J268750D01*
G01*
X8595000Y-17041250D01*
G75*
G02*
X8863750Y-16772500I268750J0D01*
G01*
X9476250Y-16772500D01*
G75*
G02*
X9745000Y-17041250I0J-268750D01*
G01*
X9745000Y-17578750D01*
G75*
G02*
X9476250Y-17847500I-268750J0D01*
G01*
G37*
G04 #@! TD*
G04 #@! TO.C,D1*
G36*
G01*
X7696250Y-16292500D02*
X7083750Y-16292500D01*
G75*
G02*
X6815000Y-16023750I0J268750D01*
G01*
X6815000Y-15486250D01*
G75*
G02*
X7083750Y-15217500I268750J0D01*
G01*
X7696250Y-15217500D01*
G75*
G02*
X7965000Y-15486250I0J-268750D01*
G01*
X7965000Y-16023750D01*
G75*
G02*
X7696250Y-16292500I-268750J0D01*
G01*
G37*
G36*
G01*
X7696250Y-17867500D02*
X7083750Y-17867500D01*
G75*
G02*
X6815000Y-17598750I0J268750D01*
G01*
X6815000Y-17061250D01*
G75*
G02*
X7083750Y-16792500I268750J0D01*
G01*
X7696250Y-16792500D01*
G75*
G02*
X7965000Y-17061250I0J-268750D01*
G01*
X7965000Y-17598750D01*
G75*
G02*
X7696250Y-17867500I-268750J0D01*
G01*
G37*
G04 #@! TD*
G04 #@! TO.C,C3*
G36*
G01*
X10125000Y-9700000D02*
X9075000Y-9700000D01*
G75*
G02*
X8775000Y-9400000I0J300000D01*
G01*
X8775000Y-8800000D01*
G75*
G02*
X9075000Y-8500000I300000J0D01*
G01*
X10125000Y-8500000D01*
G75*
G02*
X10425000Y-8800000I0J-300000D01*
G01*
X10425000Y-9400000D01*
G75*
G02*
X10125000Y-9700000I-300000J0D01*
G01*
G37*
G36*
G01*
X10125000Y-11600000D02*
X9075000Y-11600000D01*
G75*
G02*
X8775000Y-11300000I0J300000D01*
G01*
X8775000Y-10700000D01*
G75*
G02*
X9075000Y-10400000I300000J0D01*
G01*
X10125000Y-10400000D01*
G75*
G02*
X10425000Y-10700000I0J-300000D01*
G01*
X10425000Y-11300000D01*
G75*
G02*
X10125000Y-11600000I-300000J0D01*
G01*
G37*
G04 #@! TD*
G04 #@! TO.C,C2*
G36*
G01*
X11095000Y-10400000D02*
X12145000Y-10400000D01*
G75*
G02*
X12445000Y-10700000I0J-300000D01*
G01*
X12445000Y-11300000D01*
G75*
G02*
X12145000Y-11600000I-300000J0D01*
G01*
X11095000Y-11600000D01*
G75*
G02*
X10795000Y-11300000I0J300000D01*
G01*
X10795000Y-10700000D01*
G75*
G02*
X11095000Y-10400000I300000J0D01*
G01*
G37*
G36*
G01*
X11095000Y-8500000D02*
X12145000Y-8500000D01*
G75*
G02*
X12445000Y-8800000I0J-300000D01*
G01*
X12445000Y-9400000D01*
G75*
G02*
X12145000Y-9700000I-300000J0D01*
G01*
X11095000Y-9700000D01*
G75*
G02*
X10795000Y-9400000I0J300000D01*
G01*
X10795000Y-8800000D01*
G75*
G02*
X11095000Y-8500000I300000J0D01*
G01*
G37*
G04 #@! TD*
G04 #@! TO.C,C1*
G36*
G01*
X13280000Y-13625000D02*
X13880000Y-13625000D01*
G75*
G02*
X14155000Y-13900000I0J-275000D01*
G01*
X14155000Y-14450000D01*
G75*
G02*
X13880000Y-14725000I-275000J0D01*
G01*
X13280000Y-14725000D01*
G75*
G02*
X13005000Y-14450000I0J275000D01*
G01*
X13005000Y-13900000D01*
G75*
G02*
X13280000Y-13625000I275000J0D01*
G01*
G37*
G36*
G01*
X13280000Y-12075000D02*
X13880000Y-12075000D01*
G75*
G02*
X14155000Y-12350000I0J-275000D01*
G01*
X14155000Y-12900000D01*
G75*
G02*
X13880000Y-13175000I-275000J0D01*
G01*
X13280000Y-13175000D01*
G75*
G02*
X13005000Y-12900000I0J275000D01*
G01*
X13005000Y-12350000D01*
G75*
G02*
X13280000Y-12075000I275000J0D01*
G01*
G37*
G04 #@! TD*
M02*
