G04 #@! TF.GenerationSoftware,KiCad,Pcbnew,(5.1.12)-1*
G04 #@! TF.CreationDate,2022-08-19T23:51:52+09:00*
G04 #@! TF.ProjectId,main,6d61696e-2e6b-4696-9361-645f70636258,rev?*
G04 #@! TF.SameCoordinates,PX7e5ca20PY5e39180*
G04 #@! TF.FileFunction,Legend,Bot*
G04 #@! TF.FilePolarity,Positive*
%FSLAX46Y46*%
G04 Gerber Fmt 4.6, Leading zero omitted, Abs format (unit mm)*
G04 Created by KiCad (PCBNEW (5.1.12)-1) date 2022-08-19 23:51:52*
%MOMM*%
%LPD*%
G01*
G04 APERTURE LIST*
%ADD10C,0.120000*%
%ADD11C,0.075000*%
%ADD12O,1.900000X1.900000*%
G04 APERTURE END LIST*
D10*
G04 #@! TO.C,J3*
X16930000Y-250000D02*
X15600000Y-250000D01*
X16930000Y-1580000D02*
X16930000Y-250000D01*
X16930000Y-2850000D02*
X14270000Y-2850000D01*
X14270000Y-2850000D02*
X14270000Y-20690000D01*
X16930000Y-2850000D02*
X16930000Y-20690000D01*
X16930000Y-20690000D02*
X14270000Y-20690000D01*
G04 #@! TO.C,J1*
X1730000Y-270000D02*
X400000Y-270000D01*
X1730000Y-1600000D02*
X1730000Y-270000D01*
X1730000Y-2870000D02*
X-930000Y-2870000D01*
X-930000Y-2870000D02*
X-930000Y-20710000D01*
X1730000Y-2870000D02*
X1730000Y-20710000D01*
X1730000Y-20710000D02*
X-930000Y-20710000D01*
G04 #@! TO.C,J3*
D11*
X14200000Y-135714D02*
X14200000Y-350000D01*
X14214285Y-392857D01*
X14242857Y-421428D01*
X14285714Y-435714D01*
X14314285Y-435714D01*
X14085714Y-135714D02*
X13900000Y-135714D01*
X14000000Y-250000D01*
X13957142Y-250000D01*
X13928571Y-264285D01*
X13914285Y-278571D01*
X13900000Y-307142D01*
X13900000Y-378571D01*
X13914285Y-407142D01*
X13928571Y-421428D01*
X13957142Y-435714D01*
X14042857Y-435714D01*
X14071428Y-421428D01*
X14085714Y-407142D01*
G04 #@! TO.C,J1*
X2100000Y-135714D02*
X2100000Y-350000D01*
X2114285Y-392857D01*
X2142857Y-421428D01*
X2185714Y-435714D01*
X2214285Y-435714D01*
X1800000Y-435714D02*
X1971428Y-435714D01*
X1885714Y-435714D02*
X1885714Y-135714D01*
X1914285Y-178571D01*
X1942857Y-207142D01*
X1971428Y-221428D01*
G04 #@! TD*
%LPC*%
D12*
G04 #@! TO.C,J3*
X15600000Y-19360000D03*
X15600000Y-16820000D03*
X15600000Y-14280000D03*
X15600000Y-11740000D03*
X15600000Y-9200000D03*
X15600000Y-6660000D03*
X15600000Y-4120000D03*
G36*
G01*
X16550000Y-730000D02*
X16550000Y-2430000D01*
G75*
G02*
X16450000Y-2530000I-100000J0D01*
G01*
X14750000Y-2530000D01*
G75*
G02*
X14650000Y-2430000I0J100000D01*
G01*
X14650000Y-730000D01*
G75*
G02*
X14750000Y-630000I100000J0D01*
G01*
X16450000Y-630000D01*
G75*
G02*
X16550000Y-730000I0J-100000D01*
G01*
G37*
G04 #@! TD*
G04 #@! TO.C,J1*
X400000Y-19380000D03*
X400000Y-16840000D03*
X400000Y-14300000D03*
X400000Y-11760000D03*
X400000Y-9220000D03*
X400000Y-6680000D03*
X400000Y-4140000D03*
G36*
G01*
X1350000Y-750000D02*
X1350000Y-2450000D01*
G75*
G02*
X1250000Y-2550000I-100000J0D01*
G01*
X-450000Y-2550000D01*
G75*
G02*
X-550000Y-2450000I0J100000D01*
G01*
X-550000Y-750000D01*
G75*
G02*
X-450000Y-650000I100000J0D01*
G01*
X1250000Y-650000D01*
G75*
G02*
X1350000Y-750000I0J-100000D01*
G01*
G37*
G04 #@! TD*
M02*
