G04 #@! TF.GenerationSoftware,KiCad,Pcbnew,(5.1.12)-1*
G04 #@! TF.CreationDate,2022-08-19T23:51:52+09:00*
G04 #@! TF.ProjectId,main,6d61696e-2e6b-4696-9361-645f70636258,rev?*
G04 #@! TF.SameCoordinates,PX7e5ca20PY5e39180*
G04 #@! TF.FileFunction,Copper,L1,Top*
G04 #@! TF.FilePolarity,Positive*
%FSLAX46Y46*%
G04 Gerber Fmt 4.6, Leading zero omitted, Abs format (unit mm)*
G04 Created by KiCad (PCBNEW (5.1.12)-1) date 2022-08-19 23:51:52*
%MOMM*%
%LPD*%
G01*
G04 APERTURE LIST*
G04 #@! TA.AperFunction,SMDPad,CuDef*
%ADD10R,5.200000X5.200000*%
G04 #@! TD*
G04 #@! TA.AperFunction,ComponentPad*
%ADD11O,1.700000X1.700000*%
G04 #@! TD*
G04 #@! TA.AperFunction,ComponentPad*
%ADD12R,1.700000X1.700000*%
G04 #@! TD*
G04 #@! TA.AperFunction,SMDPad,CuDef*
%ADD13R,0.450000X1.380000*%
G04 #@! TD*
G04 #@! TA.AperFunction,SMDPad,CuDef*
%ADD14R,1.425000X1.550000*%
G04 #@! TD*
G04 #@! TA.AperFunction,SMDPad,CuDef*
%ADD15R,1.650000X1.300000*%
G04 #@! TD*
G04 #@! TA.AperFunction,SMDPad,CuDef*
%ADD16R,1.800000X1.900000*%
G04 #@! TD*
G04 #@! TA.AperFunction,SMDPad,CuDef*
%ADD17R,1.000000X1.900000*%
G04 #@! TD*
G04 #@! TA.AperFunction,SMDPad,CuDef*
%ADD18R,1.400000X1.200000*%
G04 #@! TD*
G04 #@! TA.AperFunction,ViaPad*
%ADD19C,0.600000*%
G04 #@! TD*
G04 #@! TA.AperFunction,ViaPad*
%ADD20C,0.800000*%
G04 #@! TD*
G04 #@! TA.AperFunction,Conductor*
%ADD21C,0.250000*%
G04 #@! TD*
G04 #@! TA.AperFunction,Conductor*
%ADD22C,0.500000*%
G04 #@! TD*
G04 #@! TA.AperFunction,Conductor*
%ADD23C,0.750000*%
G04 #@! TD*
G04 #@! TA.AperFunction,Conductor*
%ADD24C,0.200000*%
G04 #@! TD*
G04 #@! TA.AperFunction,Conductor*
%ADD25C,0.254000*%
G04 #@! TD*
G04 #@! TA.AperFunction,Conductor*
%ADD26C,0.100000*%
G04 #@! TD*
G04 APERTURE END LIST*
G04 #@! TO.P,C2,2*
G04 #@! TO.N,GND*
G04 #@! TA.AperFunction,SMDPad,CuDef*
G36*
G01*
X3030000Y-7290000D02*
X2690000Y-7290000D01*
G75*
G02*
X2550000Y-7150000I0J140000D01*
G01*
X2550000Y-6870000D01*
G75*
G02*
X2690000Y-6730000I140000J0D01*
G01*
X3030000Y-6730000D01*
G75*
G02*
X3170000Y-6870000I0J-140000D01*
G01*
X3170000Y-7150000D01*
G75*
G02*
X3030000Y-7290000I-140000J0D01*
G01*
G37*
G04 #@! TD.AperFunction*
G04 #@! TO.P,C2,1*
G04 #@! TO.N,Net-(C2-Pad1)*
G04 #@! TA.AperFunction,SMDPad,CuDef*
G36*
G01*
X3030000Y-8250000D02*
X2690000Y-8250000D01*
G75*
G02*
X2550000Y-8110000I0J140000D01*
G01*
X2550000Y-7830000D01*
G75*
G02*
X2690000Y-7690000I140000J0D01*
G01*
X3030000Y-7690000D01*
G75*
G02*
X3170000Y-7830000I0J-140000D01*
G01*
X3170000Y-8110000D01*
G75*
G02*
X3030000Y-8250000I-140000J0D01*
G01*
G37*
G04 #@! TD.AperFunction*
G04 #@! TD*
D10*
G04 #@! TO.P,U1,45*
G04 #@! TO.N,GND*
X8630000Y-15940000D03*
G04 #@! TO.P,U1,44*
G04 #@! TO.N,+5V*
G04 #@! TA.AperFunction,SMDPad,CuDef*
G36*
G01*
X11492500Y-13315000D02*
X12442500Y-13315000D01*
G75*
G02*
X12505000Y-13377500I0J-62500D01*
G01*
X12505000Y-13502500D01*
G75*
G02*
X12442500Y-13565000I-62500J0D01*
G01*
X11492500Y-13565000D01*
G75*
G02*
X11430000Y-13502500I0J62500D01*
G01*
X11430000Y-13377500D01*
G75*
G02*
X11492500Y-13315000I62500J0D01*
G01*
G37*
G04 #@! TD.AperFunction*
G04 #@! TO.P,U1,43*
G04 #@! TO.N,GND*
G04 #@! TA.AperFunction,SMDPad,CuDef*
G36*
G01*
X11492500Y-13815000D02*
X12442500Y-13815000D01*
G75*
G02*
X12505000Y-13877500I0J-62500D01*
G01*
X12505000Y-14002500D01*
G75*
G02*
X12442500Y-14065000I-62500J0D01*
G01*
X11492500Y-14065000D01*
G75*
G02*
X11430000Y-14002500I0J62500D01*
G01*
X11430000Y-13877500D01*
G75*
G02*
X11492500Y-13815000I62500J0D01*
G01*
G37*
G04 #@! TD.AperFunction*
G04 #@! TO.P,U1,42*
G04 #@! TO.N,+5V*
G04 #@! TA.AperFunction,SMDPad,CuDef*
G36*
G01*
X11492500Y-14315000D02*
X12442500Y-14315000D01*
G75*
G02*
X12505000Y-14377500I0J-62500D01*
G01*
X12505000Y-14502500D01*
G75*
G02*
X12442500Y-14565000I-62500J0D01*
G01*
X11492500Y-14565000D01*
G75*
G02*
X11430000Y-14502500I0J62500D01*
G01*
X11430000Y-14377500D01*
G75*
G02*
X11492500Y-14315000I62500J0D01*
G01*
G37*
G04 #@! TD.AperFunction*
G04 #@! TO.P,U1,41*
G04 #@! TO.N,N/C*
G04 #@! TA.AperFunction,SMDPad,CuDef*
G36*
G01*
X11492500Y-14815000D02*
X12442500Y-14815000D01*
G75*
G02*
X12505000Y-14877500I0J-62500D01*
G01*
X12505000Y-15002500D01*
G75*
G02*
X12442500Y-15065000I-62500J0D01*
G01*
X11492500Y-15065000D01*
G75*
G02*
X11430000Y-15002500I0J62500D01*
G01*
X11430000Y-14877500D01*
G75*
G02*
X11492500Y-14815000I62500J0D01*
G01*
G37*
G04 #@! TD.AperFunction*
G04 #@! TO.P,U1,40*
G04 #@! TA.AperFunction,SMDPad,CuDef*
G36*
G01*
X11492500Y-15315000D02*
X12442500Y-15315000D01*
G75*
G02*
X12505000Y-15377500I0J-62500D01*
G01*
X12505000Y-15502500D01*
G75*
G02*
X12442500Y-15565000I-62500J0D01*
G01*
X11492500Y-15565000D01*
G75*
G02*
X11430000Y-15502500I0J62500D01*
G01*
X11430000Y-15377500D01*
G75*
G02*
X11492500Y-15315000I62500J0D01*
G01*
G37*
G04 #@! TD.AperFunction*
G04 #@! TO.P,U1,39*
G04 #@! TA.AperFunction,SMDPad,CuDef*
G36*
G01*
X11492500Y-15815000D02*
X12442500Y-15815000D01*
G75*
G02*
X12505000Y-15877500I0J-62500D01*
G01*
X12505000Y-16002500D01*
G75*
G02*
X12442500Y-16065000I-62500J0D01*
G01*
X11492500Y-16065000D01*
G75*
G02*
X11430000Y-16002500I0J62500D01*
G01*
X11430000Y-15877500D01*
G75*
G02*
X11492500Y-15815000I62500J0D01*
G01*
G37*
G04 #@! TD.AperFunction*
G04 #@! TO.P,U1,38*
G04 #@! TA.AperFunction,SMDPad,CuDef*
G36*
G01*
X11492500Y-16315000D02*
X12442500Y-16315000D01*
G75*
G02*
X12505000Y-16377500I0J-62500D01*
G01*
X12505000Y-16502500D01*
G75*
G02*
X12442500Y-16565000I-62500J0D01*
G01*
X11492500Y-16565000D01*
G75*
G02*
X11430000Y-16502500I0J62500D01*
G01*
X11430000Y-16377500D01*
G75*
G02*
X11492500Y-16315000I62500J0D01*
G01*
G37*
G04 #@! TD.AperFunction*
G04 #@! TO.P,U1,37*
G04 #@! TA.AperFunction,SMDPad,CuDef*
G36*
G01*
X11492500Y-16815000D02*
X12442500Y-16815000D01*
G75*
G02*
X12505000Y-16877500I0J-62500D01*
G01*
X12505000Y-17002500D01*
G75*
G02*
X12442500Y-17065000I-62500J0D01*
G01*
X11492500Y-17065000D01*
G75*
G02*
X11430000Y-17002500I0J62500D01*
G01*
X11430000Y-16877500D01*
G75*
G02*
X11492500Y-16815000I62500J0D01*
G01*
G37*
G04 #@! TD.AperFunction*
G04 #@! TO.P,U1,36*
G04 #@! TA.AperFunction,SMDPad,CuDef*
G36*
G01*
X11492500Y-17315000D02*
X12442500Y-17315000D01*
G75*
G02*
X12505000Y-17377500I0J-62500D01*
G01*
X12505000Y-17502500D01*
G75*
G02*
X12442500Y-17565000I-62500J0D01*
G01*
X11492500Y-17565000D01*
G75*
G02*
X11430000Y-17502500I0J62500D01*
G01*
X11430000Y-17377500D01*
G75*
G02*
X11492500Y-17315000I62500J0D01*
G01*
G37*
G04 #@! TD.AperFunction*
G04 #@! TO.P,U1,35*
G04 #@! TO.N,GND*
G04 #@! TA.AperFunction,SMDPad,CuDef*
G36*
G01*
X11492500Y-17815000D02*
X12442500Y-17815000D01*
G75*
G02*
X12505000Y-17877500I0J-62500D01*
G01*
X12505000Y-18002500D01*
G75*
G02*
X12442500Y-18065000I-62500J0D01*
G01*
X11492500Y-18065000D01*
G75*
G02*
X11430000Y-18002500I0J62500D01*
G01*
X11430000Y-17877500D01*
G75*
G02*
X11492500Y-17815000I62500J0D01*
G01*
G37*
G04 #@! TD.AperFunction*
G04 #@! TO.P,U1,34*
G04 #@! TO.N,+5V*
G04 #@! TA.AperFunction,SMDPad,CuDef*
G36*
G01*
X11492500Y-18315000D02*
X12442500Y-18315000D01*
G75*
G02*
X12505000Y-18377500I0J-62500D01*
G01*
X12505000Y-18502500D01*
G75*
G02*
X12442500Y-18565000I-62500J0D01*
G01*
X11492500Y-18565000D01*
G75*
G02*
X11430000Y-18502500I0J62500D01*
G01*
X11430000Y-18377500D01*
G75*
G02*
X11492500Y-18315000I62500J0D01*
G01*
G37*
G04 #@! TD.AperFunction*
G04 #@! TO.P,U1,33*
G04 #@! TO.N,N/C*
G04 #@! TA.AperFunction,SMDPad,CuDef*
G36*
G01*
X11067500Y-18740000D02*
X11192500Y-18740000D01*
G75*
G02*
X11255000Y-18802500I0J-62500D01*
G01*
X11255000Y-19752500D01*
G75*
G02*
X11192500Y-19815000I-62500J0D01*
G01*
X11067500Y-19815000D01*
G75*
G02*
X11005000Y-19752500I0J62500D01*
G01*
X11005000Y-18802500D01*
G75*
G02*
X11067500Y-18740000I62500J0D01*
G01*
G37*
G04 #@! TD.AperFunction*
G04 #@! TO.P,U1,32*
G04 #@! TO.N,B-PWM6*
G04 #@! TA.AperFunction,SMDPad,CuDef*
G36*
G01*
X10567500Y-18740000D02*
X10692500Y-18740000D01*
G75*
G02*
X10755000Y-18802500I0J-62500D01*
G01*
X10755000Y-19752500D01*
G75*
G02*
X10692500Y-19815000I-62500J0D01*
G01*
X10567500Y-19815000D01*
G75*
G02*
X10505000Y-19752500I0J62500D01*
G01*
X10505000Y-18802500D01*
G75*
G02*
X10567500Y-18740000I62500J0D01*
G01*
G37*
G04 #@! TD.AperFunction*
G04 #@! TO.P,U1,31*
G04 #@! TO.N,B-PWM1*
G04 #@! TA.AperFunction,SMDPad,CuDef*
G36*
G01*
X10067500Y-18740000D02*
X10192500Y-18740000D01*
G75*
G02*
X10255000Y-18802500I0J-62500D01*
G01*
X10255000Y-19752500D01*
G75*
G02*
X10192500Y-19815000I-62500J0D01*
G01*
X10067500Y-19815000D01*
G75*
G02*
X10005000Y-19752500I0J62500D01*
G01*
X10005000Y-18802500D01*
G75*
G02*
X10067500Y-18740000I62500J0D01*
G01*
G37*
G04 #@! TD.AperFunction*
G04 #@! TO.P,U1,30*
G04 #@! TO.N,B-PWM4*
G04 #@! TA.AperFunction,SMDPad,CuDef*
G36*
G01*
X9567500Y-18740000D02*
X9692500Y-18740000D01*
G75*
G02*
X9755000Y-18802500I0J-62500D01*
G01*
X9755000Y-19752500D01*
G75*
G02*
X9692500Y-19815000I-62500J0D01*
G01*
X9567500Y-19815000D01*
G75*
G02*
X9505000Y-19752500I0J62500D01*
G01*
X9505000Y-18802500D01*
G75*
G02*
X9567500Y-18740000I62500J0D01*
G01*
G37*
G04 #@! TD.AperFunction*
G04 #@! TO.P,U1,29*
G04 #@! TO.N,B-PWM3*
G04 #@! TA.AperFunction,SMDPad,CuDef*
G36*
G01*
X9067500Y-18740000D02*
X9192500Y-18740000D01*
G75*
G02*
X9255000Y-18802500I0J-62500D01*
G01*
X9255000Y-19752500D01*
G75*
G02*
X9192500Y-19815000I-62500J0D01*
G01*
X9067500Y-19815000D01*
G75*
G02*
X9005000Y-19752500I0J62500D01*
G01*
X9005000Y-18802500D01*
G75*
G02*
X9067500Y-18740000I62500J0D01*
G01*
G37*
G04 #@! TD.AperFunction*
G04 #@! TO.P,U1,28*
G04 #@! TO.N,N/C*
G04 #@! TA.AperFunction,SMDPad,CuDef*
G36*
G01*
X8567500Y-18740000D02*
X8692500Y-18740000D01*
G75*
G02*
X8755000Y-18802500I0J-62500D01*
G01*
X8755000Y-19752500D01*
G75*
G02*
X8692500Y-19815000I-62500J0D01*
G01*
X8567500Y-19815000D01*
G75*
G02*
X8505000Y-19752500I0J62500D01*
G01*
X8505000Y-18802500D01*
G75*
G02*
X8567500Y-18740000I62500J0D01*
G01*
G37*
G04 #@! TD.AperFunction*
G04 #@! TO.P,U1,27*
G04 #@! TO.N,B-PWM2*
G04 #@! TA.AperFunction,SMDPad,CuDef*
G36*
G01*
X8067500Y-18740000D02*
X8192500Y-18740000D01*
G75*
G02*
X8255000Y-18802500I0J-62500D01*
G01*
X8255000Y-19752500D01*
G75*
G02*
X8192500Y-19815000I-62500J0D01*
G01*
X8067500Y-19815000D01*
G75*
G02*
X8005000Y-19752500I0J62500D01*
G01*
X8005000Y-18802500D01*
G75*
G02*
X8067500Y-18740000I62500J0D01*
G01*
G37*
G04 #@! TD.AperFunction*
G04 #@! TO.P,U1,26*
G04 #@! TO.N,N/C*
G04 #@! TA.AperFunction,SMDPad,CuDef*
G36*
G01*
X7567500Y-18740000D02*
X7692500Y-18740000D01*
G75*
G02*
X7755000Y-18802500I0J-62500D01*
G01*
X7755000Y-19752500D01*
G75*
G02*
X7692500Y-19815000I-62500J0D01*
G01*
X7567500Y-19815000D01*
G75*
G02*
X7505000Y-19752500I0J62500D01*
G01*
X7505000Y-18802500D01*
G75*
G02*
X7567500Y-18740000I62500J0D01*
G01*
G37*
G04 #@! TD.AperFunction*
G04 #@! TO.P,U1,25*
G04 #@! TA.AperFunction,SMDPad,CuDef*
G36*
G01*
X7067500Y-18740000D02*
X7192500Y-18740000D01*
G75*
G02*
X7255000Y-18802500I0J-62500D01*
G01*
X7255000Y-19752500D01*
G75*
G02*
X7192500Y-19815000I-62500J0D01*
G01*
X7067500Y-19815000D01*
G75*
G02*
X7005000Y-19752500I0J62500D01*
G01*
X7005000Y-18802500D01*
G75*
G02*
X7067500Y-18740000I62500J0D01*
G01*
G37*
G04 #@! TD.AperFunction*
G04 #@! TO.P,U1,24*
G04 #@! TO.N,+5V*
G04 #@! TA.AperFunction,SMDPad,CuDef*
G36*
G01*
X6567500Y-18740000D02*
X6692500Y-18740000D01*
G75*
G02*
X6755000Y-18802500I0J-62500D01*
G01*
X6755000Y-19752500D01*
G75*
G02*
X6692500Y-19815000I-62500J0D01*
G01*
X6567500Y-19815000D01*
G75*
G02*
X6505000Y-19752500I0J62500D01*
G01*
X6505000Y-18802500D01*
G75*
G02*
X6567500Y-18740000I62500J0D01*
G01*
G37*
G04 #@! TD.AperFunction*
G04 #@! TO.P,U1,23*
G04 #@! TO.N,GND*
G04 #@! TA.AperFunction,SMDPad,CuDef*
G36*
G01*
X6067500Y-18740000D02*
X6192500Y-18740000D01*
G75*
G02*
X6255000Y-18802500I0J-62500D01*
G01*
X6255000Y-19752500D01*
G75*
G02*
X6192500Y-19815000I-62500J0D01*
G01*
X6067500Y-19815000D01*
G75*
G02*
X6005000Y-19752500I0J62500D01*
G01*
X6005000Y-18802500D01*
G75*
G02*
X6067500Y-18740000I62500J0D01*
G01*
G37*
G04 #@! TD.AperFunction*
G04 #@! TO.P,U1,22*
G04 #@! TO.N,TX1LED*
G04 #@! TA.AperFunction,SMDPad,CuDef*
G36*
G01*
X4817500Y-18315000D02*
X5767500Y-18315000D01*
G75*
G02*
X5830000Y-18377500I0J-62500D01*
G01*
X5830000Y-18502500D01*
G75*
G02*
X5767500Y-18565000I-62500J0D01*
G01*
X4817500Y-18565000D01*
G75*
G02*
X4755000Y-18502500I0J62500D01*
G01*
X4755000Y-18377500D01*
G75*
G02*
X4817500Y-18315000I62500J0D01*
G01*
G37*
G04 #@! TD.AperFunction*
G04 #@! TO.P,U1,21*
G04 #@! TO.N,TX1*
G04 #@! TA.AperFunction,SMDPad,CuDef*
G36*
G01*
X4817500Y-17815000D02*
X5767500Y-17815000D01*
G75*
G02*
X5830000Y-17877500I0J-62500D01*
G01*
X5830000Y-18002500D01*
G75*
G02*
X5767500Y-18065000I-62500J0D01*
G01*
X4817500Y-18065000D01*
G75*
G02*
X4755000Y-18002500I0J62500D01*
G01*
X4755000Y-17877500D01*
G75*
G02*
X4817500Y-17815000I62500J0D01*
G01*
G37*
G04 #@! TD.AperFunction*
G04 #@! TO.P,U1,20*
G04 #@! TO.N,RX1*
G04 #@! TA.AperFunction,SMDPad,CuDef*
G36*
G01*
X4817500Y-17315000D02*
X5767500Y-17315000D01*
G75*
G02*
X5830000Y-17377500I0J-62500D01*
G01*
X5830000Y-17502500D01*
G75*
G02*
X5767500Y-17565000I-62500J0D01*
G01*
X4817500Y-17565000D01*
G75*
G02*
X4755000Y-17502500I0J62500D01*
G01*
X4755000Y-17377500D01*
G75*
G02*
X4817500Y-17315000I62500J0D01*
G01*
G37*
G04 #@! TD.AperFunction*
G04 #@! TO.P,U1,19*
G04 #@! TO.N,SDA1*
G04 #@! TA.AperFunction,SMDPad,CuDef*
G36*
G01*
X4817500Y-16815000D02*
X5767500Y-16815000D01*
G75*
G02*
X5830000Y-16877500I0J-62500D01*
G01*
X5830000Y-17002500D01*
G75*
G02*
X5767500Y-17065000I-62500J0D01*
G01*
X4817500Y-17065000D01*
G75*
G02*
X4755000Y-17002500I0J62500D01*
G01*
X4755000Y-16877500D01*
G75*
G02*
X4817500Y-16815000I62500J0D01*
G01*
G37*
G04 #@! TD.AperFunction*
G04 #@! TO.P,U1,18*
G04 #@! TO.N,SCL1*
G04 #@! TA.AperFunction,SMDPad,CuDef*
G36*
G01*
X4817500Y-16315000D02*
X5767500Y-16315000D01*
G75*
G02*
X5830000Y-16377500I0J-62500D01*
G01*
X5830000Y-16502500D01*
G75*
G02*
X5767500Y-16565000I-62500J0D01*
G01*
X4817500Y-16565000D01*
G75*
G02*
X4755000Y-16502500I0J62500D01*
G01*
X4755000Y-16377500D01*
G75*
G02*
X4817500Y-16315000I62500J0D01*
G01*
G37*
G04 #@! TD.AperFunction*
G04 #@! TO.P,U1,17*
G04 #@! TO.N,Net-(C1-Pad1)*
G04 #@! TA.AperFunction,SMDPad,CuDef*
G36*
G01*
X4817500Y-15815000D02*
X5767500Y-15815000D01*
G75*
G02*
X5830000Y-15877500I0J-62500D01*
G01*
X5830000Y-16002500D01*
G75*
G02*
X5767500Y-16065000I-62500J0D01*
G01*
X4817500Y-16065000D01*
G75*
G02*
X4755000Y-16002500I0J62500D01*
G01*
X4755000Y-15877500D01*
G75*
G02*
X4817500Y-15815000I62500J0D01*
G01*
G37*
G04 #@! TD.AperFunction*
G04 #@! TO.P,U1,16*
G04 #@! TO.N,Net-(C2-Pad1)*
G04 #@! TA.AperFunction,SMDPad,CuDef*
G36*
G01*
X4817500Y-15315000D02*
X5767500Y-15315000D01*
G75*
G02*
X5830000Y-15377500I0J-62500D01*
G01*
X5830000Y-15502500D01*
G75*
G02*
X5767500Y-15565000I-62500J0D01*
G01*
X4817500Y-15565000D01*
G75*
G02*
X4755000Y-15502500I0J62500D01*
G01*
X4755000Y-15377500D01*
G75*
G02*
X4817500Y-15315000I62500J0D01*
G01*
G37*
G04 #@! TD.AperFunction*
G04 #@! TO.P,U1,15*
G04 #@! TO.N,GND*
G04 #@! TA.AperFunction,SMDPad,CuDef*
G36*
G01*
X4817500Y-14815000D02*
X5767500Y-14815000D01*
G75*
G02*
X5830000Y-14877500I0J-62500D01*
G01*
X5830000Y-15002500D01*
G75*
G02*
X5767500Y-15065000I-62500J0D01*
G01*
X4817500Y-15065000D01*
G75*
G02*
X4755000Y-15002500I0J62500D01*
G01*
X4755000Y-14877500D01*
G75*
G02*
X4817500Y-14815000I62500J0D01*
G01*
G37*
G04 #@! TD.AperFunction*
G04 #@! TO.P,U1,14*
G04 #@! TO.N,+5V*
G04 #@! TA.AperFunction,SMDPad,CuDef*
G36*
G01*
X4817500Y-14315000D02*
X5767500Y-14315000D01*
G75*
G02*
X5830000Y-14377500I0J-62500D01*
G01*
X5830000Y-14502500D01*
G75*
G02*
X5767500Y-14565000I-62500J0D01*
G01*
X4817500Y-14565000D01*
G75*
G02*
X4755000Y-14502500I0J62500D01*
G01*
X4755000Y-14377500D01*
G75*
G02*
X4817500Y-14315000I62500J0D01*
G01*
G37*
G04 #@! TD.AperFunction*
G04 #@! TO.P,U1,13*
G04 #@! TO.N,Net-(J1-Pad8)*
G04 #@! TA.AperFunction,SMDPad,CuDef*
G36*
G01*
X4817500Y-13815000D02*
X5767500Y-13815000D01*
G75*
G02*
X5830000Y-13877500I0J-62500D01*
G01*
X5830000Y-14002500D01*
G75*
G02*
X5767500Y-14065000I-62500J0D01*
G01*
X4817500Y-14065000D01*
G75*
G02*
X4755000Y-14002500I0J62500D01*
G01*
X4755000Y-13877500D01*
G75*
G02*
X4817500Y-13815000I62500J0D01*
G01*
G37*
G04 #@! TD.AperFunction*
G04 #@! TO.P,U1,12*
G04 #@! TO.N,B-PWM5*
G04 #@! TA.AperFunction,SMDPad,CuDef*
G36*
G01*
X4817500Y-13315000D02*
X5767500Y-13315000D01*
G75*
G02*
X5830000Y-13377500I0J-62500D01*
G01*
X5830000Y-13502500D01*
G75*
G02*
X5767500Y-13565000I-62500J0D01*
G01*
X4817500Y-13565000D01*
G75*
G02*
X4755000Y-13502500I0J62500D01*
G01*
X4755000Y-13377500D01*
G75*
G02*
X4817500Y-13315000I62500J0D01*
G01*
G37*
G04 #@! TD.AperFunction*
G04 #@! TO.P,U1,11*
G04 #@! TO.N,MISO*
G04 #@! TA.AperFunction,SMDPad,CuDef*
G36*
G01*
X6067500Y-12065000D02*
X6192500Y-12065000D01*
G75*
G02*
X6255000Y-12127500I0J-62500D01*
G01*
X6255000Y-13077500D01*
G75*
G02*
X6192500Y-13140000I-62500J0D01*
G01*
X6067500Y-13140000D01*
G75*
G02*
X6005000Y-13077500I0J62500D01*
G01*
X6005000Y-12127500D01*
G75*
G02*
X6067500Y-12065000I62500J0D01*
G01*
G37*
G04 #@! TD.AperFunction*
G04 #@! TO.P,U1,10*
G04 #@! TO.N,MOSI*
G04 #@! TA.AperFunction,SMDPad,CuDef*
G36*
G01*
X6567500Y-12065000D02*
X6692500Y-12065000D01*
G75*
G02*
X6755000Y-12127500I0J-62500D01*
G01*
X6755000Y-13077500D01*
G75*
G02*
X6692500Y-13140000I-62500J0D01*
G01*
X6567500Y-13140000D01*
G75*
G02*
X6505000Y-13077500I0J62500D01*
G01*
X6505000Y-12127500D01*
G75*
G02*
X6567500Y-12065000I62500J0D01*
G01*
G37*
G04 #@! TD.AperFunction*
G04 #@! TO.P,U1,9*
G04 #@! TO.N,SCK*
G04 #@! TA.AperFunction,SMDPad,CuDef*
G36*
G01*
X7067500Y-12065000D02*
X7192500Y-12065000D01*
G75*
G02*
X7255000Y-12127500I0J-62500D01*
G01*
X7255000Y-13077500D01*
G75*
G02*
X7192500Y-13140000I-62500J0D01*
G01*
X7067500Y-13140000D01*
G75*
G02*
X7005000Y-13077500I0J62500D01*
G01*
X7005000Y-12127500D01*
G75*
G02*
X7067500Y-12065000I62500J0D01*
G01*
G37*
G04 #@! TD.AperFunction*
G04 #@! TO.P,U1,8*
G04 #@! TO.N,RX1LED*
G04 #@! TA.AperFunction,SMDPad,CuDef*
G36*
G01*
X7567500Y-12065000D02*
X7692500Y-12065000D01*
G75*
G02*
X7755000Y-12127500I0J-62500D01*
G01*
X7755000Y-13077500D01*
G75*
G02*
X7692500Y-13140000I-62500J0D01*
G01*
X7567500Y-13140000D01*
G75*
G02*
X7505000Y-13077500I0J62500D01*
G01*
X7505000Y-12127500D01*
G75*
G02*
X7567500Y-12065000I62500J0D01*
G01*
G37*
G04 #@! TD.AperFunction*
G04 #@! TO.P,U1,7*
G04 #@! TO.N,+5V*
G04 #@! TA.AperFunction,SMDPad,CuDef*
G36*
G01*
X8067500Y-12065000D02*
X8192500Y-12065000D01*
G75*
G02*
X8255000Y-12127500I0J-62500D01*
G01*
X8255000Y-13077500D01*
G75*
G02*
X8192500Y-13140000I-62500J0D01*
G01*
X8067500Y-13140000D01*
G75*
G02*
X8005000Y-13077500I0J62500D01*
G01*
X8005000Y-12127500D01*
G75*
G02*
X8067500Y-12065000I62500J0D01*
G01*
G37*
G04 #@! TD.AperFunction*
G04 #@! TO.P,U1,6*
G04 #@! TO.N,Net-(C4-Pad1)*
G04 #@! TA.AperFunction,SMDPad,CuDef*
G36*
G01*
X8567500Y-12065000D02*
X8692500Y-12065000D01*
G75*
G02*
X8755000Y-12127500I0J-62500D01*
G01*
X8755000Y-13077500D01*
G75*
G02*
X8692500Y-13140000I-62500J0D01*
G01*
X8567500Y-13140000D01*
G75*
G02*
X8505000Y-13077500I0J62500D01*
G01*
X8505000Y-12127500D01*
G75*
G02*
X8567500Y-12065000I62500J0D01*
G01*
G37*
G04 #@! TD.AperFunction*
G04 #@! TO.P,U1,5*
G04 #@! TO.N,GND*
G04 #@! TA.AperFunction,SMDPad,CuDef*
G36*
G01*
X9067500Y-12065000D02*
X9192500Y-12065000D01*
G75*
G02*
X9255000Y-12127500I0J-62500D01*
G01*
X9255000Y-13077500D01*
G75*
G02*
X9192500Y-13140000I-62500J0D01*
G01*
X9067500Y-13140000D01*
G75*
G02*
X9005000Y-13077500I0J62500D01*
G01*
X9005000Y-12127500D01*
G75*
G02*
X9067500Y-12065000I62500J0D01*
G01*
G37*
G04 #@! TD.AperFunction*
G04 #@! TO.P,U1,4*
G04 #@! TO.N,Net-(R20-Pad1)*
G04 #@! TA.AperFunction,SMDPad,CuDef*
G36*
G01*
X9567500Y-12065000D02*
X9692500Y-12065000D01*
G75*
G02*
X9755000Y-12127500I0J-62500D01*
G01*
X9755000Y-13077500D01*
G75*
G02*
X9692500Y-13140000I-62500J0D01*
G01*
X9567500Y-13140000D01*
G75*
G02*
X9505000Y-13077500I0J62500D01*
G01*
X9505000Y-12127500D01*
G75*
G02*
X9567500Y-12065000I62500J0D01*
G01*
G37*
G04 #@! TD.AperFunction*
G04 #@! TO.P,U1,3*
G04 #@! TO.N,Net-(R21-Pad1)*
G04 #@! TA.AperFunction,SMDPad,CuDef*
G36*
G01*
X10067500Y-12065000D02*
X10192500Y-12065000D01*
G75*
G02*
X10255000Y-12127500I0J-62500D01*
G01*
X10255000Y-13077500D01*
G75*
G02*
X10192500Y-13140000I-62500J0D01*
G01*
X10067500Y-13140000D01*
G75*
G02*
X10005000Y-13077500I0J62500D01*
G01*
X10005000Y-12127500D01*
G75*
G02*
X10067500Y-12065000I62500J0D01*
G01*
G37*
G04 #@! TD.AperFunction*
G04 #@! TO.P,U1,2*
G04 #@! TO.N,+5V*
G04 #@! TA.AperFunction,SMDPad,CuDef*
G36*
G01*
X10567500Y-12065000D02*
X10692500Y-12065000D01*
G75*
G02*
X10755000Y-12127500I0J-62500D01*
G01*
X10755000Y-13077500D01*
G75*
G02*
X10692500Y-13140000I-62500J0D01*
G01*
X10567500Y-13140000D01*
G75*
G02*
X10505000Y-13077500I0J62500D01*
G01*
X10505000Y-12127500D01*
G75*
G02*
X10567500Y-12065000I62500J0D01*
G01*
G37*
G04 #@! TD.AperFunction*
G04 #@! TO.P,U1,1*
G04 #@! TO.N,N/C*
G04 #@! TA.AperFunction,SMDPad,CuDef*
G36*
G01*
X11067500Y-12065000D02*
X11192500Y-12065000D01*
G75*
G02*
X11255000Y-12127500I0J-62500D01*
G01*
X11255000Y-13077500D01*
G75*
G02*
X11192500Y-13140000I-62500J0D01*
G01*
X11067500Y-13140000D01*
G75*
G02*
X11005000Y-13077500I0J62500D01*
G01*
X11005000Y-12127500D01*
G75*
G02*
X11067500Y-12065000I62500J0D01*
G01*
G37*
G04 #@! TD.AperFunction*
G04 #@! TD*
G04 #@! TO.P,R21,2*
G04 #@! TO.N,Net-(J2-Pad2)*
G04 #@! TA.AperFunction,SMDPad,CuDef*
G36*
G01*
X9385000Y-7560000D02*
X9015000Y-7560000D01*
G75*
G02*
X8880000Y-7425000I0J135000D01*
G01*
X8880000Y-7155000D01*
G75*
G02*
X9015000Y-7020000I135000J0D01*
G01*
X9385000Y-7020000D01*
G75*
G02*
X9520000Y-7155000I0J-135000D01*
G01*
X9520000Y-7425000D01*
G75*
G02*
X9385000Y-7560000I-135000J0D01*
G01*
G37*
G04 #@! TD.AperFunction*
G04 #@! TO.P,R21,1*
G04 #@! TO.N,Net-(R21-Pad1)*
G04 #@! TA.AperFunction,SMDPad,CuDef*
G36*
G01*
X9385000Y-8580000D02*
X9015000Y-8580000D01*
G75*
G02*
X8880000Y-8445000I0J135000D01*
G01*
X8880000Y-8175000D01*
G75*
G02*
X9015000Y-8040000I135000J0D01*
G01*
X9385000Y-8040000D01*
G75*
G02*
X9520000Y-8175000I0J-135000D01*
G01*
X9520000Y-8445000D01*
G75*
G02*
X9385000Y-8580000I-135000J0D01*
G01*
G37*
G04 #@! TD.AperFunction*
G04 #@! TD*
G04 #@! TO.P,R20,2*
G04 #@! TO.N,Net-(J2-Pad3)*
G04 #@! TA.AperFunction,SMDPad,CuDef*
G36*
G01*
X8385000Y-7560000D02*
X8015000Y-7560000D01*
G75*
G02*
X7880000Y-7425000I0J135000D01*
G01*
X7880000Y-7155000D01*
G75*
G02*
X8015000Y-7020000I135000J0D01*
G01*
X8385000Y-7020000D01*
G75*
G02*
X8520000Y-7155000I0J-135000D01*
G01*
X8520000Y-7425000D01*
G75*
G02*
X8385000Y-7560000I-135000J0D01*
G01*
G37*
G04 #@! TD.AperFunction*
G04 #@! TO.P,R20,1*
G04 #@! TO.N,Net-(R20-Pad1)*
G04 #@! TA.AperFunction,SMDPad,CuDef*
G36*
G01*
X8385000Y-8580000D02*
X8015000Y-8580000D01*
G75*
G02*
X7880000Y-8445000I0J135000D01*
G01*
X7880000Y-8175000D01*
G75*
G02*
X8015000Y-8040000I135000J0D01*
G01*
X8385000Y-8040000D01*
G75*
G02*
X8520000Y-8175000I0J-135000D01*
G01*
X8520000Y-8445000D01*
G75*
G02*
X8385000Y-8580000I-135000J0D01*
G01*
G37*
G04 #@! TD.AperFunction*
G04 #@! TD*
G04 #@! TO.P,R13,2*
G04 #@! TO.N,+5V*
G04 #@! TA.AperFunction,SMDPad,CuDef*
G36*
G01*
X11385000Y-7560000D02*
X11015000Y-7560000D01*
G75*
G02*
X10880000Y-7425000I0J135000D01*
G01*
X10880000Y-7155000D01*
G75*
G02*
X11015000Y-7020000I135000J0D01*
G01*
X11385000Y-7020000D01*
G75*
G02*
X11520000Y-7155000I0J-135000D01*
G01*
X11520000Y-7425000D01*
G75*
G02*
X11385000Y-7560000I-135000J0D01*
G01*
G37*
G04 #@! TD.AperFunction*
G04 #@! TO.P,R13,1*
G04 #@! TO.N,Net-(D5-Pad2)*
G04 #@! TA.AperFunction,SMDPad,CuDef*
G36*
G01*
X11385000Y-8580000D02*
X11015000Y-8580000D01*
G75*
G02*
X10880000Y-8445000I0J135000D01*
G01*
X10880000Y-8175000D01*
G75*
G02*
X11015000Y-8040000I135000J0D01*
G01*
X11385000Y-8040000D01*
G75*
G02*
X11520000Y-8175000I0J-135000D01*
G01*
X11520000Y-8445000D01*
G75*
G02*
X11385000Y-8580000I-135000J0D01*
G01*
G37*
G04 #@! TD.AperFunction*
G04 #@! TD*
G04 #@! TO.P,R12,2*
G04 #@! TO.N,+5V*
G04 #@! TA.AperFunction,SMDPad,CuDef*
G36*
G01*
X12385000Y-7560000D02*
X12015000Y-7560000D01*
G75*
G02*
X11880000Y-7425000I0J135000D01*
G01*
X11880000Y-7155000D01*
G75*
G02*
X12015000Y-7020000I135000J0D01*
G01*
X12385000Y-7020000D01*
G75*
G02*
X12520000Y-7155000I0J-135000D01*
G01*
X12520000Y-7425000D01*
G75*
G02*
X12385000Y-7560000I-135000J0D01*
G01*
G37*
G04 #@! TD.AperFunction*
G04 #@! TO.P,R12,1*
G04 #@! TO.N,Net-(D4-Pad2)*
G04 #@! TA.AperFunction,SMDPad,CuDef*
G36*
G01*
X12385000Y-8580000D02*
X12015000Y-8580000D01*
G75*
G02*
X11880000Y-8445000I0J135000D01*
G01*
X11880000Y-8175000D01*
G75*
G02*
X12015000Y-8040000I135000J0D01*
G01*
X12385000Y-8040000D01*
G75*
G02*
X12520000Y-8175000I0J-135000D01*
G01*
X12520000Y-8445000D01*
G75*
G02*
X12385000Y-8580000I-135000J0D01*
G01*
G37*
G04 #@! TD.AperFunction*
G04 #@! TD*
G04 #@! TO.P,R11,2*
G04 #@! TO.N,+5V*
G04 #@! TA.AperFunction,SMDPad,CuDef*
G36*
G01*
X10385000Y-7560000D02*
X10015000Y-7560000D01*
G75*
G02*
X9880000Y-7425000I0J135000D01*
G01*
X9880000Y-7155000D01*
G75*
G02*
X10015000Y-7020000I135000J0D01*
G01*
X10385000Y-7020000D01*
G75*
G02*
X10520000Y-7155000I0J-135000D01*
G01*
X10520000Y-7425000D01*
G75*
G02*
X10385000Y-7560000I-135000J0D01*
G01*
G37*
G04 #@! TD.AperFunction*
G04 #@! TO.P,R11,1*
G04 #@! TO.N,Net-(D3-Pad2)*
G04 #@! TA.AperFunction,SMDPad,CuDef*
G36*
G01*
X10385000Y-8580000D02*
X10015000Y-8580000D01*
G75*
G02*
X9880000Y-8445000I0J135000D01*
G01*
X9880000Y-8175000D01*
G75*
G02*
X10015000Y-8040000I135000J0D01*
G01*
X10385000Y-8040000D01*
G75*
G02*
X10520000Y-8175000I0J-135000D01*
G01*
X10520000Y-8445000D01*
G75*
G02*
X10385000Y-8580000I-135000J0D01*
G01*
G37*
G04 #@! TD.AperFunction*
G04 #@! TD*
D11*
G04 #@! TO.P,J3,8*
G04 #@! TO.N,SDA1*
X15600000Y-19360000D03*
G04 #@! TO.P,J3,7*
G04 #@! TO.N,SCL1*
X15600000Y-16820000D03*
G04 #@! TO.P,J3,6*
G04 #@! TO.N,B-PWM1*
X15600000Y-14280000D03*
G04 #@! TO.P,J3,5*
G04 #@! TO.N,B-PWM6*
X15600000Y-11740000D03*
G04 #@! TO.P,J3,4*
G04 #@! TO.N,B-PWM4*
X15600000Y-9200000D03*
G04 #@! TO.P,J3,3*
G04 #@! TO.N,B-PWM3*
X15600000Y-6660000D03*
G04 #@! TO.P,J3,2*
G04 #@! TO.N,B-PWM2*
X15600000Y-4120000D03*
D12*
G04 #@! TO.P,J3,1*
G04 #@! TO.N,B-PWM5*
X15600000Y-1580000D03*
G04 #@! TD*
D11*
G04 #@! TO.P,J1,8*
G04 #@! TO.N,Net-(J1-Pad8)*
X400000Y-19380000D03*
G04 #@! TO.P,J1,7*
G04 #@! TO.N,TX1*
X400000Y-16840000D03*
G04 #@! TO.P,J1,6*
G04 #@! TO.N,RX1*
X400000Y-14300000D03*
G04 #@! TO.P,J1,5*
G04 #@! TO.N,MISO*
X400000Y-11760000D03*
G04 #@! TO.P,J1,4*
G04 #@! TO.N,MOSI*
X400000Y-9220000D03*
G04 #@! TO.P,J1,3*
G04 #@! TO.N,SCK*
X400000Y-6680000D03*
G04 #@! TO.P,J1,2*
G04 #@! TO.N,GND*
X400000Y-4140000D03*
D12*
G04 #@! TO.P,J1,1*
G04 #@! TO.N,+5V*
X400000Y-1600000D03*
G04 #@! TD*
G04 #@! TO.P,D5,2*
G04 #@! TO.N,Net-(D5-Pad2)*
G04 #@! TA.AperFunction,SMDPad,CuDef*
G36*
G01*
X11372500Y-9610000D02*
X11027500Y-9610000D01*
G75*
G02*
X10880000Y-9462500I0J147500D01*
G01*
X10880000Y-9167500D01*
G75*
G02*
X11027500Y-9020000I147500J0D01*
G01*
X11372500Y-9020000D01*
G75*
G02*
X11520000Y-9167500I0J-147500D01*
G01*
X11520000Y-9462500D01*
G75*
G02*
X11372500Y-9610000I-147500J0D01*
G01*
G37*
G04 #@! TD.AperFunction*
G04 #@! TO.P,D5,1*
G04 #@! TO.N,TX1LED*
G04 #@! TA.AperFunction,SMDPad,CuDef*
G36*
G01*
X11372500Y-10580000D02*
X11027500Y-10580000D01*
G75*
G02*
X10880000Y-10432500I0J147500D01*
G01*
X10880000Y-10137500D01*
G75*
G02*
X11027500Y-9990000I147500J0D01*
G01*
X11372500Y-9990000D01*
G75*
G02*
X11520000Y-10137500I0J-147500D01*
G01*
X11520000Y-10432500D01*
G75*
G02*
X11372500Y-10580000I-147500J0D01*
G01*
G37*
G04 #@! TD.AperFunction*
G04 #@! TD*
G04 #@! TO.P,D4,2*
G04 #@! TO.N,Net-(D4-Pad2)*
G04 #@! TA.AperFunction,SMDPad,CuDef*
G36*
G01*
X12372500Y-9610000D02*
X12027500Y-9610000D01*
G75*
G02*
X11880000Y-9462500I0J147500D01*
G01*
X11880000Y-9167500D01*
G75*
G02*
X12027500Y-9020000I147500J0D01*
G01*
X12372500Y-9020000D01*
G75*
G02*
X12520000Y-9167500I0J-147500D01*
G01*
X12520000Y-9462500D01*
G75*
G02*
X12372500Y-9610000I-147500J0D01*
G01*
G37*
G04 #@! TD.AperFunction*
G04 #@! TO.P,D4,1*
G04 #@! TO.N,RX1LED*
G04 #@! TA.AperFunction,SMDPad,CuDef*
G36*
G01*
X12372500Y-10580000D02*
X12027500Y-10580000D01*
G75*
G02*
X11880000Y-10432500I0J147500D01*
G01*
X11880000Y-10137500D01*
G75*
G02*
X12027500Y-9990000I147500J0D01*
G01*
X12372500Y-9990000D01*
G75*
G02*
X12520000Y-10137500I0J-147500D01*
G01*
X12520000Y-10432500D01*
G75*
G02*
X12372500Y-10580000I-147500J0D01*
G01*
G37*
G04 #@! TD.AperFunction*
G04 #@! TD*
G04 #@! TO.P,D3,2*
G04 #@! TO.N,Net-(D3-Pad2)*
G04 #@! TA.AperFunction,SMDPad,CuDef*
G36*
G01*
X10372500Y-9610000D02*
X10027500Y-9610000D01*
G75*
G02*
X9880000Y-9462500I0J147500D01*
G01*
X9880000Y-9167500D01*
G75*
G02*
X10027500Y-9020000I147500J0D01*
G01*
X10372500Y-9020000D01*
G75*
G02*
X10520000Y-9167500I0J-147500D01*
G01*
X10520000Y-9462500D01*
G75*
G02*
X10372500Y-9610000I-147500J0D01*
G01*
G37*
G04 #@! TD.AperFunction*
G04 #@! TO.P,D3,1*
G04 #@! TO.N,GND*
G04 #@! TA.AperFunction,SMDPad,CuDef*
G36*
G01*
X10372500Y-10580000D02*
X10027500Y-10580000D01*
G75*
G02*
X9880000Y-10432500I0J147500D01*
G01*
X9880000Y-10137500D01*
G75*
G02*
X10027500Y-9990000I147500J0D01*
G01*
X10372500Y-9990000D01*
G75*
G02*
X10520000Y-10137500I0J-147500D01*
G01*
X10520000Y-10432500D01*
G75*
G02*
X10372500Y-10580000I-147500J0D01*
G01*
G37*
G04 #@! TD.AperFunction*
G04 #@! TD*
G04 #@! TO.P,C4,2*
G04 #@! TO.N,GND*
G04 #@! TA.AperFunction,SMDPad,CuDef*
G36*
G01*
X8570000Y-9750000D02*
X8230000Y-9750000D01*
G75*
G02*
X8090000Y-9610000I0J140000D01*
G01*
X8090000Y-9330000D01*
G75*
G02*
X8230000Y-9190000I140000J0D01*
G01*
X8570000Y-9190000D01*
G75*
G02*
X8710000Y-9330000I0J-140000D01*
G01*
X8710000Y-9610000D01*
G75*
G02*
X8570000Y-9750000I-140000J0D01*
G01*
G37*
G04 #@! TD.AperFunction*
G04 #@! TO.P,C4,1*
G04 #@! TO.N,Net-(C4-Pad1)*
G04 #@! TA.AperFunction,SMDPad,CuDef*
G36*
G01*
X8570000Y-10710000D02*
X8230000Y-10710000D01*
G75*
G02*
X8090000Y-10570000I0J140000D01*
G01*
X8090000Y-10290000D01*
G75*
G02*
X8230000Y-10150000I140000J0D01*
G01*
X8570000Y-10150000D01*
G75*
G02*
X8710000Y-10290000I0J-140000D01*
G01*
X8710000Y-10570000D01*
G75*
G02*
X8570000Y-10710000I-140000J0D01*
G01*
G37*
G04 #@! TD.AperFunction*
G04 #@! TD*
G04 #@! TO.P,C1,2*
G04 #@! TO.N,GND*
G04 #@! TA.AperFunction,SMDPad,CuDef*
G36*
G01*
X4520000Y-10670000D02*
X4520000Y-10330000D01*
G75*
G02*
X4660000Y-10190000I140000J0D01*
G01*
X4940000Y-10190000D01*
G75*
G02*
X5080000Y-10330000I0J-140000D01*
G01*
X5080000Y-10670000D01*
G75*
G02*
X4940000Y-10810000I-140000J0D01*
G01*
X4660000Y-10810000D01*
G75*
G02*
X4520000Y-10670000I0J140000D01*
G01*
G37*
G04 #@! TD.AperFunction*
G04 #@! TO.P,C1,1*
G04 #@! TO.N,Net-(C1-Pad1)*
G04 #@! TA.AperFunction,SMDPad,CuDef*
G36*
G01*
X3560000Y-10670000D02*
X3560000Y-10330000D01*
G75*
G02*
X3700000Y-10190000I140000J0D01*
G01*
X3980000Y-10190000D01*
G75*
G02*
X4120000Y-10330000I0J-140000D01*
G01*
X4120000Y-10670000D01*
G75*
G02*
X3980000Y-10810000I-140000J0D01*
G01*
X3700000Y-10810000D01*
G75*
G02*
X3560000Y-10670000I0J140000D01*
G01*
G37*
G04 #@! TD.AperFunction*
G04 #@! TD*
D13*
G04 #@! TO.P,J2,1*
G04 #@! TO.N,N/C*
X9300000Y-5360000D03*
G04 #@! TO.P,J2,2*
G04 #@! TO.N,Net-(J2-Pad2)*
X8650000Y-5360000D03*
G04 #@! TO.P,J2,3*
G04 #@! TO.N,Net-(J2-Pad3)*
X8000000Y-5360000D03*
G04 #@! TO.P,J2,4*
G04 #@! TO.N,N/C*
X7350000Y-5360000D03*
G04 #@! TO.P,J2,5*
G04 #@! TO.N,GND*
X6700000Y-5360000D03*
D14*
G04 #@! TO.P,J2,6*
X10487500Y-5275000D03*
X5512500Y-5275000D03*
D15*
X11375000Y-2700000D03*
X4625000Y-2700000D03*
D16*
X9150000Y-2700000D03*
D17*
X6450000Y-2700000D03*
G04 #@! TD*
D18*
G04 #@! TO.P,Y1,4*
G04 #@! TO.N,GND*
X4400000Y-7450000D03*
G04 #@! TO.P,Y1,3*
G04 #@! TO.N,Net-(C2-Pad1)*
X6600000Y-7450000D03*
G04 #@! TO.P,Y1,2*
G04 #@! TO.N,GND*
X6600000Y-9150000D03*
G04 #@! TO.P,Y1,1*
G04 #@! TO.N,Net-(C1-Pad1)*
X4400000Y-9150000D03*
G04 #@! TD*
D19*
G04 #@! TO.N,GND*
X10700000Y-6560000D03*
X12790000Y-11950000D03*
X4570000Y-19160000D03*
X10240000Y-11070000D03*
X2810000Y-6180000D03*
X13370000Y-840000D03*
X2840000Y-4220000D03*
G04 #@! TO.N,Net-(C1-Pad1)*
X2630000Y-9640000D03*
X2120000Y-15000000D03*
G04 #@! TO.N,Net-(C2-Pad1)*
X2250000Y-8760000D03*
X1590000Y-13100000D03*
D20*
G04 #@! TO.N,+5V*
X2940000Y-12770000D03*
X7440000Y-10390000D03*
X11130000Y-11260000D03*
X1920000Y-19120000D03*
X12170000Y-5960000D03*
D19*
G04 #@! TO.N,B-PWM5*
X5190000Y-12670000D03*
G04 #@! TO.N,B-PWM4*
X12980000Y-19660000D03*
X9700000Y-20500000D03*
G04 #@! TO.N,B-PWM2*
X13150000Y-12800000D03*
X3460000Y-20000000D03*
G04 #@! TO.N,B-PWM3*
X11940000Y-19410000D03*
X8580000Y-20470000D03*
G04 #@! TO.N,RX1LED*
X13300000Y-5270000D03*
X6090000Y-10370000D03*
G04 #@! TO.N,TX1LED*
X5500000Y-19070000D03*
X12330000Y-12800000D03*
G04 #@! TO.N,SDA1*
X3070000Y-16810000D03*
G04 #@! TO.N,SCL1*
X3330000Y-16050000D03*
G04 #@! TO.N,Net-(J1-Pad8)*
X3860000Y-13810000D03*
X3539990Y-18680000D03*
G04 #@! TD*
D21*
G04 #@! TO.N,GND*
X7630000Y-14940000D02*
X8630000Y-15940000D01*
X5292500Y-14940000D02*
X7630000Y-14940000D01*
X6236998Y-9150000D02*
X6600000Y-9150000D01*
X4886998Y-10500000D02*
X6236998Y-9150000D01*
X4800000Y-10500000D02*
X4886998Y-10500000D01*
X6200000Y-9150000D02*
X6600000Y-9150000D01*
X4500000Y-7450000D02*
X6200000Y-9150000D01*
X4400000Y-7450000D02*
X4500000Y-7450000D01*
X2800000Y-6950000D02*
X2860000Y-7010000D01*
X10180000Y-10305000D02*
X10200000Y-10285000D01*
X10240000Y-10325000D02*
X10200000Y-10285000D01*
X10240000Y-11070000D02*
X10240000Y-10325000D01*
X10630000Y-17940000D02*
X8630000Y-15940000D01*
X11967500Y-17940000D02*
X10630000Y-17940000D01*
X5597500Y-5360000D02*
X5512500Y-5275000D01*
X6700000Y-5360000D02*
X5597500Y-5360000D01*
X10487500Y-3587500D02*
X11375000Y-2700000D01*
X10487500Y-5275000D02*
X10487500Y-3587500D01*
X9130000Y-15440000D02*
X8630000Y-15940000D01*
X9130000Y-12602500D02*
X9130000Y-15440000D01*
X10580010Y-13989990D02*
X8630000Y-15940000D01*
X11930010Y-13989990D02*
X10580010Y-13989990D01*
X11967500Y-13952500D02*
X11930010Y-13989990D01*
X11967500Y-13940000D02*
X11967500Y-13952500D01*
X6179990Y-19150010D02*
X6179990Y-18390010D01*
X6179990Y-18390010D02*
X8630000Y-15940000D01*
X6130000Y-19200000D02*
X6179990Y-19150010D01*
X6130000Y-19277500D02*
X6130000Y-19200000D01*
X5105001Y-19695001D02*
X4570000Y-19160000D01*
X5800001Y-19695001D02*
X5105001Y-19695001D01*
X6130000Y-19365002D02*
X5800001Y-19695001D01*
X6130000Y-19277500D02*
X6130000Y-19365002D01*
D22*
X10700000Y-5487500D02*
X10487500Y-5275000D01*
X10700000Y-6560000D02*
X10700000Y-5487500D01*
D21*
X12790000Y-10876410D02*
X13524979Y-10141431D01*
X12790000Y-11950000D02*
X12790000Y-10876410D01*
X13524979Y-5970023D02*
X14290000Y-5205002D01*
X13524979Y-10141431D02*
X13524979Y-5970023D01*
X14290000Y-1760000D02*
X13370000Y-840000D01*
X14290000Y-5205002D02*
X14290000Y-1760000D01*
D22*
X6920000Y-9470000D02*
X6600000Y-9150000D01*
X8400000Y-9470000D02*
X6920000Y-9470000D01*
X3960000Y-7010000D02*
X2860000Y-7010000D01*
X4400000Y-7450000D02*
X3960000Y-7010000D01*
X2860000Y-6230000D02*
X2810000Y-6180000D01*
X2860000Y-7010000D02*
X2860000Y-6230000D01*
X11375000Y-2700000D02*
X9150000Y-2700000D01*
X9150000Y-2700000D02*
X6450000Y-2700000D01*
X6450000Y-2700000D02*
X4625000Y-2700000D01*
X5512500Y-3587500D02*
X4625000Y-2700000D01*
X5512500Y-5275000D02*
X5512500Y-3587500D01*
X1840000Y-2700000D02*
X400000Y-4140000D01*
X4625000Y-2700000D02*
X1840000Y-2700000D01*
D21*
G04 #@! TO.N,Net-(C1-Pad1)*
X3840000Y-9710000D02*
X4400000Y-9150000D01*
X3840000Y-10500000D02*
X3840000Y-9710000D01*
X4125002Y-15940000D02*
X5292500Y-15940000D01*
X3610001Y-15424999D02*
X4125002Y-15940000D01*
X2544999Y-15424999D02*
X3610001Y-15424999D01*
X2120000Y-15000000D02*
X2544999Y-15424999D01*
X3120000Y-9150000D02*
X2630000Y-9640000D01*
X4400000Y-9150000D02*
X3120000Y-9150000D01*
G04 #@! TO.N,Net-(C2-Pad1)*
X2890000Y-8000000D02*
X2860000Y-7970000D01*
X5674999Y-6524999D02*
X4724999Y-6524999D01*
X6600000Y-7450000D02*
X5674999Y-6524999D01*
X2509999Y-5554999D02*
X1830000Y-6234998D01*
X3754999Y-5554999D02*
X2509999Y-5554999D01*
X4724999Y-6524999D02*
X3754999Y-5554999D01*
X2860000Y-7970000D02*
X2852374Y-7970000D01*
X1830000Y-6947626D02*
X1830000Y-6234998D01*
X2852374Y-7970000D02*
X1830000Y-6947626D01*
X1590000Y-13544998D02*
X1590000Y-13100000D01*
X3019991Y-14974989D02*
X1590000Y-13544998D01*
X3796401Y-14974989D02*
X3019991Y-14974989D01*
X4261412Y-15440000D02*
X3796401Y-14974989D01*
X5292500Y-15440000D02*
X4261412Y-15440000D01*
X2860000Y-8150000D02*
X2250000Y-8760000D01*
X2860000Y-7970000D02*
X2860000Y-8150000D01*
G04 #@! TO.N,+5V*
X7440000Y-10437626D02*
X7440000Y-10390000D01*
X8130000Y-11127626D02*
X7440000Y-10437626D01*
X8130000Y-12602500D02*
X8130000Y-11127626D01*
D22*
X12170000Y-7260000D02*
X12200000Y-7290000D01*
X12170000Y-5960000D02*
X12170000Y-5960000D01*
D21*
X12830010Y-13716988D02*
X12553022Y-13440000D01*
X12553022Y-13440000D02*
X11967500Y-13440000D01*
X12830010Y-14163012D02*
X12830010Y-13716988D01*
X12553022Y-14440000D02*
X12830010Y-14163012D01*
X11967500Y-14440000D02*
X12553022Y-14440000D01*
X2480000Y-13230000D02*
X2940000Y-12770000D01*
X2480000Y-13798588D02*
X2480000Y-13230000D01*
X3121412Y-14440000D02*
X2480000Y-13798588D01*
X5292500Y-14440000D02*
X3121412Y-14440000D01*
D22*
X12170000Y-5960000D02*
X12170000Y-7260000D01*
D23*
X12170000Y-5960000D02*
X12170000Y-4990000D01*
X12170000Y-4990000D02*
X13370000Y-3790000D01*
X13370000Y-3790000D02*
X13370000Y-2400000D01*
X12144999Y-1174999D02*
X825001Y-1174999D01*
X825001Y-1174999D02*
X400000Y-1600000D01*
X13370000Y-2400000D02*
X12144999Y-1174999D01*
D21*
X6630000Y-19863022D02*
X6630000Y-19277500D01*
X6293042Y-20199980D02*
X6630000Y-19863022D01*
X4584982Y-20199980D02*
X6293042Y-20199980D01*
X3760001Y-19374999D02*
X4584982Y-20199980D01*
X2174999Y-19374999D02*
X3760001Y-19374999D01*
X1920000Y-19120000D02*
X2174999Y-19374999D01*
X11580010Y-11710010D02*
X11130000Y-11260000D01*
X11580010Y-13052510D02*
X11580010Y-11710010D01*
X11967500Y-13440000D02*
X11580010Y-13052510D01*
X10630000Y-11760000D02*
X11130000Y-11260000D01*
X10630000Y-12602500D02*
X10630000Y-11760000D01*
D22*
X10220001Y-7310001D02*
X10200000Y-7290000D01*
X12179999Y-7310001D02*
X10220001Y-7310001D01*
X12200000Y-7290000D02*
X12179999Y-7310001D01*
D24*
X12517668Y-14440000D02*
X11967500Y-14440000D01*
X12805010Y-14727342D02*
X12517668Y-14440000D01*
X12805010Y-18374990D02*
X12805010Y-14727342D01*
X12740000Y-18440000D02*
X12805010Y-18374990D01*
X11967500Y-18440000D02*
X12740000Y-18440000D01*
D21*
G04 #@! TO.N,Net-(C4-Pad1)*
X8630000Y-10660000D02*
X8630000Y-12602500D01*
X8400000Y-10430000D02*
X8630000Y-10660000D01*
G04 #@! TO.N,B-PWM5*
X5292500Y-12772500D02*
X5190000Y-12670000D01*
X5292500Y-13440000D02*
X5292500Y-12772500D01*
D24*
G04 #@! TO.N,B-PWM1*
X15600000Y-15117998D02*
X15600000Y-14280000D01*
X14449999Y-16267999D02*
X15600000Y-15117998D01*
X14449999Y-19860001D02*
X14449999Y-16267999D01*
X13635010Y-20674990D02*
X14449999Y-19860001D01*
X10835348Y-20674990D02*
X13635010Y-20674990D01*
X10130000Y-19969642D02*
X10835348Y-20674990D01*
X10130000Y-19277500D02*
X10130000Y-19969642D01*
D21*
G04 #@! TO.N,B-PWM4*
X9630000Y-20430000D02*
X9700000Y-20500000D01*
X9630000Y-19277500D02*
X9630000Y-20430000D01*
D24*
X13649979Y-19020021D02*
X13649979Y-15936621D01*
X13649979Y-15936621D02*
X14049989Y-15536611D01*
X14049989Y-15536611D02*
X14049989Y-13562310D01*
X14449999Y-13162300D02*
X14449999Y-11187999D01*
X14049989Y-13562310D02*
X14449999Y-13162300D01*
X15600000Y-10037998D02*
X15600000Y-9200000D01*
X14449999Y-11187999D02*
X15600000Y-10037998D01*
X13619979Y-19020021D02*
X12980000Y-19660000D01*
X13649979Y-19020021D02*
X13619979Y-19020021D01*
D21*
G04 #@! TO.N,B-PWM2*
X15570000Y-4090000D02*
X15600000Y-4120000D01*
X8130000Y-19994998D02*
X8130000Y-19277500D01*
X7475008Y-20649990D02*
X8130000Y-19994998D01*
X4109990Y-20649990D02*
X7475008Y-20649990D01*
X3460000Y-20000000D02*
X4109990Y-20649990D01*
X13150000Y-12800000D02*
X13150000Y-12670000D01*
X13524980Y-12425020D02*
X13150000Y-12800000D01*
X13524981Y-10803197D02*
X13524980Y-12425020D01*
X13974989Y-10353189D02*
X13524981Y-10803197D01*
X13974989Y-6365011D02*
X13974989Y-10353189D01*
X15600000Y-4740000D02*
X13974989Y-6365011D01*
X15600000Y-4120000D02*
X15600000Y-4740000D01*
D24*
G04 #@! TO.N,B-PWM6*
X15600000Y-12577998D02*
X15600000Y-11740000D01*
X14449999Y-13727999D02*
X15600000Y-12577998D01*
X14449999Y-15702301D02*
X14449999Y-13727999D01*
X14049989Y-16102310D02*
X14449999Y-15702301D01*
X13469322Y-20274980D02*
X14049989Y-19694313D01*
X14049989Y-19694313D02*
X14049989Y-16102310D01*
X11001036Y-20274980D02*
X13469322Y-20274980D01*
X10630000Y-19903944D02*
X11001036Y-20274980D01*
X10630000Y-19277500D02*
X10630000Y-19903944D01*
D21*
G04 #@! TO.N,B-PWM3*
X9130000Y-19920000D02*
X8580000Y-20470000D01*
X9130000Y-19277500D02*
X9130000Y-19920000D01*
D24*
X15600000Y-7497998D02*
X15600000Y-6660000D01*
X14049989Y-11022310D02*
X14449999Y-10622300D01*
X14049989Y-12996612D02*
X14049989Y-11022310D01*
X13649979Y-13396621D02*
X14049989Y-12996612D01*
X13649979Y-15370922D02*
X13649979Y-13396621D01*
X14449999Y-10622300D02*
X14449999Y-8647999D01*
X13249969Y-15770932D02*
X13649979Y-15370922D01*
X14449999Y-8647999D02*
X15600000Y-7497998D01*
X13249969Y-18502029D02*
X13249969Y-15770932D01*
X12341998Y-19410000D02*
X13249969Y-18502029D01*
X11940000Y-19410000D02*
X12341998Y-19410000D01*
D21*
G04 #@! TO.N,Net-(D3-Pad2)*
X10200000Y-9315000D02*
X10200000Y-8310000D01*
G04 #@! TO.N,Net-(D4-Pad2)*
X12200000Y-8310000D02*
X12200000Y-9315000D01*
G04 #@! TO.N,RX1LED*
X7630000Y-11744158D02*
X7630000Y-12602500D01*
X6255842Y-10370000D02*
X7630000Y-11744158D01*
X6090000Y-10370000D02*
X6090000Y-10370000D01*
X13020000Y-5620000D02*
X13240000Y-5400000D01*
X13020000Y-10010000D02*
X13020000Y-5620000D01*
X12745000Y-10285000D02*
X13020000Y-10010000D01*
X12200000Y-10285000D02*
X12745000Y-10285000D01*
X6090000Y-10370000D02*
X6255842Y-10370000D01*
G04 #@! TO.N,Net-(D5-Pad2)*
X11200000Y-8310000D02*
X11200000Y-9315000D01*
G04 #@! TO.N,TX1LED*
X5292500Y-18862500D02*
X5500000Y-19070000D01*
X5292500Y-18440000D02*
X5292500Y-18862500D01*
X11200000Y-10285000D02*
X12030020Y-11115020D01*
X12030020Y-12530020D02*
X12300000Y-12800000D01*
X12030020Y-11115020D02*
X12030020Y-12530020D01*
G04 #@! TO.N,Net-(J2-Pad3)*
X8000000Y-7090000D02*
X8000000Y-5360000D01*
X8200000Y-7290000D02*
X8000000Y-7090000D01*
G04 #@! TO.N,Net-(J2-Pad2)*
X8650000Y-6740000D02*
X9200000Y-7290000D01*
X8650000Y-5360000D02*
X8650000Y-6740000D01*
G04 #@! TO.N,SDA1*
X3200000Y-16940000D02*
X3070000Y-16810000D01*
X5292500Y-16940000D02*
X3200000Y-16940000D01*
G04 #@! TO.N,SCL1*
X5292500Y-16440000D02*
X3865002Y-16440000D01*
X3720000Y-16440000D02*
X3865002Y-16440000D01*
X3330000Y-16050000D02*
X3720000Y-16440000D01*
G04 #@! TO.N,MISO*
X6130000Y-12602500D02*
X5580000Y-12052500D01*
X680010Y-12040010D02*
X400000Y-11760000D01*
X5570010Y-12040010D02*
X680010Y-12040010D01*
X5580000Y-12050000D02*
X5570010Y-12040010D01*
X5580000Y-12052500D02*
X5580000Y-12050000D01*
G04 #@! TO.N,MOSI*
X400000Y-9220000D02*
X2770000Y-11590000D01*
X6580010Y-12552510D02*
X6630000Y-12602500D01*
X6203022Y-11590000D02*
X6580010Y-11966988D01*
X6580010Y-11966988D02*
X6580010Y-12552510D01*
X2770000Y-11590000D02*
X6203022Y-11590000D01*
G04 #@! TO.N,SCK*
X1575001Y-7855001D02*
X400000Y-6680000D01*
X1575001Y-9725001D02*
X1575001Y-7855001D01*
X3360010Y-11139990D02*
X2989990Y-11139990D01*
X3364990Y-11135010D02*
X3360010Y-11139990D01*
X6384442Y-11135010D02*
X3364990Y-11135010D01*
X2989990Y-11139990D02*
X1575001Y-9725001D01*
X7130000Y-11880568D02*
X6384442Y-11135010D01*
X7130000Y-12602500D02*
X7130000Y-11880568D01*
G04 #@! TO.N,TX1*
X1500000Y-17940000D02*
X5292500Y-17940000D01*
X400000Y-16840000D02*
X1500000Y-17940000D01*
G04 #@! TO.N,RX1*
X3540000Y-17440000D02*
X5292500Y-17440000D01*
X1870000Y-15770000D02*
X1870000Y-16750000D01*
X400000Y-14300000D02*
X1870000Y-15770000D01*
X2560000Y-17440000D02*
X3540000Y-17440000D01*
X1870000Y-16750000D02*
X2560000Y-17440000D01*
G04 #@! TO.N,Net-(R20-Pad1)*
X9630000Y-12016978D02*
X9630000Y-12602500D01*
X9080010Y-11466988D02*
X9630000Y-12016978D01*
X9080010Y-9182384D02*
X9080010Y-11466988D01*
X8207626Y-8310000D02*
X9080010Y-9182384D01*
X8200000Y-8310000D02*
X8207626Y-8310000D01*
G04 #@! TO.N,Net-(R21-Pad1)*
X10130000Y-12602500D02*
X10130000Y-11880568D01*
X9530020Y-11280588D02*
X9530020Y-8640020D01*
X9530020Y-8640020D02*
X9200000Y-8310000D01*
X10130000Y-11880568D02*
X9530020Y-11280588D01*
G04 #@! TO.N,Net-(J1-Pad8)*
X5292500Y-13940000D02*
X4500000Y-13940000D01*
X3539990Y-18680000D02*
X3539990Y-18680000D01*
X1389990Y-18390010D02*
X400000Y-19380000D01*
X3250000Y-18390010D02*
X1389990Y-18390010D01*
X3990000Y-13940000D02*
X5292500Y-13940000D01*
X3860000Y-13810000D02*
X3990000Y-13940000D01*
X3539990Y-18680000D02*
X3250000Y-18390010D01*
G04 #@! TD*
D25*
G04 #@! TO.N,GND*
X8757000Y-15813000D02*
X8777000Y-15813000D01*
X8777000Y-16067000D01*
X8757000Y-16067000D01*
X8757000Y-16087000D01*
X8503000Y-16087000D01*
X8503000Y-16067000D01*
X8483000Y-16067000D01*
X8483000Y-15813000D01*
X8503000Y-15813000D01*
X8503000Y-15793000D01*
X8757000Y-15793000D01*
X8757000Y-15813000D01*
G04 #@! TA.AperFunction,Conductor*
D26*
G36*
X8757000Y-15813000D02*
G01*
X8777000Y-15813000D01*
X8777000Y-16067000D01*
X8757000Y-16067000D01*
X8757000Y-16087000D01*
X8503000Y-16087000D01*
X8503000Y-16067000D01*
X8483000Y-16067000D01*
X8483000Y-15813000D01*
X8503000Y-15813000D01*
X8503000Y-15793000D01*
X8757000Y-15793000D01*
X8757000Y-15813000D01*
G37*
G04 #@! TD.AperFunction*
D25*
X8320010Y-9497186D02*
X8320010Y-9511928D01*
X8253000Y-9511928D01*
X8253000Y-9430176D01*
X8320010Y-9497186D01*
G04 #@! TA.AperFunction,Conductor*
D26*
G36*
X8320010Y-9497186D02*
G01*
X8320010Y-9511928D01*
X8253000Y-9511928D01*
X8253000Y-9430176D01*
X8320010Y-9497186D01*
G37*
G04 #@! TD.AperFunction*
D25*
X6727000Y-9023000D02*
X6747000Y-9023000D01*
X6747000Y-9277000D01*
X6727000Y-9277000D01*
X6727000Y-9297000D01*
X6473000Y-9297000D01*
X6473000Y-9277000D01*
X6453000Y-9277000D01*
X6453000Y-9023000D01*
X6473000Y-9023000D01*
X6473000Y-9003000D01*
X6727000Y-9003000D01*
X6727000Y-9023000D01*
G04 #@! TA.AperFunction,Conductor*
D26*
G36*
X6727000Y-9023000D02*
G01*
X6747000Y-9023000D01*
X6747000Y-9277000D01*
X6727000Y-9277000D01*
X6727000Y-9297000D01*
X6473000Y-9297000D01*
X6473000Y-9277000D01*
X6453000Y-9277000D01*
X6453000Y-9023000D01*
X6473000Y-9023000D01*
X6473000Y-9003000D01*
X6727000Y-9003000D01*
X6727000Y-9023000D01*
G37*
G04 #@! TD.AperFunction*
D25*
X4527000Y-7323000D02*
X4547000Y-7323000D01*
X4547000Y-7577000D01*
X4527000Y-7577000D01*
X4527000Y-7597000D01*
X4273000Y-7597000D01*
X4273000Y-7577000D01*
X4253000Y-7577000D01*
X4253000Y-7323000D01*
X4273000Y-7323000D01*
X4273000Y-7303000D01*
X4527000Y-7303000D01*
X4527000Y-7323000D01*
G04 #@! TA.AperFunction,Conductor*
D26*
G36*
X4527000Y-7323000D02*
G01*
X4547000Y-7323000D01*
X4547000Y-7577000D01*
X4527000Y-7577000D01*
X4527000Y-7597000D01*
X4273000Y-7597000D01*
X4273000Y-7577000D01*
X4253000Y-7577000D01*
X4253000Y-7323000D01*
X4273000Y-7323000D01*
X4273000Y-7303000D01*
X4527000Y-7303000D01*
X4527000Y-7323000D01*
G37*
G04 #@! TD.AperFunction*
D25*
X2987000Y-6883000D02*
X3007000Y-6883000D01*
X3007000Y-7049824D01*
X2820175Y-6863000D01*
X2987000Y-6863000D01*
X2987000Y-6883000D01*
G04 #@! TA.AperFunction,Conductor*
D26*
G36*
X2987000Y-6883000D02*
G01*
X3007000Y-6883000D01*
X3007000Y-7049824D01*
X2820175Y-6863000D01*
X2987000Y-6863000D01*
X2987000Y-6883000D01*
G37*
G04 #@! TD.AperFunction*
D25*
X3165000Y-2414250D02*
X3323750Y-2573000D01*
X4498000Y-2573000D01*
X4498000Y-2553000D01*
X4752000Y-2553000D01*
X4752000Y-2573000D01*
X6323000Y-2573000D01*
X6323000Y-2553000D01*
X6577000Y-2553000D01*
X6577000Y-2573000D01*
X7426250Y-2573000D01*
X7585000Y-2414250D01*
X7586060Y-2184999D01*
X7613940Y-2184999D01*
X7615000Y-2414250D01*
X7773750Y-2573000D01*
X9023000Y-2573000D01*
X9023000Y-2553000D01*
X9277000Y-2553000D01*
X9277000Y-2573000D01*
X11248000Y-2573000D01*
X11248000Y-2553000D01*
X11502000Y-2553000D01*
X11502000Y-2573000D01*
X11522000Y-2573000D01*
X11522000Y-2827000D01*
X11502000Y-2827000D01*
X11502000Y-2847000D01*
X11248000Y-2847000D01*
X11248000Y-2827000D01*
X9277000Y-2827000D01*
X9277000Y-2847000D01*
X9023000Y-2847000D01*
X9023000Y-2827000D01*
X7773750Y-2827000D01*
X7615000Y-2985750D01*
X7611928Y-3650000D01*
X7624188Y-3774482D01*
X7660498Y-3894180D01*
X7719463Y-4004494D01*
X7744447Y-4034937D01*
X7675000Y-4041777D01*
X7575000Y-4031928D01*
X7458023Y-4031928D01*
X7480537Y-4004494D01*
X7539502Y-3894180D01*
X7575812Y-3774482D01*
X7588072Y-3650000D01*
X7585000Y-2985750D01*
X7426250Y-2827000D01*
X6577000Y-2827000D01*
X6577000Y-2847000D01*
X6323000Y-2847000D01*
X6323000Y-2827000D01*
X4752000Y-2827000D01*
X4752000Y-2847000D01*
X4498000Y-2847000D01*
X4498000Y-2827000D01*
X3323750Y-2827000D01*
X3165000Y-2985750D01*
X3161928Y-3350000D01*
X3174188Y-3474482D01*
X3210498Y-3594180D01*
X3269463Y-3704494D01*
X3348815Y-3801185D01*
X3445506Y-3880537D01*
X3555820Y-3939502D01*
X3675518Y-3975812D01*
X3800000Y-3988072D01*
X4339250Y-3985000D01*
X4497998Y-3826252D01*
X4497998Y-3941405D01*
X4445506Y-3969463D01*
X4348815Y-4048815D01*
X4269463Y-4145506D01*
X4210498Y-4255820D01*
X4174188Y-4375518D01*
X4161928Y-4500000D01*
X4164516Y-4912136D01*
X4047246Y-4849453D01*
X3903985Y-4805996D01*
X3792332Y-4794999D01*
X3792321Y-4794999D01*
X3754999Y-4791323D01*
X3717677Y-4794999D01*
X2547322Y-4794999D01*
X2509999Y-4791323D01*
X2472676Y-4794999D01*
X2472666Y-4794999D01*
X2361013Y-4805996D01*
X2217752Y-4849453D01*
X2085723Y-4920025D01*
X1969998Y-5014998D01*
X1946200Y-5043997D01*
X1405152Y-5585045D01*
X1346632Y-5526525D01*
X1164466Y-5404805D01*
X1281355Y-5335178D01*
X1497588Y-5140269D01*
X1671641Y-4906920D01*
X1796825Y-4644099D01*
X1841476Y-4496890D01*
X1720155Y-4267000D01*
X527000Y-4267000D01*
X527000Y-4287000D01*
X273000Y-4287000D01*
X273000Y-4267000D01*
X253000Y-4267000D01*
X253000Y-4013000D01*
X273000Y-4013000D01*
X273000Y-3993000D01*
X527000Y-3993000D01*
X527000Y-4013000D01*
X1720155Y-4013000D01*
X1841476Y-3783110D01*
X1796825Y-3635901D01*
X1671641Y-3373080D01*
X1497588Y-3139731D01*
X1413534Y-3063966D01*
X1494180Y-3039502D01*
X1604494Y-2980537D01*
X1701185Y-2901185D01*
X1780537Y-2804494D01*
X1839502Y-2694180D01*
X1875812Y-2574482D01*
X1888072Y-2450000D01*
X1888072Y-2184999D01*
X3163067Y-2184999D01*
X3165000Y-2414250D01*
G04 #@! TA.AperFunction,Conductor*
D26*
G36*
X3165000Y-2414250D02*
G01*
X3323750Y-2573000D01*
X4498000Y-2573000D01*
X4498000Y-2553000D01*
X4752000Y-2553000D01*
X4752000Y-2573000D01*
X6323000Y-2573000D01*
X6323000Y-2553000D01*
X6577000Y-2553000D01*
X6577000Y-2573000D01*
X7426250Y-2573000D01*
X7585000Y-2414250D01*
X7586060Y-2184999D01*
X7613940Y-2184999D01*
X7615000Y-2414250D01*
X7773750Y-2573000D01*
X9023000Y-2573000D01*
X9023000Y-2553000D01*
X9277000Y-2553000D01*
X9277000Y-2573000D01*
X11248000Y-2573000D01*
X11248000Y-2553000D01*
X11502000Y-2553000D01*
X11502000Y-2573000D01*
X11522000Y-2573000D01*
X11522000Y-2827000D01*
X11502000Y-2827000D01*
X11502000Y-2847000D01*
X11248000Y-2847000D01*
X11248000Y-2827000D01*
X9277000Y-2827000D01*
X9277000Y-2847000D01*
X9023000Y-2847000D01*
X9023000Y-2827000D01*
X7773750Y-2827000D01*
X7615000Y-2985750D01*
X7611928Y-3650000D01*
X7624188Y-3774482D01*
X7660498Y-3894180D01*
X7719463Y-4004494D01*
X7744447Y-4034937D01*
X7675000Y-4041777D01*
X7575000Y-4031928D01*
X7458023Y-4031928D01*
X7480537Y-4004494D01*
X7539502Y-3894180D01*
X7575812Y-3774482D01*
X7588072Y-3650000D01*
X7585000Y-2985750D01*
X7426250Y-2827000D01*
X6577000Y-2827000D01*
X6577000Y-2847000D01*
X6323000Y-2847000D01*
X6323000Y-2827000D01*
X4752000Y-2827000D01*
X4752000Y-2847000D01*
X4498000Y-2847000D01*
X4498000Y-2827000D01*
X3323750Y-2827000D01*
X3165000Y-2985750D01*
X3161928Y-3350000D01*
X3174188Y-3474482D01*
X3210498Y-3594180D01*
X3269463Y-3704494D01*
X3348815Y-3801185D01*
X3445506Y-3880537D01*
X3555820Y-3939502D01*
X3675518Y-3975812D01*
X3800000Y-3988072D01*
X4339250Y-3985000D01*
X4497998Y-3826252D01*
X4497998Y-3941405D01*
X4445506Y-3969463D01*
X4348815Y-4048815D01*
X4269463Y-4145506D01*
X4210498Y-4255820D01*
X4174188Y-4375518D01*
X4161928Y-4500000D01*
X4164516Y-4912136D01*
X4047246Y-4849453D01*
X3903985Y-4805996D01*
X3792332Y-4794999D01*
X3792321Y-4794999D01*
X3754999Y-4791323D01*
X3717677Y-4794999D01*
X2547322Y-4794999D01*
X2509999Y-4791323D01*
X2472676Y-4794999D01*
X2472666Y-4794999D01*
X2361013Y-4805996D01*
X2217752Y-4849453D01*
X2085723Y-4920025D01*
X1969998Y-5014998D01*
X1946200Y-5043997D01*
X1405152Y-5585045D01*
X1346632Y-5526525D01*
X1164466Y-5404805D01*
X1281355Y-5335178D01*
X1497588Y-5140269D01*
X1671641Y-4906920D01*
X1796825Y-4644099D01*
X1841476Y-4496890D01*
X1720155Y-4267000D01*
X527000Y-4267000D01*
X527000Y-4287000D01*
X273000Y-4287000D01*
X273000Y-4267000D01*
X253000Y-4267000D01*
X253000Y-4013000D01*
X273000Y-4013000D01*
X273000Y-3993000D01*
X527000Y-3993000D01*
X527000Y-4013000D01*
X1720155Y-4013000D01*
X1841476Y-3783110D01*
X1796825Y-3635901D01*
X1671641Y-3373080D01*
X1497588Y-3139731D01*
X1413534Y-3063966D01*
X1494180Y-3039502D01*
X1604494Y-2980537D01*
X1701185Y-2901185D01*
X1780537Y-2804494D01*
X1839502Y-2694180D01*
X1875812Y-2574482D01*
X1888072Y-2450000D01*
X1888072Y-2184999D01*
X3163067Y-2184999D01*
X3165000Y-2414250D01*
G37*
G04 #@! TD.AperFunction*
D25*
X10614500Y-5148000D02*
X10634500Y-5148000D01*
X10634500Y-5402000D01*
X10614500Y-5402000D01*
X10614500Y-5422000D01*
X10360500Y-5422000D01*
X10360500Y-5402000D01*
X10340500Y-5402000D01*
X10340500Y-5148000D01*
X10360500Y-5148000D01*
X10360500Y-5128000D01*
X10614500Y-5128000D01*
X10614500Y-5148000D01*
G04 #@! TA.AperFunction,Conductor*
D26*
G36*
X10614500Y-5148000D02*
G01*
X10634500Y-5148000D01*
X10634500Y-5402000D01*
X10614500Y-5402000D01*
X10614500Y-5422000D01*
X10360500Y-5422000D01*
X10360500Y-5402000D01*
X10340500Y-5402000D01*
X10340500Y-5148000D01*
X10360500Y-5148000D01*
X10360500Y-5128000D01*
X10614500Y-5128000D01*
X10614500Y-5148000D01*
G37*
G04 #@! TD.AperFunction*
D25*
X5639500Y-5148000D02*
X5659500Y-5148000D01*
X5659500Y-5402000D01*
X5639500Y-5402000D01*
X5639500Y-5422000D01*
X5385500Y-5422000D01*
X5385500Y-5402000D01*
X5365500Y-5402000D01*
X5365500Y-5148000D01*
X5385500Y-5148000D01*
X5385500Y-5128000D01*
X5639500Y-5128000D01*
X5639500Y-5148000D01*
G04 #@! TA.AperFunction,Conductor*
D26*
G36*
X5639500Y-5148000D02*
G01*
X5659500Y-5148000D01*
X5659500Y-5402000D01*
X5639500Y-5402000D01*
X5639500Y-5422000D01*
X5385500Y-5422000D01*
X5385500Y-5402000D01*
X5365500Y-5402000D01*
X5365500Y-5148000D01*
X5385500Y-5148000D01*
X5385500Y-5128000D01*
X5639500Y-5128000D01*
X5639500Y-5148000D01*
G37*
G04 #@! TD.AperFunction*
D25*
X14111928Y-730000D02*
X14111928Y-1711971D01*
X14087633Y-1682367D01*
X14049094Y-1650739D01*
X13058355Y-660000D01*
X14118822Y-660000D01*
X14111928Y-730000D01*
G04 #@! TA.AperFunction,Conductor*
D26*
G36*
X14111928Y-730000D02*
G01*
X14111928Y-1711971D01*
X14087633Y-1682367D01*
X14049094Y-1650739D01*
X13058355Y-660000D01*
X14118822Y-660000D01*
X14111928Y-730000D01*
G37*
G04 #@! TD.AperFunction*
G04 #@! TD*
M02*
