M48
; DRILL file {KiCad (6.0.5)} date Mon Oct 17 22:26:46 2022
; FORMAT={-:-/ absolute / metric / decimal}
; #@! TF.CreationDate,2022-10-17T22:26:46+09:00
; #@! TF.GenerationSoftware,Kicad,Pcbnew,(6.0.5)
; #@! TF.FileFunction,Plated,1,2,PTH
FMAT,2
METRIC
; #@! TA.AperFunction,Plated,PTH,ViaDrill
T1C0.400
; #@! TA.AperFunction,Plated,PTH,ComponentDrill
T2C0.700
; #@! TA.AperFunction,Plated,PTH,ComponentDrill
T3C0.762
; #@! TA.AperFunction,Plated,PTH,ComponentDrill
T4C0.950
; #@! TA.AperFunction,Plated,PTH,ComponentDrill
T5C1.000
; #@! TA.AperFunction,Plated,PTH,ComponentDrill
T6C1.090
; #@! TA.AperFunction,Plated,PTH,ComponentDrill
T7C1.200
%
G90
G05
T1
X125.095Y-94.615
X125.095Y-97.79
X128.27Y-113.665
X128.905Y-80.645
X130.175Y-121.92
X132.715Y-86.995
X135.255Y-110.49
X135.255Y-121.92
X136.525Y-99.06
X137.795Y-110.49
X139.065Y-86.995
X140.335Y-104.14
X142.24Y-117.475
X143.51Y-104.14
X145.415Y-76.2
X145.415Y-80.645
X145.415Y-110.49
X148.59Y-110.49
X149.225Y-121.92
X154.305Y-121.92
X154.94Y-114.935
X156.21Y-106.68
X158.75Y-102.87
X161.29Y-80.01
X161.925Y-99.06
X161.925Y-102.87
X163.83Y-97.155
X165.1Y-112.395
X167.005Y-116.205
X168.275Y-106.68
X170.815Y-111.125
T2
X130.18Y-96.52
X135.26Y-96.52
X137.8Y-96.52
X142.88Y-96.52
T3
X124.46Y-82.55
X124.46Y-100.33
X165.1Y-82.55
X165.1Y-100.33
T4
X171.45Y-86.44
X171.45Y-88.94
X171.45Y-91.44
T5
X125.73Y-89.757
X133.35Y-106.74
X133.35Y-114.24
X146.05Y-89.757
X151.13Y-93.401
X151.13Y-106.74
X151.13Y-114.24
X153.67Y-93.401
X156.21Y-93.401
X171.45Y-97.79
X171.45Y-100.29
T6
X160.02Y-121.92
X161.816Y-120.124
X163.612Y-118.328
T7
X161.29Y-106.68
X171.45Y-106.68
T0
M30
