%TF.GenerationSoftware,KiCad,Pcbnew,(6.0.5)*%
%TF.CreationDate,2022-10-17T22:26:44+09:00*%
%TF.ProjectId,kikker_PSU,6b696b6b-6572-45f5-9053-552e6b696361,rev?*%
%TF.SameCoordinates,Original*%
%TF.FileFunction,Copper,L2,Bot*%
%TF.FilePolarity,Positive*%
%FSLAX46Y46*%
G04 Gerber Fmt 4.6, Leading zero omitted, Abs format (unit mm)*
G04 Created by KiCad (PCBNEW (6.0.5)) date 2022-10-17 22:26:44*
%MOMM*%
%LPD*%
G01*
G04 APERTURE LIST*
G04 Aperture macros list*
%AMRoundRect*
0 Rectangle with rounded corners*
0 $1 Rounding radius*
0 $2 $3 $4 $5 $6 $7 $8 $9 X,Y pos of 4 corners*
0 Add a 4 corners polygon primitive as box body*
4,1,4,$2,$3,$4,$5,$6,$7,$8,$9,$2,$3,0*
0 Add four circle primitives for the rounded corners*
1,1,$1+$1,$2,$3*
1,1,$1+$1,$4,$5*
1,1,$1+$1,$6,$7*
1,1,$1+$1,$8,$9*
0 Add four rect primitives between the rounded corners*
20,1,$1+$1,$2,$3,$4,$5,0*
20,1,$1+$1,$4,$5,$6,$7,0*
20,1,$1+$1,$6,$7,$8,$9,0*
20,1,$1+$1,$8,$9,$2,$3,0*%
G04 Aperture macros list end*
%TA.AperFunction,ComponentPad*%
%ADD10C,1.400000*%
%TD*%
%TA.AperFunction,ComponentPad*%
%ADD11O,1.400000X1.400000*%
%TD*%
%TA.AperFunction,ComponentPad*%
%ADD12C,1.800000*%
%TD*%
%TA.AperFunction,ComponentPad*%
%ADD13RoundRect,0.250000X-0.750000X0.600000X-0.750000X-0.600000X0.750000X-0.600000X0.750000X0.600000X0*%
%TD*%
%TA.AperFunction,ComponentPad*%
%ADD14O,2.000000X1.700000*%
%TD*%
%TA.AperFunction,ComponentPad*%
%ADD15R,2.400000X2.400000*%
%TD*%
%TA.AperFunction,ComponentPad*%
%ADD16O,2.400000X2.400000*%
%TD*%
%TA.AperFunction,ComponentPad*%
%ADD17C,1.524000*%
%TD*%
%TA.AperFunction,ComponentPad*%
%ADD18RoundRect,0.250000X-0.725000X0.600000X-0.725000X-0.600000X0.725000X-0.600000X0.725000X0.600000X0*%
%TD*%
%TA.AperFunction,ComponentPad*%
%ADD19O,1.950000X1.700000*%
%TD*%
%TA.AperFunction,ComponentPad*%
%ADD20C,1.635000*%
%TD*%
%TA.AperFunction,ComponentPad*%
%ADD21C,2.000000*%
%TD*%
%TA.AperFunction,ViaPad*%
%ADD22C,0.800000*%
%TD*%
%TA.AperFunction,Conductor*%
%ADD23C,2.000000*%
%TD*%
G04 APERTURE END LIST*
D10*
%TO.P,R2,1*%
%TO.N,Net-(Q1-Pad3)*%
X130180000Y-96520000D03*
D11*
%TO.P,R2,2*%
%TO.N,Net-(Q1-Pad1)*%
X135260000Y-96520000D03*
%TD*%
D12*
%TO.P,Q1,1,G*%
%TO.N,Net-(Q1-Pad1)*%
X151130000Y-93401000D03*
%TO.P,Q1,2,D*%
%TO.N,Net-(Q1-Pad2)*%
X153670000Y-93401000D03*
%TO.P,Q1,3,S*%
%TO.N,Net-(Q1-Pad3)*%
X156210000Y-93401000D03*
%TD*%
D13*
%TO.P,J1,1,Pin_1*%
%TO.N,GND*%
X171450000Y-97790000D03*
D14*
%TO.P,J1,2,Pin_2*%
%TO.N,Net-(D1-Pad2)*%
X171450000Y-100290000D03*
%TD*%
D10*
%TO.P,R3,1*%
%TO.N,Net-(J2-Pad1)*%
X142880000Y-96520000D03*
D11*
%TO.P,R3,2*%
%TO.N,Net-(Q1-Pad1)*%
X137800000Y-96520000D03*
%TD*%
D15*
%TO.P,D1,1,K*%
%TO.N,+12V*%
X161290000Y-106680000D03*
D16*
%TO.P,D1,2,A*%
%TO.N,Net-(D1-Pad2)*%
X171450000Y-106680000D03*
%TD*%
D17*
%TO.P,U1,1,IN+*%
%TO.N,Net-(SW1-Pad2)*%
X165100000Y-100330000D03*
%TO.P,U1,2,IN-*%
%TO.N,GND*%
X165100000Y-82550000D03*
%TO.P,U1,3,OUT+*%
%TO.N,Net-(C1-Pad1)*%
X124460000Y-100330000D03*
%TO.P,U1,4,OUT-*%
%TO.N,Net-(Q1-Pad3)*%
X124460000Y-82550000D03*
%TD*%
D12*
%TO.P,R4,1*%
%TO.N,Net-(C1-Pad2)*%
X125730000Y-89757500D03*
%TO.P,R4,2*%
%TO.N,Net-(Q1-Pad2)*%
X146050000Y-89757500D03*
%TD*%
D18*
%TO.P,J2,1,Pin_1*%
%TO.N,Net-(J2-Pad1)*%
X171450000Y-86440000D03*
D19*
%TO.P,J2,2,Pin_2*%
%TO.N,Net-(C1-Pad1)*%
X171450000Y-88940000D03*
%TO.P,J2,3,Pin_3*%
%TO.N,Net-(C1-Pad2)*%
X171450000Y-91440000D03*
%TD*%
D20*
%TO.P,SW1,1*%
%TO.N,+12V*%
X160020000Y-121920000D03*
%TO.P,SW1,2*%
%TO.N,Net-(SW1-Pad2)*%
X161816051Y-120123949D03*
%TO.P,SW1,3*%
%TO.N,N/C*%
X163612102Y-118327898D03*
%TD*%
D21*
%TO.P,C1,1*%
%TO.N,Net-(C1-Pad1)*%
X133350000Y-106740000D03*
%TO.P,C1,2*%
%TO.N,Net-(C1-Pad2)*%
X133350000Y-114240000D03*
%TD*%
%TO.P,C2,1*%
%TO.N,Net-(C1-Pad1)*%
X151130000Y-106740000D03*
%TO.P,C2,2*%
%TO.N,Net-(C1-Pad2)*%
X151130000Y-114240000D03*
%TD*%
D22*
%TO.N,GND*%
X125095000Y-97790000D03*
X125095000Y-94615000D03*
X128270000Y-113665000D03*
X154305000Y-121920000D03*
X142240000Y-117475000D03*
X161925000Y-102870000D03*
X132715000Y-86995000D03*
X154940000Y-114935000D03*
X158750000Y-102870000D03*
X136525000Y-99060000D03*
X135255000Y-121920000D03*
X137795000Y-110490000D03*
X130175000Y-121920000D03*
X140335000Y-104140000D03*
X167005000Y-116205000D03*
X168275000Y-106680000D03*
X170815000Y-111125000D03*
X145415000Y-76200000D03*
X143510000Y-104140000D03*
X145415000Y-110490000D03*
X161925000Y-99060000D03*
X139065000Y-86995000D03*
X165100000Y-112395000D03*
X161290000Y-80010000D03*
X163830000Y-97155000D03*
X145415000Y-80645000D03*
X148590000Y-110490000D03*
X128905000Y-80645000D03*
X156210000Y-106680000D03*
X149225000Y-121920000D03*
X135255000Y-110490000D03*
%TD*%
D23*
%TO.N,Net-(C1-Pad1)*%
X151130000Y-102870000D02*
X151130000Y-106740000D01*
X165060000Y-88940000D02*
X151130000Y-102870000D01*
X151130000Y-106740000D02*
X133350000Y-106740000D01*
X171450000Y-88940000D02*
X165060000Y-88940000D01*
%TO.N,Net-(C1-Pad2)*%
X127640489Y-108530489D02*
X133350000Y-114240000D01*
X165735000Y-91440000D02*
X171450000Y-91440000D01*
X151130000Y-114240000D02*
X153670000Y-111700000D01*
X153670000Y-103505000D02*
X165735000Y-91440000D01*
X133350000Y-114240000D02*
X151130000Y-114240000D01*
X153670000Y-111700000D02*
X153670000Y-103505000D01*
X125730000Y-89757500D02*
X127640489Y-91667989D01*
X127640489Y-91667989D02*
X127640489Y-108530489D01*
%TO.N,+12V*%
X161290000Y-106680000D02*
X159202500Y-108767500D01*
X159202500Y-108767500D02*
X159202500Y-121102500D01*
X159202500Y-121102500D02*
X160020000Y-121920000D01*
%TO.N,Net-(D1-Pad2)*%
X171450000Y-106680000D02*
X171450000Y-100290000D01*
%TO.N,Net-(J2-Pad1)*%
X142880000Y-88260000D02*
X144780000Y-86360000D01*
X144780000Y-86360000D02*
X171370000Y-86360000D01*
X171370000Y-86360000D02*
X171450000Y-86440000D01*
X142880000Y-96520000D02*
X142880000Y-88260000D01*
%TO.N,Net-(Q1-Pad1)*%
X137800000Y-96520000D02*
X140680480Y-99400480D01*
X145130520Y-99400480D02*
X151130000Y-93401000D01*
X140680480Y-99400480D02*
X145130520Y-99400480D01*
X135260000Y-96520000D02*
X137800000Y-96520000D01*
%TO.N,Net-(Q1-Pad2)*%
X153670000Y-92075000D02*
X153670000Y-93401000D01*
X146050000Y-89757500D02*
X151352500Y-89757500D01*
X151352500Y-89757500D02*
X153670000Y-92075000D01*
%TO.N,Net-(Q1-Pad3)*%
X149283792Y-101600000D02*
X156210000Y-94673792D01*
X156210000Y-94673792D02*
X156210000Y-93401000D01*
X133350000Y-101600000D02*
X149283792Y-101600000D01*
X130180000Y-98430000D02*
X133350000Y-101600000D01*
X130180000Y-88270000D02*
X130180000Y-96520000D01*
X130180000Y-96520000D02*
X130180000Y-98430000D01*
X124460000Y-82550000D02*
X130180000Y-88270000D01*
%TO.N,Net-(SW1-Pad2)*%
X161595091Y-119902989D02*
X161816051Y-120123949D01*
X165100000Y-107669022D02*
X161595091Y-111173931D01*
X165100000Y-100330000D02*
X165100000Y-107669022D01*
X161595091Y-111173931D02*
X161595091Y-119902989D01*
%TD*%
%TA.AperFunction,Conductor*%
%TO.N,GND*%
G36*
X149211052Y-70755725D02*
G01*
X149228059Y-70763912D01*
X165763719Y-80310779D01*
X174529804Y-85371880D01*
X174608191Y-85417137D01*
X174624229Y-85428129D01*
X174635923Y-85437548D01*
X174635927Y-85437550D01*
X174642915Y-85443179D01*
X174651203Y-85446620D01*
X174651204Y-85446621D01*
X174657172Y-85449099D01*
X174679440Y-85461095D01*
X174818974Y-85555467D01*
X174833048Y-85566519D01*
X174976643Y-85696796D01*
X174989008Y-85709730D01*
X175112698Y-85859031D01*
X175123107Y-85873588D01*
X175224399Y-86038907D01*
X175232641Y-86054790D01*
X175309494Y-86232795D01*
X175315402Y-86249686D01*
X175366260Y-86436770D01*
X175369717Y-86454327D01*
X175393562Y-86646745D01*
X175394496Y-86664614D01*
X175393569Y-86713827D01*
X175391525Y-86822274D01*
X175388388Y-86844890D01*
X175388845Y-86844973D01*
X175387978Y-86849756D01*
X175386740Y-86854474D01*
X175386127Y-86860455D01*
X175386062Y-86860715D01*
X175386073Y-86860983D01*
X175385460Y-86866961D01*
X175385715Y-86871825D01*
X175385656Y-86874195D01*
X175385330Y-86880641D01*
X175290838Y-88119626D01*
X175290799Y-88120437D01*
X175290798Y-88120447D01*
X175262520Y-88702850D01*
X175229916Y-89374368D01*
X175229898Y-89375228D01*
X175229897Y-89375257D01*
X175208752Y-90386187D01*
X175203646Y-90630314D01*
X175203652Y-90631216D01*
X175203652Y-90631220D01*
X175206317Y-91029620D01*
X175212049Y-91886506D01*
X175212078Y-91887364D01*
X175212079Y-91887392D01*
X175226859Y-92318237D01*
X175255118Y-93141988D01*
X175255171Y-93142847D01*
X175255172Y-93142863D01*
X175332768Y-94394956D01*
X175332771Y-94394992D01*
X175332821Y-94395803D01*
X175332896Y-94396644D01*
X175332897Y-94396651D01*
X175422514Y-95395319D01*
X175445098Y-95646995D01*
X175445195Y-95647816D01*
X175445198Y-95647849D01*
X175555706Y-96587249D01*
X175591863Y-96894613D01*
X175591993Y-96895505D01*
X175761326Y-98057548D01*
X175773006Y-98137705D01*
X175773154Y-98138558D01*
X175773157Y-98138574D01*
X175977689Y-99313852D01*
X175988387Y-99375323D01*
X175988559Y-99376171D01*
X175988559Y-99376172D01*
X176226687Y-100551463D01*
X176237843Y-100606526D01*
X176238028Y-100607327D01*
X176238033Y-100607348D01*
X176520987Y-101829526D01*
X176521184Y-101830376D01*
X176521398Y-101831195D01*
X176521403Y-101831217D01*
X176822779Y-102986831D01*
X176838194Y-103045939D01*
X176838437Y-103046776D01*
X176838441Y-103046790D01*
X176971996Y-103506544D01*
X176971791Y-103577540D01*
X176933235Y-103637155D01*
X176868569Y-103666462D01*
X176798325Y-103656155D01*
X176758699Y-103627464D01*
X176741397Y-103608845D01*
X176738082Y-103606131D01*
X176738078Y-103606128D01*
X176532795Y-103438106D01*
X176529477Y-103435390D01*
X176295976Y-103292301D01*
X176292040Y-103290573D01*
X176049145Y-103183949D01*
X176049141Y-103183948D01*
X176045217Y-103182225D01*
X175781838Y-103107200D01*
X175777596Y-103106596D01*
X175777590Y-103106595D01*
X175547357Y-103073828D01*
X175510715Y-103068613D01*
X175366861Y-103067860D01*
X175241149Y-103067202D01*
X175241143Y-103067202D01*
X175236863Y-103067180D01*
X175232619Y-103067739D01*
X175232615Y-103067739D01*
X175135489Y-103080526D01*
X174965350Y-103102925D01*
X174961210Y-103104058D01*
X174961208Y-103104058D01*
X174927871Y-103113178D01*
X174701200Y-103175188D01*
X174697252Y-103176872D01*
X174453254Y-103280946D01*
X174453250Y-103280948D01*
X174449302Y-103282632D01*
X174429397Y-103294545D01*
X174217997Y-103421064D01*
X174217993Y-103421067D01*
X174214315Y-103423268D01*
X174000590Y-103594494D01*
X173812080Y-103793142D01*
X173652274Y-104015536D01*
X173524129Y-104257561D01*
X173522657Y-104261584D01*
X173522655Y-104261588D01*
X173480144Y-104377755D01*
X173430015Y-104514737D01*
X173371676Y-104782307D01*
X173350189Y-105055318D01*
X173350606Y-105062556D01*
X173365954Y-105328720D01*
X173418677Y-105597453D01*
X173420064Y-105601503D01*
X173420065Y-105601508D01*
X173504055Y-105846821D01*
X173507384Y-105856544D01*
X173550569Y-105942409D01*
X173608508Y-106057607D01*
X173630432Y-106101199D01*
X173632858Y-106104728D01*
X173632861Y-106104734D01*
X173766497Y-106299174D01*
X173785546Y-106326890D01*
X173969854Y-106529443D01*
X173973149Y-106532198D01*
X173973150Y-106532199D01*
X174017654Y-106569410D01*
X174179947Y-106705107D01*
X174183588Y-106707391D01*
X174408296Y-106848351D01*
X174408300Y-106848353D01*
X174411936Y-106850634D01*
X174492057Y-106886810D01*
X174657617Y-106961564D01*
X174657621Y-106961566D01*
X174661529Y-106963330D01*
X174665649Y-106964550D01*
X174665648Y-106964550D01*
X174919995Y-107039891D01*
X174919999Y-107039892D01*
X174924108Y-107041109D01*
X174928342Y-107041757D01*
X174928347Y-107041758D01*
X175190570Y-107081883D01*
X175190572Y-107081883D01*
X175194812Y-107082532D01*
X175334184Y-107084722D01*
X175464343Y-107086767D01*
X175464349Y-107086767D01*
X175468634Y-107086834D01*
X175740507Y-107053934D01*
X176005399Y-106984441D01*
X176009359Y-106982801D01*
X176009364Y-106982799D01*
X176131904Y-106932041D01*
X176258408Y-106879641D01*
X176446606Y-106769667D01*
X176491151Y-106743637D01*
X176491152Y-106743636D01*
X176494854Y-106741473D01*
X176710361Y-106572494D01*
X176726951Y-106555375D01*
X176897958Y-106378909D01*
X176900941Y-106375831D01*
X176903474Y-106372383D01*
X176903478Y-106372378D01*
X177060529Y-106158578D01*
X177063067Y-106155123D01*
X177065113Y-106151355D01*
X177191690Y-105918230D01*
X177191691Y-105918228D01*
X177193740Y-105914454D01*
X177282745Y-105678909D01*
X177289023Y-105662295D01*
X177289024Y-105662291D01*
X177290541Y-105658277D01*
X177333516Y-105470637D01*
X177368221Y-105408701D01*
X177430902Y-105375360D01*
X177501658Y-105381199D01*
X177558025Y-105424366D01*
X177575210Y-105456993D01*
X177708835Y-105837264D01*
X177980535Y-106610467D01*
X177982902Y-106618115D01*
X177983660Y-106622165D01*
X177985659Y-106627826D01*
X177985712Y-106628091D01*
X177985837Y-106628331D01*
X177987840Y-106634002D01*
X177990974Y-106639822D01*
X177993124Y-106643815D01*
X178003256Y-106668654D01*
X178048929Y-106827106D01*
X178052652Y-106844610D01*
X178079418Y-107036638D01*
X178080623Y-107054491D01*
X178079917Y-107248364D01*
X178078581Y-107266206D01*
X178066515Y-107348385D01*
X178050415Y-107458029D01*
X178046565Y-107475504D01*
X177997076Y-107642609D01*
X177991510Y-107661402D01*
X177985225Y-107678151D01*
X177904810Y-107853458D01*
X177904387Y-107854380D01*
X177895791Y-107870073D01*
X177797529Y-108022632D01*
X177790805Y-108033071D01*
X177780073Y-108047387D01*
X177709760Y-108128474D01*
X177674237Y-108169440D01*
X177661552Y-108181108D01*
X177655229Y-108187278D01*
X177647984Y-108192570D01*
X177642515Y-108199684D01*
X177642513Y-108199686D01*
X177628572Y-108217821D01*
X177617774Y-108230122D01*
X156889771Y-128958124D01*
X156827459Y-128992150D01*
X156756644Y-128987085D01*
X156699808Y-128944538D01*
X156674997Y-128878018D01*
X156675175Y-128857829D01*
X156684073Y-128758130D01*
X156684073Y-128758121D01*
X156684293Y-128755661D01*
X156684735Y-128713500D01*
X156679842Y-128641727D01*
X156666401Y-128444555D01*
X156666400Y-128444549D01*
X156666109Y-128440278D01*
X156610574Y-128172112D01*
X156519159Y-127913965D01*
X156393555Y-127670612D01*
X156384218Y-127657326D01*
X156238550Y-127450062D01*
X156236087Y-127446557D01*
X156110266Y-127311157D01*
X156052588Y-127249088D01*
X156052585Y-127249085D01*
X156049667Y-127245945D01*
X156046352Y-127243231D01*
X156046348Y-127243228D01*
X155841065Y-127075206D01*
X155837747Y-127072490D01*
X155604246Y-126929401D01*
X155592929Y-126924433D01*
X155357415Y-126821049D01*
X155357411Y-126821048D01*
X155353487Y-126819325D01*
X155090108Y-126744300D01*
X155085866Y-126743696D01*
X155085860Y-126743695D01*
X154867452Y-126712611D01*
X154818985Y-126705713D01*
X154675131Y-126704960D01*
X154549419Y-126704302D01*
X154549413Y-126704302D01*
X154545133Y-126704280D01*
X154540889Y-126704839D01*
X154540885Y-126704839D01*
X154458259Y-126715717D01*
X154273620Y-126740025D01*
X154269480Y-126741158D01*
X154269478Y-126741158D01*
X154196550Y-126761109D01*
X154009470Y-126812288D01*
X154005522Y-126813972D01*
X153761524Y-126918046D01*
X153761520Y-126918048D01*
X153757572Y-126919732D01*
X153737667Y-126931645D01*
X153526267Y-127058164D01*
X153526263Y-127058167D01*
X153522585Y-127060368D01*
X153308860Y-127231594D01*
X153197506Y-127348936D01*
X153153811Y-127394982D01*
X153120350Y-127430242D01*
X152960544Y-127652636D01*
X152832399Y-127894661D01*
X152830927Y-127898684D01*
X152830925Y-127898688D01*
X152739756Y-128147817D01*
X152738285Y-128151837D01*
X152679946Y-128419407D01*
X152679610Y-128423677D01*
X152671345Y-128528687D01*
X152646059Y-128595029D01*
X152588921Y-128637168D01*
X152518071Y-128641727D01*
X152456638Y-128607896D01*
X145876372Y-122027631D01*
X145862825Y-122011615D01*
X145854005Y-121999227D01*
X145851182Y-121995262D01*
X145842414Y-121986278D01*
X145838527Y-121983365D01*
X145836398Y-121981496D01*
X145830246Y-121976393D01*
X145824945Y-121971535D01*
X145712328Y-121868341D01*
X145553531Y-121722830D01*
X145553523Y-121722823D01*
X145551495Y-121720965D01*
X145239159Y-121481301D01*
X144907123Y-121269771D01*
X144557916Y-121087985D01*
X144194193Y-120937326D01*
X144191573Y-120936500D01*
X144191565Y-120936497D01*
X143821353Y-120819770D01*
X143821348Y-120819769D01*
X143818723Y-120818941D01*
X143434365Y-120733731D01*
X143431646Y-120733373D01*
X143431640Y-120733372D01*
X143285598Y-120714145D01*
X143044042Y-120682344D01*
X143041293Y-120682224D01*
X143041282Y-120682223D01*
X142653474Y-120665291D01*
X142650726Y-120665171D01*
X142647978Y-120665291D01*
X142260170Y-120682223D01*
X142260159Y-120682224D01*
X142257410Y-120682344D01*
X142015854Y-120714145D01*
X141869812Y-120733372D01*
X141869806Y-120733373D01*
X141867087Y-120733731D01*
X141482729Y-120818941D01*
X141480104Y-120819769D01*
X141480099Y-120819770D01*
X141109887Y-120936497D01*
X141109879Y-120936500D01*
X141107259Y-120937326D01*
X140743536Y-121087985D01*
X140394329Y-121269771D01*
X140062293Y-121481301D01*
X139749957Y-121720965D01*
X139747929Y-121722823D01*
X139747921Y-121722830D01*
X139482559Y-121965990D01*
X139475705Y-121971535D01*
X139475727Y-121971562D01*
X139471988Y-121974686D01*
X139468021Y-121977510D01*
X139464540Y-121980907D01*
X139464536Y-121980911D01*
X139463937Y-121981496D01*
X139459038Y-121986278D01*
X139456123Y-121990167D01*
X139456119Y-121990172D01*
X139442298Y-122008613D01*
X139430567Y-122022143D01*
X133364176Y-128088535D01*
X133301864Y-128122561D01*
X133231049Y-128117496D01*
X133174213Y-128074949D01*
X133149373Y-128008010D01*
X133143753Y-127925572D01*
X133143752Y-127925566D01*
X133143461Y-127921295D01*
X133137161Y-127890871D01*
X133092335Y-127674419D01*
X133087926Y-127653129D01*
X132996511Y-127394982D01*
X132870907Y-127151629D01*
X132860934Y-127137438D01*
X132756265Y-126988509D01*
X132713439Y-126927574D01*
X132544224Y-126745477D01*
X132529940Y-126730105D01*
X132529937Y-126730102D01*
X132527019Y-126726962D01*
X132523704Y-126724248D01*
X132523700Y-126724245D01*
X132318417Y-126556223D01*
X132315099Y-126553507D01*
X132081598Y-126410418D01*
X132077662Y-126408690D01*
X131834767Y-126302066D01*
X131834763Y-126302065D01*
X131830839Y-126300342D01*
X131567460Y-126225317D01*
X131563218Y-126224713D01*
X131563212Y-126224712D01*
X131362728Y-126196179D01*
X131296337Y-126186730D01*
X131152483Y-126185977D01*
X131026771Y-126185319D01*
X131026765Y-126185319D01*
X131022485Y-126185297D01*
X131018241Y-126185856D01*
X131018237Y-126185856D01*
X130899196Y-126201528D01*
X130750972Y-126221042D01*
X130746832Y-126222175D01*
X130746830Y-126222175D01*
X130673902Y-126242126D01*
X130486822Y-126293305D01*
X130482874Y-126294989D01*
X130238876Y-126399063D01*
X130238872Y-126399065D01*
X130234924Y-126400749D01*
X130215019Y-126412662D01*
X130003619Y-126539181D01*
X130003615Y-126539184D01*
X129999937Y-126541385D01*
X129786212Y-126712611D01*
X129597702Y-126911259D01*
X129437896Y-127133653D01*
X129379880Y-127243228D01*
X129379295Y-127244332D01*
X129329742Y-127295175D01*
X129260568Y-127311157D01*
X129193734Y-127287204D01*
X129151130Y-127232611D01*
X129052415Y-126988509D01*
X129051517Y-126986223D01*
X128828769Y-126402956D01*
X128367493Y-125195099D01*
X128366654Y-125192837D01*
X127717663Y-123388698D01*
X127716854Y-123386379D01*
X127314119Y-122194366D01*
X127103125Y-121569864D01*
X127102376Y-121567572D01*
X127097680Y-121552722D01*
X126524212Y-119739571D01*
X126523494Y-119737224D01*
X125981047Y-117898229D01*
X125980375Y-117895866D01*
X125473888Y-116046700D01*
X125473262Y-116044326D01*
X125002894Y-114185567D01*
X125002315Y-114183180D01*
X124568283Y-112315679D01*
X124567750Y-112313281D01*
X124483512Y-111915856D01*
X124170179Y-110437585D01*
X124169697Y-110435192D01*
X123808783Y-108552213D01*
X123808344Y-108549797D01*
X123658825Y-107678156D01*
X123484184Y-106660063D01*
X123483797Y-106657669D01*
X123480861Y-106638289D01*
X123337557Y-105692613D01*
X123196532Y-104761974D01*
X123196188Y-104759542D01*
X123050924Y-103656155D01*
X122945927Y-102858624D01*
X122945635Y-102856227D01*
X122945182Y-102852171D01*
X122732469Y-100950764D01*
X122732223Y-100948346D01*
X122700792Y-100607348D01*
X122675227Y-100330000D01*
X123184647Y-100330000D01*
X123204022Y-100551463D01*
X123261560Y-100766196D01*
X123263882Y-100771177D01*
X123263883Y-100771178D01*
X123353186Y-100962689D01*
X123353189Y-100962694D01*
X123355512Y-100967676D01*
X123483023Y-101149781D01*
X123640219Y-101306977D01*
X123644727Y-101310134D01*
X123644730Y-101310136D01*
X123720495Y-101363187D01*
X123822323Y-101434488D01*
X123827305Y-101436811D01*
X123827310Y-101436814D01*
X124018822Y-101526117D01*
X124023804Y-101528440D01*
X124029112Y-101529862D01*
X124029114Y-101529863D01*
X124094949Y-101547503D01*
X124238537Y-101585978D01*
X124460000Y-101605353D01*
X124681463Y-101585978D01*
X124825051Y-101547503D01*
X124890886Y-101529863D01*
X124890888Y-101529862D01*
X124896196Y-101528440D01*
X124901178Y-101526117D01*
X125092690Y-101436814D01*
X125092695Y-101436811D01*
X125097677Y-101434488D01*
X125199505Y-101363187D01*
X125275270Y-101310136D01*
X125275273Y-101310134D01*
X125279781Y-101306977D01*
X125436977Y-101149781D01*
X125564488Y-100967676D01*
X125566811Y-100962694D01*
X125566814Y-100962689D01*
X125656117Y-100771178D01*
X125656118Y-100771177D01*
X125658440Y-100766196D01*
X125715978Y-100551463D01*
X125735353Y-100330000D01*
X125715978Y-100108537D01*
X125672846Y-99947568D01*
X125659863Y-99899114D01*
X125659862Y-99899112D01*
X125658440Y-99893804D01*
X125656117Y-99888822D01*
X125566814Y-99697311D01*
X125566811Y-99697306D01*
X125564488Y-99692324D01*
X125555612Y-99679648D01*
X125440136Y-99514730D01*
X125440134Y-99514727D01*
X125436977Y-99510219D01*
X125279781Y-99353023D01*
X125275273Y-99349866D01*
X125275270Y-99349864D01*
X125199505Y-99296813D01*
X125097677Y-99225512D01*
X125092695Y-99223189D01*
X125092690Y-99223186D01*
X124901178Y-99133883D01*
X124901177Y-99133882D01*
X124896196Y-99131560D01*
X124890888Y-99130138D01*
X124890886Y-99130137D01*
X124801164Y-99106096D01*
X124681463Y-99074022D01*
X124460000Y-99054647D01*
X124238537Y-99074022D01*
X124118836Y-99106096D01*
X124029114Y-99130137D01*
X124029112Y-99130138D01*
X124023804Y-99131560D01*
X124018823Y-99133882D01*
X124018822Y-99133883D01*
X123827311Y-99223186D01*
X123827306Y-99223189D01*
X123822324Y-99225512D01*
X123817817Y-99228668D01*
X123817815Y-99228669D01*
X123644730Y-99349864D01*
X123644727Y-99349866D01*
X123640219Y-99353023D01*
X123483023Y-99510219D01*
X123479866Y-99514727D01*
X123479864Y-99514730D01*
X123364388Y-99679648D01*
X123355512Y-99692324D01*
X123353189Y-99697306D01*
X123353186Y-99697311D01*
X123263883Y-99888822D01*
X123261560Y-99893804D01*
X123260138Y-99899112D01*
X123260137Y-99899114D01*
X123247154Y-99947568D01*
X123204022Y-100108537D01*
X123184647Y-100330000D01*
X122675227Y-100330000D01*
X122655742Y-100118615D01*
X122556244Y-99039165D01*
X122556042Y-99036717D01*
X122417304Y-97124428D01*
X122417150Y-97121977D01*
X122315710Y-95207348D01*
X122315604Y-95204895D01*
X122251501Y-93288651D01*
X122251443Y-93286195D01*
X122224702Y-91369072D01*
X122224692Y-91366616D01*
X122234491Y-89599114D01*
X122235321Y-89449379D01*
X122235358Y-89446928D01*
X122249501Y-88882159D01*
X122283356Y-87530167D01*
X122283442Y-87527712D01*
X122368785Y-85612348D01*
X122368918Y-85609896D01*
X122491581Y-83696506D01*
X122491762Y-83694057D01*
X122580897Y-82629205D01*
X122948666Y-82629205D01*
X122949335Y-82634218D01*
X122949335Y-82634220D01*
X122968345Y-82776691D01*
X122980771Y-82869820D01*
X122982233Y-82874661D01*
X122982233Y-82874663D01*
X122996532Y-82922022D01*
X123050933Y-83102208D01*
X123157346Y-83320388D01*
X123297274Y-83518747D01*
X123316909Y-83540250D01*
X128634595Y-88857936D01*
X128668621Y-88920248D01*
X128671500Y-88947031D01*
X128671500Y-90261469D01*
X128651498Y-90329590D01*
X128597842Y-90376083D01*
X128527568Y-90386187D01*
X128462988Y-90356693D01*
X128456405Y-90350564D01*
X126753536Y-88647695D01*
X126751626Y-88646069D01*
X126751619Y-88646063D01*
X126619132Y-88533308D01*
X126619130Y-88533306D01*
X126615280Y-88530030D01*
X126407642Y-88404279D01*
X126182571Y-88313345D01*
X126097494Y-88294016D01*
X125950787Y-88260685D01*
X125950784Y-88260684D01*
X125945856Y-88259565D01*
X125940809Y-88259247D01*
X125940806Y-88259247D01*
X125720350Y-88245377D01*
X125703587Y-88244322D01*
X125515524Y-88262763D01*
X125467025Y-88267518D01*
X125467024Y-88267518D01*
X125461998Y-88268011D01*
X125227304Y-88330019D01*
X125005544Y-88428754D01*
X124802422Y-88561674D01*
X124710004Y-88646063D01*
X124647814Y-88702850D01*
X124623164Y-88725358D01*
X124546105Y-88822583D01*
X124475527Y-88911629D01*
X124475523Y-88911635D01*
X124472382Y-88915598D01*
X124454815Y-88947031D01*
X124369765Y-89099210D01*
X124353955Y-89127498D01*
X124270930Y-89355605D01*
X124269982Y-89360574D01*
X124269981Y-89360578D01*
X124267181Y-89375257D01*
X124225444Y-89594053D01*
X124218666Y-89836705D01*
X124250771Y-90077320D01*
X124252233Y-90082161D01*
X124252233Y-90082163D01*
X124313660Y-90285618D01*
X124320933Y-90309708D01*
X124427346Y-90527888D01*
X124430259Y-90532017D01*
X124549901Y-90701619D01*
X124567274Y-90726247D01*
X124586909Y-90747750D01*
X126095084Y-92255925D01*
X126129110Y-92318237D01*
X126131989Y-92345020D01*
X126131989Y-108506473D01*
X126131940Y-108509991D01*
X126129483Y-108597968D01*
X126129155Y-108609694D01*
X126139225Y-108685160D01*
X126139547Y-108687575D01*
X126140247Y-108694128D01*
X126146549Y-108772454D01*
X126154386Y-108804359D01*
X126156915Y-108817747D01*
X126161260Y-108850309D01*
X126162721Y-108855150D01*
X126162722Y-108855152D01*
X126183967Y-108925518D01*
X126185708Y-108931879D01*
X126204452Y-109008195D01*
X126206430Y-109012855D01*
X126217290Y-109038440D01*
X126221927Y-109051250D01*
X126231422Y-109082697D01*
X126233640Y-109087245D01*
X126233643Y-109087252D01*
X126265860Y-109153307D01*
X126268596Y-109159309D01*
X126299301Y-109231645D01*
X126301993Y-109235919D01*
X126316808Y-109259445D01*
X126323434Y-109271349D01*
X126337835Y-109300877D01*
X126376323Y-109355436D01*
X126383130Y-109365086D01*
X126386790Y-109370575D01*
X126428656Y-109437056D01*
X126431997Y-109440845D01*
X126432001Y-109440851D01*
X126450387Y-109461706D01*
X126458833Y-109472401D01*
X126477763Y-109499236D01*
X126497398Y-109520739D01*
X126537114Y-109560455D01*
X126542533Y-109566225D01*
X126585839Y-109615347D01*
X126585842Y-109615350D01*
X126589187Y-109619144D01*
X126593095Y-109622354D01*
X126593096Y-109622355D01*
X126621478Y-109645668D01*
X126630597Y-109653938D01*
X132237915Y-115261256D01*
X132244620Y-115268509D01*
X132280031Y-115309969D01*
X132303855Y-115330317D01*
X132313556Y-115339539D01*
X132337332Y-115364681D01*
X132341358Y-115367759D01*
X132341359Y-115367760D01*
X132399092Y-115411900D01*
X132404394Y-115416185D01*
X132458793Y-115462647D01*
X132458803Y-115462655D01*
X132460584Y-115464176D01*
X132461533Y-115464757D01*
X132464720Y-115467470D01*
X132469051Y-115470093D01*
X132469058Y-115470098D01*
X132492824Y-115484491D01*
X132504071Y-115492163D01*
X132530174Y-115512120D01*
X132534637Y-115514513D01*
X132596151Y-115547496D01*
X132602446Y-115551109D01*
X132663037Y-115588240D01*
X132665519Y-115589268D01*
X132666864Y-115590017D01*
X132668038Y-115590605D01*
X132672358Y-115593221D01*
X132702817Y-115605527D01*
X132715158Y-115611307D01*
X132744109Y-115626831D01*
X132812188Y-115650272D01*
X132819333Y-115652979D01*
X132882406Y-115679105D01*
X132886820Y-115680165D01*
X132891569Y-115681893D01*
X132892733Y-115682258D01*
X132897429Y-115684155D01*
X132902369Y-115685277D01*
X132902368Y-115685277D01*
X132929460Y-115691432D01*
X132942559Y-115695163D01*
X132973631Y-115705862D01*
X133041739Y-115717626D01*
X133049673Y-115719262D01*
X133108476Y-115733380D01*
X133108482Y-115733381D01*
X133113289Y-115734535D01*
X133118220Y-115734923D01*
X133122887Y-115735662D01*
X133127867Y-115736621D01*
X133129216Y-115736815D01*
X133134144Y-115737935D01*
X133166953Y-115739999D01*
X133180453Y-115741585D01*
X133212836Y-115747179D01*
X133216793Y-115747359D01*
X133216796Y-115747359D01*
X133240506Y-115748436D01*
X133240525Y-115748436D01*
X133241925Y-115748500D01*
X133285771Y-115748500D01*
X133295657Y-115748888D01*
X133345070Y-115752777D01*
X133350000Y-115753165D01*
X133354932Y-115752777D01*
X133359882Y-115752777D01*
X133359882Y-115752892D01*
X133370534Y-115752809D01*
X133371357Y-115752861D01*
X133371370Y-115752861D01*
X133376413Y-115753178D01*
X133417992Y-115749101D01*
X133430288Y-115748500D01*
X151065771Y-115748500D01*
X151075657Y-115748888D01*
X151106736Y-115751334D01*
X151130000Y-115753165D01*
X151134930Y-115752777D01*
X151134940Y-115752777D01*
X151161226Y-115750708D01*
X151174623Y-115750368D01*
X151198717Y-115751041D01*
X151204152Y-115751193D01*
X151204153Y-115751193D01*
X151209205Y-115751334D01*
X151286271Y-115741051D01*
X151293046Y-115740332D01*
X151307135Y-115739223D01*
X151364376Y-115734719D01*
X151364382Y-115734718D01*
X151366711Y-115734535D01*
X151367790Y-115734276D01*
X151371965Y-115733940D01*
X151403878Y-115726101D01*
X151417258Y-115723574D01*
X151449820Y-115719229D01*
X151521499Y-115697588D01*
X151528486Y-115695697D01*
X151571886Y-115685277D01*
X151597594Y-115679105D01*
X151600075Y-115678077D01*
X151601553Y-115677656D01*
X151602794Y-115677243D01*
X151607706Y-115676037D01*
X151637952Y-115663199D01*
X151650763Y-115658561D01*
X151677362Y-115650530D01*
X151682208Y-115649067D01*
X151746894Y-115617518D01*
X151753911Y-115614357D01*
X151812381Y-115590138D01*
X151812382Y-115590137D01*
X151816963Y-115588240D01*
X151820836Y-115585867D01*
X151825425Y-115583727D01*
X151826507Y-115583161D01*
X151831156Y-115581188D01*
X151858956Y-115563681D01*
X151870860Y-115557055D01*
X151900388Y-115542654D01*
X151956856Y-115502820D01*
X151963618Y-115498369D01*
X152019416Y-115464176D01*
X152023182Y-115460959D01*
X152027010Y-115458178D01*
X152031190Y-115455349D01*
X152032288Y-115454527D01*
X152036567Y-115451833D01*
X152040358Y-115448491D01*
X152040367Y-115448484D01*
X152061217Y-115430102D01*
X152071912Y-115421656D01*
X152074863Y-115419574D01*
X152098747Y-115402726D01*
X152120250Y-115383091D01*
X152151256Y-115352085D01*
X152158509Y-115345380D01*
X152199969Y-115309969D01*
X152203186Y-115306203D01*
X152206686Y-115302703D01*
X152206768Y-115302785D01*
X152214236Y-115295198D01*
X152218655Y-115291302D01*
X152245179Y-115259011D01*
X152253449Y-115249892D01*
X154719666Y-112783675D01*
X154722188Y-112781221D01*
X154791001Y-112716148D01*
X154794681Y-112712668D01*
X154842418Y-112650231D01*
X154846531Y-112645132D01*
X154897470Y-112585280D01*
X154900089Y-112580955D01*
X154900093Y-112580950D01*
X154914491Y-112557176D01*
X154922163Y-112545929D01*
X154942120Y-112519826D01*
X154979247Y-112450584D01*
X154982510Y-112444863D01*
X155020602Y-112381966D01*
X155020603Y-112381965D01*
X155023220Y-112377643D01*
X155035534Y-112347166D01*
X155041303Y-112334850D01*
X155056831Y-112305891D01*
X155082423Y-112231567D01*
X155084718Y-112225429D01*
X155112258Y-112157267D01*
X155112259Y-112157263D01*
X155114155Y-112152571D01*
X155121432Y-112120539D01*
X155125163Y-112107441D01*
X155135862Y-112076369D01*
X155149243Y-111998900D01*
X155150526Y-111992482D01*
X155166815Y-111920786D01*
X155166815Y-111920785D01*
X155167935Y-111915856D01*
X155169999Y-111883047D01*
X155171585Y-111869547D01*
X155177179Y-111837164D01*
X155178500Y-111808075D01*
X155178500Y-111751893D01*
X155178749Y-111743981D01*
X155182860Y-111678642D01*
X155183178Y-111673588D01*
X155179101Y-111632009D01*
X155178500Y-111619713D01*
X155178500Y-108793913D01*
X157689322Y-108793913D01*
X157693150Y-108832955D01*
X157693399Y-108835492D01*
X157694000Y-108847788D01*
X157694000Y-121078484D01*
X157693951Y-121082002D01*
X157691166Y-121181705D01*
X157691835Y-121186719D01*
X157701558Y-121259586D01*
X157702258Y-121266139D01*
X157702670Y-121271252D01*
X157706797Y-121322549D01*
X157708560Y-121344465D01*
X157716397Y-121376370D01*
X157718926Y-121389758D01*
X157723271Y-121422320D01*
X157724732Y-121427161D01*
X157724733Y-121427163D01*
X157745978Y-121497529D01*
X157747719Y-121503890D01*
X157766463Y-121580206D01*
X157768441Y-121584866D01*
X157779301Y-121610451D01*
X157783938Y-121623261D01*
X157793433Y-121654708D01*
X157795651Y-121659256D01*
X157795654Y-121659263D01*
X157827871Y-121725318D01*
X157830607Y-121731320D01*
X157861312Y-121803656D01*
X157864004Y-121807930D01*
X157878819Y-121831456D01*
X157885445Y-121843360D01*
X157899846Y-121872888D01*
X157902765Y-121877025D01*
X157902765Y-121877026D01*
X157945141Y-121937097D01*
X157948801Y-121942586D01*
X157974178Y-121982883D01*
X157990667Y-122009067D01*
X157994008Y-122012856D01*
X157994012Y-122012862D01*
X158012398Y-122033717D01*
X158020844Y-122044412D01*
X158039774Y-122071247D01*
X158042444Y-122074171D01*
X158055460Y-122088425D01*
X158059409Y-122092750D01*
X158099125Y-122132466D01*
X158104544Y-122138236D01*
X158147850Y-122187358D01*
X158147853Y-122187361D01*
X158151198Y-122191155D01*
X158155106Y-122194365D01*
X158155107Y-122194366D01*
X158183489Y-122217679D01*
X158192608Y-122225949D01*
X158996464Y-123029805D01*
X158998374Y-123031431D01*
X158998381Y-123031437D01*
X159130868Y-123144192D01*
X159134720Y-123147470D01*
X159342358Y-123273221D01*
X159347047Y-123275115D01*
X159347046Y-123275115D01*
X159562733Y-123362259D01*
X159562736Y-123362260D01*
X159567429Y-123364156D01*
X159717907Y-123398343D01*
X159799210Y-123416814D01*
X159799212Y-123416814D01*
X159804145Y-123417935D01*
X159809195Y-123418253D01*
X159809197Y-123418253D01*
X160041359Y-123432860D01*
X160046413Y-123433178D01*
X160288002Y-123409490D01*
X160292893Y-123408198D01*
X160292897Y-123408197D01*
X160517808Y-123348773D01*
X160517814Y-123348771D01*
X160522696Y-123347481D01*
X160744456Y-123248747D01*
X160749558Y-123245408D01*
X160943342Y-123118600D01*
X160943345Y-123118598D01*
X160947579Y-123115827D01*
X161039998Y-123031437D01*
X161123101Y-122955554D01*
X161123105Y-122955550D01*
X161126837Y-122952142D01*
X161277619Y-122761902D01*
X161293919Y-122732738D01*
X161393580Y-122554416D01*
X161393582Y-122554412D01*
X161396046Y-122550003D01*
X161437434Y-122436292D01*
X161477338Y-122326658D01*
X161477340Y-122326651D01*
X161479071Y-122321895D01*
X161524556Y-122083447D01*
X161531334Y-121840795D01*
X161521582Y-121767709D01*
X161532399Y-121697542D01*
X161579434Y-121644361D01*
X161654387Y-121625294D01*
X161837409Y-121636809D01*
X161837410Y-121636809D01*
X161842464Y-121637127D01*
X162084053Y-121613439D01*
X162088944Y-121612147D01*
X162088948Y-121612146D01*
X162313859Y-121552722D01*
X162313865Y-121552720D01*
X162318747Y-121551430D01*
X162540507Y-121452696D01*
X162579526Y-121427163D01*
X162739393Y-121322549D01*
X162739396Y-121322547D01*
X162743630Y-121319776D01*
X162796771Y-121271252D01*
X162919152Y-121159503D01*
X162919156Y-121159499D01*
X162922888Y-121156091D01*
X162983000Y-121080248D01*
X163070526Y-120969818D01*
X163070527Y-120969816D01*
X163073670Y-120965851D01*
X163089613Y-120937326D01*
X163189631Y-120758365D01*
X163189633Y-120758361D01*
X163192097Y-120753952D01*
X163233485Y-120640241D01*
X163273389Y-120530607D01*
X163273391Y-120530600D01*
X163275122Y-120525844D01*
X163320607Y-120287396D01*
X163327385Y-120044744D01*
X163295280Y-119804129D01*
X163293816Y-119799279D01*
X163292873Y-119794918D01*
X163298027Y-119724109D01*
X163340645Y-119667327D01*
X163407196Y-119642600D01*
X163427005Y-119642769D01*
X163612102Y-119658963D01*
X163843239Y-119638741D01*
X163848552Y-119637317D01*
X163848554Y-119637317D01*
X164062043Y-119580113D01*
X164062045Y-119580112D01*
X164067353Y-119578690D01*
X164072335Y-119576367D01*
X164272648Y-119482960D01*
X164272653Y-119482957D01*
X164277635Y-119480634D01*
X164383824Y-119406279D01*
X164463183Y-119350712D01*
X164463186Y-119350710D01*
X164467694Y-119347553D01*
X164631757Y-119183490D01*
X164764838Y-118993430D01*
X164862894Y-118783149D01*
X164922945Y-118559035D01*
X164943167Y-118327898D01*
X164922945Y-118096761D01*
X164869434Y-117897053D01*
X164864317Y-117877957D01*
X164864316Y-117877955D01*
X164862894Y-117872647D01*
X164764838Y-117662366D01*
X164631757Y-117472306D01*
X164467694Y-117308243D01*
X164463186Y-117305086D01*
X164463183Y-117305084D01*
X164383824Y-117249517D01*
X164277635Y-117175162D01*
X164272653Y-117172839D01*
X164272648Y-117172836D01*
X164072335Y-117079429D01*
X164072334Y-117079428D01*
X164067353Y-117077106D01*
X164062045Y-117075684D01*
X164062043Y-117075683D01*
X163848554Y-117018479D01*
X163848552Y-117018479D01*
X163843239Y-117017055D01*
X163612102Y-116996833D01*
X163380965Y-117017055D01*
X163375652Y-117018479D01*
X163375650Y-117018479D01*
X163262202Y-117048877D01*
X163191225Y-117047187D01*
X163132430Y-117007393D01*
X163104482Y-116942128D01*
X163103591Y-116927170D01*
X163103591Y-111850962D01*
X163123593Y-111782841D01*
X163140496Y-111761867D01*
X166149666Y-108752697D01*
X166152188Y-108750243D01*
X166221012Y-108685160D01*
X166221014Y-108685157D01*
X166224681Y-108681690D01*
X166272411Y-108619261D01*
X166276552Y-108614130D01*
X166324191Y-108558155D01*
X166324192Y-108558154D01*
X166327470Y-108554302D01*
X166330089Y-108549977D01*
X166330093Y-108549972D01*
X166344491Y-108526198D01*
X166352163Y-108514951D01*
X166372120Y-108488848D01*
X166409243Y-108419614D01*
X166412507Y-108413890D01*
X166415770Y-108408502D01*
X166453221Y-108346664D01*
X166465528Y-108316203D01*
X166471308Y-108303863D01*
X166484440Y-108279372D01*
X166486831Y-108274913D01*
X166494320Y-108253165D01*
X166512412Y-108200621D01*
X166514722Y-108194443D01*
X166542258Y-108126288D01*
X166544155Y-108121593D01*
X166551432Y-108089561D01*
X166555163Y-108076463D01*
X166565862Y-108045391D01*
X166579243Y-107967922D01*
X166580526Y-107961504D01*
X166580649Y-107960965D01*
X166597935Y-107884878D01*
X166599999Y-107852069D01*
X166601585Y-107838569D01*
X166607179Y-107806186D01*
X166608500Y-107777097D01*
X166608500Y-107720914D01*
X166608749Y-107713002D01*
X166612860Y-107647663D01*
X166613178Y-107642609D01*
X166609101Y-107601030D01*
X166608500Y-107588734D01*
X166608500Y-106635151D01*
X169737296Y-106635151D01*
X169737520Y-106639817D01*
X169737520Y-106639822D01*
X169743033Y-106754579D01*
X169749480Y-106888798D01*
X169766967Y-106976711D01*
X169795360Y-107119450D01*
X169799021Y-107137857D01*
X169800600Y-107142255D01*
X169800602Y-107142262D01*
X169873711Y-107345887D01*
X169884831Y-107376858D01*
X169887048Y-107380984D01*
X169998676Y-107588734D01*
X170005025Y-107600551D01*
X170007820Y-107604294D01*
X170007822Y-107604297D01*
X170154171Y-107800282D01*
X170154176Y-107800288D01*
X170156963Y-107804020D01*
X170160272Y-107807300D01*
X170160277Y-107807306D01*
X170333990Y-107979509D01*
X170337307Y-107982797D01*
X170341069Y-107985555D01*
X170341072Y-107985558D01*
X170500010Y-108102096D01*
X170542094Y-108132953D01*
X170546229Y-108135129D01*
X170546233Y-108135131D01*
X170633621Y-108181108D01*
X170766827Y-108251191D01*
X171006568Y-108334912D01*
X171256050Y-108382278D01*
X171376532Y-108387011D01*
X171505125Y-108392064D01*
X171505130Y-108392064D01*
X171509793Y-108392247D01*
X171608774Y-108381407D01*
X171757569Y-108365112D01*
X171757575Y-108365111D01*
X171762222Y-108364602D01*
X171829231Y-108346960D01*
X172003273Y-108301138D01*
X172007793Y-108299948D01*
X172127543Y-108248500D01*
X172236807Y-108201557D01*
X172236810Y-108201555D01*
X172241110Y-108199708D01*
X172245090Y-108197245D01*
X172245094Y-108197243D01*
X172453064Y-108068547D01*
X172453066Y-108068545D01*
X172457047Y-108066082D01*
X172475837Y-108050175D01*
X172647289Y-107905031D01*
X172647291Y-107905029D01*
X172650862Y-107902006D01*
X172818295Y-107711084D01*
X172830580Y-107691986D01*
X172953141Y-107501442D01*
X172955669Y-107497512D01*
X173059967Y-107265980D01*
X173128896Y-107021575D01*
X173145788Y-106888798D01*
X173160545Y-106772798D01*
X173160545Y-106772792D01*
X173160943Y-106769667D01*
X173161275Y-106757012D01*
X173162574Y-106707391D01*
X173163291Y-106680000D01*
X173159434Y-106628091D01*
X173144818Y-106431411D01*
X173144817Y-106431407D01*
X173144472Y-106426759D01*
X173141241Y-106412476D01*
X173089459Y-106183639D01*
X173088428Y-106179082D01*
X173086735Y-106174728D01*
X172998084Y-105946762D01*
X172998083Y-105946760D01*
X172996391Y-105942409D01*
X172975106Y-105905167D01*
X172958500Y-105842646D01*
X172958500Y-100388180D01*
X172959592Y-100371625D01*
X172961198Y-100359511D01*
X172961198Y-100359506D01*
X172961898Y-100354226D01*
X172958589Y-100266083D01*
X172958500Y-100261357D01*
X172958500Y-100228999D01*
X172958299Y-100226495D01*
X172958298Y-100226481D01*
X172956273Y-100201314D01*
X172955956Y-100195939D01*
X172953449Y-100129173D01*
X172953249Y-100123842D01*
X172952154Y-100118623D01*
X172952153Y-100118615D01*
X172949682Y-100106837D01*
X172947403Y-100091072D01*
X172944346Y-100053076D01*
X172944345Y-100053071D01*
X172943940Y-100048035D01*
X172931461Y-99997227D01*
X172887244Y-99817208D01*
X172886037Y-99812294D01*
X172791188Y-99588844D01*
X172689717Y-99427712D01*
X172664528Y-99387712D01*
X172664526Y-99387709D01*
X172661833Y-99383433D01*
X172658492Y-99379643D01*
X172658488Y-99379638D01*
X172539315Y-99244462D01*
X172509270Y-99180136D01*
X172518771Y-99109778D01*
X172567526Y-99053993D01*
X172667807Y-98991937D01*
X172679208Y-98982901D01*
X172793739Y-98868171D01*
X172802751Y-98856760D01*
X172887816Y-98718757D01*
X172893963Y-98705576D01*
X172945138Y-98551290D01*
X172948005Y-98537914D01*
X172957672Y-98443562D01*
X172958000Y-98437146D01*
X172958000Y-98062115D01*
X172953525Y-98046876D01*
X172952135Y-98045671D01*
X172944452Y-98044000D01*
X169960116Y-98044000D01*
X169944877Y-98048475D01*
X169943672Y-98049865D01*
X169942001Y-98057548D01*
X169942001Y-98437095D01*
X169942338Y-98443614D01*
X169952257Y-98539206D01*
X169955149Y-98552600D01*
X170006588Y-98706784D01*
X170012761Y-98719962D01*
X170098063Y-98857807D01*
X170107099Y-98869208D01*
X170221829Y-98983739D01*
X170233243Y-98992753D01*
X170331508Y-99053324D01*
X170379002Y-99106096D01*
X170390426Y-99176167D01*
X170362152Y-99241291D01*
X170351966Y-99252132D01*
X170329005Y-99273845D01*
X170328997Y-99273854D01*
X170325319Y-99277332D01*
X170322241Y-99281358D01*
X170322240Y-99281359D01*
X170180953Y-99466154D01*
X170180950Y-99466158D01*
X170177880Y-99470174D01*
X170063169Y-99684109D01*
X170019031Y-99812294D01*
X169989137Y-99899114D01*
X169984138Y-99913631D01*
X169983277Y-99918614D01*
X169983276Y-99918619D01*
X169972732Y-99979669D01*
X169970994Y-99986892D01*
X169971122Y-99986920D01*
X169969977Y-99992126D01*
X169968393Y-99997227D01*
X169967692Y-100002517D01*
X169967691Y-100002521D01*
X169964410Y-100027280D01*
X169963663Y-100032172D01*
X169950473Y-100108537D01*
X169942821Y-100152836D01*
X169941500Y-100181925D01*
X169941500Y-100191820D01*
X169940408Y-100208375D01*
X169938102Y-100225774D01*
X169938302Y-100231103D01*
X169938302Y-100231105D01*
X169941411Y-100313916D01*
X169941500Y-100318643D01*
X169941500Y-105837264D01*
X169927767Y-105894466D01*
X169925870Y-105898188D01*
X169923447Y-105902182D01*
X169921640Y-105906490D01*
X169921640Y-105906491D01*
X169841599Y-106097368D01*
X169825246Y-106136365D01*
X169824095Y-106140897D01*
X169824094Y-106140900D01*
X169808331Y-106202969D01*
X169762738Y-106382490D01*
X169737296Y-106635151D01*
X166608500Y-106635151D01*
X166608500Y-100268999D01*
X166608298Y-100266486D01*
X166594346Y-100093076D01*
X166594345Y-100093071D01*
X166593940Y-100088035D01*
X166585727Y-100054595D01*
X166537244Y-99857208D01*
X166536037Y-99852294D01*
X166529342Y-99836520D01*
X166443165Y-99633502D01*
X166441188Y-99628844D01*
X166369265Y-99514633D01*
X166314528Y-99427712D01*
X166314526Y-99427709D01*
X166311833Y-99423433D01*
X166246974Y-99349864D01*
X166154650Y-99245142D01*
X166154647Y-99245139D01*
X166151302Y-99241345D01*
X166135870Y-99228669D01*
X165967628Y-99090474D01*
X165967625Y-99090472D01*
X165963722Y-99087266D01*
X165784406Y-98982901D01*
X165758290Y-98967701D01*
X165758288Y-98967700D01*
X165753922Y-98965159D01*
X165749199Y-98963346D01*
X165532022Y-98879980D01*
X165532018Y-98879979D01*
X165527298Y-98878167D01*
X165522348Y-98877133D01*
X165522345Y-98877132D01*
X165294631Y-98829560D01*
X165294627Y-98829560D01*
X165289680Y-98828526D01*
X165047183Y-98817514D01*
X165042163Y-98818095D01*
X165042159Y-98818095D01*
X164811071Y-98844833D01*
X164811067Y-98844834D01*
X164806044Y-98845415D01*
X164801180Y-98846791D01*
X164801177Y-98846792D01*
X164693958Y-98877132D01*
X164572468Y-98911510D01*
X164567892Y-98913644D01*
X164567886Y-98913646D01*
X164357046Y-99011962D01*
X164357042Y-99011964D01*
X164352464Y-99014099D01*
X164151693Y-99150544D01*
X163975319Y-99317332D01*
X163972241Y-99321358D01*
X163972240Y-99321359D01*
X163830953Y-99506154D01*
X163830950Y-99506158D01*
X163827880Y-99510174D01*
X163825490Y-99514632D01*
X163825489Y-99514633D01*
X163785697Y-99588844D01*
X163713169Y-99724109D01*
X163634138Y-99953631D01*
X163623047Y-100017842D01*
X163594706Y-100181925D01*
X163592821Y-100192836D01*
X163591500Y-100221925D01*
X163591500Y-106991991D01*
X163571498Y-107060112D01*
X163554595Y-107081086D01*
X163213595Y-107422086D01*
X163151283Y-107456112D01*
X163080468Y-107451047D01*
X163023632Y-107408500D01*
X162998821Y-107341980D01*
X162998500Y-107332991D01*
X162998500Y-105431866D01*
X162991745Y-105369684D01*
X162940615Y-105233295D01*
X162853261Y-105116739D01*
X162736705Y-105029385D01*
X162600316Y-104978255D01*
X162538134Y-104971500D01*
X160041866Y-104971500D01*
X159979684Y-104978255D01*
X159843295Y-105029385D01*
X159726739Y-105116739D01*
X159639385Y-105233295D01*
X159588255Y-105369684D01*
X159581500Y-105431866D01*
X159581500Y-106202969D01*
X159561498Y-106271090D01*
X159544595Y-106292064D01*
X158152834Y-107683825D01*
X158150312Y-107686279D01*
X158083754Y-107749220D01*
X158077819Y-107754832D01*
X158033213Y-107813175D01*
X158030092Y-107817257D01*
X158025948Y-107822392D01*
X157987337Y-107867760D01*
X157975030Y-107882220D01*
X157972411Y-107886545D01*
X157972407Y-107886550D01*
X157958009Y-107910324D01*
X157950337Y-107921571D01*
X157930380Y-107947674D01*
X157895825Y-108012120D01*
X157893261Y-108016901D01*
X157889996Y-108022626D01*
X157849279Y-108089858D01*
X157836973Y-108120317D01*
X157831193Y-108132658D01*
X157815669Y-108161609D01*
X157814023Y-108166390D01*
X157814021Y-108166394D01*
X157790088Y-108235901D01*
X157787778Y-108242079D01*
X157783473Y-108252734D01*
X157758345Y-108314929D01*
X157757223Y-108319868D01*
X157751068Y-108346960D01*
X157747337Y-108360059D01*
X157736638Y-108391131D01*
X157723257Y-108468600D01*
X157721977Y-108475004D01*
X157704565Y-108551644D01*
X157702501Y-108584453D01*
X157700915Y-108597953D01*
X157695321Y-108630336D01*
X157694000Y-108659425D01*
X157694000Y-108715608D01*
X157693751Y-108723519D01*
X157689322Y-108793913D01*
X155178500Y-108793913D01*
X155178500Y-104182031D01*
X155198502Y-104113910D01*
X155215405Y-104092936D01*
X161790456Y-97517885D01*
X169942000Y-97517885D01*
X169946475Y-97533124D01*
X169947865Y-97534329D01*
X169955548Y-97536000D01*
X171177885Y-97536000D01*
X171193124Y-97531525D01*
X171194329Y-97530135D01*
X171196000Y-97522452D01*
X171196000Y-97517885D01*
X171704000Y-97517885D01*
X171708475Y-97533124D01*
X171709865Y-97534329D01*
X171717548Y-97536000D01*
X172939884Y-97536000D01*
X172955123Y-97531525D01*
X172956328Y-97530135D01*
X172957999Y-97522452D01*
X172957999Y-97142905D01*
X172957662Y-97136386D01*
X172947743Y-97040794D01*
X172944851Y-97027400D01*
X172893412Y-96873216D01*
X172887239Y-96860038D01*
X172801937Y-96722193D01*
X172792901Y-96710792D01*
X172678171Y-96596261D01*
X172666760Y-96587249D01*
X172528757Y-96502184D01*
X172515576Y-96496037D01*
X172361290Y-96444862D01*
X172347914Y-96441995D01*
X172253562Y-96432328D01*
X172247145Y-96432000D01*
X171722115Y-96432000D01*
X171706876Y-96436475D01*
X171705671Y-96437865D01*
X171704000Y-96445548D01*
X171704000Y-97517885D01*
X171196000Y-97517885D01*
X171196000Y-96450116D01*
X171191525Y-96434877D01*
X171190135Y-96433672D01*
X171182452Y-96432001D01*
X170652905Y-96432001D01*
X170646386Y-96432338D01*
X170550794Y-96442257D01*
X170537400Y-96445149D01*
X170383216Y-96496588D01*
X170370038Y-96502761D01*
X170232193Y-96588063D01*
X170220792Y-96597099D01*
X170106261Y-96711829D01*
X170097249Y-96723240D01*
X170012184Y-96861243D01*
X170006037Y-96874424D01*
X169954862Y-97028710D01*
X169951995Y-97042086D01*
X169942328Y-97136438D01*
X169942000Y-97142855D01*
X169942000Y-97517885D01*
X161790456Y-97517885D01*
X166322936Y-92985405D01*
X166385248Y-92951379D01*
X166412031Y-92948500D01*
X171511001Y-92948500D01*
X171513509Y-92948298D01*
X171513514Y-92948298D01*
X171686924Y-92934346D01*
X171686929Y-92934345D01*
X171691965Y-92933940D01*
X171696873Y-92932734D01*
X171696876Y-92932734D01*
X171922792Y-92877244D01*
X171927706Y-92876037D01*
X171932358Y-92874062D01*
X171932362Y-92874061D01*
X172146498Y-92783165D01*
X172151156Y-92781188D01*
X172272931Y-92704502D01*
X172352288Y-92654528D01*
X172352291Y-92654526D01*
X172356567Y-92651833D01*
X172402166Y-92611633D01*
X172534858Y-92494650D01*
X172534861Y-92494647D01*
X172538655Y-92491302D01*
X172658812Y-92345020D01*
X172689526Y-92307628D01*
X172689528Y-92307625D01*
X172692734Y-92303722D01*
X172784133Y-92146683D01*
X172812299Y-92098290D01*
X172812300Y-92098288D01*
X172814841Y-92093922D01*
X172882404Y-91917914D01*
X172900020Y-91872022D01*
X172900021Y-91872018D01*
X172901833Y-91867298D01*
X172915656Y-91801130D01*
X172950440Y-91634631D01*
X172950440Y-91634627D01*
X172951474Y-91629680D01*
X172962486Y-91387183D01*
X172960448Y-91369570D01*
X172935167Y-91151071D01*
X172935166Y-91151067D01*
X172934585Y-91146044D01*
X172923326Y-91106253D01*
X172869866Y-90917331D01*
X172868490Y-90912468D01*
X172866356Y-90907892D01*
X172866354Y-90907886D01*
X172768038Y-90697046D01*
X172768036Y-90697042D01*
X172765901Y-90692464D01*
X172629456Y-90491693D01*
X172462668Y-90315319D01*
X172428392Y-90289113D01*
X172386424Y-90231848D01*
X172382079Y-90160985D01*
X172421596Y-90094503D01*
X172534858Y-89994650D01*
X172534861Y-89994647D01*
X172538655Y-89991302D01*
X172541866Y-89987393D01*
X172689526Y-89807628D01*
X172689528Y-89807625D01*
X172692734Y-89803722D01*
X172814841Y-89593922D01*
X172876802Y-89432506D01*
X172900020Y-89372022D01*
X172900021Y-89372018D01*
X172901833Y-89367298D01*
X172911228Y-89322327D01*
X172950440Y-89134631D01*
X172950440Y-89134627D01*
X172951474Y-89129680D01*
X172962486Y-88887183D01*
X172943368Y-88721949D01*
X172935167Y-88651071D01*
X172935166Y-88651067D01*
X172934585Y-88646044D01*
X172917338Y-88585092D01*
X172869866Y-88417331D01*
X172868490Y-88412468D01*
X172866356Y-88407892D01*
X172866354Y-88407886D01*
X172768038Y-88197046D01*
X172768036Y-88197042D01*
X172765901Y-88192464D01*
X172739312Y-88153339D01*
X172665102Y-88044144D01*
X172629456Y-87991693D01*
X172625977Y-87988014D01*
X172625973Y-87988009D01*
X172532331Y-87888985D01*
X172500059Y-87825747D01*
X172507099Y-87755100D01*
X172551216Y-87699475D01*
X172557541Y-87695290D01*
X172649348Y-87638478D01*
X172774305Y-87513303D01*
X172782744Y-87499612D01*
X172863275Y-87368968D01*
X172863276Y-87368966D01*
X172867115Y-87362738D01*
X172922797Y-87194861D01*
X172926900Y-87154821D01*
X172933172Y-87093598D01*
X172933500Y-87090400D01*
X172933500Y-86725736D01*
X172935732Y-86702126D01*
X172946297Y-86646745D01*
X172954556Y-86603447D01*
X172961334Y-86360795D01*
X172934607Y-86160486D01*
X172933500Y-86143823D01*
X172933500Y-85789600D01*
X172925213Y-85709730D01*
X172923238Y-85690692D01*
X172923237Y-85690688D01*
X172922526Y-85683834D01*
X172866550Y-85516054D01*
X172773478Y-85365652D01*
X172648303Y-85240695D01*
X172582193Y-85199944D01*
X172503968Y-85151725D01*
X172503966Y-85151724D01*
X172497738Y-85147885D01*
X172417995Y-85121436D01*
X172336389Y-85094368D01*
X172336387Y-85094368D01*
X172329861Y-85092203D01*
X172323025Y-85091503D01*
X172323022Y-85091502D01*
X172279969Y-85087091D01*
X172225400Y-85081500D01*
X172209576Y-85081500D01*
X172150034Y-85066544D01*
X172128746Y-85055129D01*
X172120588Y-85050755D01*
X172114860Y-85047488D01*
X172096418Y-85036319D01*
X172047642Y-85006779D01*
X172017181Y-84994472D01*
X172004841Y-84988692D01*
X172001350Y-84986820D01*
X171975891Y-84973169D01*
X171971110Y-84971523D01*
X171971106Y-84971521D01*
X171901599Y-84947588D01*
X171895421Y-84945278D01*
X171827266Y-84917742D01*
X171827267Y-84917742D01*
X171822571Y-84915845D01*
X171790539Y-84908568D01*
X171777441Y-84904837D01*
X171746369Y-84894138D01*
X171668900Y-84880757D01*
X171662496Y-84879477D01*
X171585856Y-84862065D01*
X171553047Y-84860001D01*
X171539547Y-84858415D01*
X171507164Y-84852821D01*
X171503207Y-84852641D01*
X171503204Y-84852641D01*
X171479494Y-84851564D01*
X171479475Y-84851564D01*
X171478075Y-84851500D01*
X171421892Y-84851500D01*
X171413980Y-84851251D01*
X171408386Y-84850899D01*
X171343587Y-84846822D01*
X171304545Y-84850650D01*
X171302008Y-84850899D01*
X171289712Y-84851500D01*
X144804016Y-84851500D01*
X144800498Y-84851451D01*
X144705850Y-84848807D01*
X144705847Y-84848807D01*
X144700795Y-84848666D01*
X144622902Y-84859059D01*
X144616361Y-84859758D01*
X144591617Y-84861749D01*
X144543077Y-84865654D01*
X144543073Y-84865655D01*
X144538035Y-84866060D01*
X144506122Y-84873899D01*
X144492742Y-84876426D01*
X144460180Y-84880771D01*
X144455339Y-84882232D01*
X144455337Y-84882233D01*
X144384971Y-84903478D01*
X144378610Y-84905219D01*
X144302294Y-84923963D01*
X144297634Y-84925941D01*
X144272049Y-84936801D01*
X144259239Y-84941438D01*
X144227792Y-84950933D01*
X144223244Y-84953151D01*
X144223237Y-84953154D01*
X144157182Y-84985371D01*
X144151180Y-84988107D01*
X144107192Y-85006779D01*
X144078844Y-85018812D01*
X144054532Y-85034123D01*
X144051044Y-85036319D01*
X144039140Y-85042945D01*
X144009612Y-85057346D01*
X143957131Y-85094368D01*
X143945403Y-85102641D01*
X143939914Y-85106301D01*
X143877714Y-85145471D01*
X143873433Y-85148167D01*
X143869644Y-85151508D01*
X143869638Y-85151512D01*
X143848783Y-85169898D01*
X143838088Y-85178344D01*
X143811253Y-85197274D01*
X143789750Y-85216909D01*
X143750034Y-85256625D01*
X143744264Y-85262044D01*
X143695142Y-85305350D01*
X143695139Y-85305353D01*
X143691345Y-85308698D01*
X143688135Y-85312606D01*
X143688134Y-85312607D01*
X143664821Y-85340989D01*
X143656551Y-85350108D01*
X141830334Y-87176325D01*
X141827812Y-87178779D01*
X141766003Y-87237229D01*
X141755319Y-87247332D01*
X141752252Y-87251344D01*
X141707592Y-87309757D01*
X141703448Y-87314892D01*
X141658493Y-87367714D01*
X141652530Y-87374720D01*
X141649911Y-87379045D01*
X141649907Y-87379050D01*
X141635509Y-87402824D01*
X141627837Y-87414071D01*
X141607880Y-87440174D01*
X141605490Y-87444632D01*
X141605489Y-87444633D01*
X141570761Y-87509401D01*
X141567496Y-87515126D01*
X141526779Y-87582358D01*
X141524884Y-87587049D01*
X141514473Y-87612817D01*
X141508693Y-87625158D01*
X141493169Y-87654109D01*
X141491523Y-87658890D01*
X141491521Y-87658894D01*
X141467588Y-87728401D01*
X141465278Y-87734579D01*
X141456987Y-87755100D01*
X141435845Y-87807429D01*
X141431683Y-87825747D01*
X141428568Y-87839460D01*
X141424837Y-87852559D01*
X141414138Y-87883631D01*
X141400757Y-87961100D01*
X141399477Y-87967504D01*
X141382065Y-88044144D01*
X141380001Y-88076953D01*
X141378415Y-88090453D01*
X141372821Y-88122836D01*
X141371500Y-88151925D01*
X141371500Y-88208108D01*
X141371251Y-88216019D01*
X141366822Y-88286413D01*
X141370259Y-88321463D01*
X141370899Y-88327992D01*
X141371500Y-88340288D01*
X141371500Y-96581001D01*
X141371702Y-96583509D01*
X141371702Y-96583514D01*
X141381943Y-96710792D01*
X141386060Y-96761965D01*
X141387266Y-96766873D01*
X141387266Y-96766876D01*
X141413682Y-96874424D01*
X141443963Y-96997706D01*
X141445938Y-97002358D01*
X141445939Y-97002362D01*
X141465113Y-97047532D01*
X141538812Y-97221156D01*
X141668167Y-97426567D01*
X141708207Y-97471984D01*
X141825350Y-97604858D01*
X141825353Y-97604861D01*
X141828698Y-97608655D01*
X141832606Y-97611865D01*
X141832607Y-97611866D01*
X141901695Y-97668615D01*
X141941638Y-97727310D01*
X141943508Y-97798282D01*
X141906711Y-97858998D01*
X141842929Y-97890182D01*
X141821719Y-97891980D01*
X141357511Y-97891980D01*
X141289390Y-97871978D01*
X141268416Y-97855075D01*
X138883675Y-95470334D01*
X138881221Y-95467812D01*
X138816138Y-95398988D01*
X138816135Y-95398986D01*
X138812668Y-95395319D01*
X138750239Y-95347589D01*
X138745108Y-95343448D01*
X138689133Y-95295809D01*
X138689132Y-95295808D01*
X138685280Y-95292530D01*
X138680955Y-95289911D01*
X138680950Y-95289907D01*
X138657176Y-95275509D01*
X138645929Y-95267837D01*
X138619826Y-95247880D01*
X138550592Y-95210757D01*
X138544868Y-95207493D01*
X138544629Y-95207348D01*
X138477642Y-95166779D01*
X138447181Y-95154472D01*
X138434841Y-95148692D01*
X138410350Y-95135560D01*
X138410351Y-95135560D01*
X138405891Y-95133169D01*
X138401110Y-95131523D01*
X138401106Y-95131521D01*
X138331599Y-95107588D01*
X138325421Y-95105278D01*
X138257266Y-95077742D01*
X138257267Y-95077742D01*
X138252571Y-95075845D01*
X138220539Y-95068568D01*
X138207441Y-95064837D01*
X138176369Y-95054138D01*
X138098900Y-95040757D01*
X138092496Y-95039477D01*
X138015856Y-95022065D01*
X137983047Y-95020001D01*
X137969547Y-95018415D01*
X137937164Y-95012821D01*
X137933207Y-95012641D01*
X137933204Y-95012641D01*
X137909494Y-95011564D01*
X137909475Y-95011564D01*
X137908075Y-95011500D01*
X137851892Y-95011500D01*
X137843980Y-95011251D01*
X137838386Y-95010899D01*
X137773587Y-95006822D01*
X137734545Y-95010650D01*
X137732008Y-95010899D01*
X137719712Y-95011500D01*
X135198999Y-95011500D01*
X135196491Y-95011702D01*
X135196486Y-95011702D01*
X135023076Y-95025654D01*
X135023071Y-95025655D01*
X135018035Y-95026060D01*
X135013127Y-95027266D01*
X135013124Y-95027266D01*
X134787208Y-95082756D01*
X134782294Y-95083963D01*
X134777642Y-95085938D01*
X134777638Y-95085939D01*
X134726637Y-95107588D01*
X134558844Y-95178812D01*
X134508110Y-95210761D01*
X134357712Y-95305472D01*
X134357709Y-95305474D01*
X134353433Y-95308167D01*
X134308714Y-95347592D01*
X134175142Y-95465350D01*
X134175139Y-95465353D01*
X134171345Y-95468698D01*
X134168135Y-95472606D01*
X134168134Y-95472607D01*
X134024190Y-95647849D01*
X134017266Y-95656278D01*
X133895159Y-95866078D01*
X133808167Y-96092702D01*
X133758526Y-96330320D01*
X133747514Y-96572817D01*
X133748095Y-96577837D01*
X133748095Y-96577841D01*
X133769968Y-96766876D01*
X133775415Y-96813956D01*
X133776791Y-96818820D01*
X133776792Y-96818823D01*
X133822476Y-96980266D01*
X133841510Y-97047532D01*
X133843644Y-97052108D01*
X133843646Y-97052114D01*
X133924469Y-97225440D01*
X133944099Y-97267536D01*
X134080544Y-97468307D01*
X134247332Y-97644681D01*
X134251358Y-97647759D01*
X134251359Y-97647760D01*
X134436154Y-97789047D01*
X134436158Y-97789050D01*
X134440174Y-97792120D01*
X134444632Y-97794510D01*
X134444633Y-97794511D01*
X134564901Y-97858998D01*
X134654109Y-97906831D01*
X134883631Y-97985862D01*
X134982978Y-98003022D01*
X135118926Y-98026504D01*
X135118932Y-98026505D01*
X135122836Y-98027179D01*
X135126797Y-98027359D01*
X135126798Y-98027359D01*
X135150506Y-98028436D01*
X135150525Y-98028436D01*
X135151925Y-98028500D01*
X137122969Y-98028500D01*
X137191090Y-98048502D01*
X137212064Y-98065405D01*
X139023064Y-99876405D01*
X139057090Y-99938717D01*
X139052025Y-100009532D01*
X139009478Y-100066368D01*
X138942958Y-100091179D01*
X138933969Y-100091500D01*
X134027031Y-100091500D01*
X133958910Y-100071498D01*
X133937936Y-100054595D01*
X131725405Y-97842064D01*
X131691379Y-97779752D01*
X131688500Y-97752969D01*
X131688500Y-88294016D01*
X131688549Y-88290498D01*
X131691193Y-88195851D01*
X131691193Y-88195848D01*
X131691334Y-88190795D01*
X131682796Y-88126796D01*
X131680943Y-88112911D01*
X131680242Y-88106354D01*
X131674346Y-88033080D01*
X131674346Y-88033079D01*
X131673940Y-88028035D01*
X131666106Y-87996139D01*
X131663576Y-87982750D01*
X131659899Y-87955195D01*
X131659230Y-87950180D01*
X131636516Y-87874949D01*
X131634778Y-87868595D01*
X131629257Y-87846115D01*
X131616037Y-87792294D01*
X131603200Y-87762052D01*
X131598562Y-87749238D01*
X131590532Y-87722642D01*
X131589068Y-87717792D01*
X131554608Y-87647138D01*
X131551903Y-87641204D01*
X131521188Y-87568844D01*
X131518493Y-87564564D01*
X131518487Y-87564553D01*
X131503684Y-87541047D01*
X131497056Y-87529140D01*
X131490224Y-87515132D01*
X131482654Y-87499612D01*
X131437357Y-87435400D01*
X131433699Y-87429914D01*
X131394529Y-87367714D01*
X131394528Y-87367713D01*
X131391833Y-87363433D01*
X131388492Y-87359644D01*
X131388488Y-87359638D01*
X131370102Y-87338783D01*
X131361656Y-87328088D01*
X131345009Y-87304490D01*
X131342726Y-87301253D01*
X131323091Y-87279750D01*
X131283375Y-87240034D01*
X131277956Y-87234264D01*
X131234650Y-87185142D01*
X131234647Y-87185139D01*
X131231302Y-87181345D01*
X131199011Y-87154821D01*
X131189892Y-87146551D01*
X127652118Y-83608777D01*
X164405777Y-83608777D01*
X164415074Y-83620793D01*
X164458069Y-83650898D01*
X164467555Y-83656376D01*
X164658993Y-83745645D01*
X164669285Y-83749391D01*
X164873309Y-83804059D01*
X164884104Y-83805962D01*
X165094525Y-83824372D01*
X165105475Y-83824372D01*
X165315896Y-83805962D01*
X165326691Y-83804059D01*
X165530715Y-83749391D01*
X165541007Y-83745645D01*
X165732445Y-83656376D01*
X165741931Y-83650898D01*
X165785764Y-83620207D01*
X165794139Y-83609729D01*
X165787071Y-83596281D01*
X165112812Y-82922022D01*
X165098868Y-82914408D01*
X165097035Y-82914539D01*
X165090420Y-82918790D01*
X164412207Y-83597003D01*
X164405777Y-83608777D01*
X127652118Y-83608777D01*
X125483536Y-81440195D01*
X125481626Y-81438569D01*
X125481619Y-81438563D01*
X125349132Y-81325808D01*
X125349130Y-81325806D01*
X125345280Y-81322530D01*
X125137642Y-81196779D01*
X124912571Y-81105845D01*
X124867727Y-81095657D01*
X124680787Y-81053185D01*
X124680784Y-81053184D01*
X124675856Y-81052065D01*
X124670809Y-81051747D01*
X124670806Y-81051747D01*
X124450350Y-81037877D01*
X124433587Y-81036822D01*
X124245524Y-81055263D01*
X124197025Y-81060018D01*
X124197024Y-81060018D01*
X124191998Y-81060511D01*
X123957304Y-81122519D01*
X123735544Y-81221254D01*
X123532422Y-81354174D01*
X123474574Y-81406996D01*
X123364499Y-81507508D01*
X123353164Y-81517858D01*
X123320184Y-81559469D01*
X123205527Y-81704129D01*
X123205523Y-81704135D01*
X123202382Y-81708098D01*
X123199911Y-81712520D01*
X123119801Y-81855860D01*
X123083955Y-81919998D01*
X123051102Y-82010259D01*
X123011420Y-82119285D01*
X123000930Y-82148105D01*
X122999982Y-82153074D01*
X122999981Y-82153078D01*
X122992590Y-82191824D01*
X122955444Y-82386553D01*
X122955303Y-82391614D01*
X122949106Y-82613466D01*
X122948666Y-82629205D01*
X122580897Y-82629205D01*
X122651694Y-81783425D01*
X122651923Y-81780979D01*
X122810181Y-80249986D01*
X122849064Y-79873838D01*
X122849337Y-79871422D01*
X122849885Y-79866976D01*
X122875744Y-79656924D01*
X122881470Y-79610417D01*
X122909646Y-79545251D01*
X122968581Y-79505662D01*
X123039563Y-79504221D01*
X123099719Y-79541013D01*
X123168822Y-79616957D01*
X123378915Y-79792621D01*
X123382556Y-79794905D01*
X123607264Y-79935865D01*
X123607268Y-79935867D01*
X123610904Y-79938148D01*
X123678784Y-79968797D01*
X123856585Y-80049078D01*
X123856589Y-80049080D01*
X123860497Y-80050844D01*
X123864617Y-80052064D01*
X123864616Y-80052064D01*
X124118963Y-80127405D01*
X124118967Y-80127406D01*
X124123076Y-80128623D01*
X124127310Y-80129271D01*
X124127315Y-80129272D01*
X124389538Y-80169397D01*
X124389540Y-80169397D01*
X124393780Y-80170046D01*
X124533152Y-80172236D01*
X124663311Y-80174281D01*
X124663317Y-80174281D01*
X124667602Y-80174348D01*
X124939475Y-80141448D01*
X125204367Y-80071955D01*
X125208327Y-80070315D01*
X125208332Y-80070313D01*
X125421416Y-79982050D01*
X125457376Y-79967155D01*
X125628812Y-79866976D01*
X125690119Y-79831151D01*
X125690120Y-79831150D01*
X125693822Y-79828987D01*
X125909329Y-79660008D01*
X125951049Y-79616957D01*
X126085973Y-79477726D01*
X126099909Y-79463345D01*
X126102442Y-79459897D01*
X126102446Y-79459892D01*
X126259497Y-79246092D01*
X126262035Y-79242637D01*
X126267762Y-79232090D01*
X126390658Y-79005744D01*
X126390659Y-79005742D01*
X126392708Y-79001968D01*
X126489509Y-78745791D01*
X126528528Y-78575423D01*
X126549689Y-78483031D01*
X126549690Y-78483027D01*
X126550647Y-78478847D01*
X126559150Y-78383579D01*
X126574771Y-78208541D01*
X126574771Y-78208539D01*
X126574991Y-78206075D01*
X126575433Y-78163914D01*
X126574489Y-78150070D01*
X126557099Y-77894969D01*
X126557098Y-77894963D01*
X126556807Y-77890692D01*
X126555938Y-77886495D01*
X126543830Y-77828028D01*
X126549602Y-77757266D01*
X126592715Y-77700859D01*
X126659480Y-77676714D01*
X126730211Y-77693358D01*
X133939735Y-81855777D01*
X134152535Y-81978637D01*
X134169760Y-81990597D01*
X134185239Y-82003380D01*
X134196032Y-82009789D01*
X134200557Y-82011603D01*
X134203145Y-82012881D01*
X134210316Y-82016175D01*
X134425491Y-82128189D01*
X134543263Y-82189497D01*
X134545706Y-82190769D01*
X134909429Y-82341429D01*
X134912049Y-82342255D01*
X134912057Y-82342258D01*
X135282275Y-82458988D01*
X135282279Y-82458989D01*
X135284899Y-82459815D01*
X135361382Y-82476771D01*
X135666560Y-82544428D01*
X135666563Y-82544429D01*
X135669258Y-82545026D01*
X135671988Y-82545385D01*
X135671997Y-82545387D01*
X135864419Y-82570719D01*
X136059581Y-82596413D01*
X136062330Y-82596533D01*
X136062341Y-82596534D01*
X136450149Y-82613466D01*
X136452897Y-82613586D01*
X136846214Y-82596414D01*
X137101447Y-82562812D01*
X137157178Y-82555475D01*
X163825628Y-82555475D01*
X163844038Y-82765896D01*
X163845941Y-82776691D01*
X163900609Y-82980715D01*
X163904355Y-82991007D01*
X163993623Y-83182441D01*
X163999103Y-83191932D01*
X164029794Y-83235765D01*
X164040271Y-83244140D01*
X164053718Y-83237072D01*
X164727978Y-82562812D01*
X164734356Y-82551132D01*
X165464408Y-82551132D01*
X165464539Y-82552965D01*
X165468790Y-82559580D01*
X166147003Y-83237793D01*
X166158777Y-83244223D01*
X166170793Y-83234926D01*
X166200897Y-83191932D01*
X166206377Y-83182441D01*
X166295645Y-82991007D01*
X166299391Y-82980715D01*
X166354059Y-82776691D01*
X166355962Y-82765896D01*
X166374372Y-82555475D01*
X166374372Y-82544525D01*
X166355962Y-82334104D01*
X166354059Y-82323309D01*
X166299391Y-82119285D01*
X166295645Y-82108993D01*
X166206377Y-81917559D01*
X166200897Y-81908068D01*
X166170206Y-81864235D01*
X166159729Y-81855860D01*
X166146282Y-81862928D01*
X165472022Y-82537188D01*
X165464408Y-82551132D01*
X164734356Y-82551132D01*
X164735592Y-82548868D01*
X164735461Y-82547035D01*
X164731210Y-82540420D01*
X164052997Y-81862207D01*
X164041223Y-81855777D01*
X164029207Y-81865074D01*
X163999103Y-81908068D01*
X163993623Y-81917559D01*
X163904355Y-82108993D01*
X163900609Y-82119285D01*
X163845941Y-82323309D01*
X163844038Y-82334104D01*
X163825628Y-82544525D01*
X163825628Y-82555475D01*
X137157178Y-82555475D01*
X137233798Y-82545388D01*
X137233807Y-82545386D01*
X137236537Y-82545027D01*
X137239232Y-82544430D01*
X137239235Y-82544429D01*
X137618212Y-82460411D01*
X137618211Y-82460411D01*
X137620896Y-82459816D01*
X137623513Y-82458991D01*
X137623520Y-82458989D01*
X137993738Y-82342260D01*
X137993746Y-82342257D01*
X137996366Y-82341431D01*
X138360089Y-82190771D01*
X138709297Y-82008985D01*
X139041333Y-81797454D01*
X139353669Y-81557790D01*
X139371413Y-81541531D01*
X139641905Y-81293669D01*
X139641908Y-81293666D01*
X139643928Y-81291815D01*
X139909901Y-81001555D01*
X140149564Y-80689218D01*
X140289809Y-80469078D01*
X140344434Y-80383334D01*
X140349622Y-80376199D01*
X140349594Y-80376180D01*
X140352399Y-80372193D01*
X140355495Y-80368443D01*
X140361903Y-80357649D01*
X140372291Y-80331742D01*
X140380118Y-80315642D01*
X140385246Y-80306761D01*
X140903644Y-79408869D01*
X151556689Y-79408869D01*
X151556936Y-79413153D01*
X151556936Y-79413154D01*
X151560374Y-79472785D01*
X151573238Y-79695883D01*
X151574063Y-79700088D01*
X151574064Y-79700096D01*
X151596064Y-79812230D01*
X151628586Y-79977995D01*
X151629973Y-79982045D01*
X151629974Y-79982050D01*
X151694118Y-80169397D01*
X151721710Y-80249986D01*
X151773591Y-80353140D01*
X151811310Y-80428135D01*
X151850885Y-80506822D01*
X152013721Y-80743750D01*
X152207206Y-80956388D01*
X152210501Y-80959143D01*
X152210502Y-80959144D01*
X152331147Y-81060018D01*
X152427759Y-81140798D01*
X152671298Y-81293571D01*
X152933318Y-81411877D01*
X152937437Y-81413097D01*
X153204857Y-81492311D01*
X153204862Y-81492312D01*
X153208970Y-81493529D01*
X153213204Y-81494177D01*
X153213209Y-81494178D01*
X153461811Y-81532219D01*
X153493153Y-81537015D01*
X153639485Y-81539314D01*
X153776317Y-81541464D01*
X153776323Y-81541464D01*
X153780608Y-81541531D01*
X153784860Y-81541016D01*
X153784868Y-81541016D01*
X154061756Y-81507508D01*
X154061761Y-81507507D01*
X154066017Y-81506992D01*
X154129753Y-81490271D01*
X164405860Y-81490271D01*
X164412928Y-81503718D01*
X165087188Y-82177978D01*
X165101132Y-82185592D01*
X165102965Y-82185461D01*
X165109580Y-82181210D01*
X165787793Y-81502997D01*
X165794223Y-81491223D01*
X165784926Y-81479207D01*
X165741931Y-81449102D01*
X165732445Y-81443624D01*
X165541007Y-81354355D01*
X165530715Y-81350609D01*
X165326691Y-81295941D01*
X165315896Y-81294038D01*
X165105475Y-81275628D01*
X165094525Y-81275628D01*
X164884104Y-81294038D01*
X164873309Y-81295941D01*
X164669285Y-81350609D01*
X164658993Y-81354355D01*
X164467559Y-81443623D01*
X164458068Y-81449103D01*
X164414235Y-81479794D01*
X164405860Y-81490271D01*
X154129753Y-81490271D01*
X154162602Y-81481653D01*
X154339954Y-81435126D01*
X154339955Y-81435126D01*
X154344097Y-81434039D01*
X154609704Y-81324021D01*
X154822971Y-81199398D01*
X154854219Y-81181138D01*
X154854220Y-81181137D01*
X154857922Y-81178974D01*
X155084159Y-81001582D01*
X155125285Y-80959144D01*
X155281244Y-80798206D01*
X155284227Y-80795128D01*
X155286760Y-80791680D01*
X155286764Y-80791675D01*
X155451887Y-80566886D01*
X155454425Y-80563431D01*
X155591604Y-80310779D01*
X155681437Y-80073044D01*
X155691707Y-80045866D01*
X155691708Y-80045862D01*
X155693225Y-80041848D01*
X155741481Y-79831151D01*
X155756449Y-79765797D01*
X155756450Y-79765793D01*
X155757407Y-79761613D01*
X155766239Y-79662659D01*
X155782743Y-79477726D01*
X155782743Y-79477724D01*
X155782963Y-79475260D01*
X155783427Y-79431000D01*
X155767956Y-79204064D01*
X155764165Y-79148452D01*
X155764164Y-79148446D01*
X155763873Y-79144175D01*
X155759336Y-79122264D01*
X155706443Y-78866855D01*
X155705574Y-78862658D01*
X155609607Y-78591657D01*
X155477750Y-78336188D01*
X155464488Y-78317317D01*
X155376130Y-78191598D01*
X155312441Y-78100977D01*
X155179365Y-77957770D01*
X155119661Y-77893521D01*
X155119658Y-77893519D01*
X155116740Y-77890378D01*
X154894268Y-77708287D01*
X154649142Y-77558073D01*
X154631048Y-77550130D01*
X154389830Y-77444243D01*
X154385898Y-77442517D01*
X154359963Y-77435129D01*
X154113534Y-77364932D01*
X154113535Y-77364932D01*
X154109406Y-77363756D01*
X153896704Y-77333485D01*
X153829036Y-77323854D01*
X153829034Y-77323854D01*
X153824784Y-77323249D01*
X153820495Y-77323227D01*
X153820488Y-77323226D01*
X153541583Y-77321765D01*
X153541576Y-77321765D01*
X153537297Y-77321743D01*
X153533053Y-77322302D01*
X153533049Y-77322302D01*
X153407660Y-77338810D01*
X153252266Y-77359268D01*
X153248126Y-77360401D01*
X153248124Y-77360401D01*
X153171311Y-77381415D01*
X152974964Y-77435129D01*
X152971016Y-77436813D01*
X152714476Y-77546237D01*
X152714472Y-77546239D01*
X152710524Y-77547923D01*
X152617246Y-77603749D01*
X152467521Y-77693357D01*
X152467520Y-77693358D01*
X152463839Y-77695561D01*
X152239472Y-77875313D01*
X152041577Y-78083851D01*
X151873814Y-78317317D01*
X151739288Y-78571392D01*
X151640489Y-78841373D01*
X151579245Y-79122264D01*
X151578909Y-79126534D01*
X151557196Y-79402428D01*
X151557195Y-79402428D01*
X151557196Y-79402430D01*
X151556689Y-79408869D01*
X140903644Y-79408869D01*
X143070358Y-75656009D01*
X145036683Y-72250235D01*
X145088065Y-72201242D01*
X145157779Y-72187806D01*
X145223690Y-72214192D01*
X145265009Y-72272422D01*
X145293162Y-72354650D01*
X145322288Y-72412560D01*
X145391887Y-72550943D01*
X145416210Y-72599305D01*
X145418636Y-72602834D01*
X145418639Y-72602840D01*
X145568893Y-72821459D01*
X145571324Y-72824996D01*
X145755632Y-73027549D01*
X145965725Y-73203213D01*
X145969366Y-73205497D01*
X146194074Y-73346457D01*
X146194078Y-73346459D01*
X146197714Y-73348740D01*
X146265594Y-73379389D01*
X146443395Y-73459670D01*
X146443399Y-73459672D01*
X146447307Y-73461436D01*
X146451427Y-73462656D01*
X146451426Y-73462656D01*
X146705773Y-73537997D01*
X146705777Y-73537998D01*
X146709886Y-73539215D01*
X146714120Y-73539863D01*
X146714125Y-73539864D01*
X146976348Y-73579989D01*
X146976350Y-73579989D01*
X146980590Y-73580638D01*
X147119962Y-73582828D01*
X147250121Y-73584873D01*
X147250127Y-73584873D01*
X147254412Y-73584940D01*
X147526285Y-73552040D01*
X147791177Y-73482547D01*
X147795137Y-73480907D01*
X147795142Y-73480905D01*
X147917682Y-73430147D01*
X148044186Y-73377747D01*
X148280632Y-73239579D01*
X148496139Y-73070600D01*
X148537859Y-73027549D01*
X148683736Y-72877015D01*
X148686719Y-72873937D01*
X148689252Y-72870489D01*
X148689256Y-72870484D01*
X148846307Y-72656684D01*
X148848845Y-72653229D01*
X148876204Y-72602840D01*
X148977468Y-72416336D01*
X148977469Y-72416334D01*
X148979518Y-72412560D01*
X149076319Y-72156383D01*
X149117223Y-71977785D01*
X149136499Y-71893623D01*
X149136500Y-71893619D01*
X149137457Y-71889439D01*
X149145960Y-71794171D01*
X149161581Y-71619133D01*
X149161581Y-71619131D01*
X149161801Y-71616667D01*
X149162243Y-71574506D01*
X149161299Y-71560662D01*
X149143909Y-71305561D01*
X149143908Y-71305555D01*
X149143617Y-71301284D01*
X149088082Y-71033118D01*
X149046286Y-70915090D01*
X149042402Y-70844201D01*
X149077460Y-70782464D01*
X149140330Y-70749481D01*
X149211052Y-70755725D01*
G37*
%TD.AperFunction*%
%TA.AperFunction,Conductor*%
G36*
X129357501Y-99741296D02*
G01*
X129364084Y-99747425D01*
X132266325Y-102649666D01*
X132268779Y-102652188D01*
X132337332Y-102724681D01*
X132399757Y-102772408D01*
X132404892Y-102776552D01*
X132464720Y-102827470D01*
X132469045Y-102830089D01*
X132469050Y-102830093D01*
X132492824Y-102844491D01*
X132504071Y-102852163D01*
X132530174Y-102872120D01*
X132534632Y-102874510D01*
X132534633Y-102874511D01*
X132599401Y-102909239D01*
X132605126Y-102912504D01*
X132672358Y-102953221D01*
X132702817Y-102965527D01*
X132715158Y-102971307D01*
X132744109Y-102986831D01*
X132748890Y-102988477D01*
X132748894Y-102988479D01*
X132818401Y-103012412D01*
X132824579Y-103014722D01*
X132874792Y-103035009D01*
X132897429Y-103044155D01*
X132929460Y-103051432D01*
X132942559Y-103055163D01*
X132973631Y-103065862D01*
X133051100Y-103079243D01*
X133057504Y-103080523D01*
X133134144Y-103097935D01*
X133166953Y-103099999D01*
X133180453Y-103101585D01*
X133212836Y-103107179D01*
X133216793Y-103107359D01*
X133216796Y-103107359D01*
X133240506Y-103108436D01*
X133240525Y-103108436D01*
X133241925Y-103108500D01*
X133298108Y-103108500D01*
X133306019Y-103108749D01*
X133376413Y-103113178D01*
X133417992Y-103109101D01*
X133430288Y-103108500D01*
X149259776Y-103108500D01*
X149263294Y-103108549D01*
X149357942Y-103111193D01*
X149357945Y-103111193D01*
X149362997Y-103111334D01*
X149440890Y-103100941D01*
X149447427Y-103100242D01*
X149485396Y-103097187D01*
X149554900Y-103111661D01*
X149605547Y-103161415D01*
X149621500Y-103222781D01*
X149621500Y-105105500D01*
X149601498Y-105173621D01*
X149547842Y-105220114D01*
X149495500Y-105231500D01*
X133414229Y-105231500D01*
X133404343Y-105231112D01*
X133354930Y-105227223D01*
X133350000Y-105226835D01*
X133345070Y-105227223D01*
X133292290Y-105231377D01*
X133290213Y-105231500D01*
X133288999Y-105231500D01*
X133286491Y-105231702D01*
X133286486Y-105231702D01*
X133211702Y-105237719D01*
X133211483Y-105237737D01*
X133113289Y-105245465D01*
X133112210Y-105245724D01*
X133108035Y-105246060D01*
X132987922Y-105275563D01*
X132987688Y-105275619D01*
X132882406Y-105300895D01*
X132879926Y-105301922D01*
X132878457Y-105302341D01*
X132877209Y-105302756D01*
X132872294Y-105303963D01*
X132867638Y-105305939D01*
X132867636Y-105305940D01*
X132836011Y-105319365D01*
X132763536Y-105350128D01*
X132762720Y-105350471D01*
X132663037Y-105391760D01*
X132659163Y-105394134D01*
X132654592Y-105396266D01*
X132653512Y-105396831D01*
X132648844Y-105398812D01*
X132552227Y-105459655D01*
X132551042Y-105460391D01*
X132460584Y-105515824D01*
X132456816Y-105519042D01*
X132452990Y-105521822D01*
X132448813Y-105524650D01*
X132447721Y-105525467D01*
X132443433Y-105528167D01*
X132439639Y-105531512D01*
X132360422Y-105601350D01*
X132358928Y-105602646D01*
X132293793Y-105658277D01*
X132280031Y-105670031D01*
X132276822Y-105673788D01*
X132273317Y-105677293D01*
X132273236Y-105677212D01*
X132265764Y-105684802D01*
X132261345Y-105688698D01*
X132258130Y-105692612D01*
X132258129Y-105692613D01*
X132193189Y-105771672D01*
X132191637Y-105773526D01*
X132125824Y-105850584D01*
X132122886Y-105855379D01*
X132112821Y-105869514D01*
X132110480Y-105872364D01*
X132110475Y-105872372D01*
X132107266Y-105876278D01*
X132090452Y-105905168D01*
X132054792Y-105966437D01*
X132053361Y-105968832D01*
X132001760Y-106053037D01*
X131999868Y-106057606D01*
X131999867Y-106057607D01*
X131998514Y-106060874D01*
X131991006Y-106076033D01*
X131985159Y-106086078D01*
X131949458Y-106179082D01*
X131948881Y-106180586D01*
X131947663Y-106183639D01*
X131910895Y-106272406D01*
X131909739Y-106277220D01*
X131909739Y-106277221D01*
X131908248Y-106283432D01*
X131903360Y-106299174D01*
X131898167Y-106312702D01*
X131897133Y-106317652D01*
X131878085Y-106408829D01*
X131877267Y-106412476D01*
X131856619Y-106498482D01*
X131855465Y-106503289D01*
X131855077Y-106508222D01*
X131854351Y-106517440D01*
X131852078Y-106533315D01*
X131848526Y-106550320D01*
X131848297Y-106555370D01*
X131848296Y-106555375D01*
X131844206Y-106645455D01*
X131843949Y-106649608D01*
X131836835Y-106740000D01*
X131837223Y-106744931D01*
X131837223Y-106744935D01*
X131838173Y-106757012D01*
X131838431Y-106772604D01*
X131837743Y-106787759D01*
X131837743Y-106787766D01*
X131837514Y-106792817D01*
X131838095Y-106797837D01*
X131838095Y-106797843D01*
X131848122Y-106884504D01*
X131848569Y-106889098D01*
X131854508Y-106964550D01*
X131855465Y-106976711D01*
X131856619Y-106981517D01*
X131860113Y-106996072D01*
X131862759Y-107011002D01*
X131863447Y-107016944D01*
X131865415Y-107033956D01*
X131870760Y-107052845D01*
X131889755Y-107119975D01*
X131891033Y-107124866D01*
X131910895Y-107207594D01*
X131919610Y-107228634D01*
X131924436Y-107242532D01*
X131931510Y-107267532D01*
X131933646Y-107272113D01*
X131933648Y-107272118D01*
X131968047Y-107345887D01*
X131970261Y-107350918D01*
X131979180Y-107372449D01*
X132001760Y-107426963D01*
X132015142Y-107448800D01*
X132021904Y-107461384D01*
X132034099Y-107487536D01*
X132036941Y-107491717D01*
X132036945Y-107491725D01*
X132081070Y-107556653D01*
X132084285Y-107561632D01*
X132125824Y-107629416D01*
X132137092Y-107642609D01*
X132144318Y-107651070D01*
X132152717Y-107662076D01*
X132170544Y-107688307D01*
X132174023Y-107691985D01*
X132174023Y-107691986D01*
X132225946Y-107746893D01*
X132230209Y-107751636D01*
X132276817Y-107806207D01*
X132276824Y-107806214D01*
X132280031Y-107809969D01*
X132303855Y-107830317D01*
X132313556Y-107839539D01*
X132337332Y-107864681D01*
X132341358Y-107867759D01*
X132341359Y-107867760D01*
X132399092Y-107911900D01*
X132404394Y-107916185D01*
X132460584Y-107964176D01*
X132464798Y-107966758D01*
X132464803Y-107966762D01*
X132489720Y-107982031D01*
X132500416Y-107989368D01*
X132526158Y-108009050D01*
X132526162Y-108009053D01*
X132530174Y-108012120D01*
X132534624Y-108014506D01*
X132534627Y-108014508D01*
X132596151Y-108047496D01*
X132602446Y-108051109D01*
X132663037Y-108088240D01*
X132697253Y-108102413D01*
X132708547Y-108107763D01*
X132744109Y-108126831D01*
X132812188Y-108150272D01*
X132819333Y-108152979D01*
X132882406Y-108179105D01*
X132921182Y-108188415D01*
X132932767Y-108191792D01*
X132968842Y-108204214D01*
X132968853Y-108204217D01*
X132973631Y-108205862D01*
X133041739Y-108217626D01*
X133049673Y-108219262D01*
X133108476Y-108233380D01*
X133108482Y-108233381D01*
X133113289Y-108234535D01*
X133155884Y-108237887D01*
X133167435Y-108239337D01*
X133212836Y-108247179D01*
X133216797Y-108247359D01*
X133216798Y-108247359D01*
X133240506Y-108248436D01*
X133240525Y-108248436D01*
X133241925Y-108248500D01*
X133285771Y-108248500D01*
X133295657Y-108248888D01*
X133333000Y-108251827D01*
X133350000Y-108253165D01*
X133367001Y-108251827D01*
X133404343Y-108248888D01*
X133414229Y-108248500D01*
X151065771Y-108248500D01*
X151075657Y-108248888D01*
X151113000Y-108251827D01*
X151130000Y-108253165D01*
X151134931Y-108252777D01*
X151134935Y-108252777D01*
X151147012Y-108251827D01*
X151162604Y-108251569D01*
X151177759Y-108252257D01*
X151177766Y-108252257D01*
X151182817Y-108252486D01*
X151187837Y-108251905D01*
X151187843Y-108251905D01*
X151274504Y-108241878D01*
X151279098Y-108241431D01*
X151300410Y-108239753D01*
X151366711Y-108234535D01*
X151367790Y-108234276D01*
X151371965Y-108233940D01*
X151389971Y-108229518D01*
X151405533Y-108226718D01*
X151418926Y-108225168D01*
X151418937Y-108225166D01*
X151423956Y-108224585D01*
X151442768Y-108219262D01*
X151509975Y-108200245D01*
X151514866Y-108198967D01*
X151592783Y-108180260D01*
X151592782Y-108180260D01*
X151597594Y-108179105D01*
X151600075Y-108178077D01*
X151601553Y-108177656D01*
X151602794Y-108177243D01*
X151607706Y-108176037D01*
X151624778Y-108168791D01*
X151639689Y-108163539D01*
X151657532Y-108158490D01*
X151712927Y-108132659D01*
X151735887Y-108121953D01*
X151740918Y-108119739D01*
X151782763Y-108102406D01*
X151816963Y-108088240D01*
X151820836Y-108085867D01*
X151825425Y-108083727D01*
X151826506Y-108083162D01*
X151831156Y-108081188D01*
X151835974Y-108078154D01*
X151846846Y-108071308D01*
X151860740Y-108063733D01*
X151872951Y-108058039D01*
X151877536Y-108055901D01*
X151881717Y-108053059D01*
X151881725Y-108053055D01*
X151946653Y-108008930D01*
X151951639Y-108005710D01*
X151969665Y-107994664D01*
X152038197Y-107976125D01*
X152105874Y-107997581D01*
X152151208Y-108052219D01*
X152161500Y-108102096D01*
X152161500Y-111022969D01*
X152141498Y-111091090D01*
X152124595Y-111112064D01*
X150542064Y-112694595D01*
X150479752Y-112728621D01*
X150452969Y-112731500D01*
X134027031Y-112731500D01*
X133958910Y-112711498D01*
X133937936Y-112694595D01*
X129185894Y-107942553D01*
X129151868Y-107880241D01*
X129148989Y-107853458D01*
X129148989Y-99836520D01*
X129168991Y-99768399D01*
X129222647Y-99721906D01*
X129292921Y-99711802D01*
X129357501Y-99741296D01*
G37*
%TD.AperFunction*%
%TD*%
M02*
