%TF.GenerationSoftware,KiCad,Pcbnew,(6.0.5)*%
%TF.CreationDate,2022-10-17T22:28:47+09:00*%
%TF.ProjectId,kikker_board,6b696b6b-6572-45f6-926f-6172642e6b69,rev?*%
%TF.SameCoordinates,Original*%
%TF.FileFunction,Legend,Top*%
%TF.FilePolarity,Positive*%
%FSLAX46Y46*%
G04 Gerber Fmt 4.6, Leading zero omitted, Abs format (unit mm)*
G04 Created by KiCad (PCBNEW (6.0.5)) date 2022-10-17 22:28:47*
%MOMM*%
%LPD*%
G01*
G04 APERTURE LIST*
%ADD10C,0.150000*%
%ADD11C,0.120000*%
G04 APERTURE END LIST*
D10*
%TO.C,Q1*%
X152304761Y-83112619D02*
X152209523Y-83065000D01*
X152114285Y-82969761D01*
X151971428Y-82826904D01*
X151876190Y-82779285D01*
X151780952Y-82779285D01*
X151828571Y-83017380D02*
X151733333Y-82969761D01*
X151638095Y-82874523D01*
X151590476Y-82684047D01*
X151590476Y-82350714D01*
X151638095Y-82160238D01*
X151733333Y-82065000D01*
X151828571Y-82017380D01*
X152019047Y-82017380D01*
X152114285Y-82065000D01*
X152209523Y-82160238D01*
X152257142Y-82350714D01*
X152257142Y-82684047D01*
X152209523Y-82874523D01*
X152114285Y-82969761D01*
X152019047Y-83017380D01*
X151828571Y-83017380D01*
X153209523Y-83017380D02*
X152638095Y-83017380D01*
X152923809Y-83017380D02*
X152923809Y-82017380D01*
X152828571Y-82160238D01*
X152733333Y-82255476D01*
X152638095Y-82303095D01*
X146971428Y-86232142D02*
X146304761Y-86232142D01*
X146304761Y-87279761D02*
X146304761Y-85279761D01*
X147257142Y-85279761D01*
X147923809Y-87184523D02*
X148209523Y-87279761D01*
X148685714Y-87279761D01*
X148876190Y-87184523D01*
X148971428Y-87089285D01*
X149066666Y-86898809D01*
X149066666Y-86708333D01*
X148971428Y-86517857D01*
X148876190Y-86422619D01*
X148685714Y-86327380D01*
X148304761Y-86232142D01*
X148114285Y-86136904D01*
X148019047Y-86041666D01*
X147923809Y-85851190D01*
X147923809Y-85660714D01*
X148019047Y-85470238D01*
X148114285Y-85375000D01*
X148304761Y-85279761D01*
X148780952Y-85279761D01*
X149066666Y-85375000D01*
X149733333Y-85279761D02*
X151066666Y-85279761D01*
X150209523Y-87279761D01*
X152209523Y-85279761D02*
X152400000Y-85279761D01*
X152590476Y-85375000D01*
X152685714Y-85470238D01*
X152780952Y-85660714D01*
X152876190Y-86041666D01*
X152876190Y-86517857D01*
X152780952Y-86898809D01*
X152685714Y-87089285D01*
X152590476Y-87184523D01*
X152400000Y-87279761D01*
X152209523Y-87279761D01*
X152019047Y-87184523D01*
X151923809Y-87089285D01*
X151828571Y-86898809D01*
X151733333Y-86517857D01*
X151733333Y-86041666D01*
X151828571Y-85660714D01*
X151923809Y-85470238D01*
X152019047Y-85375000D01*
X152209523Y-85279761D01*
X153638095Y-87184523D02*
X153923809Y-87279761D01*
X154400000Y-87279761D01*
X154590476Y-87184523D01*
X154685714Y-87089285D01*
X154780952Y-86898809D01*
X154780952Y-86708333D01*
X154685714Y-86517857D01*
X154590476Y-86422619D01*
X154400000Y-86327380D01*
X154019047Y-86232142D01*
X153828571Y-86136904D01*
X153733333Y-86041666D01*
X153638095Y-85851190D01*
X153638095Y-85660714D01*
X153733333Y-85470238D01*
X153828571Y-85375000D01*
X154019047Y-85279761D01*
X154495238Y-85279761D01*
X154780952Y-85375000D01*
X155638095Y-87279761D02*
X155638095Y-85279761D01*
X156304761Y-86708333D01*
X156971428Y-85279761D01*
X156971428Y-87279761D01*
X158495238Y-85279761D02*
X158495238Y-86708333D01*
X158400000Y-86994047D01*
X158209523Y-87184523D01*
X157923809Y-87279761D01*
X157733333Y-87279761D01*
%TO.C,R3*%
X179871666Y-81685119D02*
X180205000Y-82161309D01*
X180443095Y-81685119D02*
X180443095Y-82685119D01*
X180062142Y-82685119D01*
X179966904Y-82637500D01*
X179919285Y-82589880D01*
X179871666Y-82494642D01*
X179871666Y-82351785D01*
X179919285Y-82256547D01*
X179966904Y-82208928D01*
X180062142Y-82161309D01*
X180443095Y-82161309D01*
X179538333Y-82685119D02*
X178919285Y-82685119D01*
X179252619Y-82304166D01*
X179109761Y-82304166D01*
X179014523Y-82256547D01*
X178966904Y-82208928D01*
X178919285Y-82113690D01*
X178919285Y-81875595D01*
X178966904Y-81780357D01*
X179014523Y-81732738D01*
X179109761Y-81685119D01*
X179395476Y-81685119D01*
X179490714Y-81732738D01*
X179538333Y-81780357D01*
X183228809Y-77517738D02*
X184181190Y-77517738D01*
X184276428Y-76565357D01*
X184181190Y-76660595D01*
X183990714Y-76755833D01*
X183514523Y-76755833D01*
X183324047Y-76660595D01*
X183228809Y-76565357D01*
X183133571Y-76374880D01*
X183133571Y-75898690D01*
X183228809Y-75708214D01*
X183324047Y-75612976D01*
X183514523Y-75517738D01*
X183990714Y-75517738D01*
X184181190Y-75612976D01*
X184276428Y-75708214D01*
X182466904Y-77517738D02*
X181990714Y-75517738D01*
X181609761Y-76946309D01*
X181228809Y-75517738D01*
X180752619Y-77517738D01*
X178943095Y-75517738D02*
X180085952Y-75517738D01*
X179514523Y-75517738D02*
X179514523Y-77517738D01*
X179705000Y-77232023D01*
X179895476Y-77041547D01*
X180085952Y-76946309D01*
X178181190Y-75517738D02*
X177705000Y-75517738D01*
X177705000Y-75898690D01*
X177895476Y-75993928D01*
X178085952Y-76184404D01*
X178181190Y-76470119D01*
X178181190Y-76946309D01*
X178085952Y-77232023D01*
X177895476Y-77422500D01*
X177609761Y-77517738D01*
X177228809Y-77517738D01*
X176943095Y-77422500D01*
X176752619Y-77232023D01*
X176657380Y-76946309D01*
X176657380Y-76470119D01*
X176752619Y-76184404D01*
X176943095Y-75993928D01*
X177133571Y-75898690D01*
X177133571Y-75517738D01*
X176657380Y-75517738D01*
X175228809Y-77517738D02*
X175228809Y-76089166D01*
X175324047Y-75803452D01*
X175514523Y-75612976D01*
X175800238Y-75517738D01*
X175990714Y-75517738D01*
D11*
%TO.C,C1*%
X137256000Y-84449000D02*
X137256000Y-83191000D01*
X139096000Y-84449000D02*
X139096000Y-83191000D01*
%TO.C,Q1*%
X144780000Y-78120000D02*
X146050000Y-78120000D01*
X157480000Y-73040000D02*
X147320000Y-73040000D01*
X146320000Y-97265000D02*
X146320000Y-96265000D01*
X159385000Y-95265000D02*
X155575000Y-95265000D01*
X148320000Y-96265000D02*
X148320000Y-95265000D01*
X159385000Y-93360000D02*
X159385000Y-95265000D01*
X150495000Y-95265000D02*
X150495000Y-93360000D01*
X146685000Y-73040000D02*
X147320000Y-73040000D01*
X156480000Y-96265000D02*
X156480000Y-95265000D01*
X144780000Y-75580000D02*
X144780000Y-93360000D01*
X148320000Y-97265000D02*
X148320000Y-96265000D01*
X160020000Y-78120000D02*
X158750000Y-78120000D01*
X146320000Y-96265000D02*
X146320000Y-95265000D01*
X157480000Y-73040000D02*
X158115000Y-73040000D01*
X160020000Y-93360000D02*
X160020000Y-75580000D01*
X147955000Y-74310000D02*
X146050000Y-78120000D01*
X154305000Y-93360000D02*
X154305000Y-95265000D01*
X144780000Y-93360000D02*
X160020000Y-93360000D01*
X158480000Y-96265000D02*
X158480000Y-95265000D01*
X160020000Y-74945000D02*
X160020000Y-75580000D01*
X155575000Y-95265000D02*
X155575000Y-93360000D01*
X158750000Y-78120000D02*
X156845000Y-74310000D01*
X146685000Y-73040000D02*
X144780000Y-74945000D01*
X156480000Y-97265000D02*
X156480000Y-96265000D01*
X154305000Y-95265000D02*
X150495000Y-95265000D01*
X151400000Y-96265000D02*
X151400000Y-95265000D01*
X153400000Y-97265000D02*
X153400000Y-96265000D01*
X151400000Y-97265000D02*
X151400000Y-96265000D01*
X158480000Y-97265000D02*
X158480000Y-96265000D01*
X158115000Y-73040000D02*
X160020000Y-74945000D01*
X156845000Y-74310000D02*
X147955000Y-74310000D01*
X144780000Y-74945000D02*
X144780000Y-75580000D01*
X149225000Y-95265000D02*
X145415000Y-95265000D01*
X149225000Y-93360000D02*
X149225000Y-95265000D01*
X153400000Y-96265000D02*
X153400000Y-95265000D01*
X145415000Y-95265000D02*
X145415000Y-93360000D01*
G36*
X160020000Y-74945000D02*
G01*
X160020000Y-78120000D01*
X158750000Y-78120000D01*
X156845000Y-74310000D01*
X158115000Y-73040000D01*
X160020000Y-74945000D01*
G37*
X160020000Y-74945000D02*
X160020000Y-78120000D01*
X158750000Y-78120000D01*
X156845000Y-74310000D01*
X158115000Y-73040000D01*
X160020000Y-74945000D01*
G36*
X153400000Y-97265000D02*
G01*
X151400000Y-97265000D01*
X151400000Y-95265000D01*
X153400000Y-95265000D01*
X153400000Y-97265000D01*
G37*
X153400000Y-97265000D02*
X151400000Y-97265000D01*
X151400000Y-95265000D01*
X153400000Y-95265000D01*
X153400000Y-97265000D01*
G36*
X158480000Y-97265000D02*
G01*
X156480000Y-97265000D01*
X156480000Y-95265000D01*
X158480000Y-95265000D01*
X158480000Y-97265000D01*
G37*
X158480000Y-97265000D02*
X156480000Y-97265000D01*
X156480000Y-95265000D01*
X158480000Y-95265000D01*
X158480000Y-97265000D01*
G36*
X148320000Y-97265000D02*
G01*
X146320000Y-97265000D01*
X146320000Y-95265000D01*
X148320000Y-95265000D01*
X148320000Y-97265000D01*
G37*
X148320000Y-97265000D02*
X146320000Y-97265000D01*
X146320000Y-95265000D01*
X148320000Y-95265000D01*
X148320000Y-97265000D01*
G36*
X156845000Y-74310000D02*
G01*
X147955000Y-74310000D01*
X146050000Y-78120000D01*
X144780000Y-78120000D01*
X144780000Y-74945000D01*
X146685000Y-73040000D01*
X158115000Y-73040000D01*
X156845000Y-74310000D01*
G37*
X156845000Y-74310000D02*
X147955000Y-74310000D01*
X146050000Y-78120000D01*
X144780000Y-78120000D01*
X144780000Y-74945000D01*
X146685000Y-73040000D01*
X158115000Y-73040000D01*
X156845000Y-74310000D01*
%TO.C,R3*%
X189865000Y-71977500D02*
X189865000Y-80867500D01*
X169545000Y-71977500D02*
X169545000Y-80867500D01*
X189865000Y-71977500D02*
X169545000Y-71977500D01*
X169545000Y-80867500D02*
X189865000Y-80867500D01*
%TO.C,R1*%
X140050000Y-77836000D02*
X140050000Y-81676000D01*
X141890000Y-77836000D02*
X141890000Y-81676000D01*
%TO.C,R2*%
X141890000Y-85866000D02*
X141890000Y-89706000D01*
X140050000Y-85866000D02*
X140050000Y-89706000D01*
%TO.C,J3*%
X169100000Y-81915000D02*
X169100000Y-89535000D01*
X175360000Y-81625000D02*
X174110000Y-81625000D01*
X174310000Y-89525000D02*
X175060000Y-89525000D01*
X172810000Y-81925000D02*
X172810000Y-82675000D01*
X172810000Y-88775000D02*
X169860000Y-88775000D01*
X172810000Y-89525000D02*
X172810000Y-88775000D01*
X174310000Y-83725000D02*
X175060000Y-83725000D01*
X175070000Y-89535000D02*
X175070000Y-81915000D01*
X175070000Y-81915000D02*
X169100000Y-81915000D01*
X175060000Y-86225000D02*
X175060000Y-85225000D01*
X175060000Y-89525000D02*
X175060000Y-87725000D01*
X175060000Y-85225000D02*
X174310000Y-85225000D01*
X174310000Y-86225000D02*
X175060000Y-86225000D01*
X175060000Y-87725000D02*
X174310000Y-87725000D01*
X174310000Y-85225000D02*
X174310000Y-86225000D01*
X172810000Y-82675000D02*
X169860000Y-82675000D01*
X174310000Y-87725000D02*
X174310000Y-89525000D01*
X175060000Y-81925000D02*
X174310000Y-81925000D01*
X175060000Y-83725000D02*
X175060000Y-81925000D01*
X169860000Y-82675000D02*
X169860000Y-85725000D01*
X174310000Y-81925000D02*
X174310000Y-83725000D01*
X175360000Y-82875000D02*
X175360000Y-81625000D01*
X169100000Y-89535000D02*
X175070000Y-89535000D01*
X169860000Y-88775000D02*
X169860000Y-85725000D01*
%TO.C,J5*%
X180949331Y-83427686D02*
X178697665Y-84727686D01*
X182049183Y-82792686D02*
X183200997Y-82127686D01*
X178697665Y-84727686D02*
X180027665Y-87031314D01*
X180949331Y-83427686D02*
X182279331Y-85731314D01*
X182279331Y-85731314D02*
X180027665Y-87031314D01*
X183200997Y-82127686D02*
X183865997Y-83279500D01*
%TO.C,J1*%
X131020000Y-89390000D02*
X131020000Y-86340000D01*
X126570000Y-82540000D02*
X125820000Y-82540000D01*
X125810000Y-82530000D02*
X125810000Y-90150000D01*
X131780000Y-82530000D02*
X125810000Y-82530000D01*
X125820000Y-88340000D02*
X125820000Y-90140000D01*
X126570000Y-85840000D02*
X125820000Y-85840000D01*
X128070000Y-89390000D02*
X131020000Y-89390000D01*
X126570000Y-88340000D02*
X125820000Y-88340000D01*
X125820000Y-82540000D02*
X125820000Y-84340000D01*
X125810000Y-90150000D02*
X131780000Y-90150000D01*
X126570000Y-84340000D02*
X126570000Y-82540000D01*
X125820000Y-84340000D02*
X126570000Y-84340000D01*
X125520000Y-90440000D02*
X126770000Y-90440000D01*
X128070000Y-82540000D02*
X128070000Y-83290000D01*
X125820000Y-90140000D02*
X126570000Y-90140000D01*
X125820000Y-86840000D02*
X126570000Y-86840000D01*
X131780000Y-90150000D02*
X131780000Y-82530000D01*
X128070000Y-90140000D02*
X128070000Y-89390000D01*
X125820000Y-85840000D02*
X125820000Y-86840000D01*
X131020000Y-83290000D02*
X131020000Y-86340000D01*
X125520000Y-89190000D02*
X125520000Y-90440000D01*
X126570000Y-90140000D02*
X126570000Y-88340000D01*
X128070000Y-83290000D02*
X131020000Y-83290000D01*
X126570000Y-86840000D02*
X126570000Y-85840000D01*
%TO.C,J4*%
X115002000Y-73152000D02*
X115002000Y-71822000D01*
X115002000Y-71822000D02*
X116332000Y-71822000D01*
X115002000Y-74422000D02*
X117662000Y-74422000D01*
X117662000Y-74422000D02*
X117662000Y-82102000D01*
X115002000Y-82102000D02*
X117662000Y-82102000D01*
X115002000Y-74422000D02*
X115002000Y-82102000D01*
%TO.C,J6*%
X118835000Y-82665000D02*
X118835000Y-84465000D01*
X119585000Y-75165000D02*
X118835000Y-75165000D01*
X119585000Y-82665000D02*
X118835000Y-82665000D01*
X119585000Y-71865000D02*
X118835000Y-71865000D01*
X118835000Y-73665000D02*
X119585000Y-73665000D01*
X119585000Y-81165000D02*
X119585000Y-75165000D01*
X118835000Y-81165000D02*
X119585000Y-81165000D01*
X124795000Y-84475000D02*
X124795000Y-71855000D01*
X124035000Y-72615000D02*
X124035000Y-78165000D01*
X119585000Y-84465000D02*
X119585000Y-82665000D01*
X121085000Y-72615000D02*
X124035000Y-72615000D01*
X118835000Y-75165000D02*
X118835000Y-81165000D01*
X121085000Y-83715000D02*
X124035000Y-83715000D01*
X118535000Y-83515000D02*
X118535000Y-84765000D01*
X121085000Y-84465000D02*
X121085000Y-83715000D01*
X124795000Y-71855000D02*
X118825000Y-71855000D01*
X121085000Y-71865000D02*
X121085000Y-72615000D01*
X118835000Y-84465000D02*
X119585000Y-84465000D01*
X118835000Y-71865000D02*
X118835000Y-73665000D01*
X119585000Y-73665000D02*
X119585000Y-71865000D01*
X118825000Y-71855000D02*
X118825000Y-84475000D01*
X118535000Y-84765000D02*
X119785000Y-84765000D01*
X124035000Y-83715000D02*
X124035000Y-78165000D01*
X118825000Y-84475000D02*
X124795000Y-84475000D01*
%TO.C,J2*%
X131020000Y-72575000D02*
X131020000Y-76875000D01*
X128070000Y-81175000D02*
X131020000Y-81175000D01*
X128070000Y-81925000D02*
X128070000Y-81175000D01*
X125820000Y-73625000D02*
X126570000Y-73625000D01*
X125820000Y-80125000D02*
X125820000Y-81925000D01*
X125820000Y-71825000D02*
X125820000Y-73625000D01*
X126570000Y-71825000D02*
X125820000Y-71825000D01*
X126570000Y-78625000D02*
X126570000Y-75125000D01*
X128070000Y-72575000D02*
X131020000Y-72575000D01*
X126570000Y-80125000D02*
X125820000Y-80125000D01*
X128070000Y-71825000D02*
X128070000Y-72575000D01*
X125820000Y-81925000D02*
X126570000Y-81925000D01*
X125820000Y-75125000D02*
X125820000Y-78625000D01*
X125810000Y-81935000D02*
X131780000Y-81935000D01*
X126570000Y-75125000D02*
X125820000Y-75125000D01*
X126570000Y-73625000D02*
X126570000Y-71825000D01*
X125820000Y-78625000D02*
X126570000Y-78625000D01*
X125810000Y-71815000D02*
X125810000Y-81935000D01*
X131780000Y-81935000D02*
X131780000Y-71815000D01*
X125520000Y-82225000D02*
X126770000Y-82225000D01*
X131020000Y-81175000D02*
X131020000Y-76875000D01*
X125520000Y-80975000D02*
X125520000Y-82225000D01*
X126570000Y-81925000D02*
X126570000Y-80125000D01*
X131780000Y-71815000D02*
X125810000Y-71815000D01*
%TD*%
M02*
