M48
; DRILL file {KiCad (6.0.5)} date Mon Oct 17 22:28:49 2022
; FORMAT={-:-/ absolute / metric / decimal}
; #@! TF.CreationDate,2022-10-17T22:28:49+09:00
; #@! TF.GenerationSoftware,Kicad,Pcbnew,(6.0.5)
; #@! TF.FileFunction,Plated,1,2,PTH
FMAT,2
METRIC
; #@! TA.AperFunction,Plated,PTH,ViaDrill
T1C0.400
; #@! TA.AperFunction,Plated,PTH,ComponentDrill
T2C0.700
; #@! TA.AperFunction,Plated,PTH,ComponentDrill
T3C0.800
; #@! TA.AperFunction,Plated,PTH,ComponentDrill
T4C0.950
; #@! TA.AperFunction,Plated,PTH,ComponentDrill
T5C1.000
; #@! TA.AperFunction,Plated,PTH,ComponentDrill
T6C1.600
%
G90
G05
T1
X113.538Y-72.898
X113.538Y-79.248
X118.364Y-80.264
X123.444Y-80.518
X125.222Y-77.216
X125.984Y-81.788
X130.81Y-78.994
X143.256Y-83.566
X143.764Y-73.406
X160.274Y-99.06
X160.782Y-73.66
X161.036Y-81.534
X161.036Y-87.122
X162.052Y-92.202
X163.83Y-87.122
X164.084Y-77.47
X164.084Y-95.758
X165.862Y-99.06
X167.132Y-73.406
X167.132Y-81.534
X167.132Y-87.122
X168.148Y-92.202
X172.466Y-79.756
X172.72Y-73.406
X176.276Y-80.01
X183.642Y-79.502
X186.436Y-82.042
X186.69Y-73.406
X188.468Y-79.502
X191.262Y-72.898
X191.262Y-79.502
T2
X140.97Y-77.216
X140.97Y-82.296
X140.97Y-85.246
X140.97Y-90.326
T3
X138.176Y-82.57
X138.176Y-85.07
T4
X121.285Y-74.415
X121.285Y-76.915
X121.285Y-79.415
X121.285Y-81.915
X128.27Y-74.375
X128.27Y-76.875
X128.27Y-79.375
T5
X116.332Y-73.152
X116.332Y-75.692
X116.332Y-78.232
X116.332Y-80.772
X128.27Y-85.09
X128.27Y-87.59
X169.545Y-76.422
X172.61Y-84.475
X172.61Y-86.975
X180.514Y-85.215
X182.714Y-83.944
X189.865Y-76.422
T6
X147.32Y-98.44
X152.4Y-98.44
X157.48Y-98.44
T0
M30
