%TF.GenerationSoftware,KiCad,Pcbnew,(6.0.5)*%
%TF.CreationDate,2022-10-17T22:28:47+09:00*%
%TF.ProjectId,kikker_board,6b696b6b-6572-45f6-926f-6172642e6b69,rev?*%
%TF.SameCoordinates,Original*%
%TF.FileFunction,Copper,L2,Bot*%
%TF.FilePolarity,Positive*%
%FSLAX46Y46*%
G04 Gerber Fmt 4.6, Leading zero omitted, Abs format (unit mm)*
G04 Created by KiCad (PCBNEW (6.0.5)) date 2022-10-17 22:28:47*
%MOMM*%
%LPD*%
G01*
G04 APERTURE LIST*
G04 Aperture macros list*
%AMRoundRect*
0 Rectangle with rounded corners*
0 $1 Rounding radius*
0 $2 $3 $4 $5 $6 $7 $8 $9 X,Y pos of 4 corners*
0 Add a 4 corners polygon primitive as box body*
4,1,4,$2,$3,$4,$5,$6,$7,$8,$9,$2,$3,0*
0 Add four circle primitives for the rounded corners*
1,1,$1+$1,$2,$3*
1,1,$1+$1,$4,$5*
1,1,$1+$1,$6,$7*
1,1,$1+$1,$8,$9*
0 Add four rect primitives between the rounded corners*
20,1,$1+$1,$2,$3,$4,$5,0*
20,1,$1+$1,$4,$5,$6,$7,0*
20,1,$1+$1,$6,$7,$8,$9,0*
20,1,$1+$1,$8,$9,$2,$3,0*%
%AMHorizOval*
0 Thick line with rounded ends*
0 $1 width*
0 $2 $3 position (X,Y) of the first rounded end (center of the circle)*
0 $4 $5 position (X,Y) of the second rounded end (center of the circle)*
0 Add line between two ends*
20,1,$1,$2,$3,$4,$5,0*
0 Add two circle primitives to create the rounded ends*
1,1,$1,$2,$3*
1,1,$1,$4,$5*%
%AMRotRect*
0 Rectangle, with rotation*
0 The origin of the aperture is its center*
0 $1 length*
0 $2 width*
0 $3 Rotation angle, in degrees counterclockwise*
0 Add horizontal line*
21,1,$1,$2,0,0,$3*%
G04 Aperture macros list end*
%TA.AperFunction,ComponentPad*%
%ADD10C,1.600000*%
%TD*%
%TA.AperFunction,ComponentPad*%
%ADD11C,2.600000*%
%TD*%
%TA.AperFunction,ComponentPad*%
%ADD12C,1.800000*%
%TD*%
%TA.AperFunction,ComponentPad*%
%ADD13C,1.400000*%
%TD*%
%TA.AperFunction,ComponentPad*%
%ADD14O,1.400000X1.400000*%
%TD*%
%TA.AperFunction,ComponentPad*%
%ADD15RoundRect,0.250000X-0.750000X0.600000X-0.750000X-0.600000X0.750000X-0.600000X0.750000X0.600000X0*%
%TD*%
%TA.AperFunction,ComponentPad*%
%ADD16O,2.000000X1.700000*%
%TD*%
%TA.AperFunction,ComponentPad*%
%ADD17RotRect,1.700000X1.700000X300.000000*%
%TD*%
%TA.AperFunction,ComponentPad*%
%ADD18HorizOval,1.700000X0.000000X0.000000X0.000000X0.000000X0*%
%TD*%
%TA.AperFunction,ComponentPad*%
%ADD19RoundRect,0.250000X0.750000X-0.600000X0.750000X0.600000X-0.750000X0.600000X-0.750000X-0.600000X0*%
%TD*%
%TA.AperFunction,ComponentPad*%
%ADD20R,1.700000X1.700000*%
%TD*%
%TA.AperFunction,ComponentPad*%
%ADD21O,1.700000X1.700000*%
%TD*%
%TA.AperFunction,ComponentPad*%
%ADD22RoundRect,0.250000X0.725000X-0.600000X0.725000X0.600000X-0.725000X0.600000X-0.725000X-0.600000X0*%
%TD*%
%TA.AperFunction,ComponentPad*%
%ADD23O,1.950000X1.700000*%
%TD*%
%TA.AperFunction,ViaPad*%
%ADD24C,0.800000*%
%TD*%
%TA.AperFunction,Conductor*%
%ADD25C,2.000000*%
%TD*%
%TA.AperFunction,Conductor*%
%ADD26C,0.250000*%
%TD*%
G04 APERTURE END LIST*
D10*
%TO.P,C1,1*%
%TO.N,GND*%
X138176000Y-85070000D03*
%TO.P,C1,2*%
%TO.N,+5V*%
X138176000Y-82570000D03*
%TD*%
D11*
%TO.P,Q1,1,G*%
%TO.N,Net-(Q1-Pad1)*%
X147320000Y-98440000D03*
%TO.P,Q1,2,D*%
%TO.N,Net-(Q1-Pad2)*%
X152400000Y-98440000D03*
%TO.P,Q1,3,S*%
%TO.N,Net-(J2-Pad1)*%
X157480000Y-98440000D03*
%TD*%
D12*
%TO.P,R3,1*%
%TO.N,Net-(J3-Pad2)*%
X169545000Y-76422500D03*
%TO.P,R3,2*%
%TO.N,Net-(Q1-Pad2)*%
X189865000Y-76422500D03*
%TD*%
D13*
%TO.P,R1,1*%
%TO.N,FET 1*%
X140970000Y-77216000D03*
D14*
%TO.P,R1,2*%
%TO.N,Net-(Q1-Pad1)*%
X140970000Y-82296000D03*
%TD*%
D13*
%TO.P,R2,1*%
%TO.N,Net-(Q1-Pad1)*%
X140970000Y-85246000D03*
D14*
%TO.P,R2,2*%
%TO.N,Net-(J2-Pad1)*%
X140970000Y-90326000D03*
%TD*%
D15*
%TO.P,J3,1,Pin_1*%
%TO.N,Net-(J2-Pad2)*%
X172610000Y-84475000D03*
D16*
%TO.P,J3,2,Pin_2*%
%TO.N,Net-(J3-Pad2)*%
X172610000Y-86975000D03*
%TD*%
D17*
%TO.P,J5,1,Pin_1*%
%TO.N,Brightness*%
X182714183Y-83944500D03*
D18*
%TO.P,J5,2,Pin_2*%
%TO.N,Kathode*%
X180514478Y-85214500D03*
%TD*%
D19*
%TO.P,J1,1,Pin_1*%
%TO.N,FET 1*%
X128270000Y-87590000D03*
D16*
%TO.P,J1,2,Pin_2*%
%TO.N,FET 2*%
X128270000Y-85090000D03*
%TD*%
D20*
%TO.P,J4,1,Pin_1*%
%TO.N,Vout*%
X116332000Y-73152000D03*
D21*
%TO.P,J4,2,Pin_2*%
%TO.N,+5V*%
X116332000Y-75692000D03*
%TO.P,J4,3,Pin_3*%
%TO.N,GND*%
X116332000Y-78232000D03*
%TO.P,J4,4,Pin_4*%
%TO.N,Kathode*%
X116332000Y-80772000D03*
%TD*%
D22*
%TO.P,J6,1,Pin_1*%
%TO.N,GND*%
X121285000Y-81915000D03*
D23*
%TO.P,J6,2,Pin_2*%
%TO.N,+5V*%
X121285000Y-79415000D03*
%TO.P,J6,3,Pin_3*%
%TO.N,Brightness*%
X121285000Y-76915000D03*
%TO.P,J6,4,Pin_4*%
%TO.N,Vout*%
X121285000Y-74415000D03*
%TD*%
D22*
%TO.P,J2,1,Pin_1*%
%TO.N,Net-(J2-Pad1)*%
X128270000Y-79375000D03*
D23*
%TO.P,J2,2,Pin_2*%
%TO.N,Net-(J2-Pad2)*%
X128270000Y-76875000D03*
%TO.P,J2,3,Pin_3*%
%TO.N,FET 2*%
X128270000Y-74375000D03*
%TD*%
D24*
%TO.N,GND*%
X164084000Y-77470000D03*
X163830000Y-87122000D03*
X165862000Y-99060000D03*
X186690000Y-73406000D03*
X143764000Y-73406000D03*
X172720000Y-73406000D03*
X125984000Y-81788000D03*
X176276000Y-80010000D03*
X167132000Y-81534000D03*
X143256000Y-83566000D03*
X160274000Y-99060000D03*
X191262000Y-79502000D03*
X161036000Y-87122000D03*
X123444000Y-80518000D03*
X160782000Y-73660000D03*
X125222000Y-77216000D03*
X167132000Y-87122000D03*
X167132000Y-73406000D03*
X186436000Y-82042000D03*
X188468000Y-79502000D03*
X162052000Y-92202000D03*
X191262000Y-72898000D03*
X164084000Y-95758000D03*
X130810000Y-78994000D03*
X172466000Y-79756000D03*
X113538000Y-72898000D03*
X183642000Y-79502000D03*
X161036000Y-81534000D03*
X168148000Y-92202000D03*
X118364000Y-80264000D03*
X113538000Y-79248000D03*
%TD*%
D25*
%TO.N,Net-(J2-Pad1)*%
X140970000Y-90326000D02*
X149366000Y-90326000D01*
X139080263Y-90326000D02*
X128270000Y-79515737D01*
X128270000Y-79515737D02*
X128270000Y-79375000D01*
X140970000Y-90326000D02*
X139080263Y-90326000D01*
X149366000Y-90326000D02*
X157480000Y-98440000D01*
%TO.N,Net-(J2-Pad2)*%
X128270000Y-76875000D02*
X135549000Y-76875000D01*
X135549000Y-76875000D02*
X138430000Y-79756000D01*
X143510000Y-79756000D02*
X148229000Y-84475000D01*
X138430000Y-79756000D02*
X143510000Y-79756000D01*
X148229000Y-84475000D02*
X172610000Y-84475000D01*
D26*
%TO.N,Kathode*%
X167132000Y-101092000D02*
X169926000Y-98298000D01*
X118649520Y-83089520D02*
X128809520Y-83089520D01*
X128809520Y-83089520D02*
X134874000Y-89154000D01*
X169926000Y-92456000D02*
X175260000Y-87122000D01*
X137668000Y-101092000D02*
X167132000Y-101092000D01*
X175260000Y-87122000D02*
X178606978Y-87122000D01*
X134874000Y-98298000D02*
X137668000Y-101092000D01*
X169926000Y-98298000D02*
X169926000Y-92456000D01*
X116332000Y-80772000D02*
X118649520Y-83089520D01*
X134874000Y-89154000D02*
X134874000Y-98298000D01*
X178606978Y-87122000D02*
X180514478Y-85214500D01*
%TO.N,Brightness*%
X123270717Y-76915000D02*
X135323520Y-88967803D01*
X175073803Y-86672480D02*
X176217520Y-86672480D01*
X169476480Y-92269802D02*
X175073803Y-86672480D01*
X178945500Y-83944500D02*
X182714183Y-83944500D01*
X166945802Y-100642480D02*
X169476480Y-98111802D01*
X137854198Y-100642480D02*
X166945802Y-100642480D01*
X135323520Y-98111802D02*
X137854198Y-100642480D01*
X135323520Y-88967803D02*
X135323520Y-98111802D01*
X121285000Y-76915000D02*
X123270717Y-76915000D01*
X169476480Y-98111802D02*
X169476480Y-92269802D01*
X176217520Y-86672480D02*
X178945500Y-83944500D01*
%TD*%
%TA.AperFunction,Conductor*%
%TO.N,GND*%
G36*
X134940090Y-78403502D02*
G01*
X134961064Y-78420405D01*
X136154187Y-79613529D01*
X137346342Y-80805684D01*
X137348796Y-80808206D01*
X137417332Y-80880681D01*
X137421349Y-80883752D01*
X137421352Y-80883755D01*
X137479761Y-80928412D01*
X137484893Y-80932554D01*
X137525094Y-80966767D01*
X137544720Y-80983470D01*
X137549046Y-80986090D01*
X137549053Y-80986095D01*
X137572824Y-81000491D01*
X137584071Y-81008163D01*
X137610174Y-81028120D01*
X137679416Y-81065247D01*
X137685137Y-81068510D01*
X137751927Y-81108960D01*
X137799833Y-81161358D01*
X137811806Y-81231338D01*
X137784044Y-81296682D01*
X137730255Y-81334779D01*
X137726757Y-81335716D01*
X137721766Y-81338043D01*
X137721767Y-81338043D01*
X137524238Y-81430151D01*
X137524233Y-81430154D01*
X137519251Y-81432477D01*
X137461361Y-81473012D01*
X137336211Y-81560643D01*
X137336208Y-81560645D01*
X137331700Y-81563802D01*
X137169802Y-81725700D01*
X137038477Y-81913251D01*
X137036154Y-81918233D01*
X137036151Y-81918238D01*
X136944039Y-82115775D01*
X136941716Y-82120757D01*
X136940294Y-82126065D01*
X136940293Y-82126067D01*
X136897416Y-82286084D01*
X136882457Y-82341913D01*
X136862502Y-82570000D01*
X136882457Y-82798087D01*
X136883881Y-82803400D01*
X136883881Y-82803402D01*
X136927601Y-82966564D01*
X136941716Y-83019243D01*
X136944039Y-83024224D01*
X136944039Y-83024225D01*
X137036151Y-83221762D01*
X137036154Y-83221767D01*
X137038477Y-83226749D01*
X137099450Y-83313827D01*
X137160246Y-83400652D01*
X137169802Y-83414300D01*
X137331700Y-83576198D01*
X137336208Y-83579355D01*
X137336211Y-83579357D01*
X137439876Y-83651944D01*
X137519251Y-83707523D01*
X137524235Y-83709847D01*
X137526528Y-83711171D01*
X137575521Y-83762553D01*
X137588957Y-83832267D01*
X137562571Y-83898178D01*
X137526528Y-83929409D01*
X137514998Y-83936066D01*
X137462952Y-83972509D01*
X137454576Y-83982988D01*
X137461644Y-83996434D01*
X138163188Y-84697978D01*
X138177132Y-84705592D01*
X138178965Y-84705461D01*
X138185580Y-84701210D01*
X138891077Y-83995713D01*
X138897507Y-83983938D01*
X138888211Y-83971923D01*
X138837002Y-83936066D01*
X138825472Y-83929409D01*
X138776479Y-83878027D01*
X138763042Y-83808313D01*
X138789429Y-83742402D01*
X138825472Y-83711171D01*
X138827765Y-83709847D01*
X138832749Y-83707523D01*
X138912124Y-83651944D01*
X139015789Y-83579357D01*
X139015792Y-83579355D01*
X139020300Y-83576198D01*
X139182198Y-83414300D01*
X139191755Y-83400652D01*
X139252550Y-83313827D01*
X139313523Y-83226749D01*
X139315846Y-83221767D01*
X139315849Y-83221762D01*
X139407961Y-83024225D01*
X139407961Y-83024224D01*
X139410284Y-83019243D01*
X139424400Y-82966564D01*
X139468119Y-82803402D01*
X139468119Y-82803400D01*
X139469543Y-82798087D01*
X139489498Y-82570000D01*
X139469543Y-82341913D01*
X139454584Y-82286084D01*
X139411707Y-82126067D01*
X139411706Y-82126065D01*
X139410284Y-82120757D01*
X139407961Y-82115775D01*
X139315849Y-81918238D01*
X139315846Y-81918233D01*
X139313523Y-81913251D01*
X139182198Y-81725700D01*
X139020300Y-81563802D01*
X139015792Y-81560645D01*
X139015789Y-81560643D01*
X138920203Y-81493713D01*
X138875875Y-81438256D01*
X138868566Y-81367636D01*
X138900597Y-81304276D01*
X138961798Y-81268291D01*
X138992474Y-81264500D01*
X139988233Y-81264500D01*
X140056354Y-81284502D01*
X140102847Y-81338158D01*
X140112951Y-81408432D01*
X140083457Y-81473012D01*
X140077328Y-81479595D01*
X140040699Y-81516224D01*
X139919411Y-81689442D01*
X139917090Y-81694420D01*
X139917088Y-81694423D01*
X139900400Y-81730211D01*
X139830044Y-81881090D01*
X139775314Y-82085345D01*
X139756884Y-82296000D01*
X139775314Y-82506655D01*
X139830044Y-82710910D01*
X139919411Y-82902558D01*
X140040699Y-83075776D01*
X140190224Y-83225301D01*
X140363442Y-83346589D01*
X140368420Y-83348910D01*
X140368423Y-83348912D01*
X140550108Y-83433633D01*
X140555090Y-83435956D01*
X140560398Y-83437378D01*
X140560400Y-83437379D01*
X140754030Y-83489262D01*
X140754032Y-83489262D01*
X140759345Y-83490686D01*
X140970000Y-83509116D01*
X141180655Y-83490686D01*
X141185968Y-83489262D01*
X141185970Y-83489262D01*
X141379600Y-83437379D01*
X141379602Y-83437378D01*
X141384910Y-83435956D01*
X141389892Y-83433633D01*
X141571577Y-83348912D01*
X141571580Y-83348910D01*
X141576558Y-83346589D01*
X141749776Y-83225301D01*
X141899301Y-83075776D01*
X142020589Y-82902558D01*
X142109956Y-82710910D01*
X142164686Y-82506655D01*
X142183116Y-82296000D01*
X142164686Y-82085345D01*
X142109956Y-81881090D01*
X142039600Y-81730211D01*
X142022912Y-81694423D01*
X142022910Y-81694420D01*
X142020589Y-81689442D01*
X141899301Y-81516224D01*
X141862672Y-81479595D01*
X141828646Y-81417283D01*
X141833711Y-81346468D01*
X141876258Y-81289632D01*
X141942778Y-81264821D01*
X141951767Y-81264500D01*
X142832969Y-81264500D01*
X142901090Y-81284502D01*
X142922064Y-81301405D01*
X147145325Y-85524666D01*
X147147779Y-85527188D01*
X147212193Y-85595304D01*
X147216332Y-85599681D01*
X147258353Y-85631808D01*
X147278757Y-85647408D01*
X147283892Y-85651552D01*
X147336378Y-85696221D01*
X147343720Y-85702470D01*
X147348045Y-85705089D01*
X147348050Y-85705093D01*
X147371824Y-85719491D01*
X147383071Y-85727163D01*
X147409174Y-85747120D01*
X147476180Y-85783048D01*
X147478401Y-85784239D01*
X147484126Y-85787504D01*
X147551358Y-85828221D01*
X147581817Y-85840527D01*
X147594158Y-85846307D01*
X147623109Y-85861831D01*
X147627890Y-85863477D01*
X147627894Y-85863479D01*
X147697401Y-85887412D01*
X147703579Y-85889722D01*
X147722452Y-85897347D01*
X147776429Y-85919155D01*
X147808460Y-85926432D01*
X147821559Y-85930163D01*
X147852631Y-85940862D01*
X147930100Y-85954243D01*
X147936504Y-85955523D01*
X148013144Y-85972935D01*
X148045953Y-85974999D01*
X148059453Y-85976585D01*
X148091836Y-85982179D01*
X148095793Y-85982359D01*
X148095796Y-85982359D01*
X148119506Y-85983436D01*
X148119525Y-85983436D01*
X148120925Y-85983500D01*
X148177108Y-85983500D01*
X148185019Y-85983749D01*
X148255413Y-85988178D01*
X148296992Y-85984101D01*
X148309288Y-85983500D01*
X171253599Y-85983500D01*
X171321720Y-86003502D01*
X171368213Y-86057158D01*
X171378317Y-86127432D01*
X171354689Y-86184712D01*
X171301246Y-86256542D01*
X171298830Y-86261293D01*
X171298828Y-86261297D01*
X171256491Y-86344568D01*
X171196760Y-86462051D01*
X171195178Y-86467145D01*
X171195177Y-86467148D01*
X171159139Y-86583209D01*
X171128393Y-86682227D01*
X171127692Y-86687516D01*
X171108992Y-86828611D01*
X171098102Y-86910774D01*
X171106751Y-87141158D01*
X171154093Y-87366791D01*
X171238776Y-87581221D01*
X171241543Y-87585780D01*
X171241544Y-87585783D01*
X171281770Y-87652073D01*
X171358377Y-87778317D01*
X171509477Y-87952445D01*
X171513608Y-87955832D01*
X171683627Y-88095240D01*
X171683633Y-88095244D01*
X171687755Y-88098624D01*
X171692391Y-88101263D01*
X171692394Y-88101265D01*
X171837189Y-88183687D01*
X171888114Y-88212675D01*
X172104825Y-88291337D01*
X172110074Y-88292286D01*
X172110077Y-88292287D01*
X172252567Y-88318053D01*
X172316041Y-88349857D01*
X172352244Y-88410930D01*
X172349682Y-88481880D01*
X172319241Y-88531137D01*
X169084227Y-91766150D01*
X169075941Y-91773690D01*
X169069462Y-91777802D01*
X169064037Y-91783579D01*
X169022837Y-91827453D01*
X169020082Y-91830295D01*
X169000345Y-91850032D01*
X168997865Y-91853229D01*
X168990162Y-91862249D01*
X168959894Y-91894481D01*
X168956075Y-91901427D01*
X168956073Y-91901430D01*
X168950132Y-91912236D01*
X168939281Y-91928755D01*
X168926866Y-91944761D01*
X168923721Y-91952030D01*
X168923718Y-91952034D01*
X168909306Y-91985339D01*
X168904089Y-91995989D01*
X168882785Y-92034742D01*
X168880814Y-92042417D01*
X168880814Y-92042418D01*
X168877747Y-92054364D01*
X168871343Y-92073068D01*
X168863299Y-92091657D01*
X168862060Y-92099480D01*
X168862057Y-92099490D01*
X168856381Y-92135326D01*
X168853975Y-92146946D01*
X168842980Y-92189772D01*
X168842980Y-92210026D01*
X168841429Y-92229736D01*
X168838260Y-92249745D01*
X168839006Y-92257637D01*
X168842421Y-92293763D01*
X168842980Y-92305621D01*
X168842980Y-97797208D01*
X168822978Y-97865329D01*
X168806075Y-97886303D01*
X166720302Y-99972075D01*
X166657990Y-100006101D01*
X166631207Y-100008980D01*
X158769621Y-100008980D01*
X158701500Y-99988978D01*
X158655007Y-99935322D01*
X158644903Y-99865048D01*
X158674397Y-99800468D01*
X158688209Y-99786813D01*
X158710841Y-99767653D01*
X158751149Y-99733530D01*
X158928382Y-99531434D01*
X158931712Y-99526258D01*
X159071269Y-99309291D01*
X159073797Y-99305361D01*
X159184199Y-99060278D01*
X159221209Y-98929051D01*
X159255893Y-98806072D01*
X159255894Y-98806069D01*
X159257163Y-98801568D01*
X159275043Y-98661019D01*
X159290688Y-98538045D01*
X159290688Y-98538041D01*
X159291086Y-98534915D01*
X159291649Y-98513438D01*
X159293488Y-98443160D01*
X159293571Y-98440000D01*
X159288966Y-98378030D01*
X159273996Y-98176592D01*
X159273996Y-98176591D01*
X159273650Y-98171937D01*
X159214327Y-97909763D01*
X159116902Y-97659238D01*
X158983518Y-97425864D01*
X158817105Y-97214769D01*
X158621317Y-97030591D01*
X158400457Y-96877374D01*
X158396264Y-96875306D01*
X158163564Y-96760551D01*
X158163561Y-96760550D01*
X158159376Y-96758486D01*
X158111745Y-96743239D01*
X158031373Y-96717512D01*
X157903370Y-96676538D01*
X157898766Y-96675788D01*
X157898761Y-96675787D01*
X157879582Y-96672664D01*
X157810738Y-96637397D01*
X150449675Y-89276334D01*
X150447221Y-89273812D01*
X150382138Y-89204988D01*
X150382135Y-89204986D01*
X150378668Y-89201319D01*
X150316239Y-89153589D01*
X150311108Y-89149448D01*
X150255133Y-89101809D01*
X150255132Y-89101808D01*
X150251280Y-89098530D01*
X150246955Y-89095911D01*
X150246950Y-89095907D01*
X150223176Y-89081509D01*
X150211929Y-89073837D01*
X150185826Y-89053880D01*
X150116592Y-89016757D01*
X150110868Y-89013493D01*
X150043642Y-88972779D01*
X150013181Y-88960472D01*
X150000841Y-88954692D01*
X149976350Y-88941560D01*
X149976351Y-88941560D01*
X149971891Y-88939169D01*
X149967110Y-88937523D01*
X149967106Y-88937521D01*
X149897599Y-88913588D01*
X149891421Y-88911278D01*
X149823266Y-88883742D01*
X149823267Y-88883742D01*
X149818571Y-88881845D01*
X149786539Y-88874568D01*
X149773441Y-88870837D01*
X149742369Y-88860138D01*
X149664900Y-88846757D01*
X149658496Y-88845477D01*
X149581856Y-88828065D01*
X149549047Y-88826001D01*
X149535547Y-88824415D01*
X149503164Y-88818821D01*
X149499207Y-88818641D01*
X149499204Y-88818641D01*
X149475494Y-88817564D01*
X149475475Y-88817564D01*
X149474075Y-88817500D01*
X149417892Y-88817500D01*
X149409980Y-88817251D01*
X149404386Y-88816899D01*
X149339587Y-88812822D01*
X149300545Y-88816650D01*
X149298008Y-88816899D01*
X149285712Y-88817500D01*
X139757294Y-88817500D01*
X139689173Y-88797498D01*
X139668199Y-88780595D01*
X137043666Y-86156062D01*
X137454493Y-86156062D01*
X137463789Y-86168077D01*
X137514994Y-86203931D01*
X137524489Y-86209414D01*
X137721947Y-86301490D01*
X137732239Y-86305236D01*
X137942688Y-86361625D01*
X137953481Y-86363528D01*
X138170525Y-86382517D01*
X138181475Y-86382517D01*
X138398519Y-86363528D01*
X138409312Y-86361625D01*
X138619761Y-86305236D01*
X138630053Y-86301490D01*
X138827511Y-86209414D01*
X138837006Y-86203931D01*
X138889048Y-86167491D01*
X138897424Y-86157012D01*
X138890356Y-86143566D01*
X138188812Y-85442022D01*
X138174868Y-85434408D01*
X138173035Y-85434539D01*
X138166420Y-85438790D01*
X137460923Y-86144287D01*
X137454493Y-86156062D01*
X137043666Y-86156062D01*
X135963079Y-85075475D01*
X136863483Y-85075475D01*
X136882472Y-85292519D01*
X136884375Y-85303312D01*
X136940764Y-85513761D01*
X136944510Y-85524053D01*
X137036586Y-85721511D01*
X137042069Y-85731006D01*
X137078509Y-85783048D01*
X137088988Y-85791424D01*
X137102434Y-85784356D01*
X137803978Y-85082812D01*
X137810356Y-85071132D01*
X138540408Y-85071132D01*
X138540539Y-85072965D01*
X138544790Y-85079580D01*
X139250287Y-85785077D01*
X139262062Y-85791507D01*
X139274077Y-85782211D01*
X139309931Y-85731006D01*
X139315414Y-85721511D01*
X139407490Y-85524053D01*
X139411236Y-85513761D01*
X139467625Y-85303312D01*
X139469528Y-85292519D01*
X139473598Y-85246000D01*
X139756884Y-85246000D01*
X139775314Y-85456655D01*
X139776738Y-85461968D01*
X139776738Y-85461970D01*
X139827537Y-85651552D01*
X139830044Y-85660910D01*
X139832366Y-85665891D01*
X139832367Y-85665892D01*
X139916497Y-85846308D01*
X139919411Y-85852558D01*
X140040699Y-86025776D01*
X140190224Y-86175301D01*
X140363442Y-86296589D01*
X140368420Y-86298910D01*
X140368423Y-86298912D01*
X140528910Y-86373748D01*
X140555090Y-86385956D01*
X140560398Y-86387378D01*
X140560400Y-86387379D01*
X140754030Y-86439262D01*
X140754032Y-86439262D01*
X140759345Y-86440686D01*
X140970000Y-86459116D01*
X141180655Y-86440686D01*
X141185968Y-86439262D01*
X141185970Y-86439262D01*
X141379600Y-86387379D01*
X141379602Y-86387378D01*
X141384910Y-86385956D01*
X141411090Y-86373748D01*
X141571577Y-86298912D01*
X141571580Y-86298910D01*
X141576558Y-86296589D01*
X141749776Y-86175301D01*
X141899301Y-86025776D01*
X142020589Y-85852558D01*
X142023504Y-85846308D01*
X142107633Y-85665892D01*
X142107634Y-85665891D01*
X142109956Y-85660910D01*
X142112464Y-85651552D01*
X142163262Y-85461970D01*
X142163262Y-85461968D01*
X142164686Y-85456655D01*
X142183116Y-85246000D01*
X142164686Y-85035345D01*
X142163262Y-85030030D01*
X142111379Y-84836400D01*
X142111378Y-84836398D01*
X142109956Y-84831090D01*
X142096632Y-84802516D01*
X142022912Y-84644423D01*
X142022910Y-84644420D01*
X142020589Y-84639442D01*
X141899301Y-84466224D01*
X141749776Y-84316699D01*
X141576558Y-84195411D01*
X141571580Y-84193090D01*
X141571577Y-84193088D01*
X141389892Y-84108367D01*
X141389891Y-84108366D01*
X141384910Y-84106044D01*
X141379602Y-84104622D01*
X141379600Y-84104621D01*
X141185970Y-84052738D01*
X141185968Y-84052738D01*
X141180655Y-84051314D01*
X140970000Y-84032884D01*
X140759345Y-84051314D01*
X140754032Y-84052738D01*
X140754030Y-84052738D01*
X140560400Y-84104621D01*
X140560398Y-84104622D01*
X140555090Y-84106044D01*
X140550109Y-84108366D01*
X140550108Y-84108367D01*
X140368423Y-84193088D01*
X140368420Y-84193090D01*
X140363442Y-84195411D01*
X140190224Y-84316699D01*
X140040699Y-84466224D01*
X139919411Y-84639442D01*
X139917090Y-84644420D01*
X139917088Y-84644423D01*
X139843368Y-84802516D01*
X139830044Y-84831090D01*
X139828622Y-84836398D01*
X139828621Y-84836400D01*
X139776738Y-85030030D01*
X139775314Y-85035345D01*
X139756884Y-85246000D01*
X139473598Y-85246000D01*
X139488517Y-85075475D01*
X139488517Y-85064525D01*
X139469528Y-84847481D01*
X139467625Y-84836688D01*
X139411236Y-84626239D01*
X139407490Y-84615947D01*
X139315414Y-84418489D01*
X139309931Y-84408994D01*
X139273491Y-84356952D01*
X139263012Y-84348576D01*
X139249566Y-84355644D01*
X138548022Y-85057188D01*
X138540408Y-85071132D01*
X137810356Y-85071132D01*
X137811592Y-85068868D01*
X137811461Y-85067035D01*
X137807210Y-85060420D01*
X137101713Y-84354923D01*
X137089938Y-84348493D01*
X137077923Y-84357789D01*
X137042069Y-84408994D01*
X137036586Y-84418489D01*
X136944510Y-84615947D01*
X136940764Y-84626239D01*
X136884375Y-84836688D01*
X136882472Y-84847481D01*
X136863483Y-85064525D01*
X136863483Y-85075475D01*
X135963079Y-85075475D01*
X129790405Y-78902801D01*
X129756379Y-78840489D01*
X129753500Y-78813706D01*
X129753500Y-78724600D01*
X129750445Y-78695156D01*
X129743238Y-78625692D01*
X129743237Y-78625688D01*
X129742526Y-78618834D01*
X129719353Y-78549376D01*
X129716769Y-78478427D01*
X129752952Y-78417343D01*
X129816417Y-78385518D01*
X129838877Y-78383500D01*
X134871969Y-78383500D01*
X134940090Y-78403502D01*
G37*
%TD.AperFunction*%
%TA.AperFunction,Conductor*%
G36*
X114928725Y-72048477D02*
G01*
X114975218Y-72102133D01*
X114985322Y-72172407D01*
X114983186Y-72183623D01*
X114983028Y-72184286D01*
X114980255Y-72191684D01*
X114973500Y-72253866D01*
X114973500Y-74050134D01*
X114980255Y-74112316D01*
X115031385Y-74248705D01*
X115118739Y-74365261D01*
X115235295Y-74452615D01*
X115243704Y-74455767D01*
X115243705Y-74455768D01*
X115352451Y-74496535D01*
X115409216Y-74539176D01*
X115433916Y-74605738D01*
X115418709Y-74675087D01*
X115399316Y-74701568D01*
X115294022Y-74811752D01*
X115272629Y-74834138D01*
X115269715Y-74838410D01*
X115269714Y-74838411D01*
X115237834Y-74885146D01*
X115146743Y-75018680D01*
X115129391Y-75056062D01*
X115056192Y-75213757D01*
X115052688Y-75221305D01*
X114992989Y-75436570D01*
X114969251Y-75658695D01*
X114969548Y-75663848D01*
X114969548Y-75663851D01*
X114975972Y-75775267D01*
X114982110Y-75881715D01*
X114983247Y-75886761D01*
X114983248Y-75886767D01*
X115001495Y-75967734D01*
X115031222Y-76099639D01*
X115078759Y-76216710D01*
X115108595Y-76290186D01*
X115115266Y-76306616D01*
X115142587Y-76351200D01*
X115221652Y-76480222D01*
X115231987Y-76497088D01*
X115378250Y-76665938D01*
X115550126Y-76808632D01*
X115620796Y-76849928D01*
X115623955Y-76851774D01*
X115672679Y-76903412D01*
X115685750Y-76973195D01*
X115659019Y-77038967D01*
X115618562Y-77072327D01*
X115610457Y-77076546D01*
X115601738Y-77082036D01*
X115431433Y-77209905D01*
X115423726Y-77216748D01*
X115276590Y-77370717D01*
X115270104Y-77378727D01*
X115150098Y-77554649D01*
X115145000Y-77563623D01*
X115055338Y-77756783D01*
X115051775Y-77766470D01*
X114996389Y-77966183D01*
X114997912Y-77974607D01*
X115010292Y-77978000D01*
X117650344Y-77978000D01*
X117663875Y-77974027D01*
X117665180Y-77964947D01*
X117623214Y-77797875D01*
X117619894Y-77788124D01*
X117534972Y-77592814D01*
X117530105Y-77583739D01*
X117414426Y-77404926D01*
X117408136Y-77396757D01*
X117264806Y-77239240D01*
X117257273Y-77232215D01*
X117090139Y-77100222D01*
X117081556Y-77094520D01*
X117044602Y-77074120D01*
X116994631Y-77023687D01*
X116979859Y-76954245D01*
X117004975Y-76887839D01*
X117032327Y-76861232D01*
X117061953Y-76840100D01*
X117211860Y-76733173D01*
X117370096Y-76575489D01*
X117386763Y-76552295D01*
X117497435Y-76398277D01*
X117500453Y-76394077D01*
X117512463Y-76369778D01*
X117597136Y-76198453D01*
X117597137Y-76198451D01*
X117599430Y-76193811D01*
X117654013Y-76014159D01*
X117662865Y-75985023D01*
X117662865Y-75985021D01*
X117664370Y-75980069D01*
X117693529Y-75758590D01*
X117693626Y-75754631D01*
X117695074Y-75695365D01*
X117695074Y-75695361D01*
X117695156Y-75692000D01*
X117676852Y-75469361D01*
X117622431Y-75252702D01*
X117533354Y-75047840D01*
X117444650Y-74910724D01*
X117414822Y-74864617D01*
X117414820Y-74864614D01*
X117412014Y-74860277D01*
X117408532Y-74856450D01*
X117264798Y-74698488D01*
X117233746Y-74634642D01*
X117242141Y-74564143D01*
X117287317Y-74509375D01*
X117313761Y-74495706D01*
X117420297Y-74455767D01*
X117428705Y-74452615D01*
X117545261Y-74365261D01*
X117632615Y-74248705D01*
X117683745Y-74112316D01*
X117690500Y-74050134D01*
X117690500Y-72253866D01*
X117683745Y-72191684D01*
X117680972Y-72184286D01*
X117680814Y-72183623D01*
X117684515Y-72112723D01*
X117725959Y-72055079D01*
X117791990Y-72028992D01*
X117803396Y-72028475D01*
X192348722Y-72028476D01*
X193977397Y-72028476D01*
X193996788Y-72029977D01*
X194020480Y-72033667D01*
X194029384Y-72032503D01*
X194029387Y-72032503D01*
X194035737Y-72031673D01*
X194061061Y-72030931D01*
X194230027Y-72043022D01*
X194247821Y-72045581D01*
X194438145Y-72086989D01*
X194455393Y-72092054D01*
X194637896Y-72160129D01*
X194654242Y-72167595D01*
X194712737Y-72199537D01*
X194825193Y-72260946D01*
X194840316Y-72270665D01*
X194996245Y-72387396D01*
X195009829Y-72399168D01*
X195027679Y-72417018D01*
X195147557Y-72536900D01*
X195159329Y-72550486D01*
X195276054Y-72706414D01*
X195285773Y-72721537D01*
X195379119Y-72892490D01*
X195386586Y-72908842D01*
X195454658Y-73091347D01*
X195459722Y-73108593D01*
X195498911Y-73288735D01*
X195501125Y-73298914D01*
X195503683Y-73316704D01*
X195504722Y-73331220D01*
X195515279Y-73478810D01*
X195514571Y-73495858D01*
X195514576Y-73495858D01*
X195514467Y-73504833D01*
X195513085Y-73513706D01*
X195515321Y-73530801D01*
X195517212Y-73545263D01*
X195518276Y-73561602D01*
X195518276Y-74403019D01*
X195498274Y-74471140D01*
X195444618Y-74517633D01*
X195374344Y-74527737D01*
X195309764Y-74498243D01*
X195280310Y-74460809D01*
X195250754Y-74403545D01*
X195250754Y-74403544D01*
X195248789Y-74399738D01*
X195238816Y-74385547D01*
X195147692Y-74255891D01*
X195091321Y-74175683D01*
X194999739Y-74077129D01*
X194907822Y-73978214D01*
X194907819Y-73978211D01*
X194904901Y-73975071D01*
X194901586Y-73972357D01*
X194901582Y-73972354D01*
X194707798Y-73813744D01*
X194692981Y-73801616D01*
X194521515Y-73696542D01*
X194463142Y-73660771D01*
X194463141Y-73660771D01*
X194459480Y-73658527D01*
X194455544Y-73656799D01*
X194212649Y-73550175D01*
X194212645Y-73550174D01*
X194208721Y-73548451D01*
X193945342Y-73473426D01*
X193941100Y-73472822D01*
X193941094Y-73472821D01*
X193693302Y-73437555D01*
X193674219Y-73434839D01*
X193530365Y-73434086D01*
X193404653Y-73433428D01*
X193404647Y-73433428D01*
X193400367Y-73433406D01*
X193396123Y-73433965D01*
X193396119Y-73433965D01*
X193297641Y-73446930D01*
X193128854Y-73469151D01*
X193124714Y-73470284D01*
X193124712Y-73470284D01*
X193081465Y-73482115D01*
X192864704Y-73541414D01*
X192860756Y-73543098D01*
X192616758Y-73647172D01*
X192616754Y-73647174D01*
X192612806Y-73648858D01*
X192525186Y-73701297D01*
X192381501Y-73787290D01*
X192381497Y-73787293D01*
X192377819Y-73789494D01*
X192164094Y-73960720D01*
X192082486Y-74046717D01*
X192010830Y-74122227D01*
X191975584Y-74159368D01*
X191815778Y-74381762D01*
X191687633Y-74623787D01*
X191686161Y-74627810D01*
X191686159Y-74627814D01*
X191601089Y-74860277D01*
X191593519Y-74880963D01*
X191535180Y-75148533D01*
X191534844Y-75152803D01*
X191515824Y-75394474D01*
X191513693Y-75421544D01*
X191514110Y-75428782D01*
X191529458Y-75694946D01*
X191582181Y-75963679D01*
X191583568Y-75967729D01*
X191583569Y-75967734D01*
X191665000Y-76205573D01*
X191670888Y-76222770D01*
X191710021Y-76300577D01*
X191790210Y-76460016D01*
X191793936Y-76467425D01*
X191796362Y-76470954D01*
X191796365Y-76470960D01*
X191900329Y-76622227D01*
X191949050Y-76693116D01*
X191951937Y-76696289D01*
X191951938Y-76696290D01*
X192052130Y-76806400D01*
X192133358Y-76895669D01*
X192136653Y-76898424D01*
X192136654Y-76898425D01*
X192204192Y-76954895D01*
X192343451Y-77071333D01*
X192347092Y-77073617D01*
X192571800Y-77214577D01*
X192571804Y-77214579D01*
X192575440Y-77216860D01*
X192673272Y-77261033D01*
X192821121Y-77327790D01*
X192821125Y-77327792D01*
X192825033Y-77329556D01*
X192864728Y-77341314D01*
X193083499Y-77406117D01*
X193083503Y-77406118D01*
X193087612Y-77407335D01*
X193091846Y-77407983D01*
X193091851Y-77407984D01*
X193354074Y-77448109D01*
X193354076Y-77448109D01*
X193358316Y-77448758D01*
X193497688Y-77450948D01*
X193627847Y-77452993D01*
X193627853Y-77452993D01*
X193632138Y-77453060D01*
X193904011Y-77420160D01*
X194168903Y-77350667D01*
X194172863Y-77349027D01*
X194172868Y-77349025D01*
X194346919Y-77276930D01*
X194421912Y-77245867D01*
X194631511Y-77123387D01*
X194654655Y-77109863D01*
X194654656Y-77109862D01*
X194658358Y-77107699D01*
X194873865Y-76938720D01*
X194879563Y-76932841D01*
X195037787Y-76769566D01*
X195064445Y-76742057D01*
X195066978Y-76738609D01*
X195066982Y-76738604D01*
X195216637Y-76534873D01*
X195226571Y-76521349D01*
X195242756Y-76491541D01*
X195281545Y-76420100D01*
X195331628Y-76369778D01*
X195400966Y-76354522D01*
X195467545Y-76379175D01*
X195510227Y-76435909D01*
X195518276Y-76480222D01*
X195518276Y-77315914D01*
X195516776Y-77335298D01*
X195514639Y-77349025D01*
X195513085Y-77359005D01*
X195515005Y-77373689D01*
X195515717Y-77399433D01*
X195513279Y-77431970D01*
X195502325Y-77578164D01*
X195499518Y-77596786D01*
X195454117Y-77795706D01*
X195448569Y-77813695D01*
X195374025Y-78003634D01*
X195365858Y-78020593D01*
X195263840Y-78197296D01*
X195253231Y-78212856D01*
X195126018Y-78372377D01*
X195113211Y-78386181D01*
X195004609Y-78486949D01*
X194963636Y-78524966D01*
X194948921Y-78536701D01*
X194806709Y-78633658D01*
X194791537Y-78641629D01*
X194791568Y-78641685D01*
X194783739Y-78646078D01*
X194775368Y-78649317D01*
X194768242Y-78654776D01*
X194768239Y-78654777D01*
X194750091Y-78668677D01*
X194736474Y-78677767D01*
X184543871Y-84562469D01*
X184474876Y-84579207D01*
X184407784Y-84555987D01*
X184363897Y-84500179D01*
X184357148Y-84429504D01*
X184365016Y-84403816D01*
X184367999Y-84396840D01*
X184368001Y-84396834D01*
X184371528Y-84388584D01*
X184373576Y-84371542D01*
X184387830Y-84252881D01*
X184388901Y-84243967D01*
X184381345Y-84198566D01*
X184366284Y-84108076D01*
X184366283Y-84108073D01*
X184364987Y-84100286D01*
X184339746Y-84043057D01*
X183441612Y-82487443D01*
X183404671Y-82436969D01*
X183398568Y-82431947D01*
X183398566Y-82431945D01*
X183299129Y-82350123D01*
X183299130Y-82350123D01*
X183292196Y-82344418D01*
X183283945Y-82340890D01*
X183283943Y-82340889D01*
X183225232Y-82315787D01*
X183158267Y-82287155D01*
X183149358Y-82286085D01*
X183149355Y-82286084D01*
X183057905Y-82275098D01*
X183013650Y-82269782D01*
X183004794Y-82271256D01*
X183004792Y-82271256D01*
X182877759Y-82292399D01*
X182877756Y-82292400D01*
X182869969Y-82293696D01*
X182812740Y-82318937D01*
X181257126Y-83217071D01*
X181206652Y-83254012D01*
X181197559Y-83265062D01*
X181138832Y-83304953D01*
X181100266Y-83311000D01*
X179024267Y-83311000D01*
X179013084Y-83310473D01*
X179005591Y-83308798D01*
X178997665Y-83309047D01*
X178997664Y-83309047D01*
X178937514Y-83310938D01*
X178933555Y-83311000D01*
X178905644Y-83311000D01*
X178901710Y-83311497D01*
X178901709Y-83311497D01*
X178901644Y-83311505D01*
X178889807Y-83312438D01*
X178857990Y-83313438D01*
X178853529Y-83313578D01*
X178845610Y-83313827D01*
X178827954Y-83318956D01*
X178826158Y-83319478D01*
X178806806Y-83323486D01*
X178799735Y-83324380D01*
X178786703Y-83326026D01*
X178779334Y-83328943D01*
X178779332Y-83328944D01*
X178745597Y-83342300D01*
X178734369Y-83346145D01*
X178691907Y-83358482D01*
X178685085Y-83362516D01*
X178685079Y-83362519D01*
X178674468Y-83368794D01*
X178656718Y-83377490D01*
X178645256Y-83382028D01*
X178645251Y-83382031D01*
X178637883Y-83384948D01*
X178631468Y-83389609D01*
X178602125Y-83410927D01*
X178592207Y-83417443D01*
X178573519Y-83428495D01*
X178554137Y-83439958D01*
X178539813Y-83454282D01*
X178524781Y-83467121D01*
X178508393Y-83479028D01*
X178483898Y-83508637D01*
X178480212Y-83513093D01*
X178472222Y-83521873D01*
X175992020Y-86002075D01*
X175929708Y-86036101D01*
X175902925Y-86038980D01*
X175152566Y-86038980D01*
X175141382Y-86038453D01*
X175133894Y-86036779D01*
X175125971Y-86037028D01*
X175065836Y-86038918D01*
X175061878Y-86038980D01*
X175033947Y-86038980D01*
X175030032Y-86039475D01*
X175030028Y-86039475D01*
X175029970Y-86039483D01*
X175029941Y-86039486D01*
X175018099Y-86040419D01*
X174973913Y-86041807D01*
X174956547Y-86046852D01*
X174954461Y-86047458D01*
X174935109Y-86051466D01*
X174928038Y-86052360D01*
X174915006Y-86054006D01*
X174907637Y-86056923D01*
X174907635Y-86056924D01*
X174873900Y-86070280D01*
X174862672Y-86074125D01*
X174820210Y-86086462D01*
X174813388Y-86090496D01*
X174813382Y-86090499D01*
X174802771Y-86096774D01*
X174785021Y-86105470D01*
X174773559Y-86110008D01*
X174773554Y-86110011D01*
X174766186Y-86112928D01*
X174759771Y-86117589D01*
X174730428Y-86138907D01*
X174720510Y-86145423D01*
X174703761Y-86155329D01*
X174682440Y-86167938D01*
X174668116Y-86182262D01*
X174653084Y-86195101D01*
X174636696Y-86207008D01*
X174610059Y-86239207D01*
X174608515Y-86241073D01*
X174600525Y-86249853D01*
X174258650Y-86591728D01*
X174196338Y-86625754D01*
X174125523Y-86620689D01*
X174068687Y-86578142D01*
X174052363Y-86548914D01*
X173983187Y-86373748D01*
X173983184Y-86373742D01*
X173981224Y-86368779D01*
X173966533Y-86344568D01*
X173869529Y-86184712D01*
X173861623Y-86171683D01*
X173833182Y-86138907D01*
X173714023Y-86001588D01*
X173714021Y-86001586D01*
X173710523Y-85997555D01*
X173674880Y-85968330D01*
X173634886Y-85909671D01*
X173632954Y-85838701D01*
X173669698Y-85777952D01*
X173688468Y-85763752D01*
X173828120Y-85677332D01*
X173834348Y-85673478D01*
X173959305Y-85548303D01*
X174009449Y-85466955D01*
X174048275Y-85403968D01*
X174048276Y-85403966D01*
X174052115Y-85397738D01*
X174107797Y-85229861D01*
X174118500Y-85125400D01*
X174118500Y-84512812D01*
X174118630Y-84507096D01*
X174120663Y-84462329D01*
X174122486Y-84422183D01*
X174119335Y-84394949D01*
X174118500Y-84380468D01*
X174118500Y-83824600D01*
X174116392Y-83804284D01*
X174108238Y-83725692D01*
X174108237Y-83725688D01*
X174107526Y-83718834D01*
X174104970Y-83711171D01*
X174053868Y-83558002D01*
X174051550Y-83551054D01*
X173958478Y-83400652D01*
X173833303Y-83275695D01*
X173798127Y-83254012D01*
X173688968Y-83186725D01*
X173688966Y-83186724D01*
X173682738Y-83182885D01*
X173602995Y-83156436D01*
X173521389Y-83129368D01*
X173521387Y-83129368D01*
X173514861Y-83127203D01*
X173508025Y-83126503D01*
X173508022Y-83126502D01*
X173464969Y-83122091D01*
X173410400Y-83116500D01*
X173300376Y-83116500D01*
X173240836Y-83101545D01*
X173215891Y-83088169D01*
X172986369Y-83009138D01*
X172887022Y-82991978D01*
X172751074Y-82968496D01*
X172751068Y-82968495D01*
X172747164Y-82967821D01*
X172743203Y-82967641D01*
X172743202Y-82967641D01*
X172719494Y-82966564D01*
X172719475Y-82966564D01*
X172718075Y-82966500D01*
X148906031Y-82966500D01*
X148837910Y-82946498D01*
X148816936Y-82929595D01*
X144593675Y-78706334D01*
X144591221Y-78703812D01*
X144526138Y-78634988D01*
X144526135Y-78634986D01*
X144522668Y-78631319D01*
X144460239Y-78583589D01*
X144455108Y-78579448D01*
X144399133Y-78531809D01*
X144399132Y-78531808D01*
X144395280Y-78528530D01*
X144390955Y-78525911D01*
X144390950Y-78525907D01*
X144367176Y-78511509D01*
X144355929Y-78503837D01*
X144329826Y-78483880D01*
X144260592Y-78446757D01*
X144254868Y-78443493D01*
X144187642Y-78402779D01*
X144157181Y-78390472D01*
X144144841Y-78384692D01*
X144120350Y-78371560D01*
X144120351Y-78371560D01*
X144115891Y-78369169D01*
X144111110Y-78367523D01*
X144111106Y-78367521D01*
X144041599Y-78343588D01*
X144035421Y-78341278D01*
X143967266Y-78313742D01*
X143967267Y-78313742D01*
X143962571Y-78311845D01*
X143930539Y-78304568D01*
X143917441Y-78300837D01*
X143886369Y-78290138D01*
X143808900Y-78276757D01*
X143802496Y-78275477D01*
X143725856Y-78258065D01*
X143693047Y-78256001D01*
X143679547Y-78254415D01*
X143647164Y-78248821D01*
X143643207Y-78248641D01*
X143643204Y-78248641D01*
X143619494Y-78247564D01*
X143619475Y-78247564D01*
X143618075Y-78247500D01*
X143561892Y-78247500D01*
X143553980Y-78247251D01*
X143548386Y-78246899D01*
X143483587Y-78242822D01*
X143444545Y-78246650D01*
X143442008Y-78246899D01*
X143429712Y-78247500D01*
X141951767Y-78247500D01*
X141883646Y-78227498D01*
X141837153Y-78173842D01*
X141829412Y-78120000D01*
X150186761Y-78120000D01*
X150187031Y-78124119D01*
X150205296Y-78402779D01*
X150205696Y-78408886D01*
X150206500Y-78412926D01*
X150206500Y-78412929D01*
X150258579Y-78674748D01*
X150262175Y-78692828D01*
X150263501Y-78696734D01*
X150263502Y-78696738D01*
X150312299Y-78840489D01*
X150355234Y-78966970D01*
X150357055Y-78970663D01*
X150357056Y-78970665D01*
X150382968Y-79023209D01*
X150483279Y-79226619D01*
X150644119Y-79467335D01*
X150646831Y-79470427D01*
X150646836Y-79470434D01*
X150774604Y-79616124D01*
X150835004Y-79684996D01*
X150838093Y-79687705D01*
X151049565Y-79873163D01*
X151049571Y-79873168D01*
X151052665Y-79875881D01*
X151293380Y-80036721D01*
X151297079Y-80038545D01*
X151297084Y-80038548D01*
X151549335Y-80162944D01*
X151553030Y-80164766D01*
X151556928Y-80166089D01*
X151556930Y-80166090D01*
X151823262Y-80256498D01*
X151823266Y-80256499D01*
X151827172Y-80257825D01*
X151831216Y-80258629D01*
X151831222Y-80258631D01*
X152107071Y-80313500D01*
X152107074Y-80313500D01*
X152111114Y-80314304D01*
X152115225Y-80314573D01*
X152115229Y-80314574D01*
X152395881Y-80332969D01*
X152400000Y-80333239D01*
X152404119Y-80332969D01*
X152684771Y-80314574D01*
X152684775Y-80314573D01*
X152688886Y-80314304D01*
X152692926Y-80313500D01*
X152692929Y-80313500D01*
X152968778Y-80258631D01*
X152968784Y-80258629D01*
X152972828Y-80257825D01*
X152976734Y-80256499D01*
X152976738Y-80256498D01*
X153243070Y-80166090D01*
X153243072Y-80166089D01*
X153246970Y-80164766D01*
X153250665Y-80162944D01*
X153502916Y-80038548D01*
X153502921Y-80038545D01*
X153506620Y-80036721D01*
X153747335Y-79875881D01*
X153750429Y-79873168D01*
X153750435Y-79873163D01*
X153961907Y-79687705D01*
X153964996Y-79684996D01*
X154025396Y-79616124D01*
X154153164Y-79470434D01*
X154153169Y-79470427D01*
X154155881Y-79467335D01*
X154316721Y-79226619D01*
X154417032Y-79023209D01*
X154442944Y-78970665D01*
X154442945Y-78970663D01*
X154444766Y-78966970D01*
X154487701Y-78840489D01*
X154536498Y-78696738D01*
X154536499Y-78696734D01*
X154537825Y-78692828D01*
X154541422Y-78674748D01*
X154593500Y-78412929D01*
X154593500Y-78412926D01*
X154594304Y-78408886D01*
X154594705Y-78402779D01*
X154612969Y-78124119D01*
X154613239Y-78120000D01*
X154603671Y-77974027D01*
X154594574Y-77835229D01*
X154594573Y-77835225D01*
X154594304Y-77831114D01*
X154593484Y-77826991D01*
X154538631Y-77551222D01*
X154538629Y-77551216D01*
X154537825Y-77547172D01*
X154530565Y-77525783D01*
X154446090Y-77276930D01*
X154446089Y-77276928D01*
X154444766Y-77273030D01*
X154432181Y-77247509D01*
X154318550Y-77017090D01*
X154316721Y-77013381D01*
X154155881Y-76772665D01*
X154153169Y-76769573D01*
X154153164Y-76769566D01*
X153967705Y-76558093D01*
X153964996Y-76555004D01*
X153905192Y-76502557D01*
X153774531Y-76387969D01*
X168132095Y-76387969D01*
X168132392Y-76393122D01*
X168132392Y-76393125D01*
X168140348Y-76531105D01*
X168145427Y-76619197D01*
X168146564Y-76624243D01*
X168146565Y-76624249D01*
X168176856Y-76758659D01*
X168196346Y-76845142D01*
X168198288Y-76849924D01*
X168198289Y-76849928D01*
X168269528Y-77025368D01*
X168283484Y-77059737D01*
X168286183Y-77064141D01*
X168388057Y-77230384D01*
X168404501Y-77257219D01*
X168556147Y-77432284D01*
X168657292Y-77516256D01*
X168720223Y-77568502D01*
X168734349Y-77580230D01*
X168934322Y-77697084D01*
X169150694Y-77779709D01*
X169155760Y-77780740D01*
X169155761Y-77780740D01*
X169192055Y-77788124D01*
X169377656Y-77825885D01*
X169508324Y-77830676D01*
X169603949Y-77834183D01*
X169603953Y-77834183D01*
X169609113Y-77834372D01*
X169614233Y-77833716D01*
X169614235Y-77833716D01*
X169704886Y-77822103D01*
X169838847Y-77804942D01*
X169843795Y-77803457D01*
X169843802Y-77803456D01*
X170055747Y-77739869D01*
X170060690Y-77738386D01*
X170101656Y-77718317D01*
X170264049Y-77638762D01*
X170264052Y-77638760D01*
X170268684Y-77636491D01*
X170457243Y-77501994D01*
X170621303Y-77338505D01*
X170628306Y-77328760D01*
X170665549Y-77276930D01*
X170756458Y-77150417D01*
X170770887Y-77121223D01*
X170856784Y-76947422D01*
X170856785Y-76947420D01*
X170859078Y-76942780D01*
X170926408Y-76721171D01*
X170956640Y-76491541D01*
X170956722Y-76488191D01*
X170958245Y-76425865D01*
X170958245Y-76425861D01*
X170958327Y-76422500D01*
X170955488Y-76387969D01*
X188452095Y-76387969D01*
X188452392Y-76393122D01*
X188452392Y-76393125D01*
X188460348Y-76531105D01*
X188465427Y-76619197D01*
X188466564Y-76624243D01*
X188466565Y-76624249D01*
X188496856Y-76758659D01*
X188516346Y-76845142D01*
X188518288Y-76849924D01*
X188518289Y-76849928D01*
X188589528Y-77025368D01*
X188603484Y-77059737D01*
X188606183Y-77064141D01*
X188708057Y-77230384D01*
X188724501Y-77257219D01*
X188876147Y-77432284D01*
X188977292Y-77516256D01*
X189040223Y-77568502D01*
X189054349Y-77580230D01*
X189254322Y-77697084D01*
X189470694Y-77779709D01*
X189475760Y-77780740D01*
X189475761Y-77780740D01*
X189512055Y-77788124D01*
X189697656Y-77825885D01*
X189828324Y-77830676D01*
X189923949Y-77834183D01*
X189923953Y-77834183D01*
X189929113Y-77834372D01*
X189934233Y-77833716D01*
X189934235Y-77833716D01*
X190024886Y-77822103D01*
X190158847Y-77804942D01*
X190163795Y-77803457D01*
X190163802Y-77803456D01*
X190375747Y-77739869D01*
X190380690Y-77738386D01*
X190421656Y-77718317D01*
X190584049Y-77638762D01*
X190584052Y-77638760D01*
X190588684Y-77636491D01*
X190777243Y-77501994D01*
X190941303Y-77338505D01*
X190948306Y-77328760D01*
X190985549Y-77276930D01*
X191076458Y-77150417D01*
X191090887Y-77121223D01*
X191176784Y-76947422D01*
X191176785Y-76947420D01*
X191179078Y-76942780D01*
X191246408Y-76721171D01*
X191276640Y-76491541D01*
X191276722Y-76488191D01*
X191278245Y-76425865D01*
X191278245Y-76425861D01*
X191278327Y-76422500D01*
X191268090Y-76297980D01*
X191259773Y-76196818D01*
X191259772Y-76196812D01*
X191259349Y-76191667D01*
X191221767Y-76042045D01*
X191204184Y-75972044D01*
X191204183Y-75972040D01*
X191202925Y-75967033D01*
X191200866Y-75962297D01*
X191112630Y-75759368D01*
X191112628Y-75759365D01*
X191110570Y-75754631D01*
X190984764Y-75560165D01*
X190828887Y-75388858D01*
X190824836Y-75385659D01*
X190824832Y-75385655D01*
X190651177Y-75248511D01*
X190651172Y-75248508D01*
X190647123Y-75245310D01*
X190642607Y-75242817D01*
X190642604Y-75242815D01*
X190448879Y-75135873D01*
X190448875Y-75135871D01*
X190444355Y-75133376D01*
X190439486Y-75131652D01*
X190439482Y-75131650D01*
X190230903Y-75057788D01*
X190230899Y-75057787D01*
X190226028Y-75056062D01*
X190220935Y-75055155D01*
X190220932Y-75055154D01*
X190003095Y-75016351D01*
X190003089Y-75016350D01*
X189998006Y-75015445D01*
X189925096Y-75014554D01*
X189771581Y-75012679D01*
X189771579Y-75012679D01*
X189766411Y-75012616D01*
X189537464Y-75047650D01*
X189317314Y-75119606D01*
X189312726Y-75121994D01*
X189312722Y-75121996D01*
X189196789Y-75182347D01*
X189111872Y-75226552D01*
X189107739Y-75229655D01*
X189107736Y-75229657D01*
X188930790Y-75362512D01*
X188926655Y-75365617D01*
X188917685Y-75375004D01*
X188791628Y-75506915D01*
X188766639Y-75533064D01*
X188763725Y-75537336D01*
X188763724Y-75537337D01*
X188738744Y-75573957D01*
X188636119Y-75724399D01*
X188538602Y-75934481D01*
X188476707Y-76157669D01*
X188452095Y-76387969D01*
X170955488Y-76387969D01*
X170948090Y-76297980D01*
X170939773Y-76196818D01*
X170939772Y-76196812D01*
X170939349Y-76191667D01*
X170901767Y-76042045D01*
X170884184Y-75972044D01*
X170884183Y-75972040D01*
X170882925Y-75967033D01*
X170880866Y-75962297D01*
X170792630Y-75759368D01*
X170792628Y-75759365D01*
X170790570Y-75754631D01*
X170664764Y-75560165D01*
X170508887Y-75388858D01*
X170504836Y-75385659D01*
X170504832Y-75385655D01*
X170331177Y-75248511D01*
X170331172Y-75248508D01*
X170327123Y-75245310D01*
X170322607Y-75242817D01*
X170322604Y-75242815D01*
X170128879Y-75135873D01*
X170128875Y-75135871D01*
X170124355Y-75133376D01*
X170119486Y-75131652D01*
X170119482Y-75131650D01*
X169910903Y-75057788D01*
X169910899Y-75057787D01*
X169906028Y-75056062D01*
X169900935Y-75055155D01*
X169900932Y-75055154D01*
X169683095Y-75016351D01*
X169683089Y-75016350D01*
X169678006Y-75015445D01*
X169605096Y-75014554D01*
X169451581Y-75012679D01*
X169451579Y-75012679D01*
X169446411Y-75012616D01*
X169217464Y-75047650D01*
X168997314Y-75119606D01*
X168992726Y-75121994D01*
X168992722Y-75121996D01*
X168876789Y-75182347D01*
X168791872Y-75226552D01*
X168787739Y-75229655D01*
X168787736Y-75229657D01*
X168610790Y-75362512D01*
X168606655Y-75365617D01*
X168597685Y-75375004D01*
X168471628Y-75506915D01*
X168446639Y-75533064D01*
X168443725Y-75537336D01*
X168443724Y-75537337D01*
X168418744Y-75573957D01*
X168316119Y-75724399D01*
X168218602Y-75934481D01*
X168156707Y-76157669D01*
X168132095Y-76387969D01*
X153774531Y-76387969D01*
X153750435Y-76366837D01*
X153750429Y-76366832D01*
X153747335Y-76364119D01*
X153506620Y-76203279D01*
X153502921Y-76201455D01*
X153502916Y-76201452D01*
X153250665Y-76077056D01*
X153250663Y-76077055D01*
X153246970Y-76075234D01*
X153149199Y-76042045D01*
X152976738Y-75983502D01*
X152976734Y-75983501D01*
X152972828Y-75982175D01*
X152968784Y-75981371D01*
X152968778Y-75981369D01*
X152692929Y-75926500D01*
X152692926Y-75926500D01*
X152688886Y-75925696D01*
X152684775Y-75925427D01*
X152684771Y-75925426D01*
X152404119Y-75907031D01*
X152400000Y-75906761D01*
X152395881Y-75907031D01*
X152115229Y-75925426D01*
X152115225Y-75925427D01*
X152111114Y-75925696D01*
X152107074Y-75926500D01*
X152107071Y-75926500D01*
X151831222Y-75981369D01*
X151831216Y-75981371D01*
X151827172Y-75982175D01*
X151823266Y-75983501D01*
X151823262Y-75983502D01*
X151650801Y-76042045D01*
X151553030Y-76075234D01*
X151549337Y-76077055D01*
X151549335Y-76077056D01*
X151395951Y-76152697D01*
X151293381Y-76203279D01*
X151052665Y-76364119D01*
X151049573Y-76366831D01*
X151049566Y-76366836D01*
X150894808Y-76502557D01*
X150835004Y-76555004D01*
X150832295Y-76558093D01*
X150646836Y-76769566D01*
X150646831Y-76769573D01*
X150644119Y-76772665D01*
X150483279Y-77013381D01*
X150481450Y-77017090D01*
X150367820Y-77247509D01*
X150355234Y-77273030D01*
X150353911Y-77276928D01*
X150353910Y-77276930D01*
X150269436Y-77525783D01*
X150262175Y-77547172D01*
X150261371Y-77551216D01*
X150261369Y-77551222D01*
X150206516Y-77826991D01*
X150205696Y-77831114D01*
X150205427Y-77835225D01*
X150205426Y-77835229D01*
X150190731Y-78059427D01*
X150188805Y-78088810D01*
X150186761Y-78120000D01*
X141829412Y-78120000D01*
X141827049Y-78103568D01*
X141856543Y-78038988D01*
X141862672Y-78032405D01*
X141899301Y-77995776D01*
X142020589Y-77822558D01*
X142028804Y-77804942D01*
X142107633Y-77635892D01*
X142107634Y-77635891D01*
X142109956Y-77630910D01*
X142122596Y-77583739D01*
X142163262Y-77431970D01*
X142163262Y-77431968D01*
X142164686Y-77426655D01*
X142183116Y-77216000D01*
X142164686Y-77005345D01*
X142157243Y-76977566D01*
X142111379Y-76806400D01*
X142111378Y-76806398D01*
X142109956Y-76801090D01*
X142107633Y-76796108D01*
X142022912Y-76614423D01*
X142022910Y-76614420D01*
X142020589Y-76609442D01*
X141899301Y-76436224D01*
X141749776Y-76286699D01*
X141576558Y-76165411D01*
X141571580Y-76163090D01*
X141571577Y-76163088D01*
X141389892Y-76078367D01*
X141389891Y-76078366D01*
X141384910Y-76076044D01*
X141379602Y-76074622D01*
X141379600Y-76074621D01*
X141185970Y-76022738D01*
X141185968Y-76022738D01*
X141180655Y-76021314D01*
X140970000Y-76002884D01*
X140759345Y-76021314D01*
X140754032Y-76022738D01*
X140754030Y-76022738D01*
X140560400Y-76074621D01*
X140560398Y-76074622D01*
X140555090Y-76076044D01*
X140550109Y-76078366D01*
X140550108Y-76078367D01*
X140368423Y-76163088D01*
X140368420Y-76163090D01*
X140363442Y-76165411D01*
X140190224Y-76286699D01*
X140040699Y-76436224D01*
X139919411Y-76609442D01*
X139917090Y-76614420D01*
X139917088Y-76614423D01*
X139832367Y-76796108D01*
X139830044Y-76801090D01*
X139828622Y-76806398D01*
X139828621Y-76806400D01*
X139782757Y-76977566D01*
X139775314Y-77005345D01*
X139756884Y-77216000D01*
X139775314Y-77426655D01*
X139776738Y-77431968D01*
X139776738Y-77431970D01*
X139817405Y-77583739D01*
X139830044Y-77630910D01*
X139832366Y-77635891D01*
X139832367Y-77635892D01*
X139911197Y-77804942D01*
X139919411Y-77822558D01*
X140040699Y-77995776D01*
X140077328Y-78032405D01*
X140111354Y-78094717D01*
X140106289Y-78165532D01*
X140063742Y-78222368D01*
X139997222Y-78247179D01*
X139988233Y-78247500D01*
X139107031Y-78247500D01*
X139038910Y-78227498D01*
X139017936Y-78210595D01*
X136632675Y-75825334D01*
X136630221Y-75822812D01*
X136565138Y-75753988D01*
X136565135Y-75753986D01*
X136561668Y-75750319D01*
X136499239Y-75702589D01*
X136494108Y-75698448D01*
X136438133Y-75650809D01*
X136438132Y-75650808D01*
X136434280Y-75647530D01*
X136429955Y-75644911D01*
X136429950Y-75644907D01*
X136406176Y-75630509D01*
X136394929Y-75622837D01*
X136368826Y-75602880D01*
X136299592Y-75565757D01*
X136293868Y-75562493D01*
X136290024Y-75560165D01*
X136226642Y-75521779D01*
X136196181Y-75509472D01*
X136183841Y-75503692D01*
X136159350Y-75490560D01*
X136159351Y-75490560D01*
X136154891Y-75488169D01*
X136150110Y-75486523D01*
X136150106Y-75486521D01*
X136080599Y-75462588D01*
X136074421Y-75460278D01*
X136006266Y-75432742D01*
X136006267Y-75432742D01*
X136001571Y-75430845D01*
X135969539Y-75423568D01*
X135956441Y-75419837D01*
X135925369Y-75409138D01*
X135847900Y-75395757D01*
X135841496Y-75394477D01*
X135764856Y-75377065D01*
X135732047Y-75375001D01*
X135718547Y-75373415D01*
X135686164Y-75367821D01*
X135682207Y-75367641D01*
X135682204Y-75367641D01*
X135658494Y-75366564D01*
X135658475Y-75366564D01*
X135657075Y-75366500D01*
X135600892Y-75366500D01*
X135592980Y-75366251D01*
X135587386Y-75365899D01*
X135522587Y-75361822D01*
X135483884Y-75365617D01*
X135481008Y-75365899D01*
X135468712Y-75366500D01*
X129601401Y-75366500D01*
X129533280Y-75346498D01*
X129486787Y-75292842D01*
X129476683Y-75222568D01*
X129500311Y-75165288D01*
X129535495Y-75117999D01*
X129553754Y-75093458D01*
X129574533Y-75052590D01*
X129640494Y-74922852D01*
X129658240Y-74887949D01*
X129660410Y-74880963D01*
X129725024Y-74672871D01*
X129726607Y-74667773D01*
X129731903Y-74627814D01*
X129756198Y-74444511D01*
X129756198Y-74444506D01*
X129756898Y-74439226D01*
X129755559Y-74403545D01*
X129749751Y-74248842D01*
X129748249Y-74208842D01*
X129729549Y-74119715D01*
X129702002Y-73988428D01*
X129700907Y-73983209D01*
X129698948Y-73978248D01*
X129618185Y-73773744D01*
X129618184Y-73773742D01*
X129616224Y-73768779D01*
X129572390Y-73696542D01*
X129499390Y-73576243D01*
X129496623Y-73571683D01*
X129483554Y-73556622D01*
X129349023Y-73401588D01*
X129349021Y-73401586D01*
X129345523Y-73397555D01*
X129246923Y-73316708D01*
X129171373Y-73254760D01*
X129171367Y-73254756D01*
X129167245Y-73251376D01*
X129162609Y-73248737D01*
X129162606Y-73248735D01*
X128971529Y-73139968D01*
X128966886Y-73137325D01*
X128750175Y-73058663D01*
X128744926Y-73057714D01*
X128744923Y-73057713D01*
X128527392Y-73018377D01*
X128527385Y-73018376D01*
X128523308Y-73017639D01*
X128505586Y-73016803D01*
X128500644Y-73016570D01*
X128500637Y-73016570D01*
X128499156Y-73016500D01*
X128087110Y-73016500D01*
X128020191Y-73022178D01*
X127920591Y-73030629D01*
X127920587Y-73030630D01*
X127915280Y-73031080D01*
X127910125Y-73032418D01*
X127910119Y-73032419D01*
X127697297Y-73087657D01*
X127697293Y-73087658D01*
X127692128Y-73088999D01*
X127687262Y-73091191D01*
X127687259Y-73091192D01*
X127578980Y-73139968D01*
X127481925Y-73183688D01*
X127290681Y-73312441D01*
X127286824Y-73316120D01*
X127286822Y-73316122D01*
X127251874Y-73349461D01*
X127123865Y-73471576D01*
X127120682Y-73475854D01*
X127084571Y-73524389D01*
X126986246Y-73656542D01*
X126983830Y-73661293D01*
X126983828Y-73661297D01*
X126977220Y-73674295D01*
X126881760Y-73862051D01*
X126880178Y-73867145D01*
X126880177Y-73867148D01*
X126842467Y-73988595D01*
X126813393Y-74082227D01*
X126812692Y-74087516D01*
X126790604Y-74254173D01*
X126783102Y-74310774D01*
X126783302Y-74316103D01*
X126783302Y-74316105D01*
X126785636Y-74378283D01*
X126791751Y-74541158D01*
X126839093Y-74766791D01*
X126841051Y-74771750D01*
X126841052Y-74771752D01*
X126904616Y-74932704D01*
X126923776Y-74981221D01*
X126926543Y-74985780D01*
X126926544Y-74985783D01*
X127013270Y-75128703D01*
X127043377Y-75178317D01*
X127046874Y-75182347D01*
X127168148Y-75322103D01*
X127194477Y-75352445D01*
X127243548Y-75392681D01*
X127350040Y-75479999D01*
X127390035Y-75538659D01*
X127391966Y-75609629D01*
X127353474Y-75671947D01*
X127185142Y-75820350D01*
X127185139Y-75820353D01*
X127181345Y-75823698D01*
X127178135Y-75827606D01*
X127178134Y-75827607D01*
X127034161Y-76002884D01*
X127027266Y-76011278D01*
X126973053Y-76104425D01*
X126914180Y-76205579D01*
X126905159Y-76221078D01*
X126903346Y-76225801D01*
X126820483Y-76441669D01*
X126818167Y-76447702D01*
X126817133Y-76452652D01*
X126817132Y-76452655D01*
X126784378Y-76609442D01*
X126768526Y-76685320D01*
X126757514Y-76927817D01*
X126758095Y-76932837D01*
X126758095Y-76932841D01*
X126783756Y-77154616D01*
X126785415Y-77168956D01*
X126786791Y-77173820D01*
X126786792Y-77173823D01*
X126807643Y-77247509D01*
X126851510Y-77402532D01*
X126853644Y-77407108D01*
X126853646Y-77407114D01*
X126948416Y-77610349D01*
X126954099Y-77622536D01*
X127090544Y-77823307D01*
X127094023Y-77826986D01*
X127094027Y-77826991D01*
X127187669Y-77926015D01*
X127219941Y-77989253D01*
X127212901Y-78059900D01*
X127168784Y-78115525D01*
X127162459Y-78119710D01*
X127070652Y-78176522D01*
X126945695Y-78301697D01*
X126941855Y-78307927D01*
X126941854Y-78307928D01*
X126859465Y-78441588D01*
X126852885Y-78452262D01*
X126850581Y-78459209D01*
X126800008Y-78611683D01*
X126797203Y-78620139D01*
X126796503Y-78626975D01*
X126796502Y-78626978D01*
X126795001Y-78641629D01*
X126786500Y-78724600D01*
X126786500Y-79089947D01*
X126784663Y-79111381D01*
X126763931Y-79231409D01*
X126732628Y-79295127D01*
X126671842Y-79331809D01*
X126600874Y-79329805D01*
X126550676Y-79299054D01*
X123774369Y-76522747D01*
X123766829Y-76514461D01*
X123762717Y-76507982D01*
X123746432Y-76492689D01*
X123713066Y-76461357D01*
X123710224Y-76458602D01*
X123690487Y-76438865D01*
X123687290Y-76436385D01*
X123678268Y-76428680D01*
X123646038Y-76398414D01*
X123639092Y-76394595D01*
X123639089Y-76394593D01*
X123628283Y-76388652D01*
X123611764Y-76377801D01*
X123605432Y-76372890D01*
X123595758Y-76365386D01*
X123588489Y-76362241D01*
X123588485Y-76362238D01*
X123555180Y-76347826D01*
X123544530Y-76342609D01*
X123505777Y-76321305D01*
X123486154Y-76316267D01*
X123467451Y-76309863D01*
X123456137Y-76304967D01*
X123456136Y-76304967D01*
X123448862Y-76301819D01*
X123441039Y-76300580D01*
X123441029Y-76300577D01*
X123405193Y-76294901D01*
X123393573Y-76292495D01*
X123358428Y-76283472D01*
X123358427Y-76283472D01*
X123350747Y-76281500D01*
X123330493Y-76281500D01*
X123310782Y-76279949D01*
X123298603Y-76278020D01*
X123290774Y-76276780D01*
X123259070Y-76279777D01*
X123246756Y-76280941D01*
X123234898Y-76281500D01*
X122685596Y-76281500D01*
X122617475Y-76261498D01*
X122577877Y-76220866D01*
X122564277Y-76198453D01*
X122511623Y-76111683D01*
X122478845Y-76073910D01*
X122364023Y-75941588D01*
X122364021Y-75941586D01*
X122360523Y-75937555D01*
X122292421Y-75881715D01*
X122186373Y-75794760D01*
X122186367Y-75794756D01*
X122182245Y-75791376D01*
X122150750Y-75773448D01*
X122101445Y-75722368D01*
X122087583Y-75652738D01*
X122113566Y-75586667D01*
X122142716Y-75559427D01*
X122194746Y-75524398D01*
X122264319Y-75477559D01*
X122281138Y-75461515D01*
X122360659Y-75385655D01*
X122431135Y-75318424D01*
X122568754Y-75133458D01*
X122673240Y-74927949D01*
X122676032Y-74918959D01*
X122740024Y-74712871D01*
X122741607Y-74707773D01*
X122746264Y-74672635D01*
X122771198Y-74484511D01*
X122771198Y-74484506D01*
X122771898Y-74479226D01*
X122771595Y-74471140D01*
X122765376Y-74305489D01*
X122763249Y-74248842D01*
X122715907Y-74023209D01*
X122713948Y-74018248D01*
X122633185Y-73813744D01*
X122633184Y-73813742D01*
X122631224Y-73808779D01*
X122626878Y-73801616D01*
X122514390Y-73616243D01*
X122511623Y-73611683D01*
X122463844Y-73556622D01*
X122364023Y-73441588D01*
X122364021Y-73441586D01*
X122360523Y-73437555D01*
X122307609Y-73394168D01*
X122186373Y-73294760D01*
X122186367Y-73294756D01*
X122182245Y-73291376D01*
X122177609Y-73288737D01*
X122177606Y-73288735D01*
X121986529Y-73179968D01*
X121981886Y-73177325D01*
X121765175Y-73098663D01*
X121759926Y-73097714D01*
X121759923Y-73097713D01*
X121542392Y-73058377D01*
X121542385Y-73058376D01*
X121538308Y-73057639D01*
X121520586Y-73056803D01*
X121515644Y-73056570D01*
X121515637Y-73056570D01*
X121514156Y-73056500D01*
X121102110Y-73056500D01*
X121035191Y-73062178D01*
X120935591Y-73070629D01*
X120935587Y-73070630D01*
X120930280Y-73071080D01*
X120925125Y-73072418D01*
X120925119Y-73072419D01*
X120712297Y-73127657D01*
X120712293Y-73127658D01*
X120707128Y-73128999D01*
X120702262Y-73131191D01*
X120702259Y-73131192D01*
X120593980Y-73179968D01*
X120496925Y-73223688D01*
X120305681Y-73352441D01*
X120138865Y-73511576D01*
X120135682Y-73515854D01*
X120117933Y-73539709D01*
X120001246Y-73696542D01*
X119998830Y-73701293D01*
X119998828Y-73701297D01*
X119955107Y-73787290D01*
X119896760Y-73902051D01*
X119895178Y-73907145D01*
X119895177Y-73907148D01*
X119851840Y-74046717D01*
X119828393Y-74122227D01*
X119827692Y-74127516D01*
X119810678Y-74255891D01*
X119798102Y-74350774D01*
X119798302Y-74356103D01*
X119798302Y-74356105D01*
X119801423Y-74439226D01*
X119806751Y-74581158D01*
X119854093Y-74806791D01*
X119856051Y-74811750D01*
X119856052Y-74811752D01*
X119936083Y-75014401D01*
X119938776Y-75021221D01*
X119941543Y-75025780D01*
X119941544Y-75025783D01*
X119999928Y-75121996D01*
X120058377Y-75218317D01*
X120061874Y-75222347D01*
X120195857Y-75376749D01*
X120209477Y-75392445D01*
X120239758Y-75417274D01*
X120383627Y-75535240D01*
X120383633Y-75535244D01*
X120387755Y-75538624D01*
X120419250Y-75556552D01*
X120468555Y-75607632D01*
X120482417Y-75677262D01*
X120456434Y-75743333D01*
X120427284Y-75770573D01*
X120423011Y-75773450D01*
X120305681Y-75852441D01*
X120301824Y-75856120D01*
X120301822Y-75856122D01*
X120280411Y-75876547D01*
X120138865Y-76011576D01*
X120001246Y-76196542D01*
X119998830Y-76201293D01*
X119998828Y-76201297D01*
X119958927Y-76279777D01*
X119896760Y-76402051D01*
X119895178Y-76407145D01*
X119895177Y-76407148D01*
X119850108Y-76552295D01*
X119828393Y-76622227D01*
X119827692Y-76627516D01*
X119799517Y-76840100D01*
X119798102Y-76850774D01*
X119798302Y-76856103D01*
X119798302Y-76856105D01*
X119798557Y-76862896D01*
X119806751Y-77081158D01*
X119854093Y-77306791D01*
X119856051Y-77311750D01*
X119856052Y-77311752D01*
X119929386Y-77497443D01*
X119938776Y-77521221D01*
X119941543Y-77525780D01*
X119941544Y-77525783D01*
X120002115Y-77625600D01*
X120058377Y-77718317D01*
X120061874Y-77722347D01*
X120191973Y-77872273D01*
X120209477Y-77892445D01*
X120250419Y-77926015D01*
X120383627Y-78035240D01*
X120383633Y-78035244D01*
X120387755Y-78038624D01*
X120419250Y-78056552D01*
X120468555Y-78107632D01*
X120482417Y-78177262D01*
X120456434Y-78243333D01*
X120427284Y-78270573D01*
X120305681Y-78352441D01*
X120301824Y-78356120D01*
X120301822Y-78356122D01*
X120242273Y-78412929D01*
X120138865Y-78511576D01*
X120135682Y-78515854D01*
X120128202Y-78525907D01*
X120001246Y-78696542D01*
X119998830Y-78701293D01*
X119998828Y-78701297D01*
X119985345Y-78727817D01*
X119896760Y-78902051D01*
X119895178Y-78907145D01*
X119895177Y-78907148D01*
X119856289Y-79032388D01*
X119828393Y-79122227D01*
X119827692Y-79127516D01*
X119800616Y-79331809D01*
X119798102Y-79350774D01*
X119806751Y-79581158D01*
X119807846Y-79586377D01*
X119815239Y-79621612D01*
X119854093Y-79806791D01*
X119856051Y-79811750D01*
X119856052Y-79811752D01*
X119896487Y-79914138D01*
X119938776Y-80021221D01*
X119941543Y-80025780D01*
X119941544Y-80025783D01*
X119949290Y-80038548D01*
X120058377Y-80218317D01*
X120061874Y-80222347D01*
X120157867Y-80332969D01*
X120209477Y-80392445D01*
X120213608Y-80395832D01*
X120245529Y-80422006D01*
X120285524Y-80480666D01*
X120287455Y-80551636D01*
X120250710Y-80612384D01*
X120231941Y-80626584D01*
X120092193Y-80713063D01*
X120080792Y-80722099D01*
X119966261Y-80836829D01*
X119957249Y-80848240D01*
X119872184Y-80986243D01*
X119866037Y-80999424D01*
X119814862Y-81153710D01*
X119811995Y-81167086D01*
X119802328Y-81261438D01*
X119802000Y-81267855D01*
X119802000Y-81642885D01*
X119806475Y-81658124D01*
X119807865Y-81659329D01*
X119815548Y-81661000D01*
X122749884Y-81661000D01*
X122765123Y-81656525D01*
X122766328Y-81655135D01*
X122767999Y-81647452D01*
X122767999Y-81267905D01*
X122767662Y-81261386D01*
X122757743Y-81165794D01*
X122754851Y-81152400D01*
X122703412Y-80998216D01*
X122697239Y-80985038D01*
X122611937Y-80847193D01*
X122602901Y-80835792D01*
X122488171Y-80721261D01*
X122476757Y-80712247D01*
X122337287Y-80626277D01*
X122289793Y-80573505D01*
X122278369Y-80503434D01*
X122306643Y-80438310D01*
X122316430Y-80427847D01*
X122349991Y-80395832D01*
X122431135Y-80318424D01*
X122568754Y-80133458D01*
X122571611Y-80127840D01*
X122628342Y-80016256D01*
X122673240Y-79927949D01*
X122677529Y-79914138D01*
X122740024Y-79712871D01*
X122741607Y-79707773D01*
X122754333Y-79611754D01*
X122771198Y-79484511D01*
X122771198Y-79484506D01*
X122771898Y-79479226D01*
X122768594Y-79391203D01*
X122763449Y-79254173D01*
X122763249Y-79248842D01*
X122715907Y-79023209D01*
X122704336Y-78993910D01*
X122633185Y-78813744D01*
X122633184Y-78813742D01*
X122631224Y-78808779D01*
X122568288Y-78705063D01*
X122514390Y-78616243D01*
X122511623Y-78611683D01*
X122421633Y-78507978D01*
X122364023Y-78441588D01*
X122364021Y-78441586D01*
X122360523Y-78437555D01*
X122306514Y-78393270D01*
X122186373Y-78294760D01*
X122186367Y-78294756D01*
X122182245Y-78291376D01*
X122150750Y-78273448D01*
X122101445Y-78222368D01*
X122087583Y-78152738D01*
X122113566Y-78086667D01*
X122142716Y-78059427D01*
X122231460Y-77999681D01*
X122264319Y-77977559D01*
X122284528Y-77958281D01*
X122421887Y-77827246D01*
X122431135Y-77818424D01*
X122441191Y-77804909D01*
X122565568Y-77637740D01*
X122568754Y-77633458D01*
X122571170Y-77628706D01*
X122571175Y-77628698D01*
X122576922Y-77617394D01*
X122625625Y-77565737D01*
X122689238Y-77548500D01*
X122956123Y-77548500D01*
X123024244Y-77568502D01*
X123045218Y-77585405D01*
X127700738Y-82240925D01*
X127734764Y-82303237D01*
X127729699Y-82374052D01*
X127687152Y-82430888D01*
X127620632Y-82455699D01*
X127611643Y-82456020D01*
X122894000Y-82456020D01*
X122825879Y-82436018D01*
X122779386Y-82382362D01*
X122768000Y-82330020D01*
X122768000Y-82187115D01*
X122763525Y-82171876D01*
X122762135Y-82170671D01*
X122754452Y-82169000D01*
X119820116Y-82169000D01*
X119804877Y-82173475D01*
X119803672Y-82174865D01*
X119802001Y-82182548D01*
X119802001Y-82330020D01*
X119781999Y-82398141D01*
X119728343Y-82444634D01*
X119676001Y-82456020D01*
X118964115Y-82456020D01*
X118895994Y-82436018D01*
X118875020Y-82419115D01*
X117683218Y-81227313D01*
X117649192Y-81165001D01*
X117651755Y-81101589D01*
X117662323Y-81066808D01*
X117664370Y-81060069D01*
X117693529Y-80838590D01*
X117693611Y-80835240D01*
X117695074Y-80775365D01*
X117695074Y-80775361D01*
X117695156Y-80772000D01*
X117676852Y-80549361D01*
X117622431Y-80332702D01*
X117533354Y-80127840D01*
X117475588Y-80038548D01*
X117414822Y-79944617D01*
X117414820Y-79944614D01*
X117412014Y-79940277D01*
X117261670Y-79775051D01*
X117257619Y-79771852D01*
X117257615Y-79771848D01*
X117090414Y-79639800D01*
X117090410Y-79639798D01*
X117086359Y-79636598D01*
X117044569Y-79613529D01*
X116994598Y-79563097D01*
X116979826Y-79493654D01*
X117004942Y-79427248D01*
X117032294Y-79400641D01*
X117207328Y-79275792D01*
X117215200Y-79269139D01*
X117366052Y-79118812D01*
X117372730Y-79110965D01*
X117497003Y-78938020D01*
X117502313Y-78929183D01*
X117596670Y-78738267D01*
X117600469Y-78728672D01*
X117662377Y-78524910D01*
X117664555Y-78514837D01*
X117665986Y-78503962D01*
X117663775Y-78489778D01*
X117650617Y-78486000D01*
X115015225Y-78486000D01*
X115001694Y-78489973D01*
X115000257Y-78499966D01*
X115030565Y-78634446D01*
X115033645Y-78644275D01*
X115113770Y-78841603D01*
X115118413Y-78850794D01*
X115229694Y-79032388D01*
X115235777Y-79040699D01*
X115375213Y-79201667D01*
X115382580Y-79208883D01*
X115546434Y-79344916D01*
X115554881Y-79350831D01*
X115623969Y-79391203D01*
X115672693Y-79442842D01*
X115685764Y-79512625D01*
X115659033Y-79578396D01*
X115618584Y-79611752D01*
X115605607Y-79618507D01*
X115601474Y-79621610D01*
X115601471Y-79621612D01*
X115431100Y-79749530D01*
X115426965Y-79752635D01*
X115272629Y-79914138D01*
X115146743Y-80098680D01*
X115099716Y-80199992D01*
X115072497Y-80258631D01*
X115052688Y-80301305D01*
X114992989Y-80516570D01*
X114969251Y-80738695D01*
X114969548Y-80743848D01*
X114969548Y-80743851D01*
X114974849Y-80835792D01*
X114982110Y-80961715D01*
X114983247Y-80966761D01*
X114983248Y-80966767D01*
X114997075Y-81028120D01*
X115031222Y-81179639D01*
X115033164Y-81184421D01*
X115033165Y-81184425D01*
X115067063Y-81267905D01*
X115081832Y-81304276D01*
X115094905Y-81336472D01*
X115102001Y-81407113D01*
X115069779Y-81470377D01*
X115008469Y-81506177D01*
X114937537Y-81503147D01*
X114915153Y-81492990D01*
X110070115Y-78695156D01*
X110054079Y-78684163D01*
X110042392Y-78674748D01*
X110042388Y-78674745D01*
X110035396Y-78669113D01*
X110021724Y-78663434D01*
X109999069Y-78651173D01*
X109851005Y-78550207D01*
X109836284Y-78538466D01*
X109834390Y-78536708D01*
X109686736Y-78399685D01*
X109673938Y-78385890D01*
X109546745Y-78226374D01*
X109536139Y-78210818D01*
X109536011Y-78210595D01*
X109434137Y-78034122D01*
X109425969Y-78017159D01*
X109351442Y-77827241D01*
X109345893Y-77809251D01*
X109339152Y-77779709D01*
X109319365Y-77693005D01*
X109300503Y-77610349D01*
X109297697Y-77591728D01*
X109284830Y-77419964D01*
X109285506Y-77402988D01*
X109285424Y-77402987D01*
X109285534Y-77394019D01*
X109286916Y-77385144D01*
X109285418Y-77373681D01*
X109282788Y-77353569D01*
X109281725Y-77337235D01*
X109281725Y-76497608D01*
X109301727Y-76429487D01*
X109355383Y-76382994D01*
X109425657Y-76372890D01*
X109490237Y-76402384D01*
X109520290Y-76440993D01*
X109540385Y-76480949D01*
X109542811Y-76484478D01*
X109542814Y-76484484D01*
X109677443Y-76680369D01*
X109695499Y-76706640D01*
X109698386Y-76709813D01*
X109698387Y-76709814D01*
X109821525Y-76845142D01*
X109879807Y-76909193D01*
X109883102Y-76911948D01*
X109883103Y-76911949D01*
X109902081Y-76927817D01*
X110089900Y-77084857D01*
X110093541Y-77087141D01*
X110318249Y-77228101D01*
X110318253Y-77228103D01*
X110321889Y-77230384D01*
X110389769Y-77261033D01*
X110567570Y-77341314D01*
X110567574Y-77341316D01*
X110571482Y-77343080D01*
X110625244Y-77359005D01*
X110829948Y-77419641D01*
X110829952Y-77419642D01*
X110834061Y-77420859D01*
X110838295Y-77421507D01*
X110838300Y-77421508D01*
X111100523Y-77461633D01*
X111100525Y-77461633D01*
X111104765Y-77462282D01*
X111244137Y-77464472D01*
X111374296Y-77466517D01*
X111374302Y-77466517D01*
X111378587Y-77466584D01*
X111650460Y-77433684D01*
X111915352Y-77364191D01*
X111919312Y-77362551D01*
X111919317Y-77362549D01*
X112041951Y-77311752D01*
X112168361Y-77259391D01*
X112323122Y-77168956D01*
X112401104Y-77123387D01*
X112401105Y-77123386D01*
X112404807Y-77121223D01*
X112620314Y-76952244D01*
X112629486Y-76942780D01*
X112766793Y-76801090D01*
X112810894Y-76755581D01*
X112813427Y-76752133D01*
X112813431Y-76752128D01*
X112970482Y-76538328D01*
X112973020Y-76534873D01*
X112995924Y-76492689D01*
X113101643Y-76297980D01*
X113101644Y-76297978D01*
X113103693Y-76294204D01*
X113152360Y-76165411D01*
X113198976Y-76042045D01*
X113198977Y-76042041D01*
X113200494Y-76038027D01*
X113244496Y-75845905D01*
X113260674Y-75775267D01*
X113260675Y-75775263D01*
X113261632Y-75771083D01*
X113263101Y-75754631D01*
X113285756Y-75500777D01*
X113285756Y-75500775D01*
X113285976Y-75498311D01*
X113286418Y-75456150D01*
X113285474Y-75442306D01*
X113268084Y-75187205D01*
X113268083Y-75187199D01*
X113267792Y-75182928D01*
X113256563Y-75128703D01*
X113224992Y-74976256D01*
X113212257Y-74914762D01*
X113120842Y-74656615D01*
X113017177Y-74455768D01*
X112997203Y-74417069D01*
X112997203Y-74417068D01*
X112995238Y-74413262D01*
X112985734Y-74399738D01*
X112876014Y-74243623D01*
X112837770Y-74189207D01*
X112688365Y-74028428D01*
X112654271Y-73991738D01*
X112654268Y-73991735D01*
X112651350Y-73988595D01*
X112648035Y-73985881D01*
X112648031Y-73985878D01*
X112442748Y-73817856D01*
X112439430Y-73815140D01*
X112205929Y-73672051D01*
X112201993Y-73670323D01*
X111959098Y-73563699D01*
X111959094Y-73563698D01*
X111955170Y-73561975D01*
X111691791Y-73486950D01*
X111687549Y-73486346D01*
X111687543Y-73486345D01*
X111487059Y-73457812D01*
X111420668Y-73448363D01*
X111276814Y-73447610D01*
X111151102Y-73446952D01*
X111151096Y-73446952D01*
X111146816Y-73446930D01*
X111142572Y-73447489D01*
X111142568Y-73447489D01*
X111023527Y-73463161D01*
X110875303Y-73482675D01*
X110871163Y-73483808D01*
X110871161Y-73483808D01*
X110798233Y-73503759D01*
X110611153Y-73554938D01*
X110607205Y-73556622D01*
X110363207Y-73660696D01*
X110363203Y-73660698D01*
X110359255Y-73662382D01*
X110240639Y-73733372D01*
X110127950Y-73800814D01*
X110127946Y-73800817D01*
X110124268Y-73803018D01*
X109910543Y-73974244D01*
X109812909Y-74077129D01*
X109779518Y-74112316D01*
X109722033Y-74172892D01*
X109562227Y-74395286D01*
X109560223Y-74399071D01*
X109519080Y-74476777D01*
X109469527Y-74527620D01*
X109400353Y-74543602D01*
X109333519Y-74519648D01*
X109290245Y-74463364D01*
X109281725Y-74417818D01*
X109281725Y-73582800D01*
X109283225Y-73563417D01*
X109283337Y-73562695D01*
X109286916Y-73539709D01*
X109285752Y-73530809D01*
X109285752Y-73530801D01*
X109284913Y-73524389D01*
X109284166Y-73499113D01*
X109296106Y-73331220D01*
X109298638Y-73313516D01*
X109299516Y-73309461D01*
X109327200Y-73181493D01*
X109339606Y-73124146D01*
X109344618Y-73106980D01*
X109378301Y-73016146D01*
X109411985Y-72925309D01*
X109419371Y-72909036D01*
X109511783Y-72738727D01*
X109521403Y-72723657D01*
X109636988Y-72568152D01*
X109648649Y-72554592D01*
X109785086Y-72417018D01*
X109798547Y-72405246D01*
X109953088Y-72288371D01*
X109968081Y-72278624D01*
X110137605Y-72184809D01*
X110153827Y-72177282D01*
X110334926Y-72108411D01*
X110352050Y-72103256D01*
X110541084Y-72060715D01*
X110558764Y-72058037D01*
X110613365Y-72053697D01*
X110719367Y-72045272D01*
X110738135Y-72045900D01*
X110745731Y-72045930D01*
X110754612Y-72047238D01*
X110763499Y-72046001D01*
X110763502Y-72046001D01*
X110786143Y-72042849D01*
X110802469Y-72041650D01*
X112390013Y-72028479D01*
X112391058Y-72028475D01*
X114860604Y-72028475D01*
X114928725Y-72048477D01*
G37*
%TD.AperFunction*%
%TD*%
M02*
