%TF.GenerationSoftware,KiCad,Pcbnew,(6.0.4)*%
%TF.CreationDate,2022-06-04T14:48:56+09:00*%
%TF.ProjectId,line_sensor,6c696e65-5f73-4656-9e73-6f722e6b6963,rev?*%
%TF.SameCoordinates,Original*%
%TF.FileFunction,Copper,L2,Bot*%
%TF.FilePolarity,Positive*%
%FSLAX46Y46*%
G04 Gerber Fmt 4.6, Leading zero omitted, Abs format (unit mm)*
G04 Created by KiCad (PCBNEW (6.0.4)) date 2022-06-04 14:48:56*
%MOMM*%
%LPD*%
G01*
G04 APERTURE LIST*
%TA.AperFunction,ComponentPad*%
%ADD10R,1.800000X1.800000*%
%TD*%
%TA.AperFunction,ComponentPad*%
%ADD11C,1.800000*%
%TD*%
%TA.AperFunction,ComponentPad*%
%ADD12C,1.524000*%
%TD*%
%TA.AperFunction,ComponentPad*%
%ADD13R,1.700000X1.700000*%
%TD*%
%TA.AperFunction,ComponentPad*%
%ADD14O,1.700000X1.700000*%
%TD*%
%TA.AperFunction,Conductor*%
%ADD15C,0.250000*%
%TD*%
%TA.AperFunction,Conductor*%
%ADD16C,0.500000*%
%TD*%
G04 APERTURE END LIST*
D10*
%TO.P,D1,1,K*%
%TO.N,Net-(D1-Pad1)*%
X138430000Y-93980000D03*
D11*
%TO.P,D1,2,A*%
%TO.N,Net-(D1-Pad2)*%
X138430000Y-91440000D03*
%TD*%
D12*
%TO.P,U2,1,K(-)*%
%TO.N,Net-(D1-Pad2)*%
X133350000Y-89235000D03*
%TO.P,U2,2,Vcc*%
%TO.N,+5V*%
X135890000Y-89235000D03*
%TO.P,U2,3,Vout*%
%TO.N,Net-(J1-Pad1)*%
X135890000Y-83485000D03*
%TO.P,U2,4,GND*%
%TO.N,GND*%
X133350000Y-83485000D03*
%TD*%
%TO.P,U1,1,K(-)*%
%TO.N,Net-(D1-Pad2)*%
X140970000Y-89235000D03*
%TO.P,U1,2,Vcc*%
%TO.N,+5V*%
X143510000Y-89235000D03*
%TO.P,U1,3,Vout*%
%TO.N,Net-(J1-Pad1)*%
X143510000Y-83485000D03*
%TO.P,U1,4,GND*%
%TO.N,GND*%
X140970000Y-83485000D03*
%TD*%
D13*
%TO.P,J1,1,Pin_1*%
%TO.N,Net-(J1-Pad1)*%
X147320000Y-83825000D03*
D14*
%TO.P,J1,2,Pin_2*%
%TO.N,GND*%
X147320000Y-86365000D03*
%TO.P,J1,3,Pin_3*%
%TO.N,+5V*%
X147320000Y-88905000D03*
%TO.P,J1,4,Pin_4*%
%TO.N,unconnected-(J1-Pad4)*%
X147320000Y-91445000D03*
%TO.P,J1,5,Pin_5*%
%TO.N,Net-(D1-Pad1)*%
X147320000Y-93985000D03*
%TD*%
D15*
%TO.N,GND*%
X139185000Y-85270000D02*
X140970000Y-83485000D01*
X135135000Y-85270000D02*
X139185000Y-85270000D01*
X133350000Y-83485000D02*
X135135000Y-85270000D01*
X143825000Y-86365000D02*
X147320000Y-86365000D01*
X140970000Y-83510000D02*
X143825000Y-86365000D01*
X140970000Y-83485000D02*
X140970000Y-83510000D01*
D16*
%TO.N,Net-(J1-Pad1)*%
X137545000Y-81830000D02*
X135890000Y-83485000D01*
X141855000Y-81830000D02*
X137545000Y-81830000D01*
X143510000Y-83485000D02*
X141855000Y-81830000D01*
%TO.N,+5V*%
X137345000Y-87780000D02*
X135890000Y-89235000D01*
X142055000Y-87780000D02*
X137345000Y-87780000D01*
X143510000Y-89235000D02*
X142055000Y-87780000D01*
D15*
X143840000Y-88905000D02*
X143510000Y-89235000D01*
X147320000Y-88905000D02*
X143840000Y-88905000D01*
D16*
%TO.N,Net-(D1-Pad1)*%
X147320000Y-93985000D02*
X138435000Y-93985000D01*
X138435000Y-93985000D02*
X138430000Y-93980000D01*
D15*
%TO.N,Net-(D1-Pad2)*%
X138765000Y-91440000D02*
X138430000Y-91440000D01*
X133350000Y-89235000D02*
X135555000Y-91440000D01*
X135555000Y-91440000D02*
X138430000Y-91440000D01*
X140970000Y-89235000D02*
X138765000Y-91440000D01*
%TO.N,Net-(J1-Pad1)*%
X146980000Y-83485000D02*
X147320000Y-83825000D01*
D16*
X147320000Y-83825000D02*
X143850000Y-83825000D01*
X143850000Y-83825000D02*
X143510000Y-83485000D01*
D15*
%TO.N,+5V*%
X146990000Y-89235000D02*
X147320000Y-88905000D01*
%TD*%
M02*
