M48
; DRILL file {KiCad (6.0.5)} date Sun Jul  3 21:12:16 2022
; FORMAT={-:-/ absolute / metric / decimal}
; #@! TF.CreationDate,2022-07-03T21:12:16+09:00
; #@! TF.GenerationSoftware,Kicad,Pcbnew,(6.0.5)
; #@! TF.FileFunction,Plated,1,2,PTH
FMAT,2
METRIC
; #@! TA.AperFunction,Plated,PTH,ViaDrill
T1C0.400
; #@! TA.AperFunction,Plated,PTH,ComponentDrill
T2C0.762
; #@! TA.AperFunction,Plated,PTH,ComponentDrill
T3C0.800
; #@! TA.AperFunction,Plated,PTH,ComponentDrill
T4C0.900
; #@! TA.AperFunction,Plated,PTH,ComponentDrill
T5C0.950
%
G90
G05
T1
X110.49Y-115.57
X111.211Y-82.933
X118.11Y-130.81
X123.19Y-67.31
X132.08Y-140.97
X138.43Y-59.69
X149.86Y-146.52
X156.21Y-57.112
X167.64Y-144.78
X171.45Y-60.924
X181.61Y-135.89
X186.69Y-72.39
X192.736Y-121.798
X194.31Y-87.63
X196.85Y-105.41
T2
X103.632Y-100.33
X103.632Y-102.87
X106.858Y-84.111
X106.858Y-119.089
X107.83Y-81.764
X107.83Y-121.436
X108.712Y-100.33
X108.712Y-102.87
X111.552Y-86.055
X111.552Y-117.145
X112.524Y-83.708
X112.524Y-119.492
X117.018Y-68.014
X117.018Y-135.186
X118.814Y-66.218
X118.814Y-136.982
X120.61Y-71.606
X120.61Y-131.594
X122.406Y-69.81
X122.406Y-133.39
X132.564Y-57.03
X132.564Y-146.17
X134.508Y-61.724
X134.508Y-141.476
X134.911Y-56.058
X134.911Y-147.142
X136.855Y-60.752
X136.855Y-142.448
X151.13Y-52.832
X151.13Y-57.912
X151.13Y-145.288
X151.13Y-150.368
X153.67Y-52.832
X153.67Y-57.912
X153.67Y-145.288
X153.67Y-150.368
X167.945Y-60.752
X167.945Y-142.448
X169.889Y-56.058
X169.889Y-147.142
X170.292Y-61.724
X170.292Y-141.476
X172.236Y-57.03
X172.236Y-146.17
X182.394Y-69.81
X182.394Y-133.39
X184.19Y-71.606
X184.19Y-131.594
X185.986Y-66.218
X185.986Y-136.982
X187.782Y-68.014
X187.782Y-135.186
X192.276Y-83.708
X192.276Y-119.492
X193.248Y-86.055
X193.248Y-117.145
X196.088Y-100.33
X196.088Y-102.87
X196.97Y-81.764
X196.97Y-121.436
X197.942Y-84.111
X197.942Y-119.089
X201.168Y-100.33
X201.168Y-102.87
T3
X105.276Y-107.386
X106.649Y-88.912
X107.757Y-107.081
X109.058Y-89.58
X111.077Y-124.979
X113.253Y-123.748
X114.987Y-72.37
X116.957Y-73.909
X123.17Y-139.013
X124.709Y-137.043
X129.021Y-60.277
X130.252Y-62.453
X139.712Y-147.351
X140.38Y-144.942
X146.614Y-54.476
X146.919Y-56.957
X157.881Y-146.243
X158.186Y-148.724
X164.42Y-58.258
X165.088Y-55.849
X174.548Y-140.747
X175.779Y-142.923
X180.091Y-66.157
X181.63Y-64.187
X187.843Y-129.291
X189.813Y-130.83
X191.547Y-79.452
X193.723Y-78.221
X195.742Y-113.62
X197.043Y-96.119
X198.151Y-114.288
X199.524Y-95.814
T4
X105.359Y-94.989
X106.41Y-113.494
X107.875Y-95.342
X108.869Y-112.858
X111.47Y-77.49
X113.659Y-78.78
X114.462Y-130.188
X116.491Y-128.659
X123.812Y-63.662
X125.341Y-65.691
X128.29Y-142.53
X129.58Y-140.341
X140.506Y-55.61
X141.142Y-58.069
X145.789Y-148.641
X146.142Y-146.125
X158.658Y-57.075
X159.011Y-54.559
X163.658Y-145.131
X164.294Y-147.59
X175.22Y-62.859
X176.51Y-60.67
X179.459Y-137.509
X180.988Y-139.538
X188.309Y-74.541
X190.338Y-73.012
X191.141Y-124.42
X193.33Y-125.71
X195.931Y-90.342
X196.925Y-107.858
X198.39Y-89.706
X199.441Y-108.211
T5
X113.775Y-97.85
X113.775Y-100.35
X113.775Y-102.85
X113.775Y-105.35
T0
M30
