G04 #@! TF.GenerationSoftware,KiCad,Pcbnew,(6.0.5)*
G04 #@! TF.CreationDate,2022-07-03T21:12:04+09:00*
G04 #@! TF.ProjectId,line_sensor,6c696e65-5f73-4656-9e73-6f722e6b6963,rev?*
G04 #@! TF.SameCoordinates,Original*
G04 #@! TF.FileFunction,Legend,Bot*
G04 #@! TF.FilePolarity,Positive*
%FSLAX46Y46*%
G04 Gerber Fmt 4.6, Leading zero omitted, Abs format (unit mm)*
G04 Created by KiCad (PCBNEW (6.0.5)) date 2022-07-03 21:12:04*
%MOMM*%
%LPD*%
G01*
G04 APERTURE LIST*
%ADD10C,0.150000*%
%ADD11C,0.120000*%
G04 APERTURE END LIST*
D10*
X116777380Y-101266666D02*
X117491666Y-101266666D01*
X117634523Y-101219047D01*
X117729761Y-101123809D01*
X117777380Y-100980952D01*
X117777380Y-100885714D01*
X117777380Y-102266666D02*
X117777380Y-101695238D01*
X117777380Y-101980952D02*
X116777380Y-101980952D01*
X116920238Y-101885714D01*
X117015476Y-101790476D01*
X117063095Y-101695238D01*
D11*
X111025000Y-96050000D02*
X111025000Y-101600000D01*
X115475000Y-106100000D02*
X116225000Y-106100000D01*
X110265000Y-95290000D02*
X116235000Y-95290000D01*
X113975000Y-107900000D02*
X113975000Y-107150000D01*
X116525000Y-108200000D02*
X115275000Y-108200000D01*
X111025000Y-107150000D02*
X111025000Y-101600000D01*
X116225000Y-104600000D02*
X115475000Y-104600000D01*
X115475000Y-95300000D02*
X116225000Y-95300000D01*
X110265000Y-107910000D02*
X110265000Y-95290000D01*
X116235000Y-95290000D02*
X116235000Y-107910000D01*
X115475000Y-104600000D02*
X115475000Y-98600000D01*
X115475000Y-107900000D02*
X115475000Y-106100000D01*
X113975000Y-95300000D02*
X113975000Y-96050000D01*
X113975000Y-96050000D02*
X111025000Y-96050000D01*
X113975000Y-107150000D02*
X111025000Y-107150000D01*
X116525000Y-106950000D02*
X116525000Y-108200000D01*
X116225000Y-107900000D02*
X115475000Y-107900000D01*
X116235000Y-107910000D02*
X110265000Y-107910000D01*
X116225000Y-97100000D02*
X115475000Y-97100000D01*
X115475000Y-98600000D02*
X116225000Y-98600000D01*
X116225000Y-95300000D02*
X116225000Y-97100000D01*
X115475000Y-97100000D02*
X115475000Y-95300000D01*
X116225000Y-106100000D02*
X116225000Y-107900000D01*
X116225000Y-98600000D02*
X116225000Y-104600000D01*
M02*
