G04 #@! TF.GenerationSoftware,KiCad,Pcbnew,(6.0.5)*
G04 #@! TF.CreationDate,2022-07-03T21:12:04+09:00*
G04 #@! TF.ProjectId,line_sensor,6c696e65-5f73-4656-9e73-6f722e6b6963,rev?*
G04 #@! TF.SameCoordinates,Original*
G04 #@! TF.FileFunction,Soldermask,Top*
G04 #@! TF.FilePolarity,Negative*
%FSLAX46Y46*%
G04 Gerber Fmt 4.6, Leading zero omitted, Abs format (unit mm)*
G04 Created by KiCad (PCBNEW (6.0.5)) date 2022-07-03 21:12:04*
%MOMM*%
%LPD*%
G01*
G04 APERTURE LIST*
G04 Aperture macros list*
%AMRoundRect*
0 Rectangle with rounded corners*
0 $1 Rounding radius*
0 $2 $3 $4 $5 $6 $7 $8 $9 X,Y pos of 4 corners*
0 Add a 4 corners polygon primitive as box body*
4,1,4,$2,$3,$4,$5,$6,$7,$8,$9,$2,$3,0*
0 Add four circle primitives for the rounded corners*
1,1,$1+$1,$2,$3*
1,1,$1+$1,$4,$5*
1,1,$1+$1,$6,$7*
1,1,$1+$1,$8,$9*
0 Add four rect primitives between the rounded corners*
20,1,$1+$1,$2,$3,$4,$5,0*
20,1,$1+$1,$4,$5,$6,$7,0*
20,1,$1+$1,$6,$7,$8,$9,0*
20,1,$1+$1,$8,$9,$2,$3,0*%
%AMRotRect*
0 Rectangle, with rotation*
0 The origin of the aperture is its center*
0 $1 length*
0 $2 width*
0 $3 Rotation angle, in degrees counterclockwise*
0 Add horizontal line*
21,1,$1,$2,0,0,$3*%
G04 Aperture macros list end*
%ADD10RotRect,1.800000X1.800000X127.000000*%
%ADD11C,1.800000*%
%ADD12C,1.600000*%
%ADD13C,1.524000*%
%ADD14RotRect,1.800000X1.800000X172.000000*%
%ADD15RotRect,1.800000X1.800000X149.500000*%
%ADD16RotRect,1.800000X1.800000X307.000000*%
%ADD17RotRect,1.800000X1.800000X82.000000*%
%ADD18RotRect,1.800000X1.800000X194.500000*%
%ADD19RotRect,1.800000X1.800000X217.000000*%
%ADD20RotRect,1.800000X1.800000X59.500000*%
%ADD21RotRect,1.800000X1.800000X352.000000*%
%ADD22RotRect,1.800000X1.800000X37.000000*%
%ADD23RotRect,1.800000X1.800000X262.000000*%
%ADD24RotRect,1.800000X1.800000X284.500000*%
%ADD25RotRect,1.800000X1.800000X104.500000*%
%ADD26RotRect,1.800000X1.800000X329.500000*%
%ADD27RotRect,1.800000X1.800000X14.500000*%
%ADD28RotRect,1.800000X1.800000X239.500000*%
%ADD29RoundRect,0.250000X0.725000X-0.600000X0.725000X0.600000X-0.725000X0.600000X-0.725000X-0.600000X0*%
%ADD30O,1.950000X1.700000*%
G04 APERTURE END LIST*
D10*
X180988019Y-139537582D03*
D11*
X179459409Y-137509048D03*
D12*
X199524106Y-95813887D03*
X197042741Y-96118560D03*
D13*
X182394055Y-69809894D03*
X184190106Y-71605945D03*
X187782209Y-68013842D03*
X185986158Y-66217791D03*
X112523559Y-119492001D03*
X111551543Y-117145347D03*
X106858235Y-119089379D03*
X107830251Y-121436033D03*
X108712000Y-102870000D03*
X108712000Y-100330000D03*
X103632000Y-100330000D03*
X103632000Y-102870000D03*
D14*
X199440704Y-108211140D03*
D11*
X196925423Y-107857640D03*
D12*
X181630376Y-64186825D03*
X180091222Y-66156852D03*
D13*
X196088000Y-100330000D03*
X196088000Y-102870000D03*
X201168000Y-102870000D03*
X201168000Y-100330000D03*
D12*
X129020714Y-60277252D03*
X130251773Y-62453141D03*
X111077252Y-124979286D03*
X113253141Y-123748227D03*
D13*
X120609894Y-71605945D03*
X122405945Y-69809894D03*
X118813842Y-66217791D03*
X117017791Y-68013842D03*
X122405945Y-133390106D03*
X120609894Y-131594055D03*
X117017791Y-135186158D03*
X118813842Y-136982209D03*
D15*
X193329970Y-125709595D03*
D11*
X191141432Y-124420448D03*
D16*
X123811981Y-63662418D03*
D11*
X125340591Y-65690952D03*
D13*
X193248457Y-117145347D03*
X192276441Y-119492001D03*
X196969749Y-121436033D03*
X197941765Y-119089379D03*
X167945347Y-60751543D03*
X170292001Y-61723559D03*
X172236033Y-57030251D03*
X169889379Y-56058235D03*
D17*
X145788860Y-148640704D03*
D11*
X146142360Y-146125423D03*
D13*
X151130000Y-57912000D03*
X153670000Y-57912000D03*
X153670000Y-52832000D03*
X151130000Y-52832000D03*
X111551543Y-86054653D03*
X112523559Y-83707999D03*
X107830251Y-81763967D03*
X106858235Y-84110621D03*
D18*
X198389917Y-89706199D03*
D11*
X195930822Y-90342164D03*
D19*
X190337582Y-73011981D03*
D11*
X188309048Y-74540591D03*
D13*
X134507999Y-61723559D03*
X136854653Y-60751543D03*
X134910621Y-56058235D03*
X132563967Y-57030251D03*
D12*
X114986825Y-72369624D03*
X116956852Y-73908778D03*
X189813175Y-130830376D03*
X187843148Y-129291222D03*
X139712056Y-147351246D03*
X140380152Y-144942170D03*
D13*
X192276441Y-83707999D03*
X193248457Y-86054653D03*
X197941765Y-84110621D03*
X196969749Y-81763967D03*
X153670000Y-145288000D03*
X151130000Y-145288000D03*
X151130000Y-150368000D03*
X153670000Y-150368000D03*
X136854653Y-142448457D03*
X134507999Y-141476441D03*
X132563967Y-146169749D03*
X134910621Y-147141765D03*
D20*
X128290405Y-142529970D03*
D11*
X129579552Y-140341432D03*
D21*
X105359296Y-94988860D03*
D11*
X107874577Y-95342360D03*
D12*
X106648754Y-88912056D03*
X109057830Y-89580152D03*
D13*
X184190106Y-131594055D03*
X182394055Y-133390106D03*
X185986158Y-136982209D03*
X187782209Y-135186158D03*
D12*
X165087944Y-55848754D03*
X164419848Y-58257830D03*
D22*
X114462418Y-130188019D03*
D11*
X116490952Y-128659409D03*
D12*
X198151246Y-114287944D03*
X195742170Y-113619848D03*
X123169624Y-139013175D03*
X124708778Y-137043148D03*
D23*
X159011140Y-54559296D03*
D11*
X158657640Y-57074577D03*
D12*
X193722748Y-78220714D03*
X191546859Y-79451773D03*
X105275894Y-107386113D03*
X107757259Y-107081440D03*
X175779286Y-142922748D03*
X174548227Y-140746859D03*
D24*
X140506199Y-55610083D03*
D11*
X141142164Y-58069178D03*
D13*
X170292001Y-141476441D03*
X167945347Y-142448457D03*
X169889379Y-147141765D03*
X172236033Y-146169749D03*
D25*
X164293801Y-147589917D03*
D11*
X163657836Y-145130822D03*
D26*
X111470030Y-77490405D03*
D11*
X113658568Y-78779552D03*
D12*
X146613887Y-54475894D03*
X146918560Y-56957259D03*
D27*
X106410083Y-113493801D03*
D11*
X108869178Y-112857836D03*
D12*
X158186113Y-148724106D03*
X157881440Y-146242741D03*
D28*
X176509595Y-60670030D03*
D11*
X175220448Y-62858568D03*
D29*
X113775000Y-105350000D03*
D30*
X113775000Y-102850000D03*
X113775000Y-100350000D03*
X113775000Y-97850000D03*
M02*
