G04 #@! TF.GenerationSoftware,KiCad,Pcbnew,(6.0.5)*
G04 #@! TF.CreationDate,2022-07-03T21:12:04+09:00*
G04 #@! TF.ProjectId,line_sensor,6c696e65-5f73-4656-9e73-6f722e6b6963,rev?*
G04 #@! TF.SameCoordinates,Original*
G04 #@! TF.FileFunction,Copper,L2,Bot*
G04 #@! TF.FilePolarity,Positive*
%FSLAX46Y46*%
G04 Gerber Fmt 4.6, Leading zero omitted, Abs format (unit mm)*
G04 Created by KiCad (PCBNEW (6.0.5)) date 2022-07-03 21:12:04*
%MOMM*%
%LPD*%
G01*
G04 APERTURE LIST*
G04 Aperture macros list*
%AMRoundRect*
0 Rectangle with rounded corners*
0 $1 Rounding radius*
0 $2 $3 $4 $5 $6 $7 $8 $9 X,Y pos of 4 corners*
0 Add a 4 corners polygon primitive as box body*
4,1,4,$2,$3,$4,$5,$6,$7,$8,$9,$2,$3,0*
0 Add four circle primitives for the rounded corners*
1,1,$1+$1,$2,$3*
1,1,$1+$1,$4,$5*
1,1,$1+$1,$6,$7*
1,1,$1+$1,$8,$9*
0 Add four rect primitives between the rounded corners*
20,1,$1+$1,$2,$3,$4,$5,0*
20,1,$1+$1,$4,$5,$6,$7,0*
20,1,$1+$1,$6,$7,$8,$9,0*
20,1,$1+$1,$8,$9,$2,$3,0*%
%AMRotRect*
0 Rectangle, with rotation*
0 The origin of the aperture is its center*
0 $1 length*
0 $2 width*
0 $3 Rotation angle, in degrees counterclockwise*
0 Add horizontal line*
21,1,$1,$2,0,0,$3*%
G04 Aperture macros list end*
G04 #@! TA.AperFunction,ComponentPad*
%ADD10RotRect,1.800000X1.800000X127.000000*%
G04 #@! TD*
G04 #@! TA.AperFunction,ComponentPad*
%ADD11C,1.800000*%
G04 #@! TD*
G04 #@! TA.AperFunction,ComponentPad*
%ADD12C,1.600000*%
G04 #@! TD*
G04 #@! TA.AperFunction,ComponentPad*
%ADD13C,1.524000*%
G04 #@! TD*
G04 #@! TA.AperFunction,ComponentPad*
%ADD14RotRect,1.800000X1.800000X172.000000*%
G04 #@! TD*
G04 #@! TA.AperFunction,ComponentPad*
%ADD15RotRect,1.800000X1.800000X149.500000*%
G04 #@! TD*
G04 #@! TA.AperFunction,ComponentPad*
%ADD16RotRect,1.800000X1.800000X307.000000*%
G04 #@! TD*
G04 #@! TA.AperFunction,ComponentPad*
%ADD17RotRect,1.800000X1.800000X82.000000*%
G04 #@! TD*
G04 #@! TA.AperFunction,ComponentPad*
%ADD18RotRect,1.800000X1.800000X194.500000*%
G04 #@! TD*
G04 #@! TA.AperFunction,ComponentPad*
%ADD19RotRect,1.800000X1.800000X217.000000*%
G04 #@! TD*
G04 #@! TA.AperFunction,ComponentPad*
%ADD20RotRect,1.800000X1.800000X59.500000*%
G04 #@! TD*
G04 #@! TA.AperFunction,ComponentPad*
%ADD21RotRect,1.800000X1.800000X352.000000*%
G04 #@! TD*
G04 #@! TA.AperFunction,ComponentPad*
%ADD22RotRect,1.800000X1.800000X37.000000*%
G04 #@! TD*
G04 #@! TA.AperFunction,ComponentPad*
%ADD23RotRect,1.800000X1.800000X262.000000*%
G04 #@! TD*
G04 #@! TA.AperFunction,ComponentPad*
%ADD24RotRect,1.800000X1.800000X284.500000*%
G04 #@! TD*
G04 #@! TA.AperFunction,ComponentPad*
%ADD25RotRect,1.800000X1.800000X104.500000*%
G04 #@! TD*
G04 #@! TA.AperFunction,ComponentPad*
%ADD26RotRect,1.800000X1.800000X329.500000*%
G04 #@! TD*
G04 #@! TA.AperFunction,ComponentPad*
%ADD27RotRect,1.800000X1.800000X14.500000*%
G04 #@! TD*
G04 #@! TA.AperFunction,ComponentPad*
%ADD28RotRect,1.800000X1.800000X239.500000*%
G04 #@! TD*
G04 #@! TA.AperFunction,ComponentPad*
%ADD29RoundRect,0.250000X0.725000X-0.600000X0.725000X0.600000X-0.725000X0.600000X-0.725000X-0.600000X0*%
G04 #@! TD*
G04 #@! TA.AperFunction,ComponentPad*
%ADD30O,1.950000X1.700000*%
G04 #@! TD*
G04 #@! TA.AperFunction,ViaPad*
%ADD31C,0.800000*%
G04 #@! TD*
G04 #@! TA.AperFunction,Conductor*
%ADD32C,0.400000*%
G04 #@! TD*
G04 #@! TA.AperFunction,Conductor*
%ADD33C,0.250000*%
G04 #@! TD*
G04 #@! TA.AperFunction,Conductor*
%ADD34C,0.500000*%
G04 #@! TD*
G04 APERTURE END LIST*
D10*
X180988019Y-139537582D03*
D11*
X179459409Y-137509048D03*
D12*
X199524106Y-95813887D03*
X197042741Y-96118560D03*
D13*
X182394055Y-69809894D03*
X184190106Y-71605945D03*
X187782209Y-68013842D03*
X185986158Y-66217791D03*
X112523559Y-119492001D03*
X111551543Y-117145347D03*
X106858235Y-119089379D03*
X107830251Y-121436033D03*
X108712000Y-102870000D03*
X108712000Y-100330000D03*
X103632000Y-100330000D03*
X103632000Y-102870000D03*
D14*
X199440704Y-108211140D03*
D11*
X196925423Y-107857640D03*
D12*
X181630376Y-64186825D03*
X180091222Y-66156852D03*
D13*
X196088000Y-100330000D03*
X196088000Y-102870000D03*
X201168000Y-102870000D03*
X201168000Y-100330000D03*
D12*
X129020714Y-60277252D03*
X130251773Y-62453141D03*
X111077252Y-124979286D03*
X113253141Y-123748227D03*
D13*
X120609894Y-71605945D03*
X122405945Y-69809894D03*
X118813842Y-66217791D03*
X117017791Y-68013842D03*
X122405945Y-133390106D03*
X120609894Y-131594055D03*
X117017791Y-135186158D03*
X118813842Y-136982209D03*
D15*
X193329970Y-125709595D03*
D11*
X191141432Y-124420448D03*
D16*
X123811981Y-63662418D03*
D11*
X125340591Y-65690952D03*
D13*
X193248457Y-117145347D03*
X192276441Y-119492001D03*
X196969749Y-121436033D03*
X197941765Y-119089379D03*
X167945347Y-60751543D03*
X170292001Y-61723559D03*
X172236033Y-57030251D03*
X169889379Y-56058235D03*
D17*
X145788860Y-148640704D03*
D11*
X146142360Y-146125423D03*
D13*
X151130000Y-57912000D03*
X153670000Y-57912000D03*
X153670000Y-52832000D03*
X151130000Y-52832000D03*
X111551543Y-86054653D03*
X112523559Y-83707999D03*
X107830251Y-81763967D03*
X106858235Y-84110621D03*
D18*
X198389917Y-89706199D03*
D11*
X195930822Y-90342164D03*
D19*
X190337582Y-73011981D03*
D11*
X188309048Y-74540591D03*
D13*
X134507999Y-61723559D03*
X136854653Y-60751543D03*
X134910621Y-56058235D03*
X132563967Y-57030251D03*
D12*
X114986825Y-72369624D03*
X116956852Y-73908778D03*
X189813175Y-130830376D03*
X187843148Y-129291222D03*
X139712056Y-147351246D03*
X140380152Y-144942170D03*
D13*
X192276441Y-83707999D03*
X193248457Y-86054653D03*
X197941765Y-84110621D03*
X196969749Y-81763967D03*
X153670000Y-145288000D03*
X151130000Y-145288000D03*
X151130000Y-150368000D03*
X153670000Y-150368000D03*
X136854653Y-142448457D03*
X134507999Y-141476441D03*
X132563967Y-146169749D03*
X134910621Y-147141765D03*
D20*
X128290405Y-142529970D03*
D11*
X129579552Y-140341432D03*
D21*
X105359296Y-94988860D03*
D11*
X107874577Y-95342360D03*
D12*
X106648754Y-88912056D03*
X109057830Y-89580152D03*
D13*
X184190106Y-131594055D03*
X182394055Y-133390106D03*
X185986158Y-136982209D03*
X187782209Y-135186158D03*
D12*
X165087944Y-55848754D03*
X164419848Y-58257830D03*
D22*
X114462418Y-130188019D03*
D11*
X116490952Y-128659409D03*
D12*
X198151246Y-114287944D03*
X195742170Y-113619848D03*
X123169624Y-139013175D03*
X124708778Y-137043148D03*
D23*
X159011140Y-54559296D03*
D11*
X158657640Y-57074577D03*
D12*
X193722748Y-78220714D03*
X191546859Y-79451773D03*
X105275894Y-107386113D03*
X107757259Y-107081440D03*
X175779286Y-142922748D03*
X174548227Y-140746859D03*
D24*
X140506199Y-55610083D03*
D11*
X141142164Y-58069178D03*
D13*
X170292001Y-141476441D03*
X167945347Y-142448457D03*
X169889379Y-147141765D03*
X172236033Y-146169749D03*
D25*
X164293801Y-147589917D03*
D11*
X163657836Y-145130822D03*
D26*
X111470030Y-77490405D03*
D11*
X113658568Y-78779552D03*
D12*
X146613887Y-54475894D03*
X146918560Y-56957259D03*
D27*
X106410083Y-113493801D03*
D11*
X108869178Y-112857836D03*
D12*
X158186113Y-148724106D03*
X157881440Y-146242741D03*
D28*
X176509595Y-60670030D03*
D11*
X175220448Y-62858568D03*
D29*
X113775000Y-105350000D03*
D30*
X113775000Y-102850000D03*
X113775000Y-100350000D03*
X113775000Y-97850000D03*
D31*
X196850000Y-105410000D03*
X156210000Y-57112500D03*
X149860000Y-146520500D03*
X123190000Y-67310000D03*
X186690000Y-72390000D03*
X181610000Y-135890000D03*
X118110000Y-130810000D03*
X111211339Y-82933103D03*
X138430000Y-59690000D03*
X171450000Y-60924059D03*
X194310000Y-87630000D03*
X192735613Y-121798245D03*
X167640000Y-144780000D03*
X132080000Y-140970000D03*
X110490000Y-115570000D03*
D32*
X195580000Y-87630000D02*
X195930822Y-88900000D01*
X148590000Y-147320000D02*
X146142360Y-146125423D01*
X109220000Y-116840000D02*
X108869178Y-112857836D01*
X127000000Y-137761880D02*
X127000000Y-137160000D01*
X185420000Y-133350000D02*
X181260952Y-137509048D01*
X135890000Y-144780000D02*
X129579552Y-140341432D01*
X125340591Y-65690952D02*
X127000000Y-66040000D01*
X115570000Y-127738457D02*
X115570000Y-124368720D01*
X141142164Y-58069178D02*
X141492986Y-58420000D01*
X194310000Y-114300000D02*
X195580000Y-116840000D01*
X188332043Y-74540591D02*
X189230000Y-75438548D01*
X195580000Y-84772500D02*
X195580000Y-87630000D01*
X162560000Y-58420000D02*
X163929968Y-59590032D01*
X161214577Y-57074577D02*
X162560000Y-58420000D01*
X157480000Y-144780000D02*
X154940000Y-147320000D01*
X111760000Y-80651432D02*
X113658568Y-78779552D01*
X154940000Y-147320000D02*
X148590000Y-147320000D01*
X158657640Y-57074577D02*
X161214577Y-57074577D01*
X163657836Y-145130822D02*
X163307014Y-144780000D01*
X133350000Y-59690000D02*
X137160000Y-58420000D01*
X167640000Y-146050000D02*
X163657836Y-145130822D01*
X190539552Y-124420448D02*
X185420000Y-129540000D01*
X141492986Y-58420000D02*
X148590000Y-58420000D01*
X175260000Y-138430000D02*
X175168720Y-138430000D01*
X171951912Y-59590032D02*
X175220448Y-62858568D01*
X188309048Y-74540591D02*
X188332043Y-74540591D01*
D33*
X110382217Y-97850000D02*
X107874577Y-95342360D01*
D32*
X157463063Y-55880000D02*
X158657640Y-57074577D01*
X193040000Y-123190000D02*
X191141432Y-124420448D01*
X192948720Y-82550000D02*
X193040000Y-82550000D01*
X142240000Y-143510000D02*
X138430000Y-143609968D01*
X132080000Y-62508932D02*
X133350000Y-59690000D01*
X181260952Y-137509048D02*
X179459409Y-137509048D01*
X195930822Y-93629178D02*
X195580000Y-93980000D01*
X175168720Y-138430000D02*
X172720000Y-140878720D01*
X198120000Y-100330000D02*
X198120000Y-106663063D01*
X137160000Y-58420000D02*
X141142164Y-58069178D01*
X113658568Y-78779552D02*
X115570000Y-77470000D01*
X175220448Y-62858568D02*
X178489304Y-62858568D01*
X148590000Y-58420000D02*
X151130000Y-55880000D01*
X127000000Y-66040000D02*
X132080000Y-63500000D01*
X189230000Y-78831280D02*
X192948720Y-82550000D01*
X151130000Y-55880000D02*
X157463063Y-55880000D01*
X195580000Y-93980000D02*
X195580000Y-97790000D01*
X163307014Y-144780000D02*
X157480000Y-144780000D01*
X138430000Y-143609968D02*
X135890000Y-144780000D01*
X119380000Y-73660000D02*
X119380000Y-69850000D01*
X176180952Y-137509048D02*
X175260000Y-138430000D01*
X144855423Y-146125423D02*
X142240000Y-143510000D01*
X172720000Y-140970000D02*
X167640000Y-146050000D01*
X196925423Y-107857640D02*
X195580000Y-109203063D01*
X195580000Y-111760000D02*
X194310000Y-113030000D01*
X123539048Y-65690952D02*
X125340591Y-65690952D01*
X178489304Y-62858568D02*
X188309048Y-72678312D01*
D33*
X113775000Y-97850000D02*
X110382217Y-97850000D01*
D32*
X195930822Y-90342164D02*
X195930822Y-93629178D01*
X179459409Y-137509048D02*
X176180952Y-137509048D01*
X124460000Y-134620000D02*
X120650000Y-134620000D01*
X116840000Y-130810000D02*
X116490952Y-128659409D01*
X116490952Y-128659409D02*
X115570000Y-127738457D01*
X114300000Y-121920000D02*
X110490000Y-120650000D01*
X132080000Y-63500000D02*
X132080000Y-62508932D01*
X172720000Y-140878720D02*
X172720000Y-140970000D01*
X163929968Y-59590032D02*
X171951912Y-59590032D01*
X110257341Y-82550000D02*
X111760000Y-80651432D01*
X194310000Y-113030000D02*
X194310000Y-114300000D01*
X191141432Y-124420448D02*
X190539552Y-124420448D01*
X146142360Y-146125423D02*
X144855423Y-146125423D01*
X189230000Y-75438548D02*
X189230000Y-78831280D01*
X195930822Y-88900000D02*
X195930822Y-90342164D01*
X198120000Y-106663063D02*
X196925423Y-107857640D01*
X127000000Y-137160000D02*
X124460000Y-134620000D01*
X107874577Y-95342360D02*
X110257341Y-92959596D01*
X188309048Y-72678312D02*
X188309048Y-74540591D01*
X129579552Y-140341432D02*
X127000000Y-137761880D01*
X195580000Y-109203063D02*
X195580000Y-111760000D01*
X120650000Y-134620000D02*
X116840000Y-130810000D01*
X195580000Y-116840000D02*
X193040000Y-123190000D01*
X195580000Y-97790000D02*
X198120000Y-100330000D01*
X119380000Y-69850000D02*
X123539048Y-65690952D01*
X193040000Y-82550000D02*
X195580000Y-84772500D01*
X115570000Y-124368720D02*
X114300000Y-121920000D01*
X185420000Y-129540000D02*
X185420000Y-133350000D01*
X115570000Y-77470000D02*
X119380000Y-73660000D01*
X110257341Y-92959596D02*
X110257341Y-82550000D01*
X110490000Y-120650000D02*
X109220000Y-116840000D01*
X196088000Y-100330000D02*
X197249511Y-101491511D01*
X197249511Y-105010489D02*
X196850000Y-105410000D01*
X197249511Y-101491511D02*
X197249511Y-105010489D01*
D34*
X132563967Y-57030251D02*
X133325966Y-57792250D01*
X146613887Y-54475894D02*
X149486106Y-54475894D01*
X104843511Y-101658489D02*
X104843511Y-97223511D01*
X111077252Y-124683034D02*
X107830251Y-121436033D01*
X196207750Y-82525966D02*
X196850000Y-85145648D01*
X128353785Y-144780000D02*
X123169624Y-139595839D01*
X193722748Y-74323887D02*
X193722748Y-78220714D01*
X169889379Y-56058235D02*
X169889379Y-57135865D01*
X114986825Y-70044808D02*
X117017791Y-68013842D01*
X175483034Y-142922748D02*
X172236033Y-146169749D01*
X170180000Y-144780000D02*
X165100000Y-149860000D01*
X117017791Y-68013842D02*
X118731127Y-68013842D01*
X199956489Y-105976489D02*
X200906721Y-106926721D01*
X197941765Y-119089379D02*
X196864135Y-119089379D01*
X121920000Y-63481139D02*
X125123887Y-60277252D01*
X152341511Y-54043511D02*
X156776489Y-54043511D01*
X195580000Y-125646215D02*
X190395839Y-130830376D01*
X114404161Y-72369624D02*
X114986825Y-72369624D01*
X113106511Y-101658489D02*
X104843511Y-101658489D01*
X176446215Y-58420000D02*
X181630376Y-63604161D01*
X103632000Y-102870000D02*
X104843511Y-101658489D01*
X199524106Y-95813887D02*
X199524106Y-98686106D01*
X159322007Y-149860000D02*
X158186113Y-148724106D01*
X104475895Y-108186112D02*
X105275894Y-107386113D01*
D32*
X113775000Y-102326978D02*
X113106511Y-101658489D01*
D34*
X158186113Y-148724106D02*
X155313894Y-148724106D01*
X181630376Y-64186825D02*
X183955192Y-64186825D01*
X109788259Y-81280000D02*
X109788259Y-76985526D01*
X142467531Y-150106721D02*
X139712056Y-147351246D01*
X179676113Y-142922748D02*
X175779286Y-142922748D01*
X114986825Y-72369624D02*
X114986825Y-70044808D01*
X189813175Y-130830376D02*
X189813175Y-133155192D01*
X133325966Y-57792250D02*
X135247750Y-57792250D01*
X104475895Y-114635895D02*
X104475895Y-108186112D01*
X182880000Y-139718861D02*
X179676113Y-142922748D01*
X125123887Y-60277252D02*
X129020714Y-60277252D01*
X200906721Y-111532469D02*
X198151246Y-114287944D01*
X157726721Y-53093279D02*
X162332469Y-53093279D01*
X193722748Y-78220714D02*
X193722748Y-78516966D01*
X123169624Y-139013175D02*
X120844808Y-139013175D01*
X201168000Y-100330000D02*
X199956489Y-101541511D01*
X111077252Y-124979286D02*
X111077252Y-124683034D01*
X108592250Y-120674034D02*
X108592250Y-118752250D01*
X199524106Y-98686106D02*
X201168000Y-100330000D01*
X196850000Y-85145648D02*
X200660000Y-89597898D01*
X199956489Y-101541511D02*
X199956489Y-105976489D01*
X120844808Y-139013175D02*
X118813842Y-136982209D01*
X123169624Y-139595839D02*
X123169624Y-139013175D01*
X200906721Y-106926721D02*
X200906721Y-111532469D01*
X181630376Y-63604161D02*
X181630376Y-64186825D01*
X196969749Y-81763967D02*
X196207750Y-82525966D01*
X108592250Y-118752250D02*
X104475895Y-114635895D01*
X139364105Y-53675895D02*
X145813888Y-53675895D01*
X147073279Y-150106721D02*
X142467531Y-150106721D01*
X135247750Y-57792250D02*
X139364105Y-53675895D01*
X162332469Y-53093279D02*
X165087944Y-55848754D01*
X165100000Y-149860000D02*
X159322007Y-149860000D01*
X182880000Y-138375031D02*
X182880000Y-139718861D01*
X183955192Y-64186825D02*
X185986158Y-66217791D01*
X189813175Y-133155192D02*
X187782209Y-135186158D01*
X155313894Y-148724106D02*
X153670000Y-150368000D01*
D32*
X113775000Y-102850000D02*
X113775000Y-102326978D01*
D34*
X172236033Y-146169749D02*
X170180000Y-144780000D01*
X103893279Y-96273279D02*
X103893279Y-91667531D01*
X165087944Y-55848754D02*
X169679898Y-55848754D01*
X187782209Y-135186158D02*
X186068873Y-135186158D01*
X118813842Y-136982209D02*
X118813842Y-135268873D01*
X198151246Y-118879898D02*
X197941765Y-119089379D01*
X106648754Y-84320102D02*
X106858235Y-84110621D01*
X149486106Y-54475894D02*
X151130000Y-52832000D01*
X152458489Y-149156489D02*
X148023511Y-149156489D01*
X200660000Y-94677993D02*
X199524106Y-95813887D01*
X114281139Y-132080000D02*
X111077252Y-128876113D01*
X103893279Y-91667531D02*
X106648754Y-88912056D01*
X175779286Y-142922748D02*
X175483034Y-142922748D01*
X186068873Y-135186158D02*
X182880000Y-138375031D01*
X133626486Y-144780000D02*
X128353785Y-144780000D01*
X118731127Y-68013842D02*
X121920000Y-64824969D01*
X195580000Y-120373514D02*
X195580000Y-125646215D01*
X193722748Y-78516966D02*
X196969749Y-81763967D01*
X169889379Y-57135865D02*
X171173514Y-58420000D01*
X135120102Y-147351246D02*
X134910621Y-147141765D01*
X109788259Y-76985526D02*
X114404161Y-72369624D01*
X106858235Y-84110621D02*
X107935865Y-84110621D01*
X134910621Y-147141765D02*
X134910621Y-146064135D01*
X118813842Y-135268873D02*
X115624969Y-132080000D01*
X121920000Y-64824969D02*
X121920000Y-63481139D01*
X107830251Y-121436033D02*
X108592250Y-120674034D01*
X156776489Y-54043511D02*
X157726721Y-53093279D01*
X106648754Y-88912056D02*
X106648754Y-84320102D01*
X104843511Y-97223511D02*
X103893279Y-96273279D01*
X145813888Y-53675895D02*
X146613887Y-54475894D01*
X151130000Y-52832000D02*
X152341511Y-54043511D01*
X148023511Y-149156489D02*
X147073279Y-150106721D01*
X189175031Y-71120000D02*
X190518861Y-71120000D01*
X196864135Y-119089379D02*
X195580000Y-120373514D01*
X190395839Y-130830376D02*
X189813175Y-130830376D01*
X153670000Y-150368000D02*
X152458489Y-149156489D01*
X134910621Y-146064135D02*
X133626486Y-144780000D01*
X190518861Y-71120000D02*
X193722748Y-74323887D01*
X129020714Y-60277252D02*
X129316966Y-60277252D01*
X185986158Y-66217791D02*
X185986158Y-67931127D01*
X169679898Y-55848754D02*
X169889379Y-56058235D01*
X185986158Y-67931127D02*
X189175031Y-71120000D01*
X129316966Y-60277252D02*
X132563967Y-57030251D01*
X171173514Y-58420000D02*
X176446215Y-58420000D01*
X111077252Y-128876113D02*
X111077252Y-124979286D01*
X107935865Y-84110621D02*
X109788259Y-81280000D01*
X200660000Y-89597898D02*
X200660000Y-94677993D01*
X139712056Y-147351246D02*
X135120102Y-147351246D01*
X198151246Y-114287944D02*
X198151246Y-118879898D01*
X115624969Y-132080000D02*
X114281139Y-132080000D01*
D32*
X152291511Y-56750489D02*
X155847989Y-56750489D01*
X155847989Y-56750489D02*
X156210000Y-57112500D01*
X151130000Y-57912000D02*
X152291511Y-56750489D01*
X153670000Y-145288000D02*
X152437500Y-146520500D01*
X152437500Y-146520500D02*
X149860000Y-146520500D01*
X120609894Y-69890106D02*
X123190000Y-67310000D01*
X120609894Y-71605945D02*
X120609894Y-69890106D01*
X182394055Y-69809894D02*
X184109894Y-69809894D01*
X184109894Y-69809894D02*
X186690000Y-72390000D01*
X184190106Y-131594055D02*
X184190106Y-133309894D01*
X184190106Y-133309894D02*
X181610000Y-135890000D01*
X120690106Y-133390106D02*
X118110000Y-130810000D01*
X122405945Y-133390106D02*
X120690106Y-133390106D01*
X111551543Y-86054653D02*
X111211339Y-85714449D01*
X111211339Y-85714449D02*
X111211339Y-82933103D01*
X138330032Y-59590032D02*
X138430000Y-59690000D01*
X135563896Y-59590032D02*
X138330032Y-59590032D01*
X134507999Y-61723559D02*
X134507999Y-60645929D01*
X134507999Y-60645929D02*
X135563896Y-59590032D01*
X167945347Y-60751543D02*
X168134842Y-60562048D01*
X168134842Y-60562048D02*
X171087989Y-60562048D01*
X171087989Y-60562048D02*
X171450000Y-60924059D01*
X194565219Y-84919147D02*
X194565219Y-87374781D01*
X192276441Y-83707999D02*
X193354071Y-83707999D01*
X193354071Y-83707999D02*
X194565219Y-84919147D01*
X194565219Y-87374781D02*
X194310000Y-87630000D01*
X193437952Y-120252048D02*
X192735613Y-120954387D01*
X193437952Y-117334842D02*
X193437952Y-120252048D01*
X192735613Y-120954387D02*
X192735613Y-121798245D01*
X193248457Y-117145347D02*
X193437952Y-117334842D01*
X170292001Y-141476441D02*
X170292001Y-142127999D01*
X170292001Y-142127999D02*
X167640000Y-144780000D01*
X132080000Y-140970000D02*
X132881441Y-141492509D01*
X134026884Y-142637952D02*
X136665158Y-142637952D01*
X136665158Y-142637952D02*
X136854653Y-142448457D01*
X132881441Y-141492509D02*
X134026884Y-142637952D01*
X110390032Y-118436104D02*
X110390032Y-115669968D01*
X112523559Y-119492001D02*
X111445929Y-119492001D01*
X111445929Y-119492001D02*
X110390032Y-118436104D01*
X110390032Y-115669968D02*
X110490000Y-115570000D01*
M02*
