G04 #@! TF.GenerationSoftware,KiCad,Pcbnew,(6.0.5)*
G04 #@! TF.CreationDate,2022-07-03T21:12:04+09:00*
G04 #@! TF.ProjectId,line_sensor,6c696e65-5f73-4656-9e73-6f722e6b6963,rev?*
G04 #@! TF.SameCoordinates,Original*
G04 #@! TF.FileFunction,Legend,Top*
G04 #@! TF.FilePolarity,Positive*
%FSLAX46Y46*%
G04 Gerber Fmt 4.6, Leading zero omitted, Abs format (unit mm)*
G04 Created by KiCad (PCBNEW (6.0.5)) date 2022-07-03 21:12:04*
%MOMM*%
%LPD*%
G01*
G04 APERTURE LIST*
%ADD10C,0.150000*%
%ADD11C,0.120000*%
G04 APERTURE END LIST*
D10*
X178665237Y-140621906D02*
X177866601Y-141223721D01*
X177723312Y-141033570D01*
X177675369Y-140890821D01*
X177694113Y-140757445D01*
X177741516Y-140662099D01*
X177864979Y-140509437D01*
X177979070Y-140423463D01*
X178159849Y-140346862D01*
X178264567Y-140327577D01*
X178397944Y-140346322D01*
X178521948Y-140431755D01*
X178665237Y-140621906D01*
X177322102Y-140501146D02*
X176920892Y-139968722D01*
X177977448Y-139709180D01*
X197999649Y-98930041D02*
X197958188Y-98983108D01*
X197822199Y-99047782D01*
X197727671Y-99059389D01*
X197580075Y-99029535D01*
X197473940Y-98946613D01*
X197415070Y-98857888D01*
X197344592Y-98674635D01*
X197327183Y-98532843D01*
X197351233Y-98337983D01*
X197386891Y-98237652D01*
X197469813Y-98131517D01*
X197605802Y-98066843D01*
X197700330Y-98055236D01*
X197847925Y-98085090D01*
X197900993Y-98126551D01*
X198956538Y-98908503D02*
X198389368Y-98978143D01*
X198672953Y-98943323D02*
X198551084Y-97950777D01*
X198473965Y-98104176D01*
X198391044Y-98210310D01*
X198302319Y-98269181D01*
X199224388Y-97964059D02*
X199265848Y-97910991D01*
X199354573Y-97852121D01*
X199590894Y-97823104D01*
X199691225Y-97858762D01*
X199744293Y-97900222D01*
X199803163Y-97988947D01*
X199814770Y-98083475D01*
X199784916Y-98231071D01*
X199287386Y-98867880D01*
X199901820Y-98792437D01*
X190857786Y-73604026D02*
X190285366Y-73031606D01*
X190184351Y-72997934D01*
X190117007Y-72997934D01*
X190015992Y-73031606D01*
X189881305Y-73166293D01*
X189847633Y-73267308D01*
X189847633Y-73334652D01*
X189881305Y-73435667D01*
X190453725Y-74008087D01*
X189813961Y-74647850D02*
X189948648Y-74513163D01*
X189982320Y-74412148D01*
X189982320Y-74344804D01*
X189948648Y-74176445D01*
X189847633Y-74008087D01*
X189578259Y-73738713D01*
X189477244Y-73705041D01*
X189409900Y-73705041D01*
X189308885Y-73738713D01*
X189174198Y-73873400D01*
X189140526Y-73974415D01*
X189140526Y-74041758D01*
X189174198Y-74142774D01*
X189342557Y-74311132D01*
X189443572Y-74344804D01*
X189510916Y-74344804D01*
X189611931Y-74311132D01*
X189746618Y-74176445D01*
X189780290Y-74075430D01*
X189780290Y-74008087D01*
X189746618Y-73907071D01*
X105716099Y-112929979D02*
X106025890Y-113677881D01*
X106106331Y-113747647D01*
X106168548Y-113773418D01*
X106274759Y-113780966D01*
X106450736Y-113708074D01*
X106520502Y-113627634D01*
X106546273Y-113565417D01*
X106553821Y-113459205D01*
X106244030Y-112711303D01*
X107550593Y-113252499D02*
X107022662Y-113471175D01*
X107286627Y-113361837D02*
X106903944Y-112437957D01*
X106870625Y-112606386D01*
X106819082Y-112730821D01*
X106749317Y-112811261D01*
X107959806Y-112000605D02*
X107783829Y-112073497D01*
X107714064Y-112153937D01*
X107688293Y-112216155D01*
X107654973Y-112384583D01*
X107683871Y-112578784D01*
X107829655Y-112930738D01*
X107910095Y-113000503D01*
X107972313Y-113026274D01*
X108078524Y-113033823D01*
X108254501Y-112960931D01*
X108324267Y-112880490D01*
X108350038Y-112818273D01*
X108357586Y-112712061D01*
X108266471Y-112492090D01*
X108186031Y-112422325D01*
X108123814Y-112396553D01*
X108017602Y-112389005D01*
X107841625Y-112461897D01*
X107771859Y-112542337D01*
X107746088Y-112604555D01*
X107738540Y-112710766D01*
X105410095Y-94202380D02*
X105410095Y-95011904D01*
X105457714Y-95107142D01*
X105505333Y-95154761D01*
X105600571Y-95202380D01*
X105791047Y-95202380D01*
X105886285Y-95154761D01*
X105933904Y-95107142D01*
X105981523Y-95011904D01*
X105981523Y-94202380D01*
X106981523Y-95202380D02*
X106410095Y-95202380D01*
X106695809Y-95202380D02*
X106695809Y-94202380D01*
X106600571Y-94345238D01*
X106505333Y-94440476D01*
X106410095Y-94488095D01*
X198564982Y-110620328D02*
X198425809Y-111610596D01*
X198190031Y-111577460D01*
X198055191Y-111510422D01*
X197974134Y-111402856D01*
X197940233Y-111301918D01*
X197919587Y-111106668D01*
X197939469Y-110965201D01*
X198013134Y-110783206D01*
X198073544Y-110695522D01*
X198181110Y-110614465D01*
X198329204Y-110587192D01*
X198564982Y-110620328D01*
X197495951Y-111383739D02*
X197442168Y-111424267D01*
X197341229Y-111458168D01*
X197105451Y-111425032D01*
X197017767Y-111364622D01*
X196977239Y-111310839D01*
X196943338Y-111209900D01*
X196956593Y-111115589D01*
X197023630Y-110980750D01*
X197669025Y-110494410D01*
X197056002Y-110408255D01*
X182755877Y-67468232D02*
X182764084Y-67535073D01*
X182713656Y-67676964D01*
X182655022Y-67752012D01*
X182529546Y-67835268D01*
X182395863Y-67851682D01*
X182291497Y-67830572D01*
X182112083Y-67750828D01*
X181999510Y-67662876D01*
X181878729Y-67508083D01*
X181832998Y-67411924D01*
X181816584Y-67278241D01*
X181867011Y-67136351D01*
X181925646Y-67061302D01*
X182051122Y-66978046D01*
X182117963Y-66969839D01*
X183417269Y-66776380D02*
X183065463Y-67226672D01*
X183241366Y-67001526D02*
X182453355Y-66385864D01*
X182507294Y-66548865D01*
X182523708Y-66682548D01*
X182502598Y-66786914D01*
X184003614Y-66025894D02*
X183651807Y-66476185D01*
X183827710Y-66251039D02*
X183039700Y-65635378D01*
X183093638Y-65798378D01*
X183110052Y-65932061D01*
X183088942Y-66036427D01*
X199389904Y-108997619D02*
X199389904Y-108188095D01*
X199342285Y-108092857D01*
X199294666Y-108045238D01*
X199199428Y-107997619D01*
X199008952Y-107997619D01*
X198913714Y-108045238D01*
X198866095Y-108092857D01*
X198818476Y-108188095D01*
X198818476Y-108997619D01*
X198389904Y-108902380D02*
X198342285Y-108950000D01*
X198247047Y-108997619D01*
X198008952Y-108997619D01*
X197913714Y-108950000D01*
X197866095Y-108902380D01*
X197818476Y-108807142D01*
X197818476Y-108711904D01*
X197866095Y-108569047D01*
X198437523Y-107997619D01*
X197818476Y-107997619D01*
X132248561Y-60078710D02*
X132313456Y-60096707D01*
X132425247Y-60197595D01*
X132472145Y-60280486D01*
X132501046Y-60428271D01*
X132465052Y-60558060D01*
X132405610Y-60646403D01*
X132263276Y-60781643D01*
X132138940Y-60851989D01*
X131949709Y-60904339D01*
X131843369Y-60909791D01*
X131713581Y-60873797D01*
X131601789Y-60772909D01*
X131554892Y-60690018D01*
X131525991Y-60542233D01*
X131543988Y-60477339D01*
X131015571Y-59736772D02*
X131250058Y-60151227D01*
X131687962Y-59958185D01*
X131623068Y-59940188D01*
X131534725Y-59880746D01*
X131417481Y-59673518D01*
X131412029Y-59567178D01*
X131430026Y-59502284D01*
X131489468Y-59413941D01*
X131696696Y-59296698D01*
X131803035Y-59291246D01*
X131867930Y-59309242D01*
X131956273Y-59368685D01*
X132073516Y-59575912D01*
X132078968Y-59682252D01*
X132060971Y-59747146D01*
X110940323Y-122537261D02*
X110922326Y-122602156D01*
X110821438Y-122713947D01*
X110738547Y-122760845D01*
X110590762Y-122789746D01*
X110460973Y-122753752D01*
X110372630Y-122694310D01*
X110237390Y-122551976D01*
X110167044Y-122427640D01*
X110114694Y-122238409D01*
X110109242Y-122132069D01*
X110145236Y-122002281D01*
X110246124Y-121890489D01*
X110329015Y-121843592D01*
X110476800Y-121814691D01*
X110541694Y-121832688D01*
X111203181Y-121841421D02*
X111096842Y-121846873D01*
X111031947Y-121828877D01*
X110943604Y-121769434D01*
X110920156Y-121727989D01*
X110914704Y-121621649D01*
X110932701Y-121556755D01*
X110992143Y-121468412D01*
X111157925Y-121374617D01*
X111264265Y-121369165D01*
X111329159Y-121387162D01*
X111417502Y-121446604D01*
X111440951Y-121488049D01*
X111446403Y-121594389D01*
X111428406Y-121659283D01*
X111368964Y-121747626D01*
X111203181Y-121841421D01*
X111143739Y-121929764D01*
X111125742Y-121994659D01*
X111131194Y-122100998D01*
X111224989Y-122266780D01*
X111313332Y-122326223D01*
X111378227Y-122344220D01*
X111484566Y-122338768D01*
X111650348Y-122244973D01*
X111709791Y-122156630D01*
X111727787Y-122091735D01*
X111722335Y-121985396D01*
X111628541Y-121819614D01*
X111540198Y-121760171D01*
X111475303Y-121742174D01*
X111368964Y-121747626D01*
X124404026Y-63142213D02*
X123831606Y-63714633D01*
X123797934Y-63815648D01*
X123797934Y-63882992D01*
X123831606Y-63984007D01*
X123966293Y-64118694D01*
X124067308Y-64152366D01*
X124134652Y-64152366D01*
X124235667Y-64118694D01*
X124808087Y-63546274D01*
X125481522Y-64219709D02*
X125144804Y-63882992D01*
X124774415Y-64186038D01*
X124841758Y-64186038D01*
X124942774Y-64219709D01*
X125111132Y-64388068D01*
X125144804Y-64489083D01*
X125144804Y-64556427D01*
X125111132Y-64657442D01*
X124942774Y-64825801D01*
X124841758Y-64859473D01*
X124774415Y-64859473D01*
X124673400Y-64825801D01*
X124505041Y-64657442D01*
X124471369Y-64556427D01*
X124471369Y-64489083D01*
X113942213Y-129595973D02*
X114514633Y-130168393D01*
X114615648Y-130202065D01*
X114682992Y-130202065D01*
X114784007Y-130168393D01*
X114918694Y-130033706D01*
X114952366Y-129932691D01*
X114952366Y-129865347D01*
X114918694Y-129764332D01*
X114346274Y-129191912D01*
X115087053Y-129057225D02*
X114986038Y-129090897D01*
X114918694Y-129090897D01*
X114817679Y-129057225D01*
X114784007Y-129023554D01*
X114750335Y-128922538D01*
X114750335Y-128855195D01*
X114784007Y-128754180D01*
X114918694Y-128619493D01*
X115019709Y-128585821D01*
X115087053Y-128585821D01*
X115188068Y-128619493D01*
X115221740Y-128653164D01*
X115255412Y-128754180D01*
X115255412Y-128821523D01*
X115221740Y-128922538D01*
X115087053Y-129057225D01*
X115053381Y-129158241D01*
X115053381Y-129225584D01*
X115087053Y-129326599D01*
X115221740Y-129461286D01*
X115322755Y-129494958D01*
X115390099Y-129494958D01*
X115491114Y-129461286D01*
X115625801Y-129326599D01*
X115659473Y-129225584D01*
X115659473Y-129158241D01*
X115625801Y-129057225D01*
X115491114Y-128922538D01*
X115390099Y-128888867D01*
X115322755Y-128888867D01*
X115221740Y-128922538D01*
X192009251Y-127841955D02*
X191501713Y-128703585D01*
X191296563Y-128582742D01*
X191197642Y-128469207D01*
X191163919Y-128338810D01*
X191171226Y-128232581D01*
X191226870Y-128044293D01*
X191299375Y-127921203D01*
X191437079Y-127781252D01*
X191526446Y-127723360D01*
X191656843Y-127689637D01*
X191804101Y-127721113D01*
X192009251Y-127841955D01*
X190696292Y-127068564D02*
X191188652Y-127358586D01*
X190942472Y-127213575D02*
X190434934Y-128075204D01*
X190589499Y-128000451D01*
X190719896Y-127966728D01*
X190826125Y-127974035D01*
X189901544Y-127761013D02*
X189368155Y-127446823D01*
X189848713Y-127287763D01*
X189725623Y-127215257D01*
X189667731Y-127125890D01*
X189650870Y-127060692D01*
X189658177Y-126954463D01*
X189779019Y-126749314D01*
X189868386Y-126691422D01*
X189933585Y-126674561D01*
X190039813Y-126681868D01*
X190285993Y-126826879D01*
X190343884Y-126916246D01*
X190360746Y-126981444D01*
X127745731Y-63212532D02*
X126947095Y-63814347D01*
X126803806Y-63624196D01*
X126755863Y-63481447D01*
X126774607Y-63348071D01*
X126822010Y-63252725D01*
X126945473Y-63100063D01*
X127059564Y-63014089D01*
X127240343Y-62937488D01*
X127345061Y-62918203D01*
X127478438Y-62936948D01*
X127602442Y-63022381D01*
X127745731Y-63212532D01*
X126058702Y-62635409D02*
X126345280Y-63015711D01*
X126754241Y-62767163D01*
X126687553Y-62757791D01*
X126592207Y-62710388D01*
X126448917Y-62520237D01*
X126429632Y-62415518D01*
X126439004Y-62348830D01*
X126486407Y-62253484D01*
X126676558Y-62110195D01*
X126781277Y-62090909D01*
X126847965Y-62100282D01*
X126943311Y-62147685D01*
X127086600Y-62337836D01*
X127105886Y-62442554D01*
X127096513Y-62509242D01*
X193422007Y-126598997D02*
X193731798Y-125851095D01*
X193724250Y-125744883D01*
X193698478Y-125682666D01*
X193628713Y-125602225D01*
X193452736Y-125529333D01*
X193346524Y-125536882D01*
X193284307Y-125562653D01*
X193203867Y-125632418D01*
X192894075Y-126380321D01*
X192352879Y-125073758D02*
X192880811Y-125292434D01*
X192616845Y-125183096D02*
X192234161Y-126106976D01*
X192376819Y-126011439D01*
X192501254Y-125959896D01*
X192607465Y-125952348D01*
X191662236Y-125870076D02*
X191090311Y-125633177D01*
X191544055Y-125408784D01*
X191412072Y-125354115D01*
X191342306Y-125273675D01*
X191316535Y-125211457D01*
X191308987Y-125105246D01*
X191400102Y-124885274D01*
X191480542Y-124815509D01*
X191542760Y-124789738D01*
X191648971Y-124782190D01*
X191912937Y-124891528D01*
X191982702Y-124971968D01*
X192008473Y-125034185D01*
X177398997Y-60577992D02*
X176651095Y-60268201D01*
X176544883Y-60275749D01*
X176482666Y-60301521D01*
X176402225Y-60371286D01*
X176329333Y-60547263D01*
X176336882Y-60653475D01*
X176362653Y-60715692D01*
X176432418Y-60796132D01*
X177180321Y-61105924D01*
X175873758Y-61647120D02*
X176092434Y-61119188D01*
X175983096Y-61383154D02*
X176906976Y-61765838D01*
X176811439Y-61623180D01*
X176759896Y-61498745D01*
X176752348Y-61392534D01*
X175509297Y-62527005D02*
X175727974Y-61999074D01*
X175618636Y-62263039D02*
X176542515Y-62645723D01*
X176446978Y-62503065D01*
X176395436Y-62378631D01*
X176387888Y-62272419D01*
X143379671Y-147764982D02*
X142389403Y-147625809D01*
X142422539Y-147390031D01*
X142489577Y-147255191D01*
X142597143Y-147174134D01*
X142698081Y-147140233D01*
X142893331Y-147119587D01*
X143034798Y-147139469D01*
X143216793Y-147213134D01*
X143304477Y-147273544D01*
X143385534Y-147381110D01*
X143412807Y-147529204D01*
X143379671Y-147764982D01*
X142918311Y-146257531D02*
X143578490Y-146350313D01*
X142507929Y-146440291D02*
X143182127Y-146775478D01*
X143268282Y-146162455D01*
X159797619Y-54610095D02*
X158988095Y-54610095D01*
X158892857Y-54657714D01*
X158845238Y-54705333D01*
X158797619Y-54800571D01*
X158797619Y-54991047D01*
X158845238Y-55086285D01*
X158892857Y-55133904D01*
X158988095Y-55181523D01*
X159797619Y-55181523D01*
X159797619Y-55562476D02*
X159797619Y-56181523D01*
X159416666Y-55848190D01*
X159416666Y-55991047D01*
X159369047Y-56086285D01*
X159321428Y-56133904D01*
X159226190Y-56181523D01*
X158988095Y-56181523D01*
X158892857Y-56133904D01*
X158845238Y-56086285D01*
X158797619Y-55991047D01*
X158797619Y-55705333D01*
X158845238Y-55610095D01*
X158892857Y-55562476D01*
X111817935Y-76783232D02*
X111508144Y-77531135D01*
X111515692Y-77637346D01*
X111541463Y-77699563D01*
X111611229Y-77780004D01*
X111787206Y-77852896D01*
X111893417Y-77845348D01*
X111955635Y-77819576D01*
X112036075Y-77749811D01*
X112345866Y-77001908D01*
X112447120Y-78126241D02*
X112623097Y-78199133D01*
X112729308Y-78191585D01*
X112791526Y-78165814D01*
X112934183Y-78070277D01*
X113051069Y-77912523D01*
X113196854Y-77560569D01*
X113189305Y-77454357D01*
X113163534Y-77392140D01*
X113093769Y-77311700D01*
X112917792Y-77238808D01*
X112811580Y-77246356D01*
X112749363Y-77272127D01*
X112668922Y-77341893D01*
X112577807Y-77561864D01*
X112585356Y-77668075D01*
X112611127Y-77730293D01*
X112680892Y-77810733D01*
X112856869Y-77883625D01*
X112963081Y-77876077D01*
X113025298Y-77850306D01*
X113105739Y-77780540D01*
X196839153Y-93631903D02*
X196588773Y-92663755D01*
X196819284Y-92604141D01*
X196969514Y-92614475D01*
X197085564Y-92682834D01*
X197155512Y-92763115D01*
X197249306Y-92935601D01*
X197285074Y-93073908D01*
X197286663Y-93270240D01*
X197264407Y-93374368D01*
X197196048Y-93490418D01*
X197069664Y-93572289D01*
X196839153Y-93631903D01*
X198314425Y-93250371D02*
X197761198Y-93393446D01*
X198037812Y-93321909D02*
X197787432Y-92353761D01*
X197730996Y-92515914D01*
X197662637Y-92631964D01*
X197582355Y-92701912D01*
X198456709Y-92279046D02*
X198490889Y-92221020D01*
X198571170Y-92151072D01*
X198801682Y-92091458D01*
X198905809Y-92113715D01*
X198963834Y-92147894D01*
X199033782Y-92228176D01*
X199057628Y-92320380D01*
X199047294Y-92470610D01*
X198637141Y-93166911D01*
X199236471Y-93011914D01*
X190787467Y-76945731D02*
X190185652Y-76147095D01*
X190375803Y-76003806D01*
X190518552Y-75955863D01*
X190651928Y-75974607D01*
X190747274Y-76022010D01*
X190899936Y-76145473D01*
X190985910Y-76259564D01*
X191062511Y-76440343D01*
X191081796Y-76545061D01*
X191063051Y-76678438D01*
X190977618Y-76802442D01*
X190787467Y-76945731D01*
X191326560Y-75287360D02*
X191174439Y-75401991D01*
X191127036Y-75497337D01*
X191117664Y-75564025D01*
X191127577Y-75735432D01*
X191204178Y-75916210D01*
X191433441Y-76220453D01*
X191528787Y-76267855D01*
X191595475Y-76277228D01*
X191700193Y-76257942D01*
X191852314Y-76143311D01*
X191899717Y-76047965D01*
X191909090Y-75981277D01*
X191889804Y-75876558D01*
X191746515Y-75686407D01*
X191651169Y-75639004D01*
X191584481Y-75629632D01*
X191479762Y-75648917D01*
X191327641Y-75763549D01*
X191280239Y-75858895D01*
X191270866Y-75925583D01*
X191290152Y-76030301D01*
X141070020Y-54916099D02*
X140322118Y-55225890D01*
X140252352Y-55306331D01*
X140226581Y-55368548D01*
X140219033Y-55474759D01*
X140291925Y-55650736D01*
X140372365Y-55720502D01*
X140434582Y-55746273D01*
X140540794Y-55753821D01*
X141288696Y-55444030D01*
X140747500Y-56750593D02*
X140528824Y-56222662D01*
X140638162Y-56486627D02*
X141562042Y-56103944D01*
X141393613Y-56070625D01*
X141269178Y-56019082D01*
X141188738Y-55949317D01*
X141908279Y-56939835D02*
X141944725Y-57027824D01*
X141937177Y-57134035D01*
X141911406Y-57196252D01*
X141841640Y-57276693D01*
X141683886Y-57393579D01*
X141463915Y-57484694D01*
X141269715Y-57513592D01*
X141163503Y-57506044D01*
X141101286Y-57480272D01*
X141020845Y-57410507D01*
X140984399Y-57322518D01*
X140991948Y-57216307D01*
X141017719Y-57154090D01*
X141087484Y-57073649D01*
X141245238Y-56956763D01*
X141465210Y-56865648D01*
X141659410Y-56836750D01*
X141765621Y-56844298D01*
X141827839Y-56870070D01*
X141908279Y-56939835D01*
X117892989Y-70950950D02*
X117959830Y-70942743D01*
X118101720Y-70993171D01*
X118176769Y-71051805D01*
X118260025Y-71177281D01*
X118276439Y-71310964D01*
X118255329Y-71415330D01*
X118175584Y-71594744D01*
X118087633Y-71707317D01*
X117932840Y-71828097D01*
X117836681Y-71873829D01*
X117702998Y-71890243D01*
X117561108Y-71839816D01*
X117486059Y-71781181D01*
X117402803Y-71655705D01*
X117394596Y-71588864D01*
X117576380Y-70582730D02*
X117426283Y-70465461D01*
X117321917Y-70444351D01*
X117255075Y-70452558D01*
X117092075Y-70506496D01*
X116937282Y-70627276D01*
X116702744Y-70927471D01*
X116681634Y-71031837D01*
X116689841Y-71098678D01*
X116735573Y-71194837D01*
X116885670Y-71312106D01*
X116990036Y-71333216D01*
X117056877Y-71325009D01*
X117153036Y-71279277D01*
X117299622Y-71091656D01*
X117320732Y-70987290D01*
X117312525Y-70920448D01*
X117266794Y-70824290D01*
X117116696Y-70707021D01*
X117012330Y-70685911D01*
X116945489Y-70694118D01*
X116849330Y-70739849D01*
X187984682Y-132184576D02*
X188051523Y-132176369D01*
X188193414Y-132226797D01*
X188268462Y-132285431D01*
X188351718Y-132410907D01*
X188368132Y-132544590D01*
X188347022Y-132648956D01*
X188267278Y-132828370D01*
X188179326Y-132940943D01*
X188024533Y-133061724D01*
X187928374Y-133107455D01*
X187794691Y-133123869D01*
X187652801Y-133073442D01*
X187577752Y-133014807D01*
X187494496Y-132889331D01*
X187486289Y-132822490D01*
X187292830Y-131523184D02*
X187743122Y-131874990D01*
X187517976Y-131699087D02*
X186902314Y-132487098D01*
X187065315Y-132433159D01*
X187198998Y-132416745D01*
X187303364Y-132437855D01*
X186414498Y-132105974D02*
X185926682Y-131724850D01*
X186423890Y-131629876D01*
X186311317Y-131541924D01*
X186265586Y-131445766D01*
X186257378Y-131378924D01*
X186278489Y-131274558D01*
X186425075Y-131086937D01*
X186521233Y-131041205D01*
X186588075Y-131032998D01*
X186692441Y-131054108D01*
X186917587Y-131230011D01*
X186963318Y-131326170D01*
X186971525Y-131393012D01*
X137888460Y-145721297D02*
X137921621Y-145779910D01*
X137929331Y-145930297D01*
X137903880Y-146022071D01*
X137819816Y-146147007D01*
X137702590Y-146213330D01*
X137598090Y-146233766D01*
X137401816Y-146228751D01*
X137264155Y-146190574D01*
X137093332Y-146093784D01*
X137014283Y-146022445D01*
X136947960Y-145905220D01*
X136940250Y-145754833D01*
X136965701Y-145663058D01*
X137049765Y-145538123D01*
X137108378Y-145504961D01*
X137566875Y-144742620D02*
X138209295Y-144920779D01*
X137136149Y-144870251D02*
X137760829Y-145290571D01*
X137926262Y-144694038D01*
X199083900Y-90270020D02*
X198774109Y-89522118D01*
X198693668Y-89452352D01*
X198631451Y-89426581D01*
X198525240Y-89419033D01*
X198349263Y-89491925D01*
X198279497Y-89572365D01*
X198253726Y-89634582D01*
X198246178Y-89740794D01*
X198555969Y-90488696D01*
X197249406Y-89947500D02*
X197777337Y-89728824D01*
X197513372Y-89838162D02*
X197896055Y-90762042D01*
X197929374Y-90593613D01*
X197980917Y-90469178D01*
X198050682Y-90388738D01*
X197243689Y-90929175D02*
X197217918Y-90991393D01*
X197148152Y-91071833D01*
X196928181Y-91162948D01*
X196821970Y-91155400D01*
X196759752Y-91129629D01*
X196679312Y-91059863D01*
X196642866Y-90971875D01*
X196632191Y-90821669D01*
X196941446Y-90075061D01*
X196369521Y-90311961D01*
X145002380Y-148589904D02*
X145811904Y-148589904D01*
X145907142Y-148542285D01*
X145954761Y-148494666D01*
X146002380Y-148399428D01*
X146002380Y-148208952D01*
X145954761Y-148113714D01*
X145907142Y-148066095D01*
X145811904Y-148018476D01*
X145002380Y-148018476D01*
X145335714Y-147113714D02*
X146002380Y-147113714D01*
X144954761Y-147351809D02*
X145669047Y-147589904D01*
X145669047Y-146970857D01*
X127401002Y-142622007D02*
X128148904Y-142931798D01*
X128255116Y-142924250D01*
X128317333Y-142898478D01*
X128397774Y-142828713D01*
X128470666Y-142652736D01*
X128463117Y-142546524D01*
X128437346Y-142484307D01*
X128367581Y-142403867D01*
X127619678Y-142094075D01*
X128926241Y-141552879D02*
X128707565Y-142080811D01*
X128816903Y-141816845D02*
X127893023Y-141434161D01*
X127988560Y-141576819D01*
X128040103Y-141701254D01*
X128047651Y-141807465D01*
X128348599Y-140334305D02*
X128166369Y-140774248D01*
X128588088Y-141000472D01*
X128562317Y-140938255D01*
X128554769Y-140832043D01*
X128645884Y-140612072D01*
X128726324Y-140542306D01*
X128788542Y-140516535D01*
X128894753Y-140508987D01*
X129114725Y-140600102D01*
X129184490Y-140680542D01*
X129210261Y-140742760D01*
X129217809Y-140848971D01*
X129126694Y-141068942D01*
X129046254Y-141138708D01*
X128984037Y-141164479D01*
X126158044Y-141209251D02*
X125296414Y-140701713D01*
X125417257Y-140496563D01*
X125530792Y-140397642D01*
X125661189Y-140363919D01*
X125767418Y-140371226D01*
X125955706Y-140426870D01*
X126078796Y-140499375D01*
X126218747Y-140637079D01*
X126276639Y-140726446D01*
X126310362Y-140856843D01*
X126278886Y-141004101D01*
X126158044Y-141209251D01*
X126931435Y-139896292D02*
X126641413Y-140388652D01*
X126786424Y-140142472D02*
X125924795Y-139634934D01*
X125999548Y-139789499D01*
X126033271Y-139919896D01*
X126025964Y-140026125D01*
X126529008Y-138609185D02*
X126287323Y-139019484D01*
X126673454Y-139302199D01*
X126656592Y-139237001D01*
X126663899Y-139130772D01*
X126784742Y-138925623D01*
X126874109Y-138867731D01*
X126939307Y-138850870D01*
X127045536Y-138858177D01*
X127250685Y-138979019D01*
X127308577Y-139068386D01*
X127325438Y-139133585D01*
X127318131Y-139239813D01*
X127197289Y-139444963D01*
X127107922Y-139502854D01*
X127042723Y-139519716D01*
X107822760Y-91889160D02*
X107683587Y-92879428D01*
X107447809Y-92846292D01*
X107312969Y-92779254D01*
X107231912Y-92671688D01*
X107198011Y-92570750D01*
X107177365Y-92375500D01*
X107197247Y-92234033D01*
X107270912Y-92052038D01*
X107331322Y-91964354D01*
X107438888Y-91883297D01*
X107586982Y-91856024D01*
X107822760Y-91889160D01*
X106313780Y-91677087D02*
X106879647Y-91756614D01*
X106596714Y-91716851D02*
X106457541Y-92707119D01*
X106571734Y-92578906D01*
X106679300Y-92497850D01*
X106780238Y-92463949D01*
X108790797Y-86489231D02*
X108849410Y-86456070D01*
X108999797Y-86448360D01*
X109091571Y-86473811D01*
X109216507Y-86557875D01*
X109282830Y-86675101D01*
X109303266Y-86779601D01*
X109298251Y-86975875D01*
X109260074Y-87113536D01*
X109163284Y-87284359D01*
X109091945Y-87363408D01*
X108974720Y-87429731D01*
X108824333Y-87437441D01*
X108732558Y-87411990D01*
X108607623Y-87327926D01*
X108574461Y-87269313D01*
X107898505Y-86142944D02*
X108449151Y-86295652D01*
X108173828Y-86219298D02*
X107906589Y-87182929D01*
X108036541Y-87070718D01*
X108153766Y-87004395D01*
X108258266Y-86983960D01*
X180395973Y-140057786D02*
X180968393Y-139485366D01*
X181002065Y-139384351D01*
X181002065Y-139317007D01*
X180968393Y-139215992D01*
X180833706Y-139081305D01*
X180732691Y-139047633D01*
X180665347Y-139047633D01*
X180564332Y-139081305D01*
X179991912Y-139653725D01*
X179722538Y-139384351D02*
X179251134Y-138912946D01*
X180261286Y-138508885D01*
X167510768Y-57990797D02*
X167543929Y-58049410D01*
X167551639Y-58199797D01*
X167526188Y-58291571D01*
X167442124Y-58416507D01*
X167324898Y-58482830D01*
X167220398Y-58503266D01*
X167024124Y-58498251D01*
X166886463Y-58460074D01*
X166715640Y-58363284D01*
X166636591Y-58291945D01*
X166570268Y-58174720D01*
X166562558Y-58024333D01*
X166588009Y-57932558D01*
X166672073Y-57807623D01*
X166730686Y-57774461D01*
X166727991Y-57427800D02*
X166893424Y-56831266D01*
X167171442Y-57254282D01*
X167209619Y-57116620D01*
X167280957Y-57037572D01*
X167339570Y-57004410D01*
X167444070Y-56983974D01*
X167673506Y-57047602D01*
X167752555Y-57118941D01*
X167785716Y-57177554D01*
X167806152Y-57282053D01*
X167729798Y-57557376D01*
X167658460Y-57636425D01*
X167599847Y-57669587D01*
X113378093Y-127865237D02*
X112776278Y-127066601D01*
X112966429Y-126923312D01*
X113109178Y-126875369D01*
X113242554Y-126894113D01*
X113337900Y-126941516D01*
X113490562Y-127064979D01*
X113576536Y-127179070D01*
X113653137Y-127359849D01*
X113672422Y-127464567D01*
X113653677Y-127597944D01*
X113568244Y-127721948D01*
X113378093Y-127865237D01*
X113946925Y-126721085D02*
X113842207Y-126740371D01*
X113775519Y-126730998D01*
X113680173Y-126683595D01*
X113651515Y-126645565D01*
X113632229Y-126540847D01*
X113641602Y-126474159D01*
X113689004Y-126378813D01*
X113841125Y-126264181D01*
X113945844Y-126244896D01*
X114012532Y-126254268D01*
X114107878Y-126301671D01*
X114136536Y-126339701D01*
X114155821Y-126444420D01*
X114146449Y-126511108D01*
X114099046Y-126606454D01*
X113946925Y-126721085D01*
X113899522Y-126816431D01*
X113890150Y-126883119D01*
X113909435Y-126987838D01*
X114024067Y-127139959D01*
X114119413Y-127187361D01*
X114186101Y-127196734D01*
X114290819Y-127177448D01*
X114442940Y-127062817D01*
X114490343Y-126967471D01*
X114499716Y-126900783D01*
X114480430Y-126796064D01*
X114365799Y-126643943D01*
X114270453Y-126596541D01*
X114203765Y-126587168D01*
X114099046Y-126606454D01*
X196521297Y-116111539D02*
X196579910Y-116078378D01*
X196730297Y-116070668D01*
X196822071Y-116096119D01*
X196947007Y-116180183D01*
X197013330Y-116297409D01*
X197033766Y-116401909D01*
X197028751Y-116598183D01*
X196990574Y-116735844D01*
X196893784Y-116906667D01*
X196822445Y-116985716D01*
X196705220Y-117052039D01*
X196554833Y-117059749D01*
X196463058Y-117034298D01*
X196338123Y-116950234D01*
X196304961Y-116891621D01*
X195937864Y-116789816D02*
X195879251Y-116822978D01*
X195774751Y-116843414D01*
X195545315Y-116779785D01*
X195466266Y-116708447D01*
X195433105Y-116649834D01*
X195412669Y-116545334D01*
X195438120Y-116453560D01*
X195522184Y-116328624D01*
X196225538Y-115930686D01*
X195629005Y-115765252D01*
X121815423Y-137184682D02*
X121823630Y-137251523D01*
X121773202Y-137393414D01*
X121714568Y-137468462D01*
X121589092Y-137551718D01*
X121455409Y-137568132D01*
X121351043Y-137547022D01*
X121171629Y-137467278D01*
X121059056Y-137379326D01*
X120938275Y-137224533D01*
X120892544Y-137128374D01*
X120876130Y-136994691D01*
X120926557Y-136852801D01*
X120985192Y-136777752D01*
X121110668Y-136694496D01*
X121177509Y-136686289D01*
X122476815Y-136492830D02*
X122125009Y-136943122D01*
X122300912Y-136717976D02*
X121512901Y-136102314D01*
X121566840Y-136265315D01*
X121583254Y-136398998D01*
X121562144Y-136503364D01*
X122245832Y-135164206D02*
X121952660Y-135539450D01*
X122298586Y-135870146D01*
X122290378Y-135803304D01*
X122311489Y-135698939D01*
X122458075Y-135511317D01*
X122554233Y-135465586D01*
X122621075Y-135457378D01*
X122725441Y-135478489D01*
X122913062Y-135625075D01*
X122958794Y-135721233D01*
X122967001Y-135788075D01*
X122945891Y-135892441D01*
X122799305Y-136080062D01*
X122703146Y-136125794D01*
X122636305Y-136134001D01*
X162110839Y-57022760D02*
X161120571Y-56883587D01*
X161153707Y-56647809D01*
X161220745Y-56512969D01*
X161328311Y-56431912D01*
X161429249Y-56398011D01*
X161624499Y-56377365D01*
X161765966Y-56397247D01*
X161947961Y-56470912D01*
X162035645Y-56531322D01*
X162116702Y-56638888D01*
X162143975Y-56786982D01*
X162110839Y-57022760D01*
X161246489Y-55987630D02*
X161332644Y-55374607D01*
X161663498Y-55757715D01*
X161683380Y-55616248D01*
X161743790Y-55528564D01*
X161797573Y-55488035D01*
X161898512Y-55454134D01*
X162134290Y-55487271D01*
X162221974Y-55547681D01*
X162262502Y-55601464D01*
X162296403Y-55702402D01*
X162256639Y-55985336D01*
X162196229Y-56073020D01*
X162142446Y-56113549D01*
X193921289Y-81448561D02*
X193903292Y-81513456D01*
X193802404Y-81625247D01*
X193719513Y-81672145D01*
X193571728Y-81701046D01*
X193441939Y-81665052D01*
X193353596Y-81605610D01*
X193218356Y-81463276D01*
X193148010Y-81338940D01*
X193095660Y-81149709D01*
X193090208Y-81043369D01*
X193126202Y-80913581D01*
X193227090Y-80801789D01*
X193309981Y-80754892D01*
X193457766Y-80725991D01*
X193522660Y-80743988D01*
X194221782Y-80239019D02*
X194056000Y-80332814D01*
X193996558Y-80421157D01*
X193978561Y-80486052D01*
X193966016Y-80657286D01*
X194018365Y-80846516D01*
X194205955Y-81178080D01*
X194294298Y-81237523D01*
X194359193Y-81255520D01*
X194465532Y-81250068D01*
X194631314Y-81156273D01*
X194690757Y-81067930D01*
X194708753Y-81003035D01*
X194703301Y-80896696D01*
X194586058Y-80689468D01*
X194497715Y-80630026D01*
X194432821Y-80612029D01*
X194326481Y-80617481D01*
X194160699Y-80711276D01*
X194101256Y-80799619D01*
X194083260Y-80864513D01*
X194088712Y-80970853D01*
X105611269Y-105135609D02*
X105569808Y-105188676D01*
X105433819Y-105253350D01*
X105339291Y-105264957D01*
X105191695Y-105235103D01*
X105085560Y-105152181D01*
X105026690Y-105063456D01*
X104956212Y-104880203D01*
X104938803Y-104738411D01*
X104962853Y-104543551D01*
X104998511Y-104443220D01*
X105081433Y-104337085D01*
X105217422Y-104272411D01*
X105311950Y-104260804D01*
X105459545Y-104290658D01*
X105512613Y-104332119D01*
X106568158Y-105114071D02*
X106000988Y-105183711D01*
X106284573Y-105148891D02*
X106162704Y-104156345D01*
X106085585Y-104309744D01*
X106002664Y-104415878D01*
X105913939Y-104474749D01*
X107297042Y-104017065D02*
X107107986Y-104040279D01*
X107019261Y-104099149D01*
X106977800Y-104152217D01*
X106900682Y-104305616D01*
X106876631Y-104500475D01*
X106923057Y-104878588D01*
X106981928Y-104967313D01*
X107034995Y-105008774D01*
X107135327Y-105044431D01*
X107324383Y-105021218D01*
X107413108Y-104962347D01*
X107454569Y-104909280D01*
X107490226Y-104808949D01*
X107461210Y-104572628D01*
X107402339Y-104483903D01*
X107349272Y-104442442D01*
X107248940Y-104406785D01*
X107059884Y-104429998D01*
X106971159Y-104488869D01*
X106929698Y-104541936D01*
X106894041Y-104642268D01*
X173337261Y-143059676D02*
X173402156Y-143077673D01*
X173513947Y-143178561D01*
X173560845Y-143261452D01*
X173589746Y-143409237D01*
X173553752Y-143539026D01*
X173494310Y-143627369D01*
X173351976Y-143762609D01*
X173227640Y-143832955D01*
X173038409Y-143885305D01*
X172932069Y-143890757D01*
X172802281Y-143854763D01*
X172690489Y-143753875D01*
X172643592Y-143670984D01*
X172614691Y-143523199D01*
X172632688Y-143458305D01*
X172385656Y-143215084D02*
X172057373Y-142634847D01*
X173138768Y-142515433D01*
X144431903Y-57160846D02*
X143463755Y-57411226D01*
X143404141Y-57180715D01*
X143414475Y-57030485D01*
X143482834Y-56914435D01*
X143563115Y-56844487D01*
X143735601Y-56750693D01*
X143873908Y-56714925D01*
X144070240Y-56713336D01*
X144174368Y-56735592D01*
X144290418Y-56803951D01*
X144372289Y-56930335D01*
X144431903Y-57160846D01*
X144050371Y-55685574D02*
X144193446Y-56238801D01*
X144121909Y-55962187D02*
X143153761Y-56212567D01*
X143315914Y-56269003D01*
X143431964Y-56337362D01*
X143501912Y-56417644D01*
X142927227Y-55336624D02*
X142903381Y-55244420D01*
X142925638Y-55140292D01*
X142959817Y-55082267D01*
X143040099Y-55012319D01*
X143212585Y-54918525D01*
X143443096Y-54858911D01*
X143639428Y-54857322D01*
X143743556Y-54879578D01*
X143801581Y-54913758D01*
X143871529Y-54994040D01*
X143895374Y-55086244D01*
X143873118Y-55190372D01*
X143838938Y-55248397D01*
X143758657Y-55318345D01*
X143586170Y-55412138D01*
X143355659Y-55471753D01*
X143159327Y-55473342D01*
X143055200Y-55451085D01*
X142997175Y-55416906D01*
X142927227Y-55336624D01*
X163729979Y-148283900D02*
X164477881Y-147974109D01*
X164547647Y-147893668D01*
X164573418Y-147831451D01*
X164580966Y-147725240D01*
X164508074Y-147549263D01*
X164427634Y-147479497D01*
X164365417Y-147453726D01*
X164259205Y-147446178D01*
X163511303Y-147755969D01*
X164052499Y-146449406D02*
X164271175Y-146977337D01*
X164161837Y-146713372D02*
X163237957Y-147096055D01*
X163406386Y-147129374D01*
X163530821Y-147180917D01*
X163611261Y-147250682D01*
X163108565Y-145912632D02*
X163724484Y-145657509D01*
X162847726Y-146278387D02*
X163598755Y-146225013D01*
X163361856Y-145653088D01*
X161852105Y-148163834D02*
X160883957Y-148414214D01*
X160824343Y-148183703D01*
X160834677Y-148033473D01*
X160903036Y-147917423D01*
X160983317Y-147847475D01*
X161155803Y-147753681D01*
X161294110Y-147717913D01*
X161490442Y-147716324D01*
X161594570Y-147738580D01*
X161710620Y-147806939D01*
X161792491Y-147933323D01*
X161852105Y-148163834D01*
X161470573Y-146688562D02*
X161613648Y-147241789D01*
X161542111Y-146965175D02*
X160573963Y-147215555D01*
X160736116Y-147271991D01*
X160852166Y-147340350D01*
X160922114Y-147420632D01*
X160610530Y-146025641D02*
X161255962Y-145858721D01*
X160301326Y-146351535D02*
X161052475Y-146403203D01*
X160897478Y-145803874D01*
X114932178Y-75569383D02*
X114424639Y-76431012D01*
X114219489Y-76310169D01*
X114120568Y-76196634D01*
X114086845Y-76066237D01*
X114094152Y-75960008D01*
X114149796Y-75771720D01*
X114222302Y-75648630D01*
X114360006Y-75508679D01*
X114449372Y-75450787D01*
X114579769Y-75417065D01*
X114727028Y-75448540D01*
X114932178Y-75569383D01*
X114029518Y-75037676D02*
X113865399Y-74941002D01*
X113759170Y-74933695D01*
X113693972Y-74950556D01*
X113539406Y-75025309D01*
X113401702Y-75165260D01*
X113208354Y-75493500D01*
X113201047Y-75599728D01*
X113217909Y-75664927D01*
X113275800Y-75754294D01*
X113439920Y-75850968D01*
X113546149Y-75858275D01*
X113611347Y-75841413D01*
X113700714Y-75783522D01*
X113821556Y-75578372D01*
X113828863Y-75472144D01*
X113812002Y-75406945D01*
X113754111Y-75317578D01*
X113589991Y-75220904D01*
X113483762Y-75213597D01*
X113418564Y-75230459D01*
X113329197Y-75288350D01*
X149730041Y-56000350D02*
X149783108Y-56041811D01*
X149847782Y-56177800D01*
X149859389Y-56272328D01*
X149829535Y-56419924D01*
X149746613Y-56526059D01*
X149657888Y-56584929D01*
X149474635Y-56655407D01*
X149332843Y-56672816D01*
X149137983Y-56648766D01*
X149037652Y-56613108D01*
X148931517Y-56530186D01*
X148866843Y-56394197D01*
X148855236Y-56299669D01*
X148885090Y-56152074D01*
X148926551Y-56099006D01*
X149708503Y-55043461D02*
X149778143Y-55610631D01*
X149743323Y-55327046D02*
X148750777Y-55448915D01*
X148904176Y-55526034D01*
X149010310Y-55608955D01*
X149069181Y-55697680D01*
X148640514Y-54550897D02*
X148628907Y-54456369D01*
X148664565Y-54356038D01*
X148706026Y-54302970D01*
X148794751Y-54244100D01*
X148978004Y-54173622D01*
X149214324Y-54144606D01*
X149409184Y-54168657D01*
X149509515Y-54204314D01*
X149562583Y-54245775D01*
X149621453Y-54334500D01*
X149633060Y-54429028D01*
X149597403Y-54529360D01*
X149555942Y-54582427D01*
X149467217Y-54641298D01*
X149283964Y-54711775D01*
X149047643Y-54740792D01*
X148852784Y-54716741D01*
X148752452Y-54681083D01*
X148699385Y-54639622D01*
X148640514Y-54550897D01*
X105836165Y-111052105D02*
X105585785Y-110083957D01*
X105816296Y-110024343D01*
X105966526Y-110034677D01*
X106082576Y-110103036D01*
X106152524Y-110183317D01*
X106246318Y-110355803D01*
X106282086Y-110494110D01*
X106283675Y-110690442D01*
X106261419Y-110794570D01*
X106193060Y-110910620D01*
X106066676Y-110992491D01*
X105836165Y-111052105D01*
X107311437Y-110670573D02*
X106758210Y-110813648D01*
X107034824Y-110742111D02*
X106784444Y-109773963D01*
X106728008Y-109936116D01*
X106659649Y-110052166D01*
X106579367Y-110122114D01*
X107890898Y-109487814D02*
X107706489Y-109535506D01*
X107626207Y-109605454D01*
X107592028Y-109663479D01*
X107535592Y-109825631D01*
X107537181Y-110021963D01*
X107632564Y-110390782D01*
X107702512Y-110471063D01*
X107760537Y-110505243D01*
X107864665Y-110527499D01*
X108049074Y-110479808D01*
X108129355Y-110409860D01*
X108163535Y-110351835D01*
X108185791Y-110247707D01*
X108126177Y-110017196D01*
X108056229Y-109936914D01*
X107998204Y-109902735D01*
X107894077Y-109880478D01*
X107709667Y-109928170D01*
X107629386Y-109998118D01*
X107595206Y-110056143D01*
X107572950Y-110160270D01*
X155935609Y-148388730D02*
X155988676Y-148430191D01*
X156053350Y-148566180D01*
X156064957Y-148660708D01*
X156035103Y-148808304D01*
X155952181Y-148914439D01*
X155863456Y-148973309D01*
X155680203Y-149043787D01*
X155538411Y-149061196D01*
X155343551Y-149037146D01*
X155243220Y-149001488D01*
X155137085Y-148918566D01*
X155072411Y-148782577D01*
X155060804Y-148688049D01*
X155090658Y-148540454D01*
X155132119Y-148487386D01*
X155914071Y-147431841D02*
X155983711Y-147999011D01*
X155948891Y-147715426D02*
X154956345Y-147837295D01*
X155109744Y-147914414D01*
X155215878Y-147997335D01*
X155274749Y-148086060D01*
X155147914Y-146662334D02*
X155809612Y-146581088D01*
X154798818Y-146945081D02*
X155536796Y-147094352D01*
X155461353Y-146479918D01*
X178188932Y-64542477D02*
X177327302Y-64034939D01*
X177448145Y-63829789D01*
X177561680Y-63730868D01*
X177692077Y-63697145D01*
X177798306Y-63704452D01*
X177986594Y-63760096D01*
X178109684Y-63832601D01*
X178249635Y-63970305D01*
X178307527Y-64059672D01*
X178341250Y-64190069D01*
X178309774Y-64337327D01*
X178188932Y-64542477D01*
X178962323Y-63229518D02*
X178672301Y-63721878D01*
X178817312Y-63475698D02*
X177955683Y-62968160D01*
X178030436Y-63122725D01*
X178064159Y-63253122D01*
X178056852Y-63359351D01*
X179445693Y-62408919D02*
X179155671Y-62901279D01*
X179300682Y-62655099D02*
X178439053Y-62147561D01*
X178513806Y-62302126D01*
X178547529Y-62432523D01*
X178540222Y-62538751D01*
D11*
X182025072Y-139119226D02*
X182149659Y-139025343D01*
X180175432Y-140513030D02*
X180300019Y-140419147D01*
X181712706Y-138704703D02*
G75*
G03*
X180459542Y-137041969I-1488992J181388D01*
G01*
X182149272Y-139025634D02*
G75*
G03*
X180078692Y-136538606I-1925558J502319D01*
G01*
X178355864Y-137836851D02*
G75*
G03*
X180175818Y-140512738I1867850J-686464D01*
G01*
X178734750Y-138341694D02*
G75*
G03*
X179987654Y-140004624I1488964J-181621D01*
G01*
X196451535Y-97621815D02*
X196375366Y-97001474D01*
X200115312Y-94310632D02*
X196105426Y-94802984D01*
X200191480Y-94930973D02*
X200115312Y-94310632D01*
X200461421Y-97129463D02*
X196451535Y-97621815D01*
X196181594Y-95423326D02*
X196105426Y-94802984D01*
X200461421Y-97129463D02*
X200385253Y-96509122D01*
X187782209Y-68013842D02*
X184190106Y-71605945D01*
X184190106Y-71605945D02*
X182394055Y-69809894D01*
X182394055Y-69809894D02*
X185986158Y-66217791D01*
X185986158Y-66217791D02*
X187782209Y-68013842D01*
X186884183Y-67115817D02*
X185088132Y-68911868D01*
X185088132Y-68911868D02*
X184190106Y-68013842D01*
X184190106Y-68013842D02*
X185986158Y-66217791D01*
X185986158Y-66217791D02*
X186884183Y-67115817D01*
X107344243Y-120262706D02*
X109690897Y-119290690D01*
X109690897Y-119290690D02*
X110176905Y-120464017D01*
X110176905Y-120464017D02*
X107830251Y-121436033D01*
X107830251Y-121436033D02*
X107344243Y-120262706D01*
X106858235Y-119089379D02*
X111551543Y-117145347D01*
X111551543Y-117145347D02*
X112523559Y-119492001D01*
X112523559Y-119492001D02*
X107830251Y-121436033D01*
X107830251Y-121436033D02*
X106858235Y-119089379D01*
X103632000Y-101600000D02*
X106172000Y-101600000D01*
X106172000Y-101600000D02*
X106172000Y-102870000D01*
X106172000Y-102870000D02*
X103632000Y-102870000D01*
X103632000Y-102870000D02*
X103632000Y-101600000D01*
X103632000Y-100330000D02*
X108712000Y-100330000D01*
X108712000Y-100330000D02*
X108712000Y-102870000D01*
X108712000Y-102870000D02*
X103632000Y-102870000D01*
X103632000Y-102870000D02*
X103632000Y-100330000D01*
X199878189Y-107182011D02*
X199899900Y-107027529D01*
X199555864Y-109475472D02*
X199577575Y-109320990D01*
X197001782Y-108958820D02*
G75*
G03*
X199063587Y-109248753I1181282J924430D01*
G01*
X199899833Y-107028008D02*
G75*
G03*
X196677117Y-106733535I-1716769J-1006382D01*
G01*
X196376891Y-108869756D02*
G75*
G03*
X199555931Y-109474992I1806173J835366D01*
G01*
X199364201Y-107109774D02*
G75*
G03*
X197302350Y-106820165I-1181137J-924616D01*
G01*
X178990694Y-66274169D02*
X178498188Y-65889381D01*
X183223411Y-64454296D02*
X182730904Y-64069508D01*
X180985460Y-62705817D02*
X178498188Y-65889381D01*
X183223411Y-64454296D02*
X180736138Y-67637859D01*
X180736138Y-67637859D02*
X180243632Y-67253071D01*
X181477967Y-63090606D02*
X180985460Y-62705817D01*
X201168000Y-102870000D02*
X196088000Y-102870000D01*
X196088000Y-102870000D02*
X196088000Y-100330000D01*
X196088000Y-100330000D02*
X201168000Y-100330000D01*
X201168000Y-100330000D02*
X201168000Y-102870000D01*
X201168000Y-101600000D02*
X198628000Y-101600000D01*
X198628000Y-101600000D02*
X198628000Y-100330000D01*
X198628000Y-100330000D02*
X201168000Y-100330000D01*
X201168000Y-100330000D02*
X201168000Y-101600000D01*
X129877453Y-58907837D02*
X129333481Y-59215601D01*
X127949615Y-59998555D02*
X127405643Y-60306320D01*
X131866844Y-62424074D02*
X131322872Y-62731838D01*
X129877453Y-58907837D02*
X131866844Y-62424074D01*
X127405643Y-60306320D02*
X129395034Y-63822557D01*
X129939006Y-63514792D02*
X129395034Y-63822557D01*
X109707837Y-124122547D02*
X113224074Y-122133156D01*
X110798555Y-126050385D02*
X111106320Y-126594357D01*
X114314792Y-124060994D02*
X114622557Y-124604966D01*
X113224074Y-122133156D02*
X113531838Y-122677128D01*
X109707837Y-124122547D02*
X110015601Y-124666519D01*
X111106320Y-126594357D02*
X114622557Y-124604966D01*
X118813842Y-66217791D02*
X122405945Y-69809894D01*
X122405945Y-69809894D02*
X120609894Y-71605945D01*
X120609894Y-71605945D02*
X117017791Y-68013842D01*
X117017791Y-68013842D02*
X118813842Y-66217791D01*
X117915817Y-67115817D02*
X119711868Y-68911868D01*
X119711868Y-68911868D02*
X118813842Y-69809894D01*
X118813842Y-69809894D02*
X117017791Y-68013842D01*
X117017791Y-68013842D02*
X117915817Y-67115817D01*
X117017791Y-135186158D02*
X120609894Y-131594055D01*
X120609894Y-131594055D02*
X122405945Y-133390106D01*
X122405945Y-133390106D02*
X118813842Y-136982209D01*
X118813842Y-136982209D02*
X117017791Y-135186158D01*
X117915817Y-136084183D02*
X119711868Y-134288132D01*
X119711868Y-134288132D02*
X120609894Y-135186158D01*
X120609894Y-135186158D02*
X118813842Y-136982209D01*
X118813842Y-136982209D02*
X117915817Y-136084183D01*
X192952525Y-126921755D02*
X193031701Y-126787341D01*
X194127984Y-124926222D02*
X194207160Y-124791807D01*
X193680764Y-124662789D02*
G75*
G03*
X191886692Y-123606189I-1445063J-402232D01*
G01*
X190247332Y-125145607D02*
G75*
G03*
X192952771Y-126921338I1988369J80586D01*
G01*
X190790574Y-125467027D02*
G75*
G03*
X192584482Y-126523908I1445127J402006D01*
G01*
X194206914Y-124792225D02*
G75*
G03*
X191342203Y-123286887I-1971213J-272796D01*
G01*
X124624568Y-62686970D02*
X124499981Y-62780853D01*
X122774928Y-64080774D02*
X122650341Y-64174657D01*
X123087294Y-64495297D02*
G75*
G03*
X124340458Y-66158031I1488992J-181388D01*
G01*
X126065250Y-64858306D02*
G75*
G03*
X124812346Y-63195376I-1488964J181621D01*
G01*
X126444136Y-65363149D02*
G75*
G03*
X124624182Y-62687262I-1867850J686464D01*
G01*
X122650728Y-64174366D02*
G75*
G03*
X124721308Y-66661394I1925558J-502319D01*
G01*
X197455757Y-120262706D02*
X195109103Y-119290690D01*
X195109103Y-119290690D02*
X195595111Y-118117363D01*
X195595111Y-118117363D02*
X197941765Y-119089379D01*
X197941765Y-119089379D02*
X197455757Y-120262706D01*
X196969749Y-121436033D02*
X192276441Y-119492001D01*
X192276441Y-119492001D02*
X193248457Y-117145347D01*
X193248457Y-117145347D02*
X197941765Y-119089379D01*
X197941765Y-119089379D02*
X196969749Y-121436033D01*
X171062706Y-56544243D02*
X170090690Y-58890897D01*
X170090690Y-58890897D02*
X168917363Y-58404889D01*
X168917363Y-58404889D02*
X169889379Y-56058235D01*
X169889379Y-56058235D02*
X171062706Y-56544243D01*
X172236033Y-57030251D02*
X170292001Y-61723559D01*
X170292001Y-61723559D02*
X167945347Y-60751543D01*
X167945347Y-60751543D02*
X169889379Y-56058235D01*
X169889379Y-56058235D02*
X172236033Y-57030251D01*
X144524528Y-148755864D02*
X144679010Y-148777575D01*
X146817989Y-149078189D02*
X146972471Y-149099900D01*
X146890226Y-148564201D02*
G75*
G03*
X147179835Y-146502350I-924616J1181137D01*
G01*
X145041180Y-146201782D02*
G75*
G03*
X144751247Y-148263587I924430J-1181282D01*
G01*
X146971992Y-149099833D02*
G75*
G03*
X147266465Y-145877117I-1006382J1716769D01*
G01*
X145130244Y-145576891D02*
G75*
G03*
X144525008Y-148755931I835366J-1806173D01*
G01*
X153670000Y-52832000D02*
X151130000Y-52832000D01*
X151130000Y-52832000D02*
X151130000Y-57912000D01*
X151130000Y-57912000D02*
X153670000Y-57912000D01*
X153670000Y-57912000D02*
X153670000Y-52832000D01*
X152400000Y-52832000D02*
X151130000Y-52832000D01*
X151130000Y-52832000D02*
X151130000Y-55372000D01*
X151130000Y-55372000D02*
X152400000Y-55372000D01*
X152400000Y-55372000D02*
X152400000Y-52832000D01*
X107830251Y-81763967D02*
X112523559Y-83707999D01*
X112523559Y-83707999D02*
X111551543Y-86054653D01*
X111551543Y-86054653D02*
X106858235Y-84110621D01*
X106858235Y-84110621D02*
X107830251Y-81763967D01*
X107344243Y-82937294D02*
X109690897Y-83909310D01*
X109690897Y-83909310D02*
X109204889Y-85082637D01*
X109204889Y-85082637D02*
X106858235Y-84110621D01*
X106858235Y-84110621D02*
X107344243Y-82937294D01*
X198400269Y-88587989D02*
X198361210Y-88436958D01*
X198980150Y-90830219D02*
X198941090Y-90679188D01*
X197897763Y-88717947D02*
G75*
G03*
X195882032Y-89239418I-737394J-1306235D01*
G01*
X196422771Y-91330302D02*
G75*
G03*
X198438584Y-90809145I737598J1306120D01*
G01*
X195811364Y-91487153D02*
G75*
G03*
X198980028Y-90829751I1349005J1462971D01*
G01*
X198361331Y-88437427D02*
G75*
G03*
X195271240Y-89398649I-1200962J-1586755D01*
G01*
X191313030Y-73824568D02*
X191219147Y-73699981D01*
X189919226Y-71974928D02*
X189825343Y-71850341D01*
X189504703Y-72287294D02*
G75*
G03*
X187841969Y-73540458I-181388J-1488992D01*
G01*
X188636851Y-75644136D02*
G75*
G03*
X191312738Y-73824182I686464J1867850D01*
G01*
X189825634Y-71850728D02*
G75*
G03*
X187338606Y-73921308I-502319J-1925558D01*
G01*
X189141694Y-75265250D02*
G75*
G03*
X190804624Y-74012346I181621J1488964D01*
G01*
X134910621Y-56058235D02*
X136854653Y-60751543D01*
X136854653Y-60751543D02*
X134507999Y-61723559D01*
X134507999Y-61723559D02*
X132563967Y-57030251D01*
X132563967Y-57030251D02*
X134910621Y-56058235D01*
X133737294Y-56544243D02*
X134709310Y-58890897D01*
X134709310Y-58890897D02*
X133535983Y-59376905D01*
X133535983Y-59376905D02*
X132563967Y-57030251D01*
X132563967Y-57030251D02*
X133737294Y-56544243D01*
X115254296Y-70776589D02*
X118437859Y-73263862D01*
X118437859Y-73263862D02*
X118053071Y-73756368D01*
X115254296Y-70776589D02*
X114869508Y-71269096D01*
X117074169Y-75009306D02*
X116689381Y-75501812D01*
X113505817Y-73014540D02*
X116689381Y-75501812D01*
X113890606Y-72522033D02*
X113505817Y-73014540D01*
X186362141Y-129936138D02*
X186746929Y-129443632D01*
X189545704Y-132423411D02*
X186362141Y-129936138D01*
X190909394Y-130677967D02*
X191294183Y-130185460D01*
X189545704Y-132423411D02*
X189930492Y-131930904D01*
X187725831Y-128190694D02*
X188110619Y-127698188D01*
X191294183Y-130185460D02*
X188110619Y-127698188D01*
X141352012Y-144412629D02*
X141954281Y-144579653D01*
X139217570Y-143820696D02*
X139819839Y-143987720D01*
X140272369Y-148305696D02*
X140874638Y-148472720D01*
X138137927Y-147713763D02*
X138740196Y-147880787D01*
X138137927Y-147713763D02*
X139217570Y-143820696D01*
X140874638Y-148472720D02*
X141954281Y-144579653D01*
X197455757Y-82937294D02*
X195109103Y-83909310D01*
X195109103Y-83909310D02*
X194623095Y-82735983D01*
X194623095Y-82735983D02*
X196969749Y-81763967D01*
X196969749Y-81763967D02*
X197455757Y-82937294D01*
X197941765Y-84110621D02*
X193248457Y-86054653D01*
X193248457Y-86054653D02*
X192276441Y-83707999D01*
X192276441Y-83707999D02*
X196969749Y-81763967D01*
X196969749Y-81763967D02*
X197941765Y-84110621D01*
X151130000Y-150368000D02*
X153670000Y-150368000D01*
X153670000Y-150368000D02*
X153670000Y-145288000D01*
X153670000Y-145288000D02*
X151130000Y-145288000D01*
X151130000Y-145288000D02*
X151130000Y-150368000D01*
X152400000Y-150368000D02*
X153670000Y-150368000D01*
X153670000Y-150368000D02*
X153670000Y-147828000D01*
X153670000Y-147828000D02*
X152400000Y-147828000D01*
X152400000Y-147828000D02*
X152400000Y-150368000D01*
X132563967Y-146169749D02*
X134507999Y-141476441D01*
X134507999Y-141476441D02*
X136854653Y-142448457D01*
X136854653Y-142448457D02*
X134910621Y-147141765D01*
X134910621Y-147141765D02*
X132563967Y-146169749D01*
X133737294Y-146655757D02*
X134709310Y-144309103D01*
X134709310Y-144309103D02*
X135882637Y-144795111D01*
X135882637Y-144795111D02*
X134910621Y-147141765D01*
X134910621Y-147141765D02*
X133737294Y-146655757D01*
X129073778Y-143327984D02*
X129208193Y-143407160D01*
X127078245Y-142152525D02*
X127212659Y-142231701D01*
X128532973Y-139990574D02*
G75*
G03*
X127476092Y-141784482I402006J-1445127D01*
G01*
X129207775Y-143406914D02*
G75*
G03*
X130713113Y-140542203I-272796J1971213D01*
G01*
X129337211Y-142880764D02*
G75*
G03*
X130393811Y-141086692I-402232J1445063D01*
G01*
X128854393Y-139447332D02*
G75*
G03*
X127078662Y-142152771I80586J-1988369D01*
G01*
X104921811Y-96017989D02*
X104900100Y-96172471D01*
X105244136Y-93724528D02*
X105222425Y-93879010D01*
X107798218Y-94241180D02*
G75*
G03*
X105736413Y-93951247I-1181282J-924430D01*
G01*
X105435799Y-96090226D02*
G75*
G03*
X107497650Y-96379835I1181137J924616D01*
G01*
X108423109Y-94330244D02*
G75*
G03*
X105244069Y-93725008I-1806173J-835366D01*
G01*
X104900167Y-96171992D02*
G75*
G03*
X108122883Y-96466465I1716769J1006382D01*
G01*
X106286237Y-87337927D02*
X110179304Y-88417570D01*
X105527280Y-90074638D02*
X109420347Y-91154281D01*
X109587371Y-90552012D02*
X109420347Y-91154281D01*
X110179304Y-88417570D02*
X110012280Y-89019839D01*
X106286237Y-87337927D02*
X106119213Y-87940196D01*
X105694304Y-89472369D02*
X105527280Y-90074638D01*
X185986158Y-136982209D02*
X182394055Y-133390106D01*
X182394055Y-133390106D02*
X184190106Y-131594055D01*
X184190106Y-131594055D02*
X187782209Y-135186158D01*
X187782209Y-135186158D02*
X185986158Y-136982209D01*
X186884183Y-136084183D02*
X185088132Y-134288132D01*
X185088132Y-134288132D02*
X185986158Y-133390106D01*
X185986158Y-133390106D02*
X187782209Y-135186158D01*
X187782209Y-135186158D02*
X186884183Y-136084183D01*
X166662073Y-55486237D02*
X166059804Y-55319213D01*
X166662073Y-55486237D02*
X165582430Y-59379304D01*
X164527631Y-54894304D02*
X163925362Y-54727280D01*
X163447988Y-58787371D02*
X162845719Y-58620347D01*
X165582430Y-59379304D02*
X164980161Y-59212280D01*
X163925362Y-54727280D02*
X162845719Y-58620347D01*
X113486970Y-129375432D02*
X113580853Y-129500019D01*
X114880774Y-131225072D02*
X114974657Y-131349659D01*
X116163149Y-127555864D02*
G75*
G03*
X113487262Y-129375818I-686464J-1867850D01*
G01*
X115295297Y-130912706D02*
G75*
G03*
X116958031Y-129659542I181388J1488992D01*
G01*
X114974366Y-131349272D02*
G75*
G03*
X117461394Y-129278692I502319J1925558D01*
G01*
X115658306Y-127934750D02*
G75*
G03*
X113995376Y-129187654I-181621J-1488964D01*
G01*
X198513763Y-115862073D02*
X194620696Y-114782430D01*
X198513763Y-115862073D02*
X198680787Y-115259804D01*
X199105696Y-113727631D02*
X199272720Y-113125362D01*
X195212629Y-112647988D02*
X195379653Y-112045719D01*
X194620696Y-114782430D02*
X194787720Y-114180161D01*
X199272720Y-113125362D02*
X195379653Y-112045719D01*
X123322033Y-140109394D02*
X123814540Y-140494183D01*
X121576589Y-138745704D02*
X122069096Y-139130492D01*
X121576589Y-138745704D02*
X124063862Y-135562141D01*
X123814540Y-140494183D02*
X126301812Y-137310619D01*
X125809306Y-136925831D02*
X126301812Y-137310619D01*
X124063862Y-135562141D02*
X124556368Y-135946929D01*
X160275472Y-54444136D02*
X160120990Y-54422425D01*
X157982011Y-54121811D02*
X157827529Y-54100100D01*
X157909774Y-54635799D02*
G75*
G03*
X157620165Y-56697650I924616J-1181137D01*
G01*
X159758820Y-56998218D02*
G75*
G03*
X160048753Y-54936413I-924430J1181282D01*
G01*
X157828008Y-54100167D02*
G75*
G03*
X157533535Y-57322883I1006382J-1716769D01*
G01*
X159669756Y-57623109D02*
G75*
G03*
X160274992Y-54444069I-835366J1806173D01*
G01*
X190485208Y-79139006D02*
X190177443Y-78595034D01*
X194001445Y-77149615D02*
X193693680Y-76605643D01*
X195092163Y-79077453D02*
X191575926Y-81066844D01*
X193693680Y-76605643D02*
X190177443Y-78595034D01*
X191575926Y-81066844D02*
X191268162Y-80522872D01*
X195092163Y-79077453D02*
X194784399Y-78533481D01*
X108348465Y-105578185D02*
X108424634Y-106198526D01*
X104684688Y-108889368D02*
X108694574Y-108397016D01*
X104338579Y-106070537D02*
X104414747Y-106690878D01*
X104608520Y-108269027D02*
X104684688Y-108889368D01*
X104338579Y-106070537D02*
X108348465Y-105578185D01*
X108618406Y-107776674D02*
X108694574Y-108397016D01*
X176850385Y-143201445D02*
X177394357Y-142893680D01*
X174860994Y-139685208D02*
X175404966Y-139377443D01*
X174922547Y-144292163D02*
X175466519Y-143984399D01*
X174922547Y-144292163D02*
X172933156Y-140775926D01*
X172933156Y-140775926D02*
X173477128Y-140468162D01*
X177394357Y-142893680D02*
X175404966Y-139377443D01*
X141630219Y-55019850D02*
X141479188Y-55058910D01*
X139387989Y-55599731D02*
X139236958Y-55638790D01*
X142287153Y-58188636D02*
G75*
G03*
X141629751Y-55019972I-1462971J1349005D01*
G01*
X139517947Y-56102237D02*
G75*
G03*
X140039418Y-58117968I1306235J-737394D01*
G01*
X139237427Y-55638669D02*
G75*
G03*
X140198649Y-58728760I1586755J-1200962D01*
G01*
X142130302Y-57577229D02*
G75*
G03*
X141609145Y-55561416I-1306120J737598D01*
G01*
X169889379Y-147141765D02*
X167945347Y-142448457D01*
X167945347Y-142448457D02*
X170292001Y-141476441D01*
X170292001Y-141476441D02*
X172236033Y-146169749D01*
X172236033Y-146169749D02*
X169889379Y-147141765D01*
X171062706Y-146655757D02*
X170090690Y-144309103D01*
X170090690Y-144309103D02*
X171264017Y-143823095D01*
X171264017Y-143823095D02*
X172236033Y-146169749D01*
X172236033Y-146169749D02*
X171062706Y-146655757D01*
X165412011Y-147600269D02*
X165563042Y-147561210D01*
X163169781Y-148180150D02*
X163320812Y-148141090D01*
X162669698Y-145622771D02*
G75*
G03*
X163190855Y-147638584I1306120J-737598D01*
G01*
X165562573Y-147561331D02*
G75*
G03*
X164601351Y-144471240I-1586755J1200962D01*
G01*
X162512847Y-145011364D02*
G75*
G03*
X163170249Y-148180028I1462971J-1349005D01*
G01*
X165282053Y-147097763D02*
G75*
G03*
X164760582Y-145082032I-1306235J737394D01*
G01*
X110672016Y-78273778D02*
X110592840Y-78408193D01*
X111847475Y-76278245D02*
X111768299Y-76412659D01*
X114009426Y-77732973D02*
G75*
G03*
X112215518Y-76676092I-1445127J-402006D01*
G01*
X114552668Y-78054393D02*
G75*
G03*
X111847229Y-76278662I-1988369J-80586D01*
G01*
X111119236Y-78537211D02*
G75*
G03*
X112913308Y-79593811I1445063J402232D01*
G01*
X110593086Y-78407775D02*
G75*
G03*
X113457797Y-79913113I1971213J272796D01*
G01*
X145110632Y-53884688D02*
X145602984Y-57894574D01*
X146223326Y-57818406D02*
X145602984Y-57894574D01*
X147929463Y-53538579D02*
X147309122Y-53614747D01*
X148421815Y-57548465D02*
X147801474Y-57624634D01*
X147929463Y-53538579D02*
X148421815Y-57548465D01*
X145730973Y-53808520D02*
X145110632Y-53884688D01*
X105819850Y-112369781D02*
X105858910Y-112520812D01*
X106399731Y-114612011D02*
X106438790Y-114763042D01*
X108377229Y-111869698D02*
G75*
G03*
X106361416Y-112390855I-737598J-1306120D01*
G01*
X106438669Y-114762573D02*
G75*
G03*
X109528760Y-113801351I1200962J1586755D01*
G01*
X106902237Y-114482053D02*
G75*
G03*
X108917968Y-113960582I737394J1306235D01*
G01*
X108988636Y-111712847D02*
G75*
G03*
X105819972Y-112370249I-1349005J-1462971D01*
G01*
X158576674Y-145381594D02*
X159197016Y-145305426D01*
X156378185Y-145651535D02*
X156998526Y-145575366D01*
X159689368Y-149315312D02*
X159197016Y-145305426D01*
X156870537Y-149661421D02*
X156378185Y-145651535D01*
X159069027Y-149391480D02*
X159689368Y-149315312D01*
X156870537Y-149661421D02*
X157490878Y-149585253D01*
X175726222Y-59872016D02*
X175591807Y-59792840D01*
X177721755Y-61047475D02*
X177587341Y-60968299D01*
X175462789Y-60319236D02*
G75*
G03*
X174406189Y-62113308I402232J-1445063D01*
G01*
X176267027Y-63209426D02*
G75*
G03*
X177323908Y-61415518I-402006J1445127D01*
G01*
X175945607Y-63752668D02*
G75*
G03*
X177721338Y-61047229I-80586J1988369D01*
G01*
X175592225Y-59793086D02*
G75*
G03*
X174086887Y-62657797I272796J-1971213D01*
G01*
M02*
