M48
; DRILL file {KiCad (6.0.5)} date Sun Feb 26 14:45:44 2023
; FORMAT={-:-/ absolute / inch / decimal}
; #@! TF.CreationDate,2023-02-26T14:45:44+09:00
; #@! TF.GenerationSoftware,Kicad,Pcbnew,(6.0.5)
; #@! TF.FileFunction,Plated,1,2,PTH
FMAT,2
INCH
; #@! TA.AperFunction,Plated,PTH,ViaDrill
T1C0.0157
; #@! TA.AperFunction,Plated,PTH,ComponentDrill
T2C0.0236
; #@! TA.AperFunction,Plated,PTH,ComponentDrill
T3C0.0295
; #@! TA.AperFunction,Plated,PTH,ComponentDrill
T4C0.0394
; #@! TA.AperFunction,Plated,PTH,ComponentDrill
T5C0.0433
%
G90
G05
T1
X4.5Y-4.96
X5.09Y-4.5
X5.3Y-5.44
X5.31Y-5.04
X5.35Y-3.075
X5.36Y-3.22
X5.36Y-3.48
X5.477Y-3.6092
X5.5Y-5.13
X5.5Y-5.61
X5.55Y-3.11
X5.55Y-4.91
X5.575Y-4.425
X5.575Y-5.375
X5.6Y-4.775
X5.6535Y-3.4135
X5.66Y-4.37
X5.7Y-4.1884
X5.8Y-3.475
X5.82Y-5.22
X5.82Y-5.4
X5.9Y-3.79
X5.91Y-4.09
X5.94Y-5.12
X5.95Y-3.325
X5.99Y-4.85
X6.0Y-5.61
X6.03Y-4.37
X6.03Y-4.7
X6.075Y-5.375
X6.16Y-3.54
X6.16Y-3.79
X6.16Y-4.09
X6.24Y-5.59
X6.28Y-5.59
X6.3Y-5.4
X6.32Y-5.02
X6.32Y-5.22
X6.32Y-5.4967
X6.36Y-5.4752
X6.39Y-4.71
X6.4Y-3.79
X6.4Y-4.09
X6.4Y-4.37
X6.49Y-5.02
X6.49Y-5.14
X6.5Y-5.61
X6.51Y-5.35
X6.5345Y-3.1055
X6.59Y-4.86
X6.62Y-3.21
X6.62Y-3.5
X6.62Y-4.02
X6.625Y-3.075
X6.63Y-5.35
X6.64Y-5.08
X6.84Y-5.22
X6.84Y-5.4
X6.89Y-4.5
X7.07Y-5.36
X7.44Y-4.96
T3
X5.6Y-4.2632
X5.65Y-4.2632
X5.7Y-4.2632
X5.75Y-4.2632
X5.8Y-4.2632
X5.85Y-4.2632
X5.9Y-4.2632
X5.95Y-4.2632
X6.0Y-4.2632
X6.05Y-4.2632
X6.1Y-4.2632
X6.15Y-4.2632
X6.2Y-4.2632
X6.25Y-4.2632
X6.3Y-4.2632
X6.35Y-4.2636
X6.4Y-4.2636
T4
X5.5504Y-3.04
X5.5506Y-3.176
X5.6504Y-3.04
X5.6506Y-3.176
X5.7504Y-3.04
X5.7506Y-3.176
X5.8504Y-3.04
X5.8506Y-3.176
X5.9504Y-3.04
X5.9506Y-3.176
X6.0504Y-3.04
X6.0506Y-3.176
X6.1504Y-3.04
X6.1506Y-3.176
X6.2504Y-3.04
X6.2506Y-3.176
X6.3504Y-3.04
X6.3506Y-3.176
X6.4504Y-3.04
X6.4506Y-3.176
T5
X5.4441Y-5.2228
X5.4441Y-5.4
X5.7Y-5.2228
X5.7Y-5.4
X5.9441Y-5.2228
X5.9441Y-5.4
X6.2Y-5.2228
X6.2Y-5.4
X6.4441Y-5.2228
X6.4441Y-5.4
X6.7Y-5.2228
X6.7Y-5.4
X6.942Y-5.2228
X6.942Y-5.4
X7.198Y-5.2228
X7.198Y-5.4
T2
G00X5.0799Y-5.6561
M15
G01X5.0799Y-5.6994
M16
G05
G00X5.0799Y-5.8305
M15
G01X5.0799Y-5.8541
M16
G05
G00X5.4201Y-5.6561
M15
G01X5.4201Y-5.6994
M16
G05
G00X5.4201Y-5.8305
M15
G01X5.4201Y-5.8541
M16
G05
G00X5.5799Y-5.7061
M15
G01X5.5799Y-5.7494
M16
G05
G00X5.5799Y-5.8805
M15
G01X5.5799Y-5.9041
M16
G05
G00X5.9201Y-5.7061
M15
G01X5.9201Y-5.7494
M16
G05
G00X5.9201Y-5.8805
M15
G01X5.9201Y-5.9041
M16
G05
G00X6.0799Y-5.7061
M15
G01X6.0799Y-5.7494
M16
G05
G00X6.0799Y-5.8805
M15
G01X6.0799Y-5.9041
M16
G05
G00X6.4201Y-5.7061
M15
G01X6.4201Y-5.7494
M16
G05
G00X6.4201Y-5.8805
M15
G01X6.4201Y-5.9041
M16
G05
G00X6.5799Y-5.6561
M15
G01X6.5799Y-5.6994
M16
G05
G00X6.5799Y-5.8305
M15
G01X6.5799Y-5.8541
M16
G05
G00X6.9201Y-5.6561
M15
G01X6.9201Y-5.6994
M16
G05
G00X6.9201Y-5.8305
M15
G01X6.9201Y-5.8541
M16
G05
T0
M30
