%TF.GenerationSoftware,KiCad,Pcbnew,(6.0.5)*%
%TF.CreationDate,2023-03-02T23:20:37+09:00*%
%TF.ProjectId,line_Inergrate,6c696e65-5f49-46e6-9572-67726174652e,rev?*%
%TF.SameCoordinates,Original*%
%TF.FileFunction,Soldermask,Top*%
%TF.FilePolarity,Negative*%
%FSLAX46Y46*%
G04 Gerber Fmt 4.6, Leading zero omitted, Abs format (unit mm)*
G04 Created by KiCad (PCBNEW (6.0.5)) date 2023-03-02 23:20:37*
%MOMM*%
%LPD*%
G01*
G04 APERTURE LIST*
G04 Aperture macros list*
%AMRoundRect*
0 Rectangle with rounded corners*
0 $1 Rounding radius*
0 $2 $3 $4 $5 $6 $7 $8 $9 X,Y pos of 4 corners*
0 Add a 4 corners polygon primitive as box body*
4,1,4,$2,$3,$4,$5,$6,$7,$8,$9,$2,$3,0*
0 Add four circle primitives for the rounded corners*
1,1,$1+$1,$2,$3*
1,1,$1+$1,$4,$5*
1,1,$1+$1,$6,$7*
1,1,$1+$1,$8,$9*
0 Add four rect primitives between the rounded corners*
20,1,$1+$1,$2,$3,$4,$5,0*
20,1,$1+$1,$4,$5,$6,$7,0*
20,1,$1+$1,$6,$7,$8,$9,0*
20,1,$1+$1,$8,$9,$2,$3,0*%
G04 Aperture macros list end*
%ADD10R,1.700000X1.700000*%
%ADD11O,1.700000X1.700000*%
%ADD12RoundRect,0.062500X-0.375000X-0.062500X0.375000X-0.062500X0.375000X0.062500X-0.375000X0.062500X0*%
%ADD13RoundRect,0.062500X-0.062500X-0.375000X0.062500X-0.375000X0.062500X0.375000X-0.062500X0.375000X0*%
%ADD14R,3.100000X3.100000*%
%ADD15RoundRect,0.147500X-0.172500X0.147500X-0.172500X-0.147500X0.172500X-0.147500X0.172500X0.147500X0*%
%ADD16RoundRect,0.140000X0.140000X0.170000X-0.140000X0.170000X-0.140000X-0.170000X0.140000X-0.170000X0*%
%ADD17C,1.600000*%
%ADD18RoundRect,0.140000X-0.170000X0.140000X-0.170000X-0.140000X0.170000X-0.140000X0.170000X0.140000X0*%
%ADD19RoundRect,0.140000X0.170000X-0.140000X0.170000X0.140000X-0.170000X0.140000X-0.170000X-0.140000X0*%
%ADD20RoundRect,0.075000X0.662500X0.075000X-0.662500X0.075000X-0.662500X-0.075000X0.662500X-0.075000X0*%
%ADD21RoundRect,0.075000X0.075000X0.662500X-0.075000X0.662500X-0.075000X-0.662500X0.075000X-0.662500X0*%
%ADD22RoundRect,0.140000X-0.140000X-0.170000X0.140000X-0.170000X0.140000X0.170000X-0.140000X0.170000X0*%
%ADD23RoundRect,0.135000X-0.185000X0.135000X-0.185000X-0.135000X0.185000X-0.135000X0.185000X0.135000X0*%
%ADD24RoundRect,0.135000X0.135000X0.185000X-0.135000X0.185000X-0.135000X-0.185000X0.135000X-0.185000X0*%
%ADD25RoundRect,0.250000X0.725000X-0.600000X0.725000X0.600000X-0.725000X0.600000X-0.725000X-0.600000X0*%
%ADD26O,1.950000X1.700000*%
%ADD27RoundRect,0.135000X0.185000X-0.135000X0.185000X0.135000X-0.185000X0.135000X-0.185000X-0.135000X0*%
%ADD28R,1.200000X1.400000*%
%ADD29RoundRect,0.135000X-0.135000X-0.185000X0.135000X-0.185000X0.135000X0.185000X-0.135000X0.185000X0*%
%ADD30R,1.400000X1.200000*%
G04 APERTURE END LIST*
D10*
%TO.C,J4*%
X117729000Y-96540000D03*
D11*
X117729000Y-99080000D03*
X117729000Y-101620000D03*
X117729000Y-104160000D03*
X117729000Y-106700000D03*
%TD*%
D12*
%TO.C,U2*%
X157074500Y-85118000D03*
X157074500Y-85618000D03*
X157074500Y-86118000D03*
X157074500Y-86618000D03*
X157074500Y-87118000D03*
X157074500Y-87618000D03*
X157074500Y-88118000D03*
X157074500Y-88618000D03*
D13*
X157762000Y-89305500D03*
X158262000Y-89305500D03*
X158762000Y-89305500D03*
X159262000Y-89305500D03*
X159762000Y-89305500D03*
X160262000Y-89305500D03*
X160762000Y-89305500D03*
X161262000Y-89305500D03*
D12*
X161949500Y-88618000D03*
X161949500Y-88118000D03*
X161949500Y-87618000D03*
X161949500Y-87118000D03*
X161949500Y-86618000D03*
X161949500Y-86118000D03*
X161949500Y-85618000D03*
X161949500Y-85118000D03*
D13*
X161262000Y-84430500D03*
X160762000Y-84430500D03*
X160262000Y-84430500D03*
X159762000Y-84430500D03*
X159262000Y-84430500D03*
X158762000Y-84430500D03*
X158262000Y-84430500D03*
X157762000Y-84430500D03*
D14*
X159512000Y-86868000D03*
%TD*%
D15*
%TO.C,D2*%
X160045000Y-109749000D03*
X160045000Y-110719000D03*
%TD*%
D16*
%TO.C,C7*%
X153134000Y-82042000D03*
X152174000Y-82042000D03*
%TD*%
D17*
%TO.C,C19*%
X143586000Y-127127000D03*
X146086000Y-127127000D03*
%TD*%
%TO.C,C12*%
X169418000Y-106660000D03*
X169418000Y-104160000D03*
%TD*%
D18*
%TO.C,C14*%
X159385000Y-90480000D03*
X159385000Y-91440000D03*
%TD*%
D19*
%TO.C,C5*%
X141986000Y-111732000D03*
X141986000Y-110772000D03*
%TD*%
%TO.C,C6*%
X152019000Y-111732000D03*
X152019000Y-110772000D03*
%TD*%
D20*
%TO.C,U1*%
X153712500Y-107600000D03*
X153712500Y-107100000D03*
X153712500Y-106600000D03*
X153712500Y-106100000D03*
X153712500Y-105600000D03*
X153712500Y-105100000D03*
X153712500Y-104600000D03*
X153712500Y-104100000D03*
X153712500Y-103600000D03*
X153712500Y-103100000D03*
X153712500Y-102600000D03*
X153712500Y-102100000D03*
X153712500Y-101600000D03*
X153712500Y-101100000D03*
X153712500Y-100600000D03*
X153712500Y-100100000D03*
X153712500Y-99600000D03*
X153712500Y-99100000D03*
X153712500Y-98600000D03*
X153712500Y-98100000D03*
X153712500Y-97600000D03*
X153712500Y-97100000D03*
X153712500Y-96600000D03*
X153712500Y-96100000D03*
X153712500Y-95600000D03*
D21*
X152050000Y-93937500D03*
X151550000Y-93937500D03*
X151050000Y-93937500D03*
X150550000Y-93937500D03*
X150050000Y-93937500D03*
X149550000Y-93937500D03*
X149050000Y-93937500D03*
X148550000Y-93937500D03*
X148050000Y-93937500D03*
X147550000Y-93937500D03*
X147050000Y-93937500D03*
X146550000Y-93937500D03*
X146050000Y-93937500D03*
X145550000Y-93937500D03*
X145050000Y-93937500D03*
X144550000Y-93937500D03*
X144050000Y-93937500D03*
X143550000Y-93937500D03*
X143050000Y-93937500D03*
X142550000Y-93937500D03*
X142050000Y-93937500D03*
X141550000Y-93937500D03*
X141050000Y-93937500D03*
X140550000Y-93937500D03*
X140050000Y-93937500D03*
D20*
X138387500Y-95600000D03*
X138387500Y-96100000D03*
X138387500Y-96600000D03*
X138387500Y-97100000D03*
X138387500Y-97600000D03*
X138387500Y-98100000D03*
X138387500Y-98600000D03*
X138387500Y-99100000D03*
X138387500Y-99600000D03*
X138387500Y-100100000D03*
X138387500Y-100600000D03*
X138387500Y-101100000D03*
X138387500Y-101600000D03*
X138387500Y-102100000D03*
X138387500Y-102600000D03*
X138387500Y-103100000D03*
X138387500Y-103600000D03*
X138387500Y-104100000D03*
X138387500Y-104600000D03*
X138387500Y-105100000D03*
X138387500Y-105600000D03*
X138387500Y-106100000D03*
X138387500Y-106600000D03*
X138387500Y-107100000D03*
X138387500Y-107600000D03*
D21*
X140050000Y-109262500D03*
X140550000Y-109262500D03*
X141050000Y-109262500D03*
X141550000Y-109262500D03*
X142050000Y-109262500D03*
X142550000Y-109262500D03*
X143050000Y-109262500D03*
X143550000Y-109262500D03*
X144050000Y-109262500D03*
X144550000Y-109262500D03*
X145050000Y-109262500D03*
X145550000Y-109262500D03*
X146050000Y-109262500D03*
X146550000Y-109262500D03*
X147050000Y-109262500D03*
X147550000Y-109262500D03*
X148050000Y-109262500D03*
X148550000Y-109262500D03*
X149050000Y-109262500D03*
X149550000Y-109262500D03*
X150050000Y-109262500D03*
X150550000Y-109262500D03*
X151050000Y-109262500D03*
X151550000Y-109262500D03*
X152050000Y-109262500D03*
%TD*%
D22*
%TO.C,C16*%
X153063000Y-92710000D03*
X154023000Y-92710000D03*
%TD*%
D19*
%TO.C,C2*%
X151130000Y-91285000D03*
X151130000Y-90325000D03*
%TD*%
D23*
%TO.C,R10*%
X142784000Y-91438000D03*
X142784000Y-92458000D03*
%TD*%
D10*
%TO.C,J2*%
X174371000Y-106660000D03*
D11*
X174371000Y-104120000D03*
X174371000Y-101580000D03*
X174371000Y-99040000D03*
X174371000Y-96500000D03*
%TD*%
D24*
%TO.C,R7*%
X155956000Y-88646000D03*
X154936000Y-88646000D03*
%TD*%
D16*
%TO.C,C8*%
X153134000Y-87376000D03*
X152174000Y-87376000D03*
%TD*%
D17*
%TO.C,C9*%
X142260000Y-76073000D03*
X139760000Y-76073000D03*
%TD*%
D19*
%TO.C,C3*%
X155194000Y-104239000D03*
X155194000Y-103279000D03*
%TD*%
D17*
%TO.C,C18*%
X122735000Y-96481000D03*
X122735000Y-98981000D03*
%TD*%
D15*
%TO.C,D3*%
X164109000Y-109749000D03*
X164109000Y-110719000D03*
%TD*%
D22*
%TO.C,C4*%
X135918000Y-100584000D03*
X136878000Y-100584000D03*
%TD*%
D25*
%TO.C,J7*%
X130285000Y-107723000D03*
D26*
X130285000Y-105223000D03*
X130285000Y-102723000D03*
X130285000Y-100223000D03*
X130285000Y-97723000D03*
X130285000Y-95223000D03*
%TD*%
D27*
%TO.C,R3*%
X159029000Y-110744000D03*
X159029000Y-109724000D03*
%TD*%
D24*
%TO.C,R1*%
X164086000Y-85090000D03*
X163066000Y-85090000D03*
%TD*%
D10*
%TO.C,J6*%
X157451000Y-94625000D03*
D11*
X157451000Y-97165000D03*
X157451000Y-99705000D03*
X157451000Y-102245000D03*
%TD*%
D19*
%TO.C,C1*%
X145796000Y-91285000D03*
X145796000Y-90325000D03*
%TD*%
D15*
%TO.C,D1*%
X162077000Y-109749000D03*
X162077000Y-110719000D03*
%TD*%
D27*
%TO.C,R5*%
X156997000Y-110742000D03*
X156997000Y-109722000D03*
%TD*%
D18*
%TO.C,C13*%
X157734000Y-82324000D03*
X157734000Y-83284000D03*
%TD*%
D27*
%TO.C,R4*%
X163093000Y-110744000D03*
X163093000Y-109724000D03*
%TD*%
D23*
%TO.C,R9*%
X143761000Y-91440000D03*
X143761000Y-92460000D03*
%TD*%
D28*
%TO.C,Y2*%
X152820000Y-83609000D03*
X152820000Y-85809000D03*
X154520000Y-85809000D03*
X154520000Y-83609000D03*
%TD*%
D29*
%TO.C,R11*%
X153042000Y-93759000D03*
X154062000Y-93759000D03*
%TD*%
D17*
%TO.C,C17*%
X120523000Y-99080000D03*
X120523000Y-101580000D03*
%TD*%
D10*
%TO.C,J1*%
X149860000Y-73279000D03*
D11*
X147320000Y-73279000D03*
X144780000Y-73279000D03*
X142240000Y-73279000D03*
%TD*%
D23*
%TO.C,R8*%
X157099000Y-90422000D03*
X157099000Y-91442000D03*
%TD*%
D27*
%TO.C,R2*%
X161061000Y-110744000D03*
X161061000Y-109724000D03*
%TD*%
D19*
%TO.C,C10*%
X160401000Y-83284000D03*
X160401000Y-82324000D03*
%TD*%
D10*
%TO.C,J3*%
X160807000Y-102235000D03*
D11*
X160807000Y-99695000D03*
X160807000Y-97155000D03*
X160807000Y-94615000D03*
%TD*%
D30*
%TO.C,Y1*%
X147363000Y-91274000D03*
X149563000Y-91274000D03*
X149563000Y-89574000D03*
X147363000Y-89574000D03*
%TD*%
D17*
%TO.C,C20*%
X140990000Y-124968000D03*
X143490000Y-124968000D03*
%TD*%
D27*
%TO.C,R6*%
X160401000Y-91470000D03*
X160401000Y-90450000D03*
%TD*%
D15*
%TO.C,D4*%
X158013000Y-109747000D03*
X158013000Y-110717000D03*
%TD*%
D10*
%TO.C,J5*%
X140990000Y-129921000D03*
D11*
X143530000Y-129921000D03*
X146070000Y-129921000D03*
X148610000Y-129921000D03*
X151150000Y-129921000D03*
%TD*%
D17*
%TO.C,C11*%
X171577000Y-104120000D03*
X171577000Y-101620000D03*
%TD*%
D18*
%TO.C,C15*%
X151003000Y-110772000D03*
X151003000Y-111732000D03*
%TD*%
M02*
