M48
; DRILL file {KiCad (6.0.5)} date Thu Mar  2 23:20:41 2023
; FORMAT={-:-/ absolute / inch / decimal}
; #@! TF.CreationDate,2023-03-02T23:20:41+09:00
; #@! TF.GenerationSoftware,Kicad,Pcbnew,(6.0.5)
; #@! TF.FileFunction,Plated,1,2,PTH
FMAT,2
INCH
; #@! TA.AperFunction,Plated,PTH,ViaDrill
T1C0.0157
; #@! TA.AperFunction,Plated,PTH,ComponentDrill
T2C0.0315
; #@! TA.AperFunction,Plated,PTH,ComponentDrill
T3C0.0374
; #@! TA.AperFunction,Plated,PTH,ComponentDrill
T4C0.0394
%
G90
G05
T1
X4.69Y-3.95
X4.705Y-4.065
X4.705Y-4.14
X4.75Y-4.32
X4.79Y-4.625
X4.795Y-4.06
X4.835Y-4.405
X4.84Y-3.475
X4.875Y-4.14
X4.98Y-4.11
X5.04Y-4.045
X5.06Y-4.325
X5.07Y-4.405
X5.175Y-5.08
X5.19Y-4.5
X5.19Y-4.8
X5.2Y-3.815
X5.2Y-4.1
X5.205Y-3.74
X5.21Y-3.935
X5.25Y-3.125
X5.26Y-4.395
X5.375Y-3.765
X5.375Y-3.905
X5.435Y-3.51
X5.435Y-3.595
X5.44Y-3.71
X5.45Y-5.06
X5.545Y-3.98
X5.545Y-4.395
X5.575Y-3.64
X5.595Y-4.495
X5.595Y-4.655
X5.6Y-4.845
X5.67Y-4.38
X5.705Y-3.48
X5.705Y-3.635
X5.705Y-5.06
X5.755Y-4.5
X5.785Y-4.365
X5.7855Y-4.4048
X5.795Y-3.385
X5.845Y-3.305
X5.85Y-3.01
X5.87Y-3.785
X5.87Y-4.22
X5.87Y-4.46
X5.9Y-5.045
X5.94Y-3.235
X5.945Y-3.41
X5.945Y-3.52
X5.955Y-3.11
X5.955Y-4.04
X5.9569Y-4.2331
X5.965Y-4.725
X5.98Y-3.005
X5.995Y-2.87
X6.05Y-4.39
X6.0519Y-3.5373
X6.11Y-4.14
X6.1163Y-3.64
X6.12Y-4.265
X6.1494Y-4.14
X6.1556Y-3.64
X6.165Y-3.11
X6.195Y-3.64
X6.2Y-4.11
X6.205Y-4.22
X6.215Y-3.155
X6.215Y-3.195
X6.2465Y-3.6267
X6.301Y-4.2799
X6.3069Y-3.645
X6.31Y-4.125
X6.33Y-5.055
X6.365Y-4.615
X6.375Y-4.21
X6.381Y-4.2799
X6.385Y-2.98
X6.455Y-4.125
X6.485Y-4.265
X6.485Y-4.485
X6.485Y-4.605
X6.52Y-3.465
X6.57Y-4.18
X6.605Y-4.485
X6.785Y-3.36
X6.79Y-3.745
X6.795Y-4.155
X6.81Y-3.95
X6.81Y-4.05
X6.815Y-4.59
T2
X4.745Y-3.9008
X4.745Y-3.9992
X4.8321Y-3.7985
X4.8321Y-3.8969
X5.5024Y-2.995
X5.5508Y-4.92
X5.6008Y-2.995
X5.6492Y-4.92
X5.653Y-5.005
X5.7514Y-5.005
X6.67Y-4.1008
X6.67Y-4.1992
X6.755Y-4.0008
X6.755Y-4.0992
T3
X5.1293Y-3.7489
X5.1293Y-3.8474
X5.1293Y-3.9458
X5.1293Y-4.0442
X5.1293Y-4.1426
X5.1293Y-4.2411
T4
X4.635Y-3.8008
X4.635Y-3.9008
X4.635Y-4.0008
X4.635Y-4.1008
X4.635Y-4.2008
X5.5508Y-5.115
X5.6Y-2.885
X5.6508Y-5.115
X5.7Y-2.885
X5.7508Y-5.115
X5.8Y-2.885
X5.8508Y-5.115
X5.9Y-2.885
X5.9508Y-5.115
X6.1989Y-3.7254
X6.1989Y-3.8254
X6.1989Y-3.9254
X6.1989Y-4.0254
X6.331Y-3.725
X6.331Y-3.825
X6.331Y-3.925
X6.331Y-4.025
X6.865Y-3.7992
X6.865Y-3.8992
X6.865Y-3.9992
X6.865Y-4.0992
X6.865Y-4.1992
T0
M30
