%TF.GenerationSoftware,KiCad,Pcbnew,(6.0.5)*%
%TF.CreationDate,2023-03-02T23:20:37+09:00*%
%TF.ProjectId,line_Inergrate,6c696e65-5f49-46e6-9572-67726174652e,rev?*%
%TF.SameCoordinates,Original*%
%TF.FileFunction,Legend,Top*%
%TF.FilePolarity,Positive*%
%FSLAX46Y46*%
G04 Gerber Fmt 4.6, Leading zero omitted, Abs format (unit mm)*
G04 Created by KiCad (PCBNEW (6.0.5)) date 2023-03-02 23:20:37*
%MOMM*%
%LPD*%
G01*
G04 APERTURE LIST*
%ADD10C,0.150000*%
%ADD11C,0.120000*%
%ADD12C,0.100000*%
G04 APERTURE END LIST*
D10*
%TO.C,C7*%
X152487333Y-83559142D02*
X152439714Y-83606761D01*
X152296857Y-83654380D01*
X152201619Y-83654380D01*
X152058761Y-83606761D01*
X151963523Y-83511523D01*
X151915904Y-83416285D01*
X151868285Y-83225809D01*
X151868285Y-83082952D01*
X151915904Y-82892476D01*
X151963523Y-82797238D01*
X152058761Y-82702000D01*
X152201619Y-82654380D01*
X152296857Y-82654380D01*
X152439714Y-82702000D01*
X152487333Y-82749619D01*
X152820666Y-82654380D02*
X153487333Y-82654380D01*
X153058761Y-83654380D01*
%TO.C,C9*%
X140843333Y-78480142D02*
X140795714Y-78527761D01*
X140652857Y-78575380D01*
X140557619Y-78575380D01*
X140414761Y-78527761D01*
X140319523Y-78432523D01*
X140271904Y-78337285D01*
X140224285Y-78146809D01*
X140224285Y-78003952D01*
X140271904Y-77813476D01*
X140319523Y-77718238D01*
X140414761Y-77623000D01*
X140557619Y-77575380D01*
X140652857Y-77575380D01*
X140795714Y-77623000D01*
X140843333Y-77670619D01*
X141319523Y-78575380D02*
X141510000Y-78575380D01*
X141605238Y-78527761D01*
X141652857Y-78480142D01*
X141748095Y-78337285D01*
X141795714Y-78146809D01*
X141795714Y-77765857D01*
X141748095Y-77670619D01*
X141700476Y-77623000D01*
X141605238Y-77575380D01*
X141414761Y-77575380D01*
X141319523Y-77623000D01*
X141271904Y-77670619D01*
X141224285Y-77765857D01*
X141224285Y-78003952D01*
X141271904Y-78099190D01*
X141319523Y-78146809D01*
X141414761Y-78194428D01*
X141605238Y-78194428D01*
X141700476Y-78146809D01*
X141748095Y-78099190D01*
X141795714Y-78003952D01*
%TO.C,R4*%
X162375380Y-110400666D02*
X161899190Y-110734000D01*
X162375380Y-110972095D02*
X161375380Y-110972095D01*
X161375380Y-110591142D01*
X161423000Y-110495904D01*
X161470619Y-110448285D01*
X161565857Y-110400666D01*
X161708714Y-110400666D01*
X161803952Y-110448285D01*
X161851571Y-110495904D01*
X161899190Y-110591142D01*
X161899190Y-110972095D01*
X161708714Y-109543523D02*
X162375380Y-109543523D01*
X161327761Y-109781619D02*
X162042047Y-110019714D01*
X162042047Y-109400666D01*
%TO.C,J1*%
X152082380Y-69232333D02*
X152796666Y-69232333D01*
X152939523Y-69279952D01*
X153034761Y-69375190D01*
X153082380Y-69518047D01*
X153082380Y-69613285D01*
X153082380Y-68232333D02*
X153082380Y-68803761D01*
X153082380Y-68518047D02*
X152082380Y-68518047D01*
X152225238Y-68613285D01*
X152320476Y-68708523D01*
X152368095Y-68803761D01*
D11*
%TO.C,J4*%
X107639000Y-95802380D02*
X116269000Y-95802380D01*
X116269000Y-96900000D02*
X116619000Y-96900000D01*
X116269000Y-101980000D02*
X116679000Y-101980000D01*
X116269000Y-95210000D02*
X116269000Y-108030000D01*
X107639000Y-96629045D02*
X116269000Y-96629045D01*
X107639000Y-97573805D02*
X116269000Y-97573805D01*
X107639000Y-95448095D02*
X116269000Y-95448095D01*
X107639000Y-105430000D02*
X116269000Y-105430000D01*
X116269000Y-103800000D02*
X116679000Y-103800000D01*
X116269000Y-98720000D02*
X116679000Y-98720000D01*
X117729000Y-95210000D02*
X118839000Y-95210000D01*
X107639000Y-95684285D02*
X116269000Y-95684285D01*
X116269000Y-106340000D02*
X116679000Y-106340000D01*
X107639000Y-100350000D02*
X116269000Y-100350000D01*
X116269000Y-101260000D02*
X116679000Y-101260000D01*
X116269000Y-104520000D02*
X116679000Y-104520000D01*
X107639000Y-95330000D02*
X116269000Y-95330000D01*
X107639000Y-96865235D02*
X116269000Y-96865235D01*
X107639000Y-97337615D02*
X116269000Y-97337615D01*
X107639000Y-96156665D02*
X116269000Y-96156665D01*
X107639000Y-95210000D02*
X116269000Y-95210000D01*
X116269000Y-107060000D02*
X116679000Y-107060000D01*
X107639000Y-108030000D02*
X116269000Y-108030000D01*
X107639000Y-96038570D02*
X116269000Y-96038570D01*
X116269000Y-96180000D02*
X116619000Y-96180000D01*
X116269000Y-99440000D02*
X116679000Y-99440000D01*
X107639000Y-102890000D02*
X116269000Y-102890000D01*
X107639000Y-97810000D02*
X116269000Y-97810000D01*
X107639000Y-97691900D02*
X116269000Y-97691900D01*
X107639000Y-95210000D02*
X107639000Y-108030000D01*
X107639000Y-97219520D02*
X116269000Y-97219520D01*
X118839000Y-95210000D02*
X118839000Y-96540000D01*
X107639000Y-95566190D02*
X116269000Y-95566190D01*
X107639000Y-95920475D02*
X116269000Y-95920475D01*
X107639000Y-96510950D02*
X116269000Y-96510950D01*
X107639000Y-96274760D02*
X116269000Y-96274760D01*
X107639000Y-96747140D02*
X116269000Y-96747140D01*
X107639000Y-97101425D02*
X116269000Y-97101425D01*
X107639000Y-97455710D02*
X116269000Y-97455710D01*
X107639000Y-96392855D02*
X116269000Y-96392855D01*
X107639000Y-96983330D02*
X116269000Y-96983330D01*
%TO.C,U2*%
X162122000Y-84258000D02*
X162122000Y-84733000D01*
X157377000Y-84258000D02*
X156902000Y-84258000D01*
X157377000Y-89478000D02*
X156902000Y-89478000D01*
X161647000Y-84258000D02*
X162122000Y-84258000D01*
X161647000Y-89478000D02*
X162122000Y-89478000D01*
X156902000Y-89478000D02*
X156902000Y-89003000D01*
X162122000Y-89478000D02*
X162122000Y-89003000D01*
D12*
%TO.C,D2*%
X160095000Y-109144000D02*
G75*
G03*
X160095000Y-109144000I-50000J0D01*
G01*
D11*
%TO.C,C7*%
X152761836Y-81682000D02*
X152546164Y-81682000D01*
X152761836Y-82402000D02*
X152546164Y-82402000D01*
%TO.C,C19*%
X144207000Y-126207000D02*
X145465000Y-126207000D01*
X144207000Y-128047000D02*
X145465000Y-128047000D01*
%TO.C,C12*%
X168498000Y-106039000D02*
X168498000Y-104781000D01*
X170338000Y-106039000D02*
X170338000Y-104781000D01*
%TO.C,C14*%
X159025000Y-90852164D02*
X159025000Y-91067836D01*
X159745000Y-90852164D02*
X159745000Y-91067836D01*
%TO.C,C5*%
X142346000Y-111359836D02*
X142346000Y-111144164D01*
X141626000Y-111359836D02*
X141626000Y-111144164D01*
%TO.C,C6*%
X152379000Y-111359836D02*
X152379000Y-111144164D01*
X151659000Y-111359836D02*
X151659000Y-111144164D01*
%TO.C,U1*%
X153160000Y-108010000D02*
X154450000Y-108010000D01*
X152460000Y-108710000D02*
X153160000Y-108710000D01*
X153160000Y-108710000D02*
X153160000Y-108010000D01*
X139640000Y-108710000D02*
X138940000Y-108710000D01*
X153160000Y-94490000D02*
X153160000Y-95190000D01*
X138940000Y-94490000D02*
X138940000Y-95190000D01*
X152460000Y-94490000D02*
X153160000Y-94490000D01*
X138940000Y-108710000D02*
X138940000Y-108010000D01*
X139640000Y-94490000D02*
X138940000Y-94490000D01*
%TO.C,C16*%
X153435164Y-92350000D02*
X153650836Y-92350000D01*
X153435164Y-93070000D02*
X153650836Y-93070000D01*
%TO.C,C2*%
X151490000Y-90912836D02*
X151490000Y-90697164D01*
X150770000Y-90912836D02*
X150770000Y-90697164D01*
%TO.C,R10*%
X142404000Y-91794359D02*
X142404000Y-92101641D01*
X143164000Y-91794359D02*
X143164000Y-92101641D01*
%TO.C,J2*%
X184461000Y-105626195D02*
X175831000Y-105626195D01*
X184461000Y-106334765D02*
X175831000Y-106334765D01*
X175831000Y-107990000D02*
X175831000Y-95170000D01*
X175831000Y-103760000D02*
X175421000Y-103760000D01*
X175831000Y-98680000D02*
X175421000Y-98680000D01*
X184461000Y-107161430D02*
X175831000Y-107161430D01*
X184461000Y-106098575D02*
X175831000Y-106098575D01*
X175831000Y-104480000D02*
X175421000Y-104480000D01*
X184461000Y-106925240D02*
X175831000Y-106925240D01*
X175831000Y-96140000D02*
X175421000Y-96140000D01*
X175831000Y-96860000D02*
X175421000Y-96860000D01*
X174371000Y-107990000D02*
X173261000Y-107990000D01*
X184461000Y-107990000D02*
X184461000Y-95170000D01*
X184461000Y-106807145D02*
X175831000Y-106807145D01*
X184461000Y-105390000D02*
X175831000Y-105390000D01*
X184461000Y-107397620D02*
X175831000Y-107397620D01*
X184461000Y-106216670D02*
X175831000Y-106216670D01*
X184461000Y-100310000D02*
X175831000Y-100310000D01*
X175831000Y-106300000D02*
X175481000Y-106300000D01*
X184461000Y-97770000D02*
X175831000Y-97770000D01*
X175831000Y-99400000D02*
X175421000Y-99400000D01*
X184461000Y-95170000D02*
X175831000Y-95170000D01*
X184461000Y-107043335D02*
X175831000Y-107043335D01*
X184461000Y-106689050D02*
X175831000Y-106689050D01*
X184461000Y-107751905D02*
X175831000Y-107751905D01*
X184461000Y-107990000D02*
X175831000Y-107990000D01*
X175831000Y-101220000D02*
X175421000Y-101220000D01*
X173261000Y-107990000D02*
X173261000Y-106660000D01*
X184461000Y-105744290D02*
X175831000Y-105744290D01*
X184461000Y-107633810D02*
X175831000Y-107633810D01*
X184461000Y-105980480D02*
X175831000Y-105980480D01*
X175831000Y-107020000D02*
X175481000Y-107020000D01*
X184461000Y-102850000D02*
X175831000Y-102850000D01*
X184461000Y-105508100D02*
X175831000Y-105508100D01*
X184461000Y-106452860D02*
X175831000Y-106452860D01*
X184461000Y-107515715D02*
X175831000Y-107515715D01*
X175831000Y-101940000D02*
X175421000Y-101940000D01*
X184461000Y-107279525D02*
X175831000Y-107279525D01*
X184461000Y-105862385D02*
X175831000Y-105862385D01*
X184461000Y-106570955D02*
X175831000Y-106570955D01*
X184461000Y-107870000D02*
X175831000Y-107870000D01*
%TO.C,R7*%
X155599641Y-88266000D02*
X155292359Y-88266000D01*
X155599641Y-89026000D02*
X155292359Y-89026000D01*
%TO.C,C8*%
X152761836Y-87736000D02*
X152546164Y-87736000D01*
X152761836Y-87016000D02*
X152546164Y-87016000D01*
%TO.C,C9*%
X141639000Y-76993000D02*
X140381000Y-76993000D01*
X141639000Y-75153000D02*
X140381000Y-75153000D01*
%TO.C,C3*%
X154834000Y-103866836D02*
X154834000Y-103651164D01*
X155554000Y-103866836D02*
X155554000Y-103651164D01*
%TO.C,C18*%
X121815000Y-97102000D02*
X121815000Y-98360000D01*
X123655000Y-97102000D02*
X123655000Y-98360000D01*
D12*
%TO.C,D3*%
X164159000Y-109144000D02*
G75*
G03*
X164159000Y-109144000I-50000J0D01*
G01*
D11*
%TO.C,C4*%
X136290164Y-100944000D02*
X136505836Y-100944000D01*
X136290164Y-100224000D02*
X136505836Y-100224000D01*
%TO.C,J7*%
X127835000Y-94473000D02*
X128585000Y-94473000D01*
X127825000Y-110283000D02*
X133795000Y-110283000D01*
X128585000Y-95973000D02*
X127835000Y-95973000D01*
X133795000Y-92663000D02*
X127825000Y-92663000D01*
X133795000Y-110283000D02*
X133795000Y-92663000D01*
X128585000Y-106973000D02*
X128585000Y-95973000D01*
X127835000Y-110273000D02*
X128585000Y-110273000D01*
X133035000Y-109523000D02*
X133035000Y-101473000D01*
X133035000Y-93423000D02*
X133035000Y-101473000D01*
X130085000Y-93423000D02*
X133035000Y-93423000D01*
X127835000Y-108473000D02*
X127835000Y-110273000D01*
X127535000Y-109323000D02*
X127535000Y-110573000D01*
X128585000Y-92673000D02*
X127835000Y-92673000D01*
X130085000Y-92673000D02*
X130085000Y-93423000D01*
X127835000Y-92673000D02*
X127835000Y-94473000D01*
X127825000Y-92663000D02*
X127825000Y-110283000D01*
X127835000Y-106973000D02*
X128585000Y-106973000D01*
X128585000Y-108473000D02*
X127835000Y-108473000D01*
X127535000Y-110573000D02*
X128785000Y-110573000D01*
X127835000Y-95973000D02*
X127835000Y-106973000D01*
X128585000Y-94473000D02*
X128585000Y-92673000D01*
X130085000Y-110273000D02*
X130085000Y-109523000D01*
X130085000Y-109523000D02*
X133035000Y-109523000D01*
X128585000Y-110273000D02*
X128585000Y-108473000D01*
%TO.C,R3*%
X159409000Y-110387641D02*
X159409000Y-110080359D01*
X158649000Y-110387641D02*
X158649000Y-110080359D01*
%TO.C,R1*%
X163729641Y-85470000D02*
X163422359Y-85470000D01*
X163729641Y-84710000D02*
X163422359Y-84710000D01*
%TO.C,J6*%
X156121000Y-95895000D02*
X158781000Y-95895000D01*
X157451000Y-93295000D02*
X158781000Y-93295000D01*
X156121000Y-103575000D02*
X158781000Y-103575000D01*
X158781000Y-95895000D02*
X158781000Y-103575000D01*
X158781000Y-93295000D02*
X158781000Y-94625000D01*
X156121000Y-95895000D02*
X156121000Y-103575000D01*
%TO.C,C1*%
X145436000Y-90912836D02*
X145436000Y-90697164D01*
X146156000Y-90912836D02*
X146156000Y-90697164D01*
D12*
%TO.C,D1*%
X162127000Y-109144000D02*
G75*
G03*
X162127000Y-109144000I-50000J0D01*
G01*
D11*
%TO.C,R5*%
X157377000Y-110385641D02*
X157377000Y-110078359D01*
X156617000Y-110385641D02*
X156617000Y-110078359D01*
%TO.C,C13*%
X157374000Y-82696164D02*
X157374000Y-82911836D01*
X158094000Y-82696164D02*
X158094000Y-82911836D01*
%TO.C,R4*%
X162713000Y-110387641D02*
X162713000Y-110080359D01*
X163473000Y-110387641D02*
X163473000Y-110080359D01*
%TO.C,R9*%
X144141000Y-91796359D02*
X144141000Y-92103641D01*
X143381000Y-91796359D02*
X143381000Y-92103641D01*
%TO.C,Y2*%
X152020000Y-82709000D02*
X152020000Y-86709000D01*
X155320000Y-82709000D02*
X152020000Y-82709000D01*
%TO.C,R11*%
X153398359Y-94139000D02*
X153705641Y-94139000D01*
X153398359Y-93379000D02*
X153705641Y-93379000D01*
%TO.C,C17*%
X119603000Y-99701000D02*
X119603000Y-100959000D01*
X121443000Y-99701000D02*
X121443000Y-100959000D01*
%TO.C,J1*%
X150715715Y-63189000D02*
X150715715Y-71819000D01*
X151190000Y-73279000D02*
X151190000Y-74389000D01*
X149062385Y-63189000D02*
X149062385Y-71819000D01*
X149652860Y-63189000D02*
X149652860Y-71819000D01*
X147680000Y-71819000D02*
X147680000Y-72229000D01*
X143510000Y-63189000D02*
X143510000Y-71819000D01*
X149298575Y-63189000D02*
X149298575Y-71819000D01*
X150243335Y-63189000D02*
X150243335Y-71819000D01*
X144420000Y-71819000D02*
X144420000Y-72229000D01*
X146960000Y-71819000D02*
X146960000Y-72229000D01*
X150007145Y-63189000D02*
X150007145Y-71819000D01*
X151190000Y-71819000D02*
X140910000Y-71819000D01*
X141880000Y-71819000D02*
X141880000Y-72229000D01*
X150479525Y-63189000D02*
X150479525Y-71819000D01*
X149180480Y-63189000D02*
X149180480Y-71819000D01*
X149770955Y-63189000D02*
X149770955Y-71819000D01*
X140910000Y-63189000D02*
X140910000Y-71819000D01*
X150220000Y-71819000D02*
X150220000Y-72169000D01*
X151190000Y-63189000D02*
X151190000Y-71819000D01*
X151070000Y-63189000D02*
X151070000Y-71819000D01*
X150951905Y-63189000D02*
X150951905Y-71819000D01*
X150125240Y-63189000D02*
X150125240Y-71819000D01*
X149416670Y-63189000D02*
X149416670Y-71819000D01*
X149500000Y-71819000D02*
X149500000Y-72169000D01*
X149534765Y-63189000D02*
X149534765Y-71819000D01*
X150833810Y-63189000D02*
X150833810Y-71819000D01*
X145140000Y-71819000D02*
X145140000Y-72229000D01*
X148826195Y-63189000D02*
X148826195Y-71819000D01*
X149889050Y-63189000D02*
X149889050Y-71819000D01*
X148708100Y-63189000D02*
X148708100Y-71819000D01*
X150597620Y-63189000D02*
X150597620Y-71819000D01*
X148590000Y-63189000D02*
X148590000Y-71819000D01*
X142600000Y-71819000D02*
X142600000Y-72229000D01*
X151190000Y-74389000D02*
X149860000Y-74389000D01*
X150361430Y-63189000D02*
X150361430Y-71819000D01*
X151190000Y-63189000D02*
X140910000Y-63189000D01*
X148944290Y-63189000D02*
X148944290Y-71819000D01*
X146050000Y-63189000D02*
X146050000Y-71819000D01*
%TO.C,R8*%
X156719000Y-90778359D02*
X156719000Y-91085641D01*
X157479000Y-90778359D02*
X157479000Y-91085641D01*
%TO.C,R2*%
X161441000Y-110387641D02*
X161441000Y-110080359D01*
X160681000Y-110387641D02*
X160681000Y-110080359D01*
%TO.C,C10*%
X160041000Y-82911836D02*
X160041000Y-82696164D01*
X160761000Y-82911836D02*
X160761000Y-82696164D01*
%TO.C,J3*%
X162137000Y-93285000D02*
X159477000Y-93285000D01*
X162137000Y-100965000D02*
X162137000Y-93285000D01*
X159477000Y-103565000D02*
X159477000Y-102235000D01*
X162137000Y-100965000D02*
X159477000Y-100965000D01*
X159477000Y-100965000D02*
X159477000Y-93285000D01*
X160807000Y-103565000D02*
X159477000Y-103565000D01*
%TO.C,Y1*%
X146463000Y-88774000D02*
X146463000Y-92074000D01*
X146463000Y-92074000D02*
X150463000Y-92074000D01*
%TO.C,C20*%
X141611000Y-125888000D02*
X142869000Y-125888000D01*
X141611000Y-124048000D02*
X142869000Y-124048000D01*
%TO.C,R6*%
X160781000Y-91113641D02*
X160781000Y-90806359D01*
X160021000Y-91113641D02*
X160021000Y-90806359D01*
D12*
%TO.C,D4*%
X158063000Y-109142000D02*
G75*
G03*
X158063000Y-109142000I-50000J0D01*
G01*
D11*
%TO.C,J5*%
X141787615Y-140011000D02*
X141787615Y-131381000D01*
X140370475Y-140011000D02*
X140370475Y-131381000D01*
X141669520Y-140011000D02*
X141669520Y-131381000D01*
X140724760Y-140011000D02*
X140724760Y-131381000D01*
X148970000Y-131381000D02*
X148970000Y-130971000D01*
X140606665Y-140011000D02*
X140606665Y-131381000D01*
X139780000Y-140011000D02*
X139780000Y-131381000D01*
X146430000Y-131381000D02*
X146430000Y-130971000D01*
X149880000Y-140011000D02*
X149880000Y-131381000D01*
X152480000Y-140011000D02*
X152480000Y-131381000D01*
X140252380Y-140011000D02*
X140252380Y-131381000D01*
X141551425Y-140011000D02*
X141551425Y-131381000D01*
X140016190Y-140011000D02*
X140016190Y-131381000D01*
X143170000Y-131381000D02*
X143170000Y-130971000D01*
X141079045Y-140011000D02*
X141079045Y-131381000D01*
X139660000Y-128811000D02*
X140990000Y-128811000D01*
X147340000Y-140011000D02*
X147340000Y-131381000D01*
X140488570Y-140011000D02*
X140488570Y-131381000D01*
X140630000Y-131381000D02*
X140630000Y-131031000D01*
X150790000Y-131381000D02*
X150790000Y-130971000D01*
X139660000Y-129921000D02*
X139660000Y-128811000D01*
X140960950Y-140011000D02*
X140960950Y-131381000D01*
X140134285Y-140011000D02*
X140134285Y-131381000D01*
X142141900Y-140011000D02*
X142141900Y-131381000D01*
X144800000Y-140011000D02*
X144800000Y-131381000D01*
X139660000Y-131381000D02*
X152480000Y-131381000D01*
X142023805Y-140011000D02*
X142023805Y-131381000D01*
X139898095Y-140011000D02*
X139898095Y-131381000D01*
X142260000Y-140011000D02*
X142260000Y-131381000D01*
X141350000Y-131381000D02*
X141350000Y-131031000D01*
X141433330Y-140011000D02*
X141433330Y-131381000D01*
X141197140Y-140011000D02*
X141197140Y-131381000D01*
X151510000Y-131381000D02*
X151510000Y-130971000D01*
X139660000Y-140011000D02*
X139660000Y-131381000D01*
X140842855Y-140011000D02*
X140842855Y-131381000D01*
X148250000Y-131381000D02*
X148250000Y-130971000D01*
X145710000Y-131381000D02*
X145710000Y-130971000D01*
X141905710Y-140011000D02*
X141905710Y-131381000D01*
X141315235Y-140011000D02*
X141315235Y-131381000D01*
X143890000Y-131381000D02*
X143890000Y-130971000D01*
X139660000Y-140011000D02*
X152480000Y-140011000D01*
%TO.C,C11*%
X172497000Y-103499000D02*
X172497000Y-102241000D01*
X170657000Y-103499000D02*
X170657000Y-102241000D01*
%TO.C,C15*%
X150643000Y-111144164D02*
X150643000Y-111359836D01*
X151363000Y-111144164D02*
X151363000Y-111359836D01*
%TD*%
M02*
