%TF.GenerationSoftware,KiCad,Pcbnew,(6.0.5)*%
%TF.CreationDate,2023-03-02T23:20:37+09:00*%
%TF.ProjectId,line_Inergrate,6c696e65-5f49-46e6-9572-67726174652e,rev?*%
%TF.SameCoordinates,Original*%
%TF.FileFunction,Copper,L1,Top*%
%TF.FilePolarity,Positive*%
%FSLAX46Y46*%
G04 Gerber Fmt 4.6, Leading zero omitted, Abs format (unit mm)*
G04 Created by KiCad (PCBNEW (6.0.5)) date 2023-03-02 23:20:37*
%MOMM*%
%LPD*%
G01*
G04 APERTURE LIST*
G04 Aperture macros list*
%AMRoundRect*
0 Rectangle with rounded corners*
0 $1 Rounding radius*
0 $2 $3 $4 $5 $6 $7 $8 $9 X,Y pos of 4 corners*
0 Add a 4 corners polygon primitive as box body*
4,1,4,$2,$3,$4,$5,$6,$7,$8,$9,$2,$3,0*
0 Add four circle primitives for the rounded corners*
1,1,$1+$1,$2,$3*
1,1,$1+$1,$4,$5*
1,1,$1+$1,$6,$7*
1,1,$1+$1,$8,$9*
0 Add four rect primitives between the rounded corners*
20,1,$1+$1,$2,$3,$4,$5,0*
20,1,$1+$1,$4,$5,$6,$7,0*
20,1,$1+$1,$6,$7,$8,$9,0*
20,1,$1+$1,$8,$9,$2,$3,0*%
G04 Aperture macros list end*
%TA.AperFunction,ComponentPad*%
%ADD10R,1.700000X1.700000*%
%TD*%
%TA.AperFunction,ComponentPad*%
%ADD11O,1.700000X1.700000*%
%TD*%
%TA.AperFunction,SMDPad,CuDef*%
%ADD12RoundRect,0.062500X-0.375000X-0.062500X0.375000X-0.062500X0.375000X0.062500X-0.375000X0.062500X0*%
%TD*%
%TA.AperFunction,SMDPad,CuDef*%
%ADD13RoundRect,0.062500X-0.062500X-0.375000X0.062500X-0.375000X0.062500X0.375000X-0.062500X0.375000X0*%
%TD*%
%TA.AperFunction,SMDPad,CuDef*%
%ADD14R,3.100000X3.100000*%
%TD*%
%TA.AperFunction,SMDPad,CuDef*%
%ADD15RoundRect,0.147500X-0.172500X0.147500X-0.172500X-0.147500X0.172500X-0.147500X0.172500X0.147500X0*%
%TD*%
%TA.AperFunction,SMDPad,CuDef*%
%ADD16RoundRect,0.140000X0.140000X0.170000X-0.140000X0.170000X-0.140000X-0.170000X0.140000X-0.170000X0*%
%TD*%
%TA.AperFunction,ComponentPad*%
%ADD17C,1.600000*%
%TD*%
%TA.AperFunction,SMDPad,CuDef*%
%ADD18RoundRect,0.140000X-0.170000X0.140000X-0.170000X-0.140000X0.170000X-0.140000X0.170000X0.140000X0*%
%TD*%
%TA.AperFunction,SMDPad,CuDef*%
%ADD19RoundRect,0.140000X0.170000X-0.140000X0.170000X0.140000X-0.170000X0.140000X-0.170000X-0.140000X0*%
%TD*%
%TA.AperFunction,SMDPad,CuDef*%
%ADD20RoundRect,0.075000X0.662500X0.075000X-0.662500X0.075000X-0.662500X-0.075000X0.662500X-0.075000X0*%
%TD*%
%TA.AperFunction,SMDPad,CuDef*%
%ADD21RoundRect,0.075000X0.075000X0.662500X-0.075000X0.662500X-0.075000X-0.662500X0.075000X-0.662500X0*%
%TD*%
%TA.AperFunction,SMDPad,CuDef*%
%ADD22RoundRect,0.140000X-0.140000X-0.170000X0.140000X-0.170000X0.140000X0.170000X-0.140000X0.170000X0*%
%TD*%
%TA.AperFunction,SMDPad,CuDef*%
%ADD23RoundRect,0.135000X-0.185000X0.135000X-0.185000X-0.135000X0.185000X-0.135000X0.185000X0.135000X0*%
%TD*%
%TA.AperFunction,SMDPad,CuDef*%
%ADD24RoundRect,0.135000X0.135000X0.185000X-0.135000X0.185000X-0.135000X-0.185000X0.135000X-0.185000X0*%
%TD*%
%TA.AperFunction,ComponentPad*%
%ADD25RoundRect,0.250000X0.725000X-0.600000X0.725000X0.600000X-0.725000X0.600000X-0.725000X-0.600000X0*%
%TD*%
%TA.AperFunction,ComponentPad*%
%ADD26O,1.950000X1.700000*%
%TD*%
%TA.AperFunction,SMDPad,CuDef*%
%ADD27RoundRect,0.135000X0.185000X-0.135000X0.185000X0.135000X-0.185000X0.135000X-0.185000X-0.135000X0*%
%TD*%
%TA.AperFunction,SMDPad,CuDef*%
%ADD28R,1.200000X1.400000*%
%TD*%
%TA.AperFunction,SMDPad,CuDef*%
%ADD29RoundRect,0.135000X-0.135000X-0.185000X0.135000X-0.185000X0.135000X0.185000X-0.135000X0.185000X0*%
%TD*%
%TA.AperFunction,SMDPad,CuDef*%
%ADD30R,1.400000X1.200000*%
%TD*%
%TA.AperFunction,ViaPad*%
%ADD31C,0.800000*%
%TD*%
%TA.AperFunction,Conductor*%
%ADD32C,0.250000*%
%TD*%
%TA.AperFunction,Conductor*%
%ADD33C,0.200000*%
%TD*%
G04 APERTURE END LIST*
D10*
%TO.P,J4,1,Pin_1*%
%TO.N, Line Left 1*%
X117729000Y-96540000D03*
D11*
%TO.P,J4,2,Pin_2*%
%TO.N,Line Left 2*%
X117729000Y-99080000D03*
%TO.P,J4,3,Pin_3*%
%TO.N,GND*%
X117729000Y-101620000D03*
%TO.P,J4,4,Pin_4*%
%TO.N,+5V*%
X117729000Y-104160000D03*
%TO.P,J4,5,Pin_5*%
%TO.N,\u53EF\u5909*%
X117729000Y-106700000D03*
%TD*%
D12*
%TO.P,U2,1,XTAL1*%
%TO.N,Net-(C7-Pad1)*%
X157074500Y-85118000D03*
%TO.P,U2,2,PC0/XTAL2*%
%TO.N,Net-(C8-Pad1)*%
X157074500Y-85618000D03*
%TO.P,U2,3,GND*%
%TO.N,GND*%
X157074500Y-86118000D03*
%TO.P,U2,4,VCC*%
%TO.N,+5V*%
X157074500Y-86618000D03*
%TO.P,U2,5,PC2*%
%TO.N,unconnected-(U2-Pad5)*%
X157074500Y-87118000D03*
%TO.P,U2,6,PD0*%
%TO.N,unconnected-(U2-Pad6)*%
X157074500Y-87618000D03*
%TO.P,U2,7,PD1*%
%TO.N,unconnected-(U2-Pad7)*%
X157074500Y-88118000D03*
%TO.P,U2,8,PD2*%
%TO.N,Net-(R7-Pad1)*%
X157074500Y-88618000D03*
D13*
%TO.P,U2,9,PD3*%
%TO.N,Net-(R8-Pad1)*%
X157762000Y-89305500D03*
%TO.P,U2,10,PD4*%
%TO.N,TX2LED*%
X158262000Y-89305500D03*
%TO.P,U2,11,PD5*%
%TO.N,RX2LED*%
X158762000Y-89305500D03*
%TO.P,U2,12,PD6*%
%TO.N,unconnected-(U2-Pad12)*%
X159262000Y-89305500D03*
%TO.P,U2,13,~{HWB}/PD7*%
%TO.N,Net-(C14-Pad1)*%
X159762000Y-89305500D03*
%TO.P,U2,14,PB0*%
%TO.N,unconnected-(U2-Pad14)*%
X160262000Y-89305500D03*
%TO.P,U2,15,PB1*%
%TO.N,SCK2*%
X160762000Y-89305500D03*
%TO.P,U2,16,PB2*%
%TO.N,MOSI2*%
X161262000Y-89305500D03*
D12*
%TO.P,U2,17,PB3*%
%TO.N,MISO2*%
X161949500Y-88618000D03*
%TO.P,U2,18,PB4*%
%TO.N,unconnected-(U2-Pad18)*%
X161949500Y-88118000D03*
%TO.P,U2,19,PB5*%
%TO.N,unconnected-(U2-Pad19)*%
X161949500Y-87618000D03*
%TO.P,U2,20,PB6*%
%TO.N,unconnected-(U2-Pad20)*%
X161949500Y-87118000D03*
%TO.P,U2,21,PB7*%
%TO.N,unconnected-(U2-Pad21)*%
X161949500Y-86618000D03*
%TO.P,U2,22,PC7*%
%TO.N,unconnected-(U2-Pad22)*%
X161949500Y-86118000D03*
%TO.P,U2,23,PC6*%
%TO.N,unconnected-(U2-Pad23)*%
X161949500Y-85618000D03*
%TO.P,U2,24,PC1/~{RESET}*%
%TO.N,RESET2*%
X161949500Y-85118000D03*
D13*
%TO.P,U2,25,PC5*%
%TO.N,unconnected-(U2-Pad25)*%
X161262000Y-84430500D03*
%TO.P,U2,26,PC4*%
%TO.N,unconnected-(U2-Pad26)*%
X160762000Y-84430500D03*
%TO.P,U2,27,UCAP*%
%TO.N,Net-(C10-Pad1)*%
X160262000Y-84430500D03*
%TO.P,U2,28,UGND*%
%TO.N,GND*%
X159762000Y-84430500D03*
%TO.P,U2,29,D+*%
%TO.N,Line D+*%
X159262000Y-84430500D03*
%TO.P,U2,30,D-*%
%TO.N,Line D-*%
X158762000Y-84430500D03*
%TO.P,U2,31,UVCC*%
%TO.N,unconnected-(U2-Pad31)*%
X158262000Y-84430500D03*
%TO.P,U2,32,AVCC*%
%TO.N,+5V*%
X157762000Y-84430500D03*
D14*
%TO.P,U2,33,GND*%
%TO.N,GND*%
X159512000Y-86868000D03*
%TD*%
D15*
%TO.P,D2,1,K*%
%TO.N,TX2LED*%
X160045000Y-109749000D03*
%TO.P,D2,2,A*%
%TO.N,Net-(D2-Pad2)*%
X160045000Y-110719000D03*
%TD*%
D16*
%TO.P,C7,1*%
%TO.N,Net-(C7-Pad1)*%
X153134000Y-82042000D03*
%TO.P,C7,2*%
%TO.N,GND*%
X152174000Y-82042000D03*
%TD*%
D17*
%TO.P,C19,1*%
%TO.N,Line Back 2*%
X143586000Y-127127000D03*
%TO.P,C19,2*%
%TO.N,GND*%
X146086000Y-127127000D03*
%TD*%
%TO.P,C12,1*%
%TO.N,Line Right 1*%
X169418000Y-106660000D03*
%TO.P,C12,2*%
%TO.N,GND*%
X169418000Y-104160000D03*
%TD*%
D18*
%TO.P,C14,1*%
%TO.N,Net-(C14-Pad1)*%
X159385000Y-90480000D03*
%TO.P,C14,2*%
%TO.N,RESET*%
X159385000Y-91440000D03*
%TD*%
D19*
%TO.P,C5,1*%
%TO.N,GND*%
X141986000Y-111732000D03*
%TO.P,C5,2*%
%TO.N,+5V*%
X141986000Y-110772000D03*
%TD*%
%TO.P,C6,1*%
%TO.N,GND*%
X152019000Y-111732000D03*
%TO.P,C6,2*%
%TO.N,+5V*%
X152019000Y-110772000D03*
%TD*%
D20*
%TO.P,U1,1,PG5*%
%TO.N,unconnected-(U1-Pad1)*%
X153712500Y-107600000D03*
%TO.P,U1,2,PE0*%
%TO.N,RXD0*%
X153712500Y-107100000D03*
%TO.P,U1,3,PE1*%
%TO.N,TXD0*%
X153712500Y-106600000D03*
%TO.P,U1,4,PE2*%
%TO.N,unconnected-(U1-Pad4)*%
X153712500Y-106100000D03*
%TO.P,U1,5,PE3*%
%TO.N,unconnected-(U1-Pad5)*%
X153712500Y-105600000D03*
%TO.P,U1,6,PE4*%
%TO.N,unconnected-(U1-Pad6)*%
X153712500Y-105100000D03*
%TO.P,U1,7,PE5*%
%TO.N,unconnected-(U1-Pad7)*%
X153712500Y-104600000D03*
%TO.P,U1,8,PE6*%
%TO.N,unconnected-(U1-Pad8)*%
X153712500Y-104100000D03*
%TO.P,U1,9,PE7*%
%TO.N,unconnected-(U1-Pad9)*%
X153712500Y-103600000D03*
%TO.P,U1,10,VCC*%
%TO.N,+5V*%
X153712500Y-103100000D03*
%TO.P,U1,11,GND*%
%TO.N,GND*%
X153712500Y-102600000D03*
%TO.P,U1,12,PH0*%
%TO.N,unconnected-(U1-Pad12)*%
X153712500Y-102100000D03*
%TO.P,U1,13,PH1*%
%TO.N,unconnected-(U1-Pad13)*%
X153712500Y-101600000D03*
%TO.P,U1,14,PH2*%
%TO.N,unconnected-(U1-Pad14)*%
X153712500Y-101100000D03*
%TO.P,U1,15,PH3*%
%TO.N,unconnected-(U1-Pad15)*%
X153712500Y-100600000D03*
%TO.P,U1,16,PH4*%
%TO.N,unconnected-(U1-Pad16)*%
X153712500Y-100100000D03*
%TO.P,U1,17,PH5*%
%TO.N,unconnected-(U1-Pad17)*%
X153712500Y-99600000D03*
%TO.P,U1,18,PH6*%
%TO.N,unconnected-(U1-Pad18)*%
X153712500Y-99100000D03*
%TO.P,U1,19,PB0*%
%TO.N,unconnected-(U1-Pad19)*%
X153712500Y-98600000D03*
%TO.P,U1,20,PB1*%
%TO.N,PB1*%
X153712500Y-98100000D03*
%TO.P,U1,21,PB2*%
%TO.N,PB2*%
X153712500Y-97600000D03*
%TO.P,U1,22,PB3*%
%TO.N,PB3*%
X153712500Y-97100000D03*
%TO.P,U1,23,PB4*%
%TO.N,unconnected-(U1-Pad23)*%
X153712500Y-96600000D03*
%TO.P,U1,24,PB5*%
%TO.N,unconnected-(U1-Pad24)*%
X153712500Y-96100000D03*
%TO.P,U1,25,PB6*%
%TO.N,unconnected-(U1-Pad25)*%
X153712500Y-95600000D03*
D21*
%TO.P,U1,26,PB7*%
%TO.N,unconnected-(U1-Pad26)*%
X152050000Y-93937500D03*
%TO.P,U1,27,PH7*%
%TO.N,unconnected-(U1-Pad27)*%
X151550000Y-93937500D03*
%TO.P,U1,28,PG3*%
%TO.N,unconnected-(U1-Pad28)*%
X151050000Y-93937500D03*
%TO.P,U1,29,PG4*%
%TO.N,unconnected-(U1-Pad29)*%
X150550000Y-93937500D03*
%TO.P,U1,30,~{RESET}*%
%TO.N,RESET*%
X150050000Y-93937500D03*
%TO.P,U1,31,VCC*%
%TO.N,+5V*%
X149550000Y-93937500D03*
%TO.P,U1,32,GND*%
%TO.N,GND*%
X149050000Y-93937500D03*
%TO.P,U1,33,XTAL2*%
%TO.N,Net-(C2-Pad1)*%
X148550000Y-93937500D03*
%TO.P,U1,34,XTAL1*%
%TO.N,Net-(C1-Pad1)*%
X148050000Y-93937500D03*
%TO.P,U1,35,PL0*%
%TO.N,unconnected-(U1-Pad35)*%
X147550000Y-93937500D03*
%TO.P,U1,36,PL1*%
%TO.N,unconnected-(U1-Pad36)*%
X147050000Y-93937500D03*
%TO.P,U1,37,PL2*%
%TO.N,unconnected-(U1-Pad37)*%
X146550000Y-93937500D03*
%TO.P,U1,38,PL3*%
%TO.N,unconnected-(U1-Pad38)*%
X146050000Y-93937500D03*
%TO.P,U1,39,PL4*%
%TO.N,unconnected-(U1-Pad39)*%
X145550000Y-93937500D03*
%TO.P,U1,40,PL5*%
%TO.N,unconnected-(U1-Pad40)*%
X145050000Y-93937500D03*
%TO.P,U1,41,PL6*%
%TO.N,unconnected-(U1-Pad41)*%
X144550000Y-93937500D03*
%TO.P,U1,42,PL7*%
%TO.N,unconnected-(U1-Pad42)*%
X144050000Y-93937500D03*
%TO.P,U1,43,PD0*%
%TO.N,SCL*%
X143550000Y-93937500D03*
%TO.P,U1,44,PD1*%
%TO.N,SDA*%
X143050000Y-93937500D03*
%TO.P,U1,45,PD2*%
%TO.N,unconnected-(U1-Pad45)*%
X142550000Y-93937500D03*
%TO.P,U1,46,PD3*%
%TO.N,Line Data*%
X142050000Y-93937500D03*
%TO.P,U1,47,PD4*%
%TO.N,unconnected-(U1-Pad47)*%
X141550000Y-93937500D03*
%TO.P,U1,48,PD5*%
%TO.N,unconnected-(U1-Pad48)*%
X141050000Y-93937500D03*
%TO.P,U1,49,PD6*%
%TO.N,unconnected-(U1-Pad49)*%
X140550000Y-93937500D03*
%TO.P,U1,50,PD7*%
%TO.N,PB7*%
X140050000Y-93937500D03*
D20*
%TO.P,U1,51,PG0*%
%TO.N,unconnected-(U1-Pad51)*%
X138387500Y-95600000D03*
%TO.P,U1,52,PG1*%
%TO.N,unconnected-(U1-Pad52)*%
X138387500Y-96100000D03*
%TO.P,U1,53,PC0*%
%TO.N,unconnected-(U1-Pad53)*%
X138387500Y-96600000D03*
%TO.P,U1,54,PC1*%
%TO.N,unconnected-(U1-Pad54)*%
X138387500Y-97100000D03*
%TO.P,U1,55,PC2*%
%TO.N,unconnected-(U1-Pad55)*%
X138387500Y-97600000D03*
%TO.P,U1,56,PC3*%
%TO.N,unconnected-(U1-Pad56)*%
X138387500Y-98100000D03*
%TO.P,U1,57,PC4*%
%TO.N,unconnected-(U1-Pad57)*%
X138387500Y-98600000D03*
%TO.P,U1,58,PC5*%
%TO.N,unconnected-(U1-Pad58)*%
X138387500Y-99100000D03*
%TO.P,U1,59,PC6*%
%TO.N,unconnected-(U1-Pad59)*%
X138387500Y-99600000D03*
%TO.P,U1,60,PC7*%
%TO.N,unconnected-(U1-Pad60)*%
X138387500Y-100100000D03*
%TO.P,U1,61,VCC*%
%TO.N,+5V*%
X138387500Y-100600000D03*
%TO.P,U1,62,GND*%
%TO.N,GND*%
X138387500Y-101100000D03*
%TO.P,U1,63,PJ0*%
%TO.N,unconnected-(U1-Pad63)*%
X138387500Y-101600000D03*
%TO.P,U1,64,PJ1*%
%TO.N,unconnected-(U1-Pad64)*%
X138387500Y-102100000D03*
%TO.P,U1,65,PJ2*%
%TO.N,unconnected-(U1-Pad65)*%
X138387500Y-102600000D03*
%TO.P,U1,66,PJ3*%
%TO.N,unconnected-(U1-Pad66)*%
X138387500Y-103100000D03*
%TO.P,U1,67,PJ4*%
%TO.N,unconnected-(U1-Pad67)*%
X138387500Y-103600000D03*
%TO.P,U1,68,PJ5*%
%TO.N,unconnected-(U1-Pad68)*%
X138387500Y-104100000D03*
%TO.P,U1,69,PJ6*%
%TO.N,unconnected-(U1-Pad69)*%
X138387500Y-104600000D03*
%TO.P,U1,70,PG2*%
%TO.N,unconnected-(U1-Pad70)*%
X138387500Y-105100000D03*
%TO.P,U1,71,PA7*%
%TO.N,unconnected-(U1-Pad71)*%
X138387500Y-105600000D03*
%TO.P,U1,72,PA6*%
%TO.N,unconnected-(U1-Pad72)*%
X138387500Y-106100000D03*
%TO.P,U1,73,PA5*%
%TO.N,unconnected-(U1-Pad73)*%
X138387500Y-106600000D03*
%TO.P,U1,74,PA4*%
%TO.N,unconnected-(U1-Pad74)*%
X138387500Y-107100000D03*
%TO.P,U1,75,PA3*%
%TO.N,unconnected-(U1-Pad75)*%
X138387500Y-107600000D03*
D21*
%TO.P,U1,76,PA2*%
%TO.N,unconnected-(U1-Pad76)*%
X140050000Y-109262500D03*
%TO.P,U1,77,PA1*%
%TO.N,unconnected-(U1-Pad77)*%
X140550000Y-109262500D03*
%TO.P,U1,78,PA0*%
%TO.N,unconnected-(U1-Pad78)*%
X141050000Y-109262500D03*
%TO.P,U1,79,PJ7*%
%TO.N,unconnected-(U1-Pad79)*%
X141550000Y-109262500D03*
%TO.P,U1,80,VCC*%
%TO.N,+5V*%
X142050000Y-109262500D03*
%TO.P,U1,81,GND*%
%TO.N,GND*%
X142550000Y-109262500D03*
%TO.P,U1,82,PK7*%
%TO.N,unconnected-(U1-Pad82)*%
X143050000Y-109262500D03*
%TO.P,U1,83,PK6*%
%TO.N,unconnected-(U1-Pad83)*%
X143550000Y-109262500D03*
%TO.P,U1,84,PK5*%
%TO.N,unconnected-(U1-Pad84)*%
X144050000Y-109262500D03*
%TO.P,U1,85,PK4*%
%TO.N,unconnected-(U1-Pad85)*%
X144550000Y-109262500D03*
%TO.P,U1,86,PK3*%
%TO.N,unconnected-(U1-Pad86)*%
X145050000Y-109262500D03*
%TO.P,U1,87,PK2*%
%TO.N,unconnected-(U1-Pad87)*%
X145550000Y-109262500D03*
%TO.P,U1,88,PK1*%
%TO.N,unconnected-(U1-Pad88)*%
X146050000Y-109262500D03*
%TO.P,U1,89,PK0*%
%TO.N,unconnected-(U1-Pad89)*%
X146550000Y-109262500D03*
%TO.P,U1,90,PF7*%
%TO.N,unconnected-(U1-Pad90)*%
X147050000Y-109262500D03*
%TO.P,U1,91,PF6*%
%TO.N,Line Back 2*%
X147550000Y-109262500D03*
%TO.P,U1,92,PF5*%
%TO.N,Line Back 1*%
X148050000Y-109262500D03*
%TO.P,U1,93,PF4*%
%TO.N,Line Left 2*%
X148550000Y-109262500D03*
%TO.P,U1,94,PF3*%
%TO.N, Line Left 1*%
X149050000Y-109262500D03*
%TO.P,U1,95,PF2*%
%TO.N,Line Right 2*%
X149550000Y-109262500D03*
%TO.P,U1,96,PF1*%
%TO.N,Line Right 1*%
X150050000Y-109262500D03*
%TO.P,U1,97,PF0*%
%TO.N,Line Front*%
X150550000Y-109262500D03*
%TO.P,U1,98,AREF*%
%TO.N,AREF*%
X151050000Y-109262500D03*
%TO.P,U1,99,GND*%
%TO.N,GND*%
X151550000Y-109262500D03*
%TO.P,U1,100,AVCC*%
%TO.N,+5V*%
X152050000Y-109262500D03*
%TD*%
D22*
%TO.P,C16,1*%
%TO.N,RESET*%
X153063000Y-92710000D03*
%TO.P,C16,2*%
%TO.N,GND*%
X154023000Y-92710000D03*
%TD*%
D19*
%TO.P,C2,1*%
%TO.N,Net-(C2-Pad1)*%
X151130000Y-91285000D03*
%TO.P,C2,2*%
%TO.N,GND*%
X151130000Y-90325000D03*
%TD*%
D23*
%TO.P,R10,1*%
%TO.N,+5V*%
X142784000Y-91438000D03*
%TO.P,R10,2*%
%TO.N,SDA*%
X142784000Y-92458000D03*
%TD*%
D10*
%TO.P,J2,1,Pin_1*%
%TO.N,Line Right 1*%
X174371000Y-106660000D03*
D11*
%TO.P,J2,2,Pin_2*%
%TO.N,Line Right 2*%
X174371000Y-104120000D03*
%TO.P,J2,3,Pin_3*%
%TO.N,GND*%
X174371000Y-101580000D03*
%TO.P,J2,4,Pin_4*%
%TO.N,+5V*%
X174371000Y-99040000D03*
%TO.P,J2,5,Pin_5*%
%TO.N,\u53EF\u5909*%
X174371000Y-96500000D03*
%TD*%
D24*
%TO.P,R7,1*%
%TO.N,Net-(R7-Pad1)*%
X155956000Y-88646000D03*
%TO.P,R7,2*%
%TO.N,TXD0*%
X154936000Y-88646000D03*
%TD*%
D16*
%TO.P,C8,1*%
%TO.N,Net-(C8-Pad1)*%
X153134000Y-87376000D03*
%TO.P,C8,2*%
%TO.N,GND*%
X152174000Y-87376000D03*
%TD*%
D17*
%TO.P,C9,1*%
%TO.N,Line Front*%
X142260000Y-76073000D03*
%TO.P,C9,2*%
%TO.N,GND*%
X139760000Y-76073000D03*
%TD*%
D19*
%TO.P,C3,1*%
%TO.N,GND*%
X155194000Y-104239000D03*
%TO.P,C3,2*%
%TO.N,+5V*%
X155194000Y-103279000D03*
%TD*%
D17*
%TO.P,C18,1*%
%TO.N, Line Left 1*%
X122735000Y-96481000D03*
%TO.P,C18,2*%
%TO.N,GND*%
X122735000Y-98981000D03*
%TD*%
D15*
%TO.P,D3,1,K*%
%TO.N,GND*%
X164109000Y-109749000D03*
%TO.P,D3,2,A*%
%TO.N,Net-(D3-Pad2)*%
X164109000Y-110719000D03*
%TD*%
D22*
%TO.P,C4,1*%
%TO.N,GND*%
X135918000Y-100584000D03*
%TO.P,C4,2*%
%TO.N,+5V*%
X136878000Y-100584000D03*
%TD*%
D25*
%TO.P,J7,1,Pin_1*%
%TO.N,+5V*%
X130285000Y-107723000D03*
D26*
%TO.P,J7,2,Pin_2*%
%TO.N,GND*%
X130285000Y-105223000D03*
%TO.P,J7,3,Pin_3*%
%TO.N,\u53EF\u5909*%
X130285000Y-102723000D03*
%TO.P,J7,4,Pin_4*%
%TO.N,Line Data*%
X130285000Y-100223000D03*
%TO.P,J7,5,Pin_5*%
%TO.N,Line D+*%
X130285000Y-97723000D03*
%TO.P,J7,6,Pin_6*%
%TO.N,Line D-*%
X130285000Y-95223000D03*
%TD*%
D27*
%TO.P,R3,1*%
%TO.N,Net-(D2-Pad2)*%
X159029000Y-110744000D03*
%TO.P,R3,2*%
%TO.N,Net-(R2-Pad2)*%
X159029000Y-109724000D03*
%TD*%
D24*
%TO.P,R1,1*%
%TO.N,+5V*%
X164086000Y-85090000D03*
%TO.P,R1,2*%
%TO.N,RESET2*%
X163066000Y-85090000D03*
%TD*%
D10*
%TO.P,J6,1,Pin_1*%
%TO.N,RESET*%
X157451000Y-94625000D03*
D11*
%TO.P,J6,2,Pin_2*%
%TO.N,PB3*%
X157451000Y-97165000D03*
%TO.P,J6,3,Pin_3*%
%TO.N,PB2*%
X157451000Y-99705000D03*
%TO.P,J6,4,Pin_4*%
%TO.N,PB1*%
X157451000Y-102245000D03*
%TD*%
D19*
%TO.P,C1,1*%
%TO.N,Net-(C1-Pad1)*%
X145796000Y-91285000D03*
%TO.P,C1,2*%
%TO.N,GND*%
X145796000Y-90325000D03*
%TD*%
D15*
%TO.P,D1,1,K*%
%TO.N,RX2LED*%
X162077000Y-109749000D03*
%TO.P,D1,2,A*%
%TO.N,Net-(D1-Pad2)*%
X162077000Y-110719000D03*
%TD*%
D27*
%TO.P,R5,1*%
%TO.N,Net-(D4-Pad2)*%
X156997000Y-110742000D03*
%TO.P,R5,2*%
%TO.N,PB7*%
X156997000Y-109722000D03*
%TD*%
D18*
%TO.P,C13,1*%
%TO.N,GND*%
X157734000Y-82324000D03*
%TO.P,C13,2*%
%TO.N,+5V*%
X157734000Y-83284000D03*
%TD*%
D27*
%TO.P,R4,1*%
%TO.N,Net-(D3-Pad2)*%
X163093000Y-110744000D03*
%TO.P,R4,2*%
%TO.N,Net-(R2-Pad2)*%
X163093000Y-109724000D03*
%TD*%
D23*
%TO.P,R9,1*%
%TO.N,+5V*%
X143761000Y-91440000D03*
%TO.P,R9,2*%
%TO.N,SCL*%
X143761000Y-92460000D03*
%TD*%
D28*
%TO.P,Y2,1,1*%
%TO.N,Net-(C7-Pad1)*%
X152820000Y-83609000D03*
%TO.P,Y2,2,2*%
%TO.N,Net-(C8-Pad1)*%
X152820000Y-85809000D03*
%TO.P,Y2,3*%
%TO.N,N/C*%
X154520000Y-85809000D03*
%TO.P,Y2,4*%
X154520000Y-83609000D03*
%TD*%
D29*
%TO.P,R11,1*%
%TO.N,RESET*%
X153042000Y-93759000D03*
%TO.P,R11,2*%
%TO.N,+5V*%
X154062000Y-93759000D03*
%TD*%
D17*
%TO.P,C17,1*%
%TO.N,Line Left 2*%
X120523000Y-99080000D03*
%TO.P,C17,2*%
%TO.N,GND*%
X120523000Y-101580000D03*
%TD*%
D10*
%TO.P,J1,1,Pin_1*%
%TO.N,GND*%
X149860000Y-73279000D03*
D11*
%TO.P,J1,2,Pin_2*%
%TO.N,+5V*%
X147320000Y-73279000D03*
%TO.P,J1,3,Pin_3*%
%TO.N,\u53EF\u5909*%
X144780000Y-73279000D03*
%TO.P,J1,4,Pin_4*%
%TO.N,Line Front*%
X142240000Y-73279000D03*
%TD*%
D23*
%TO.P,R8,1*%
%TO.N,Net-(R8-Pad1)*%
X157099000Y-90422000D03*
%TO.P,R8,2*%
%TO.N,RXD0*%
X157099000Y-91442000D03*
%TD*%
D27*
%TO.P,R2,1*%
%TO.N,Net-(D1-Pad2)*%
X161061000Y-110744000D03*
%TO.P,R2,2*%
%TO.N,Net-(R2-Pad2)*%
X161061000Y-109724000D03*
%TD*%
D19*
%TO.P,C10,1*%
%TO.N,Net-(C10-Pad1)*%
X160401000Y-83284000D03*
%TO.P,C10,2*%
%TO.N,GND*%
X160401000Y-82324000D03*
%TD*%
D10*
%TO.P,J3,1,Pin_1*%
%TO.N,RESET2*%
X160807000Y-102235000D03*
D11*
%TO.P,J3,2,Pin_2*%
%TO.N,MISO2*%
X160807000Y-99695000D03*
%TO.P,J3,3,Pin_3*%
%TO.N,MOSI2*%
X160807000Y-97155000D03*
%TO.P,J3,4,Pin_4*%
%TO.N,SCK2*%
X160807000Y-94615000D03*
%TD*%
D30*
%TO.P,Y1,1,1*%
%TO.N,Net-(C1-Pad1)*%
X147363000Y-91274000D03*
%TO.P,Y1,2,2*%
%TO.N,Net-(C2-Pad1)*%
X149563000Y-91274000D03*
%TO.P,Y1,3*%
%TO.N,N/C*%
X149563000Y-89574000D03*
%TO.P,Y1,4*%
X147363000Y-89574000D03*
%TD*%
D17*
%TO.P,C20,1*%
%TO.N,Line Back 1*%
X140990000Y-124968000D03*
%TO.P,C20,2*%
%TO.N,GND*%
X143490000Y-124968000D03*
%TD*%
D27*
%TO.P,R6,1*%
%TO.N,GND*%
X160401000Y-91470000D03*
%TO.P,R6,2*%
%TO.N,Net-(C14-Pad1)*%
X160401000Y-90450000D03*
%TD*%
D15*
%TO.P,D4,1,K*%
%TO.N,GND*%
X158013000Y-109747000D03*
%TO.P,D4,2,A*%
%TO.N,Net-(D4-Pad2)*%
X158013000Y-110717000D03*
%TD*%
D10*
%TO.P,J5,1,Pin_1*%
%TO.N,Line Back 1*%
X140990000Y-129921000D03*
D11*
%TO.P,J5,2,Pin_2*%
%TO.N,Line Back 2*%
X143530000Y-129921000D03*
%TO.P,J5,3,Pin_3*%
%TO.N,GND*%
X146070000Y-129921000D03*
%TO.P,J5,4,Pin_4*%
%TO.N,+5V*%
X148610000Y-129921000D03*
%TO.P,J5,5,Pin_5*%
%TO.N,\u53EF\u5909*%
X151150000Y-129921000D03*
%TD*%
D17*
%TO.P,C11,1*%
%TO.N,Line Right 2*%
X171577000Y-104120000D03*
%TO.P,C11,2*%
%TO.N,GND*%
X171577000Y-101620000D03*
%TD*%
D18*
%TO.P,C15,1*%
%TO.N,AREF*%
X151003000Y-110772000D03*
%TO.P,C15,2*%
%TO.N,GND*%
X151003000Y-111732000D03*
%TD*%
D31*
%TO.N,GND*%
X149098000Y-96139000D03*
X164719000Y-113919000D03*
X151257000Y-102616000D03*
X138049000Y-89154000D03*
X149860000Y-128143000D03*
X149098000Y-113284000D03*
X121666000Y-117475000D03*
X155448000Y-108331000D03*
X150876000Y-82169000D03*
X147193000Y-85979000D03*
X138430000Y-128524000D03*
X138049000Y-91313000D03*
X126492000Y-104394000D03*
X133604000Y-111633000D03*
X123825000Y-105156000D03*
X144907000Y-92329000D03*
X132080000Y-96901000D03*
X121793000Y-103124000D03*
X166878000Y-106172000D03*
X151305698Y-107520302D03*
X161671000Y-117221000D03*
X172339000Y-85344000D03*
X132080000Y-104140000D03*
X119507000Y-103251000D03*
X156591000Y-78994000D03*
X122936000Y-88265000D03*
X140843000Y-111633000D03*
X164719000Y-116967000D03*
X142240000Y-123063000D03*
X153719172Y-89846770D03*
X151003000Y-86614000D03*
X164719000Y-108331000D03*
X140843000Y-101092000D03*
X132334000Y-99949000D03*
X172593000Y-105537000D03*
X120650000Y-109728000D03*
X131445000Y-129032000D03*
X144907000Y-128524000D03*
X119126000Y-100330000D03*
X153670000Y-111506000D03*
X172466000Y-95123000D03*
X160274000Y-104775000D03*
X133350000Y-79375000D03*
X172974000Y-102870000D03*
X148463000Y-83947000D03*
X151892000Y-76327000D03*
X162179000Y-75692000D03*
X131826000Y-114300000D03*
X167767000Y-113919000D03*
X122809000Y-111887000D03*
X128016000Y-102743000D03*
X151003000Y-89408000D03*
X142113000Y-114173000D03*
X173101000Y-116586000D03*
X151511000Y-120015000D03*
X157607000Y-107188000D03*
X136525000Y-99187000D03*
X165608000Y-88011000D03*
X146177000Y-114300000D03*
X148590000Y-76454000D03*
X157480000Y-104394000D03*
X138176000Y-94234000D03*
X144907000Y-88392000D03*
X151257000Y-78994000D03*
X119507000Y-105156000D03*
X163957000Y-104775000D03*
X149098000Y-107188000D03*
X136525000Y-95631000D03*
X172974000Y-100330000D03*
X160194020Y-92583000D03*
X144018000Y-111252000D03*
X161925000Y-106934000D03*
X128778000Y-111887000D03*
X160782000Y-128397000D03*
X132207000Y-94996000D03*
X128524000Y-109855000D03*
X131826000Y-121920000D03*
X152273000Y-72898000D03*
X142113000Y-118237000D03*
%TO.N,Line Back 1*%
X146951830Y-111882768D03*
%TO.N,Line Back 2*%
X146939000Y-110871000D03*
%TO.N,RX2LED*%
X162077000Y-108710000D03*
X158660500Y-92118984D03*
%TO.N,TX2LED*%
X157353000Y-92456000D03*
X160045000Y-108710000D03*
%TO.N,Line Data*%
X141605000Y-92456000D03*
%TO.N,Line D+*%
X157861000Y-80137000D03*
%TO.N,Line D-*%
X157861000Y-81153000D03*
%TO.N,TXD0*%
X155353994Y-92456000D03*
X155194000Y-105156000D03*
%TO.N,RXD0*%
X156193503Y-105156000D03*
X156353497Y-92456000D03*
%TD*%
D32*
%TO.N,GND*%
X154023000Y-90150598D02*
X153719172Y-89846770D01*
X157074500Y-86118000D02*
X158762000Y-86118000D01*
X160401000Y-91470000D02*
X160401000Y-92376020D01*
X152019000Y-111732000D02*
X153444000Y-111732000D01*
X149050000Y-93937500D02*
X149050000Y-96091000D01*
X153444000Y-111732000D02*
X153670000Y-111506000D01*
X140835000Y-101100000D02*
X140843000Y-101092000D01*
X156591000Y-81914282D02*
X157363894Y-82687176D01*
X142550000Y-110065006D02*
X143736994Y-111252000D01*
X160401000Y-92376020D02*
X160194020Y-92583000D01*
X151550000Y-109262500D02*
X151550000Y-107764604D01*
X157325000Y-104239000D02*
X157480000Y-104394000D01*
X160246000Y-82324000D02*
X159762000Y-82808000D01*
X149050000Y-96091000D02*
X149098000Y-96139000D01*
X138387500Y-101100000D02*
X140835000Y-101100000D01*
X153712500Y-102600000D02*
X151273000Y-102600000D01*
X159762000Y-82808000D02*
X159762000Y-84430500D01*
X159762000Y-84430500D02*
X159762000Y-86618000D01*
X151273000Y-102600000D02*
X151257000Y-102616000D01*
X156591000Y-78994000D02*
X156591000Y-81914282D01*
X157363894Y-82687176D02*
X157370824Y-82687176D01*
X155194000Y-104239000D02*
X157325000Y-104239000D01*
X157370824Y-82687176D02*
X157734000Y-82324000D01*
X159762000Y-86618000D02*
X159512000Y-86868000D01*
X151550000Y-107764604D02*
X151305698Y-107520302D01*
X154023000Y-92710000D02*
X154023000Y-90150598D01*
X143736994Y-111252000D02*
X144018000Y-111252000D01*
X151003000Y-111732000D02*
X152019000Y-111732000D01*
X158762000Y-86118000D02*
X159512000Y-86868000D01*
X160401000Y-82324000D02*
X160246000Y-82324000D01*
X142550000Y-109262500D02*
X142550000Y-110065006D01*
%TO.N,+5V*%
X136878000Y-100584000D02*
X136878000Y-101130000D01*
X150288797Y-92260480D02*
X149550000Y-92999276D01*
X143761000Y-87887000D02*
X147320000Y-84328000D01*
X151892000Y-90649344D02*
X151892000Y-90932000D01*
X153712500Y-103100000D02*
X155015000Y-103100000D01*
X157074500Y-86618000D02*
X156589672Y-86618000D01*
X154062000Y-93759000D02*
X154629483Y-93191517D01*
X142786000Y-91440000D02*
X142784000Y-91438000D01*
X152050000Y-110741000D02*
X152050000Y-109262500D01*
X153719172Y-88822172D02*
X151892000Y-90649344D01*
X151892000Y-90932000D02*
X151892000Y-89027000D01*
X151892000Y-90932000D02*
X151892000Y-91694000D01*
X164086000Y-88755000D02*
X174371000Y-99040000D01*
X136878000Y-101130000D02*
X130285000Y-107723000D01*
X151892000Y-89027000D02*
X147320000Y-84455000D01*
X143761000Y-91440000D02*
X143761000Y-87887000D01*
X154715824Y-87825520D02*
X153719172Y-88822172D01*
X157762000Y-84430500D02*
X157762000Y-83312000D01*
X157325000Y-83284000D02*
X147320000Y-73279000D01*
X155549480Y-103634480D02*
X167383520Y-103634480D01*
X169481500Y-101536500D02*
X171978000Y-99040000D01*
X157734000Y-83284000D02*
X157325000Y-83284000D01*
X171978000Y-99040000D02*
X174371000Y-99040000D01*
X154629483Y-89732483D02*
X153719172Y-88822172D01*
X164086000Y-85090000D02*
X164086000Y-88755000D01*
X152019000Y-110772000D02*
X152050000Y-110741000D01*
X156057141Y-110772000D02*
X156623661Y-111338520D01*
X151325520Y-92260480D02*
X150288797Y-92260480D01*
X152019000Y-110772000D02*
X156057141Y-110772000D01*
X136894000Y-100600000D02*
X136878000Y-100584000D01*
X147320000Y-84328000D02*
X147320000Y-73279000D01*
X167383520Y-103634480D02*
X169481500Y-101536500D01*
X149550000Y-92999276D02*
X149550000Y-93937500D01*
X143761000Y-91440000D02*
X142786000Y-91440000D01*
X156589672Y-86618000D02*
X155382152Y-87825520D01*
X164632480Y-111338520D02*
X168021000Y-107950000D01*
X155015000Y-103100000D02*
X155194000Y-103279000D01*
X141986000Y-110772000D02*
X142050000Y-110708000D01*
X155194000Y-103279000D02*
X155549480Y-103634480D01*
X147320000Y-84455000D02*
X147320000Y-84328000D01*
X168021000Y-107950000D02*
X168021000Y-102997000D01*
X157762000Y-83312000D02*
X157734000Y-83284000D01*
X168021000Y-102997000D02*
X169481500Y-101536500D01*
X141986000Y-110772000D02*
X133334000Y-110772000D01*
X151892000Y-91694000D02*
X151325520Y-92260480D01*
X133334000Y-110772000D02*
X130285000Y-107723000D01*
X142050000Y-110708000D02*
X142050000Y-109262500D01*
X155382152Y-87825520D02*
X154715824Y-87825520D01*
X156623661Y-111338520D02*
X164632480Y-111338520D01*
X154629483Y-93191517D02*
X154629483Y-89732483D01*
X138387500Y-100600000D02*
X136894000Y-100600000D01*
%TO.N,Line Front*%
X139319000Y-79014000D02*
X142260000Y-76073000D01*
X150550000Y-109262500D02*
X150550000Y-106375724D01*
X150550000Y-106375724D02*
X139319000Y-95144724D01*
X139319000Y-95144724D02*
X139319000Y-79014000D01*
X142240000Y-73279000D02*
X142240000Y-76053000D01*
X142240000Y-76053000D02*
X142260000Y-76073000D01*
%TO.N,Line Right 1*%
X174371000Y-106660000D02*
X169418000Y-106660000D01*
X169418000Y-106660000D02*
X169418000Y-108077000D01*
X150050000Y-111745930D02*
X150050000Y-109262500D01*
X169418000Y-108077000D02*
X165100000Y-112395000D01*
X165100000Y-112395000D02*
X150699070Y-112395000D01*
X150699070Y-112395000D02*
X150050000Y-111745930D01*
%TO.N,Line Right 2*%
X174371000Y-104120000D02*
X171577000Y-104120000D01*
X175641000Y-105390000D02*
X174371000Y-104120000D01*
X149550000Y-111881648D02*
X150512873Y-112844520D01*
X170492480Y-112844520D02*
X175641000Y-107696000D01*
X175641000Y-107696000D02*
X175641000Y-105390000D01*
X150512873Y-112844520D02*
X170492480Y-112844520D01*
X149550000Y-109262500D02*
X149550000Y-111881648D01*
%TO.N, Line Left 1*%
X122327799Y-113056799D02*
X147438131Y-113056799D01*
X117729000Y-96540000D02*
X122676000Y-96540000D01*
X122676000Y-96540000D02*
X122735000Y-96481000D01*
X147438131Y-113056799D02*
X149050000Y-111444930D01*
X149050000Y-111444930D02*
X149050000Y-109262500D01*
X117729000Y-96540000D02*
X116554489Y-97714511D01*
X116554489Y-107283489D02*
X122327799Y-113056799D01*
X116554489Y-97714511D02*
X116554489Y-107283489D01*
%TO.N,Line Left 2*%
X122301000Y-101981000D02*
X122301000Y-100858000D01*
X122301000Y-100858000D02*
X120523000Y-99080000D01*
X148550000Y-111309212D02*
X147251933Y-112607279D01*
X120523000Y-99080000D02*
X117729000Y-99080000D01*
X147251933Y-112607279D02*
X132927279Y-112607279D01*
X132927279Y-112607279D02*
X122301000Y-101981000D01*
X148550000Y-109262500D02*
X148550000Y-111309212D01*
%TO.N,Line Back 1*%
X146951830Y-111882768D02*
X148050000Y-110784598D01*
X148050000Y-110784598D02*
X148050000Y-109262500D01*
%TO.N,Line Back 2*%
X147550000Y-110260000D02*
X146939000Y-110871000D01*
X147550000Y-109262500D02*
X147550000Y-110260000D01*
%TO.N,Net-(C1-Pad1)*%
X147363000Y-91274000D02*
X148050000Y-91961000D01*
X147352000Y-91285000D02*
X147363000Y-91274000D01*
X145796000Y-91285000D02*
X147352000Y-91285000D01*
X148050000Y-91961000D02*
X148050000Y-93937500D01*
%TO.N,Net-(C2-Pad1)*%
X151130000Y-91285000D02*
X149574000Y-91285000D01*
X149563000Y-91274000D02*
X148550000Y-92287000D01*
X148550000Y-92287000D02*
X148550000Y-93937500D01*
X149574000Y-91285000D02*
X149563000Y-91274000D01*
%TO.N,Net-(C7-Pad1)*%
X154902022Y-82042000D02*
X157074500Y-84214478D01*
X157074500Y-84214478D02*
X157074500Y-85118000D01*
X153134000Y-82042000D02*
X154902022Y-82042000D01*
X152820000Y-82356000D02*
X153134000Y-82042000D01*
X152820000Y-83609000D02*
X152820000Y-82356000D01*
%TO.N,Net-(C8-Pad1)*%
X152820000Y-87062000D02*
X153134000Y-87376000D01*
X155788847Y-86192847D02*
X156363694Y-85618000D01*
X154902022Y-87376000D02*
X155788847Y-86489175D01*
X152820000Y-85809000D02*
X152820000Y-87062000D01*
X156363694Y-85618000D02*
X157074500Y-85618000D01*
X155788847Y-86489175D02*
X155788847Y-86192847D01*
X153134000Y-87376000D02*
X154902022Y-87376000D01*
%TO.N,Net-(C10-Pad1)*%
X160262000Y-84430500D02*
X160262000Y-83296000D01*
X160262000Y-84430500D02*
X160262000Y-83423000D01*
X160262000Y-83296000D02*
X160274000Y-83284000D01*
X160262000Y-83423000D02*
X160401000Y-83284000D01*
%TO.N,Net-(C14-Pad1)*%
X159385000Y-90480000D02*
X160371000Y-90480000D01*
X159762000Y-89811000D02*
X160401000Y-90450000D01*
X160244000Y-90480000D02*
X160274000Y-90450000D01*
X159258000Y-90480000D02*
X160244000Y-90480000D01*
X160371000Y-90480000D02*
X160401000Y-90450000D01*
X159762000Y-89305500D02*
X159762000Y-89811000D01*
%TO.N,RESET*%
X153063000Y-92710000D02*
X153063000Y-93738000D01*
X150474994Y-92710000D02*
X153063000Y-92710000D01*
X157451000Y-94625000D02*
X158232000Y-94625000D01*
X158232000Y-94625000D02*
X159385000Y-93472000D01*
X159385000Y-93472000D02*
X159385000Y-91440000D01*
X157451000Y-94625000D02*
X153908000Y-94625000D01*
X153908000Y-94625000D02*
X153042000Y-93759000D01*
X158232000Y-94625000D02*
X159258000Y-93599000D01*
X150050000Y-93937500D02*
X150050000Y-93134994D01*
X153063000Y-93738000D02*
X153042000Y-93759000D01*
X150050000Y-93134994D02*
X150474994Y-92710000D01*
%TO.N,AREF*%
X151003000Y-110772000D02*
X151050000Y-110725000D01*
X151050000Y-110725000D02*
X151050000Y-109262500D01*
X151003000Y-110772000D02*
X151075480Y-110699520D01*
%TO.N,RX2LED*%
X158557869Y-90231870D02*
X158557869Y-92016353D01*
X158557869Y-92016353D02*
X158660500Y-92118984D01*
X158750480Y-90039259D02*
X158557869Y-90231870D01*
X162077000Y-109749000D02*
X162077000Y-108710000D01*
X158762000Y-89305500D02*
X158750480Y-89317020D01*
X158750480Y-89317020D02*
X158750480Y-90039259D01*
%TO.N,Net-(D1-Pad2)*%
X162052000Y-110744000D02*
X162077000Y-110719000D01*
X161061000Y-110744000D02*
X162052000Y-110744000D01*
%TO.N,TX2LED*%
X160045000Y-109749000D02*
X160045000Y-108710000D01*
X158262000Y-89892022D02*
X158149011Y-90005011D01*
X158149011Y-90008989D02*
X157861000Y-90297000D01*
X158149011Y-90005011D02*
X158149011Y-90008989D01*
X158262000Y-89305500D02*
X158262000Y-89892022D01*
X157861000Y-90297000D02*
X157861000Y-91948000D01*
X157861000Y-91948000D02*
X157353000Y-92456000D01*
%TO.N,Net-(D2-Pad2)*%
X159029000Y-110744000D02*
X160020000Y-110744000D01*
X160020000Y-110744000D02*
X160045000Y-110719000D01*
%TO.N,Net-(D3-Pad2)*%
X164084000Y-110744000D02*
X164109000Y-110719000D01*
X163093000Y-110744000D02*
X164084000Y-110744000D01*
%TO.N,Net-(D4-Pad2)*%
X157988000Y-110742000D02*
X158013000Y-110717000D01*
X156997000Y-110742000D02*
X157988000Y-110742000D01*
%TO.N,RESET2*%
X163066000Y-85090000D02*
X161977500Y-85090000D01*
X162122794Y-102235000D02*
X163078040Y-101279754D01*
X163078040Y-101279754D02*
X163078040Y-85102040D01*
X163078040Y-85102040D02*
X163066000Y-85090000D01*
X160807000Y-102235000D02*
X162122794Y-102235000D01*
X161977500Y-85090000D02*
X161949500Y-85118000D01*
%TO.N,MISO2*%
X162628520Y-97873480D02*
X162628520Y-89297020D01*
X160807000Y-99695000D02*
X162628520Y-97873480D01*
X162628520Y-89297020D02*
X161949500Y-88618000D01*
%TO.N,MOSI2*%
X160807000Y-97155000D02*
X162179000Y-95783000D01*
X162179000Y-95783000D02*
X162179000Y-90222500D01*
X162179000Y-90222500D02*
X161262000Y-89305500D01*
%TO.N,SCK2*%
X160918520Y-90124661D02*
X160918520Y-94503480D01*
X160762000Y-89305500D02*
X160762000Y-89968141D01*
X160762000Y-89968141D02*
X160918520Y-90124661D01*
X160918520Y-94503480D02*
X160807000Y-94615000D01*
%TO.N,PB3*%
X157386000Y-97100000D02*
X157451000Y-97165000D01*
X153712500Y-97100000D02*
X157386000Y-97100000D01*
%TO.N,PB2*%
X155346000Y-97600000D02*
X153712500Y-97600000D01*
X157451000Y-99705000D02*
X155346000Y-97600000D01*
%TO.N,PB1*%
X153712500Y-98100000D02*
X154515006Y-98100000D01*
X154515006Y-98100000D02*
X155956000Y-99540994D01*
X155956000Y-100750000D02*
X157451000Y-102245000D01*
X155956000Y-99540994D02*
X155956000Y-100750000D01*
%TO.N,Line Data*%
X142050000Y-93937500D02*
X142050000Y-92901000D01*
X142050000Y-92901000D02*
X141605000Y-92456000D01*
D33*
%TO.N,Line D+*%
X159262000Y-83666480D02*
X159262000Y-84430500D01*
X159161520Y-81437520D02*
X159161520Y-83566000D01*
X157861000Y-80137000D02*
X159161520Y-81437520D01*
X159161520Y-83566000D02*
X159262000Y-83666480D01*
%TO.N,Line D-*%
X158762000Y-82054000D02*
X157861000Y-81153000D01*
X158762000Y-84430500D02*
X158762000Y-82054000D01*
D32*
%TO.N,Net-(R2-Pad2)*%
X161061000Y-108701386D02*
X160345103Y-107985489D01*
X161776897Y-107985489D02*
X162377103Y-107985489D01*
X161061000Y-109724000D02*
X161061000Y-108701386D01*
X159029000Y-108701386D02*
X159029000Y-109724000D01*
X162377103Y-107985489D02*
X163093000Y-108701386D01*
X159744897Y-107985489D02*
X159029000Y-108701386D01*
X160345103Y-107985489D02*
X159744897Y-107985489D01*
X161061000Y-108701386D02*
X161776897Y-107985489D01*
X163093000Y-108701386D02*
X163093000Y-109724000D01*
%TO.N,PB7*%
X140050000Y-95240006D02*
X140050000Y-93937500D01*
X156997000Y-109722000D02*
X154531994Y-109722000D01*
X154531994Y-109722000D02*
X140050000Y-95240006D01*
%TO.N,Net-(R7-Pad1)*%
X157046500Y-88646000D02*
X157074500Y-88618000D01*
X155956000Y-88646000D02*
X157046500Y-88646000D01*
%TO.N,TXD0*%
X155194000Y-92296006D02*
X155194000Y-88904000D01*
X155194000Y-105921006D02*
X154515006Y-106600000D01*
X154515006Y-106600000D02*
X153712500Y-106600000D01*
X155353994Y-92456000D02*
X155194000Y-92296006D01*
X155194000Y-88904000D02*
X154936000Y-88646000D01*
X155194000Y-105156000D02*
X155194000Y-105921006D01*
%TO.N,Net-(R8-Pad1)*%
X157762000Y-89759000D02*
X157099000Y-90422000D01*
X157762000Y-89305500D02*
X157762000Y-89759000D01*
%TO.N,RXD0*%
X156193503Y-105557221D02*
X156193503Y-105156000D01*
X154650724Y-107100000D02*
X156193503Y-105557221D01*
X153712500Y-107100000D02*
X156044000Y-107100000D01*
X156044000Y-107100000D02*
X158496000Y-104648000D01*
X156353497Y-92456000D02*
X156353497Y-92187503D01*
X156353497Y-92187503D02*
X157099000Y-91442000D01*
X153712500Y-107100000D02*
X154650724Y-107100000D01*
%TO.N,SCL*%
X143550000Y-93937500D02*
X143550000Y-92671000D01*
X143550000Y-92671000D02*
X143761000Y-92460000D01*
%TO.N,SDA*%
X142784000Y-92458000D02*
X143050000Y-92724000D01*
X143050000Y-92724000D02*
X143050000Y-93937500D01*
%TD*%
%TA.AperFunction,Conductor*%
%TO.N,GND*%
G36*
X146461246Y-68111059D02*
G01*
X147567214Y-68142918D01*
X147571361Y-68143106D01*
X148675634Y-68211614D01*
X148679799Y-68211942D01*
X149781161Y-68317022D01*
X149785313Y-68317487D01*
X150882627Y-68459029D01*
X150886762Y-68459632D01*
X151978776Y-68637478D01*
X151982888Y-68638218D01*
X152251942Y-68691248D01*
X153068416Y-68852174D01*
X153072464Y-68853042D01*
X153342228Y-68915570D01*
X154150298Y-69102871D01*
X154154352Y-69103882D01*
X154423841Y-69175839D01*
X155223320Y-69389311D01*
X155227296Y-69390444D01*
X155493721Y-69471136D01*
X156286189Y-69711151D01*
X156290167Y-69712428D01*
X157337832Y-70068062D01*
X157341759Y-70069468D01*
X158377100Y-70459659D01*
X158380951Y-70461183D01*
X159402806Y-70885495D01*
X159406586Y-70887139D01*
X160413781Y-71345082D01*
X160417527Y-71346860D01*
X160671124Y-71472471D01*
X161409016Y-71837962D01*
X161412728Y-71839879D01*
X162387306Y-72363538D01*
X162390948Y-72365573D01*
X163347695Y-72921297D01*
X163351205Y-72923413D01*
X163594164Y-73075526D01*
X164289017Y-73510563D01*
X164292521Y-73512839D01*
X165210276Y-74130706D01*
X165213697Y-74133091D01*
X166110533Y-74781101D01*
X166113847Y-74783581D01*
X166858240Y-75359952D01*
X166988652Y-75460928D01*
X166991913Y-75463540D01*
X167843818Y-76169550D01*
X167846964Y-76172247D01*
X168674983Y-76906105D01*
X168678022Y-76908890D01*
X168691013Y-76921197D01*
X168810688Y-77034566D01*
X168846386Y-77095935D01*
X168843238Y-77166862D01*
X168802245Y-77224828D01*
X168736420Y-77251429D01*
X168706286Y-77250782D01*
X168523920Y-77224828D01*
X168482900Y-77218990D01*
X168482898Y-77218990D01*
X168478648Y-77218385D01*
X168474359Y-77218363D01*
X168474352Y-77218362D01*
X168195447Y-77216901D01*
X168195440Y-77216901D01*
X168191161Y-77216879D01*
X168186917Y-77217438D01*
X168186913Y-77217438D01*
X168061524Y-77233946D01*
X167906130Y-77254404D01*
X167901990Y-77255537D01*
X167901988Y-77255537D01*
X167825175Y-77276551D01*
X167628828Y-77330265D01*
X167624880Y-77331949D01*
X167368340Y-77441373D01*
X167368336Y-77441375D01*
X167364388Y-77443059D01*
X167239824Y-77517609D01*
X167121385Y-77588493D01*
X167121381Y-77588496D01*
X167117703Y-77590697D01*
X166893336Y-77770449D01*
X166695441Y-77978987D01*
X166527678Y-78212453D01*
X166393152Y-78466528D01*
X166391677Y-78470559D01*
X166332269Y-78632900D01*
X166294353Y-78736509D01*
X166233109Y-79017400D01*
X166232773Y-79021670D01*
X166211060Y-79297564D01*
X166211059Y-79297564D01*
X166211060Y-79297566D01*
X166210553Y-79304005D01*
X166227102Y-79591019D01*
X166227927Y-79595224D01*
X166227928Y-79595232D01*
X166247164Y-79693277D01*
X166282450Y-79873131D01*
X166283837Y-79877181D01*
X166283838Y-79877186D01*
X166370545Y-80130435D01*
X166375574Y-80145122D01*
X166377501Y-80148953D01*
X166479329Y-80351415D01*
X166504749Y-80401958D01*
X166667585Y-80638886D01*
X166861070Y-80851524D01*
X166864365Y-80854279D01*
X166864366Y-80854280D01*
X167050708Y-81010085D01*
X167081623Y-81035934D01*
X167325162Y-81188707D01*
X167587182Y-81307013D01*
X167591301Y-81308233D01*
X167858721Y-81387447D01*
X167858726Y-81387448D01*
X167862834Y-81388665D01*
X167867068Y-81389313D01*
X167867073Y-81389314D01*
X168115675Y-81427355D01*
X168147017Y-81432151D01*
X168293349Y-81434450D01*
X168430181Y-81436600D01*
X168430187Y-81436600D01*
X168434472Y-81436667D01*
X168438724Y-81436152D01*
X168438732Y-81436152D01*
X168715620Y-81402644D01*
X168715625Y-81402643D01*
X168719881Y-81402128D01*
X168876202Y-81361118D01*
X168993818Y-81330262D01*
X168993819Y-81330262D01*
X168997961Y-81329175D01*
X169263568Y-81219157D01*
X169511786Y-81074110D01*
X169738023Y-80896718D01*
X169779149Y-80854280D01*
X169867982Y-80762611D01*
X169938091Y-80690264D01*
X169940624Y-80686816D01*
X169940628Y-80686811D01*
X170105751Y-80462022D01*
X170108289Y-80458567D01*
X170202330Y-80285365D01*
X170243418Y-80209691D01*
X170243419Y-80209689D01*
X170245468Y-80205915D01*
X170347089Y-79936984D01*
X170386377Y-79765444D01*
X170410313Y-79660933D01*
X170410314Y-79660929D01*
X170411271Y-79656749D01*
X170415821Y-79605774D01*
X170436607Y-79372862D01*
X170436607Y-79372860D01*
X170436827Y-79370396D01*
X170437291Y-79326136D01*
X170434039Y-79278428D01*
X170418029Y-79043588D01*
X170418028Y-79043582D01*
X170417737Y-79039311D01*
X170413200Y-79017400D01*
X170400061Y-78953956D01*
X170405833Y-78883194D01*
X170448946Y-78826787D01*
X170515711Y-78802642D01*
X170584931Y-78818427D01*
X170615968Y-78842876D01*
X171015708Y-79275313D01*
X171018492Y-79278428D01*
X171288790Y-79591019D01*
X171727129Y-80097943D01*
X171742127Y-80115288D01*
X171744801Y-80118485D01*
X172440365Y-80978969D01*
X172442921Y-80982242D01*
X173109531Y-81865260D01*
X173111993Y-81868635D01*
X173748976Y-82773291D01*
X173751324Y-82776747D01*
X174357939Y-83701987D01*
X174360172Y-83705519D01*
X174935788Y-84650383D01*
X174937902Y-84653986D01*
X175481872Y-85617411D01*
X175483866Y-85621083D01*
X175995611Y-86602045D01*
X175997481Y-86605781D01*
X176476397Y-87603121D01*
X176478143Y-87606917D01*
X176735635Y-88192111D01*
X176917873Y-88606278D01*
X176923741Y-88619615D01*
X176925358Y-88623463D01*
X177018716Y-88856285D01*
X177337125Y-89650354D01*
X177338616Y-89654257D01*
X177716123Y-90694273D01*
X177717483Y-90698223D01*
X177772766Y-90867861D01*
X178058241Y-91743858D01*
X178060292Y-91750153D01*
X178061519Y-91754140D01*
X178340030Y-92715912D01*
X178369273Y-92816897D01*
X178370362Y-92820905D01*
X178570283Y-93608098D01*
X178642707Y-93893269D01*
X178643668Y-93897335D01*
X178880303Y-94978110D01*
X178881129Y-94982205D01*
X179081803Y-96070242D01*
X179082493Y-96074363D01*
X179246987Y-97168488D01*
X179247539Y-97172630D01*
X179320042Y-97794498D01*
X179375286Y-98268327D01*
X179375662Y-98271556D01*
X179376076Y-98275703D01*
X179467211Y-99372473D01*
X179467695Y-99378303D01*
X179467971Y-99382457D01*
X179485099Y-99726518D01*
X179522982Y-100487482D01*
X179523121Y-100491658D01*
X179534382Y-101170717D01*
X179541193Y-101581450D01*
X179541475Y-101598478D01*
X179541488Y-101601538D01*
X179538285Y-102009297D01*
X179537380Y-102124531D01*
X179537318Y-102127609D01*
X179503978Y-103159848D01*
X179501584Y-103233961D01*
X179501381Y-103238106D01*
X179469971Y-103717331D01*
X179429018Y-104342149D01*
X179428676Y-104346313D01*
X179319750Y-105447334D01*
X179319270Y-105451484D01*
X179173898Y-106548297D01*
X179173280Y-106552429D01*
X179044965Y-107323345D01*
X179002364Y-107579292D01*
X178991628Y-107643791D01*
X178990877Y-107647884D01*
X178898543Y-108107880D01*
X178773133Y-108732658D01*
X178772243Y-108736740D01*
X178518658Y-109813676D01*
X178517633Y-109817727D01*
X178228478Y-110885679D01*
X178227321Y-110889686D01*
X177922758Y-111882768D01*
X177902924Y-111947439D01*
X177901640Y-111951391D01*
X177748197Y-112398289D01*
X177542338Y-112997848D01*
X177540920Y-113001765D01*
X177278683Y-113690299D01*
X177147126Y-114035716D01*
X177145581Y-114039580D01*
X176987242Y-114417175D01*
X176717722Y-115059906D01*
X176716043Y-115063731D01*
X176254599Y-116069293D01*
X176252794Y-116073061D01*
X175758248Y-117062803D01*
X175756318Y-117066509D01*
X175229253Y-118039265D01*
X175227202Y-118042905D01*
X174668171Y-118997658D01*
X174666001Y-119001228D01*
X174075612Y-119936939D01*
X174073324Y-119940436D01*
X173452223Y-120856075D01*
X173449820Y-120859493D01*
X172798739Y-121753987D01*
X172796225Y-121757324D01*
X172758251Y-121806016D01*
X172182836Y-122543841D01*
X172115804Y-122629792D01*
X172113194Y-122633026D01*
X171687121Y-123143508D01*
X171404242Y-123482428D01*
X171401512Y-123485591D01*
X170664796Y-124311012D01*
X170661963Y-124314082D01*
X170615322Y-124362975D01*
X170553829Y-124398459D01*
X170482914Y-124395065D01*
X170425091Y-124353869D01*
X170398720Y-124287952D01*
X170401332Y-124247876D01*
X170410312Y-124208665D01*
X170410313Y-124208661D01*
X170411271Y-124204477D01*
X170416872Y-124141726D01*
X170436607Y-123920590D01*
X170436607Y-123920588D01*
X170436827Y-123918124D01*
X170437291Y-123873864D01*
X170427640Y-123732293D01*
X170418029Y-123591316D01*
X170418028Y-123591310D01*
X170417737Y-123587039D01*
X170413200Y-123565128D01*
X170360307Y-123309719D01*
X170359438Y-123305522D01*
X170263471Y-123034521D01*
X170131614Y-122779052D01*
X170118352Y-122760181D01*
X169968768Y-122547346D01*
X169966305Y-122543841D01*
X169876585Y-122447291D01*
X169773525Y-122336385D01*
X169773522Y-122336383D01*
X169770604Y-122333242D01*
X169548132Y-122151151D01*
X169303006Y-122000937D01*
X169284912Y-121992994D01*
X169043694Y-121887107D01*
X169039762Y-121885381D01*
X169013827Y-121877993D01*
X168767398Y-121807796D01*
X168767399Y-121807796D01*
X168763270Y-121806620D01*
X168550568Y-121776349D01*
X168482900Y-121766718D01*
X168482898Y-121766718D01*
X168478648Y-121766113D01*
X168474359Y-121766091D01*
X168474352Y-121766090D01*
X168195447Y-121764629D01*
X168195440Y-121764629D01*
X168191161Y-121764607D01*
X168186917Y-121765166D01*
X168186913Y-121765166D01*
X168061524Y-121781674D01*
X167906130Y-121802132D01*
X167901990Y-121803265D01*
X167901988Y-121803265D01*
X167825175Y-121824279D01*
X167628828Y-121877993D01*
X167624880Y-121879677D01*
X167368340Y-121989101D01*
X167368336Y-121989103D01*
X167364388Y-121990787D01*
X167239824Y-122065337D01*
X167121385Y-122136221D01*
X167121381Y-122136224D01*
X167117703Y-122138425D01*
X166893336Y-122318177D01*
X166695441Y-122526715D01*
X166527678Y-122760181D01*
X166393152Y-123014256D01*
X166294353Y-123284237D01*
X166233109Y-123565128D01*
X166224505Y-123674457D01*
X166211060Y-123845292D01*
X166211059Y-123845292D01*
X166211060Y-123845294D01*
X166210553Y-123851733D01*
X166210800Y-123856017D01*
X166210800Y-123856018D01*
X166213015Y-123894434D01*
X166227102Y-124138747D01*
X166227927Y-124142952D01*
X166227928Y-124142960D01*
X166256375Y-124287952D01*
X166282450Y-124420859D01*
X166283837Y-124424909D01*
X166283838Y-124424914D01*
X166344969Y-124603461D01*
X166375574Y-124692850D01*
X166377501Y-124696681D01*
X166465174Y-124870999D01*
X166504749Y-124949686D01*
X166667585Y-125186614D01*
X166861070Y-125399252D01*
X166864365Y-125402007D01*
X166864366Y-125402008D01*
X166915122Y-125444446D01*
X167081623Y-125583662D01*
X167325162Y-125736435D01*
X167587182Y-125854741D01*
X167591301Y-125855961D01*
X167858721Y-125935175D01*
X167858726Y-125935176D01*
X167862834Y-125936393D01*
X167867068Y-125937041D01*
X167867073Y-125937042D01*
X168084424Y-125970301D01*
X168147017Y-125979879D01*
X168293349Y-125982178D01*
X168430181Y-125984328D01*
X168430187Y-125984328D01*
X168434472Y-125984395D01*
X168438724Y-125983880D01*
X168438732Y-125983880D01*
X168618005Y-125962185D01*
X168703097Y-125951887D01*
X168773127Y-125963560D01*
X168825729Y-126011241D01*
X168844202Y-126079792D01*
X168822682Y-126147449D01*
X168803439Y-126169797D01*
X168287430Y-126643461D01*
X168284306Y-126646235D01*
X167444857Y-127367001D01*
X167441642Y-127369669D01*
X166578815Y-128062162D01*
X166575514Y-128064723D01*
X166306398Y-128266414D01*
X165690133Y-128728279D01*
X165686794Y-128730695D01*
X165178770Y-129085757D01*
X164779946Y-129364498D01*
X164776483Y-129366835D01*
X163849074Y-129970253D01*
X163845534Y-129972473D01*
X162898689Y-130544774D01*
X162895078Y-130546876D01*
X162365207Y-130843618D01*
X161929723Y-131087500D01*
X161926059Y-131089472D01*
X160943353Y-131597770D01*
X160939611Y-131599628D01*
X159940594Y-132075066D01*
X159936792Y-132076799D01*
X158922529Y-132518866D01*
X158918672Y-132520471D01*
X157890352Y-132928650D01*
X157886444Y-132930127D01*
X156845136Y-133303995D01*
X156841180Y-133305342D01*
X155788031Y-133644485D01*
X155784034Y-133645699D01*
X154720263Y-133949726D01*
X154716227Y-133950808D01*
X153642922Y-134219408D01*
X153638853Y-134220355D01*
X152557225Y-134453224D01*
X152553126Y-134454035D01*
X151464405Y-134650907D01*
X151460282Y-134651582D01*
X150365619Y-134812252D01*
X150361475Y-134812790D01*
X149262110Y-134937075D01*
X149257951Y-134937476D01*
X148346290Y-135010026D01*
X148155020Y-135025247D01*
X148150856Y-135025509D01*
X148054217Y-135029982D01*
X147045655Y-135076662D01*
X147041478Y-135076786D01*
X145935200Y-135091268D01*
X145931022Y-135091254D01*
X144824839Y-135069049D01*
X144820664Y-135068896D01*
X143715821Y-135010026D01*
X143711653Y-135009734D01*
X143286131Y-134972880D01*
X142609392Y-134914268D01*
X142605291Y-134913845D01*
X141506756Y-134781880D01*
X141502623Y-134781314D01*
X140955860Y-134697159D01*
X140409105Y-134613006D01*
X140404987Y-134612302D01*
X139812867Y-134500955D01*
X139317614Y-134407823D01*
X139313550Y-134406988D01*
X138470912Y-134219408D01*
X138233610Y-134166582D01*
X138229548Y-134165607D01*
X137158172Y-133889528D01*
X137154144Y-133888419D01*
X136326786Y-133645699D01*
X136092448Y-133576952D01*
X136088497Y-133575721D01*
X135264463Y-133303995D01*
X135037741Y-133229233D01*
X135033796Y-133227859D01*
X134220483Y-132929424D01*
X133995113Y-132846727D01*
X133991251Y-132845237D01*
X132965716Y-132429853D01*
X132961943Y-132428251D01*
X131950795Y-131979116D01*
X131947005Y-131977357D01*
X130951307Y-131494945D01*
X130947578Y-131493061D01*
X129968456Y-130977920D01*
X129964791Y-130975914D01*
X129689368Y-130819134D01*
X139631500Y-130819134D01*
X139638255Y-130881316D01*
X139689385Y-131017705D01*
X139776739Y-131134261D01*
X139893295Y-131221615D01*
X140029684Y-131272745D01*
X140091866Y-131279500D01*
X141888134Y-131279500D01*
X141950316Y-131272745D01*
X142086705Y-131221615D01*
X142203261Y-131134261D01*
X142290615Y-131017705D01*
X142312799Y-130958529D01*
X142334598Y-130900382D01*
X142377240Y-130843618D01*
X142443802Y-130818918D01*
X142513150Y-130834126D01*
X142547817Y-130862114D01*
X142576250Y-130894938D01*
X142748126Y-131037632D01*
X142941000Y-131150338D01*
X143149692Y-131230030D01*
X143154760Y-131231061D01*
X143154763Y-131231062D01*
X143249862Y-131250410D01*
X143368597Y-131274567D01*
X143373772Y-131274757D01*
X143373774Y-131274757D01*
X143586673Y-131282564D01*
X143586677Y-131282564D01*
X143591837Y-131282753D01*
X143596957Y-131282097D01*
X143596959Y-131282097D01*
X143808288Y-131255025D01*
X143808289Y-131255025D01*
X143813416Y-131254368D01*
X143818366Y-131252883D01*
X144022429Y-131191661D01*
X144022434Y-131191659D01*
X144027384Y-131190174D01*
X144227994Y-131091896D01*
X144409860Y-130962173D01*
X144568096Y-130804489D01*
X144698453Y-130623077D01*
X144699640Y-130623930D01*
X144746960Y-130580362D01*
X144816897Y-130568145D01*
X144882338Y-130595678D01*
X144910166Y-130627511D01*
X144967694Y-130721388D01*
X144973777Y-130729699D01*
X145113213Y-130890667D01*
X145120580Y-130897883D01*
X145284434Y-131033916D01*
X145292881Y-131039831D01*
X145476756Y-131147279D01*
X145486042Y-131151729D01*
X145685001Y-131227703D01*
X145694899Y-131230579D01*
X145798250Y-131251606D01*
X145812299Y-131250410D01*
X145816000Y-131240065D01*
X145816000Y-129793000D01*
X145836002Y-129724879D01*
X145889658Y-129678386D01*
X145942000Y-129667000D01*
X146198000Y-129667000D01*
X146266121Y-129687002D01*
X146312614Y-129740658D01*
X146324000Y-129793000D01*
X146324000Y-131239517D01*
X146328064Y-131253359D01*
X146341478Y-131255393D01*
X146348184Y-131254534D01*
X146358262Y-131252392D01*
X146562255Y-131191191D01*
X146571842Y-131187433D01*
X146763095Y-131093739D01*
X146771945Y-131088464D01*
X146945328Y-130964792D01*
X146953200Y-130958139D01*
X147104052Y-130807812D01*
X147110730Y-130799965D01*
X147238022Y-130622819D01*
X147239279Y-130623722D01*
X147286373Y-130580362D01*
X147356311Y-130568145D01*
X147421751Y-130595678D01*
X147449579Y-130627511D01*
X147509987Y-130726088D01*
X147656250Y-130894938D01*
X147828126Y-131037632D01*
X148021000Y-131150338D01*
X148229692Y-131230030D01*
X148234760Y-131231061D01*
X148234763Y-131231062D01*
X148329862Y-131250410D01*
X148448597Y-131274567D01*
X148453772Y-131274757D01*
X148453774Y-131274757D01*
X148666673Y-131282564D01*
X148666677Y-131282564D01*
X148671837Y-131282753D01*
X148676957Y-131282097D01*
X148676959Y-131282097D01*
X148888288Y-131255025D01*
X148888289Y-131255025D01*
X148893416Y-131254368D01*
X148898366Y-131252883D01*
X149102429Y-131191661D01*
X149102434Y-131191659D01*
X149107384Y-131190174D01*
X149307994Y-131091896D01*
X149489860Y-130962173D01*
X149648096Y-130804489D01*
X149778453Y-130623077D01*
X149779776Y-130624028D01*
X149826645Y-130580857D01*
X149896580Y-130568625D01*
X149962026Y-130596144D01*
X149989875Y-130627994D01*
X150049987Y-130726088D01*
X150196250Y-130894938D01*
X150368126Y-131037632D01*
X150561000Y-131150338D01*
X150769692Y-131230030D01*
X150774760Y-131231061D01*
X150774763Y-131231062D01*
X150869862Y-131250410D01*
X150988597Y-131274567D01*
X150993772Y-131274757D01*
X150993774Y-131274757D01*
X151206673Y-131282564D01*
X151206677Y-131282564D01*
X151211837Y-131282753D01*
X151216957Y-131282097D01*
X151216959Y-131282097D01*
X151428288Y-131255025D01*
X151428289Y-131255025D01*
X151433416Y-131254368D01*
X151438366Y-131252883D01*
X151642429Y-131191661D01*
X151642434Y-131191659D01*
X151647384Y-131190174D01*
X151847994Y-131091896D01*
X152029860Y-130962173D01*
X152188096Y-130804489D01*
X152318453Y-130623077D01*
X152331995Y-130595678D01*
X152415136Y-130427453D01*
X152415137Y-130427451D01*
X152417430Y-130422811D01*
X152482370Y-130209069D01*
X152511529Y-129987590D01*
X152511611Y-129984240D01*
X152513074Y-129924365D01*
X152513074Y-129924361D01*
X152513156Y-129921000D01*
X152494852Y-129698361D01*
X152440431Y-129481702D01*
X152351354Y-129276840D01*
X152230014Y-129089277D01*
X152079670Y-128924051D01*
X152075619Y-128920852D01*
X152075615Y-128920848D01*
X151908414Y-128788800D01*
X151908410Y-128788798D01*
X151904359Y-128785598D01*
X151868028Y-128765542D01*
X151852136Y-128756769D01*
X151708789Y-128677638D01*
X151703920Y-128675914D01*
X151703916Y-128675912D01*
X151503087Y-128604795D01*
X151503083Y-128604794D01*
X151498212Y-128603069D01*
X151493119Y-128602162D01*
X151493116Y-128602161D01*
X151283373Y-128564800D01*
X151283367Y-128564799D01*
X151278284Y-128563894D01*
X151204452Y-128562992D01*
X151060081Y-128561228D01*
X151060079Y-128561228D01*
X151054911Y-128561165D01*
X150834091Y-128594955D01*
X150621756Y-128664357D01*
X150423607Y-128767507D01*
X150419474Y-128770610D01*
X150419471Y-128770612D01*
X150285828Y-128870954D01*
X150244965Y-128901635D01*
X150241393Y-128905373D01*
X150133729Y-129018037D01*
X150090629Y-129063138D01*
X149983201Y-129220621D01*
X149928293Y-129265621D01*
X149857768Y-129273792D01*
X149794021Y-129242538D01*
X149773324Y-129218054D01*
X149692822Y-129093617D01*
X149692820Y-129093614D01*
X149690014Y-129089277D01*
X149539670Y-128924051D01*
X149535619Y-128920852D01*
X149535615Y-128920848D01*
X149368414Y-128788800D01*
X149368410Y-128788798D01*
X149364359Y-128785598D01*
X149328028Y-128765542D01*
X149312136Y-128756769D01*
X149168789Y-128677638D01*
X149163920Y-128675914D01*
X149163916Y-128675912D01*
X148963087Y-128604795D01*
X148963083Y-128604794D01*
X148958212Y-128603069D01*
X148953119Y-128602162D01*
X148953116Y-128602161D01*
X148743373Y-128564800D01*
X148743367Y-128564799D01*
X148738284Y-128563894D01*
X148664452Y-128562992D01*
X148520081Y-128561228D01*
X148520079Y-128561228D01*
X148514911Y-128561165D01*
X148294091Y-128594955D01*
X148081756Y-128664357D01*
X147883607Y-128767507D01*
X147879474Y-128770610D01*
X147879471Y-128770612D01*
X147745828Y-128870954D01*
X147704965Y-128901635D01*
X147701393Y-128905373D01*
X147593729Y-129018037D01*
X147550629Y-129063138D01*
X147443204Y-129220618D01*
X147442898Y-129221066D01*
X147387987Y-129266069D01*
X147317462Y-129274240D01*
X147253715Y-129242986D01*
X147233018Y-129218502D01*
X147152426Y-129093926D01*
X147146136Y-129085757D01*
X147002806Y-128928240D01*
X146995273Y-128921215D01*
X146828139Y-128789222D01*
X146819552Y-128783517D01*
X146633117Y-128680599D01*
X146623705Y-128676369D01*
X146460770Y-128618670D01*
X146403234Y-128577076D01*
X146377318Y-128510978D01*
X146391252Y-128441362D01*
X146440611Y-128390331D01*
X146470219Y-128378190D01*
X146529761Y-128362236D01*
X146540053Y-128358490D01*
X146737511Y-128266414D01*
X146747006Y-128260931D01*
X146799048Y-128224491D01*
X146807424Y-128214012D01*
X146800356Y-128200566D01*
X146098812Y-127499022D01*
X146084868Y-127491408D01*
X146083035Y-127491539D01*
X146076420Y-127495790D01*
X145370923Y-128201287D01*
X145364493Y-128213062D01*
X145373789Y-128225077D01*
X145424994Y-128260931D01*
X145434489Y-128266414D01*
X145631947Y-128358490D01*
X145642239Y-128362236D01*
X145686282Y-128374037D01*
X145746905Y-128410989D01*
X145777926Y-128474849D01*
X145769498Y-128545344D01*
X145724295Y-128600091D01*
X145692816Y-128615509D01*
X145546868Y-128663212D01*
X145537359Y-128667209D01*
X145348463Y-128765542D01*
X145339738Y-128771036D01*
X145169433Y-128898905D01*
X145161726Y-128905748D01*
X145014590Y-129059717D01*
X145008109Y-129067722D01*
X144903498Y-129221074D01*
X144848587Y-129266076D01*
X144778062Y-129274247D01*
X144714315Y-129242993D01*
X144693618Y-129218509D01*
X144612822Y-129093617D01*
X144612820Y-129093614D01*
X144610014Y-129089277D01*
X144459670Y-128924051D01*
X144455619Y-128920852D01*
X144455615Y-128920848D01*
X144288414Y-128788800D01*
X144288410Y-128788798D01*
X144284359Y-128785598D01*
X144248028Y-128765542D01*
X144232136Y-128756769D01*
X144088789Y-128677638D01*
X144083920Y-128675914D01*
X144083916Y-128675912D01*
X143939684Y-128624837D01*
X143882148Y-128583243D01*
X143856232Y-128517145D01*
X143870166Y-128447529D01*
X143919525Y-128396498D01*
X143949131Y-128384358D01*
X144029929Y-128362708D01*
X144029933Y-128362707D01*
X144029935Y-128362706D01*
X144035243Y-128361284D01*
X144041235Y-128358490D01*
X144237762Y-128266849D01*
X144237767Y-128266846D01*
X144242749Y-128264523D01*
X144399718Y-128154612D01*
X144425789Y-128136357D01*
X144425792Y-128136355D01*
X144430300Y-128133198D01*
X144592198Y-127971300D01*
X144627571Y-127920783D01*
X144720369Y-127788253D01*
X144723523Y-127783749D01*
X144725847Y-127778765D01*
X144727171Y-127776472D01*
X144778553Y-127727479D01*
X144848267Y-127714043D01*
X144914178Y-127740429D01*
X144945409Y-127776472D01*
X144952066Y-127788002D01*
X144988509Y-127840048D01*
X144998988Y-127848424D01*
X145012434Y-127841356D01*
X145713978Y-127139812D01*
X145720356Y-127128132D01*
X146450408Y-127128132D01*
X146450539Y-127129965D01*
X146454790Y-127136580D01*
X147160287Y-127842077D01*
X147172062Y-127848507D01*
X147184077Y-127839211D01*
X147219931Y-127788006D01*
X147225414Y-127778511D01*
X147317490Y-127581053D01*
X147321236Y-127570761D01*
X147377625Y-127360312D01*
X147379528Y-127349519D01*
X147398517Y-127132475D01*
X147398517Y-127121525D01*
X147379528Y-126904481D01*
X147377625Y-126893688D01*
X147321236Y-126683239D01*
X147317490Y-126672947D01*
X147225414Y-126475489D01*
X147219931Y-126465994D01*
X147183491Y-126413952D01*
X147173012Y-126405576D01*
X147159566Y-126412644D01*
X146458022Y-127114188D01*
X146450408Y-127128132D01*
X145720356Y-127128132D01*
X145721592Y-127125868D01*
X145721461Y-127124035D01*
X145717210Y-127117420D01*
X145011713Y-126411923D01*
X144999938Y-126405493D01*
X144987923Y-126414789D01*
X144952066Y-126465998D01*
X144945409Y-126477528D01*
X144894027Y-126526521D01*
X144824313Y-126539958D01*
X144758402Y-126513571D01*
X144727171Y-126477528D01*
X144725847Y-126475235D01*
X144723523Y-126470251D01*
X144592198Y-126282700D01*
X144430300Y-126120802D01*
X144425792Y-126117645D01*
X144425789Y-126117643D01*
X144314886Y-126039988D01*
X145364576Y-126039988D01*
X145371644Y-126053434D01*
X146073188Y-126754978D01*
X146087132Y-126762592D01*
X146088965Y-126762461D01*
X146095580Y-126758210D01*
X146801077Y-126052713D01*
X146807507Y-126040938D01*
X146798211Y-126028923D01*
X146747006Y-125993069D01*
X146737511Y-125987586D01*
X146540053Y-125895510D01*
X146529761Y-125891764D01*
X146319312Y-125835375D01*
X146308519Y-125833472D01*
X146091475Y-125814483D01*
X146080525Y-125814483D01*
X145863481Y-125833472D01*
X145852688Y-125835375D01*
X145642239Y-125891764D01*
X145631947Y-125895510D01*
X145434489Y-125987586D01*
X145424994Y-125993069D01*
X145372952Y-126029509D01*
X145364576Y-126039988D01*
X144314886Y-126039988D01*
X144299920Y-126029509D01*
X144242749Y-125989477D01*
X144237767Y-125987154D01*
X144237762Y-125987151D01*
X144093343Y-125919808D01*
X144057498Y-125894708D01*
X143502812Y-125340022D01*
X143488868Y-125332408D01*
X143487035Y-125332539D01*
X143480420Y-125336790D01*
X142774923Y-126042287D01*
X142757202Y-126074739D01*
X142750712Y-126104573D01*
X142729220Y-126133282D01*
X142579802Y-126282700D01*
X142448477Y-126470251D01*
X142446154Y-126475233D01*
X142446151Y-126475238D01*
X142422238Y-126526521D01*
X142351716Y-126677757D01*
X142350294Y-126683065D01*
X142350293Y-126683067D01*
X142329019Y-126762461D01*
X142292457Y-126898913D01*
X142272502Y-127127000D01*
X142292457Y-127355087D01*
X142293881Y-127360400D01*
X142293881Y-127360402D01*
X142331025Y-127499022D01*
X142351716Y-127576243D01*
X142354039Y-127581224D01*
X142354039Y-127581225D01*
X142446151Y-127778762D01*
X142446154Y-127778767D01*
X142448477Y-127783749D01*
X142451634Y-127788257D01*
X142544430Y-127920783D01*
X142579802Y-127971300D01*
X142741700Y-128133198D01*
X142746208Y-128136355D01*
X142746211Y-128136357D01*
X142772282Y-128154612D01*
X142929251Y-128264523D01*
X142934233Y-128266846D01*
X142934238Y-128266849D01*
X143130765Y-128358490D01*
X143136757Y-128361284D01*
X143142066Y-128362707D01*
X143142070Y-128362708D01*
X143162550Y-128368196D01*
X143223172Y-128405149D01*
X143254192Y-128469010D01*
X143245762Y-128539504D01*
X143200558Y-128594250D01*
X143169084Y-128609666D01*
X143001756Y-128664357D01*
X142803607Y-128767507D01*
X142799474Y-128770610D01*
X142799471Y-128770612D01*
X142665828Y-128870954D01*
X142624965Y-128901635D01*
X142568537Y-128960684D01*
X142544283Y-128986064D01*
X142482759Y-129021494D01*
X142411846Y-129018037D01*
X142354060Y-128976791D01*
X142335207Y-128943243D01*
X142293767Y-128832703D01*
X142290615Y-128824295D01*
X142203261Y-128707739D01*
X142086705Y-128620385D01*
X141950316Y-128569255D01*
X141888134Y-128562500D01*
X140091866Y-128562500D01*
X140029684Y-128569255D01*
X139893295Y-128620385D01*
X139776739Y-128707739D01*
X139689385Y-128824295D01*
X139638255Y-128960684D01*
X139631500Y-129022866D01*
X139631500Y-130819134D01*
X129689368Y-130819134D01*
X129003261Y-130428579D01*
X128999664Y-130426452D01*
X128056797Y-129847530D01*
X128053274Y-129845285D01*
X127130170Y-129235453D01*
X127126722Y-129233093D01*
X126718109Y-128943243D01*
X126224273Y-128592940D01*
X126220914Y-128590472D01*
X126211408Y-128583243D01*
X125340227Y-127920782D01*
X125336945Y-127918199D01*
X124478958Y-127219688D01*
X124475762Y-127216997D01*
X124375819Y-127129965D01*
X123641395Y-126490414D01*
X123638295Y-126487622D01*
X123292546Y-126165769D01*
X123256313Y-126104714D01*
X123258842Y-126033763D01*
X123299328Y-125975441D01*
X123364918Y-125948267D01*
X123397454Y-125948994D01*
X123599289Y-125979879D01*
X123745621Y-125982178D01*
X123882453Y-125984328D01*
X123882459Y-125984328D01*
X123886744Y-125984395D01*
X123890996Y-125983880D01*
X123891004Y-125983880D01*
X124167892Y-125950372D01*
X124167897Y-125950371D01*
X124172153Y-125949856D01*
X124286689Y-125919808D01*
X124446090Y-125877990D01*
X124446091Y-125877990D01*
X124450233Y-125876903D01*
X124715840Y-125766885D01*
X124951369Y-125629253D01*
X124960355Y-125624002D01*
X124960356Y-125624001D01*
X124964058Y-125621838D01*
X125190295Y-125444446D01*
X125211996Y-125422053D01*
X125387380Y-125241070D01*
X125390363Y-125237992D01*
X125392896Y-125234544D01*
X125392900Y-125234539D01*
X125558023Y-125009750D01*
X125560561Y-125006295D01*
X125581353Y-124968000D01*
X139676502Y-124968000D01*
X139696457Y-125196087D01*
X139697881Y-125201400D01*
X139697881Y-125201402D01*
X139735025Y-125340022D01*
X139755716Y-125417243D01*
X139758039Y-125422224D01*
X139758039Y-125422225D01*
X139850151Y-125619762D01*
X139850154Y-125619767D01*
X139852477Y-125624749D01*
X139983802Y-125812300D01*
X140145700Y-125974198D01*
X140150208Y-125977355D01*
X140150211Y-125977357D01*
X140198603Y-126011241D01*
X140333251Y-126105523D01*
X140338233Y-126107846D01*
X140338238Y-126107849D01*
X140535775Y-126199961D01*
X140540757Y-126202284D01*
X140546065Y-126203706D01*
X140546067Y-126203707D01*
X140756598Y-126260119D01*
X140756600Y-126260119D01*
X140761913Y-126261543D01*
X140990000Y-126281498D01*
X141218087Y-126261543D01*
X141223400Y-126260119D01*
X141223402Y-126260119D01*
X141433933Y-126203707D01*
X141433935Y-126203706D01*
X141439243Y-126202284D01*
X141444225Y-126199961D01*
X141641762Y-126107849D01*
X141641767Y-126107846D01*
X141646749Y-126105523D01*
X141781397Y-126011241D01*
X141829789Y-125977357D01*
X141829792Y-125977355D01*
X141834300Y-125974198D01*
X141996198Y-125812300D01*
X142049320Y-125736435D01*
X142124369Y-125629253D01*
X142127523Y-125624749D01*
X142129847Y-125619765D01*
X142131171Y-125617472D01*
X142182553Y-125568479D01*
X142252267Y-125555043D01*
X142318178Y-125581429D01*
X142349409Y-125617472D01*
X142356066Y-125629002D01*
X142392509Y-125681048D01*
X142402988Y-125689424D01*
X142416434Y-125682356D01*
X143117978Y-124980812D01*
X143124356Y-124969132D01*
X143854408Y-124969132D01*
X143854539Y-124970965D01*
X143858790Y-124977580D01*
X144564287Y-125683077D01*
X144576062Y-125689507D01*
X144588077Y-125680211D01*
X144623931Y-125629006D01*
X144629414Y-125619511D01*
X144721490Y-125422053D01*
X144725236Y-125411761D01*
X144781625Y-125201312D01*
X144783528Y-125190519D01*
X144802517Y-124973475D01*
X144802517Y-124962525D01*
X144783528Y-124745481D01*
X144781625Y-124734688D01*
X144725236Y-124524239D01*
X144721490Y-124513947D01*
X144629414Y-124316489D01*
X144623931Y-124306994D01*
X144587491Y-124254952D01*
X144577012Y-124246576D01*
X144563566Y-124253644D01*
X143862022Y-124955188D01*
X143854408Y-124969132D01*
X143124356Y-124969132D01*
X143125592Y-124966868D01*
X143125461Y-124965035D01*
X143121210Y-124958420D01*
X142415713Y-124252923D01*
X142403938Y-124246493D01*
X142391923Y-124255789D01*
X142356066Y-124306998D01*
X142349409Y-124318528D01*
X142298027Y-124367521D01*
X142228313Y-124380958D01*
X142162402Y-124354571D01*
X142131171Y-124318528D01*
X142129847Y-124316235D01*
X142127523Y-124311251D01*
X142049765Y-124200201D01*
X141999357Y-124128211D01*
X141999355Y-124128208D01*
X141996198Y-124123700D01*
X141834300Y-123961802D01*
X141829792Y-123958645D01*
X141829789Y-123958643D01*
X141718886Y-123880988D01*
X142768576Y-123880988D01*
X142775644Y-123894434D01*
X143477188Y-124595978D01*
X143491132Y-124603592D01*
X143492965Y-124603461D01*
X143499580Y-124599210D01*
X144205077Y-123893713D01*
X144211507Y-123881938D01*
X144202211Y-123869923D01*
X144151006Y-123834069D01*
X144141511Y-123828586D01*
X143944053Y-123736510D01*
X143933761Y-123732764D01*
X143723312Y-123676375D01*
X143712519Y-123674472D01*
X143495475Y-123655483D01*
X143484525Y-123655483D01*
X143267481Y-123674472D01*
X143256688Y-123676375D01*
X143046239Y-123732764D01*
X143035947Y-123736510D01*
X142838489Y-123828586D01*
X142828994Y-123834069D01*
X142776952Y-123870509D01*
X142768576Y-123880988D01*
X141718886Y-123880988D01*
X141703920Y-123870509D01*
X141646749Y-123830477D01*
X141641767Y-123828154D01*
X141641762Y-123828151D01*
X141444225Y-123736039D01*
X141444224Y-123736039D01*
X141439243Y-123733716D01*
X141433935Y-123732294D01*
X141433933Y-123732293D01*
X141223402Y-123675881D01*
X141223400Y-123675881D01*
X141218087Y-123674457D01*
X140990000Y-123654502D01*
X140761913Y-123674457D01*
X140756600Y-123675881D01*
X140756598Y-123675881D01*
X140546067Y-123732293D01*
X140546065Y-123732294D01*
X140540757Y-123733716D01*
X140535776Y-123736039D01*
X140535775Y-123736039D01*
X140338238Y-123828151D01*
X140338233Y-123828154D01*
X140333251Y-123830477D01*
X140276080Y-123870509D01*
X140150211Y-123958643D01*
X140150208Y-123958645D01*
X140145700Y-123961802D01*
X139983802Y-124123700D01*
X139980645Y-124128208D01*
X139980643Y-124128211D01*
X139930235Y-124200201D01*
X139852477Y-124311251D01*
X139850154Y-124316233D01*
X139850151Y-124316238D01*
X139811165Y-124399845D01*
X139755716Y-124518757D01*
X139754294Y-124524065D01*
X139754293Y-124524067D01*
X139708041Y-124696681D01*
X139696457Y-124739913D01*
X139676502Y-124968000D01*
X125581353Y-124968000D01*
X125581968Y-124966868D01*
X125695690Y-124757419D01*
X125695691Y-124757417D01*
X125697740Y-124753643D01*
X125784490Y-124524067D01*
X125797843Y-124488730D01*
X125797844Y-124488726D01*
X125799361Y-124484712D01*
X125829328Y-124353869D01*
X125862585Y-124208661D01*
X125862586Y-124208657D01*
X125863543Y-124204477D01*
X125869144Y-124141726D01*
X125888879Y-123920590D01*
X125888879Y-123920588D01*
X125889099Y-123918124D01*
X125889563Y-123873864D01*
X125879912Y-123732293D01*
X125870301Y-123591316D01*
X125870300Y-123591310D01*
X125870009Y-123587039D01*
X125865472Y-123565128D01*
X125812579Y-123309719D01*
X125811710Y-123305522D01*
X125715743Y-123034521D01*
X125583886Y-122779052D01*
X125570624Y-122760181D01*
X125421040Y-122547346D01*
X125418577Y-122543841D01*
X125328857Y-122447291D01*
X125225797Y-122336385D01*
X125225794Y-122336383D01*
X125222876Y-122333242D01*
X125000404Y-122151151D01*
X124755278Y-122000937D01*
X124737184Y-121992994D01*
X124495966Y-121887107D01*
X124492034Y-121885381D01*
X124466099Y-121877993D01*
X124219670Y-121807796D01*
X124219671Y-121807796D01*
X124215542Y-121806620D01*
X124002840Y-121776349D01*
X123935172Y-121766718D01*
X123935170Y-121766718D01*
X123930920Y-121766113D01*
X123926631Y-121766091D01*
X123926624Y-121766090D01*
X123647719Y-121764629D01*
X123647712Y-121764629D01*
X123643433Y-121764607D01*
X123639189Y-121765166D01*
X123639185Y-121765166D01*
X123513796Y-121781674D01*
X123358402Y-121802132D01*
X123354262Y-121803265D01*
X123354260Y-121803265D01*
X123277447Y-121824279D01*
X123081100Y-121877993D01*
X123077152Y-121879677D01*
X122820612Y-121989101D01*
X122820608Y-121989103D01*
X122816660Y-121990787D01*
X122692096Y-122065337D01*
X122573657Y-122136221D01*
X122573653Y-122136224D01*
X122569975Y-122138425D01*
X122345608Y-122318177D01*
X122147713Y-122526715D01*
X121979950Y-122760181D01*
X121845424Y-123014256D01*
X121746625Y-123284237D01*
X121685381Y-123565128D01*
X121676777Y-123674457D01*
X121663332Y-123845292D01*
X121663331Y-123845292D01*
X121663332Y-123845294D01*
X121662825Y-123851733D01*
X121663072Y-123856017D01*
X121663072Y-123856018D01*
X121665287Y-123894434D01*
X121679374Y-124138747D01*
X121680199Y-124142952D01*
X121680200Y-124142960D01*
X121701152Y-124249750D01*
X121694639Y-124320447D01*
X121650938Y-124376400D01*
X121583924Y-124399845D01*
X121514873Y-124383337D01*
X121485734Y-124360341D01*
X121379937Y-124247876D01*
X121280067Y-124141711D01*
X121277269Y-124138636D01*
X121268499Y-124128670D01*
X120546317Y-123308073D01*
X120543611Y-123304893D01*
X119840606Y-122450561D01*
X119838005Y-122447291D01*
X119163714Y-121570123D01*
X119161223Y-121566769D01*
X118516373Y-120667712D01*
X118513995Y-120664277D01*
X117899320Y-119744351D01*
X117897057Y-119740839D01*
X117437584Y-119001228D01*
X117313219Y-118801038D01*
X117311081Y-118797466D01*
X117164328Y-118542769D01*
X116758705Y-117838790D01*
X116756691Y-117835157D01*
X116597572Y-117536525D01*
X116236419Y-116858723D01*
X116234516Y-116855004D01*
X115746909Y-115861869D01*
X115745130Y-115858089D01*
X115571477Y-115472594D01*
X115290701Y-114849295D01*
X115289059Y-114845482D01*
X114868333Y-113822191D01*
X114866809Y-113818301D01*
X114820561Y-113694273D01*
X114480258Y-112781662D01*
X114478863Y-112777724D01*
X114240397Y-112067088D01*
X114126868Y-111728768D01*
X114125612Y-111724806D01*
X114116053Y-111692840D01*
X113870270Y-110871000D01*
X113808612Y-110664830D01*
X113807481Y-110660808D01*
X113665228Y-110120495D01*
X113525774Y-109590812D01*
X113524794Y-109586816D01*
X113278733Y-108508134D01*
X113277872Y-108504051D01*
X113277006Y-108499572D01*
X113220153Y-108205723D01*
X113067705Y-107417772D01*
X113066980Y-107413657D01*
X112929804Y-106552429D01*
X112892950Y-106321048D01*
X112892364Y-106316932D01*
X112885311Y-106260702D01*
X112754652Y-105219123D01*
X112754201Y-105214971D01*
X112747681Y-105144016D01*
X112652966Y-104113239D01*
X112652653Y-104109087D01*
X112651955Y-104097152D01*
X112588000Y-103004555D01*
X112587825Y-103000390D01*
X112587452Y-102985631D01*
X112579044Y-102653489D01*
X112559828Y-101894340D01*
X112559792Y-101890162D01*
X112568482Y-100783821D01*
X112568584Y-100779645D01*
X112613949Y-99674199D01*
X112614189Y-99670027D01*
X112696184Y-98566653D01*
X112696563Y-98562492D01*
X112790095Y-97694454D01*
X115916269Y-97694454D01*
X115917015Y-97702346D01*
X115920430Y-97738472D01*
X115920989Y-97750330D01*
X115920989Y-107204722D01*
X115920462Y-107215905D01*
X115918787Y-107223398D01*
X115919036Y-107231324D01*
X115919036Y-107231325D01*
X115920927Y-107291475D01*
X115920989Y-107295434D01*
X115920989Y-107323345D01*
X115921486Y-107327279D01*
X115921486Y-107327280D01*
X115921494Y-107327345D01*
X115922427Y-107339182D01*
X115923816Y-107383378D01*
X115929467Y-107402828D01*
X115933476Y-107422189D01*
X115933950Y-107425937D01*
X115936015Y-107442286D01*
X115938934Y-107449657D01*
X115938934Y-107449659D01*
X115952293Y-107483401D01*
X115956138Y-107494631D01*
X115957637Y-107499789D01*
X115968471Y-107537082D01*
X115972504Y-107543901D01*
X115972506Y-107543906D01*
X115978782Y-107554517D01*
X115987477Y-107572265D01*
X115994937Y-107591106D01*
X115999599Y-107597522D01*
X115999599Y-107597523D01*
X116020925Y-107626876D01*
X116027441Y-107636796D01*
X116044830Y-107666198D01*
X116049947Y-107674851D01*
X116064268Y-107689172D01*
X116077108Y-107704205D01*
X116089017Y-107720596D01*
X116122502Y-107748297D01*
X116123094Y-107748787D01*
X116131873Y-107756777D01*
X121824142Y-113449046D01*
X121831686Y-113457336D01*
X121835799Y-113463817D01*
X121841576Y-113469242D01*
X121885466Y-113510457D01*
X121888308Y-113513212D01*
X121908029Y-113532933D01*
X121911224Y-113535411D01*
X121920246Y-113543117D01*
X121952478Y-113573385D01*
X121959427Y-113577205D01*
X121970231Y-113583145D01*
X121986755Y-113593998D01*
X122002758Y-113606412D01*
X122043342Y-113623975D01*
X122053972Y-113629182D01*
X122092739Y-113650494D01*
X122100416Y-113652465D01*
X122100421Y-113652467D01*
X122112357Y-113655531D01*
X122131065Y-113661936D01*
X122149654Y-113669980D01*
X122157482Y-113671220D01*
X122157489Y-113671222D01*
X122193323Y-113676898D01*
X122204943Y-113679304D01*
X122236758Y-113687472D01*
X122247769Y-113690299D01*
X122268023Y-113690299D01*
X122287733Y-113691850D01*
X122307742Y-113695019D01*
X122315634Y-113694273D01*
X122334379Y-113692501D01*
X122351761Y-113690858D01*
X122363618Y-113690299D01*
X147359364Y-113690299D01*
X147370547Y-113690826D01*
X147378040Y-113692501D01*
X147385966Y-113692252D01*
X147385967Y-113692252D01*
X147446117Y-113690361D01*
X147450076Y-113690299D01*
X147477987Y-113690299D01*
X147481922Y-113689802D01*
X147481987Y-113689794D01*
X147493824Y-113688861D01*
X147526082Y-113687847D01*
X147530101Y-113687721D01*
X147538020Y-113687472D01*
X147557474Y-113681820D01*
X147576831Y-113677812D01*
X147589061Y-113676267D01*
X147589062Y-113676267D01*
X147596928Y-113675273D01*
X147604299Y-113672354D01*
X147604301Y-113672354D01*
X147638043Y-113658995D01*
X147649273Y-113655150D01*
X147684114Y-113645028D01*
X147684115Y-113645028D01*
X147691724Y-113642817D01*
X147698543Y-113638784D01*
X147698548Y-113638782D01*
X147709159Y-113632506D01*
X147726907Y-113623811D01*
X147745748Y-113616351D01*
X147766118Y-113601552D01*
X147781518Y-113590363D01*
X147791438Y-113583847D01*
X147822666Y-113565379D01*
X147822669Y-113565377D01*
X147829493Y-113561341D01*
X147843814Y-113547020D01*
X147858848Y-113534179D01*
X147860563Y-113532933D01*
X147875238Y-113522271D01*
X147903429Y-113488194D01*
X147911419Y-113479415D01*
X148392986Y-112997848D01*
X148992547Y-112398288D01*
X149054857Y-112364263D01*
X149125672Y-112369328D01*
X149170735Y-112398288D01*
X150009226Y-113236778D01*
X150016762Y-113245060D01*
X150020873Y-113251538D01*
X150026650Y-113256963D01*
X150070524Y-113298163D01*
X150073366Y-113300918D01*
X150093103Y-113320655D01*
X150096300Y-113323135D01*
X150105320Y-113330838D01*
X150137552Y-113361106D01*
X150144498Y-113364925D01*
X150144501Y-113364927D01*
X150155307Y-113370868D01*
X150171826Y-113381719D01*
X150187832Y-113394134D01*
X150195101Y-113397279D01*
X150195105Y-113397282D01*
X150228410Y-113411694D01*
X150239060Y-113416911D01*
X150277813Y-113438215D01*
X150285488Y-113440186D01*
X150285489Y-113440186D01*
X150297435Y-113443253D01*
X150316140Y-113449657D01*
X150334728Y-113457701D01*
X150363935Y-113462327D01*
X150378392Y-113464617D01*
X150390013Y-113467024D01*
X150421832Y-113475193D01*
X150432843Y-113478020D01*
X150453104Y-113478020D01*
X150472813Y-113479571D01*
X150492816Y-113482739D01*
X150500708Y-113481993D01*
X150505935Y-113481499D01*
X150536827Y-113478579D01*
X150548684Y-113478020D01*
X170413713Y-113478020D01*
X170424896Y-113478547D01*
X170432389Y-113480222D01*
X170440315Y-113479973D01*
X170440316Y-113479973D01*
X170500466Y-113478082D01*
X170504425Y-113478020D01*
X170532336Y-113478020D01*
X170536271Y-113477523D01*
X170536336Y-113477515D01*
X170548173Y-113476582D01*
X170580431Y-113475568D01*
X170584450Y-113475442D01*
X170592369Y-113475193D01*
X170611823Y-113469541D01*
X170631180Y-113465533D01*
X170643410Y-113463988D01*
X170643411Y-113463988D01*
X170651277Y-113462994D01*
X170658648Y-113460075D01*
X170658650Y-113460075D01*
X170692392Y-113446716D01*
X170703622Y-113442871D01*
X170738463Y-113432749D01*
X170738464Y-113432749D01*
X170746073Y-113430538D01*
X170752892Y-113426505D01*
X170752897Y-113426503D01*
X170763508Y-113420227D01*
X170781256Y-113411532D01*
X170800097Y-113404072D01*
X170835867Y-113378084D01*
X170845787Y-113371568D01*
X170877015Y-113353100D01*
X170877018Y-113353098D01*
X170883842Y-113349062D01*
X170898163Y-113334741D01*
X170913197Y-113321900D01*
X170923174Y-113314651D01*
X170929587Y-113309992D01*
X170957778Y-113275915D01*
X170965768Y-113267136D01*
X176033253Y-108199652D01*
X176041539Y-108192112D01*
X176048018Y-108188000D01*
X176094644Y-108138348D01*
X176097398Y-108135507D01*
X176117135Y-108115770D01*
X176119615Y-108112573D01*
X176127320Y-108103551D01*
X176140829Y-108089165D01*
X176157586Y-108071321D01*
X176161405Y-108064375D01*
X176161407Y-108064372D01*
X176167348Y-108053566D01*
X176178199Y-108037047D01*
X176183323Y-108030441D01*
X176190614Y-108021041D01*
X176193759Y-108013772D01*
X176193762Y-108013768D01*
X176208174Y-107980463D01*
X176213391Y-107969813D01*
X176234695Y-107931060D01*
X176237202Y-107921298D01*
X176239733Y-107911438D01*
X176246137Y-107892734D01*
X176251033Y-107881420D01*
X176251033Y-107881419D01*
X176254181Y-107874145D01*
X176255420Y-107866322D01*
X176255423Y-107866312D01*
X176261099Y-107830476D01*
X176263505Y-107818856D01*
X176272528Y-107783711D01*
X176272528Y-107783710D01*
X176274500Y-107776030D01*
X176274500Y-107755776D01*
X176276051Y-107736065D01*
X176276109Y-107735702D01*
X176279220Y-107716057D01*
X176275059Y-107672038D01*
X176274500Y-107660181D01*
X176274500Y-105468767D01*
X176275027Y-105457584D01*
X176276702Y-105450091D01*
X176276428Y-105441358D01*
X176274562Y-105382014D01*
X176274500Y-105378055D01*
X176274500Y-105350144D01*
X176273995Y-105346144D01*
X176273062Y-105334301D01*
X176271922Y-105298029D01*
X176271673Y-105290110D01*
X176266022Y-105270658D01*
X176262014Y-105251306D01*
X176260467Y-105239063D01*
X176259474Y-105231203D01*
X176253982Y-105217331D01*
X176243200Y-105190097D01*
X176239355Y-105178870D01*
X176235051Y-105164057D01*
X176227018Y-105136407D01*
X176222984Y-105129585D01*
X176222981Y-105129579D01*
X176216706Y-105118968D01*
X176208010Y-105101218D01*
X176203472Y-105089756D01*
X176203469Y-105089751D01*
X176200552Y-105082383D01*
X176185274Y-105061354D01*
X176174573Y-105046625D01*
X176168057Y-105036707D01*
X176149575Y-105005457D01*
X176145542Y-104998637D01*
X176131218Y-104984313D01*
X176118376Y-104969278D01*
X176115823Y-104965764D01*
X176106472Y-104952893D01*
X176072406Y-104924711D01*
X176063627Y-104916722D01*
X175722218Y-104575313D01*
X175688192Y-104513001D01*
X175690755Y-104449589D01*
X175692776Y-104442939D01*
X175703370Y-104408069D01*
X175732529Y-104186590D01*
X175733068Y-104164519D01*
X175734074Y-104123365D01*
X175734074Y-104123361D01*
X175734156Y-104120000D01*
X175715852Y-103897361D01*
X175661431Y-103680702D01*
X175572354Y-103475840D01*
X175505483Y-103372473D01*
X175453822Y-103292617D01*
X175453820Y-103292614D01*
X175451014Y-103288277D01*
X175300670Y-103123051D01*
X175296619Y-103119852D01*
X175296615Y-103119848D01*
X175129414Y-102987800D01*
X175129410Y-102987798D01*
X175125359Y-102984598D01*
X175118802Y-102980978D01*
X175083569Y-102961529D01*
X175033598Y-102911097D01*
X175018826Y-102841654D01*
X175043942Y-102775248D01*
X175071294Y-102748641D01*
X175246328Y-102623792D01*
X175254200Y-102617139D01*
X175405052Y-102466812D01*
X175411730Y-102458965D01*
X175536003Y-102286020D01*
X175541313Y-102277183D01*
X175635670Y-102086267D01*
X175639469Y-102076672D01*
X175701377Y-101872910D01*
X175703555Y-101862837D01*
X175704986Y-101851962D01*
X175702775Y-101837778D01*
X175689617Y-101834000D01*
X174243000Y-101834000D01*
X174174879Y-101813998D01*
X174128386Y-101760342D01*
X174117000Y-101708000D01*
X174117000Y-101452000D01*
X174137002Y-101383879D01*
X174190658Y-101337386D01*
X174243000Y-101326000D01*
X175689344Y-101326000D01*
X175702875Y-101322027D01*
X175704180Y-101312947D01*
X175662214Y-101145875D01*
X175658894Y-101136124D01*
X175573972Y-100940814D01*
X175569105Y-100931739D01*
X175453426Y-100752926D01*
X175447136Y-100744757D01*
X175303806Y-100587240D01*
X175296273Y-100580215D01*
X175129139Y-100448222D01*
X175120556Y-100442520D01*
X175083602Y-100422120D01*
X175033631Y-100371687D01*
X175018859Y-100302245D01*
X175043975Y-100235839D01*
X175071327Y-100209232D01*
X175137241Y-100162216D01*
X175250860Y-100081173D01*
X175280514Y-100051623D01*
X175344420Y-99987939D01*
X175409096Y-99923489D01*
X175468030Y-99841474D01*
X175536435Y-99746277D01*
X175539453Y-99742077D01*
X175542087Y-99736749D01*
X175636136Y-99546453D01*
X175636137Y-99546451D01*
X175638430Y-99541811D01*
X175703370Y-99328069D01*
X175732529Y-99106590D01*
X175734156Y-99040000D01*
X175715852Y-98817361D01*
X175661431Y-98600702D01*
X175572354Y-98395840D01*
X175489620Y-98267952D01*
X175453822Y-98212617D01*
X175453820Y-98212614D01*
X175451014Y-98208277D01*
X175300670Y-98043051D01*
X175296619Y-98039852D01*
X175296615Y-98039848D01*
X175129414Y-97907800D01*
X175129410Y-97907798D01*
X175125359Y-97904598D01*
X175084053Y-97881796D01*
X175034084Y-97831364D01*
X175019312Y-97761921D01*
X175044428Y-97695516D01*
X175071780Y-97668909D01*
X175137304Y-97622171D01*
X175250860Y-97541173D01*
X175262985Y-97529091D01*
X175367310Y-97425129D01*
X175409096Y-97383489D01*
X175421931Y-97365628D01*
X175536435Y-97206277D01*
X175539453Y-97202077D01*
X175547950Y-97184886D01*
X175636136Y-97006453D01*
X175636137Y-97006451D01*
X175638430Y-97001811D01*
X175692498Y-96823854D01*
X175701865Y-96793023D01*
X175701865Y-96793021D01*
X175703370Y-96788069D01*
X175732529Y-96566590D01*
X175733064Y-96544704D01*
X175734074Y-96503365D01*
X175734074Y-96503361D01*
X175734156Y-96500000D01*
X175715852Y-96277361D01*
X175661431Y-96060702D01*
X175572354Y-95855840D01*
X175485578Y-95721705D01*
X175453822Y-95672617D01*
X175453820Y-95672614D01*
X175451014Y-95668277D01*
X175300670Y-95503051D01*
X175296619Y-95499852D01*
X175296615Y-95499848D01*
X175129414Y-95367800D01*
X175129410Y-95367798D01*
X175125359Y-95364598D01*
X174929789Y-95256638D01*
X174924920Y-95254914D01*
X174924916Y-95254912D01*
X174724087Y-95183795D01*
X174724083Y-95183794D01*
X174719212Y-95182069D01*
X174714119Y-95181162D01*
X174714116Y-95181161D01*
X174504373Y-95143800D01*
X174504367Y-95143799D01*
X174499284Y-95142894D01*
X174425452Y-95141992D01*
X174281081Y-95140228D01*
X174281079Y-95140228D01*
X174275911Y-95140165D01*
X174055091Y-95173955D01*
X173842756Y-95243357D01*
X173813667Y-95258500D01*
X173650428Y-95343477D01*
X173644607Y-95346507D01*
X173640474Y-95349610D01*
X173640471Y-95349612D01*
X173470100Y-95477530D01*
X173465965Y-95480635D01*
X173462393Y-95484373D01*
X173333022Y-95619752D01*
X173311629Y-95642138D01*
X173185743Y-95826680D01*
X173159069Y-95884144D01*
X173095192Y-96021757D01*
X173091688Y-96029305D01*
X173031989Y-96244570D01*
X173008251Y-96466695D01*
X173008548Y-96471853D01*
X173008422Y-96477024D01*
X173006914Y-96476987D01*
X172992411Y-96539482D01*
X172941520Y-96588986D01*
X172871944Y-96603117D01*
X172805773Y-96577389D01*
X172793574Y-96566669D01*
X164756405Y-88529500D01*
X164722379Y-88467188D01*
X164719500Y-88440405D01*
X164719500Y-85730694D01*
X164737046Y-85666555D01*
X164812234Y-85539419D01*
X164812234Y-85539418D01*
X164816269Y-85532596D01*
X164820488Y-85518076D01*
X164859834Y-85382644D01*
X164861629Y-85376466D01*
X164862296Y-85368000D01*
X164864307Y-85342444D01*
X164864307Y-85342438D01*
X164864500Y-85339989D01*
X164864499Y-84840012D01*
X164861629Y-84803534D01*
X164816269Y-84647404D01*
X164762647Y-84556733D01*
X164737540Y-84514280D01*
X164733506Y-84507459D01*
X164618541Y-84392494D01*
X164605286Y-84384655D01*
X164485419Y-84313766D01*
X164485418Y-84313766D01*
X164478596Y-84309731D01*
X164470985Y-84307520D01*
X164470983Y-84307519D01*
X164328644Y-84266166D01*
X164328645Y-84266166D01*
X164322466Y-84264371D01*
X164316059Y-84263867D01*
X164316055Y-84263866D01*
X164288444Y-84261693D01*
X164288438Y-84261693D01*
X164285989Y-84261500D01*
X164086122Y-84261500D01*
X163886012Y-84261501D01*
X163849534Y-84264371D01*
X163752730Y-84292495D01*
X163701017Y-84307519D01*
X163701015Y-84307520D01*
X163693404Y-84309731D01*
X163686579Y-84313767D01*
X163686575Y-84313769D01*
X163640139Y-84341231D01*
X163571323Y-84358691D01*
X163511861Y-84341231D01*
X163465425Y-84313769D01*
X163465421Y-84313767D01*
X163458596Y-84309731D01*
X163450985Y-84307520D01*
X163450983Y-84307519D01*
X163308644Y-84266166D01*
X163308645Y-84266166D01*
X163302466Y-84264371D01*
X163296059Y-84263867D01*
X163296055Y-84263866D01*
X163268444Y-84261693D01*
X163268438Y-84261693D01*
X163265989Y-84261500D01*
X163066122Y-84261500D01*
X162866012Y-84261501D01*
X162829534Y-84264371D01*
X162732730Y-84292495D01*
X162681017Y-84307519D01*
X162681015Y-84307520D01*
X162673404Y-84309731D01*
X162666582Y-84313766D01*
X162666581Y-84313766D01*
X162546714Y-84384655D01*
X162533459Y-84392494D01*
X162506358Y-84419595D01*
X162444046Y-84453621D01*
X162417263Y-84456500D01*
X162056267Y-84456500D01*
X162045084Y-84455973D01*
X162037591Y-84454298D01*
X162029664Y-84454547D01*
X162029662Y-84454547D01*
X162025455Y-84454679D01*
X162022249Y-84453846D01*
X162021773Y-84453801D01*
X162021780Y-84453724D01*
X161956740Y-84436825D01*
X161908586Y-84384655D01*
X161895500Y-84328741D01*
X161895499Y-84022199D01*
X161895499Y-84018076D01*
X161894885Y-84013406D01*
X161881881Y-83914626D01*
X161881880Y-83914624D01*
X161880803Y-83906439D01*
X161823267Y-83767536D01*
X161731742Y-83648258D01*
X161612463Y-83556733D01*
X161473561Y-83499197D01*
X161465377Y-83498120D01*
X161465375Y-83498119D01*
X161366012Y-83485038D01*
X161366011Y-83485038D01*
X161361925Y-83484500D01*
X161345500Y-83484500D01*
X161277379Y-83464498D01*
X161230886Y-83410842D01*
X161219500Y-83358500D01*
X161219500Y-83078516D01*
X161216606Y-83041746D01*
X161170894Y-82884403D01*
X161160985Y-82867647D01*
X161143526Y-82798830D01*
X161160984Y-82739372D01*
X161166395Y-82730222D01*
X161172643Y-82715784D01*
X161207619Y-82595395D01*
X161207579Y-82581295D01*
X161200309Y-82578000D01*
X160922379Y-82578000D01*
X160858240Y-82560454D01*
X160837420Y-82548141D01*
X160837419Y-82548141D01*
X160830597Y-82544106D01*
X160822986Y-82541895D01*
X160822984Y-82541894D01*
X160772005Y-82527084D01*
X160673254Y-82498394D01*
X160666849Y-82497890D01*
X160666844Y-82497889D01*
X160638940Y-82495693D01*
X160638932Y-82495693D01*
X160636484Y-82495500D01*
X160273000Y-82495500D01*
X160204879Y-82475498D01*
X160158386Y-82421842D01*
X160147000Y-82369500D01*
X160147000Y-82051885D01*
X160655000Y-82051885D01*
X160659475Y-82067124D01*
X160660865Y-82068329D01*
X160668548Y-82070000D01*
X161194558Y-82070000D01*
X161208089Y-82066027D01*
X161209224Y-82058129D01*
X161172643Y-81932216D01*
X161166396Y-81917780D01*
X161091124Y-81790501D01*
X161081484Y-81778074D01*
X160976926Y-81673516D01*
X160964499Y-81663876D01*
X160837220Y-81588604D01*
X160822784Y-81582357D01*
X160679359Y-81540688D01*
X160671391Y-81539232D01*
X160657969Y-81542052D01*
X160655000Y-81553513D01*
X160655000Y-82051885D01*
X160147000Y-82051885D01*
X160147000Y-81555576D01*
X160142656Y-81540781D01*
X160132225Y-81538937D01*
X160122641Y-81540688D01*
X159979216Y-81582357D01*
X159964782Y-81588603D01*
X159960557Y-81591102D01*
X159891741Y-81608562D01*
X159824409Y-81586046D01*
X159779939Y-81530703D01*
X159771494Y-81466204D01*
X159774192Y-81445709D01*
X159775270Y-81437520D01*
X159770020Y-81397640D01*
X159770020Y-81397635D01*
X159765265Y-81361516D01*
X159756411Y-81294261D01*
X159756410Y-81294259D01*
X159754358Y-81278670D01*
X159754358Y-81278669D01*
X159693044Y-81130644D01*
X159619997Y-81035448D01*
X159619994Y-81035445D01*
X159595507Y-81003533D01*
X159588952Y-80998503D01*
X159570141Y-80984068D01*
X159557750Y-80973201D01*
X158810719Y-80226170D01*
X158776693Y-80163858D01*
X158774159Y-80140284D01*
X158774504Y-80137000D01*
X158770399Y-80097943D01*
X158755232Y-79953635D01*
X158755232Y-79953633D01*
X158754542Y-79947072D01*
X158695527Y-79765444D01*
X158600040Y-79600056D01*
X158472253Y-79458134D01*
X158354887Y-79372862D01*
X158323094Y-79349763D01*
X158323093Y-79349762D01*
X158317752Y-79345882D01*
X158311724Y-79343198D01*
X158311722Y-79343197D01*
X158149319Y-79270891D01*
X158149318Y-79270891D01*
X158143288Y-79268206D01*
X158049888Y-79248353D01*
X157962944Y-79229872D01*
X157962939Y-79229872D01*
X157956487Y-79228500D01*
X157765513Y-79228500D01*
X157759061Y-79229872D01*
X157759056Y-79229872D01*
X157672112Y-79248353D01*
X157578712Y-79268206D01*
X157572682Y-79270891D01*
X157572681Y-79270891D01*
X157410278Y-79343197D01*
X157410276Y-79343198D01*
X157404248Y-79345882D01*
X157398907Y-79349762D01*
X157398906Y-79349763D01*
X157367113Y-79372862D01*
X157249747Y-79458134D01*
X157121960Y-79600056D01*
X157026473Y-79765444D01*
X156967458Y-79947072D01*
X156966768Y-79953633D01*
X156966768Y-79953635D01*
X156951601Y-80097943D01*
X156947496Y-80137000D01*
X156948186Y-80143565D01*
X156963090Y-80285365D01*
X156967458Y-80326928D01*
X157026473Y-80508556D01*
X157029776Y-80514278D01*
X157029777Y-80514279D01*
X157068876Y-80582000D01*
X157085614Y-80650995D01*
X157068876Y-80708000D01*
X157026473Y-80781444D01*
X156967458Y-80963072D01*
X156966768Y-80969633D01*
X156966768Y-80969635D01*
X156955560Y-81076274D01*
X156947496Y-81153000D01*
X156948186Y-81159565D01*
X156966013Y-81329175D01*
X156967458Y-81342928D01*
X157026473Y-81524556D01*
X157029776Y-81530278D01*
X157029777Y-81530279D01*
X157080824Y-81618695D01*
X157097562Y-81687690D01*
X157074341Y-81754782D01*
X157060800Y-81770790D01*
X157053516Y-81778074D01*
X157043874Y-81790503D01*
X157008955Y-81849548D01*
X156957062Y-81898000D01*
X156887212Y-81910705D01*
X156821581Y-81883629D01*
X156811407Y-81874503D01*
X149642905Y-74706000D01*
X149608879Y-74643688D01*
X149606213Y-74618884D01*
X150114000Y-74618884D01*
X150118475Y-74634123D01*
X150119865Y-74635328D01*
X150127548Y-74636999D01*
X150754669Y-74636999D01*
X150761490Y-74636629D01*
X150812352Y-74631105D01*
X150827604Y-74627479D01*
X150948054Y-74582324D01*
X150963649Y-74573786D01*
X151065724Y-74497285D01*
X151078285Y-74484724D01*
X151154786Y-74382649D01*
X151163324Y-74367054D01*
X151208478Y-74246606D01*
X151212105Y-74231351D01*
X151217631Y-74180486D01*
X151218000Y-74173672D01*
X151218000Y-73551115D01*
X151213525Y-73535876D01*
X151212135Y-73534671D01*
X151204452Y-73533000D01*
X150132115Y-73533000D01*
X150116876Y-73537475D01*
X150115671Y-73538865D01*
X150114000Y-73546548D01*
X150114000Y-74618884D01*
X149606213Y-74618884D01*
X149606000Y-74616905D01*
X149606000Y-73006885D01*
X150114000Y-73006885D01*
X150118475Y-73022124D01*
X150119865Y-73023329D01*
X150127548Y-73025000D01*
X151199884Y-73025000D01*
X151215123Y-73020525D01*
X151216328Y-73019135D01*
X151217999Y-73011452D01*
X151217999Y-72384331D01*
X151217629Y-72377510D01*
X151212105Y-72326648D01*
X151208479Y-72311396D01*
X151163324Y-72190946D01*
X151154786Y-72175351D01*
X151078285Y-72073276D01*
X151065724Y-72060715D01*
X150963649Y-71984214D01*
X150948054Y-71975676D01*
X150827606Y-71930522D01*
X150812351Y-71926895D01*
X150761486Y-71921369D01*
X150754672Y-71921000D01*
X150132115Y-71921000D01*
X150116876Y-71925475D01*
X150115671Y-71926865D01*
X150114000Y-71934548D01*
X150114000Y-73006885D01*
X149606000Y-73006885D01*
X149606000Y-71939116D01*
X149601525Y-71923877D01*
X149600135Y-71922672D01*
X149592452Y-71921001D01*
X148965331Y-71921001D01*
X148958510Y-71921371D01*
X148907648Y-71926895D01*
X148892396Y-71930521D01*
X148771946Y-71975676D01*
X148756351Y-71984214D01*
X148654276Y-72060715D01*
X148641715Y-72073276D01*
X148565214Y-72175351D01*
X148556676Y-72190946D01*
X148515297Y-72301322D01*
X148472655Y-72358087D01*
X148406093Y-72382786D01*
X148336744Y-72367578D01*
X148304121Y-72341891D01*
X148253151Y-72285876D01*
X148253145Y-72285870D01*
X148249670Y-72282051D01*
X148245619Y-72278852D01*
X148245615Y-72278848D01*
X148078414Y-72146800D01*
X148078410Y-72146798D01*
X148074359Y-72143598D01*
X147878789Y-72035638D01*
X147873920Y-72033914D01*
X147873916Y-72033912D01*
X147673087Y-71962795D01*
X147673083Y-71962794D01*
X147668212Y-71961069D01*
X147663119Y-71960162D01*
X147663116Y-71960161D01*
X147453373Y-71922800D01*
X147453367Y-71922799D01*
X147448284Y-71921894D01*
X147374452Y-71920992D01*
X147230081Y-71919228D01*
X147230079Y-71919228D01*
X147224911Y-71919165D01*
X147004091Y-71952955D01*
X146791756Y-72022357D01*
X146593607Y-72125507D01*
X146589474Y-72128610D01*
X146589471Y-72128612D01*
X146419100Y-72256530D01*
X146414965Y-72259635D01*
X146260629Y-72421138D01*
X146153201Y-72578621D01*
X146098293Y-72623621D01*
X146027768Y-72631792D01*
X145964021Y-72600538D01*
X145943324Y-72576054D01*
X145862822Y-72451617D01*
X145862820Y-72451614D01*
X145860014Y-72447277D01*
X145709670Y-72282051D01*
X145705619Y-72278852D01*
X145705615Y-72278848D01*
X145538414Y-72146800D01*
X145538410Y-72146798D01*
X145534359Y-72143598D01*
X145338789Y-72035638D01*
X145333920Y-72033914D01*
X145333916Y-72033912D01*
X145133087Y-71962795D01*
X145133083Y-71962794D01*
X145128212Y-71961069D01*
X145123119Y-71960162D01*
X145123116Y-71960161D01*
X144913373Y-71922800D01*
X144913367Y-71922799D01*
X144908284Y-71921894D01*
X144834452Y-71920992D01*
X144690081Y-71919228D01*
X144690079Y-71919228D01*
X144684911Y-71919165D01*
X144464091Y-71952955D01*
X144251756Y-72022357D01*
X144053607Y-72125507D01*
X144049474Y-72128610D01*
X144049471Y-72128612D01*
X143879100Y-72256530D01*
X143874965Y-72259635D01*
X143720629Y-72421138D01*
X143613201Y-72578621D01*
X143558293Y-72623621D01*
X143487768Y-72631792D01*
X143424021Y-72600538D01*
X143403324Y-72576054D01*
X143322822Y-72451617D01*
X143322820Y-72451614D01*
X143320014Y-72447277D01*
X143169670Y-72282051D01*
X143165619Y-72278852D01*
X143165615Y-72278848D01*
X142998414Y-72146800D01*
X142998410Y-72146798D01*
X142994359Y-72143598D01*
X142798789Y-72035638D01*
X142793920Y-72033914D01*
X142793916Y-72033912D01*
X142593087Y-71962795D01*
X142593083Y-71962794D01*
X142588212Y-71961069D01*
X142583119Y-71960162D01*
X142583116Y-71960161D01*
X142373373Y-71922800D01*
X142373367Y-71922799D01*
X142368284Y-71921894D01*
X142294452Y-71920992D01*
X142150081Y-71919228D01*
X142150079Y-71919228D01*
X142144911Y-71919165D01*
X141924091Y-71952955D01*
X141711756Y-72022357D01*
X141513607Y-72125507D01*
X141509474Y-72128610D01*
X141509471Y-72128612D01*
X141339100Y-72256530D01*
X141334965Y-72259635D01*
X141180629Y-72421138D01*
X141054743Y-72605680D01*
X140960688Y-72808305D01*
X140900989Y-73023570D01*
X140877251Y-73245695D01*
X140890110Y-73468715D01*
X140891247Y-73473761D01*
X140891248Y-73473767D01*
X140905606Y-73537475D01*
X140939222Y-73686639D01*
X141023266Y-73893616D01*
X141066409Y-73964019D01*
X141137291Y-74079688D01*
X141139987Y-74084088D01*
X141286250Y-74252938D01*
X141458126Y-74395632D01*
X141462593Y-74398242D01*
X141544070Y-74445853D01*
X141592794Y-74497491D01*
X141606500Y-74554641D01*
X141606500Y-74867611D01*
X141586498Y-74935732D01*
X141552772Y-74970823D01*
X141528418Y-74987876D01*
X141420211Y-75063643D01*
X141420208Y-75063645D01*
X141415700Y-75066802D01*
X141253802Y-75228700D01*
X141122477Y-75416251D01*
X141120153Y-75421235D01*
X141118829Y-75423528D01*
X141067447Y-75472521D01*
X140997733Y-75485957D01*
X140931822Y-75459571D01*
X140900591Y-75423528D01*
X140893934Y-75411998D01*
X140857491Y-75359952D01*
X140847012Y-75351576D01*
X140833566Y-75358644D01*
X139044923Y-77147287D01*
X139038493Y-77159062D01*
X139047789Y-77171077D01*
X139098994Y-77206931D01*
X139108489Y-77212414D01*
X139305947Y-77304490D01*
X139316239Y-77308236D01*
X139526688Y-77364625D01*
X139537480Y-77366528D01*
X139758502Y-77385865D01*
X139824620Y-77411728D01*
X139866259Y-77469232D01*
X139870200Y-77540119D01*
X139836617Y-77600478D01*
X138926736Y-78510359D01*
X138918462Y-78517888D01*
X138911982Y-78522000D01*
X138906557Y-78527777D01*
X138865357Y-78571651D01*
X138862602Y-78574493D01*
X138842865Y-78594230D01*
X138840385Y-78597427D01*
X138832682Y-78606447D01*
X138802414Y-78638679D01*
X138798595Y-78645625D01*
X138798593Y-78645628D01*
X138792652Y-78656434D01*
X138781801Y-78672953D01*
X138769386Y-78688959D01*
X138766241Y-78696228D01*
X138766238Y-78696232D01*
X138751826Y-78729537D01*
X138746609Y-78740187D01*
X138725305Y-78778940D01*
X138723334Y-78786615D01*
X138723334Y-78786616D01*
X138720267Y-78798562D01*
X138713863Y-78817266D01*
X138705819Y-78835855D01*
X138704580Y-78843678D01*
X138704577Y-78843688D01*
X138698901Y-78879524D01*
X138696495Y-78891144D01*
X138691305Y-78911361D01*
X138685500Y-78933970D01*
X138685500Y-78954224D01*
X138683949Y-78973934D01*
X138680780Y-78993943D01*
X138681526Y-79001835D01*
X138684941Y-79037961D01*
X138685500Y-79049819D01*
X138685500Y-94815500D01*
X138665498Y-94883621D01*
X138611842Y-94930114D01*
X138559500Y-94941500D01*
X137686756Y-94941500D01*
X137682670Y-94942038D01*
X137682669Y-94942038D01*
X137643847Y-94947149D01*
X137572676Y-94956519D01*
X137565049Y-94959678D01*
X137565046Y-94959679D01*
X137515604Y-94980159D01*
X137430732Y-95015314D01*
X137308843Y-95108843D01*
X137303817Y-95115393D01*
X137303816Y-95115394D01*
X137284550Y-95140502D01*
X137215314Y-95230733D01*
X137156519Y-95372676D01*
X137141500Y-95486756D01*
X137141500Y-95713244D01*
X137142038Y-95717330D01*
X137142038Y-95717331D01*
X137156519Y-95827324D01*
X137154974Y-95827527D01*
X137154974Y-95872473D01*
X137156519Y-95872676D01*
X137141500Y-95986756D01*
X137141500Y-96213244D01*
X137142038Y-96217330D01*
X137142038Y-96217331D01*
X137156519Y-96327324D01*
X137154974Y-96327527D01*
X137154974Y-96372473D01*
X137156519Y-96372676D01*
X137141500Y-96486756D01*
X137141500Y-96713244D01*
X137142038Y-96717330D01*
X137142038Y-96717331D01*
X137156519Y-96827324D01*
X137154974Y-96827527D01*
X137154974Y-96872473D01*
X137156519Y-96872676D01*
X137148006Y-96937342D01*
X137141500Y-96986756D01*
X137141500Y-97213244D01*
X137142038Y-97217330D01*
X137142038Y-97217331D01*
X137156519Y-97327324D01*
X137154974Y-97327527D01*
X137154974Y-97372473D01*
X137156519Y-97372676D01*
X137143376Y-97472510D01*
X137141500Y-97486756D01*
X137141500Y-97713244D01*
X137142038Y-97717330D01*
X137142038Y-97717331D01*
X137156519Y-97827324D01*
X137154974Y-97827527D01*
X137154974Y-97872473D01*
X137156519Y-97872676D01*
X137154009Y-97891745D01*
X137141500Y-97986756D01*
X137141500Y-98213244D01*
X137142038Y-98217330D01*
X137142038Y-98217331D01*
X137156519Y-98327324D01*
X137154974Y-98327527D01*
X137154974Y-98372473D01*
X137156519Y-98372676D01*
X137148038Y-98437099D01*
X137141500Y-98486756D01*
X137141500Y-98713244D01*
X137142038Y-98717330D01*
X137142038Y-98717331D01*
X137156519Y-98827324D01*
X137154974Y-98827527D01*
X137154974Y-98872473D01*
X137156519Y-98872676D01*
X137143945Y-98968188D01*
X137141500Y-98986756D01*
X137141500Y-99213244D01*
X137142038Y-99217330D01*
X137142038Y-99217331D01*
X137156519Y-99327324D01*
X137154974Y-99327527D01*
X137154974Y-99372473D01*
X137156519Y-99372676D01*
X137141500Y-99486756D01*
X137141500Y-99639500D01*
X137121498Y-99707621D01*
X137067842Y-99754114D01*
X137015500Y-99765500D01*
X136672516Y-99765500D01*
X136670068Y-99765693D01*
X136670060Y-99765693D01*
X136642156Y-99767889D01*
X136642151Y-99767890D01*
X136635746Y-99768394D01*
X136574192Y-99786277D01*
X136486016Y-99811894D01*
X136486014Y-99811895D01*
X136478403Y-99814106D01*
X136471576Y-99818143D01*
X136471577Y-99818143D01*
X136461647Y-99824015D01*
X136392830Y-99841474D01*
X136333372Y-99824016D01*
X136324222Y-99818605D01*
X136309784Y-99812357D01*
X136189395Y-99777381D01*
X136175295Y-99777421D01*
X136172000Y-99784691D01*
X136172000Y-100062621D01*
X136154454Y-100126760D01*
X136138106Y-100154403D01*
X136092394Y-100311746D01*
X136091890Y-100318151D01*
X136091889Y-100318156D01*
X136089992Y-100342267D01*
X136089500Y-100348516D01*
X136089500Y-100712000D01*
X136069498Y-100780121D01*
X136015842Y-100826614D01*
X135963500Y-100838000D01*
X135149576Y-100838000D01*
X135134781Y-100842344D01*
X135132937Y-100852775D01*
X135134688Y-100862359D01*
X135176357Y-101005784D01*
X135182604Y-101020220D01*
X135257876Y-101147499D01*
X135267516Y-101159926D01*
X135372074Y-101264484D01*
X135384501Y-101274124D01*
X135511786Y-101349399D01*
X135516760Y-101351552D01*
X135571334Y-101396963D01*
X135592693Y-101464671D01*
X135574056Y-101533178D01*
X135555813Y-101556283D01*
X131976999Y-105135096D01*
X131914687Y-105169122D01*
X131843871Y-105164057D01*
X131787036Y-105121510D01*
X131762843Y-105061354D01*
X131761656Y-105051683D01*
X131716523Y-104836580D01*
X131713463Y-104826383D01*
X131632737Y-104621971D01*
X131628006Y-104612439D01*
X131513984Y-104424538D01*
X131507720Y-104415948D01*
X131363673Y-104249948D01*
X131356042Y-104242528D01*
X131186089Y-104103174D01*
X131177326Y-104097152D01*
X131150289Y-104081762D01*
X131100982Y-104030680D01*
X131087120Y-103961049D01*
X131113103Y-103894978D01*
X131142253Y-103867739D01*
X131202283Y-103827324D01*
X131264319Y-103785559D01*
X131431135Y-103626424D01*
X131568754Y-103441458D01*
X131673240Y-103235949D01*
X131709321Y-103119752D01*
X131740024Y-103020871D01*
X131741607Y-103015773D01*
X131742308Y-103010484D01*
X131771198Y-102792511D01*
X131771198Y-102792506D01*
X131771898Y-102787226D01*
X131771198Y-102768564D01*
X131763449Y-102562173D01*
X131763249Y-102556842D01*
X131715907Y-102331209D01*
X131710368Y-102317183D01*
X131633185Y-102121744D01*
X131633184Y-102121742D01*
X131631224Y-102116779D01*
X131609446Y-102080889D01*
X131526706Y-101944539D01*
X131511623Y-101919683D01*
X131470833Y-101872676D01*
X131364023Y-101749588D01*
X131364021Y-101749586D01*
X131360523Y-101745555D01*
X131263993Y-101666405D01*
X131186373Y-101602760D01*
X131186367Y-101602756D01*
X131182245Y-101599376D01*
X131150750Y-101581448D01*
X131101445Y-101530368D01*
X131087583Y-101460738D01*
X131113566Y-101394667D01*
X131142716Y-101367427D01*
X131188110Y-101336866D01*
X131264319Y-101285559D01*
X131280010Y-101270591D01*
X131349991Y-101203832D01*
X131431135Y-101126424D01*
X131457375Y-101091157D01*
X131542461Y-100976797D01*
X131568754Y-100941458D01*
X131572351Y-100934385D01*
X131628342Y-100824256D01*
X131673240Y-100735949D01*
X131678412Y-100719295D01*
X131740024Y-100520871D01*
X131741607Y-100515773D01*
X131751316Y-100442520D01*
X131768402Y-100313609D01*
X135133232Y-100313609D01*
X135136052Y-100327031D01*
X135147513Y-100330000D01*
X135645885Y-100330000D01*
X135661124Y-100325525D01*
X135662329Y-100324135D01*
X135664000Y-100316452D01*
X135664000Y-99790442D01*
X135660027Y-99776911D01*
X135652129Y-99775776D01*
X135526216Y-99812357D01*
X135511780Y-99818604D01*
X135384501Y-99893876D01*
X135372074Y-99903516D01*
X135267516Y-100008074D01*
X135257876Y-100020501D01*
X135182604Y-100147780D01*
X135176357Y-100162216D01*
X135134688Y-100305641D01*
X135133232Y-100313609D01*
X131768402Y-100313609D01*
X131771198Y-100292511D01*
X131771198Y-100292506D01*
X131771898Y-100287226D01*
X131771227Y-100269338D01*
X131763449Y-100062173D01*
X131763249Y-100056842D01*
X131748810Y-99988023D01*
X131717002Y-99836428D01*
X131715907Y-99831209D01*
X131713948Y-99826248D01*
X131633185Y-99621744D01*
X131633184Y-99621742D01*
X131631224Y-99616779D01*
X131511623Y-99419683D01*
X131477525Y-99380388D01*
X131364023Y-99249588D01*
X131364021Y-99249586D01*
X131360523Y-99245555D01*
X131316090Y-99209122D01*
X131186373Y-99102760D01*
X131186367Y-99102756D01*
X131182245Y-99099376D01*
X131150750Y-99081448D01*
X131101445Y-99030368D01*
X131087583Y-98960738D01*
X131113566Y-98894667D01*
X131142716Y-98867427D01*
X131187706Y-98837138D01*
X131264319Y-98785559D01*
X131431135Y-98626424D01*
X131473213Y-98569870D01*
X131538092Y-98482669D01*
X131568754Y-98441458D01*
X131571582Y-98435897D01*
X131664206Y-98253717D01*
X131673240Y-98235949D01*
X131676964Y-98223958D01*
X131740024Y-98020871D01*
X131741607Y-98015773D01*
X131751040Y-97944598D01*
X131771198Y-97792511D01*
X131771198Y-97792506D01*
X131771898Y-97787226D01*
X131768712Y-97702346D01*
X131766164Y-97634481D01*
X131763249Y-97556842D01*
X131748622Y-97487127D01*
X131717002Y-97336428D01*
X131715907Y-97331209D01*
X131713948Y-97326248D01*
X131633185Y-97121744D01*
X131633184Y-97121742D01*
X131631224Y-97116779D01*
X131564277Y-97006453D01*
X131514390Y-96924243D01*
X131511623Y-96919683D01*
X131470833Y-96872676D01*
X131364023Y-96749588D01*
X131364021Y-96749586D01*
X131360523Y-96745555D01*
X131292421Y-96689715D01*
X131186373Y-96602760D01*
X131186367Y-96602756D01*
X131182245Y-96599376D01*
X131150750Y-96581448D01*
X131101445Y-96530368D01*
X131087583Y-96460738D01*
X131113566Y-96394667D01*
X131142716Y-96367427D01*
X131186994Y-96337617D01*
X131264319Y-96285559D01*
X131301902Y-96249707D01*
X131408426Y-96148087D01*
X131431135Y-96126424D01*
X131466615Y-96078738D01*
X131548481Y-95968706D01*
X131568754Y-95941458D01*
X131575207Y-95928767D01*
X131625809Y-95829239D01*
X131673240Y-95735949D01*
X131709321Y-95619752D01*
X131740024Y-95520871D01*
X131741607Y-95515773D01*
X131751213Y-95443295D01*
X131771198Y-95292511D01*
X131771198Y-95292506D01*
X131771898Y-95287226D01*
X131771571Y-95278502D01*
X131764460Y-95089103D01*
X131763249Y-95056842D01*
X131715907Y-94831209D01*
X131713948Y-94826248D01*
X131633185Y-94621744D01*
X131633184Y-94621742D01*
X131631224Y-94616779D01*
X131609935Y-94581695D01*
X131514390Y-94424243D01*
X131511623Y-94419683D01*
X131424755Y-94319576D01*
X131364023Y-94249588D01*
X131364021Y-94249586D01*
X131360523Y-94245555D01*
X131280583Y-94180008D01*
X131186373Y-94102760D01*
X131186367Y-94102756D01*
X131182245Y-94099376D01*
X131177609Y-94096737D01*
X131177606Y-94096735D01*
X130986529Y-93987968D01*
X130981886Y-93985325D01*
X130765175Y-93906663D01*
X130759926Y-93905714D01*
X130759923Y-93905713D01*
X130542392Y-93866377D01*
X130542385Y-93866376D01*
X130538308Y-93865639D01*
X130520586Y-93864803D01*
X130515644Y-93864570D01*
X130515637Y-93864570D01*
X130514156Y-93864500D01*
X130102110Y-93864500D01*
X130035191Y-93870178D01*
X129935591Y-93878629D01*
X129935587Y-93878630D01*
X129930280Y-93879080D01*
X129925125Y-93880418D01*
X129925119Y-93880419D01*
X129712297Y-93935657D01*
X129712293Y-93935658D01*
X129707128Y-93936999D01*
X129702262Y-93939191D01*
X129702259Y-93939192D01*
X129555371Y-94005360D01*
X129496925Y-94031688D01*
X129305681Y-94160441D01*
X129301824Y-94164120D01*
X129301822Y-94164122D01*
X129283038Y-94182041D01*
X129138865Y-94319576D01*
X129135682Y-94323854D01*
X129079790Y-94398975D01*
X129001246Y-94504542D01*
X128998830Y-94509293D01*
X128998828Y-94509297D01*
X128985336Y-94535834D01*
X128896760Y-94710051D01*
X128895178Y-94715145D01*
X128895177Y-94715148D01*
X128842865Y-94883621D01*
X128828393Y-94930227D01*
X128827692Y-94935516D01*
X128800087Y-95143800D01*
X128798102Y-95158774D01*
X128798302Y-95164103D01*
X128798302Y-95164105D01*
X128800803Y-95230733D01*
X128806751Y-95389158D01*
X128854093Y-95614791D01*
X128856051Y-95619750D01*
X128856052Y-95619752D01*
X128936083Y-95822401D01*
X128938776Y-95829221D01*
X128941543Y-95833780D01*
X128941544Y-95833783D01*
X128979236Y-95895897D01*
X129058377Y-96026317D01*
X129061874Y-96030347D01*
X129156482Y-96139373D01*
X129209477Y-96200445D01*
X129230071Y-96217331D01*
X129383627Y-96343240D01*
X129383633Y-96343244D01*
X129387755Y-96346624D01*
X129419250Y-96364552D01*
X129468555Y-96415632D01*
X129482417Y-96485262D01*
X129456434Y-96551333D01*
X129427284Y-96578573D01*
X129305681Y-96660441D01*
X129138865Y-96819576D01*
X129001246Y-97004542D01*
X128998830Y-97009293D01*
X128998828Y-97009297D01*
X128983472Y-97039500D01*
X128896760Y-97210051D01*
X128895178Y-97215145D01*
X128895177Y-97215148D01*
X128844209Y-97379292D01*
X128828393Y-97430227D01*
X128827692Y-97435516D01*
X128800075Y-97643891D01*
X128798102Y-97658774D01*
X128798302Y-97664103D01*
X128798302Y-97664105D01*
X128799441Y-97694454D01*
X128806751Y-97889158D01*
X128854093Y-98114791D01*
X128856051Y-98119750D01*
X128856052Y-98119752D01*
X128917645Y-98275713D01*
X128938776Y-98329221D01*
X128941543Y-98333780D01*
X128941544Y-98333783D01*
X128994788Y-98421526D01*
X129058377Y-98526317D01*
X129061874Y-98530347D01*
X129191192Y-98679373D01*
X129209477Y-98700445D01*
X129230071Y-98717331D01*
X129383627Y-98843240D01*
X129383633Y-98843244D01*
X129387755Y-98846624D01*
X129419250Y-98864552D01*
X129468555Y-98915632D01*
X129482417Y-98985262D01*
X129456434Y-99051333D01*
X129427284Y-99078573D01*
X129305681Y-99160441D01*
X129138865Y-99319576D01*
X129001246Y-99504542D01*
X128896760Y-99710051D01*
X128895178Y-99715145D01*
X128895177Y-99715148D01*
X128853618Y-99848990D01*
X128828393Y-99930227D01*
X128827692Y-99935516D01*
X128798824Y-100153327D01*
X128798102Y-100158774D01*
X128798302Y-100164103D01*
X128798302Y-100164105D01*
X128800444Y-100221171D01*
X128806751Y-100389158D01*
X128807846Y-100394377D01*
X128809294Y-100401277D01*
X128854093Y-100614791D01*
X128856051Y-100619750D01*
X128856052Y-100619752D01*
X128935968Y-100822110D01*
X128938776Y-100829221D01*
X128941543Y-100833780D01*
X128941544Y-100833783D01*
X129006492Y-100940814D01*
X129058377Y-101026317D01*
X129061874Y-101030347D01*
X129188876Y-101176704D01*
X129209477Y-101200445D01*
X129227592Y-101215298D01*
X129383627Y-101343240D01*
X129383633Y-101343244D01*
X129387755Y-101346624D01*
X129419250Y-101364552D01*
X129468555Y-101415632D01*
X129482417Y-101485262D01*
X129456434Y-101551333D01*
X129427284Y-101578573D01*
X129305681Y-101660441D01*
X129301824Y-101664120D01*
X129301822Y-101664122D01*
X129261772Y-101702328D01*
X129138865Y-101819576D01*
X129001246Y-102004542D01*
X128998830Y-102009293D01*
X128998828Y-102009297D01*
X128965905Y-102074053D01*
X128896760Y-102210051D01*
X128895178Y-102215145D01*
X128895177Y-102215148D01*
X128841914Y-102386683D01*
X128828393Y-102430227D01*
X128827692Y-102435516D01*
X128799123Y-102651073D01*
X128798102Y-102658774D01*
X128798302Y-102664103D01*
X128798302Y-102664105D01*
X128801090Y-102738371D01*
X128806751Y-102889158D01*
X128807846Y-102894377D01*
X128814785Y-102927447D01*
X128854093Y-103114791D01*
X128856051Y-103119750D01*
X128856052Y-103119752D01*
X128910808Y-103258401D01*
X128938776Y-103329221D01*
X129058377Y-103526317D01*
X129061874Y-103530347D01*
X129148438Y-103630103D01*
X129209477Y-103700445D01*
X129228392Y-103715954D01*
X129383627Y-103843240D01*
X129383633Y-103843244D01*
X129387755Y-103846624D01*
X129392398Y-103849267D01*
X129419735Y-103864829D01*
X129469041Y-103915912D01*
X129482902Y-103985542D01*
X129456918Y-104051613D01*
X129427768Y-104078851D01*
X129310422Y-104157852D01*
X129302130Y-104164519D01*
X129143100Y-104316228D01*
X129136059Y-104324186D01*
X129004859Y-104500525D01*
X128999255Y-104509562D01*
X128899643Y-104705484D01*
X128895643Y-104715335D01*
X128830466Y-104925240D01*
X128828183Y-104935624D01*
X128826139Y-104951043D01*
X128828335Y-104965207D01*
X128841522Y-104969000D01*
X130413000Y-104969000D01*
X130481121Y-104989002D01*
X130527614Y-105042658D01*
X130539000Y-105095000D01*
X130539000Y-105351000D01*
X130518998Y-105419121D01*
X130465342Y-105465614D01*
X130413000Y-105477000D01*
X128843808Y-105477000D01*
X128830277Y-105480973D01*
X128828752Y-105491580D01*
X128853477Y-105609421D01*
X128856537Y-105619617D01*
X128937263Y-105824029D01*
X128941994Y-105833561D01*
X129056016Y-106021462D01*
X129062280Y-106030052D01*
X129206327Y-106196052D01*
X129213956Y-106203470D01*
X129245569Y-106229391D01*
X129285564Y-106288051D01*
X129287496Y-106359021D01*
X129250752Y-106419770D01*
X129231983Y-106433969D01*
X129085652Y-106524522D01*
X128960695Y-106649697D01*
X128956855Y-106655927D01*
X128956854Y-106655928D01*
X128886596Y-106769908D01*
X128867885Y-106800262D01*
X128812203Y-106968139D01*
X128811503Y-106974975D01*
X128811502Y-106974978D01*
X128810161Y-106988069D01*
X128801500Y-107072600D01*
X128801500Y-107281406D01*
X128781498Y-107349527D01*
X128727842Y-107396020D01*
X128657568Y-107406124D01*
X128592988Y-107376630D01*
X128586405Y-107370501D01*
X125840679Y-104624774D01*
X122971405Y-101755500D01*
X122937379Y-101693188D01*
X122934500Y-101666405D01*
X122934500Y-100936768D01*
X122935027Y-100925585D01*
X122936702Y-100918092D01*
X122934562Y-100850000D01*
X122934500Y-100846044D01*
X122934500Y-100818144D01*
X122933996Y-100814153D01*
X122933063Y-100802311D01*
X122932798Y-100793856D01*
X122931674Y-100758111D01*
X122929462Y-100750497D01*
X122929461Y-100750492D01*
X122926023Y-100738659D01*
X122922012Y-100719295D01*
X122920467Y-100707064D01*
X122919474Y-100699203D01*
X122916557Y-100691836D01*
X122916556Y-100691831D01*
X122903198Y-100658092D01*
X122899354Y-100646865D01*
X122889230Y-100612022D01*
X122887018Y-100604407D01*
X122882697Y-100597100D01*
X122876707Y-100586972D01*
X122868012Y-100569224D01*
X122860552Y-100550383D01*
X122834564Y-100514613D01*
X122828047Y-100504692D01*
X122825325Y-100500088D01*
X122806846Y-100468843D01*
X122789387Y-100400027D01*
X122811904Y-100332696D01*
X122867248Y-100288226D01*
X122904318Y-100279183D01*
X122957520Y-100274528D01*
X122968312Y-100272625D01*
X123178761Y-100216236D01*
X123189053Y-100212490D01*
X123386511Y-100120414D01*
X123396006Y-100114931D01*
X123448048Y-100078491D01*
X123456424Y-100068012D01*
X123449356Y-100054566D01*
X122376922Y-98982132D01*
X123099408Y-98982132D01*
X123099539Y-98983965D01*
X123103790Y-98990580D01*
X123809287Y-99696077D01*
X123821062Y-99702507D01*
X123833077Y-99693211D01*
X123868931Y-99642006D01*
X123874414Y-99632511D01*
X123966490Y-99435053D01*
X123970236Y-99424761D01*
X124026625Y-99214312D01*
X124028528Y-99203519D01*
X124047517Y-98986475D01*
X124047517Y-98975525D01*
X124028528Y-98758481D01*
X124026625Y-98747688D01*
X123970236Y-98537239D01*
X123966490Y-98526947D01*
X123874414Y-98329489D01*
X123868931Y-98319994D01*
X123832491Y-98267952D01*
X123822012Y-98259576D01*
X123808566Y-98266644D01*
X123107022Y-98968188D01*
X123099408Y-98982132D01*
X122376922Y-98982132D01*
X121660713Y-98265923D01*
X121646769Y-98258308D01*
X121615540Y-98260542D01*
X121546166Y-98245451D01*
X121517456Y-98223958D01*
X121367300Y-98073802D01*
X121362792Y-98070645D01*
X121362789Y-98070643D01*
X121276873Y-98010484D01*
X121179749Y-97942477D01*
X121174767Y-97940154D01*
X121174762Y-97940151D01*
X120977225Y-97848039D01*
X120977224Y-97848039D01*
X120972243Y-97845716D01*
X120966935Y-97844294D01*
X120966933Y-97844293D01*
X120756402Y-97787881D01*
X120756400Y-97787881D01*
X120751087Y-97786457D01*
X120523000Y-97766502D01*
X120294913Y-97786457D01*
X120289600Y-97787881D01*
X120289598Y-97787881D01*
X120079067Y-97844293D01*
X120079065Y-97844294D01*
X120073757Y-97845716D01*
X120068776Y-97848039D01*
X120068775Y-97848039D01*
X119871238Y-97940151D01*
X119871233Y-97940154D01*
X119866251Y-97942477D01*
X119769127Y-98010484D01*
X119683211Y-98070643D01*
X119683208Y-98070645D01*
X119678700Y-98073802D01*
X119516802Y-98235700D01*
X119513645Y-98240208D01*
X119513643Y-98240211D01*
X119406819Y-98392771D01*
X119351362Y-98437099D01*
X119303606Y-98446500D01*
X119005805Y-98446500D01*
X118937684Y-98426498D01*
X118900013Y-98388940D01*
X118811822Y-98252617D01*
X118811820Y-98252614D01*
X118809014Y-98248277D01*
X118801675Y-98240211D01*
X118661798Y-98086488D01*
X118630746Y-98022642D01*
X118639141Y-97952143D01*
X118684317Y-97897375D01*
X118710761Y-97883706D01*
X118817297Y-97843767D01*
X118825705Y-97840615D01*
X118942261Y-97753261D01*
X119029615Y-97636705D01*
X119080745Y-97500316D01*
X119087500Y-97438134D01*
X119087500Y-97299500D01*
X119107502Y-97231379D01*
X119161158Y-97184886D01*
X119213500Y-97173500D01*
X121556919Y-97173500D01*
X121625040Y-97193502D01*
X121660131Y-97227228D01*
X121665509Y-97234908D01*
X121710737Y-97299500D01*
X121728802Y-97325300D01*
X121890700Y-97487198D01*
X121895208Y-97490355D01*
X121895211Y-97490357D01*
X121907659Y-97499073D01*
X122078251Y-97618523D01*
X122083235Y-97620847D01*
X122085528Y-97622171D01*
X122134521Y-97673553D01*
X122147957Y-97743267D01*
X122121571Y-97809178D01*
X122085528Y-97840409D01*
X122073998Y-97847066D01*
X122021952Y-97883509D01*
X122013576Y-97893988D01*
X122020644Y-97907434D01*
X122722188Y-98608978D01*
X122736132Y-98616592D01*
X122737965Y-98616461D01*
X122744580Y-98612210D01*
X123450077Y-97906713D01*
X123456507Y-97894938D01*
X123447211Y-97882923D01*
X123396002Y-97847066D01*
X123384472Y-97840409D01*
X123335479Y-97789027D01*
X123322042Y-97719313D01*
X123348429Y-97653402D01*
X123384472Y-97622171D01*
X123386765Y-97620847D01*
X123391749Y-97618523D01*
X123562341Y-97499073D01*
X123574789Y-97490357D01*
X123574792Y-97490355D01*
X123579300Y-97487198D01*
X123741198Y-97325300D01*
X123759264Y-97299500D01*
X123839517Y-97184886D01*
X123872523Y-97137749D01*
X123874846Y-97132767D01*
X123874849Y-97132762D01*
X123966961Y-96935225D01*
X123966961Y-96935224D01*
X123969284Y-96930243D01*
X123973194Y-96915653D01*
X124027119Y-96714402D01*
X124027119Y-96714400D01*
X124028543Y-96709087D01*
X124048498Y-96481000D01*
X124028543Y-96252913D01*
X124027119Y-96247598D01*
X123970707Y-96037067D01*
X123970706Y-96037065D01*
X123969284Y-96031757D01*
X123921260Y-95928768D01*
X123874849Y-95829238D01*
X123874846Y-95829233D01*
X123872523Y-95824251D01*
X123791909Y-95709122D01*
X123744357Y-95641211D01*
X123744355Y-95641208D01*
X123741198Y-95636700D01*
X123579300Y-95474802D01*
X123574792Y-95471645D01*
X123574789Y-95471643D01*
X123466795Y-95396025D01*
X123391749Y-95343477D01*
X123386767Y-95341154D01*
X123386762Y-95341151D01*
X123189225Y-95249039D01*
X123189224Y-95249039D01*
X123184243Y-95246716D01*
X123178935Y-95245294D01*
X123178933Y-95245293D01*
X122968402Y-95188881D01*
X122968400Y-95188881D01*
X122963087Y-95187457D01*
X122735000Y-95167502D01*
X122506913Y-95187457D01*
X122501600Y-95188881D01*
X122501598Y-95188881D01*
X122291067Y-95245293D01*
X122291065Y-95245294D01*
X122285757Y-95246716D01*
X122280776Y-95249039D01*
X122280775Y-95249039D01*
X122083238Y-95341151D01*
X122083233Y-95341154D01*
X122078251Y-95343477D01*
X122003205Y-95396025D01*
X121895211Y-95471643D01*
X121895208Y-95471645D01*
X121890700Y-95474802D01*
X121728802Y-95636700D01*
X121725645Y-95641208D01*
X121725643Y-95641211D01*
X121678091Y-95709122D01*
X121597477Y-95824251D01*
X121595151Y-95829238D01*
X121595151Y-95829239D01*
X121593050Y-95833745D01*
X121546135Y-95887032D01*
X121478853Y-95906500D01*
X119213500Y-95906500D01*
X119145379Y-95886498D01*
X119098886Y-95832842D01*
X119087500Y-95780500D01*
X119087500Y-95641866D01*
X119080745Y-95579684D01*
X119029615Y-95443295D01*
X118942261Y-95326739D01*
X118825705Y-95239385D01*
X118689316Y-95188255D01*
X118627134Y-95181500D01*
X116830866Y-95181500D01*
X116768684Y-95188255D01*
X116632295Y-95239385D01*
X116515739Y-95326739D01*
X116428385Y-95443295D01*
X116377255Y-95579684D01*
X116370500Y-95641866D01*
X116370500Y-96950405D01*
X116350498Y-97018526D01*
X116333595Y-97039500D01*
X116162236Y-97210859D01*
X116153950Y-97218399D01*
X116147471Y-97222511D01*
X116142046Y-97228288D01*
X116100846Y-97272162D01*
X116098091Y-97275004D01*
X116078354Y-97294741D01*
X116075874Y-97297938D01*
X116068171Y-97306958D01*
X116037903Y-97339190D01*
X116034084Y-97346136D01*
X116034082Y-97346139D01*
X116028141Y-97356945D01*
X116017290Y-97373464D01*
X116004875Y-97389470D01*
X116001730Y-97396739D01*
X116001727Y-97396743D01*
X115987315Y-97430048D01*
X115982098Y-97440698D01*
X115960794Y-97479451D01*
X115958823Y-97487126D01*
X115958823Y-97487127D01*
X115955756Y-97499073D01*
X115949352Y-97517777D01*
X115941308Y-97536366D01*
X115940069Y-97544189D01*
X115940066Y-97544199D01*
X115934390Y-97580035D01*
X115931984Y-97591655D01*
X115922961Y-97626800D01*
X115920989Y-97634481D01*
X115920989Y-97654735D01*
X115919438Y-97674445D01*
X115916269Y-97694454D01*
X112790095Y-97694454D01*
X112815093Y-97462461D01*
X112815610Y-97458315D01*
X112816352Y-97453069D01*
X112970545Y-96362834D01*
X112971194Y-96358732D01*
X112972726Y-96350000D01*
X113162373Y-95268945D01*
X113163158Y-95264868D01*
X113163572Y-95262898D01*
X113390364Y-94182016D01*
X113391275Y-94178005D01*
X113611988Y-93276029D01*
X113654253Y-93103306D01*
X113655313Y-93099265D01*
X113896799Y-92237261D01*
X113953780Y-92033862D01*
X113954972Y-92029866D01*
X113956545Y-92024894D01*
X114206180Y-91235556D01*
X114288591Y-90974974D01*
X114289917Y-90971012D01*
X114658321Y-89927778D01*
X114659777Y-89923862D01*
X115062573Y-88893405D01*
X115064158Y-88889539D01*
X115500907Y-87872976D01*
X115502620Y-87869165D01*
X115529262Y-87812420D01*
X115972826Y-86867658D01*
X115974658Y-86863918D01*
X116000913Y-86812501D01*
X116477826Y-85878524D01*
X116479779Y-85874852D01*
X117015318Y-84906724D01*
X117017389Y-84903121D01*
X117019963Y-84898813D01*
X117584752Y-83953247D01*
X117586953Y-83949697D01*
X117609511Y-83914626D01*
X118185484Y-83019177D01*
X118187794Y-83015713D01*
X118273287Y-82892016D01*
X118751168Y-82200579D01*
X118816848Y-82105548D01*
X118819280Y-82102151D01*
X119478167Y-81213340D01*
X119480711Y-81210025D01*
X120119519Y-80405493D01*
X120168706Y-80343545D01*
X120171354Y-80340322D01*
X120177400Y-80333206D01*
X120654409Y-79771729D01*
X120887689Y-79497141D01*
X120890447Y-79494002D01*
X121483002Y-78841651D01*
X121543610Y-78804675D01*
X121614587Y-78806337D01*
X121673398Y-78846108D01*
X121701372Y-78911361D01*
X121699377Y-78953207D01*
X121685381Y-79017400D01*
X121685045Y-79021670D01*
X121663332Y-79297564D01*
X121663331Y-79297564D01*
X121663332Y-79297566D01*
X121662825Y-79304005D01*
X121679374Y-79591019D01*
X121680199Y-79595224D01*
X121680200Y-79595232D01*
X121699436Y-79693277D01*
X121734722Y-79873131D01*
X121736109Y-79877181D01*
X121736110Y-79877186D01*
X121822817Y-80130435D01*
X121827846Y-80145122D01*
X121829773Y-80148953D01*
X121931601Y-80351415D01*
X121957021Y-80401958D01*
X122119857Y-80638886D01*
X122313342Y-80851524D01*
X122316637Y-80854279D01*
X122316638Y-80854280D01*
X122502980Y-81010085D01*
X122533895Y-81035934D01*
X122777434Y-81188707D01*
X123039454Y-81307013D01*
X123043573Y-81308233D01*
X123310993Y-81387447D01*
X123310998Y-81387448D01*
X123315106Y-81388665D01*
X123319340Y-81389313D01*
X123319345Y-81389314D01*
X123567947Y-81427355D01*
X123599289Y-81432151D01*
X123745621Y-81434450D01*
X123882453Y-81436600D01*
X123882459Y-81436600D01*
X123886744Y-81436667D01*
X123890996Y-81436152D01*
X123891004Y-81436152D01*
X124167892Y-81402644D01*
X124167897Y-81402643D01*
X124172153Y-81402128D01*
X124328474Y-81361118D01*
X124446090Y-81330262D01*
X124446091Y-81330262D01*
X124450233Y-81329175D01*
X124715840Y-81219157D01*
X124964058Y-81074110D01*
X125190295Y-80896718D01*
X125231421Y-80854280D01*
X125320254Y-80762611D01*
X125390363Y-80690264D01*
X125392896Y-80686816D01*
X125392900Y-80686811D01*
X125558023Y-80462022D01*
X125560561Y-80458567D01*
X125654602Y-80285365D01*
X125695690Y-80209691D01*
X125695691Y-80209689D01*
X125697740Y-80205915D01*
X125799361Y-79936984D01*
X125838649Y-79765444D01*
X125862585Y-79660933D01*
X125862586Y-79660929D01*
X125863543Y-79656749D01*
X125868093Y-79605774D01*
X125888879Y-79372862D01*
X125888879Y-79372860D01*
X125889099Y-79370396D01*
X125889563Y-79326136D01*
X125886311Y-79278428D01*
X125870301Y-79043588D01*
X125870300Y-79043582D01*
X125870009Y-79039311D01*
X125865472Y-79017400D01*
X125829498Y-78843688D01*
X125811710Y-78757794D01*
X125715743Y-78486793D01*
X125583886Y-78231324D01*
X125570624Y-78212453D01*
X125421040Y-77999618D01*
X125418577Y-77996113D01*
X125222876Y-77785514D01*
X125000404Y-77603423D01*
X124755278Y-77453209D01*
X124737184Y-77445266D01*
X124495966Y-77339379D01*
X124492034Y-77337653D01*
X124467668Y-77330712D01*
X124219670Y-77260068D01*
X124219671Y-77260068D01*
X124215542Y-77258892D01*
X123976192Y-77224828D01*
X123935172Y-77218990D01*
X123935170Y-77218990D01*
X123930920Y-77218385D01*
X123926631Y-77218363D01*
X123926624Y-77218362D01*
X123647719Y-77216901D01*
X123647712Y-77216901D01*
X123643433Y-77216879D01*
X123392168Y-77249959D01*
X123322021Y-77239020D01*
X123268922Y-77191892D01*
X123249732Y-77123538D01*
X123270543Y-77055660D01*
X123291331Y-77031474D01*
X124031969Y-76363428D01*
X124035117Y-76360682D01*
X124037728Y-76358480D01*
X124369656Y-76078475D01*
X138447483Y-76078475D01*
X138466472Y-76295519D01*
X138468375Y-76306312D01*
X138524764Y-76516761D01*
X138528510Y-76527053D01*
X138620586Y-76724511D01*
X138626069Y-76734006D01*
X138662509Y-76786048D01*
X138672988Y-76794424D01*
X138686434Y-76787356D01*
X139387978Y-76085812D01*
X139395592Y-76071868D01*
X139395461Y-76070035D01*
X139391210Y-76063420D01*
X138685713Y-75357923D01*
X138673938Y-75351493D01*
X138661923Y-75360789D01*
X138626069Y-75411994D01*
X138620586Y-75421489D01*
X138528510Y-75618947D01*
X138524764Y-75629239D01*
X138468375Y-75839688D01*
X138466472Y-75850481D01*
X138447483Y-76067525D01*
X138447483Y-76078475D01*
X124369656Y-76078475D01*
X124652830Y-75839598D01*
X124880791Y-75647297D01*
X124884029Y-75644656D01*
X125405943Y-75233211D01*
X125719543Y-74985988D01*
X139038576Y-74985988D01*
X139045644Y-74999434D01*
X139747188Y-75700978D01*
X139761132Y-75708592D01*
X139762965Y-75708461D01*
X139769580Y-75704210D01*
X140475077Y-74998713D01*
X140481507Y-74986938D01*
X140472211Y-74974923D01*
X140421006Y-74939069D01*
X140411511Y-74933586D01*
X140214053Y-74841510D01*
X140203761Y-74837764D01*
X139993312Y-74781375D01*
X139982519Y-74779472D01*
X139765475Y-74760483D01*
X139754525Y-74760483D01*
X139537481Y-74779472D01*
X139526688Y-74781375D01*
X139316239Y-74837764D01*
X139305947Y-74841510D01*
X139108489Y-74933586D01*
X139098994Y-74939069D01*
X139046952Y-74975509D01*
X139038576Y-74985988D01*
X125719543Y-74985988D01*
X125752921Y-74959675D01*
X125756206Y-74957173D01*
X126398193Y-74484724D01*
X126647319Y-74301388D01*
X126650724Y-74298968D01*
X127563093Y-73673086D01*
X127566577Y-73670780D01*
X128499184Y-73075499D01*
X128502683Y-73073346D01*
X129454549Y-72509293D01*
X129458176Y-72507224D01*
X129615090Y-72421138D01*
X130428210Y-71975045D01*
X130431878Y-71973111D01*
X131419023Y-71473387D01*
X131422726Y-71471590D01*
X132425879Y-71004877D01*
X132429688Y-71003180D01*
X133447759Y-70569986D01*
X133451630Y-70568414D01*
X134483514Y-70169208D01*
X134487435Y-70167766D01*
X135531967Y-69803000D01*
X135535896Y-69801700D01*
X136591979Y-69471755D01*
X136595942Y-69470589D01*
X137320070Y-69270450D01*
X137662387Y-69175839D01*
X137666432Y-69174793D01*
X138742040Y-68915570D01*
X138746118Y-68914659D01*
X139829691Y-68691248D01*
X139833796Y-68690472D01*
X140924222Y-68503102D01*
X140928351Y-68502463D01*
X142024366Y-68351353D01*
X142028514Y-68350851D01*
X142854024Y-68264814D01*
X143128958Y-68236160D01*
X143133101Y-68235798D01*
X143517082Y-68208611D01*
X144236733Y-68157657D01*
X144240905Y-68157431D01*
X145346504Y-68115924D01*
X145350681Y-68115836D01*
X145668390Y-68114450D01*
X146457082Y-68111008D01*
X146461246Y-68111059D01*
G37*
%TD.AperFunction*%
%TA.AperFunction,Conductor*%
G36*
X119371727Y-99733502D02*
G01*
X119406819Y-99767229D01*
X119513295Y-99919292D01*
X119516802Y-99924300D01*
X119678700Y-100086198D01*
X119683208Y-100089355D01*
X119683211Y-100089357D01*
X119736628Y-100126760D01*
X119866251Y-100217523D01*
X119871235Y-100219847D01*
X119873528Y-100221171D01*
X119922521Y-100272553D01*
X119935957Y-100342267D01*
X119909571Y-100408178D01*
X119873528Y-100439409D01*
X119861998Y-100446066D01*
X119809952Y-100482509D01*
X119801576Y-100492988D01*
X119808644Y-100506434D01*
X121597287Y-102295077D01*
X121611231Y-102302691D01*
X121620514Y-102302028D01*
X121662107Y-102285758D01*
X121731711Y-102299747D01*
X121781541Y-102347139D01*
X121796458Y-102372362D01*
X121810779Y-102386683D01*
X121823619Y-102401716D01*
X121835528Y-102418107D01*
X121869513Y-102446222D01*
X121869605Y-102446298D01*
X121878384Y-102454288D01*
X131632299Y-112208204D01*
X131666325Y-112270516D01*
X131661260Y-112341331D01*
X131618713Y-112398167D01*
X131552193Y-112422978D01*
X131543204Y-112423299D01*
X122642394Y-112423299D01*
X122574273Y-112403297D01*
X122553299Y-112386394D01*
X118290449Y-108123544D01*
X118256423Y-108061232D01*
X118261488Y-107990417D01*
X118304035Y-107933581D01*
X118324111Y-107921298D01*
X118422350Y-107873171D01*
X118422349Y-107873171D01*
X118426994Y-107870896D01*
X118608860Y-107741173D01*
X118621616Y-107728462D01*
X118695445Y-107654890D01*
X118767096Y-107583489D01*
X118780043Y-107565472D01*
X118894435Y-107406277D01*
X118897453Y-107402077D01*
X118902935Y-107390986D01*
X118994136Y-107206453D01*
X118994137Y-107206451D01*
X118996430Y-107201811D01*
X119061370Y-106988069D01*
X119090529Y-106766590D01*
X119091733Y-106717331D01*
X119092074Y-106703365D01*
X119092074Y-106703361D01*
X119092156Y-106700000D01*
X119073852Y-106477361D01*
X119019431Y-106260702D01*
X118930354Y-106055840D01*
X118876614Y-105972771D01*
X118811822Y-105872617D01*
X118811820Y-105872614D01*
X118809014Y-105868277D01*
X118658670Y-105703051D01*
X118654619Y-105699852D01*
X118654615Y-105699848D01*
X118487414Y-105567800D01*
X118487410Y-105567798D01*
X118483359Y-105564598D01*
X118442053Y-105541796D01*
X118392084Y-105491364D01*
X118377312Y-105421921D01*
X118402428Y-105355516D01*
X118429780Y-105328909D01*
X118524793Y-105261137D01*
X118608860Y-105201173D01*
X118767096Y-105043489D01*
X118797002Y-105001871D01*
X118894435Y-104866277D01*
X118897453Y-104862077D01*
X118910055Y-104836580D01*
X118994136Y-104666453D01*
X118994137Y-104666451D01*
X118996430Y-104661811D01*
X119052539Y-104477134D01*
X119059865Y-104453023D01*
X119059865Y-104453021D01*
X119061370Y-104448069D01*
X119090529Y-104226590D01*
X119091425Y-104189908D01*
X119092074Y-104163365D01*
X119092074Y-104163361D01*
X119092156Y-104160000D01*
X119073852Y-103937361D01*
X119019431Y-103720702D01*
X118930354Y-103515840D01*
X118837606Y-103372473D01*
X118811822Y-103332617D01*
X118811820Y-103332614D01*
X118809014Y-103328277D01*
X118658670Y-103163051D01*
X118654619Y-103159852D01*
X118654615Y-103159848D01*
X118487414Y-103027800D01*
X118487410Y-103027798D01*
X118483359Y-103024598D01*
X118476092Y-103020586D01*
X118447069Y-103004565D01*
X118441569Y-103001529D01*
X118391598Y-102951097D01*
X118376826Y-102881654D01*
X118401942Y-102815248D01*
X118429294Y-102788641D01*
X118601146Y-102666062D01*
X119801493Y-102666062D01*
X119810789Y-102678077D01*
X119861994Y-102713931D01*
X119871489Y-102719414D01*
X120068947Y-102811490D01*
X120079239Y-102815236D01*
X120289688Y-102871625D01*
X120300481Y-102873528D01*
X120517525Y-102892517D01*
X120528475Y-102892517D01*
X120745519Y-102873528D01*
X120756312Y-102871625D01*
X120966761Y-102815236D01*
X120977053Y-102811490D01*
X121174511Y-102719414D01*
X121184006Y-102713931D01*
X121236048Y-102677491D01*
X121244424Y-102667012D01*
X121237356Y-102653566D01*
X120535812Y-101952022D01*
X120521868Y-101944408D01*
X120520035Y-101944539D01*
X120513420Y-101948790D01*
X119807923Y-102654287D01*
X119801493Y-102666062D01*
X118601146Y-102666062D01*
X118604328Y-102663792D01*
X118612200Y-102657139D01*
X118763052Y-102506812D01*
X118769730Y-102498965D01*
X118894003Y-102326020D01*
X118899313Y-102317183D01*
X118993670Y-102126267D01*
X118997469Y-102116672D01*
X119036792Y-101987246D01*
X119075733Y-101927882D01*
X119140587Y-101898995D01*
X119210763Y-101909756D01*
X119263981Y-101956750D01*
X119279057Y-101991265D01*
X119287763Y-102023759D01*
X119291510Y-102034053D01*
X119383586Y-102231511D01*
X119389069Y-102241006D01*
X119425509Y-102293048D01*
X119435988Y-102301424D01*
X119449434Y-102294356D01*
X120150978Y-101592812D01*
X120158592Y-101578868D01*
X120158461Y-101577035D01*
X120154210Y-101570420D01*
X119448713Y-100864923D01*
X119436938Y-100858493D01*
X119424923Y-100867789D01*
X119389069Y-100918994D01*
X119383586Y-100928489D01*
X119291510Y-101125947D01*
X119287761Y-101136247D01*
X119268878Y-101206719D01*
X119231927Y-101267341D01*
X119168066Y-101298363D01*
X119097572Y-101289934D01*
X119042825Y-101244730D01*
X119024968Y-101204801D01*
X119020216Y-101185880D01*
X119016894Y-101176124D01*
X118931972Y-100980814D01*
X118927105Y-100971739D01*
X118811426Y-100792926D01*
X118805136Y-100784757D01*
X118661806Y-100627240D01*
X118654273Y-100620215D01*
X118487139Y-100488222D01*
X118478556Y-100482520D01*
X118441602Y-100462120D01*
X118391631Y-100411687D01*
X118376859Y-100342245D01*
X118401975Y-100275839D01*
X118429327Y-100249232D01*
X118479780Y-100213244D01*
X118608860Y-100121173D01*
X118640788Y-100089357D01*
X118742560Y-99987939D01*
X118767096Y-99963489D01*
X118793218Y-99927137D01*
X118894435Y-99786277D01*
X118897453Y-99782077D01*
X118899746Y-99777437D01*
X118901446Y-99774608D01*
X118953674Y-99726518D01*
X119009451Y-99713500D01*
X119303606Y-99713500D01*
X119371727Y-99733502D01*
G37*
%TD.AperFunction*%
%TA.AperFunction,Conductor*%
G36*
X130763527Y-109101502D02*
G01*
X130784501Y-109118405D01*
X132830343Y-111164247D01*
X132837887Y-111172537D01*
X132842000Y-111179018D01*
X132847777Y-111184443D01*
X132891667Y-111225658D01*
X132894509Y-111228413D01*
X132914230Y-111248134D01*
X132917425Y-111250612D01*
X132926447Y-111258318D01*
X132958679Y-111288586D01*
X132965628Y-111292406D01*
X132976432Y-111298346D01*
X132992956Y-111309199D01*
X133008959Y-111321613D01*
X133049543Y-111339176D01*
X133060173Y-111344383D01*
X133098940Y-111365695D01*
X133106617Y-111367666D01*
X133106622Y-111367668D01*
X133118558Y-111370732D01*
X133137266Y-111377137D01*
X133155855Y-111385181D01*
X133163683Y-111386421D01*
X133163690Y-111386423D01*
X133199524Y-111392099D01*
X133211144Y-111394505D01*
X133246289Y-111403528D01*
X133253970Y-111405500D01*
X133274224Y-111405500D01*
X133293934Y-111407051D01*
X133313943Y-111410220D01*
X133321835Y-111409474D01*
X133357961Y-111406059D01*
X133369819Y-111405500D01*
X141064951Y-111405500D01*
X141133072Y-111425502D01*
X141170754Y-111463076D01*
X141177799Y-111473970D01*
X141186691Y-111478000D01*
X141464621Y-111478000D01*
X141528760Y-111495546D01*
X141556403Y-111511894D01*
X141564014Y-111514105D01*
X141564016Y-111514106D01*
X141614995Y-111528916D01*
X141713746Y-111557606D01*
X141720151Y-111558110D01*
X141720156Y-111558111D01*
X141748060Y-111560307D01*
X141748068Y-111560307D01*
X141750516Y-111560500D01*
X142221484Y-111560500D01*
X142223932Y-111560307D01*
X142223940Y-111560307D01*
X142251844Y-111558111D01*
X142251849Y-111558110D01*
X142258254Y-111557606D01*
X142357005Y-111528916D01*
X142407984Y-111514106D01*
X142407986Y-111514105D01*
X142415597Y-111511894D01*
X142443240Y-111495546D01*
X142507379Y-111478000D01*
X142779558Y-111478000D01*
X142793089Y-111474027D01*
X142794224Y-111466129D01*
X142757643Y-111340216D01*
X142751395Y-111325778D01*
X142745984Y-111316628D01*
X142728526Y-111247812D01*
X142745985Y-111188353D01*
X142751857Y-111178423D01*
X142755894Y-111171597D01*
X142801606Y-111014254D01*
X142804500Y-110977484D01*
X142804500Y-110634090D01*
X142824502Y-110565969D01*
X142878158Y-110519476D01*
X142936756Y-110508724D01*
X142936756Y-110508500D01*
X143163244Y-110508500D01*
X143167330Y-110507962D01*
X143167331Y-110507962D01*
X143277324Y-110493481D01*
X143277527Y-110495026D01*
X143322473Y-110495026D01*
X143322676Y-110493481D01*
X143432669Y-110507962D01*
X143432670Y-110507962D01*
X143436756Y-110508500D01*
X143663244Y-110508500D01*
X143667330Y-110507962D01*
X143667331Y-110507962D01*
X143777324Y-110493481D01*
X143777527Y-110495026D01*
X143822473Y-110495026D01*
X143822676Y-110493481D01*
X143932669Y-110507962D01*
X143932670Y-110507962D01*
X143936756Y-110508500D01*
X144163244Y-110508500D01*
X144167330Y-110507962D01*
X144167331Y-110507962D01*
X144277324Y-110493481D01*
X144277527Y-110495026D01*
X144322473Y-110495026D01*
X144322676Y-110493481D01*
X144432669Y-110507962D01*
X144432670Y-110507962D01*
X144436756Y-110508500D01*
X144663244Y-110508500D01*
X144667330Y-110507962D01*
X144667331Y-110507962D01*
X144777324Y-110493481D01*
X144777527Y-110495026D01*
X144822473Y-110495026D01*
X144822676Y-110493481D01*
X144932669Y-110507962D01*
X144932670Y-110507962D01*
X144936756Y-110508500D01*
X145163244Y-110508500D01*
X145167330Y-110507962D01*
X145167331Y-110507962D01*
X145277324Y-110493481D01*
X145277527Y-110495026D01*
X145322473Y-110495026D01*
X145322676Y-110493481D01*
X145432669Y-110507962D01*
X145432670Y-110507962D01*
X145436756Y-110508500D01*
X145663244Y-110508500D01*
X145667330Y-110507962D01*
X145667331Y-110507962D01*
X145777324Y-110493481D01*
X145777527Y-110495026D01*
X145822473Y-110495026D01*
X145822676Y-110493481D01*
X145932667Y-110507962D01*
X145932672Y-110507962D01*
X145936756Y-110508500D01*
X145937308Y-110508500D01*
X146003196Y-110532631D01*
X146046079Y-110589214D01*
X146051563Y-110659999D01*
X146048121Y-110672876D01*
X146045458Y-110681072D01*
X146025496Y-110871000D01*
X146026186Y-110877565D01*
X146041202Y-111020431D01*
X146045458Y-111060928D01*
X146104473Y-111242556D01*
X146107776Y-111248278D01*
X146107777Y-111248279D01*
X146152069Y-111324995D01*
X146168807Y-111393991D01*
X146152069Y-111450995D01*
X146138805Y-111473970D01*
X146117303Y-111511212D01*
X146058288Y-111692840D01*
X146057599Y-111699399D01*
X146057598Y-111699402D01*
X146040619Y-111860950D01*
X146013606Y-111926606D01*
X145955384Y-111967236D01*
X145915309Y-111973779D01*
X133241873Y-111973779D01*
X133173752Y-111953777D01*
X133152778Y-111936874D01*
X130512499Y-109296595D01*
X130478473Y-109234283D01*
X130483538Y-109163468D01*
X130526085Y-109106632D01*
X130592605Y-109081821D01*
X130601594Y-109081500D01*
X130695406Y-109081500D01*
X130763527Y-109101502D01*
G37*
%TD.AperFunction*%
%TA.AperFunction,Conductor*%
G36*
X155810668Y-111425502D02*
G01*
X155831642Y-111442405D01*
X155935642Y-111546405D01*
X155969668Y-111608717D01*
X155964603Y-111679532D01*
X155922056Y-111736368D01*
X155855536Y-111761179D01*
X155846547Y-111761500D01*
X152963000Y-111761500D01*
X152894879Y-111741498D01*
X152848386Y-111687842D01*
X152837000Y-111635500D01*
X152837000Y-111531500D01*
X152857002Y-111463379D01*
X152910658Y-111416886D01*
X152963000Y-111405500D01*
X155742547Y-111405500D01*
X155810668Y-111425502D01*
G37*
%TD.AperFunction*%
%TA.AperFunction,Conductor*%
G36*
X167329621Y-104287982D02*
G01*
X167376114Y-104341638D01*
X167387500Y-104393980D01*
X167387500Y-107635406D01*
X167367498Y-107703527D01*
X167350595Y-107724501D01*
X165086581Y-109988515D01*
X165024269Y-110022541D01*
X164953454Y-110017476D01*
X164945471Y-110014183D01*
X164920797Y-110003000D01*
X164643386Y-110003000D01*
X164579247Y-109985453D01*
X164550929Y-109968706D01*
X164550925Y-109968704D01*
X164544100Y-109964668D01*
X164536489Y-109962457D01*
X164536487Y-109962456D01*
X164485804Y-109947732D01*
X164384937Y-109918427D01*
X164378532Y-109917923D01*
X164378527Y-109917922D01*
X164350203Y-109915693D01*
X164350195Y-109915693D01*
X164347747Y-109915500D01*
X164339555Y-109915500D01*
X164047499Y-109915501D01*
X163979380Y-109895499D01*
X163932887Y-109841844D01*
X163921500Y-109789501D01*
X163921499Y-109526484D01*
X163921499Y-109524012D01*
X163918629Y-109487534D01*
X163915535Y-109476885D01*
X164363000Y-109476885D01*
X164367475Y-109492124D01*
X164368865Y-109493329D01*
X164376548Y-109495000D01*
X164915048Y-109495000D01*
X164928579Y-109491027D01*
X164929714Y-109483129D01*
X164890082Y-109346713D01*
X164883834Y-109332276D01*
X164807601Y-109203373D01*
X164797952Y-109190935D01*
X164692065Y-109085048D01*
X164679627Y-109075399D01*
X164550724Y-108999166D01*
X164536287Y-108992918D01*
X164391043Y-108950721D01*
X164380365Y-108948771D01*
X164365969Y-108951795D01*
X164363000Y-108963258D01*
X164363000Y-109476885D01*
X163915535Y-109476885D01*
X163873269Y-109331404D01*
X163869233Y-109324580D01*
X163866085Y-109317305D01*
X163868711Y-109316168D01*
X163855000Y-109266043D01*
X163855000Y-108965319D01*
X163850656Y-108950524D01*
X163830570Y-108946974D01*
X163766970Y-108915421D01*
X163730526Y-108854492D01*
X163726500Y-108822897D01*
X163726500Y-108780153D01*
X163727027Y-108768970D01*
X163728702Y-108761477D01*
X163727925Y-108736740D01*
X163726562Y-108693400D01*
X163726500Y-108689441D01*
X163726500Y-108661530D01*
X163725995Y-108657530D01*
X163725062Y-108645687D01*
X163724547Y-108629285D01*
X163723673Y-108601496D01*
X163718022Y-108582044D01*
X163714014Y-108562692D01*
X163712467Y-108550449D01*
X163711474Y-108542589D01*
X163703814Y-108523241D01*
X163695200Y-108501483D01*
X163691355Y-108490256D01*
X163689698Y-108484553D01*
X163679018Y-108447793D01*
X163674984Y-108440971D01*
X163674981Y-108440965D01*
X163668706Y-108430354D01*
X163660010Y-108412604D01*
X163655472Y-108401142D01*
X163655469Y-108401137D01*
X163652552Y-108393769D01*
X163626573Y-108358011D01*
X163620057Y-108348093D01*
X163607029Y-108326065D01*
X163597542Y-108310023D01*
X163583218Y-108295699D01*
X163570376Y-108280664D01*
X163558472Y-108264279D01*
X163524406Y-108236097D01*
X163515627Y-108228108D01*
X162880755Y-107593236D01*
X162873215Y-107584950D01*
X162869103Y-107578471D01*
X162819451Y-107531845D01*
X162816610Y-107529091D01*
X162796873Y-107509354D01*
X162793676Y-107506874D01*
X162784654Y-107499169D01*
X162780503Y-107495271D01*
X162752424Y-107468903D01*
X162745478Y-107465084D01*
X162745475Y-107465082D01*
X162734669Y-107459141D01*
X162718150Y-107448290D01*
X162710409Y-107442286D01*
X162702144Y-107435875D01*
X162694875Y-107432730D01*
X162694871Y-107432727D01*
X162661566Y-107418315D01*
X162650916Y-107413098D01*
X162612163Y-107391794D01*
X162592540Y-107386756D01*
X162573837Y-107380352D01*
X162562523Y-107375456D01*
X162562522Y-107375456D01*
X162555248Y-107372308D01*
X162547425Y-107371069D01*
X162547415Y-107371066D01*
X162511579Y-107365390D01*
X162499959Y-107362984D01*
X162464814Y-107353961D01*
X162464813Y-107353961D01*
X162457133Y-107351989D01*
X162436879Y-107351989D01*
X162417168Y-107350438D01*
X162404989Y-107348509D01*
X162397160Y-107347269D01*
X162367889Y-107350036D01*
X162353142Y-107351430D01*
X162341284Y-107351989D01*
X161855664Y-107351989D01*
X161844481Y-107351462D01*
X161836988Y-107349787D01*
X161829062Y-107350036D01*
X161829061Y-107350036D01*
X161768911Y-107351927D01*
X161764952Y-107351989D01*
X161737041Y-107351989D01*
X161733107Y-107352486D01*
X161733106Y-107352486D01*
X161733041Y-107352494D01*
X161721204Y-107353427D01*
X161689387Y-107354427D01*
X161684926Y-107354567D01*
X161677007Y-107354816D01*
X161659351Y-107359945D01*
X161657555Y-107360467D01*
X161638203Y-107364475D01*
X161631132Y-107365369D01*
X161618100Y-107367015D01*
X161610731Y-107369932D01*
X161610729Y-107369933D01*
X161576994Y-107383289D01*
X161565766Y-107387134D01*
X161523304Y-107399471D01*
X161516482Y-107403505D01*
X161516476Y-107403508D01*
X161505865Y-107409783D01*
X161488115Y-107418479D01*
X161476653Y-107423017D01*
X161476648Y-107423020D01*
X161469280Y-107425937D01*
X161451867Y-107438588D01*
X161433522Y-107451916D01*
X161423604Y-107458432D01*
X161412360Y-107465082D01*
X161385534Y-107480947D01*
X161371210Y-107495271D01*
X161356178Y-107508110D01*
X161339790Y-107520017D01*
X161311609Y-107554082D01*
X161303619Y-107562862D01*
X161150095Y-107716386D01*
X161087783Y-107750412D01*
X161016968Y-107745347D01*
X160971905Y-107716386D01*
X160848755Y-107593236D01*
X160841215Y-107584950D01*
X160837103Y-107578471D01*
X160787451Y-107531845D01*
X160784610Y-107529091D01*
X160764873Y-107509354D01*
X160761676Y-107506874D01*
X160752654Y-107499169D01*
X160748503Y-107495271D01*
X160720424Y-107468903D01*
X160713478Y-107465084D01*
X160713475Y-107465082D01*
X160702669Y-107459141D01*
X160686150Y-107448290D01*
X160678409Y-107442286D01*
X160670144Y-107435875D01*
X160662875Y-107432730D01*
X160662871Y-107432727D01*
X160629566Y-107418315D01*
X160618916Y-107413098D01*
X160580163Y-107391794D01*
X160560540Y-107386756D01*
X160541837Y-107380352D01*
X160530523Y-107375456D01*
X160530522Y-107375456D01*
X160523248Y-107372308D01*
X160515425Y-107371069D01*
X160515415Y-107371066D01*
X160479579Y-107365390D01*
X160467959Y-107362984D01*
X160432814Y-107353961D01*
X160432813Y-107353961D01*
X160425133Y-107351989D01*
X160404879Y-107351989D01*
X160385168Y-107350438D01*
X160372989Y-107348509D01*
X160365160Y-107347269D01*
X160335889Y-107350036D01*
X160321142Y-107351430D01*
X160309284Y-107351989D01*
X159823664Y-107351989D01*
X159812481Y-107351462D01*
X159804988Y-107349787D01*
X159797062Y-107350036D01*
X159797061Y-107350036D01*
X159736911Y-107351927D01*
X159732952Y-107351989D01*
X159705041Y-107351989D01*
X159701107Y-107352486D01*
X159701106Y-107352486D01*
X159701041Y-107352494D01*
X159689204Y-107353427D01*
X159657387Y-107354427D01*
X159652926Y-107354567D01*
X159645007Y-107354816D01*
X159627351Y-107359945D01*
X159625555Y-107360467D01*
X159606203Y-107364475D01*
X159599132Y-107365369D01*
X159586100Y-107367015D01*
X159578731Y-107369932D01*
X159578729Y-107369933D01*
X159544994Y-107383289D01*
X159533766Y-107387134D01*
X159491304Y-107399471D01*
X159484482Y-107403505D01*
X159484476Y-107403508D01*
X159473865Y-107409783D01*
X159456115Y-107418479D01*
X159444653Y-107423017D01*
X159444648Y-107423020D01*
X159437280Y-107425937D01*
X159419867Y-107438588D01*
X159401522Y-107451916D01*
X159391604Y-107458432D01*
X159380360Y-107465082D01*
X159353534Y-107480947D01*
X159339210Y-107495271D01*
X159324178Y-107508110D01*
X159307790Y-107520017D01*
X159279609Y-107554082D01*
X159271619Y-107562862D01*
X158636747Y-108197734D01*
X158628461Y-108205274D01*
X158621982Y-108209386D01*
X158616557Y-108215163D01*
X158575357Y-108259037D01*
X158572602Y-108261879D01*
X158552865Y-108281616D01*
X158550385Y-108284813D01*
X158542682Y-108293833D01*
X158512414Y-108326065D01*
X158508595Y-108333011D01*
X158508593Y-108333014D01*
X158502652Y-108343820D01*
X158491801Y-108360339D01*
X158479386Y-108376345D01*
X158476241Y-108383614D01*
X158476238Y-108383618D01*
X158461826Y-108416923D01*
X158456609Y-108427573D01*
X158435305Y-108466326D01*
X158433334Y-108474001D01*
X158433334Y-108474002D01*
X158430267Y-108485948D01*
X158423863Y-108504652D01*
X158415819Y-108523241D01*
X158414580Y-108531064D01*
X158414577Y-108531074D01*
X158408901Y-108566910D01*
X158406495Y-108578530D01*
X158395500Y-108621356D01*
X158395500Y-108641610D01*
X158393949Y-108661320D01*
X158390780Y-108681329D01*
X158391526Y-108689221D01*
X158394941Y-108725347D01*
X158395500Y-108737205D01*
X158395500Y-108821143D01*
X158375498Y-108889264D01*
X158321842Y-108935757D01*
X158295406Y-108944451D01*
X158269969Y-108949795D01*
X158267000Y-108961258D01*
X158267000Y-109266043D01*
X158253289Y-109316168D01*
X158255915Y-109317305D01*
X158252767Y-109324580D01*
X158248731Y-109331404D01*
X158203371Y-109487534D01*
X158202867Y-109493941D01*
X158202866Y-109493945D01*
X158200693Y-109521556D01*
X158200500Y-109524011D01*
X158200500Y-109526480D01*
X158200501Y-109787500D01*
X158180499Y-109855620D01*
X158126844Y-109902113D01*
X158074502Y-109913500D01*
X158013002Y-109913500D01*
X157951500Y-109913501D01*
X157883380Y-109893499D01*
X157836887Y-109839844D01*
X157825500Y-109787501D01*
X157825499Y-109524484D01*
X157825499Y-109522012D01*
X157822629Y-109485534D01*
X157777269Y-109329404D01*
X157773233Y-109322580D01*
X157770085Y-109315305D01*
X157772711Y-109314168D01*
X157759000Y-109264043D01*
X157759000Y-108963319D01*
X157754656Y-108948524D01*
X157743160Y-108946492D01*
X157730957Y-108948721D01*
X157585713Y-108990918D01*
X157564004Y-109000313D01*
X157563115Y-108998258D01*
X157505364Y-109012915D01*
X157454145Y-108997878D01*
X157453696Y-108998915D01*
X157446418Y-108995766D01*
X157439596Y-108991731D01*
X157431985Y-108989520D01*
X157431983Y-108989519D01*
X157304245Y-108952408D01*
X157283466Y-108946371D01*
X157277059Y-108945867D01*
X157277055Y-108945866D01*
X157249444Y-108943693D01*
X157249438Y-108943693D01*
X157246989Y-108943500D01*
X156997152Y-108943500D01*
X156747012Y-108943501D01*
X156710534Y-108946371D01*
X156659293Y-108961258D01*
X156562017Y-108989519D01*
X156562015Y-108989520D01*
X156554404Y-108991731D01*
X156547582Y-108995766D01*
X156547581Y-108995766D01*
X156420445Y-109070954D01*
X156356306Y-109088500D01*
X154846589Y-109088500D01*
X154778468Y-109068498D01*
X154757494Y-109051595D01*
X154179494Y-108473595D01*
X154145468Y-108411283D01*
X154150533Y-108340468D01*
X154193080Y-108283632D01*
X154259600Y-108258821D01*
X154268589Y-108258500D01*
X154413244Y-108258500D01*
X154417330Y-108257962D01*
X154417331Y-108257962D01*
X154456153Y-108252851D01*
X154527324Y-108243481D01*
X154534951Y-108240322D01*
X154534954Y-108240321D01*
X154632644Y-108199856D01*
X154669268Y-108184686D01*
X154791157Y-108091157D01*
X154796186Y-108084604D01*
X154841970Y-108024936D01*
X154884686Y-107969267D01*
X154943481Y-107827324D01*
X154943829Y-107824680D01*
X154979430Y-107766268D01*
X155043290Y-107735245D01*
X155064188Y-107733500D01*
X155965233Y-107733500D01*
X155976416Y-107734027D01*
X155983909Y-107735702D01*
X155991835Y-107735453D01*
X155991836Y-107735453D01*
X156051986Y-107733562D01*
X156055945Y-107733500D01*
X156083856Y-107733500D01*
X156087791Y-107733003D01*
X156087856Y-107732995D01*
X156099693Y-107732062D01*
X156131951Y-107731048D01*
X156135970Y-107730922D01*
X156143889Y-107730673D01*
X156163343Y-107725021D01*
X156182700Y-107721013D01*
X156194930Y-107719468D01*
X156194931Y-107719468D01*
X156202797Y-107718474D01*
X156210168Y-107715555D01*
X156210170Y-107715555D01*
X156243912Y-107702196D01*
X156255142Y-107698351D01*
X156289983Y-107688229D01*
X156289984Y-107688229D01*
X156297593Y-107686018D01*
X156304412Y-107681985D01*
X156304417Y-107681983D01*
X156315028Y-107675707D01*
X156332776Y-107667012D01*
X156351617Y-107659552D01*
X156367654Y-107647901D01*
X156387387Y-107633564D01*
X156397307Y-107627048D01*
X156428535Y-107608580D01*
X156428538Y-107608578D01*
X156435362Y-107604542D01*
X156449683Y-107590221D01*
X156464717Y-107577380D01*
X156474694Y-107570131D01*
X156481107Y-107565472D01*
X156509298Y-107531395D01*
X156517288Y-107522616D01*
X158972135Y-105067769D01*
X159020469Y-105005457D01*
X159040755Y-104979305D01*
X159040757Y-104979302D01*
X159045614Y-104973040D01*
X159049397Y-104964300D01*
X159106032Y-104833422D01*
X159109181Y-104826145D01*
X159134220Y-104668057D01*
X159125453Y-104575313D01*
X159119903Y-104516595D01*
X159119902Y-104516592D01*
X159119157Y-104508707D01*
X159116212Y-104500525D01*
X159093219Y-104436661D01*
X159088964Y-104365792D01*
X159123698Y-104303872D01*
X159186395Y-104270562D01*
X159211770Y-104267980D01*
X167261500Y-104267980D01*
X167329621Y-104287982D01*
G37*
%TD.AperFunction*%
%TA.AperFunction,Conductor*%
G36*
X139842012Y-96564094D02*
G01*
X139848595Y-96570223D01*
X149879595Y-106601223D01*
X149913621Y-106663535D01*
X149916500Y-106690318D01*
X149916500Y-107906166D01*
X149896498Y-107974287D01*
X149842842Y-108020780D01*
X149774054Y-108031088D01*
X149667331Y-108017038D01*
X149667330Y-108017038D01*
X149663244Y-108016500D01*
X149436756Y-108016500D01*
X149432670Y-108017038D01*
X149432669Y-108017038D01*
X149322676Y-108031519D01*
X149322473Y-108029974D01*
X149277527Y-108029974D01*
X149277324Y-108031519D01*
X149167331Y-108017038D01*
X149167330Y-108017038D01*
X149163244Y-108016500D01*
X148936756Y-108016500D01*
X148932670Y-108017038D01*
X148932669Y-108017038D01*
X148822676Y-108031519D01*
X148822473Y-108029974D01*
X148777527Y-108029974D01*
X148777324Y-108031519D01*
X148667331Y-108017038D01*
X148667330Y-108017038D01*
X148663244Y-108016500D01*
X148436756Y-108016500D01*
X148432670Y-108017038D01*
X148432669Y-108017038D01*
X148322676Y-108031519D01*
X148322473Y-108029974D01*
X148277527Y-108029974D01*
X148277324Y-108031519D01*
X148167331Y-108017038D01*
X148167330Y-108017038D01*
X148163244Y-108016500D01*
X147936756Y-108016500D01*
X147932670Y-108017038D01*
X147932669Y-108017038D01*
X147822676Y-108031519D01*
X147822473Y-108029974D01*
X147777527Y-108029974D01*
X147777324Y-108031519D01*
X147667331Y-108017038D01*
X147667330Y-108017038D01*
X147663244Y-108016500D01*
X147436756Y-108016500D01*
X147432670Y-108017038D01*
X147432669Y-108017038D01*
X147322676Y-108031519D01*
X147322473Y-108029974D01*
X147277527Y-108029974D01*
X147277324Y-108031519D01*
X147167331Y-108017038D01*
X147167330Y-108017038D01*
X147163244Y-108016500D01*
X146936756Y-108016500D01*
X146932670Y-108017038D01*
X146932669Y-108017038D01*
X146822676Y-108031519D01*
X146822473Y-108029974D01*
X146777527Y-108029974D01*
X146777324Y-108031519D01*
X146667331Y-108017038D01*
X146667330Y-108017038D01*
X146663244Y-108016500D01*
X146436756Y-108016500D01*
X146432670Y-108017038D01*
X146432669Y-108017038D01*
X146322676Y-108031519D01*
X146322473Y-108029974D01*
X146277527Y-108029974D01*
X146277324Y-108031519D01*
X146167331Y-108017038D01*
X146167330Y-108017038D01*
X146163244Y-108016500D01*
X145936756Y-108016500D01*
X145932670Y-108017038D01*
X145932669Y-108017038D01*
X145822676Y-108031519D01*
X145822473Y-108029974D01*
X145777527Y-108029974D01*
X145777324Y-108031519D01*
X145667331Y-108017038D01*
X145667330Y-108017038D01*
X145663244Y-108016500D01*
X145436756Y-108016500D01*
X145432670Y-108017038D01*
X145432669Y-108017038D01*
X145322676Y-108031519D01*
X145322473Y-108029974D01*
X145277527Y-108029974D01*
X145277324Y-108031519D01*
X145167331Y-108017038D01*
X145167330Y-108017038D01*
X145163244Y-108016500D01*
X144936756Y-108016500D01*
X144932670Y-108017038D01*
X144932669Y-108017038D01*
X144822676Y-108031519D01*
X144822473Y-108029974D01*
X144777527Y-108029974D01*
X144777324Y-108031519D01*
X144667331Y-108017038D01*
X144667330Y-108017038D01*
X144663244Y-108016500D01*
X144436756Y-108016500D01*
X144432670Y-108017038D01*
X144432669Y-108017038D01*
X144322676Y-108031519D01*
X144322473Y-108029974D01*
X144277527Y-108029974D01*
X144277324Y-108031519D01*
X144167331Y-108017038D01*
X144167330Y-108017038D01*
X144163244Y-108016500D01*
X143936756Y-108016500D01*
X143932670Y-108017038D01*
X143932669Y-108017038D01*
X143822676Y-108031519D01*
X143822473Y-108029974D01*
X143777527Y-108029974D01*
X143777324Y-108031519D01*
X143667331Y-108017038D01*
X143667330Y-108017038D01*
X143663244Y-108016500D01*
X143436756Y-108016500D01*
X143432670Y-108017038D01*
X143432669Y-108017038D01*
X143322676Y-108031519D01*
X143322473Y-108029974D01*
X143277527Y-108029974D01*
X143277324Y-108031519D01*
X143167331Y-108017038D01*
X143167330Y-108017038D01*
X143163244Y-108016500D01*
X142936756Y-108016500D01*
X142932670Y-108017038D01*
X142932669Y-108017038D01*
X142822676Y-108031519D01*
X142822507Y-108030234D01*
X142777427Y-108030235D01*
X142777194Y-108032006D01*
X142717960Y-108024208D01*
X142703778Y-108026419D01*
X142698217Y-108045784D01*
X142660189Y-108105737D01*
X142653816Y-108110967D01*
X142626704Y-108131771D01*
X142560484Y-108157372D01*
X142490935Y-108143108D01*
X142473295Y-108131771D01*
X142446092Y-108110897D01*
X142404225Y-108053558D01*
X142401901Y-108046433D01*
X142395956Y-108026187D01*
X142382417Y-108024158D01*
X142322806Y-108032006D01*
X142322573Y-108030235D01*
X142277493Y-108030234D01*
X142277324Y-108031519D01*
X142167331Y-108017038D01*
X142167330Y-108017038D01*
X142163244Y-108016500D01*
X141936756Y-108016500D01*
X141932670Y-108017038D01*
X141932669Y-108017038D01*
X141822676Y-108031519D01*
X141822473Y-108029974D01*
X141777527Y-108029974D01*
X141777324Y-108031519D01*
X141667331Y-108017038D01*
X141667330Y-108017038D01*
X141663244Y-108016500D01*
X141436756Y-108016500D01*
X141432670Y-108017038D01*
X141432669Y-108017038D01*
X141322676Y-108031519D01*
X141322473Y-108029974D01*
X141277527Y-108029974D01*
X141277324Y-108031519D01*
X141167331Y-108017038D01*
X141167330Y-108017038D01*
X141163244Y-108016500D01*
X140936756Y-108016500D01*
X140932670Y-108017038D01*
X140932669Y-108017038D01*
X140822676Y-108031519D01*
X140822473Y-108029974D01*
X140777527Y-108029974D01*
X140777324Y-108031519D01*
X140667331Y-108017038D01*
X140667330Y-108017038D01*
X140663244Y-108016500D01*
X140436756Y-108016500D01*
X140432670Y-108017038D01*
X140432669Y-108017038D01*
X140322676Y-108031519D01*
X140322473Y-108029974D01*
X140277527Y-108029974D01*
X140277324Y-108031519D01*
X140167331Y-108017038D01*
X140167330Y-108017038D01*
X140163244Y-108016500D01*
X139936756Y-108016500D01*
X139932670Y-108017038D01*
X139932669Y-108017038D01*
X139904246Y-108020780D01*
X139822676Y-108031519D01*
X139815047Y-108034679D01*
X139809330Y-108037047D01*
X139786671Y-108046433D01*
X139755129Y-108059498D01*
X139684539Y-108067087D01*
X139621052Y-108035308D01*
X139584825Y-107974250D01*
X139587359Y-107903298D01*
X139590502Y-107894871D01*
X139615321Y-107834953D01*
X139615322Y-107834951D01*
X139618481Y-107827324D01*
X139630576Y-107735453D01*
X139632962Y-107717331D01*
X139632962Y-107717330D01*
X139633500Y-107713244D01*
X139633500Y-107486756D01*
X139618481Y-107372676D01*
X139620026Y-107372473D01*
X139620026Y-107327527D01*
X139618481Y-107327324D01*
X139632962Y-107217331D01*
X139632962Y-107217330D01*
X139633500Y-107213244D01*
X139633500Y-106986756D01*
X139618481Y-106872676D01*
X139620026Y-106872473D01*
X139620026Y-106827527D01*
X139618481Y-106827324D01*
X139632962Y-106717331D01*
X139632962Y-106717330D01*
X139633500Y-106713244D01*
X139633500Y-106486756D01*
X139618481Y-106372676D01*
X139620026Y-106372473D01*
X139620026Y-106327527D01*
X139618481Y-106327324D01*
X139632962Y-106217331D01*
X139632962Y-106217330D01*
X139633500Y-106213244D01*
X139633500Y-105986756D01*
X139631113Y-105968621D01*
X139618481Y-105872676D01*
X139620026Y-105872473D01*
X139620026Y-105827527D01*
X139618481Y-105827324D01*
X139632962Y-105717331D01*
X139632962Y-105717330D01*
X139633500Y-105713244D01*
X139633500Y-105486756D01*
X139626265Y-105431797D01*
X139618481Y-105372676D01*
X139620026Y-105372473D01*
X139620026Y-105327527D01*
X139618481Y-105327324D01*
X139632962Y-105217331D01*
X139632962Y-105217330D01*
X139633500Y-105213244D01*
X139633500Y-104986756D01*
X139618481Y-104872676D01*
X139620026Y-104872473D01*
X139620026Y-104827527D01*
X139618481Y-104827324D01*
X139632962Y-104717331D01*
X139632962Y-104717330D01*
X139633500Y-104713244D01*
X139633500Y-104486756D01*
X139618481Y-104372676D01*
X139620026Y-104372473D01*
X139620026Y-104327527D01*
X139618481Y-104327324D01*
X139632962Y-104217331D01*
X139632962Y-104217330D01*
X139633500Y-104213244D01*
X139633500Y-103986756D01*
X139618481Y-103872676D01*
X139620026Y-103872473D01*
X139620026Y-103827527D01*
X139618481Y-103827324D01*
X139632962Y-103717331D01*
X139632962Y-103717330D01*
X139633500Y-103713244D01*
X139633500Y-103486756D01*
X139631491Y-103471492D01*
X139618481Y-103372676D01*
X139620026Y-103372473D01*
X139620026Y-103327527D01*
X139618481Y-103327324D01*
X139632962Y-103217331D01*
X139632962Y-103217330D01*
X139633500Y-103213244D01*
X139633500Y-102986756D01*
X139630173Y-102961481D01*
X139618481Y-102872676D01*
X139620026Y-102872473D01*
X139620026Y-102827527D01*
X139618481Y-102827324D01*
X139632962Y-102717331D01*
X139632962Y-102717330D01*
X139633500Y-102713244D01*
X139633500Y-102486756D01*
X139629226Y-102454288D01*
X139618481Y-102372676D01*
X139620026Y-102372473D01*
X139620026Y-102327527D01*
X139618481Y-102327324D01*
X139632962Y-102217331D01*
X139632962Y-102217330D01*
X139633500Y-102213244D01*
X139633500Y-101986756D01*
X139618481Y-101872676D01*
X139620026Y-101872473D01*
X139620026Y-101827527D01*
X139618481Y-101827324D01*
X139632962Y-101717331D01*
X139632962Y-101717330D01*
X139633500Y-101713244D01*
X139633500Y-101486756D01*
X139618481Y-101372676D01*
X139619766Y-101372507D01*
X139619765Y-101327427D01*
X139617994Y-101327194D01*
X139625792Y-101267960D01*
X139623581Y-101253778D01*
X139604216Y-101248217D01*
X139544263Y-101210189D01*
X139539033Y-101203816D01*
X139518229Y-101176704D01*
X139492628Y-101110484D01*
X139506892Y-101040935D01*
X139518229Y-101023295D01*
X139539103Y-100996092D01*
X139596442Y-100954225D01*
X139603567Y-100951901D01*
X139623813Y-100945956D01*
X139625842Y-100932417D01*
X139617994Y-100872806D01*
X139619765Y-100872573D01*
X139619766Y-100827493D01*
X139618481Y-100827324D01*
X139632962Y-100717331D01*
X139632962Y-100717330D01*
X139633500Y-100713244D01*
X139633500Y-100486756D01*
X139626498Y-100433567D01*
X139618481Y-100372676D01*
X139620026Y-100372473D01*
X139620026Y-100327527D01*
X139618481Y-100327324D01*
X139632962Y-100217331D01*
X139632962Y-100217330D01*
X139633500Y-100213244D01*
X139633500Y-99986756D01*
X139618481Y-99872676D01*
X139620026Y-99872473D01*
X139620026Y-99827527D01*
X139618481Y-99827324D01*
X139632962Y-99717331D01*
X139632962Y-99717330D01*
X139633500Y-99713244D01*
X139633500Y-99486756D01*
X139618481Y-99372676D01*
X139620026Y-99372473D01*
X139620026Y-99327527D01*
X139618481Y-99327324D01*
X139632962Y-99217331D01*
X139632962Y-99217330D01*
X139633500Y-99213244D01*
X139633500Y-98986756D01*
X139631056Y-98968188D01*
X139618481Y-98872676D01*
X139620026Y-98872473D01*
X139620026Y-98827527D01*
X139618481Y-98827324D01*
X139632962Y-98717331D01*
X139632962Y-98717330D01*
X139633500Y-98713244D01*
X139633500Y-98486756D01*
X139626963Y-98437099D01*
X139618481Y-98372676D01*
X139620026Y-98372473D01*
X139620026Y-98327527D01*
X139618481Y-98327324D01*
X139632962Y-98217331D01*
X139632962Y-98217330D01*
X139633500Y-98213244D01*
X139633500Y-97986756D01*
X139620992Y-97891745D01*
X139618481Y-97872676D01*
X139620026Y-97872473D01*
X139620026Y-97827527D01*
X139618481Y-97827324D01*
X139632962Y-97717331D01*
X139632962Y-97717330D01*
X139633500Y-97713244D01*
X139633500Y-97486756D01*
X139631625Y-97472510D01*
X139618481Y-97372676D01*
X139620026Y-97372473D01*
X139620026Y-97327527D01*
X139618481Y-97327324D01*
X139632962Y-97217331D01*
X139632962Y-97217330D01*
X139633500Y-97213244D01*
X139633500Y-96986756D01*
X139626995Y-96937342D01*
X139618481Y-96872676D01*
X139620026Y-96872473D01*
X139620026Y-96827527D01*
X139618481Y-96827324D01*
X139632962Y-96717331D01*
X139632962Y-96717330D01*
X139633500Y-96713244D01*
X139633500Y-96659318D01*
X139653502Y-96591197D01*
X139707158Y-96544704D01*
X139777432Y-96534600D01*
X139842012Y-96564094D01*
G37*
%TD.AperFunction*%
%TA.AperFunction,Conductor*%
G36*
X151392012Y-107478376D02*
G01*
X151398595Y-107484505D01*
X151734048Y-107819958D01*
X151768074Y-107882270D01*
X151763009Y-107953085D01*
X151728593Y-108003289D01*
X151704204Y-108024936D01*
X151698217Y-108045784D01*
X151660189Y-108105737D01*
X151653816Y-108110967D01*
X151626704Y-108131771D01*
X151560484Y-108157372D01*
X151490935Y-108143108D01*
X151473295Y-108131771D01*
X151446092Y-108110897D01*
X151404225Y-108053558D01*
X151401901Y-108046433D01*
X151395956Y-108026187D01*
X151382416Y-108024158D01*
X151325946Y-108031592D01*
X151255797Y-108020652D01*
X151202699Y-107973524D01*
X151183500Y-107906670D01*
X151183500Y-107573600D01*
X151203502Y-107505479D01*
X151257158Y-107458986D01*
X151327432Y-107448882D01*
X151392012Y-107478376D01*
G37*
%TD.AperFunction*%
%TA.AperFunction,Conductor*%
G36*
X149109065Y-95056892D02*
G01*
X149126705Y-95068229D01*
X149153908Y-95089103D01*
X149195775Y-95146442D01*
X149198099Y-95153567D01*
X149204044Y-95173813D01*
X149217583Y-95175842D01*
X149277194Y-95167994D01*
X149277427Y-95169765D01*
X149322507Y-95169766D01*
X149322676Y-95168481D01*
X149432669Y-95182962D01*
X149432670Y-95182962D01*
X149436756Y-95183500D01*
X149663244Y-95183500D01*
X149667330Y-95182962D01*
X149667331Y-95182962D01*
X149777324Y-95168481D01*
X149777527Y-95170026D01*
X149822473Y-95170026D01*
X149822676Y-95168481D01*
X149932669Y-95182962D01*
X149932670Y-95182962D01*
X149936756Y-95183500D01*
X150163244Y-95183500D01*
X150167330Y-95182962D01*
X150167331Y-95182962D01*
X150277324Y-95168481D01*
X150277527Y-95170026D01*
X150322473Y-95170026D01*
X150322676Y-95168481D01*
X150432669Y-95182962D01*
X150432670Y-95182962D01*
X150436756Y-95183500D01*
X150663244Y-95183500D01*
X150667330Y-95182962D01*
X150667331Y-95182962D01*
X150777324Y-95168481D01*
X150777527Y-95170026D01*
X150822473Y-95170026D01*
X150822676Y-95168481D01*
X150932669Y-95182962D01*
X150932670Y-95182962D01*
X150936756Y-95183500D01*
X151163244Y-95183500D01*
X151167330Y-95182962D01*
X151167331Y-95182962D01*
X151277324Y-95168481D01*
X151277527Y-95170026D01*
X151322473Y-95170026D01*
X151322676Y-95168481D01*
X151432669Y-95182962D01*
X151432670Y-95182962D01*
X151436756Y-95183500D01*
X151663244Y-95183500D01*
X151667330Y-95182962D01*
X151667331Y-95182962D01*
X151777324Y-95168481D01*
X151777527Y-95170026D01*
X151822473Y-95170026D01*
X151822676Y-95168481D01*
X151932669Y-95182962D01*
X151932670Y-95182962D01*
X151936756Y-95183500D01*
X152163244Y-95183500D01*
X152167330Y-95182962D01*
X152167331Y-95182962D01*
X152235745Y-95173955D01*
X152277324Y-95168481D01*
X152286472Y-95164692D01*
X152311763Y-95154216D01*
X152344872Y-95140502D01*
X152415461Y-95132913D01*
X152478948Y-95164692D01*
X152515175Y-95225750D01*
X152512641Y-95296702D01*
X152509498Y-95305129D01*
X152481519Y-95372676D01*
X152466500Y-95486756D01*
X152466500Y-95713244D01*
X152467038Y-95717330D01*
X152467038Y-95717331D01*
X152481519Y-95827324D01*
X152479974Y-95827527D01*
X152479974Y-95872473D01*
X152481519Y-95872676D01*
X152466500Y-95986756D01*
X152466500Y-96213244D01*
X152467038Y-96217330D01*
X152467038Y-96217331D01*
X152481519Y-96327324D01*
X152479974Y-96327527D01*
X152479974Y-96372473D01*
X152481519Y-96372676D01*
X152466500Y-96486756D01*
X152466500Y-96713244D01*
X152467038Y-96717330D01*
X152467038Y-96717331D01*
X152481519Y-96827324D01*
X152479974Y-96827527D01*
X152479974Y-96872473D01*
X152481519Y-96872676D01*
X152473006Y-96937342D01*
X152466500Y-96986756D01*
X152466500Y-97213244D01*
X152467038Y-97217330D01*
X152467038Y-97217331D01*
X152481519Y-97327324D01*
X152479974Y-97327527D01*
X152479974Y-97372473D01*
X152481519Y-97372676D01*
X152468376Y-97472510D01*
X152466500Y-97486756D01*
X152466500Y-97713244D01*
X152467038Y-97717330D01*
X152467038Y-97717331D01*
X152481519Y-97827324D01*
X152479974Y-97827527D01*
X152479974Y-97872473D01*
X152481519Y-97872676D01*
X152479009Y-97891745D01*
X152466500Y-97986756D01*
X152466500Y-98213244D01*
X152467038Y-98217330D01*
X152467038Y-98217331D01*
X152481519Y-98327324D01*
X152479974Y-98327527D01*
X152479974Y-98372473D01*
X152481519Y-98372676D01*
X152473038Y-98437099D01*
X152466500Y-98486756D01*
X152466500Y-98713244D01*
X152467038Y-98717330D01*
X152467038Y-98717331D01*
X152481519Y-98827324D01*
X152479974Y-98827527D01*
X152479974Y-98872473D01*
X152481519Y-98872676D01*
X152468945Y-98968188D01*
X152466500Y-98986756D01*
X152466500Y-99213244D01*
X152467038Y-99217330D01*
X152467038Y-99217331D01*
X152481519Y-99327324D01*
X152479974Y-99327527D01*
X152479974Y-99372473D01*
X152481519Y-99372676D01*
X152466500Y-99486756D01*
X152466500Y-99713244D01*
X152467038Y-99717330D01*
X152467038Y-99717331D01*
X152481519Y-99827324D01*
X152479974Y-99827527D01*
X152479974Y-99872473D01*
X152481519Y-99872676D01*
X152466500Y-99986756D01*
X152466500Y-100213244D01*
X152467038Y-100217330D01*
X152467038Y-100217331D01*
X152481519Y-100327324D01*
X152479974Y-100327527D01*
X152479974Y-100372473D01*
X152481519Y-100372676D01*
X152473503Y-100433567D01*
X152466500Y-100486756D01*
X152466500Y-100713244D01*
X152467038Y-100717330D01*
X152467038Y-100717331D01*
X152481519Y-100827324D01*
X152479974Y-100827527D01*
X152479974Y-100872473D01*
X152481519Y-100872676D01*
X152476392Y-100911623D01*
X152466500Y-100986756D01*
X152466500Y-101213244D01*
X152467038Y-101217330D01*
X152467038Y-101217331D01*
X152481519Y-101327324D01*
X152479974Y-101327527D01*
X152479974Y-101372473D01*
X152481519Y-101372676D01*
X152466500Y-101486756D01*
X152466500Y-101713244D01*
X152467038Y-101717330D01*
X152467038Y-101717331D01*
X152481519Y-101827324D01*
X152479974Y-101827527D01*
X152479974Y-101872473D01*
X152481519Y-101872676D01*
X152466500Y-101986756D01*
X152466500Y-102213244D01*
X152467038Y-102217330D01*
X152467038Y-102217331D01*
X152481519Y-102327324D01*
X152480234Y-102327493D01*
X152480235Y-102372573D01*
X152482006Y-102372806D01*
X152474208Y-102432040D01*
X152476419Y-102446222D01*
X152495784Y-102451783D01*
X152555737Y-102489811D01*
X152560967Y-102496184D01*
X152581771Y-102523296D01*
X152607372Y-102589516D01*
X152593108Y-102659065D01*
X152581771Y-102676705D01*
X152560897Y-102703908D01*
X152503558Y-102745775D01*
X152496433Y-102748099D01*
X152476187Y-102754044D01*
X152474158Y-102767583D01*
X152482006Y-102827194D01*
X152480235Y-102827427D01*
X152480234Y-102872507D01*
X152481519Y-102872676D01*
X152469828Y-102961481D01*
X152466500Y-102986756D01*
X152466500Y-103213244D01*
X152467038Y-103217330D01*
X152467038Y-103217331D01*
X152481519Y-103327324D01*
X152479974Y-103327527D01*
X152479974Y-103372473D01*
X152481519Y-103372676D01*
X152468510Y-103471492D01*
X152466500Y-103486756D01*
X152466500Y-103713244D01*
X152467038Y-103717330D01*
X152467038Y-103717331D01*
X152481519Y-103827324D01*
X152479974Y-103827527D01*
X152479974Y-103872473D01*
X152481519Y-103872676D01*
X152466500Y-103986756D01*
X152466500Y-104213244D01*
X152467038Y-104217330D01*
X152467038Y-104217331D01*
X152481519Y-104327324D01*
X152479974Y-104327527D01*
X152479974Y-104372473D01*
X152481519Y-104372676D01*
X152466500Y-104486756D01*
X152466500Y-104713244D01*
X152467038Y-104717330D01*
X152467038Y-104717331D01*
X152481519Y-104827324D01*
X152479974Y-104827527D01*
X152479974Y-104872473D01*
X152481519Y-104872676D01*
X152466500Y-104986756D01*
X152466500Y-105213244D01*
X152467038Y-105217330D01*
X152467038Y-105217331D01*
X152481519Y-105327324D01*
X152479974Y-105327527D01*
X152479974Y-105372473D01*
X152481519Y-105372676D01*
X152473736Y-105431797D01*
X152466500Y-105486756D01*
X152466500Y-105713244D01*
X152467038Y-105717330D01*
X152467038Y-105717331D01*
X152481519Y-105827324D01*
X152479974Y-105827527D01*
X152479974Y-105872473D01*
X152481519Y-105872676D01*
X152468888Y-105968621D01*
X152466500Y-105986756D01*
X152466500Y-106213244D01*
X152467038Y-106217330D01*
X152467038Y-106217331D01*
X152481519Y-106327324D01*
X152479974Y-106327527D01*
X152479974Y-106372473D01*
X152481519Y-106372676D01*
X152467991Y-106475429D01*
X152439270Y-106540354D01*
X152380005Y-106579446D01*
X152309013Y-106580291D01*
X152253975Y-106548076D01*
X141101924Y-95396025D01*
X141067898Y-95333713D01*
X141072963Y-95262898D01*
X141115510Y-95206062D01*
X141174571Y-95182009D01*
X141277324Y-95168481D01*
X141277527Y-95170026D01*
X141322473Y-95170026D01*
X141322676Y-95168481D01*
X141432669Y-95182962D01*
X141432670Y-95182962D01*
X141436756Y-95183500D01*
X141663244Y-95183500D01*
X141667330Y-95182962D01*
X141667331Y-95182962D01*
X141777324Y-95168481D01*
X141777527Y-95170026D01*
X141822473Y-95170026D01*
X141822676Y-95168481D01*
X141932669Y-95182962D01*
X141932670Y-95182962D01*
X141936756Y-95183500D01*
X142163244Y-95183500D01*
X142167330Y-95182962D01*
X142167331Y-95182962D01*
X142277324Y-95168481D01*
X142277527Y-95170026D01*
X142322473Y-95170026D01*
X142322676Y-95168481D01*
X142432669Y-95182962D01*
X142432670Y-95182962D01*
X142436756Y-95183500D01*
X142663244Y-95183500D01*
X142667330Y-95182962D01*
X142667331Y-95182962D01*
X142777324Y-95168481D01*
X142777527Y-95170026D01*
X142822473Y-95170026D01*
X142822676Y-95168481D01*
X142932669Y-95182962D01*
X142932670Y-95182962D01*
X142936756Y-95183500D01*
X143163244Y-95183500D01*
X143167330Y-95182962D01*
X143167331Y-95182962D01*
X143277324Y-95168481D01*
X143277527Y-95170026D01*
X143322473Y-95170026D01*
X143322676Y-95168481D01*
X143432669Y-95182962D01*
X143432670Y-95182962D01*
X143436756Y-95183500D01*
X143663244Y-95183500D01*
X143667330Y-95182962D01*
X143667331Y-95182962D01*
X143777324Y-95168481D01*
X143777527Y-95170026D01*
X143822473Y-95170026D01*
X143822676Y-95168481D01*
X143932669Y-95182962D01*
X143932670Y-95182962D01*
X143936756Y-95183500D01*
X144163244Y-95183500D01*
X144167330Y-95182962D01*
X144167331Y-95182962D01*
X144277324Y-95168481D01*
X144277527Y-95170026D01*
X144322473Y-95170026D01*
X144322676Y-95168481D01*
X144432669Y-95182962D01*
X144432670Y-95182962D01*
X144436756Y-95183500D01*
X144663244Y-95183500D01*
X144667330Y-95182962D01*
X144667331Y-95182962D01*
X144777324Y-95168481D01*
X144777527Y-95170026D01*
X144822473Y-95170026D01*
X144822676Y-95168481D01*
X144932669Y-95182962D01*
X144932670Y-95182962D01*
X144936756Y-95183500D01*
X145163244Y-95183500D01*
X145167330Y-95182962D01*
X145167331Y-95182962D01*
X145277324Y-95168481D01*
X145277527Y-95170026D01*
X145322473Y-95170026D01*
X145322676Y-95168481D01*
X145432669Y-95182962D01*
X145432670Y-95182962D01*
X145436756Y-95183500D01*
X145663244Y-95183500D01*
X145667330Y-95182962D01*
X145667331Y-95182962D01*
X145777324Y-95168481D01*
X145777527Y-95170026D01*
X145822473Y-95170026D01*
X145822676Y-95168481D01*
X145932669Y-95182962D01*
X145932670Y-95182962D01*
X145936756Y-95183500D01*
X146163244Y-95183500D01*
X146167330Y-95182962D01*
X146167331Y-95182962D01*
X146277324Y-95168481D01*
X146277527Y-95170026D01*
X146322473Y-95170026D01*
X146322676Y-95168481D01*
X146432669Y-95182962D01*
X146432670Y-95182962D01*
X146436756Y-95183500D01*
X146663244Y-95183500D01*
X146667330Y-95182962D01*
X146667331Y-95182962D01*
X146777324Y-95168481D01*
X146777527Y-95170026D01*
X146822473Y-95170026D01*
X146822676Y-95168481D01*
X146932669Y-95182962D01*
X146932670Y-95182962D01*
X146936756Y-95183500D01*
X147163244Y-95183500D01*
X147167330Y-95182962D01*
X147167331Y-95182962D01*
X147277324Y-95168481D01*
X147277527Y-95170026D01*
X147322473Y-95170026D01*
X147322676Y-95168481D01*
X147432669Y-95182962D01*
X147432670Y-95182962D01*
X147436756Y-95183500D01*
X147663244Y-95183500D01*
X147667330Y-95182962D01*
X147667331Y-95182962D01*
X147777324Y-95168481D01*
X147777527Y-95170026D01*
X147822473Y-95170026D01*
X147822676Y-95168481D01*
X147932669Y-95182962D01*
X147932670Y-95182962D01*
X147936756Y-95183500D01*
X148163244Y-95183500D01*
X148167330Y-95182962D01*
X148167331Y-95182962D01*
X148277324Y-95168481D01*
X148277527Y-95170026D01*
X148322473Y-95170026D01*
X148322676Y-95168481D01*
X148432669Y-95182962D01*
X148432670Y-95182962D01*
X148436756Y-95183500D01*
X148663244Y-95183500D01*
X148667330Y-95182962D01*
X148667331Y-95182962D01*
X148777324Y-95168481D01*
X148777493Y-95169766D01*
X148822573Y-95169765D01*
X148822806Y-95167994D01*
X148882040Y-95175792D01*
X148896222Y-95173581D01*
X148901783Y-95154216D01*
X148939811Y-95094263D01*
X148946184Y-95089033D01*
X148973296Y-95068229D01*
X149039516Y-95042628D01*
X149109065Y-95056892D01*
G37*
%TD.AperFunction*%
%TA.AperFunction,Conductor*%
G36*
X173163395Y-99693502D02*
G01*
X173202707Y-99733665D01*
X173270987Y-99845088D01*
X173417250Y-100013938D01*
X173589126Y-100156632D01*
X173598340Y-100162016D01*
X173662955Y-100199774D01*
X173711679Y-100251412D01*
X173724750Y-100321195D01*
X173698019Y-100386967D01*
X173657562Y-100420327D01*
X173649457Y-100424546D01*
X173640738Y-100430036D01*
X173470433Y-100557905D01*
X173462726Y-100564748D01*
X173315590Y-100718717D01*
X173309104Y-100726727D01*
X173189098Y-100902649D01*
X173184000Y-100911623D01*
X173094338Y-101104783D01*
X173090776Y-101114467D01*
X173064200Y-101210294D01*
X173026721Y-101270591D01*
X172962592Y-101301054D01*
X172892174Y-101292010D01*
X172837824Y-101246331D01*
X172821076Y-101209231D01*
X172812237Y-101176241D01*
X172808490Y-101165947D01*
X172716414Y-100968489D01*
X172710931Y-100958994D01*
X172674491Y-100906952D01*
X172664012Y-100898576D01*
X172650566Y-100905644D01*
X171949022Y-101607188D01*
X171941408Y-101621132D01*
X171941539Y-101622965D01*
X171945790Y-101629580D01*
X172651287Y-102335077D01*
X172663062Y-102341507D01*
X172675077Y-102332211D01*
X172710931Y-102281006D01*
X172716414Y-102271511D01*
X172808490Y-102074053D01*
X172812235Y-102063764D01*
X172830342Y-101996188D01*
X172867294Y-101935566D01*
X172931155Y-101904544D01*
X173001649Y-101912973D01*
X173056396Y-101958176D01*
X173070559Y-101987547D01*
X173070701Y-101987489D01*
X173071609Y-101989724D01*
X173072286Y-101991129D01*
X173072647Y-101992282D01*
X173152770Y-102189603D01*
X173157413Y-102198794D01*
X173268694Y-102380388D01*
X173274777Y-102388699D01*
X173414213Y-102549667D01*
X173421580Y-102556883D01*
X173585434Y-102692916D01*
X173593881Y-102698831D01*
X173662969Y-102739203D01*
X173711693Y-102790842D01*
X173724764Y-102860625D01*
X173698033Y-102926396D01*
X173657584Y-102959752D01*
X173644607Y-102966507D01*
X173640474Y-102969610D01*
X173640471Y-102969612D01*
X173501522Y-103073938D01*
X173465965Y-103100635D01*
X173462393Y-103104373D01*
X173338556Y-103233961D01*
X173311629Y-103262138D01*
X173308715Y-103266410D01*
X173308714Y-103266411D01*
X173196095Y-103431504D01*
X173141184Y-103476507D01*
X173092007Y-103486500D01*
X172796394Y-103486500D01*
X172728273Y-103466498D01*
X172693181Y-103432771D01*
X172586357Y-103280211D01*
X172586355Y-103280208D01*
X172583198Y-103275700D01*
X172421300Y-103113802D01*
X172416792Y-103110645D01*
X172416789Y-103110643D01*
X172238253Y-102985631D01*
X172233749Y-102982477D01*
X172228765Y-102980153D01*
X172226472Y-102978829D01*
X172177479Y-102927447D01*
X172164043Y-102857733D01*
X172190429Y-102791822D01*
X172226472Y-102760591D01*
X172238002Y-102753934D01*
X172290048Y-102717491D01*
X172298424Y-102707012D01*
X172291356Y-102693566D01*
X171589812Y-101992022D01*
X171575868Y-101984408D01*
X171574035Y-101984539D01*
X171567420Y-101988790D01*
X170861923Y-102694287D01*
X170855493Y-102706062D01*
X170864789Y-102718077D01*
X170915998Y-102753934D01*
X170927528Y-102760591D01*
X170976521Y-102811973D01*
X170989958Y-102881687D01*
X170963571Y-102947598D01*
X170927528Y-102978829D01*
X170925235Y-102980153D01*
X170920251Y-102982477D01*
X170915747Y-102985631D01*
X170737211Y-103110643D01*
X170737208Y-103110645D01*
X170732700Y-103113802D01*
X170570802Y-103275700D01*
X170567645Y-103280208D01*
X170567643Y-103280211D01*
X170536662Y-103324457D01*
X170439477Y-103463251D01*
X170437154Y-103468233D01*
X170437151Y-103468238D01*
X170418737Y-103507728D01*
X170393637Y-103543573D01*
X169790022Y-104147188D01*
X169782408Y-104161132D01*
X169782539Y-104162965D01*
X169786790Y-104169580D01*
X170492288Y-104875078D01*
X170492358Y-104875116D01*
X170535184Y-104913433D01*
X170567639Y-104959784D01*
X170567643Y-104959789D01*
X170570802Y-104964300D01*
X170732700Y-105126198D01*
X170737208Y-105129355D01*
X170737211Y-105129357D01*
X170786768Y-105164057D01*
X170920251Y-105257523D01*
X170925233Y-105259846D01*
X170925238Y-105259849D01*
X171120714Y-105351000D01*
X171127757Y-105354284D01*
X171133065Y-105355706D01*
X171133067Y-105355707D01*
X171343598Y-105412119D01*
X171343600Y-105412119D01*
X171348913Y-105413543D01*
X171577000Y-105433498D01*
X171805087Y-105413543D01*
X171810400Y-105412119D01*
X171810402Y-105412119D01*
X172020933Y-105355707D01*
X172020935Y-105355706D01*
X172026243Y-105354284D01*
X172033286Y-105351000D01*
X172228762Y-105259849D01*
X172228767Y-105259846D01*
X172233749Y-105257523D01*
X172367232Y-105164057D01*
X172416789Y-105129357D01*
X172416792Y-105129355D01*
X172421300Y-105126198D01*
X172583198Y-104964300D01*
X172586357Y-104959789D01*
X172693181Y-104807229D01*
X172748638Y-104762901D01*
X172796394Y-104753500D01*
X173095274Y-104753500D01*
X173163395Y-104773502D01*
X173202707Y-104813665D01*
X173270987Y-104925088D01*
X173417250Y-105093938D01*
X173421230Y-105097242D01*
X173425981Y-105101187D01*
X173465616Y-105160090D01*
X173467113Y-105231071D01*
X173429997Y-105291593D01*
X173389725Y-105316112D01*
X173350289Y-105330896D01*
X173274295Y-105359385D01*
X173157739Y-105446739D01*
X173070385Y-105563295D01*
X173019255Y-105699684D01*
X173012500Y-105761866D01*
X173012500Y-105900500D01*
X172992498Y-105968621D01*
X172938842Y-106015114D01*
X172886500Y-106026500D01*
X170637394Y-106026500D01*
X170569273Y-106006498D01*
X170534181Y-105972771D01*
X170427357Y-105820211D01*
X170427355Y-105820208D01*
X170424198Y-105815700D01*
X170262300Y-105653802D01*
X170257792Y-105650645D01*
X170257789Y-105650643D01*
X170122780Y-105556109D01*
X170074749Y-105522477D01*
X170069765Y-105520153D01*
X170067472Y-105518829D01*
X170018479Y-105467447D01*
X170005043Y-105397733D01*
X170031429Y-105331822D01*
X170067472Y-105300591D01*
X170079002Y-105293934D01*
X170131048Y-105257491D01*
X170139424Y-105247012D01*
X170132356Y-105233566D01*
X169147885Y-104249095D01*
X169113859Y-104186783D01*
X169118924Y-104115968D01*
X169147885Y-104070905D01*
X170133077Y-103085713D01*
X170139507Y-103073938D01*
X170130211Y-103061923D01*
X170079006Y-103026069D01*
X170069511Y-103020586D01*
X169872053Y-102928510D01*
X169861761Y-102924764D01*
X169651312Y-102868375D01*
X169640519Y-102866472D01*
X169423475Y-102847483D01*
X169412523Y-102847483D01*
X169378102Y-102850494D01*
X169308497Y-102836504D01*
X169257506Y-102787104D01*
X169241316Y-102717978D01*
X169265069Y-102651073D01*
X169278027Y-102635877D01*
X169313905Y-102600000D01*
X169957635Y-101956270D01*
X169957648Y-101956256D01*
X170083555Y-101830349D01*
X170145867Y-101796323D01*
X170216682Y-101801388D01*
X170273518Y-101843935D01*
X170294357Y-101886833D01*
X170341764Y-102063761D01*
X170345510Y-102074053D01*
X170437586Y-102271511D01*
X170443069Y-102281006D01*
X170479509Y-102333048D01*
X170489988Y-102341424D01*
X170503434Y-102334356D01*
X172292077Y-100545713D01*
X172298507Y-100533938D01*
X172289211Y-100521923D01*
X172238006Y-100486069D01*
X172228511Y-100480586D01*
X172031053Y-100388510D01*
X172020761Y-100384764D01*
X171843833Y-100337357D01*
X171783210Y-100300405D01*
X171752189Y-100236545D01*
X171760617Y-100166050D01*
X171787349Y-100126555D01*
X172203499Y-99710405D01*
X172265811Y-99676379D01*
X172292594Y-99673500D01*
X173095274Y-99673500D01*
X173163395Y-99693502D01*
G37*
%TD.AperFunction*%
%TA.AperFunction,Conductor*%
G36*
X157744047Y-104287982D02*
G01*
X157790540Y-104341638D01*
X157800644Y-104411912D01*
X157771150Y-104476492D01*
X157765021Y-104483075D01*
X157280251Y-104967845D01*
X157217939Y-105001871D01*
X157147124Y-104996806D01*
X157090288Y-104954259D01*
X157071323Y-104917686D01*
X157056699Y-104872676D01*
X157028030Y-104784444D01*
X157010165Y-104753500D01*
X156959908Y-104666453D01*
X156932543Y-104619056D01*
X156833185Y-104508707D01*
X156805797Y-104478290D01*
X156775079Y-104414283D01*
X156783844Y-104343829D01*
X156829307Y-104289298D01*
X156899433Y-104267980D01*
X157675926Y-104267980D01*
X157744047Y-104287982D01*
G37*
%TD.AperFunction*%
%TA.AperFunction,Conductor*%
G36*
X160153518Y-92248000D02*
G01*
X160159020Y-92248000D01*
X160227141Y-92268002D01*
X160273634Y-92321658D01*
X160285020Y-92374000D01*
X160285020Y-93278638D01*
X160265018Y-93346759D01*
X160217204Y-93390399D01*
X160202680Y-93397960D01*
X160133023Y-93411673D01*
X160067007Y-93385549D01*
X160025595Y-93327882D01*
X160018500Y-93286197D01*
X160018500Y-92373743D01*
X160038502Y-92305622D01*
X160092158Y-92259129D01*
X160149436Y-92247840D01*
X160153518Y-92248000D01*
G37*
%TD.AperFunction*%
%TA.AperFunction,Conductor*%
G36*
X147300532Y-85347538D02*
G01*
X147345595Y-85376499D01*
X150219501Y-88250405D01*
X150253527Y-88312717D01*
X150248462Y-88383532D01*
X150205915Y-88440368D01*
X150139395Y-88465179D01*
X150130406Y-88465500D01*
X148814866Y-88465500D01*
X148752684Y-88472255D01*
X148616295Y-88523385D01*
X148609110Y-88528770D01*
X148609108Y-88528771D01*
X148538565Y-88581640D01*
X148472058Y-88606488D01*
X148402676Y-88591435D01*
X148387435Y-88581640D01*
X148316892Y-88528771D01*
X148316890Y-88528770D01*
X148309705Y-88523385D01*
X148173316Y-88472255D01*
X148111134Y-88465500D01*
X146614866Y-88465500D01*
X146552684Y-88472255D01*
X146416295Y-88523385D01*
X146299739Y-88610739D01*
X146212385Y-88727295D01*
X146161255Y-88863684D01*
X146154500Y-88925866D01*
X146154500Y-89419442D01*
X146134498Y-89487563D01*
X146080842Y-89534056D01*
X146054406Y-89542750D01*
X146052969Y-89543052D01*
X146050000Y-89554513D01*
X146050000Y-90370500D01*
X146029998Y-90438621D01*
X145976342Y-90485114D01*
X145924000Y-90496500D01*
X145560516Y-90496500D01*
X145558068Y-90496693D01*
X145558060Y-90496693D01*
X145530156Y-90498889D01*
X145530151Y-90498890D01*
X145523746Y-90499394D01*
X145424995Y-90528084D01*
X145374016Y-90542894D01*
X145374014Y-90542895D01*
X145366403Y-90545106D01*
X145359581Y-90549141D01*
X145359580Y-90549141D01*
X145338760Y-90561454D01*
X145274621Y-90579000D01*
X145002442Y-90579000D01*
X144988911Y-90582973D01*
X144987776Y-90590871D01*
X145024357Y-90716784D01*
X145030605Y-90731222D01*
X145036016Y-90740372D01*
X145053474Y-90809188D01*
X145036015Y-90868647D01*
X145026106Y-90885403D01*
X145023895Y-90893014D01*
X145023894Y-90893016D01*
X145012568Y-90932000D01*
X144980394Y-91042746D01*
X144979890Y-91049151D01*
X144979889Y-91049156D01*
X144977693Y-91077060D01*
X144977500Y-91079516D01*
X144977500Y-91490484D01*
X144977693Y-91492932D01*
X144977693Y-91492940D01*
X144979369Y-91514227D01*
X144980394Y-91527254D01*
X145000917Y-91597896D01*
X145021877Y-91670039D01*
X145026106Y-91684597D01*
X145030141Y-91691419D01*
X145030141Y-91691420D01*
X145084201Y-91782831D01*
X145109512Y-91825629D01*
X145225371Y-91941488D01*
X145232192Y-91945522D01*
X145278674Y-91973011D01*
X145366403Y-92024894D01*
X145374014Y-92027105D01*
X145374016Y-92027106D01*
X145410709Y-92037766D01*
X145523746Y-92070606D01*
X145530151Y-92071110D01*
X145530156Y-92071111D01*
X145558060Y-92073307D01*
X145558068Y-92073307D01*
X145560516Y-92073500D01*
X146031484Y-92073500D01*
X146033932Y-92073307D01*
X146033940Y-92073307D01*
X146061841Y-92071111D01*
X146061844Y-92071111D01*
X146068254Y-92070606D01*
X146074433Y-92068811D01*
X146080766Y-92067654D01*
X146081053Y-92069224D01*
X146144085Y-92069407D01*
X146203700Y-92107964D01*
X146212215Y-92120253D01*
X146212385Y-92120705D01*
X146299739Y-92237261D01*
X146416295Y-92324615D01*
X146552684Y-92375745D01*
X146614866Y-92382500D01*
X147290500Y-92382500D01*
X147358621Y-92402502D01*
X147405114Y-92456158D01*
X147416500Y-92508500D01*
X147416500Y-92581166D01*
X147396498Y-92649287D01*
X147342842Y-92695780D01*
X147274054Y-92706088D01*
X147167331Y-92692038D01*
X147167330Y-92692038D01*
X147163244Y-92691500D01*
X146936756Y-92691500D01*
X146932670Y-92692038D01*
X146932669Y-92692038D01*
X146822676Y-92706519D01*
X146822473Y-92704974D01*
X146777527Y-92704974D01*
X146777324Y-92706519D01*
X146667331Y-92692038D01*
X146667330Y-92692038D01*
X146663244Y-92691500D01*
X146436756Y-92691500D01*
X146432670Y-92692038D01*
X146432669Y-92692038D01*
X146322676Y-92706519D01*
X146322473Y-92704974D01*
X146277527Y-92704974D01*
X146277324Y-92706519D01*
X146167331Y-92692038D01*
X146167330Y-92692038D01*
X146163244Y-92691500D01*
X145936756Y-92691500D01*
X145932670Y-92692038D01*
X145932669Y-92692038D01*
X145822676Y-92706519D01*
X145822473Y-92704974D01*
X145777527Y-92704974D01*
X145777324Y-92706519D01*
X145667331Y-92692038D01*
X145667330Y-92692038D01*
X145663244Y-92691500D01*
X145436756Y-92691500D01*
X145432670Y-92692038D01*
X145432669Y-92692038D01*
X145322676Y-92706519D01*
X145322473Y-92704974D01*
X145277527Y-92704974D01*
X145277324Y-92706519D01*
X145167331Y-92692038D01*
X145167330Y-92692038D01*
X145163244Y-92691500D01*
X144936756Y-92691500D01*
X144932670Y-92692038D01*
X144932669Y-92692038D01*
X144822676Y-92706519D01*
X144822473Y-92704974D01*
X144777526Y-92704974D01*
X144777323Y-92706519D01*
X144756797Y-92703817D01*
X144699053Y-92696214D01*
X144634126Y-92667491D01*
X144595035Y-92608226D01*
X144589500Y-92571292D01*
X144589499Y-92262484D01*
X144589499Y-92260012D01*
X144586629Y-92223534D01*
X144541269Y-92067404D01*
X144537233Y-92060579D01*
X144537231Y-92060575D01*
X144509769Y-92014139D01*
X144492309Y-91945323D01*
X144509769Y-91885861D01*
X144537231Y-91839425D01*
X144537233Y-91839421D01*
X144541269Y-91832596D01*
X144555956Y-91782045D01*
X144584834Y-91682644D01*
X144586629Y-91676466D01*
X144587236Y-91668763D01*
X144589307Y-91642444D01*
X144589307Y-91642438D01*
X144589500Y-91639989D01*
X144589499Y-91240012D01*
X144586629Y-91203534D01*
X144551316Y-91081986D01*
X144543481Y-91055017D01*
X144543480Y-91055015D01*
X144541269Y-91047404D01*
X144491908Y-90963938D01*
X144462540Y-90914280D01*
X144458506Y-90907459D01*
X144431405Y-90880358D01*
X144397379Y-90818046D01*
X144394500Y-90791263D01*
X144394500Y-90053605D01*
X144989381Y-90053605D01*
X144989421Y-90067705D01*
X144996691Y-90071000D01*
X145523885Y-90071000D01*
X145539124Y-90066525D01*
X145540329Y-90065135D01*
X145542000Y-90057452D01*
X145542000Y-89556576D01*
X145537656Y-89541781D01*
X145527225Y-89539937D01*
X145517641Y-89541688D01*
X145374216Y-89583357D01*
X145359780Y-89589604D01*
X145232501Y-89664876D01*
X145220074Y-89674516D01*
X145115516Y-89779074D01*
X145105876Y-89791501D01*
X145030604Y-89918780D01*
X145024357Y-89933216D01*
X144989381Y-90053605D01*
X144394500Y-90053605D01*
X144394500Y-88201594D01*
X144414502Y-88133473D01*
X144431405Y-88112499D01*
X147167405Y-85376499D01*
X147229717Y-85342473D01*
X147300532Y-85347538D01*
G37*
%TD.AperFunction*%
%TA.AperFunction,Conductor*%
G36*
X153763204Y-89778210D02*
G01*
X153808267Y-89807171D01*
X153959078Y-89957982D01*
X153993104Y-90020294D01*
X153995983Y-90047077D01*
X153995983Y-91766000D01*
X153975981Y-91834121D01*
X153922325Y-91880614D01*
X153869983Y-91892000D01*
X153820031Y-91892000D01*
X153815102Y-91892193D01*
X153787244Y-91894386D01*
X153774641Y-91896688D01*
X153631216Y-91938357D01*
X153616778Y-91944605D01*
X153607628Y-91950016D01*
X153538812Y-91967474D01*
X153479353Y-91950015D01*
X153469423Y-91944143D01*
X153469424Y-91944143D01*
X153462597Y-91940106D01*
X153454986Y-91937895D01*
X153454984Y-91937894D01*
X153373248Y-91914148D01*
X153305254Y-91894394D01*
X153298849Y-91893890D01*
X153298844Y-91893889D01*
X153270940Y-91891693D01*
X153270932Y-91891693D01*
X153268484Y-91891500D01*
X152857516Y-91891500D01*
X152855068Y-91891693D01*
X152855060Y-91891693D01*
X152827156Y-91893889D01*
X152827151Y-91893890D01*
X152820746Y-91894394D01*
X152814570Y-91896188D01*
X152814566Y-91896189D01*
X152680436Y-91935157D01*
X152609440Y-91934954D01*
X152549824Y-91896400D01*
X152520516Y-91831735D01*
X152522863Y-91789615D01*
X152522535Y-91789574D01*
X152523126Y-91784896D01*
X152523241Y-91782831D01*
X152523528Y-91781713D01*
X152523529Y-91781709D01*
X152525500Y-91774030D01*
X152525500Y-91753776D01*
X152527051Y-91734065D01*
X152528980Y-91721886D01*
X152530220Y-91714057D01*
X152526059Y-91670038D01*
X152525500Y-91658181D01*
X152525500Y-90963938D01*
X152545502Y-90895817D01*
X152562405Y-90874843D01*
X153630077Y-89807171D01*
X153692389Y-89773145D01*
X153763204Y-89778210D01*
G37*
%TD.AperFunction*%
%TA.AperFunction,Conductor*%
G36*
X150980012Y-89011370D02*
G01*
X150986595Y-89017499D01*
X151221595Y-89252499D01*
X151255621Y-89314811D01*
X151258500Y-89341594D01*
X151258500Y-90370500D01*
X151238498Y-90438621D01*
X151184842Y-90485114D01*
X151132500Y-90496500D01*
X151002000Y-90496500D01*
X150933879Y-90476498D01*
X150887386Y-90422842D01*
X150876000Y-90370500D01*
X150876000Y-89556576D01*
X150871525Y-89541337D01*
X150869173Y-89539299D01*
X150811971Y-89510920D01*
X150775526Y-89449992D01*
X150771500Y-89418396D01*
X150771500Y-89106594D01*
X150791502Y-89038473D01*
X150845158Y-88991980D01*
X150915432Y-88981876D01*
X150980012Y-89011370D01*
G37*
%TD.AperFunction*%
%TA.AperFunction,Conductor*%
G36*
X148162012Y-75017370D02*
G01*
X148168595Y-75023499D01*
X154338501Y-81193405D01*
X154372527Y-81255717D01*
X154367462Y-81326532D01*
X154324915Y-81383368D01*
X154258395Y-81408179D01*
X154249406Y-81408500D01*
X153779807Y-81408500D01*
X153711686Y-81388498D01*
X153690712Y-81371595D01*
X153674629Y-81355512D01*
X153630096Y-81329175D01*
X153540420Y-81276141D01*
X153540419Y-81276141D01*
X153533597Y-81272106D01*
X153525986Y-81269895D01*
X153525984Y-81269894D01*
X153452144Y-81248442D01*
X153376254Y-81226394D01*
X153369849Y-81225890D01*
X153369844Y-81225889D01*
X153341940Y-81223693D01*
X153341932Y-81223693D01*
X153339484Y-81223500D01*
X152928516Y-81223500D01*
X152926068Y-81223693D01*
X152926060Y-81223693D01*
X152898156Y-81225889D01*
X152898151Y-81225890D01*
X152891746Y-81226394D01*
X152815856Y-81248442D01*
X152742016Y-81269894D01*
X152742014Y-81269895D01*
X152734403Y-81272106D01*
X152727576Y-81276143D01*
X152727577Y-81276143D01*
X152717647Y-81282015D01*
X152648830Y-81299474D01*
X152589372Y-81282016D01*
X152580222Y-81276605D01*
X152565784Y-81270357D01*
X152445395Y-81235381D01*
X152431295Y-81235421D01*
X152428000Y-81242691D01*
X152428000Y-81520621D01*
X152410454Y-81584760D01*
X152394106Y-81612403D01*
X152348394Y-81769746D01*
X152347890Y-81776151D01*
X152347889Y-81776156D01*
X152347191Y-81785031D01*
X152345500Y-81806516D01*
X152345500Y-81885975D01*
X152325498Y-81954096D01*
X152311350Y-81972228D01*
X152303414Y-81980679D01*
X152299595Y-81987625D01*
X152299593Y-81987628D01*
X152293652Y-81998434D01*
X152282801Y-82014953D01*
X152270386Y-82030959D01*
X152267241Y-82038228D01*
X152267238Y-82038232D01*
X152252826Y-82071537D01*
X152247609Y-82082187D01*
X152226305Y-82120940D01*
X152224334Y-82128615D01*
X152224334Y-82128616D01*
X152221267Y-82140562D01*
X152214863Y-82159266D01*
X152206819Y-82177855D01*
X152205580Y-82185680D01*
X152205579Y-82185682D01*
X152204941Y-82189711D01*
X152203565Y-82192613D01*
X152203366Y-82193299D01*
X152203255Y-82193267D01*
X152174528Y-82253864D01*
X152114260Y-82291391D01*
X152080492Y-82296000D01*
X151405576Y-82296000D01*
X151390781Y-82300344D01*
X151388937Y-82310775D01*
X151390688Y-82320359D01*
X151432357Y-82463784D01*
X151438604Y-82478220D01*
X151513876Y-82605499D01*
X151523516Y-82617926D01*
X151628074Y-82722484D01*
X151640503Y-82732126D01*
X151650463Y-82738016D01*
X151698915Y-82789909D01*
X151710474Y-82853986D01*
X151712053Y-82854072D01*
X151711869Y-82857469D01*
X151711500Y-82860866D01*
X151711500Y-84357134D01*
X151718255Y-84419316D01*
X151769385Y-84555705D01*
X151774770Y-84562890D01*
X151774771Y-84562892D01*
X151827640Y-84633435D01*
X151852488Y-84699942D01*
X151837435Y-84769324D01*
X151827640Y-84784565D01*
X151774771Y-84855108D01*
X151769385Y-84862295D01*
X151718255Y-84998684D01*
X151711500Y-85060866D01*
X151711500Y-86557134D01*
X151711869Y-86560531D01*
X151712053Y-86563928D01*
X151710483Y-86564013D01*
X151699078Y-86627765D01*
X151650463Y-86679984D01*
X151640503Y-86685874D01*
X151628074Y-86695516D01*
X151523516Y-86800074D01*
X151513876Y-86812501D01*
X151438604Y-86939780D01*
X151432357Y-86954216D01*
X151390688Y-87097641D01*
X151389232Y-87105609D01*
X151392052Y-87119031D01*
X151403513Y-87122000D01*
X152079449Y-87122000D01*
X152147570Y-87142002D01*
X152194063Y-87195658D01*
X152200734Y-87214525D01*
X152201526Y-87220797D01*
X152204444Y-87228167D01*
X152217804Y-87261912D01*
X152221649Y-87273142D01*
X152233982Y-87315593D01*
X152238015Y-87322412D01*
X152238017Y-87322417D01*
X152244293Y-87333028D01*
X152252988Y-87350776D01*
X152260448Y-87369617D01*
X152265110Y-87376033D01*
X152265110Y-87376034D01*
X152286436Y-87405387D01*
X152292952Y-87415307D01*
X152315458Y-87453362D01*
X152319435Y-87457340D01*
X152345007Y-87522472D01*
X152345500Y-87533611D01*
X152345500Y-87611484D01*
X152345693Y-87613932D01*
X152345693Y-87613940D01*
X152347184Y-87632876D01*
X152348394Y-87648254D01*
X152394106Y-87805597D01*
X152398141Y-87812419D01*
X152398141Y-87812420D01*
X152410454Y-87833240D01*
X152428000Y-87897379D01*
X152428000Y-88169558D01*
X152431973Y-88183089D01*
X152439871Y-88184224D01*
X152565784Y-88147643D01*
X152580222Y-88141395D01*
X152589372Y-88135984D01*
X152658188Y-88118526D01*
X152717647Y-88135985D01*
X152725531Y-88140647D01*
X152734403Y-88145894D01*
X152742014Y-88148105D01*
X152742016Y-88148106D01*
X152782399Y-88159838D01*
X152891746Y-88191606D01*
X152898151Y-88192110D01*
X152898156Y-88192111D01*
X152926060Y-88194307D01*
X152926068Y-88194307D01*
X152928516Y-88194500D01*
X153146749Y-88194500D01*
X153214870Y-88214502D01*
X153261363Y-88268158D01*
X153271467Y-88338432D01*
X153241973Y-88403012D01*
X153235844Y-88409595D01*
X152720358Y-88925081D01*
X152658046Y-88959107D01*
X152587231Y-88954042D01*
X152530395Y-88911495D01*
X152510771Y-88870555D01*
X152510474Y-88868203D01*
X152494194Y-88827086D01*
X152490359Y-88815885D01*
X152478018Y-88773406D01*
X152473985Y-88766587D01*
X152473983Y-88766582D01*
X152467707Y-88755971D01*
X152459010Y-88738221D01*
X152451552Y-88719383D01*
X152425571Y-88683623D01*
X152419053Y-88673701D01*
X152400578Y-88642460D01*
X152400574Y-88642455D01*
X152396542Y-88635637D01*
X152382218Y-88621313D01*
X152369376Y-88606278D01*
X152368708Y-88605358D01*
X152357472Y-88589893D01*
X152323406Y-88561711D01*
X152314627Y-88553722D01*
X151956905Y-88196000D01*
X151922879Y-88133688D01*
X151920000Y-88106905D01*
X151920000Y-87648115D01*
X151915525Y-87632876D01*
X151914135Y-87631671D01*
X151906452Y-87630000D01*
X151443095Y-87630000D01*
X151374974Y-87609998D01*
X151354000Y-87593095D01*
X147990405Y-84229500D01*
X147956379Y-84167188D01*
X147953500Y-84140405D01*
X147953500Y-81771609D01*
X151389232Y-81771609D01*
X151392052Y-81785031D01*
X151403513Y-81788000D01*
X151901885Y-81788000D01*
X151917124Y-81783525D01*
X151918329Y-81782135D01*
X151920000Y-81774452D01*
X151920000Y-81248442D01*
X151916027Y-81234911D01*
X151908129Y-81233776D01*
X151782216Y-81270357D01*
X151767780Y-81276604D01*
X151640501Y-81351876D01*
X151628074Y-81361516D01*
X151523516Y-81466074D01*
X151513876Y-81478501D01*
X151438604Y-81605780D01*
X151432357Y-81620216D01*
X151390688Y-81763641D01*
X151389232Y-81771609D01*
X147953500Y-81771609D01*
X147953500Y-75112594D01*
X147973502Y-75044473D01*
X148027158Y-74997980D01*
X148097432Y-74987876D01*
X148162012Y-75017370D01*
G37*
%TD.AperFunction*%
%TD*%
M02*
