%FSLAX45Y45*%
G04 Gerber Fmt 4.5, Leading zero omitted, Abs format (unit mm)*
G04 Created by KiCad (PCBNEW (6.0.5)) date 2023-03-02 23:20:41*
%MOMM*%
%LPD*%
G01*
G04 APERTURE LIST*
%TA.AperFunction,Profile*%
%ADD10C,0.200000*%
%TD*%
%ADD11C,0.200000*%
%ADD12C,0.040000*%
%ADD13C,0.080000*%
%ADD14C,0.095000*%
%ADD15C,0.100000*%
G04 APERTURE END LIST*
D10*
X12537614Y-12387386D02*
G75*
G03*
X12537614Y-12387386I-160000J0D01*
G01*
X12537614Y-7932614D02*
G75*
G03*
X12537614Y-7932614I-160000J0D01*
G01*
X16992386Y-7932614D02*
G75*
G03*
X16992386Y-7932614I-160000J0D01*
G01*
X18005000Y-10160000D02*
G75*
G03*
X18005000Y-10160000I-3400000J0D01*
G01*
X16992386Y-12387386D02*
G75*
G03*
X16992386Y-12387386I-160000J0D01*
G01*
D11*
D12*
X11892600Y-10013000D02*
X11932600Y-10053000D01*
X11932600Y-10013000D02*
X11892600Y-10053000D01*
X11930700Y-10305100D02*
X11970700Y-10345100D01*
X11970700Y-10305100D02*
X11930700Y-10345100D01*
X11930700Y-10495600D02*
X11970700Y-10535600D01*
X11970700Y-10495600D02*
X11930700Y-10535600D01*
X12045000Y-10952800D02*
X12085000Y-10992800D01*
X12085000Y-10952800D02*
X12045000Y-10992800D01*
X12146600Y-11727500D02*
X12186600Y-11767500D01*
X12186600Y-11727500D02*
X12146600Y-11767500D01*
X12159300Y-10292400D02*
X12199300Y-10332400D01*
X12199300Y-10292400D02*
X12159300Y-10332400D01*
X12260900Y-11168700D02*
X12300900Y-11208700D01*
X12300900Y-11168700D02*
X12260900Y-11208700D01*
X12273600Y-8806500D02*
X12313600Y-8846500D01*
X12313600Y-8806500D02*
X12273600Y-8846500D01*
X12362500Y-10495600D02*
X12402500Y-10535600D01*
X12402500Y-10495600D02*
X12362500Y-10535600D01*
X12629200Y-10419400D02*
X12669200Y-10459400D01*
X12669200Y-10419400D02*
X12629200Y-10459400D01*
X12781600Y-10254300D02*
X12821600Y-10294300D01*
X12821600Y-10254300D02*
X12781600Y-10294300D01*
X12832400Y-10965500D02*
X12872400Y-11005500D01*
X12872400Y-10965500D02*
X12832400Y-11005500D01*
X12857800Y-11168700D02*
X12897800Y-11208700D01*
X12897800Y-11168700D02*
X12857800Y-11208700D01*
X13124500Y-12883200D02*
X13164500Y-12923200D01*
X13164500Y-12883200D02*
X13124500Y-12923200D01*
X13162600Y-11410000D02*
X13202600Y-11450000D01*
X13202600Y-11410000D02*
X13162600Y-11450000D01*
X13162600Y-12172000D02*
X13202600Y-12212000D01*
X13202600Y-12172000D02*
X13162600Y-12212000D01*
X13188000Y-9670100D02*
X13228000Y-9710100D01*
X13228000Y-9670100D02*
X13188000Y-9710100D01*
X13188000Y-10394000D02*
X13228000Y-10434000D01*
X13228000Y-10394000D02*
X13188000Y-10434000D01*
X13200700Y-9479600D02*
X13240700Y-9519600D01*
X13240700Y-9479600D02*
X13200700Y-9519600D01*
X13213400Y-9974900D02*
X13253400Y-10014900D01*
X13253400Y-9974900D02*
X13213400Y-10014900D01*
X13315000Y-7917500D02*
X13355000Y-7957500D01*
X13355000Y-7917500D02*
X13315000Y-7957500D01*
X13340400Y-11143300D02*
X13380400Y-11183300D01*
X13380400Y-11143300D02*
X13340400Y-11183300D01*
X13632500Y-9543100D02*
X13672500Y-9583100D01*
X13672500Y-9543100D02*
X13632500Y-9583100D01*
X13632500Y-9898700D02*
X13672500Y-9938700D01*
X13672500Y-9898700D02*
X13632500Y-9938700D01*
X13784900Y-8895400D02*
X13824900Y-8935400D01*
X13824900Y-8895400D02*
X13784900Y-8935400D01*
X13784900Y-9111300D02*
X13824900Y-9151300D01*
X13824900Y-9111300D02*
X13784900Y-9151300D01*
X13797600Y-9403400D02*
X13837600Y-9443400D01*
X13837600Y-9403400D02*
X13797600Y-9443400D01*
X13823000Y-12832400D02*
X13863000Y-12872400D01*
X13863000Y-12832400D02*
X13823000Y-12872400D01*
X14064300Y-10089200D02*
X14104300Y-10129200D01*
X14104300Y-10089200D02*
X14064300Y-10129200D01*
X14064300Y-11143300D02*
X14104300Y-11183300D01*
X14104300Y-11143300D02*
X14064300Y-11183300D01*
X14140500Y-9225600D02*
X14180500Y-9265600D01*
X14180500Y-9225600D02*
X14140500Y-9265600D01*
X14191300Y-11397300D02*
X14231300Y-11437300D01*
X14231300Y-11397300D02*
X14191300Y-11437300D01*
X14191300Y-11803700D02*
X14231300Y-11843700D01*
X14231300Y-11803700D02*
X14191300Y-11843700D01*
X14204000Y-12286300D02*
X14244000Y-12326300D01*
X14244000Y-12286300D02*
X14204000Y-12326300D01*
X14381800Y-11105200D02*
X14421800Y-11145200D01*
X14421800Y-11105200D02*
X14381800Y-11145200D01*
X14470700Y-8819200D02*
X14510700Y-8859200D01*
X14510700Y-8819200D02*
X14470700Y-8859200D01*
X14470700Y-9212900D02*
X14510700Y-9252900D01*
X14510700Y-9212900D02*
X14470700Y-9252900D01*
X14470700Y-12832400D02*
X14510700Y-12872400D01*
X14510700Y-12832400D02*
X14470700Y-12872400D01*
X14597700Y-11410000D02*
X14637700Y-11450000D01*
X14637700Y-11410000D02*
X14597700Y-11450000D01*
X14673900Y-11067100D02*
X14713900Y-11107100D01*
X14713900Y-11067100D02*
X14673900Y-11107100D01*
X14675183Y-11168277D02*
X14715183Y-11208277D01*
X14715183Y-11168277D02*
X14675183Y-11208277D01*
X14699300Y-8577900D02*
X14739300Y-8617900D01*
X14739300Y-8577900D02*
X14699300Y-8617900D01*
X14826300Y-8374700D02*
X14866300Y-8414700D01*
X14866300Y-8374700D02*
X14826300Y-8414700D01*
X14839000Y-7625400D02*
X14879000Y-7665400D01*
X14879000Y-7625400D02*
X14839000Y-7665400D01*
X14889800Y-9593900D02*
X14929800Y-9633900D01*
X14929800Y-9593900D02*
X14889800Y-9633900D01*
X14889800Y-10698800D02*
X14929800Y-10738800D01*
X14929800Y-10698800D02*
X14889800Y-10738800D01*
X14889800Y-11308400D02*
X14929800Y-11348400D01*
X14929800Y-11308400D02*
X14889800Y-11348400D01*
X14966000Y-12794300D02*
X15006000Y-12834300D01*
X15006000Y-12794300D02*
X14966000Y-12834300D01*
X15067600Y-8196900D02*
X15107600Y-8236900D01*
X15107600Y-8196900D02*
X15067600Y-8236900D01*
X15080300Y-8641400D02*
X15120300Y-8681400D01*
X15120300Y-8641400D02*
X15080300Y-8681400D01*
X15080300Y-8920800D02*
X15120300Y-8960800D01*
X15120300Y-8920800D02*
X15080300Y-8960800D01*
X15105700Y-7879400D02*
X15145700Y-7919400D01*
X15145700Y-7879400D02*
X15105700Y-7919400D01*
X15105700Y-10241600D02*
X15145700Y-10281600D01*
X15145700Y-10241600D02*
X15105700Y-10281600D01*
X15110570Y-10732030D02*
X15150570Y-10772030D01*
X15150570Y-10732030D02*
X15110570Y-10772030D01*
X15131100Y-11981500D02*
X15171100Y-12021500D01*
X15171100Y-11981500D02*
X15131100Y-12021500D01*
X15169200Y-7612700D02*
X15209200Y-7652700D01*
X15209200Y-7612700D02*
X15169200Y-7652700D01*
X15207300Y-7269800D02*
X15247300Y-7309800D01*
X15247300Y-7269800D02*
X15207300Y-7309800D01*
X15347000Y-11130600D02*
X15387000Y-11170600D01*
X15387000Y-11130600D02*
X15347000Y-11170600D01*
X15351917Y-8964677D02*
X15391917Y-9004677D01*
X15391917Y-8964677D02*
X15351917Y-9004677D01*
X15499400Y-10495600D02*
X15539400Y-10535600D01*
X15539400Y-10495600D02*
X15499400Y-10535600D01*
X15515399Y-9225600D02*
X15555399Y-9265600D01*
X15555399Y-9225600D02*
X15515399Y-9265600D01*
X15524800Y-10813100D02*
X15564800Y-10853100D01*
X15564800Y-10813100D02*
X15524800Y-10853100D01*
X15599350Y-10495600D02*
X15639350Y-10535600D01*
X15639350Y-10495600D02*
X15599350Y-10535600D01*
X15615350Y-9225600D02*
X15655350Y-9265600D01*
X15655350Y-9225600D02*
X15615350Y-9265600D01*
X15639100Y-7879400D02*
X15679100Y-7919400D01*
X15679100Y-7879400D02*
X15639100Y-7919400D01*
X15715300Y-9225600D02*
X15755300Y-9265600D01*
X15755300Y-9225600D02*
X15715300Y-9265600D01*
X15728000Y-10419400D02*
X15768000Y-10459400D01*
X15768000Y-10419400D02*
X15728000Y-10459400D01*
X15740700Y-10698800D02*
X15780700Y-10738800D01*
X15780700Y-10698800D02*
X15740700Y-10738800D01*
X15766100Y-7993700D02*
X15806100Y-8033700D01*
X15806100Y-7993700D02*
X15766100Y-8033700D01*
X15766100Y-8095300D02*
X15806100Y-8135300D01*
X15806100Y-8095300D02*
X15766100Y-8135300D01*
X15846050Y-9191898D02*
X15886050Y-9231898D01*
X15886050Y-9191898D02*
X15846050Y-9231898D01*
X15984500Y-10851000D02*
X16024500Y-10891000D01*
X16024500Y-10851000D02*
X15984500Y-10891000D01*
X15999402Y-9238300D02*
X16039402Y-9278300D01*
X16039402Y-9238300D02*
X15999402Y-9278300D01*
X16007400Y-10457500D02*
X16047400Y-10497500D01*
X16047400Y-10457500D02*
X16007400Y-10497500D01*
X16058200Y-12819700D02*
X16098200Y-12859700D01*
X16098200Y-12819700D02*
X16058200Y-12859700D01*
X16147100Y-11702100D02*
X16187100Y-11742100D01*
X16187100Y-11702100D02*
X16147100Y-11742100D01*
X16172500Y-10673400D02*
X16212500Y-10713400D01*
X16212500Y-10673400D02*
X16172500Y-10713400D01*
X16187700Y-10851000D02*
X16227700Y-10891000D01*
X16227700Y-10851000D02*
X16187700Y-10891000D01*
X16197900Y-7549200D02*
X16237900Y-7589200D01*
X16237900Y-7549200D02*
X16197900Y-7589200D01*
X16375700Y-10457500D02*
X16415700Y-10497500D01*
X16415700Y-10457500D02*
X16375700Y-10497500D01*
X16451900Y-10813100D02*
X16491900Y-10853100D01*
X16491900Y-10813100D02*
X16451900Y-10853100D01*
X16451900Y-11371900D02*
X16491900Y-11411900D01*
X16491900Y-11371900D02*
X16451900Y-11411900D01*
X16451900Y-11676700D02*
X16491900Y-11716700D01*
X16491900Y-11676700D02*
X16451900Y-11716700D01*
X16540800Y-8781100D02*
X16580800Y-8821100D01*
X16580800Y-8781100D02*
X16540800Y-8821100D01*
X16667800Y-10597200D02*
X16707800Y-10637200D01*
X16707800Y-10597200D02*
X16667800Y-10637200D01*
X16756700Y-11371900D02*
X16796700Y-11411900D01*
X16796700Y-11371900D02*
X16756700Y-11411900D01*
X17213900Y-8514400D02*
X17253900Y-8554400D01*
X17253900Y-8514400D02*
X17213900Y-8554400D01*
X17226600Y-9492300D02*
X17266600Y-9532300D01*
X17266600Y-9492300D02*
X17226600Y-9532300D01*
X17239300Y-10533700D02*
X17279300Y-10573700D01*
X17279300Y-10533700D02*
X17239300Y-10573700D01*
X17277400Y-10013000D02*
X17317400Y-10053000D01*
X17317400Y-10013000D02*
X17277400Y-10053000D01*
X17277400Y-10267000D02*
X17317400Y-10307000D01*
X17317400Y-10267000D02*
X17277400Y-10307000D01*
X17290100Y-11638600D02*
X17330100Y-11678600D01*
X17330100Y-11638600D02*
X17290100Y-11678600D01*
D13*
X12092300Y-9908000D02*
G75*
G03*
X12092300Y-9908000I-40000J0D01*
G01*
X12092300Y-10158000D02*
G75*
G03*
X12092300Y-10158000I-40000J0D01*
G01*
X12313500Y-9648100D02*
G75*
G03*
X12313500Y-9648100I-40000J0D01*
G01*
X12313500Y-9898100D02*
G75*
G03*
X12313500Y-9898100I-40000J0D01*
G01*
X14016000Y-7607300D02*
G75*
G03*
X14016000Y-7607300I-40000J0D01*
G01*
X14139000Y-12496800D02*
G75*
G03*
X14139000Y-12496800I-40000J0D01*
G01*
X14266000Y-7607300D02*
G75*
G03*
X14266000Y-7607300I-40000J0D01*
G01*
X14389000Y-12496800D02*
G75*
G03*
X14389000Y-12496800I-40000J0D01*
G01*
X14398600Y-12712700D02*
G75*
G03*
X14398600Y-12712700I-40000J0D01*
G01*
X14648600Y-12712700D02*
G75*
G03*
X14648600Y-12712700I-40000J0D01*
G01*
X16981800Y-10416000D02*
G75*
G03*
X16981800Y-10416000I-40000J0D01*
G01*
X16981800Y-10666000D02*
G75*
G03*
X16981800Y-10666000I-40000J0D01*
G01*
X17197700Y-10162000D02*
G75*
G03*
X17197700Y-10162000I-40000J0D01*
G01*
X17197700Y-10412000D02*
G75*
G03*
X17197700Y-10412000I-40000J0D01*
G01*
D14*
X13028500Y-9474800D02*
X13028500Y-9569800D01*
X12981000Y-9522300D02*
X13076000Y-9522300D01*
X13028500Y-9724800D02*
X13028500Y-9819800D01*
X12981000Y-9772300D02*
X13076000Y-9772300D01*
X13028500Y-9974800D02*
X13028500Y-10069800D01*
X12981000Y-10022300D02*
X13076000Y-10022300D01*
X13028500Y-10224800D02*
X13028500Y-10319800D01*
X12981000Y-10272300D02*
X13076000Y-10272300D01*
X13028500Y-10474800D02*
X13028500Y-10569800D01*
X12981000Y-10522300D02*
X13076000Y-10522300D01*
X13028500Y-10724800D02*
X13028500Y-10819800D01*
X12981000Y-10772300D02*
X13076000Y-10772300D01*
D15*
X11808256Y-9689356D02*
X11808256Y-9618644D01*
X11737544Y-9618644D01*
X11737544Y-9689356D01*
X11808256Y-9689356D01*
X11808256Y-9943356D02*
X11808256Y-9872644D01*
X11737544Y-9872644D01*
X11737544Y-9943356D01*
X11808256Y-9943356D01*
X11808256Y-10197356D02*
X11808256Y-10126644D01*
X11737544Y-10126644D01*
X11737544Y-10197356D01*
X11808256Y-10197356D01*
X11808256Y-10451356D02*
X11808256Y-10380644D01*
X11737544Y-10380644D01*
X11737544Y-10451356D01*
X11808256Y-10451356D01*
X11808256Y-10705356D02*
X11808256Y-10634644D01*
X11737544Y-10634644D01*
X11737544Y-10705356D01*
X11808256Y-10705356D01*
X14134356Y-13027456D02*
X14134356Y-12956744D01*
X14063644Y-12956744D01*
X14063644Y-13027456D01*
X14134356Y-13027456D01*
X14259356Y-7363256D02*
X14259356Y-7292544D01*
X14188644Y-7292544D01*
X14188644Y-7363256D01*
X14259356Y-7363256D01*
X14388356Y-13027456D02*
X14388356Y-12956744D01*
X14317644Y-12956744D01*
X14317644Y-13027456D01*
X14388356Y-13027456D01*
X14513356Y-7363256D02*
X14513356Y-7292544D01*
X14442644Y-7292544D01*
X14442644Y-7363256D01*
X14513356Y-7363256D01*
X14642356Y-13027456D02*
X14642356Y-12956744D01*
X14571644Y-12956744D01*
X14571644Y-13027456D01*
X14642356Y-13027456D01*
X14767356Y-7363256D02*
X14767356Y-7292544D01*
X14696644Y-7292544D01*
X14696644Y-7363256D01*
X14767356Y-7363256D01*
X14896356Y-13027456D02*
X14896356Y-12956744D01*
X14825644Y-12956744D01*
X14825644Y-13027456D01*
X14896356Y-13027456D01*
X15021356Y-7363256D02*
X15021356Y-7292544D01*
X14950644Y-7292544D01*
X14950644Y-7363256D01*
X15021356Y-7363256D01*
X15150356Y-13027456D02*
X15150356Y-12956744D01*
X15079644Y-12956744D01*
X15079644Y-13027456D01*
X15150356Y-13027456D01*
X15780456Y-9497856D02*
X15780456Y-9427144D01*
X15709744Y-9427144D01*
X15709744Y-9497856D01*
X15780456Y-9497856D01*
X15780456Y-9751856D02*
X15780456Y-9681144D01*
X15709744Y-9681144D01*
X15709744Y-9751856D01*
X15780456Y-9751856D01*
X15780456Y-10005856D02*
X15780456Y-9935144D01*
X15709744Y-9935144D01*
X15709744Y-10005856D01*
X15780456Y-10005856D01*
X15780456Y-10259856D02*
X15780456Y-10189144D01*
X15709744Y-10189144D01*
X15709744Y-10259856D01*
X15780456Y-10259856D01*
X16116056Y-9496856D02*
X16116056Y-9426144D01*
X16045344Y-9426144D01*
X16045344Y-9496856D01*
X16116056Y-9496856D01*
X16116056Y-9750856D02*
X16116056Y-9680144D01*
X16045344Y-9680144D01*
X16045344Y-9750856D01*
X16116056Y-9750856D01*
X16116056Y-10004856D02*
X16116056Y-9934144D01*
X16045344Y-9934144D01*
X16045344Y-10004856D01*
X16116056Y-10004856D01*
X16116056Y-10258856D02*
X16116056Y-10188144D01*
X16045344Y-10188144D01*
X16045344Y-10258856D01*
X16116056Y-10258856D01*
X17472456Y-9685356D02*
X17472456Y-9614644D01*
X17401744Y-9614644D01*
X17401744Y-9685356D01*
X17472456Y-9685356D01*
X17472456Y-9939356D02*
X17472456Y-9868644D01*
X17401744Y-9868644D01*
X17401744Y-9939356D01*
X17472456Y-9939356D01*
X17472456Y-10193356D02*
X17472456Y-10122644D01*
X17401744Y-10122644D01*
X17401744Y-10193356D01*
X17472456Y-10193356D01*
X17472456Y-10447356D02*
X17472456Y-10376644D01*
X17401744Y-10376644D01*
X17401744Y-10447356D01*
X17472456Y-10447356D01*
X17472456Y-10701356D02*
X17472456Y-10630644D01*
X17401744Y-10630644D01*
X17401744Y-10701356D01*
X17472456Y-10701356D01*
D11*
X11452619Y-13880476D02*
X11452619Y-13680476D01*
X11500238Y-13680476D01*
X11528809Y-13690000D01*
X11547857Y-13709048D01*
X11557381Y-13728095D01*
X11566905Y-13766190D01*
X11566905Y-13794762D01*
X11557381Y-13832857D01*
X11547857Y-13851905D01*
X11528809Y-13870952D01*
X11500238Y-13880476D01*
X11452619Y-13880476D01*
X11652619Y-13880476D02*
X11652619Y-13747143D01*
X11652619Y-13785238D02*
X11662143Y-13766190D01*
X11671667Y-13756667D01*
X11690714Y-13747143D01*
X11709762Y-13747143D01*
X11776428Y-13880476D02*
X11776428Y-13747143D01*
X11776428Y-13680476D02*
X11766905Y-13690000D01*
X11776428Y-13699524D01*
X11785952Y-13690000D01*
X11776428Y-13680476D01*
X11776428Y-13699524D01*
X11900238Y-13880476D02*
X11881190Y-13870952D01*
X11871667Y-13851905D01*
X11871667Y-13680476D01*
X12005000Y-13880476D02*
X11985952Y-13870952D01*
X11976428Y-13851905D01*
X11976428Y-13680476D01*
X12233571Y-13880476D02*
X12233571Y-13680476D01*
X12300238Y-13823333D01*
X12366905Y-13680476D01*
X12366905Y-13880476D01*
X12547857Y-13880476D02*
X12547857Y-13775714D01*
X12538333Y-13756667D01*
X12519286Y-13747143D01*
X12481190Y-13747143D01*
X12462143Y-13756667D01*
X12547857Y-13870952D02*
X12528809Y-13880476D01*
X12481190Y-13880476D01*
X12462143Y-13870952D01*
X12452619Y-13851905D01*
X12452619Y-13832857D01*
X12462143Y-13813809D01*
X12481190Y-13804286D01*
X12528809Y-13804286D01*
X12547857Y-13794762D01*
X12643095Y-13747143D02*
X12643095Y-13947143D01*
X12643095Y-13756667D02*
X12662143Y-13747143D01*
X12700238Y-13747143D01*
X12719286Y-13756667D01*
X12728809Y-13766190D01*
X12738333Y-13785238D01*
X12738333Y-13842381D01*
X12728809Y-13861428D01*
X12719286Y-13870952D01*
X12700238Y-13880476D01*
X12662143Y-13880476D01*
X12643095Y-13870952D01*
X12824048Y-13861428D02*
X12833571Y-13870952D01*
X12824048Y-13880476D01*
X12814524Y-13870952D01*
X12824048Y-13861428D01*
X12824048Y-13880476D01*
X12824048Y-13756667D02*
X12833571Y-13766190D01*
X12824048Y-13775714D01*
X12814524Y-13766190D01*
X12824048Y-13756667D01*
X12824048Y-13775714D01*
D12*
X11155000Y-14190000D02*
X11195000Y-14230000D01*
X11195000Y-14190000D02*
X11155000Y-14230000D01*
D11*
X11490714Y-14100476D02*
X11509762Y-14100476D01*
X11528809Y-14110000D01*
X11538333Y-14119524D01*
X11547857Y-14138571D01*
X11557381Y-14176667D01*
X11557381Y-14224286D01*
X11547857Y-14262381D01*
X11538333Y-14281428D01*
X11528809Y-14290952D01*
X11509762Y-14300476D01*
X11490714Y-14300476D01*
X11471667Y-14290952D01*
X11462143Y-14281428D01*
X11452619Y-14262381D01*
X11443095Y-14224286D01*
X11443095Y-14176667D01*
X11452619Y-14138571D01*
X11462143Y-14119524D01*
X11471667Y-14110000D01*
X11490714Y-14100476D01*
X11643095Y-14281428D02*
X11652619Y-14290952D01*
X11643095Y-14300476D01*
X11633571Y-14290952D01*
X11643095Y-14281428D01*
X11643095Y-14300476D01*
X11824048Y-14167143D02*
X11824048Y-14300476D01*
X11776428Y-14090952D02*
X11728809Y-14233809D01*
X11852619Y-14233809D01*
X11966905Y-14100476D02*
X11985952Y-14100476D01*
X12005000Y-14110000D01*
X12014524Y-14119524D01*
X12024048Y-14138571D01*
X12033571Y-14176667D01*
X12033571Y-14224286D01*
X12024048Y-14262381D01*
X12014524Y-14281428D01*
X12005000Y-14290952D01*
X11985952Y-14300476D01*
X11966905Y-14300476D01*
X11947857Y-14290952D01*
X11938333Y-14281428D01*
X11928809Y-14262381D01*
X11919286Y-14224286D01*
X11919286Y-14176667D01*
X11928809Y-14138571D01*
X11938333Y-14119524D01*
X11947857Y-14110000D01*
X11966905Y-14100476D01*
X12157381Y-14100476D02*
X12176428Y-14100476D01*
X12195476Y-14110000D01*
X12205000Y-14119524D01*
X12214524Y-14138571D01*
X12224048Y-14176667D01*
X12224048Y-14224286D01*
X12214524Y-14262381D01*
X12205000Y-14281428D01*
X12195476Y-14290952D01*
X12176428Y-14300476D01*
X12157381Y-14300476D01*
X12138333Y-14290952D01*
X12128809Y-14281428D01*
X12119286Y-14262381D01*
X12109762Y-14224286D01*
X12109762Y-14176667D01*
X12119286Y-14138571D01*
X12128809Y-14119524D01*
X12138333Y-14110000D01*
X12157381Y-14100476D01*
X12309762Y-14300476D02*
X12309762Y-14167143D01*
X12309762Y-14186190D02*
X12319286Y-14176667D01*
X12338333Y-14167143D01*
X12366905Y-14167143D01*
X12385952Y-14176667D01*
X12395476Y-14195714D01*
X12395476Y-14300476D01*
X12395476Y-14195714D02*
X12405000Y-14176667D01*
X12424048Y-14167143D01*
X12452619Y-14167143D01*
X12471667Y-14176667D01*
X12481190Y-14195714D01*
X12481190Y-14300476D01*
X12576428Y-14300476D02*
X12576428Y-14167143D01*
X12576428Y-14186190D02*
X12585952Y-14176667D01*
X12605000Y-14167143D01*
X12633571Y-14167143D01*
X12652619Y-14176667D01*
X12662143Y-14195714D01*
X12662143Y-14300476D01*
X12662143Y-14195714D02*
X12671667Y-14176667D01*
X12690714Y-14167143D01*
X12719286Y-14167143D01*
X12738333Y-14176667D01*
X12747857Y-14195714D01*
X12747857Y-14300476D01*
X13138333Y-14090952D02*
X12966905Y-14348095D01*
X13395476Y-14100476D02*
X13414524Y-14100476D01*
X13433571Y-14110000D01*
X13443095Y-14119524D01*
X13452619Y-14138571D01*
X13462143Y-14176667D01*
X13462143Y-14224286D01*
X13452619Y-14262381D01*
X13443095Y-14281428D01*
X13433571Y-14290952D01*
X13414524Y-14300476D01*
X13395476Y-14300476D01*
X13376428Y-14290952D01*
X13366905Y-14281428D01*
X13357381Y-14262381D01*
X13347857Y-14224286D01*
X13347857Y-14176667D01*
X13357381Y-14138571D01*
X13366905Y-14119524D01*
X13376428Y-14110000D01*
X13395476Y-14100476D01*
X13547857Y-14281428D02*
X13557381Y-14290952D01*
X13547857Y-14300476D01*
X13538333Y-14290952D01*
X13547857Y-14281428D01*
X13547857Y-14300476D01*
X13681190Y-14100476D02*
X13700238Y-14100476D01*
X13719286Y-14110000D01*
X13728809Y-14119524D01*
X13738333Y-14138571D01*
X13747857Y-14176667D01*
X13747857Y-14224286D01*
X13738333Y-14262381D01*
X13728809Y-14281428D01*
X13719286Y-14290952D01*
X13700238Y-14300476D01*
X13681190Y-14300476D01*
X13662143Y-14290952D01*
X13652619Y-14281428D01*
X13643095Y-14262381D01*
X13633571Y-14224286D01*
X13633571Y-14176667D01*
X13643095Y-14138571D01*
X13652619Y-14119524D01*
X13662143Y-14110000D01*
X13681190Y-14100476D01*
X13938333Y-14300476D02*
X13824048Y-14300476D01*
X13881190Y-14300476D02*
X13881190Y-14100476D01*
X13862143Y-14129048D01*
X13843095Y-14148095D01*
X13824048Y-14157619D01*
X14119286Y-14100476D02*
X14024048Y-14100476D01*
X14014524Y-14195714D01*
X14024048Y-14186190D01*
X14043095Y-14176667D01*
X14090714Y-14176667D01*
X14109762Y-14186190D01*
X14119286Y-14195714D01*
X14128809Y-14214762D01*
X14128809Y-14262381D01*
X14119286Y-14281428D01*
X14109762Y-14290952D01*
X14090714Y-14300476D01*
X14043095Y-14300476D01*
X14024048Y-14290952D01*
X14014524Y-14281428D01*
X14195476Y-14100476D02*
X14328809Y-14100476D01*
X14243095Y-14300476D01*
X14395476Y-14100476D02*
X14395476Y-14138571D01*
X14471667Y-14100476D02*
X14471667Y-14138571D01*
X14766905Y-14376667D02*
X14757381Y-14367143D01*
X14738333Y-14338571D01*
X14728809Y-14319524D01*
X14719286Y-14290952D01*
X14709762Y-14243333D01*
X14709762Y-14205238D01*
X14719286Y-14157619D01*
X14728809Y-14129048D01*
X14738333Y-14110000D01*
X14757381Y-14081428D01*
X14766905Y-14071905D01*
X14852619Y-14300476D02*
X14890714Y-14300476D01*
X14909762Y-14290952D01*
X14919286Y-14281428D01*
X14938333Y-14252857D01*
X14947857Y-14214762D01*
X14947857Y-14138571D01*
X14938333Y-14119524D01*
X14928809Y-14110000D01*
X14909762Y-14100476D01*
X14871667Y-14100476D01*
X14852619Y-14110000D01*
X14843095Y-14119524D01*
X14833571Y-14138571D01*
X14833571Y-14186190D01*
X14843095Y-14205238D01*
X14852619Y-14214762D01*
X14871667Y-14224286D01*
X14909762Y-14224286D01*
X14928809Y-14214762D01*
X14938333Y-14205238D01*
X14947857Y-14186190D01*
X15024048Y-14119524D02*
X15033571Y-14110000D01*
X15052619Y-14100476D01*
X15100238Y-14100476D01*
X15119286Y-14110000D01*
X15128809Y-14119524D01*
X15138333Y-14138571D01*
X15138333Y-14157619D01*
X15128809Y-14186190D01*
X15014524Y-14300476D01*
X15138333Y-14300476D01*
X15376428Y-14300476D02*
X15376428Y-14100476D01*
X15462143Y-14300476D02*
X15462143Y-14195714D01*
X15452619Y-14176667D01*
X15433571Y-14167143D01*
X15405000Y-14167143D01*
X15385952Y-14176667D01*
X15376428Y-14186190D01*
X15585952Y-14300476D02*
X15566905Y-14290952D01*
X15557381Y-14281428D01*
X15547857Y-14262381D01*
X15547857Y-14205238D01*
X15557381Y-14186190D01*
X15566905Y-14176667D01*
X15585952Y-14167143D01*
X15614524Y-14167143D01*
X15633571Y-14176667D01*
X15643095Y-14186190D01*
X15652619Y-14205238D01*
X15652619Y-14262381D01*
X15643095Y-14281428D01*
X15633571Y-14290952D01*
X15614524Y-14300476D01*
X15585952Y-14300476D01*
X15766905Y-14300476D02*
X15747857Y-14290952D01*
X15738333Y-14271905D01*
X15738333Y-14100476D01*
X15919286Y-14290952D02*
X15900238Y-14300476D01*
X15862143Y-14300476D01*
X15843095Y-14290952D01*
X15833571Y-14271905D01*
X15833571Y-14195714D01*
X15843095Y-14176667D01*
X15862143Y-14167143D01*
X15900238Y-14167143D01*
X15919286Y-14176667D01*
X15928809Y-14195714D01*
X15928809Y-14214762D01*
X15833571Y-14233809D01*
X16005000Y-14290952D02*
X16024048Y-14300476D01*
X16062143Y-14300476D01*
X16081190Y-14290952D01*
X16090714Y-14271905D01*
X16090714Y-14262381D01*
X16081190Y-14243333D01*
X16062143Y-14233809D01*
X16033571Y-14233809D01*
X16014524Y-14224286D01*
X16005000Y-14205238D01*
X16005000Y-14195714D01*
X16014524Y-14176667D01*
X16033571Y-14167143D01*
X16062143Y-14167143D01*
X16081190Y-14176667D01*
X16157381Y-14376667D02*
X16166905Y-14367143D01*
X16185952Y-14338571D01*
X16195476Y-14319524D01*
X16205000Y-14290952D01*
X16214524Y-14243333D01*
X16214524Y-14205238D01*
X16205000Y-14157619D01*
X16195476Y-14129048D01*
X16185952Y-14110000D01*
X16166905Y-14081428D01*
X16157381Y-14071905D01*
D13*
X11195000Y-14474000D02*
G75*
G03*
X11195000Y-14474000I-40000J0D01*
G01*
D11*
X11490714Y-14364476D02*
X11509762Y-14364476D01*
X11528809Y-14374000D01*
X11538333Y-14383524D01*
X11547857Y-14402571D01*
X11557381Y-14440667D01*
X11557381Y-14488286D01*
X11547857Y-14526381D01*
X11538333Y-14545428D01*
X11528809Y-14554952D01*
X11509762Y-14564476D01*
X11490714Y-14564476D01*
X11471667Y-14554952D01*
X11462143Y-14545428D01*
X11452619Y-14526381D01*
X11443095Y-14488286D01*
X11443095Y-14440667D01*
X11452619Y-14402571D01*
X11462143Y-14383524D01*
X11471667Y-14374000D01*
X11490714Y-14364476D01*
X11643095Y-14545428D02*
X11652619Y-14554952D01*
X11643095Y-14564476D01*
X11633571Y-14554952D01*
X11643095Y-14545428D01*
X11643095Y-14564476D01*
X11766905Y-14450190D02*
X11747857Y-14440667D01*
X11738333Y-14431143D01*
X11728809Y-14412095D01*
X11728809Y-14402571D01*
X11738333Y-14383524D01*
X11747857Y-14374000D01*
X11766905Y-14364476D01*
X11805000Y-14364476D01*
X11824048Y-14374000D01*
X11833571Y-14383524D01*
X11843095Y-14402571D01*
X11843095Y-14412095D01*
X11833571Y-14431143D01*
X11824048Y-14440667D01*
X11805000Y-14450190D01*
X11766905Y-14450190D01*
X11747857Y-14459714D01*
X11738333Y-14469238D01*
X11728809Y-14488286D01*
X11728809Y-14526381D01*
X11738333Y-14545428D01*
X11747857Y-14554952D01*
X11766905Y-14564476D01*
X11805000Y-14564476D01*
X11824048Y-14554952D01*
X11833571Y-14545428D01*
X11843095Y-14526381D01*
X11843095Y-14488286D01*
X11833571Y-14469238D01*
X11824048Y-14459714D01*
X11805000Y-14450190D01*
X11966905Y-14364476D02*
X11985952Y-14364476D01*
X12005000Y-14374000D01*
X12014524Y-14383524D01*
X12024048Y-14402571D01*
X12033571Y-14440667D01*
X12033571Y-14488286D01*
X12024048Y-14526381D01*
X12014524Y-14545428D01*
X12005000Y-14554952D01*
X11985952Y-14564476D01*
X11966905Y-14564476D01*
X11947857Y-14554952D01*
X11938333Y-14545428D01*
X11928809Y-14526381D01*
X11919286Y-14488286D01*
X11919286Y-14440667D01*
X11928809Y-14402571D01*
X11938333Y-14383524D01*
X11947857Y-14374000D01*
X11966905Y-14364476D01*
X12157381Y-14364476D02*
X12176428Y-14364476D01*
X12195476Y-14374000D01*
X12205000Y-14383524D01*
X12214524Y-14402571D01*
X12224048Y-14440667D01*
X12224048Y-14488286D01*
X12214524Y-14526381D01*
X12205000Y-14545428D01*
X12195476Y-14554952D01*
X12176428Y-14564476D01*
X12157381Y-14564476D01*
X12138333Y-14554952D01*
X12128809Y-14545428D01*
X12119286Y-14526381D01*
X12109762Y-14488286D01*
X12109762Y-14440667D01*
X12119286Y-14402571D01*
X12128809Y-14383524D01*
X12138333Y-14374000D01*
X12157381Y-14364476D01*
X12309762Y-14564476D02*
X12309762Y-14431143D01*
X12309762Y-14450190D02*
X12319286Y-14440667D01*
X12338333Y-14431143D01*
X12366905Y-14431143D01*
X12385952Y-14440667D01*
X12395476Y-14459714D01*
X12395476Y-14564476D01*
X12395476Y-14459714D02*
X12405000Y-14440667D01*
X12424048Y-14431143D01*
X12452619Y-14431143D01*
X12471667Y-14440667D01*
X12481190Y-14459714D01*
X12481190Y-14564476D01*
X12576428Y-14564476D02*
X12576428Y-14431143D01*
X12576428Y-14450190D02*
X12585952Y-14440667D01*
X12605000Y-14431143D01*
X12633571Y-14431143D01*
X12652619Y-14440667D01*
X12662143Y-14459714D01*
X12662143Y-14564476D01*
X12662143Y-14459714D02*
X12671667Y-14440667D01*
X12690714Y-14431143D01*
X12719286Y-14431143D01*
X12738333Y-14440667D01*
X12747857Y-14459714D01*
X12747857Y-14564476D01*
X13138333Y-14354952D02*
X12966905Y-14612095D01*
X13395476Y-14364476D02*
X13414524Y-14364476D01*
X13433571Y-14374000D01*
X13443095Y-14383524D01*
X13452619Y-14402571D01*
X13462143Y-14440667D01*
X13462143Y-14488286D01*
X13452619Y-14526381D01*
X13443095Y-14545428D01*
X13433571Y-14554952D01*
X13414524Y-14564476D01*
X13395476Y-14564476D01*
X13376428Y-14554952D01*
X13366905Y-14545428D01*
X13357381Y-14526381D01*
X13347857Y-14488286D01*
X13347857Y-14440667D01*
X13357381Y-14402571D01*
X13366905Y-14383524D01*
X13376428Y-14374000D01*
X13395476Y-14364476D01*
X13547857Y-14545428D02*
X13557381Y-14554952D01*
X13547857Y-14564476D01*
X13538333Y-14554952D01*
X13547857Y-14545428D01*
X13547857Y-14564476D01*
X13681190Y-14364476D02*
X13700238Y-14364476D01*
X13719286Y-14374000D01*
X13728809Y-14383524D01*
X13738333Y-14402571D01*
X13747857Y-14440667D01*
X13747857Y-14488286D01*
X13738333Y-14526381D01*
X13728809Y-14545428D01*
X13719286Y-14554952D01*
X13700238Y-14564476D01*
X13681190Y-14564476D01*
X13662143Y-14554952D01*
X13652619Y-14545428D01*
X13643095Y-14526381D01*
X13633571Y-14488286D01*
X13633571Y-14440667D01*
X13643095Y-14402571D01*
X13652619Y-14383524D01*
X13662143Y-14374000D01*
X13681190Y-14364476D01*
X13814524Y-14364476D02*
X13938333Y-14364476D01*
X13871667Y-14440667D01*
X13900238Y-14440667D01*
X13919286Y-14450190D01*
X13928809Y-14459714D01*
X13938333Y-14478762D01*
X13938333Y-14526381D01*
X13928809Y-14545428D01*
X13919286Y-14554952D01*
X13900238Y-14564476D01*
X13843095Y-14564476D01*
X13824048Y-14554952D01*
X13814524Y-14545428D01*
X14128809Y-14564476D02*
X14014524Y-14564476D01*
X14071667Y-14564476D02*
X14071667Y-14364476D01*
X14052619Y-14393048D01*
X14033571Y-14412095D01*
X14014524Y-14421619D01*
X14309762Y-14364476D02*
X14214524Y-14364476D01*
X14205000Y-14459714D01*
X14214524Y-14450190D01*
X14233571Y-14440667D01*
X14281190Y-14440667D01*
X14300238Y-14450190D01*
X14309762Y-14459714D01*
X14319286Y-14478762D01*
X14319286Y-14526381D01*
X14309762Y-14545428D01*
X14300238Y-14554952D01*
X14281190Y-14564476D01*
X14233571Y-14564476D01*
X14214524Y-14554952D01*
X14205000Y-14545428D01*
X14395476Y-14364476D02*
X14395476Y-14402571D01*
X14471667Y-14364476D02*
X14471667Y-14402571D01*
X14766905Y-14640667D02*
X14757381Y-14631143D01*
X14738333Y-14602571D01*
X14728809Y-14583524D01*
X14719286Y-14554952D01*
X14709762Y-14507333D01*
X14709762Y-14469238D01*
X14719286Y-14421619D01*
X14728809Y-14393048D01*
X14738333Y-14374000D01*
X14757381Y-14345428D01*
X14766905Y-14335905D01*
X14947857Y-14564476D02*
X14833571Y-14564476D01*
X14890714Y-14564476D02*
X14890714Y-14364476D01*
X14871667Y-14393048D01*
X14852619Y-14412095D01*
X14833571Y-14421619D01*
X15119286Y-14431143D02*
X15119286Y-14564476D01*
X15071667Y-14354952D02*
X15024048Y-14497809D01*
X15147857Y-14497809D01*
X15376428Y-14564476D02*
X15376428Y-14364476D01*
X15462143Y-14564476D02*
X15462143Y-14459714D01*
X15452619Y-14440667D01*
X15433571Y-14431143D01*
X15405000Y-14431143D01*
X15385952Y-14440667D01*
X15376428Y-14450190D01*
X15585952Y-14564476D02*
X15566905Y-14554952D01*
X15557381Y-14545428D01*
X15547857Y-14526381D01*
X15547857Y-14469238D01*
X15557381Y-14450190D01*
X15566905Y-14440667D01*
X15585952Y-14431143D01*
X15614524Y-14431143D01*
X15633571Y-14440667D01*
X15643095Y-14450190D01*
X15652619Y-14469238D01*
X15652619Y-14526381D01*
X15643095Y-14545428D01*
X15633571Y-14554952D01*
X15614524Y-14564476D01*
X15585952Y-14564476D01*
X15766905Y-14564476D02*
X15747857Y-14554952D01*
X15738333Y-14535905D01*
X15738333Y-14364476D01*
X15919286Y-14554952D02*
X15900238Y-14564476D01*
X15862143Y-14564476D01*
X15843095Y-14554952D01*
X15833571Y-14535905D01*
X15833571Y-14459714D01*
X15843095Y-14440667D01*
X15862143Y-14431143D01*
X15900238Y-14431143D01*
X15919286Y-14440667D01*
X15928809Y-14459714D01*
X15928809Y-14478762D01*
X15833571Y-14497809D01*
X16005000Y-14554952D02*
X16024048Y-14564476D01*
X16062143Y-14564476D01*
X16081190Y-14554952D01*
X16090714Y-14535905D01*
X16090714Y-14526381D01*
X16081190Y-14507333D01*
X16062143Y-14497809D01*
X16033571Y-14497809D01*
X16014524Y-14488286D01*
X16005000Y-14469238D01*
X16005000Y-14459714D01*
X16014524Y-14440667D01*
X16033571Y-14431143D01*
X16062143Y-14431143D01*
X16081190Y-14440667D01*
X16157381Y-14640667D02*
X16166905Y-14631143D01*
X16185952Y-14602571D01*
X16195476Y-14583524D01*
X16205000Y-14554952D01*
X16214524Y-14507333D01*
X16214524Y-14469238D01*
X16205000Y-14421619D01*
X16195476Y-14393048D01*
X16185952Y-14374000D01*
X16166905Y-14345428D01*
X16157381Y-14335905D01*
D14*
X11147500Y-14690500D02*
X11147500Y-14785500D01*
X11100000Y-14738000D02*
X11195000Y-14738000D01*
D11*
X11490714Y-14628476D02*
X11509762Y-14628476D01*
X11528809Y-14638000D01*
X11538333Y-14647524D01*
X11547857Y-14666571D01*
X11557381Y-14704667D01*
X11557381Y-14752286D01*
X11547857Y-14790381D01*
X11538333Y-14809428D01*
X11528809Y-14818952D01*
X11509762Y-14828476D01*
X11490714Y-14828476D01*
X11471667Y-14818952D01*
X11462143Y-14809428D01*
X11452619Y-14790381D01*
X11443095Y-14752286D01*
X11443095Y-14704667D01*
X11452619Y-14666571D01*
X11462143Y-14647524D01*
X11471667Y-14638000D01*
X11490714Y-14628476D01*
X11643095Y-14809428D02*
X11652619Y-14818952D01*
X11643095Y-14828476D01*
X11633571Y-14818952D01*
X11643095Y-14809428D01*
X11643095Y-14828476D01*
X11747857Y-14828476D02*
X11785952Y-14828476D01*
X11805000Y-14818952D01*
X11814524Y-14809428D01*
X11833571Y-14780857D01*
X11843095Y-14742762D01*
X11843095Y-14666571D01*
X11833571Y-14647524D01*
X11824048Y-14638000D01*
X11805000Y-14628476D01*
X11766905Y-14628476D01*
X11747857Y-14638000D01*
X11738333Y-14647524D01*
X11728809Y-14666571D01*
X11728809Y-14714190D01*
X11738333Y-14733238D01*
X11747857Y-14742762D01*
X11766905Y-14752286D01*
X11805000Y-14752286D01*
X11824048Y-14742762D01*
X11833571Y-14733238D01*
X11843095Y-14714190D01*
X12024048Y-14628476D02*
X11928809Y-14628476D01*
X11919286Y-14723714D01*
X11928809Y-14714190D01*
X11947857Y-14704667D01*
X11995476Y-14704667D01*
X12014524Y-14714190D01*
X12024048Y-14723714D01*
X12033571Y-14742762D01*
X12033571Y-14790381D01*
X12024048Y-14809428D01*
X12014524Y-14818952D01*
X11995476Y-14828476D01*
X11947857Y-14828476D01*
X11928809Y-14818952D01*
X11919286Y-14809428D01*
X12157381Y-14628476D02*
X12176428Y-14628476D01*
X12195476Y-14638000D01*
X12205000Y-14647524D01*
X12214524Y-14666571D01*
X12224048Y-14704667D01*
X12224048Y-14752286D01*
X12214524Y-14790381D01*
X12205000Y-14809428D01*
X12195476Y-14818952D01*
X12176428Y-14828476D01*
X12157381Y-14828476D01*
X12138333Y-14818952D01*
X12128809Y-14809428D01*
X12119286Y-14790381D01*
X12109762Y-14752286D01*
X12109762Y-14704667D01*
X12119286Y-14666571D01*
X12128809Y-14647524D01*
X12138333Y-14638000D01*
X12157381Y-14628476D01*
X12309762Y-14828476D02*
X12309762Y-14695143D01*
X12309762Y-14714190D02*
X12319286Y-14704667D01*
X12338333Y-14695143D01*
X12366905Y-14695143D01*
X12385952Y-14704667D01*
X12395476Y-14723714D01*
X12395476Y-14828476D01*
X12395476Y-14723714D02*
X12405000Y-14704667D01*
X12424048Y-14695143D01*
X12452619Y-14695143D01*
X12471667Y-14704667D01*
X12481190Y-14723714D01*
X12481190Y-14828476D01*
X12576428Y-14828476D02*
X12576428Y-14695143D01*
X12576428Y-14714190D02*
X12585952Y-14704667D01*
X12605000Y-14695143D01*
X12633571Y-14695143D01*
X12652619Y-14704667D01*
X12662143Y-14723714D01*
X12662143Y-14828476D01*
X12662143Y-14723714D02*
X12671667Y-14704667D01*
X12690714Y-14695143D01*
X12719286Y-14695143D01*
X12738333Y-14704667D01*
X12747857Y-14723714D01*
X12747857Y-14828476D01*
X13138333Y-14618952D02*
X12966905Y-14876095D01*
X13395476Y-14628476D02*
X13414524Y-14628476D01*
X13433571Y-14638000D01*
X13443095Y-14647524D01*
X13452619Y-14666571D01*
X13462143Y-14704667D01*
X13462143Y-14752286D01*
X13452619Y-14790381D01*
X13443095Y-14809428D01*
X13433571Y-14818952D01*
X13414524Y-14828476D01*
X13395476Y-14828476D01*
X13376428Y-14818952D01*
X13366905Y-14809428D01*
X13357381Y-14790381D01*
X13347857Y-14752286D01*
X13347857Y-14704667D01*
X13357381Y-14666571D01*
X13366905Y-14647524D01*
X13376428Y-14638000D01*
X13395476Y-14628476D01*
X13547857Y-14809428D02*
X13557381Y-14818952D01*
X13547857Y-14828476D01*
X13538333Y-14818952D01*
X13547857Y-14809428D01*
X13547857Y-14828476D01*
X13681190Y-14628476D02*
X13700238Y-14628476D01*
X13719286Y-14638000D01*
X13728809Y-14647524D01*
X13738333Y-14666571D01*
X13747857Y-14704667D01*
X13747857Y-14752286D01*
X13738333Y-14790381D01*
X13728809Y-14809428D01*
X13719286Y-14818952D01*
X13700238Y-14828476D01*
X13681190Y-14828476D01*
X13662143Y-14818952D01*
X13652619Y-14809428D01*
X13643095Y-14790381D01*
X13633571Y-14752286D01*
X13633571Y-14704667D01*
X13643095Y-14666571D01*
X13652619Y-14647524D01*
X13662143Y-14638000D01*
X13681190Y-14628476D01*
X13814524Y-14628476D02*
X13938333Y-14628476D01*
X13871667Y-14704667D01*
X13900238Y-14704667D01*
X13919286Y-14714190D01*
X13928809Y-14723714D01*
X13938333Y-14742762D01*
X13938333Y-14790381D01*
X13928809Y-14809428D01*
X13919286Y-14818952D01*
X13900238Y-14828476D01*
X13843095Y-14828476D01*
X13824048Y-14818952D01*
X13814524Y-14809428D01*
X14005000Y-14628476D02*
X14138333Y-14628476D01*
X14052619Y-14828476D01*
X14300238Y-14695143D02*
X14300238Y-14828476D01*
X14252619Y-14618952D02*
X14205000Y-14761809D01*
X14328809Y-14761809D01*
X14395476Y-14628476D02*
X14395476Y-14666571D01*
X14471667Y-14628476D02*
X14471667Y-14666571D01*
X14766905Y-14904667D02*
X14757381Y-14895143D01*
X14738333Y-14866571D01*
X14728809Y-14847524D01*
X14719286Y-14818952D01*
X14709762Y-14771333D01*
X14709762Y-14733238D01*
X14719286Y-14685619D01*
X14728809Y-14657048D01*
X14738333Y-14638000D01*
X14757381Y-14609428D01*
X14766905Y-14599905D01*
X14928809Y-14628476D02*
X14890714Y-14628476D01*
X14871667Y-14638000D01*
X14862143Y-14647524D01*
X14843095Y-14676095D01*
X14833571Y-14714190D01*
X14833571Y-14790381D01*
X14843095Y-14809428D01*
X14852619Y-14818952D01*
X14871667Y-14828476D01*
X14909762Y-14828476D01*
X14928809Y-14818952D01*
X14938333Y-14809428D01*
X14947857Y-14790381D01*
X14947857Y-14742762D01*
X14938333Y-14723714D01*
X14928809Y-14714190D01*
X14909762Y-14704667D01*
X14871667Y-14704667D01*
X14852619Y-14714190D01*
X14843095Y-14723714D01*
X14833571Y-14742762D01*
X15185952Y-14828476D02*
X15185952Y-14628476D01*
X15271667Y-14828476D02*
X15271667Y-14723714D01*
X15262143Y-14704667D01*
X15243095Y-14695143D01*
X15214524Y-14695143D01*
X15195476Y-14704667D01*
X15185952Y-14714190D01*
X15395476Y-14828476D02*
X15376428Y-14818952D01*
X15366905Y-14809428D01*
X15357381Y-14790381D01*
X15357381Y-14733238D01*
X15366905Y-14714190D01*
X15376428Y-14704667D01*
X15395476Y-14695143D01*
X15424048Y-14695143D01*
X15443095Y-14704667D01*
X15452619Y-14714190D01*
X15462143Y-14733238D01*
X15462143Y-14790381D01*
X15452619Y-14809428D01*
X15443095Y-14818952D01*
X15424048Y-14828476D01*
X15395476Y-14828476D01*
X15576428Y-14828476D02*
X15557381Y-14818952D01*
X15547857Y-14799905D01*
X15547857Y-14628476D01*
X15728809Y-14818952D02*
X15709762Y-14828476D01*
X15671667Y-14828476D01*
X15652619Y-14818952D01*
X15643095Y-14799905D01*
X15643095Y-14723714D01*
X15652619Y-14704667D01*
X15671667Y-14695143D01*
X15709762Y-14695143D01*
X15728809Y-14704667D01*
X15738333Y-14723714D01*
X15738333Y-14742762D01*
X15643095Y-14761809D01*
X15814524Y-14818952D02*
X15833571Y-14828476D01*
X15871667Y-14828476D01*
X15890714Y-14818952D01*
X15900238Y-14799905D01*
X15900238Y-14790381D01*
X15890714Y-14771333D01*
X15871667Y-14761809D01*
X15843095Y-14761809D01*
X15824048Y-14752286D01*
X15814524Y-14733238D01*
X15814524Y-14723714D01*
X15824048Y-14704667D01*
X15843095Y-14695143D01*
X15871667Y-14695143D01*
X15890714Y-14704667D01*
X15966905Y-14904667D02*
X15976428Y-14895143D01*
X15995476Y-14866571D01*
X16005000Y-14847524D01*
X16014524Y-14818952D01*
X16024048Y-14771333D01*
X16024048Y-14733238D01*
X16014524Y-14685619D01*
X16005000Y-14657048D01*
X15995476Y-14638000D01*
X15976428Y-14609428D01*
X15966905Y-14599905D01*
D15*
X11180356Y-15037356D02*
X11180356Y-14966644D01*
X11109644Y-14966644D01*
X11109644Y-15037356D01*
X11180356Y-15037356D01*
D11*
X11557381Y-15092476D02*
X11443095Y-15092476D01*
X11500238Y-15092476D02*
X11500238Y-14892476D01*
X11481190Y-14921048D01*
X11462143Y-14940095D01*
X11443095Y-14949619D01*
X11643095Y-15073428D02*
X11652619Y-15082952D01*
X11643095Y-15092476D01*
X11633571Y-15082952D01*
X11643095Y-15073428D01*
X11643095Y-15092476D01*
X11776428Y-14892476D02*
X11795476Y-14892476D01*
X11814524Y-14902000D01*
X11824048Y-14911524D01*
X11833571Y-14930571D01*
X11843095Y-14968667D01*
X11843095Y-15016286D01*
X11833571Y-15054381D01*
X11824048Y-15073428D01*
X11814524Y-15082952D01*
X11795476Y-15092476D01*
X11776428Y-15092476D01*
X11757381Y-15082952D01*
X11747857Y-15073428D01*
X11738333Y-15054381D01*
X11728809Y-15016286D01*
X11728809Y-14968667D01*
X11738333Y-14930571D01*
X11747857Y-14911524D01*
X11757381Y-14902000D01*
X11776428Y-14892476D01*
X11966905Y-14892476D02*
X11985952Y-14892476D01*
X12005000Y-14902000D01*
X12014524Y-14911524D01*
X12024048Y-14930571D01*
X12033571Y-14968667D01*
X12033571Y-15016286D01*
X12024048Y-15054381D01*
X12014524Y-15073428D01*
X12005000Y-15082952D01*
X11985952Y-15092476D01*
X11966905Y-15092476D01*
X11947857Y-15082952D01*
X11938333Y-15073428D01*
X11928809Y-15054381D01*
X11919286Y-15016286D01*
X11919286Y-14968667D01*
X11928809Y-14930571D01*
X11938333Y-14911524D01*
X11947857Y-14902000D01*
X11966905Y-14892476D01*
X12157381Y-14892476D02*
X12176428Y-14892476D01*
X12195476Y-14902000D01*
X12205000Y-14911524D01*
X12214524Y-14930571D01*
X12224048Y-14968667D01*
X12224048Y-15016286D01*
X12214524Y-15054381D01*
X12205000Y-15073428D01*
X12195476Y-15082952D01*
X12176428Y-15092476D01*
X12157381Y-15092476D01*
X12138333Y-15082952D01*
X12128809Y-15073428D01*
X12119286Y-15054381D01*
X12109762Y-15016286D01*
X12109762Y-14968667D01*
X12119286Y-14930571D01*
X12128809Y-14911524D01*
X12138333Y-14902000D01*
X12157381Y-14892476D01*
X12309762Y-15092476D02*
X12309762Y-14959143D01*
X12309762Y-14978190D02*
X12319286Y-14968667D01*
X12338333Y-14959143D01*
X12366905Y-14959143D01*
X12385952Y-14968667D01*
X12395476Y-14987714D01*
X12395476Y-15092476D01*
X12395476Y-14987714D02*
X12405000Y-14968667D01*
X12424048Y-14959143D01*
X12452619Y-14959143D01*
X12471667Y-14968667D01*
X12481190Y-14987714D01*
X12481190Y-15092476D01*
X12576428Y-15092476D02*
X12576428Y-14959143D01*
X12576428Y-14978190D02*
X12585952Y-14968667D01*
X12605000Y-14959143D01*
X12633571Y-14959143D01*
X12652619Y-14968667D01*
X12662143Y-14987714D01*
X12662143Y-15092476D01*
X12662143Y-14987714D02*
X12671667Y-14968667D01*
X12690714Y-14959143D01*
X12719286Y-14959143D01*
X12738333Y-14968667D01*
X12747857Y-14987714D01*
X12747857Y-15092476D01*
X13138333Y-14882952D02*
X12966905Y-15140095D01*
X13395476Y-14892476D02*
X13414524Y-14892476D01*
X13433571Y-14902000D01*
X13443095Y-14911524D01*
X13452619Y-14930571D01*
X13462143Y-14968667D01*
X13462143Y-15016286D01*
X13452619Y-15054381D01*
X13443095Y-15073428D01*
X13433571Y-15082952D01*
X13414524Y-15092476D01*
X13395476Y-15092476D01*
X13376428Y-15082952D01*
X13366905Y-15073428D01*
X13357381Y-15054381D01*
X13347857Y-15016286D01*
X13347857Y-14968667D01*
X13357381Y-14930571D01*
X13366905Y-14911524D01*
X13376428Y-14902000D01*
X13395476Y-14892476D01*
X13547857Y-15073428D02*
X13557381Y-15082952D01*
X13547857Y-15092476D01*
X13538333Y-15082952D01*
X13547857Y-15073428D01*
X13547857Y-15092476D01*
X13681190Y-14892476D02*
X13700238Y-14892476D01*
X13719286Y-14902000D01*
X13728809Y-14911524D01*
X13738333Y-14930571D01*
X13747857Y-14968667D01*
X13747857Y-15016286D01*
X13738333Y-15054381D01*
X13728809Y-15073428D01*
X13719286Y-15082952D01*
X13700238Y-15092476D01*
X13681190Y-15092476D01*
X13662143Y-15082952D01*
X13652619Y-15073428D01*
X13643095Y-15054381D01*
X13633571Y-15016286D01*
X13633571Y-14968667D01*
X13643095Y-14930571D01*
X13652619Y-14911524D01*
X13662143Y-14902000D01*
X13681190Y-14892476D01*
X13814524Y-14892476D02*
X13938333Y-14892476D01*
X13871667Y-14968667D01*
X13900238Y-14968667D01*
X13919286Y-14978190D01*
X13928809Y-14987714D01*
X13938333Y-15006762D01*
X13938333Y-15054381D01*
X13928809Y-15073428D01*
X13919286Y-15082952D01*
X13900238Y-15092476D01*
X13843095Y-15092476D01*
X13824048Y-15082952D01*
X13814524Y-15073428D01*
X14033571Y-15092476D02*
X14071667Y-15092476D01*
X14090714Y-15082952D01*
X14100238Y-15073428D01*
X14119286Y-15044857D01*
X14128809Y-15006762D01*
X14128809Y-14930571D01*
X14119286Y-14911524D01*
X14109762Y-14902000D01*
X14090714Y-14892476D01*
X14052619Y-14892476D01*
X14033571Y-14902000D01*
X14024048Y-14911524D01*
X14014524Y-14930571D01*
X14014524Y-14978190D01*
X14024048Y-14997238D01*
X14033571Y-15006762D01*
X14052619Y-15016286D01*
X14090714Y-15016286D01*
X14109762Y-15006762D01*
X14119286Y-14997238D01*
X14128809Y-14978190D01*
X14300238Y-14959143D02*
X14300238Y-15092476D01*
X14252619Y-14882952D02*
X14205000Y-15025809D01*
X14328809Y-15025809D01*
X14395476Y-14892476D02*
X14395476Y-14930571D01*
X14471667Y-14892476D02*
X14471667Y-14930571D01*
X14766905Y-15168667D02*
X14757381Y-15159143D01*
X14738333Y-15130571D01*
X14728809Y-15111524D01*
X14719286Y-15082952D01*
X14709762Y-15035333D01*
X14709762Y-14997238D01*
X14719286Y-14949619D01*
X14728809Y-14921048D01*
X14738333Y-14902000D01*
X14757381Y-14873428D01*
X14766905Y-14863905D01*
X14833571Y-14911524D02*
X14843095Y-14902000D01*
X14862143Y-14892476D01*
X14909762Y-14892476D01*
X14928809Y-14902000D01*
X14938333Y-14911524D01*
X14947857Y-14930571D01*
X14947857Y-14949619D01*
X14938333Y-14978190D01*
X14824048Y-15092476D01*
X14947857Y-15092476D01*
X15014524Y-14892476D02*
X15147857Y-14892476D01*
X15062143Y-15092476D01*
X15376428Y-15092476D02*
X15376428Y-14892476D01*
X15462143Y-15092476D02*
X15462143Y-14987714D01*
X15452619Y-14968667D01*
X15433571Y-14959143D01*
X15405000Y-14959143D01*
X15385952Y-14968667D01*
X15376428Y-14978190D01*
X15585952Y-15092476D02*
X15566905Y-15082952D01*
X15557381Y-15073428D01*
X15547857Y-15054381D01*
X15547857Y-14997238D01*
X15557381Y-14978190D01*
X15566905Y-14968667D01*
X15585952Y-14959143D01*
X15614524Y-14959143D01*
X15633571Y-14968667D01*
X15643095Y-14978190D01*
X15652619Y-14997238D01*
X15652619Y-15054381D01*
X15643095Y-15073428D01*
X15633571Y-15082952D01*
X15614524Y-15092476D01*
X15585952Y-15092476D01*
X15766905Y-15092476D02*
X15747857Y-15082952D01*
X15738333Y-15063905D01*
X15738333Y-14892476D01*
X15919286Y-15082952D02*
X15900238Y-15092476D01*
X15862143Y-15092476D01*
X15843095Y-15082952D01*
X15833571Y-15063905D01*
X15833571Y-14987714D01*
X15843095Y-14968667D01*
X15862143Y-14959143D01*
X15900238Y-14959143D01*
X15919286Y-14968667D01*
X15928809Y-14987714D01*
X15928809Y-15006762D01*
X15833571Y-15025809D01*
X16005000Y-15082952D02*
X16024048Y-15092476D01*
X16062143Y-15092476D01*
X16081190Y-15082952D01*
X16090714Y-15063905D01*
X16090714Y-15054381D01*
X16081190Y-15035333D01*
X16062143Y-15025809D01*
X16033571Y-15025809D01*
X16014524Y-15016286D01*
X16005000Y-14997238D01*
X16005000Y-14987714D01*
X16014524Y-14968667D01*
X16033571Y-14959143D01*
X16062143Y-14959143D01*
X16081190Y-14968667D01*
X16157381Y-15168667D02*
X16166905Y-15159143D01*
X16185952Y-15130571D01*
X16195476Y-15111524D01*
X16205000Y-15082952D01*
X16214524Y-15035333D01*
X16214524Y-14997238D01*
X16205000Y-14949619D01*
X16195476Y-14921048D01*
X16185952Y-14902000D01*
X16166905Y-14873428D01*
X16157381Y-14863905D01*
M02*
