%TF.GenerationSoftware,KiCad,Pcbnew,(6.0.5)*%
%TF.CreationDate,2022-10-17T22:48:42+09:00*%
%TF.ProjectId,line __,6c696e65-2071-4082-9e6b-696361645f70,rev?*%
%TF.SameCoordinates,Original*%
%TF.FileFunction,Legend,Top*%
%TF.FilePolarity,Positive*%
%FSLAX46Y46*%
G04 Gerber Fmt 4.6, Leading zero omitted, Abs format (unit mm)*
G04 Created by KiCad (PCBNEW (6.0.5)) date 2022-10-17 22:48:42*
%MOMM*%
%LPD*%
G01*
G04 APERTURE LIST*
%ADD10C,0.150000*%
%ADD11C,0.120000*%
G04 APERTURE END LIST*
D10*
%TO.C,J4*%
X113015666Y-93222380D02*
X113015666Y-93936666D01*
X112968047Y-94079523D01*
X112872809Y-94174761D01*
X112729952Y-94222380D01*
X112634714Y-94222380D01*
X113920428Y-93555714D02*
X113920428Y-94222380D01*
X113682333Y-93174761D02*
X113444238Y-93889047D01*
X114063285Y-93889047D01*
%TO.C,J2*%
X178417666Y-108882380D02*
X178417666Y-109596666D01*
X178370047Y-109739523D01*
X178274809Y-109834761D01*
X178131952Y-109882380D01*
X178036714Y-109882380D01*
X178846238Y-108977619D02*
X178893857Y-108930000D01*
X178989095Y-108882380D01*
X179227190Y-108882380D01*
X179322428Y-108930000D01*
X179370047Y-108977619D01*
X179417666Y-109072857D01*
X179417666Y-109168095D01*
X179370047Y-109310952D01*
X178798619Y-109882380D01*
X179417666Y-109882380D01*
%TO.C,J1*%
X152082380Y-69232333D02*
X152796666Y-69232333D01*
X152939523Y-69279952D01*
X153034761Y-69375190D01*
X153082380Y-69518047D01*
X153082380Y-69613285D01*
X153082380Y-68232333D02*
X153082380Y-68803761D01*
X153082380Y-68518047D02*
X152082380Y-68518047D01*
X152225238Y-68613285D01*
X152320476Y-68708523D01*
X152368095Y-68803761D01*
%TO.C,J5*%
X137672380Y-134634333D02*
X138386666Y-134634333D01*
X138529523Y-134681952D01*
X138624761Y-134777190D01*
X138672380Y-134920047D01*
X138672380Y-135015285D01*
X137672380Y-133681952D02*
X137672380Y-134158142D01*
X138148571Y-134205761D01*
X138100952Y-134158142D01*
X138053333Y-134062904D01*
X138053333Y-133824809D01*
X138100952Y-133729571D01*
X138148571Y-133681952D01*
X138243809Y-133634333D01*
X138481904Y-133634333D01*
X138577142Y-133681952D01*
X138624761Y-133729571D01*
X138672380Y-133824809D01*
X138672380Y-134062904D01*
X138624761Y-134158142D01*
X138577142Y-134205761D01*
D11*
%TO.C,J4*%
X107639000Y-95802380D02*
X116269000Y-95802380D01*
X116269000Y-96900000D02*
X116619000Y-96900000D01*
X116269000Y-101980000D02*
X116679000Y-101980000D01*
X116269000Y-95210000D02*
X116269000Y-108030000D01*
X107639000Y-96629045D02*
X116269000Y-96629045D01*
X107639000Y-97573805D02*
X116269000Y-97573805D01*
X107639000Y-95448095D02*
X116269000Y-95448095D01*
X107639000Y-105430000D02*
X116269000Y-105430000D01*
X116269000Y-103800000D02*
X116679000Y-103800000D01*
X116269000Y-98720000D02*
X116679000Y-98720000D01*
X117729000Y-95210000D02*
X118839000Y-95210000D01*
X107639000Y-95684285D02*
X116269000Y-95684285D01*
X116269000Y-106340000D02*
X116679000Y-106340000D01*
X107639000Y-100350000D02*
X116269000Y-100350000D01*
X116269000Y-101260000D02*
X116679000Y-101260000D01*
X116269000Y-104520000D02*
X116679000Y-104520000D01*
X107639000Y-95330000D02*
X116269000Y-95330000D01*
X107639000Y-96865235D02*
X116269000Y-96865235D01*
X107639000Y-97337615D02*
X116269000Y-97337615D01*
X107639000Y-96156665D02*
X116269000Y-96156665D01*
X107639000Y-95210000D02*
X116269000Y-95210000D01*
X116269000Y-107060000D02*
X116679000Y-107060000D01*
X107639000Y-108030000D02*
X116269000Y-108030000D01*
X107639000Y-96038570D02*
X116269000Y-96038570D01*
X116269000Y-96180000D02*
X116619000Y-96180000D01*
X116269000Y-99440000D02*
X116679000Y-99440000D01*
X107639000Y-102890000D02*
X116269000Y-102890000D01*
X107639000Y-97810000D02*
X116269000Y-97810000D01*
X107639000Y-97691900D02*
X116269000Y-97691900D01*
X107639000Y-95210000D02*
X107639000Y-108030000D01*
X107639000Y-97219520D02*
X116269000Y-97219520D01*
X118839000Y-95210000D02*
X118839000Y-96540000D01*
X107639000Y-95566190D02*
X116269000Y-95566190D01*
X107639000Y-95920475D02*
X116269000Y-95920475D01*
X107639000Y-96510950D02*
X116269000Y-96510950D01*
X107639000Y-96274760D02*
X116269000Y-96274760D01*
X107639000Y-96747140D02*
X116269000Y-96747140D01*
X107639000Y-97101425D02*
X116269000Y-97101425D01*
X107639000Y-97455710D02*
X116269000Y-97455710D01*
X107639000Y-96392855D02*
X116269000Y-96392855D01*
X107639000Y-96983330D02*
X116269000Y-96983330D01*
%TO.C,J2*%
X184461000Y-105626195D02*
X175831000Y-105626195D01*
X184461000Y-106334765D02*
X175831000Y-106334765D01*
X175831000Y-107990000D02*
X175831000Y-95170000D01*
X175831000Y-103760000D02*
X175421000Y-103760000D01*
X175831000Y-98680000D02*
X175421000Y-98680000D01*
X184461000Y-107161430D02*
X175831000Y-107161430D01*
X184461000Y-106098575D02*
X175831000Y-106098575D01*
X175831000Y-104480000D02*
X175421000Y-104480000D01*
X184461000Y-106925240D02*
X175831000Y-106925240D01*
X175831000Y-96140000D02*
X175421000Y-96140000D01*
X175831000Y-96860000D02*
X175421000Y-96860000D01*
X174371000Y-107990000D02*
X173261000Y-107990000D01*
X184461000Y-107990000D02*
X184461000Y-95170000D01*
X184461000Y-106807145D02*
X175831000Y-106807145D01*
X184461000Y-105390000D02*
X175831000Y-105390000D01*
X184461000Y-107397620D02*
X175831000Y-107397620D01*
X184461000Y-106216670D02*
X175831000Y-106216670D01*
X184461000Y-100310000D02*
X175831000Y-100310000D01*
X175831000Y-106300000D02*
X175481000Y-106300000D01*
X184461000Y-97770000D02*
X175831000Y-97770000D01*
X175831000Y-99400000D02*
X175421000Y-99400000D01*
X184461000Y-95170000D02*
X175831000Y-95170000D01*
X184461000Y-107043335D02*
X175831000Y-107043335D01*
X184461000Y-106689050D02*
X175831000Y-106689050D01*
X184461000Y-107751905D02*
X175831000Y-107751905D01*
X184461000Y-107990000D02*
X175831000Y-107990000D01*
X175831000Y-101220000D02*
X175421000Y-101220000D01*
X173261000Y-107990000D02*
X173261000Y-106660000D01*
X184461000Y-105744290D02*
X175831000Y-105744290D01*
X184461000Y-107633810D02*
X175831000Y-107633810D01*
X184461000Y-105980480D02*
X175831000Y-105980480D01*
X175831000Y-107020000D02*
X175481000Y-107020000D01*
X184461000Y-102850000D02*
X175831000Y-102850000D01*
X184461000Y-105508100D02*
X175831000Y-105508100D01*
X184461000Y-106452860D02*
X175831000Y-106452860D01*
X184461000Y-107515715D02*
X175831000Y-107515715D01*
X175831000Y-101940000D02*
X175421000Y-101940000D01*
X184461000Y-107279525D02*
X175831000Y-107279525D01*
X184461000Y-105862385D02*
X175831000Y-105862385D01*
X184461000Y-106570955D02*
X175831000Y-106570955D01*
X184461000Y-107870000D02*
X175831000Y-107870000D01*
%TO.C,J1*%
X150715715Y-63189000D02*
X150715715Y-71819000D01*
X151190000Y-73279000D02*
X151190000Y-74389000D01*
X149062385Y-63189000D02*
X149062385Y-71819000D01*
X149652860Y-63189000D02*
X149652860Y-71819000D01*
X147680000Y-71819000D02*
X147680000Y-72229000D01*
X143510000Y-63189000D02*
X143510000Y-71819000D01*
X149298575Y-63189000D02*
X149298575Y-71819000D01*
X150243335Y-63189000D02*
X150243335Y-71819000D01*
X144420000Y-71819000D02*
X144420000Y-72229000D01*
X146960000Y-71819000D02*
X146960000Y-72229000D01*
X150007145Y-63189000D02*
X150007145Y-71819000D01*
X151190000Y-71819000D02*
X140910000Y-71819000D01*
X141880000Y-71819000D02*
X141880000Y-72229000D01*
X150479525Y-63189000D02*
X150479525Y-71819000D01*
X149180480Y-63189000D02*
X149180480Y-71819000D01*
X149770955Y-63189000D02*
X149770955Y-71819000D01*
X140910000Y-63189000D02*
X140910000Y-71819000D01*
X150220000Y-71819000D02*
X150220000Y-72169000D01*
X151190000Y-63189000D02*
X151190000Y-71819000D01*
X151070000Y-63189000D02*
X151070000Y-71819000D01*
X150951905Y-63189000D02*
X150951905Y-71819000D01*
X150125240Y-63189000D02*
X150125240Y-71819000D01*
X149416670Y-63189000D02*
X149416670Y-71819000D01*
X149500000Y-71819000D02*
X149500000Y-72169000D01*
X149534765Y-63189000D02*
X149534765Y-71819000D01*
X150833810Y-63189000D02*
X150833810Y-71819000D01*
X145140000Y-71819000D02*
X145140000Y-72229000D01*
X148826195Y-63189000D02*
X148826195Y-71819000D01*
X149889050Y-63189000D02*
X149889050Y-71819000D01*
X148708100Y-63189000D02*
X148708100Y-71819000D01*
X150597620Y-63189000D02*
X150597620Y-71819000D01*
X148590000Y-63189000D02*
X148590000Y-71819000D01*
X142600000Y-71819000D02*
X142600000Y-72229000D01*
X151190000Y-74389000D02*
X149860000Y-74389000D01*
X150361430Y-63189000D02*
X150361430Y-71819000D01*
X151190000Y-63189000D02*
X140910000Y-63189000D01*
X148944290Y-63189000D02*
X148944290Y-71819000D01*
X146050000Y-63189000D02*
X146050000Y-71819000D01*
%TO.C,J5*%
X141787615Y-140011000D02*
X141787615Y-131381000D01*
X140370475Y-140011000D02*
X140370475Y-131381000D01*
X141669520Y-140011000D02*
X141669520Y-131381000D01*
X140724760Y-140011000D02*
X140724760Y-131381000D01*
X148970000Y-131381000D02*
X148970000Y-130971000D01*
X140606665Y-140011000D02*
X140606665Y-131381000D01*
X139780000Y-140011000D02*
X139780000Y-131381000D01*
X146430000Y-131381000D02*
X146430000Y-130971000D01*
X149880000Y-140011000D02*
X149880000Y-131381000D01*
X152480000Y-140011000D02*
X152480000Y-131381000D01*
X140252380Y-140011000D02*
X140252380Y-131381000D01*
X141551425Y-140011000D02*
X141551425Y-131381000D01*
X140016190Y-140011000D02*
X140016190Y-131381000D01*
X143170000Y-131381000D02*
X143170000Y-130971000D01*
X141079045Y-140011000D02*
X141079045Y-131381000D01*
X139660000Y-128811000D02*
X140990000Y-128811000D01*
X147340000Y-140011000D02*
X147340000Y-131381000D01*
X140488570Y-140011000D02*
X140488570Y-131381000D01*
X140630000Y-131381000D02*
X140630000Y-131031000D01*
X150790000Y-131381000D02*
X150790000Y-130971000D01*
X139660000Y-129921000D02*
X139660000Y-128811000D01*
X140960950Y-140011000D02*
X140960950Y-131381000D01*
X140134285Y-140011000D02*
X140134285Y-131381000D01*
X142141900Y-140011000D02*
X142141900Y-131381000D01*
X144800000Y-140011000D02*
X144800000Y-131381000D01*
X139660000Y-131381000D02*
X152480000Y-131381000D01*
X142023805Y-140011000D02*
X142023805Y-131381000D01*
X139898095Y-140011000D02*
X139898095Y-131381000D01*
X142260000Y-140011000D02*
X142260000Y-131381000D01*
X141350000Y-131381000D02*
X141350000Y-131031000D01*
X141433330Y-140011000D02*
X141433330Y-131381000D01*
X141197140Y-140011000D02*
X141197140Y-131381000D01*
X151510000Y-131381000D02*
X151510000Y-130971000D01*
X139660000Y-140011000D02*
X139660000Y-131381000D01*
X140842855Y-140011000D02*
X140842855Y-131381000D01*
X148250000Y-131381000D02*
X148250000Y-130971000D01*
X145710000Y-131381000D02*
X145710000Y-130971000D01*
X141905710Y-140011000D02*
X141905710Y-131381000D01*
X141315235Y-140011000D02*
X141315235Y-131381000D01*
X143890000Y-131381000D02*
X143890000Y-130971000D01*
X139660000Y-140011000D02*
X152480000Y-140011000D01*
%TD*%
M02*
