M48
; DRILL file {KiCad (6.0.5)} date Mon Oct 17 22:48:44 2022
; FORMAT={-:-/ absolute / metric / decimal}
; #@! TF.CreationDate,2022-10-17T22:48:44+09:00
; #@! TF.GenerationSoftware,Kicad,Pcbnew,(6.0.5)
; #@! TF.FileFunction,Plated,1,2,PTH
FMAT,2
METRIC
; #@! TA.AperFunction,Plated,PTH,ViaDrill
T1C0.400
; #@! TA.AperFunction,Plated,PTH,ComponentDrill
T2C0.800
; #@! TA.AperFunction,Plated,PTH,ComponentDrill
T3C0.950
; #@! TA.AperFunction,Plated,PTH,ComponentDrill
T4C1.000
%
G90
G05
T1
X120.015Y-100.33
X121.285Y-86.995
X121.285Y-111.76
X121.92Y-117.475
X123.825Y-95.885
X127.635Y-90.805
X129.54Y-111.76
X130.175Y-95.885
X130.175Y-118.11
X130.81Y-84.455
X133.35Y-98.425
X133.35Y-125.73
X135.89Y-76.835
X135.89Y-95.25
X135.89Y-110.49
X137.16Y-121.285
X137.795Y-83.185
X137.795Y-116.205
X137.795Y-130.175
X138.43Y-89.535
X138.43Y-95.25
X140.97Y-95.25
X140.97Y-109.855
X142.875Y-122.555
X143.51Y-95.25
X144.145Y-81.915
X145.415Y-114.3
X146.05Y-95.25
X146.685Y-87.63
X148.59Y-95.25
X151.765Y-76.2
X153.67Y-80.01
X153.67Y-89.535
X153.67Y-95.885
X155.575Y-73.025
X156.21Y-104.775
X156.845Y-83.82
X157.48Y-92.71
X158.115Y-109.855
X158.115Y-120.015
X160.02Y-102.235
X160.02Y-126.365
X161.925Y-78.74
X161.925Y-88.9
X162.56Y-114.935
X165.1Y-94.615
X165.1Y-102.235
X167.64Y-86.995
X167.64Y-109.855
X170.18Y-117.475
X171.45Y-102.235
X172.085Y-92.075
T2
X134.62Y-94.0
X134.62Y-96.5
X137.16Y-94.0
X137.16Y-96.5
X139.7Y-94.0
X139.7Y-96.5
X142.26Y-94.0
X142.26Y-96.5
X144.78Y-94.02
X144.78Y-96.52
X147.32Y-94.0
X147.32Y-96.5
X149.86Y-94.0
X149.86Y-96.5
T3
X134.8Y-101.583
X137.3Y-101.583
X139.8Y-101.583
X142.3Y-101.583
X144.8Y-101.583
X147.3Y-101.583
X149.8Y-101.583
X152.3Y-101.583
X154.8Y-101.583
X157.3Y-101.583
T4
X117.729Y-96.54
X117.729Y-99.08
X117.729Y-101.62
X117.729Y-104.16
X117.729Y-106.7
X140.99Y-129.921
X142.24Y-73.279
X143.53Y-129.921
X144.78Y-73.279
X146.07Y-129.921
X147.32Y-73.279
X148.61Y-129.921
X149.86Y-73.279
X151.15Y-129.921
X174.371Y-96.5
X174.371Y-99.04
X174.371Y-101.58
X174.371Y-104.12
X174.371Y-106.66
T0
M30
