%TF.GenerationSoftware,KiCad,Pcbnew,(6.0.5)*%
%TF.CreationDate,2022-10-17T22:48:42+09:00*%
%TF.ProjectId,line __,6c696e65-2071-4082-9e6b-696361645f70,rev?*%
%TF.SameCoordinates,Original*%
%TF.FileFunction,Legend,Bot*%
%TF.FilePolarity,Positive*%
%FSLAX46Y46*%
G04 Gerber Fmt 4.6, Leading zero omitted, Abs format (unit mm)*
G04 Created by KiCad (PCBNEW (6.0.5)) date 2022-10-17 22:48:42*
%MOMM*%
%LPD*%
G01*
G04 APERTURE LIST*
%ADD10C,0.150000*%
%ADD11C,0.120000*%
G04 APERTURE END LIST*
D10*
%TO.C,J3*%
X146383333Y-97485380D02*
X146383333Y-98199666D01*
X146430952Y-98342523D01*
X146526190Y-98437761D01*
X146669047Y-98485380D01*
X146764285Y-98485380D01*
X146002380Y-97485380D02*
X145383333Y-97485380D01*
X145716666Y-97866333D01*
X145573809Y-97866333D01*
X145478571Y-97913952D01*
X145430952Y-97961571D01*
X145383333Y-98056809D01*
X145383333Y-98294904D01*
X145430952Y-98390142D01*
X145478571Y-98437761D01*
X145573809Y-98485380D01*
X145859523Y-98485380D01*
X145954761Y-98437761D01*
X146002380Y-98390142D01*
%TO.C,C6*%
X139567142Y-95083333D02*
X139614761Y-95035714D01*
X139662380Y-94892857D01*
X139662380Y-94797619D01*
X139614761Y-94654761D01*
X139519523Y-94559523D01*
X139424285Y-94511904D01*
X139233809Y-94464285D01*
X139090952Y-94464285D01*
X138900476Y-94511904D01*
X138805238Y-94559523D01*
X138710000Y-94654761D01*
X138662380Y-94797619D01*
X138662380Y-94892857D01*
X138710000Y-95035714D01*
X138757619Y-95083333D01*
X138662380Y-95940476D02*
X138662380Y-95750000D01*
X138710000Y-95654761D01*
X138757619Y-95607142D01*
X138900476Y-95511904D01*
X139090952Y-95464285D01*
X139471904Y-95464285D01*
X139567142Y-95511904D01*
X139614761Y-95559523D01*
X139662380Y-95654761D01*
X139662380Y-95845238D01*
X139614761Y-95940476D01*
X139567142Y-95988095D01*
X139471904Y-96035714D01*
X139233809Y-96035714D01*
X139138571Y-95988095D01*
X139090952Y-95940476D01*
X139043333Y-95845238D01*
X139043333Y-95654761D01*
X139090952Y-95559523D01*
X139138571Y-95511904D01*
X139233809Y-95464285D01*
%TO.C,C3*%
X147187142Y-95103333D02*
X147234761Y-95055714D01*
X147282380Y-94912857D01*
X147282380Y-94817619D01*
X147234761Y-94674761D01*
X147139523Y-94579523D01*
X147044285Y-94531904D01*
X146853809Y-94484285D01*
X146710952Y-94484285D01*
X146520476Y-94531904D01*
X146425238Y-94579523D01*
X146330000Y-94674761D01*
X146282380Y-94817619D01*
X146282380Y-94912857D01*
X146330000Y-95055714D01*
X146377619Y-95103333D01*
X146282380Y-95436666D02*
X146282380Y-96055714D01*
X146663333Y-95722380D01*
X146663333Y-95865238D01*
X146710952Y-95960476D01*
X146758571Y-96008095D01*
X146853809Y-96055714D01*
X147091904Y-96055714D01*
X147187142Y-96008095D01*
X147234761Y-95960476D01*
X147282380Y-95865238D01*
X147282380Y-95579523D01*
X147234761Y-95484285D01*
X147187142Y-95436666D01*
%TO.C,C2*%
X149727142Y-95083333D02*
X149774761Y-95035714D01*
X149822380Y-94892857D01*
X149822380Y-94797619D01*
X149774761Y-94654761D01*
X149679523Y-94559523D01*
X149584285Y-94511904D01*
X149393809Y-94464285D01*
X149250952Y-94464285D01*
X149060476Y-94511904D01*
X148965238Y-94559523D01*
X148870000Y-94654761D01*
X148822380Y-94797619D01*
X148822380Y-94892857D01*
X148870000Y-95035714D01*
X148917619Y-95083333D01*
X148917619Y-95464285D02*
X148870000Y-95511904D01*
X148822380Y-95607142D01*
X148822380Y-95845238D01*
X148870000Y-95940476D01*
X148917619Y-95988095D01*
X149012857Y-96035714D01*
X149108095Y-96035714D01*
X149250952Y-95988095D01*
X149822380Y-95416666D01*
X149822380Y-96035714D01*
%TO.C,C7*%
X137027142Y-95083333D02*
X137074761Y-95035714D01*
X137122380Y-94892857D01*
X137122380Y-94797619D01*
X137074761Y-94654761D01*
X136979523Y-94559523D01*
X136884285Y-94511904D01*
X136693809Y-94464285D01*
X136550952Y-94464285D01*
X136360476Y-94511904D01*
X136265238Y-94559523D01*
X136170000Y-94654761D01*
X136122380Y-94797619D01*
X136122380Y-94892857D01*
X136170000Y-95035714D01*
X136217619Y-95083333D01*
X136122380Y-95416666D02*
X136122380Y-96083333D01*
X137122380Y-95654761D01*
%TO.C,C4*%
X144667142Y-95083333D02*
X144714761Y-95035714D01*
X144762380Y-94892857D01*
X144762380Y-94797619D01*
X144714761Y-94654761D01*
X144619523Y-94559523D01*
X144524285Y-94511904D01*
X144333809Y-94464285D01*
X144190952Y-94464285D01*
X144000476Y-94511904D01*
X143905238Y-94559523D01*
X143810000Y-94654761D01*
X143762380Y-94797619D01*
X143762380Y-94892857D01*
X143810000Y-95035714D01*
X143857619Y-95083333D01*
X144095714Y-95940476D02*
X144762380Y-95940476D01*
X143714761Y-95702380D02*
X144429047Y-95464285D01*
X144429047Y-96083333D01*
%TO.C,C5*%
X142107142Y-95083333D02*
X142154761Y-95035714D01*
X142202380Y-94892857D01*
X142202380Y-94797619D01*
X142154761Y-94654761D01*
X142059523Y-94559523D01*
X141964285Y-94511904D01*
X141773809Y-94464285D01*
X141630952Y-94464285D01*
X141440476Y-94511904D01*
X141345238Y-94559523D01*
X141250000Y-94654761D01*
X141202380Y-94797619D01*
X141202380Y-94892857D01*
X141250000Y-95035714D01*
X141297619Y-95083333D01*
X141202380Y-95988095D02*
X141202380Y-95511904D01*
X141678571Y-95464285D01*
X141630952Y-95511904D01*
X141583333Y-95607142D01*
X141583333Y-95845238D01*
X141630952Y-95940476D01*
X141678571Y-95988095D01*
X141773809Y-96035714D01*
X142011904Y-96035714D01*
X142107142Y-95988095D01*
X142154761Y-95940476D01*
X142202380Y-95845238D01*
X142202380Y-95607142D01*
X142154761Y-95511904D01*
X142107142Y-95464285D01*
%TO.C,C1*%
X152267142Y-95083333D02*
X152314761Y-95035714D01*
X152362380Y-94892857D01*
X152362380Y-94797619D01*
X152314761Y-94654761D01*
X152219523Y-94559523D01*
X152124285Y-94511904D01*
X151933809Y-94464285D01*
X151790952Y-94464285D01*
X151600476Y-94511904D01*
X151505238Y-94559523D01*
X151410000Y-94654761D01*
X151362380Y-94797619D01*
X151362380Y-94892857D01*
X151410000Y-95035714D01*
X151457619Y-95083333D01*
X152362380Y-96035714D02*
X152362380Y-95464285D01*
X152362380Y-95750000D02*
X151362380Y-95750000D01*
X151505238Y-95654761D01*
X151600476Y-95559523D01*
X151648095Y-95464285D01*
D11*
%TO.C,J3*%
X156550000Y-99133000D02*
X156550000Y-99883000D01*
X159850000Y-99133000D02*
X159850000Y-99883000D01*
X132240000Y-99123000D02*
X159860000Y-99123000D01*
X158050000Y-99883000D02*
X158050000Y-99133000D01*
X160150000Y-98833000D02*
X160150000Y-100083000D01*
X134050000Y-99883000D02*
X132250000Y-99883000D01*
X159860000Y-99123000D02*
X159860000Y-105093000D01*
X159100000Y-104333000D02*
X146050000Y-104333000D01*
X158900000Y-98833000D02*
X160150000Y-98833000D01*
X158050000Y-99133000D02*
X159850000Y-99133000D01*
X132250000Y-99883000D02*
X132250000Y-99133000D01*
X133000000Y-104333000D02*
X146050000Y-104333000D01*
X159850000Y-101383000D02*
X159100000Y-101383000D01*
X132240000Y-105093000D02*
X132240000Y-99123000D01*
X133000000Y-101383000D02*
X133000000Y-104333000D01*
X156550000Y-99883000D02*
X135550000Y-99883000D01*
X159850000Y-99883000D02*
X158050000Y-99883000D01*
X132250000Y-99133000D02*
X134050000Y-99133000D01*
X134050000Y-99133000D02*
X134050000Y-99883000D01*
X159100000Y-101383000D02*
X159100000Y-104333000D01*
X159860000Y-105093000D02*
X132240000Y-105093000D01*
X135550000Y-99883000D02*
X135550000Y-99133000D01*
X135550000Y-99133000D02*
X156550000Y-99133000D01*
X132250000Y-101383000D02*
X133000000Y-101383000D01*
%TO.C,C6*%
X136240000Y-95879000D02*
X136240000Y-94621000D01*
X138080000Y-95879000D02*
X138080000Y-94621000D01*
%TO.C,C3*%
X143860000Y-95899000D02*
X143860000Y-94641000D01*
X145700000Y-95899000D02*
X145700000Y-94641000D01*
%TO.C,C2*%
X146400000Y-95879000D02*
X146400000Y-94621000D01*
X148240000Y-95879000D02*
X148240000Y-94621000D01*
%TO.C,C7*%
X135540000Y-95879000D02*
X135540000Y-94621000D01*
X133700000Y-95879000D02*
X133700000Y-94621000D01*
%TO.C,C4*%
X141340000Y-95879000D02*
X141340000Y-94621000D01*
X143180000Y-95879000D02*
X143180000Y-94621000D01*
%TO.C,C5*%
X138780000Y-95879000D02*
X138780000Y-94621000D01*
X140620000Y-95879000D02*
X140620000Y-94621000D01*
%TO.C,C1*%
X148940000Y-95879000D02*
X148940000Y-94621000D01*
X150780000Y-95879000D02*
X150780000Y-94621000D01*
%TD*%
M02*
