%FSLAX45Y45*%
G04 Gerber Fmt 4.5, Leading zero omitted, Abs format (unit mm)*
G04 Created by KiCad (PCBNEW (6.0.5)) date 2023-02-26 21:46:27*
%MOMM*%
%LPD*%
G01*
G04 APERTURE LIST*
%TA.AperFunction,Profile*%
%ADD10C,0.200000*%
%TD*%
%ADD11C,0.200000*%
%ADD12C,0.040000*%
%ADD13C,0.050000*%
%ADD14C,0.070000*%
%ADD15C,0.080000*%
%ADD16C,0.095000*%
%ADD17C,0.100000*%
%ADD18C,0.109000*%
%ADD19C,0.140000*%
%ADD20C,0.170000*%
G04 APERTURE END LIST*
D10*
X11895603Y-9954989D02*
G75*
G03*
X11895601Y-10237829I141417J-141421D01*
G01*
X12691096Y-11599010D02*
X11965177Y-12324929D01*
X17918599Y-10866335D02*
G75*
G03*
X17918599Y-10866335I-150000J0D01*
G01*
X12691096Y-11599010D02*
G75*
G03*
X12691096Y-11033324I-282843J282843D01*
G01*
X14280348Y-7734228D02*
G75*
G03*
X16234741Y-7991528I1550302J4224518D01*
G01*
X17963455Y-10753835D02*
X16425905Y-8090720D01*
X14568410Y-8044912D02*
G75*
G03*
X14568410Y-8044912I-150000J0D01*
G01*
X14224000Y-11861800D02*
X16510000Y-11861800D01*
X16510000Y-11861800D02*
X16510000Y-12903200D01*
X16510000Y-12903200D02*
X14224000Y-12903200D01*
X14224000Y-12903200D02*
X14224000Y-11861800D01*
X16915972Y-11589540D02*
G75*
G03*
X16769561Y-12135950I199998J-346410D01*
G01*
X14280350Y-7734223D02*
G75*
G03*
X14070025Y-7780563I-68900J-187757D01*
G01*
X17890247Y-11027034D02*
G75*
G03*
X17963455Y-10753835I-99997J173204D01*
G01*
X11965177Y-12324929D02*
G75*
G03*
X12029814Y-12651023I141423J-141421D01*
G01*
X16915971Y-11589540D02*
X17890250Y-11027040D01*
X14070025Y-7780563D02*
X11895601Y-9954986D01*
X17259659Y-13125016D02*
G75*
G03*
X17259659Y-13125016I-150000J0D01*
G01*
X11895601Y-10237829D02*
X12691096Y-11033324D01*
X17136031Y-13323275D02*
G75*
G03*
X17282864Y-13025016I-26371J198255D01*
G01*
X17282864Y-13025016D02*
X16769561Y-12135950D01*
X12029814Y-12651023D02*
G75*
G03*
X17136030Y-13323269I3800836J9141313D01*
G01*
X12204700Y-10114085D02*
G75*
G03*
X12204700Y-10114085I-150000J0D01*
G01*
X16425905Y-8090720D02*
G75*
G03*
X16234741Y-7991528I-173205J-100000D01*
G01*
X12256598Y-12466350D02*
G75*
G03*
X12256598Y-12466350I-150000J0D01*
G01*
D11*
D12*
X12172000Y-9809800D02*
X12212000Y-9849800D01*
X12212000Y-9809800D02*
X12172000Y-9849800D01*
X12197400Y-10343200D02*
X12237400Y-10383200D01*
X12237400Y-10343200D02*
X12197400Y-10383200D01*
X12601995Y-9630195D02*
X12641995Y-9670195D01*
X12641995Y-9630195D02*
X12601995Y-9670195D01*
X12624687Y-9992113D02*
X12664687Y-10032113D01*
X12664687Y-9992113D02*
X12624687Y-10032113D01*
X12730800Y-10444800D02*
X12770800Y-10484800D01*
X12770800Y-10444800D02*
X12730800Y-10484800D01*
X12730800Y-10902000D02*
X12770800Y-10942000D01*
X12770800Y-10902000D02*
X12730800Y-10942000D01*
X12756200Y-9225600D02*
X12796200Y-9265600D01*
X12796200Y-9225600D02*
X12756200Y-9265600D01*
X12883200Y-11625900D02*
X12923200Y-11665900D01*
X12923200Y-11625900D02*
X12883200Y-11665900D01*
X12895900Y-12362500D02*
X12935900Y-12402500D01*
X12935900Y-12362500D02*
X12895900Y-12402500D01*
X12934000Y-10394000D02*
X12974000Y-10434000D01*
X12974000Y-10394000D02*
X12934000Y-10434000D01*
X12934000Y-10597200D02*
X12974000Y-10637200D01*
X12974000Y-10597200D02*
X12934000Y-10637200D01*
X12934000Y-10800400D02*
X12974000Y-10840400D01*
X12974000Y-10800400D02*
X12934000Y-10840400D01*
X12934000Y-11003600D02*
X12974000Y-11043600D01*
X12974000Y-11003600D02*
X12934000Y-11043600D01*
X12934000Y-11181400D02*
X12974000Y-11221400D01*
X12974000Y-11181400D02*
X12934000Y-11221400D01*
X12934000Y-11359200D02*
X12974000Y-11399200D01*
X12974000Y-11359200D02*
X12934000Y-11399200D01*
X13010200Y-9479600D02*
X13050200Y-9519600D01*
X13050200Y-9479600D02*
X13010200Y-9519600D01*
X13073700Y-11498900D02*
X13113700Y-11538900D01*
X13113700Y-11498900D02*
X13073700Y-11538900D01*
X13111800Y-10216200D02*
X13151800Y-10256200D01*
X13151800Y-10216200D02*
X13111800Y-10256200D01*
X13111800Y-10571800D02*
X13151800Y-10611800D01*
X13151800Y-10571800D02*
X13111800Y-10611800D01*
X13111800Y-10902000D02*
X13151800Y-10942000D01*
X13151800Y-10902000D02*
X13111800Y-10942000D01*
X13137200Y-9835200D02*
X13177200Y-9875200D01*
X13177200Y-9835200D02*
X13137200Y-9875200D01*
X13173495Y-9058695D02*
X13213495Y-9098695D01*
X13213495Y-9058695D02*
X13173495Y-9098695D01*
X13264200Y-11333800D02*
X13304200Y-11373800D01*
X13304200Y-11333800D02*
X13264200Y-11373800D01*
X13289600Y-10165400D02*
X13329600Y-10205400D01*
X13329600Y-10165400D02*
X13289600Y-10205400D01*
X13289600Y-10394000D02*
X13329600Y-10434000D01*
X13329600Y-10394000D02*
X13289600Y-10434000D01*
X13289600Y-10597200D02*
X13329600Y-10637200D01*
X13329600Y-10597200D02*
X13289600Y-10637200D01*
X13289600Y-10800400D02*
X13329600Y-10840400D01*
X13329600Y-10800400D02*
X13289600Y-10840400D01*
X13289600Y-11994200D02*
X13329600Y-12034200D01*
X13329600Y-11994200D02*
X13289600Y-12034200D01*
X13315000Y-8641400D02*
X13355000Y-8681400D01*
X13355000Y-8641400D02*
X13315000Y-8681400D01*
X13439076Y-10010076D02*
X13479076Y-10050076D01*
X13479076Y-10010076D02*
X13439076Y-10050076D01*
X13452895Y-8779295D02*
X13492895Y-8819295D01*
X13492895Y-8779295D02*
X13452895Y-8819295D01*
X13467400Y-9530400D02*
X13507400Y-9570400D01*
X13507400Y-9530400D02*
X13467400Y-9570400D01*
X13492800Y-10241600D02*
X13532800Y-10281600D01*
X13532800Y-10241600D02*
X13492800Y-10281600D01*
X13492800Y-10902000D02*
X13532800Y-10942000D01*
X13532800Y-10902000D02*
X13492800Y-10942000D01*
X13518200Y-9098600D02*
X13558200Y-9138600D01*
X13558200Y-9098600D02*
X13518200Y-9138600D01*
X13543600Y-11435400D02*
X13583600Y-11475400D01*
X13583600Y-11435400D02*
X13543600Y-11475400D01*
X13591476Y-9857676D02*
X13631476Y-9897676D01*
X13631476Y-9857676D02*
X13591476Y-9897676D01*
X13594400Y-11105200D02*
X13634400Y-11145200D01*
X13634400Y-11105200D02*
X13594400Y-11145200D01*
X13645200Y-10089200D02*
X13685200Y-10129200D01*
X13685200Y-10089200D02*
X13645200Y-10129200D01*
X13670600Y-8311200D02*
X13710600Y-8351200D01*
X13710600Y-8311200D02*
X13670600Y-8351200D01*
X13670600Y-11308400D02*
X13710600Y-11348400D01*
X13710600Y-11308400D02*
X13670600Y-11348400D01*
X13683300Y-12375200D02*
X13723300Y-12415200D01*
X13723300Y-12375200D02*
X13683300Y-12415200D01*
X13743876Y-9705276D02*
X13783876Y-9745276D01*
X13783876Y-9705276D02*
X13743876Y-9745276D01*
X13746800Y-11524300D02*
X13786800Y-11564300D01*
X13786800Y-11524300D02*
X13746800Y-11564300D01*
X13823000Y-11304549D02*
X13863000Y-11344549D01*
X13863000Y-11304549D02*
X13823000Y-11344549D01*
X13835700Y-10736900D02*
X13875700Y-10776900D01*
X13875700Y-10736900D02*
X13835700Y-10776900D01*
X13899200Y-8920800D02*
X13939200Y-8960800D01*
X13939200Y-8920800D02*
X13899200Y-8960800D01*
X13921676Y-9527476D02*
X13961676Y-9567476D01*
X13961676Y-9527476D02*
X13921676Y-9567476D01*
X13950000Y-9200200D02*
X13990000Y-9240200D01*
X13990000Y-9200200D02*
X13950000Y-9240200D01*
X13975400Y-11304549D02*
X14015400Y-11344549D01*
X14015400Y-11304549D02*
X13975400Y-11344549D01*
X13975400Y-11524300D02*
X14015400Y-11564300D01*
X14015400Y-11524300D02*
X13975400Y-11564300D01*
X14051600Y-9860600D02*
X14091600Y-9900600D01*
X14091600Y-9860600D02*
X14051600Y-9900600D01*
X14051600Y-10343200D02*
X14091600Y-10383200D01*
X14091600Y-10343200D02*
X14051600Y-10383200D01*
X14064300Y-7904800D02*
X14104300Y-7944800D01*
X14104300Y-7904800D02*
X14064300Y-7944800D01*
X14089700Y-11079800D02*
X14129700Y-11119800D01*
X14129700Y-11079800D02*
X14089700Y-11119800D01*
X14099476Y-9349676D02*
X14139476Y-9389676D01*
X14139476Y-9349676D02*
X14099476Y-9389676D01*
X14127800Y-11304549D02*
X14167800Y-11344549D01*
X14167800Y-11304549D02*
X14127800Y-11344549D01*
X14254800Y-8997000D02*
X14294800Y-9037000D01*
X14294800Y-8997000D02*
X14254800Y-9037000D01*
X14254800Y-9505000D02*
X14294800Y-9545000D01*
X14294800Y-9505000D02*
X14254800Y-9545000D01*
X14280200Y-8565200D02*
X14320200Y-8605200D01*
X14320200Y-8565200D02*
X14280200Y-8605200D01*
X14280200Y-11304549D02*
X14320200Y-11344549D01*
X14320200Y-11304549D02*
X14280200Y-11344549D01*
X14280200Y-11511600D02*
X14320200Y-11551600D01*
X14320200Y-11511600D02*
X14280200Y-11551600D01*
X14331000Y-10267000D02*
X14371000Y-10307000D01*
X14371000Y-10267000D02*
X14331000Y-10307000D01*
X14432600Y-11079800D02*
X14472600Y-11119800D01*
X14472600Y-11079800D02*
X14432600Y-11119800D01*
X14432600Y-11304549D02*
X14472600Y-11344549D01*
X14472600Y-11304549D02*
X14432600Y-11344549D01*
X14483400Y-8768400D02*
X14523400Y-8808400D01*
X14523400Y-8768400D02*
X14483400Y-8808400D01*
X14572300Y-8349300D02*
X14612300Y-8389300D01*
X14612300Y-8349300D02*
X14572300Y-8389300D01*
X14585000Y-11304549D02*
X14625000Y-11344549D01*
X14625000Y-11304549D02*
X14585000Y-11344549D01*
X14585000Y-11511600D02*
X14625000Y-11551600D01*
X14625000Y-11511600D02*
X14585000Y-11551600D01*
X14712000Y-8539800D02*
X14752000Y-8579800D01*
X14752000Y-8539800D02*
X14712000Y-8579800D01*
X14724700Y-9505000D02*
X14764700Y-9545000D01*
X14764700Y-9505000D02*
X14724700Y-9545000D01*
X14737400Y-10343200D02*
X14777400Y-10383200D01*
X14777400Y-10343200D02*
X14737400Y-10383200D01*
X14737400Y-11079800D02*
X14777400Y-11119800D01*
X14777400Y-11079800D02*
X14737400Y-11119800D01*
X14737400Y-11304549D02*
X14777400Y-11344549D01*
X14777400Y-11304549D02*
X14737400Y-11344549D01*
X14889800Y-11304549D02*
X14929800Y-11344549D01*
X14929800Y-11304549D02*
X14889800Y-11344549D01*
X14889800Y-11511600D02*
X14929800Y-11551600D01*
X14929800Y-11511600D02*
X14889800Y-11551600D01*
X14940600Y-8539800D02*
X14980600Y-8579800D01*
X14980600Y-8539800D02*
X14940600Y-8579800D01*
X15042200Y-11304549D02*
X15082200Y-11344549D01*
X15082200Y-11304549D02*
X15042200Y-11344549D01*
X15067600Y-11079800D02*
X15107600Y-11119800D01*
X15107600Y-11079800D02*
X15067600Y-11119800D01*
X15143800Y-9987600D02*
X15183800Y-10027600D01*
X15183800Y-9987600D02*
X15143800Y-10027600D01*
X15143800Y-10571800D02*
X15183800Y-10611800D01*
X15183800Y-10571800D02*
X15143800Y-10611800D01*
X15169200Y-8285800D02*
X15209200Y-8325800D01*
X15209200Y-8285800D02*
X15169200Y-8325800D01*
X15169200Y-8539800D02*
X15209200Y-8579800D01*
X15209200Y-8539800D02*
X15169200Y-8579800D01*
X15169200Y-8793800D02*
X15209200Y-8833800D01*
X15209200Y-8793800D02*
X15169200Y-8833800D01*
X15194600Y-11304549D02*
X15234600Y-11344549D01*
X15234600Y-11304549D02*
X15194600Y-11344549D01*
X15258100Y-9479600D02*
X15298100Y-9519600D01*
X15298100Y-9479600D02*
X15258100Y-9519600D01*
X15338351Y-11304549D02*
X15378351Y-11344549D01*
X15378351Y-11304549D02*
X15338351Y-11344549D01*
X15347000Y-11638600D02*
X15387000Y-11678600D01*
X15387000Y-11638600D02*
X15347000Y-11678600D01*
X15397800Y-8539800D02*
X15437800Y-8579800D01*
X15437800Y-8539800D02*
X15397800Y-8579800D01*
X15448600Y-11079800D02*
X15488600Y-11119800D01*
X15488600Y-11079800D02*
X15448600Y-11119800D01*
X15448600Y-11410000D02*
X15488600Y-11450000D01*
X15488600Y-11410000D02*
X15448600Y-11450000D01*
X15524800Y-10343200D02*
X15564800Y-10383200D01*
X15564800Y-10343200D02*
X15524800Y-10383200D01*
X15626400Y-8539800D02*
X15666400Y-8579800D01*
X15666400Y-8539800D02*
X15626400Y-8579800D01*
X15651800Y-8743000D02*
X15691800Y-8783000D01*
X15691800Y-8743000D02*
X15651800Y-8783000D01*
X15753400Y-8171500D02*
X15793400Y-8211500D01*
X15793400Y-8171500D02*
X15753400Y-8211500D01*
X15804200Y-9098600D02*
X15844200Y-9138600D01*
X15844200Y-9098600D02*
X15804200Y-9138600D01*
X15804200Y-9479600D02*
X15844200Y-9519600D01*
X15844200Y-9479600D02*
X15804200Y-9519600D01*
X15816900Y-11702100D02*
X15856900Y-11742100D01*
X15856900Y-11702100D02*
X15816900Y-11742100D01*
X15829600Y-11079800D02*
X15869600Y-11119800D01*
X15869600Y-11079800D02*
X15829600Y-11119800D01*
X15829600Y-11384600D02*
X15869600Y-11424600D01*
X15869600Y-11384600D02*
X15829600Y-11424600D01*
X15855000Y-8539800D02*
X15895000Y-8579800D01*
X15895000Y-8539800D02*
X15855000Y-8579800D01*
X15880400Y-8743000D02*
X15920400Y-8783000D01*
X15920400Y-8743000D02*
X15880400Y-8783000D01*
X15943900Y-10406700D02*
X15983900Y-10446700D01*
X15983900Y-10406700D02*
X15943900Y-10446700D01*
X15943900Y-10838500D02*
X15983900Y-10878500D01*
X15983900Y-10838500D02*
X15943900Y-10878500D01*
X16070900Y-10025700D02*
X16110900Y-10065700D01*
X16110900Y-10025700D02*
X16070900Y-10065700D01*
X16150122Y-8803478D02*
X16190122Y-8843478D01*
X16190122Y-8803478D02*
X16150122Y-8843478D01*
X16234343Y-8947857D02*
X16274343Y-8987857D01*
X16274343Y-8947857D02*
X16234343Y-8987857D01*
X16286800Y-9479600D02*
X16326800Y-9519600D01*
X16326800Y-9479600D02*
X16286800Y-9519600D01*
X16309207Y-9076193D02*
X16349207Y-9116193D01*
X16349207Y-9076193D02*
X16309207Y-9116193D01*
X16312200Y-11130600D02*
X16352200Y-11170600D01*
X16352200Y-11130600D02*
X16312200Y-11170600D01*
X16312200Y-11702100D02*
X16352200Y-11742100D01*
X16352200Y-11702100D02*
X16312200Y-11742100D01*
X16388400Y-10749600D02*
X16428400Y-10789600D01*
X16428400Y-10749600D02*
X16388400Y-10789600D01*
X16413800Y-10444800D02*
X16453800Y-10484800D01*
X16453800Y-10444800D02*
X16413800Y-10484800D01*
X16439200Y-8806500D02*
X16479200Y-8846500D01*
X16479200Y-8806500D02*
X16439200Y-8846500D01*
X16451900Y-8387400D02*
X16491900Y-8427400D01*
X16491900Y-8387400D02*
X16451900Y-8427400D01*
X16566200Y-10800400D02*
X16606200Y-10840400D01*
X16606200Y-10800400D02*
X16566200Y-10840400D01*
X16591600Y-9733600D02*
X16631600Y-9773600D01*
X16631600Y-9733600D02*
X16591600Y-9773600D01*
X16769400Y-10089200D02*
X16809400Y-10129200D01*
X16809400Y-10089200D02*
X16769400Y-10129200D01*
X16769400Y-10571800D02*
X16809400Y-10611800D01*
X16809400Y-10571800D02*
X16769400Y-10611800D01*
X16769400Y-11168700D02*
X16809400Y-11208700D01*
X16809400Y-11168700D02*
X16769400Y-11208700D01*
X16794800Y-9416100D02*
X16834800Y-9456100D01*
X16834800Y-9416100D02*
X16794800Y-9456100D01*
X16820200Y-9009700D02*
X16860200Y-9049700D01*
X16860200Y-9009700D02*
X16820200Y-9049700D01*
X17175800Y-9632000D02*
X17215800Y-9672000D01*
X17215800Y-9632000D02*
X17175800Y-9672000D01*
X17290100Y-10114600D02*
X17330100Y-10154600D01*
X17330100Y-10114600D02*
X17290100Y-10154600D01*
X17467900Y-10546400D02*
X17507900Y-10586400D01*
X17507900Y-10546400D02*
X17467900Y-10586400D01*
D13*
X12512737Y-9784452D02*
G75*
G03*
X12512737Y-9784452I-25000J0D01*
G01*
D11*
X12554912Y-9830414D02*
X12441775Y-9717277D01*
X12533699Y-9851627D02*
X12420562Y-9738490D01*
X12441775Y-9717277D02*
G75*
G03*
X12420562Y-9738490I-10607J-10607D01*
G01*
X12533699Y-9851627D02*
G75*
G03*
X12554912Y-9830414I10607J10607D01*
G01*
D13*
X12774367Y-9522823D02*
G75*
G03*
X12774367Y-9522823I-25000J0D01*
G01*
D11*
X12816542Y-9568785D02*
X12703405Y-9455648D01*
X12795329Y-9589998D02*
X12682192Y-9476861D01*
X12703405Y-9455648D02*
G75*
G03*
X12682192Y-9476861I-10607J-10607D01*
G01*
X12795329Y-9589998D02*
G75*
G03*
X12816542Y-9568785I10607J10607D01*
G01*
D13*
X13078423Y-9218767D02*
G75*
G03*
X13078423Y-9218767I-25000J0D01*
G01*
D11*
X13120598Y-9264729D02*
X13007461Y-9151592D01*
X13099385Y-9285942D02*
X12986248Y-9172805D01*
X13007461Y-9151592D02*
G75*
G03*
X12986248Y-9172805I-10607J-10607D01*
G01*
X13099385Y-9285942D02*
G75*
G03*
X13120598Y-9264729I10607J10607D01*
G01*
D13*
X13340052Y-8957137D02*
G75*
G03*
X13340052Y-8957137I-25000J0D01*
G01*
D11*
X13382227Y-9003099D02*
X13269090Y-8889962D01*
X13361014Y-9024313D02*
X13247877Y-8911176D01*
X13269090Y-8889962D02*
G75*
G03*
X13247877Y-8911176I-10607J-10607D01*
G01*
X13361014Y-9024313D02*
G75*
G03*
X13382227Y-9003099I10607J10607D01*
G01*
D14*
X14249400Y-10836200D02*
X14249400Y-10906200D01*
X14214400Y-10871200D02*
X14284400Y-10871200D01*
X14274800Y-9210600D02*
X14274800Y-9280600D01*
X14239800Y-9245600D02*
X14309800Y-9245600D01*
X14274800Y-9718600D02*
X14274800Y-9788600D01*
X14239800Y-9753600D02*
X14309800Y-9753600D01*
X14757400Y-10836200D02*
X14757400Y-10906200D01*
X14722400Y-10871200D02*
X14792400Y-10871200D01*
D15*
X14988884Y-8338084D02*
X14988884Y-8281515D01*
X14932315Y-8281515D01*
X14932315Y-8338084D01*
X14988884Y-8338084D01*
X14988884Y-8838085D02*
X14988884Y-8781516D01*
X14932315Y-8781516D01*
X14932315Y-8838085D01*
X14988884Y-8838085D01*
X15241884Y-10899485D02*
X15241884Y-10842916D01*
X15185315Y-10842916D01*
X15185315Y-10899485D01*
X15241884Y-10899485D01*
X15446084Y-8338084D02*
X15446084Y-8281515D01*
X15389515Y-8281515D01*
X15389515Y-8338084D01*
X15446084Y-8338084D01*
X15446084Y-8838085D02*
X15446084Y-8781516D01*
X15389515Y-8781516D01*
X15389515Y-8838085D01*
X15446084Y-8838085D01*
X15495884Y-10899485D02*
X15495884Y-10842916D01*
X15439315Y-10842916D01*
X15439315Y-10899485D01*
X15495884Y-10899485D01*
X15749884Y-10899485D02*
X15749884Y-10842916D01*
X15693315Y-10842916D01*
X15693315Y-10899485D01*
X15749884Y-10899485D01*
X16235484Y-10975685D02*
X16235484Y-10919116D01*
X16178915Y-10919116D01*
X16178915Y-10975685D01*
X16235484Y-10975685D01*
X16485484Y-10975685D02*
X16485484Y-10919116D01*
X16428915Y-10919116D01*
X16428915Y-10975685D01*
X16485484Y-10975685D01*
X17034585Y-10715031D02*
X17034585Y-10658462D01*
X16978016Y-10658462D01*
X16978016Y-10715031D01*
X17034585Y-10715031D01*
X17159585Y-10931538D02*
X17159585Y-10874969D01*
X17103016Y-10874969D01*
X17103016Y-10931538D01*
X17159585Y-10931538D01*
D16*
X16572044Y-10058434D02*
X16619544Y-10010934D01*
X16572044Y-9963434D01*
X16524544Y-10010934D01*
X16572044Y-10058434D01*
X16788550Y-9933434D02*
X16836050Y-9885934D01*
X16788550Y-9838434D01*
X16741050Y-9885934D01*
X16788550Y-9933434D01*
X17005056Y-9808434D02*
X17052556Y-9760934D01*
X17005056Y-9713434D01*
X16957556Y-9760934D01*
X17005056Y-9808434D01*
D17*
X13259600Y-11059400D02*
X13359600Y-11159400D01*
X13359600Y-11059400D02*
X13259600Y-11159400D01*
X13359600Y-11109400D02*
G75*
G03*
X13359600Y-11109400I-50000J0D01*
G01*
D11*
X13209600Y-11149400D02*
X13409600Y-11149400D01*
X13209600Y-11069400D02*
X13409600Y-11069400D01*
X13409600Y-11149400D02*
G75*
G03*
X13409600Y-11069400I0J40000D01*
G01*
X13209600Y-11069400D02*
G75*
G03*
X13209600Y-11149400I0J-40000D01*
G01*
D17*
X13259600Y-11659400D02*
X13359600Y-11759400D01*
X13359600Y-11659400D02*
X13259600Y-11759400D01*
X13359600Y-11709400D02*
G75*
G03*
X13359600Y-11709400I-50000J0D01*
G01*
D11*
X13209600Y-11749400D02*
X13409600Y-11749400D01*
X13209600Y-11669400D02*
X13409600Y-11669400D01*
X13409600Y-11749400D02*
G75*
G03*
X13409600Y-11669400I0J40000D01*
G01*
X13209600Y-11669400D02*
G75*
G03*
X13209600Y-11749400I0J-40000D01*
G01*
D17*
X16020697Y-8603034D02*
X16120697Y-8703034D01*
X16120697Y-8603034D02*
X16020697Y-8703034D01*
X16120697Y-8653034D02*
G75*
G03*
X16120697Y-8653034I-50000J0D01*
G01*
X16028200Y-11329200D02*
X16128200Y-11429200D01*
X16128200Y-11329200D02*
X16028200Y-11429200D01*
X16128200Y-11379200D02*
G75*
G03*
X16128200Y-11379200I-50000J0D01*
G01*
X16237203Y-8478034D02*
X16337203Y-8578034D01*
X16337203Y-8478034D02*
X16237203Y-8578034D01*
X16337203Y-8528034D02*
G75*
G03*
X16337203Y-8528034I-50000J0D01*
G01*
X16282200Y-11329200D02*
X16382200Y-11429200D01*
X16382200Y-11329200D02*
X16282200Y-11429200D01*
X16382200Y-11379200D02*
G75*
G03*
X16382200Y-11379200I-50000J0D01*
G01*
X16376297Y-9212634D02*
X16476297Y-9312634D01*
X16476297Y-9212634D02*
X16376297Y-9312634D01*
X16476297Y-9262634D02*
G75*
G03*
X16476297Y-9262634I-50000J0D01*
G01*
X16536200Y-11329200D02*
X16636200Y-11429200D01*
X16636200Y-11329200D02*
X16536200Y-11429200D01*
X16636200Y-11379200D02*
G75*
G03*
X16636200Y-11379200I-50000J0D01*
G01*
X16592803Y-9087634D02*
X16692803Y-9187634D01*
X16692803Y-9087634D02*
X16592803Y-9187634D01*
X16692803Y-9137634D02*
G75*
G03*
X16692803Y-9137634I-50000J0D01*
G01*
D18*
X13813900Y-9851500D02*
X13922900Y-9960500D01*
X13922900Y-9851500D02*
X13813900Y-9960500D01*
X13868400Y-9851500D02*
X13868400Y-9960500D01*
X13813900Y-9906000D02*
X13922900Y-9906000D01*
X13813900Y-10105500D02*
X13922900Y-10214500D01*
X13922900Y-10105500D02*
X13813900Y-10214500D01*
X13868400Y-10105500D02*
X13868400Y-10214500D01*
X13813900Y-10160000D02*
X13922900Y-10160000D01*
X13813900Y-10359500D02*
X13922900Y-10468500D01*
X13922900Y-10359500D02*
X13813900Y-10468500D01*
X13868400Y-10359500D02*
X13868400Y-10468500D01*
X13813900Y-10414000D02*
X13922900Y-10414000D01*
D19*
X12765187Y-10132613D02*
X12905187Y-10272613D01*
X12905187Y-10132613D02*
X12765187Y-10272613D01*
X12884685Y-10252111D02*
X12884685Y-10153115D01*
X12785689Y-10153115D01*
X12785689Y-10252111D01*
X12884685Y-10252111D01*
X13663213Y-9234587D02*
X13803213Y-9374587D01*
X13803213Y-9234587D02*
X13663213Y-9374587D01*
X13782711Y-9354085D02*
X13782711Y-9255089D01*
X13683715Y-9255089D01*
X13683715Y-9354085D01*
X13782711Y-9354085D01*
D20*
X13655302Y-8601316D02*
X13825302Y-8771316D01*
X13825302Y-8601316D02*
X13655302Y-8771316D01*
X13740302Y-8771316D02*
X13825302Y-8686316D01*
X13740302Y-8601316D01*
X13655302Y-8686316D01*
X13740302Y-8771316D01*
X13935316Y-8321302D02*
X14105316Y-8491302D01*
X14105316Y-8321302D02*
X13935316Y-8491302D01*
X14020316Y-8491302D02*
X14105316Y-8406302D01*
X14020316Y-8321302D01*
X13935316Y-8406302D01*
X14020316Y-8491302D01*
D11*
X12084642Y-13730184D02*
X12084642Y-13530184D01*
X12132261Y-13530184D01*
X12160833Y-13539708D01*
X12179880Y-13558756D01*
X12189404Y-13577803D01*
X12198928Y-13615898D01*
X12198928Y-13644470D01*
X12189404Y-13682565D01*
X12179880Y-13701613D01*
X12160833Y-13720660D01*
X12132261Y-13730184D01*
X12084642Y-13730184D01*
X12284642Y-13730184D02*
X12284642Y-13596851D01*
X12284642Y-13634946D02*
X12294166Y-13615898D01*
X12303690Y-13606375D01*
X12322737Y-13596851D01*
X12341785Y-13596851D01*
X12408452Y-13730184D02*
X12408452Y-13596851D01*
X12408452Y-13530184D02*
X12398928Y-13539708D01*
X12408452Y-13549232D01*
X12417976Y-13539708D01*
X12408452Y-13530184D01*
X12408452Y-13549232D01*
X12532261Y-13730184D02*
X12513214Y-13720660D01*
X12503690Y-13701613D01*
X12503690Y-13530184D01*
X12637023Y-13730184D02*
X12617976Y-13720660D01*
X12608452Y-13701613D01*
X12608452Y-13530184D01*
X12865595Y-13730184D02*
X12865595Y-13530184D01*
X12932261Y-13673041D01*
X12998928Y-13530184D01*
X12998928Y-13730184D01*
X13179880Y-13730184D02*
X13179880Y-13625422D01*
X13170357Y-13606375D01*
X13151309Y-13596851D01*
X13113214Y-13596851D01*
X13094166Y-13606375D01*
X13179880Y-13720660D02*
X13160833Y-13730184D01*
X13113214Y-13730184D01*
X13094166Y-13720660D01*
X13084642Y-13701613D01*
X13084642Y-13682565D01*
X13094166Y-13663518D01*
X13113214Y-13653994D01*
X13160833Y-13653994D01*
X13179880Y-13644470D01*
X13275118Y-13596851D02*
X13275118Y-13796851D01*
X13275118Y-13606375D02*
X13294166Y-13596851D01*
X13332261Y-13596851D01*
X13351309Y-13606375D01*
X13360833Y-13615898D01*
X13370357Y-13634946D01*
X13370357Y-13692089D01*
X13360833Y-13711137D01*
X13351309Y-13720660D01*
X13332261Y-13730184D01*
X13294166Y-13730184D01*
X13275118Y-13720660D01*
X13456071Y-13711137D02*
X13465595Y-13720660D01*
X13456071Y-13730184D01*
X13446547Y-13720660D01*
X13456071Y-13711137D01*
X13456071Y-13730184D01*
X13456071Y-13606375D02*
X13465595Y-13615898D01*
X13456071Y-13625422D01*
X13446547Y-13615898D01*
X13456071Y-13606375D01*
X13456071Y-13625422D01*
D12*
X11787023Y-14039708D02*
X11827023Y-14079708D01*
X11827023Y-14039708D02*
X11787023Y-14079708D01*
D11*
X12122737Y-13950184D02*
X12141785Y-13950184D01*
X12160833Y-13959708D01*
X12170357Y-13969232D01*
X12179880Y-13988279D01*
X12189404Y-14026375D01*
X12189404Y-14073994D01*
X12179880Y-14112089D01*
X12170357Y-14131137D01*
X12160833Y-14140660D01*
X12141785Y-14150184D01*
X12122737Y-14150184D01*
X12103690Y-14140660D01*
X12094166Y-14131137D01*
X12084642Y-14112089D01*
X12075118Y-14073994D01*
X12075118Y-14026375D01*
X12084642Y-13988279D01*
X12094166Y-13969232D01*
X12103690Y-13959708D01*
X12122737Y-13950184D01*
X12275118Y-14131137D02*
X12284642Y-14140660D01*
X12275118Y-14150184D01*
X12265595Y-14140660D01*
X12275118Y-14131137D01*
X12275118Y-14150184D01*
X12456071Y-14016851D02*
X12456071Y-14150184D01*
X12408452Y-13940660D02*
X12360833Y-14083518D01*
X12484642Y-14083518D01*
X12598928Y-13950184D02*
X12617976Y-13950184D01*
X12637023Y-13959708D01*
X12646547Y-13969232D01*
X12656071Y-13988279D01*
X12665595Y-14026375D01*
X12665595Y-14073994D01*
X12656071Y-14112089D01*
X12646547Y-14131137D01*
X12637023Y-14140660D01*
X12617976Y-14150184D01*
X12598928Y-14150184D01*
X12579880Y-14140660D01*
X12570357Y-14131137D01*
X12560833Y-14112089D01*
X12551309Y-14073994D01*
X12551309Y-14026375D01*
X12560833Y-13988279D01*
X12570357Y-13969232D01*
X12579880Y-13959708D01*
X12598928Y-13950184D01*
X12789404Y-13950184D02*
X12808452Y-13950184D01*
X12827499Y-13959708D01*
X12837023Y-13969232D01*
X12846547Y-13988279D01*
X12856071Y-14026375D01*
X12856071Y-14073994D01*
X12846547Y-14112089D01*
X12837023Y-14131137D01*
X12827499Y-14140660D01*
X12808452Y-14150184D01*
X12789404Y-14150184D01*
X12770357Y-14140660D01*
X12760833Y-14131137D01*
X12751309Y-14112089D01*
X12741785Y-14073994D01*
X12741785Y-14026375D01*
X12751309Y-13988279D01*
X12760833Y-13969232D01*
X12770357Y-13959708D01*
X12789404Y-13950184D01*
X12941785Y-14150184D02*
X12941785Y-14016851D01*
X12941785Y-14035898D02*
X12951309Y-14026375D01*
X12970357Y-14016851D01*
X12998928Y-14016851D01*
X13017976Y-14026375D01*
X13027499Y-14045422D01*
X13027499Y-14150184D01*
X13027499Y-14045422D02*
X13037023Y-14026375D01*
X13056071Y-14016851D01*
X13084642Y-14016851D01*
X13103690Y-14026375D01*
X13113214Y-14045422D01*
X13113214Y-14150184D01*
X13208452Y-14150184D02*
X13208452Y-14016851D01*
X13208452Y-14035898D02*
X13217976Y-14026375D01*
X13237023Y-14016851D01*
X13265595Y-14016851D01*
X13284642Y-14026375D01*
X13294166Y-14045422D01*
X13294166Y-14150184D01*
X13294166Y-14045422D02*
X13303690Y-14026375D01*
X13322737Y-14016851D01*
X13351309Y-14016851D01*
X13370357Y-14026375D01*
X13379880Y-14045422D01*
X13379880Y-14150184D01*
X13770357Y-13940660D02*
X13598928Y-14197803D01*
X14027499Y-13950184D02*
X14046547Y-13950184D01*
X14065595Y-13959708D01*
X14075118Y-13969232D01*
X14084642Y-13988279D01*
X14094166Y-14026375D01*
X14094166Y-14073994D01*
X14084642Y-14112089D01*
X14075118Y-14131137D01*
X14065595Y-14140660D01*
X14046547Y-14150184D01*
X14027499Y-14150184D01*
X14008452Y-14140660D01*
X13998928Y-14131137D01*
X13989404Y-14112089D01*
X13979880Y-14073994D01*
X13979880Y-14026375D01*
X13989404Y-13988279D01*
X13998928Y-13969232D01*
X14008452Y-13959708D01*
X14027499Y-13950184D01*
X14179880Y-14131137D02*
X14189404Y-14140660D01*
X14179880Y-14150184D01*
X14170357Y-14140660D01*
X14179880Y-14131137D01*
X14179880Y-14150184D01*
X14313214Y-13950184D02*
X14332261Y-13950184D01*
X14351309Y-13959708D01*
X14360833Y-13969232D01*
X14370357Y-13988279D01*
X14379880Y-14026375D01*
X14379880Y-14073994D01*
X14370357Y-14112089D01*
X14360833Y-14131137D01*
X14351309Y-14140660D01*
X14332261Y-14150184D01*
X14313214Y-14150184D01*
X14294166Y-14140660D01*
X14284642Y-14131137D01*
X14275118Y-14112089D01*
X14265595Y-14073994D01*
X14265595Y-14026375D01*
X14275118Y-13988279D01*
X14284642Y-13969232D01*
X14294166Y-13959708D01*
X14313214Y-13950184D01*
X14570357Y-14150184D02*
X14456071Y-14150184D01*
X14513214Y-14150184D02*
X14513214Y-13950184D01*
X14494166Y-13978756D01*
X14475118Y-13997803D01*
X14456071Y-14007327D01*
X14751309Y-13950184D02*
X14656071Y-13950184D01*
X14646547Y-14045422D01*
X14656071Y-14035898D01*
X14675118Y-14026375D01*
X14722737Y-14026375D01*
X14741785Y-14035898D01*
X14751309Y-14045422D01*
X14760833Y-14064470D01*
X14760833Y-14112089D01*
X14751309Y-14131137D01*
X14741785Y-14140660D01*
X14722737Y-14150184D01*
X14675118Y-14150184D01*
X14656071Y-14140660D01*
X14646547Y-14131137D01*
X14827499Y-13950184D02*
X14960833Y-13950184D01*
X14875118Y-14150184D01*
X15027499Y-13950184D02*
X15027499Y-13988279D01*
X15103690Y-13950184D02*
X15103690Y-13988279D01*
X15398928Y-14226375D02*
X15389404Y-14216851D01*
X15370357Y-14188279D01*
X15360833Y-14169232D01*
X15351309Y-14140660D01*
X15341785Y-14093041D01*
X15341785Y-14054946D01*
X15351309Y-14007327D01*
X15360833Y-13978756D01*
X15370357Y-13959708D01*
X15389404Y-13931137D01*
X15398928Y-13921613D01*
X15579880Y-14150184D02*
X15465595Y-14150184D01*
X15522737Y-14150184D02*
X15522737Y-13950184D01*
X15503690Y-13978756D01*
X15484642Y-13997803D01*
X15465595Y-14007327D01*
X15656071Y-13969232D02*
X15665595Y-13959708D01*
X15684642Y-13950184D01*
X15732261Y-13950184D01*
X15751309Y-13959708D01*
X15760833Y-13969232D01*
X15770357Y-13988279D01*
X15770357Y-14007327D01*
X15760833Y-14035898D01*
X15646547Y-14150184D01*
X15770357Y-14150184D01*
X15951309Y-13950184D02*
X15856071Y-13950184D01*
X15846547Y-14045422D01*
X15856071Y-14035898D01*
X15875118Y-14026375D01*
X15922737Y-14026375D01*
X15941785Y-14035898D01*
X15951309Y-14045422D01*
X15960833Y-14064470D01*
X15960833Y-14112089D01*
X15951309Y-14131137D01*
X15941785Y-14140660D01*
X15922737Y-14150184D01*
X15875118Y-14150184D01*
X15856071Y-14140660D01*
X15846547Y-14131137D01*
X16198928Y-14150184D02*
X16198928Y-13950184D01*
X16284642Y-14150184D02*
X16284642Y-14045422D01*
X16275118Y-14026375D01*
X16256071Y-14016851D01*
X16227499Y-14016851D01*
X16208452Y-14026375D01*
X16198928Y-14035898D01*
X16408452Y-14150184D02*
X16389404Y-14140660D01*
X16379880Y-14131137D01*
X16370357Y-14112089D01*
X16370357Y-14054946D01*
X16379880Y-14035898D01*
X16389404Y-14026375D01*
X16408452Y-14016851D01*
X16437023Y-14016851D01*
X16456071Y-14026375D01*
X16465595Y-14035898D01*
X16475118Y-14054946D01*
X16475118Y-14112089D01*
X16465595Y-14131137D01*
X16456071Y-14140660D01*
X16437023Y-14150184D01*
X16408452Y-14150184D01*
X16589404Y-14150184D02*
X16570357Y-14140660D01*
X16560833Y-14121613D01*
X16560833Y-13950184D01*
X16741785Y-14140660D02*
X16722737Y-14150184D01*
X16684642Y-14150184D01*
X16665595Y-14140660D01*
X16656071Y-14121613D01*
X16656071Y-14045422D01*
X16665595Y-14026375D01*
X16684642Y-14016851D01*
X16722737Y-14016851D01*
X16741785Y-14026375D01*
X16751309Y-14045422D01*
X16751309Y-14064470D01*
X16656071Y-14083518D01*
X16827499Y-14140660D02*
X16846547Y-14150184D01*
X16884642Y-14150184D01*
X16903690Y-14140660D01*
X16913214Y-14121613D01*
X16913214Y-14112089D01*
X16903690Y-14093041D01*
X16884642Y-14083518D01*
X16856071Y-14083518D01*
X16837023Y-14073994D01*
X16827499Y-14054946D01*
X16827499Y-14045422D01*
X16837023Y-14026375D01*
X16856071Y-14016851D01*
X16884642Y-14016851D01*
X16903690Y-14026375D01*
X16979880Y-14226375D02*
X16989404Y-14216851D01*
X17008452Y-14188279D01*
X17017976Y-14169232D01*
X17027499Y-14140660D01*
X17037023Y-14093041D01*
X17037023Y-14054946D01*
X17027499Y-14007327D01*
X17017976Y-13978756D01*
X17008452Y-13959708D01*
X16989404Y-13931137D01*
X16979880Y-13921613D01*
D13*
X11827023Y-14323708D02*
G75*
G03*
X11827023Y-14323708I-25000J0D01*
G01*
D11*
X12122737Y-14214184D02*
X12141785Y-14214184D01*
X12160833Y-14223708D01*
X12170357Y-14233232D01*
X12179880Y-14252279D01*
X12189404Y-14290375D01*
X12189404Y-14337994D01*
X12179880Y-14376089D01*
X12170357Y-14395137D01*
X12160833Y-14404660D01*
X12141785Y-14414184D01*
X12122737Y-14414184D01*
X12103690Y-14404660D01*
X12094166Y-14395137D01*
X12084642Y-14376089D01*
X12075118Y-14337994D01*
X12075118Y-14290375D01*
X12084642Y-14252279D01*
X12094166Y-14233232D01*
X12103690Y-14223708D01*
X12122737Y-14214184D01*
X12275118Y-14395137D02*
X12284642Y-14404660D01*
X12275118Y-14414184D01*
X12265595Y-14404660D01*
X12275118Y-14395137D01*
X12275118Y-14414184D01*
X12465595Y-14214184D02*
X12370357Y-14214184D01*
X12360833Y-14309422D01*
X12370357Y-14299898D01*
X12389404Y-14290375D01*
X12437023Y-14290375D01*
X12456071Y-14299898D01*
X12465595Y-14309422D01*
X12475118Y-14328470D01*
X12475118Y-14376089D01*
X12465595Y-14395137D01*
X12456071Y-14404660D01*
X12437023Y-14414184D01*
X12389404Y-14414184D01*
X12370357Y-14404660D01*
X12360833Y-14395137D01*
X12598928Y-14214184D02*
X12617976Y-14214184D01*
X12637023Y-14223708D01*
X12646547Y-14233232D01*
X12656071Y-14252279D01*
X12665595Y-14290375D01*
X12665595Y-14337994D01*
X12656071Y-14376089D01*
X12646547Y-14395137D01*
X12637023Y-14404660D01*
X12617976Y-14414184D01*
X12598928Y-14414184D01*
X12579880Y-14404660D01*
X12570357Y-14395137D01*
X12560833Y-14376089D01*
X12551309Y-14337994D01*
X12551309Y-14290375D01*
X12560833Y-14252279D01*
X12570357Y-14233232D01*
X12579880Y-14223708D01*
X12598928Y-14214184D01*
X12789404Y-14214184D02*
X12808452Y-14214184D01*
X12827499Y-14223708D01*
X12837023Y-14233232D01*
X12846547Y-14252279D01*
X12856071Y-14290375D01*
X12856071Y-14337994D01*
X12846547Y-14376089D01*
X12837023Y-14395137D01*
X12827499Y-14404660D01*
X12808452Y-14414184D01*
X12789404Y-14414184D01*
X12770357Y-14404660D01*
X12760833Y-14395137D01*
X12751309Y-14376089D01*
X12741785Y-14337994D01*
X12741785Y-14290375D01*
X12751309Y-14252279D01*
X12760833Y-14233232D01*
X12770357Y-14223708D01*
X12789404Y-14214184D01*
X12941785Y-14414184D02*
X12941785Y-14280851D01*
X12941785Y-14299898D02*
X12951309Y-14290375D01*
X12970357Y-14280851D01*
X12998928Y-14280851D01*
X13017976Y-14290375D01*
X13027499Y-14309422D01*
X13027499Y-14414184D01*
X13027499Y-14309422D02*
X13037023Y-14290375D01*
X13056071Y-14280851D01*
X13084642Y-14280851D01*
X13103690Y-14290375D01*
X13113214Y-14309422D01*
X13113214Y-14414184D01*
X13208452Y-14414184D02*
X13208452Y-14280851D01*
X13208452Y-14299898D02*
X13217976Y-14290375D01*
X13237023Y-14280851D01*
X13265595Y-14280851D01*
X13284642Y-14290375D01*
X13294166Y-14309422D01*
X13294166Y-14414184D01*
X13294166Y-14309422D02*
X13303690Y-14290375D01*
X13322737Y-14280851D01*
X13351309Y-14280851D01*
X13370357Y-14290375D01*
X13379880Y-14309422D01*
X13379880Y-14414184D01*
X13770357Y-14204660D02*
X13598928Y-14461803D01*
X14027499Y-14214184D02*
X14046547Y-14214184D01*
X14065595Y-14223708D01*
X14075118Y-14233232D01*
X14084642Y-14252279D01*
X14094166Y-14290375D01*
X14094166Y-14337994D01*
X14084642Y-14376089D01*
X14075118Y-14395137D01*
X14065595Y-14404660D01*
X14046547Y-14414184D01*
X14027499Y-14414184D01*
X14008452Y-14404660D01*
X13998928Y-14395137D01*
X13989404Y-14376089D01*
X13979880Y-14337994D01*
X13979880Y-14290375D01*
X13989404Y-14252279D01*
X13998928Y-14233232D01*
X14008452Y-14223708D01*
X14027499Y-14214184D01*
X14179880Y-14395137D02*
X14189404Y-14404660D01*
X14179880Y-14414184D01*
X14170357Y-14404660D01*
X14179880Y-14395137D01*
X14179880Y-14414184D01*
X14313214Y-14214184D02*
X14332261Y-14214184D01*
X14351309Y-14223708D01*
X14360833Y-14233232D01*
X14370357Y-14252279D01*
X14379880Y-14290375D01*
X14379880Y-14337994D01*
X14370357Y-14376089D01*
X14360833Y-14395137D01*
X14351309Y-14404660D01*
X14332261Y-14414184D01*
X14313214Y-14414184D01*
X14294166Y-14404660D01*
X14284642Y-14395137D01*
X14275118Y-14376089D01*
X14265595Y-14337994D01*
X14265595Y-14290375D01*
X14275118Y-14252279D01*
X14284642Y-14233232D01*
X14294166Y-14223708D01*
X14313214Y-14214184D01*
X14570357Y-14414184D02*
X14456071Y-14414184D01*
X14513214Y-14414184D02*
X14513214Y-14214184D01*
X14494166Y-14242756D01*
X14475118Y-14261803D01*
X14456071Y-14271327D01*
X14665595Y-14414184D02*
X14703690Y-14414184D01*
X14722737Y-14404660D01*
X14732261Y-14395137D01*
X14751309Y-14366565D01*
X14760833Y-14328470D01*
X14760833Y-14252279D01*
X14751309Y-14233232D01*
X14741785Y-14223708D01*
X14722737Y-14214184D01*
X14684642Y-14214184D01*
X14665595Y-14223708D01*
X14656071Y-14233232D01*
X14646547Y-14252279D01*
X14646547Y-14299898D01*
X14656071Y-14318946D01*
X14665595Y-14328470D01*
X14684642Y-14337994D01*
X14722737Y-14337994D01*
X14741785Y-14328470D01*
X14751309Y-14318946D01*
X14760833Y-14299898D01*
X14827499Y-14214184D02*
X14960833Y-14214184D01*
X14875118Y-14414184D01*
X15027499Y-14214184D02*
X15027499Y-14252279D01*
X15103690Y-14214184D02*
X15103690Y-14252279D01*
X15398928Y-14490375D02*
X15389404Y-14480851D01*
X15370357Y-14452279D01*
X15360833Y-14433232D01*
X15351309Y-14404660D01*
X15341785Y-14357041D01*
X15341785Y-14318946D01*
X15351309Y-14271327D01*
X15360833Y-14242756D01*
X15370357Y-14223708D01*
X15389404Y-14195137D01*
X15398928Y-14185613D01*
X15513214Y-14214184D02*
X15532261Y-14214184D01*
X15551309Y-14223708D01*
X15560833Y-14233232D01*
X15570357Y-14252279D01*
X15579880Y-14290375D01*
X15579880Y-14337994D01*
X15570357Y-14376089D01*
X15560833Y-14395137D01*
X15551309Y-14404660D01*
X15532261Y-14414184D01*
X15513214Y-14414184D01*
X15494166Y-14404660D01*
X15484642Y-14395137D01*
X15475118Y-14376089D01*
X15465595Y-14337994D01*
X15465595Y-14290375D01*
X15475118Y-14252279D01*
X15484642Y-14233232D01*
X15494166Y-14223708D01*
X15513214Y-14214184D01*
X15817976Y-14414184D02*
X15817976Y-14214184D01*
X15903690Y-14414184D02*
X15903690Y-14309422D01*
X15894166Y-14290375D01*
X15875118Y-14280851D01*
X15846547Y-14280851D01*
X15827499Y-14290375D01*
X15817976Y-14299898D01*
X16027499Y-14414184D02*
X16008452Y-14404660D01*
X15998928Y-14395137D01*
X15989404Y-14376089D01*
X15989404Y-14318946D01*
X15998928Y-14299898D01*
X16008452Y-14290375D01*
X16027499Y-14280851D01*
X16056071Y-14280851D01*
X16075118Y-14290375D01*
X16084642Y-14299898D01*
X16094166Y-14318946D01*
X16094166Y-14376089D01*
X16084642Y-14395137D01*
X16075118Y-14404660D01*
X16056071Y-14414184D01*
X16027499Y-14414184D01*
X16208452Y-14414184D02*
X16189404Y-14404660D01*
X16179880Y-14385613D01*
X16179880Y-14214184D01*
X16360833Y-14404660D02*
X16341785Y-14414184D01*
X16303690Y-14414184D01*
X16284642Y-14404660D01*
X16275118Y-14385613D01*
X16275118Y-14309422D01*
X16284642Y-14290375D01*
X16303690Y-14280851D01*
X16341785Y-14280851D01*
X16360833Y-14290375D01*
X16370357Y-14309422D01*
X16370357Y-14328470D01*
X16275118Y-14347518D01*
X16446547Y-14404660D02*
X16465595Y-14414184D01*
X16503690Y-14414184D01*
X16522737Y-14404660D01*
X16532261Y-14385613D01*
X16532261Y-14376089D01*
X16522737Y-14357041D01*
X16503690Y-14347518D01*
X16475118Y-14347518D01*
X16456071Y-14337994D01*
X16446547Y-14318946D01*
X16446547Y-14309422D01*
X16456071Y-14290375D01*
X16475118Y-14280851D01*
X16503690Y-14280851D01*
X16522737Y-14290375D01*
X16770357Y-14337994D02*
X16922738Y-14337994D01*
X16846547Y-14414184D02*
X16846547Y-14261803D01*
X17256071Y-14280851D02*
X17256071Y-14414184D01*
X17208452Y-14204660D02*
X17160833Y-14347518D01*
X17284642Y-14347518D01*
X17503690Y-14404660D02*
X17522738Y-14414184D01*
X17560833Y-14414184D01*
X17579880Y-14404660D01*
X17589404Y-14385613D01*
X17589404Y-14376089D01*
X17579880Y-14357041D01*
X17560833Y-14347518D01*
X17532261Y-14347518D01*
X17513214Y-14337994D01*
X17503690Y-14318946D01*
X17503690Y-14309422D01*
X17513214Y-14290375D01*
X17532261Y-14280851D01*
X17560833Y-14280851D01*
X17579880Y-14290375D01*
X17703690Y-14414184D02*
X17684642Y-14404660D01*
X17675119Y-14385613D01*
X17675119Y-14214184D01*
X17808452Y-14414184D02*
X17789404Y-14404660D01*
X17779880Y-14395137D01*
X17770357Y-14376089D01*
X17770357Y-14318946D01*
X17779880Y-14299898D01*
X17789404Y-14290375D01*
X17808452Y-14280851D01*
X17837023Y-14280851D01*
X17856071Y-14290375D01*
X17865595Y-14299898D01*
X17875119Y-14318946D01*
X17875119Y-14376089D01*
X17865595Y-14395137D01*
X17856071Y-14404660D01*
X17837023Y-14414184D01*
X17808452Y-14414184D01*
X17932261Y-14280851D02*
X18008452Y-14280851D01*
X17960833Y-14214184D02*
X17960833Y-14385613D01*
X17970357Y-14404660D01*
X17989404Y-14414184D01*
X18008452Y-14414184D01*
X18065595Y-14404660D02*
X18084642Y-14414184D01*
X18122738Y-14414184D01*
X18141785Y-14404660D01*
X18151309Y-14385613D01*
X18151309Y-14376089D01*
X18141785Y-14357041D01*
X18122738Y-14347518D01*
X18094166Y-14347518D01*
X18075119Y-14337994D01*
X18065595Y-14318946D01*
X18065595Y-14309422D01*
X18075119Y-14290375D01*
X18094166Y-14280851D01*
X18122738Y-14280851D01*
X18141785Y-14290375D01*
X18217976Y-14490375D02*
X18227499Y-14480851D01*
X18246547Y-14452279D01*
X18256071Y-14433232D01*
X18265595Y-14404660D01*
X18275119Y-14357041D01*
X18275119Y-14318946D01*
X18265595Y-14271327D01*
X18256071Y-14242756D01*
X18246547Y-14223708D01*
X18227499Y-14195137D01*
X18217976Y-14185613D01*
D14*
X11792023Y-14552708D02*
X11792023Y-14622708D01*
X11757023Y-14587708D02*
X11827023Y-14587708D01*
D11*
X12122737Y-14478184D02*
X12141785Y-14478184D01*
X12160833Y-14487708D01*
X12170357Y-14497232D01*
X12179880Y-14516279D01*
X12189404Y-14554375D01*
X12189404Y-14601994D01*
X12179880Y-14640089D01*
X12170357Y-14659137D01*
X12160833Y-14668660D01*
X12141785Y-14678184D01*
X12122737Y-14678184D01*
X12103690Y-14668660D01*
X12094166Y-14659137D01*
X12084642Y-14640089D01*
X12075118Y-14601994D01*
X12075118Y-14554375D01*
X12084642Y-14516279D01*
X12094166Y-14497232D01*
X12103690Y-14487708D01*
X12122737Y-14478184D01*
X12275118Y-14659137D02*
X12284642Y-14668660D01*
X12275118Y-14678184D01*
X12265595Y-14668660D01*
X12275118Y-14659137D01*
X12275118Y-14678184D01*
X12351309Y-14478184D02*
X12484642Y-14478184D01*
X12398928Y-14678184D01*
X12598928Y-14478184D02*
X12617976Y-14478184D01*
X12637023Y-14487708D01*
X12646547Y-14497232D01*
X12656071Y-14516279D01*
X12665595Y-14554375D01*
X12665595Y-14601994D01*
X12656071Y-14640089D01*
X12646547Y-14659137D01*
X12637023Y-14668660D01*
X12617976Y-14678184D01*
X12598928Y-14678184D01*
X12579880Y-14668660D01*
X12570357Y-14659137D01*
X12560833Y-14640089D01*
X12551309Y-14601994D01*
X12551309Y-14554375D01*
X12560833Y-14516279D01*
X12570357Y-14497232D01*
X12579880Y-14487708D01*
X12598928Y-14478184D01*
X12789404Y-14478184D02*
X12808452Y-14478184D01*
X12827499Y-14487708D01*
X12837023Y-14497232D01*
X12846547Y-14516279D01*
X12856071Y-14554375D01*
X12856071Y-14601994D01*
X12846547Y-14640089D01*
X12837023Y-14659137D01*
X12827499Y-14668660D01*
X12808452Y-14678184D01*
X12789404Y-14678184D01*
X12770357Y-14668660D01*
X12760833Y-14659137D01*
X12751309Y-14640089D01*
X12741785Y-14601994D01*
X12741785Y-14554375D01*
X12751309Y-14516279D01*
X12760833Y-14497232D01*
X12770357Y-14487708D01*
X12789404Y-14478184D01*
X12941785Y-14678184D02*
X12941785Y-14544851D01*
X12941785Y-14563898D02*
X12951309Y-14554375D01*
X12970357Y-14544851D01*
X12998928Y-14544851D01*
X13017976Y-14554375D01*
X13027499Y-14573422D01*
X13027499Y-14678184D01*
X13027499Y-14573422D02*
X13037023Y-14554375D01*
X13056071Y-14544851D01*
X13084642Y-14544851D01*
X13103690Y-14554375D01*
X13113214Y-14573422D01*
X13113214Y-14678184D01*
X13208452Y-14678184D02*
X13208452Y-14544851D01*
X13208452Y-14563898D02*
X13217976Y-14554375D01*
X13237023Y-14544851D01*
X13265595Y-14544851D01*
X13284642Y-14554375D01*
X13294166Y-14573422D01*
X13294166Y-14678184D01*
X13294166Y-14573422D02*
X13303690Y-14554375D01*
X13322737Y-14544851D01*
X13351309Y-14544851D01*
X13370357Y-14554375D01*
X13379880Y-14573422D01*
X13379880Y-14678184D01*
X13770357Y-14468660D02*
X13598928Y-14725803D01*
X14027499Y-14478184D02*
X14046547Y-14478184D01*
X14065595Y-14487708D01*
X14075118Y-14497232D01*
X14084642Y-14516279D01*
X14094166Y-14554375D01*
X14094166Y-14601994D01*
X14084642Y-14640089D01*
X14075118Y-14659137D01*
X14065595Y-14668660D01*
X14046547Y-14678184D01*
X14027499Y-14678184D01*
X14008452Y-14668660D01*
X13998928Y-14659137D01*
X13989404Y-14640089D01*
X13979880Y-14601994D01*
X13979880Y-14554375D01*
X13989404Y-14516279D01*
X13998928Y-14497232D01*
X14008452Y-14487708D01*
X14027499Y-14478184D01*
X14179880Y-14659137D02*
X14189404Y-14668660D01*
X14179880Y-14678184D01*
X14170357Y-14668660D01*
X14179880Y-14659137D01*
X14179880Y-14678184D01*
X14313214Y-14478184D02*
X14332261Y-14478184D01*
X14351309Y-14487708D01*
X14360833Y-14497232D01*
X14370357Y-14516279D01*
X14379880Y-14554375D01*
X14379880Y-14601994D01*
X14370357Y-14640089D01*
X14360833Y-14659137D01*
X14351309Y-14668660D01*
X14332261Y-14678184D01*
X14313214Y-14678184D01*
X14294166Y-14668660D01*
X14284642Y-14659137D01*
X14275118Y-14640089D01*
X14265595Y-14601994D01*
X14265595Y-14554375D01*
X14275118Y-14516279D01*
X14284642Y-14497232D01*
X14294166Y-14487708D01*
X14313214Y-14478184D01*
X14456071Y-14497232D02*
X14465595Y-14487708D01*
X14484642Y-14478184D01*
X14532261Y-14478184D01*
X14551309Y-14487708D01*
X14560833Y-14497232D01*
X14570357Y-14516279D01*
X14570357Y-14535327D01*
X14560833Y-14563898D01*
X14446547Y-14678184D01*
X14570357Y-14678184D01*
X14637023Y-14478184D02*
X14770357Y-14478184D01*
X14684642Y-14678184D01*
X14932261Y-14478184D02*
X14894166Y-14478184D01*
X14875118Y-14487708D01*
X14865595Y-14497232D01*
X14846547Y-14525803D01*
X14837023Y-14563898D01*
X14837023Y-14640089D01*
X14846547Y-14659137D01*
X14856071Y-14668660D01*
X14875118Y-14678184D01*
X14913214Y-14678184D01*
X14932261Y-14668660D01*
X14941785Y-14659137D01*
X14951309Y-14640089D01*
X14951309Y-14592470D01*
X14941785Y-14573422D01*
X14932261Y-14563898D01*
X14913214Y-14554375D01*
X14875118Y-14554375D01*
X14856071Y-14563898D01*
X14846547Y-14573422D01*
X14837023Y-14592470D01*
X15027499Y-14478184D02*
X15027499Y-14516279D01*
X15103690Y-14478184D02*
X15103690Y-14516279D01*
X15398928Y-14754375D02*
X15389404Y-14744851D01*
X15370357Y-14716279D01*
X15360833Y-14697232D01*
X15351309Y-14668660D01*
X15341785Y-14621041D01*
X15341785Y-14582946D01*
X15351309Y-14535327D01*
X15360833Y-14506756D01*
X15370357Y-14487708D01*
X15389404Y-14459137D01*
X15398928Y-14449613D01*
X15560833Y-14544851D02*
X15560833Y-14678184D01*
X15513214Y-14468660D02*
X15465595Y-14611518D01*
X15589404Y-14611518D01*
X15817976Y-14678184D02*
X15817976Y-14478184D01*
X15903690Y-14678184D02*
X15903690Y-14573422D01*
X15894166Y-14554375D01*
X15875118Y-14544851D01*
X15846547Y-14544851D01*
X15827499Y-14554375D01*
X15817976Y-14563898D01*
X16027499Y-14678184D02*
X16008452Y-14668660D01*
X15998928Y-14659137D01*
X15989404Y-14640089D01*
X15989404Y-14582946D01*
X15998928Y-14563898D01*
X16008452Y-14554375D01*
X16027499Y-14544851D01*
X16056071Y-14544851D01*
X16075118Y-14554375D01*
X16084642Y-14563898D01*
X16094166Y-14582946D01*
X16094166Y-14640089D01*
X16084642Y-14659137D01*
X16075118Y-14668660D01*
X16056071Y-14678184D01*
X16027499Y-14678184D01*
X16208452Y-14678184D02*
X16189404Y-14668660D01*
X16179880Y-14649613D01*
X16179880Y-14478184D01*
X16360833Y-14668660D02*
X16341785Y-14678184D01*
X16303690Y-14678184D01*
X16284642Y-14668660D01*
X16275118Y-14649613D01*
X16275118Y-14573422D01*
X16284642Y-14554375D01*
X16303690Y-14544851D01*
X16341785Y-14544851D01*
X16360833Y-14554375D01*
X16370357Y-14573422D01*
X16370357Y-14592470D01*
X16275118Y-14611518D01*
X16446547Y-14668660D02*
X16465595Y-14678184D01*
X16503690Y-14678184D01*
X16522737Y-14668660D01*
X16532261Y-14649613D01*
X16532261Y-14640089D01*
X16522737Y-14621041D01*
X16503690Y-14611518D01*
X16475118Y-14611518D01*
X16456071Y-14601994D01*
X16446547Y-14582946D01*
X16446547Y-14573422D01*
X16456071Y-14554375D01*
X16475118Y-14544851D01*
X16503690Y-14544851D01*
X16522737Y-14554375D01*
X16598928Y-14754375D02*
X16608452Y-14744851D01*
X16627499Y-14716279D01*
X16637023Y-14697232D01*
X16646547Y-14668660D01*
X16656071Y-14621041D01*
X16656071Y-14582946D01*
X16646547Y-14535327D01*
X16637023Y-14506756D01*
X16627499Y-14487708D01*
X16608452Y-14459137D01*
X16598928Y-14449613D01*
D15*
X11815308Y-14879993D02*
X11815308Y-14823424D01*
X11758739Y-14823424D01*
X11758739Y-14879993D01*
X11815308Y-14879993D01*
D11*
X12122737Y-14742184D02*
X12141785Y-14742184D01*
X12160833Y-14751708D01*
X12170357Y-14761232D01*
X12179880Y-14780279D01*
X12189404Y-14818375D01*
X12189404Y-14865994D01*
X12179880Y-14904089D01*
X12170357Y-14923137D01*
X12160833Y-14932660D01*
X12141785Y-14942184D01*
X12122737Y-14942184D01*
X12103690Y-14932660D01*
X12094166Y-14923137D01*
X12084642Y-14904089D01*
X12075118Y-14865994D01*
X12075118Y-14818375D01*
X12084642Y-14780279D01*
X12094166Y-14761232D01*
X12103690Y-14751708D01*
X12122737Y-14742184D01*
X12275118Y-14923137D02*
X12284642Y-14932660D01*
X12275118Y-14942184D01*
X12265595Y-14932660D01*
X12275118Y-14923137D01*
X12275118Y-14942184D01*
X12398928Y-14827898D02*
X12379880Y-14818375D01*
X12370357Y-14808851D01*
X12360833Y-14789803D01*
X12360833Y-14780279D01*
X12370357Y-14761232D01*
X12379880Y-14751708D01*
X12398928Y-14742184D01*
X12437023Y-14742184D01*
X12456071Y-14751708D01*
X12465595Y-14761232D01*
X12475118Y-14780279D01*
X12475118Y-14789803D01*
X12465595Y-14808851D01*
X12456071Y-14818375D01*
X12437023Y-14827898D01*
X12398928Y-14827898D01*
X12379880Y-14837422D01*
X12370357Y-14846946D01*
X12360833Y-14865994D01*
X12360833Y-14904089D01*
X12370357Y-14923137D01*
X12379880Y-14932660D01*
X12398928Y-14942184D01*
X12437023Y-14942184D01*
X12456071Y-14932660D01*
X12465595Y-14923137D01*
X12475118Y-14904089D01*
X12475118Y-14865994D01*
X12465595Y-14846946D01*
X12456071Y-14837422D01*
X12437023Y-14827898D01*
X12598928Y-14742184D02*
X12617976Y-14742184D01*
X12637023Y-14751708D01*
X12646547Y-14761232D01*
X12656071Y-14780279D01*
X12665595Y-14818375D01*
X12665595Y-14865994D01*
X12656071Y-14904089D01*
X12646547Y-14923137D01*
X12637023Y-14932660D01*
X12617976Y-14942184D01*
X12598928Y-14942184D01*
X12579880Y-14932660D01*
X12570357Y-14923137D01*
X12560833Y-14904089D01*
X12551309Y-14865994D01*
X12551309Y-14818375D01*
X12560833Y-14780279D01*
X12570357Y-14761232D01*
X12579880Y-14751708D01*
X12598928Y-14742184D01*
X12789404Y-14742184D02*
X12808452Y-14742184D01*
X12827499Y-14751708D01*
X12837023Y-14761232D01*
X12846547Y-14780279D01*
X12856071Y-14818375D01*
X12856071Y-14865994D01*
X12846547Y-14904089D01*
X12837023Y-14923137D01*
X12827499Y-14932660D01*
X12808452Y-14942184D01*
X12789404Y-14942184D01*
X12770357Y-14932660D01*
X12760833Y-14923137D01*
X12751309Y-14904089D01*
X12741785Y-14865994D01*
X12741785Y-14818375D01*
X12751309Y-14780279D01*
X12760833Y-14761232D01*
X12770357Y-14751708D01*
X12789404Y-14742184D01*
X12941785Y-14942184D02*
X12941785Y-14808851D01*
X12941785Y-14827898D02*
X12951309Y-14818375D01*
X12970357Y-14808851D01*
X12998928Y-14808851D01*
X13017976Y-14818375D01*
X13027499Y-14837422D01*
X13027499Y-14942184D01*
X13027499Y-14837422D02*
X13037023Y-14818375D01*
X13056071Y-14808851D01*
X13084642Y-14808851D01*
X13103690Y-14818375D01*
X13113214Y-14837422D01*
X13113214Y-14942184D01*
X13208452Y-14942184D02*
X13208452Y-14808851D01*
X13208452Y-14827898D02*
X13217976Y-14818375D01*
X13237023Y-14808851D01*
X13265595Y-14808851D01*
X13284642Y-14818375D01*
X13294166Y-14837422D01*
X13294166Y-14942184D01*
X13294166Y-14837422D02*
X13303690Y-14818375D01*
X13322737Y-14808851D01*
X13351309Y-14808851D01*
X13370357Y-14818375D01*
X13379880Y-14837422D01*
X13379880Y-14942184D01*
X13770357Y-14732660D02*
X13598928Y-14989803D01*
X14027499Y-14742184D02*
X14046547Y-14742184D01*
X14065595Y-14751708D01*
X14075118Y-14761232D01*
X14084642Y-14780279D01*
X14094166Y-14818375D01*
X14094166Y-14865994D01*
X14084642Y-14904089D01*
X14075118Y-14923137D01*
X14065595Y-14932660D01*
X14046547Y-14942184D01*
X14027499Y-14942184D01*
X14008452Y-14932660D01*
X13998928Y-14923137D01*
X13989404Y-14904089D01*
X13979880Y-14865994D01*
X13979880Y-14818375D01*
X13989404Y-14780279D01*
X13998928Y-14761232D01*
X14008452Y-14751708D01*
X14027499Y-14742184D01*
X14179880Y-14923137D02*
X14189404Y-14932660D01*
X14179880Y-14942184D01*
X14170357Y-14932660D01*
X14179880Y-14923137D01*
X14179880Y-14942184D01*
X14313214Y-14742184D02*
X14332261Y-14742184D01*
X14351309Y-14751708D01*
X14360833Y-14761232D01*
X14370357Y-14780279D01*
X14379880Y-14818375D01*
X14379880Y-14865994D01*
X14370357Y-14904089D01*
X14360833Y-14923137D01*
X14351309Y-14932660D01*
X14332261Y-14942184D01*
X14313214Y-14942184D01*
X14294166Y-14932660D01*
X14284642Y-14923137D01*
X14275118Y-14904089D01*
X14265595Y-14865994D01*
X14265595Y-14818375D01*
X14275118Y-14780279D01*
X14284642Y-14761232D01*
X14294166Y-14751708D01*
X14313214Y-14742184D01*
X14446547Y-14742184D02*
X14570357Y-14742184D01*
X14503690Y-14818375D01*
X14532261Y-14818375D01*
X14551309Y-14827898D01*
X14560833Y-14837422D01*
X14570357Y-14856470D01*
X14570357Y-14904089D01*
X14560833Y-14923137D01*
X14551309Y-14932660D01*
X14532261Y-14942184D01*
X14475118Y-14942184D01*
X14456071Y-14932660D01*
X14446547Y-14923137D01*
X14760833Y-14942184D02*
X14646547Y-14942184D01*
X14703690Y-14942184D02*
X14703690Y-14742184D01*
X14684642Y-14770756D01*
X14665595Y-14789803D01*
X14646547Y-14799327D01*
X14941785Y-14742184D02*
X14846547Y-14742184D01*
X14837023Y-14837422D01*
X14846547Y-14827898D01*
X14865595Y-14818375D01*
X14913214Y-14818375D01*
X14932261Y-14827898D01*
X14941785Y-14837422D01*
X14951309Y-14856470D01*
X14951309Y-14904089D01*
X14941785Y-14923137D01*
X14932261Y-14932660D01*
X14913214Y-14942184D01*
X14865595Y-14942184D01*
X14846547Y-14932660D01*
X14837023Y-14923137D01*
X15027499Y-14742184D02*
X15027499Y-14780279D01*
X15103690Y-14742184D02*
X15103690Y-14780279D01*
X15398928Y-15018375D02*
X15389404Y-15008851D01*
X15370357Y-14980279D01*
X15360833Y-14961232D01*
X15351309Y-14932660D01*
X15341785Y-14885041D01*
X15341785Y-14846946D01*
X15351309Y-14799327D01*
X15360833Y-14770756D01*
X15370357Y-14751708D01*
X15389404Y-14723137D01*
X15398928Y-14713613D01*
X15579880Y-14942184D02*
X15465595Y-14942184D01*
X15522737Y-14942184D02*
X15522737Y-14742184D01*
X15503690Y-14770756D01*
X15484642Y-14789803D01*
X15465595Y-14799327D01*
X15770357Y-14942184D02*
X15656071Y-14942184D01*
X15713214Y-14942184D02*
X15713214Y-14742184D01*
X15694166Y-14770756D01*
X15675118Y-14789803D01*
X15656071Y-14799327D01*
X16008452Y-14942184D02*
X16008452Y-14742184D01*
X16094166Y-14942184D02*
X16094166Y-14837422D01*
X16084642Y-14818375D01*
X16065595Y-14808851D01*
X16037023Y-14808851D01*
X16017976Y-14818375D01*
X16008452Y-14827898D01*
X16217976Y-14942184D02*
X16198928Y-14932660D01*
X16189404Y-14923137D01*
X16179880Y-14904089D01*
X16179880Y-14846946D01*
X16189404Y-14827898D01*
X16198928Y-14818375D01*
X16217976Y-14808851D01*
X16246547Y-14808851D01*
X16265595Y-14818375D01*
X16275118Y-14827898D01*
X16284642Y-14846946D01*
X16284642Y-14904089D01*
X16275118Y-14923137D01*
X16265595Y-14932660D01*
X16246547Y-14942184D01*
X16217976Y-14942184D01*
X16398928Y-14942184D02*
X16379880Y-14932660D01*
X16370357Y-14913613D01*
X16370357Y-14742184D01*
X16551309Y-14932660D02*
X16532261Y-14942184D01*
X16494166Y-14942184D01*
X16475118Y-14932660D01*
X16465595Y-14913613D01*
X16465595Y-14837422D01*
X16475118Y-14818375D01*
X16494166Y-14808851D01*
X16532261Y-14808851D01*
X16551309Y-14818375D01*
X16560833Y-14837422D01*
X16560833Y-14856470D01*
X16465595Y-14875518D01*
X16637023Y-14932660D02*
X16656071Y-14942184D01*
X16694166Y-14942184D01*
X16713214Y-14932660D01*
X16722737Y-14913613D01*
X16722737Y-14904089D01*
X16713214Y-14885041D01*
X16694166Y-14875518D01*
X16665595Y-14875518D01*
X16646547Y-14865994D01*
X16637023Y-14846946D01*
X16637023Y-14837422D01*
X16646547Y-14818375D01*
X16665595Y-14808851D01*
X16694166Y-14808851D01*
X16713214Y-14818375D01*
X16789404Y-15018375D02*
X16798928Y-15008851D01*
X16817976Y-14980279D01*
X16827499Y-14961232D01*
X16837023Y-14932660D01*
X16846547Y-14885041D01*
X16846547Y-14846946D01*
X16837023Y-14799327D01*
X16827499Y-14770756D01*
X16817976Y-14751708D01*
X16798928Y-14723137D01*
X16789404Y-14713613D01*
D16*
X11779523Y-15163208D02*
X11827023Y-15115708D01*
X11779523Y-15068208D01*
X11732023Y-15115708D01*
X11779523Y-15163208D01*
D11*
X12122737Y-15006184D02*
X12141785Y-15006184D01*
X12160833Y-15015708D01*
X12170357Y-15025232D01*
X12179880Y-15044279D01*
X12189404Y-15082375D01*
X12189404Y-15129994D01*
X12179880Y-15168089D01*
X12170357Y-15187137D01*
X12160833Y-15196660D01*
X12141785Y-15206184D01*
X12122737Y-15206184D01*
X12103690Y-15196660D01*
X12094166Y-15187137D01*
X12084642Y-15168089D01*
X12075118Y-15129994D01*
X12075118Y-15082375D01*
X12084642Y-15044279D01*
X12094166Y-15025232D01*
X12103690Y-15015708D01*
X12122737Y-15006184D01*
X12275118Y-15187137D02*
X12284642Y-15196660D01*
X12275118Y-15206184D01*
X12265595Y-15196660D01*
X12275118Y-15187137D01*
X12275118Y-15206184D01*
X12379880Y-15206184D02*
X12417976Y-15206184D01*
X12437023Y-15196660D01*
X12446547Y-15187137D01*
X12465595Y-15158565D01*
X12475118Y-15120470D01*
X12475118Y-15044279D01*
X12465595Y-15025232D01*
X12456071Y-15015708D01*
X12437023Y-15006184D01*
X12398928Y-15006184D01*
X12379880Y-15015708D01*
X12370357Y-15025232D01*
X12360833Y-15044279D01*
X12360833Y-15091898D01*
X12370357Y-15110946D01*
X12379880Y-15120470D01*
X12398928Y-15129994D01*
X12437023Y-15129994D01*
X12456071Y-15120470D01*
X12465595Y-15110946D01*
X12475118Y-15091898D01*
X12656071Y-15006184D02*
X12560833Y-15006184D01*
X12551309Y-15101422D01*
X12560833Y-15091898D01*
X12579880Y-15082375D01*
X12627499Y-15082375D01*
X12646547Y-15091898D01*
X12656071Y-15101422D01*
X12665595Y-15120470D01*
X12665595Y-15168089D01*
X12656071Y-15187137D01*
X12646547Y-15196660D01*
X12627499Y-15206184D01*
X12579880Y-15206184D01*
X12560833Y-15196660D01*
X12551309Y-15187137D01*
X12789404Y-15006184D02*
X12808452Y-15006184D01*
X12827499Y-15015708D01*
X12837023Y-15025232D01*
X12846547Y-15044279D01*
X12856071Y-15082375D01*
X12856071Y-15129994D01*
X12846547Y-15168089D01*
X12837023Y-15187137D01*
X12827499Y-15196660D01*
X12808452Y-15206184D01*
X12789404Y-15206184D01*
X12770357Y-15196660D01*
X12760833Y-15187137D01*
X12751309Y-15168089D01*
X12741785Y-15129994D01*
X12741785Y-15082375D01*
X12751309Y-15044279D01*
X12760833Y-15025232D01*
X12770357Y-15015708D01*
X12789404Y-15006184D01*
X12941785Y-15206184D02*
X12941785Y-15072851D01*
X12941785Y-15091898D02*
X12951309Y-15082375D01*
X12970357Y-15072851D01*
X12998928Y-15072851D01*
X13017976Y-15082375D01*
X13027499Y-15101422D01*
X13027499Y-15206184D01*
X13027499Y-15101422D02*
X13037023Y-15082375D01*
X13056071Y-15072851D01*
X13084642Y-15072851D01*
X13103690Y-15082375D01*
X13113214Y-15101422D01*
X13113214Y-15206184D01*
X13208452Y-15206184D02*
X13208452Y-15072851D01*
X13208452Y-15091898D02*
X13217976Y-15082375D01*
X13237023Y-15072851D01*
X13265595Y-15072851D01*
X13284642Y-15082375D01*
X13294166Y-15101422D01*
X13294166Y-15206184D01*
X13294166Y-15101422D02*
X13303690Y-15082375D01*
X13322737Y-15072851D01*
X13351309Y-15072851D01*
X13370357Y-15082375D01*
X13379880Y-15101422D01*
X13379880Y-15206184D01*
X13770357Y-14996660D02*
X13598928Y-15253803D01*
X14027499Y-15006184D02*
X14046547Y-15006184D01*
X14065595Y-15015708D01*
X14075118Y-15025232D01*
X14084642Y-15044279D01*
X14094166Y-15082375D01*
X14094166Y-15129994D01*
X14084642Y-15168089D01*
X14075118Y-15187137D01*
X14065595Y-15196660D01*
X14046547Y-15206184D01*
X14027499Y-15206184D01*
X14008452Y-15196660D01*
X13998928Y-15187137D01*
X13989404Y-15168089D01*
X13979880Y-15129994D01*
X13979880Y-15082375D01*
X13989404Y-15044279D01*
X13998928Y-15025232D01*
X14008452Y-15015708D01*
X14027499Y-15006184D01*
X14179880Y-15187137D02*
X14189404Y-15196660D01*
X14179880Y-15206184D01*
X14170357Y-15196660D01*
X14179880Y-15187137D01*
X14179880Y-15206184D01*
X14313214Y-15006184D02*
X14332261Y-15006184D01*
X14351309Y-15015708D01*
X14360833Y-15025232D01*
X14370357Y-15044279D01*
X14379880Y-15082375D01*
X14379880Y-15129994D01*
X14370357Y-15168089D01*
X14360833Y-15187137D01*
X14351309Y-15196660D01*
X14332261Y-15206184D01*
X14313214Y-15206184D01*
X14294166Y-15196660D01*
X14284642Y-15187137D01*
X14275118Y-15168089D01*
X14265595Y-15129994D01*
X14265595Y-15082375D01*
X14275118Y-15044279D01*
X14284642Y-15025232D01*
X14294166Y-15015708D01*
X14313214Y-15006184D01*
X14446547Y-15006184D02*
X14570357Y-15006184D01*
X14503690Y-15082375D01*
X14532261Y-15082375D01*
X14551309Y-15091898D01*
X14560833Y-15101422D01*
X14570357Y-15120470D01*
X14570357Y-15168089D01*
X14560833Y-15187137D01*
X14551309Y-15196660D01*
X14532261Y-15206184D01*
X14475118Y-15206184D01*
X14456071Y-15196660D01*
X14446547Y-15187137D01*
X14637023Y-15006184D02*
X14770357Y-15006184D01*
X14684642Y-15206184D01*
X14932261Y-15072851D02*
X14932261Y-15206184D01*
X14884642Y-14996660D02*
X14837023Y-15139518D01*
X14960833Y-15139518D01*
X15027499Y-15006184D02*
X15027499Y-15044279D01*
X15103690Y-15006184D02*
X15103690Y-15044279D01*
X15398928Y-15282375D02*
X15389404Y-15272851D01*
X15370357Y-15244279D01*
X15360833Y-15225232D01*
X15351309Y-15196660D01*
X15341785Y-15149041D01*
X15341785Y-15110946D01*
X15351309Y-15063327D01*
X15360833Y-15034756D01*
X15370357Y-15015708D01*
X15389404Y-14987137D01*
X15398928Y-14977613D01*
X15456071Y-15006184D02*
X15579880Y-15006184D01*
X15513214Y-15082375D01*
X15541785Y-15082375D01*
X15560833Y-15091898D01*
X15570357Y-15101422D01*
X15579880Y-15120470D01*
X15579880Y-15168089D01*
X15570357Y-15187137D01*
X15560833Y-15196660D01*
X15541785Y-15206184D01*
X15484642Y-15206184D01*
X15465595Y-15196660D01*
X15456071Y-15187137D01*
X15817976Y-15206184D02*
X15817976Y-15006184D01*
X15903690Y-15206184D02*
X15903690Y-15101422D01*
X15894166Y-15082375D01*
X15875118Y-15072851D01*
X15846547Y-15072851D01*
X15827499Y-15082375D01*
X15817976Y-15091898D01*
X16027499Y-15206184D02*
X16008452Y-15196660D01*
X15998928Y-15187137D01*
X15989404Y-15168089D01*
X15989404Y-15110946D01*
X15998928Y-15091898D01*
X16008452Y-15082375D01*
X16027499Y-15072851D01*
X16056071Y-15072851D01*
X16075118Y-15082375D01*
X16084642Y-15091898D01*
X16094166Y-15110946D01*
X16094166Y-15168089D01*
X16084642Y-15187137D01*
X16075118Y-15196660D01*
X16056071Y-15206184D01*
X16027499Y-15206184D01*
X16208452Y-15206184D02*
X16189404Y-15196660D01*
X16179880Y-15177613D01*
X16179880Y-15006184D01*
X16360833Y-15196660D02*
X16341785Y-15206184D01*
X16303690Y-15206184D01*
X16284642Y-15196660D01*
X16275118Y-15177613D01*
X16275118Y-15101422D01*
X16284642Y-15082375D01*
X16303690Y-15072851D01*
X16341785Y-15072851D01*
X16360833Y-15082375D01*
X16370357Y-15101422D01*
X16370357Y-15120470D01*
X16275118Y-15139518D01*
X16446547Y-15196660D02*
X16465595Y-15206184D01*
X16503690Y-15206184D01*
X16522737Y-15196660D01*
X16532261Y-15177613D01*
X16532261Y-15168089D01*
X16522737Y-15149041D01*
X16503690Y-15139518D01*
X16475118Y-15139518D01*
X16456071Y-15129994D01*
X16446547Y-15110946D01*
X16446547Y-15101422D01*
X16456071Y-15082375D01*
X16475118Y-15072851D01*
X16503690Y-15072851D01*
X16522737Y-15082375D01*
X16598928Y-15282375D02*
X16608452Y-15272851D01*
X16627499Y-15244279D01*
X16637023Y-15225232D01*
X16646547Y-15196660D01*
X16656071Y-15149041D01*
X16656071Y-15110946D01*
X16646547Y-15063327D01*
X16637023Y-15034756D01*
X16627499Y-15015708D01*
X16608452Y-14987137D01*
X16598928Y-14977613D01*
D17*
X11727023Y-15329708D02*
X11827023Y-15429708D01*
X11827023Y-15329708D02*
X11727023Y-15429708D01*
X11827023Y-15379708D02*
G75*
G03*
X11827023Y-15379708I-50000J0D01*
G01*
D11*
X12189404Y-15470184D02*
X12075118Y-15470184D01*
X12132261Y-15470184D02*
X12132261Y-15270184D01*
X12113214Y-15298756D01*
X12094166Y-15317803D01*
X12075118Y-15327327D01*
X12275118Y-15451137D02*
X12284642Y-15460660D01*
X12275118Y-15470184D01*
X12265595Y-15460660D01*
X12275118Y-15451137D01*
X12275118Y-15470184D01*
X12408452Y-15270184D02*
X12427499Y-15270184D01*
X12446547Y-15279708D01*
X12456071Y-15289232D01*
X12465595Y-15308279D01*
X12475118Y-15346375D01*
X12475118Y-15393994D01*
X12465595Y-15432089D01*
X12456071Y-15451137D01*
X12446547Y-15460660D01*
X12427499Y-15470184D01*
X12408452Y-15470184D01*
X12389404Y-15460660D01*
X12379880Y-15451137D01*
X12370357Y-15432089D01*
X12360833Y-15393994D01*
X12360833Y-15346375D01*
X12370357Y-15308279D01*
X12379880Y-15289232D01*
X12389404Y-15279708D01*
X12408452Y-15270184D01*
X12598928Y-15270184D02*
X12617976Y-15270184D01*
X12637023Y-15279708D01*
X12646547Y-15289232D01*
X12656071Y-15308279D01*
X12665595Y-15346375D01*
X12665595Y-15393994D01*
X12656071Y-15432089D01*
X12646547Y-15451137D01*
X12637023Y-15460660D01*
X12617976Y-15470184D01*
X12598928Y-15470184D01*
X12579880Y-15460660D01*
X12570357Y-15451137D01*
X12560833Y-15432089D01*
X12551309Y-15393994D01*
X12551309Y-15346375D01*
X12560833Y-15308279D01*
X12570357Y-15289232D01*
X12579880Y-15279708D01*
X12598928Y-15270184D01*
X12789404Y-15270184D02*
X12808452Y-15270184D01*
X12827499Y-15279708D01*
X12837023Y-15289232D01*
X12846547Y-15308279D01*
X12856071Y-15346375D01*
X12856071Y-15393994D01*
X12846547Y-15432089D01*
X12837023Y-15451137D01*
X12827499Y-15460660D01*
X12808452Y-15470184D01*
X12789404Y-15470184D01*
X12770357Y-15460660D01*
X12760833Y-15451137D01*
X12751309Y-15432089D01*
X12741785Y-15393994D01*
X12741785Y-15346375D01*
X12751309Y-15308279D01*
X12760833Y-15289232D01*
X12770357Y-15279708D01*
X12789404Y-15270184D01*
X12941785Y-15470184D02*
X12941785Y-15336851D01*
X12941785Y-15355898D02*
X12951309Y-15346375D01*
X12970357Y-15336851D01*
X12998928Y-15336851D01*
X13017976Y-15346375D01*
X13027499Y-15365422D01*
X13027499Y-15470184D01*
X13027499Y-15365422D02*
X13037023Y-15346375D01*
X13056071Y-15336851D01*
X13084642Y-15336851D01*
X13103690Y-15346375D01*
X13113214Y-15365422D01*
X13113214Y-15470184D01*
X13208452Y-15470184D02*
X13208452Y-15336851D01*
X13208452Y-15355898D02*
X13217976Y-15346375D01*
X13237023Y-15336851D01*
X13265595Y-15336851D01*
X13284642Y-15346375D01*
X13294166Y-15365422D01*
X13294166Y-15470184D01*
X13294166Y-15365422D02*
X13303690Y-15346375D01*
X13322737Y-15336851D01*
X13351309Y-15336851D01*
X13370357Y-15346375D01*
X13379880Y-15365422D01*
X13379880Y-15470184D01*
X13770357Y-15260660D02*
X13598928Y-15517803D01*
X14027499Y-15270184D02*
X14046547Y-15270184D01*
X14065595Y-15279708D01*
X14075118Y-15289232D01*
X14084642Y-15308279D01*
X14094166Y-15346375D01*
X14094166Y-15393994D01*
X14084642Y-15432089D01*
X14075118Y-15451137D01*
X14065595Y-15460660D01*
X14046547Y-15470184D01*
X14027499Y-15470184D01*
X14008452Y-15460660D01*
X13998928Y-15451137D01*
X13989404Y-15432089D01*
X13979880Y-15393994D01*
X13979880Y-15346375D01*
X13989404Y-15308279D01*
X13998928Y-15289232D01*
X14008452Y-15279708D01*
X14027499Y-15270184D01*
X14179880Y-15451137D02*
X14189404Y-15460660D01*
X14179880Y-15470184D01*
X14170357Y-15460660D01*
X14179880Y-15451137D01*
X14179880Y-15470184D01*
X14313214Y-15270184D02*
X14332261Y-15270184D01*
X14351309Y-15279708D01*
X14360833Y-15289232D01*
X14370357Y-15308279D01*
X14379880Y-15346375D01*
X14379880Y-15393994D01*
X14370357Y-15432089D01*
X14360833Y-15451137D01*
X14351309Y-15460660D01*
X14332261Y-15470184D01*
X14313214Y-15470184D01*
X14294166Y-15460660D01*
X14284642Y-15451137D01*
X14275118Y-15432089D01*
X14265595Y-15393994D01*
X14265595Y-15346375D01*
X14275118Y-15308279D01*
X14284642Y-15289232D01*
X14294166Y-15279708D01*
X14313214Y-15270184D01*
X14446547Y-15270184D02*
X14570357Y-15270184D01*
X14503690Y-15346375D01*
X14532261Y-15346375D01*
X14551309Y-15355898D01*
X14560833Y-15365422D01*
X14570357Y-15384470D01*
X14570357Y-15432089D01*
X14560833Y-15451137D01*
X14551309Y-15460660D01*
X14532261Y-15470184D01*
X14475118Y-15470184D01*
X14456071Y-15460660D01*
X14446547Y-15451137D01*
X14665595Y-15470184D02*
X14703690Y-15470184D01*
X14722737Y-15460660D01*
X14732261Y-15451137D01*
X14751309Y-15422565D01*
X14760833Y-15384470D01*
X14760833Y-15308279D01*
X14751309Y-15289232D01*
X14741785Y-15279708D01*
X14722737Y-15270184D01*
X14684642Y-15270184D01*
X14665595Y-15279708D01*
X14656071Y-15289232D01*
X14646547Y-15308279D01*
X14646547Y-15355898D01*
X14656071Y-15374946D01*
X14665595Y-15384470D01*
X14684642Y-15393994D01*
X14722737Y-15393994D01*
X14741785Y-15384470D01*
X14751309Y-15374946D01*
X14760833Y-15355898D01*
X14932261Y-15336851D02*
X14932261Y-15470184D01*
X14884642Y-15260660D02*
X14837023Y-15403518D01*
X14960833Y-15403518D01*
X15027499Y-15270184D02*
X15027499Y-15308279D01*
X15103690Y-15270184D02*
X15103690Y-15308279D01*
X15398928Y-15546375D02*
X15389404Y-15536851D01*
X15370357Y-15508279D01*
X15360833Y-15489232D01*
X15351309Y-15460660D01*
X15341785Y-15413041D01*
X15341785Y-15374946D01*
X15351309Y-15327327D01*
X15360833Y-15298756D01*
X15370357Y-15279708D01*
X15389404Y-15251137D01*
X15398928Y-15241613D01*
X15456071Y-15270184D02*
X15589404Y-15270184D01*
X15503690Y-15470184D01*
X15817976Y-15470184D02*
X15817976Y-15270184D01*
X15903690Y-15470184D02*
X15903690Y-15365422D01*
X15894166Y-15346375D01*
X15875118Y-15336851D01*
X15846547Y-15336851D01*
X15827499Y-15346375D01*
X15817976Y-15355898D01*
X16027499Y-15470184D02*
X16008452Y-15460660D01*
X15998928Y-15451137D01*
X15989404Y-15432089D01*
X15989404Y-15374946D01*
X15998928Y-15355898D01*
X16008452Y-15346375D01*
X16027499Y-15336851D01*
X16056071Y-15336851D01*
X16075118Y-15346375D01*
X16084642Y-15355898D01*
X16094166Y-15374946D01*
X16094166Y-15432089D01*
X16084642Y-15451137D01*
X16075118Y-15460660D01*
X16056071Y-15470184D01*
X16027499Y-15470184D01*
X16208452Y-15470184D02*
X16189404Y-15460660D01*
X16179880Y-15441613D01*
X16179880Y-15270184D01*
X16360833Y-15460660D02*
X16341785Y-15470184D01*
X16303690Y-15470184D01*
X16284642Y-15460660D01*
X16275118Y-15441613D01*
X16275118Y-15365422D01*
X16284642Y-15346375D01*
X16303690Y-15336851D01*
X16341785Y-15336851D01*
X16360833Y-15346375D01*
X16370357Y-15365422D01*
X16370357Y-15384470D01*
X16275118Y-15403518D01*
X16446547Y-15460660D02*
X16465595Y-15470184D01*
X16503690Y-15470184D01*
X16522737Y-15460660D01*
X16532261Y-15441613D01*
X16532261Y-15432089D01*
X16522737Y-15413041D01*
X16503690Y-15403518D01*
X16475118Y-15403518D01*
X16456071Y-15393994D01*
X16446547Y-15374946D01*
X16446547Y-15365422D01*
X16456071Y-15346375D01*
X16475118Y-15336851D01*
X16503690Y-15336851D01*
X16522737Y-15346375D01*
X16770357Y-15393994D02*
X16922738Y-15393994D01*
X16846547Y-15470184D02*
X16846547Y-15317803D01*
X17160833Y-15289232D02*
X17170357Y-15279708D01*
X17189404Y-15270184D01*
X17237023Y-15270184D01*
X17256071Y-15279708D01*
X17265595Y-15289232D01*
X17275119Y-15308279D01*
X17275119Y-15327327D01*
X17265595Y-15355898D01*
X17151309Y-15470184D01*
X17275119Y-15470184D01*
X17503690Y-15460660D02*
X17522738Y-15470184D01*
X17560833Y-15470184D01*
X17579880Y-15460660D01*
X17589404Y-15441613D01*
X17589404Y-15432089D01*
X17579880Y-15413041D01*
X17560833Y-15403518D01*
X17532261Y-15403518D01*
X17513214Y-15393994D01*
X17503690Y-15374946D01*
X17503690Y-15365422D01*
X17513214Y-15346375D01*
X17532261Y-15336851D01*
X17560833Y-15336851D01*
X17579880Y-15346375D01*
X17703690Y-15470184D02*
X17684642Y-15460660D01*
X17675119Y-15441613D01*
X17675119Y-15270184D01*
X17808452Y-15470184D02*
X17789404Y-15460660D01*
X17779880Y-15451137D01*
X17770357Y-15432089D01*
X17770357Y-15374946D01*
X17779880Y-15355898D01*
X17789404Y-15346375D01*
X17808452Y-15336851D01*
X17837023Y-15336851D01*
X17856071Y-15346375D01*
X17865595Y-15355898D01*
X17875119Y-15374946D01*
X17875119Y-15432089D01*
X17865595Y-15451137D01*
X17856071Y-15460660D01*
X17837023Y-15470184D01*
X17808452Y-15470184D01*
X17932261Y-15336851D02*
X18008452Y-15336851D01*
X17960833Y-15270184D02*
X17960833Y-15441613D01*
X17970357Y-15460660D01*
X17989404Y-15470184D01*
X18008452Y-15470184D01*
X18065595Y-15460660D02*
X18084642Y-15470184D01*
X18122738Y-15470184D01*
X18141785Y-15460660D01*
X18151309Y-15441613D01*
X18151309Y-15432089D01*
X18141785Y-15413041D01*
X18122738Y-15403518D01*
X18094166Y-15403518D01*
X18075119Y-15393994D01*
X18065595Y-15374946D01*
X18065595Y-15365422D01*
X18075119Y-15346375D01*
X18094166Y-15336851D01*
X18122738Y-15336851D01*
X18141785Y-15346375D01*
X18217976Y-15546375D02*
X18227499Y-15536851D01*
X18246547Y-15508279D01*
X18256071Y-15489232D01*
X18265595Y-15460660D01*
X18275119Y-15413041D01*
X18275119Y-15374946D01*
X18265595Y-15327327D01*
X18256071Y-15298756D01*
X18246547Y-15279708D01*
X18227499Y-15251137D01*
X18217976Y-15241613D01*
D18*
X11718023Y-15589208D02*
X11827023Y-15698208D01*
X11827023Y-15589208D02*
X11718023Y-15698208D01*
X11772523Y-15589208D02*
X11772523Y-15698208D01*
X11718023Y-15643708D02*
X11827023Y-15643708D01*
D11*
X12189404Y-15734184D02*
X12075118Y-15734184D01*
X12132261Y-15734184D02*
X12132261Y-15534184D01*
X12113214Y-15562756D01*
X12094166Y-15581803D01*
X12075118Y-15591327D01*
X12275118Y-15715137D02*
X12284642Y-15724660D01*
X12275118Y-15734184D01*
X12265595Y-15724660D01*
X12275118Y-15715137D01*
X12275118Y-15734184D01*
X12408452Y-15534184D02*
X12427499Y-15534184D01*
X12446547Y-15543708D01*
X12456071Y-15553232D01*
X12465595Y-15572279D01*
X12475118Y-15610375D01*
X12475118Y-15657994D01*
X12465595Y-15696089D01*
X12456071Y-15715137D01*
X12446547Y-15724660D01*
X12427499Y-15734184D01*
X12408452Y-15734184D01*
X12389404Y-15724660D01*
X12379880Y-15715137D01*
X12370357Y-15696089D01*
X12360833Y-15657994D01*
X12360833Y-15610375D01*
X12370357Y-15572279D01*
X12379880Y-15553232D01*
X12389404Y-15543708D01*
X12408452Y-15534184D01*
X12570357Y-15734184D02*
X12608452Y-15734184D01*
X12627499Y-15724660D01*
X12637023Y-15715137D01*
X12656071Y-15686565D01*
X12665595Y-15648470D01*
X12665595Y-15572279D01*
X12656071Y-15553232D01*
X12646547Y-15543708D01*
X12627499Y-15534184D01*
X12589404Y-15534184D01*
X12570357Y-15543708D01*
X12560833Y-15553232D01*
X12551309Y-15572279D01*
X12551309Y-15619898D01*
X12560833Y-15638946D01*
X12570357Y-15648470D01*
X12589404Y-15657994D01*
X12627499Y-15657994D01*
X12646547Y-15648470D01*
X12656071Y-15638946D01*
X12665595Y-15619898D01*
X12789404Y-15534184D02*
X12808452Y-15534184D01*
X12827499Y-15543708D01*
X12837023Y-15553232D01*
X12846547Y-15572279D01*
X12856071Y-15610375D01*
X12856071Y-15657994D01*
X12846547Y-15696089D01*
X12837023Y-15715137D01*
X12827499Y-15724660D01*
X12808452Y-15734184D01*
X12789404Y-15734184D01*
X12770357Y-15724660D01*
X12760833Y-15715137D01*
X12751309Y-15696089D01*
X12741785Y-15657994D01*
X12741785Y-15610375D01*
X12751309Y-15572279D01*
X12760833Y-15553232D01*
X12770357Y-15543708D01*
X12789404Y-15534184D01*
X12941785Y-15734184D02*
X12941785Y-15600851D01*
X12941785Y-15619898D02*
X12951309Y-15610375D01*
X12970357Y-15600851D01*
X12998928Y-15600851D01*
X13017976Y-15610375D01*
X13027499Y-15629422D01*
X13027499Y-15734184D01*
X13027499Y-15629422D02*
X13037023Y-15610375D01*
X13056071Y-15600851D01*
X13084642Y-15600851D01*
X13103690Y-15610375D01*
X13113214Y-15629422D01*
X13113214Y-15734184D01*
X13208452Y-15734184D02*
X13208452Y-15600851D01*
X13208452Y-15619898D02*
X13217976Y-15610375D01*
X13237023Y-15600851D01*
X13265595Y-15600851D01*
X13284642Y-15610375D01*
X13294166Y-15629422D01*
X13294166Y-15734184D01*
X13294166Y-15629422D02*
X13303690Y-15610375D01*
X13322737Y-15600851D01*
X13351309Y-15600851D01*
X13370357Y-15610375D01*
X13379880Y-15629422D01*
X13379880Y-15734184D01*
X13770357Y-15524660D02*
X13598928Y-15781803D01*
X14027499Y-15534184D02*
X14046547Y-15534184D01*
X14065595Y-15543708D01*
X14075118Y-15553232D01*
X14084642Y-15572279D01*
X14094166Y-15610375D01*
X14094166Y-15657994D01*
X14084642Y-15696089D01*
X14075118Y-15715137D01*
X14065595Y-15724660D01*
X14046547Y-15734184D01*
X14027499Y-15734184D01*
X14008452Y-15724660D01*
X13998928Y-15715137D01*
X13989404Y-15696089D01*
X13979880Y-15657994D01*
X13979880Y-15610375D01*
X13989404Y-15572279D01*
X13998928Y-15553232D01*
X14008452Y-15543708D01*
X14027499Y-15534184D01*
X14179880Y-15715137D02*
X14189404Y-15724660D01*
X14179880Y-15734184D01*
X14170357Y-15724660D01*
X14179880Y-15715137D01*
X14179880Y-15734184D01*
X14313214Y-15534184D02*
X14332261Y-15534184D01*
X14351309Y-15543708D01*
X14360833Y-15553232D01*
X14370357Y-15572279D01*
X14379880Y-15610375D01*
X14379880Y-15657994D01*
X14370357Y-15696089D01*
X14360833Y-15715137D01*
X14351309Y-15724660D01*
X14332261Y-15734184D01*
X14313214Y-15734184D01*
X14294166Y-15724660D01*
X14284642Y-15715137D01*
X14275118Y-15696089D01*
X14265595Y-15657994D01*
X14265595Y-15610375D01*
X14275118Y-15572279D01*
X14284642Y-15553232D01*
X14294166Y-15543708D01*
X14313214Y-15534184D01*
X14551309Y-15600851D02*
X14551309Y-15734184D01*
X14503690Y-15524660D02*
X14456071Y-15667518D01*
X14579880Y-15667518D01*
X14646547Y-15553232D02*
X14656071Y-15543708D01*
X14675118Y-15534184D01*
X14722737Y-15534184D01*
X14741785Y-15543708D01*
X14751309Y-15553232D01*
X14760833Y-15572279D01*
X14760833Y-15591327D01*
X14751309Y-15619898D01*
X14637023Y-15734184D01*
X14760833Y-15734184D01*
X14856071Y-15734184D02*
X14894166Y-15734184D01*
X14913214Y-15724660D01*
X14922737Y-15715137D01*
X14941785Y-15686565D01*
X14951309Y-15648470D01*
X14951309Y-15572279D01*
X14941785Y-15553232D01*
X14932261Y-15543708D01*
X14913214Y-15534184D01*
X14875118Y-15534184D01*
X14856071Y-15543708D01*
X14846547Y-15553232D01*
X14837023Y-15572279D01*
X14837023Y-15619898D01*
X14846547Y-15638946D01*
X14856071Y-15648470D01*
X14875118Y-15657994D01*
X14913214Y-15657994D01*
X14932261Y-15648470D01*
X14941785Y-15638946D01*
X14951309Y-15619898D01*
X15027499Y-15534184D02*
X15027499Y-15572279D01*
X15103690Y-15534184D02*
X15103690Y-15572279D01*
X15398928Y-15810375D02*
X15389404Y-15800851D01*
X15370357Y-15772279D01*
X15360833Y-15753232D01*
X15351309Y-15724660D01*
X15341785Y-15677041D01*
X15341785Y-15638946D01*
X15351309Y-15591327D01*
X15360833Y-15562756D01*
X15370357Y-15543708D01*
X15389404Y-15515137D01*
X15398928Y-15505613D01*
X15456071Y-15534184D02*
X15579880Y-15534184D01*
X15513214Y-15610375D01*
X15541785Y-15610375D01*
X15560833Y-15619898D01*
X15570357Y-15629422D01*
X15579880Y-15648470D01*
X15579880Y-15696089D01*
X15570357Y-15715137D01*
X15560833Y-15724660D01*
X15541785Y-15734184D01*
X15484642Y-15734184D01*
X15465595Y-15724660D01*
X15456071Y-15715137D01*
X15817976Y-15734184D02*
X15817976Y-15534184D01*
X15903690Y-15734184D02*
X15903690Y-15629422D01*
X15894166Y-15610375D01*
X15875118Y-15600851D01*
X15846547Y-15600851D01*
X15827499Y-15610375D01*
X15817976Y-15619898D01*
X16027499Y-15734184D02*
X16008452Y-15724660D01*
X15998928Y-15715137D01*
X15989404Y-15696089D01*
X15989404Y-15638946D01*
X15998928Y-15619898D01*
X16008452Y-15610375D01*
X16027499Y-15600851D01*
X16056071Y-15600851D01*
X16075118Y-15610375D01*
X16084642Y-15619898D01*
X16094166Y-15638946D01*
X16094166Y-15696089D01*
X16084642Y-15715137D01*
X16075118Y-15724660D01*
X16056071Y-15734184D01*
X16027499Y-15734184D01*
X16208452Y-15734184D02*
X16189404Y-15724660D01*
X16179880Y-15705613D01*
X16179880Y-15534184D01*
X16360833Y-15724660D02*
X16341785Y-15734184D01*
X16303690Y-15734184D01*
X16284642Y-15724660D01*
X16275118Y-15705613D01*
X16275118Y-15629422D01*
X16284642Y-15610375D01*
X16303690Y-15600851D01*
X16341785Y-15600851D01*
X16360833Y-15610375D01*
X16370357Y-15629422D01*
X16370357Y-15648470D01*
X16275118Y-15667518D01*
X16446547Y-15724660D02*
X16465595Y-15734184D01*
X16503690Y-15734184D01*
X16522737Y-15724660D01*
X16532261Y-15705613D01*
X16532261Y-15696089D01*
X16522737Y-15677041D01*
X16503690Y-15667518D01*
X16475118Y-15667518D01*
X16456071Y-15657994D01*
X16446547Y-15638946D01*
X16446547Y-15629422D01*
X16456071Y-15610375D01*
X16475118Y-15600851D01*
X16503690Y-15600851D01*
X16522737Y-15610375D01*
X16598928Y-15810375D02*
X16608452Y-15800851D01*
X16627499Y-15772279D01*
X16637023Y-15753232D01*
X16646547Y-15724660D01*
X16656071Y-15677041D01*
X16656071Y-15638946D01*
X16646547Y-15591327D01*
X16637023Y-15562756D01*
X16627499Y-15543708D01*
X16608452Y-15515137D01*
X16598928Y-15505613D01*
D19*
X11687023Y-15837708D02*
X11827023Y-15977708D01*
X11827023Y-15837708D02*
X11687023Y-15977708D01*
X11806521Y-15957206D02*
X11806521Y-15858210D01*
X11707525Y-15858210D01*
X11707525Y-15957206D01*
X11806521Y-15957206D01*
D11*
X12189404Y-15998184D02*
X12075118Y-15998184D01*
X12132261Y-15998184D02*
X12132261Y-15798184D01*
X12113214Y-15826756D01*
X12094166Y-15845803D01*
X12075118Y-15855327D01*
X12275118Y-15979137D02*
X12284642Y-15988660D01*
X12275118Y-15998184D01*
X12265595Y-15988660D01*
X12275118Y-15979137D01*
X12275118Y-15998184D01*
X12456071Y-15864851D02*
X12456071Y-15998184D01*
X12408452Y-15788660D02*
X12360833Y-15931518D01*
X12484642Y-15931518D01*
X12598928Y-15798184D02*
X12617976Y-15798184D01*
X12637023Y-15807708D01*
X12646547Y-15817232D01*
X12656071Y-15836279D01*
X12665595Y-15874375D01*
X12665595Y-15921994D01*
X12656071Y-15960089D01*
X12646547Y-15979137D01*
X12637023Y-15988660D01*
X12617976Y-15998184D01*
X12598928Y-15998184D01*
X12579880Y-15988660D01*
X12570357Y-15979137D01*
X12560833Y-15960089D01*
X12551309Y-15921994D01*
X12551309Y-15874375D01*
X12560833Y-15836279D01*
X12570357Y-15817232D01*
X12579880Y-15807708D01*
X12598928Y-15798184D01*
X12789404Y-15798184D02*
X12808452Y-15798184D01*
X12827499Y-15807708D01*
X12837023Y-15817232D01*
X12846547Y-15836279D01*
X12856071Y-15874375D01*
X12856071Y-15921994D01*
X12846547Y-15960089D01*
X12837023Y-15979137D01*
X12827499Y-15988660D01*
X12808452Y-15998184D01*
X12789404Y-15998184D01*
X12770357Y-15988660D01*
X12760833Y-15979137D01*
X12751309Y-15960089D01*
X12741785Y-15921994D01*
X12741785Y-15874375D01*
X12751309Y-15836279D01*
X12760833Y-15817232D01*
X12770357Y-15807708D01*
X12789404Y-15798184D01*
X12941785Y-15998184D02*
X12941785Y-15864851D01*
X12941785Y-15883898D02*
X12951309Y-15874375D01*
X12970357Y-15864851D01*
X12998928Y-15864851D01*
X13017976Y-15874375D01*
X13027499Y-15893422D01*
X13027499Y-15998184D01*
X13027499Y-15893422D02*
X13037023Y-15874375D01*
X13056071Y-15864851D01*
X13084642Y-15864851D01*
X13103690Y-15874375D01*
X13113214Y-15893422D01*
X13113214Y-15998184D01*
X13208452Y-15998184D02*
X13208452Y-15864851D01*
X13208452Y-15883898D02*
X13217976Y-15874375D01*
X13237023Y-15864851D01*
X13265595Y-15864851D01*
X13284642Y-15874375D01*
X13294166Y-15893422D01*
X13294166Y-15998184D01*
X13294166Y-15893422D02*
X13303690Y-15874375D01*
X13322737Y-15864851D01*
X13351309Y-15864851D01*
X13370357Y-15874375D01*
X13379880Y-15893422D01*
X13379880Y-15998184D01*
X13770357Y-15788660D02*
X13598928Y-16045803D01*
X14027499Y-15798184D02*
X14046547Y-15798184D01*
X14065595Y-15807708D01*
X14075118Y-15817232D01*
X14084642Y-15836279D01*
X14094166Y-15874375D01*
X14094166Y-15921994D01*
X14084642Y-15960089D01*
X14075118Y-15979137D01*
X14065595Y-15988660D01*
X14046547Y-15998184D01*
X14027499Y-15998184D01*
X14008452Y-15988660D01*
X13998928Y-15979137D01*
X13989404Y-15960089D01*
X13979880Y-15921994D01*
X13979880Y-15874375D01*
X13989404Y-15836279D01*
X13998928Y-15817232D01*
X14008452Y-15807708D01*
X14027499Y-15798184D01*
X14179880Y-15979137D02*
X14189404Y-15988660D01*
X14179880Y-15998184D01*
X14170357Y-15988660D01*
X14179880Y-15979137D01*
X14179880Y-15998184D01*
X14313214Y-15798184D02*
X14332261Y-15798184D01*
X14351309Y-15807708D01*
X14360833Y-15817232D01*
X14370357Y-15836279D01*
X14379880Y-15874375D01*
X14379880Y-15921994D01*
X14370357Y-15960089D01*
X14360833Y-15979137D01*
X14351309Y-15988660D01*
X14332261Y-15998184D01*
X14313214Y-15998184D01*
X14294166Y-15988660D01*
X14284642Y-15979137D01*
X14275118Y-15960089D01*
X14265595Y-15921994D01*
X14265595Y-15874375D01*
X14275118Y-15836279D01*
X14284642Y-15817232D01*
X14294166Y-15807708D01*
X14313214Y-15798184D01*
X14560833Y-15798184D02*
X14465595Y-15798184D01*
X14456071Y-15893422D01*
X14465595Y-15883898D01*
X14484642Y-15874375D01*
X14532261Y-15874375D01*
X14551309Y-15883898D01*
X14560833Y-15893422D01*
X14570357Y-15912470D01*
X14570357Y-15960089D01*
X14560833Y-15979137D01*
X14551309Y-15988660D01*
X14532261Y-15998184D01*
X14484642Y-15998184D01*
X14465595Y-15988660D01*
X14456071Y-15979137D01*
X14751309Y-15798184D02*
X14656071Y-15798184D01*
X14646547Y-15893422D01*
X14656071Y-15883898D01*
X14675118Y-15874375D01*
X14722737Y-15874375D01*
X14741785Y-15883898D01*
X14751309Y-15893422D01*
X14760833Y-15912470D01*
X14760833Y-15960089D01*
X14751309Y-15979137D01*
X14741785Y-15988660D01*
X14722737Y-15998184D01*
X14675118Y-15998184D01*
X14656071Y-15988660D01*
X14646547Y-15979137D01*
X14951309Y-15998184D02*
X14837023Y-15998184D01*
X14894166Y-15998184D02*
X14894166Y-15798184D01*
X14875118Y-15826756D01*
X14856071Y-15845803D01*
X14837023Y-15855327D01*
X15027499Y-15798184D02*
X15027499Y-15836279D01*
X15103690Y-15798184D02*
X15103690Y-15836279D01*
X15398928Y-16074375D02*
X15389404Y-16064851D01*
X15370357Y-16036279D01*
X15360833Y-16017232D01*
X15351309Y-15988660D01*
X15341785Y-15941041D01*
X15341785Y-15902946D01*
X15351309Y-15855327D01*
X15360833Y-15826756D01*
X15370357Y-15807708D01*
X15389404Y-15779137D01*
X15398928Y-15769613D01*
X15465595Y-15817232D02*
X15475118Y-15807708D01*
X15494166Y-15798184D01*
X15541785Y-15798184D01*
X15560833Y-15807708D01*
X15570357Y-15817232D01*
X15579880Y-15836279D01*
X15579880Y-15855327D01*
X15570357Y-15883898D01*
X15456071Y-15998184D01*
X15579880Y-15998184D01*
X15817976Y-15998184D02*
X15817976Y-15798184D01*
X15903690Y-15998184D02*
X15903690Y-15893422D01*
X15894166Y-15874375D01*
X15875118Y-15864851D01*
X15846547Y-15864851D01*
X15827499Y-15874375D01*
X15817976Y-15883898D01*
X16027499Y-15998184D02*
X16008452Y-15988660D01*
X15998928Y-15979137D01*
X15989404Y-15960089D01*
X15989404Y-15902946D01*
X15998928Y-15883898D01*
X16008452Y-15874375D01*
X16027499Y-15864851D01*
X16056071Y-15864851D01*
X16075118Y-15874375D01*
X16084642Y-15883898D01*
X16094166Y-15902946D01*
X16094166Y-15960089D01*
X16084642Y-15979137D01*
X16075118Y-15988660D01*
X16056071Y-15998184D01*
X16027499Y-15998184D01*
X16208452Y-15998184D02*
X16189404Y-15988660D01*
X16179880Y-15969613D01*
X16179880Y-15798184D01*
X16360833Y-15988660D02*
X16341785Y-15998184D01*
X16303690Y-15998184D01*
X16284642Y-15988660D01*
X16275118Y-15969613D01*
X16275118Y-15893422D01*
X16284642Y-15874375D01*
X16303690Y-15864851D01*
X16341785Y-15864851D01*
X16360833Y-15874375D01*
X16370357Y-15893422D01*
X16370357Y-15912470D01*
X16275118Y-15931518D01*
X16446547Y-15988660D02*
X16465595Y-15998184D01*
X16503690Y-15998184D01*
X16522737Y-15988660D01*
X16532261Y-15969613D01*
X16532261Y-15960089D01*
X16522737Y-15941041D01*
X16503690Y-15931518D01*
X16475118Y-15931518D01*
X16456071Y-15921994D01*
X16446547Y-15902946D01*
X16446547Y-15893422D01*
X16456071Y-15874375D01*
X16475118Y-15864851D01*
X16503690Y-15864851D01*
X16522737Y-15874375D01*
X16598928Y-16074375D02*
X16608452Y-16064851D01*
X16627499Y-16036279D01*
X16637023Y-16017232D01*
X16646547Y-15988660D01*
X16656071Y-15941041D01*
X16656071Y-15902946D01*
X16646547Y-15855327D01*
X16637023Y-15826756D01*
X16627499Y-15807708D01*
X16608452Y-15779137D01*
X16598928Y-15769613D01*
D20*
X11657023Y-16086708D02*
X11827023Y-16256708D01*
X11827023Y-16086708D02*
X11657023Y-16256708D01*
X11742023Y-16256708D02*
X11827023Y-16171708D01*
X11742023Y-16086708D01*
X11657023Y-16171708D01*
X11742023Y-16256708D01*
D11*
X12189404Y-16262184D02*
X12075118Y-16262184D01*
X12132261Y-16262184D02*
X12132261Y-16062184D01*
X12113214Y-16090756D01*
X12094166Y-16109803D01*
X12075118Y-16119327D01*
X12275118Y-16243137D02*
X12284642Y-16252660D01*
X12275118Y-16262184D01*
X12265595Y-16252660D01*
X12275118Y-16243137D01*
X12275118Y-16262184D01*
X12351309Y-16062184D02*
X12484642Y-16062184D01*
X12398928Y-16262184D01*
X12598928Y-16062184D02*
X12617976Y-16062184D01*
X12637023Y-16071708D01*
X12646547Y-16081232D01*
X12656071Y-16100279D01*
X12665595Y-16138375D01*
X12665595Y-16185994D01*
X12656071Y-16224089D01*
X12646547Y-16243137D01*
X12637023Y-16252660D01*
X12617976Y-16262184D01*
X12598928Y-16262184D01*
X12579880Y-16252660D01*
X12570357Y-16243137D01*
X12560833Y-16224089D01*
X12551309Y-16185994D01*
X12551309Y-16138375D01*
X12560833Y-16100279D01*
X12570357Y-16081232D01*
X12579880Y-16071708D01*
X12598928Y-16062184D01*
X12789404Y-16062184D02*
X12808452Y-16062184D01*
X12827499Y-16071708D01*
X12837023Y-16081232D01*
X12846547Y-16100279D01*
X12856071Y-16138375D01*
X12856071Y-16185994D01*
X12846547Y-16224089D01*
X12837023Y-16243137D01*
X12827499Y-16252660D01*
X12808452Y-16262184D01*
X12789404Y-16262184D01*
X12770357Y-16252660D01*
X12760833Y-16243137D01*
X12751309Y-16224089D01*
X12741785Y-16185994D01*
X12741785Y-16138375D01*
X12751309Y-16100279D01*
X12760833Y-16081232D01*
X12770357Y-16071708D01*
X12789404Y-16062184D01*
X12941785Y-16262184D02*
X12941785Y-16128851D01*
X12941785Y-16147898D02*
X12951309Y-16138375D01*
X12970357Y-16128851D01*
X12998928Y-16128851D01*
X13017976Y-16138375D01*
X13027499Y-16157422D01*
X13027499Y-16262184D01*
X13027499Y-16157422D02*
X13037023Y-16138375D01*
X13056071Y-16128851D01*
X13084642Y-16128851D01*
X13103690Y-16138375D01*
X13113214Y-16157422D01*
X13113214Y-16262184D01*
X13208452Y-16262184D02*
X13208452Y-16128851D01*
X13208452Y-16147898D02*
X13217976Y-16138375D01*
X13237023Y-16128851D01*
X13265595Y-16128851D01*
X13284642Y-16138375D01*
X13294166Y-16157422D01*
X13294166Y-16262184D01*
X13294166Y-16157422D02*
X13303690Y-16138375D01*
X13322737Y-16128851D01*
X13351309Y-16128851D01*
X13370357Y-16138375D01*
X13379880Y-16157422D01*
X13379880Y-16262184D01*
X13770357Y-16052660D02*
X13598928Y-16309803D01*
X14027499Y-16062184D02*
X14046547Y-16062184D01*
X14065595Y-16071708D01*
X14075118Y-16081232D01*
X14084642Y-16100279D01*
X14094166Y-16138375D01*
X14094166Y-16185994D01*
X14084642Y-16224089D01*
X14075118Y-16243137D01*
X14065595Y-16252660D01*
X14046547Y-16262184D01*
X14027499Y-16262184D01*
X14008452Y-16252660D01*
X13998928Y-16243137D01*
X13989404Y-16224089D01*
X13979880Y-16185994D01*
X13979880Y-16138375D01*
X13989404Y-16100279D01*
X13998928Y-16081232D01*
X14008452Y-16071708D01*
X14027499Y-16062184D01*
X14179880Y-16243137D02*
X14189404Y-16252660D01*
X14179880Y-16262184D01*
X14170357Y-16252660D01*
X14179880Y-16243137D01*
X14179880Y-16262184D01*
X14313214Y-16062184D02*
X14332261Y-16062184D01*
X14351309Y-16071708D01*
X14360833Y-16081232D01*
X14370357Y-16100279D01*
X14379880Y-16138375D01*
X14379880Y-16185994D01*
X14370357Y-16224089D01*
X14360833Y-16243137D01*
X14351309Y-16252660D01*
X14332261Y-16262184D01*
X14313214Y-16262184D01*
X14294166Y-16252660D01*
X14284642Y-16243137D01*
X14275118Y-16224089D01*
X14265595Y-16185994D01*
X14265595Y-16138375D01*
X14275118Y-16100279D01*
X14284642Y-16081232D01*
X14294166Y-16071708D01*
X14313214Y-16062184D01*
X14551309Y-16062184D02*
X14513214Y-16062184D01*
X14494166Y-16071708D01*
X14484642Y-16081232D01*
X14465595Y-16109803D01*
X14456071Y-16147898D01*
X14456071Y-16224089D01*
X14465595Y-16243137D01*
X14475118Y-16252660D01*
X14494166Y-16262184D01*
X14532261Y-16262184D01*
X14551309Y-16252660D01*
X14560833Y-16243137D01*
X14570357Y-16224089D01*
X14570357Y-16176470D01*
X14560833Y-16157422D01*
X14551309Y-16147898D01*
X14532261Y-16138375D01*
X14494166Y-16138375D01*
X14475118Y-16147898D01*
X14465595Y-16157422D01*
X14456071Y-16176470D01*
X14741785Y-16062184D02*
X14703690Y-16062184D01*
X14684642Y-16071708D01*
X14675118Y-16081232D01*
X14656071Y-16109803D01*
X14646547Y-16147898D01*
X14646547Y-16224089D01*
X14656071Y-16243137D01*
X14665595Y-16252660D01*
X14684642Y-16262184D01*
X14722737Y-16262184D01*
X14741785Y-16252660D01*
X14751309Y-16243137D01*
X14760833Y-16224089D01*
X14760833Y-16176470D01*
X14751309Y-16157422D01*
X14741785Y-16147898D01*
X14722737Y-16138375D01*
X14684642Y-16138375D01*
X14665595Y-16147898D01*
X14656071Y-16157422D01*
X14646547Y-16176470D01*
X14856071Y-16262184D02*
X14894166Y-16262184D01*
X14913214Y-16252660D01*
X14922737Y-16243137D01*
X14941785Y-16214565D01*
X14951309Y-16176470D01*
X14951309Y-16100279D01*
X14941785Y-16081232D01*
X14932261Y-16071708D01*
X14913214Y-16062184D01*
X14875118Y-16062184D01*
X14856071Y-16071708D01*
X14846547Y-16081232D01*
X14837023Y-16100279D01*
X14837023Y-16147898D01*
X14846547Y-16166946D01*
X14856071Y-16176470D01*
X14875118Y-16185994D01*
X14913214Y-16185994D01*
X14932261Y-16176470D01*
X14941785Y-16166946D01*
X14951309Y-16147898D01*
X15027499Y-16062184D02*
X15027499Y-16100279D01*
X15103690Y-16062184D02*
X15103690Y-16100279D01*
X15398928Y-16338375D02*
X15389404Y-16328851D01*
X15370357Y-16300279D01*
X15360833Y-16281232D01*
X15351309Y-16252660D01*
X15341785Y-16205041D01*
X15341785Y-16166946D01*
X15351309Y-16119327D01*
X15360833Y-16090756D01*
X15370357Y-16071708D01*
X15389404Y-16043137D01*
X15398928Y-16033613D01*
X15465595Y-16081232D02*
X15475118Y-16071708D01*
X15494166Y-16062184D01*
X15541785Y-16062184D01*
X15560833Y-16071708D01*
X15570357Y-16081232D01*
X15579880Y-16100279D01*
X15579880Y-16119327D01*
X15570357Y-16147898D01*
X15456071Y-16262184D01*
X15579880Y-16262184D01*
X15817976Y-16262184D02*
X15817976Y-16062184D01*
X15903690Y-16262184D02*
X15903690Y-16157422D01*
X15894166Y-16138375D01*
X15875118Y-16128851D01*
X15846547Y-16128851D01*
X15827499Y-16138375D01*
X15817976Y-16147898D01*
X16027499Y-16262184D02*
X16008452Y-16252660D01*
X15998928Y-16243137D01*
X15989404Y-16224089D01*
X15989404Y-16166946D01*
X15998928Y-16147898D01*
X16008452Y-16138375D01*
X16027499Y-16128851D01*
X16056071Y-16128851D01*
X16075118Y-16138375D01*
X16084642Y-16147898D01*
X16094166Y-16166946D01*
X16094166Y-16224089D01*
X16084642Y-16243137D01*
X16075118Y-16252660D01*
X16056071Y-16262184D01*
X16027499Y-16262184D01*
X16208452Y-16262184D02*
X16189404Y-16252660D01*
X16179880Y-16233613D01*
X16179880Y-16062184D01*
X16360833Y-16252660D02*
X16341785Y-16262184D01*
X16303690Y-16262184D01*
X16284642Y-16252660D01*
X16275118Y-16233613D01*
X16275118Y-16157422D01*
X16284642Y-16138375D01*
X16303690Y-16128851D01*
X16341785Y-16128851D01*
X16360833Y-16138375D01*
X16370357Y-16157422D01*
X16370357Y-16176470D01*
X16275118Y-16195518D01*
X16446547Y-16252660D02*
X16465595Y-16262184D01*
X16503690Y-16262184D01*
X16522737Y-16252660D01*
X16532261Y-16233613D01*
X16532261Y-16224089D01*
X16522737Y-16205041D01*
X16503690Y-16195518D01*
X16475118Y-16195518D01*
X16456071Y-16185994D01*
X16446547Y-16166946D01*
X16446547Y-16157422D01*
X16456071Y-16138375D01*
X16475118Y-16128851D01*
X16503690Y-16128851D01*
X16522737Y-16138375D01*
X16598928Y-16338375D02*
X16608452Y-16328851D01*
X16627499Y-16300279D01*
X16637023Y-16281232D01*
X16646547Y-16252660D01*
X16656071Y-16205041D01*
X16656071Y-16166946D01*
X16646547Y-16119327D01*
X16637023Y-16090756D01*
X16627499Y-16071708D01*
X16608452Y-16043137D01*
X16598928Y-16033613D01*
M02*
