%FSLAX45Y45*%
G04 Gerber Fmt 4.5, Leading zero omitted, Abs format (unit mm)*
G04 Created by KiCad (PCBNEW (6.0.5)) date 2023-02-26 21:46:27*
%MOMM*%
%LPD*%
G01*
G04 APERTURE LIST*
%TA.AperFunction,Profile*%
%ADD10C,0.200000*%
%TD*%
%ADD11C,0.200000*%
G04 APERTURE END LIST*
D10*
X11895603Y-9954989D02*
G75*
G03*
X11895601Y-10237829I141417J-141421D01*
G01*
X12691096Y-11599010D02*
X11965177Y-12324929D01*
X17918599Y-10866335D02*
G75*
G03*
X17918599Y-10866335I-150000J0D01*
G01*
X12691096Y-11599010D02*
G75*
G03*
X12691096Y-11033324I-282843J282843D01*
G01*
X14280348Y-7734228D02*
G75*
G03*
X16234741Y-7991528I1550302J4224518D01*
G01*
X17963455Y-10753835D02*
X16425905Y-8090720D01*
X14568410Y-8044912D02*
G75*
G03*
X14568410Y-8044912I-150000J0D01*
G01*
X14224000Y-11861800D02*
X16510000Y-11861800D01*
X16510000Y-11861800D02*
X16510000Y-12903200D01*
X16510000Y-12903200D02*
X14224000Y-12903200D01*
X14224000Y-12903200D02*
X14224000Y-11861800D01*
X16915972Y-11589540D02*
G75*
G03*
X16769561Y-12135950I199998J-346410D01*
G01*
X14280350Y-7734223D02*
G75*
G03*
X14070025Y-7780563I-68900J-187757D01*
G01*
X17890247Y-11027034D02*
G75*
G03*
X17963455Y-10753835I-99997J173204D01*
G01*
X11965177Y-12324929D02*
G75*
G03*
X12029814Y-12651023I141423J-141421D01*
G01*
X16915971Y-11589540D02*
X17890250Y-11027040D01*
X14070025Y-7780563D02*
X11895601Y-9954986D01*
X17259659Y-13125016D02*
G75*
G03*
X17259659Y-13125016I-150000J0D01*
G01*
X11895601Y-10237829D02*
X12691096Y-11033324D01*
X17136031Y-13323275D02*
G75*
G03*
X17282864Y-13025016I-26371J198255D01*
G01*
X17282864Y-13025016D02*
X16769561Y-12135950D01*
X12029814Y-12651023D02*
G75*
G03*
X17136030Y-13323269I3800836J9141313D01*
G01*
X12204700Y-10114085D02*
G75*
G03*
X12204700Y-10114085I-150000J0D01*
G01*
X16425905Y-8090720D02*
G75*
G03*
X16234741Y-7991528I-173205J-100000D01*
G01*
X12256598Y-12466350D02*
G75*
G03*
X12256598Y-12466350I-150000J0D01*
G01*
D11*
X12084642Y-13730184D02*
X12084642Y-13530184D01*
X12132261Y-13530184D01*
X12160833Y-13539708D01*
X12179880Y-13558756D01*
X12189404Y-13577803D01*
X12198928Y-13615898D01*
X12198928Y-13644470D01*
X12189404Y-13682565D01*
X12179880Y-13701613D01*
X12160833Y-13720660D01*
X12132261Y-13730184D01*
X12084642Y-13730184D01*
X12284642Y-13730184D02*
X12284642Y-13596851D01*
X12284642Y-13634946D02*
X12294166Y-13615898D01*
X12303690Y-13606375D01*
X12322737Y-13596851D01*
X12341785Y-13596851D01*
X12408452Y-13730184D02*
X12408452Y-13596851D01*
X12408452Y-13530184D02*
X12398928Y-13539708D01*
X12408452Y-13549232D01*
X12417976Y-13539708D01*
X12408452Y-13530184D01*
X12408452Y-13549232D01*
X12532261Y-13730184D02*
X12513214Y-13720660D01*
X12503690Y-13701613D01*
X12503690Y-13530184D01*
X12637023Y-13730184D02*
X12617976Y-13720660D01*
X12608452Y-13701613D01*
X12608452Y-13530184D01*
X12865595Y-13730184D02*
X12865595Y-13530184D01*
X12932261Y-13673041D01*
X12998928Y-13530184D01*
X12998928Y-13730184D01*
X13179880Y-13730184D02*
X13179880Y-13625422D01*
X13170357Y-13606375D01*
X13151309Y-13596851D01*
X13113214Y-13596851D01*
X13094166Y-13606375D01*
X13179880Y-13720660D02*
X13160833Y-13730184D01*
X13113214Y-13730184D01*
X13094166Y-13720660D01*
X13084642Y-13701613D01*
X13084642Y-13682565D01*
X13094166Y-13663518D01*
X13113214Y-13653994D01*
X13160833Y-13653994D01*
X13179880Y-13644470D01*
X13275118Y-13596851D02*
X13275118Y-13796851D01*
X13275118Y-13606375D02*
X13294166Y-13596851D01*
X13332261Y-13596851D01*
X13351309Y-13606375D01*
X13360833Y-13615898D01*
X13370357Y-13634946D01*
X13370357Y-13692089D01*
X13360833Y-13711137D01*
X13351309Y-13720660D01*
X13332261Y-13730184D01*
X13294166Y-13730184D01*
X13275118Y-13720660D01*
X13456071Y-13711137D02*
X13465595Y-13720660D01*
X13456071Y-13730184D01*
X13446547Y-13720660D01*
X13456071Y-13711137D01*
X13456071Y-13730184D01*
X13456071Y-13606375D02*
X13465595Y-13615898D01*
X13456071Y-13625422D01*
X13446547Y-13615898D01*
X13456071Y-13606375D01*
X13456071Y-13625422D01*
M02*
