M48
; DRILL file {KiCad (6.0.5)} date Sun Feb 26 21:46:26 2023
; FORMAT={-:-/ absolute / inch / decimal}
; #@! TF.CreationDate,2023-02-26T21:46:26+09:00
; #@! TF.GenerationSoftware,Kicad,Pcbnew,(6.0.5)
; #@! TF.FileFunction,Plated,1,2,PTH
FMAT,2
INCH
; #@! TA.AperFunction,Plated,PTH,ViaDrill
T1C0.0157
; #@! TA.AperFunction,Plated,PTH,ComponentDrill
T2C0.0197
; #@! TA.AperFunction,Plated,PTH,ComponentDrill
T3C0.0276
; #@! TA.AperFunction,Plated,PTH,ComponentDrill
T4C0.0315
; #@! TA.AperFunction,Plated,PTH,ComponentDrill
T5C0.0374
; #@! TA.AperFunction,Plated,PTH,ComponentDrill
T6C0.0394
; #@! TA.AperFunction,Plated,PTH,ComponentDrill
T7C0.0429
; #@! TA.AperFunction,Plated,PTH,ComponentDrill
T8C0.0551
; #@! TA.AperFunction,Plated,PTH,ComponentDrill
T9C0.0669
%
G90
G05
T1
X4.8Y-3.87
X4.81Y-4.08
X4.9693Y-3.7993
X4.9782Y-3.9418
X5.02Y-4.12
X5.02Y-4.3
X5.03Y-3.64
X5.08Y-4.585
X5.085Y-4.875
X5.1Y-4.1
X5.1Y-4.18
X5.1Y-4.26
X5.1Y-4.34
X5.1Y-4.41
X5.1Y-4.48
X5.13Y-3.74
X5.155Y-4.535
X5.17Y-4.03
X5.17Y-4.17
X5.17Y-4.3
X5.18Y-3.88
X5.1943Y-3.5743
X5.23Y-4.47
X5.24Y-4.01
X5.24Y-4.1
X5.24Y-4.18
X5.24Y-4.26
X5.24Y-4.73
X5.25Y-3.41
X5.2988Y-3.9488
X5.3043Y-3.4643
X5.31Y-3.76
X5.32Y-4.04
X5.32Y-4.3
X5.33Y-3.59
X5.34Y-4.51
X5.3588Y-3.8888
X5.36Y-4.38
X5.38Y-3.98
X5.39Y-3.28
X5.39Y-4.46
X5.395Y-4.88
X5.4188Y-3.8288
X5.42Y-4.545
X5.45Y-4.4585
X5.455Y-4.235
X5.48Y-3.52
X5.4888Y-3.7588
X5.5Y-3.63
X5.51Y-4.4585
X5.51Y-4.545
X5.54Y-3.89
X5.54Y-4.08
X5.545Y-3.12
X5.555Y-4.37
X5.5588Y-3.6888
X5.57Y-4.4585
X5.62Y-3.55
X5.62Y-3.75
X5.63Y-3.38
X5.63Y-4.4585
X5.63Y-4.54
X5.65Y-4.05
X5.69Y-4.37
X5.69Y-4.4585
X5.71Y-3.46
X5.745Y-3.295
X5.75Y-4.4585
X5.75Y-4.54
X5.8Y-3.37
X5.805Y-3.75
X5.81Y-4.08
X5.81Y-4.37
X5.81Y-4.4585
X5.87Y-4.4585
X5.87Y-4.54
X5.89Y-3.37
X5.93Y-4.4585
X5.94Y-4.37
X5.97Y-3.94
X5.97Y-4.17
X5.98Y-3.27
X5.98Y-3.37
X5.98Y-3.47
X5.99Y-4.4585
X6.015Y-3.74
X6.0466Y-4.4585
X6.05Y-4.59
X6.07Y-3.37
X6.09Y-4.37
X6.09Y-4.5
X6.12Y-4.08
X6.16Y-3.37
X6.17Y-3.45
X6.21Y-3.225
X6.23Y-3.59
X6.23Y-3.74
X6.235Y-4.615
X6.24Y-4.37
X6.24Y-4.49
X6.25Y-3.37
X6.26Y-3.45
X6.285Y-4.105
X6.285Y-4.275
X6.335Y-3.955
X6.3662Y-3.4738
X6.3993Y-3.5307
X6.42Y-3.74
X6.4288Y-3.5812
X6.43Y-4.39
X6.43Y-4.615
X6.46Y-4.24
X6.47Y-4.12
X6.48Y-3.475
X6.485Y-3.31
X6.53Y-4.26
X6.54Y-3.84
X6.61Y-3.98
X6.61Y-4.17
X6.61Y-4.405
X6.62Y-3.715
X6.63Y-3.555
X6.77Y-3.8
X6.815Y-3.99
X6.885Y-4.16
T3
X5.61Y-4.28
X5.62Y-3.64
X5.62Y-3.84
X5.81Y-4.28
T4
X5.89Y-3.2716
X5.89Y-3.4684
X5.9896Y-4.28
X6.07Y-3.2716
X6.07Y-3.4684
X6.0896Y-4.28
X6.1896Y-4.28
X6.3808Y-4.31
X6.4792Y-4.31
X6.6954Y-4.2074
X6.7446Y-4.2926
T5
X6.5244Y-3.9413
X6.6097Y-3.8921
X6.6949Y-3.8429
T6
X6.327Y-3.4067
X6.33Y-4.48
X6.4123Y-3.3575
X6.43Y-4.48
X6.467Y-3.6467
X6.53Y-4.48
X6.5523Y-3.5975
T7
X5.46Y-3.9
X5.46Y-4.0
X5.46Y-4.1
T8
X5.0532Y-4.0168
X5.4068Y-3.6632
T9
X5.4096Y-3.4198
X5.5198Y-3.3096
T2
G00X4.9387Y-3.8744
M15
G01X4.8942Y-3.8299
M16
G05
G00X5.0417Y-3.7714
M15
G01X4.9972Y-3.7269
M16
G05
G00X5.1614Y-3.6517
M15
G01X5.1169Y-3.6072
M16
G05
G00X5.2644Y-3.5487
M15
G01X5.2199Y-3.5042
M16
G05
T6
G00X5.2006Y-4.3738
M15
G01X5.2794Y-4.3738
M16
G05
G00X5.2006Y-4.61
M15
G01X5.2794Y-4.61
M16
G05
T0
M30
