%TF.GenerationSoftware,KiCad,Pcbnew,(6.0.5)*%
%TF.CreationDate,2023-02-26T14:44:20+09:00*%
%TF.ProjectId,IO_Board,494f5f42-6f61-4726-942e-6b696361645f,rev?*%
%TF.SameCoordinates,Original*%
%TF.FileFunction,Soldermask,Top*%
%TF.FilePolarity,Negative*%
%FSLAX46Y46*%
G04 Gerber Fmt 4.6, Leading zero omitted, Abs format (unit mm)*
G04 Created by KiCad (PCBNEW (6.0.5)) date 2023-02-26 14:44:20*
%MOMM*%
%LPD*%
G01*
G04 APERTURE LIST*
G04 Aperture macros list*
%AMRoundRect*
0 Rectangle with rounded corners*
0 $1 Rounding radius*
0 $2 $3 $4 $5 $6 $7 $8 $9 X,Y pos of 4 corners*
0 Add a 4 corners polygon primitive as box body*
4,1,4,$2,$3,$4,$5,$6,$7,$8,$9,$2,$3,0*
0 Add four circle primitives for the rounded corners*
1,1,$1+$1,$2,$3*
1,1,$1+$1,$4,$5*
1,1,$1+$1,$6,$7*
1,1,$1+$1,$8,$9*
0 Add four rect primitives between the rounded corners*
20,1,$1+$1,$2,$3,$4,$5,0*
20,1,$1+$1,$4,$5,$6,$7,0*
20,1,$1+$1,$6,$7,$8,$9,0*
20,1,$1+$1,$8,$9,$2,$3,0*%
G04 Aperture macros list end*
%ADD10C,2.000000*%
%ADD11RoundRect,0.135000X0.185000X-0.135000X0.185000X0.135000X-0.185000X0.135000X-0.185000X-0.135000X0*%
%ADD12RoundRect,0.243750X0.243750X0.456250X-0.243750X0.456250X-0.243750X-0.456250X0.243750X-0.456250X0*%
%ADD13RoundRect,0.135000X-0.185000X0.135000X-0.185000X-0.135000X0.185000X-0.135000X0.185000X0.135000X0*%
%ADD14RoundRect,0.140000X-0.170000X0.140000X-0.170000X-0.140000X0.170000X-0.140000X0.170000X0.140000X0*%
%ADD15RoundRect,0.140000X-0.140000X-0.170000X0.140000X-0.170000X0.140000X0.170000X-0.140000X0.170000X0*%
%ADD16RoundRect,0.140000X0.140000X0.170000X-0.140000X0.170000X-0.140000X-0.170000X0.140000X-0.170000X0*%
%ADD17C,0.650000*%
%ADD18R,0.300000X1.150000*%
%ADD19O,1.000000X1.600000*%
%ADD20O,1.000000X2.100000*%
%ADD21RoundRect,0.243750X-0.243750X-0.456250X0.243750X-0.456250X0.243750X0.456250X-0.243750X0.456250X0*%
%ADD22O,1.100000X2.000000*%
%ADD23O,1.000000X2.000000*%
%ADD24R,1.700000X1.700000*%
%ADD25O,1.700000X1.700000*%
G04 APERTURE END LIST*
D10*
%TO.C,START*%
X150980000Y-137160000D03*
X157480000Y-137160000D03*
X150980000Y-132660000D03*
X157480000Y-132660000D03*
%TD*%
D11*
%TO.C,R2*%
X144780000Y-143004000D03*
X144780000Y-141984000D03*
%TD*%
D12*
%TO.C,FB2*%
X130731500Y-141478000D03*
X128856500Y-141478000D03*
%TD*%
D13*
%TO.C,R12*%
X132080000Y-140968000D03*
X132080000Y-141988000D03*
%TD*%
%TO.C,R14*%
X133096000Y-140968000D03*
X133096000Y-141988000D03*
%TD*%
%TO.C,R1*%
X143510000Y-105662000D03*
X143510000Y-106682000D03*
%TD*%
D14*
%TO.C,C3*%
X151130000Y-105720000D03*
X151130000Y-106680000D03*
%TD*%
D11*
%TO.C,R6*%
X157480000Y-143004000D03*
X157480000Y-141984000D03*
%TD*%
D14*
%TO.C,C10*%
X160020000Y-105692000D03*
X160020000Y-106652000D03*
%TD*%
D10*
%TO.C,STOP*%
X170180000Y-137160000D03*
X163680000Y-137160000D03*
X170180000Y-132660000D03*
X163680000Y-132660000D03*
%TD*%
D15*
%TO.C,C6*%
X154968000Y-106680000D03*
X155928000Y-106680000D03*
%TD*%
D16*
%TO.C,C4*%
X149578000Y-106680000D03*
X148618000Y-106680000D03*
%TD*%
D14*
%TO.C,C11*%
X161290000Y-105720000D03*
X161290000Y-106680000D03*
%TD*%
D13*
%TO.C,R9*%
X172720000Y-140968000D03*
X172720000Y-141988000D03*
%TD*%
D14*
%TO.C,C12*%
X162560000Y-105692000D03*
X162560000Y-106652000D03*
%TD*%
D17*
%TO.C,J4*%
X161640000Y-145985000D03*
X155860000Y-145985000D03*
D18*
X155400000Y-144920000D03*
X156200000Y-144920000D03*
X157500000Y-144920000D03*
X158500000Y-144920000D03*
X159000000Y-144920000D03*
X160000000Y-144920000D03*
X161300000Y-144920000D03*
X162100000Y-144920000D03*
X161800000Y-144920000D03*
X161000000Y-144920000D03*
X160500000Y-144920000D03*
X159500000Y-144920000D03*
X158000000Y-144920000D03*
X157000000Y-144920000D03*
X156500000Y-144920000D03*
X155700000Y-144920000D03*
D19*
X154430000Y-149665000D03*
D20*
X154430000Y-145485000D03*
X163070000Y-145485000D03*
D19*
X163070000Y-149665000D03*
%TD*%
D17*
%TO.C,J2*%
X174340000Y-144715000D03*
X168560000Y-144715000D03*
D18*
X168100000Y-143650000D03*
X168900000Y-143650000D03*
X170200000Y-143650000D03*
X171200000Y-143650000D03*
X171700000Y-143650000D03*
X172700000Y-143650000D03*
X174000000Y-143650000D03*
X174800000Y-143650000D03*
X174500000Y-143650000D03*
X173700000Y-143650000D03*
X173200000Y-143650000D03*
X172200000Y-143650000D03*
X170700000Y-143650000D03*
X169700000Y-143650000D03*
X169200000Y-143650000D03*
X168400000Y-143650000D03*
D19*
X175770000Y-148395000D03*
D20*
X175770000Y-144215000D03*
D19*
X167130000Y-148395000D03*
D20*
X167130000Y-144215000D03*
%TD*%
D13*
%TO.C,R13*%
X135128000Y-140968000D03*
X135128000Y-141988000D03*
%TD*%
%TO.C,R10*%
X170688000Y-140968000D03*
X170688000Y-141988000D03*
%TD*%
D21*
%TO.C,FB1*%
X174147000Y-141478000D03*
X176022000Y-141478000D03*
%TD*%
D14*
%TO.C,C7*%
X157452000Y-105720000D03*
X157452000Y-106680000D03*
%TD*%
D22*
%TO.C,J6*%
X142240000Y-108785000D03*
X143510000Y-108785000D03*
X144780000Y-108785000D03*
X146050000Y-108785000D03*
X147320000Y-108785000D03*
X148590000Y-108785000D03*
X149860000Y-108785000D03*
X151130000Y-108785000D03*
X152400000Y-108785000D03*
X153670000Y-108785000D03*
X154940000Y-108785000D03*
X156210000Y-108785000D03*
X157480000Y-108785000D03*
X158750000Y-108785000D03*
X160020000Y-108785000D03*
D23*
X161290000Y-108795000D03*
X162560000Y-108795000D03*
%TD*%
D17*
%TO.C,J1*%
X148940000Y-145985000D03*
X143160000Y-145985000D03*
D18*
X142700000Y-144920000D03*
X143500000Y-144920000D03*
X144800000Y-144920000D03*
X145800000Y-144920000D03*
X146300000Y-144920000D03*
X147300000Y-144920000D03*
X148600000Y-144920000D03*
X149400000Y-144920000D03*
X149100000Y-144920000D03*
X148300000Y-144920000D03*
X147800000Y-144920000D03*
X146800000Y-144920000D03*
X145300000Y-144920000D03*
X144300000Y-144920000D03*
X143800000Y-144920000D03*
X143000000Y-144920000D03*
D20*
X150370000Y-145485000D03*
X141730000Y-145485000D03*
D19*
X150370000Y-149665000D03*
X141730000Y-149665000D03*
%TD*%
D13*
%TO.C,R5*%
X171704000Y-140968000D03*
X171704000Y-141988000D03*
%TD*%
%TO.C,R8*%
X169672000Y-140968000D03*
X169672000Y-141988000D03*
%TD*%
D15*
%TO.C,C5*%
X152428000Y-106680000D03*
X153388000Y-106680000D03*
%TD*%
D10*
%TO.C,L*%
X138280000Y-137160000D03*
X144780000Y-137160000D03*
X144780000Y-132660000D03*
X138280000Y-132660000D03*
%TD*%
%TO.C,R*%
X176328000Y-137160000D03*
X182828000Y-137160000D03*
X182828000Y-132660000D03*
X176328000Y-132660000D03*
%TD*%
D24*
%TO.C,J3*%
X140985000Y-80670400D03*
D25*
X143525000Y-80670400D03*
X146065000Y-80670400D03*
X148605000Y-80670400D03*
X151145000Y-80670400D03*
X153685000Y-80670400D03*
X156225000Y-80670400D03*
X158765000Y-80670400D03*
X161305000Y-80670400D03*
X163845000Y-80670400D03*
%TD*%
D11*
%TO.C,R3*%
X147828000Y-143004000D03*
X147828000Y-141984000D03*
%TD*%
D17*
%TO.C,J7*%
X130460000Y-144715000D03*
X136240000Y-144715000D03*
D18*
X130000000Y-143650000D03*
X130800000Y-143650000D03*
X132100000Y-143650000D03*
X133100000Y-143650000D03*
X133600000Y-143650000D03*
X134600000Y-143650000D03*
X135900000Y-143650000D03*
X136700000Y-143650000D03*
X136400000Y-143650000D03*
X135600000Y-143650000D03*
X135100000Y-143650000D03*
X134100000Y-143650000D03*
X132600000Y-143650000D03*
X131600000Y-143650000D03*
X131100000Y-143650000D03*
X130300000Y-143650000D03*
D20*
X129030000Y-144215000D03*
D19*
X129030000Y-148395000D03*
D20*
X137670000Y-144215000D03*
D19*
X137670000Y-148395000D03*
%TD*%
D11*
%TO.C,R7*%
X160528000Y-143004000D03*
X160528000Y-141984000D03*
%TD*%
D24*
%TO.C,J5*%
X140980000Y-77216000D03*
D25*
X143520000Y-77216000D03*
X146060000Y-77216000D03*
X148600000Y-77216000D03*
X151140000Y-77216000D03*
X153680000Y-77216000D03*
X156220000Y-77216000D03*
X158760000Y-77216000D03*
X161300000Y-77216000D03*
X163840000Y-77216000D03*
%TD*%
D14*
%TO.C,C8*%
X158750000Y-105720000D03*
X158750000Y-106680000D03*
%TD*%
D13*
%TO.C,R11*%
X134112000Y-140968000D03*
X134112000Y-141988000D03*
%TD*%
D11*
%TO.C,R4*%
X142240000Y-106682000D03*
X142240000Y-105662000D03*
%TD*%
M02*
