%FSLAX45Y45*%
G04 Gerber Fmt 4.5, Leading zero omitted, Abs format (unit mm)*
G04 Created by KiCad (PCBNEW (6.0.5)) date 2023-02-26 14:45:46*
%MOMM*%
%LPD*%
G01*
G04 APERTURE LIST*
%TA.AperFunction,Profile*%
%ADD10C,0.200000*%
%TD*%
%TA.AperFunction,Profile*%
%ADD11C,0.100050*%
%TD*%
%ADD12C,0.200000*%
%ADD13C,0.040000*%
%ADD14C,0.060000*%
%ADD15C,0.075000*%
%ADD16C,0.100000*%
%ADD17C,0.110000*%
G04 APERTURE END LIST*
D10*
X11501680Y-13265660D02*
X10996756Y-13770585D01*
X11172749Y-14283015D02*
G75*
G03*
X11022304Y-14075020I-382189J-118035D01*
G01*
X19391536Y-14075020D02*
G75*
G03*
X19241093Y-14283015I231764J-326040D01*
G01*
X15215322Y-7617792D02*
X13612255Y-7617792D01*
X13356920Y-13217780D02*
X13356920Y-13897780D01*
X13412255Y-7817792D02*
X13412255Y-8512747D01*
X17006918Y-7817792D02*
G75*
G03*
X16806920Y-7617792I-199998J2D01*
G01*
X11172746Y-14283015D02*
G75*
G03*
X11284602Y-14407633I191094J59016D01*
G01*
X11265854Y-12464149D02*
G75*
G03*
X11265856Y-12746993I141426J-141421D01*
G01*
X19148117Y-12464018D02*
X17065499Y-10381400D01*
X13762255Y-8513307D02*
G75*
G03*
X13762255Y-8513307I-150000J0D01*
G01*
X16806920Y-7617792D02*
X15215322Y-7617792D01*
X19148117Y-12746861D02*
G75*
G03*
X19148117Y-12464018I-141427J141421D01*
G01*
X13348839Y-10381167D02*
X11265856Y-12464150D01*
X11366830Y-13904064D02*
G75*
G03*
X11366830Y-13904064I-150000J0D01*
G01*
D11*
X15211922Y-5317780D02*
G75*
G03*
X15211922Y-5317780I-5003J0D01*
G01*
D10*
X10996760Y-13770589D02*
G75*
G03*
X11022304Y-14075020I141420J-141421D01*
G01*
X18912161Y-12982819D02*
G75*
G03*
X18912160Y-13265660I141419J-141421D01*
G01*
X11265856Y-12746993D02*
X11501680Y-12982817D01*
X17006920Y-10239979D02*
X17006920Y-8517788D01*
X12056920Y-11937780D02*
X13356920Y-11937780D01*
X13356920Y-11937780D02*
X13356920Y-13217780D01*
X12056920Y-13897780D02*
X12056920Y-11937780D01*
X13612255Y-7617785D02*
G75*
G03*
X13412255Y-7817792I5J-200005D01*
G01*
X11501682Y-13265661D02*
G75*
G03*
X11501680Y-12982817I-141422J141421D01*
G01*
X13412255Y-8512747D02*
X13407417Y-10240306D01*
X11284602Y-14407633D02*
G75*
G03*
X19129238Y-14407633I3922318J9089854D01*
G01*
X19347010Y-13904064D02*
G75*
G03*
X19347010Y-13904064I-150000J0D01*
G01*
X19391540Y-14075025D02*
G75*
G03*
X19417085Y-13770585I-115880J163015D01*
G01*
X16956920Y-8517788D02*
G75*
G03*
X16956920Y-8517788I-150000J0D01*
G01*
X18912160Y-12982817D02*
X19148117Y-12746860D01*
X19417085Y-13770585D02*
X18912160Y-13265660D01*
X13348841Y-10381169D02*
G75*
G03*
X13407417Y-10240306I-141421J141419D01*
G01*
X17006924Y-10239979D02*
G75*
G03*
X17065499Y-10381400I200006J-2D01*
G01*
X13356920Y-13897780D02*
X12056920Y-13897780D01*
X17006920Y-8517788D02*
X17006920Y-7817792D01*
X19129238Y-14407633D02*
G75*
G03*
X19241093Y-14283015I-79238J183633D01*
G01*
D12*
D13*
X11410000Y-12578400D02*
X11450000Y-12618400D01*
X11450000Y-12578400D02*
X11410000Y-12618400D01*
X12908600Y-11410000D02*
X12948600Y-11450000D01*
X12948600Y-11410000D02*
X12908600Y-11450000D01*
X13442000Y-13797600D02*
X13482000Y-13837600D01*
X13482000Y-13797600D02*
X13442000Y-13837600D01*
X13467400Y-12781600D02*
X13507400Y-12821600D01*
X13507400Y-12781600D02*
X13467400Y-12821600D01*
X13569000Y-7790500D02*
X13609000Y-7830500D01*
X13609000Y-7790500D02*
X13569000Y-7830500D01*
X13594400Y-8158800D02*
X13634400Y-8198800D01*
X13634400Y-8158800D02*
X13594400Y-8198800D01*
X13594400Y-8819200D02*
X13634400Y-8859200D01*
X13634400Y-8819200D02*
X13594400Y-8859200D01*
X13891639Y-9147441D02*
X13931639Y-9187441D01*
X13931639Y-9147441D02*
X13891639Y-9187441D01*
X13950000Y-13010200D02*
X13990000Y-13050200D01*
X13990000Y-13010200D02*
X13950000Y-13050200D01*
X13950000Y-14229400D02*
X13990000Y-14269400D01*
X13990000Y-14229400D02*
X13950000Y-14269400D01*
X14077000Y-7879400D02*
X14117000Y-7919400D01*
X14117000Y-7879400D02*
X14077000Y-7919400D01*
X14077000Y-12451400D02*
X14117000Y-12491400D01*
X14117000Y-12451400D02*
X14077000Y-12491400D01*
X14140500Y-11219500D02*
X14180500Y-11259500D01*
X14180500Y-11219500D02*
X14140500Y-11259500D01*
X14140500Y-13632500D02*
X14180500Y-13672500D01*
X14180500Y-13632500D02*
X14140500Y-13672500D01*
X14204000Y-12108500D02*
X14244000Y-12148500D01*
X14244000Y-12108500D02*
X14204000Y-12148500D01*
X14339800Y-8650200D02*
X14379800Y-8690200D01*
X14379800Y-8650200D02*
X14339800Y-8690200D01*
X14356400Y-11079800D02*
X14396400Y-11119800D01*
X14396400Y-11079800D02*
X14356400Y-11119800D01*
X14458000Y-10618650D02*
X14498000Y-10658650D01*
X14498000Y-10618650D02*
X14458000Y-10658650D01*
X14712000Y-8806500D02*
X14752000Y-8846500D01*
X14752000Y-8806500D02*
X14712000Y-8846500D01*
X14762800Y-13238800D02*
X14802800Y-13278800D01*
X14802800Y-13238800D02*
X14762800Y-13278800D01*
X14762800Y-13696000D02*
X14802800Y-13736000D01*
X14802800Y-13696000D02*
X14762800Y-13736000D01*
X14966000Y-9606600D02*
X15006000Y-9646600D01*
X15006000Y-9606600D02*
X14966000Y-9646600D01*
X14991400Y-10368600D02*
X15031400Y-10408600D01*
X15031400Y-10368600D02*
X14991400Y-10408600D01*
X15067600Y-12984800D02*
X15107600Y-13024800D01*
X15107600Y-12984800D02*
X15067600Y-13024800D01*
X15093000Y-8425500D02*
X15133000Y-8465500D01*
X15133000Y-8425500D02*
X15093000Y-8465500D01*
X15194600Y-12299000D02*
X15234600Y-12339000D01*
X15234600Y-12299000D02*
X15194600Y-12339000D01*
X15220000Y-14229400D02*
X15260000Y-14269400D01*
X15260000Y-14229400D02*
X15220000Y-14269400D01*
X15296200Y-11079800D02*
X15336200Y-11119800D01*
X15336200Y-11079800D02*
X15296200Y-11119800D01*
X15296200Y-11918000D02*
X15336200Y-11958000D01*
X15336200Y-11918000D02*
X15296200Y-11958000D01*
X15410500Y-13632500D02*
X15450500Y-13672500D01*
X15450500Y-13632500D02*
X15410500Y-13672500D01*
X15626400Y-8971600D02*
X15666400Y-9011600D01*
X15666400Y-8971600D02*
X15626400Y-9011600D01*
X15626400Y-9606600D02*
X15666400Y-9646600D01*
X15666400Y-9606600D02*
X15626400Y-9646600D01*
X15626400Y-10368600D02*
X15666400Y-10408600D01*
X15666400Y-10368600D02*
X15626400Y-10408600D01*
X15829600Y-14178600D02*
X15869600Y-14218600D01*
X15869600Y-14178600D02*
X15829600Y-14218600D01*
X15931200Y-14178600D02*
X15971200Y-14218600D01*
X15971200Y-14178600D02*
X15931200Y-14218600D01*
X15982000Y-13696000D02*
X16022000Y-13736000D01*
X16022000Y-13696000D02*
X15982000Y-13736000D01*
X16032800Y-12730800D02*
X16072800Y-12770800D01*
X16072800Y-12730800D02*
X16032800Y-12770800D01*
X16032800Y-13238800D02*
X16072800Y-13278800D01*
X16072800Y-13238800D02*
X16032800Y-13278800D01*
X16032800Y-13941698D02*
X16072800Y-13981698D01*
X16072800Y-13941698D02*
X16032800Y-13981698D01*
X16134400Y-13887049D02*
X16174400Y-13927049D01*
X16174400Y-13887049D02*
X16134400Y-13927049D01*
X16210600Y-11943400D02*
X16250600Y-11983400D01*
X16250600Y-11943400D02*
X16210600Y-11983400D01*
X16236000Y-9606600D02*
X16276000Y-9646600D01*
X16276000Y-9606600D02*
X16236000Y-9646600D01*
X16236000Y-10368600D02*
X16276000Y-10408600D01*
X16276000Y-10368600D02*
X16236000Y-10408600D01*
X16236000Y-11079800D02*
X16276000Y-11119800D01*
X16276000Y-11079800D02*
X16236000Y-11119800D01*
X16464600Y-12730800D02*
X16504600Y-12770800D01*
X16504600Y-12730800D02*
X16464600Y-12770800D01*
X16464600Y-13035600D02*
X16504600Y-13075600D01*
X16504600Y-13035600D02*
X16464600Y-13075600D01*
X16490000Y-14229400D02*
X16530000Y-14269400D01*
X16530000Y-14229400D02*
X16490000Y-14269400D01*
X16515400Y-13569000D02*
X16555400Y-13609000D01*
X16555400Y-13569000D02*
X16515400Y-13609000D01*
X16577562Y-7868038D02*
X16617562Y-7908038D01*
X16617562Y-7868038D02*
X16577562Y-7908038D01*
X16718600Y-12324400D02*
X16758600Y-12364400D01*
X16758600Y-12324400D02*
X16718600Y-12364400D01*
X16794800Y-8133400D02*
X16834800Y-8173400D01*
X16834800Y-8133400D02*
X16794800Y-8173400D01*
X16794800Y-8870000D02*
X16834800Y-8910000D01*
X16834800Y-8870000D02*
X16794800Y-8910000D01*
X16794800Y-10190800D02*
X16834800Y-10230800D01*
X16834800Y-10190800D02*
X16794800Y-10230800D01*
X16807500Y-7790500D02*
X16847500Y-7830500D01*
X16847500Y-7790500D02*
X16807500Y-7830500D01*
X16820200Y-13569000D02*
X16860200Y-13609000D01*
X16860200Y-13569000D02*
X16820200Y-13609000D01*
X16845600Y-12883200D02*
X16885600Y-12923200D01*
X16885600Y-12883200D02*
X16845600Y-12923200D01*
X17353600Y-13238800D02*
X17393600Y-13278800D01*
X17393600Y-13238800D02*
X17353600Y-13278800D01*
X17353600Y-13696000D02*
X17393600Y-13736000D01*
X17393600Y-13696000D02*
X17353600Y-13736000D01*
X17480600Y-11410000D02*
X17520600Y-11450000D01*
X17520600Y-11410000D02*
X17480600Y-11450000D01*
X17937800Y-13594400D02*
X17977800Y-13634400D01*
X17977800Y-13594400D02*
X17937800Y-13634400D01*
X18877600Y-12578400D02*
X18917600Y-12618400D01*
X18917600Y-12578400D02*
X18877600Y-12618400D01*
D14*
X12933000Y-14421500D02*
G75*
G03*
X12933000Y-14421500I-30000J0D01*
G01*
D12*
X12883000Y-14366500D02*
X12883000Y-14476500D01*
X12923000Y-14366500D02*
X12923000Y-14476500D01*
X12883000Y-14476500D02*
G75*
G03*
X12923000Y-14476500I20000J0D01*
G01*
X12923000Y-14366500D02*
G75*
G03*
X12883000Y-14366500I-20000J0D01*
G01*
D14*
X12933000Y-14839500D02*
G75*
G03*
X12933000Y-14839500I-30000J0D01*
G01*
D12*
X12883000Y-14809500D02*
X12883000Y-14869500D01*
X12923000Y-14809500D02*
X12923000Y-14869500D01*
X12883000Y-14869500D02*
G75*
G03*
X12923000Y-14869500I20000J0D01*
G01*
X12923000Y-14809500D02*
G75*
G03*
X12883000Y-14809500I-20000J0D01*
G01*
D14*
X13797000Y-14421500D02*
G75*
G03*
X13797000Y-14421500I-30000J0D01*
G01*
D12*
X13747000Y-14366500D02*
X13747000Y-14476500D01*
X13787000Y-14366500D02*
X13787000Y-14476500D01*
X13747000Y-14476500D02*
G75*
G03*
X13787000Y-14476500I20000J0D01*
G01*
X13787000Y-14366500D02*
G75*
G03*
X13747000Y-14366500I-20000J0D01*
G01*
D14*
X13797000Y-14839500D02*
G75*
G03*
X13797000Y-14839500I-30000J0D01*
G01*
D12*
X13747000Y-14809500D02*
X13747000Y-14869500D01*
X13787000Y-14809500D02*
X13787000Y-14869500D01*
X13747000Y-14869500D02*
G75*
G03*
X13787000Y-14869500I20000J0D01*
G01*
X13787000Y-14809500D02*
G75*
G03*
X13747000Y-14809500I-20000J0D01*
G01*
D14*
X14203000Y-14548500D02*
G75*
G03*
X14203000Y-14548500I-30000J0D01*
G01*
D12*
X14153000Y-14493500D02*
X14153000Y-14603500D01*
X14193000Y-14493500D02*
X14193000Y-14603500D01*
X14153000Y-14603500D02*
G75*
G03*
X14193000Y-14603500I20000J0D01*
G01*
X14193000Y-14493500D02*
G75*
G03*
X14153000Y-14493500I-20000J0D01*
G01*
D14*
X14203000Y-14966500D02*
G75*
G03*
X14203000Y-14966500I-30000J0D01*
G01*
D12*
X14153000Y-14936500D02*
X14153000Y-14996500D01*
X14193000Y-14936500D02*
X14193000Y-14996500D01*
X14153000Y-14996500D02*
G75*
G03*
X14193000Y-14996500I20000J0D01*
G01*
X14193000Y-14936500D02*
G75*
G03*
X14153000Y-14936500I-20000J0D01*
G01*
D14*
X15067000Y-14548500D02*
G75*
G03*
X15067000Y-14548500I-30000J0D01*
G01*
D12*
X15017000Y-14493500D02*
X15017000Y-14603500D01*
X15057000Y-14493500D02*
X15057000Y-14603500D01*
X15017000Y-14603500D02*
G75*
G03*
X15057000Y-14603500I20000J0D01*
G01*
X15057000Y-14493500D02*
G75*
G03*
X15017000Y-14493500I-20000J0D01*
G01*
D14*
X15067000Y-14966500D02*
G75*
G03*
X15067000Y-14966500I-30000J0D01*
G01*
D12*
X15017000Y-14936500D02*
X15017000Y-14996500D01*
X15057000Y-14936500D02*
X15057000Y-14996500D01*
X15017000Y-14996500D02*
G75*
G03*
X15057000Y-14996500I20000J0D01*
G01*
X15057000Y-14936500D02*
G75*
G03*
X15017000Y-14936500I-20000J0D01*
G01*
D14*
X15473000Y-14548500D02*
G75*
G03*
X15473000Y-14548500I-30000J0D01*
G01*
D12*
X15423000Y-14493500D02*
X15423000Y-14603500D01*
X15463000Y-14493500D02*
X15463000Y-14603500D01*
X15423000Y-14603500D02*
G75*
G03*
X15463000Y-14603500I20000J0D01*
G01*
X15463000Y-14493500D02*
G75*
G03*
X15423000Y-14493500I-20000J0D01*
G01*
D14*
X15473000Y-14966500D02*
G75*
G03*
X15473000Y-14966500I-30000J0D01*
G01*
D12*
X15423000Y-14936500D02*
X15423000Y-14996500D01*
X15463000Y-14936500D02*
X15463000Y-14996500D01*
X15423000Y-14996500D02*
G75*
G03*
X15463000Y-14996500I20000J0D01*
G01*
X15463000Y-14936500D02*
G75*
G03*
X15423000Y-14936500I-20000J0D01*
G01*
D14*
X16337000Y-14548500D02*
G75*
G03*
X16337000Y-14548500I-30000J0D01*
G01*
D12*
X16287000Y-14493500D02*
X16287000Y-14603500D01*
X16327000Y-14493500D02*
X16327000Y-14603500D01*
X16287000Y-14603500D02*
G75*
G03*
X16327000Y-14603500I20000J0D01*
G01*
X16327000Y-14493500D02*
G75*
G03*
X16287000Y-14493500I-20000J0D01*
G01*
D14*
X16337000Y-14966500D02*
G75*
G03*
X16337000Y-14966500I-30000J0D01*
G01*
D12*
X16287000Y-14936500D02*
X16287000Y-14996500D01*
X16327000Y-14936500D02*
X16327000Y-14996500D01*
X16287000Y-14996500D02*
G75*
G03*
X16327000Y-14996500I20000J0D01*
G01*
X16327000Y-14936500D02*
G75*
G03*
X16287000Y-14936500I-20000J0D01*
G01*
D14*
X16743000Y-14421500D02*
G75*
G03*
X16743000Y-14421500I-30000J0D01*
G01*
D12*
X16693000Y-14366500D02*
X16693000Y-14476500D01*
X16733000Y-14366500D02*
X16733000Y-14476500D01*
X16693000Y-14476500D02*
G75*
G03*
X16733000Y-14476500I20000J0D01*
G01*
X16733000Y-14366500D02*
G75*
G03*
X16693000Y-14366500I-20000J0D01*
G01*
D14*
X16743000Y-14839500D02*
G75*
G03*
X16743000Y-14839500I-30000J0D01*
G01*
D12*
X16693000Y-14809500D02*
X16693000Y-14869500D01*
X16733000Y-14809500D02*
X16733000Y-14869500D01*
X16693000Y-14869500D02*
G75*
G03*
X16733000Y-14869500I20000J0D01*
G01*
X16733000Y-14809500D02*
G75*
G03*
X16693000Y-14809500I-20000J0D01*
G01*
D14*
X17607000Y-14421500D02*
G75*
G03*
X17607000Y-14421500I-30000J0D01*
G01*
D12*
X17557000Y-14366500D02*
X17557000Y-14476500D01*
X17597000Y-14366500D02*
X17597000Y-14476500D01*
X17557000Y-14476500D02*
G75*
G03*
X17597000Y-14476500I20000J0D01*
G01*
X17597000Y-14366500D02*
G75*
G03*
X17557000Y-14366500I-20000J0D01*
G01*
D14*
X17607000Y-14839500D02*
G75*
G03*
X17607000Y-14839500I-30000J0D01*
G01*
D12*
X17557000Y-14809500D02*
X17557000Y-14869500D01*
X17597000Y-14809500D02*
X17597000Y-14869500D01*
X17557000Y-14869500D02*
G75*
G03*
X17597000Y-14869500I20000J0D01*
G01*
X17597000Y-14809500D02*
G75*
G03*
X17557000Y-14809500I-20000J0D01*
G01*
D15*
X14224000Y-10791000D02*
X14224000Y-10866000D01*
X14186500Y-10828500D02*
X14261500Y-10828500D01*
X14351000Y-10791000D02*
X14351000Y-10866000D01*
X14313500Y-10828500D02*
X14388500Y-10828500D01*
X14478000Y-10791000D02*
X14478000Y-10866000D01*
X14440500Y-10828500D02*
X14515500Y-10828500D01*
X14605000Y-10791000D02*
X14605000Y-10866000D01*
X14567500Y-10828500D02*
X14642500Y-10828500D01*
X14732000Y-10791000D02*
X14732000Y-10866000D01*
X14694500Y-10828500D02*
X14769500Y-10828500D01*
X14859000Y-10791000D02*
X14859000Y-10866000D01*
X14821500Y-10828500D02*
X14896500Y-10828500D01*
X14986000Y-10791000D02*
X14986000Y-10866000D01*
X14948500Y-10828500D02*
X15023500Y-10828500D01*
X15113000Y-10791000D02*
X15113000Y-10866000D01*
X15075500Y-10828500D02*
X15150500Y-10828500D01*
X15240000Y-10791000D02*
X15240000Y-10866000D01*
X15202500Y-10828500D02*
X15277500Y-10828500D01*
X15367000Y-10791000D02*
X15367000Y-10866000D01*
X15329500Y-10828500D02*
X15404500Y-10828500D01*
X15494000Y-10791000D02*
X15494000Y-10866000D01*
X15456500Y-10828500D02*
X15531500Y-10828500D01*
X15621000Y-10791000D02*
X15621000Y-10866000D01*
X15583500Y-10828500D02*
X15658500Y-10828500D01*
X15748000Y-10791000D02*
X15748000Y-10866000D01*
X15710500Y-10828500D02*
X15785500Y-10828500D01*
X15875000Y-10791000D02*
X15875000Y-10866000D01*
X15837500Y-10828500D02*
X15912500Y-10828500D01*
X16002000Y-10791000D02*
X16002000Y-10866000D01*
X15964500Y-10828500D02*
X16039500Y-10828500D01*
X16129000Y-10792000D02*
X16129000Y-10867000D01*
X16091500Y-10829500D02*
X16166500Y-10829500D01*
X16256000Y-10792000D02*
X16256000Y-10867000D01*
X16218500Y-10829500D02*
X16293500Y-10829500D01*
D16*
X14133356Y-7756956D02*
X14133356Y-7686244D01*
X14062644Y-7686244D01*
X14062644Y-7756956D01*
X14133356Y-7756956D01*
X14133856Y-8102396D02*
X14133856Y-8031684D01*
X14063144Y-8031684D01*
X14063144Y-8102396D01*
X14133856Y-8102396D01*
X14387356Y-7756956D02*
X14387356Y-7686244D01*
X14316644Y-7686244D01*
X14316644Y-7756956D01*
X14387356Y-7756956D01*
X14387856Y-8102396D02*
X14387856Y-8031684D01*
X14317144Y-8031684D01*
X14317144Y-8102396D01*
X14387856Y-8102396D01*
X14641356Y-7756956D02*
X14641356Y-7686244D01*
X14570644Y-7686244D01*
X14570644Y-7756956D01*
X14641356Y-7756956D01*
X14641856Y-8102396D02*
X14641856Y-8031684D01*
X14571144Y-8031684D01*
X14571144Y-8102396D01*
X14641856Y-8102396D01*
X14895356Y-7756956D02*
X14895356Y-7686244D01*
X14824644Y-7686244D01*
X14824644Y-7756956D01*
X14895356Y-7756956D01*
X14895856Y-8102396D02*
X14895856Y-8031684D01*
X14825144Y-8031684D01*
X14825144Y-8102396D01*
X14895856Y-8102396D01*
X15149356Y-7756956D02*
X15149356Y-7686244D01*
X15078644Y-7686244D01*
X15078644Y-7756956D01*
X15149356Y-7756956D01*
X15149856Y-8102396D02*
X15149856Y-8031684D01*
X15079144Y-8031684D01*
X15079144Y-8102396D01*
X15149856Y-8102396D01*
X15403356Y-7756956D02*
X15403356Y-7686244D01*
X15332644Y-7686244D01*
X15332644Y-7756956D01*
X15403356Y-7756956D01*
X15403856Y-8102396D02*
X15403856Y-8031684D01*
X15333144Y-8031684D01*
X15333144Y-8102396D01*
X15403856Y-8102396D01*
X15657356Y-7756956D02*
X15657356Y-7686244D01*
X15586644Y-7686244D01*
X15586644Y-7756956D01*
X15657356Y-7756956D01*
X15657856Y-8102396D02*
X15657856Y-8031684D01*
X15587144Y-8031684D01*
X15587144Y-8102396D01*
X15657856Y-8102396D01*
X15911356Y-7756956D02*
X15911356Y-7686244D01*
X15840644Y-7686244D01*
X15840644Y-7756956D01*
X15911356Y-7756956D01*
X15911856Y-8102396D02*
X15911856Y-8031684D01*
X15841144Y-8031684D01*
X15841144Y-8102396D01*
X15911856Y-8102396D01*
X16165356Y-7756956D02*
X16165356Y-7686244D01*
X16094644Y-7686244D01*
X16094644Y-7756956D01*
X16165356Y-7756956D01*
X16165856Y-8102396D02*
X16165856Y-8031684D01*
X16095144Y-8031684D01*
X16095144Y-8102396D01*
X16165856Y-8102396D01*
X16419356Y-7756956D02*
X16419356Y-7686244D01*
X16348644Y-7686244D01*
X16348644Y-7756956D01*
X16419356Y-7756956D01*
X16419856Y-8102396D02*
X16419856Y-8031684D01*
X16349144Y-8031684D01*
X16349144Y-8102396D01*
X16419856Y-8102396D01*
D17*
X13828000Y-13321000D02*
X13883000Y-13266000D01*
X13828000Y-13211000D01*
X13773000Y-13266000D01*
X13828000Y-13321000D01*
X13828000Y-13771000D02*
X13883000Y-13716000D01*
X13828000Y-13661000D01*
X13773000Y-13716000D01*
X13828000Y-13771000D01*
X14478000Y-13321000D02*
X14533000Y-13266000D01*
X14478000Y-13211000D01*
X14423000Y-13266000D01*
X14478000Y-13321000D01*
X14478000Y-13771000D02*
X14533000Y-13716000D01*
X14478000Y-13661000D01*
X14423000Y-13716000D01*
X14478000Y-13771000D01*
X15098000Y-13321000D02*
X15153000Y-13266000D01*
X15098000Y-13211000D01*
X15043000Y-13266000D01*
X15098000Y-13321000D01*
X15098000Y-13771000D02*
X15153000Y-13716000D01*
X15098000Y-13661000D01*
X15043000Y-13716000D01*
X15098000Y-13771000D01*
X15748000Y-13321000D02*
X15803000Y-13266000D01*
X15748000Y-13211000D01*
X15693000Y-13266000D01*
X15748000Y-13321000D01*
X15748000Y-13771000D02*
X15803000Y-13716000D01*
X15748000Y-13661000D01*
X15693000Y-13716000D01*
X15748000Y-13771000D01*
X16368000Y-13321000D02*
X16423000Y-13266000D01*
X16368000Y-13211000D01*
X16313000Y-13266000D01*
X16368000Y-13321000D01*
X16368000Y-13771000D02*
X16423000Y-13716000D01*
X16368000Y-13661000D01*
X16313000Y-13716000D01*
X16368000Y-13771000D01*
X17018000Y-13321000D02*
X17073000Y-13266000D01*
X17018000Y-13211000D01*
X16963000Y-13266000D01*
X17018000Y-13321000D01*
X17018000Y-13771000D02*
X17073000Y-13716000D01*
X17018000Y-13661000D01*
X16963000Y-13716000D01*
X17018000Y-13771000D01*
X17632800Y-13321000D02*
X17687800Y-13266000D01*
X17632800Y-13211000D01*
X17577800Y-13266000D01*
X17632800Y-13321000D01*
X17632800Y-13771000D02*
X17687800Y-13716000D01*
X17632800Y-13661000D01*
X17577800Y-13716000D01*
X17632800Y-13771000D01*
X18282800Y-13321000D02*
X18337800Y-13266000D01*
X18282800Y-13211000D01*
X18227800Y-13266000D01*
X18282800Y-13321000D01*
X18282800Y-13771000D02*
X18337800Y-13716000D01*
X18282800Y-13661000D01*
X18227800Y-13716000D01*
X18282800Y-13771000D01*
D12*
X11185800Y-15538256D02*
X11185800Y-15338256D01*
X11233419Y-15338256D01*
X11261990Y-15347780D01*
X11281038Y-15366828D01*
X11290562Y-15385875D01*
X11300086Y-15423970D01*
X11300086Y-15452542D01*
X11290562Y-15490637D01*
X11281038Y-15509685D01*
X11261990Y-15528732D01*
X11233419Y-15538256D01*
X11185800Y-15538256D01*
X11385800Y-15538256D02*
X11385800Y-15404923D01*
X11385800Y-15443018D02*
X11395324Y-15423970D01*
X11404848Y-15414447D01*
X11423895Y-15404923D01*
X11442943Y-15404923D01*
X11509609Y-15538256D02*
X11509609Y-15404923D01*
X11509609Y-15338256D02*
X11500086Y-15347780D01*
X11509609Y-15357304D01*
X11519133Y-15347780D01*
X11509609Y-15338256D01*
X11509609Y-15357304D01*
X11633419Y-15538256D02*
X11614371Y-15528732D01*
X11604848Y-15509685D01*
X11604848Y-15338256D01*
X11738181Y-15538256D02*
X11719133Y-15528732D01*
X11709609Y-15509685D01*
X11709609Y-15338256D01*
X11966752Y-15538256D02*
X11966752Y-15338256D01*
X12033419Y-15481113D01*
X12100086Y-15338256D01*
X12100086Y-15538256D01*
X12281038Y-15538256D02*
X12281038Y-15433494D01*
X12271514Y-15414447D01*
X12252467Y-15404923D01*
X12214371Y-15404923D01*
X12195324Y-15414447D01*
X12281038Y-15528732D02*
X12261990Y-15538256D01*
X12214371Y-15538256D01*
X12195324Y-15528732D01*
X12185800Y-15509685D01*
X12185800Y-15490637D01*
X12195324Y-15471589D01*
X12214371Y-15462066D01*
X12261990Y-15462066D01*
X12281038Y-15452542D01*
X12376276Y-15404923D02*
X12376276Y-15604923D01*
X12376276Y-15414447D02*
X12395324Y-15404923D01*
X12433419Y-15404923D01*
X12452467Y-15414447D01*
X12461990Y-15423970D01*
X12471514Y-15443018D01*
X12471514Y-15500161D01*
X12461990Y-15519208D01*
X12452467Y-15528732D01*
X12433419Y-15538256D01*
X12395324Y-15538256D01*
X12376276Y-15528732D01*
X12557229Y-15519208D02*
X12566752Y-15528732D01*
X12557229Y-15538256D01*
X12547705Y-15528732D01*
X12557229Y-15519208D01*
X12557229Y-15538256D01*
X12557229Y-15414447D02*
X12566752Y-15423970D01*
X12557229Y-15433494D01*
X12547705Y-15423970D01*
X12557229Y-15414447D01*
X12557229Y-15433494D01*
D13*
X10888181Y-15847780D02*
X10928181Y-15887780D01*
X10928181Y-15847780D02*
X10888181Y-15887780D01*
D12*
X11223895Y-15758256D02*
X11242943Y-15758256D01*
X11261990Y-15767780D01*
X11271514Y-15777304D01*
X11281038Y-15796351D01*
X11290562Y-15834447D01*
X11290562Y-15882066D01*
X11281038Y-15920161D01*
X11271514Y-15939208D01*
X11261990Y-15948732D01*
X11242943Y-15958256D01*
X11223895Y-15958256D01*
X11204848Y-15948732D01*
X11195324Y-15939208D01*
X11185800Y-15920161D01*
X11176276Y-15882066D01*
X11176276Y-15834447D01*
X11185800Y-15796351D01*
X11195324Y-15777304D01*
X11204848Y-15767780D01*
X11223895Y-15758256D01*
X11376276Y-15939208D02*
X11385800Y-15948732D01*
X11376276Y-15958256D01*
X11366752Y-15948732D01*
X11376276Y-15939208D01*
X11376276Y-15958256D01*
X11557229Y-15824923D02*
X11557229Y-15958256D01*
X11509609Y-15748732D02*
X11461990Y-15891589D01*
X11585800Y-15891589D01*
X11700086Y-15758256D02*
X11719133Y-15758256D01*
X11738181Y-15767780D01*
X11747705Y-15777304D01*
X11757229Y-15796351D01*
X11766752Y-15834447D01*
X11766752Y-15882066D01*
X11757229Y-15920161D01*
X11747705Y-15939208D01*
X11738181Y-15948732D01*
X11719133Y-15958256D01*
X11700086Y-15958256D01*
X11681038Y-15948732D01*
X11671514Y-15939208D01*
X11661990Y-15920161D01*
X11652467Y-15882066D01*
X11652467Y-15834447D01*
X11661990Y-15796351D01*
X11671514Y-15777304D01*
X11681038Y-15767780D01*
X11700086Y-15758256D01*
X11890562Y-15758256D02*
X11909609Y-15758256D01*
X11928657Y-15767780D01*
X11938181Y-15777304D01*
X11947705Y-15796351D01*
X11957229Y-15834447D01*
X11957229Y-15882066D01*
X11947705Y-15920161D01*
X11938181Y-15939208D01*
X11928657Y-15948732D01*
X11909609Y-15958256D01*
X11890562Y-15958256D01*
X11871514Y-15948732D01*
X11861990Y-15939208D01*
X11852467Y-15920161D01*
X11842943Y-15882066D01*
X11842943Y-15834447D01*
X11852467Y-15796351D01*
X11861990Y-15777304D01*
X11871514Y-15767780D01*
X11890562Y-15758256D01*
X12042943Y-15958256D02*
X12042943Y-15824923D01*
X12042943Y-15843970D02*
X12052467Y-15834447D01*
X12071514Y-15824923D01*
X12100086Y-15824923D01*
X12119133Y-15834447D01*
X12128657Y-15853494D01*
X12128657Y-15958256D01*
X12128657Y-15853494D02*
X12138181Y-15834447D01*
X12157229Y-15824923D01*
X12185800Y-15824923D01*
X12204848Y-15834447D01*
X12214371Y-15853494D01*
X12214371Y-15958256D01*
X12309609Y-15958256D02*
X12309609Y-15824923D01*
X12309609Y-15843970D02*
X12319133Y-15834447D01*
X12338181Y-15824923D01*
X12366752Y-15824923D01*
X12385800Y-15834447D01*
X12395324Y-15853494D01*
X12395324Y-15958256D01*
X12395324Y-15853494D02*
X12404848Y-15834447D01*
X12423895Y-15824923D01*
X12452467Y-15824923D01*
X12471514Y-15834447D01*
X12481038Y-15853494D01*
X12481038Y-15958256D01*
X12871514Y-15748732D02*
X12700086Y-16005875D01*
X13128657Y-15758256D02*
X13147705Y-15758256D01*
X13166752Y-15767780D01*
X13176276Y-15777304D01*
X13185800Y-15796351D01*
X13195324Y-15834447D01*
X13195324Y-15882066D01*
X13185800Y-15920161D01*
X13176276Y-15939208D01*
X13166752Y-15948732D01*
X13147705Y-15958256D01*
X13128657Y-15958256D01*
X13109609Y-15948732D01*
X13100086Y-15939208D01*
X13090562Y-15920161D01*
X13081038Y-15882066D01*
X13081038Y-15834447D01*
X13090562Y-15796351D01*
X13100086Y-15777304D01*
X13109609Y-15767780D01*
X13128657Y-15758256D01*
X13281038Y-15939208D02*
X13290562Y-15948732D01*
X13281038Y-15958256D01*
X13271514Y-15948732D01*
X13281038Y-15939208D01*
X13281038Y-15958256D01*
X13414371Y-15758256D02*
X13433419Y-15758256D01*
X13452467Y-15767780D01*
X13461990Y-15777304D01*
X13471514Y-15796351D01*
X13481038Y-15834447D01*
X13481038Y-15882066D01*
X13471514Y-15920161D01*
X13461990Y-15939208D01*
X13452467Y-15948732D01*
X13433419Y-15958256D01*
X13414371Y-15958256D01*
X13395324Y-15948732D01*
X13385800Y-15939208D01*
X13376276Y-15920161D01*
X13366752Y-15882066D01*
X13366752Y-15834447D01*
X13376276Y-15796351D01*
X13385800Y-15777304D01*
X13395324Y-15767780D01*
X13414371Y-15758256D01*
X13671514Y-15958256D02*
X13557229Y-15958256D01*
X13614371Y-15958256D02*
X13614371Y-15758256D01*
X13595324Y-15786828D01*
X13576276Y-15805875D01*
X13557229Y-15815399D01*
X13852467Y-15758256D02*
X13757229Y-15758256D01*
X13747705Y-15853494D01*
X13757229Y-15843970D01*
X13776276Y-15834447D01*
X13823895Y-15834447D01*
X13842943Y-15843970D01*
X13852467Y-15853494D01*
X13861990Y-15872542D01*
X13861990Y-15920161D01*
X13852467Y-15939208D01*
X13842943Y-15948732D01*
X13823895Y-15958256D01*
X13776276Y-15958256D01*
X13757229Y-15948732D01*
X13747705Y-15939208D01*
X13928657Y-15758256D02*
X14061990Y-15758256D01*
X13976276Y-15958256D01*
X14128657Y-15758256D02*
X14128657Y-15796351D01*
X14204848Y-15758256D02*
X14204848Y-15796351D01*
X14500086Y-16034447D02*
X14490562Y-16024923D01*
X14471514Y-15996351D01*
X14461990Y-15977304D01*
X14452467Y-15948732D01*
X14442943Y-15901113D01*
X14442943Y-15863018D01*
X14452467Y-15815399D01*
X14461990Y-15786828D01*
X14471514Y-15767780D01*
X14490562Y-15739208D01*
X14500086Y-15729685D01*
X14661990Y-15758256D02*
X14623895Y-15758256D01*
X14604848Y-15767780D01*
X14595324Y-15777304D01*
X14576276Y-15805875D01*
X14566752Y-15843970D01*
X14566752Y-15920161D01*
X14576276Y-15939208D01*
X14585800Y-15948732D01*
X14604848Y-15958256D01*
X14642943Y-15958256D01*
X14661990Y-15948732D01*
X14671514Y-15939208D01*
X14681038Y-15920161D01*
X14681038Y-15872542D01*
X14671514Y-15853494D01*
X14661990Y-15843970D01*
X14642943Y-15834447D01*
X14604848Y-15834447D01*
X14585800Y-15843970D01*
X14576276Y-15853494D01*
X14566752Y-15872542D01*
X14871514Y-15958256D02*
X14757229Y-15958256D01*
X14814371Y-15958256D02*
X14814371Y-15758256D01*
X14795324Y-15786828D01*
X14776276Y-15805875D01*
X14757229Y-15815399D01*
X15109609Y-15958256D02*
X15109609Y-15758256D01*
X15195324Y-15958256D02*
X15195324Y-15853494D01*
X15185800Y-15834447D01*
X15166752Y-15824923D01*
X15138181Y-15824923D01*
X15119133Y-15834447D01*
X15109609Y-15843970D01*
X15319133Y-15958256D02*
X15300086Y-15948732D01*
X15290562Y-15939208D01*
X15281038Y-15920161D01*
X15281038Y-15863018D01*
X15290562Y-15843970D01*
X15300086Y-15834447D01*
X15319133Y-15824923D01*
X15347705Y-15824923D01*
X15366752Y-15834447D01*
X15376276Y-15843970D01*
X15385800Y-15863018D01*
X15385800Y-15920161D01*
X15376276Y-15939208D01*
X15366752Y-15948732D01*
X15347705Y-15958256D01*
X15319133Y-15958256D01*
X15500086Y-15958256D02*
X15481038Y-15948732D01*
X15471514Y-15929685D01*
X15471514Y-15758256D01*
X15652467Y-15948732D02*
X15633419Y-15958256D01*
X15595324Y-15958256D01*
X15576276Y-15948732D01*
X15566752Y-15929685D01*
X15566752Y-15853494D01*
X15576276Y-15834447D01*
X15595324Y-15824923D01*
X15633419Y-15824923D01*
X15652467Y-15834447D01*
X15661990Y-15853494D01*
X15661990Y-15872542D01*
X15566752Y-15891589D01*
X15738181Y-15948732D02*
X15757229Y-15958256D01*
X15795324Y-15958256D01*
X15814371Y-15948732D01*
X15823895Y-15929685D01*
X15823895Y-15920161D01*
X15814371Y-15901113D01*
X15795324Y-15891589D01*
X15766752Y-15891589D01*
X15747705Y-15882066D01*
X15738181Y-15863018D01*
X15738181Y-15853494D01*
X15747705Y-15834447D01*
X15766752Y-15824923D01*
X15795324Y-15824923D01*
X15814371Y-15834447D01*
X15890562Y-16034447D02*
X15900086Y-16024923D01*
X15919133Y-15996351D01*
X15928657Y-15977304D01*
X15938181Y-15948732D01*
X15947705Y-15901113D01*
X15947705Y-15863018D01*
X15938181Y-15815399D01*
X15928657Y-15786828D01*
X15919133Y-15767780D01*
X15900086Y-15739208D01*
X15890562Y-15729685D01*
D14*
X10928181Y-16131780D02*
G75*
G03*
X10928181Y-16131780I-30000J0D01*
G01*
D12*
X11223895Y-16022256D02*
X11242943Y-16022256D01*
X11261990Y-16031780D01*
X11271514Y-16041304D01*
X11281038Y-16060351D01*
X11290562Y-16098447D01*
X11290562Y-16146066D01*
X11281038Y-16184161D01*
X11271514Y-16203208D01*
X11261990Y-16212732D01*
X11242943Y-16222256D01*
X11223895Y-16222256D01*
X11204848Y-16212732D01*
X11195324Y-16203208D01*
X11185800Y-16184161D01*
X11176276Y-16146066D01*
X11176276Y-16098447D01*
X11185800Y-16060351D01*
X11195324Y-16041304D01*
X11204848Y-16031780D01*
X11223895Y-16022256D01*
X11376276Y-16203208D02*
X11385800Y-16212732D01*
X11376276Y-16222256D01*
X11366752Y-16212732D01*
X11376276Y-16203208D01*
X11376276Y-16222256D01*
X11557229Y-16022256D02*
X11519133Y-16022256D01*
X11500086Y-16031780D01*
X11490562Y-16041304D01*
X11471514Y-16069875D01*
X11461990Y-16107970D01*
X11461990Y-16184161D01*
X11471514Y-16203208D01*
X11481038Y-16212732D01*
X11500086Y-16222256D01*
X11538181Y-16222256D01*
X11557229Y-16212732D01*
X11566752Y-16203208D01*
X11576276Y-16184161D01*
X11576276Y-16136542D01*
X11566752Y-16117494D01*
X11557229Y-16107970D01*
X11538181Y-16098447D01*
X11500086Y-16098447D01*
X11481038Y-16107970D01*
X11471514Y-16117494D01*
X11461990Y-16136542D01*
X11700086Y-16022256D02*
X11719133Y-16022256D01*
X11738181Y-16031780D01*
X11747705Y-16041304D01*
X11757229Y-16060351D01*
X11766752Y-16098447D01*
X11766752Y-16146066D01*
X11757229Y-16184161D01*
X11747705Y-16203208D01*
X11738181Y-16212732D01*
X11719133Y-16222256D01*
X11700086Y-16222256D01*
X11681038Y-16212732D01*
X11671514Y-16203208D01*
X11661990Y-16184161D01*
X11652467Y-16146066D01*
X11652467Y-16098447D01*
X11661990Y-16060351D01*
X11671514Y-16041304D01*
X11681038Y-16031780D01*
X11700086Y-16022256D01*
X11890562Y-16022256D02*
X11909609Y-16022256D01*
X11928657Y-16031780D01*
X11938181Y-16041304D01*
X11947705Y-16060351D01*
X11957229Y-16098447D01*
X11957229Y-16146066D01*
X11947705Y-16184161D01*
X11938181Y-16203208D01*
X11928657Y-16212732D01*
X11909609Y-16222256D01*
X11890562Y-16222256D01*
X11871514Y-16212732D01*
X11861990Y-16203208D01*
X11852467Y-16184161D01*
X11842943Y-16146066D01*
X11842943Y-16098447D01*
X11852467Y-16060351D01*
X11861990Y-16041304D01*
X11871514Y-16031780D01*
X11890562Y-16022256D01*
X12042943Y-16222256D02*
X12042943Y-16088923D01*
X12042943Y-16107970D02*
X12052467Y-16098447D01*
X12071514Y-16088923D01*
X12100086Y-16088923D01*
X12119133Y-16098447D01*
X12128657Y-16117494D01*
X12128657Y-16222256D01*
X12128657Y-16117494D02*
X12138181Y-16098447D01*
X12157229Y-16088923D01*
X12185800Y-16088923D01*
X12204848Y-16098447D01*
X12214371Y-16117494D01*
X12214371Y-16222256D01*
X12309609Y-16222256D02*
X12309609Y-16088923D01*
X12309609Y-16107970D02*
X12319133Y-16098447D01*
X12338181Y-16088923D01*
X12366752Y-16088923D01*
X12385800Y-16098447D01*
X12395324Y-16117494D01*
X12395324Y-16222256D01*
X12395324Y-16117494D02*
X12404848Y-16098447D01*
X12423895Y-16088923D01*
X12452467Y-16088923D01*
X12471514Y-16098447D01*
X12481038Y-16117494D01*
X12481038Y-16222256D01*
X12871514Y-16012732D02*
X12700086Y-16269875D01*
X13128657Y-16022256D02*
X13147705Y-16022256D01*
X13166752Y-16031780D01*
X13176276Y-16041304D01*
X13185800Y-16060351D01*
X13195324Y-16098447D01*
X13195324Y-16146066D01*
X13185800Y-16184161D01*
X13176276Y-16203208D01*
X13166752Y-16212732D01*
X13147705Y-16222256D01*
X13128657Y-16222256D01*
X13109609Y-16212732D01*
X13100086Y-16203208D01*
X13090562Y-16184161D01*
X13081038Y-16146066D01*
X13081038Y-16098447D01*
X13090562Y-16060351D01*
X13100086Y-16041304D01*
X13109609Y-16031780D01*
X13128657Y-16022256D01*
X13281038Y-16203208D02*
X13290562Y-16212732D01*
X13281038Y-16222256D01*
X13271514Y-16212732D01*
X13281038Y-16203208D01*
X13281038Y-16222256D01*
X13414371Y-16022256D02*
X13433419Y-16022256D01*
X13452467Y-16031780D01*
X13461990Y-16041304D01*
X13471514Y-16060351D01*
X13481038Y-16098447D01*
X13481038Y-16146066D01*
X13471514Y-16184161D01*
X13461990Y-16203208D01*
X13452467Y-16212732D01*
X13433419Y-16222256D01*
X13414371Y-16222256D01*
X13395324Y-16212732D01*
X13385800Y-16203208D01*
X13376276Y-16184161D01*
X13366752Y-16146066D01*
X13366752Y-16098447D01*
X13376276Y-16060351D01*
X13385800Y-16041304D01*
X13395324Y-16031780D01*
X13414371Y-16022256D01*
X13557229Y-16041304D02*
X13566752Y-16031780D01*
X13585800Y-16022256D01*
X13633419Y-16022256D01*
X13652467Y-16031780D01*
X13661990Y-16041304D01*
X13671514Y-16060351D01*
X13671514Y-16079399D01*
X13661990Y-16107970D01*
X13547705Y-16222256D01*
X13671514Y-16222256D01*
X13738181Y-16022256D02*
X13861990Y-16022256D01*
X13795324Y-16098447D01*
X13823895Y-16098447D01*
X13842943Y-16107970D01*
X13852467Y-16117494D01*
X13861990Y-16136542D01*
X13861990Y-16184161D01*
X13852467Y-16203208D01*
X13842943Y-16212732D01*
X13823895Y-16222256D01*
X13766752Y-16222256D01*
X13747705Y-16212732D01*
X13738181Y-16203208D01*
X14033419Y-16022256D02*
X13995324Y-16022256D01*
X13976276Y-16031780D01*
X13966752Y-16041304D01*
X13947705Y-16069875D01*
X13938181Y-16107970D01*
X13938181Y-16184161D01*
X13947705Y-16203208D01*
X13957229Y-16212732D01*
X13976276Y-16222256D01*
X14014371Y-16222256D01*
X14033419Y-16212732D01*
X14042943Y-16203208D01*
X14052467Y-16184161D01*
X14052467Y-16136542D01*
X14042943Y-16117494D01*
X14033419Y-16107970D01*
X14014371Y-16098447D01*
X13976276Y-16098447D01*
X13957229Y-16107970D01*
X13947705Y-16117494D01*
X13938181Y-16136542D01*
X14128657Y-16022256D02*
X14128657Y-16060351D01*
X14204848Y-16022256D02*
X14204848Y-16060351D01*
X14500086Y-16298447D02*
X14490562Y-16288923D01*
X14471514Y-16260351D01*
X14461990Y-16241304D01*
X14452467Y-16212732D01*
X14442943Y-16165113D01*
X14442943Y-16127018D01*
X14452467Y-16079399D01*
X14461990Y-16050828D01*
X14471514Y-16031780D01*
X14490562Y-16003208D01*
X14500086Y-15993685D01*
X14614371Y-16022256D02*
X14633419Y-16022256D01*
X14652467Y-16031780D01*
X14661990Y-16041304D01*
X14671514Y-16060351D01*
X14681038Y-16098447D01*
X14681038Y-16146066D01*
X14671514Y-16184161D01*
X14661990Y-16203208D01*
X14652467Y-16212732D01*
X14633419Y-16222256D01*
X14614371Y-16222256D01*
X14595324Y-16212732D01*
X14585800Y-16203208D01*
X14576276Y-16184161D01*
X14566752Y-16146066D01*
X14566752Y-16098447D01*
X14576276Y-16060351D01*
X14585800Y-16041304D01*
X14595324Y-16031780D01*
X14614371Y-16022256D01*
X14919133Y-16222256D02*
X14919133Y-16022256D01*
X15004848Y-16222256D02*
X15004848Y-16117494D01*
X14995324Y-16098447D01*
X14976276Y-16088923D01*
X14947705Y-16088923D01*
X14928657Y-16098447D01*
X14919133Y-16107970D01*
X15128657Y-16222256D02*
X15109609Y-16212732D01*
X15100086Y-16203208D01*
X15090562Y-16184161D01*
X15090562Y-16127018D01*
X15100086Y-16107970D01*
X15109609Y-16098447D01*
X15128657Y-16088923D01*
X15157229Y-16088923D01*
X15176276Y-16098447D01*
X15185800Y-16107970D01*
X15195324Y-16127018D01*
X15195324Y-16184161D01*
X15185800Y-16203208D01*
X15176276Y-16212732D01*
X15157229Y-16222256D01*
X15128657Y-16222256D01*
X15309609Y-16222256D02*
X15290562Y-16212732D01*
X15281038Y-16193685D01*
X15281038Y-16022256D01*
X15461990Y-16212732D02*
X15442943Y-16222256D01*
X15404848Y-16222256D01*
X15385800Y-16212732D01*
X15376276Y-16193685D01*
X15376276Y-16117494D01*
X15385800Y-16098447D01*
X15404848Y-16088923D01*
X15442943Y-16088923D01*
X15461990Y-16098447D01*
X15471514Y-16117494D01*
X15471514Y-16136542D01*
X15376276Y-16155589D01*
X15547705Y-16212732D02*
X15566752Y-16222256D01*
X15604848Y-16222256D01*
X15623895Y-16212732D01*
X15633419Y-16193685D01*
X15633419Y-16184161D01*
X15623895Y-16165113D01*
X15604848Y-16155589D01*
X15576276Y-16155589D01*
X15557229Y-16146066D01*
X15547705Y-16127018D01*
X15547705Y-16117494D01*
X15557229Y-16098447D01*
X15576276Y-16088923D01*
X15604848Y-16088923D01*
X15623895Y-16098447D01*
X15871514Y-16146066D02*
X16023895Y-16146066D01*
X15947705Y-16222256D02*
X15947705Y-16069875D01*
X16376276Y-16222256D02*
X16261990Y-16222256D01*
X16319133Y-16222256D02*
X16319133Y-16022256D01*
X16300086Y-16050828D01*
X16281038Y-16069875D01*
X16261990Y-16079399D01*
X16547705Y-16022256D02*
X16509609Y-16022256D01*
X16490562Y-16031780D01*
X16481038Y-16041304D01*
X16461990Y-16069875D01*
X16452467Y-16107970D01*
X16452467Y-16184161D01*
X16461990Y-16203208D01*
X16471514Y-16212732D01*
X16490562Y-16222256D01*
X16528657Y-16222256D01*
X16547705Y-16212732D01*
X16557229Y-16203208D01*
X16566752Y-16184161D01*
X16566752Y-16136542D01*
X16557229Y-16117494D01*
X16547705Y-16107970D01*
X16528657Y-16098447D01*
X16490562Y-16098447D01*
X16471514Y-16107970D01*
X16461990Y-16117494D01*
X16452467Y-16136542D01*
X16795324Y-16212732D02*
X16814371Y-16222256D01*
X16852467Y-16222256D01*
X16871514Y-16212732D01*
X16881038Y-16193685D01*
X16881038Y-16184161D01*
X16871514Y-16165113D01*
X16852467Y-16155589D01*
X16823895Y-16155589D01*
X16804848Y-16146066D01*
X16795324Y-16127018D01*
X16795324Y-16117494D01*
X16804848Y-16098447D01*
X16823895Y-16088923D01*
X16852467Y-16088923D01*
X16871514Y-16098447D01*
X16995324Y-16222256D02*
X16976276Y-16212732D01*
X16966752Y-16193685D01*
X16966752Y-16022256D01*
X17100086Y-16222256D02*
X17081038Y-16212732D01*
X17071514Y-16203208D01*
X17061991Y-16184161D01*
X17061991Y-16127018D01*
X17071514Y-16107970D01*
X17081038Y-16098447D01*
X17100086Y-16088923D01*
X17128657Y-16088923D01*
X17147705Y-16098447D01*
X17157229Y-16107970D01*
X17166752Y-16127018D01*
X17166752Y-16184161D01*
X17157229Y-16203208D01*
X17147705Y-16212732D01*
X17128657Y-16222256D01*
X17100086Y-16222256D01*
X17223895Y-16088923D02*
X17300086Y-16088923D01*
X17252467Y-16022256D02*
X17252467Y-16193685D01*
X17261991Y-16212732D01*
X17281038Y-16222256D01*
X17300086Y-16222256D01*
X17357229Y-16212732D02*
X17376276Y-16222256D01*
X17414371Y-16222256D01*
X17433419Y-16212732D01*
X17442943Y-16193685D01*
X17442943Y-16184161D01*
X17433419Y-16165113D01*
X17414371Y-16155589D01*
X17385800Y-16155589D01*
X17366752Y-16146066D01*
X17357229Y-16127018D01*
X17357229Y-16117494D01*
X17366752Y-16098447D01*
X17385800Y-16088923D01*
X17414371Y-16088923D01*
X17433419Y-16098447D01*
X17509610Y-16298447D02*
X17519133Y-16288923D01*
X17538181Y-16260351D01*
X17547705Y-16241304D01*
X17557229Y-16212732D01*
X17566752Y-16165113D01*
X17566752Y-16127018D01*
X17557229Y-16079399D01*
X17547705Y-16050828D01*
X17538181Y-16031780D01*
X17519133Y-16003208D01*
X17509610Y-15993685D01*
D15*
X10890681Y-16358280D02*
X10890681Y-16433280D01*
X10853181Y-16395780D02*
X10928181Y-16395780D01*
D12*
X11223895Y-16286256D02*
X11242943Y-16286256D01*
X11261990Y-16295780D01*
X11271514Y-16305304D01*
X11281038Y-16324351D01*
X11290562Y-16362447D01*
X11290562Y-16410066D01*
X11281038Y-16448161D01*
X11271514Y-16467208D01*
X11261990Y-16476732D01*
X11242943Y-16486256D01*
X11223895Y-16486256D01*
X11204848Y-16476732D01*
X11195324Y-16467208D01*
X11185800Y-16448161D01*
X11176276Y-16410066D01*
X11176276Y-16362447D01*
X11185800Y-16324351D01*
X11195324Y-16305304D01*
X11204848Y-16295780D01*
X11223895Y-16286256D01*
X11376276Y-16467208D02*
X11385800Y-16476732D01*
X11376276Y-16486256D01*
X11366752Y-16476732D01*
X11376276Y-16467208D01*
X11376276Y-16486256D01*
X11452467Y-16286256D02*
X11585800Y-16286256D01*
X11500086Y-16486256D01*
X11757229Y-16286256D02*
X11661990Y-16286256D01*
X11652467Y-16381494D01*
X11661990Y-16371970D01*
X11681038Y-16362447D01*
X11728657Y-16362447D01*
X11747705Y-16371970D01*
X11757229Y-16381494D01*
X11766752Y-16400542D01*
X11766752Y-16448161D01*
X11757229Y-16467208D01*
X11747705Y-16476732D01*
X11728657Y-16486256D01*
X11681038Y-16486256D01*
X11661990Y-16476732D01*
X11652467Y-16467208D01*
X11890562Y-16286256D02*
X11909609Y-16286256D01*
X11928657Y-16295780D01*
X11938181Y-16305304D01*
X11947705Y-16324351D01*
X11957229Y-16362447D01*
X11957229Y-16410066D01*
X11947705Y-16448161D01*
X11938181Y-16467208D01*
X11928657Y-16476732D01*
X11909609Y-16486256D01*
X11890562Y-16486256D01*
X11871514Y-16476732D01*
X11861990Y-16467208D01*
X11852467Y-16448161D01*
X11842943Y-16410066D01*
X11842943Y-16362447D01*
X11852467Y-16324351D01*
X11861990Y-16305304D01*
X11871514Y-16295780D01*
X11890562Y-16286256D01*
X12042943Y-16486256D02*
X12042943Y-16352923D01*
X12042943Y-16371970D02*
X12052467Y-16362447D01*
X12071514Y-16352923D01*
X12100086Y-16352923D01*
X12119133Y-16362447D01*
X12128657Y-16381494D01*
X12128657Y-16486256D01*
X12128657Y-16381494D02*
X12138181Y-16362447D01*
X12157229Y-16352923D01*
X12185800Y-16352923D01*
X12204848Y-16362447D01*
X12214371Y-16381494D01*
X12214371Y-16486256D01*
X12309609Y-16486256D02*
X12309609Y-16352923D01*
X12309609Y-16371970D02*
X12319133Y-16362447D01*
X12338181Y-16352923D01*
X12366752Y-16352923D01*
X12385800Y-16362447D01*
X12395324Y-16381494D01*
X12395324Y-16486256D01*
X12395324Y-16381494D02*
X12404848Y-16362447D01*
X12423895Y-16352923D01*
X12452467Y-16352923D01*
X12471514Y-16362447D01*
X12481038Y-16381494D01*
X12481038Y-16486256D01*
X12871514Y-16276732D02*
X12700086Y-16533875D01*
X13128657Y-16286256D02*
X13147705Y-16286256D01*
X13166752Y-16295780D01*
X13176276Y-16305304D01*
X13185800Y-16324351D01*
X13195324Y-16362447D01*
X13195324Y-16410066D01*
X13185800Y-16448161D01*
X13176276Y-16467208D01*
X13166752Y-16476732D01*
X13147705Y-16486256D01*
X13128657Y-16486256D01*
X13109609Y-16476732D01*
X13100086Y-16467208D01*
X13090562Y-16448161D01*
X13081038Y-16410066D01*
X13081038Y-16362447D01*
X13090562Y-16324351D01*
X13100086Y-16305304D01*
X13109609Y-16295780D01*
X13128657Y-16286256D01*
X13281038Y-16467208D02*
X13290562Y-16476732D01*
X13281038Y-16486256D01*
X13271514Y-16476732D01*
X13281038Y-16467208D01*
X13281038Y-16486256D01*
X13414371Y-16286256D02*
X13433419Y-16286256D01*
X13452467Y-16295780D01*
X13461990Y-16305304D01*
X13471514Y-16324351D01*
X13481038Y-16362447D01*
X13481038Y-16410066D01*
X13471514Y-16448161D01*
X13461990Y-16467208D01*
X13452467Y-16476732D01*
X13433419Y-16486256D01*
X13414371Y-16486256D01*
X13395324Y-16476732D01*
X13385800Y-16467208D01*
X13376276Y-16448161D01*
X13366752Y-16410066D01*
X13366752Y-16362447D01*
X13376276Y-16324351D01*
X13385800Y-16305304D01*
X13395324Y-16295780D01*
X13414371Y-16286256D01*
X13557229Y-16305304D02*
X13566752Y-16295780D01*
X13585800Y-16286256D01*
X13633419Y-16286256D01*
X13652467Y-16295780D01*
X13661990Y-16305304D01*
X13671514Y-16324351D01*
X13671514Y-16343399D01*
X13661990Y-16371970D01*
X13547705Y-16486256D01*
X13671514Y-16486256D01*
X13766752Y-16486256D02*
X13804848Y-16486256D01*
X13823895Y-16476732D01*
X13833419Y-16467208D01*
X13852467Y-16438637D01*
X13861990Y-16400542D01*
X13861990Y-16324351D01*
X13852467Y-16305304D01*
X13842943Y-16295780D01*
X13823895Y-16286256D01*
X13785800Y-16286256D01*
X13766752Y-16295780D01*
X13757229Y-16305304D01*
X13747705Y-16324351D01*
X13747705Y-16371970D01*
X13757229Y-16391018D01*
X13766752Y-16400542D01*
X13785800Y-16410066D01*
X13823895Y-16410066D01*
X13842943Y-16400542D01*
X13852467Y-16391018D01*
X13861990Y-16371970D01*
X14042943Y-16286256D02*
X13947705Y-16286256D01*
X13938181Y-16381494D01*
X13947705Y-16371970D01*
X13966752Y-16362447D01*
X14014371Y-16362447D01*
X14033419Y-16371970D01*
X14042943Y-16381494D01*
X14052467Y-16400542D01*
X14052467Y-16448161D01*
X14042943Y-16467208D01*
X14033419Y-16476732D01*
X14014371Y-16486256D01*
X13966752Y-16486256D01*
X13947705Y-16476732D01*
X13938181Y-16467208D01*
X14128657Y-16286256D02*
X14128657Y-16324351D01*
X14204848Y-16286256D02*
X14204848Y-16324351D01*
X14500086Y-16562447D02*
X14490562Y-16552923D01*
X14471514Y-16524351D01*
X14461990Y-16505304D01*
X14452467Y-16476732D01*
X14442943Y-16429113D01*
X14442943Y-16391018D01*
X14452467Y-16343399D01*
X14461990Y-16314828D01*
X14471514Y-16295780D01*
X14490562Y-16267208D01*
X14500086Y-16257685D01*
X14681038Y-16486256D02*
X14566752Y-16486256D01*
X14623895Y-16486256D02*
X14623895Y-16286256D01*
X14604848Y-16314828D01*
X14585800Y-16333875D01*
X14566752Y-16343399D01*
X14747705Y-16286256D02*
X14881038Y-16286256D01*
X14795324Y-16486256D01*
X15109609Y-16486256D02*
X15109609Y-16286256D01*
X15195324Y-16486256D02*
X15195324Y-16381494D01*
X15185800Y-16362447D01*
X15166752Y-16352923D01*
X15138181Y-16352923D01*
X15119133Y-16362447D01*
X15109609Y-16371970D01*
X15319133Y-16486256D02*
X15300086Y-16476732D01*
X15290562Y-16467208D01*
X15281038Y-16448161D01*
X15281038Y-16391018D01*
X15290562Y-16371970D01*
X15300086Y-16362447D01*
X15319133Y-16352923D01*
X15347705Y-16352923D01*
X15366752Y-16362447D01*
X15376276Y-16371970D01*
X15385800Y-16391018D01*
X15385800Y-16448161D01*
X15376276Y-16467208D01*
X15366752Y-16476732D01*
X15347705Y-16486256D01*
X15319133Y-16486256D01*
X15500086Y-16486256D02*
X15481038Y-16476732D01*
X15471514Y-16457685D01*
X15471514Y-16286256D01*
X15652467Y-16476732D02*
X15633419Y-16486256D01*
X15595324Y-16486256D01*
X15576276Y-16476732D01*
X15566752Y-16457685D01*
X15566752Y-16381494D01*
X15576276Y-16362447D01*
X15595324Y-16352923D01*
X15633419Y-16352923D01*
X15652467Y-16362447D01*
X15661990Y-16381494D01*
X15661990Y-16400542D01*
X15566752Y-16419589D01*
X15738181Y-16476732D02*
X15757229Y-16486256D01*
X15795324Y-16486256D01*
X15814371Y-16476732D01*
X15823895Y-16457685D01*
X15823895Y-16448161D01*
X15814371Y-16429113D01*
X15795324Y-16419589D01*
X15766752Y-16419589D01*
X15747705Y-16410066D01*
X15738181Y-16391018D01*
X15738181Y-16381494D01*
X15747705Y-16362447D01*
X15766752Y-16352923D01*
X15795324Y-16352923D01*
X15814371Y-16362447D01*
X15890562Y-16562447D02*
X15900086Y-16552923D01*
X15919133Y-16524351D01*
X15928657Y-16505304D01*
X15938181Y-16476732D01*
X15947705Y-16429113D01*
X15947705Y-16391018D01*
X15938181Y-16343399D01*
X15928657Y-16314828D01*
X15919133Y-16295780D01*
X15900086Y-16267208D01*
X15890562Y-16257685D01*
D16*
X10913537Y-16695136D02*
X10913537Y-16624424D01*
X10842825Y-16624424D01*
X10842825Y-16695136D01*
X10913537Y-16695136D01*
D12*
X11290562Y-16750256D02*
X11176276Y-16750256D01*
X11233419Y-16750256D02*
X11233419Y-16550256D01*
X11214371Y-16578828D01*
X11195324Y-16597875D01*
X11176276Y-16607399D01*
X11376276Y-16731208D02*
X11385800Y-16740732D01*
X11376276Y-16750256D01*
X11366752Y-16740732D01*
X11376276Y-16731208D01*
X11376276Y-16750256D01*
X11509609Y-16550256D02*
X11528657Y-16550256D01*
X11547705Y-16559780D01*
X11557229Y-16569304D01*
X11566752Y-16588351D01*
X11576276Y-16626447D01*
X11576276Y-16674066D01*
X11566752Y-16712161D01*
X11557229Y-16731208D01*
X11547705Y-16740732D01*
X11528657Y-16750256D01*
X11509609Y-16750256D01*
X11490562Y-16740732D01*
X11481038Y-16731208D01*
X11471514Y-16712161D01*
X11461990Y-16674066D01*
X11461990Y-16626447D01*
X11471514Y-16588351D01*
X11481038Y-16569304D01*
X11490562Y-16559780D01*
X11509609Y-16550256D01*
X11700086Y-16550256D02*
X11719133Y-16550256D01*
X11738181Y-16559780D01*
X11747705Y-16569304D01*
X11757229Y-16588351D01*
X11766752Y-16626447D01*
X11766752Y-16674066D01*
X11757229Y-16712161D01*
X11747705Y-16731208D01*
X11738181Y-16740732D01*
X11719133Y-16750256D01*
X11700086Y-16750256D01*
X11681038Y-16740732D01*
X11671514Y-16731208D01*
X11661990Y-16712161D01*
X11652467Y-16674066D01*
X11652467Y-16626447D01*
X11661990Y-16588351D01*
X11671514Y-16569304D01*
X11681038Y-16559780D01*
X11700086Y-16550256D01*
X11890562Y-16550256D02*
X11909609Y-16550256D01*
X11928657Y-16559780D01*
X11938181Y-16569304D01*
X11947705Y-16588351D01*
X11957229Y-16626447D01*
X11957229Y-16674066D01*
X11947705Y-16712161D01*
X11938181Y-16731208D01*
X11928657Y-16740732D01*
X11909609Y-16750256D01*
X11890562Y-16750256D01*
X11871514Y-16740732D01*
X11861990Y-16731208D01*
X11852467Y-16712161D01*
X11842943Y-16674066D01*
X11842943Y-16626447D01*
X11852467Y-16588351D01*
X11861990Y-16569304D01*
X11871514Y-16559780D01*
X11890562Y-16550256D01*
X12042943Y-16750256D02*
X12042943Y-16616923D01*
X12042943Y-16635970D02*
X12052467Y-16626447D01*
X12071514Y-16616923D01*
X12100086Y-16616923D01*
X12119133Y-16626447D01*
X12128657Y-16645494D01*
X12128657Y-16750256D01*
X12128657Y-16645494D02*
X12138181Y-16626447D01*
X12157229Y-16616923D01*
X12185800Y-16616923D01*
X12204848Y-16626447D01*
X12214371Y-16645494D01*
X12214371Y-16750256D01*
X12309609Y-16750256D02*
X12309609Y-16616923D01*
X12309609Y-16635970D02*
X12319133Y-16626447D01*
X12338181Y-16616923D01*
X12366752Y-16616923D01*
X12385800Y-16626447D01*
X12395324Y-16645494D01*
X12395324Y-16750256D01*
X12395324Y-16645494D02*
X12404848Y-16626447D01*
X12423895Y-16616923D01*
X12452467Y-16616923D01*
X12471514Y-16626447D01*
X12481038Y-16645494D01*
X12481038Y-16750256D01*
X12871514Y-16540732D02*
X12700086Y-16797875D01*
X13128657Y-16550256D02*
X13147705Y-16550256D01*
X13166752Y-16559780D01*
X13176276Y-16569304D01*
X13185800Y-16588351D01*
X13195324Y-16626447D01*
X13195324Y-16674066D01*
X13185800Y-16712161D01*
X13176276Y-16731208D01*
X13166752Y-16740732D01*
X13147705Y-16750256D01*
X13128657Y-16750256D01*
X13109609Y-16740732D01*
X13100086Y-16731208D01*
X13090562Y-16712161D01*
X13081038Y-16674066D01*
X13081038Y-16626447D01*
X13090562Y-16588351D01*
X13100086Y-16569304D01*
X13109609Y-16559780D01*
X13128657Y-16550256D01*
X13281038Y-16731208D02*
X13290562Y-16740732D01*
X13281038Y-16750256D01*
X13271514Y-16740732D01*
X13281038Y-16731208D01*
X13281038Y-16750256D01*
X13414371Y-16550256D02*
X13433419Y-16550256D01*
X13452467Y-16559780D01*
X13461990Y-16569304D01*
X13471514Y-16588351D01*
X13481038Y-16626447D01*
X13481038Y-16674066D01*
X13471514Y-16712161D01*
X13461990Y-16731208D01*
X13452467Y-16740732D01*
X13433419Y-16750256D01*
X13414371Y-16750256D01*
X13395324Y-16740732D01*
X13385800Y-16731208D01*
X13376276Y-16712161D01*
X13366752Y-16674066D01*
X13366752Y-16626447D01*
X13376276Y-16588351D01*
X13385800Y-16569304D01*
X13395324Y-16559780D01*
X13414371Y-16550256D01*
X13547705Y-16550256D02*
X13671514Y-16550256D01*
X13604848Y-16626447D01*
X13633419Y-16626447D01*
X13652467Y-16635970D01*
X13661990Y-16645494D01*
X13671514Y-16664542D01*
X13671514Y-16712161D01*
X13661990Y-16731208D01*
X13652467Y-16740732D01*
X13633419Y-16750256D01*
X13576276Y-16750256D01*
X13557229Y-16740732D01*
X13547705Y-16731208D01*
X13766752Y-16750256D02*
X13804848Y-16750256D01*
X13823895Y-16740732D01*
X13833419Y-16731208D01*
X13852467Y-16702637D01*
X13861990Y-16664542D01*
X13861990Y-16588351D01*
X13852467Y-16569304D01*
X13842943Y-16559780D01*
X13823895Y-16550256D01*
X13785800Y-16550256D01*
X13766752Y-16559780D01*
X13757229Y-16569304D01*
X13747705Y-16588351D01*
X13747705Y-16635970D01*
X13757229Y-16655018D01*
X13766752Y-16664542D01*
X13785800Y-16674066D01*
X13823895Y-16674066D01*
X13842943Y-16664542D01*
X13852467Y-16655018D01*
X13861990Y-16635970D01*
X14033419Y-16616923D02*
X14033419Y-16750256D01*
X13985800Y-16540732D02*
X13938181Y-16683589D01*
X14061990Y-16683589D01*
X14128657Y-16550256D02*
X14128657Y-16588351D01*
X14204848Y-16550256D02*
X14204848Y-16588351D01*
X14500086Y-16826447D02*
X14490562Y-16816923D01*
X14471514Y-16788351D01*
X14461990Y-16769304D01*
X14452467Y-16740732D01*
X14442943Y-16693113D01*
X14442943Y-16655018D01*
X14452467Y-16607399D01*
X14461990Y-16578828D01*
X14471514Y-16559780D01*
X14490562Y-16531208D01*
X14500086Y-16521685D01*
X14566752Y-16569304D02*
X14576276Y-16559780D01*
X14595324Y-16550256D01*
X14642943Y-16550256D01*
X14661990Y-16559780D01*
X14671514Y-16569304D01*
X14681038Y-16588351D01*
X14681038Y-16607399D01*
X14671514Y-16635970D01*
X14557229Y-16750256D01*
X14681038Y-16750256D01*
X14804848Y-16550256D02*
X14823895Y-16550256D01*
X14842943Y-16559780D01*
X14852467Y-16569304D01*
X14861990Y-16588351D01*
X14871514Y-16626447D01*
X14871514Y-16674066D01*
X14861990Y-16712161D01*
X14852467Y-16731208D01*
X14842943Y-16740732D01*
X14823895Y-16750256D01*
X14804848Y-16750256D01*
X14785800Y-16740732D01*
X14776276Y-16731208D01*
X14766752Y-16712161D01*
X14757229Y-16674066D01*
X14757229Y-16626447D01*
X14766752Y-16588351D01*
X14776276Y-16569304D01*
X14785800Y-16559780D01*
X14804848Y-16550256D01*
X15109609Y-16750256D02*
X15109609Y-16550256D01*
X15195324Y-16750256D02*
X15195324Y-16645494D01*
X15185800Y-16626447D01*
X15166752Y-16616923D01*
X15138181Y-16616923D01*
X15119133Y-16626447D01*
X15109609Y-16635970D01*
X15319133Y-16750256D02*
X15300086Y-16740732D01*
X15290562Y-16731208D01*
X15281038Y-16712161D01*
X15281038Y-16655018D01*
X15290562Y-16635970D01*
X15300086Y-16626447D01*
X15319133Y-16616923D01*
X15347705Y-16616923D01*
X15366752Y-16626447D01*
X15376276Y-16635970D01*
X15385800Y-16655018D01*
X15385800Y-16712161D01*
X15376276Y-16731208D01*
X15366752Y-16740732D01*
X15347705Y-16750256D01*
X15319133Y-16750256D01*
X15500086Y-16750256D02*
X15481038Y-16740732D01*
X15471514Y-16721685D01*
X15471514Y-16550256D01*
X15652467Y-16740732D02*
X15633419Y-16750256D01*
X15595324Y-16750256D01*
X15576276Y-16740732D01*
X15566752Y-16721685D01*
X15566752Y-16645494D01*
X15576276Y-16626447D01*
X15595324Y-16616923D01*
X15633419Y-16616923D01*
X15652467Y-16626447D01*
X15661990Y-16645494D01*
X15661990Y-16664542D01*
X15566752Y-16683589D01*
X15738181Y-16740732D02*
X15757229Y-16750256D01*
X15795324Y-16750256D01*
X15814371Y-16740732D01*
X15823895Y-16721685D01*
X15823895Y-16712161D01*
X15814371Y-16693113D01*
X15795324Y-16683589D01*
X15766752Y-16683589D01*
X15747705Y-16674066D01*
X15738181Y-16655018D01*
X15738181Y-16645494D01*
X15747705Y-16626447D01*
X15766752Y-16616923D01*
X15795324Y-16616923D01*
X15814371Y-16626447D01*
X15890562Y-16826447D02*
X15900086Y-16816923D01*
X15919133Y-16788351D01*
X15928657Y-16769304D01*
X15938181Y-16740732D01*
X15947705Y-16693113D01*
X15947705Y-16655018D01*
X15938181Y-16607399D01*
X15928657Y-16578828D01*
X15919133Y-16559780D01*
X15900086Y-16531208D01*
X15890562Y-16521685D01*
D17*
X10873181Y-16978780D02*
X10928181Y-16923780D01*
X10873181Y-16868780D01*
X10818181Y-16923780D01*
X10873181Y-16978780D01*
D12*
X11290562Y-17014256D02*
X11176276Y-17014256D01*
X11233419Y-17014256D02*
X11233419Y-16814256D01*
X11214371Y-16842828D01*
X11195324Y-16861875D01*
X11176276Y-16871399D01*
X11376276Y-16995209D02*
X11385800Y-17004732D01*
X11376276Y-17014256D01*
X11366752Y-17004732D01*
X11376276Y-16995209D01*
X11376276Y-17014256D01*
X11576276Y-17014256D02*
X11461990Y-17014256D01*
X11519133Y-17014256D02*
X11519133Y-16814256D01*
X11500086Y-16842828D01*
X11481038Y-16861875D01*
X11461990Y-16871399D01*
X11700086Y-16814256D02*
X11719133Y-16814256D01*
X11738181Y-16823780D01*
X11747705Y-16833304D01*
X11757229Y-16852351D01*
X11766752Y-16890447D01*
X11766752Y-16938066D01*
X11757229Y-16976161D01*
X11747705Y-16995209D01*
X11738181Y-17004732D01*
X11719133Y-17014256D01*
X11700086Y-17014256D01*
X11681038Y-17004732D01*
X11671514Y-16995209D01*
X11661990Y-16976161D01*
X11652467Y-16938066D01*
X11652467Y-16890447D01*
X11661990Y-16852351D01*
X11671514Y-16833304D01*
X11681038Y-16823780D01*
X11700086Y-16814256D01*
X11890562Y-16814256D02*
X11909609Y-16814256D01*
X11928657Y-16823780D01*
X11938181Y-16833304D01*
X11947705Y-16852351D01*
X11957229Y-16890447D01*
X11957229Y-16938066D01*
X11947705Y-16976161D01*
X11938181Y-16995209D01*
X11928657Y-17004732D01*
X11909609Y-17014256D01*
X11890562Y-17014256D01*
X11871514Y-17004732D01*
X11861990Y-16995209D01*
X11852467Y-16976161D01*
X11842943Y-16938066D01*
X11842943Y-16890447D01*
X11852467Y-16852351D01*
X11861990Y-16833304D01*
X11871514Y-16823780D01*
X11890562Y-16814256D01*
X12042943Y-17014256D02*
X12042943Y-16880923D01*
X12042943Y-16899970D02*
X12052467Y-16890447D01*
X12071514Y-16880923D01*
X12100086Y-16880923D01*
X12119133Y-16890447D01*
X12128657Y-16909494D01*
X12128657Y-17014256D01*
X12128657Y-16909494D02*
X12138181Y-16890447D01*
X12157229Y-16880923D01*
X12185800Y-16880923D01*
X12204848Y-16890447D01*
X12214371Y-16909494D01*
X12214371Y-17014256D01*
X12309609Y-17014256D02*
X12309609Y-16880923D01*
X12309609Y-16899970D02*
X12319133Y-16890447D01*
X12338181Y-16880923D01*
X12366752Y-16880923D01*
X12385800Y-16890447D01*
X12395324Y-16909494D01*
X12395324Y-17014256D01*
X12395324Y-16909494D02*
X12404848Y-16890447D01*
X12423895Y-16880923D01*
X12452467Y-16880923D01*
X12471514Y-16890447D01*
X12481038Y-16909494D01*
X12481038Y-17014256D01*
X12871514Y-16804732D02*
X12700086Y-17061875D01*
X13128657Y-16814256D02*
X13147705Y-16814256D01*
X13166752Y-16823780D01*
X13176276Y-16833304D01*
X13185800Y-16852351D01*
X13195324Y-16890447D01*
X13195324Y-16938066D01*
X13185800Y-16976161D01*
X13176276Y-16995209D01*
X13166752Y-17004732D01*
X13147705Y-17014256D01*
X13128657Y-17014256D01*
X13109609Y-17004732D01*
X13100086Y-16995209D01*
X13090562Y-16976161D01*
X13081038Y-16938066D01*
X13081038Y-16890447D01*
X13090562Y-16852351D01*
X13100086Y-16833304D01*
X13109609Y-16823780D01*
X13128657Y-16814256D01*
X13281038Y-16995209D02*
X13290562Y-17004732D01*
X13281038Y-17014256D01*
X13271514Y-17004732D01*
X13281038Y-16995209D01*
X13281038Y-17014256D01*
X13414371Y-16814256D02*
X13433419Y-16814256D01*
X13452467Y-16823780D01*
X13461990Y-16833304D01*
X13471514Y-16852351D01*
X13481038Y-16890447D01*
X13481038Y-16938066D01*
X13471514Y-16976161D01*
X13461990Y-16995209D01*
X13452467Y-17004732D01*
X13433419Y-17014256D01*
X13414371Y-17014256D01*
X13395324Y-17004732D01*
X13385800Y-16995209D01*
X13376276Y-16976161D01*
X13366752Y-16938066D01*
X13366752Y-16890447D01*
X13376276Y-16852351D01*
X13385800Y-16833304D01*
X13395324Y-16823780D01*
X13414371Y-16814256D01*
X13652467Y-16880923D02*
X13652467Y-17014256D01*
X13604848Y-16804732D02*
X13557229Y-16947590D01*
X13681038Y-16947590D01*
X13738181Y-16814256D02*
X13861990Y-16814256D01*
X13795324Y-16890447D01*
X13823895Y-16890447D01*
X13842943Y-16899970D01*
X13852467Y-16909494D01*
X13861990Y-16928542D01*
X13861990Y-16976161D01*
X13852467Y-16995209D01*
X13842943Y-17004732D01*
X13823895Y-17014256D01*
X13766752Y-17014256D01*
X13747705Y-17004732D01*
X13738181Y-16995209D01*
X13928657Y-16814256D02*
X14052467Y-16814256D01*
X13985800Y-16890447D01*
X14014371Y-16890447D01*
X14033419Y-16899970D01*
X14042943Y-16909494D01*
X14052467Y-16928542D01*
X14052467Y-16976161D01*
X14042943Y-16995209D01*
X14033419Y-17004732D01*
X14014371Y-17014256D01*
X13957229Y-17014256D01*
X13938181Y-17004732D01*
X13928657Y-16995209D01*
X14128657Y-16814256D02*
X14128657Y-16852351D01*
X14204848Y-16814256D02*
X14204848Y-16852351D01*
X14500086Y-17090447D02*
X14490562Y-17080923D01*
X14471514Y-17052351D01*
X14461990Y-17033304D01*
X14452467Y-17004732D01*
X14442943Y-16957113D01*
X14442943Y-16919018D01*
X14452467Y-16871399D01*
X14461990Y-16842828D01*
X14471514Y-16823780D01*
X14490562Y-16795209D01*
X14500086Y-16785685D01*
X14681038Y-17014256D02*
X14566752Y-17014256D01*
X14623895Y-17014256D02*
X14623895Y-16814256D01*
X14604848Y-16842828D01*
X14585800Y-16861875D01*
X14566752Y-16871399D01*
X14852467Y-16814256D02*
X14814371Y-16814256D01*
X14795324Y-16823780D01*
X14785800Y-16833304D01*
X14766752Y-16861875D01*
X14757229Y-16899970D01*
X14757229Y-16976161D01*
X14766752Y-16995209D01*
X14776276Y-17004732D01*
X14795324Y-17014256D01*
X14833419Y-17014256D01*
X14852467Y-17004732D01*
X14861990Y-16995209D01*
X14871514Y-16976161D01*
X14871514Y-16928542D01*
X14861990Y-16909494D01*
X14852467Y-16899970D01*
X14833419Y-16890447D01*
X14795324Y-16890447D01*
X14776276Y-16899970D01*
X14766752Y-16909494D01*
X14757229Y-16928542D01*
X15109609Y-17014256D02*
X15109609Y-16814256D01*
X15195324Y-17014256D02*
X15195324Y-16909494D01*
X15185800Y-16890447D01*
X15166752Y-16880923D01*
X15138181Y-16880923D01*
X15119133Y-16890447D01*
X15109609Y-16899970D01*
X15319133Y-17014256D02*
X15300086Y-17004732D01*
X15290562Y-16995209D01*
X15281038Y-16976161D01*
X15281038Y-16919018D01*
X15290562Y-16899970D01*
X15300086Y-16890447D01*
X15319133Y-16880923D01*
X15347705Y-16880923D01*
X15366752Y-16890447D01*
X15376276Y-16899970D01*
X15385800Y-16919018D01*
X15385800Y-16976161D01*
X15376276Y-16995209D01*
X15366752Y-17004732D01*
X15347705Y-17014256D01*
X15319133Y-17014256D01*
X15500086Y-17014256D02*
X15481038Y-17004732D01*
X15471514Y-16985685D01*
X15471514Y-16814256D01*
X15652467Y-17004732D02*
X15633419Y-17014256D01*
X15595324Y-17014256D01*
X15576276Y-17004732D01*
X15566752Y-16985685D01*
X15566752Y-16909494D01*
X15576276Y-16890447D01*
X15595324Y-16880923D01*
X15633419Y-16880923D01*
X15652467Y-16890447D01*
X15661990Y-16909494D01*
X15661990Y-16928542D01*
X15566752Y-16947590D01*
X15738181Y-17004732D02*
X15757229Y-17014256D01*
X15795324Y-17014256D01*
X15814371Y-17004732D01*
X15823895Y-16985685D01*
X15823895Y-16976161D01*
X15814371Y-16957113D01*
X15795324Y-16947590D01*
X15766752Y-16947590D01*
X15747705Y-16938066D01*
X15738181Y-16919018D01*
X15738181Y-16909494D01*
X15747705Y-16890447D01*
X15766752Y-16880923D01*
X15795324Y-16880923D01*
X15814371Y-16890447D01*
X15890562Y-17090447D02*
X15900086Y-17080923D01*
X15919133Y-17052351D01*
X15928657Y-17033304D01*
X15938181Y-17004732D01*
X15947705Y-16957113D01*
X15947705Y-16919018D01*
X15938181Y-16871399D01*
X15928657Y-16842828D01*
X15919133Y-16823780D01*
X15900086Y-16795209D01*
X15890562Y-16785685D01*
M02*
