%TF.GenerationSoftware,KiCad,Pcbnew,(6.0.5)*%
%TF.CreationDate,2023-02-26T14:44:21+09:00*%
%TF.ProjectId,IO_Board,494f5f42-6f61-4726-942e-6b696361645f,rev?*%
%TF.SameCoordinates,Original*%
%TF.FileFunction,Soldermask,Bot*%
%TF.FilePolarity,Negative*%
%FSLAX46Y46*%
G04 Gerber Fmt 4.6, Leading zero omitted, Abs format (unit mm)*
G04 Created by KiCad (PCBNEW (6.0.5)) date 2023-02-26 14:44:21*
%MOMM*%
%LPD*%
G01*
G04 APERTURE LIST*
%ADD10C,2.000000*%
%ADD11C,0.650000*%
%ADD12O,1.000000X1.600000*%
%ADD13O,1.000000X2.100000*%
%ADD14O,1.100000X2.000000*%
%ADD15O,1.000000X2.000000*%
%ADD16R,1.700000X1.700000*%
%ADD17O,1.700000X1.700000*%
G04 APERTURE END LIST*
D10*
%TO.C,START*%
X150980000Y-137160000D03*
X157480000Y-137160000D03*
X150980000Y-132660000D03*
X157480000Y-132660000D03*
%TD*%
%TO.C,STOP*%
X170180000Y-137160000D03*
X163680000Y-137160000D03*
X170180000Y-132660000D03*
X163680000Y-132660000D03*
%TD*%
D11*
%TO.C,J4*%
X161640000Y-145985000D03*
X155860000Y-145985000D03*
D12*
X154430000Y-149665000D03*
D13*
X154430000Y-145485000D03*
X163070000Y-145485000D03*
D12*
X163070000Y-149665000D03*
%TD*%
D11*
%TO.C,J2*%
X174340000Y-144715000D03*
X168560000Y-144715000D03*
D12*
X175770000Y-148395000D03*
D13*
X175770000Y-144215000D03*
D12*
X167130000Y-148395000D03*
D13*
X167130000Y-144215000D03*
%TD*%
D14*
%TO.C,J6*%
X142240000Y-108785000D03*
X143510000Y-108785000D03*
X144780000Y-108785000D03*
X146050000Y-108785000D03*
X147320000Y-108785000D03*
X148590000Y-108785000D03*
X149860000Y-108785000D03*
X151130000Y-108785000D03*
X152400000Y-108785000D03*
X153670000Y-108785000D03*
X154940000Y-108785000D03*
X156210000Y-108785000D03*
X157480000Y-108785000D03*
X158750000Y-108785000D03*
X160020000Y-108785000D03*
D15*
X161290000Y-108795000D03*
X162560000Y-108795000D03*
%TD*%
D11*
%TO.C,J1*%
X148940000Y-145985000D03*
X143160000Y-145985000D03*
D13*
X150370000Y-145485000D03*
X141730000Y-145485000D03*
D12*
X150370000Y-149665000D03*
X141730000Y-149665000D03*
%TD*%
D10*
%TO.C,L*%
X138280000Y-137160000D03*
X144780000Y-137160000D03*
X144780000Y-132660000D03*
X138280000Y-132660000D03*
%TD*%
%TO.C,R*%
X176328000Y-137160000D03*
X182828000Y-137160000D03*
X182828000Y-132660000D03*
X176328000Y-132660000D03*
%TD*%
D16*
%TO.C,J3*%
X140985000Y-80670400D03*
D17*
X143525000Y-80670400D03*
X146065000Y-80670400D03*
X148605000Y-80670400D03*
X151145000Y-80670400D03*
X153685000Y-80670400D03*
X156225000Y-80670400D03*
X158765000Y-80670400D03*
X161305000Y-80670400D03*
X163845000Y-80670400D03*
%TD*%
D11*
%TO.C,J7*%
X130460000Y-144715000D03*
X136240000Y-144715000D03*
D13*
X129030000Y-144215000D03*
D12*
X129030000Y-148395000D03*
D13*
X137670000Y-144215000D03*
D12*
X137670000Y-148395000D03*
%TD*%
D16*
%TO.C,J5*%
X140980000Y-77216000D03*
D17*
X143520000Y-77216000D03*
X146060000Y-77216000D03*
X148600000Y-77216000D03*
X151140000Y-77216000D03*
X153680000Y-77216000D03*
X156220000Y-77216000D03*
X158760000Y-77216000D03*
X161300000Y-77216000D03*
X163840000Y-77216000D03*
%TD*%
M02*
