%TF.GenerationSoftware,KiCad,Pcbnew,(6.0.5)*%
%TF.CreationDate,2023-02-26T14:44:20+09:00*%
%TF.ProjectId,IO_Board,494f5f42-6f61-4726-942e-6b696361645f,rev?*%
%TF.SameCoordinates,Original*%
%TF.FileFunction,Copper,L2,Bot*%
%TF.FilePolarity,Positive*%
%FSLAX46Y46*%
G04 Gerber Fmt 4.6, Leading zero omitted, Abs format (unit mm)*
G04 Created by KiCad (PCBNEW (6.0.5)) date 2023-02-26 14:44:20*
%MOMM*%
%LPD*%
G01*
G04 APERTURE LIST*
%TA.AperFunction,ComponentPad*%
%ADD10C,2.000000*%
%TD*%
%TA.AperFunction,ComponentPad*%
%ADD11O,1.000000X1.600000*%
%TD*%
%TA.AperFunction,ComponentPad*%
%ADD12O,1.000000X2.100000*%
%TD*%
%TA.AperFunction,ComponentPad*%
%ADD13O,1.100000X2.000000*%
%TD*%
%TA.AperFunction,ComponentPad*%
%ADD14O,1.000000X2.000000*%
%TD*%
%TA.AperFunction,ComponentPad*%
%ADD15R,1.700000X1.700000*%
%TD*%
%TA.AperFunction,ComponentPad*%
%ADD16O,1.700000X1.700000*%
%TD*%
%TA.AperFunction,ViaPad*%
%ADD17C,0.800000*%
%TD*%
%TA.AperFunction,Conductor*%
%ADD18C,0.250000*%
%TD*%
%TA.AperFunction,Conductor*%
%ADD19C,0.200000*%
%TD*%
G04 APERTURE END LIST*
D10*
%TO.P,START,1*%
%TO.N,GND*%
X150980000Y-137160000D03*
X157480000Y-137160000D03*
%TO.P,START,2*%
%TO.N,Start*%
X150980000Y-132660000D03*
X157480000Y-132660000D03*
%TD*%
%TO.P,STOP,1*%
%TO.N,GND*%
X170180000Y-137160000D03*
X163680000Y-137160000D03*
%TO.P,STOP,2*%
%TO.N,Stop*%
X170180000Y-132660000D03*
X163680000Y-132660000D03*
%TD*%
D11*
%TO.P,J4,S1,SHIELD*%
%TO.N,GND*%
X154430000Y-149665000D03*
D12*
X154430000Y-145485000D03*
X163070000Y-145485000D03*
D11*
X163070000Y-149665000D03*
%TD*%
%TO.P,J2,S1,SHIELD*%
%TO.N,Net-(FB1-Pad2)*%
X175770000Y-148395000D03*
D12*
X175770000Y-144215000D03*
D11*
X167130000Y-148395000D03*
D12*
X167130000Y-144215000D03*
%TD*%
D13*
%TO.P,J6,1,Pin_1*%
%TO.N,CS*%
X142240000Y-108785000D03*
%TO.P,J6,2,Pin_2*%
%TO.N,Net-(J6-Pad2)*%
X143510000Y-108785000D03*
%TO.P,J6,3,Pin_3*%
%TO.N,RS*%
X144780000Y-108785000D03*
%TO.P,J6,4,Pin_4*%
%TO.N,SCK*%
X146050000Y-108785000D03*
%TO.P,J6,5,Pin_5*%
%TO.N,MOSI*%
X147320000Y-108785000D03*
%TO.P,J6,6,Pin_6*%
%TO.N,+3V3*%
X148590000Y-108785000D03*
%TO.P,J6,7,Pin_7*%
%TO.N,GND*%
X149860000Y-108785000D03*
%TO.P,J6,8,Pin_8*%
%TO.N,Net-(C3-Pad2)*%
X151130000Y-108785000D03*
%TO.P,J6,9,Pin_9*%
%TO.N,Net-(C5-Pad1)*%
X152400000Y-108785000D03*
%TO.P,J6,10,Pin_10*%
%TO.N,Net-(C5-Pad2)*%
X153670000Y-108785000D03*
%TO.P,J6,11,Pin_11*%
%TO.N,Net-(C6-Pad1)*%
X154940000Y-108785000D03*
%TO.P,J6,12,Pin_12*%
%TO.N,Net-(C6-Pad2)*%
X156210000Y-108785000D03*
%TO.P,J6,13,Pin_13*%
%TO.N,Net-(C7-Pad2)*%
X157480000Y-108785000D03*
%TO.P,J6,14,Pin_14*%
%TO.N,Net-(C8-Pad2)*%
X158750000Y-108785000D03*
%TO.P,J6,15,Pin_15*%
%TO.N,Net-(C10-Pad2)*%
X160020000Y-108785000D03*
D14*
%TO.P,J6,16,Pin_16*%
%TO.N,Net-(C11-Pad2)*%
X161290000Y-108795000D03*
%TO.P,J6,17,Pin_17*%
%TO.N,Net-(C12-Pad2)*%
X162560000Y-108795000D03*
%TD*%
D12*
%TO.P,J1,S1,SHIELD*%
%TO.N,GND*%
X150370000Y-145485000D03*
X141730000Y-145485000D03*
D11*
X150370000Y-149665000D03*
X141730000Y-149665000D03*
%TD*%
D10*
%TO.P,L,1*%
%TO.N,GND*%
X138280000Y-137160000D03*
X144780000Y-137160000D03*
%TO.P,L,2*%
%TO.N,L*%
X144780000Y-132660000D03*
X138280000Y-132660000D03*
%TD*%
%TO.P,R,1*%
%TO.N,GND*%
X176328000Y-137160000D03*
X182828000Y-137160000D03*
%TO.P,R,2*%
%TO.N,R*%
X182828000Y-132660000D03*
X176328000Y-132660000D03*
%TD*%
D15*
%TO.P,J3,1,Pin_1*%
%TO.N,GND*%
X140985000Y-80670400D03*
D16*
%TO.P,J3,2,Pin_2*%
%TO.N,+3V3*%
X143525000Y-80670400D03*
%TO.P,J3,3,Pin_3*%
%TO.N,Start*%
X146065000Y-80670400D03*
%TO.P,J3,4,Pin_4*%
%TO.N,Stop*%
X148605000Y-80670400D03*
%TO.P,J3,5,Pin_5*%
%TO.N,R*%
X151145000Y-80670400D03*
%TO.P,J3,6,Pin_6*%
%TO.N,L*%
X153685000Y-80670400D03*
%TO.P,J3,7,Pin_7*%
%TO.N,CS*%
X156225000Y-80670400D03*
%TO.P,J3,8,Pin_8*%
%TO.N,MOSI*%
X158765000Y-80670400D03*
%TO.P,J3,9,Pin_9*%
%TO.N,RS*%
X161305000Y-80670400D03*
%TO.P,J3,10,Pin_10*%
%TO.N,SCK*%
X163845000Y-80670400D03*
%TD*%
D12*
%TO.P,J7,S1,SHIELD*%
%TO.N,Net-(FB2-Pad2)*%
X129030000Y-144215000D03*
D11*
X129030000Y-148395000D03*
D12*
X137670000Y-144215000D03*
D11*
X137670000Y-148395000D03*
%TD*%
D15*
%TO.P,J5,1,Pin_1*%
%TO.N,Line D+*%
X140980000Y-77216000D03*
D16*
%TO.P,J5,2,Pin_2*%
%TO.N,Line D-*%
X143520000Y-77216000D03*
%TO.P,J5,3,Pin_3*%
%TO.N,Cam D+*%
X146060000Y-77216000D03*
%TO.P,J5,4,Pin_4*%
%TO.N,Cam D-*%
X148600000Y-77216000D03*
%TO.P,J5,5,Pin_5*%
%TO.N,Teensy D-*%
X151140000Y-77216000D03*
%TO.P,J5,6,Pin_6*%
%TO.N,Teensy D+*%
X153680000Y-77216000D03*
%TO.P,J5,7,Pin_7*%
%TO.N,IR D+*%
X156220000Y-77216000D03*
%TO.P,J5,8,Pin_8*%
%TO.N,IR D-*%
X158760000Y-77216000D03*
%TO.P,J5,9,Pin_9*%
%TO.N,GND*%
X161300000Y-77216000D03*
%TO.P,J5,10,Pin_10*%
X163840000Y-77216000D03*
%TD*%
D17*
%TO.N,GND*%
X162560000Y-96266000D03*
X156464000Y-103886000D03*
X173736000Y-137160000D03*
X141605000Y-136525000D03*
X164846000Y-130556000D03*
X160528000Y-127508000D03*
X165354000Y-135890000D03*
X162306000Y-119634000D03*
X150876000Y-130048000D03*
X164846000Y-127508000D03*
X147828000Y-137160000D03*
X139700000Y-130302000D03*
X168148000Y-81534000D03*
X134874000Y-128016000D03*
X160528000Y-132588000D03*
X114300000Y-125984000D03*
X139700000Y-142494000D03*
X160020000Y-137160000D03*
X162560000Y-110998000D03*
X150114000Y-103886000D03*
X134620000Y-138176000D03*
X153162000Y-110998000D03*
X165100000Y-142494000D03*
X168656000Y-129032000D03*
X135890000Y-78105000D03*
X156464000Y-89916000D03*
X147320000Y-88265000D03*
X149860000Y-96266000D03*
X168275000Y-78105000D03*
X156464000Y-96266000D03*
X175006000Y-114300000D03*
X140970000Y-124714000D03*
X141605000Y-112395000D03*
X167386000Y-123444000D03*
X143764000Y-110998000D03*
X154305000Y-136525000D03*
X179578000Y-136144000D03*
X168148000Y-88900000D03*
X136144000Y-81788000D03*
X142240000Y-121285000D03*
X129286000Y-114300000D03*
X162560000Y-103886000D03*
X147828000Y-132588000D03*
X151130000Y-84455000D03*
X173736000Y-132588000D03*
X136144000Y-88392000D03*
X152146000Y-123190000D03*
X168148000Y-102108000D03*
X140970000Y-78994000D03*
X152400000Y-142494000D03*
X168402000Y-135890000D03*
X188976000Y-125984000D03*
X153162000Y-119380000D03*
%TO.N,+3V3*%
X143597999Y-86701999D03*
%TO.N,Line D-*%
X139116395Y-91674406D03*
%TO.N,Cam D+*%
X159512000Y-141986000D03*
X161544000Y-139070494D03*
%TO.N,Cam D-*%
X160528000Y-139616980D03*
X158496000Y-141986000D03*
%TO.N,MOSI*%
X144780000Y-106386500D03*
%TO.N,IR D+*%
X165975622Y-78880378D03*
%TD*%
D18*
%TO.N,+3V3*%
X143597999Y-86701999D02*
X143525000Y-86629000D01*
X143525000Y-86629000D02*
X143525000Y-80670400D01*
%TO.N,R*%
X174114000Y-134874000D02*
X176328000Y-132660000D01*
X151145000Y-80670400D02*
X136144000Y-95671400D01*
X136144000Y-133350000D02*
X137668000Y-134874000D01*
X136144000Y-95671400D02*
X136144000Y-133350000D01*
X182828000Y-132660000D02*
X176328000Y-132660000D01*
X137668000Y-134874000D02*
X174114000Y-134874000D01*
%TO.N,L*%
X138280000Y-96075400D02*
X153685000Y-80670400D01*
X138280000Y-132660000D02*
X144780000Y-132660000D01*
X138280000Y-132660000D02*
X138280000Y-96075400D01*
D19*
%TO.N,Line D-*%
X142375489Y-88415312D02*
X142375489Y-78360511D01*
X139116395Y-91674406D02*
X142375489Y-88415312D01*
X142375489Y-78360511D02*
X143520000Y-77216000D01*
%TO.N,Cam D+*%
X161544000Y-139954000D02*
X161544000Y-139070494D01*
X159512000Y-141986000D02*
X161544000Y-139954000D01*
%TO.N,Cam D-*%
X158496000Y-141648980D02*
X160528000Y-139616980D01*
X158496000Y-141986000D02*
X158496000Y-141648980D01*
D18*
%TO.N,CS*%
X142240000Y-94655400D02*
X156225000Y-80670400D01*
X142240000Y-108285000D02*
X142240000Y-94655400D01*
%TO.N,MOSI*%
X144780000Y-106386500D02*
X144780000Y-94655400D01*
X144780000Y-94655400D02*
X158765000Y-80670400D01*
%TO.N,RS*%
X145504511Y-96470889D02*
X161305000Y-80670400D01*
X144780000Y-108285000D02*
X145504511Y-107560489D01*
X145504511Y-107560489D02*
X145504511Y-96470889D01*
%TO.N,SCK*%
X146050000Y-98465400D02*
X163845000Y-80670400D01*
X146050000Y-108285000D02*
X146050000Y-98465400D01*
%TO.N,Start*%
X157480000Y-132660000D02*
X150980000Y-132660000D01*
%TO.N,Stop*%
X170180000Y-132660000D02*
X163680000Y-132660000D01*
D19*
%TO.N,IR D+*%
X165581244Y-78486000D02*
X157490000Y-78486000D01*
X165975622Y-78880378D02*
X165581244Y-78486000D01*
X157490000Y-78486000D02*
X156220000Y-77216000D01*
%TD*%
%TA.AperFunction,Conductor*%
%TO.N,GND*%
G36*
X139563621Y-76706420D02*
G01*
X139610114Y-76760076D01*
X139621500Y-76812418D01*
X139621500Y-78114134D01*
X139628255Y-78176316D01*
X139679385Y-78312705D01*
X139766739Y-78429261D01*
X139883295Y-78516615D01*
X140019684Y-78567745D01*
X140081866Y-78574500D01*
X141640989Y-78574500D01*
X141709110Y-78594502D01*
X141755603Y-78648158D01*
X141766989Y-78700500D01*
X141766989Y-79186400D01*
X141746987Y-79254521D01*
X141693331Y-79301014D01*
X141640989Y-79312400D01*
X141257115Y-79312400D01*
X141241876Y-79316875D01*
X141240671Y-79318265D01*
X141239000Y-79325948D01*
X141239000Y-82010284D01*
X141243475Y-82025523D01*
X141244865Y-82026728D01*
X141252548Y-82028399D01*
X141640989Y-82028399D01*
X141709110Y-82048401D01*
X141755603Y-82102057D01*
X141766989Y-82154399D01*
X141766989Y-88111074D01*
X141746987Y-88179195D01*
X141730084Y-88200169D01*
X139201251Y-90729001D01*
X139138939Y-90763027D01*
X139112156Y-90765906D01*
X139020908Y-90765906D01*
X139014456Y-90767278D01*
X139014451Y-90767278D01*
X138927508Y-90785759D01*
X138834107Y-90805612D01*
X138828077Y-90808297D01*
X138828076Y-90808297D01*
X138665673Y-90880603D01*
X138665671Y-90880604D01*
X138659643Y-90883288D01*
X138505142Y-90995540D01*
X138377355Y-91137462D01*
X138281868Y-91302850D01*
X138222853Y-91484478D01*
X138202891Y-91674406D01*
X138222853Y-91864334D01*
X138281868Y-92045962D01*
X138377355Y-92211350D01*
X138454076Y-92296557D01*
X138484793Y-92360565D01*
X138476028Y-92431018D01*
X138449534Y-92469962D01*
X135751747Y-95167748D01*
X135743461Y-95175288D01*
X135736982Y-95179400D01*
X135731557Y-95185177D01*
X135690357Y-95229051D01*
X135687602Y-95231893D01*
X135667865Y-95251630D01*
X135665385Y-95254827D01*
X135657682Y-95263847D01*
X135627414Y-95296079D01*
X135623595Y-95303025D01*
X135623593Y-95303028D01*
X135617652Y-95313834D01*
X135606801Y-95330353D01*
X135594386Y-95346359D01*
X135591241Y-95353628D01*
X135591238Y-95353632D01*
X135576826Y-95386937D01*
X135571609Y-95397587D01*
X135550305Y-95436340D01*
X135548334Y-95444015D01*
X135548334Y-95444016D01*
X135545267Y-95455962D01*
X135538863Y-95474666D01*
X135530819Y-95493255D01*
X135529580Y-95501078D01*
X135529577Y-95501088D01*
X135523901Y-95536924D01*
X135521495Y-95548544D01*
X135510500Y-95591370D01*
X135510500Y-95611624D01*
X135508949Y-95631334D01*
X135505780Y-95651343D01*
X135506526Y-95659235D01*
X135509941Y-95695361D01*
X135510500Y-95707219D01*
X135510500Y-133271233D01*
X135509973Y-133282416D01*
X135508298Y-133289909D01*
X135508547Y-133297835D01*
X135508547Y-133297836D01*
X135510438Y-133357986D01*
X135510500Y-133361945D01*
X135510500Y-133389856D01*
X135510997Y-133393790D01*
X135510997Y-133393791D01*
X135511005Y-133393856D01*
X135511938Y-133405693D01*
X135513327Y-133449889D01*
X135518978Y-133469339D01*
X135522987Y-133488700D01*
X135525526Y-133508797D01*
X135528445Y-133516168D01*
X135528445Y-133516170D01*
X135541804Y-133549912D01*
X135545649Y-133561142D01*
X135557982Y-133603593D01*
X135562015Y-133610412D01*
X135562017Y-133610417D01*
X135568293Y-133621028D01*
X135576988Y-133638776D01*
X135584448Y-133657617D01*
X135589110Y-133664033D01*
X135589110Y-133664034D01*
X135610436Y-133693387D01*
X135616952Y-133703307D01*
X135630499Y-133726213D01*
X135639458Y-133741362D01*
X135653779Y-133755683D01*
X135666619Y-133770716D01*
X135678528Y-133787107D01*
X135684634Y-133792158D01*
X135712605Y-133815298D01*
X135721384Y-133823288D01*
X137164343Y-135266247D01*
X137171887Y-135274537D01*
X137176000Y-135281018D01*
X137181777Y-135286443D01*
X137225667Y-135327658D01*
X137228509Y-135330413D01*
X137248230Y-135350134D01*
X137251425Y-135352612D01*
X137260447Y-135360318D01*
X137292679Y-135390586D01*
X137299628Y-135394406D01*
X137310432Y-135400346D01*
X137326956Y-135411199D01*
X137342959Y-135423613D01*
X137383543Y-135441176D01*
X137394173Y-135446383D01*
X137432940Y-135467695D01*
X137440617Y-135469666D01*
X137440622Y-135469668D01*
X137452558Y-135472732D01*
X137471266Y-135479137D01*
X137489855Y-135487181D01*
X137497680Y-135488420D01*
X137497682Y-135488421D01*
X137533519Y-135494097D01*
X137545140Y-135496504D01*
X137576959Y-135504673D01*
X137587970Y-135507500D01*
X137608231Y-135507500D01*
X137627940Y-135509051D01*
X137647943Y-135512219D01*
X137681120Y-135509083D01*
X137750819Y-135522586D01*
X137802155Y-135571628D01*
X137818828Y-135640639D01*
X137795543Y-135707709D01*
X137741194Y-135750933D01*
X137597837Y-135810313D01*
X137589042Y-135814795D01*
X137421555Y-135917432D01*
X137412093Y-135927890D01*
X137415876Y-135936666D01*
X138267188Y-136787978D01*
X138281132Y-136795592D01*
X138282965Y-136795461D01*
X138289580Y-136791210D01*
X139141080Y-135939710D01*
X139147840Y-135927330D01*
X139142113Y-135919680D01*
X138970958Y-135814795D01*
X138962163Y-135810313D01*
X138816334Y-135749909D01*
X138761053Y-135705361D01*
X138738632Y-135637997D01*
X138756190Y-135569206D01*
X138808152Y-135520828D01*
X138864552Y-135507500D01*
X144195448Y-135507500D01*
X144263569Y-135527502D01*
X144310062Y-135581158D01*
X144320166Y-135651432D01*
X144290672Y-135716012D01*
X144243666Y-135749909D01*
X144097837Y-135810313D01*
X144089042Y-135814795D01*
X143921555Y-135917432D01*
X143912093Y-135927890D01*
X143915876Y-135936666D01*
X144767188Y-136787978D01*
X144781132Y-136795592D01*
X144782965Y-136795461D01*
X144789580Y-136791210D01*
X145641080Y-135939710D01*
X145647840Y-135927330D01*
X145642113Y-135919680D01*
X145470958Y-135814795D01*
X145462163Y-135810313D01*
X145316334Y-135749909D01*
X145261053Y-135705361D01*
X145238632Y-135637997D01*
X145256190Y-135569206D01*
X145308152Y-135520828D01*
X145364552Y-135507500D01*
X150395448Y-135507500D01*
X150463569Y-135527502D01*
X150510062Y-135581158D01*
X150520166Y-135651432D01*
X150490672Y-135716012D01*
X150443666Y-135749909D01*
X150297837Y-135810313D01*
X150289042Y-135814795D01*
X150121555Y-135917432D01*
X150112093Y-135927890D01*
X150115876Y-135936666D01*
X150967188Y-136787978D01*
X150981132Y-136795592D01*
X150982965Y-136795461D01*
X150989580Y-136791210D01*
X151841080Y-135939710D01*
X151847840Y-135927330D01*
X151842113Y-135919680D01*
X151670958Y-135814795D01*
X151662163Y-135810313D01*
X151516334Y-135749909D01*
X151461053Y-135705361D01*
X151438632Y-135637997D01*
X151456190Y-135569206D01*
X151508152Y-135520828D01*
X151564552Y-135507500D01*
X156895448Y-135507500D01*
X156963569Y-135527502D01*
X157010062Y-135581158D01*
X157020166Y-135651432D01*
X156990672Y-135716012D01*
X156943666Y-135749909D01*
X156797837Y-135810313D01*
X156789042Y-135814795D01*
X156621555Y-135917432D01*
X156612093Y-135927890D01*
X156615876Y-135936666D01*
X157467188Y-136787978D01*
X157481132Y-136795592D01*
X157482965Y-136795461D01*
X157489580Y-136791210D01*
X158341080Y-135939710D01*
X158347840Y-135927330D01*
X158342113Y-135919680D01*
X158170958Y-135814795D01*
X158162163Y-135810313D01*
X158016334Y-135749909D01*
X157961053Y-135705361D01*
X157938632Y-135637997D01*
X157956190Y-135569206D01*
X158008152Y-135520828D01*
X158064552Y-135507500D01*
X163095448Y-135507500D01*
X163163569Y-135527502D01*
X163210062Y-135581158D01*
X163220166Y-135651432D01*
X163190672Y-135716012D01*
X163143666Y-135749909D01*
X162997837Y-135810313D01*
X162989042Y-135814795D01*
X162821555Y-135917432D01*
X162812093Y-135927890D01*
X162815876Y-135936666D01*
X163667188Y-136787978D01*
X163681132Y-136795592D01*
X163682965Y-136795461D01*
X163689580Y-136791210D01*
X164541080Y-135939710D01*
X164547840Y-135927330D01*
X164542113Y-135919680D01*
X164370958Y-135814795D01*
X164362163Y-135810313D01*
X164216334Y-135749909D01*
X164161053Y-135705361D01*
X164138632Y-135637997D01*
X164156190Y-135569206D01*
X164208152Y-135520828D01*
X164264552Y-135507500D01*
X169595448Y-135507500D01*
X169663569Y-135527502D01*
X169710062Y-135581158D01*
X169720166Y-135651432D01*
X169690672Y-135716012D01*
X169643666Y-135749909D01*
X169497837Y-135810313D01*
X169489042Y-135814795D01*
X169321555Y-135917432D01*
X169312093Y-135927890D01*
X169315876Y-135936666D01*
X170167188Y-136787978D01*
X170181132Y-136795592D01*
X170182965Y-136795461D01*
X170189580Y-136791210D01*
X171041080Y-135939710D01*
X171047534Y-135927890D01*
X175460093Y-135927890D01*
X175463876Y-135936666D01*
X176315188Y-136787978D01*
X176329132Y-136795592D01*
X176330965Y-136795461D01*
X176337580Y-136791210D01*
X177189080Y-135939710D01*
X177195534Y-135927890D01*
X181960093Y-135927890D01*
X181963876Y-135936666D01*
X182815188Y-136787978D01*
X182829132Y-136795592D01*
X182830965Y-136795461D01*
X182837580Y-136791210D01*
X183689080Y-135939710D01*
X183695840Y-135927330D01*
X183690113Y-135919680D01*
X183518958Y-135814795D01*
X183510163Y-135810313D01*
X183300012Y-135723266D01*
X183290627Y-135720217D01*
X183069446Y-135667115D01*
X183059699Y-135665572D01*
X182832930Y-135647725D01*
X182823070Y-135647725D01*
X182596301Y-135665572D01*
X182586554Y-135667115D01*
X182365373Y-135720217D01*
X182355988Y-135723266D01*
X182145837Y-135810313D01*
X182137042Y-135814795D01*
X181969555Y-135917432D01*
X181960093Y-135927890D01*
X177195534Y-135927890D01*
X177195840Y-135927330D01*
X177190113Y-135919680D01*
X177018958Y-135814795D01*
X177010163Y-135810313D01*
X176800012Y-135723266D01*
X176790627Y-135720217D01*
X176569446Y-135667115D01*
X176559699Y-135665572D01*
X176332930Y-135647725D01*
X176323070Y-135647725D01*
X176096301Y-135665572D01*
X176086554Y-135667115D01*
X175865373Y-135720217D01*
X175855988Y-135723266D01*
X175645837Y-135810313D01*
X175637042Y-135814795D01*
X175469555Y-135917432D01*
X175460093Y-135927890D01*
X171047534Y-135927890D01*
X171047840Y-135927330D01*
X171042113Y-135919680D01*
X170870958Y-135814795D01*
X170862163Y-135810313D01*
X170716334Y-135749909D01*
X170661053Y-135705361D01*
X170638632Y-135637997D01*
X170656190Y-135569206D01*
X170708152Y-135520828D01*
X170764552Y-135507500D01*
X174035233Y-135507500D01*
X174046416Y-135508027D01*
X174053909Y-135509702D01*
X174061835Y-135509453D01*
X174061836Y-135509453D01*
X174121986Y-135507562D01*
X174125945Y-135507500D01*
X174153856Y-135507500D01*
X174157791Y-135507003D01*
X174157856Y-135506995D01*
X174169693Y-135506062D01*
X174201951Y-135505048D01*
X174205970Y-135504922D01*
X174213889Y-135504673D01*
X174233343Y-135499021D01*
X174252700Y-135495013D01*
X174264930Y-135493468D01*
X174264931Y-135493468D01*
X174272797Y-135492474D01*
X174280168Y-135489555D01*
X174280170Y-135489555D01*
X174313912Y-135476196D01*
X174325142Y-135472351D01*
X174359983Y-135462229D01*
X174359984Y-135462229D01*
X174367593Y-135460018D01*
X174374412Y-135455985D01*
X174374417Y-135455983D01*
X174385028Y-135449707D01*
X174402776Y-135441012D01*
X174421617Y-135433552D01*
X174441987Y-135418753D01*
X174457387Y-135407564D01*
X174467307Y-135401048D01*
X174498535Y-135382580D01*
X174498538Y-135382578D01*
X174505362Y-135378542D01*
X174519683Y-135364221D01*
X174534717Y-135351380D01*
X174536432Y-135350134D01*
X174551107Y-135339472D01*
X174579298Y-135305395D01*
X174587288Y-135296616D01*
X175749540Y-134134364D01*
X175811852Y-134100338D01*
X175868049Y-134100940D01*
X176086476Y-134153380D01*
X176086482Y-134153381D01*
X176091289Y-134154535D01*
X176328000Y-134173165D01*
X176564711Y-134154535D01*
X176569518Y-134153381D01*
X176569524Y-134153380D01*
X176715391Y-134118360D01*
X176795594Y-134099105D01*
X176835533Y-134082562D01*
X177010389Y-134010135D01*
X177010393Y-134010133D01*
X177014963Y-134008240D01*
X177019183Y-134005654D01*
X177213202Y-133886759D01*
X177213208Y-133886755D01*
X177217416Y-133884176D01*
X177397969Y-133729969D01*
X177552176Y-133549416D01*
X177554755Y-133545208D01*
X177554759Y-133545202D01*
X177672133Y-133353665D01*
X177724781Y-133306034D01*
X177779566Y-133293500D01*
X181376434Y-133293500D01*
X181444555Y-133313502D01*
X181483867Y-133353665D01*
X181601241Y-133545202D01*
X181601245Y-133545208D01*
X181603824Y-133549416D01*
X181758031Y-133729969D01*
X181938584Y-133884176D01*
X181942792Y-133886755D01*
X181942798Y-133886759D01*
X182136817Y-134005654D01*
X182141037Y-134008240D01*
X182145607Y-134010133D01*
X182145611Y-134010135D01*
X182320467Y-134082562D01*
X182360406Y-134099105D01*
X182440609Y-134118360D01*
X182586476Y-134153380D01*
X182586482Y-134153381D01*
X182591289Y-134154535D01*
X182828000Y-134173165D01*
X183064711Y-134154535D01*
X183069518Y-134153381D01*
X183069524Y-134153380D01*
X183215391Y-134118360D01*
X183295594Y-134099105D01*
X183335533Y-134082562D01*
X183510389Y-134010135D01*
X183510393Y-134010133D01*
X183514963Y-134008240D01*
X183519183Y-134005654D01*
X183713202Y-133886759D01*
X183713208Y-133886755D01*
X183717416Y-133884176D01*
X183897969Y-133729969D01*
X184052176Y-133549416D01*
X184054755Y-133545208D01*
X184054759Y-133545202D01*
X184173654Y-133351183D01*
X184176240Y-133346963D01*
X184193194Y-133306034D01*
X184265211Y-133132167D01*
X184265212Y-133132165D01*
X184267105Y-133127594D01*
X184293804Y-133016386D01*
X184321380Y-132901524D01*
X184321381Y-132901518D01*
X184322535Y-132896711D01*
X184341165Y-132660000D01*
X184322535Y-132423289D01*
X184267105Y-132192406D01*
X184198385Y-132026500D01*
X184178135Y-131977611D01*
X184178133Y-131977607D01*
X184176240Y-131973037D01*
X184133368Y-131903077D01*
X184054759Y-131774798D01*
X184054755Y-131774792D01*
X184052176Y-131770584D01*
X183897969Y-131590031D01*
X183717416Y-131435824D01*
X183713208Y-131433245D01*
X183713202Y-131433241D01*
X183519183Y-131314346D01*
X183514963Y-131311760D01*
X183510393Y-131309867D01*
X183510389Y-131309865D01*
X183300167Y-131222789D01*
X183300165Y-131222788D01*
X183295594Y-131220895D01*
X183215391Y-131201640D01*
X183069524Y-131166620D01*
X183069518Y-131166619D01*
X183064711Y-131165465D01*
X182828000Y-131146835D01*
X182591289Y-131165465D01*
X182586482Y-131166619D01*
X182586476Y-131166620D01*
X182440609Y-131201640D01*
X182360406Y-131220895D01*
X182355835Y-131222788D01*
X182355833Y-131222789D01*
X182145611Y-131309865D01*
X182145607Y-131309867D01*
X182141037Y-131311760D01*
X182136817Y-131314346D01*
X181942798Y-131433241D01*
X181942792Y-131433245D01*
X181938584Y-131435824D01*
X181758031Y-131590031D01*
X181603824Y-131770584D01*
X181601245Y-131774792D01*
X181601241Y-131774798D01*
X181483867Y-131966335D01*
X181431219Y-132013966D01*
X181376434Y-132026500D01*
X177779566Y-132026500D01*
X177711445Y-132006498D01*
X177672133Y-131966335D01*
X177554759Y-131774798D01*
X177554755Y-131774792D01*
X177552176Y-131770584D01*
X177397969Y-131590031D01*
X177217416Y-131435824D01*
X177213208Y-131433245D01*
X177213202Y-131433241D01*
X177019183Y-131314346D01*
X177014963Y-131311760D01*
X177010393Y-131309867D01*
X177010389Y-131309865D01*
X176800167Y-131222789D01*
X176800165Y-131222788D01*
X176795594Y-131220895D01*
X176715391Y-131201640D01*
X176569524Y-131166620D01*
X176569518Y-131166619D01*
X176564711Y-131165465D01*
X176328000Y-131146835D01*
X176091289Y-131165465D01*
X176086482Y-131166619D01*
X176086476Y-131166620D01*
X175940609Y-131201640D01*
X175860406Y-131220895D01*
X175855835Y-131222788D01*
X175855833Y-131222789D01*
X175645611Y-131309865D01*
X175645607Y-131309867D01*
X175641037Y-131311760D01*
X175636817Y-131314346D01*
X175442798Y-131433241D01*
X175442792Y-131433245D01*
X175438584Y-131435824D01*
X175258031Y-131590031D01*
X175103824Y-131770584D01*
X175101245Y-131774792D01*
X175101241Y-131774798D01*
X175022632Y-131903077D01*
X174979760Y-131973037D01*
X174977867Y-131977607D01*
X174977865Y-131977611D01*
X174957615Y-132026500D01*
X174888895Y-132192406D01*
X174833465Y-132423289D01*
X174814835Y-132660000D01*
X174833465Y-132896711D01*
X174834619Y-132901518D01*
X174834620Y-132901524D01*
X174887060Y-133119951D01*
X174883513Y-133190859D01*
X174853638Y-133238458D01*
X173888498Y-134203597D01*
X173826188Y-134237621D01*
X173799405Y-134240500D01*
X170934712Y-134240500D01*
X170866591Y-134220498D01*
X170820098Y-134166842D01*
X170809994Y-134096568D01*
X170839488Y-134031988D01*
X170868877Y-134007067D01*
X170871183Y-134005654D01*
X171069416Y-133884176D01*
X171249969Y-133729969D01*
X171404176Y-133549416D01*
X171406755Y-133545208D01*
X171406759Y-133545202D01*
X171525654Y-133351183D01*
X171528240Y-133346963D01*
X171545194Y-133306034D01*
X171617211Y-133132167D01*
X171617212Y-133132165D01*
X171619105Y-133127594D01*
X171645804Y-133016386D01*
X171673380Y-132901524D01*
X171673381Y-132901518D01*
X171674535Y-132896711D01*
X171693165Y-132660000D01*
X171674535Y-132423289D01*
X171619105Y-132192406D01*
X171550385Y-132026500D01*
X171530135Y-131977611D01*
X171530133Y-131977607D01*
X171528240Y-131973037D01*
X171485368Y-131903077D01*
X171406759Y-131774798D01*
X171406755Y-131774792D01*
X171404176Y-131770584D01*
X171249969Y-131590031D01*
X171069416Y-131435824D01*
X171065208Y-131433245D01*
X171065202Y-131433241D01*
X170871183Y-131314346D01*
X170866963Y-131311760D01*
X170862393Y-131309867D01*
X170862389Y-131309865D01*
X170652167Y-131222789D01*
X170652165Y-131222788D01*
X170647594Y-131220895D01*
X170567391Y-131201640D01*
X170421524Y-131166620D01*
X170421518Y-131166619D01*
X170416711Y-131165465D01*
X170180000Y-131146835D01*
X169943289Y-131165465D01*
X169938482Y-131166619D01*
X169938476Y-131166620D01*
X169792609Y-131201640D01*
X169712406Y-131220895D01*
X169707835Y-131222788D01*
X169707833Y-131222789D01*
X169497611Y-131309865D01*
X169497607Y-131309867D01*
X169493037Y-131311760D01*
X169488817Y-131314346D01*
X169294798Y-131433241D01*
X169294792Y-131433245D01*
X169290584Y-131435824D01*
X169110031Y-131590031D01*
X168955824Y-131770584D01*
X168953245Y-131774792D01*
X168953241Y-131774798D01*
X168835867Y-131966335D01*
X168783219Y-132013966D01*
X168728434Y-132026500D01*
X165131566Y-132026500D01*
X165063445Y-132006498D01*
X165024133Y-131966335D01*
X164906759Y-131774798D01*
X164906755Y-131774792D01*
X164904176Y-131770584D01*
X164749969Y-131590031D01*
X164569416Y-131435824D01*
X164565208Y-131433245D01*
X164565202Y-131433241D01*
X164371183Y-131314346D01*
X164366963Y-131311760D01*
X164362393Y-131309867D01*
X164362389Y-131309865D01*
X164152167Y-131222789D01*
X164152165Y-131222788D01*
X164147594Y-131220895D01*
X164067391Y-131201640D01*
X163921524Y-131166620D01*
X163921518Y-131166619D01*
X163916711Y-131165465D01*
X163680000Y-131146835D01*
X163443289Y-131165465D01*
X163438482Y-131166619D01*
X163438476Y-131166620D01*
X163292609Y-131201640D01*
X163212406Y-131220895D01*
X163207835Y-131222788D01*
X163207833Y-131222789D01*
X162997611Y-131309865D01*
X162997607Y-131309867D01*
X162993037Y-131311760D01*
X162988817Y-131314346D01*
X162794798Y-131433241D01*
X162794792Y-131433245D01*
X162790584Y-131435824D01*
X162610031Y-131590031D01*
X162455824Y-131770584D01*
X162453245Y-131774792D01*
X162453241Y-131774798D01*
X162374632Y-131903077D01*
X162331760Y-131973037D01*
X162329867Y-131977607D01*
X162329865Y-131977611D01*
X162309615Y-132026500D01*
X162240895Y-132192406D01*
X162185465Y-132423289D01*
X162166835Y-132660000D01*
X162185465Y-132896711D01*
X162186619Y-132901518D01*
X162186620Y-132901524D01*
X162214196Y-133016386D01*
X162240895Y-133127594D01*
X162242788Y-133132165D01*
X162242789Y-133132167D01*
X162314807Y-133306034D01*
X162331760Y-133346963D01*
X162334346Y-133351183D01*
X162453241Y-133545202D01*
X162453245Y-133545208D01*
X162455824Y-133549416D01*
X162610031Y-133729969D01*
X162790584Y-133884176D01*
X162988817Y-134005654D01*
X162991123Y-134007067D01*
X163038754Y-134059715D01*
X163050361Y-134129757D01*
X163022258Y-134194954D01*
X162963367Y-134234608D01*
X162925288Y-134240500D01*
X158234712Y-134240500D01*
X158166591Y-134220498D01*
X158120098Y-134166842D01*
X158109994Y-134096568D01*
X158139488Y-134031988D01*
X158168877Y-134007067D01*
X158171183Y-134005654D01*
X158369416Y-133884176D01*
X158549969Y-133729969D01*
X158704176Y-133549416D01*
X158706755Y-133545208D01*
X158706759Y-133545202D01*
X158825654Y-133351183D01*
X158828240Y-133346963D01*
X158845194Y-133306034D01*
X158917211Y-133132167D01*
X158917212Y-133132165D01*
X158919105Y-133127594D01*
X158945804Y-133016386D01*
X158973380Y-132901524D01*
X158973381Y-132901518D01*
X158974535Y-132896711D01*
X158993165Y-132660000D01*
X158974535Y-132423289D01*
X158919105Y-132192406D01*
X158850385Y-132026500D01*
X158830135Y-131977611D01*
X158830133Y-131977607D01*
X158828240Y-131973037D01*
X158785368Y-131903077D01*
X158706759Y-131774798D01*
X158706755Y-131774792D01*
X158704176Y-131770584D01*
X158549969Y-131590031D01*
X158369416Y-131435824D01*
X158365208Y-131433245D01*
X158365202Y-131433241D01*
X158171183Y-131314346D01*
X158166963Y-131311760D01*
X158162393Y-131309867D01*
X158162389Y-131309865D01*
X157952167Y-131222789D01*
X157952165Y-131222788D01*
X157947594Y-131220895D01*
X157867391Y-131201640D01*
X157721524Y-131166620D01*
X157721518Y-131166619D01*
X157716711Y-131165465D01*
X157480000Y-131146835D01*
X157243289Y-131165465D01*
X157238482Y-131166619D01*
X157238476Y-131166620D01*
X157092609Y-131201640D01*
X157012406Y-131220895D01*
X157007835Y-131222788D01*
X157007833Y-131222789D01*
X156797611Y-131309865D01*
X156797607Y-131309867D01*
X156793037Y-131311760D01*
X156788817Y-131314346D01*
X156594798Y-131433241D01*
X156594792Y-131433245D01*
X156590584Y-131435824D01*
X156410031Y-131590031D01*
X156255824Y-131770584D01*
X156253245Y-131774792D01*
X156253241Y-131774798D01*
X156135867Y-131966335D01*
X156083219Y-132013966D01*
X156028434Y-132026500D01*
X152431566Y-132026500D01*
X152363445Y-132006498D01*
X152324133Y-131966335D01*
X152206759Y-131774798D01*
X152206755Y-131774792D01*
X152204176Y-131770584D01*
X152049969Y-131590031D01*
X151869416Y-131435824D01*
X151865208Y-131433245D01*
X151865202Y-131433241D01*
X151671183Y-131314346D01*
X151666963Y-131311760D01*
X151662393Y-131309867D01*
X151662389Y-131309865D01*
X151452167Y-131222789D01*
X151452165Y-131222788D01*
X151447594Y-131220895D01*
X151367391Y-131201640D01*
X151221524Y-131166620D01*
X151221518Y-131166619D01*
X151216711Y-131165465D01*
X150980000Y-131146835D01*
X150743289Y-131165465D01*
X150738482Y-131166619D01*
X150738476Y-131166620D01*
X150592609Y-131201640D01*
X150512406Y-131220895D01*
X150507835Y-131222788D01*
X150507833Y-131222789D01*
X150297611Y-131309865D01*
X150297607Y-131309867D01*
X150293037Y-131311760D01*
X150288817Y-131314346D01*
X150094798Y-131433241D01*
X150094792Y-131433245D01*
X150090584Y-131435824D01*
X149910031Y-131590031D01*
X149755824Y-131770584D01*
X149753245Y-131774792D01*
X149753241Y-131774798D01*
X149674632Y-131903077D01*
X149631760Y-131973037D01*
X149629867Y-131977607D01*
X149629865Y-131977611D01*
X149609615Y-132026500D01*
X149540895Y-132192406D01*
X149485465Y-132423289D01*
X149466835Y-132660000D01*
X149485465Y-132896711D01*
X149486619Y-132901518D01*
X149486620Y-132901524D01*
X149514196Y-133016386D01*
X149540895Y-133127594D01*
X149542788Y-133132165D01*
X149542789Y-133132167D01*
X149614807Y-133306034D01*
X149631760Y-133346963D01*
X149634346Y-133351183D01*
X149753241Y-133545202D01*
X149753245Y-133545208D01*
X149755824Y-133549416D01*
X149910031Y-133729969D01*
X150090584Y-133884176D01*
X150288817Y-134005654D01*
X150291123Y-134007067D01*
X150338754Y-134059715D01*
X150350361Y-134129757D01*
X150322258Y-134194954D01*
X150263367Y-134234608D01*
X150225288Y-134240500D01*
X145534712Y-134240500D01*
X145466591Y-134220498D01*
X145420098Y-134166842D01*
X145409994Y-134096568D01*
X145439488Y-134031988D01*
X145468877Y-134007067D01*
X145471183Y-134005654D01*
X145669416Y-133884176D01*
X145849969Y-133729969D01*
X146004176Y-133549416D01*
X146006755Y-133545208D01*
X146006759Y-133545202D01*
X146125654Y-133351183D01*
X146128240Y-133346963D01*
X146145194Y-133306034D01*
X146217211Y-133132167D01*
X146217212Y-133132165D01*
X146219105Y-133127594D01*
X146245804Y-133016386D01*
X146273380Y-132901524D01*
X146273381Y-132901518D01*
X146274535Y-132896711D01*
X146293165Y-132660000D01*
X146274535Y-132423289D01*
X146219105Y-132192406D01*
X146150385Y-132026500D01*
X146130135Y-131977611D01*
X146130133Y-131977607D01*
X146128240Y-131973037D01*
X146085368Y-131903077D01*
X146006759Y-131774798D01*
X146006755Y-131774792D01*
X146004176Y-131770584D01*
X145849969Y-131590031D01*
X145669416Y-131435824D01*
X145665208Y-131433245D01*
X145665202Y-131433241D01*
X145471183Y-131314346D01*
X145466963Y-131311760D01*
X145462393Y-131309867D01*
X145462389Y-131309865D01*
X145252167Y-131222789D01*
X145252165Y-131222788D01*
X145247594Y-131220895D01*
X145167391Y-131201640D01*
X145021524Y-131166620D01*
X145021518Y-131166619D01*
X145016711Y-131165465D01*
X144780000Y-131146835D01*
X144543289Y-131165465D01*
X144538482Y-131166619D01*
X144538476Y-131166620D01*
X144392609Y-131201640D01*
X144312406Y-131220895D01*
X144307835Y-131222788D01*
X144307833Y-131222789D01*
X144097611Y-131309865D01*
X144097607Y-131309867D01*
X144093037Y-131311760D01*
X144088817Y-131314346D01*
X143894798Y-131433241D01*
X143894792Y-131433245D01*
X143890584Y-131435824D01*
X143710031Y-131590031D01*
X143555824Y-131770584D01*
X143553245Y-131774792D01*
X143553241Y-131774798D01*
X143435867Y-131966335D01*
X143383219Y-132013966D01*
X143328434Y-132026500D01*
X139731566Y-132026500D01*
X139663445Y-132006498D01*
X139624133Y-131966335D01*
X139506759Y-131774798D01*
X139506755Y-131774792D01*
X139504176Y-131770584D01*
X139349969Y-131590031D01*
X139169416Y-131435824D01*
X139165208Y-131433245D01*
X139165202Y-131433241D01*
X138973665Y-131315867D01*
X138926034Y-131263219D01*
X138913500Y-131208434D01*
X138913500Y-96389994D01*
X138933502Y-96321873D01*
X138950405Y-96300899D01*
X153229550Y-82021755D01*
X153291862Y-81987729D01*
X153343762Y-81987379D01*
X153523597Y-82023967D01*
X153528771Y-82024157D01*
X153528773Y-82024157D01*
X153590898Y-82026435D01*
X153670650Y-82029359D01*
X153737991Y-82051843D01*
X153782487Y-82107167D01*
X153790009Y-82177764D01*
X153755127Y-82244369D01*
X147799326Y-88200169D01*
X141847747Y-94151748D01*
X141839461Y-94159288D01*
X141832982Y-94163400D01*
X141827557Y-94169177D01*
X141786357Y-94213051D01*
X141783602Y-94215893D01*
X141763865Y-94235630D01*
X141761385Y-94238827D01*
X141753682Y-94247847D01*
X141723414Y-94280079D01*
X141719595Y-94287025D01*
X141719593Y-94287028D01*
X141713652Y-94297834D01*
X141702801Y-94314353D01*
X141690386Y-94330359D01*
X141687241Y-94337628D01*
X141687238Y-94337632D01*
X141672826Y-94370937D01*
X141667609Y-94381587D01*
X141646305Y-94420340D01*
X141644334Y-94428015D01*
X141644334Y-94428016D01*
X141641267Y-94439962D01*
X141634863Y-94458666D01*
X141626819Y-94477255D01*
X141625580Y-94485078D01*
X141625577Y-94485088D01*
X141619901Y-94520924D01*
X141617495Y-94532544D01*
X141606500Y-94575370D01*
X141606500Y-94595624D01*
X141604949Y-94615334D01*
X141601780Y-94635343D01*
X141602526Y-94643235D01*
X141605941Y-94679361D01*
X141606500Y-94691219D01*
X141606500Y-107425716D01*
X141586498Y-107493837D01*
X141559456Y-107523908D01*
X141495823Y-107575071D01*
X141362391Y-107734089D01*
X141359427Y-107739481D01*
X141359424Y-107739485D01*
X141355622Y-107746401D01*
X141262387Y-107915995D01*
X141199621Y-108113861D01*
X141198935Y-108119978D01*
X141198934Y-108119982D01*
X141197989Y-108128408D01*
X141181500Y-108275413D01*
X141181500Y-109287237D01*
X141181800Y-109290293D01*
X141181800Y-109290300D01*
X141182564Y-109298087D01*
X141196635Y-109441592D01*
X141256632Y-109640315D01*
X141354087Y-109823599D01*
X141385506Y-109862123D01*
X141481390Y-109979689D01*
X141481393Y-109979692D01*
X141485285Y-109984464D01*
X141645230Y-110116783D01*
X141650647Y-110119712D01*
X141650650Y-110119714D01*
X141822410Y-110212584D01*
X141822415Y-110212586D01*
X141827830Y-110215514D01*
X142026129Y-110276898D01*
X142032254Y-110277542D01*
X142032255Y-110277542D01*
X142226446Y-110297952D01*
X142226448Y-110297952D01*
X142232575Y-110298596D01*
X142322303Y-110290430D01*
X142433164Y-110280341D01*
X142433167Y-110280340D01*
X142439303Y-110279782D01*
X142445209Y-110278044D01*
X142445213Y-110278043D01*
X142611173Y-110229198D01*
X142638440Y-110221173D01*
X142710995Y-110183242D01*
X142817953Y-110127326D01*
X142887588Y-110113492D01*
X142936256Y-110128152D01*
X142968918Y-110145812D01*
X143097830Y-110215514D01*
X143296129Y-110276898D01*
X143302254Y-110277542D01*
X143302255Y-110277542D01*
X143496446Y-110297952D01*
X143496448Y-110297952D01*
X143502575Y-110298596D01*
X143592303Y-110290430D01*
X143703164Y-110280341D01*
X143703167Y-110280340D01*
X143709303Y-110279782D01*
X143715209Y-110278044D01*
X143715213Y-110278043D01*
X143881173Y-110229198D01*
X143908440Y-110221173D01*
X143980995Y-110183242D01*
X144087953Y-110127326D01*
X144157588Y-110113492D01*
X144206256Y-110128152D01*
X144238918Y-110145812D01*
X144367830Y-110215514D01*
X144566129Y-110276898D01*
X144572254Y-110277542D01*
X144572255Y-110277542D01*
X144766446Y-110297952D01*
X144766448Y-110297952D01*
X144772575Y-110298596D01*
X144862303Y-110290430D01*
X144973164Y-110280341D01*
X144973167Y-110280340D01*
X144979303Y-110279782D01*
X144985209Y-110278044D01*
X144985213Y-110278043D01*
X145151173Y-110229198D01*
X145178440Y-110221173D01*
X145250995Y-110183242D01*
X145357953Y-110127326D01*
X145427588Y-110113492D01*
X145476256Y-110128152D01*
X145508918Y-110145812D01*
X145637830Y-110215514D01*
X145836129Y-110276898D01*
X145842254Y-110277542D01*
X145842255Y-110277542D01*
X146036446Y-110297952D01*
X146036448Y-110297952D01*
X146042575Y-110298596D01*
X146132303Y-110290430D01*
X146243164Y-110280341D01*
X146243167Y-110280340D01*
X146249303Y-110279782D01*
X146255209Y-110278044D01*
X146255213Y-110278043D01*
X146421173Y-110229198D01*
X146448440Y-110221173D01*
X146520995Y-110183242D01*
X146627953Y-110127326D01*
X146697588Y-110113492D01*
X146746256Y-110128152D01*
X146778918Y-110145812D01*
X146907830Y-110215514D01*
X147106129Y-110276898D01*
X147112254Y-110277542D01*
X147112255Y-110277542D01*
X147306446Y-110297952D01*
X147306448Y-110297952D01*
X147312575Y-110298596D01*
X147402303Y-110290430D01*
X147513164Y-110280341D01*
X147513167Y-110280340D01*
X147519303Y-110279782D01*
X147525209Y-110278044D01*
X147525213Y-110278043D01*
X147691173Y-110229198D01*
X147718440Y-110221173D01*
X147790995Y-110183242D01*
X147897953Y-110127326D01*
X147967588Y-110113492D01*
X148016256Y-110128152D01*
X148048918Y-110145812D01*
X148177830Y-110215514D01*
X148376129Y-110276898D01*
X148382254Y-110277542D01*
X148382255Y-110277542D01*
X148576446Y-110297952D01*
X148576448Y-110297952D01*
X148582575Y-110298596D01*
X148672303Y-110290430D01*
X148783164Y-110280341D01*
X148783167Y-110280340D01*
X148789303Y-110279782D01*
X148795209Y-110278044D01*
X148795213Y-110278043D01*
X148961173Y-110229198D01*
X148988440Y-110221173D01*
X149168488Y-110127046D01*
X149238123Y-110113212D01*
X149286791Y-110127872D01*
X149442607Y-110212121D01*
X149453907Y-110216871D01*
X149588693Y-110258595D01*
X149602795Y-110258801D01*
X149606000Y-110252045D01*
X149606000Y-109552497D01*
X149611898Y-109514399D01*
X149628516Y-109462012D01*
X149630379Y-109456139D01*
X149631350Y-109447489D01*
X149641693Y-109355273D01*
X149648500Y-109294587D01*
X149648500Y-109287237D01*
X150071500Y-109287237D01*
X150071800Y-109290293D01*
X150071800Y-109290300D01*
X150072564Y-109298087D01*
X150086635Y-109441592D01*
X150104141Y-109499575D01*
X150108622Y-109514418D01*
X150114000Y-109550835D01*
X150114000Y-110245047D01*
X150117973Y-110258578D01*
X150125768Y-110259698D01*
X150252342Y-110222446D01*
X150263710Y-110217853D01*
X150437422Y-110127039D01*
X150507058Y-110113205D01*
X150555725Y-110127865D01*
X150588918Y-110145812D01*
X150717830Y-110215514D01*
X150916129Y-110276898D01*
X150922254Y-110277542D01*
X150922255Y-110277542D01*
X151116446Y-110297952D01*
X151116448Y-110297952D01*
X151122575Y-110298596D01*
X151212303Y-110290430D01*
X151323164Y-110280341D01*
X151323167Y-110280340D01*
X151329303Y-110279782D01*
X151335209Y-110278044D01*
X151335213Y-110278043D01*
X151501173Y-110229198D01*
X151528440Y-110221173D01*
X151600995Y-110183242D01*
X151707953Y-110127326D01*
X151777588Y-110113492D01*
X151826256Y-110128152D01*
X151858918Y-110145812D01*
X151987830Y-110215514D01*
X152186129Y-110276898D01*
X152192254Y-110277542D01*
X152192255Y-110277542D01*
X152386446Y-110297952D01*
X152386448Y-110297952D01*
X152392575Y-110298596D01*
X152482303Y-110290430D01*
X152593164Y-110280341D01*
X152593167Y-110280340D01*
X152599303Y-110279782D01*
X152605209Y-110278044D01*
X152605213Y-110278043D01*
X152771173Y-110229198D01*
X152798440Y-110221173D01*
X152870995Y-110183242D01*
X152977953Y-110127326D01*
X153047588Y-110113492D01*
X153096256Y-110128152D01*
X153128918Y-110145812D01*
X153257830Y-110215514D01*
X153456129Y-110276898D01*
X153462254Y-110277542D01*
X153462255Y-110277542D01*
X153656446Y-110297952D01*
X153656448Y-110297952D01*
X153662575Y-110298596D01*
X153752303Y-110290430D01*
X153863164Y-110280341D01*
X153863167Y-110280340D01*
X153869303Y-110279782D01*
X153875209Y-110278044D01*
X153875213Y-110278043D01*
X154041173Y-110229198D01*
X154068440Y-110221173D01*
X154140995Y-110183242D01*
X154247953Y-110127326D01*
X154317588Y-110113492D01*
X154366256Y-110128152D01*
X154398918Y-110145812D01*
X154527830Y-110215514D01*
X154726129Y-110276898D01*
X154732254Y-110277542D01*
X154732255Y-110277542D01*
X154926446Y-110297952D01*
X154926448Y-110297952D01*
X154932575Y-110298596D01*
X155022303Y-110290430D01*
X155133164Y-110280341D01*
X155133167Y-110280340D01*
X155139303Y-110279782D01*
X155145209Y-110278044D01*
X155145213Y-110278043D01*
X155311173Y-110229198D01*
X155338440Y-110221173D01*
X155410995Y-110183242D01*
X155517953Y-110127326D01*
X155587588Y-110113492D01*
X155636256Y-110128152D01*
X155668918Y-110145812D01*
X155797830Y-110215514D01*
X155996129Y-110276898D01*
X156002254Y-110277542D01*
X156002255Y-110277542D01*
X156196446Y-110297952D01*
X156196448Y-110297952D01*
X156202575Y-110298596D01*
X156292303Y-110290430D01*
X156403164Y-110280341D01*
X156403167Y-110280340D01*
X156409303Y-110279782D01*
X156415209Y-110278044D01*
X156415213Y-110278043D01*
X156581173Y-110229198D01*
X156608440Y-110221173D01*
X156680995Y-110183242D01*
X156787953Y-110127326D01*
X156857588Y-110113492D01*
X156906256Y-110128152D01*
X156938918Y-110145812D01*
X157067830Y-110215514D01*
X157266129Y-110276898D01*
X157272254Y-110277542D01*
X157272255Y-110277542D01*
X157466446Y-110297952D01*
X157466448Y-110297952D01*
X157472575Y-110298596D01*
X157562303Y-110290430D01*
X157673164Y-110280341D01*
X157673167Y-110280340D01*
X157679303Y-110279782D01*
X157685209Y-110278044D01*
X157685213Y-110278043D01*
X157851173Y-110229198D01*
X157878440Y-110221173D01*
X157950995Y-110183242D01*
X158057953Y-110127326D01*
X158127588Y-110113492D01*
X158176256Y-110128152D01*
X158208918Y-110145812D01*
X158337830Y-110215514D01*
X158536129Y-110276898D01*
X158542254Y-110277542D01*
X158542255Y-110277542D01*
X158736446Y-110297952D01*
X158736448Y-110297952D01*
X158742575Y-110298596D01*
X158832303Y-110290430D01*
X158943164Y-110280341D01*
X158943167Y-110280340D01*
X158949303Y-110279782D01*
X158955209Y-110278044D01*
X158955213Y-110278043D01*
X159121173Y-110229198D01*
X159148440Y-110221173D01*
X159220995Y-110183242D01*
X159327953Y-110127326D01*
X159397588Y-110113492D01*
X159446256Y-110128152D01*
X159478918Y-110145812D01*
X159607830Y-110215514D01*
X159806129Y-110276898D01*
X159812254Y-110277542D01*
X159812255Y-110277542D01*
X160006446Y-110297952D01*
X160006448Y-110297952D01*
X160012575Y-110298596D01*
X160102303Y-110290430D01*
X160213164Y-110280341D01*
X160213167Y-110280340D01*
X160219303Y-110279782D01*
X160225209Y-110278044D01*
X160225213Y-110278043D01*
X160391173Y-110229198D01*
X160418440Y-110221173D01*
X160575437Y-110139097D01*
X160596107Y-110128291D01*
X160665742Y-110114457D01*
X160722883Y-110134765D01*
X160723325Y-110135130D01*
X160897299Y-110229198D01*
X161086232Y-110287682D01*
X161092357Y-110288326D01*
X161092358Y-110288326D01*
X161276796Y-110307711D01*
X161276798Y-110307711D01*
X161282925Y-110308355D01*
X161390159Y-110298596D01*
X161473749Y-110290989D01*
X161473752Y-110290988D01*
X161479888Y-110290430D01*
X161485794Y-110288692D01*
X161485798Y-110288691D01*
X161610311Y-110252045D01*
X161669619Y-110234590D01*
X161675077Y-110231737D01*
X161675081Y-110231735D01*
X161770865Y-110181660D01*
X161844890Y-110142960D01*
X161849690Y-110139100D01*
X161854847Y-110135726D01*
X161856231Y-110137842D01*
X161911635Y-110114973D01*
X161981488Y-110127666D01*
X161991102Y-110133291D01*
X161993325Y-110135130D01*
X162167299Y-110229198D01*
X162356232Y-110287682D01*
X162362357Y-110288326D01*
X162362358Y-110288326D01*
X162546796Y-110307711D01*
X162546798Y-110307711D01*
X162552925Y-110308355D01*
X162660159Y-110298596D01*
X162743749Y-110290989D01*
X162743752Y-110290988D01*
X162749888Y-110290430D01*
X162755794Y-110288692D01*
X162755798Y-110288691D01*
X162880311Y-110252045D01*
X162939619Y-110234590D01*
X162945077Y-110231737D01*
X162945081Y-110231735D01*
X163035853Y-110184280D01*
X163114890Y-110142960D01*
X163269025Y-110019032D01*
X163396154Y-109867526D01*
X163399121Y-109862128D01*
X163399125Y-109862123D01*
X163488467Y-109699608D01*
X163491433Y-109694213D01*
X163551235Y-109505694D01*
X163568500Y-109351773D01*
X163568500Y-108245231D01*
X163554080Y-108098167D01*
X163496916Y-107908831D01*
X163404066Y-107734204D01*
X163333709Y-107647938D01*
X163282960Y-107585713D01*
X163282957Y-107585710D01*
X163279065Y-107580938D01*
X163271973Y-107575071D01*
X163131425Y-107458799D01*
X163131421Y-107458797D01*
X163126675Y-107454870D01*
X162952701Y-107360802D01*
X162763768Y-107302318D01*
X162757643Y-107301674D01*
X162757642Y-107301674D01*
X162573204Y-107282289D01*
X162573202Y-107282289D01*
X162567075Y-107281645D01*
X162484576Y-107289153D01*
X162376251Y-107299011D01*
X162376248Y-107299012D01*
X162370112Y-107299570D01*
X162364206Y-107301308D01*
X162364202Y-107301309D01*
X162259076Y-107332249D01*
X162180381Y-107355410D01*
X162174923Y-107358263D01*
X162174919Y-107358265D01*
X162116011Y-107389062D01*
X162005110Y-107447040D01*
X162000310Y-107450900D01*
X161995153Y-107454274D01*
X161993769Y-107452158D01*
X161938365Y-107475027D01*
X161868512Y-107462334D01*
X161858898Y-107456709D01*
X161856675Y-107454870D01*
X161682701Y-107360802D01*
X161493768Y-107302318D01*
X161487643Y-107301674D01*
X161487642Y-107301674D01*
X161303204Y-107282289D01*
X161303202Y-107282289D01*
X161297075Y-107281645D01*
X161214576Y-107289153D01*
X161106251Y-107299011D01*
X161106248Y-107299012D01*
X161100112Y-107299570D01*
X161094206Y-107301308D01*
X161094202Y-107301309D01*
X160989076Y-107332249D01*
X160910381Y-107355410D01*
X160904923Y-107358263D01*
X160904919Y-107358265D01*
X160842826Y-107390727D01*
X160735110Y-107447040D01*
X160734824Y-107446494D01*
X160671001Y-107465812D01*
X160610028Y-107450653D01*
X160432170Y-107354486D01*
X160233871Y-107293102D01*
X160227746Y-107292458D01*
X160227745Y-107292458D01*
X160033554Y-107272048D01*
X160033552Y-107272048D01*
X160027425Y-107271404D01*
X159941515Y-107279223D01*
X159826836Y-107289659D01*
X159826833Y-107289660D01*
X159820697Y-107290218D01*
X159814791Y-107291956D01*
X159814787Y-107291957D01*
X159726454Y-107317955D01*
X159621560Y-107348827D01*
X159591165Y-107364717D01*
X159442047Y-107442674D01*
X159372412Y-107456508D01*
X159323744Y-107441848D01*
X159255253Y-107404816D01*
X159162170Y-107354486D01*
X158963871Y-107293102D01*
X158957746Y-107292458D01*
X158957745Y-107292458D01*
X158763554Y-107272048D01*
X158763552Y-107272048D01*
X158757425Y-107271404D01*
X158671515Y-107279223D01*
X158556836Y-107289659D01*
X158556833Y-107289660D01*
X158550697Y-107290218D01*
X158544791Y-107291956D01*
X158544787Y-107291957D01*
X158456454Y-107317955D01*
X158351560Y-107348827D01*
X158321165Y-107364717D01*
X158172047Y-107442674D01*
X158102412Y-107456508D01*
X158053744Y-107441848D01*
X157985253Y-107404816D01*
X157892170Y-107354486D01*
X157693871Y-107293102D01*
X157687746Y-107292458D01*
X157687745Y-107292458D01*
X157493554Y-107272048D01*
X157493552Y-107272048D01*
X157487425Y-107271404D01*
X157401515Y-107279223D01*
X157286836Y-107289659D01*
X157286833Y-107289660D01*
X157280697Y-107290218D01*
X157274791Y-107291956D01*
X157274787Y-107291957D01*
X157186454Y-107317955D01*
X157081560Y-107348827D01*
X157051165Y-107364717D01*
X156902047Y-107442674D01*
X156832412Y-107456508D01*
X156783744Y-107441848D01*
X156715253Y-107404816D01*
X156622170Y-107354486D01*
X156423871Y-107293102D01*
X156417746Y-107292458D01*
X156417745Y-107292458D01*
X156223554Y-107272048D01*
X156223552Y-107272048D01*
X156217425Y-107271404D01*
X156131515Y-107279223D01*
X156016836Y-107289659D01*
X156016833Y-107289660D01*
X156010697Y-107290218D01*
X156004791Y-107291956D01*
X156004787Y-107291957D01*
X155916454Y-107317955D01*
X155811560Y-107348827D01*
X155781165Y-107364717D01*
X155632047Y-107442674D01*
X155562412Y-107456508D01*
X155513744Y-107441848D01*
X155445253Y-107404816D01*
X155352170Y-107354486D01*
X155153871Y-107293102D01*
X155147746Y-107292458D01*
X155147745Y-107292458D01*
X154953554Y-107272048D01*
X154953552Y-107272048D01*
X154947425Y-107271404D01*
X154861515Y-107279223D01*
X154746836Y-107289659D01*
X154746833Y-107289660D01*
X154740697Y-107290218D01*
X154734791Y-107291956D01*
X154734787Y-107291957D01*
X154646454Y-107317955D01*
X154541560Y-107348827D01*
X154511165Y-107364717D01*
X154362047Y-107442674D01*
X154292412Y-107456508D01*
X154243744Y-107441848D01*
X154175253Y-107404816D01*
X154082170Y-107354486D01*
X153883871Y-107293102D01*
X153877746Y-107292458D01*
X153877745Y-107292458D01*
X153683554Y-107272048D01*
X153683552Y-107272048D01*
X153677425Y-107271404D01*
X153591515Y-107279223D01*
X153476836Y-107289659D01*
X153476833Y-107289660D01*
X153470697Y-107290218D01*
X153464791Y-107291956D01*
X153464787Y-107291957D01*
X153376454Y-107317955D01*
X153271560Y-107348827D01*
X153241165Y-107364717D01*
X153092047Y-107442674D01*
X153022412Y-107456508D01*
X152973744Y-107441848D01*
X152905253Y-107404816D01*
X152812170Y-107354486D01*
X152613871Y-107293102D01*
X152607746Y-107292458D01*
X152607745Y-107292458D01*
X152413554Y-107272048D01*
X152413552Y-107272048D01*
X152407425Y-107271404D01*
X152321515Y-107279223D01*
X152206836Y-107289659D01*
X152206833Y-107289660D01*
X152200697Y-107290218D01*
X152194791Y-107291956D01*
X152194787Y-107291957D01*
X152106454Y-107317955D01*
X152001560Y-107348827D01*
X151971165Y-107364717D01*
X151822047Y-107442674D01*
X151752412Y-107456508D01*
X151703744Y-107441848D01*
X151635253Y-107404816D01*
X151542170Y-107354486D01*
X151343871Y-107293102D01*
X151337746Y-107292458D01*
X151337745Y-107292458D01*
X151143554Y-107272048D01*
X151143552Y-107272048D01*
X151137425Y-107271404D01*
X151051515Y-107279223D01*
X150936836Y-107289659D01*
X150936833Y-107289660D01*
X150930697Y-107290218D01*
X150924791Y-107291956D01*
X150924787Y-107291957D01*
X150836454Y-107317955D01*
X150731560Y-107348827D01*
X150552048Y-107442674D01*
X150551512Y-107442954D01*
X150481877Y-107456788D01*
X150433209Y-107442128D01*
X150277393Y-107357879D01*
X150266093Y-107353129D01*
X150131307Y-107311405D01*
X150117205Y-107311199D01*
X150114000Y-107317955D01*
X150114000Y-108017503D01*
X150108102Y-108055601D01*
X150089621Y-108113861D01*
X150088935Y-108119978D01*
X150088934Y-108119982D01*
X150087989Y-108128408D01*
X150071500Y-108275413D01*
X150071500Y-109287237D01*
X149648500Y-109287237D01*
X149648500Y-108282763D01*
X149647780Y-108275413D01*
X149633966Y-108134534D01*
X149633965Y-108134531D01*
X149633365Y-108128408D01*
X149611378Y-108055582D01*
X149606000Y-108019165D01*
X149606000Y-107324953D01*
X149602027Y-107311422D01*
X149594232Y-107310302D01*
X149467658Y-107347554D01*
X149456290Y-107352147D01*
X149282578Y-107442961D01*
X149212942Y-107456795D01*
X149164275Y-107442135D01*
X149084573Y-107399041D01*
X149002170Y-107354486D01*
X148803871Y-107293102D01*
X148797746Y-107292458D01*
X148797745Y-107292458D01*
X148603554Y-107272048D01*
X148603552Y-107272048D01*
X148597425Y-107271404D01*
X148511515Y-107279223D01*
X148396836Y-107289659D01*
X148396833Y-107289660D01*
X148390697Y-107290218D01*
X148384791Y-107291956D01*
X148384787Y-107291957D01*
X148296454Y-107317955D01*
X148191560Y-107348827D01*
X148161165Y-107364717D01*
X148012047Y-107442674D01*
X147942412Y-107456508D01*
X147893744Y-107441848D01*
X147825253Y-107404816D01*
X147732170Y-107354486D01*
X147533871Y-107293102D01*
X147527746Y-107292458D01*
X147527745Y-107292458D01*
X147333554Y-107272048D01*
X147333552Y-107272048D01*
X147327425Y-107271404D01*
X147241515Y-107279223D01*
X147126836Y-107289659D01*
X147126833Y-107289660D01*
X147120697Y-107290218D01*
X147114791Y-107291956D01*
X147114787Y-107291957D01*
X147026454Y-107317955D01*
X146921560Y-107348827D01*
X146867874Y-107376893D01*
X146798240Y-107390727D01*
X146732179Y-107364717D01*
X146690667Y-107307121D01*
X146683500Y-107265231D01*
X146683500Y-98779994D01*
X146703502Y-98711873D01*
X146720405Y-98690899D01*
X163389549Y-82021755D01*
X163451861Y-81987729D01*
X163503762Y-81987379D01*
X163683597Y-82023967D01*
X163688772Y-82024157D01*
X163688774Y-82024157D01*
X163901673Y-82031964D01*
X163901677Y-82031964D01*
X163906837Y-82032153D01*
X163911957Y-82031497D01*
X163911959Y-82031497D01*
X164123288Y-82004425D01*
X164123289Y-82004425D01*
X164128416Y-82003768D01*
X164167434Y-81992062D01*
X164337429Y-81941061D01*
X164337434Y-81941059D01*
X164342384Y-81939574D01*
X164542994Y-81841296D01*
X164724860Y-81711573D01*
X164883096Y-81553889D01*
X165013453Y-81372477D01*
X165034320Y-81330257D01*
X165110136Y-81176853D01*
X165110137Y-81176851D01*
X165112430Y-81172211D01*
X165177370Y-80958469D01*
X165206529Y-80736990D01*
X165208156Y-80670400D01*
X165189852Y-80447761D01*
X165135431Y-80231102D01*
X165046354Y-80026240D01*
X164925014Y-79838677D01*
X164774670Y-79673451D01*
X164770619Y-79670252D01*
X164770615Y-79670248D01*
X164603414Y-79538200D01*
X164603410Y-79538198D01*
X164599359Y-79534998D01*
X164403789Y-79427038D01*
X164398920Y-79425314D01*
X164398916Y-79425312D01*
X164198087Y-79354195D01*
X164198083Y-79354194D01*
X164193212Y-79352469D01*
X164188119Y-79351562D01*
X164188116Y-79351561D01*
X164148738Y-79344547D01*
X164085180Y-79312909D01*
X164048817Y-79251932D01*
X164051194Y-79180975D01*
X164091555Y-79122567D01*
X164157087Y-79095252D01*
X164170834Y-79094500D01*
X164998397Y-79094500D01*
X165066518Y-79114502D01*
X165113011Y-79168158D01*
X165118230Y-79181564D01*
X165141095Y-79251934D01*
X165236582Y-79417322D01*
X165241000Y-79422229D01*
X165241001Y-79422230D01*
X165342538Y-79534998D01*
X165364369Y-79559244D01*
X165518870Y-79671496D01*
X165524898Y-79674180D01*
X165524900Y-79674181D01*
X165623430Y-79718049D01*
X165693334Y-79749172D01*
X165786212Y-79768914D01*
X165873678Y-79787506D01*
X165873683Y-79787506D01*
X165880135Y-79788878D01*
X166071109Y-79788878D01*
X166077561Y-79787506D01*
X166077566Y-79787506D01*
X166165032Y-79768914D01*
X166257910Y-79749172D01*
X166327814Y-79718049D01*
X166426344Y-79674181D01*
X166426346Y-79674180D01*
X166432374Y-79671496D01*
X166586875Y-79559244D01*
X166608706Y-79534998D01*
X166710243Y-79422230D01*
X166710244Y-79422229D01*
X166714662Y-79417322D01*
X166781813Y-79301014D01*
X166806845Y-79257657D01*
X166806846Y-79257655D01*
X166810149Y-79251934D01*
X166869164Y-79070306D01*
X166874380Y-79020684D01*
X166888436Y-78886943D01*
X166889126Y-78880378D01*
X166869164Y-78690450D01*
X166810149Y-78508822D01*
X166714662Y-78343434D01*
X166604103Y-78220645D01*
X166591297Y-78206423D01*
X166591296Y-78206422D01*
X166586875Y-78201512D01*
X166446453Y-78099489D01*
X166437716Y-78093141D01*
X166437715Y-78093140D01*
X166432374Y-78089260D01*
X166426346Y-78086576D01*
X166426344Y-78086575D01*
X166263941Y-78014269D01*
X166263940Y-78014269D01*
X166257910Y-78011584D01*
X166164510Y-77991731D01*
X166077566Y-77973250D01*
X166077561Y-77973250D01*
X166071109Y-77971878D01*
X165949867Y-77971878D01*
X165889836Y-77955792D01*
X165888120Y-77954476D01*
X165880494Y-77951317D01*
X165880492Y-77951316D01*
X165800245Y-77918077D01*
X165740095Y-77893162D01*
X165731908Y-77892084D01*
X165731907Y-77892084D01*
X165720702Y-77890609D01*
X165689506Y-77886502D01*
X165621129Y-77877500D01*
X165621126Y-77877500D01*
X165621118Y-77877499D01*
X165589433Y-77873328D01*
X165581244Y-77872250D01*
X165549551Y-77876422D01*
X165533108Y-77877500D01*
X165228359Y-77877500D01*
X165160238Y-77857498D01*
X165113745Y-77803842D01*
X165103641Y-77733568D01*
X165107801Y-77714871D01*
X165170377Y-77508910D01*
X165172555Y-77498837D01*
X165173986Y-77487962D01*
X165171775Y-77473778D01*
X165158617Y-77470000D01*
X161172000Y-77470000D01*
X161103879Y-77449998D01*
X161057386Y-77396342D01*
X161046000Y-77344000D01*
X161046000Y-77088000D01*
X161066002Y-77019879D01*
X161119658Y-76973386D01*
X161172000Y-76962000D01*
X165158344Y-76962000D01*
X165171875Y-76958027D01*
X165173180Y-76948947D01*
X165146596Y-76843114D01*
X165149400Y-76772173D01*
X165190112Y-76714009D01*
X165255807Y-76687090D01*
X165268800Y-76686418D01*
X168019833Y-76686418D01*
X168039218Y-76687918D01*
X168054051Y-76690228D01*
X168054055Y-76690228D01*
X168062924Y-76691609D01*
X168078181Y-76689614D01*
X168103502Y-76688871D01*
X168272483Y-76700957D01*
X168290262Y-76703514D01*
X168480600Y-76744919D01*
X168497830Y-76749978D01*
X168680360Y-76818059D01*
X168696697Y-76825521D01*
X168867647Y-76918867D01*
X168882770Y-76928585D01*
X169038657Y-77045281D01*
X169038702Y-77045315D01*
X169052289Y-77057088D01*
X169190020Y-77194821D01*
X169201793Y-77208408D01*
X169318518Y-77364336D01*
X169328237Y-77379459D01*
X169421585Y-77550416D01*
X169429053Y-77566769D01*
X169497120Y-77749268D01*
X169502185Y-77766517D01*
X169516129Y-77830616D01*
X169543186Y-77954997D01*
X169543588Y-77956847D01*
X169546145Y-77974634D01*
X169555877Y-78110717D01*
X169557727Y-78136594D01*
X169556995Y-78154193D01*
X169556890Y-78162765D01*
X169555509Y-78171637D01*
X169556673Y-78180540D01*
X169556673Y-78180545D01*
X169559636Y-78203207D01*
X169560700Y-78219543D01*
X169560700Y-83537165D01*
X169540698Y-83605286D01*
X169487042Y-83651779D01*
X169416768Y-83661883D01*
X169354894Y-83634669D01*
X169318004Y-83604475D01*
X169235405Y-83536868D01*
X169001904Y-83393779D01*
X168997968Y-83392051D01*
X168755073Y-83285427D01*
X168755069Y-83285426D01*
X168751145Y-83283703D01*
X168487766Y-83208678D01*
X168483524Y-83208074D01*
X168483518Y-83208073D01*
X168283034Y-83179540D01*
X168216643Y-83170091D01*
X168072789Y-83169338D01*
X167947077Y-83168680D01*
X167947071Y-83168680D01*
X167942791Y-83168658D01*
X167938547Y-83169217D01*
X167938543Y-83169217D01*
X167819502Y-83184889D01*
X167671278Y-83204403D01*
X167667138Y-83205536D01*
X167667136Y-83205536D01*
X167594208Y-83225487D01*
X167407128Y-83276666D01*
X167403180Y-83278350D01*
X167159182Y-83382424D01*
X167159178Y-83382426D01*
X167155230Y-83384110D01*
X167135325Y-83396023D01*
X166923925Y-83522542D01*
X166923921Y-83522545D01*
X166920243Y-83524746D01*
X166706518Y-83695972D01*
X166595164Y-83813314D01*
X166541723Y-83869630D01*
X166518008Y-83894620D01*
X166358202Y-84117014D01*
X166230057Y-84359039D01*
X166228585Y-84363062D01*
X166228583Y-84363066D01*
X166143386Y-84595877D01*
X166135943Y-84616215D01*
X166077604Y-84883785D01*
X166056117Y-85156796D01*
X166056534Y-85164034D01*
X166071882Y-85430198D01*
X166124605Y-85698931D01*
X166125992Y-85702981D01*
X166125993Y-85702986D01*
X166209619Y-85947237D01*
X166213312Y-85958022D01*
X166246059Y-86023133D01*
X166312037Y-86154315D01*
X166336360Y-86202677D01*
X166338786Y-86206206D01*
X166338789Y-86206212D01*
X166432476Y-86342526D01*
X166491474Y-86428368D01*
X166675782Y-86630921D01*
X166679077Y-86633676D01*
X166679078Y-86633677D01*
X166704696Y-86655097D01*
X166885875Y-86806585D01*
X166889516Y-86808869D01*
X167114224Y-86949829D01*
X167114228Y-86949831D01*
X167117864Y-86952112D01*
X167185744Y-86982761D01*
X167363545Y-87063042D01*
X167363549Y-87063044D01*
X167367457Y-87064808D01*
X167371577Y-87066028D01*
X167371576Y-87066028D01*
X167625923Y-87141369D01*
X167625927Y-87141370D01*
X167630036Y-87142587D01*
X167634270Y-87143235D01*
X167634275Y-87143236D01*
X167896498Y-87183361D01*
X167896500Y-87183361D01*
X167900740Y-87184010D01*
X168040112Y-87186200D01*
X168170271Y-87188245D01*
X168170277Y-87188245D01*
X168174562Y-87188312D01*
X168446435Y-87155412D01*
X168711327Y-87085919D01*
X168715287Y-87084279D01*
X168715292Y-87084277D01*
X168837832Y-87033519D01*
X168964336Y-86981119D01*
X169200782Y-86842951D01*
X169267652Y-86790518D01*
X169356954Y-86720497D01*
X169422902Y-86694205D01*
X169492597Y-86707740D01*
X169543909Y-86756807D01*
X169560700Y-86819651D01*
X169560700Y-102346532D01*
X169558954Y-102367435D01*
X169555624Y-102387229D01*
X169555471Y-102399781D01*
X169556161Y-102404599D01*
X169556865Y-102409516D01*
X169557940Y-102420314D01*
X169572582Y-102681082D01*
X169619771Y-102958845D01*
X169697763Y-103229579D01*
X169699117Y-103232848D01*
X169699118Y-103232851D01*
X169799721Y-103475745D01*
X169805575Y-103489879D01*
X169941853Y-103736471D01*
X170104882Y-103966256D01*
X170107242Y-103968897D01*
X170268699Y-104149581D01*
X170277392Y-104160464D01*
X170280118Y-104164293D01*
X170282943Y-104168261D01*
X170291710Y-104177245D01*
X170304079Y-104186516D01*
X170314060Y-104193997D01*
X170327585Y-104205725D01*
X191086689Y-124964829D01*
X191099337Y-124979598D01*
X191113488Y-124998969D01*
X191120606Y-125004441D01*
X191120607Y-125004442D01*
X191125687Y-125008347D01*
X191144120Y-125025730D01*
X191255053Y-125153757D01*
X191265826Y-125168149D01*
X191371129Y-125332009D01*
X191379744Y-125347786D01*
X191460662Y-125524972D01*
X191466944Y-125541817D01*
X191521819Y-125728709D01*
X191525639Y-125746270D01*
X191548125Y-125902657D01*
X191553360Y-125939070D01*
X191554643Y-125957002D01*
X191554643Y-126151784D01*
X191553361Y-126169715D01*
X191525641Y-126362519D01*
X191521820Y-126380085D01*
X191466944Y-126566983D01*
X191460663Y-126583824D01*
X191379747Y-126761011D01*
X191371136Y-126776781D01*
X191265831Y-126940644D01*
X191255058Y-126955036D01*
X191148816Y-127077650D01*
X191135346Y-127090046D01*
X191129606Y-127095648D01*
X191122361Y-127100941D01*
X191108949Y-127118389D01*
X191102961Y-127126179D01*
X191092159Y-127138485D01*
X188799689Y-129430954D01*
X188783672Y-129444502D01*
X188771284Y-129453321D01*
X188771278Y-129453326D01*
X188767320Y-129456144D01*
X188758336Y-129464911D01*
X188755420Y-129468801D01*
X188753981Y-129470441D01*
X188750070Y-129475237D01*
X188560090Y-129689676D01*
X188560086Y-129689682D01*
X188557563Y-129692529D01*
X188385170Y-129942281D01*
X188244138Y-130210991D01*
X188136524Y-130494741D01*
X188063896Y-130789395D01*
X188063436Y-130793182D01*
X188063436Y-130793183D01*
X188027776Y-131086869D01*
X188027316Y-131090654D01*
X188027314Y-131394126D01*
X188063893Y-131695385D01*
X188064804Y-131699081D01*
X188130675Y-131966335D01*
X188136517Y-131990039D01*
X188244129Y-132273790D01*
X188268733Y-132320669D01*
X188375707Y-132524492D01*
X188385159Y-132542502D01*
X188557550Y-132792255D01*
X188650090Y-132896711D01*
X188738296Y-132996276D01*
X188746621Y-133006743D01*
X188746750Y-133006925D01*
X188746754Y-133006930D01*
X188749566Y-133010879D01*
X188758333Y-133019863D01*
X188762217Y-133022774D01*
X188762225Y-133022781D01*
X188780672Y-133036606D01*
X188794202Y-133048337D01*
X192047422Y-136301555D01*
X192644779Y-136898912D01*
X192678804Y-136961224D01*
X192673740Y-137032039D01*
X192631193Y-137088875D01*
X192564673Y-137113686D01*
X192521169Y-137109187D01*
X192388669Y-137071444D01*
X192384427Y-137070840D01*
X192384421Y-137070839D01*
X192183937Y-137042306D01*
X192117546Y-137032857D01*
X191973692Y-137032104D01*
X191847980Y-137031446D01*
X191847974Y-137031446D01*
X191843694Y-137031424D01*
X191839450Y-137031983D01*
X191839446Y-137031983D01*
X191720405Y-137047655D01*
X191572181Y-137067169D01*
X191568041Y-137068302D01*
X191568039Y-137068302D01*
X191495111Y-137088253D01*
X191308031Y-137139432D01*
X191304083Y-137141116D01*
X191060085Y-137245190D01*
X191060081Y-137245192D01*
X191056133Y-137246876D01*
X191036228Y-137258789D01*
X190824828Y-137385308D01*
X190824824Y-137385311D01*
X190821146Y-137387512D01*
X190607421Y-137558738D01*
X190418911Y-137757386D01*
X190259105Y-137979780D01*
X190130960Y-138221805D01*
X190129488Y-138225828D01*
X190129486Y-138225832D01*
X190067016Y-138396539D01*
X190036846Y-138478981D01*
X189978507Y-138746551D01*
X189957020Y-139019562D01*
X189957437Y-139026800D01*
X189972785Y-139292964D01*
X190025508Y-139561697D01*
X190026895Y-139565747D01*
X190026896Y-139565752D01*
X190093432Y-139760087D01*
X190114215Y-139820788D01*
X190143341Y-139878698D01*
X190212940Y-140017081D01*
X190237263Y-140065443D01*
X190239689Y-140068972D01*
X190239692Y-140068978D01*
X190371581Y-140260876D01*
X190392377Y-140291134D01*
X190576685Y-140493687D01*
X190786778Y-140669351D01*
X190790419Y-140671635D01*
X191015127Y-140812595D01*
X191015131Y-140812597D01*
X191018767Y-140814878D01*
X191086647Y-140845527D01*
X191264448Y-140925808D01*
X191264452Y-140925810D01*
X191268360Y-140927574D01*
X191322112Y-140943496D01*
X191526826Y-141004135D01*
X191526830Y-141004136D01*
X191530939Y-141005353D01*
X191535173Y-141006001D01*
X191535178Y-141006002D01*
X191797401Y-141046127D01*
X191797403Y-141046127D01*
X191801643Y-141046776D01*
X191941015Y-141048966D01*
X192071174Y-141051011D01*
X192071180Y-141051011D01*
X192075465Y-141051078D01*
X192347338Y-141018178D01*
X192612230Y-140948685D01*
X192612283Y-140948886D01*
X192681455Y-140946183D01*
X192742634Y-140982205D01*
X192774626Y-141045585D01*
X192767274Y-141116200D01*
X192749698Y-141146323D01*
X192578303Y-141363989D01*
X192578296Y-141363998D01*
X192576713Y-141366009D01*
X192575301Y-141368139D01*
X192575294Y-141368149D01*
X192407869Y-141620729D01*
X192373182Y-141673059D01*
X192308847Y-141789794D01*
X192197095Y-141992565D01*
X192195374Y-141995687D01*
X192044475Y-142331744D01*
X192043617Y-142334166D01*
X192043616Y-142334169D01*
X191933145Y-142646084D01*
X191926928Y-142660655D01*
X191923933Y-142666607D01*
X191922088Y-142672332D01*
X191921968Y-142672578D01*
X191921922Y-142672848D01*
X191920083Y-142678554D01*
X191918391Y-142689222D01*
X191918362Y-142689407D01*
X191911321Y-142715407D01*
X191850479Y-142871563D01*
X191842702Y-142887934D01*
X191786012Y-142987984D01*
X191745885Y-143058802D01*
X191735845Y-143073879D01*
X191615505Y-143229098D01*
X191603397Y-143242586D01*
X191462046Y-143378917D01*
X191448129Y-143390529D01*
X191288671Y-143505174D01*
X191273234Y-143514667D01*
X191127699Y-143590316D01*
X191111479Y-143596534D01*
X191103307Y-143599943D01*
X191094617Y-143602188D01*
X191086907Y-143606783D01*
X191086901Y-143606785D01*
X191069857Y-143616942D01*
X191054125Y-143624882D01*
X189287457Y-144366474D01*
X189285139Y-144367420D01*
X188290699Y-144761802D01*
X187518682Y-145067974D01*
X187468181Y-145088002D01*
X187465861Y-145088896D01*
X186104504Y-145597725D01*
X185634927Y-145773237D01*
X185632575Y-145774090D01*
X184153565Y-146293641D01*
X183788363Y-146421930D01*
X183785998Y-146422734D01*
X181929289Y-147033796D01*
X181926963Y-147034536D01*
X180799453Y-147380938D01*
X180058453Y-147608593D01*
X180056052Y-147609304D01*
X179412483Y-147793113D01*
X178176581Y-148146099D01*
X178174222Y-148146747D01*
X176936689Y-148473747D01*
X176865719Y-148471811D01*
X176807061Y-148431813D01*
X176779340Y-148366453D01*
X176778500Y-148351928D01*
X176778500Y-148045231D01*
X176777814Y-148038227D01*
X176764681Y-147904301D01*
X176764080Y-147898167D01*
X176706916Y-147708831D01*
X176614066Y-147534204D01*
X176543709Y-147447938D01*
X176492960Y-147385713D01*
X176492957Y-147385710D01*
X176489065Y-147380938D01*
X176482724Y-147375692D01*
X176341425Y-147258799D01*
X176341421Y-147258797D01*
X176336675Y-147254870D01*
X176162701Y-147160802D01*
X175973768Y-147102318D01*
X175967643Y-147101674D01*
X175967642Y-147101674D01*
X175783204Y-147082289D01*
X175783202Y-147082289D01*
X175777075Y-147081645D01*
X175694576Y-147089153D01*
X175586251Y-147099011D01*
X175586248Y-147099012D01*
X175580112Y-147099570D01*
X175574206Y-147101308D01*
X175574202Y-147101309D01*
X175469076Y-147132249D01*
X175390381Y-147155410D01*
X175384923Y-147158263D01*
X175384919Y-147158265D01*
X175294147Y-147205720D01*
X175215110Y-147247040D01*
X175060975Y-147370968D01*
X174933846Y-147522474D01*
X174930879Y-147527872D01*
X174930875Y-147527877D01*
X174886111Y-147609304D01*
X174838567Y-147695787D01*
X174836706Y-147701654D01*
X174836705Y-147701656D01*
X174780627Y-147878436D01*
X174778765Y-147884306D01*
X174761500Y-148038227D01*
X174761500Y-148744769D01*
X174761800Y-148747825D01*
X174761800Y-148747832D01*
X174775319Y-148885699D01*
X174775771Y-148890316D01*
X174775771Y-148890318D01*
X174775920Y-148891833D01*
X174775632Y-148891861D01*
X174769527Y-148959428D01*
X174725924Y-149015458D01*
X174682079Y-149035629D01*
X174603631Y-149054698D01*
X174382612Y-149108424D01*
X174380173Y-149108991D01*
X172472025Y-149532860D01*
X172469576Y-149533378D01*
X171457431Y-149737198D01*
X170553394Y-149919247D01*
X170550990Y-149919707D01*
X169421055Y-150123971D01*
X168627498Y-150267427D01*
X168625030Y-150267848D01*
X166695035Y-150577276D01*
X166692559Y-150577648D01*
X164756747Y-150848671D01*
X164754284Y-150848991D01*
X163810294Y-150962079D01*
X163740279Y-150950322D01*
X163687734Y-150902578D01*
X163669343Y-150834004D01*
X163690945Y-150766374D01*
X163716356Y-150738777D01*
X163773873Y-150692532D01*
X163782632Y-150683954D01*
X163901778Y-150541961D01*
X163908708Y-150531841D01*
X163998002Y-150369415D01*
X164002834Y-150358142D01*
X164058880Y-150181462D01*
X164061430Y-150169468D01*
X164077607Y-150025239D01*
X164078000Y-150018215D01*
X164078000Y-149937115D01*
X164073525Y-149921876D01*
X164072135Y-149920671D01*
X164064452Y-149919000D01*
X162080115Y-149919000D01*
X162064876Y-149923475D01*
X162063671Y-149924865D01*
X162062000Y-149932548D01*
X162062000Y-150011657D01*
X162062301Y-150017805D01*
X162075812Y-150155603D01*
X162078195Y-150167638D01*
X162131767Y-150345076D01*
X162136441Y-150356416D01*
X162223460Y-150520077D01*
X162230249Y-150530294D01*
X162347397Y-150673933D01*
X162356041Y-150682637D01*
X162498856Y-150800784D01*
X162509027Y-150807644D01*
X162622611Y-150869059D01*
X162673020Y-150919054D01*
X162688397Y-150988365D01*
X162663861Y-151054987D01*
X162607201Y-151097768D01*
X162575181Y-151105274D01*
X161627364Y-151199759D01*
X160865992Y-151275657D01*
X160863523Y-151275878D01*
X158915032Y-151431083D01*
X158912601Y-151431253D01*
X158052895Y-151482564D01*
X156961427Y-151547708D01*
X156958926Y-151547833D01*
X155005759Y-151625499D01*
X155003257Y-151625573D01*
X153049033Y-151664412D01*
X153046529Y-151664437D01*
X151091871Y-151664437D01*
X151089367Y-151664412D01*
X149135143Y-151625573D01*
X149132641Y-151625499D01*
X147179474Y-151547833D01*
X147176973Y-151547708D01*
X146085505Y-151482564D01*
X145225799Y-151431253D01*
X145223368Y-151431083D01*
X143274877Y-151275878D01*
X143272408Y-151275657D01*
X142837135Y-151232266D01*
X142102942Y-151159077D01*
X142037142Y-151132416D01*
X141996201Y-151074413D01*
X141993117Y-151003483D01*
X142028871Y-150942147D01*
X142079867Y-150912824D01*
X142103519Y-150905863D01*
X142114889Y-150901269D01*
X142279154Y-150815393D01*
X142289415Y-150808679D01*
X142433873Y-150692532D01*
X142442632Y-150683954D01*
X142561778Y-150541961D01*
X142568708Y-150531841D01*
X142658002Y-150369415D01*
X142662834Y-150358142D01*
X142718880Y-150181462D01*
X142721430Y-150169468D01*
X142737607Y-150025239D01*
X142738000Y-150018215D01*
X142738000Y-150011657D01*
X149362000Y-150011657D01*
X149362301Y-150017805D01*
X149375812Y-150155603D01*
X149378195Y-150167638D01*
X149431767Y-150345076D01*
X149436441Y-150356416D01*
X149523460Y-150520077D01*
X149530249Y-150530294D01*
X149647397Y-150673933D01*
X149656041Y-150682637D01*
X149798856Y-150800784D01*
X149809027Y-150807644D01*
X149972076Y-150895804D01*
X149983381Y-150900556D01*
X150098692Y-150936250D01*
X150112795Y-150936456D01*
X150116000Y-150929701D01*
X150116000Y-150922924D01*
X150624000Y-150922924D01*
X150627973Y-150936455D01*
X150635768Y-150937575D01*
X150743521Y-150905862D01*
X150754889Y-150901269D01*
X150919154Y-150815393D01*
X150929415Y-150808679D01*
X151073873Y-150692532D01*
X151082632Y-150683954D01*
X151201778Y-150541961D01*
X151208708Y-150531841D01*
X151298002Y-150369415D01*
X151302834Y-150358142D01*
X151358880Y-150181462D01*
X151361430Y-150169468D01*
X151377607Y-150025239D01*
X151378000Y-150018215D01*
X151378000Y-150011657D01*
X153422000Y-150011657D01*
X153422301Y-150017805D01*
X153435812Y-150155603D01*
X153438195Y-150167638D01*
X153491767Y-150345076D01*
X153496441Y-150356416D01*
X153583460Y-150520077D01*
X153590249Y-150530294D01*
X153707397Y-150673933D01*
X153716041Y-150682637D01*
X153858856Y-150800784D01*
X153869027Y-150807644D01*
X154032076Y-150895804D01*
X154043381Y-150900556D01*
X154158692Y-150936250D01*
X154172795Y-150936456D01*
X154176000Y-150929701D01*
X154176000Y-150922924D01*
X154684000Y-150922924D01*
X154687973Y-150936455D01*
X154695768Y-150937575D01*
X154803521Y-150905862D01*
X154814889Y-150901269D01*
X154979154Y-150815393D01*
X154989415Y-150808679D01*
X155133873Y-150692532D01*
X155142632Y-150683954D01*
X155261778Y-150541961D01*
X155268708Y-150531841D01*
X155358002Y-150369415D01*
X155362834Y-150358142D01*
X155418880Y-150181462D01*
X155421430Y-150169468D01*
X155437607Y-150025239D01*
X155438000Y-150018215D01*
X155438000Y-149937115D01*
X155433525Y-149921876D01*
X155432135Y-149920671D01*
X155424452Y-149919000D01*
X154702115Y-149919000D01*
X154686876Y-149923475D01*
X154685671Y-149924865D01*
X154684000Y-149932548D01*
X154684000Y-150922924D01*
X154176000Y-150922924D01*
X154176000Y-149937115D01*
X154171525Y-149921876D01*
X154170135Y-149920671D01*
X154162452Y-149919000D01*
X153440115Y-149919000D01*
X153424876Y-149923475D01*
X153423671Y-149924865D01*
X153422000Y-149932548D01*
X153422000Y-150011657D01*
X151378000Y-150011657D01*
X151378000Y-149937115D01*
X151373525Y-149921876D01*
X151372135Y-149920671D01*
X151364452Y-149919000D01*
X150642115Y-149919000D01*
X150626876Y-149923475D01*
X150625671Y-149924865D01*
X150624000Y-149932548D01*
X150624000Y-150922924D01*
X150116000Y-150922924D01*
X150116000Y-149937115D01*
X150111525Y-149921876D01*
X150110135Y-149920671D01*
X150102452Y-149919000D01*
X149380115Y-149919000D01*
X149364876Y-149923475D01*
X149363671Y-149924865D01*
X149362000Y-149932548D01*
X149362000Y-150011657D01*
X142738000Y-150011657D01*
X142738000Y-149937115D01*
X142733525Y-149921876D01*
X142732135Y-149920671D01*
X142724452Y-149919000D01*
X140740115Y-149919000D01*
X140724876Y-149923475D01*
X140723671Y-149924865D01*
X140722000Y-149932548D01*
X140722000Y-150011657D01*
X140722301Y-150017805D01*
X140735812Y-150155603D01*
X140738195Y-150167638D01*
X140791767Y-150345076D01*
X140796441Y-150356416D01*
X140883460Y-150520077D01*
X140890249Y-150530294D01*
X141007397Y-150673933D01*
X141016041Y-150682637D01*
X141158856Y-150800784D01*
X141169031Y-150807647D01*
X141193403Y-150820825D01*
X141243811Y-150870820D01*
X141259188Y-150940131D01*
X141234651Y-151006753D01*
X141177991Y-151049533D01*
X141118488Y-151056765D01*
X139384116Y-150848991D01*
X139381653Y-150848671D01*
X137445841Y-150577648D01*
X137443365Y-150577276D01*
X135513370Y-150267848D01*
X135510902Y-150267427D01*
X134717345Y-150123971D01*
X133587410Y-149919707D01*
X133585006Y-149919247D01*
X132680969Y-149737198D01*
X131668824Y-149533378D01*
X131666375Y-149532860D01*
X130078089Y-149180044D01*
X130015926Y-149145746D01*
X129982175Y-149083285D01*
X129985310Y-149018943D01*
X129989877Y-149004545D01*
X130021235Y-148905694D01*
X130038500Y-148751773D01*
X130038500Y-148744769D01*
X136661500Y-148744769D01*
X136661800Y-148747825D01*
X136661800Y-148747832D01*
X136662530Y-148755273D01*
X136675920Y-148891833D01*
X136733084Y-149081169D01*
X136825934Y-149255796D01*
X136865869Y-149304761D01*
X136947040Y-149404287D01*
X136947043Y-149404290D01*
X136950935Y-149409062D01*
X136955682Y-149412989D01*
X136955684Y-149412991D01*
X137098575Y-149531201D01*
X137098579Y-149531203D01*
X137103325Y-149535130D01*
X137277299Y-149629198D01*
X137466232Y-149687682D01*
X137472357Y-149688326D01*
X137472358Y-149688326D01*
X137656796Y-149707711D01*
X137656798Y-149707711D01*
X137662925Y-149708355D01*
X137745424Y-149700847D01*
X137853749Y-149690989D01*
X137853752Y-149690988D01*
X137859888Y-149690430D01*
X137865794Y-149688692D01*
X137865798Y-149688691D01*
X137970924Y-149657751D01*
X138049619Y-149634590D01*
X138055077Y-149631737D01*
X138055081Y-149631735D01*
X138145853Y-149584280D01*
X138224890Y-149542960D01*
X138379025Y-149419032D01*
X138400965Y-149392885D01*
X140722000Y-149392885D01*
X140726475Y-149408124D01*
X140727865Y-149409329D01*
X140735548Y-149411000D01*
X141457885Y-149411000D01*
X141473124Y-149406525D01*
X141474329Y-149405135D01*
X141476000Y-149397452D01*
X141476000Y-149392885D01*
X141984000Y-149392885D01*
X141988475Y-149408124D01*
X141989865Y-149409329D01*
X141997548Y-149411000D01*
X142719885Y-149411000D01*
X142735124Y-149406525D01*
X142736329Y-149405135D01*
X142738000Y-149397452D01*
X142738000Y-149392885D01*
X149362000Y-149392885D01*
X149366475Y-149408124D01*
X149367865Y-149409329D01*
X149375548Y-149411000D01*
X150097885Y-149411000D01*
X150113124Y-149406525D01*
X150114329Y-149405135D01*
X150116000Y-149397452D01*
X150116000Y-149392885D01*
X150624000Y-149392885D01*
X150628475Y-149408124D01*
X150629865Y-149409329D01*
X150637548Y-149411000D01*
X151359885Y-149411000D01*
X151375124Y-149406525D01*
X151376329Y-149405135D01*
X151378000Y-149397452D01*
X151378000Y-149392885D01*
X153422000Y-149392885D01*
X153426475Y-149408124D01*
X153427865Y-149409329D01*
X153435548Y-149411000D01*
X154157885Y-149411000D01*
X154173124Y-149406525D01*
X154174329Y-149405135D01*
X154176000Y-149397452D01*
X154176000Y-149392885D01*
X154684000Y-149392885D01*
X154688475Y-149408124D01*
X154689865Y-149409329D01*
X154697548Y-149411000D01*
X155419885Y-149411000D01*
X155435124Y-149406525D01*
X155436329Y-149405135D01*
X155438000Y-149397452D01*
X155438000Y-149392885D01*
X162062000Y-149392885D01*
X162066475Y-149408124D01*
X162067865Y-149409329D01*
X162075548Y-149411000D01*
X162797885Y-149411000D01*
X162813124Y-149406525D01*
X162814329Y-149405135D01*
X162816000Y-149397452D01*
X162816000Y-149392885D01*
X163324000Y-149392885D01*
X163328475Y-149408124D01*
X163329865Y-149409329D01*
X163337548Y-149411000D01*
X164059885Y-149411000D01*
X164075124Y-149406525D01*
X164076329Y-149405135D01*
X164078000Y-149397452D01*
X164078000Y-149318343D01*
X164077699Y-149312195D01*
X164064188Y-149174397D01*
X164061805Y-149162362D01*
X164008233Y-148984924D01*
X164003559Y-148973584D01*
X163916540Y-148809923D01*
X163909751Y-148799706D01*
X163864946Y-148744769D01*
X166121500Y-148744769D01*
X166121800Y-148747825D01*
X166121800Y-148747832D01*
X166122530Y-148755273D01*
X166135920Y-148891833D01*
X166193084Y-149081169D01*
X166285934Y-149255796D01*
X166325869Y-149304761D01*
X166407040Y-149404287D01*
X166407043Y-149404290D01*
X166410935Y-149409062D01*
X166415682Y-149412989D01*
X166415684Y-149412991D01*
X166558575Y-149531201D01*
X166558579Y-149531203D01*
X166563325Y-149535130D01*
X166737299Y-149629198D01*
X166926232Y-149687682D01*
X166932357Y-149688326D01*
X166932358Y-149688326D01*
X167116796Y-149707711D01*
X167116798Y-149707711D01*
X167122925Y-149708355D01*
X167205424Y-149700847D01*
X167313749Y-149690989D01*
X167313752Y-149690988D01*
X167319888Y-149690430D01*
X167325794Y-149688692D01*
X167325798Y-149688691D01*
X167430924Y-149657751D01*
X167509619Y-149634590D01*
X167515077Y-149631737D01*
X167515081Y-149631735D01*
X167605853Y-149584280D01*
X167684890Y-149542960D01*
X167839025Y-149419032D01*
X167966154Y-149267526D01*
X167969121Y-149262128D01*
X167969125Y-149262123D01*
X168058467Y-149099608D01*
X168061433Y-149094213D01*
X168063846Y-149086608D01*
X168119373Y-148911564D01*
X168119373Y-148911563D01*
X168121235Y-148905694D01*
X168138500Y-148751773D01*
X168138500Y-148045231D01*
X168137814Y-148038227D01*
X168124681Y-147904301D01*
X168124080Y-147898167D01*
X168066916Y-147708831D01*
X167974066Y-147534204D01*
X167903709Y-147447938D01*
X167852960Y-147385713D01*
X167852957Y-147385710D01*
X167849065Y-147380938D01*
X167842724Y-147375692D01*
X167701425Y-147258799D01*
X167701421Y-147258797D01*
X167696675Y-147254870D01*
X167522701Y-147160802D01*
X167333768Y-147102318D01*
X167327643Y-147101674D01*
X167327642Y-147101674D01*
X167143204Y-147082289D01*
X167143202Y-147082289D01*
X167137075Y-147081645D01*
X167054576Y-147089153D01*
X166946251Y-147099011D01*
X166946248Y-147099012D01*
X166940112Y-147099570D01*
X166934206Y-147101308D01*
X166934202Y-147101309D01*
X166829076Y-147132249D01*
X166750381Y-147155410D01*
X166744923Y-147158263D01*
X166744919Y-147158265D01*
X166654147Y-147205720D01*
X166575110Y-147247040D01*
X166420975Y-147370968D01*
X166293846Y-147522474D01*
X166290879Y-147527872D01*
X166290875Y-147527877D01*
X166246111Y-147609304D01*
X166198567Y-147695787D01*
X166196706Y-147701654D01*
X166196705Y-147701656D01*
X166140627Y-147878436D01*
X166138765Y-147884306D01*
X166121500Y-148038227D01*
X166121500Y-148744769D01*
X163864946Y-148744769D01*
X163792603Y-148656067D01*
X163783959Y-148647363D01*
X163641144Y-148529216D01*
X163630973Y-148522356D01*
X163467924Y-148434196D01*
X163456619Y-148429444D01*
X163341308Y-148393750D01*
X163327205Y-148393544D01*
X163324000Y-148400299D01*
X163324000Y-149392885D01*
X162816000Y-149392885D01*
X162816000Y-148407076D01*
X162812027Y-148393545D01*
X162804232Y-148392425D01*
X162696479Y-148424138D01*
X162685111Y-148428731D01*
X162520846Y-148514607D01*
X162510585Y-148521321D01*
X162366127Y-148637468D01*
X162357368Y-148646046D01*
X162238222Y-148788039D01*
X162231292Y-148798159D01*
X162141998Y-148960585D01*
X162137166Y-148971858D01*
X162081120Y-149148538D01*
X162078570Y-149160532D01*
X162062393Y-149304761D01*
X162062000Y-149311785D01*
X162062000Y-149392885D01*
X155438000Y-149392885D01*
X155438000Y-149318343D01*
X155437699Y-149312195D01*
X155424188Y-149174397D01*
X155421805Y-149162362D01*
X155368233Y-148984924D01*
X155363559Y-148973584D01*
X155276540Y-148809923D01*
X155269751Y-148799706D01*
X155152603Y-148656067D01*
X155143959Y-148647363D01*
X155001144Y-148529216D01*
X154990973Y-148522356D01*
X154827924Y-148434196D01*
X154816619Y-148429444D01*
X154701308Y-148393750D01*
X154687205Y-148393544D01*
X154684000Y-148400299D01*
X154684000Y-149392885D01*
X154176000Y-149392885D01*
X154176000Y-148407076D01*
X154172027Y-148393545D01*
X154164232Y-148392425D01*
X154056479Y-148424138D01*
X154045111Y-148428731D01*
X153880846Y-148514607D01*
X153870585Y-148521321D01*
X153726127Y-148637468D01*
X153717368Y-148646046D01*
X153598222Y-148788039D01*
X153591292Y-148798159D01*
X153501998Y-148960585D01*
X153497166Y-148971858D01*
X153441120Y-149148538D01*
X153438570Y-149160532D01*
X153422393Y-149304761D01*
X153422000Y-149311785D01*
X153422000Y-149392885D01*
X151378000Y-149392885D01*
X151378000Y-149318343D01*
X151377699Y-149312195D01*
X151364188Y-149174397D01*
X151361805Y-149162362D01*
X151308233Y-148984924D01*
X151303559Y-148973584D01*
X151216540Y-148809923D01*
X151209751Y-148799706D01*
X151092603Y-148656067D01*
X151083959Y-148647363D01*
X150941144Y-148529216D01*
X150930973Y-148522356D01*
X150767924Y-148434196D01*
X150756619Y-148429444D01*
X150641308Y-148393750D01*
X150627205Y-148393544D01*
X150624000Y-148400299D01*
X150624000Y-149392885D01*
X150116000Y-149392885D01*
X150116000Y-148407076D01*
X150112027Y-148393545D01*
X150104232Y-148392425D01*
X149996479Y-148424138D01*
X149985111Y-148428731D01*
X149820846Y-148514607D01*
X149810585Y-148521321D01*
X149666127Y-148637468D01*
X149657368Y-148646046D01*
X149538222Y-148788039D01*
X149531292Y-148798159D01*
X149441998Y-148960585D01*
X149437166Y-148971858D01*
X149381120Y-149148538D01*
X149378570Y-149160532D01*
X149362393Y-149304761D01*
X149362000Y-149311785D01*
X149362000Y-149392885D01*
X142738000Y-149392885D01*
X142738000Y-149318343D01*
X142737699Y-149312195D01*
X142724188Y-149174397D01*
X142721805Y-149162362D01*
X142668233Y-148984924D01*
X142663559Y-148973584D01*
X142576540Y-148809923D01*
X142569751Y-148799706D01*
X142452603Y-148656067D01*
X142443959Y-148647363D01*
X142301144Y-148529216D01*
X142290973Y-148522356D01*
X142127924Y-148434196D01*
X142116619Y-148429444D01*
X142001308Y-148393750D01*
X141987205Y-148393544D01*
X141984000Y-148400299D01*
X141984000Y-149392885D01*
X141476000Y-149392885D01*
X141476000Y-148407076D01*
X141472027Y-148393545D01*
X141464232Y-148392425D01*
X141356479Y-148424138D01*
X141345111Y-148428731D01*
X141180846Y-148514607D01*
X141170585Y-148521321D01*
X141026127Y-148637468D01*
X141017368Y-148646046D01*
X140898222Y-148788039D01*
X140891292Y-148798159D01*
X140801998Y-148960585D01*
X140797166Y-148971858D01*
X140741120Y-149148538D01*
X140738570Y-149160532D01*
X140722393Y-149304761D01*
X140722000Y-149311785D01*
X140722000Y-149392885D01*
X138400965Y-149392885D01*
X138506154Y-149267526D01*
X138509121Y-149262128D01*
X138509125Y-149262123D01*
X138598467Y-149099608D01*
X138601433Y-149094213D01*
X138603846Y-149086608D01*
X138659373Y-148911564D01*
X138659373Y-148911563D01*
X138661235Y-148905694D01*
X138678500Y-148751773D01*
X138678500Y-148045231D01*
X138677814Y-148038227D01*
X138664681Y-147904301D01*
X138664080Y-147898167D01*
X138606916Y-147708831D01*
X138514066Y-147534204D01*
X138443709Y-147447938D01*
X138392960Y-147385713D01*
X138392957Y-147385710D01*
X138389065Y-147380938D01*
X138382724Y-147375692D01*
X138241425Y-147258799D01*
X138241421Y-147258797D01*
X138236675Y-147254870D01*
X138062701Y-147160802D01*
X137873768Y-147102318D01*
X137867643Y-147101674D01*
X137867642Y-147101674D01*
X137683204Y-147082289D01*
X137683202Y-147082289D01*
X137677075Y-147081645D01*
X137594576Y-147089153D01*
X137486251Y-147099011D01*
X137486248Y-147099012D01*
X137480112Y-147099570D01*
X137474206Y-147101308D01*
X137474202Y-147101309D01*
X137369076Y-147132249D01*
X137290381Y-147155410D01*
X137284923Y-147158263D01*
X137284919Y-147158265D01*
X137194147Y-147205720D01*
X137115110Y-147247040D01*
X136960975Y-147370968D01*
X136833846Y-147522474D01*
X136830879Y-147527872D01*
X136830875Y-147527877D01*
X136786111Y-147609304D01*
X136738567Y-147695787D01*
X136736706Y-147701654D01*
X136736705Y-147701656D01*
X136680627Y-147878436D01*
X136678765Y-147884306D01*
X136661500Y-148038227D01*
X136661500Y-148744769D01*
X130038500Y-148744769D01*
X130038500Y-148045231D01*
X130037814Y-148038227D01*
X130024681Y-147904301D01*
X130024080Y-147898167D01*
X129966916Y-147708831D01*
X129874066Y-147534204D01*
X129803709Y-147447938D01*
X129752960Y-147385713D01*
X129752957Y-147385710D01*
X129749065Y-147380938D01*
X129742724Y-147375692D01*
X129601425Y-147258799D01*
X129601421Y-147258797D01*
X129596675Y-147254870D01*
X129422701Y-147160802D01*
X129233768Y-147102318D01*
X129227643Y-147101674D01*
X129227642Y-147101674D01*
X129043204Y-147082289D01*
X129043202Y-147082289D01*
X129037075Y-147081645D01*
X128954576Y-147089153D01*
X128846251Y-147099011D01*
X128846248Y-147099012D01*
X128840112Y-147099570D01*
X128834206Y-147101308D01*
X128834202Y-147101309D01*
X128729076Y-147132249D01*
X128650381Y-147155410D01*
X128644923Y-147158263D01*
X128644919Y-147158265D01*
X128554147Y-147205720D01*
X128475110Y-147247040D01*
X128320975Y-147370968D01*
X128193846Y-147522474D01*
X128190879Y-147527872D01*
X128190875Y-147527877D01*
X128146111Y-147609304D01*
X128098567Y-147695787D01*
X128096706Y-147701654D01*
X128096705Y-147701656D01*
X128040627Y-147878436D01*
X128038765Y-147884306D01*
X128021500Y-148038227D01*
X128021500Y-148526548D01*
X128001498Y-148594669D01*
X127947842Y-148641162D01*
X127877568Y-148651266D01*
X127865745Y-148648984D01*
X127856425Y-148646719D01*
X127854016Y-148646108D01*
X125964178Y-148146747D01*
X125961819Y-148146099D01*
X124725917Y-147793113D01*
X124082348Y-147609304D01*
X124079947Y-147608593D01*
X123338947Y-147380938D01*
X122211437Y-147034536D01*
X122209111Y-147033796D01*
X120352402Y-146422734D01*
X120350037Y-146421930D01*
X119984836Y-146293641D01*
X119381379Y-146081657D01*
X140722000Y-146081657D01*
X140722301Y-146087805D01*
X140735812Y-146225603D01*
X140738195Y-146237638D01*
X140791767Y-146415076D01*
X140796441Y-146426416D01*
X140883460Y-146590077D01*
X140890249Y-146600294D01*
X141007397Y-146743933D01*
X141016041Y-146752637D01*
X141158856Y-146870784D01*
X141169027Y-146877644D01*
X141332076Y-146965804D01*
X141343381Y-146970556D01*
X141458692Y-147006250D01*
X141472795Y-147006456D01*
X141476000Y-146999701D01*
X141476000Y-146992924D01*
X141984000Y-146992924D01*
X141987973Y-147006455D01*
X141995768Y-147007575D01*
X142103521Y-146975862D01*
X142114889Y-146971269D01*
X142279154Y-146885393D01*
X142289415Y-146878679D01*
X142433873Y-146762532D01*
X142442634Y-146753953D01*
X142502336Y-146682803D01*
X142561445Y-146643477D01*
X142632433Y-146642351D01*
X142675386Y-146663699D01*
X142720257Y-146698006D01*
X142720261Y-146698009D01*
X142725678Y-146702150D01*
X142812372Y-146742576D01*
X142883631Y-146775805D01*
X142883634Y-146775806D01*
X142889808Y-146778685D01*
X142896456Y-146780171D01*
X142896459Y-146780172D01*
X143002421Y-146803857D01*
X143066543Y-146818190D01*
X143072088Y-146818500D01*
X143205244Y-146818500D01*
X143340037Y-146803857D01*
X143488323Y-146753953D01*
X143505204Y-146748272D01*
X143505206Y-146748271D01*
X143511675Y-146746094D01*
X143666905Y-146652823D01*
X143671862Y-146648135D01*
X143671865Y-146648133D01*
X143793527Y-146533082D01*
X143793529Y-146533080D01*
X143798485Y-146528393D01*
X143802317Y-146522755D01*
X143802320Y-146522751D01*
X143896442Y-146384255D01*
X143900277Y-146378612D01*
X143967530Y-146210466D01*
X143968644Y-146203738D01*
X143968645Y-146203734D01*
X143995993Y-146038539D01*
X143995993Y-146038536D01*
X143997108Y-146031802D01*
X143995861Y-146007997D01*
X143992203Y-145938198D01*
X148102892Y-145938198D01*
X148103249Y-145945015D01*
X148103249Y-145945019D01*
X148108151Y-146038539D01*
X148112370Y-146119047D01*
X148114181Y-146125620D01*
X148114181Y-146125623D01*
X148137551Y-146210466D01*
X148160461Y-146293641D01*
X148244922Y-146453836D01*
X148249327Y-146459049D01*
X148249330Y-146459053D01*
X148357406Y-146586943D01*
X148357410Y-146586947D01*
X148361813Y-146592157D01*
X148367237Y-146596304D01*
X148367238Y-146596305D01*
X148500257Y-146698006D01*
X148500261Y-146698009D01*
X148505678Y-146702150D01*
X148592372Y-146742576D01*
X148663631Y-146775805D01*
X148663634Y-146775806D01*
X148669808Y-146778685D01*
X148676456Y-146780171D01*
X148676459Y-146780172D01*
X148782421Y-146803857D01*
X148846543Y-146818190D01*
X148852088Y-146818500D01*
X148985244Y-146818500D01*
X149120037Y-146803857D01*
X149268323Y-146753953D01*
X149285204Y-146748272D01*
X149285206Y-146748271D01*
X149291675Y-146746094D01*
X149438038Y-146658151D01*
X149506727Y-146640212D01*
X149574214Y-146662259D01*
X149600572Y-146686519D01*
X149647397Y-146743933D01*
X149656041Y-146752637D01*
X149798856Y-146870784D01*
X149809027Y-146877644D01*
X149972076Y-146965804D01*
X149983381Y-146970556D01*
X150098692Y-147006250D01*
X150112795Y-147006456D01*
X150116000Y-146999701D01*
X150116000Y-146992924D01*
X150624000Y-146992924D01*
X150627973Y-147006455D01*
X150635768Y-147007575D01*
X150743521Y-146975862D01*
X150754889Y-146971269D01*
X150919154Y-146885393D01*
X150929415Y-146878679D01*
X151073873Y-146762532D01*
X151082632Y-146753954D01*
X151201778Y-146611961D01*
X151208708Y-146601841D01*
X151298002Y-146439415D01*
X151302834Y-146428142D01*
X151358880Y-146251462D01*
X151361430Y-146239468D01*
X151377607Y-146095239D01*
X151378000Y-146088215D01*
X151378000Y-146081657D01*
X153422000Y-146081657D01*
X153422301Y-146087805D01*
X153435812Y-146225603D01*
X153438195Y-146237638D01*
X153491767Y-146415076D01*
X153496441Y-146426416D01*
X153583460Y-146590077D01*
X153590249Y-146600294D01*
X153707397Y-146743933D01*
X153716041Y-146752637D01*
X153858856Y-146870784D01*
X153869027Y-146877644D01*
X154032076Y-146965804D01*
X154043381Y-146970556D01*
X154158692Y-147006250D01*
X154172795Y-147006456D01*
X154176000Y-146999701D01*
X154176000Y-146992924D01*
X154684000Y-146992924D01*
X154687973Y-147006455D01*
X154695768Y-147007575D01*
X154803521Y-146975862D01*
X154814889Y-146971269D01*
X154979154Y-146885393D01*
X154989415Y-146878679D01*
X155133873Y-146762532D01*
X155142634Y-146753953D01*
X155202336Y-146682803D01*
X155261445Y-146643477D01*
X155332433Y-146642351D01*
X155375386Y-146663699D01*
X155420257Y-146698006D01*
X155420261Y-146698009D01*
X155425678Y-146702150D01*
X155512372Y-146742576D01*
X155583631Y-146775805D01*
X155583634Y-146775806D01*
X155589808Y-146778685D01*
X155596456Y-146780171D01*
X155596459Y-146780172D01*
X155702421Y-146803857D01*
X155766543Y-146818190D01*
X155772088Y-146818500D01*
X155905244Y-146818500D01*
X156040037Y-146803857D01*
X156188323Y-146753953D01*
X156205204Y-146748272D01*
X156205206Y-146748271D01*
X156211675Y-146746094D01*
X156366905Y-146652823D01*
X156371862Y-146648135D01*
X156371865Y-146648133D01*
X156493527Y-146533082D01*
X156493529Y-146533080D01*
X156498485Y-146528393D01*
X156502317Y-146522755D01*
X156502320Y-146522751D01*
X156596442Y-146384255D01*
X156600277Y-146378612D01*
X156667530Y-146210466D01*
X156668644Y-146203738D01*
X156668645Y-146203734D01*
X156695993Y-146038539D01*
X156695993Y-146038536D01*
X156697108Y-146031802D01*
X156695861Y-146007997D01*
X156692203Y-145938198D01*
X160802892Y-145938198D01*
X160803249Y-145945015D01*
X160803249Y-145945019D01*
X160808151Y-146038539D01*
X160812370Y-146119047D01*
X160814181Y-146125620D01*
X160814181Y-146125623D01*
X160837551Y-146210466D01*
X160860461Y-146293641D01*
X160944922Y-146453836D01*
X160949327Y-146459049D01*
X160949330Y-146459053D01*
X161057406Y-146586943D01*
X161057410Y-146586947D01*
X161061813Y-146592157D01*
X161067237Y-146596304D01*
X161067238Y-146596305D01*
X161200257Y-146698006D01*
X161200261Y-146698009D01*
X161205678Y-146702150D01*
X161292372Y-146742576D01*
X161363631Y-146775805D01*
X161363634Y-146775806D01*
X161369808Y-146778685D01*
X161376456Y-146780171D01*
X161376459Y-146780172D01*
X161482421Y-146803857D01*
X161546543Y-146818190D01*
X161552088Y-146818500D01*
X161685244Y-146818500D01*
X161820037Y-146803857D01*
X161968323Y-146753953D01*
X161985204Y-146748272D01*
X161985206Y-146748271D01*
X161991675Y-146746094D01*
X162138038Y-146658151D01*
X162206727Y-146640212D01*
X162274214Y-146662259D01*
X162300572Y-146686519D01*
X162347397Y-146743933D01*
X162356041Y-146752637D01*
X162498856Y-146870784D01*
X162509027Y-146877644D01*
X162672076Y-146965804D01*
X162683381Y-146970556D01*
X162798692Y-147006250D01*
X162812795Y-147006456D01*
X162816000Y-146999701D01*
X162816000Y-146992924D01*
X163324000Y-146992924D01*
X163327973Y-147006455D01*
X163335768Y-147007575D01*
X163443521Y-146975862D01*
X163454889Y-146971269D01*
X163619154Y-146885393D01*
X163629415Y-146878679D01*
X163773873Y-146762532D01*
X163782632Y-146753954D01*
X163901778Y-146611961D01*
X163908708Y-146601841D01*
X163998002Y-146439415D01*
X164002834Y-146428142D01*
X164058880Y-146251462D01*
X164061430Y-146239468D01*
X164077607Y-146095239D01*
X164078000Y-146088215D01*
X164078000Y-145757115D01*
X164073525Y-145741876D01*
X164072135Y-145740671D01*
X164064452Y-145739000D01*
X163342115Y-145739000D01*
X163326876Y-145743475D01*
X163325671Y-145744865D01*
X163324000Y-145752548D01*
X163324000Y-146992924D01*
X162816000Y-146992924D01*
X162816000Y-145212885D01*
X163324000Y-145212885D01*
X163328475Y-145228124D01*
X163329865Y-145229329D01*
X163337548Y-145231000D01*
X164059885Y-145231000D01*
X164075124Y-145226525D01*
X164076329Y-145225135D01*
X164078000Y-145217452D01*
X164078000Y-144888343D01*
X164077699Y-144882195D01*
X164071088Y-144814769D01*
X166121500Y-144814769D01*
X166121800Y-144817825D01*
X166121800Y-144817832D01*
X166122530Y-144825273D01*
X166135920Y-144961833D01*
X166193084Y-145151169D01*
X166285934Y-145325796D01*
X166340353Y-145392520D01*
X166407040Y-145474287D01*
X166407043Y-145474290D01*
X166410935Y-145479062D01*
X166415682Y-145482989D01*
X166415684Y-145482991D01*
X166558575Y-145601201D01*
X166558579Y-145601203D01*
X166563325Y-145605130D01*
X166737299Y-145699198D01*
X166926232Y-145757682D01*
X166932357Y-145758326D01*
X166932358Y-145758326D01*
X167116796Y-145777711D01*
X167116798Y-145777711D01*
X167122925Y-145778355D01*
X167205424Y-145770847D01*
X167313749Y-145760989D01*
X167313752Y-145760988D01*
X167319888Y-145760430D01*
X167325794Y-145758692D01*
X167325798Y-145758691D01*
X167430924Y-145727751D01*
X167509619Y-145704590D01*
X167515077Y-145701737D01*
X167515081Y-145701735D01*
X167605853Y-145654280D01*
X167684890Y-145612960D01*
X167839025Y-145489032D01*
X167902733Y-145413108D01*
X167961842Y-145373781D01*
X168032830Y-145372655D01*
X168075781Y-145394001D01*
X168125678Y-145432150D01*
X168212372Y-145472576D01*
X168283631Y-145505805D01*
X168283634Y-145505806D01*
X168289808Y-145508685D01*
X168296456Y-145510171D01*
X168296459Y-145510172D01*
X168402421Y-145533857D01*
X168466543Y-145548190D01*
X168472088Y-145548500D01*
X168605244Y-145548500D01*
X168740037Y-145533857D01*
X168887268Y-145484308D01*
X168905204Y-145478272D01*
X168905206Y-145478271D01*
X168911675Y-145476094D01*
X169066905Y-145382823D01*
X169071862Y-145378135D01*
X169071865Y-145378133D01*
X169193527Y-145263082D01*
X169193529Y-145263080D01*
X169198485Y-145258393D01*
X169202317Y-145252755D01*
X169202320Y-145252751D01*
X169296442Y-145114255D01*
X169300277Y-145108612D01*
X169367530Y-144940466D01*
X169368644Y-144933738D01*
X169368645Y-144933734D01*
X169395993Y-144768539D01*
X169395993Y-144768536D01*
X169397108Y-144761802D01*
X169395566Y-144732362D01*
X169392203Y-144668198D01*
X173502892Y-144668198D01*
X173503249Y-144675015D01*
X173503249Y-144675019D01*
X173508151Y-144768539D01*
X173512370Y-144849047D01*
X173514181Y-144855620D01*
X173514181Y-144855623D01*
X173537551Y-144940466D01*
X173560461Y-145023641D01*
X173644922Y-145183836D01*
X173649327Y-145189049D01*
X173649330Y-145189053D01*
X173757406Y-145316943D01*
X173757410Y-145316947D01*
X173761813Y-145322157D01*
X173767237Y-145326304D01*
X173767238Y-145326305D01*
X173900257Y-145428006D01*
X173900261Y-145428009D01*
X173905678Y-145432150D01*
X173992372Y-145472576D01*
X174063631Y-145505805D01*
X174063634Y-145505806D01*
X174069808Y-145508685D01*
X174076456Y-145510171D01*
X174076459Y-145510172D01*
X174182421Y-145533857D01*
X174246543Y-145548190D01*
X174252088Y-145548500D01*
X174385244Y-145548500D01*
X174520037Y-145533857D01*
X174667268Y-145484308D01*
X174685204Y-145478272D01*
X174685206Y-145478271D01*
X174691675Y-145476094D01*
X174697530Y-145472576D01*
X174837602Y-145388413D01*
X174906294Y-145370473D01*
X174973781Y-145392520D01*
X175000139Y-145416780D01*
X175047040Y-145474287D01*
X175047043Y-145474290D01*
X175050935Y-145479062D01*
X175055682Y-145482989D01*
X175055684Y-145482991D01*
X175198575Y-145601201D01*
X175198579Y-145601203D01*
X175203325Y-145605130D01*
X175377299Y-145699198D01*
X175566232Y-145757682D01*
X175572357Y-145758326D01*
X175572358Y-145758326D01*
X175756796Y-145777711D01*
X175756798Y-145777711D01*
X175762925Y-145778355D01*
X175845424Y-145770847D01*
X175953749Y-145760989D01*
X175953752Y-145760988D01*
X175959888Y-145760430D01*
X175965794Y-145758692D01*
X175965798Y-145758691D01*
X176070924Y-145727751D01*
X176149619Y-145704590D01*
X176155077Y-145701737D01*
X176155081Y-145701735D01*
X176245853Y-145654280D01*
X176324890Y-145612960D01*
X176479025Y-145489032D01*
X176606154Y-145337526D01*
X176609121Y-145332128D01*
X176609125Y-145332123D01*
X176698467Y-145169608D01*
X176701433Y-145164213D01*
X176703846Y-145156608D01*
X176759373Y-144981564D01*
X176759373Y-144981563D01*
X176761235Y-144975694D01*
X176778500Y-144821773D01*
X176778500Y-143615231D01*
X176777814Y-143608227D01*
X176767709Y-143505176D01*
X176764080Y-143468167D01*
X176706916Y-143278831D01*
X176614066Y-143104204D01*
X176537334Y-143010121D01*
X176492960Y-142955713D01*
X176492957Y-142955710D01*
X176489065Y-142950938D01*
X176482724Y-142945692D01*
X176341425Y-142828799D01*
X176341421Y-142828797D01*
X176336675Y-142824870D01*
X176162701Y-142730802D01*
X175973768Y-142672318D01*
X175967643Y-142671674D01*
X175967642Y-142671674D01*
X175783204Y-142652289D01*
X175783202Y-142652289D01*
X175777075Y-142651645D01*
X175694576Y-142659153D01*
X175586251Y-142669011D01*
X175586248Y-142669012D01*
X175580112Y-142669570D01*
X175574206Y-142671308D01*
X175574202Y-142671309D01*
X175469076Y-142702249D01*
X175390381Y-142725410D01*
X175384923Y-142728263D01*
X175384919Y-142728265D01*
X175309519Y-142767684D01*
X175215110Y-142817040D01*
X175060975Y-142940968D01*
X174933846Y-143092474D01*
X174930879Y-143097872D01*
X174930875Y-143097877D01*
X174927397Y-143104204D01*
X174838567Y-143265787D01*
X174836706Y-143271654D01*
X174836705Y-143271656D01*
X174802680Y-143378917D01*
X174778765Y-143454306D01*
X174761500Y-143608227D01*
X174761500Y-143797862D01*
X174741498Y-143865983D01*
X174687842Y-143912476D01*
X174617568Y-143922580D01*
X174608014Y-143920828D01*
X174438494Y-143882936D01*
X174438495Y-143882936D01*
X174433457Y-143881810D01*
X174427912Y-143881500D01*
X174294756Y-143881500D01*
X174159963Y-143896143D01*
X174041810Y-143935906D01*
X173994796Y-143951728D01*
X173994794Y-143951729D01*
X173988325Y-143953906D01*
X173833095Y-144047177D01*
X173828138Y-144051865D01*
X173828135Y-144051867D01*
X173773329Y-144103695D01*
X173701515Y-144171607D01*
X173697683Y-144177245D01*
X173697680Y-144177249D01*
X173646740Y-144252205D01*
X173599723Y-144321388D01*
X173532470Y-144489534D01*
X173531356Y-144496262D01*
X173531355Y-144496266D01*
X173504007Y-144661461D01*
X173502892Y-144668198D01*
X169392203Y-144668198D01*
X169387987Y-144587766D01*
X169387630Y-144580953D01*
X169380461Y-144554924D01*
X169341352Y-144412941D01*
X169339539Y-144406359D01*
X169255078Y-144246164D01*
X169250673Y-144240951D01*
X169250670Y-144240947D01*
X169142594Y-144113057D01*
X169142590Y-144113053D01*
X169138187Y-144107843D01*
X169132762Y-144103695D01*
X168999743Y-144001994D01*
X168999739Y-144001991D01*
X168994322Y-143997850D01*
X168836478Y-143924246D01*
X168836369Y-143924195D01*
X168836366Y-143924194D01*
X168830192Y-143921315D01*
X168823544Y-143919829D01*
X168823541Y-143919828D01*
X168658494Y-143882936D01*
X168658495Y-143882936D01*
X168653457Y-143881810D01*
X168647912Y-143881500D01*
X168514756Y-143881500D01*
X168379963Y-143896143D01*
X168304688Y-143921476D01*
X168233747Y-143924246D01*
X168172568Y-143888223D01*
X168140577Y-143824842D01*
X168138500Y-143802057D01*
X168138500Y-143615231D01*
X168137814Y-143608227D01*
X168127709Y-143505176D01*
X168124080Y-143468167D01*
X168066916Y-143278831D01*
X167974066Y-143104204D01*
X167897334Y-143010121D01*
X167852960Y-142955713D01*
X167852957Y-142955710D01*
X167849065Y-142950938D01*
X167842724Y-142945692D01*
X167701425Y-142828799D01*
X167701421Y-142828797D01*
X167696675Y-142824870D01*
X167522701Y-142730802D01*
X167333768Y-142672318D01*
X167327643Y-142671674D01*
X167327642Y-142671674D01*
X167143204Y-142652289D01*
X167143202Y-142652289D01*
X167137075Y-142651645D01*
X167054576Y-142659153D01*
X166946251Y-142669011D01*
X166946248Y-142669012D01*
X166940112Y-142669570D01*
X166934206Y-142671308D01*
X166934202Y-142671309D01*
X166829076Y-142702249D01*
X166750381Y-142725410D01*
X166744923Y-142728263D01*
X166744919Y-142728265D01*
X166669519Y-142767684D01*
X166575110Y-142817040D01*
X166420975Y-142940968D01*
X166293846Y-143092474D01*
X166290879Y-143097872D01*
X166290875Y-143097877D01*
X166287397Y-143104204D01*
X166198567Y-143265787D01*
X166196706Y-143271654D01*
X166196705Y-143271656D01*
X166162680Y-143378917D01*
X166138765Y-143454306D01*
X166121500Y-143608227D01*
X166121500Y-144814769D01*
X164071088Y-144814769D01*
X164064188Y-144744397D01*
X164061805Y-144732362D01*
X164008233Y-144554924D01*
X164003559Y-144543584D01*
X163916540Y-144379923D01*
X163909751Y-144369706D01*
X163792603Y-144226067D01*
X163783959Y-144217363D01*
X163641144Y-144099216D01*
X163630973Y-144092356D01*
X163467924Y-144004196D01*
X163456619Y-143999444D01*
X163341308Y-143963750D01*
X163327205Y-143963544D01*
X163324000Y-143970299D01*
X163324000Y-145212885D01*
X162816000Y-145212885D01*
X162816000Y-143977076D01*
X162812027Y-143963545D01*
X162804232Y-143962425D01*
X162696479Y-143994138D01*
X162685111Y-143998731D01*
X162520846Y-144084607D01*
X162510585Y-144091321D01*
X162366127Y-144207468D01*
X162357368Y-144216046D01*
X162238222Y-144358039D01*
X162231292Y-144368159D01*
X162141998Y-144530585D01*
X162137166Y-144541858D01*
X162081120Y-144718538D01*
X162078570Y-144730532D01*
X162062393Y-144874761D01*
X162062000Y-144881785D01*
X162062000Y-145067974D01*
X162041998Y-145136095D01*
X161988342Y-145182588D01*
X161918068Y-145192692D01*
X161908514Y-145190939D01*
X161738506Y-145152938D01*
X161738499Y-145152937D01*
X161733457Y-145151810D01*
X161727912Y-145151500D01*
X161594756Y-145151500D01*
X161459963Y-145166143D01*
X161341810Y-145205906D01*
X161294796Y-145221728D01*
X161294794Y-145221729D01*
X161288325Y-145223906D01*
X161133095Y-145317177D01*
X161128138Y-145321865D01*
X161128135Y-145321867D01*
X161006473Y-145436918D01*
X161001515Y-145441607D01*
X160997683Y-145447245D01*
X160997680Y-145447249D01*
X160928917Y-145548431D01*
X160899723Y-145591388D01*
X160832470Y-145759534D01*
X160831356Y-145766262D01*
X160831355Y-145766266D01*
X160804007Y-145931461D01*
X160802892Y-145938198D01*
X156692203Y-145938198D01*
X156687987Y-145857766D01*
X156687630Y-145850953D01*
X156666348Y-145773687D01*
X156641352Y-145682941D01*
X156639539Y-145676359D01*
X156555078Y-145516164D01*
X156550673Y-145510951D01*
X156550670Y-145510947D01*
X156442594Y-145383057D01*
X156442590Y-145383053D01*
X156438187Y-145377843D01*
X156432762Y-145373695D01*
X156299743Y-145271994D01*
X156299739Y-145271991D01*
X156294322Y-145267850D01*
X156176449Y-145212885D01*
X156136369Y-145194195D01*
X156136366Y-145194194D01*
X156130192Y-145191315D01*
X156123544Y-145189829D01*
X156123541Y-145189828D01*
X155958494Y-145152936D01*
X155958495Y-145152936D01*
X155953457Y-145151810D01*
X155947912Y-145151500D01*
X155814756Y-145151500D01*
X155679963Y-145166143D01*
X155673499Y-145168318D01*
X155673496Y-145168319D01*
X155611888Y-145189053D01*
X155605167Y-145191315D01*
X155604189Y-145191644D01*
X155533247Y-145194414D01*
X155472068Y-145158391D01*
X155440077Y-145095010D01*
X155438000Y-145072225D01*
X155438000Y-144888343D01*
X155437699Y-144882195D01*
X155424188Y-144744397D01*
X155421805Y-144732362D01*
X155368233Y-144554924D01*
X155363559Y-144543584D01*
X155276540Y-144379923D01*
X155269751Y-144369706D01*
X155152603Y-144226067D01*
X155143959Y-144217363D01*
X155001144Y-144099216D01*
X154990973Y-144092356D01*
X154827924Y-144004196D01*
X154816619Y-143999444D01*
X154701308Y-143963750D01*
X154687205Y-143963544D01*
X154684000Y-143970299D01*
X154684000Y-146992924D01*
X154176000Y-146992924D01*
X154176000Y-145757115D01*
X154171525Y-145741876D01*
X154170135Y-145740671D01*
X154162452Y-145739000D01*
X153440115Y-145739000D01*
X153424876Y-145743475D01*
X153423671Y-145744865D01*
X153422000Y-145752548D01*
X153422000Y-146081657D01*
X151378000Y-146081657D01*
X151378000Y-145757115D01*
X151373525Y-145741876D01*
X151372135Y-145740671D01*
X151364452Y-145739000D01*
X150642115Y-145739000D01*
X150626876Y-145743475D01*
X150625671Y-145744865D01*
X150624000Y-145752548D01*
X150624000Y-146992924D01*
X150116000Y-146992924D01*
X150116000Y-145212885D01*
X150624000Y-145212885D01*
X150628475Y-145228124D01*
X150629865Y-145229329D01*
X150637548Y-145231000D01*
X151359885Y-145231000D01*
X151375124Y-145226525D01*
X151376329Y-145225135D01*
X151378000Y-145217452D01*
X151378000Y-145212885D01*
X153422000Y-145212885D01*
X153426475Y-145228124D01*
X153427865Y-145229329D01*
X153435548Y-145231000D01*
X154157885Y-145231000D01*
X154173124Y-145226525D01*
X154174329Y-145225135D01*
X154176000Y-145217452D01*
X154176000Y-143977076D01*
X154172027Y-143963545D01*
X154164232Y-143962425D01*
X154056479Y-143994138D01*
X154045111Y-143998731D01*
X153880846Y-144084607D01*
X153870585Y-144091321D01*
X153726127Y-144207468D01*
X153717368Y-144216046D01*
X153598222Y-144358039D01*
X153591292Y-144368159D01*
X153501998Y-144530585D01*
X153497166Y-144541858D01*
X153441120Y-144718538D01*
X153438570Y-144730532D01*
X153422393Y-144874761D01*
X153422000Y-144881785D01*
X153422000Y-145212885D01*
X151378000Y-145212885D01*
X151378000Y-144888343D01*
X151377699Y-144882195D01*
X151364188Y-144744397D01*
X151361805Y-144732362D01*
X151308233Y-144554924D01*
X151303559Y-144543584D01*
X151216540Y-144379923D01*
X151209751Y-144369706D01*
X151092603Y-144226067D01*
X151083959Y-144217363D01*
X150941144Y-144099216D01*
X150930973Y-144092356D01*
X150767924Y-144004196D01*
X150756619Y-143999444D01*
X150641308Y-143963750D01*
X150627205Y-143963544D01*
X150624000Y-143970299D01*
X150624000Y-145212885D01*
X150116000Y-145212885D01*
X150116000Y-143977076D01*
X150112027Y-143963545D01*
X150104232Y-143962425D01*
X149996479Y-143994138D01*
X149985111Y-143998731D01*
X149820846Y-144084607D01*
X149810585Y-144091321D01*
X149666127Y-144207468D01*
X149657368Y-144216046D01*
X149538222Y-144358039D01*
X149531292Y-144368159D01*
X149441998Y-144530585D01*
X149437166Y-144541858D01*
X149381120Y-144718538D01*
X149378570Y-144730532D01*
X149362393Y-144874761D01*
X149362000Y-144881785D01*
X149362000Y-145067974D01*
X149341998Y-145136095D01*
X149288342Y-145182588D01*
X149218068Y-145192692D01*
X149208514Y-145190939D01*
X149038506Y-145152938D01*
X149038499Y-145152937D01*
X149033457Y-145151810D01*
X149027912Y-145151500D01*
X148894756Y-145151500D01*
X148759963Y-145166143D01*
X148641810Y-145205906D01*
X148594796Y-145221728D01*
X148594794Y-145221729D01*
X148588325Y-145223906D01*
X148433095Y-145317177D01*
X148428138Y-145321865D01*
X148428135Y-145321867D01*
X148306473Y-145436918D01*
X148301515Y-145441607D01*
X148297683Y-145447245D01*
X148297680Y-145447249D01*
X148228917Y-145548431D01*
X148199723Y-145591388D01*
X148132470Y-145759534D01*
X148131356Y-145766262D01*
X148131355Y-145766266D01*
X148104007Y-145931461D01*
X148102892Y-145938198D01*
X143992203Y-145938198D01*
X143987987Y-145857766D01*
X143987630Y-145850953D01*
X143966348Y-145773687D01*
X143941352Y-145682941D01*
X143939539Y-145676359D01*
X143855078Y-145516164D01*
X143850673Y-145510951D01*
X143850670Y-145510947D01*
X143742594Y-145383057D01*
X143742590Y-145383053D01*
X143738187Y-145377843D01*
X143732762Y-145373695D01*
X143599743Y-145271994D01*
X143599739Y-145271991D01*
X143594322Y-145267850D01*
X143476449Y-145212885D01*
X143436369Y-145194195D01*
X143436366Y-145194194D01*
X143430192Y-145191315D01*
X143423544Y-145189829D01*
X143423541Y-145189828D01*
X143258494Y-145152936D01*
X143258495Y-145152936D01*
X143253457Y-145151810D01*
X143247912Y-145151500D01*
X143114756Y-145151500D01*
X142979963Y-145166143D01*
X142973499Y-145168318D01*
X142973496Y-145168319D01*
X142911888Y-145189053D01*
X142905167Y-145191315D01*
X142904189Y-145191644D01*
X142833247Y-145194414D01*
X142772068Y-145158391D01*
X142740077Y-145095010D01*
X142738000Y-145072225D01*
X142738000Y-144888343D01*
X142737699Y-144882195D01*
X142724188Y-144744397D01*
X142721805Y-144732362D01*
X142668233Y-144554924D01*
X142663559Y-144543584D01*
X142576540Y-144379923D01*
X142569751Y-144369706D01*
X142452603Y-144226067D01*
X142443959Y-144217363D01*
X142301144Y-144099216D01*
X142290973Y-144092356D01*
X142127924Y-144004196D01*
X142116619Y-143999444D01*
X142001308Y-143963750D01*
X141987205Y-143963544D01*
X141984000Y-143970299D01*
X141984000Y-146992924D01*
X141476000Y-146992924D01*
X141476000Y-145757115D01*
X141471525Y-145741876D01*
X141470135Y-145740671D01*
X141462452Y-145739000D01*
X140740115Y-145739000D01*
X140724876Y-145743475D01*
X140723671Y-145744865D01*
X140722000Y-145752548D01*
X140722000Y-146081657D01*
X119381379Y-146081657D01*
X118505825Y-145774090D01*
X118503473Y-145773237D01*
X118033896Y-145597725D01*
X116672539Y-145088896D01*
X116670219Y-145088002D01*
X116619719Y-145067974D01*
X115981258Y-144814769D01*
X128021500Y-144814769D01*
X128021800Y-144817825D01*
X128021800Y-144817832D01*
X128022530Y-144825273D01*
X128035920Y-144961833D01*
X128093084Y-145151169D01*
X128185934Y-145325796D01*
X128240353Y-145392520D01*
X128307040Y-145474287D01*
X128307043Y-145474290D01*
X128310935Y-145479062D01*
X128315682Y-145482989D01*
X128315684Y-145482991D01*
X128458575Y-145601201D01*
X128458579Y-145601203D01*
X128463325Y-145605130D01*
X128637299Y-145699198D01*
X128826232Y-145757682D01*
X128832357Y-145758326D01*
X128832358Y-145758326D01*
X129016796Y-145777711D01*
X129016798Y-145777711D01*
X129022925Y-145778355D01*
X129105424Y-145770847D01*
X129213749Y-145760989D01*
X129213752Y-145760988D01*
X129219888Y-145760430D01*
X129225794Y-145758692D01*
X129225798Y-145758691D01*
X129330924Y-145727751D01*
X129409619Y-145704590D01*
X129415077Y-145701737D01*
X129415081Y-145701735D01*
X129505853Y-145654280D01*
X129584890Y-145612960D01*
X129739025Y-145489032D01*
X129802733Y-145413108D01*
X129861842Y-145373781D01*
X129932830Y-145372655D01*
X129975781Y-145394001D01*
X130025678Y-145432150D01*
X130112372Y-145472576D01*
X130183631Y-145505805D01*
X130183634Y-145505806D01*
X130189808Y-145508685D01*
X130196456Y-145510171D01*
X130196459Y-145510172D01*
X130302421Y-145533857D01*
X130366543Y-145548190D01*
X130372088Y-145548500D01*
X130505244Y-145548500D01*
X130640037Y-145533857D01*
X130787268Y-145484308D01*
X130805204Y-145478272D01*
X130805206Y-145478271D01*
X130811675Y-145476094D01*
X130966905Y-145382823D01*
X130971862Y-145378135D01*
X130971865Y-145378133D01*
X131093527Y-145263082D01*
X131093529Y-145263080D01*
X131098485Y-145258393D01*
X131102317Y-145252755D01*
X131102320Y-145252751D01*
X131196442Y-145114255D01*
X131200277Y-145108612D01*
X131267530Y-144940466D01*
X131268644Y-144933738D01*
X131268645Y-144933734D01*
X131295993Y-144768539D01*
X131295993Y-144768536D01*
X131297108Y-144761802D01*
X131295566Y-144732362D01*
X131292203Y-144668198D01*
X135402892Y-144668198D01*
X135403249Y-144675015D01*
X135403249Y-144675019D01*
X135408151Y-144768539D01*
X135412370Y-144849047D01*
X135414181Y-144855620D01*
X135414181Y-144855623D01*
X135437551Y-144940466D01*
X135460461Y-145023641D01*
X135544922Y-145183836D01*
X135549327Y-145189049D01*
X135549330Y-145189053D01*
X135657406Y-145316943D01*
X135657410Y-145316947D01*
X135661813Y-145322157D01*
X135667237Y-145326304D01*
X135667238Y-145326305D01*
X135800257Y-145428006D01*
X135800261Y-145428009D01*
X135805678Y-145432150D01*
X135892372Y-145472576D01*
X135963631Y-145505805D01*
X135963634Y-145505806D01*
X135969808Y-145508685D01*
X135976456Y-145510171D01*
X135976459Y-145510172D01*
X136082421Y-145533857D01*
X136146543Y-145548190D01*
X136152088Y-145548500D01*
X136285244Y-145548500D01*
X136420037Y-145533857D01*
X136567268Y-145484308D01*
X136585204Y-145478272D01*
X136585206Y-145478271D01*
X136591675Y-145476094D01*
X136597530Y-145472576D01*
X136737602Y-145388413D01*
X136806294Y-145370473D01*
X136873781Y-145392520D01*
X136900139Y-145416780D01*
X136947040Y-145474287D01*
X136947043Y-145474290D01*
X136950935Y-145479062D01*
X136955682Y-145482989D01*
X136955684Y-145482991D01*
X137098575Y-145601201D01*
X137098579Y-145601203D01*
X137103325Y-145605130D01*
X137277299Y-145699198D01*
X137466232Y-145757682D01*
X137472357Y-145758326D01*
X137472358Y-145758326D01*
X137656796Y-145777711D01*
X137656798Y-145777711D01*
X137662925Y-145778355D01*
X137745424Y-145770847D01*
X137853749Y-145760989D01*
X137853752Y-145760988D01*
X137859888Y-145760430D01*
X137865794Y-145758692D01*
X137865798Y-145758691D01*
X137970924Y-145727751D01*
X138049619Y-145704590D01*
X138055077Y-145701737D01*
X138055081Y-145701735D01*
X138145853Y-145654280D01*
X138224890Y-145612960D01*
X138379025Y-145489032D01*
X138506154Y-145337526D01*
X138509121Y-145332128D01*
X138509125Y-145332123D01*
X138574676Y-145212885D01*
X140722000Y-145212885D01*
X140726475Y-145228124D01*
X140727865Y-145229329D01*
X140735548Y-145231000D01*
X141457885Y-145231000D01*
X141473124Y-145226525D01*
X141474329Y-145225135D01*
X141476000Y-145217452D01*
X141476000Y-143977076D01*
X141472027Y-143963545D01*
X141464232Y-143962425D01*
X141356479Y-143994138D01*
X141345111Y-143998731D01*
X141180846Y-144084607D01*
X141170585Y-144091321D01*
X141026127Y-144207468D01*
X141017368Y-144216046D01*
X140898222Y-144358039D01*
X140891292Y-144368159D01*
X140801998Y-144530585D01*
X140797166Y-144541858D01*
X140741120Y-144718538D01*
X140738570Y-144730532D01*
X140722393Y-144874761D01*
X140722000Y-144881785D01*
X140722000Y-145212885D01*
X138574676Y-145212885D01*
X138598467Y-145169608D01*
X138601433Y-145164213D01*
X138603846Y-145156608D01*
X138659373Y-144981564D01*
X138659373Y-144981563D01*
X138661235Y-144975694D01*
X138678500Y-144821773D01*
X138678500Y-143615231D01*
X138677814Y-143608227D01*
X138667709Y-143505176D01*
X138664080Y-143468167D01*
X138606916Y-143278831D01*
X138514066Y-143104204D01*
X138437334Y-143010121D01*
X138392960Y-142955713D01*
X138392957Y-142955710D01*
X138389065Y-142950938D01*
X138382724Y-142945692D01*
X138241425Y-142828799D01*
X138241421Y-142828797D01*
X138236675Y-142824870D01*
X138062701Y-142730802D01*
X137873768Y-142672318D01*
X137867643Y-142671674D01*
X137867642Y-142671674D01*
X137683204Y-142652289D01*
X137683202Y-142652289D01*
X137677075Y-142651645D01*
X137594576Y-142659153D01*
X137486251Y-142669011D01*
X137486248Y-142669012D01*
X137480112Y-142669570D01*
X137474206Y-142671308D01*
X137474202Y-142671309D01*
X137369076Y-142702249D01*
X137290381Y-142725410D01*
X137284923Y-142728263D01*
X137284919Y-142728265D01*
X137209519Y-142767684D01*
X137115110Y-142817040D01*
X136960975Y-142940968D01*
X136833846Y-143092474D01*
X136830879Y-143097872D01*
X136830875Y-143097877D01*
X136827397Y-143104204D01*
X136738567Y-143265787D01*
X136736706Y-143271654D01*
X136736705Y-143271656D01*
X136702680Y-143378917D01*
X136678765Y-143454306D01*
X136661500Y-143608227D01*
X136661500Y-143797862D01*
X136641498Y-143865983D01*
X136587842Y-143912476D01*
X136517568Y-143922580D01*
X136508014Y-143920828D01*
X136338494Y-143882936D01*
X136338495Y-143882936D01*
X136333457Y-143881810D01*
X136327912Y-143881500D01*
X136194756Y-143881500D01*
X136059963Y-143896143D01*
X135941810Y-143935906D01*
X135894796Y-143951728D01*
X135894794Y-143951729D01*
X135888325Y-143953906D01*
X135733095Y-144047177D01*
X135728138Y-144051865D01*
X135728135Y-144051867D01*
X135673329Y-144103695D01*
X135601515Y-144171607D01*
X135597683Y-144177245D01*
X135597680Y-144177249D01*
X135546740Y-144252205D01*
X135499723Y-144321388D01*
X135432470Y-144489534D01*
X135431356Y-144496262D01*
X135431355Y-144496266D01*
X135404007Y-144661461D01*
X135402892Y-144668198D01*
X131292203Y-144668198D01*
X131287987Y-144587766D01*
X131287630Y-144580953D01*
X131280461Y-144554924D01*
X131241352Y-144412941D01*
X131239539Y-144406359D01*
X131155078Y-144246164D01*
X131150673Y-144240951D01*
X131150670Y-144240947D01*
X131042594Y-144113057D01*
X131042590Y-144113053D01*
X131038187Y-144107843D01*
X131032762Y-144103695D01*
X130899743Y-144001994D01*
X130899739Y-144001991D01*
X130894322Y-143997850D01*
X130736478Y-143924246D01*
X130736369Y-143924195D01*
X130736366Y-143924194D01*
X130730192Y-143921315D01*
X130723544Y-143919829D01*
X130723541Y-143919828D01*
X130558494Y-143882936D01*
X130558495Y-143882936D01*
X130553457Y-143881810D01*
X130547912Y-143881500D01*
X130414756Y-143881500D01*
X130279963Y-143896143D01*
X130204688Y-143921476D01*
X130133747Y-143924246D01*
X130072568Y-143888223D01*
X130040577Y-143824842D01*
X130038500Y-143802057D01*
X130038500Y-143615231D01*
X130037814Y-143608227D01*
X130027709Y-143505176D01*
X130024080Y-143468167D01*
X129966916Y-143278831D01*
X129874066Y-143104204D01*
X129797334Y-143010121D01*
X129752960Y-142955713D01*
X129752957Y-142955710D01*
X129749065Y-142950938D01*
X129742724Y-142945692D01*
X129601425Y-142828799D01*
X129601421Y-142828797D01*
X129596675Y-142824870D01*
X129422701Y-142730802D01*
X129233768Y-142672318D01*
X129227643Y-142671674D01*
X129227642Y-142671674D01*
X129043204Y-142652289D01*
X129043202Y-142652289D01*
X129037075Y-142651645D01*
X128954576Y-142659153D01*
X128846251Y-142669011D01*
X128846248Y-142669012D01*
X128840112Y-142669570D01*
X128834206Y-142671308D01*
X128834202Y-142671309D01*
X128729076Y-142702249D01*
X128650381Y-142725410D01*
X128644923Y-142728263D01*
X128644919Y-142728265D01*
X128569519Y-142767684D01*
X128475110Y-142817040D01*
X128320975Y-142940968D01*
X128193846Y-143092474D01*
X128190879Y-143097872D01*
X128190875Y-143097877D01*
X128187397Y-143104204D01*
X128098567Y-143265787D01*
X128096706Y-143271654D01*
X128096705Y-143271656D01*
X128062680Y-143378917D01*
X128038765Y-143454306D01*
X128021500Y-143608227D01*
X128021500Y-144814769D01*
X115981258Y-144814769D01*
X115847701Y-144761802D01*
X114853261Y-144367420D01*
X114850943Y-144366474D01*
X113091399Y-143627872D01*
X113073042Y-143618324D01*
X113062906Y-143611944D01*
X113055308Y-143607161D01*
X113046252Y-143604583D01*
X113040606Y-143602975D01*
X113016997Y-143593590D01*
X112865169Y-143514671D01*
X112849729Y-143505176D01*
X112690274Y-143390536D01*
X112676355Y-143378923D01*
X112535000Y-143242587D01*
X112522893Y-143229099D01*
X112402557Y-143073888D01*
X112392510Y-143058800D01*
X112345448Y-142975741D01*
X112295696Y-142887935D01*
X112287918Y-142871564D01*
X112229694Y-142722127D01*
X112224014Y-142700083D01*
X112223537Y-142700185D01*
X112222520Y-142695417D01*
X112221876Y-142690597D01*
X112220176Y-142684843D01*
X112220136Y-142684571D01*
X112220022Y-142684322D01*
X112218319Y-142678559D01*
X112214932Y-142671399D01*
X112210062Y-142659588D01*
X112205280Y-142646084D01*
X112093950Y-142331737D01*
X111943050Y-141995677D01*
X111937717Y-141986000D01*
X157582496Y-141986000D01*
X157602458Y-142175928D01*
X157661473Y-142357556D01*
X157756960Y-142522944D01*
X157884747Y-142664866D01*
X158039248Y-142777118D01*
X158045276Y-142779802D01*
X158045278Y-142779803D01*
X158137591Y-142820903D01*
X158213712Y-142854794D01*
X158307112Y-142874647D01*
X158394056Y-142893128D01*
X158394061Y-142893128D01*
X158400513Y-142894500D01*
X158591487Y-142894500D01*
X158597939Y-142893128D01*
X158597944Y-142893128D01*
X158684888Y-142874647D01*
X158778288Y-142854794D01*
X158952752Y-142777118D01*
X159023118Y-142767684D01*
X159055247Y-142777118D01*
X159055248Y-142777118D01*
X159229712Y-142854794D01*
X159323112Y-142874647D01*
X159410056Y-142893128D01*
X159410061Y-142893128D01*
X159416513Y-142894500D01*
X159607487Y-142894500D01*
X159613939Y-142893128D01*
X159613944Y-142893128D01*
X159700888Y-142874647D01*
X159794288Y-142854794D01*
X159870409Y-142820903D01*
X159962722Y-142779803D01*
X159962724Y-142779802D01*
X159968752Y-142777118D01*
X160123253Y-142664866D01*
X160251040Y-142522944D01*
X160346527Y-142357556D01*
X160405542Y-142175928D01*
X160425504Y-141986000D01*
X160425316Y-141984214D01*
X160444816Y-141917804D01*
X160461719Y-141896830D01*
X161940229Y-140418320D01*
X161952618Y-140407454D01*
X161971435Y-140393015D01*
X161971436Y-140393014D01*
X161977987Y-140387987D01*
X162037258Y-140310744D01*
X162075524Y-140260876D01*
X162136838Y-140112851D01*
X162146855Y-140036764D01*
X162152500Y-139993885D01*
X162152500Y-139993880D01*
X162157750Y-139954000D01*
X162153578Y-139922307D01*
X162152500Y-139905864D01*
X162152500Y-139800784D01*
X162172502Y-139732663D01*
X162184864Y-139716474D01*
X162278621Y-139612346D01*
X162278622Y-139612345D01*
X162283040Y-139607438D01*
X162352736Y-139486722D01*
X162375223Y-139447773D01*
X162375224Y-139447772D01*
X162378527Y-139442050D01*
X162437542Y-139260422D01*
X162439119Y-139245424D01*
X162456814Y-139077059D01*
X162457504Y-139070494D01*
X162448668Y-138986424D01*
X162438232Y-138887129D01*
X162438232Y-138887127D01*
X162437542Y-138880566D01*
X162378527Y-138698938D01*
X162283040Y-138533550D01*
X162165104Y-138402568D01*
X162159675Y-138396539D01*
X162159674Y-138396538D01*
X162156191Y-138392670D01*
X162812160Y-138392670D01*
X162817887Y-138400320D01*
X162989042Y-138505205D01*
X162997837Y-138509687D01*
X163207988Y-138596734D01*
X163217373Y-138599783D01*
X163438554Y-138652885D01*
X163448301Y-138654428D01*
X163675070Y-138672275D01*
X163684930Y-138672275D01*
X163911699Y-138654428D01*
X163921446Y-138652885D01*
X164142627Y-138599783D01*
X164152012Y-138596734D01*
X164362163Y-138509687D01*
X164370958Y-138505205D01*
X164538445Y-138402568D01*
X164547400Y-138392670D01*
X169312160Y-138392670D01*
X169317887Y-138400320D01*
X169489042Y-138505205D01*
X169497837Y-138509687D01*
X169707988Y-138596734D01*
X169717373Y-138599783D01*
X169938554Y-138652885D01*
X169948301Y-138654428D01*
X170175070Y-138672275D01*
X170184930Y-138672275D01*
X170411699Y-138654428D01*
X170421446Y-138652885D01*
X170642627Y-138599783D01*
X170652012Y-138596734D01*
X170862163Y-138509687D01*
X170870958Y-138505205D01*
X171038445Y-138402568D01*
X171047400Y-138392670D01*
X175460160Y-138392670D01*
X175465887Y-138400320D01*
X175637042Y-138505205D01*
X175645837Y-138509687D01*
X175855988Y-138596734D01*
X175865373Y-138599783D01*
X176086554Y-138652885D01*
X176096301Y-138654428D01*
X176323070Y-138672275D01*
X176332930Y-138672275D01*
X176559699Y-138654428D01*
X176569446Y-138652885D01*
X176790627Y-138599783D01*
X176800012Y-138596734D01*
X177010163Y-138509687D01*
X177018958Y-138505205D01*
X177186445Y-138402568D01*
X177195400Y-138392670D01*
X181960160Y-138392670D01*
X181965887Y-138400320D01*
X182137042Y-138505205D01*
X182145837Y-138509687D01*
X182355988Y-138596734D01*
X182365373Y-138599783D01*
X182586554Y-138652885D01*
X182596301Y-138654428D01*
X182823070Y-138672275D01*
X182832930Y-138672275D01*
X183059699Y-138654428D01*
X183069446Y-138652885D01*
X183290627Y-138599783D01*
X183300012Y-138596734D01*
X183510163Y-138509687D01*
X183518958Y-138505205D01*
X183686445Y-138402568D01*
X183695907Y-138392110D01*
X183692124Y-138383334D01*
X182840812Y-137532022D01*
X182826868Y-137524408D01*
X182825035Y-137524539D01*
X182818420Y-137528790D01*
X181966920Y-138380290D01*
X181960160Y-138392670D01*
X177195400Y-138392670D01*
X177195907Y-138392110D01*
X177192124Y-138383334D01*
X176340812Y-137532022D01*
X176326868Y-137524408D01*
X176325035Y-137524539D01*
X176318420Y-137528790D01*
X175466920Y-138380290D01*
X175460160Y-138392670D01*
X171047400Y-138392670D01*
X171047907Y-138392110D01*
X171044124Y-138383334D01*
X170192812Y-137532022D01*
X170178868Y-137524408D01*
X170177035Y-137524539D01*
X170170420Y-137528790D01*
X169318920Y-138380290D01*
X169312160Y-138392670D01*
X164547400Y-138392670D01*
X164547907Y-138392110D01*
X164544124Y-138383334D01*
X163692812Y-137532022D01*
X163678868Y-137524408D01*
X163677035Y-137524539D01*
X163670420Y-137528790D01*
X162818920Y-138380290D01*
X162812160Y-138392670D01*
X162156191Y-138392670D01*
X162155253Y-138391628D01*
X162000752Y-138279376D01*
X161994724Y-138276692D01*
X161994722Y-138276691D01*
X161832319Y-138204385D01*
X161832318Y-138204385D01*
X161826288Y-138201700D01*
X161732887Y-138181847D01*
X161645944Y-138163366D01*
X161645939Y-138163366D01*
X161639487Y-138161994D01*
X161448513Y-138161994D01*
X161442061Y-138163366D01*
X161442056Y-138163366D01*
X161355113Y-138181847D01*
X161261712Y-138201700D01*
X161255682Y-138204385D01*
X161255681Y-138204385D01*
X161093278Y-138276691D01*
X161093276Y-138276692D01*
X161087248Y-138279376D01*
X160932747Y-138391628D01*
X160928326Y-138396538D01*
X160928325Y-138396539D01*
X160922897Y-138402568D01*
X160804960Y-138533550D01*
X160763052Y-138606137D01*
X160739895Y-138646246D01*
X160688513Y-138695239D01*
X160623487Y-138707452D01*
X160623487Y-138708480D01*
X160432513Y-138708480D01*
X160426061Y-138709852D01*
X160426056Y-138709852D01*
X160354981Y-138724960D01*
X160245712Y-138748186D01*
X160239682Y-138750871D01*
X160239681Y-138750871D01*
X160077278Y-138823177D01*
X160077276Y-138823178D01*
X160071248Y-138825862D01*
X160065907Y-138829742D01*
X160065906Y-138829743D01*
X160040694Y-138848061D01*
X159916747Y-138938114D01*
X159912326Y-138943024D01*
X159912325Y-138943025D01*
X159797552Y-139070494D01*
X159788960Y-139080036D01*
X159760023Y-139130157D01*
X159699102Y-139235675D01*
X159693473Y-139245424D01*
X159634458Y-139427052D01*
X159633768Y-139433613D01*
X159633768Y-139433615D01*
X159628183Y-139486753D01*
X159614496Y-139616980D01*
X159614684Y-139618766D01*
X159595184Y-139685176D01*
X159578281Y-139706150D01*
X158146432Y-141138000D01*
X158108586Y-141164012D01*
X158039248Y-141194882D01*
X157884747Y-141307134D01*
X157880326Y-141312044D01*
X157880325Y-141312045D01*
X157833555Y-141363989D01*
X157756960Y-141449056D01*
X157661473Y-141614444D01*
X157602458Y-141796072D01*
X157601768Y-141802633D01*
X157601768Y-141802635D01*
X157591868Y-141896830D01*
X157582496Y-141986000D01*
X111937717Y-141986000D01*
X111766481Y-141675296D01*
X111766476Y-141675288D01*
X111765240Y-141673045D01*
X111563134Y-141368149D01*
X111563127Y-141368139D01*
X111563125Y-141368137D01*
X111561705Y-141365994D01*
X111560121Y-141363982D01*
X111560112Y-141363970D01*
X111385528Y-141142258D01*
X111359099Y-141076363D01*
X111372491Y-141006641D01*
X111421452Y-140955228D01*
X111490437Y-140938446D01*
X111520305Y-140943496D01*
X111559913Y-140955228D01*
X111725020Y-141004135D01*
X111725024Y-141004136D01*
X111729133Y-141005353D01*
X111733367Y-141006001D01*
X111733372Y-141006002D01*
X111995595Y-141046127D01*
X111995597Y-141046127D01*
X111999837Y-141046776D01*
X112139209Y-141048966D01*
X112269368Y-141051011D01*
X112269374Y-141051011D01*
X112273659Y-141051078D01*
X112545532Y-141018178D01*
X112810424Y-140948685D01*
X112814384Y-140947045D01*
X112814389Y-140947043D01*
X112936928Y-140896285D01*
X113063433Y-140843885D01*
X113299879Y-140705717D01*
X113515386Y-140536738D01*
X113557106Y-140493687D01*
X113702983Y-140343153D01*
X113705966Y-140340075D01*
X113708499Y-140336627D01*
X113708503Y-140336622D01*
X113865554Y-140122822D01*
X113868092Y-140119367D01*
X113895451Y-140068978D01*
X113996715Y-139882474D01*
X113996716Y-139882472D01*
X113998765Y-139878698D01*
X114055181Y-139729398D01*
X114094048Y-139626539D01*
X114094049Y-139626535D01*
X114095566Y-139622521D01*
X114127448Y-139483316D01*
X114155746Y-139359761D01*
X114155747Y-139359757D01*
X114156704Y-139355577D01*
X114158057Y-139340424D01*
X114180828Y-139085271D01*
X114180828Y-139085269D01*
X114181048Y-139082805D01*
X114181129Y-139075128D01*
X114181418Y-139047522D01*
X120060224Y-139047522D01*
X120062691Y-139056153D01*
X120068350Y-139075954D01*
X120071928Y-139092716D01*
X120076120Y-139121988D01*
X120079834Y-139130156D01*
X120079834Y-139130157D01*
X120086748Y-139145363D01*
X120093196Y-139162887D01*
X120100251Y-139187572D01*
X120105043Y-139195166D01*
X120105044Y-139195169D01*
X120116030Y-139212581D01*
X120124169Y-139227664D01*
X120136408Y-139254583D01*
X120142269Y-139261385D01*
X120153170Y-139274036D01*
X120164273Y-139289040D01*
X120177976Y-139310759D01*
X120184701Y-139316698D01*
X120184704Y-139316702D01*
X120200138Y-139330333D01*
X120212182Y-139342525D01*
X120225627Y-139358128D01*
X120225630Y-139358130D01*
X120231487Y-139364928D01*
X120239016Y-139369808D01*
X120239017Y-139369809D01*
X120253035Y-139378895D01*
X120267909Y-139390186D01*
X120280417Y-139401232D01*
X120287151Y-139407179D01*
X120313911Y-139419743D01*
X120328891Y-139428064D01*
X120346183Y-139439272D01*
X120346188Y-139439274D01*
X120353715Y-139444153D01*
X120362308Y-139446723D01*
X120362313Y-139446725D01*
X120378320Y-139451512D01*
X120395764Y-139458173D01*
X120410876Y-139465268D01*
X120410878Y-139465269D01*
X120419000Y-139469082D01*
X120427867Y-139470463D01*
X120427868Y-139470463D01*
X120430553Y-139470881D01*
X120448217Y-139473631D01*
X120464932Y-139477414D01*
X120484666Y-139483316D01*
X120484672Y-139483317D01*
X120493266Y-139485887D01*
X120502237Y-139485942D01*
X120502238Y-139485942D01*
X120512297Y-139486003D01*
X120527706Y-139486097D01*
X120528489Y-139486130D01*
X120529586Y-139486301D01*
X120560577Y-139486301D01*
X120561347Y-139486303D01*
X120634985Y-139486753D01*
X120634986Y-139486753D01*
X120638921Y-139486777D01*
X120640265Y-139486393D01*
X120641610Y-139486301D01*
X133560577Y-139486301D01*
X133561348Y-139486303D01*
X133638921Y-139486777D01*
X133667352Y-139478651D01*
X133684115Y-139475073D01*
X133685693Y-139474847D01*
X133713387Y-139470881D01*
X133722425Y-139466772D01*
X133736762Y-139460253D01*
X133754287Y-139453805D01*
X133778971Y-139446750D01*
X133786565Y-139441958D01*
X133786568Y-139441957D01*
X133803980Y-139430971D01*
X133819065Y-139422831D01*
X133845982Y-139410593D01*
X133865435Y-139393831D01*
X133880439Y-139382728D01*
X133902158Y-139369025D01*
X133908097Y-139362300D01*
X133908101Y-139362297D01*
X133921732Y-139346863D01*
X133933924Y-139334819D01*
X133949527Y-139321374D01*
X133949529Y-139321371D01*
X133956327Y-139315514D01*
X133970294Y-139293966D01*
X133981585Y-139279092D01*
X133992631Y-139266584D01*
X133992632Y-139266583D01*
X133998578Y-139259850D01*
X134011143Y-139233088D01*
X134019463Y-139218110D01*
X134030671Y-139200818D01*
X134030673Y-139200813D01*
X134035552Y-139193286D01*
X134038122Y-139184693D01*
X134038124Y-139184688D01*
X134042911Y-139168681D01*
X134049572Y-139151237D01*
X134056667Y-139136125D01*
X134056668Y-139136123D01*
X134060481Y-139128001D01*
X134065030Y-139098784D01*
X134068813Y-139082069D01*
X134074715Y-139062335D01*
X134074716Y-139062329D01*
X134077286Y-139053735D01*
X134077382Y-139038109D01*
X134077437Y-139028964D01*
X134077496Y-139019295D01*
X134077529Y-139018512D01*
X134077700Y-139017415D01*
X134077700Y-138986424D01*
X134077702Y-138985654D01*
X134078152Y-138912016D01*
X134078152Y-138912015D01*
X134078176Y-138908080D01*
X134077792Y-138906736D01*
X134077700Y-138905391D01*
X134077700Y-138392670D01*
X137412160Y-138392670D01*
X137417887Y-138400320D01*
X137589042Y-138505205D01*
X137597837Y-138509687D01*
X137807988Y-138596734D01*
X137817373Y-138599783D01*
X138038554Y-138652885D01*
X138048301Y-138654428D01*
X138275070Y-138672275D01*
X138284930Y-138672275D01*
X138511699Y-138654428D01*
X138521446Y-138652885D01*
X138742627Y-138599783D01*
X138752012Y-138596734D01*
X138962163Y-138509687D01*
X138970958Y-138505205D01*
X139138445Y-138402568D01*
X139147400Y-138392670D01*
X143912160Y-138392670D01*
X143917887Y-138400320D01*
X144089042Y-138505205D01*
X144097837Y-138509687D01*
X144307988Y-138596734D01*
X144317373Y-138599783D01*
X144538554Y-138652885D01*
X144548301Y-138654428D01*
X144775070Y-138672275D01*
X144784930Y-138672275D01*
X145011699Y-138654428D01*
X145021446Y-138652885D01*
X145242627Y-138599783D01*
X145252012Y-138596734D01*
X145462163Y-138509687D01*
X145470958Y-138505205D01*
X145638445Y-138402568D01*
X145647400Y-138392670D01*
X150112160Y-138392670D01*
X150117887Y-138400320D01*
X150289042Y-138505205D01*
X150297837Y-138509687D01*
X150507988Y-138596734D01*
X150517373Y-138599783D01*
X150738554Y-138652885D01*
X150748301Y-138654428D01*
X150975070Y-138672275D01*
X150984930Y-138672275D01*
X151211699Y-138654428D01*
X151221446Y-138652885D01*
X151442627Y-138599783D01*
X151452012Y-138596734D01*
X151662163Y-138509687D01*
X151670958Y-138505205D01*
X151838445Y-138402568D01*
X151847400Y-138392670D01*
X156612160Y-138392670D01*
X156617887Y-138400320D01*
X156789042Y-138505205D01*
X156797837Y-138509687D01*
X157007988Y-138596734D01*
X157017373Y-138599783D01*
X157238554Y-138652885D01*
X157248301Y-138654428D01*
X157475070Y-138672275D01*
X157484930Y-138672275D01*
X157711699Y-138654428D01*
X157721446Y-138652885D01*
X157942627Y-138599783D01*
X157952012Y-138596734D01*
X158162163Y-138509687D01*
X158170958Y-138505205D01*
X158338445Y-138402568D01*
X158347907Y-138392110D01*
X158344124Y-138383334D01*
X157492812Y-137532022D01*
X157478868Y-137524408D01*
X157477035Y-137524539D01*
X157470420Y-137528790D01*
X156618920Y-138380290D01*
X156612160Y-138392670D01*
X151847400Y-138392670D01*
X151847907Y-138392110D01*
X151844124Y-138383334D01*
X150992812Y-137532022D01*
X150978868Y-137524408D01*
X150977035Y-137524539D01*
X150970420Y-137528790D01*
X150118920Y-138380290D01*
X150112160Y-138392670D01*
X145647400Y-138392670D01*
X145647907Y-138392110D01*
X145644124Y-138383334D01*
X144792812Y-137532022D01*
X144778868Y-137524408D01*
X144777035Y-137524539D01*
X144770420Y-137528790D01*
X143918920Y-138380290D01*
X143912160Y-138392670D01*
X139147400Y-138392670D01*
X139147907Y-138392110D01*
X139144124Y-138383334D01*
X138292812Y-137532022D01*
X138278868Y-137524408D01*
X138277035Y-137524539D01*
X138270420Y-137528790D01*
X137418920Y-138380290D01*
X137412160Y-138392670D01*
X134077700Y-138392670D01*
X134077700Y-137164930D01*
X136767725Y-137164930D01*
X136785572Y-137391699D01*
X136787115Y-137401446D01*
X136840217Y-137622627D01*
X136843266Y-137632012D01*
X136930313Y-137842163D01*
X136934795Y-137850958D01*
X137037432Y-138018445D01*
X137047890Y-138027907D01*
X137056666Y-138024124D01*
X137907978Y-137172812D01*
X137914356Y-137161132D01*
X138644408Y-137161132D01*
X138644539Y-137162965D01*
X138648790Y-137169580D01*
X139500290Y-138021080D01*
X139512670Y-138027840D01*
X139520320Y-138022113D01*
X139625205Y-137850958D01*
X139629687Y-137842163D01*
X139716734Y-137632012D01*
X139719783Y-137622627D01*
X139772885Y-137401446D01*
X139774428Y-137391699D01*
X139792275Y-137164930D01*
X143267725Y-137164930D01*
X143285572Y-137391699D01*
X143287115Y-137401446D01*
X143340217Y-137622627D01*
X143343266Y-137632012D01*
X143430313Y-137842163D01*
X143434795Y-137850958D01*
X143537432Y-138018445D01*
X143547890Y-138027907D01*
X143556666Y-138024124D01*
X144407978Y-137172812D01*
X144414356Y-137161132D01*
X145144408Y-137161132D01*
X145144539Y-137162965D01*
X145148790Y-137169580D01*
X146000290Y-138021080D01*
X146012670Y-138027840D01*
X146020320Y-138022113D01*
X146125205Y-137850958D01*
X146129687Y-137842163D01*
X146216734Y-137632012D01*
X146219783Y-137622627D01*
X146272885Y-137401446D01*
X146274428Y-137391699D01*
X146292275Y-137164930D01*
X149467725Y-137164930D01*
X149485572Y-137391699D01*
X149487115Y-137401446D01*
X149540217Y-137622627D01*
X149543266Y-137632012D01*
X149630313Y-137842163D01*
X149634795Y-137850958D01*
X149737432Y-138018445D01*
X149747890Y-138027907D01*
X149756666Y-138024124D01*
X150607978Y-137172812D01*
X150614356Y-137161132D01*
X151344408Y-137161132D01*
X151344539Y-137162965D01*
X151348790Y-137169580D01*
X152200290Y-138021080D01*
X152212670Y-138027840D01*
X152220320Y-138022113D01*
X152325205Y-137850958D01*
X152329687Y-137842163D01*
X152416734Y-137632012D01*
X152419783Y-137622627D01*
X152472885Y-137401446D01*
X152474428Y-137391699D01*
X152492275Y-137164930D01*
X155967725Y-137164930D01*
X155985572Y-137391699D01*
X155987115Y-137401446D01*
X156040217Y-137622627D01*
X156043266Y-137632012D01*
X156130313Y-137842163D01*
X156134795Y-137850958D01*
X156237432Y-138018445D01*
X156247890Y-138027907D01*
X156256666Y-138024124D01*
X157107978Y-137172812D01*
X157114356Y-137161132D01*
X157844408Y-137161132D01*
X157844539Y-137162965D01*
X157848790Y-137169580D01*
X158700290Y-138021080D01*
X158712670Y-138027840D01*
X158720320Y-138022113D01*
X158825205Y-137850958D01*
X158829687Y-137842163D01*
X158916734Y-137632012D01*
X158919783Y-137622627D01*
X158972885Y-137401446D01*
X158974428Y-137391699D01*
X158992275Y-137164930D01*
X162167725Y-137164930D01*
X162185572Y-137391699D01*
X162187115Y-137401446D01*
X162240217Y-137622627D01*
X162243266Y-137632012D01*
X162330313Y-137842163D01*
X162334795Y-137850958D01*
X162437432Y-138018445D01*
X162447890Y-138027907D01*
X162456666Y-138024124D01*
X163307978Y-137172812D01*
X163314356Y-137161132D01*
X164044408Y-137161132D01*
X164044539Y-137162965D01*
X164048790Y-137169580D01*
X164900290Y-138021080D01*
X164912670Y-138027840D01*
X164920320Y-138022113D01*
X165025205Y-137850958D01*
X165029687Y-137842163D01*
X165116734Y-137632012D01*
X165119783Y-137622627D01*
X165172885Y-137401446D01*
X165174428Y-137391699D01*
X165192275Y-137164930D01*
X168667725Y-137164930D01*
X168685572Y-137391699D01*
X168687115Y-137401446D01*
X168740217Y-137622627D01*
X168743266Y-137632012D01*
X168830313Y-137842163D01*
X168834795Y-137850958D01*
X168937432Y-138018445D01*
X168947890Y-138027907D01*
X168956666Y-138024124D01*
X169807978Y-137172812D01*
X169814356Y-137161132D01*
X170544408Y-137161132D01*
X170544539Y-137162965D01*
X170548790Y-137169580D01*
X171400290Y-138021080D01*
X171412670Y-138027840D01*
X171420320Y-138022113D01*
X171525205Y-137850958D01*
X171529687Y-137842163D01*
X171616734Y-137632012D01*
X171619783Y-137622627D01*
X171672885Y-137401446D01*
X171674428Y-137391699D01*
X171692275Y-137164930D01*
X174815725Y-137164930D01*
X174833572Y-137391699D01*
X174835115Y-137401446D01*
X174888217Y-137622627D01*
X174891266Y-137632012D01*
X174978313Y-137842163D01*
X174982795Y-137850958D01*
X175085432Y-138018445D01*
X175095890Y-138027907D01*
X175104666Y-138024124D01*
X175955978Y-137172812D01*
X175962356Y-137161132D01*
X176692408Y-137161132D01*
X176692539Y-137162965D01*
X176696790Y-137169580D01*
X177548290Y-138021080D01*
X177560670Y-138027840D01*
X177568320Y-138022113D01*
X177673205Y-137850958D01*
X177677687Y-137842163D01*
X177764734Y-137632012D01*
X177767783Y-137622627D01*
X177820885Y-137401446D01*
X177822428Y-137391699D01*
X177840275Y-137164930D01*
X181315725Y-137164930D01*
X181333572Y-137391699D01*
X181335115Y-137401446D01*
X181388217Y-137622627D01*
X181391266Y-137632012D01*
X181478313Y-137842163D01*
X181482795Y-137850958D01*
X181585432Y-138018445D01*
X181595890Y-138027907D01*
X181604666Y-138024124D01*
X182455978Y-137172812D01*
X182462356Y-137161132D01*
X183192408Y-137161132D01*
X183192539Y-137162965D01*
X183196790Y-137169580D01*
X184048290Y-138021080D01*
X184060670Y-138027840D01*
X184068320Y-138022113D01*
X184173205Y-137850958D01*
X184177687Y-137842163D01*
X184264734Y-137632012D01*
X184267783Y-137622627D01*
X184320885Y-137401446D01*
X184322428Y-137391699D01*
X184340275Y-137164930D01*
X184340275Y-137155070D01*
X184322428Y-136928301D01*
X184320885Y-136918554D01*
X184267783Y-136697373D01*
X184264734Y-136687988D01*
X184177687Y-136477837D01*
X184173205Y-136469042D01*
X184070568Y-136301555D01*
X184060110Y-136292093D01*
X184051334Y-136295876D01*
X183200022Y-137147188D01*
X183192408Y-137161132D01*
X182462356Y-137161132D01*
X182463592Y-137158868D01*
X182463461Y-137157035D01*
X182459210Y-137150420D01*
X181607710Y-136298920D01*
X181595330Y-136292160D01*
X181587680Y-136297887D01*
X181482795Y-136469042D01*
X181478313Y-136477837D01*
X181391266Y-136687988D01*
X181388217Y-136697373D01*
X181335115Y-136918554D01*
X181333572Y-136928301D01*
X181315725Y-137155070D01*
X181315725Y-137164930D01*
X177840275Y-137164930D01*
X177840275Y-137155070D01*
X177822428Y-136928301D01*
X177820885Y-136918554D01*
X177767783Y-136697373D01*
X177764734Y-136687988D01*
X177677687Y-136477837D01*
X177673205Y-136469042D01*
X177570568Y-136301555D01*
X177560110Y-136292093D01*
X177551334Y-136295876D01*
X176700022Y-137147188D01*
X176692408Y-137161132D01*
X175962356Y-137161132D01*
X175963592Y-137158868D01*
X175963461Y-137157035D01*
X175959210Y-137150420D01*
X175107710Y-136298920D01*
X175095330Y-136292160D01*
X175087680Y-136297887D01*
X174982795Y-136469042D01*
X174978313Y-136477837D01*
X174891266Y-136687988D01*
X174888217Y-136697373D01*
X174835115Y-136918554D01*
X174833572Y-136928301D01*
X174815725Y-137155070D01*
X174815725Y-137164930D01*
X171692275Y-137164930D01*
X171692275Y-137155070D01*
X171674428Y-136928301D01*
X171672885Y-136918554D01*
X171619783Y-136697373D01*
X171616734Y-136687988D01*
X171529687Y-136477837D01*
X171525205Y-136469042D01*
X171422568Y-136301555D01*
X171412110Y-136292093D01*
X171403334Y-136295876D01*
X170552022Y-137147188D01*
X170544408Y-137161132D01*
X169814356Y-137161132D01*
X169815592Y-137158868D01*
X169815461Y-137157035D01*
X169811210Y-137150420D01*
X168959710Y-136298920D01*
X168947330Y-136292160D01*
X168939680Y-136297887D01*
X168834795Y-136469042D01*
X168830313Y-136477837D01*
X168743266Y-136687988D01*
X168740217Y-136697373D01*
X168687115Y-136918554D01*
X168685572Y-136928301D01*
X168667725Y-137155070D01*
X168667725Y-137164930D01*
X165192275Y-137164930D01*
X165192275Y-137155070D01*
X165174428Y-136928301D01*
X165172885Y-136918554D01*
X165119783Y-136697373D01*
X165116734Y-136687988D01*
X165029687Y-136477837D01*
X165025205Y-136469042D01*
X164922568Y-136301555D01*
X164912110Y-136292093D01*
X164903334Y-136295876D01*
X164052022Y-137147188D01*
X164044408Y-137161132D01*
X163314356Y-137161132D01*
X163315592Y-137158868D01*
X163315461Y-137157035D01*
X163311210Y-137150420D01*
X162459710Y-136298920D01*
X162447330Y-136292160D01*
X162439680Y-136297887D01*
X162334795Y-136469042D01*
X162330313Y-136477837D01*
X162243266Y-136687988D01*
X162240217Y-136697373D01*
X162187115Y-136918554D01*
X162185572Y-136928301D01*
X162167725Y-137155070D01*
X162167725Y-137164930D01*
X158992275Y-137164930D01*
X158992275Y-137155070D01*
X158974428Y-136928301D01*
X158972885Y-136918554D01*
X158919783Y-136697373D01*
X158916734Y-136687988D01*
X158829687Y-136477837D01*
X158825205Y-136469042D01*
X158722568Y-136301555D01*
X158712110Y-136292093D01*
X158703334Y-136295876D01*
X157852022Y-137147188D01*
X157844408Y-137161132D01*
X157114356Y-137161132D01*
X157115592Y-137158868D01*
X157115461Y-137157035D01*
X157111210Y-137150420D01*
X156259710Y-136298920D01*
X156247330Y-136292160D01*
X156239680Y-136297887D01*
X156134795Y-136469042D01*
X156130313Y-136477837D01*
X156043266Y-136687988D01*
X156040217Y-136697373D01*
X155987115Y-136918554D01*
X155985572Y-136928301D01*
X155967725Y-137155070D01*
X155967725Y-137164930D01*
X152492275Y-137164930D01*
X152492275Y-137155070D01*
X152474428Y-136928301D01*
X152472885Y-136918554D01*
X152419783Y-136697373D01*
X152416734Y-136687988D01*
X152329687Y-136477837D01*
X152325205Y-136469042D01*
X152222568Y-136301555D01*
X152212110Y-136292093D01*
X152203334Y-136295876D01*
X151352022Y-137147188D01*
X151344408Y-137161132D01*
X150614356Y-137161132D01*
X150615592Y-137158868D01*
X150615461Y-137157035D01*
X150611210Y-137150420D01*
X149759710Y-136298920D01*
X149747330Y-136292160D01*
X149739680Y-136297887D01*
X149634795Y-136469042D01*
X149630313Y-136477837D01*
X149543266Y-136687988D01*
X149540217Y-136697373D01*
X149487115Y-136918554D01*
X149485572Y-136928301D01*
X149467725Y-137155070D01*
X149467725Y-137164930D01*
X146292275Y-137164930D01*
X146292275Y-137155070D01*
X146274428Y-136928301D01*
X146272885Y-136918554D01*
X146219783Y-136697373D01*
X146216734Y-136687988D01*
X146129687Y-136477837D01*
X146125205Y-136469042D01*
X146022568Y-136301555D01*
X146012110Y-136292093D01*
X146003334Y-136295876D01*
X145152022Y-137147188D01*
X145144408Y-137161132D01*
X144414356Y-137161132D01*
X144415592Y-137158868D01*
X144415461Y-137157035D01*
X144411210Y-137150420D01*
X143559710Y-136298920D01*
X143547330Y-136292160D01*
X143539680Y-136297887D01*
X143434795Y-136469042D01*
X143430313Y-136477837D01*
X143343266Y-136687988D01*
X143340217Y-136697373D01*
X143287115Y-136918554D01*
X143285572Y-136928301D01*
X143267725Y-137155070D01*
X143267725Y-137164930D01*
X139792275Y-137164930D01*
X139792275Y-137155070D01*
X139774428Y-136928301D01*
X139772885Y-136918554D01*
X139719783Y-136697373D01*
X139716734Y-136687988D01*
X139629687Y-136477837D01*
X139625205Y-136469042D01*
X139522568Y-136301555D01*
X139512110Y-136292093D01*
X139503334Y-136295876D01*
X138652022Y-137147188D01*
X138644408Y-137161132D01*
X137914356Y-137161132D01*
X137915592Y-137158868D01*
X137915461Y-137157035D01*
X137911210Y-137150420D01*
X137059710Y-136298920D01*
X137047330Y-136292160D01*
X137039680Y-136297887D01*
X136934795Y-136469042D01*
X136930313Y-136477837D01*
X136843266Y-136687988D01*
X136840217Y-136697373D01*
X136787115Y-136918554D01*
X136785572Y-136928301D01*
X136767725Y-137155070D01*
X136767725Y-137164930D01*
X134077700Y-137164930D01*
X134077700Y-119386424D01*
X134077702Y-119385654D01*
X134078000Y-119336903D01*
X134078176Y-119308080D01*
X134070050Y-119279648D01*
X134066472Y-119262886D01*
X134063552Y-119242499D01*
X134062280Y-119233614D01*
X134051651Y-119210237D01*
X134045204Y-119192714D01*
X134040616Y-119176663D01*
X134038149Y-119168030D01*
X134033356Y-119160433D01*
X134022370Y-119143021D01*
X134014230Y-119127936D01*
X134011764Y-119122512D01*
X134001992Y-119101019D01*
X133985230Y-119081566D01*
X133974127Y-119066562D01*
X133960424Y-119044843D01*
X133953699Y-119038904D01*
X133953696Y-119038900D01*
X133938262Y-119025269D01*
X133926218Y-119013077D01*
X133912773Y-118997474D01*
X133912770Y-118997472D01*
X133906913Y-118990674D01*
X133893209Y-118981791D01*
X133885365Y-118976707D01*
X133870491Y-118965416D01*
X133857983Y-118954370D01*
X133857982Y-118954369D01*
X133851249Y-118948423D01*
X133824487Y-118935858D01*
X133809509Y-118927538D01*
X133792217Y-118916330D01*
X133792212Y-118916328D01*
X133784685Y-118911449D01*
X133776092Y-118908879D01*
X133776087Y-118908877D01*
X133760080Y-118904090D01*
X133742636Y-118897429D01*
X133727524Y-118890334D01*
X133727522Y-118890333D01*
X133719400Y-118886520D01*
X133710533Y-118885139D01*
X133710532Y-118885139D01*
X133699678Y-118883449D01*
X133690183Y-118881971D01*
X133673468Y-118878188D01*
X133653734Y-118872286D01*
X133653728Y-118872285D01*
X133645134Y-118869715D01*
X133636163Y-118869660D01*
X133636162Y-118869660D01*
X133626103Y-118869599D01*
X133610694Y-118869505D01*
X133609911Y-118869472D01*
X133608814Y-118869301D01*
X133577823Y-118869301D01*
X133577053Y-118869299D01*
X133503415Y-118868849D01*
X133503414Y-118868849D01*
X133499479Y-118868825D01*
X133498135Y-118869209D01*
X133496790Y-118869301D01*
X120577823Y-118869301D01*
X120577053Y-118869299D01*
X120576237Y-118869294D01*
X120499479Y-118868825D01*
X120477118Y-118875216D01*
X120471047Y-118876951D01*
X120454285Y-118880529D01*
X120425013Y-118884721D01*
X120416845Y-118888435D01*
X120416844Y-118888435D01*
X120401638Y-118895349D01*
X120384114Y-118901797D01*
X120359429Y-118908852D01*
X120351835Y-118913644D01*
X120351832Y-118913645D01*
X120334420Y-118924631D01*
X120319337Y-118932770D01*
X120292418Y-118945009D01*
X120285616Y-118950870D01*
X120272965Y-118961771D01*
X120257961Y-118972874D01*
X120236242Y-118986577D01*
X120230303Y-118993302D01*
X120230299Y-118993305D01*
X120216668Y-119008739D01*
X120204476Y-119020783D01*
X120188873Y-119034228D01*
X120188871Y-119034231D01*
X120182073Y-119040088D01*
X120177193Y-119047617D01*
X120177192Y-119047618D01*
X120168106Y-119061636D01*
X120156815Y-119076510D01*
X120145769Y-119089018D01*
X120139822Y-119095752D01*
X120133512Y-119109192D01*
X120127258Y-119122512D01*
X120118937Y-119137492D01*
X120107729Y-119154784D01*
X120107727Y-119154789D01*
X120102848Y-119162316D01*
X120100278Y-119170909D01*
X120100276Y-119170914D01*
X120095489Y-119186921D01*
X120088828Y-119204365D01*
X120081733Y-119219477D01*
X120077919Y-119227601D01*
X120076538Y-119236468D01*
X120076538Y-119236469D01*
X120073370Y-119256816D01*
X120069587Y-119273533D01*
X120063685Y-119293267D01*
X120063684Y-119293273D01*
X120061114Y-119301867D01*
X120061059Y-119310838D01*
X120061059Y-119310839D01*
X120060904Y-119336298D01*
X120060871Y-119337090D01*
X120060700Y-119338187D01*
X120060700Y-119369178D01*
X120060698Y-119369948D01*
X120060224Y-119447522D01*
X120060608Y-119448866D01*
X120060700Y-119450211D01*
X120060700Y-138969178D01*
X120060698Y-138969948D01*
X120060224Y-139047522D01*
X114181418Y-139047522D01*
X114181464Y-139043128D01*
X114181464Y-139043127D01*
X114181490Y-139040644D01*
X114180345Y-139023844D01*
X114163156Y-138771699D01*
X114163155Y-138771693D01*
X114162864Y-138767422D01*
X114159437Y-138750871D01*
X114114431Y-138533550D01*
X114107329Y-138499256D01*
X114015914Y-138241109D01*
X113890310Y-137997756D01*
X113880337Y-137983565D01*
X113766432Y-137821495D01*
X113732842Y-137773701D01*
X113546422Y-137573089D01*
X113543107Y-137570375D01*
X113543103Y-137570372D01*
X113337820Y-137402350D01*
X113334502Y-137399634D01*
X113101001Y-137256545D01*
X113097065Y-137254817D01*
X112854170Y-137148193D01*
X112854166Y-137148192D01*
X112850242Y-137146469D01*
X112586863Y-137071444D01*
X112582621Y-137070840D01*
X112582615Y-137070839D01*
X112382131Y-137042306D01*
X112315740Y-137032857D01*
X112171886Y-137032104D01*
X112046174Y-137031446D01*
X112046168Y-137031446D01*
X112041888Y-137031424D01*
X112037644Y-137031983D01*
X112037640Y-137031983D01*
X111918599Y-137047655D01*
X111770375Y-137067169D01*
X111766235Y-137068302D01*
X111766233Y-137068302D01*
X111691031Y-137088875D01*
X111616143Y-137109362D01*
X111545159Y-137108044D01*
X111486155Y-137068559D01*
X111457866Y-137003441D01*
X111469273Y-136933367D01*
X111493800Y-136898733D01*
X115338711Y-133053823D01*
X115354726Y-133040276D01*
X115355056Y-133040041D01*
X115371083Y-133028630D01*
X115380067Y-133019863D01*
X115382984Y-133015971D01*
X115384729Y-133013983D01*
X115388083Y-133009870D01*
X115400126Y-132996276D01*
X115580863Y-132792265D01*
X115753255Y-132542511D01*
X115755025Y-132539140D01*
X115881685Y-132297806D01*
X115894286Y-132273797D01*
X116001899Y-131990044D01*
X116004964Y-131977611D01*
X116073613Y-131699084D01*
X116073614Y-131699081D01*
X116074524Y-131695388D01*
X116111103Y-131394127D01*
X116111101Y-131090653D01*
X116091030Y-130925355D01*
X116074979Y-130793173D01*
X116074520Y-130789392D01*
X116057704Y-130721166D01*
X116002802Y-130498422D01*
X116002800Y-130498415D01*
X116001893Y-130494736D01*
X115894278Y-130210984D01*
X115753245Y-129942272D01*
X115580850Y-129692519D01*
X115400104Y-129488502D01*
X115391777Y-129478031D01*
X115391660Y-129477867D01*
X115391652Y-129477857D01*
X115388831Y-129473895D01*
X115380064Y-129464911D01*
X115357722Y-129448167D01*
X115344198Y-129436440D01*
X113053036Y-127145279D01*
X113040391Y-127130514D01*
X113031533Y-127118389D01*
X113031527Y-127118383D01*
X113026233Y-127111136D01*
X113014039Y-127101762D01*
X112995609Y-127084382D01*
X112934691Y-127014079D01*
X112884665Y-126956346D01*
X112873899Y-126941965D01*
X112768584Y-126778092D01*
X112759976Y-126762328D01*
X112679051Y-126585129D01*
X112672773Y-126568295D01*
X112617894Y-126381396D01*
X112614073Y-126363829D01*
X112586353Y-126171036D01*
X112585070Y-126153105D01*
X112585069Y-125958319D01*
X112586351Y-125940388D01*
X112614071Y-125747576D01*
X112617890Y-125730021D01*
X112672766Y-125543126D01*
X112679048Y-125526283D01*
X112759962Y-125349099D01*
X112768572Y-125333329D01*
X112873886Y-125169453D01*
X112884656Y-125155066D01*
X112990863Y-125032493D01*
X113004494Y-125019950D01*
X113010113Y-125014467D01*
X113017362Y-125009171D01*
X113036766Y-124983928D01*
X113047568Y-124971623D01*
X133810300Y-104208891D01*
X133826315Y-104195344D01*
X133828207Y-104193997D01*
X133842672Y-104183698D01*
X133851656Y-104174931D01*
X133857098Y-104167670D01*
X133863991Y-104159254D01*
X133867986Y-104154786D01*
X134037884Y-103964743D01*
X134200480Y-103735872D01*
X134336525Y-103490290D01*
X134444322Y-103231062D01*
X134522524Y-102961426D01*
X134523569Y-102955359D01*
X134569555Y-102688233D01*
X134570155Y-102684749D01*
X134584517Y-102440277D01*
X134586105Y-102426415D01*
X134586887Y-102421846D01*
X134586887Y-102421841D01*
X134587709Y-102417040D01*
X134587897Y-102404488D01*
X134587222Y-102399680D01*
X134587221Y-102399663D01*
X134584019Y-102376858D01*
X134582795Y-102358988D01*
X134582801Y-102357059D01*
X134614207Y-91143180D01*
X134626457Y-86769504D01*
X134646650Y-86701440D01*
X134700436Y-86655097D01*
X134770738Y-86645190D01*
X134833277Y-86673193D01*
X134939221Y-86761775D01*
X134942862Y-86764059D01*
X135167570Y-86905019D01*
X135167574Y-86905021D01*
X135171210Y-86907302D01*
X135270453Y-86952112D01*
X135416891Y-87018232D01*
X135416895Y-87018234D01*
X135420803Y-87019998D01*
X135424923Y-87021218D01*
X135424922Y-87021218D01*
X135679269Y-87096559D01*
X135679273Y-87096560D01*
X135683382Y-87097777D01*
X135687616Y-87098425D01*
X135687621Y-87098426D01*
X135949844Y-87138551D01*
X135949846Y-87138551D01*
X135954086Y-87139200D01*
X136092143Y-87141369D01*
X136223617Y-87143435D01*
X136223623Y-87143435D01*
X136227908Y-87143502D01*
X136499781Y-87110602D01*
X136764673Y-87041109D01*
X136768633Y-87039469D01*
X136768638Y-87039467D01*
X136914726Y-86978955D01*
X137017682Y-86936309D01*
X137254128Y-86798141D01*
X137469635Y-86629162D01*
X137511355Y-86586111D01*
X137657232Y-86435577D01*
X137660215Y-86432499D01*
X137662748Y-86429051D01*
X137662752Y-86429046D01*
X137819803Y-86215246D01*
X137822341Y-86211791D01*
X137847717Y-86165055D01*
X137950964Y-85974898D01*
X137950965Y-85974896D01*
X137953014Y-85971122D01*
X138009430Y-85821822D01*
X138048297Y-85718963D01*
X138048298Y-85718959D01*
X138049815Y-85714945D01*
X138090719Y-85536347D01*
X138109995Y-85452185D01*
X138109996Y-85452181D01*
X138110953Y-85448001D01*
X138115457Y-85397543D01*
X138135077Y-85177695D01*
X138135077Y-85177693D01*
X138135297Y-85175229D01*
X138135739Y-85133068D01*
X138124741Y-84971734D01*
X138117405Y-84864123D01*
X138117404Y-84864117D01*
X138117113Y-84859846D01*
X138061578Y-84591680D01*
X137970163Y-84333533D01*
X137844559Y-84090180D01*
X137687091Y-83866125D01*
X137542311Y-83710323D01*
X137503592Y-83668656D01*
X137503589Y-83668653D01*
X137500671Y-83665513D01*
X137497356Y-83662799D01*
X137497352Y-83662796D01*
X137340762Y-83534629D01*
X137288751Y-83492058D01*
X137055250Y-83348969D01*
X137051314Y-83347241D01*
X136808419Y-83240617D01*
X136808415Y-83240616D01*
X136804491Y-83238893D01*
X136541112Y-83163868D01*
X136536870Y-83163264D01*
X136536864Y-83163263D01*
X136336380Y-83134730D01*
X136269989Y-83125281D01*
X136126135Y-83124528D01*
X136000423Y-83123870D01*
X136000417Y-83123870D01*
X135996137Y-83123848D01*
X135991893Y-83124407D01*
X135991889Y-83124407D01*
X135872848Y-83140079D01*
X135724624Y-83159593D01*
X135720484Y-83160726D01*
X135720482Y-83160726D01*
X135684038Y-83170696D01*
X135460474Y-83231856D01*
X135456526Y-83233540D01*
X135212528Y-83337614D01*
X135212524Y-83337616D01*
X135208576Y-83339300D01*
X135188671Y-83351213D01*
X134977271Y-83477732D01*
X134977267Y-83477735D01*
X134973589Y-83479936D01*
X134970246Y-83482614D01*
X134970242Y-83482617D01*
X134835835Y-83590298D01*
X134770165Y-83617280D01*
X134700333Y-83604475D01*
X134648509Y-83555948D01*
X134631054Y-83491964D01*
X134631054Y-81565069D01*
X139627001Y-81565069D01*
X139627371Y-81571890D01*
X139632895Y-81622752D01*
X139636521Y-81638004D01*
X139681676Y-81758454D01*
X139690214Y-81774049D01*
X139766715Y-81876124D01*
X139779276Y-81888685D01*
X139881351Y-81965186D01*
X139896946Y-81973724D01*
X140017394Y-82018878D01*
X140032649Y-82022505D01*
X140083514Y-82028031D01*
X140090328Y-82028400D01*
X140712885Y-82028400D01*
X140728124Y-82023925D01*
X140729329Y-82022535D01*
X140731000Y-82014852D01*
X140731000Y-80942515D01*
X140726525Y-80927276D01*
X140725135Y-80926071D01*
X140717452Y-80924400D01*
X139645116Y-80924400D01*
X139629877Y-80928875D01*
X139628672Y-80930265D01*
X139627001Y-80937948D01*
X139627001Y-81565069D01*
X134631054Y-81565069D01*
X134631054Y-80398285D01*
X139627000Y-80398285D01*
X139631475Y-80413524D01*
X139632865Y-80414729D01*
X139640548Y-80416400D01*
X140712885Y-80416400D01*
X140728124Y-80411925D01*
X140729329Y-80410535D01*
X140731000Y-80402852D01*
X140731000Y-79330516D01*
X140726525Y-79315277D01*
X140725135Y-79314072D01*
X140717452Y-79312401D01*
X140090331Y-79312401D01*
X140083510Y-79312771D01*
X140032648Y-79318295D01*
X140017396Y-79321921D01*
X139896946Y-79367076D01*
X139881351Y-79375614D01*
X139779276Y-79452115D01*
X139766715Y-79464676D01*
X139690214Y-79566751D01*
X139681676Y-79582346D01*
X139636522Y-79702794D01*
X139632895Y-79718049D01*
X139627369Y-79768914D01*
X139627000Y-79775728D01*
X139627000Y-80398285D01*
X134631054Y-80398285D01*
X134631054Y-78227280D01*
X134632554Y-78207895D01*
X134634864Y-78193062D01*
X134634864Y-78193058D01*
X134636245Y-78184189D01*
X134634250Y-78168933D01*
X134633507Y-78143609D01*
X134635859Y-78110717D01*
X134645591Y-77974631D01*
X134648149Y-77956840D01*
X134648664Y-77954476D01*
X134689552Y-77766503D01*
X134694617Y-77749254D01*
X134762685Y-77566750D01*
X134770147Y-77550409D01*
X134863508Y-77379423D01*
X134873219Y-77364314D01*
X134934396Y-77282590D01*
X134989950Y-77208376D01*
X135001722Y-77194790D01*
X135139453Y-77057054D01*
X135153039Y-77045281D01*
X135186971Y-77019879D01*
X135308982Y-76928540D01*
X135324086Y-76918833D01*
X135495055Y-76825472D01*
X135511401Y-76818007D01*
X135693912Y-76749930D01*
X135711161Y-76744865D01*
X135901493Y-76703456D01*
X135919288Y-76700897D01*
X136080887Y-76689336D01*
X136100249Y-76690140D01*
X136107416Y-76690227D01*
X136116290Y-76691609D01*
X136147845Y-76687482D01*
X136164186Y-76686418D01*
X139495500Y-76686418D01*
X139563621Y-76706420D01*
G37*
%TD.AperFunction*%
%TD*%
M02*
