M48
; DRILL file {KiCad (6.0.5)} date Tue Oct 18 22:35:14 2022
; FORMAT={-:-/ absolute / metric / decimal}
; #@! TF.CreationDate,2022-10-18T22:35:14+09:00
; #@! TF.GenerationSoftware,Kicad,Pcbnew,(6.0.5)
; #@! TF.FileFunction,Plated,1,2,PTH
FMAT,2
METRIC
; #@! TA.AperFunction,Plated,PTH,ViaDrill
T1C0.400
; #@! TA.AperFunction,Plated,PTH,ComponentDrill
T2C0.600
; #@! TA.AperFunction,Plated,PTH,ComponentDrill
T3C0.750
; #@! TA.AperFunction,Plated,PTH,ComponentDrill
T4C1.000
; #@! TA.AperFunction,Plated,PTH,ComponentDrill
T5C1.100
%
G90
G05
T1
X123.952Y-116.586
X128.524Y-110.49
X133.35Y-105.41
X135.255Y-148.59
X137.392Y-98.044
X137.645Y-91.821
X138.176Y-96.774
X138.78Y-95.758
X140.716Y-114.046
X140.97Y-122.174
X142.494Y-136.144
X144.78Y-82.042
X145.288Y-113.792
X145.542Y-122.174
X146.558Y-143.002
X146.812Y-149.606
X147.574Y-142.24
X152.146Y-91.694
X152.654Y-98.298
X153.67Y-102.108
X153.67Y-124.46
X153.924Y-116.586
X154.622Y-78.314
X155.194Y-136.144
X156.21Y-87.884
X156.464Y-146.304
X157.226Y-147.766
X158.242Y-149.86
X158.75Y-124.714
X158.75Y-147.066
X159.564Y-146.304
X160.02Y-94.488
X160.02Y-99.568
X161.29Y-86.868
X161.799Y-82.549
X163.322Y-88.646
X163.83Y-117.602
X164.338Y-124.206
X164.592Y-86.614
X164.978Y-98.42
X165.621Y-91.427
X165.825Y-80.645
X165.966Y-95.985
X166.184Y-111.828
X166.37Y-79.375
X166.853Y-98.298
X166.878Y-89.662
X167.303Y-97.028
X167.386Y-136.144
X167.64Y-77.47
X168.034Y-93.84
X168.148Y-82.296
X168.91Y-127.762
X169.164Y-107.696
X169.672Y-148.59
X170.621Y-105.477
X173.736Y-127.762
X180.34Y-136.144
X180.594Y-115.316
X183.896Y-118.618
T3
X142.24Y-108.285
X143.51Y-108.285
X144.78Y-108.285
X146.05Y-108.285
X147.32Y-108.285
X148.59Y-108.285
X149.86Y-108.285
X151.13Y-108.285
X152.4Y-108.285
X153.67Y-108.285
X154.94Y-108.285
X156.21Y-108.285
X157.48Y-108.285
X158.75Y-108.285
X160.02Y-108.285
X161.29Y-108.295
X162.56Y-108.295
T4
X127.65Y-113.035
X127.65Y-115.575
X130.19Y-113.035
X130.19Y-115.575
X132.73Y-113.035
X132.73Y-115.575
X140.965Y-84.836
X140.97Y-77.216
X140.97Y-81.026
X143.505Y-84.836
X143.51Y-77.216
X143.51Y-81.026
X146.045Y-84.836
X146.05Y-77.216
X146.05Y-81.026
X148.585Y-84.836
X148.59Y-77.216
X148.59Y-81.026
X151.125Y-84.836
X151.13Y-77.216
X151.13Y-81.026
X153.665Y-84.836
X153.67Y-77.216
X153.67Y-81.026
X156.205Y-84.836
X156.21Y-77.216
X156.21Y-81.026
X158.745Y-84.836
X158.75Y-77.216
X158.75Y-81.026
X161.285Y-84.836
X161.29Y-77.216
X161.29Y-81.026
X163.825Y-84.836
X163.83Y-77.216
X163.83Y-81.026
X172.085Y-113.665
X172.085Y-116.205
X174.625Y-113.665
X174.625Y-116.205
X177.165Y-113.665
X177.165Y-116.205
T5
X138.665Y-132.775
X138.665Y-137.275
X145.165Y-132.775
X145.165Y-137.275
X151.365Y-132.775
X151.365Y-137.275
X157.865Y-132.775
X157.865Y-137.275
X164.065Y-132.775
X164.065Y-137.275
X170.565Y-132.775
X170.565Y-137.275
X176.765Y-132.775
X176.765Y-137.275
X183.265Y-132.775
X183.265Y-137.275
T2
G00X130.935Y-143.665
M15
G01X130.935Y-144.765
M16
G05
G00X130.935Y-148.095
M15
G01X130.935Y-148.695
M16
G05
G00X139.575Y-143.665
M15
G01X139.575Y-144.765
M16
G05
G00X139.575Y-148.095
M15
G01X139.575Y-148.695
M16
G05
G00X142.365Y-144.935
M15
G01X142.365Y-146.035
M16
G05
G00X142.365Y-149.365
M15
G01X142.365Y-149.965
M16
G05
G00X151.005Y-144.935
M15
G01X151.005Y-146.035
M16
G05
G00X151.005Y-149.365
M15
G01X151.005Y-149.965
M16
G05
G00X153.795Y-144.935
M15
G01X153.795Y-146.035
M16
G05
G00X153.795Y-149.365
M15
G01X153.795Y-149.965
M16
G05
G00X162.435Y-144.935
M15
G01X162.435Y-146.035
M16
G05
G00X162.435Y-149.365
M15
G01X162.435Y-149.965
M16
G05
G00X165.225Y-143.665
M15
G01X165.225Y-144.765
M16
G05
G00X165.225Y-148.095
M15
G01X165.225Y-148.695
M16
G05
G00X173.865Y-143.665
M15
G01X173.865Y-144.765
M16
G05
G00X173.865Y-148.095
M15
G01X173.865Y-148.695
M16
G05
T0
M30
