G04 #@! TF.GenerationSoftware,KiCad,Pcbnew,(6.0.5)*
G04 #@! TF.CreationDate,2022-07-03T21:23:33+09:00*
G04 #@! TF.ProjectId,psu_board,7073755f-626f-4617-9264-2e6b69636164,rev?*
G04 #@! TF.SameCoordinates,Original*
G04 #@! TF.FileFunction,Copper,L2,Bot*
G04 #@! TF.FilePolarity,Positive*
%FSLAX46Y46*%
G04 Gerber Fmt 4.6, Leading zero omitted, Abs format (unit mm)*
G04 Created by KiCad (PCBNEW (6.0.5)) date 2022-07-03 21:23:33*
%MOMM*%
%LPD*%
G01*
G04 APERTURE LIST*
G04 Aperture macros list*
%AMRoundRect*
0 Rectangle with rounded corners*
0 $1 Rounding radius*
0 $2 $3 $4 $5 $6 $7 $8 $9 X,Y pos of 4 corners*
0 Add a 4 corners polygon primitive as box body*
4,1,4,$2,$3,$4,$5,$6,$7,$8,$9,$2,$3,0*
0 Add four circle primitives for the rounded corners*
1,1,$1+$1,$2,$3*
1,1,$1+$1,$4,$5*
1,1,$1+$1,$6,$7*
1,1,$1+$1,$8,$9*
0 Add four rect primitives between the rounded corners*
20,1,$1+$1,$2,$3,$4,$5,0*
20,1,$1+$1,$4,$5,$6,$7,0*
20,1,$1+$1,$6,$7,$8,$9,0*
20,1,$1+$1,$8,$9,$2,$3,0*%
%AMHorizOval*
0 Thick line with rounded ends*
0 $1 width*
0 $2 $3 position (X,Y) of the first rounded end (center of the circle)*
0 $4 $5 position (X,Y) of the second rounded end (center of the circle)*
0 Add line between two ends*
20,1,$1,$2,$3,$4,$5,0*
0 Add two circle primitives to create the rounded ends*
1,1,$1,$2,$3*
1,1,$1,$4,$5*%
%AMRotRect*
0 Rectangle, with rotation*
0 The origin of the aperture is its center*
0 $1 length*
0 $2 width*
0 $3 Rotation angle, in degrees counterclockwise*
0 Add horizontal line*
21,1,$1,$2,0,0,$3*%
G04 Aperture macros list end*
G04 #@! TA.AperFunction,ComponentPad*
%ADD10HorizOval,1.500000X-0.424264X-0.424264X0.424264X0.424264X0*%
G04 #@! TD*
G04 #@! TA.AperFunction,ComponentPad*
%ADD11RotRect,2.800000X2.800000X135.000000*%
G04 #@! TD*
G04 #@! TA.AperFunction,ComponentPad*
%ADD12HorizOval,2.800000X0.000000X0.000000X0.000000X0.000000X0*%
G04 #@! TD*
G04 #@! TA.AperFunction,ComponentPad*
%ADD13C,1.400000*%
G04 #@! TD*
G04 #@! TA.AperFunction,ComponentPad*
%ADD14O,1.400000X1.400000*%
G04 #@! TD*
G04 #@! TA.AperFunction,ComponentPad*
%ADD15R,1.600000X1.600000*%
G04 #@! TD*
G04 #@! TA.AperFunction,ComponentPad*
%ADD16C,1.600000*%
G04 #@! TD*
G04 #@! TA.AperFunction,ComponentPad*
%ADD17RoundRect,0.250000X-0.144615X-0.949519X0.894615X-0.349519X0.144615X0.949519X-0.894615X0.349519X0*%
G04 #@! TD*
G04 #@! TA.AperFunction,ComponentPad*
%ADD18HorizOval,1.700000X-0.075000X0.129904X0.075000X-0.129904X0*%
G04 #@! TD*
G04 #@! TA.AperFunction,ComponentPad*
%ADD19O,4.000000X2.000000*%
G04 #@! TD*
G04 #@! TA.AperFunction,ComponentPad*
%ADD20RoundRect,0.250001X-1.555634X0.000000X0.000000X-1.555634X1.555634X0.000000X0.000000X1.555634X0*%
G04 #@! TD*
G04 #@! TA.AperFunction,ComponentPad*
%ADD21C,2.700000*%
G04 #@! TD*
G04 #@! TA.AperFunction,SMDPad,CuDef*
%ADD22R,2.000000X4.000000*%
G04 #@! TD*
G04 #@! TA.AperFunction,ComponentPad*
%ADD23C,1.440000*%
G04 #@! TD*
G04 #@! TA.AperFunction,ComponentPad*
%ADD24C,1.635000*%
G04 #@! TD*
G04 #@! TA.AperFunction,ViaPad*
%ADD25C,0.800000*%
G04 #@! TD*
G04 #@! TA.AperFunction,Conductor*
%ADD26C,2.000000*%
G04 #@! TD*
G04 #@! TA.AperFunction,Conductor*
%ADD27C,1.700000*%
G04 #@! TD*
G04 APERTURE END LIST*
D10*
X125476000Y-97536000D03*
X122859705Y-94919705D03*
X131132854Y-103192854D03*
X128516559Y-100576559D03*
D11*
X127508000Y-105918000D03*
D12*
X120323795Y-98733795D03*
D13*
X148844000Y-106680000D03*
D14*
X143764000Y-106680000D03*
D15*
X157734000Y-92456000D03*
D16*
X160234000Y-92456000D03*
D17*
X165024969Y-96436337D03*
D18*
X167190033Y-95186337D03*
D13*
X133350000Y-112014000D03*
D14*
X128270000Y-112014000D03*
D19*
X157734000Y-118364000D03*
X157734000Y-124364000D03*
D13*
X143764000Y-108966000D03*
D14*
X148844000Y-108966000D03*
D20*
X128270000Y-89916000D03*
D21*
X131070143Y-92716143D03*
D15*
X157774000Y-98298000D03*
D16*
X160274000Y-98298000D03*
D22*
X135890000Y-111506000D03*
X140462000Y-111506000D03*
D17*
X168199969Y-101770337D03*
D18*
X170365033Y-100520337D03*
D15*
X136946000Y-106172000D03*
D16*
X139446000Y-106172000D03*
X132588000Y-108966000D03*
X130088000Y-108966000D03*
D17*
X171374969Y-107104337D03*
D18*
X173540033Y-105854337D03*
D23*
X162306000Y-104902000D03*
X159766000Y-104902000D03*
X157226000Y-104902000D03*
D24*
X135890000Y-100076000D03*
X135890000Y-97536000D03*
X135890000Y-94996000D03*
D16*
X139700000Y-89916000D03*
X137200000Y-89916000D03*
X166303469Y-110607000D03*
X168468533Y-109357000D03*
D25*
X143510000Y-95758000D03*
X155194000Y-95250000D03*
X143510000Y-111506000D03*
X146558000Y-97790000D03*
D26*
X122859705Y-94919705D02*
X125476000Y-97536000D01*
X127863410Y-89916000D02*
X122859705Y-94919705D01*
X128270000Y-89916000D02*
X127863410Y-89916000D01*
D27*
X130088000Y-108966000D02*
X130088000Y-107136166D01*
X170365033Y-98361337D02*
X167190033Y-95186337D01*
X121723794Y-100133794D02*
X125926206Y-100133794D01*
X130088000Y-107136166D02*
X135890000Y-101334166D01*
X171958000Y-104272304D02*
X171958000Y-101854000D01*
X170365033Y-100520337D02*
X170365033Y-98361337D01*
X171958000Y-101854000D02*
X170624337Y-100520337D01*
X139446000Y-107950000D02*
X139446000Y-106172000D01*
X168468533Y-109357000D02*
X168468533Y-105851467D01*
X172079696Y-104394000D02*
X173540033Y-105854337D01*
X168468533Y-105851467D02*
X169926000Y-104394000D01*
X135890000Y-101334166D02*
X135890000Y-100076000D01*
X130088000Y-110196000D02*
X128270000Y-112014000D01*
X173540033Y-105854337D02*
X171958000Y-104272304D01*
X170624337Y-100520337D02*
X170365033Y-100520337D01*
X169926000Y-104394000D02*
X172079696Y-104394000D01*
X133870286Y-89916000D02*
X137200000Y-89916000D01*
X120323795Y-98733795D02*
X121723794Y-100133794D01*
X131070143Y-92716143D02*
X133870286Y-89916000D01*
X125926206Y-100133794D02*
X131070143Y-94989857D01*
X130088000Y-108966000D02*
X130088000Y-110196000D01*
X131070143Y-94989857D02*
X131070143Y-92716143D01*
X135890000Y-111506000D02*
X139446000Y-107950000D01*
X157734000Y-95504000D02*
X157988000Y-95758000D01*
X142014489Y-107959467D02*
X143021022Y-108966000D01*
D26*
X157734000Y-124364000D02*
X157830000Y-124364000D01*
D27*
X142014489Y-97253511D02*
X142014489Y-107959467D01*
X157734000Y-98258000D02*
X157774000Y-98298000D01*
X157734000Y-95504000D02*
X157734000Y-98258000D01*
D26*
X166303469Y-103666837D02*
X168199969Y-101770337D01*
D27*
X143510000Y-95758000D02*
X142014489Y-97253511D01*
D26*
X166303469Y-110607000D02*
X164221000Y-110607000D01*
X165024969Y-96436337D02*
X165024969Y-98595337D01*
X161798000Y-120396000D02*
X161798000Y-113030000D01*
D27*
X157734000Y-92456000D02*
X157734000Y-95504000D01*
D26*
X164346632Y-95758000D02*
X157988000Y-95758000D01*
D27*
X143021022Y-108966000D02*
X143764000Y-108966000D01*
D26*
X165024969Y-98595337D02*
X168199969Y-101770337D01*
X164221000Y-110607000D02*
X161798000Y-113030000D01*
X166303469Y-110607000D02*
X166303469Y-103666837D01*
X157830000Y-124364000D02*
X161798000Y-120396000D01*
X165024969Y-96436337D02*
X164346632Y-95758000D01*
D27*
X155194000Y-95250000D02*
X152654000Y-92710000D01*
X139700000Y-92710000D02*
X139700000Y-89916000D01*
X132588000Y-108966000D02*
X132588000Y-107322492D01*
X133350000Y-109728000D02*
X132588000Y-108966000D01*
X132588000Y-107322492D02*
X139700000Y-100210492D01*
X133350000Y-112014000D02*
X133350000Y-109728000D01*
X139700000Y-100210492D02*
X139700000Y-92710000D01*
X152654000Y-92710000D02*
X139700000Y-92710000D01*
D26*
X157734000Y-118364000D02*
X150876000Y-111506000D01*
X150876000Y-111506000D02*
X143510000Y-111506000D01*
X128407708Y-105918000D02*
X131132854Y-103192854D01*
X128516559Y-100576559D02*
X131132854Y-103192854D01*
D27*
X140462000Y-111506000D02*
X143510000Y-111506000D01*
D26*
X127508000Y-105918000D02*
X128407708Y-105918000D01*
D27*
X146558000Y-97790000D02*
X146558000Y-107669949D01*
X147854051Y-108966000D02*
X148844000Y-108966000D01*
X146558000Y-107669949D02*
X147854051Y-108966000D01*
X162306000Y-104902000D02*
X159766000Y-104902000D01*
X159766000Y-104902000D02*
X157988000Y-106680000D01*
X157988000Y-106680000D02*
X148844000Y-106680000D01*
M02*
