%FSLAX45Y45*%
G04 Gerber Fmt 4.5, Leading zero omitted, Abs format (unit mm)*
G04 Created by KiCad (PCBNEW (6.0.5)) date 2022-11-15 22:49:01*
%MOMM*%
%LPD*%
G01*
G04 APERTURE LIST*
%TA.AperFunction,Profile*%
%ADD10C,0.200000*%
%TD*%
%TA.AperFunction,Profile*%
%ADD11C,0.100050*%
%TD*%
%ADD12C,0.200000*%
%ADD13C,0.065000*%
G04 APERTURE END LIST*
D10*
X11501680Y-13265660D02*
X10996756Y-13770585D01*
X11172749Y-14283015D02*
G75*
G03*
X11022304Y-14075020I-382189J-118035D01*
G01*
X19391536Y-14075020D02*
G75*
G03*
X19241093Y-14283015I231764J-326040D01*
G01*
X15215322Y-7617792D02*
X13612255Y-7617792D01*
X13356920Y-13217780D02*
X13356920Y-13897780D01*
X13412255Y-7817792D02*
X13412255Y-8512747D01*
X17006918Y-7817792D02*
G75*
G03*
X16806920Y-7617792I-199998J2D01*
G01*
X11172746Y-14283015D02*
G75*
G03*
X11284602Y-14407633I191094J59016D01*
G01*
X11265854Y-12464149D02*
G75*
G03*
X11265856Y-12746993I141426J-141421D01*
G01*
X19148117Y-12464018D02*
X17065499Y-10381400D01*
X13762255Y-8513307D02*
G75*
G03*
X13762255Y-8513307I-150000J0D01*
G01*
X16806920Y-7617792D02*
X15215322Y-7617792D01*
X19148117Y-12746861D02*
G75*
G03*
X19148117Y-12464018I-141427J141421D01*
G01*
X13348839Y-10381167D02*
X11265856Y-12464150D01*
X11366830Y-13904064D02*
G75*
G03*
X11366830Y-13904064I-150000J0D01*
G01*
D11*
X15211922Y-5317780D02*
G75*
G03*
X15211922Y-5317780I-5003J0D01*
G01*
D10*
X10996760Y-13770589D02*
G75*
G03*
X11022304Y-14075020I141420J-141421D01*
G01*
X18912161Y-12982819D02*
G75*
G03*
X18912160Y-13265660I141419J-141421D01*
G01*
X11265856Y-12746993D02*
X11501680Y-12982817D01*
X17006920Y-10239979D02*
X17006920Y-8517788D01*
X12056920Y-11937780D02*
X13356920Y-11937780D01*
X13356920Y-11937780D02*
X13356920Y-13217780D01*
X12056920Y-13897780D02*
X12056920Y-11937780D01*
X13612255Y-7617785D02*
G75*
G03*
X13412255Y-7817792I5J-200005D01*
G01*
X11501682Y-13265661D02*
G75*
G03*
X11501680Y-12982817I-141422J141421D01*
G01*
X13412255Y-8512747D02*
X13407417Y-10240306D01*
X11284602Y-14407633D02*
G75*
G03*
X19129238Y-14407633I3922318J9089854D01*
G01*
X19347010Y-13904064D02*
G75*
G03*
X19347010Y-13904064I-150000J0D01*
G01*
X19391540Y-14075025D02*
G75*
G03*
X19417085Y-13770585I-115880J163015D01*
G01*
X16956920Y-8517788D02*
G75*
G03*
X16956920Y-8517788I-150000J0D01*
G01*
X18912160Y-12982817D02*
X19148117Y-12746860D01*
X19417085Y-13770585D02*
X18912160Y-13265660D01*
X13348841Y-10381169D02*
G75*
G03*
X13407417Y-10240306I-141421J141419D01*
G01*
X17006924Y-10239979D02*
G75*
G03*
X17065499Y-10381400I200006J-2D01*
G01*
X13356920Y-13897780D02*
X12056920Y-13897780D01*
X17006920Y-8517788D02*
X17006920Y-7817792D01*
X19129238Y-14407633D02*
G75*
G03*
X19241093Y-14283015I-79238J183633D01*
G01*
D12*
D13*
X13204000Y-14439000D02*
X13269000Y-14504000D01*
X13269000Y-14439000D02*
X13204000Y-14504000D01*
X13782000Y-14439000D02*
X13847000Y-14504000D01*
X13847000Y-14439000D02*
X13782000Y-14504000D01*
X14347000Y-14566000D02*
X14412000Y-14631000D01*
X14412000Y-14566000D02*
X14347000Y-14631000D01*
X14925000Y-14566000D02*
X14990000Y-14631000D01*
X14990000Y-14566000D02*
X14925000Y-14631000D01*
X15490000Y-14566000D02*
X15555000Y-14631000D01*
X15555000Y-14566000D02*
X15490000Y-14631000D01*
X16068000Y-14566000D02*
X16133000Y-14631000D01*
X16133000Y-14566000D02*
X16068000Y-14631000D01*
X16633000Y-14439000D02*
X16698000Y-14504000D01*
X16698000Y-14439000D02*
X16633000Y-14504000D01*
X17211000Y-14439000D02*
X17276000Y-14504000D01*
X17276000Y-14439000D02*
X17211000Y-14504000D01*
D12*
X11185800Y-15538256D02*
X11185800Y-15338256D01*
X11233419Y-15338256D01*
X11261990Y-15347780D01*
X11281038Y-15366828D01*
X11290562Y-15385875D01*
X11300086Y-15423970D01*
X11300086Y-15452542D01*
X11290562Y-15490637D01*
X11281038Y-15509685D01*
X11261990Y-15528732D01*
X11233419Y-15538256D01*
X11185800Y-15538256D01*
X11385800Y-15538256D02*
X11385800Y-15404923D01*
X11385800Y-15443018D02*
X11395324Y-15423970D01*
X11404848Y-15414447D01*
X11423895Y-15404923D01*
X11442943Y-15404923D01*
X11509609Y-15538256D02*
X11509609Y-15404923D01*
X11509609Y-15338256D02*
X11500086Y-15347780D01*
X11509609Y-15357304D01*
X11519133Y-15347780D01*
X11509609Y-15338256D01*
X11509609Y-15357304D01*
X11633419Y-15538256D02*
X11614371Y-15528732D01*
X11604848Y-15509685D01*
X11604848Y-15338256D01*
X11738181Y-15538256D02*
X11719133Y-15528732D01*
X11709609Y-15509685D01*
X11709609Y-15338256D01*
X11966752Y-15538256D02*
X11966752Y-15338256D01*
X12033419Y-15481113D01*
X12100086Y-15338256D01*
X12100086Y-15538256D01*
X12281038Y-15538256D02*
X12281038Y-15433494D01*
X12271514Y-15414447D01*
X12252467Y-15404923D01*
X12214371Y-15404923D01*
X12195324Y-15414447D01*
X12281038Y-15528732D02*
X12261990Y-15538256D01*
X12214371Y-15538256D01*
X12195324Y-15528732D01*
X12185800Y-15509685D01*
X12185800Y-15490637D01*
X12195324Y-15471589D01*
X12214371Y-15462066D01*
X12261990Y-15462066D01*
X12281038Y-15452542D01*
X12376276Y-15404923D02*
X12376276Y-15604923D01*
X12376276Y-15414447D02*
X12395324Y-15404923D01*
X12433419Y-15404923D01*
X12452467Y-15414447D01*
X12461990Y-15423970D01*
X12471514Y-15443018D01*
X12471514Y-15500161D01*
X12461990Y-15519208D01*
X12452467Y-15528732D01*
X12433419Y-15538256D01*
X12395324Y-15538256D01*
X12376276Y-15528732D01*
X12557229Y-15519208D02*
X12566752Y-15528732D01*
X12557229Y-15538256D01*
X12547705Y-15528732D01*
X12557229Y-15519208D01*
X12557229Y-15538256D01*
X12557229Y-15414447D02*
X12566752Y-15423970D01*
X12557229Y-15433494D01*
X12547705Y-15423970D01*
X12557229Y-15414447D01*
X12557229Y-15433494D01*
D13*
X10863181Y-15835280D02*
X10928181Y-15900280D01*
X10928181Y-15835280D02*
X10863181Y-15900280D01*
D12*
X11223895Y-15758256D02*
X11242943Y-15758256D01*
X11261990Y-15767780D01*
X11271514Y-15777304D01*
X11281038Y-15796351D01*
X11290562Y-15834447D01*
X11290562Y-15882066D01*
X11281038Y-15920161D01*
X11271514Y-15939208D01*
X11261990Y-15948732D01*
X11242943Y-15958256D01*
X11223895Y-15958256D01*
X11204848Y-15948732D01*
X11195324Y-15939208D01*
X11185800Y-15920161D01*
X11176276Y-15882066D01*
X11176276Y-15834447D01*
X11185800Y-15796351D01*
X11195324Y-15777304D01*
X11204848Y-15767780D01*
X11223895Y-15758256D01*
X11376276Y-15939208D02*
X11385800Y-15948732D01*
X11376276Y-15958256D01*
X11366752Y-15948732D01*
X11376276Y-15939208D01*
X11376276Y-15958256D01*
X11557229Y-15758256D02*
X11519133Y-15758256D01*
X11500086Y-15767780D01*
X11490562Y-15777304D01*
X11471514Y-15805875D01*
X11461990Y-15843970D01*
X11461990Y-15920161D01*
X11471514Y-15939208D01*
X11481038Y-15948732D01*
X11500086Y-15958256D01*
X11538181Y-15958256D01*
X11557229Y-15948732D01*
X11566752Y-15939208D01*
X11576276Y-15920161D01*
X11576276Y-15872542D01*
X11566752Y-15853494D01*
X11557229Y-15843970D01*
X11538181Y-15834447D01*
X11500086Y-15834447D01*
X11481038Y-15843970D01*
X11471514Y-15853494D01*
X11461990Y-15872542D01*
X11757229Y-15758256D02*
X11661990Y-15758256D01*
X11652467Y-15853494D01*
X11661990Y-15843970D01*
X11681038Y-15834447D01*
X11728657Y-15834447D01*
X11747705Y-15843970D01*
X11757229Y-15853494D01*
X11766752Y-15872542D01*
X11766752Y-15920161D01*
X11757229Y-15939208D01*
X11747705Y-15948732D01*
X11728657Y-15958256D01*
X11681038Y-15958256D01*
X11661990Y-15948732D01*
X11652467Y-15939208D01*
X11890562Y-15758256D02*
X11909609Y-15758256D01*
X11928657Y-15767780D01*
X11938181Y-15777304D01*
X11947705Y-15796351D01*
X11957229Y-15834447D01*
X11957229Y-15882066D01*
X11947705Y-15920161D01*
X11938181Y-15939208D01*
X11928657Y-15948732D01*
X11909609Y-15958256D01*
X11890562Y-15958256D01*
X11871514Y-15948732D01*
X11861990Y-15939208D01*
X11852467Y-15920161D01*
X11842943Y-15882066D01*
X11842943Y-15834447D01*
X11852467Y-15796351D01*
X11861990Y-15777304D01*
X11871514Y-15767780D01*
X11890562Y-15758256D01*
X12042943Y-15958256D02*
X12042943Y-15824923D01*
X12042943Y-15843970D02*
X12052467Y-15834447D01*
X12071514Y-15824923D01*
X12100086Y-15824923D01*
X12119133Y-15834447D01*
X12128657Y-15853494D01*
X12128657Y-15958256D01*
X12128657Y-15853494D02*
X12138181Y-15834447D01*
X12157229Y-15824923D01*
X12185800Y-15824923D01*
X12204848Y-15834447D01*
X12214371Y-15853494D01*
X12214371Y-15958256D01*
X12309609Y-15958256D02*
X12309609Y-15824923D01*
X12309609Y-15843970D02*
X12319133Y-15834447D01*
X12338181Y-15824923D01*
X12366752Y-15824923D01*
X12385800Y-15834447D01*
X12395324Y-15853494D01*
X12395324Y-15958256D01*
X12395324Y-15853494D02*
X12404848Y-15834447D01*
X12423895Y-15824923D01*
X12452467Y-15824923D01*
X12471514Y-15834447D01*
X12481038Y-15853494D01*
X12481038Y-15958256D01*
X12871514Y-15748732D02*
X12700086Y-16005875D01*
X13128657Y-15758256D02*
X13147705Y-15758256D01*
X13166752Y-15767780D01*
X13176276Y-15777304D01*
X13185800Y-15796351D01*
X13195324Y-15834447D01*
X13195324Y-15882066D01*
X13185800Y-15920161D01*
X13176276Y-15939208D01*
X13166752Y-15948732D01*
X13147705Y-15958256D01*
X13128657Y-15958256D01*
X13109609Y-15948732D01*
X13100086Y-15939208D01*
X13090562Y-15920161D01*
X13081038Y-15882066D01*
X13081038Y-15834447D01*
X13090562Y-15796351D01*
X13100086Y-15777304D01*
X13109609Y-15767780D01*
X13128657Y-15758256D01*
X13281038Y-15939208D02*
X13290562Y-15948732D01*
X13281038Y-15958256D01*
X13271514Y-15948732D01*
X13281038Y-15939208D01*
X13281038Y-15958256D01*
X13414371Y-15758256D02*
X13433419Y-15758256D01*
X13452467Y-15767780D01*
X13461990Y-15777304D01*
X13471514Y-15796351D01*
X13481038Y-15834447D01*
X13481038Y-15882066D01*
X13471514Y-15920161D01*
X13461990Y-15939208D01*
X13452467Y-15948732D01*
X13433419Y-15958256D01*
X13414371Y-15958256D01*
X13395324Y-15948732D01*
X13385800Y-15939208D01*
X13376276Y-15920161D01*
X13366752Y-15882066D01*
X13366752Y-15834447D01*
X13376276Y-15796351D01*
X13385800Y-15777304D01*
X13395324Y-15767780D01*
X13414371Y-15758256D01*
X13557229Y-15777304D02*
X13566752Y-15767780D01*
X13585800Y-15758256D01*
X13633419Y-15758256D01*
X13652467Y-15767780D01*
X13661990Y-15777304D01*
X13671514Y-15796351D01*
X13671514Y-15815399D01*
X13661990Y-15843970D01*
X13547705Y-15958256D01*
X13671514Y-15958256D01*
X13852467Y-15758256D02*
X13757229Y-15758256D01*
X13747705Y-15853494D01*
X13757229Y-15843970D01*
X13776276Y-15834447D01*
X13823895Y-15834447D01*
X13842943Y-15843970D01*
X13852467Y-15853494D01*
X13861990Y-15872542D01*
X13861990Y-15920161D01*
X13852467Y-15939208D01*
X13842943Y-15948732D01*
X13823895Y-15958256D01*
X13776276Y-15958256D01*
X13757229Y-15948732D01*
X13747705Y-15939208D01*
X14033419Y-15758256D02*
X13995324Y-15758256D01*
X13976276Y-15767780D01*
X13966752Y-15777304D01*
X13947705Y-15805875D01*
X13938181Y-15843970D01*
X13938181Y-15920161D01*
X13947705Y-15939208D01*
X13957229Y-15948732D01*
X13976276Y-15958256D01*
X14014371Y-15958256D01*
X14033419Y-15948732D01*
X14042943Y-15939208D01*
X14052467Y-15920161D01*
X14052467Y-15872542D01*
X14042943Y-15853494D01*
X14033419Y-15843970D01*
X14014371Y-15834447D01*
X13976276Y-15834447D01*
X13957229Y-15843970D01*
X13947705Y-15853494D01*
X13938181Y-15872542D01*
X14128657Y-15758256D02*
X14128657Y-15796351D01*
X14204848Y-15758256D02*
X14204848Y-15796351D01*
X14500086Y-16034447D02*
X14490562Y-16024923D01*
X14471514Y-15996351D01*
X14461990Y-15977304D01*
X14452467Y-15948732D01*
X14442943Y-15901113D01*
X14442943Y-15863018D01*
X14452467Y-15815399D01*
X14461990Y-15786828D01*
X14471514Y-15767780D01*
X14490562Y-15739208D01*
X14500086Y-15729685D01*
X14604848Y-15843970D02*
X14585800Y-15834447D01*
X14576276Y-15824923D01*
X14566752Y-15805875D01*
X14566752Y-15796351D01*
X14576276Y-15777304D01*
X14585800Y-15767780D01*
X14604848Y-15758256D01*
X14642943Y-15758256D01*
X14661990Y-15767780D01*
X14671514Y-15777304D01*
X14681038Y-15796351D01*
X14681038Y-15805875D01*
X14671514Y-15824923D01*
X14661990Y-15834447D01*
X14642943Y-15843970D01*
X14604848Y-15843970D01*
X14585800Y-15853494D01*
X14576276Y-15863018D01*
X14566752Y-15882066D01*
X14566752Y-15920161D01*
X14576276Y-15939208D01*
X14585800Y-15948732D01*
X14604848Y-15958256D01*
X14642943Y-15958256D01*
X14661990Y-15948732D01*
X14671514Y-15939208D01*
X14681038Y-15920161D01*
X14681038Y-15882066D01*
X14671514Y-15863018D01*
X14661990Y-15853494D01*
X14642943Y-15843970D01*
X14919133Y-15958256D02*
X14919133Y-15758256D01*
X15004848Y-15958256D02*
X15004848Y-15853494D01*
X14995324Y-15834447D01*
X14976276Y-15824923D01*
X14947705Y-15824923D01*
X14928657Y-15834447D01*
X14919133Y-15843970D01*
X15128657Y-15958256D02*
X15109609Y-15948732D01*
X15100086Y-15939208D01*
X15090562Y-15920161D01*
X15090562Y-15863018D01*
X15100086Y-15843970D01*
X15109609Y-15834447D01*
X15128657Y-15824923D01*
X15157229Y-15824923D01*
X15176276Y-15834447D01*
X15185800Y-15843970D01*
X15195324Y-15863018D01*
X15195324Y-15920161D01*
X15185800Y-15939208D01*
X15176276Y-15948732D01*
X15157229Y-15958256D01*
X15128657Y-15958256D01*
X15309609Y-15958256D02*
X15290562Y-15948732D01*
X15281038Y-15929685D01*
X15281038Y-15758256D01*
X15461990Y-15948732D02*
X15442943Y-15958256D01*
X15404848Y-15958256D01*
X15385800Y-15948732D01*
X15376276Y-15929685D01*
X15376276Y-15853494D01*
X15385800Y-15834447D01*
X15404848Y-15824923D01*
X15442943Y-15824923D01*
X15461990Y-15834447D01*
X15471514Y-15853494D01*
X15471514Y-15872542D01*
X15376276Y-15891589D01*
X15547705Y-15948732D02*
X15566752Y-15958256D01*
X15604848Y-15958256D01*
X15623895Y-15948732D01*
X15633419Y-15929685D01*
X15633419Y-15920161D01*
X15623895Y-15901113D01*
X15604848Y-15891589D01*
X15576276Y-15891589D01*
X15557229Y-15882066D01*
X15547705Y-15863018D01*
X15547705Y-15853494D01*
X15557229Y-15834447D01*
X15576276Y-15824923D01*
X15604848Y-15824923D01*
X15623895Y-15834447D01*
X15700086Y-16034447D02*
X15709609Y-16024923D01*
X15728657Y-15996351D01*
X15738181Y-15977304D01*
X15747705Y-15948732D01*
X15757229Y-15901113D01*
X15757229Y-15863018D01*
X15747705Y-15815399D01*
X15738181Y-15786828D01*
X15728657Y-15767780D01*
X15709609Y-15739208D01*
X15700086Y-15729685D01*
X16061990Y-16034447D02*
X16052467Y-16024923D01*
X16033419Y-15996351D01*
X16023895Y-15977304D01*
X16014371Y-15948732D01*
X16004848Y-15901113D01*
X16004848Y-15863018D01*
X16014371Y-15815399D01*
X16023895Y-15786828D01*
X16033419Y-15767780D01*
X16052467Y-15739208D01*
X16061990Y-15729685D01*
X16138181Y-15824923D02*
X16138181Y-15958256D01*
X16138181Y-15843970D02*
X16147705Y-15834447D01*
X16166752Y-15824923D01*
X16195324Y-15824923D01*
X16214371Y-15834447D01*
X16223895Y-15853494D01*
X16223895Y-15958256D01*
X16347705Y-15958256D02*
X16328657Y-15948732D01*
X16319133Y-15939208D01*
X16309609Y-15920161D01*
X16309609Y-15863018D01*
X16319133Y-15843970D01*
X16328657Y-15834447D01*
X16347705Y-15824923D01*
X16376276Y-15824923D01*
X16395324Y-15834447D01*
X16404848Y-15843970D01*
X16414371Y-15863018D01*
X16414371Y-15920161D01*
X16404848Y-15939208D01*
X16395324Y-15948732D01*
X16376276Y-15958256D01*
X16347705Y-15958256D01*
X16471514Y-15824923D02*
X16547705Y-15824923D01*
X16500086Y-15758256D02*
X16500086Y-15929685D01*
X16509609Y-15948732D01*
X16528657Y-15958256D01*
X16547705Y-15958256D01*
X16766752Y-15824923D02*
X16766752Y-16024923D01*
X16766752Y-15834447D02*
X16785800Y-15824923D01*
X16823895Y-15824923D01*
X16842943Y-15834447D01*
X16852467Y-15843970D01*
X16861991Y-15863018D01*
X16861991Y-15920161D01*
X16852467Y-15939208D01*
X16842943Y-15948732D01*
X16823895Y-15958256D01*
X16785800Y-15958256D01*
X16766752Y-15948732D01*
X16976276Y-15958256D02*
X16957229Y-15948732D01*
X16947705Y-15929685D01*
X16947705Y-15758256D01*
X17138181Y-15958256D02*
X17138181Y-15853494D01*
X17128657Y-15834447D01*
X17109610Y-15824923D01*
X17071514Y-15824923D01*
X17052467Y-15834447D01*
X17138181Y-15948732D02*
X17119133Y-15958256D01*
X17071514Y-15958256D01*
X17052467Y-15948732D01*
X17042943Y-15929685D01*
X17042943Y-15910637D01*
X17052467Y-15891589D01*
X17071514Y-15882066D01*
X17119133Y-15882066D01*
X17138181Y-15872542D01*
X17204848Y-15824923D02*
X17281038Y-15824923D01*
X17233419Y-15758256D02*
X17233419Y-15929685D01*
X17242943Y-15948732D01*
X17261991Y-15958256D01*
X17281038Y-15958256D01*
X17423895Y-15948732D02*
X17404848Y-15958256D01*
X17366752Y-15958256D01*
X17347705Y-15948732D01*
X17338181Y-15929685D01*
X17338181Y-15853494D01*
X17347705Y-15834447D01*
X17366752Y-15824923D01*
X17404848Y-15824923D01*
X17423895Y-15834447D01*
X17433419Y-15853494D01*
X17433419Y-15872542D01*
X17338181Y-15891589D01*
X17604848Y-15958256D02*
X17604848Y-15758256D01*
X17604848Y-15948732D02*
X17585800Y-15958256D01*
X17547705Y-15958256D01*
X17528657Y-15948732D01*
X17519133Y-15939208D01*
X17509610Y-15920161D01*
X17509610Y-15863018D01*
X17519133Y-15843970D01*
X17528657Y-15834447D01*
X17547705Y-15824923D01*
X17585800Y-15824923D01*
X17604848Y-15834447D01*
X17681038Y-16034447D02*
X17690562Y-16024923D01*
X17709610Y-15996351D01*
X17719133Y-15977304D01*
X17728657Y-15948732D01*
X17738181Y-15901113D01*
X17738181Y-15863018D01*
X17728657Y-15815399D01*
X17719133Y-15786828D01*
X17709610Y-15767780D01*
X17690562Y-15739208D01*
X17681038Y-15729685D01*
M02*
