%TF.GenerationSoftware,KiCad,Pcbnew,(6.0.5)*%
%TF.CreationDate,2022-11-15T22:48:54+09:00*%
%TF.ProjectId,IO_Board,494f5f42-6f61-4726-942e-6b696361645f,rev?*%
%TF.SameCoordinates,Original*%
%TF.FileFunction,Copper,L2,Bot*%
%TF.FilePolarity,Positive*%
%FSLAX46Y46*%
G04 Gerber Fmt 4.6, Leading zero omitted, Abs format (unit mm)*
G04 Created by KiCad (PCBNEW (6.0.5)) date 2022-11-15 22:48:54*
%MOMM*%
%LPD*%
G01*
G04 APERTURE LIST*
%TA.AperFunction,ComponentPad*%
%ADD10C,2.000000*%
%TD*%
%TA.AperFunction,ComponentPad*%
%ADD11R,1.700000X1.700000*%
%TD*%
%TA.AperFunction,ComponentPad*%
%ADD12O,1.700000X1.700000*%
%TD*%
%TA.AperFunction,ComponentPad*%
%ADD13O,1.000000X1.600000*%
%TD*%
%TA.AperFunction,ComponentPad*%
%ADD14O,1.000000X2.100000*%
%TD*%
%TA.AperFunction,ComponentPad*%
%ADD15O,1.100000X2.000000*%
%TD*%
%TA.AperFunction,ComponentPad*%
%ADD16O,1.000000X2.000000*%
%TD*%
%TA.AperFunction,ViaPad*%
%ADD17C,0.800000*%
%TD*%
%TA.AperFunction,Conductor*%
%ADD18C,0.250000*%
%TD*%
%TA.AperFunction,Conductor*%
%ADD19C,0.200000*%
%TD*%
G04 APERTURE END LIST*
D10*
%TO.P,R,1*%
%TO.N,GND*%
X176765000Y-132775000D03*
X183265000Y-132775000D03*
%TO.P,R,2*%
%TO.N,R*%
X183265000Y-137275000D03*
X176765000Y-137275000D03*
%TD*%
D11*
%TO.P,J3,1,Pin_1*%
%TO.N,GND*%
X163825000Y-84836000D03*
D12*
%TO.P,J3,2,Pin_2*%
X161285000Y-84836000D03*
%TO.P,J3,3,Pin_3*%
%TO.N,Gyro D+*%
X158745000Y-84836000D03*
%TO.P,J3,4,Pin_4*%
%TO.N,Gyro D-*%
X156205000Y-84836000D03*
%TO.P,J3,5,Pin_5*%
%TO.N,Line D+*%
X153665000Y-84836000D03*
%TO.P,J3,6,Pin_6*%
%TO.N,Line D-*%
X151125000Y-84836000D03*
%TO.P,J3,7,Pin_7*%
%TO.N,Teensy D+*%
X148585000Y-84836000D03*
%TO.P,J3,8,Pin_8*%
%TO.N,Teensy D-*%
X146045000Y-84836000D03*
%TO.P,J3,9,Pin_9*%
%TO.N,Cam D+*%
X143505000Y-84836000D03*
%TO.P,J3,10,Pin_10*%
%TO.N,Cam D-*%
X140965000Y-84836000D03*
%TD*%
D13*
%TO.P,J4,S1,SHIELD*%
%TO.N,GND*%
X162435000Y-149665000D03*
D14*
X153795000Y-145485000D03*
X162435000Y-145485000D03*
D13*
X153795000Y-149665000D03*
%TD*%
D11*
%TO.P,J9,1,Pin_1*%
%TO.N,GND*%
X172085000Y-116205000D03*
D12*
%TO.P,J9,2,Pin_2*%
%TO.N,Reset 2*%
X172085000Y-113665000D03*
%TO.P,J9,3,Pin_3*%
%TO.N,MISO 2*%
X174625000Y-116205000D03*
%TO.P,J9,4,Pin_4*%
%TO.N,+5V*%
X174625000Y-113665000D03*
%TO.P,J9,5,Pin_5*%
%TO.N,SCK 2*%
X177165000Y-116205000D03*
%TO.P,J9,6,Pin_6*%
%TO.N,MOSI 2*%
X177165000Y-113665000D03*
%TD*%
D10*
%TO.P,START,1*%
%TO.N,GND*%
X157865000Y-132775000D03*
X151365000Y-132775000D03*
%TO.P,START,2*%
%TO.N,start*%
X157865000Y-137275000D03*
X151365000Y-137275000D03*
%TD*%
D11*
%TO.P,J2,1,Pin_1*%
%TO.N,GND*%
X127650000Y-115575000D03*
D12*
%TO.P,J2,2,Pin_2*%
%TO.N,Reset 1*%
X127650000Y-113035000D03*
%TO.P,J2,3,Pin_3*%
%TO.N,MISO 1*%
X130190000Y-115575000D03*
%TO.P,J2,4,Pin_4*%
%TO.N,+5V*%
X130190000Y-113035000D03*
%TO.P,J2,5,Pin_5*%
%TO.N,SCK 1*%
X132730000Y-115575000D03*
%TO.P,J2,6,Pin_6*%
%TO.N,MOSI 1*%
X132730000Y-113035000D03*
%TD*%
D13*
%TO.P,J10,S1,SHIELD*%
%TO.N,GND*%
X130935000Y-148395000D03*
X139575000Y-148395000D03*
D14*
X139575000Y-144215000D03*
X130935000Y-144215000D03*
%TD*%
D15*
%TO.P,J6,1,Pin_1*%
%TO.N,CS*%
X142240000Y-108785000D03*
%TO.P,J6,2,Pin_2*%
%TO.N,unconnected-(J6-Pad2)*%
X143510000Y-108785000D03*
%TO.P,J6,3,Pin_3*%
%TO.N,RS*%
X144780000Y-108785000D03*
%TO.P,J6,4,Pin_4*%
%TO.N,SCK*%
X146050000Y-108785000D03*
%TO.P,J6,5,Pin_5*%
%TO.N,MOSI*%
X147320000Y-108785000D03*
%TO.P,J6,6,Pin_6*%
%TO.N,+3V3*%
X148590000Y-108785000D03*
%TO.P,J6,7,Pin_7*%
%TO.N,GND*%
X149860000Y-108785000D03*
%TO.P,J6,8,Pin_8*%
%TO.N,Net-(C3-Pad2)*%
X151130000Y-108785000D03*
%TO.P,J6,9,Pin_9*%
%TO.N,Net-(C5-Pad1)*%
X152400000Y-108785000D03*
%TO.P,J6,10,Pin_10*%
%TO.N,Net-(C5-Pad2)*%
X153670000Y-108785000D03*
%TO.P,J6,11,Pin_11*%
%TO.N,Net-(C6-Pad1)*%
X154940000Y-108785000D03*
%TO.P,J6,12,Pin_12*%
%TO.N,Net-(C6-Pad2)*%
X156210000Y-108785000D03*
%TO.P,J6,13,Pin_13*%
%TO.N,Net-(C7-Pad2)*%
X157480000Y-108785000D03*
%TO.P,J6,14,Pin_14*%
%TO.N,Net-(C8-Pad2)*%
X158750000Y-108785000D03*
%TO.P,J6,15,Pin_15*%
%TO.N,Net-(C10-Pad2)*%
X160020000Y-108785000D03*
D16*
%TO.P,J6,16,Pin_16*%
%TO.N,Net-(C11-Pad2)*%
X161290000Y-108795000D03*
%TO.P,J6,17,Pin_17*%
%TO.N,Net-(C12-Pad2)*%
X162560000Y-108795000D03*
%TD*%
D10*
%TO.P,L,1*%
%TO.N,GND*%
X145165000Y-132775000D03*
X138665000Y-132775000D03*
%TO.P,L,2*%
%TO.N,L*%
X138665000Y-137275000D03*
X145165000Y-137275000D03*
%TD*%
%TO.P,STOP,1*%
%TO.N,GND*%
X164065000Y-132775000D03*
X170565000Y-132775000D03*
%TO.P,STOP,2*%
%TO.N,stop*%
X170565000Y-137275000D03*
X164065000Y-137275000D03*
%TD*%
D14*
%TO.P,J7,S1,SHIELD*%
%TO.N,GND*%
X165225000Y-144215000D03*
D13*
X173865000Y-148395000D03*
X165225000Y-148395000D03*
D14*
X173865000Y-144215000D03*
%TD*%
D11*
%TO.P,J5,1,Pin_1*%
%TO.N,GND*%
X163830000Y-77216000D03*
D12*
%TO.P,J5,2,Pin_2*%
%TO.N,+3V3*%
X161290000Y-77216000D03*
%TO.P,J5,3,Pin_3*%
%TO.N,start*%
X158750000Y-77216000D03*
%TO.P,J5,4,Pin_4*%
%TO.N,stop*%
X156210000Y-77216000D03*
%TO.P,J5,5,Pin_5*%
%TO.N,R*%
X153670000Y-77216000D03*
%TO.P,J5,6,Pin_6*%
%TO.N,L*%
X151130000Y-77216000D03*
%TO.P,J5,7,Pin_7*%
%TO.N,CS*%
X148590000Y-77216000D03*
%TO.P,J5,8,Pin_8*%
%TO.N,MOSI*%
X146050000Y-77216000D03*
%TO.P,J5,9,Pin_9*%
%TO.N,RS*%
X143510000Y-77216000D03*
%TO.P,J5,10,Pin_10*%
%TO.N,SCK*%
X140970000Y-77216000D03*
%TD*%
D11*
%TO.P,J8,1,Pin_1*%
%TO.N,GND*%
X163830000Y-81026000D03*
D12*
%TO.P,J8,2,Pin_2*%
%TO.N,+5V*%
X161290000Y-81026000D03*
%TO.P,J8,3,Pin_3*%
%TO.N,Reset 1*%
X158750000Y-81026000D03*
%TO.P,J8,4,Pin_4*%
%TO.N,MISO 1*%
X156210000Y-81026000D03*
%TO.P,J8,5,Pin_5*%
%TO.N,MOSI 1*%
X153670000Y-81026000D03*
%TO.P,J8,6,Pin_6*%
%TO.N,SCK 1*%
X151130000Y-81026000D03*
%TO.P,J8,7,Pin_7*%
%TO.N,Reset 2*%
X148590000Y-81026000D03*
%TO.P,J8,8,Pin_8*%
%TO.N,MISO 2*%
X146050000Y-81026000D03*
%TO.P,J8,9,Pin_9*%
%TO.N,MOSI 2*%
X143510000Y-81026000D03*
%TO.P,J8,10,Pin_10*%
%TO.N,SCK 2*%
X140970000Y-81026000D03*
%TD*%
D13*
%TO.P,J1,S1,SHIELD*%
%TO.N,GND*%
X151005000Y-149665000D03*
D14*
X151005000Y-145485000D03*
D13*
X142365000Y-149665000D03*
D14*
X142365000Y-145485000D03*
%TD*%
D17*
%TO.N,start*%
X165621342Y-91426658D03*
X165966201Y-95985247D03*
X165824500Y-80645000D03*
%TO.N,GND*%
X164592000Y-86614000D03*
X167386000Y-136144000D03*
X133350000Y-105410000D03*
X163322000Y-88646000D03*
X164338000Y-124206000D03*
X153924000Y-116586000D03*
X166370000Y-79375000D03*
X145542000Y-122174000D03*
X123952000Y-116586000D03*
X163830000Y-117602000D03*
X152654000Y-98298000D03*
X158242000Y-149860000D03*
X166878000Y-89662000D03*
X160020000Y-99568000D03*
X142494000Y-136144000D03*
X128524000Y-110490000D03*
X140716000Y-114046000D03*
X180594000Y-115316000D03*
X153670000Y-102108000D03*
X161290000Y-86868000D03*
X167640000Y-77470000D03*
X168148000Y-82296000D03*
X135255000Y-148590000D03*
X145288000Y-113792000D03*
X183896000Y-118618000D03*
X156210000Y-87884000D03*
X152146000Y-91694000D03*
X160020000Y-94488000D03*
X140970000Y-122174000D03*
X180340000Y-136144000D03*
X158750000Y-124714000D03*
X146812000Y-149606000D03*
X169672000Y-148590000D03*
X155194000Y-136144000D03*
X170621278Y-105476722D03*
%TO.N,stop*%
X167302981Y-97028000D03*
%TO.N,+3V3*%
X168910000Y-127762000D03*
X166853461Y-98298000D03*
X166184158Y-111828158D03*
X153670000Y-124460000D03*
X173736000Y-127762000D03*
X168034342Y-93839658D03*
%TO.N,R*%
X169164000Y-107696000D03*
%TO.N,L*%
X161798830Y-82548954D03*
X164978018Y-98419982D03*
X154622149Y-78313757D03*
%TO.N,Teensy D+*%
X147574000Y-142240000D03*
%TO.N,Teensy D-*%
X146558000Y-143002000D03*
%TO.N,Cam D+*%
X158750000Y-147066000D03*
%TO.N,Cam D-*%
X157226000Y-147765500D03*
%TO.N,unconnected-(J4-PadA4)*%
X156464000Y-146304000D03*
X159564500Y-146304000D03*
%TO.N,CS*%
X144780000Y-82042000D03*
%TO.N,MOSI*%
X137392100Y-98044000D03*
X137644596Y-91820708D03*
%TO.N,RS*%
X138779980Y-95758000D03*
%TO.N,SCK*%
X138176000Y-96774000D03*
%TD*%
D18*
%TO.N,start*%
X165824500Y-80645000D02*
X165549520Y-80370020D01*
X165549520Y-79823802D02*
X165100718Y-79375000D01*
X165100718Y-79375000D02*
X160909000Y-79375000D01*
X160909000Y-79375000D02*
X158750000Y-77216000D01*
X165549520Y-80370020D02*
X165549520Y-79823802D01*
X165621342Y-91426658D02*
X165966201Y-91771517D01*
X165966201Y-91771517D02*
X165966201Y-95985247D01*
%TO.N,stop*%
X159009379Y-79115621D02*
X159253339Y-79115621D01*
X166116000Y-86106000D02*
X168402000Y-88392000D01*
X158111057Y-79115621D02*
X158490621Y-79115621D01*
X168402000Y-92289962D02*
X167302981Y-93388981D01*
X165100000Y-81788000D02*
X166116000Y-82804000D01*
X167302981Y-93388981D02*
X167302981Y-97028000D01*
X159989207Y-79851489D02*
X164941489Y-79851489D01*
X156211436Y-77216000D02*
X158111057Y-79115621D01*
X166116000Y-82804000D02*
X166116000Y-86106000D01*
X164941489Y-79851489D02*
X165100000Y-80010000D01*
X158490621Y-79115621D02*
X159009379Y-79115621D01*
X159253339Y-79115621D02*
X159989207Y-79851489D01*
X168402000Y-88392000D02*
X168402000Y-92289962D01*
X165100000Y-80010000D02*
X165100000Y-81788000D01*
X156210000Y-77216000D02*
X156211436Y-77216000D01*
%TO.N,+3V3*%
X168910000Y-127762000D02*
X156972000Y-127762000D01*
X166853461Y-98298000D02*
X167132000Y-98298000D01*
X166184158Y-111828158D02*
X165998316Y-112014000D01*
X167132000Y-98298000D02*
X168034342Y-97395658D01*
X148590000Y-119380000D02*
X148590000Y-108285000D01*
X148590000Y-109201758D02*
X148590000Y-108285000D01*
X166853461Y-98298000D02*
X167158684Y-98298000D01*
X173736000Y-127762000D02*
X168910000Y-127762000D01*
X151402242Y-112014000D02*
X148590000Y-109201758D01*
X168034342Y-97422342D02*
X168034342Y-93839658D01*
X156972000Y-127762000D02*
X153670000Y-124460000D01*
X153670000Y-124460000D02*
X148590000Y-119380000D01*
X167158684Y-98298000D02*
X168034342Y-97422342D01*
X165998316Y-112014000D02*
X151402242Y-112014000D01*
%TO.N,R*%
X167835520Y-106367520D02*
X169164000Y-107696000D01*
X156962678Y-78602960D02*
X157924859Y-79565141D01*
X154940000Y-77216000D02*
X154998495Y-77274495D01*
X163967040Y-98433604D02*
X167835520Y-102302084D01*
X163967040Y-92719324D02*
X163967040Y-98433604D01*
X153670000Y-77216000D02*
X154940000Y-77216000D01*
X160110489Y-88862772D02*
X163967040Y-92719324D01*
X154998495Y-77665505D02*
X155935950Y-78602960D01*
X154998495Y-77274495D02*
X154998495Y-77665505D01*
X155935950Y-78602960D02*
X156962678Y-78602960D01*
X159067141Y-79565141D02*
X160110489Y-80608489D01*
X160110489Y-80608489D02*
X160110489Y-88862772D01*
X157924859Y-79565141D02*
X159067141Y-79565141D01*
X167835520Y-102302084D02*
X167835520Y-106367520D01*
%TO.N,L*%
X163068000Y-87630000D02*
X163068000Y-86360000D01*
X162560000Y-83566000D02*
X161798830Y-82804830D01*
X154545395Y-78390511D02*
X154622149Y-78313757D01*
X152304511Y-78390511D02*
X154545395Y-78390511D01*
X162560000Y-85852000D02*
X162560000Y-83566000D01*
X163322000Y-87884000D02*
X163068000Y-87630000D01*
X164416560Y-97858524D02*
X164416560Y-88216560D01*
X161798830Y-82804830D02*
X161798830Y-82548954D01*
X164978018Y-98419982D02*
X164416560Y-97858524D01*
X164084000Y-87884000D02*
X163322000Y-87884000D01*
X164416560Y-88216560D02*
X164084000Y-87884000D01*
X151130000Y-77216000D02*
X152304511Y-78390511D01*
X163068000Y-86360000D02*
X162560000Y-85852000D01*
D19*
%TO.N,Teensy D+*%
X136692600Y-111232698D02*
X137160000Y-111700098D01*
X137160000Y-111700098D02*
X137160000Y-137607787D01*
X136692600Y-96728400D02*
X136692600Y-111232698D01*
X141792212Y-142240000D02*
X147574000Y-142240000D01*
X137160000Y-137607787D02*
X141792212Y-142240000D01*
X148585000Y-84836000D02*
X136692600Y-96728400D01*
%TO.N,Teensy D-*%
X136760481Y-111865585D02*
X136760480Y-137773273D01*
X136293080Y-111398184D02*
X136760481Y-111865585D01*
X136293080Y-96562914D02*
X136293080Y-111398184D01*
X141989206Y-143002000D02*
X146558000Y-143002000D01*
X146045000Y-86810994D02*
X136293080Y-96562914D01*
X146045000Y-84836000D02*
X146045000Y-86810994D01*
X136760480Y-137773273D02*
X141989206Y-143002000D01*
D18*
%TO.N,Reset 1*%
X140021803Y-79052480D02*
X138488480Y-80585802D01*
X138488480Y-80585802D02*
X138488480Y-92001422D01*
X138488480Y-92001422D02*
X134620000Y-95869902D01*
X134620000Y-106065000D02*
X127650000Y-113035000D01*
X156776480Y-79052480D02*
X140021803Y-79052480D01*
X158750000Y-81026000D02*
X156776480Y-79052480D01*
X134620000Y-95869902D02*
X134620000Y-106065000D01*
%TO.N,MISO 1*%
X138938000Y-92187620D02*
X135069520Y-96056100D01*
X133440489Y-114209511D02*
X131555489Y-114209511D01*
X138938000Y-80772000D02*
X138938000Y-92187620D01*
X131555489Y-114209511D02*
X130190000Y-115575000D01*
X140208000Y-79502000D02*
X138938000Y-80772000D01*
X135069520Y-96056100D02*
X135069520Y-112463520D01*
X135128000Y-112522000D02*
X133440489Y-114209511D01*
X135069520Y-112463520D02*
X135128000Y-112522000D01*
X154686000Y-79502000D02*
X140208000Y-79502000D01*
X156210000Y-81026000D02*
X154686000Y-79502000D01*
%TO.N,+5V*%
X175990489Y-115030489D02*
X178530489Y-115030489D01*
X165702529Y-99533375D02*
X174625000Y-108455846D01*
X174625000Y-113665000D02*
X175990489Y-115030489D01*
X167952480Y-88578198D02*
X167952480Y-92103764D01*
X163078490Y-82804000D02*
X164846000Y-82804000D01*
X140653961Y-143397129D02*
X135536922Y-138280090D01*
X156668480Y-148540480D02*
X156318019Y-148190019D01*
X178530489Y-115030489D02*
X185166000Y-121666000D01*
X185166000Y-137922000D02*
X183896000Y-139192000D01*
X167952480Y-92103764D02*
X166853461Y-93202783D01*
X129793990Y-116840000D02*
X129015489Y-116061499D01*
X164338000Y-146558000D02*
X162355520Y-148540480D01*
X183896000Y-139192000D02*
X182626000Y-139192000D01*
X164846000Y-82804000D02*
X165608000Y-83566000D01*
X165702529Y-97273533D02*
X165702529Y-99533375D01*
X175260000Y-146558000D02*
X164338000Y-146558000D01*
X161290000Y-81026000D02*
X161300490Y-81026000D01*
X129015489Y-114209511D02*
X130190000Y-113035000D01*
X185166000Y-121666000D02*
X185166000Y-137922000D01*
X135536922Y-116994922D02*
X135382000Y-116840000D01*
X166853461Y-93202783D02*
X166853461Y-96122601D01*
X135536922Y-138280090D02*
X135536922Y-116994922D01*
X135382000Y-116840000D02*
X129793990Y-116840000D01*
X161300490Y-81026000D02*
X163078490Y-82804000D01*
X166853461Y-96122601D02*
X165702529Y-97273533D01*
X156318019Y-148190019D02*
X142223959Y-148190019D01*
X162355520Y-148540480D02*
X156668480Y-148540480D01*
X165608000Y-83566000D02*
X165608000Y-86233718D01*
X129015489Y-116061499D02*
X129015489Y-114209511D01*
X182626000Y-139192000D02*
X175260000Y-146558000D01*
X142223959Y-148190019D02*
X140653961Y-146620021D01*
X165608000Y-86233718D02*
X167952480Y-88578198D01*
X174625000Y-108455846D02*
X174625000Y-113665000D01*
X140653961Y-146620021D02*
X140653961Y-143397129D01*
D19*
%TO.N,Cam D+*%
X143505000Y-88785988D02*
X135893560Y-96397428D01*
X143505000Y-84836000D02*
X143505000Y-88785988D01*
X142265308Y-147066000D02*
X158750000Y-147066000D01*
X141478000Y-146278692D02*
X142265308Y-147066000D01*
X135893560Y-111563670D02*
X136360962Y-112031072D01*
X141478000Y-143055800D02*
X141478000Y-146278692D01*
X136360962Y-112031072D02*
X136360961Y-137938761D01*
X136360961Y-137938761D02*
X141478000Y-143055800D01*
X135893560Y-96397428D02*
X135893560Y-111563670D01*
%TO.N,Cam D-*%
X135494040Y-111729156D02*
X135961442Y-112196558D01*
X141078480Y-146444178D02*
X142399802Y-147765500D01*
X142399802Y-147765500D02*
X157226000Y-147765500D01*
X135494040Y-96231942D02*
X135494040Y-111729156D01*
X141078481Y-143221287D02*
X141078480Y-146444178D01*
X140965000Y-84836000D02*
X140965000Y-90760982D01*
X135961441Y-138104247D02*
X141078481Y-143221287D01*
X140965000Y-90760982D02*
X135494040Y-96231942D01*
X135961442Y-112196558D02*
X135961441Y-138104247D01*
D18*
%TO.N,unconnected-(J4-PadA4)*%
X156464000Y-146304000D02*
X159564500Y-146304000D01*
%TO.N,CS*%
X149071499Y-83661489D02*
X149759511Y-84349501D01*
X149759511Y-100765489D02*
X142240000Y-108285000D01*
X146399489Y-83661489D02*
X149071499Y-83661489D01*
X144780000Y-82042000D02*
X146399489Y-83661489D01*
X149759511Y-84349501D02*
X149759511Y-100765489D01*
%TO.N,MOSI*%
X145386718Y-111135040D02*
X147320000Y-109201758D01*
X138038960Y-107814395D02*
X138429283Y-108204717D01*
X146050000Y-77216000D02*
X144663040Y-78602960D01*
X138038960Y-98690860D02*
X138038960Y-107814395D01*
X138038960Y-91426344D02*
X137644596Y-91820708D01*
X147320000Y-109201758D02*
X147320000Y-108285000D01*
X138038960Y-80399604D02*
X138038960Y-85852000D01*
X138038960Y-85852000D02*
X138038960Y-91426344D01*
X138429283Y-108204717D02*
X141359606Y-111135040D01*
X139835605Y-78602960D02*
X138937282Y-79501282D01*
X144663040Y-78602960D02*
X139835605Y-78602960D01*
X141359606Y-111135040D02*
X145386718Y-111135040D01*
X137392100Y-98044000D02*
X138038960Y-98690860D01*
X138937282Y-79501282D02*
X138038960Y-80399604D01*
%TO.N,RS*%
X141732000Y-110236000D02*
X143745758Y-110236000D01*
X138779980Y-95758000D02*
X138938000Y-95916020D01*
X138938000Y-107442000D02*
X141732000Y-110236000D01*
X138938000Y-95916020D02*
X138938000Y-107442000D01*
X143745758Y-110236000D02*
X144780000Y-109201758D01*
X144780000Y-109201758D02*
X144780000Y-108285000D01*
%TO.N,SCK*%
X138176000Y-96774000D02*
X138488480Y-97086480D01*
X138488480Y-107628198D02*
X141545803Y-110685520D01*
X144838480Y-110685520D02*
X146050000Y-109474000D01*
X146050000Y-109474000D02*
X146050000Y-108285000D01*
X138488480Y-97086480D02*
X138488480Y-107628198D01*
X141545803Y-110685520D02*
X144838480Y-110685520D01*
%TO.N,Reset 2*%
X154839511Y-85555991D02*
X155448000Y-86164480D01*
X167386000Y-108966000D02*
X172085000Y-113665000D01*
X154839511Y-83719511D02*
X154839511Y-85555991D01*
X163517520Y-92905521D02*
X163517520Y-98619802D01*
X148590000Y-81026000D02*
X149860000Y-82296000D01*
X156776479Y-86164480D02*
X163517520Y-92905521D01*
X167386000Y-102488282D02*
X167386000Y-108966000D01*
X149860000Y-82296000D02*
X153416000Y-82296000D01*
X153416000Y-82296000D02*
X154839511Y-83719511D01*
X163517520Y-98619802D02*
X167386000Y-102488282D01*
X155448000Y-86164480D02*
X156776479Y-86164480D01*
%TO.N,MISO 2*%
X152299511Y-83973511D02*
X152299511Y-85243511D01*
X173450489Y-115030489D02*
X174625000Y-116205000D01*
X152299511Y-85243511D02*
X153670000Y-86614000D01*
X163068000Y-98806000D02*
X166936480Y-102674480D01*
X166936480Y-102674480D02*
X166936480Y-109152197D01*
X147769520Y-82745520D02*
X151071520Y-82745520D01*
X153670000Y-86614000D02*
X156590282Y-86614000D01*
X166936480Y-109152197D02*
X170703756Y-112919474D01*
X146050000Y-81026000D02*
X147769520Y-82745520D01*
X163068000Y-93091718D02*
X163068000Y-98806000D01*
X171704000Y-115030489D02*
X173450489Y-115030489D01*
X156590282Y-86614000D02*
X163068000Y-93091718D01*
X170703756Y-114030244D02*
X171704000Y-115030489D01*
X151071520Y-82745520D02*
X152299511Y-83973511D01*
X170703756Y-112919474D02*
X170703756Y-114030244D01*
%TD*%
%TA.AperFunction,Conductor*%
%TO.N,GND*%
G36*
X133904532Y-104218825D02*
G01*
X133961368Y-104261372D01*
X133986179Y-104327892D01*
X133986500Y-104336881D01*
X133986500Y-105750406D01*
X133966498Y-105818527D01*
X133949595Y-105839501D01*
X128107345Y-111681750D01*
X128045033Y-111715776D01*
X127996154Y-111716702D01*
X127783373Y-111678800D01*
X127783367Y-111678799D01*
X127778284Y-111677894D01*
X127704452Y-111676992D01*
X127560081Y-111675228D01*
X127560079Y-111675228D01*
X127554911Y-111675165D01*
X127334091Y-111708955D01*
X127121756Y-111778357D01*
X126923607Y-111881507D01*
X126919474Y-111884610D01*
X126919471Y-111884612D01*
X126749100Y-112012530D01*
X126744965Y-112015635D01*
X126590629Y-112177138D01*
X126464743Y-112361680D01*
X126441967Y-112410747D01*
X126373263Y-112558758D01*
X126370688Y-112564305D01*
X126310989Y-112779570D01*
X126287251Y-113001695D01*
X126287548Y-113006848D01*
X126287548Y-113006851D01*
X126295512Y-113144973D01*
X126300110Y-113224715D01*
X126301247Y-113229761D01*
X126301248Y-113229767D01*
X126325304Y-113336508D01*
X126349222Y-113442639D01*
X126433266Y-113649616D01*
X126549987Y-113840088D01*
X126696250Y-114008938D01*
X126700225Y-114012238D01*
X126700231Y-114012244D01*
X126705425Y-114016556D01*
X126745059Y-114075460D01*
X126746555Y-114146441D01*
X126709439Y-114206962D01*
X126669168Y-114231480D01*
X126561946Y-114271676D01*
X126546351Y-114280214D01*
X126444276Y-114356715D01*
X126431715Y-114369276D01*
X126355214Y-114471351D01*
X126346676Y-114486946D01*
X126301522Y-114607394D01*
X126297895Y-114622649D01*
X126292369Y-114673514D01*
X126292000Y-114680328D01*
X126292000Y-115302885D01*
X126296475Y-115318124D01*
X126297865Y-115319329D01*
X126305548Y-115321000D01*
X127778000Y-115321000D01*
X127846121Y-115341002D01*
X127892614Y-115394658D01*
X127904000Y-115447000D01*
X127904000Y-116914884D01*
X127908475Y-116930123D01*
X127909865Y-116931328D01*
X127917548Y-116932999D01*
X128544669Y-116932999D01*
X128551490Y-116932629D01*
X128602352Y-116927105D01*
X128617604Y-116923479D01*
X128738059Y-116878322D01*
X128753642Y-116869791D01*
X128765820Y-116860664D01*
X128832326Y-116835816D01*
X128901709Y-116850868D01*
X128930481Y-116872395D01*
X129290333Y-117232247D01*
X129297877Y-117240537D01*
X129301990Y-117247018D01*
X129307767Y-117252443D01*
X129351657Y-117293658D01*
X129354499Y-117296413D01*
X129374221Y-117316135D01*
X129377345Y-117318558D01*
X129377349Y-117318562D01*
X129377414Y-117318612D01*
X129386435Y-117326317D01*
X129418669Y-117356586D01*
X129425617Y-117360405D01*
X129425619Y-117360407D01*
X129436422Y-117366346D01*
X129452949Y-117377202D01*
X129462688Y-117384757D01*
X129462690Y-117384758D01*
X129468950Y-117389614D01*
X129509530Y-117407174D01*
X129520178Y-117412391D01*
X129558930Y-117433695D01*
X129566606Y-117435666D01*
X129566609Y-117435667D01*
X129578552Y-117438733D01*
X129597257Y-117445137D01*
X129615845Y-117453181D01*
X129623668Y-117454420D01*
X129623678Y-117454423D01*
X129659514Y-117460099D01*
X129671134Y-117462505D01*
X129706279Y-117471528D01*
X129713960Y-117473500D01*
X129734214Y-117473500D01*
X129753924Y-117475051D01*
X129773933Y-117478220D01*
X129781825Y-117477474D01*
X129807457Y-117475051D01*
X129817952Y-117474059D01*
X129829809Y-117473500D01*
X134777422Y-117473500D01*
X134845543Y-117493502D01*
X134892036Y-117547158D01*
X134903422Y-117599500D01*
X134903422Y-138201323D01*
X134902895Y-138212506D01*
X134901220Y-138219999D01*
X134901469Y-138227925D01*
X134901469Y-138227926D01*
X134903360Y-138288076D01*
X134903422Y-138292035D01*
X134903422Y-138319946D01*
X134903919Y-138323880D01*
X134903919Y-138323881D01*
X134903927Y-138323946D01*
X134904860Y-138335783D01*
X134906249Y-138379979D01*
X134911900Y-138399429D01*
X134915909Y-138418790D01*
X134916777Y-138425657D01*
X134918448Y-138438887D01*
X134921367Y-138446258D01*
X134921367Y-138446260D01*
X134934726Y-138480002D01*
X134938571Y-138491232D01*
X134942391Y-138504381D01*
X134950904Y-138533683D01*
X134954937Y-138540502D01*
X134954939Y-138540507D01*
X134961215Y-138551118D01*
X134969910Y-138568866D01*
X134977370Y-138587707D01*
X134982032Y-138594123D01*
X134982032Y-138594124D01*
X135003358Y-138623477D01*
X135009874Y-138633397D01*
X135027271Y-138662813D01*
X135032380Y-138671452D01*
X135046701Y-138685773D01*
X135059541Y-138700806D01*
X135071450Y-138717197D01*
X135090110Y-138732634D01*
X135105527Y-138745388D01*
X135114306Y-138753378D01*
X139008672Y-142647745D01*
X139042697Y-142710055D01*
X139037632Y-142780870D01*
X138998528Y-142835035D01*
X138871127Y-142937468D01*
X138862368Y-142946046D01*
X138743222Y-143088039D01*
X138736292Y-143098159D01*
X138646998Y-143260585D01*
X138642166Y-143271858D01*
X138586120Y-143448538D01*
X138583570Y-143460532D01*
X138567393Y-143604761D01*
X138567000Y-143611785D01*
X138567000Y-143797974D01*
X138546998Y-143866095D01*
X138493342Y-143912588D01*
X138423068Y-143922692D01*
X138413514Y-143920939D01*
X138243506Y-143882938D01*
X138243499Y-143882937D01*
X138238457Y-143881810D01*
X138232912Y-143881500D01*
X138099756Y-143881500D01*
X137964963Y-143896143D01*
X137858289Y-143932043D01*
X137799796Y-143951728D01*
X137799794Y-143951729D01*
X137793325Y-143953906D01*
X137638095Y-144047177D01*
X137633138Y-144051865D01*
X137633135Y-144051867D01*
X137578329Y-144103695D01*
X137506515Y-144171607D01*
X137502683Y-144177245D01*
X137502680Y-144177249D01*
X137451740Y-144252205D01*
X137404723Y-144321388D01*
X137337470Y-144489534D01*
X137336356Y-144496262D01*
X137336355Y-144496266D01*
X137309007Y-144661461D01*
X137307892Y-144668198D01*
X137308249Y-144675015D01*
X137308249Y-144675019D01*
X137313151Y-144768539D01*
X137317370Y-144849047D01*
X137319181Y-144855620D01*
X137319181Y-144855623D01*
X137342551Y-144940466D01*
X137365461Y-145023641D01*
X137449922Y-145183836D01*
X137454327Y-145189049D01*
X137454330Y-145189053D01*
X137562406Y-145316943D01*
X137562410Y-145316947D01*
X137566813Y-145322157D01*
X137572237Y-145326304D01*
X137572238Y-145326305D01*
X137705257Y-145428006D01*
X137705261Y-145428009D01*
X137710678Y-145432150D01*
X137797372Y-145472576D01*
X137868631Y-145505805D01*
X137868634Y-145505806D01*
X137874808Y-145508685D01*
X137881456Y-145510171D01*
X137881459Y-145510172D01*
X137987421Y-145533857D01*
X138051543Y-145548190D01*
X138057088Y-145548500D01*
X138190244Y-145548500D01*
X138325037Y-145533857D01*
X138473323Y-145483953D01*
X138490204Y-145478272D01*
X138490206Y-145478271D01*
X138496675Y-145476094D01*
X138643038Y-145388151D01*
X138711727Y-145370212D01*
X138779214Y-145392259D01*
X138805572Y-145416519D01*
X138852397Y-145473933D01*
X138861041Y-145482637D01*
X139003856Y-145600784D01*
X139014027Y-145607644D01*
X139177076Y-145695804D01*
X139188381Y-145700556D01*
X139303692Y-145736250D01*
X139317795Y-145736456D01*
X139321000Y-145729701D01*
X139321000Y-144087000D01*
X139341002Y-144018879D01*
X139394658Y-143972386D01*
X139447000Y-143961000D01*
X139703000Y-143961000D01*
X139771121Y-143981002D01*
X139817614Y-144034658D01*
X139829000Y-144087000D01*
X139829000Y-145722924D01*
X139832973Y-145736455D01*
X139840770Y-145737576D01*
X139858886Y-145732244D01*
X139929882Y-145732198D01*
X139989633Y-145770544D01*
X140019167Y-145835106D01*
X140020461Y-145853117D01*
X140020461Y-146541254D01*
X140019934Y-146552437D01*
X140018259Y-146559930D01*
X140018508Y-146567856D01*
X140018508Y-146567857D01*
X140020399Y-146628007D01*
X140020461Y-146631966D01*
X140020461Y-146659877D01*
X140020958Y-146663811D01*
X140020958Y-146663812D01*
X140020966Y-146663877D01*
X140021899Y-146675714D01*
X140023288Y-146719910D01*
X140028939Y-146739360D01*
X140032948Y-146758721D01*
X140035487Y-146778818D01*
X140038406Y-146786189D01*
X140038406Y-146786191D01*
X140051765Y-146819933D01*
X140055610Y-146831163D01*
X140065732Y-146866004D01*
X140067943Y-146873614D01*
X140071976Y-146880433D01*
X140071978Y-146880438D01*
X140078254Y-146891049D01*
X140086949Y-146908797D01*
X140094409Y-146927638D01*
X140099071Y-146934054D01*
X140099071Y-146934055D01*
X140120397Y-146963408D01*
X140126907Y-146973319D01*
X140134146Y-146985559D01*
X140151606Y-147054374D01*
X140129090Y-147121705D01*
X140073746Y-147166175D01*
X140003146Y-147173664D01*
X139976868Y-147165853D01*
X139961624Y-147159445D01*
X139846308Y-147123750D01*
X139832205Y-147123544D01*
X139829000Y-147130299D01*
X139829000Y-148122885D01*
X139833475Y-148138124D01*
X139834865Y-148139329D01*
X139842548Y-148141000D01*
X140564885Y-148141000D01*
X140580124Y-148136525D01*
X140581329Y-148135135D01*
X140583000Y-148127452D01*
X140583000Y-148048343D01*
X140582699Y-148042195D01*
X140569188Y-147904397D01*
X140566805Y-147892362D01*
X140511451Y-147709023D01*
X140514073Y-147708231D01*
X140507850Y-147649370D01*
X140539742Y-147585939D01*
X140600865Y-147549821D01*
X140671811Y-147552481D01*
X140720903Y-147582867D01*
X141630822Y-148492786D01*
X141664848Y-148555098D01*
X141659783Y-148625913D01*
X141638249Y-148662872D01*
X141533222Y-148788039D01*
X141526292Y-148798159D01*
X141436998Y-148960585D01*
X141432166Y-148971858D01*
X141376120Y-149148538D01*
X141373570Y-149160532D01*
X141357393Y-149304761D01*
X141357000Y-149311785D01*
X141357000Y-149392885D01*
X141361475Y-149408124D01*
X141362865Y-149409329D01*
X141370548Y-149411000D01*
X143354885Y-149411000D01*
X143370124Y-149406525D01*
X143371329Y-149405135D01*
X143373000Y-149397452D01*
X143373000Y-149318343D01*
X143372699Y-149312195D01*
X143359188Y-149174397D01*
X143356806Y-149162365D01*
X143303538Y-148985938D01*
X143302997Y-148914943D01*
X143340924Y-148854926D01*
X143405278Y-148824942D01*
X143424160Y-148823519D01*
X149947065Y-148823519D01*
X150015186Y-148843521D01*
X150061679Y-148897177D01*
X150071783Y-148967451D01*
X150067167Y-148987617D01*
X150016120Y-149148538D01*
X150013570Y-149160532D01*
X149997393Y-149304761D01*
X149997000Y-149311785D01*
X149997000Y-149392885D01*
X150001475Y-149408124D01*
X150002865Y-149409329D01*
X150010548Y-149411000D01*
X151994885Y-149411000D01*
X152010124Y-149406525D01*
X152011329Y-149405135D01*
X152013000Y-149397452D01*
X152013000Y-149318343D01*
X152012699Y-149312195D01*
X151999188Y-149174397D01*
X151996806Y-149162365D01*
X151943538Y-148985938D01*
X151942997Y-148914943D01*
X151980924Y-148854926D01*
X152045278Y-148824942D01*
X152064160Y-148823519D01*
X152737065Y-148823519D01*
X152805186Y-148843521D01*
X152851679Y-148897177D01*
X152861783Y-148967451D01*
X152857167Y-148987617D01*
X152806120Y-149148538D01*
X152803570Y-149160532D01*
X152787393Y-149304761D01*
X152787000Y-149311785D01*
X152787000Y-149392885D01*
X152791475Y-149408124D01*
X152792865Y-149409329D01*
X152800548Y-149411000D01*
X154784885Y-149411000D01*
X154800124Y-149406525D01*
X154801329Y-149405135D01*
X154803000Y-149397452D01*
X154803000Y-149318343D01*
X154802699Y-149312195D01*
X154789188Y-149174397D01*
X154786806Y-149162365D01*
X154733538Y-148985938D01*
X154732997Y-148914943D01*
X154770924Y-148854926D01*
X154835278Y-148824942D01*
X154854160Y-148823519D01*
X156003425Y-148823519D01*
X156071546Y-148843521D01*
X156092520Y-148860424D01*
X156164823Y-148932727D01*
X156172367Y-148941017D01*
X156176480Y-148947498D01*
X156182257Y-148952923D01*
X156226147Y-148994138D01*
X156228989Y-148996893D01*
X156248711Y-149016615D01*
X156251853Y-149019052D01*
X156251913Y-149019099D01*
X156260925Y-149026797D01*
X156278914Y-149043689D01*
X156293159Y-149057066D01*
X156300102Y-149060883D01*
X156310911Y-149066825D01*
X156327433Y-149077678D01*
X156343439Y-149090094D01*
X156350717Y-149093244D01*
X156350718Y-149093244D01*
X156384017Y-149107654D01*
X156394667Y-149112871D01*
X156433420Y-149134175D01*
X156441095Y-149136146D01*
X156441096Y-149136146D01*
X156453042Y-149139213D01*
X156471747Y-149145617D01*
X156490335Y-149153661D01*
X156498158Y-149154900D01*
X156498168Y-149154903D01*
X156534004Y-149160579D01*
X156545624Y-149162985D01*
X156577439Y-149171153D01*
X156588450Y-149173980D01*
X156608704Y-149173980D01*
X156628414Y-149175531D01*
X156648423Y-149178700D01*
X156656315Y-149177954D01*
X156692441Y-149174539D01*
X156704299Y-149173980D01*
X161301463Y-149173980D01*
X161369584Y-149193982D01*
X161416077Y-149247638D01*
X161427267Y-149307014D01*
X161427000Y-149311789D01*
X161427000Y-149392885D01*
X161431475Y-149408124D01*
X161432865Y-149409329D01*
X161440548Y-149411000D01*
X163424885Y-149411000D01*
X163440124Y-149406525D01*
X163441329Y-149405135D01*
X163443000Y-149397452D01*
X163443000Y-149318343D01*
X163442699Y-149312195D01*
X163429188Y-149174397D01*
X163426805Y-149162362D01*
X163373233Y-148984924D01*
X163368559Y-148973584D01*
X163281540Y-148809923D01*
X163274752Y-148799706D01*
X163227408Y-148741657D01*
X164217000Y-148741657D01*
X164217301Y-148747805D01*
X164230812Y-148885603D01*
X164233195Y-148897638D01*
X164286767Y-149075076D01*
X164291441Y-149086416D01*
X164378460Y-149250077D01*
X164385249Y-149260294D01*
X164502397Y-149403933D01*
X164511041Y-149412637D01*
X164653856Y-149530784D01*
X164664027Y-149537644D01*
X164827076Y-149625804D01*
X164838381Y-149630556D01*
X164953692Y-149666250D01*
X164967795Y-149666456D01*
X164971000Y-149659701D01*
X164971000Y-149652924D01*
X165479000Y-149652924D01*
X165482973Y-149666455D01*
X165490768Y-149667575D01*
X165598521Y-149635862D01*
X165609889Y-149631269D01*
X165774154Y-149545393D01*
X165784415Y-149538679D01*
X165928873Y-149422532D01*
X165937632Y-149413954D01*
X166056778Y-149271961D01*
X166063708Y-149261841D01*
X166153002Y-149099415D01*
X166157834Y-149088142D01*
X166213880Y-148911462D01*
X166216430Y-148899468D01*
X166232607Y-148755239D01*
X166233000Y-148748215D01*
X166233000Y-148667115D01*
X166228525Y-148651876D01*
X166227135Y-148650671D01*
X166219452Y-148649000D01*
X165497115Y-148649000D01*
X165481876Y-148653475D01*
X165480671Y-148654865D01*
X165479000Y-148662548D01*
X165479000Y-149652924D01*
X164971000Y-149652924D01*
X164971000Y-148667115D01*
X164966525Y-148651876D01*
X164965135Y-148650671D01*
X164957452Y-148649000D01*
X164235115Y-148649000D01*
X164219876Y-148653475D01*
X164218671Y-148654865D01*
X164217000Y-148662548D01*
X164217000Y-148741657D01*
X163227408Y-148741657D01*
X163219781Y-148732306D01*
X163192227Y-148666875D01*
X163204422Y-148596933D01*
X163228329Y-148563575D01*
X164022462Y-147769442D01*
X164084773Y-147735417D01*
X164155588Y-147740482D01*
X164212424Y-147783029D01*
X164237235Y-147849549D01*
X164234803Y-147884734D01*
X164233570Y-147890534D01*
X164217393Y-148034761D01*
X164217000Y-148041785D01*
X164217000Y-148122885D01*
X164221475Y-148138124D01*
X164222865Y-148139329D01*
X164230548Y-148141000D01*
X166214885Y-148141000D01*
X166230124Y-148136525D01*
X166231329Y-148135135D01*
X166233000Y-148127452D01*
X166233000Y-148048343D01*
X166232699Y-148042195D01*
X166219188Y-147904397D01*
X166216805Y-147892362D01*
X166163233Y-147714924D01*
X166158559Y-147703584D01*
X166071540Y-147539923D01*
X166064751Y-147529706D01*
X165956630Y-147397136D01*
X165929076Y-147331704D01*
X165941271Y-147261763D01*
X165989344Y-147209518D01*
X166054273Y-147191500D01*
X173037012Y-147191500D01*
X173105133Y-147211502D01*
X173151626Y-147265158D01*
X173161730Y-147335432D01*
X173133534Y-147398491D01*
X173033222Y-147518039D01*
X173026292Y-147528159D01*
X172936998Y-147690585D01*
X172932166Y-147701858D01*
X172876120Y-147878538D01*
X172873570Y-147890532D01*
X172857393Y-148034761D01*
X172857000Y-148041785D01*
X172857000Y-148122885D01*
X172861475Y-148138124D01*
X172862865Y-148139329D01*
X172870548Y-148141000D01*
X174854885Y-148141000D01*
X174870124Y-148136525D01*
X174871329Y-148135135D01*
X174873000Y-148127452D01*
X174873000Y-148048343D01*
X174872699Y-148042195D01*
X174859188Y-147904397D01*
X174856805Y-147892362D01*
X174803233Y-147714924D01*
X174798559Y-147703584D01*
X174711540Y-147539923D01*
X174704751Y-147529706D01*
X174596630Y-147397136D01*
X174569076Y-147331704D01*
X174581271Y-147261763D01*
X174629344Y-147209518D01*
X174694273Y-147191500D01*
X175181233Y-147191500D01*
X175192416Y-147192027D01*
X175199909Y-147193702D01*
X175207835Y-147193453D01*
X175207836Y-147193453D01*
X175267986Y-147191562D01*
X175271945Y-147191500D01*
X175299856Y-147191500D01*
X175303791Y-147191003D01*
X175303856Y-147190995D01*
X175315693Y-147190062D01*
X175347951Y-147189048D01*
X175351970Y-147188922D01*
X175359889Y-147188673D01*
X175379343Y-147183021D01*
X175398700Y-147179013D01*
X175410930Y-147177468D01*
X175410931Y-147177468D01*
X175418797Y-147176474D01*
X175426168Y-147173555D01*
X175426170Y-147173555D01*
X175459912Y-147160196D01*
X175471142Y-147156351D01*
X175505983Y-147146229D01*
X175505984Y-147146229D01*
X175513593Y-147144018D01*
X175520412Y-147139985D01*
X175520417Y-147139983D01*
X175531028Y-147133707D01*
X175548776Y-147125012D01*
X175567617Y-147117552D01*
X175603387Y-147091564D01*
X175613307Y-147085048D01*
X175644535Y-147066580D01*
X175644538Y-147066578D01*
X175651362Y-147062542D01*
X175665683Y-147048221D01*
X175680717Y-147035380D01*
X175682373Y-147034177D01*
X175697107Y-147023472D01*
X175725298Y-146989395D01*
X175733288Y-146980616D01*
X182851500Y-139862405D01*
X182913812Y-139828379D01*
X182940595Y-139825500D01*
X183817233Y-139825500D01*
X183828416Y-139826027D01*
X183835909Y-139827702D01*
X183843835Y-139827453D01*
X183843836Y-139827453D01*
X183903986Y-139825562D01*
X183907945Y-139825500D01*
X183935856Y-139825500D01*
X183939791Y-139825003D01*
X183939856Y-139824995D01*
X183951693Y-139824062D01*
X183983951Y-139823048D01*
X183987970Y-139822922D01*
X183995889Y-139822673D01*
X184015343Y-139817021D01*
X184034700Y-139813013D01*
X184046930Y-139811468D01*
X184046931Y-139811468D01*
X184054797Y-139810474D01*
X184062168Y-139807555D01*
X184062170Y-139807555D01*
X184095912Y-139794196D01*
X184107142Y-139790351D01*
X184141983Y-139780229D01*
X184141984Y-139780229D01*
X184149593Y-139778018D01*
X184156412Y-139773985D01*
X184156417Y-139773983D01*
X184167028Y-139767707D01*
X184184776Y-139759012D01*
X184203617Y-139751552D01*
X184213335Y-139744492D01*
X184239387Y-139725564D01*
X184249307Y-139719048D01*
X184280535Y-139700580D01*
X184280538Y-139700578D01*
X184287362Y-139696542D01*
X184301683Y-139682221D01*
X184316717Y-139669380D01*
X184317214Y-139669019D01*
X184333107Y-139657472D01*
X184361298Y-139623395D01*
X184369288Y-139614616D01*
X185558247Y-138425657D01*
X185566537Y-138418113D01*
X185573018Y-138414000D01*
X185619659Y-138364332D01*
X185622413Y-138361491D01*
X185642134Y-138341770D01*
X185644612Y-138338575D01*
X185652318Y-138329553D01*
X185677158Y-138303101D01*
X185682586Y-138297321D01*
X185692346Y-138279568D01*
X185703199Y-138263045D01*
X185710753Y-138253306D01*
X185715613Y-138247041D01*
X185733176Y-138206457D01*
X185738383Y-138195827D01*
X185759695Y-138157060D01*
X185761666Y-138149383D01*
X185761668Y-138149378D01*
X185764732Y-138137442D01*
X185771138Y-138118730D01*
X185776033Y-138107419D01*
X185779181Y-138100145D01*
X185780421Y-138092317D01*
X185780423Y-138092310D01*
X185786099Y-138056476D01*
X185788505Y-138044856D01*
X185797528Y-138009711D01*
X185797528Y-138009710D01*
X185799500Y-138002030D01*
X185799500Y-137981776D01*
X185801051Y-137962065D01*
X185802980Y-137949886D01*
X185804220Y-137942057D01*
X185800059Y-137898038D01*
X185799500Y-137886181D01*
X185799500Y-121744768D01*
X185800027Y-121733585D01*
X185801702Y-121726092D01*
X185799562Y-121658001D01*
X185799500Y-121654044D01*
X185799500Y-121626144D01*
X185798996Y-121622153D01*
X185798063Y-121610311D01*
X185796923Y-121574036D01*
X185796674Y-121566111D01*
X185791021Y-121546652D01*
X185787012Y-121527293D01*
X185786846Y-121525983D01*
X185784474Y-121507203D01*
X185781558Y-121499837D01*
X185781556Y-121499831D01*
X185768200Y-121466098D01*
X185764355Y-121454868D01*
X185754230Y-121420017D01*
X185754230Y-121420016D01*
X185752019Y-121412407D01*
X185741705Y-121394966D01*
X185733008Y-121377213D01*
X185728472Y-121365758D01*
X185725552Y-121358383D01*
X185699563Y-121322612D01*
X185693047Y-121312692D01*
X185674578Y-121281463D01*
X185670542Y-121274638D01*
X185656221Y-121260317D01*
X185643380Y-121245283D01*
X185636131Y-121235306D01*
X185631472Y-121228893D01*
X185597395Y-121200702D01*
X185588616Y-121192712D01*
X179034141Y-114638236D01*
X179026601Y-114629950D01*
X179022489Y-114623471D01*
X178972837Y-114576845D01*
X178969996Y-114574091D01*
X178950259Y-114554354D01*
X178947062Y-114551874D01*
X178938040Y-114544169D01*
X178911589Y-114519330D01*
X178905810Y-114513903D01*
X178898864Y-114510084D01*
X178898861Y-114510082D01*
X178888055Y-114504141D01*
X178871536Y-114493290D01*
X178863357Y-114486946D01*
X178855530Y-114480875D01*
X178848261Y-114477730D01*
X178848257Y-114477727D01*
X178814952Y-114463315D01*
X178804302Y-114458098D01*
X178765549Y-114436794D01*
X178745926Y-114431756D01*
X178727223Y-114425352D01*
X178715909Y-114420456D01*
X178715908Y-114420456D01*
X178708634Y-114417308D01*
X178700811Y-114416069D01*
X178700801Y-114416066D01*
X178664965Y-114410390D01*
X178653345Y-114407984D01*
X178618200Y-114398961D01*
X178618199Y-114398961D01*
X178610519Y-114396989D01*
X178590265Y-114396989D01*
X178570554Y-114395438D01*
X178558375Y-114393509D01*
X178550546Y-114392269D01*
X178542653Y-114393015D01*
X178542651Y-114393015D01*
X178534660Y-114393770D01*
X178464959Y-114380266D01*
X178413624Y-114331222D01*
X178396954Y-114262211D01*
X178409848Y-114212502D01*
X178430136Y-114171452D01*
X178432430Y-114166811D01*
X178497370Y-113953069D01*
X178526529Y-113731590D01*
X178528156Y-113665000D01*
X178509852Y-113442361D01*
X178455431Y-113225702D01*
X178366354Y-113020840D01*
X178245014Y-112833277D01*
X178094670Y-112668051D01*
X178090619Y-112664852D01*
X178090615Y-112664848D01*
X177923414Y-112532800D01*
X177923410Y-112532798D01*
X177919359Y-112529598D01*
X177914831Y-112527098D01*
X177852263Y-112492559D01*
X177723789Y-112421638D01*
X177718920Y-112419914D01*
X177718916Y-112419912D01*
X177518087Y-112348795D01*
X177518083Y-112348794D01*
X177513212Y-112347069D01*
X177508119Y-112346162D01*
X177508116Y-112346161D01*
X177298373Y-112308800D01*
X177298367Y-112308799D01*
X177293284Y-112307894D01*
X177219452Y-112306992D01*
X177075081Y-112305228D01*
X177075079Y-112305228D01*
X177069911Y-112305165D01*
X176849091Y-112338955D01*
X176636756Y-112408357D01*
X176606443Y-112424137D01*
X176456653Y-112502113D01*
X176438607Y-112511507D01*
X176434474Y-112514610D01*
X176434471Y-112514612D01*
X176272125Y-112636505D01*
X176259965Y-112645635D01*
X176256393Y-112649373D01*
X176127065Y-112784707D01*
X176105629Y-112807138D01*
X175998201Y-112964621D01*
X175943293Y-113009621D01*
X175872768Y-113017792D01*
X175809021Y-112986538D01*
X175788324Y-112962054D01*
X175707822Y-112837617D01*
X175707820Y-112837614D01*
X175705014Y-112833277D01*
X175554670Y-112668051D01*
X175550619Y-112664852D01*
X175550615Y-112664848D01*
X175383414Y-112532800D01*
X175383410Y-112532798D01*
X175379359Y-112529598D01*
X175374835Y-112527101D01*
X175374831Y-112527098D01*
X175323608Y-112498822D01*
X175273636Y-112448390D01*
X175258500Y-112388513D01*
X175258500Y-109440830D01*
X175278502Y-109372709D01*
X175332158Y-109326216D01*
X175402432Y-109316112D01*
X175467012Y-109345606D01*
X175473595Y-109351735D01*
X191086689Y-124964829D01*
X191099337Y-124979598D01*
X191113488Y-124998969D01*
X191120606Y-125004441D01*
X191120607Y-125004442D01*
X191125687Y-125008347D01*
X191144120Y-125025730D01*
X191255053Y-125153757D01*
X191265826Y-125168149D01*
X191371129Y-125332009D01*
X191379744Y-125347786D01*
X191460662Y-125524972D01*
X191466944Y-125541817D01*
X191521819Y-125728709D01*
X191525639Y-125746270D01*
X191548125Y-125902657D01*
X191553360Y-125939070D01*
X191554643Y-125957002D01*
X191554643Y-126151784D01*
X191553361Y-126169715D01*
X191525641Y-126362519D01*
X191521820Y-126380085D01*
X191466944Y-126566983D01*
X191460663Y-126583824D01*
X191379747Y-126761011D01*
X191371136Y-126776781D01*
X191265831Y-126940644D01*
X191255058Y-126955036D01*
X191148816Y-127077650D01*
X191135346Y-127090046D01*
X191129606Y-127095648D01*
X191122361Y-127100941D01*
X191108949Y-127118389D01*
X191102961Y-127126179D01*
X191092159Y-127138485D01*
X188799689Y-129430954D01*
X188783672Y-129444502D01*
X188771284Y-129453321D01*
X188771278Y-129453326D01*
X188767320Y-129456144D01*
X188758336Y-129464911D01*
X188755420Y-129468801D01*
X188753981Y-129470441D01*
X188750070Y-129475237D01*
X188560090Y-129689676D01*
X188560086Y-129689682D01*
X188557563Y-129692529D01*
X188385170Y-129942281D01*
X188244138Y-130210991D01*
X188136524Y-130494741D01*
X188063896Y-130789395D01*
X188063436Y-130793182D01*
X188063436Y-130793183D01*
X188027776Y-131086869D01*
X188027316Y-131090654D01*
X188027314Y-131394126D01*
X188063893Y-131695385D01*
X188064804Y-131699081D01*
X188128423Y-131957198D01*
X188136517Y-131990039D01*
X188244129Y-132273790D01*
X188264379Y-132312373D01*
X188380463Y-132533554D01*
X188385159Y-132542502D01*
X188557550Y-132792255D01*
X188709013Y-132963222D01*
X188738296Y-132996276D01*
X188746621Y-133006743D01*
X188746750Y-133006925D01*
X188746754Y-133006930D01*
X188749566Y-133010879D01*
X188758333Y-133019863D01*
X188762217Y-133022774D01*
X188762225Y-133022781D01*
X188780672Y-133036606D01*
X188794202Y-133048337D01*
X191971008Y-136225141D01*
X192644779Y-136898912D01*
X192678804Y-136961224D01*
X192673740Y-137032039D01*
X192631193Y-137088875D01*
X192564673Y-137113686D01*
X192521169Y-137109187D01*
X192388669Y-137071444D01*
X192384427Y-137070840D01*
X192384421Y-137070839D01*
X192183937Y-137042306D01*
X192117546Y-137032857D01*
X191973692Y-137032104D01*
X191847980Y-137031446D01*
X191847974Y-137031446D01*
X191843694Y-137031424D01*
X191839450Y-137031983D01*
X191839446Y-137031983D01*
X191720405Y-137047655D01*
X191572181Y-137067169D01*
X191568041Y-137068302D01*
X191568039Y-137068302D01*
X191495111Y-137088253D01*
X191308031Y-137139432D01*
X191304083Y-137141116D01*
X191060085Y-137245190D01*
X191060081Y-137245192D01*
X191056133Y-137246876D01*
X190940508Y-137316076D01*
X190824828Y-137385308D01*
X190824824Y-137385311D01*
X190821146Y-137387512D01*
X190607421Y-137558738D01*
X190590820Y-137576232D01*
X190437515Y-137737782D01*
X190418911Y-137757386D01*
X190259105Y-137979780D01*
X190130960Y-138221805D01*
X190129488Y-138225828D01*
X190129486Y-138225832D01*
X190058873Y-138418790D01*
X190036846Y-138478981D01*
X189978507Y-138746551D01*
X189957020Y-139019562D01*
X189957437Y-139026800D01*
X189972785Y-139292964D01*
X190025508Y-139561697D01*
X190026895Y-139565747D01*
X190026896Y-139565752D01*
X190112826Y-139816732D01*
X190114215Y-139820788D01*
X190143341Y-139878698D01*
X190212940Y-140017081D01*
X190237263Y-140065443D01*
X190239689Y-140068972D01*
X190239692Y-140068978D01*
X190328558Y-140198278D01*
X190392377Y-140291134D01*
X190576685Y-140493687D01*
X190786778Y-140669351D01*
X190790419Y-140671635D01*
X191015127Y-140812595D01*
X191015131Y-140812597D01*
X191018767Y-140814878D01*
X191086647Y-140845527D01*
X191264448Y-140925808D01*
X191264452Y-140925810D01*
X191268360Y-140927574D01*
X191322112Y-140943496D01*
X191526826Y-141004135D01*
X191526830Y-141004136D01*
X191530939Y-141005353D01*
X191535173Y-141006001D01*
X191535178Y-141006002D01*
X191797401Y-141046127D01*
X191797403Y-141046127D01*
X191801643Y-141046776D01*
X191941015Y-141048966D01*
X192071174Y-141051011D01*
X192071180Y-141051011D01*
X192075465Y-141051078D01*
X192347338Y-141018178D01*
X192612230Y-140948685D01*
X192612283Y-140948886D01*
X192681455Y-140946183D01*
X192742634Y-140982205D01*
X192774626Y-141045585D01*
X192767274Y-141116200D01*
X192749698Y-141146323D01*
X192578303Y-141363989D01*
X192578296Y-141363998D01*
X192576713Y-141366009D01*
X192575301Y-141368139D01*
X192575294Y-141368149D01*
X192400730Y-141631500D01*
X192373182Y-141673059D01*
X192195374Y-141995687D01*
X192194324Y-141998026D01*
X192194319Y-141998036D01*
X192149242Y-142098424D01*
X192044475Y-142331744D01*
X192043617Y-142334166D01*
X192043616Y-142334169D01*
X191933145Y-142646084D01*
X191926928Y-142660655D01*
X191923933Y-142666607D01*
X191922088Y-142672332D01*
X191921968Y-142672578D01*
X191921922Y-142672848D01*
X191920083Y-142678554D01*
X191918391Y-142689222D01*
X191918362Y-142689407D01*
X191911321Y-142715407D01*
X191850479Y-142871563D01*
X191842702Y-142887934D01*
X191786012Y-142987984D01*
X191745885Y-143058802D01*
X191735845Y-143073879D01*
X191677356Y-143149321D01*
X191615505Y-143229098D01*
X191603397Y-143242586D01*
X191462046Y-143378917D01*
X191448129Y-143390529D01*
X191288671Y-143505174D01*
X191273234Y-143514667D01*
X191217088Y-143543852D01*
X191127699Y-143590316D01*
X191111479Y-143596534D01*
X191103307Y-143599943D01*
X191094617Y-143602188D01*
X191086907Y-143606783D01*
X191086901Y-143606785D01*
X191069857Y-143616942D01*
X191054125Y-143624882D01*
X189287457Y-144366474D01*
X189285139Y-144367420D01*
X188290699Y-144761802D01*
X187518682Y-145067974D01*
X187468181Y-145088002D01*
X187465861Y-145088896D01*
X185733885Y-145736250D01*
X185634927Y-145773237D01*
X185632575Y-145774090D01*
X183896789Y-146383842D01*
X183788363Y-146421930D01*
X183785998Y-146422734D01*
X181929289Y-147033796D01*
X181926963Y-147034536D01*
X180843297Y-147367468D01*
X180058453Y-147608593D01*
X180056052Y-147609304D01*
X179725951Y-147703584D01*
X178176581Y-148146099D01*
X178174222Y-148146747D01*
X176284383Y-148646109D01*
X176282007Y-148646712D01*
X175020673Y-148953322D01*
X174949757Y-148949976D01*
X174891906Y-148908821D01*
X174865489Y-148842922D01*
X174865698Y-148816843D01*
X174872607Y-148755242D01*
X174873000Y-148748215D01*
X174873000Y-148667115D01*
X174868525Y-148651876D01*
X174867135Y-148650671D01*
X174859452Y-148649000D01*
X172875115Y-148649000D01*
X172859876Y-148653475D01*
X172858671Y-148654865D01*
X172857000Y-148662548D01*
X172857000Y-148741657D01*
X172857301Y-148747805D01*
X172870812Y-148885603D01*
X172873195Y-148897638D01*
X172926767Y-149075076D01*
X172931441Y-149086416D01*
X173017456Y-149248189D01*
X173031775Y-149317727D01*
X173006227Y-149383967D01*
X172948922Y-149425880D01*
X172933527Y-149430344D01*
X172472025Y-149532860D01*
X172469576Y-149533378D01*
X171809750Y-149666250D01*
X170553394Y-149919247D01*
X170550990Y-149919707D01*
X169421055Y-150123971D01*
X168627498Y-150267427D01*
X168625030Y-150267848D01*
X166695035Y-150577276D01*
X166692559Y-150577648D01*
X164756747Y-150848671D01*
X164754284Y-150848991D01*
X163057267Y-151052290D01*
X162987253Y-151040533D01*
X162934708Y-150992789D01*
X162916317Y-150924215D01*
X162937919Y-150856585D01*
X162979467Y-150819486D01*
X162978997Y-150818768D01*
X162983763Y-150815649D01*
X162983900Y-150815527D01*
X162984148Y-150815397D01*
X162994415Y-150808679D01*
X163138873Y-150692532D01*
X163147632Y-150683954D01*
X163266778Y-150541961D01*
X163273708Y-150531841D01*
X163363002Y-150369415D01*
X163367834Y-150358142D01*
X163423880Y-150181462D01*
X163426430Y-150169468D01*
X163442607Y-150025239D01*
X163443000Y-150018215D01*
X163443000Y-149937115D01*
X163438525Y-149921876D01*
X163437135Y-149920671D01*
X163429452Y-149919000D01*
X161445115Y-149919000D01*
X161429876Y-149923475D01*
X161428671Y-149924865D01*
X161427000Y-149932548D01*
X161427000Y-150011657D01*
X161427301Y-150017805D01*
X161440812Y-150155603D01*
X161443195Y-150167638D01*
X161496767Y-150345076D01*
X161501441Y-150356416D01*
X161588460Y-150520077D01*
X161595249Y-150530294D01*
X161712397Y-150673933D01*
X161721041Y-150682637D01*
X161863856Y-150800784D01*
X161874027Y-150807644D01*
X162037076Y-150895804D01*
X162048374Y-150900553D01*
X162082485Y-150911112D01*
X162141645Y-150950363D01*
X162170193Y-151015367D01*
X162159065Y-151085486D01*
X162111795Y-151138458D01*
X162057726Y-151156857D01*
X161148181Y-151247527D01*
X160865992Y-151275657D01*
X160863523Y-151275878D01*
X158915032Y-151431083D01*
X158912601Y-151431253D01*
X158052895Y-151482564D01*
X156961427Y-151547708D01*
X156958926Y-151547833D01*
X155005759Y-151625499D01*
X155003257Y-151625573D01*
X153049033Y-151664412D01*
X153046529Y-151664437D01*
X151091871Y-151664437D01*
X151089367Y-151664412D01*
X149135143Y-151625573D01*
X149132641Y-151625499D01*
X147179474Y-151547833D01*
X147176973Y-151547708D01*
X146085505Y-151482564D01*
X145225799Y-151431253D01*
X145223368Y-151431083D01*
X143274877Y-151275878D01*
X143272408Y-151275657D01*
X143119567Y-151260421D01*
X142577071Y-151206341D01*
X142511271Y-151179680D01*
X142470330Y-151121677D01*
X142467246Y-151050747D01*
X142503000Y-150989411D01*
X142555558Y-150962533D01*
X142554794Y-150959936D01*
X142738521Y-150905862D01*
X142749889Y-150901269D01*
X142914154Y-150815393D01*
X142924415Y-150808679D01*
X143068873Y-150692532D01*
X143077632Y-150683954D01*
X143196778Y-150541961D01*
X143203708Y-150531841D01*
X143293002Y-150369415D01*
X143297834Y-150358142D01*
X143353880Y-150181462D01*
X143356430Y-150169468D01*
X143372607Y-150025239D01*
X143373000Y-150018215D01*
X143373000Y-150011657D01*
X149997000Y-150011657D01*
X149997301Y-150017805D01*
X150010812Y-150155603D01*
X150013195Y-150167638D01*
X150066767Y-150345076D01*
X150071441Y-150356416D01*
X150158460Y-150520077D01*
X150165249Y-150530294D01*
X150282397Y-150673933D01*
X150291041Y-150682637D01*
X150433856Y-150800784D01*
X150444027Y-150807644D01*
X150607076Y-150895804D01*
X150618381Y-150900556D01*
X150733692Y-150936250D01*
X150747795Y-150936456D01*
X150751000Y-150929701D01*
X150751000Y-150922924D01*
X151259000Y-150922924D01*
X151262973Y-150936455D01*
X151270768Y-150937575D01*
X151378521Y-150905862D01*
X151389889Y-150901269D01*
X151554154Y-150815393D01*
X151564415Y-150808679D01*
X151708873Y-150692532D01*
X151717632Y-150683954D01*
X151836778Y-150541961D01*
X151843708Y-150531841D01*
X151933002Y-150369415D01*
X151937834Y-150358142D01*
X151993880Y-150181462D01*
X151996430Y-150169468D01*
X152012607Y-150025239D01*
X152013000Y-150018215D01*
X152013000Y-150011657D01*
X152787000Y-150011657D01*
X152787301Y-150017805D01*
X152800812Y-150155603D01*
X152803195Y-150167638D01*
X152856767Y-150345076D01*
X152861441Y-150356416D01*
X152948460Y-150520077D01*
X152955249Y-150530294D01*
X153072397Y-150673933D01*
X153081041Y-150682637D01*
X153223856Y-150800784D01*
X153234027Y-150807644D01*
X153397076Y-150895804D01*
X153408381Y-150900556D01*
X153523692Y-150936250D01*
X153537795Y-150936456D01*
X153541000Y-150929701D01*
X153541000Y-150922924D01*
X154049000Y-150922924D01*
X154052973Y-150936455D01*
X154060768Y-150937575D01*
X154168521Y-150905862D01*
X154179889Y-150901269D01*
X154344154Y-150815393D01*
X154354415Y-150808679D01*
X154498873Y-150692532D01*
X154507632Y-150683954D01*
X154626778Y-150541961D01*
X154633708Y-150531841D01*
X154723002Y-150369415D01*
X154727834Y-150358142D01*
X154783880Y-150181462D01*
X154786430Y-150169468D01*
X154802607Y-150025239D01*
X154803000Y-150018215D01*
X154803000Y-149937115D01*
X154798525Y-149921876D01*
X154797135Y-149920671D01*
X154789452Y-149919000D01*
X154067115Y-149919000D01*
X154051876Y-149923475D01*
X154050671Y-149924865D01*
X154049000Y-149932548D01*
X154049000Y-150922924D01*
X153541000Y-150922924D01*
X153541000Y-149937115D01*
X153536525Y-149921876D01*
X153535135Y-149920671D01*
X153527452Y-149919000D01*
X152805115Y-149919000D01*
X152789876Y-149923475D01*
X152788671Y-149924865D01*
X152787000Y-149932548D01*
X152787000Y-150011657D01*
X152013000Y-150011657D01*
X152013000Y-149937115D01*
X152008525Y-149921876D01*
X152007135Y-149920671D01*
X151999452Y-149919000D01*
X151277115Y-149919000D01*
X151261876Y-149923475D01*
X151260671Y-149924865D01*
X151259000Y-149932548D01*
X151259000Y-150922924D01*
X150751000Y-150922924D01*
X150751000Y-149937115D01*
X150746525Y-149921876D01*
X150745135Y-149920671D01*
X150737452Y-149919000D01*
X150015115Y-149919000D01*
X149999876Y-149923475D01*
X149998671Y-149924865D01*
X149997000Y-149932548D01*
X149997000Y-150011657D01*
X143373000Y-150011657D01*
X143373000Y-149937115D01*
X143368525Y-149921876D01*
X143367135Y-149920671D01*
X143359452Y-149919000D01*
X141375115Y-149919000D01*
X141359876Y-149923475D01*
X141358671Y-149924865D01*
X141357000Y-149932548D01*
X141357000Y-150011657D01*
X141357301Y-150017805D01*
X141370812Y-150155603D01*
X141373195Y-150167638D01*
X141426767Y-150345076D01*
X141431441Y-150356416D01*
X141518460Y-150520077D01*
X141525249Y-150530294D01*
X141642397Y-150673933D01*
X141651041Y-150682637D01*
X141793856Y-150800784D01*
X141804027Y-150807644D01*
X141967076Y-150895804D01*
X141973565Y-150898532D01*
X142028613Y-150943368D01*
X142050682Y-151010847D01*
X142032766Y-151079546D01*
X141980553Y-151127653D01*
X141912242Y-151140067D01*
X141327310Y-151081757D01*
X141324822Y-151081483D01*
X139820503Y-150901269D01*
X139384116Y-150848991D01*
X139381653Y-150848671D01*
X137445841Y-150577648D01*
X137443365Y-150577276D01*
X135513370Y-150267848D01*
X135510902Y-150267427D01*
X134717345Y-150123971D01*
X133587410Y-149919707D01*
X133585006Y-149919247D01*
X132328650Y-149666250D01*
X131773063Y-149554369D01*
X131710232Y-149521313D01*
X131675246Y-149459535D01*
X131679214Y-149388650D01*
X131701415Y-149349858D01*
X131766778Y-149271961D01*
X131773708Y-149261841D01*
X131863002Y-149099415D01*
X131867834Y-149088142D01*
X131923880Y-148911462D01*
X131926430Y-148899468D01*
X131942607Y-148755239D01*
X131943000Y-148748215D01*
X131943000Y-148741657D01*
X138567000Y-148741657D01*
X138567301Y-148747805D01*
X138580812Y-148885603D01*
X138583195Y-148897638D01*
X138636767Y-149075076D01*
X138641441Y-149086416D01*
X138728460Y-149250077D01*
X138735249Y-149260294D01*
X138852397Y-149403933D01*
X138861041Y-149412637D01*
X139003856Y-149530784D01*
X139014027Y-149537644D01*
X139177076Y-149625804D01*
X139188381Y-149630556D01*
X139303692Y-149666250D01*
X139317795Y-149666456D01*
X139321000Y-149659701D01*
X139321000Y-149652924D01*
X139829000Y-149652924D01*
X139832973Y-149666455D01*
X139840768Y-149667575D01*
X139948521Y-149635862D01*
X139959889Y-149631269D01*
X140124154Y-149545393D01*
X140134415Y-149538679D01*
X140278873Y-149422532D01*
X140287632Y-149413954D01*
X140406778Y-149271961D01*
X140413708Y-149261841D01*
X140503002Y-149099415D01*
X140507834Y-149088142D01*
X140563880Y-148911462D01*
X140566430Y-148899468D01*
X140582607Y-148755239D01*
X140583000Y-148748215D01*
X140583000Y-148667115D01*
X140578525Y-148651876D01*
X140577135Y-148650671D01*
X140569452Y-148649000D01*
X139847115Y-148649000D01*
X139831876Y-148653475D01*
X139830671Y-148654865D01*
X139829000Y-148662548D01*
X139829000Y-149652924D01*
X139321000Y-149652924D01*
X139321000Y-148667115D01*
X139316525Y-148651876D01*
X139315135Y-148650671D01*
X139307452Y-148649000D01*
X138585115Y-148649000D01*
X138569876Y-148653475D01*
X138568671Y-148654865D01*
X138567000Y-148662548D01*
X138567000Y-148741657D01*
X131943000Y-148741657D01*
X131943000Y-148667115D01*
X131938525Y-148651876D01*
X131937135Y-148650671D01*
X131929452Y-148649000D01*
X129945115Y-148649000D01*
X129929876Y-148653475D01*
X129928671Y-148654865D01*
X129927000Y-148662548D01*
X129927000Y-148741657D01*
X129927301Y-148747805D01*
X129940812Y-148885603D01*
X129943194Y-148897634D01*
X129962664Y-148962119D01*
X129963205Y-149033113D01*
X129925278Y-149093130D01*
X129860924Y-149123115D01*
X129814719Y-149121540D01*
X129758226Y-149108991D01*
X129755787Y-149108424D01*
X128556279Y-148816843D01*
X127856393Y-148646712D01*
X127854017Y-148646109D01*
X125964178Y-148146747D01*
X125961819Y-148146099D01*
X125880540Y-148122885D01*
X129927000Y-148122885D01*
X129931475Y-148138124D01*
X129932865Y-148139329D01*
X129940548Y-148141000D01*
X130662885Y-148141000D01*
X130678124Y-148136525D01*
X130679329Y-148135135D01*
X130681000Y-148127452D01*
X130681000Y-148122885D01*
X131189000Y-148122885D01*
X131193475Y-148138124D01*
X131194865Y-148139329D01*
X131202548Y-148141000D01*
X131924885Y-148141000D01*
X131940124Y-148136525D01*
X131941329Y-148135135D01*
X131943000Y-148127452D01*
X131943000Y-148122885D01*
X138567000Y-148122885D01*
X138571475Y-148138124D01*
X138572865Y-148139329D01*
X138580548Y-148141000D01*
X139302885Y-148141000D01*
X139318124Y-148136525D01*
X139319329Y-148135135D01*
X139321000Y-148127452D01*
X139321000Y-147137076D01*
X139317027Y-147123545D01*
X139309232Y-147122425D01*
X139201479Y-147154138D01*
X139190111Y-147158731D01*
X139025846Y-147244607D01*
X139015585Y-147251321D01*
X138871127Y-147367468D01*
X138862368Y-147376046D01*
X138743222Y-147518039D01*
X138736292Y-147528159D01*
X138646998Y-147690585D01*
X138642166Y-147701858D01*
X138586120Y-147878538D01*
X138583570Y-147890532D01*
X138567393Y-148034761D01*
X138567000Y-148041785D01*
X138567000Y-148122885D01*
X131943000Y-148122885D01*
X131943000Y-148048343D01*
X131942699Y-148042195D01*
X131929188Y-147904397D01*
X131926805Y-147892362D01*
X131873233Y-147714924D01*
X131868559Y-147703584D01*
X131781540Y-147539923D01*
X131774751Y-147529706D01*
X131657603Y-147386067D01*
X131648959Y-147377363D01*
X131506144Y-147259216D01*
X131495973Y-147252356D01*
X131332924Y-147164196D01*
X131321619Y-147159444D01*
X131206308Y-147123750D01*
X131192205Y-147123544D01*
X131189000Y-147130299D01*
X131189000Y-148122885D01*
X130681000Y-148122885D01*
X130681000Y-147137076D01*
X130677027Y-147123545D01*
X130669232Y-147122425D01*
X130561479Y-147154138D01*
X130550111Y-147158731D01*
X130385846Y-147244607D01*
X130375585Y-147251321D01*
X130231127Y-147367468D01*
X130222368Y-147376046D01*
X130103222Y-147518039D01*
X130096292Y-147528159D01*
X130006998Y-147690585D01*
X130002166Y-147701858D01*
X129946120Y-147878538D01*
X129943570Y-147890532D01*
X129927393Y-148034761D01*
X129927000Y-148041785D01*
X129927000Y-148122885D01*
X125880540Y-148122885D01*
X124412449Y-147703584D01*
X124082348Y-147609304D01*
X124079947Y-147608593D01*
X123295103Y-147367468D01*
X122211437Y-147034536D01*
X122209111Y-147033796D01*
X120352402Y-146422734D01*
X120350037Y-146421930D01*
X120241612Y-146383842D01*
X118505825Y-145774090D01*
X118503473Y-145773237D01*
X118404515Y-145736250D01*
X116672539Y-145088896D01*
X116670219Y-145088002D01*
X116619719Y-145067974D01*
X115973411Y-144811657D01*
X129927000Y-144811657D01*
X129927301Y-144817805D01*
X129940812Y-144955603D01*
X129943195Y-144967638D01*
X129996767Y-145145076D01*
X130001441Y-145156416D01*
X130088460Y-145320077D01*
X130095249Y-145330294D01*
X130212397Y-145473933D01*
X130221041Y-145482637D01*
X130363856Y-145600784D01*
X130374027Y-145607644D01*
X130537076Y-145695804D01*
X130548381Y-145700556D01*
X130663692Y-145736250D01*
X130677795Y-145736456D01*
X130681000Y-145729701D01*
X130681000Y-145722924D01*
X131189000Y-145722924D01*
X131192973Y-145736455D01*
X131200768Y-145737575D01*
X131308521Y-145705862D01*
X131319889Y-145701269D01*
X131484154Y-145615393D01*
X131494415Y-145608679D01*
X131638873Y-145492532D01*
X131647634Y-145483953D01*
X131707336Y-145412803D01*
X131766445Y-145373477D01*
X131837433Y-145372351D01*
X131880386Y-145393699D01*
X131925257Y-145428006D01*
X131925261Y-145428009D01*
X131930678Y-145432150D01*
X132017372Y-145472576D01*
X132088631Y-145505805D01*
X132088634Y-145505806D01*
X132094808Y-145508685D01*
X132101456Y-145510171D01*
X132101459Y-145510172D01*
X132207421Y-145533857D01*
X132271543Y-145548190D01*
X132277088Y-145548500D01*
X132410244Y-145548500D01*
X132545037Y-145533857D01*
X132693323Y-145483953D01*
X132710204Y-145478272D01*
X132710206Y-145478271D01*
X132716675Y-145476094D01*
X132871905Y-145382823D01*
X132876862Y-145378135D01*
X132876865Y-145378133D01*
X132998527Y-145263082D01*
X132998529Y-145263080D01*
X133003485Y-145258393D01*
X133007317Y-145252755D01*
X133007320Y-145252751D01*
X133101442Y-145114255D01*
X133105277Y-145108612D01*
X133172530Y-144940466D01*
X133173644Y-144933738D01*
X133173645Y-144933734D01*
X133200993Y-144768539D01*
X133200993Y-144768536D01*
X133202108Y-144761802D01*
X133200566Y-144732362D01*
X133192987Y-144587766D01*
X133192630Y-144580953D01*
X133185461Y-144554924D01*
X133146352Y-144412941D01*
X133144539Y-144406359D01*
X133060078Y-144246164D01*
X133055673Y-144240951D01*
X133055670Y-144240947D01*
X132947594Y-144113057D01*
X132947590Y-144113053D01*
X132943187Y-144107843D01*
X132937762Y-144103695D01*
X132804743Y-144001994D01*
X132804739Y-144001991D01*
X132799322Y-143997850D01*
X132681449Y-143942885D01*
X132641369Y-143924195D01*
X132641366Y-143924194D01*
X132635192Y-143921315D01*
X132628544Y-143919829D01*
X132628541Y-143919828D01*
X132463494Y-143882936D01*
X132463495Y-143882936D01*
X132458457Y-143881810D01*
X132452912Y-143881500D01*
X132319756Y-143881500D01*
X132184963Y-143896143D01*
X132178499Y-143898318D01*
X132178496Y-143898319D01*
X132146379Y-143909128D01*
X132110167Y-143921315D01*
X132109189Y-143921644D01*
X132038247Y-143924414D01*
X131977068Y-143888391D01*
X131945077Y-143825010D01*
X131943000Y-143802225D01*
X131943000Y-143618343D01*
X131942699Y-143612195D01*
X131929188Y-143474397D01*
X131926805Y-143462362D01*
X131873233Y-143284924D01*
X131868559Y-143273584D01*
X131781540Y-143109923D01*
X131774751Y-143099706D01*
X131657603Y-142956067D01*
X131648959Y-142947363D01*
X131506144Y-142829216D01*
X131495973Y-142822356D01*
X131332924Y-142734196D01*
X131321619Y-142729444D01*
X131206308Y-142693750D01*
X131192205Y-142693544D01*
X131189000Y-142700299D01*
X131189000Y-145722924D01*
X130681000Y-145722924D01*
X130681000Y-144487115D01*
X130676525Y-144471876D01*
X130675135Y-144470671D01*
X130667452Y-144469000D01*
X129945115Y-144469000D01*
X129929876Y-144473475D01*
X129928671Y-144474865D01*
X129927000Y-144482548D01*
X129927000Y-144811657D01*
X115973411Y-144811657D01*
X115847701Y-144761802D01*
X114853261Y-144367420D01*
X114850943Y-144366474D01*
X113841843Y-143942885D01*
X129927000Y-143942885D01*
X129931475Y-143958124D01*
X129932865Y-143959329D01*
X129940548Y-143961000D01*
X130662885Y-143961000D01*
X130678124Y-143956525D01*
X130679329Y-143955135D01*
X130681000Y-143947452D01*
X130681000Y-142707076D01*
X130677027Y-142693545D01*
X130669232Y-142692425D01*
X130561479Y-142724138D01*
X130550111Y-142728731D01*
X130385846Y-142814607D01*
X130375585Y-142821321D01*
X130231127Y-142937468D01*
X130222368Y-142946046D01*
X130103222Y-143088039D01*
X130096292Y-143098159D01*
X130006998Y-143260585D01*
X130002166Y-143271858D01*
X129946120Y-143448538D01*
X129943570Y-143460532D01*
X129927393Y-143604761D01*
X129927000Y-143611785D01*
X129927000Y-143942885D01*
X113841843Y-143942885D01*
X113091399Y-143627872D01*
X113073042Y-143618324D01*
X113062906Y-143611944D01*
X113055308Y-143607161D01*
X113046252Y-143604583D01*
X113040606Y-143602975D01*
X113016997Y-143593590D01*
X112865169Y-143514671D01*
X112849729Y-143505176D01*
X112690274Y-143390536D01*
X112676355Y-143378923D01*
X112535000Y-143242587D01*
X112522893Y-143229099D01*
X112402557Y-143073888D01*
X112392510Y-143058800D01*
X112345448Y-142975741D01*
X112295696Y-142887935D01*
X112287918Y-142871564D01*
X112273686Y-142835035D01*
X112232267Y-142728731D01*
X112229694Y-142722127D01*
X112224014Y-142700083D01*
X112223537Y-142700185D01*
X112222520Y-142695417D01*
X112221876Y-142690597D01*
X112220176Y-142684843D01*
X112220136Y-142684571D01*
X112220022Y-142684322D01*
X112218319Y-142678559D01*
X112214932Y-142671399D01*
X112210062Y-142659588D01*
X112205280Y-142646084D01*
X112093950Y-142331737D01*
X111943050Y-141995677D01*
X111779075Y-141698148D01*
X111766481Y-141675296D01*
X111766476Y-141675288D01*
X111765240Y-141673045D01*
X111724443Y-141611498D01*
X111563127Y-141368139D01*
X111563125Y-141368137D01*
X111561705Y-141365994D01*
X111560121Y-141363982D01*
X111560112Y-141363970D01*
X111385528Y-141142258D01*
X111359099Y-141076363D01*
X111372491Y-141006641D01*
X111421452Y-140955228D01*
X111490437Y-140938446D01*
X111520305Y-140943496D01*
X111559913Y-140955228D01*
X111725020Y-141004135D01*
X111725024Y-141004136D01*
X111729133Y-141005353D01*
X111733367Y-141006001D01*
X111733372Y-141006002D01*
X111995595Y-141046127D01*
X111995597Y-141046127D01*
X111999837Y-141046776D01*
X112139209Y-141048966D01*
X112269368Y-141051011D01*
X112269374Y-141051011D01*
X112273659Y-141051078D01*
X112545532Y-141018178D01*
X112810424Y-140948685D01*
X112814384Y-140947045D01*
X112814389Y-140947043D01*
X112936928Y-140896285D01*
X113063433Y-140843885D01*
X113299879Y-140705717D01*
X113515386Y-140536738D01*
X113557106Y-140493687D01*
X113702983Y-140343153D01*
X113705966Y-140340075D01*
X113708499Y-140336627D01*
X113708503Y-140336622D01*
X113865554Y-140122822D01*
X113868092Y-140119367D01*
X113895451Y-140068978D01*
X113996715Y-139882474D01*
X113996716Y-139882472D01*
X113998765Y-139878698D01*
X114055181Y-139729398D01*
X114094048Y-139626539D01*
X114094049Y-139626535D01*
X114095566Y-139622521D01*
X114127448Y-139483316D01*
X114155746Y-139359761D01*
X114155747Y-139359757D01*
X114156704Y-139355577D01*
X114158057Y-139340424D01*
X114180828Y-139085271D01*
X114180828Y-139085269D01*
X114181048Y-139082805D01*
X114181418Y-139047522D01*
X120060224Y-139047522D01*
X120062691Y-139056153D01*
X120068350Y-139075954D01*
X120071928Y-139092716D01*
X120076120Y-139121988D01*
X120079834Y-139130156D01*
X120079834Y-139130157D01*
X120086748Y-139145363D01*
X120093196Y-139162887D01*
X120100251Y-139187572D01*
X120105043Y-139195166D01*
X120105044Y-139195169D01*
X120116030Y-139212581D01*
X120124169Y-139227664D01*
X120136408Y-139254583D01*
X120142269Y-139261385D01*
X120153170Y-139274036D01*
X120164273Y-139289040D01*
X120177976Y-139310759D01*
X120184701Y-139316698D01*
X120184704Y-139316702D01*
X120200138Y-139330333D01*
X120212182Y-139342525D01*
X120225627Y-139358128D01*
X120225630Y-139358130D01*
X120231487Y-139364928D01*
X120239016Y-139369808D01*
X120239017Y-139369809D01*
X120253035Y-139378895D01*
X120267909Y-139390186D01*
X120280417Y-139401232D01*
X120287151Y-139407179D01*
X120313911Y-139419743D01*
X120328891Y-139428064D01*
X120346183Y-139439272D01*
X120346188Y-139439274D01*
X120353715Y-139444153D01*
X120362308Y-139446723D01*
X120362313Y-139446725D01*
X120378320Y-139451512D01*
X120395764Y-139458173D01*
X120410876Y-139465268D01*
X120410878Y-139465269D01*
X120419000Y-139469082D01*
X120427867Y-139470463D01*
X120427868Y-139470463D01*
X120430553Y-139470881D01*
X120448217Y-139473631D01*
X120464932Y-139477414D01*
X120484666Y-139483316D01*
X120484672Y-139483317D01*
X120493266Y-139485887D01*
X120502237Y-139485942D01*
X120502238Y-139485942D01*
X120512297Y-139486003D01*
X120527706Y-139486097D01*
X120528489Y-139486130D01*
X120529586Y-139486301D01*
X120560577Y-139486301D01*
X120561347Y-139486303D01*
X120634985Y-139486753D01*
X120634986Y-139486753D01*
X120638921Y-139486777D01*
X120640265Y-139486393D01*
X120641610Y-139486301D01*
X133560577Y-139486301D01*
X133561348Y-139486303D01*
X133638921Y-139486777D01*
X133667352Y-139478651D01*
X133684115Y-139475073D01*
X133685693Y-139474847D01*
X133713387Y-139470881D01*
X133722425Y-139466772D01*
X133736762Y-139460253D01*
X133754287Y-139453805D01*
X133778971Y-139446750D01*
X133786565Y-139441958D01*
X133786568Y-139441957D01*
X133803980Y-139430971D01*
X133819065Y-139422831D01*
X133845982Y-139410593D01*
X133865435Y-139393831D01*
X133880439Y-139382728D01*
X133902158Y-139369025D01*
X133908097Y-139362300D01*
X133908101Y-139362297D01*
X133921732Y-139346863D01*
X133933924Y-139334819D01*
X133949527Y-139321374D01*
X133949529Y-139321371D01*
X133956327Y-139315514D01*
X133970294Y-139293966D01*
X133981585Y-139279092D01*
X133992631Y-139266584D01*
X133992632Y-139266583D01*
X133998578Y-139259850D01*
X134011143Y-139233088D01*
X134019463Y-139218110D01*
X134030671Y-139200818D01*
X134030673Y-139200813D01*
X134035552Y-139193286D01*
X134038122Y-139184693D01*
X134038124Y-139184688D01*
X134042911Y-139168681D01*
X134049572Y-139151237D01*
X134056667Y-139136125D01*
X134056668Y-139136123D01*
X134060481Y-139128001D01*
X134065030Y-139098784D01*
X134068813Y-139082069D01*
X134074715Y-139062335D01*
X134074716Y-139062329D01*
X134077286Y-139053735D01*
X134077382Y-139038109D01*
X134077437Y-139028964D01*
X134077496Y-139019295D01*
X134077529Y-139018512D01*
X134077700Y-139017415D01*
X134077700Y-138986424D01*
X134077702Y-138985654D01*
X134078152Y-138912016D01*
X134078152Y-138912015D01*
X134078176Y-138908080D01*
X134077792Y-138906736D01*
X134077700Y-138905391D01*
X134077700Y-119386424D01*
X134077702Y-119385654D01*
X134078000Y-119336903D01*
X134078176Y-119308080D01*
X134070050Y-119279648D01*
X134066472Y-119262886D01*
X134063552Y-119242499D01*
X134062280Y-119233614D01*
X134051651Y-119210237D01*
X134045204Y-119192714D01*
X134040616Y-119176663D01*
X134038149Y-119168030D01*
X134033356Y-119160433D01*
X134022370Y-119143021D01*
X134014230Y-119127936D01*
X134009528Y-119117595D01*
X134001992Y-119101019D01*
X133985230Y-119081566D01*
X133974127Y-119066562D01*
X133960424Y-119044843D01*
X133953699Y-119038904D01*
X133953696Y-119038900D01*
X133938262Y-119025269D01*
X133926218Y-119013077D01*
X133912773Y-118997474D01*
X133912770Y-118997472D01*
X133906913Y-118990674D01*
X133893209Y-118981791D01*
X133885365Y-118976707D01*
X133870491Y-118965416D01*
X133857983Y-118954370D01*
X133857982Y-118954369D01*
X133851249Y-118948423D01*
X133824487Y-118935858D01*
X133809509Y-118927538D01*
X133792217Y-118916330D01*
X133792212Y-118916328D01*
X133784685Y-118911449D01*
X133776092Y-118908879D01*
X133776087Y-118908877D01*
X133760080Y-118904090D01*
X133742636Y-118897429D01*
X133727524Y-118890334D01*
X133727522Y-118890333D01*
X133719400Y-118886520D01*
X133710533Y-118885139D01*
X133710532Y-118885139D01*
X133699678Y-118883449D01*
X133690183Y-118881971D01*
X133673468Y-118878188D01*
X133653734Y-118872286D01*
X133653728Y-118872285D01*
X133645134Y-118869715D01*
X133636163Y-118869660D01*
X133636162Y-118869660D01*
X133626103Y-118869599D01*
X133610694Y-118869505D01*
X133609911Y-118869472D01*
X133608814Y-118869301D01*
X133577823Y-118869301D01*
X133577053Y-118869299D01*
X133503415Y-118868849D01*
X133503414Y-118868849D01*
X133499479Y-118868825D01*
X133498135Y-118869209D01*
X133496790Y-118869301D01*
X120577823Y-118869301D01*
X120577053Y-118869299D01*
X120576237Y-118869294D01*
X120499479Y-118868825D01*
X120477118Y-118875216D01*
X120471047Y-118876951D01*
X120454285Y-118880529D01*
X120425013Y-118884721D01*
X120416845Y-118888435D01*
X120416844Y-118888435D01*
X120401638Y-118895349D01*
X120384114Y-118901797D01*
X120359429Y-118908852D01*
X120351835Y-118913644D01*
X120351832Y-118913645D01*
X120334420Y-118924631D01*
X120319337Y-118932770D01*
X120292418Y-118945009D01*
X120285616Y-118950870D01*
X120272965Y-118961771D01*
X120257961Y-118972874D01*
X120236242Y-118986577D01*
X120230303Y-118993302D01*
X120230299Y-118993305D01*
X120216668Y-119008739D01*
X120204476Y-119020783D01*
X120188873Y-119034228D01*
X120188871Y-119034231D01*
X120182073Y-119040088D01*
X120177193Y-119047617D01*
X120177192Y-119047618D01*
X120168106Y-119061636D01*
X120156815Y-119076510D01*
X120145769Y-119089018D01*
X120139822Y-119095752D01*
X120127258Y-119122512D01*
X120118937Y-119137492D01*
X120107729Y-119154784D01*
X120107727Y-119154789D01*
X120102848Y-119162316D01*
X120100278Y-119170909D01*
X120100276Y-119170914D01*
X120095489Y-119186921D01*
X120088828Y-119204365D01*
X120081733Y-119219477D01*
X120077919Y-119227601D01*
X120076538Y-119236468D01*
X120076538Y-119236469D01*
X120073370Y-119256816D01*
X120069587Y-119273533D01*
X120063685Y-119293267D01*
X120063684Y-119293273D01*
X120061114Y-119301867D01*
X120060956Y-119327836D01*
X120060904Y-119336298D01*
X120060871Y-119337090D01*
X120060700Y-119338187D01*
X120060700Y-119369178D01*
X120060698Y-119369948D01*
X120060333Y-119429760D01*
X120060224Y-119447522D01*
X120060608Y-119448866D01*
X120060700Y-119450211D01*
X120060700Y-138969178D01*
X120060698Y-138969948D01*
X120060224Y-139047522D01*
X114181418Y-139047522D01*
X114181490Y-139040644D01*
X114180345Y-139023844D01*
X114163156Y-138771699D01*
X114163155Y-138771693D01*
X114162864Y-138767422D01*
X114151823Y-138714105D01*
X114115872Y-138540507D01*
X114107329Y-138499256D01*
X114015914Y-138241109D01*
X113890310Y-137997756D01*
X113887742Y-137994101D01*
X113766432Y-137821495D01*
X113732842Y-137773701D01*
X113546422Y-137573089D01*
X113543107Y-137570375D01*
X113543103Y-137570372D01*
X113337820Y-137402350D01*
X113334502Y-137399634D01*
X113101001Y-137256545D01*
X113097065Y-137254817D01*
X112854170Y-137148193D01*
X112854166Y-137148192D01*
X112850242Y-137146469D01*
X112586863Y-137071444D01*
X112582621Y-137070840D01*
X112582615Y-137070839D01*
X112382131Y-137042306D01*
X112315740Y-137032857D01*
X112171886Y-137032104D01*
X112046174Y-137031446D01*
X112046168Y-137031446D01*
X112041888Y-137031424D01*
X112037644Y-137031983D01*
X112037640Y-137031983D01*
X111918599Y-137047655D01*
X111770375Y-137067169D01*
X111766235Y-137068302D01*
X111766233Y-137068302D01*
X111691031Y-137088875D01*
X111616143Y-137109362D01*
X111545159Y-137108044D01*
X111486155Y-137068559D01*
X111457866Y-137003441D01*
X111469273Y-136933367D01*
X111493800Y-136898733D01*
X115338711Y-133053823D01*
X115354726Y-133040276D01*
X115355056Y-133040041D01*
X115371083Y-133028630D01*
X115380067Y-133019863D01*
X115382984Y-133015971D01*
X115384729Y-133013983D01*
X115388083Y-133009870D01*
X115400126Y-132996276D01*
X115580863Y-132792265D01*
X115753255Y-132542511D01*
X115755025Y-132539140D01*
X115881685Y-132297806D01*
X115894286Y-132273797D01*
X116001899Y-131990044D01*
X116023202Y-131903615D01*
X116073613Y-131699084D01*
X116073614Y-131699081D01*
X116074524Y-131695388D01*
X116111103Y-131394127D01*
X116111101Y-131090653D01*
X116091030Y-130925355D01*
X116074979Y-130793173D01*
X116074520Y-130789392D01*
X116057704Y-130721166D01*
X116002802Y-130498422D01*
X116002800Y-130498415D01*
X116001893Y-130494736D01*
X115894278Y-130210984D01*
X115753245Y-129942272D01*
X115580850Y-129692519D01*
X115400104Y-129488502D01*
X115391777Y-129478031D01*
X115391660Y-129477867D01*
X115391652Y-129477857D01*
X115388831Y-129473895D01*
X115380064Y-129464911D01*
X115357722Y-129448167D01*
X115344198Y-129436440D01*
X113053036Y-127145279D01*
X113040391Y-127130514D01*
X113031533Y-127118389D01*
X113031527Y-127118383D01*
X113026233Y-127111136D01*
X113014039Y-127101762D01*
X112995609Y-127084382D01*
X112934691Y-127014079D01*
X112884665Y-126956346D01*
X112873899Y-126941965D01*
X112768584Y-126778092D01*
X112759976Y-126762328D01*
X112679051Y-126585129D01*
X112672773Y-126568295D01*
X112617894Y-126381396D01*
X112614073Y-126363829D01*
X112586353Y-126171036D01*
X112585070Y-126153105D01*
X112585069Y-125958319D01*
X112586351Y-125940388D01*
X112614071Y-125747576D01*
X112617890Y-125730021D01*
X112672766Y-125543126D01*
X112679048Y-125526283D01*
X112759962Y-125349099D01*
X112768572Y-125333329D01*
X112873886Y-125169453D01*
X112884656Y-125155066D01*
X112990863Y-125032493D01*
X113004494Y-125019950D01*
X113010113Y-125014467D01*
X113017362Y-125009171D01*
X113036766Y-124983928D01*
X113047568Y-124971623D01*
X121549522Y-116469669D01*
X126292001Y-116469669D01*
X126292371Y-116476490D01*
X126297895Y-116527352D01*
X126301521Y-116542604D01*
X126346676Y-116663054D01*
X126355214Y-116678649D01*
X126431715Y-116780724D01*
X126444276Y-116793285D01*
X126546351Y-116869786D01*
X126561946Y-116878324D01*
X126682394Y-116923478D01*
X126697649Y-116927105D01*
X126748514Y-116932631D01*
X126755328Y-116933000D01*
X127377885Y-116933000D01*
X127393124Y-116928525D01*
X127394329Y-116927135D01*
X127396000Y-116919452D01*
X127396000Y-115847115D01*
X127391525Y-115831876D01*
X127390135Y-115830671D01*
X127382452Y-115829000D01*
X126310116Y-115829000D01*
X126294877Y-115833475D01*
X126293672Y-115834865D01*
X126292001Y-115842548D01*
X126292001Y-116469669D01*
X121549522Y-116469669D01*
X133771405Y-104247786D01*
X133833717Y-104213760D01*
X133904532Y-104218825D01*
G37*
%TD.AperFunction*%
%TA.AperFunction,Conductor*%
G36*
X152073020Y-85919031D02*
G01*
X152099201Y-85939105D01*
X152634280Y-86474185D01*
X153166348Y-87006253D01*
X153173888Y-87014539D01*
X153178000Y-87021018D01*
X153183777Y-87026443D01*
X153227651Y-87067643D01*
X153230493Y-87070398D01*
X153250230Y-87090135D01*
X153253427Y-87092615D01*
X153262447Y-87100318D01*
X153294679Y-87130586D01*
X153301625Y-87134405D01*
X153301628Y-87134407D01*
X153312434Y-87140348D01*
X153328953Y-87151199D01*
X153344959Y-87163614D01*
X153352228Y-87166759D01*
X153352232Y-87166762D01*
X153385537Y-87181174D01*
X153396187Y-87186391D01*
X153434940Y-87207695D01*
X153442615Y-87209666D01*
X153442616Y-87209666D01*
X153454562Y-87212733D01*
X153473267Y-87219137D01*
X153491855Y-87227181D01*
X153499678Y-87228420D01*
X153499688Y-87228423D01*
X153535524Y-87234099D01*
X153547144Y-87236505D01*
X153582289Y-87245528D01*
X153589970Y-87247500D01*
X153610224Y-87247500D01*
X153629934Y-87249051D01*
X153649943Y-87252220D01*
X153657835Y-87251474D01*
X153693961Y-87248059D01*
X153705819Y-87247500D01*
X156275688Y-87247500D01*
X156343809Y-87267502D01*
X156364783Y-87284405D01*
X162397595Y-93317217D01*
X162431621Y-93379529D01*
X162434500Y-93406312D01*
X162434500Y-98727233D01*
X162433973Y-98738416D01*
X162432298Y-98745909D01*
X162432547Y-98753835D01*
X162432547Y-98753836D01*
X162434438Y-98813986D01*
X162434500Y-98817945D01*
X162434500Y-98845856D01*
X162434997Y-98849790D01*
X162434997Y-98849791D01*
X162435005Y-98849856D01*
X162435938Y-98861693D01*
X162437327Y-98905889D01*
X162442978Y-98925339D01*
X162446987Y-98944700D01*
X162449526Y-98964797D01*
X162452445Y-98972168D01*
X162452445Y-98972170D01*
X162465804Y-99005912D01*
X162469649Y-99017142D01*
X162481982Y-99059593D01*
X162486015Y-99066412D01*
X162486017Y-99066417D01*
X162492293Y-99077028D01*
X162500988Y-99094776D01*
X162508448Y-99113617D01*
X162513110Y-99120033D01*
X162513110Y-99120034D01*
X162534436Y-99149387D01*
X162540952Y-99159307D01*
X162563458Y-99197362D01*
X162577779Y-99211683D01*
X162590619Y-99226716D01*
X162602528Y-99243107D01*
X162608634Y-99248158D01*
X162636605Y-99271298D01*
X162645384Y-99279288D01*
X166266075Y-102899980D01*
X166300101Y-102962292D01*
X166302980Y-102989075D01*
X166302980Y-109073430D01*
X166302453Y-109084613D01*
X166300778Y-109092106D01*
X166301027Y-109100032D01*
X166301027Y-109100033D01*
X166302918Y-109160196D01*
X166302980Y-109164154D01*
X166302980Y-109192053D01*
X166303477Y-109195986D01*
X166303484Y-109196043D01*
X166304416Y-109207877D01*
X166305806Y-109252086D01*
X166308018Y-109259700D01*
X166308019Y-109259705D01*
X166311457Y-109271538D01*
X166315468Y-109290901D01*
X166318006Y-109310994D01*
X166320923Y-109318361D01*
X166320924Y-109318366D01*
X166334282Y-109352105D01*
X166338126Y-109363332D01*
X166350462Y-109405790D01*
X166354499Y-109412616D01*
X166360773Y-109423225D01*
X166369468Y-109440973D01*
X166376928Y-109459814D01*
X166381590Y-109466230D01*
X166381590Y-109466231D01*
X166402916Y-109495584D01*
X166409432Y-109505504D01*
X166431938Y-109543559D01*
X166446259Y-109557880D01*
X166459099Y-109572913D01*
X166471008Y-109589304D01*
X166477114Y-109594355D01*
X166505085Y-109617495D01*
X166513864Y-109625485D01*
X170033351Y-113144973D01*
X170067377Y-113207285D01*
X170070256Y-113234068D01*
X170070256Y-113951476D01*
X170069729Y-113962659D01*
X170068054Y-113970152D01*
X170068303Y-113978078D01*
X170068303Y-113978079D01*
X170070194Y-114038242D01*
X170070256Y-114042200D01*
X170070256Y-114070100D01*
X170070753Y-114074033D01*
X170070760Y-114074090D01*
X170071692Y-114085924D01*
X170073082Y-114130133D01*
X170075294Y-114137747D01*
X170075295Y-114137752D01*
X170078733Y-114149585D01*
X170082744Y-114168948D01*
X170085282Y-114189041D01*
X170088199Y-114196408D01*
X170088200Y-114196413D01*
X170101558Y-114230152D01*
X170105402Y-114241379D01*
X170117738Y-114283837D01*
X170121775Y-114290663D01*
X170128049Y-114301272D01*
X170136744Y-114319020D01*
X170144204Y-114337861D01*
X170148866Y-114344277D01*
X170148866Y-114344278D01*
X170170192Y-114373631D01*
X170176708Y-114383551D01*
X170192581Y-114410390D01*
X170199214Y-114421606D01*
X170213535Y-114435927D01*
X170226375Y-114450960D01*
X170238284Y-114467351D01*
X170254632Y-114480875D01*
X170272361Y-114495542D01*
X170281140Y-114503532D01*
X170755091Y-114977483D01*
X170789116Y-115039794D01*
X170783977Y-115110806D01*
X170736522Y-115237391D01*
X170732895Y-115252649D01*
X170727369Y-115303514D01*
X170727000Y-115310328D01*
X170727000Y-115932885D01*
X170731475Y-115948124D01*
X170732865Y-115949329D01*
X170740548Y-115951000D01*
X172213000Y-115951000D01*
X172281121Y-115971002D01*
X172327614Y-116024658D01*
X172339000Y-116077000D01*
X172339000Y-117544884D01*
X172343475Y-117560123D01*
X172344865Y-117561328D01*
X172352548Y-117562999D01*
X172979669Y-117562999D01*
X172986490Y-117562629D01*
X173037352Y-117557105D01*
X173052604Y-117553479D01*
X173173054Y-117508324D01*
X173188649Y-117499786D01*
X173290724Y-117423285D01*
X173303285Y-117410724D01*
X173379786Y-117308649D01*
X173388324Y-117293054D01*
X173429225Y-117183952D01*
X173471867Y-117127188D01*
X173538428Y-117102488D01*
X173607777Y-117117696D01*
X173642444Y-117145684D01*
X173667865Y-117175031D01*
X173667869Y-117175035D01*
X173671250Y-117178938D01*
X173843126Y-117321632D01*
X174036000Y-117434338D01*
X174040825Y-117436180D01*
X174040826Y-117436181D01*
X174077101Y-117450033D01*
X174244692Y-117514030D01*
X174249760Y-117515061D01*
X174249763Y-117515062D01*
X174357017Y-117536883D01*
X174463597Y-117558567D01*
X174468772Y-117558757D01*
X174468774Y-117558757D01*
X174681673Y-117566564D01*
X174681677Y-117566564D01*
X174686837Y-117566753D01*
X174691957Y-117566097D01*
X174691959Y-117566097D01*
X174903288Y-117539025D01*
X174903289Y-117539025D01*
X174908416Y-117538368D01*
X174913366Y-117536883D01*
X175117429Y-117475661D01*
X175117434Y-117475659D01*
X175122384Y-117474174D01*
X175322994Y-117375896D01*
X175504860Y-117246173D01*
X175663096Y-117088489D01*
X175793453Y-116907077D01*
X175794776Y-116908028D01*
X175841645Y-116864857D01*
X175911580Y-116852625D01*
X175977026Y-116880144D01*
X176004875Y-116911994D01*
X176015005Y-116928525D01*
X176064987Y-117010088D01*
X176211250Y-117178938D01*
X176383126Y-117321632D01*
X176576000Y-117434338D01*
X176580825Y-117436180D01*
X176580826Y-117436181D01*
X176617101Y-117450033D01*
X176784692Y-117514030D01*
X176789760Y-117515061D01*
X176789763Y-117515062D01*
X176897017Y-117536883D01*
X177003597Y-117558567D01*
X177008772Y-117558757D01*
X177008774Y-117558757D01*
X177221673Y-117566564D01*
X177221677Y-117566564D01*
X177226837Y-117566753D01*
X177231957Y-117566097D01*
X177231959Y-117566097D01*
X177443288Y-117539025D01*
X177443289Y-117539025D01*
X177448416Y-117538368D01*
X177453366Y-117536883D01*
X177657429Y-117475661D01*
X177657434Y-117475659D01*
X177662384Y-117474174D01*
X177862994Y-117375896D01*
X178044860Y-117246173D01*
X178203096Y-117088489D01*
X178333453Y-116907077D01*
X178351884Y-116869786D01*
X178430136Y-116711453D01*
X178430137Y-116711451D01*
X178432430Y-116706811D01*
X178482320Y-116542604D01*
X178495865Y-116498023D01*
X178495865Y-116498021D01*
X178497370Y-116493069D01*
X178526529Y-116271590D01*
X178527676Y-116224654D01*
X178549336Y-116157042D01*
X178604111Y-116111874D01*
X178674611Y-116103490D01*
X178742733Y-116138637D01*
X184495595Y-121891499D01*
X184529621Y-121953811D01*
X184532500Y-121980594D01*
X184532500Y-131814520D01*
X184512498Y-131882641D01*
X184495595Y-131903615D01*
X183637022Y-132762188D01*
X183629408Y-132776132D01*
X183629539Y-132777965D01*
X183633790Y-132784580D01*
X184495595Y-133646385D01*
X184529621Y-133708697D01*
X184532500Y-133735480D01*
X184532500Y-136100423D01*
X184512498Y-136168544D01*
X184458842Y-136215037D01*
X184388568Y-136225141D01*
X184324669Y-136196234D01*
X184292248Y-136168544D01*
X184154416Y-136050824D01*
X184150208Y-136048245D01*
X184150202Y-136048241D01*
X183956183Y-135929346D01*
X183951963Y-135926760D01*
X183947393Y-135924867D01*
X183947389Y-135924865D01*
X183737167Y-135837789D01*
X183737165Y-135837788D01*
X183732594Y-135835895D01*
X183652391Y-135816640D01*
X183506524Y-135781620D01*
X183506518Y-135781619D01*
X183501711Y-135780465D01*
X183265000Y-135761835D01*
X183028289Y-135780465D01*
X183023482Y-135781619D01*
X183023476Y-135781620D01*
X182877609Y-135816640D01*
X182797406Y-135835895D01*
X182792835Y-135837788D01*
X182792833Y-135837789D01*
X182582611Y-135924865D01*
X182582607Y-135924867D01*
X182578037Y-135926760D01*
X182573817Y-135929346D01*
X182379798Y-136048241D01*
X182379792Y-136048245D01*
X182375584Y-136050824D01*
X182195031Y-136205031D01*
X182040824Y-136385584D01*
X182038245Y-136389792D01*
X182038241Y-136389798D01*
X181997500Y-136456282D01*
X181916760Y-136588037D01*
X181825895Y-136807406D01*
X181824740Y-136812218D01*
X181771624Y-137033462D01*
X181770465Y-137038289D01*
X181751835Y-137275000D01*
X181770465Y-137511711D01*
X181771619Y-137516518D01*
X181771620Y-137516524D01*
X181785955Y-137576232D01*
X181825895Y-137742594D01*
X181827788Y-137747165D01*
X181827789Y-137747167D01*
X181911758Y-137949886D01*
X181916760Y-137961963D01*
X181919346Y-137966183D01*
X182038241Y-138160202D01*
X182038245Y-138160208D01*
X182040824Y-138164416D01*
X182125061Y-138263045D01*
X182187191Y-138335789D01*
X182195031Y-138344969D01*
X182198787Y-138348177D01*
X182198792Y-138348182D01*
X182312071Y-138444931D01*
X182350880Y-138504381D01*
X182351388Y-138575376D01*
X182313431Y-138635375D01*
X182304301Y-138642679D01*
X182282613Y-138658436D01*
X182272693Y-138664952D01*
X182241465Y-138683420D01*
X182241462Y-138683422D01*
X182234638Y-138687458D01*
X182220317Y-138701779D01*
X182205284Y-138714619D01*
X182188893Y-138726528D01*
X182170164Y-138749167D01*
X182160702Y-138760605D01*
X182152712Y-138769384D01*
X175034500Y-145887595D01*
X174972188Y-145921621D01*
X174945405Y-145924500D01*
X174335868Y-145924500D01*
X174267747Y-145904498D01*
X174221254Y-145850842D01*
X174211150Y-145780568D01*
X174240644Y-145715988D01*
X174277493Y-145686838D01*
X174414154Y-145615393D01*
X174424415Y-145608679D01*
X174568873Y-145492532D01*
X174577632Y-145483954D01*
X174696778Y-145341961D01*
X174703708Y-145331841D01*
X174793002Y-145169415D01*
X174797834Y-145158142D01*
X174853880Y-144981462D01*
X174856430Y-144969468D01*
X174872607Y-144825239D01*
X174873000Y-144818215D01*
X174873000Y-144487115D01*
X174868525Y-144471876D01*
X174867135Y-144470671D01*
X174859452Y-144469000D01*
X173737000Y-144469000D01*
X173668879Y-144448998D01*
X173622386Y-144395342D01*
X173611000Y-144343000D01*
X173611000Y-143942885D01*
X174119000Y-143942885D01*
X174123475Y-143958124D01*
X174124865Y-143959329D01*
X174132548Y-143961000D01*
X174854885Y-143961000D01*
X174870124Y-143956525D01*
X174871329Y-143955135D01*
X174873000Y-143947452D01*
X174873000Y-143618343D01*
X174872699Y-143612195D01*
X174859188Y-143474397D01*
X174856805Y-143462362D01*
X174803233Y-143284924D01*
X174798559Y-143273584D01*
X174711540Y-143109923D01*
X174704751Y-143099706D01*
X174587603Y-142956067D01*
X174578959Y-142947363D01*
X174436144Y-142829216D01*
X174425973Y-142822356D01*
X174262924Y-142734196D01*
X174251619Y-142729444D01*
X174136308Y-142693750D01*
X174122205Y-142693544D01*
X174119000Y-142700299D01*
X174119000Y-143942885D01*
X173611000Y-143942885D01*
X173611000Y-142707076D01*
X173607027Y-142693545D01*
X173599232Y-142692425D01*
X173491479Y-142724138D01*
X173480111Y-142728731D01*
X173315846Y-142814607D01*
X173305585Y-142821321D01*
X173161127Y-142937468D01*
X173152368Y-142946046D01*
X173033222Y-143088039D01*
X173026292Y-143098159D01*
X172936998Y-143260585D01*
X172932166Y-143271858D01*
X172876120Y-143448538D01*
X172873570Y-143460532D01*
X172857393Y-143604761D01*
X172857000Y-143611785D01*
X172857000Y-143797974D01*
X172836998Y-143866095D01*
X172783342Y-143912588D01*
X172713068Y-143922692D01*
X172703514Y-143920939D01*
X172533506Y-143882938D01*
X172533499Y-143882937D01*
X172528457Y-143881810D01*
X172522912Y-143881500D01*
X172389756Y-143881500D01*
X172254963Y-143896143D01*
X172148289Y-143932043D01*
X172089796Y-143951728D01*
X172089794Y-143951729D01*
X172083325Y-143953906D01*
X171928095Y-144047177D01*
X171923138Y-144051865D01*
X171923135Y-144051867D01*
X171868329Y-144103695D01*
X171796515Y-144171607D01*
X171792683Y-144177245D01*
X171792680Y-144177249D01*
X171741740Y-144252205D01*
X171694723Y-144321388D01*
X171627470Y-144489534D01*
X171626356Y-144496262D01*
X171626355Y-144496266D01*
X171599007Y-144661461D01*
X171597892Y-144668198D01*
X171598249Y-144675015D01*
X171598249Y-144675019D01*
X171603151Y-144768539D01*
X171607370Y-144849047D01*
X171609181Y-144855620D01*
X171609181Y-144855623D01*
X171632551Y-144940466D01*
X171655461Y-145023641D01*
X171739922Y-145183836D01*
X171744327Y-145189049D01*
X171744330Y-145189053D01*
X171852406Y-145316943D01*
X171852410Y-145316947D01*
X171856813Y-145322157D01*
X171862237Y-145326304D01*
X171862238Y-145326305D01*
X171995257Y-145428006D01*
X171995261Y-145428009D01*
X172000678Y-145432150D01*
X172087372Y-145472576D01*
X172158631Y-145505805D01*
X172158634Y-145505806D01*
X172164808Y-145508685D01*
X172171456Y-145510171D01*
X172171459Y-145510172D01*
X172277421Y-145533857D01*
X172341543Y-145548190D01*
X172347088Y-145548500D01*
X172480244Y-145548500D01*
X172615037Y-145533857D01*
X172763323Y-145483953D01*
X172780204Y-145478272D01*
X172780206Y-145478271D01*
X172786675Y-145476094D01*
X172933038Y-145388151D01*
X173001727Y-145370212D01*
X173069214Y-145392259D01*
X173095572Y-145416519D01*
X173142397Y-145473933D01*
X173151041Y-145482637D01*
X173293856Y-145600784D01*
X173304027Y-145607644D01*
X173452020Y-145687664D01*
X173502429Y-145737659D01*
X173517806Y-145806970D01*
X173493270Y-145873592D01*
X173436610Y-145916373D01*
X173392091Y-145924500D01*
X165695868Y-145924500D01*
X165627747Y-145904498D01*
X165581254Y-145850842D01*
X165571150Y-145780568D01*
X165600644Y-145715988D01*
X165637493Y-145686838D01*
X165774154Y-145615393D01*
X165784415Y-145608679D01*
X165928873Y-145492532D01*
X165937634Y-145483953D01*
X165997336Y-145412803D01*
X166056445Y-145373477D01*
X166127433Y-145372351D01*
X166170386Y-145393699D01*
X166215257Y-145428006D01*
X166215261Y-145428009D01*
X166220678Y-145432150D01*
X166307372Y-145472576D01*
X166378631Y-145505805D01*
X166378634Y-145505806D01*
X166384808Y-145508685D01*
X166391456Y-145510171D01*
X166391459Y-145510172D01*
X166497421Y-145533857D01*
X166561543Y-145548190D01*
X166567088Y-145548500D01*
X166700244Y-145548500D01*
X166835037Y-145533857D01*
X166983323Y-145483953D01*
X167000204Y-145478272D01*
X167000206Y-145478271D01*
X167006675Y-145476094D01*
X167161905Y-145382823D01*
X167166862Y-145378135D01*
X167166865Y-145378133D01*
X167288527Y-145263082D01*
X167288529Y-145263080D01*
X167293485Y-145258393D01*
X167297317Y-145252755D01*
X167297320Y-145252751D01*
X167391442Y-145114255D01*
X167395277Y-145108612D01*
X167462530Y-144940466D01*
X167463644Y-144933738D01*
X167463645Y-144933734D01*
X167490993Y-144768539D01*
X167490993Y-144768536D01*
X167492108Y-144761802D01*
X167490566Y-144732362D01*
X167482987Y-144587766D01*
X167482630Y-144580953D01*
X167475461Y-144554924D01*
X167436352Y-144412941D01*
X167434539Y-144406359D01*
X167350078Y-144246164D01*
X167345673Y-144240951D01*
X167345670Y-144240947D01*
X167237594Y-144113057D01*
X167237590Y-144113053D01*
X167233187Y-144107843D01*
X167227762Y-144103695D01*
X167094743Y-144001994D01*
X167094739Y-144001991D01*
X167089322Y-143997850D01*
X166971449Y-143942885D01*
X166931369Y-143924195D01*
X166931366Y-143924194D01*
X166925192Y-143921315D01*
X166918544Y-143919829D01*
X166918541Y-143919828D01*
X166753494Y-143882936D01*
X166753495Y-143882936D01*
X166748457Y-143881810D01*
X166742912Y-143881500D01*
X166609756Y-143881500D01*
X166474963Y-143896143D01*
X166468499Y-143898318D01*
X166468496Y-143898319D01*
X166436379Y-143909128D01*
X166400167Y-143921315D01*
X166399189Y-143921644D01*
X166328247Y-143924414D01*
X166267068Y-143888391D01*
X166235077Y-143825010D01*
X166233000Y-143802225D01*
X166233000Y-143618343D01*
X166232699Y-143612195D01*
X166219188Y-143474397D01*
X166216805Y-143462362D01*
X166163233Y-143284924D01*
X166158559Y-143273584D01*
X166071540Y-143109923D01*
X166064751Y-143099706D01*
X165947603Y-142956067D01*
X165938959Y-142947363D01*
X165796144Y-142829216D01*
X165785973Y-142822356D01*
X165622924Y-142734196D01*
X165611619Y-142729444D01*
X165496308Y-142693750D01*
X165482205Y-142693544D01*
X165479000Y-142700299D01*
X165479000Y-144343000D01*
X165458998Y-144411121D01*
X165405342Y-144457614D01*
X165353000Y-144469000D01*
X164235115Y-144469000D01*
X164219876Y-144473475D01*
X164218671Y-144474865D01*
X164217000Y-144482548D01*
X164217000Y-144811657D01*
X164217301Y-144817805D01*
X164230812Y-144955603D01*
X164233195Y-144967638D01*
X164286767Y-145145076D01*
X164291441Y-145156416D01*
X164378460Y-145320077D01*
X164385249Y-145330294D01*
X164502397Y-145473933D01*
X164511041Y-145482637D01*
X164653856Y-145600784D01*
X164664027Y-145607644D01*
X164812020Y-145687664D01*
X164862429Y-145737659D01*
X164877806Y-145806970D01*
X164853270Y-145873592D01*
X164796610Y-145916373D01*
X164752091Y-145924500D01*
X164416767Y-145924500D01*
X164405584Y-145923973D01*
X164398091Y-145922298D01*
X164390165Y-145922547D01*
X164390164Y-145922547D01*
X164330014Y-145924438D01*
X164326055Y-145924500D01*
X164298144Y-145924500D01*
X164294210Y-145924997D01*
X164294209Y-145924997D01*
X164294144Y-145925005D01*
X164282307Y-145925938D01*
X164250490Y-145926938D01*
X164246029Y-145927078D01*
X164238110Y-145927327D01*
X164223880Y-145931461D01*
X164218658Y-145932978D01*
X164199306Y-145936986D01*
X164192235Y-145937880D01*
X164179203Y-145939526D01*
X164171834Y-145942443D01*
X164171832Y-145942444D01*
X164138097Y-145955800D01*
X164126869Y-145959645D01*
X164084407Y-145971982D01*
X164077584Y-145976017D01*
X164077582Y-145976018D01*
X164066972Y-145982293D01*
X164049224Y-145990988D01*
X164030383Y-145998448D01*
X164023967Y-146003110D01*
X164023966Y-146003110D01*
X163994613Y-146024436D01*
X163984693Y-146030952D01*
X163953465Y-146049420D01*
X163953462Y-146049422D01*
X163946638Y-146053458D01*
X163932317Y-146067779D01*
X163917284Y-146080619D01*
X163900893Y-146092528D01*
X163895842Y-146098634D01*
X163872702Y-146126605D01*
X163864712Y-146135384D01*
X163636999Y-146363097D01*
X163574687Y-146397123D01*
X163503872Y-146392058D01*
X163447036Y-146349511D01*
X163422225Y-146282991D01*
X163424657Y-146247805D01*
X163426430Y-146239463D01*
X163442607Y-146095239D01*
X163443000Y-146088215D01*
X163443000Y-145757115D01*
X163438525Y-145741876D01*
X163437135Y-145740671D01*
X163429452Y-145739000D01*
X162707115Y-145739000D01*
X162691876Y-145743475D01*
X162690671Y-145744865D01*
X162689000Y-145752548D01*
X162689000Y-146992924D01*
X162692973Y-147006454D01*
X162706692Y-147008426D01*
X162771273Y-147037919D01*
X162809657Y-147097645D01*
X162809657Y-147168642D01*
X162777856Y-147222239D01*
X162130020Y-147870075D01*
X162067708Y-147904101D01*
X162040925Y-147906980D01*
X159498285Y-147906980D01*
X159430164Y-147886978D01*
X159383671Y-147833322D01*
X159373567Y-147763048D01*
X159404649Y-147696670D01*
X159484621Y-147607852D01*
X159484622Y-147607851D01*
X159489040Y-147602944D01*
X159584527Y-147437556D01*
X159635000Y-147282218D01*
X159675072Y-147223613D01*
X159728634Y-147197909D01*
X159846788Y-147172794D01*
X159875084Y-147160196D01*
X160015222Y-147097803D01*
X160015224Y-147097802D01*
X160021252Y-147095118D01*
X160175753Y-146982866D01*
X160219703Y-146934055D01*
X160299121Y-146845852D01*
X160299122Y-146845851D01*
X160303540Y-146840944D01*
X160369230Y-146727166D01*
X160420613Y-146678173D01*
X160490326Y-146664737D01*
X160554878Y-146690070D01*
X160565257Y-146698006D01*
X160565261Y-146698009D01*
X160570678Y-146702150D01*
X160657376Y-146742578D01*
X160728631Y-146775805D01*
X160728634Y-146775806D01*
X160734808Y-146778685D01*
X160741456Y-146780171D01*
X160741459Y-146780172D01*
X160847421Y-146803857D01*
X160911543Y-146818190D01*
X160917088Y-146818500D01*
X161050244Y-146818500D01*
X161185037Y-146803857D01*
X161319155Y-146758721D01*
X161350204Y-146748272D01*
X161350206Y-146748271D01*
X161356675Y-146746094D01*
X161503038Y-146658151D01*
X161571727Y-146640212D01*
X161639214Y-146662259D01*
X161665572Y-146686519D01*
X161712397Y-146743933D01*
X161721041Y-146752637D01*
X161863856Y-146870784D01*
X161874027Y-146877644D01*
X162037076Y-146965804D01*
X162048381Y-146970556D01*
X162163692Y-147006250D01*
X162177795Y-147006456D01*
X162181000Y-146999701D01*
X162181000Y-145212885D01*
X162689000Y-145212885D01*
X162693475Y-145228124D01*
X162694865Y-145229329D01*
X162702548Y-145231000D01*
X163424885Y-145231000D01*
X163440124Y-145226525D01*
X163441329Y-145225135D01*
X163443000Y-145217452D01*
X163443000Y-144888343D01*
X163442699Y-144882195D01*
X163429188Y-144744397D01*
X163426805Y-144732362D01*
X163373233Y-144554924D01*
X163368559Y-144543584D01*
X163281540Y-144379923D01*
X163274751Y-144369706D01*
X163157603Y-144226067D01*
X163148959Y-144217363D01*
X163006144Y-144099216D01*
X162995973Y-144092356D01*
X162832924Y-144004196D01*
X162821619Y-143999444D01*
X162706308Y-143963750D01*
X162692205Y-143963544D01*
X162689000Y-143970299D01*
X162689000Y-145212885D01*
X162181000Y-145212885D01*
X162181000Y-143977076D01*
X162177027Y-143963545D01*
X162169232Y-143962425D01*
X162061479Y-143994138D01*
X162050111Y-143998731D01*
X161885846Y-144084607D01*
X161875585Y-144091321D01*
X161731127Y-144207468D01*
X161722368Y-144216046D01*
X161603222Y-144358039D01*
X161596292Y-144368159D01*
X161506998Y-144530585D01*
X161502166Y-144541858D01*
X161446120Y-144718538D01*
X161443570Y-144730532D01*
X161427393Y-144874761D01*
X161427000Y-144881785D01*
X161427000Y-145067974D01*
X161406998Y-145136095D01*
X161353342Y-145182588D01*
X161283068Y-145192692D01*
X161273514Y-145190939D01*
X161103506Y-145152938D01*
X161103499Y-145152937D01*
X161098457Y-145151810D01*
X161092912Y-145151500D01*
X160959756Y-145151500D01*
X160824963Y-145166143D01*
X160706810Y-145205906D01*
X160659796Y-145221728D01*
X160659794Y-145221729D01*
X160653325Y-145223906D01*
X160498095Y-145317177D01*
X160493138Y-145321865D01*
X160493135Y-145321867D01*
X160371473Y-145436918D01*
X160366515Y-145441607D01*
X160362683Y-145447245D01*
X160362680Y-145447249D01*
X160293044Y-145549715D01*
X160238211Y-145594813D01*
X160167700Y-145603107D01*
X160114771Y-145580828D01*
X160026594Y-145516763D01*
X160026593Y-145516762D01*
X160021252Y-145512882D01*
X160015224Y-145510198D01*
X160015222Y-145510197D01*
X159852819Y-145437891D01*
X159852818Y-145437891D01*
X159846788Y-145435206D01*
X159741391Y-145412803D01*
X159666444Y-145396872D01*
X159666439Y-145396872D01*
X159659987Y-145395500D01*
X159469013Y-145395500D01*
X159462561Y-145396872D01*
X159462556Y-145396872D01*
X159387609Y-145412803D01*
X159282212Y-145435206D01*
X159276182Y-145437891D01*
X159276181Y-145437891D01*
X159113778Y-145510197D01*
X159113776Y-145510198D01*
X159107748Y-145512882D01*
X159102407Y-145516762D01*
X159102406Y-145516763D01*
X159077864Y-145534594D01*
X158953247Y-145625134D01*
X158948832Y-145630037D01*
X158943920Y-145634460D01*
X158942795Y-145633211D01*
X158889486Y-145666051D01*
X158856300Y-145670500D01*
X157172200Y-145670500D01*
X157104079Y-145650498D01*
X157084853Y-145634157D01*
X157084580Y-145634460D01*
X157079668Y-145630037D01*
X157075253Y-145625134D01*
X156950636Y-145534594D01*
X156926094Y-145516763D01*
X156926093Y-145516762D01*
X156920752Y-145512882D01*
X156914724Y-145510198D01*
X156914722Y-145510197D01*
X156752319Y-145437891D01*
X156752318Y-145437891D01*
X156746288Y-145435206D01*
X156640891Y-145412803D01*
X156565944Y-145396872D01*
X156565939Y-145396872D01*
X156559487Y-145395500D01*
X156368513Y-145395500D01*
X156362061Y-145396872D01*
X156362056Y-145396872D01*
X156287109Y-145412803D01*
X156181712Y-145435206D01*
X156175682Y-145437891D01*
X156175681Y-145437891D01*
X156028318Y-145503501D01*
X155957951Y-145512935D01*
X155893654Y-145482828D01*
X155880831Y-145469722D01*
X155807594Y-145383057D01*
X155807590Y-145383053D01*
X155803187Y-145377843D01*
X155793206Y-145370212D01*
X155664743Y-145271994D01*
X155664739Y-145271991D01*
X155659322Y-145267850D01*
X155541449Y-145212885D01*
X155501369Y-145194195D01*
X155501366Y-145194194D01*
X155495192Y-145191315D01*
X155488544Y-145189829D01*
X155488541Y-145189828D01*
X155323494Y-145152936D01*
X155323495Y-145152936D01*
X155318457Y-145151810D01*
X155312912Y-145151500D01*
X155179756Y-145151500D01*
X155044963Y-145166143D01*
X155038499Y-145168318D01*
X155038496Y-145168319D01*
X154976888Y-145189053D01*
X154970167Y-145191315D01*
X154969189Y-145191644D01*
X154898247Y-145194414D01*
X154837068Y-145158391D01*
X154805077Y-145095010D01*
X154803000Y-145072225D01*
X154803000Y-144888343D01*
X154802699Y-144882195D01*
X154789188Y-144744397D01*
X154786805Y-144732362D01*
X154733233Y-144554924D01*
X154728559Y-144543584D01*
X154641540Y-144379923D01*
X154634751Y-144369706D01*
X154517603Y-144226067D01*
X154508959Y-144217363D01*
X154366144Y-144099216D01*
X154355973Y-144092356D01*
X154192924Y-144004196D01*
X154181619Y-143999444D01*
X154066308Y-143963750D01*
X154052205Y-143963544D01*
X154049000Y-143970299D01*
X154049000Y-145613000D01*
X154028998Y-145681121D01*
X153975342Y-145727614D01*
X153923000Y-145739000D01*
X152805115Y-145739000D01*
X152789876Y-145743475D01*
X152788671Y-145744865D01*
X152787000Y-145752548D01*
X152787000Y-146081657D01*
X152787301Y-146087805D01*
X152800812Y-146225603D01*
X152803194Y-146237634D01*
X152820539Y-146295081D01*
X152821080Y-146366075D01*
X152783153Y-146426092D01*
X152718799Y-146456077D01*
X152699917Y-146457500D01*
X152100678Y-146457500D01*
X152032557Y-146437498D01*
X151986064Y-146383842D01*
X151975960Y-146313568D01*
X151980576Y-146293402D01*
X151993880Y-146251462D01*
X151996430Y-146239468D01*
X152012607Y-146095239D01*
X152013000Y-146088215D01*
X152013000Y-145757115D01*
X152008525Y-145741876D01*
X152007135Y-145740671D01*
X151999452Y-145739000D01*
X150877000Y-145739000D01*
X150808879Y-145718998D01*
X150762386Y-145665342D01*
X150751000Y-145613000D01*
X150751000Y-145212885D01*
X151259000Y-145212885D01*
X151263475Y-145228124D01*
X151264865Y-145229329D01*
X151272548Y-145231000D01*
X151994885Y-145231000D01*
X152010124Y-145226525D01*
X152011329Y-145225135D01*
X152013000Y-145217452D01*
X152013000Y-145212885D01*
X152787000Y-145212885D01*
X152791475Y-145228124D01*
X152792865Y-145229329D01*
X152800548Y-145231000D01*
X153522885Y-145231000D01*
X153538124Y-145226525D01*
X153539329Y-145225135D01*
X153541000Y-145217452D01*
X153541000Y-143977076D01*
X153537027Y-143963545D01*
X153529232Y-143962425D01*
X153421479Y-143994138D01*
X153410111Y-143998731D01*
X153245846Y-144084607D01*
X153235585Y-144091321D01*
X153091127Y-144207468D01*
X153082368Y-144216046D01*
X152963222Y-144358039D01*
X152956292Y-144368159D01*
X152866998Y-144530585D01*
X152862166Y-144541858D01*
X152806120Y-144718538D01*
X152803570Y-144730532D01*
X152787393Y-144874761D01*
X152787000Y-144881785D01*
X152787000Y-145212885D01*
X152013000Y-145212885D01*
X152013000Y-144888343D01*
X152012699Y-144882195D01*
X151999188Y-144744397D01*
X151996805Y-144732362D01*
X151943233Y-144554924D01*
X151938559Y-144543584D01*
X151851540Y-144379923D01*
X151844751Y-144369706D01*
X151727603Y-144226067D01*
X151718959Y-144217363D01*
X151576144Y-144099216D01*
X151565973Y-144092356D01*
X151402924Y-144004196D01*
X151391619Y-143999444D01*
X151276308Y-143963750D01*
X151262205Y-143963544D01*
X151259000Y-143970299D01*
X151259000Y-145212885D01*
X150751000Y-145212885D01*
X150751000Y-143977076D01*
X150747027Y-143963545D01*
X150739232Y-143962425D01*
X150631479Y-143994138D01*
X150620111Y-143998731D01*
X150455846Y-144084607D01*
X150445585Y-144091321D01*
X150301127Y-144207468D01*
X150292368Y-144216046D01*
X150173222Y-144358039D01*
X150166292Y-144368159D01*
X150076998Y-144530585D01*
X150072166Y-144541858D01*
X150016120Y-144718538D01*
X150013570Y-144730532D01*
X149997393Y-144874761D01*
X149997000Y-144881785D01*
X149997000Y-145067974D01*
X149976998Y-145136095D01*
X149923342Y-145182588D01*
X149853068Y-145192692D01*
X149843514Y-145190939D01*
X149673506Y-145152938D01*
X149673499Y-145152937D01*
X149668457Y-145151810D01*
X149662912Y-145151500D01*
X149529756Y-145151500D01*
X149394963Y-145166143D01*
X149276810Y-145205906D01*
X149229796Y-145221728D01*
X149229794Y-145221729D01*
X149223325Y-145223906D01*
X149068095Y-145317177D01*
X149063138Y-145321865D01*
X149063135Y-145321867D01*
X148941473Y-145436918D01*
X148936515Y-145441607D01*
X148932683Y-145447245D01*
X148932680Y-145447249D01*
X148863917Y-145548431D01*
X148834723Y-145591388D01*
X148767470Y-145759534D01*
X148766356Y-145766262D01*
X148766355Y-145766266D01*
X148739007Y-145931461D01*
X148737892Y-145938198D01*
X148738249Y-145945015D01*
X148738249Y-145945019D01*
X148744227Y-146059069D01*
X148747370Y-146119047D01*
X148749181Y-146125620D01*
X148749181Y-146125623D01*
X148795461Y-146293641D01*
X148793703Y-146294125D01*
X148799360Y-146355809D01*
X148766591Y-146418791D01*
X148704974Y-146454059D01*
X148675727Y-146457500D01*
X144689825Y-146457500D01*
X144621704Y-146437498D01*
X144575211Y-146383842D01*
X144565107Y-146313568D01*
X144572835Y-146284709D01*
X144586133Y-146251462D01*
X144602530Y-146210466D01*
X144603644Y-146203738D01*
X144603645Y-146203734D01*
X144630993Y-146038539D01*
X144630993Y-146038536D01*
X144632108Y-146031802D01*
X144630861Y-146007997D01*
X144622987Y-145857766D01*
X144622630Y-145850953D01*
X144601348Y-145773687D01*
X144576352Y-145682941D01*
X144574539Y-145676359D01*
X144490078Y-145516164D01*
X144485673Y-145510951D01*
X144485670Y-145510947D01*
X144377594Y-145383057D01*
X144377590Y-145383053D01*
X144373187Y-145377843D01*
X144363206Y-145370212D01*
X144234743Y-145271994D01*
X144234739Y-145271991D01*
X144229322Y-145267850D01*
X144111449Y-145212885D01*
X144071369Y-145194195D01*
X144071366Y-145194194D01*
X144065192Y-145191315D01*
X144058544Y-145189829D01*
X144058541Y-145189828D01*
X143893494Y-145152936D01*
X143893495Y-145152936D01*
X143888457Y-145151810D01*
X143882912Y-145151500D01*
X143749756Y-145151500D01*
X143614963Y-145166143D01*
X143608499Y-145168318D01*
X143608496Y-145168319D01*
X143546888Y-145189053D01*
X143540167Y-145191315D01*
X143539189Y-145191644D01*
X143468247Y-145194414D01*
X143407068Y-145158391D01*
X143375077Y-145095010D01*
X143373000Y-145072225D01*
X143373000Y-144888343D01*
X143372699Y-144882195D01*
X143359188Y-144744397D01*
X143356805Y-144732362D01*
X143303233Y-144554924D01*
X143298559Y-144543584D01*
X143211540Y-144379923D01*
X143204751Y-144369706D01*
X143087603Y-144226067D01*
X143078959Y-144217363D01*
X142936144Y-144099216D01*
X142925973Y-144092356D01*
X142762924Y-144004196D01*
X142751619Y-143999444D01*
X142636308Y-143963750D01*
X142622205Y-143963544D01*
X142619000Y-143970299D01*
X142619000Y-145613000D01*
X142598998Y-145681121D01*
X142545342Y-145727614D01*
X142493000Y-145739000D01*
X142237000Y-145739000D01*
X142168879Y-145718998D01*
X142122386Y-145665342D01*
X142111000Y-145613000D01*
X142111000Y-143977076D01*
X142100961Y-143942885D01*
X164217000Y-143942885D01*
X164221475Y-143958124D01*
X164222865Y-143959329D01*
X164230548Y-143961000D01*
X164952885Y-143961000D01*
X164968124Y-143956525D01*
X164969329Y-143955135D01*
X164971000Y-143947452D01*
X164971000Y-142707076D01*
X164967027Y-142693545D01*
X164959232Y-142692425D01*
X164851479Y-142724138D01*
X164840111Y-142728731D01*
X164675846Y-142814607D01*
X164665585Y-142821321D01*
X164521127Y-142937468D01*
X164512368Y-142946046D01*
X164393222Y-143088039D01*
X164386292Y-143098159D01*
X164296998Y-143260585D01*
X164292166Y-143271858D01*
X164236120Y-143448538D01*
X164233570Y-143460532D01*
X164217393Y-143604761D01*
X164217000Y-143611785D01*
X164217000Y-143942885D01*
X142100961Y-143942885D01*
X142097777Y-143932043D01*
X142091602Y-143922433D01*
X142086500Y-143886942D01*
X142086500Y-143736500D01*
X142106502Y-143668379D01*
X142160158Y-143621886D01*
X142212500Y-143610500D01*
X145827290Y-143610500D01*
X145895411Y-143630502D01*
X145920926Y-143652189D01*
X145935504Y-143668379D01*
X145946747Y-143680866D01*
X146101248Y-143793118D01*
X146107276Y-143795802D01*
X146107278Y-143795803D01*
X146269681Y-143868109D01*
X146275712Y-143870794D01*
X146351682Y-143886942D01*
X146456056Y-143909128D01*
X146456061Y-143909128D01*
X146462513Y-143910500D01*
X146653487Y-143910500D01*
X146659939Y-143909128D01*
X146659944Y-143909128D01*
X146764318Y-143886942D01*
X146840288Y-143870794D01*
X146846319Y-143868109D01*
X147008722Y-143795803D01*
X147008724Y-143795802D01*
X147014752Y-143793118D01*
X147169253Y-143680866D01*
X147180496Y-143668379D01*
X147292621Y-143543852D01*
X147292622Y-143543851D01*
X147297040Y-143538944D01*
X147382728Y-143390529D01*
X147389223Y-143379279D01*
X147389224Y-143379278D01*
X147392527Y-143373556D01*
X147437364Y-143235563D01*
X147477438Y-143176958D01*
X147542835Y-143149321D01*
X147557197Y-143148500D01*
X147669487Y-143148500D01*
X147675939Y-143147128D01*
X147675944Y-143147128D01*
X147762888Y-143128647D01*
X147856288Y-143108794D01*
X147902905Y-143088039D01*
X148024722Y-143033803D01*
X148024724Y-143033802D01*
X148030752Y-143031118D01*
X148185253Y-142918866D01*
X148189675Y-142913955D01*
X148308621Y-142781852D01*
X148308622Y-142781851D01*
X148313040Y-142776944D01*
X148408527Y-142611556D01*
X148467542Y-142429928D01*
X148477862Y-142331744D01*
X148486814Y-142246565D01*
X148487504Y-142240000D01*
X148467542Y-142050072D01*
X148408527Y-141868444D01*
X148388927Y-141834495D01*
X148316341Y-141708774D01*
X148313040Y-141703056D01*
X148215382Y-141594595D01*
X148189675Y-141566045D01*
X148189674Y-141566044D01*
X148185253Y-141561134D01*
X148030752Y-141448882D01*
X148024724Y-141446198D01*
X148024722Y-141446197D01*
X147862319Y-141373891D01*
X147862318Y-141373891D01*
X147856288Y-141371206D01*
X147762887Y-141351353D01*
X147675944Y-141332872D01*
X147675939Y-141332872D01*
X147669487Y-141331500D01*
X147478513Y-141331500D01*
X147472061Y-141332872D01*
X147472056Y-141332872D01*
X147385113Y-141351353D01*
X147291712Y-141371206D01*
X147285682Y-141373891D01*
X147285681Y-141373891D01*
X147123278Y-141446197D01*
X147123276Y-141446198D01*
X147117248Y-141448882D01*
X146962747Y-141561134D01*
X146958334Y-141566036D01*
X146958332Y-141566037D01*
X146936926Y-141589811D01*
X146876480Y-141627050D01*
X146843290Y-141631500D01*
X142096451Y-141631500D01*
X142028330Y-141611498D01*
X142007356Y-141594595D01*
X139261885Y-138849124D01*
X139227859Y-138786812D01*
X139232924Y-138715997D01*
X139275471Y-138659161D01*
X139302761Y-138643620D01*
X139347393Y-138625133D01*
X139347394Y-138625133D01*
X139351963Y-138623240D01*
X139379853Y-138606149D01*
X139550202Y-138501759D01*
X139550208Y-138501755D01*
X139554416Y-138499176D01*
X139734969Y-138344969D01*
X139742810Y-138335789D01*
X139804939Y-138263045D01*
X139889176Y-138164416D01*
X139891755Y-138160208D01*
X139891759Y-138160202D01*
X140010654Y-137966183D01*
X140013240Y-137961963D01*
X140018243Y-137949886D01*
X140102211Y-137747167D01*
X140102212Y-137747165D01*
X140104105Y-137742594D01*
X140144045Y-137576232D01*
X140158380Y-137516524D01*
X140158381Y-137516518D01*
X140159535Y-137511711D01*
X140178165Y-137275000D01*
X143651835Y-137275000D01*
X143670465Y-137511711D01*
X143671619Y-137516518D01*
X143671620Y-137516524D01*
X143685955Y-137576232D01*
X143725895Y-137742594D01*
X143727788Y-137747165D01*
X143727789Y-137747167D01*
X143811758Y-137949886D01*
X143816760Y-137961963D01*
X143819346Y-137966183D01*
X143938241Y-138160202D01*
X143938245Y-138160208D01*
X143940824Y-138164416D01*
X144025061Y-138263045D01*
X144087191Y-138335789D01*
X144095031Y-138344969D01*
X144275584Y-138499176D01*
X144279792Y-138501755D01*
X144279798Y-138501759D01*
X144450147Y-138606149D01*
X144478037Y-138623240D01*
X144482607Y-138625133D01*
X144482611Y-138625135D01*
X144689388Y-138710784D01*
X144697406Y-138714105D01*
X144749152Y-138726528D01*
X144923476Y-138768380D01*
X144923482Y-138768381D01*
X144928289Y-138769535D01*
X145165000Y-138788165D01*
X145401711Y-138769535D01*
X145406518Y-138768381D01*
X145406524Y-138768380D01*
X145580848Y-138726528D01*
X145632594Y-138714105D01*
X145640612Y-138710784D01*
X145847389Y-138625135D01*
X145847393Y-138625133D01*
X145851963Y-138623240D01*
X145879853Y-138606149D01*
X146050202Y-138501759D01*
X146050208Y-138501755D01*
X146054416Y-138499176D01*
X146234969Y-138344969D01*
X146242810Y-138335789D01*
X146304939Y-138263045D01*
X146389176Y-138164416D01*
X146391755Y-138160208D01*
X146391759Y-138160202D01*
X146510654Y-137966183D01*
X146513240Y-137961963D01*
X146518243Y-137949886D01*
X146602211Y-137747167D01*
X146602212Y-137747165D01*
X146604105Y-137742594D01*
X146644045Y-137576232D01*
X146658380Y-137516524D01*
X146658381Y-137516518D01*
X146659535Y-137511711D01*
X146678165Y-137275000D01*
X149851835Y-137275000D01*
X149870465Y-137511711D01*
X149871619Y-137516518D01*
X149871620Y-137516524D01*
X149885955Y-137576232D01*
X149925895Y-137742594D01*
X149927788Y-137747165D01*
X149927789Y-137747167D01*
X150011758Y-137949886D01*
X150016760Y-137961963D01*
X150019346Y-137966183D01*
X150138241Y-138160202D01*
X150138245Y-138160208D01*
X150140824Y-138164416D01*
X150225061Y-138263045D01*
X150287191Y-138335789D01*
X150295031Y-138344969D01*
X150475584Y-138499176D01*
X150479792Y-138501755D01*
X150479798Y-138501759D01*
X150650147Y-138606149D01*
X150678037Y-138623240D01*
X150682607Y-138625133D01*
X150682611Y-138625135D01*
X150889388Y-138710784D01*
X150897406Y-138714105D01*
X150949152Y-138726528D01*
X151123476Y-138768380D01*
X151123482Y-138768381D01*
X151128289Y-138769535D01*
X151365000Y-138788165D01*
X151601711Y-138769535D01*
X151606518Y-138768381D01*
X151606524Y-138768380D01*
X151780848Y-138726528D01*
X151832594Y-138714105D01*
X151840612Y-138710784D01*
X152047389Y-138625135D01*
X152047393Y-138625133D01*
X152051963Y-138623240D01*
X152079853Y-138606149D01*
X152250202Y-138501759D01*
X152250208Y-138501755D01*
X152254416Y-138499176D01*
X152434969Y-138344969D01*
X152442810Y-138335789D01*
X152504939Y-138263045D01*
X152589176Y-138164416D01*
X152591755Y-138160208D01*
X152591759Y-138160202D01*
X152710654Y-137966183D01*
X152713240Y-137961963D01*
X152718243Y-137949886D01*
X152802211Y-137747167D01*
X152802212Y-137747165D01*
X152804105Y-137742594D01*
X152844045Y-137576232D01*
X152858380Y-137516524D01*
X152858381Y-137516518D01*
X152859535Y-137511711D01*
X152878165Y-137275000D01*
X156351835Y-137275000D01*
X156370465Y-137511711D01*
X156371619Y-137516518D01*
X156371620Y-137516524D01*
X156385955Y-137576232D01*
X156425895Y-137742594D01*
X156427788Y-137747165D01*
X156427789Y-137747167D01*
X156511758Y-137949886D01*
X156516760Y-137961963D01*
X156519346Y-137966183D01*
X156638241Y-138160202D01*
X156638245Y-138160208D01*
X156640824Y-138164416D01*
X156725061Y-138263045D01*
X156787191Y-138335789D01*
X156795031Y-138344969D01*
X156975584Y-138499176D01*
X156979792Y-138501755D01*
X156979798Y-138501759D01*
X157150147Y-138606149D01*
X157178037Y-138623240D01*
X157182607Y-138625133D01*
X157182611Y-138625135D01*
X157389388Y-138710784D01*
X157397406Y-138714105D01*
X157449152Y-138726528D01*
X157623476Y-138768380D01*
X157623482Y-138768381D01*
X157628289Y-138769535D01*
X157865000Y-138788165D01*
X158101711Y-138769535D01*
X158106518Y-138768381D01*
X158106524Y-138768380D01*
X158280848Y-138726528D01*
X158332594Y-138714105D01*
X158340612Y-138710784D01*
X158547389Y-138625135D01*
X158547393Y-138625133D01*
X158551963Y-138623240D01*
X158579853Y-138606149D01*
X158750202Y-138501759D01*
X158750208Y-138501755D01*
X158754416Y-138499176D01*
X158934969Y-138344969D01*
X158942810Y-138335789D01*
X159004939Y-138263045D01*
X159089176Y-138164416D01*
X159091755Y-138160208D01*
X159091759Y-138160202D01*
X159210654Y-137966183D01*
X159213240Y-137961963D01*
X159218243Y-137949886D01*
X159302211Y-137747167D01*
X159302212Y-137747165D01*
X159304105Y-137742594D01*
X159344045Y-137576232D01*
X159358380Y-137516524D01*
X159358381Y-137516518D01*
X159359535Y-137511711D01*
X159378165Y-137275000D01*
X162551835Y-137275000D01*
X162570465Y-137511711D01*
X162571619Y-137516518D01*
X162571620Y-137516524D01*
X162585955Y-137576232D01*
X162625895Y-137742594D01*
X162627788Y-137747165D01*
X162627789Y-137747167D01*
X162711758Y-137949886D01*
X162716760Y-137961963D01*
X162719346Y-137966183D01*
X162838241Y-138160202D01*
X162838245Y-138160208D01*
X162840824Y-138164416D01*
X162925061Y-138263045D01*
X162987191Y-138335789D01*
X162995031Y-138344969D01*
X163175584Y-138499176D01*
X163179792Y-138501755D01*
X163179798Y-138501759D01*
X163350147Y-138606149D01*
X163378037Y-138623240D01*
X163382607Y-138625133D01*
X163382611Y-138625135D01*
X163589388Y-138710784D01*
X163597406Y-138714105D01*
X163649152Y-138726528D01*
X163823476Y-138768380D01*
X163823482Y-138768381D01*
X163828289Y-138769535D01*
X164065000Y-138788165D01*
X164301711Y-138769535D01*
X164306518Y-138768381D01*
X164306524Y-138768380D01*
X164480848Y-138726528D01*
X164532594Y-138714105D01*
X164540612Y-138710784D01*
X164747389Y-138625135D01*
X164747393Y-138625133D01*
X164751963Y-138623240D01*
X164779853Y-138606149D01*
X164950202Y-138501759D01*
X164950208Y-138501755D01*
X164954416Y-138499176D01*
X165134969Y-138344969D01*
X165142810Y-138335789D01*
X165204939Y-138263045D01*
X165289176Y-138164416D01*
X165291755Y-138160208D01*
X165291759Y-138160202D01*
X165410654Y-137966183D01*
X165413240Y-137961963D01*
X165418243Y-137949886D01*
X165502211Y-137747167D01*
X165502212Y-137747165D01*
X165504105Y-137742594D01*
X165544045Y-137576232D01*
X165558380Y-137516524D01*
X165558381Y-137516518D01*
X165559535Y-137511711D01*
X165578165Y-137275000D01*
X169051835Y-137275000D01*
X169070465Y-137511711D01*
X169071619Y-137516518D01*
X169071620Y-137516524D01*
X169085955Y-137576232D01*
X169125895Y-137742594D01*
X169127788Y-137747165D01*
X169127789Y-137747167D01*
X169211758Y-137949886D01*
X169216760Y-137961963D01*
X169219346Y-137966183D01*
X169338241Y-138160202D01*
X169338245Y-138160208D01*
X169340824Y-138164416D01*
X169425061Y-138263045D01*
X169487191Y-138335789D01*
X169495031Y-138344969D01*
X169675584Y-138499176D01*
X169679792Y-138501755D01*
X169679798Y-138501759D01*
X169850147Y-138606149D01*
X169878037Y-138623240D01*
X169882607Y-138625133D01*
X169882611Y-138625135D01*
X170089388Y-138710784D01*
X170097406Y-138714105D01*
X170149152Y-138726528D01*
X170323476Y-138768380D01*
X170323482Y-138768381D01*
X170328289Y-138769535D01*
X170565000Y-138788165D01*
X170801711Y-138769535D01*
X170806518Y-138768381D01*
X170806524Y-138768380D01*
X170980848Y-138726528D01*
X171032594Y-138714105D01*
X171040612Y-138710784D01*
X171247389Y-138625135D01*
X171247393Y-138625133D01*
X171251963Y-138623240D01*
X171279853Y-138606149D01*
X171450202Y-138501759D01*
X171450208Y-138501755D01*
X171454416Y-138499176D01*
X171634969Y-138344969D01*
X171642810Y-138335789D01*
X171704939Y-138263045D01*
X171789176Y-138164416D01*
X171791755Y-138160208D01*
X171791759Y-138160202D01*
X171910654Y-137966183D01*
X171913240Y-137961963D01*
X171918243Y-137949886D01*
X172002211Y-137747167D01*
X172002212Y-137747165D01*
X172004105Y-137742594D01*
X172044045Y-137576232D01*
X172058380Y-137516524D01*
X172058381Y-137516518D01*
X172059535Y-137511711D01*
X172078165Y-137275000D01*
X175251835Y-137275000D01*
X175270465Y-137511711D01*
X175271619Y-137516518D01*
X175271620Y-137516524D01*
X175285955Y-137576232D01*
X175325895Y-137742594D01*
X175327788Y-137747165D01*
X175327789Y-137747167D01*
X175411758Y-137949886D01*
X175416760Y-137961963D01*
X175419346Y-137966183D01*
X175538241Y-138160202D01*
X175538245Y-138160208D01*
X175540824Y-138164416D01*
X175625061Y-138263045D01*
X175687191Y-138335789D01*
X175695031Y-138344969D01*
X175875584Y-138499176D01*
X175879792Y-138501755D01*
X175879798Y-138501759D01*
X176050147Y-138606149D01*
X176078037Y-138623240D01*
X176082607Y-138625133D01*
X176082611Y-138625135D01*
X176289388Y-138710784D01*
X176297406Y-138714105D01*
X176349152Y-138726528D01*
X176523476Y-138768380D01*
X176523482Y-138768381D01*
X176528289Y-138769535D01*
X176765000Y-138788165D01*
X177001711Y-138769535D01*
X177006518Y-138768381D01*
X177006524Y-138768380D01*
X177180848Y-138726528D01*
X177232594Y-138714105D01*
X177240612Y-138710784D01*
X177447389Y-138625135D01*
X177447393Y-138625133D01*
X177451963Y-138623240D01*
X177479853Y-138606149D01*
X177650202Y-138501759D01*
X177650208Y-138501755D01*
X177654416Y-138499176D01*
X177834969Y-138344969D01*
X177842810Y-138335789D01*
X177904939Y-138263045D01*
X177989176Y-138164416D01*
X177991755Y-138160208D01*
X177991759Y-138160202D01*
X178110654Y-137966183D01*
X178113240Y-137961963D01*
X178118243Y-137949886D01*
X178202211Y-137747167D01*
X178202212Y-137747165D01*
X178204105Y-137742594D01*
X178244045Y-137576232D01*
X178258380Y-137516524D01*
X178258381Y-137516518D01*
X178259535Y-137511711D01*
X178278165Y-137275000D01*
X178259535Y-137038289D01*
X178258377Y-137033462D01*
X178205260Y-136812218D01*
X178204105Y-136807406D01*
X178113240Y-136588037D01*
X178032500Y-136456282D01*
X177991759Y-136389798D01*
X177991755Y-136389792D01*
X177989176Y-136385584D01*
X177834969Y-136205031D01*
X177654416Y-136050824D01*
X177650208Y-136048245D01*
X177650202Y-136048241D01*
X177456183Y-135929346D01*
X177451963Y-135926760D01*
X177447393Y-135924867D01*
X177447389Y-135924865D01*
X177237167Y-135837789D01*
X177237165Y-135837788D01*
X177232594Y-135835895D01*
X177152391Y-135816640D01*
X177006524Y-135781620D01*
X177006518Y-135781619D01*
X177001711Y-135780465D01*
X176765000Y-135761835D01*
X176528289Y-135780465D01*
X176523482Y-135781619D01*
X176523476Y-135781620D01*
X176377609Y-135816640D01*
X176297406Y-135835895D01*
X176292835Y-135837788D01*
X176292833Y-135837789D01*
X176082611Y-135924865D01*
X176082607Y-135924867D01*
X176078037Y-135926760D01*
X176073817Y-135929346D01*
X175879798Y-136048241D01*
X175879792Y-136048245D01*
X175875584Y-136050824D01*
X175695031Y-136205031D01*
X175540824Y-136385584D01*
X175538245Y-136389792D01*
X175538241Y-136389798D01*
X175497500Y-136456282D01*
X175416760Y-136588037D01*
X175325895Y-136807406D01*
X175324740Y-136812218D01*
X175271624Y-137033462D01*
X175270465Y-137038289D01*
X175251835Y-137275000D01*
X172078165Y-137275000D01*
X172059535Y-137038289D01*
X172058377Y-137033462D01*
X172005260Y-136812218D01*
X172004105Y-136807406D01*
X171913240Y-136588037D01*
X171832500Y-136456282D01*
X171791759Y-136389798D01*
X171791755Y-136389792D01*
X171789176Y-136385584D01*
X171634969Y-136205031D01*
X171454416Y-136050824D01*
X171450208Y-136048245D01*
X171450202Y-136048241D01*
X171256183Y-135929346D01*
X171251963Y-135926760D01*
X171247393Y-135924867D01*
X171247389Y-135924865D01*
X171037167Y-135837789D01*
X171037165Y-135837788D01*
X171032594Y-135835895D01*
X170952391Y-135816640D01*
X170806524Y-135781620D01*
X170806518Y-135781619D01*
X170801711Y-135780465D01*
X170565000Y-135761835D01*
X170328289Y-135780465D01*
X170323482Y-135781619D01*
X170323476Y-135781620D01*
X170177609Y-135816640D01*
X170097406Y-135835895D01*
X170092835Y-135837788D01*
X170092833Y-135837789D01*
X169882611Y-135924865D01*
X169882607Y-135924867D01*
X169878037Y-135926760D01*
X169873817Y-135929346D01*
X169679798Y-136048241D01*
X169679792Y-136048245D01*
X169675584Y-136050824D01*
X169495031Y-136205031D01*
X169340824Y-136385584D01*
X169338245Y-136389792D01*
X169338241Y-136389798D01*
X169297500Y-136456282D01*
X169216760Y-136588037D01*
X169125895Y-136807406D01*
X169124740Y-136812218D01*
X169071624Y-137033462D01*
X169070465Y-137038289D01*
X169051835Y-137275000D01*
X165578165Y-137275000D01*
X165559535Y-137038289D01*
X165558377Y-137033462D01*
X165505260Y-136812218D01*
X165504105Y-136807406D01*
X165413240Y-136588037D01*
X165332500Y-136456282D01*
X165291759Y-136389798D01*
X165291755Y-136389792D01*
X165289176Y-136385584D01*
X165134969Y-136205031D01*
X164954416Y-136050824D01*
X164950208Y-136048245D01*
X164950202Y-136048241D01*
X164756183Y-135929346D01*
X164751963Y-135926760D01*
X164747393Y-135924867D01*
X164747389Y-135924865D01*
X164537167Y-135837789D01*
X164537165Y-135837788D01*
X164532594Y-135835895D01*
X164452391Y-135816640D01*
X164306524Y-135781620D01*
X164306518Y-135781619D01*
X164301711Y-135780465D01*
X164065000Y-135761835D01*
X163828289Y-135780465D01*
X163823482Y-135781619D01*
X163823476Y-135781620D01*
X163677609Y-135816640D01*
X163597406Y-135835895D01*
X163592835Y-135837788D01*
X163592833Y-135837789D01*
X163382611Y-135924865D01*
X163382607Y-135924867D01*
X163378037Y-135926760D01*
X163373817Y-135929346D01*
X163179798Y-136048241D01*
X163179792Y-136048245D01*
X163175584Y-136050824D01*
X162995031Y-136205031D01*
X162840824Y-136385584D01*
X162838245Y-136389792D01*
X162838241Y-136389798D01*
X162797500Y-136456282D01*
X162716760Y-136588037D01*
X162625895Y-136807406D01*
X162624740Y-136812218D01*
X162571624Y-137033462D01*
X162570465Y-137038289D01*
X162551835Y-137275000D01*
X159378165Y-137275000D01*
X159359535Y-137038289D01*
X159358377Y-137033462D01*
X159305260Y-136812218D01*
X159304105Y-136807406D01*
X159213240Y-136588037D01*
X159132500Y-136456282D01*
X159091759Y-136389798D01*
X159091755Y-136389792D01*
X159089176Y-136385584D01*
X158934969Y-136205031D01*
X158754416Y-136050824D01*
X158750208Y-136048245D01*
X158750202Y-136048241D01*
X158556183Y-135929346D01*
X158551963Y-135926760D01*
X158547393Y-135924867D01*
X158547389Y-135924865D01*
X158337167Y-135837789D01*
X158337165Y-135837788D01*
X158332594Y-135835895D01*
X158252391Y-135816640D01*
X158106524Y-135781620D01*
X158106518Y-135781619D01*
X158101711Y-135780465D01*
X157865000Y-135761835D01*
X157628289Y-135780465D01*
X157623482Y-135781619D01*
X157623476Y-135781620D01*
X157477609Y-135816640D01*
X157397406Y-135835895D01*
X157392835Y-135837788D01*
X157392833Y-135837789D01*
X157182611Y-135924865D01*
X157182607Y-135924867D01*
X157178037Y-135926760D01*
X157173817Y-135929346D01*
X156979798Y-136048241D01*
X156979792Y-136048245D01*
X156975584Y-136050824D01*
X156795031Y-136205031D01*
X156640824Y-136385584D01*
X156638245Y-136389792D01*
X156638241Y-136389798D01*
X156597500Y-136456282D01*
X156516760Y-136588037D01*
X156425895Y-136807406D01*
X156424740Y-136812218D01*
X156371624Y-137033462D01*
X156370465Y-137038289D01*
X156351835Y-137275000D01*
X152878165Y-137275000D01*
X152859535Y-137038289D01*
X152858377Y-137033462D01*
X152805260Y-136812218D01*
X152804105Y-136807406D01*
X152713240Y-136588037D01*
X152632500Y-136456282D01*
X152591759Y-136389798D01*
X152591755Y-136389792D01*
X152589176Y-136385584D01*
X152434969Y-136205031D01*
X152254416Y-136050824D01*
X152250208Y-136048245D01*
X152250202Y-136048241D01*
X152056183Y-135929346D01*
X152051963Y-135926760D01*
X152047393Y-135924867D01*
X152047389Y-135924865D01*
X151837167Y-135837789D01*
X151837165Y-135837788D01*
X151832594Y-135835895D01*
X151752391Y-135816640D01*
X151606524Y-135781620D01*
X151606518Y-135781619D01*
X151601711Y-135780465D01*
X151365000Y-135761835D01*
X151128289Y-135780465D01*
X151123482Y-135781619D01*
X151123476Y-135781620D01*
X150977609Y-135816640D01*
X150897406Y-135835895D01*
X150892835Y-135837788D01*
X150892833Y-135837789D01*
X150682611Y-135924865D01*
X150682607Y-135924867D01*
X150678037Y-135926760D01*
X150673817Y-135929346D01*
X150479798Y-136048241D01*
X150479792Y-136048245D01*
X150475584Y-136050824D01*
X150295031Y-136205031D01*
X150140824Y-136385584D01*
X150138245Y-136389792D01*
X150138241Y-136389798D01*
X150097500Y-136456282D01*
X150016760Y-136588037D01*
X149925895Y-136807406D01*
X149924740Y-136812218D01*
X149871624Y-137033462D01*
X149870465Y-137038289D01*
X149851835Y-137275000D01*
X146678165Y-137275000D01*
X146659535Y-137038289D01*
X146658377Y-137033462D01*
X146605260Y-136812218D01*
X146604105Y-136807406D01*
X146513240Y-136588037D01*
X146432500Y-136456282D01*
X146391759Y-136389798D01*
X146391755Y-136389792D01*
X146389176Y-136385584D01*
X146234969Y-136205031D01*
X146054416Y-136050824D01*
X146050208Y-136048245D01*
X146050202Y-136048241D01*
X145856183Y-135929346D01*
X145851963Y-135926760D01*
X145847393Y-135924867D01*
X145847389Y-135924865D01*
X145637167Y-135837789D01*
X145637165Y-135837788D01*
X145632594Y-135835895D01*
X145552391Y-135816640D01*
X145406524Y-135781620D01*
X145406518Y-135781619D01*
X145401711Y-135780465D01*
X145165000Y-135761835D01*
X144928289Y-135780465D01*
X144923482Y-135781619D01*
X144923476Y-135781620D01*
X144777609Y-135816640D01*
X144697406Y-135835895D01*
X144692835Y-135837788D01*
X144692833Y-135837789D01*
X144482611Y-135924865D01*
X144482607Y-135924867D01*
X144478037Y-135926760D01*
X144473817Y-135929346D01*
X144279798Y-136048241D01*
X144279792Y-136048245D01*
X144275584Y-136050824D01*
X144095031Y-136205031D01*
X143940824Y-136385584D01*
X143938245Y-136389792D01*
X143938241Y-136389798D01*
X143897500Y-136456282D01*
X143816760Y-136588037D01*
X143725895Y-136807406D01*
X143724740Y-136812218D01*
X143671624Y-137033462D01*
X143670465Y-137038289D01*
X143651835Y-137275000D01*
X140178165Y-137275000D01*
X140159535Y-137038289D01*
X140158377Y-137033462D01*
X140105260Y-136812218D01*
X140104105Y-136807406D01*
X140013240Y-136588037D01*
X139932500Y-136456282D01*
X139891759Y-136389798D01*
X139891755Y-136389792D01*
X139889176Y-136385584D01*
X139734969Y-136205031D01*
X139554416Y-136050824D01*
X139550208Y-136048245D01*
X139550202Y-136048241D01*
X139356183Y-135929346D01*
X139351963Y-135926760D01*
X139347393Y-135924867D01*
X139347389Y-135924865D01*
X139137167Y-135837789D01*
X139137165Y-135837788D01*
X139132594Y-135835895D01*
X139052391Y-135816640D01*
X138906524Y-135781620D01*
X138906518Y-135781619D01*
X138901711Y-135780465D01*
X138665000Y-135761835D01*
X138428289Y-135780465D01*
X138423482Y-135781619D01*
X138423476Y-135781620D01*
X138277609Y-135816640D01*
X138197406Y-135835895D01*
X138192835Y-135837788D01*
X138192833Y-135837789D01*
X137982611Y-135924865D01*
X137982607Y-135924867D01*
X137978037Y-135926760D01*
X137973814Y-135929348D01*
X137960336Y-135937607D01*
X137891802Y-135956146D01*
X137824125Y-135934690D01*
X137778792Y-135880051D01*
X137768500Y-135830175D01*
X137768500Y-134219237D01*
X137788502Y-134151116D01*
X137842158Y-134104623D01*
X137912432Y-134094519D01*
X137960337Y-134111806D01*
X137974045Y-134120207D01*
X137982837Y-134124687D01*
X138192988Y-134211734D01*
X138202373Y-134214783D01*
X138423554Y-134267885D01*
X138433301Y-134269428D01*
X138660070Y-134287275D01*
X138669930Y-134287275D01*
X138896699Y-134269428D01*
X138906446Y-134267885D01*
X139127627Y-134214783D01*
X139137012Y-134211734D01*
X139347163Y-134124687D01*
X139355958Y-134120205D01*
X139523445Y-134017568D01*
X139532400Y-134007670D01*
X144297160Y-134007670D01*
X144302887Y-134015320D01*
X144474042Y-134120205D01*
X144482837Y-134124687D01*
X144692988Y-134211734D01*
X144702373Y-134214783D01*
X144923554Y-134267885D01*
X144933301Y-134269428D01*
X145160070Y-134287275D01*
X145169930Y-134287275D01*
X145396699Y-134269428D01*
X145406446Y-134267885D01*
X145627627Y-134214783D01*
X145637012Y-134211734D01*
X145847163Y-134124687D01*
X145855958Y-134120205D01*
X146023445Y-134017568D01*
X146032400Y-134007670D01*
X150497160Y-134007670D01*
X150502887Y-134015320D01*
X150674042Y-134120205D01*
X150682837Y-134124687D01*
X150892988Y-134211734D01*
X150902373Y-134214783D01*
X151123554Y-134267885D01*
X151133301Y-134269428D01*
X151360070Y-134287275D01*
X151369930Y-134287275D01*
X151596699Y-134269428D01*
X151606446Y-134267885D01*
X151827627Y-134214783D01*
X151837012Y-134211734D01*
X152047163Y-134124687D01*
X152055958Y-134120205D01*
X152223445Y-134017568D01*
X152232400Y-134007670D01*
X156997160Y-134007670D01*
X157002887Y-134015320D01*
X157174042Y-134120205D01*
X157182837Y-134124687D01*
X157392988Y-134211734D01*
X157402373Y-134214783D01*
X157623554Y-134267885D01*
X157633301Y-134269428D01*
X157860070Y-134287275D01*
X157869930Y-134287275D01*
X158096699Y-134269428D01*
X158106446Y-134267885D01*
X158327627Y-134214783D01*
X158337012Y-134211734D01*
X158547163Y-134124687D01*
X158555958Y-134120205D01*
X158723445Y-134017568D01*
X158732400Y-134007670D01*
X163197160Y-134007670D01*
X163202887Y-134015320D01*
X163374042Y-134120205D01*
X163382837Y-134124687D01*
X163592988Y-134211734D01*
X163602373Y-134214783D01*
X163823554Y-134267885D01*
X163833301Y-134269428D01*
X164060070Y-134287275D01*
X164069930Y-134287275D01*
X164296699Y-134269428D01*
X164306446Y-134267885D01*
X164527627Y-134214783D01*
X164537012Y-134211734D01*
X164747163Y-134124687D01*
X164755958Y-134120205D01*
X164923445Y-134017568D01*
X164932400Y-134007670D01*
X169697160Y-134007670D01*
X169702887Y-134015320D01*
X169874042Y-134120205D01*
X169882837Y-134124687D01*
X170092988Y-134211734D01*
X170102373Y-134214783D01*
X170323554Y-134267885D01*
X170333301Y-134269428D01*
X170560070Y-134287275D01*
X170569930Y-134287275D01*
X170796699Y-134269428D01*
X170806446Y-134267885D01*
X171027627Y-134214783D01*
X171037012Y-134211734D01*
X171247163Y-134124687D01*
X171255958Y-134120205D01*
X171423445Y-134017568D01*
X171432400Y-134007670D01*
X175897160Y-134007670D01*
X175902887Y-134015320D01*
X176074042Y-134120205D01*
X176082837Y-134124687D01*
X176292988Y-134211734D01*
X176302373Y-134214783D01*
X176523554Y-134267885D01*
X176533301Y-134269428D01*
X176760070Y-134287275D01*
X176769930Y-134287275D01*
X176996699Y-134269428D01*
X177006446Y-134267885D01*
X177227627Y-134214783D01*
X177237012Y-134211734D01*
X177447163Y-134124687D01*
X177455958Y-134120205D01*
X177623445Y-134017568D01*
X177632400Y-134007670D01*
X182397160Y-134007670D01*
X182402887Y-134015320D01*
X182574042Y-134120205D01*
X182582837Y-134124687D01*
X182792988Y-134211734D01*
X182802373Y-134214783D01*
X183023554Y-134267885D01*
X183033301Y-134269428D01*
X183260070Y-134287275D01*
X183269930Y-134287275D01*
X183496699Y-134269428D01*
X183506446Y-134267885D01*
X183727627Y-134214783D01*
X183737012Y-134211734D01*
X183947163Y-134124687D01*
X183955958Y-134120205D01*
X184123445Y-134017568D01*
X184132907Y-134007110D01*
X184129124Y-133998334D01*
X183277812Y-133147022D01*
X183263868Y-133139408D01*
X183262035Y-133139539D01*
X183255420Y-133143790D01*
X182403920Y-133995290D01*
X182397160Y-134007670D01*
X177632400Y-134007670D01*
X177632907Y-134007110D01*
X177629124Y-133998334D01*
X176777812Y-133147022D01*
X176763868Y-133139408D01*
X176762035Y-133139539D01*
X176755420Y-133143790D01*
X175903920Y-133995290D01*
X175897160Y-134007670D01*
X171432400Y-134007670D01*
X171432907Y-134007110D01*
X171429124Y-133998334D01*
X170577812Y-133147022D01*
X170563868Y-133139408D01*
X170562035Y-133139539D01*
X170555420Y-133143790D01*
X169703920Y-133995290D01*
X169697160Y-134007670D01*
X164932400Y-134007670D01*
X164932907Y-134007110D01*
X164929124Y-133998334D01*
X164077812Y-133147022D01*
X164063868Y-133139408D01*
X164062035Y-133139539D01*
X164055420Y-133143790D01*
X163203920Y-133995290D01*
X163197160Y-134007670D01*
X158732400Y-134007670D01*
X158732907Y-134007110D01*
X158729124Y-133998334D01*
X157877812Y-133147022D01*
X157863868Y-133139408D01*
X157862035Y-133139539D01*
X157855420Y-133143790D01*
X157003920Y-133995290D01*
X156997160Y-134007670D01*
X152232400Y-134007670D01*
X152232907Y-134007110D01*
X152229124Y-133998334D01*
X151377812Y-133147022D01*
X151363868Y-133139408D01*
X151362035Y-133139539D01*
X151355420Y-133143790D01*
X150503920Y-133995290D01*
X150497160Y-134007670D01*
X146032400Y-134007670D01*
X146032907Y-134007110D01*
X146029124Y-133998334D01*
X145177812Y-133147022D01*
X145163868Y-133139408D01*
X145162035Y-133139539D01*
X145155420Y-133143790D01*
X144303920Y-133995290D01*
X144297160Y-134007670D01*
X139532400Y-134007670D01*
X139532907Y-134007110D01*
X139529124Y-133998334D01*
X138394885Y-132864095D01*
X138360859Y-132801783D01*
X138362694Y-132776132D01*
X139029408Y-132776132D01*
X139029539Y-132777965D01*
X139033790Y-132784580D01*
X139885290Y-133636080D01*
X139897670Y-133642840D01*
X139905320Y-133637113D01*
X140010205Y-133465958D01*
X140014687Y-133457163D01*
X140101734Y-133247012D01*
X140104783Y-133237627D01*
X140157885Y-133016446D01*
X140159428Y-133006699D01*
X140177275Y-132779930D01*
X143652725Y-132779930D01*
X143670572Y-133006699D01*
X143672115Y-133016446D01*
X143725217Y-133237627D01*
X143728266Y-133247012D01*
X143815313Y-133457163D01*
X143819795Y-133465958D01*
X143922432Y-133633445D01*
X143932890Y-133642907D01*
X143941666Y-133639124D01*
X144792978Y-132787812D01*
X144799356Y-132776132D01*
X145529408Y-132776132D01*
X145529539Y-132777965D01*
X145533790Y-132784580D01*
X146385290Y-133636080D01*
X146397670Y-133642840D01*
X146405320Y-133637113D01*
X146510205Y-133465958D01*
X146514687Y-133457163D01*
X146601734Y-133247012D01*
X146604783Y-133237627D01*
X146657885Y-133016446D01*
X146659428Y-133006699D01*
X146677275Y-132779930D01*
X149852725Y-132779930D01*
X149870572Y-133006699D01*
X149872115Y-133016446D01*
X149925217Y-133237627D01*
X149928266Y-133247012D01*
X150015313Y-133457163D01*
X150019795Y-133465958D01*
X150122432Y-133633445D01*
X150132890Y-133642907D01*
X150141666Y-133639124D01*
X150992978Y-132787812D01*
X150999356Y-132776132D01*
X151729408Y-132776132D01*
X151729539Y-132777965D01*
X151733790Y-132784580D01*
X152585290Y-133636080D01*
X152597670Y-133642840D01*
X152605320Y-133637113D01*
X152710205Y-133465958D01*
X152714687Y-133457163D01*
X152801734Y-133247012D01*
X152804783Y-133237627D01*
X152857885Y-133016446D01*
X152859428Y-133006699D01*
X152877275Y-132779930D01*
X156352725Y-132779930D01*
X156370572Y-133006699D01*
X156372115Y-133016446D01*
X156425217Y-133237627D01*
X156428266Y-133247012D01*
X156515313Y-133457163D01*
X156519795Y-133465958D01*
X156622432Y-133633445D01*
X156632890Y-133642907D01*
X156641666Y-133639124D01*
X157492978Y-132787812D01*
X157499356Y-132776132D01*
X158229408Y-132776132D01*
X158229539Y-132777965D01*
X158233790Y-132784580D01*
X159085290Y-133636080D01*
X159097670Y-133642840D01*
X159105320Y-133637113D01*
X159210205Y-133465958D01*
X159214687Y-133457163D01*
X159301734Y-133247012D01*
X159304783Y-133237627D01*
X159357885Y-133016446D01*
X159359428Y-133006699D01*
X159377275Y-132779930D01*
X162552725Y-132779930D01*
X162570572Y-133006699D01*
X162572115Y-133016446D01*
X162625217Y-133237627D01*
X162628266Y-133247012D01*
X162715313Y-133457163D01*
X162719795Y-133465958D01*
X162822432Y-133633445D01*
X162832890Y-133642907D01*
X162841666Y-133639124D01*
X163692978Y-132787812D01*
X163699356Y-132776132D01*
X164429408Y-132776132D01*
X164429539Y-132777965D01*
X164433790Y-132784580D01*
X165285290Y-133636080D01*
X165297670Y-133642840D01*
X165305320Y-133637113D01*
X165410205Y-133465958D01*
X165414687Y-133457163D01*
X165501734Y-133247012D01*
X165504783Y-133237627D01*
X165557885Y-133016446D01*
X165559428Y-133006699D01*
X165577275Y-132779930D01*
X169052725Y-132779930D01*
X169070572Y-133006699D01*
X169072115Y-133016446D01*
X169125217Y-133237627D01*
X169128266Y-133247012D01*
X169215313Y-133457163D01*
X169219795Y-133465958D01*
X169322432Y-133633445D01*
X169332890Y-133642907D01*
X169341666Y-133639124D01*
X170192978Y-132787812D01*
X170199356Y-132776132D01*
X170929408Y-132776132D01*
X170929539Y-132777965D01*
X170933790Y-132784580D01*
X171785290Y-133636080D01*
X171797670Y-133642840D01*
X171805320Y-133637113D01*
X171910205Y-133465958D01*
X171914687Y-133457163D01*
X172001734Y-133247012D01*
X172004783Y-133237627D01*
X172057885Y-133016446D01*
X172059428Y-133006699D01*
X172077275Y-132779930D01*
X175252725Y-132779930D01*
X175270572Y-133006699D01*
X175272115Y-133016446D01*
X175325217Y-133237627D01*
X175328266Y-133247012D01*
X175415313Y-133457163D01*
X175419795Y-133465958D01*
X175522432Y-133633445D01*
X175532890Y-133642907D01*
X175541666Y-133639124D01*
X176392978Y-132787812D01*
X176399356Y-132776132D01*
X177129408Y-132776132D01*
X177129539Y-132777965D01*
X177133790Y-132784580D01*
X177985290Y-133636080D01*
X177997670Y-133642840D01*
X178005320Y-133637113D01*
X178110205Y-133465958D01*
X178114687Y-133457163D01*
X178201734Y-133247012D01*
X178204783Y-133237627D01*
X178257885Y-133016446D01*
X178259428Y-133006699D01*
X178277275Y-132779930D01*
X181752725Y-132779930D01*
X181770572Y-133006699D01*
X181772115Y-133016446D01*
X181825217Y-133237627D01*
X181828266Y-133247012D01*
X181915313Y-133457163D01*
X181919795Y-133465958D01*
X182022432Y-133633445D01*
X182032890Y-133642907D01*
X182041666Y-133639124D01*
X182892978Y-132787812D01*
X182900592Y-132773868D01*
X182900461Y-132772035D01*
X182896210Y-132765420D01*
X182044710Y-131913920D01*
X182032330Y-131907160D01*
X182024680Y-131912887D01*
X181919795Y-132084042D01*
X181915313Y-132092837D01*
X181828266Y-132302988D01*
X181825217Y-132312373D01*
X181772115Y-132533554D01*
X181770572Y-132543301D01*
X181752725Y-132770070D01*
X181752725Y-132779930D01*
X178277275Y-132779930D01*
X178277275Y-132770070D01*
X178259428Y-132543301D01*
X178257885Y-132533554D01*
X178204783Y-132312373D01*
X178201734Y-132302988D01*
X178114687Y-132092837D01*
X178110205Y-132084042D01*
X178007568Y-131916555D01*
X177997110Y-131907093D01*
X177988334Y-131910876D01*
X177137022Y-132762188D01*
X177129408Y-132776132D01*
X176399356Y-132776132D01*
X176400592Y-132773868D01*
X176400461Y-132772035D01*
X176396210Y-132765420D01*
X175544710Y-131913920D01*
X175532330Y-131907160D01*
X175524680Y-131912887D01*
X175419795Y-132084042D01*
X175415313Y-132092837D01*
X175328266Y-132302988D01*
X175325217Y-132312373D01*
X175272115Y-132533554D01*
X175270572Y-132543301D01*
X175252725Y-132770070D01*
X175252725Y-132779930D01*
X172077275Y-132779930D01*
X172077275Y-132770070D01*
X172059428Y-132543301D01*
X172057885Y-132533554D01*
X172004783Y-132312373D01*
X172001734Y-132302988D01*
X171914687Y-132092837D01*
X171910205Y-132084042D01*
X171807568Y-131916555D01*
X171797110Y-131907093D01*
X171788334Y-131910876D01*
X170937022Y-132762188D01*
X170929408Y-132776132D01*
X170199356Y-132776132D01*
X170200592Y-132773868D01*
X170200461Y-132772035D01*
X170196210Y-132765420D01*
X169344710Y-131913920D01*
X169332330Y-131907160D01*
X169324680Y-131912887D01*
X169219795Y-132084042D01*
X169215313Y-132092837D01*
X169128266Y-132302988D01*
X169125217Y-132312373D01*
X169072115Y-132533554D01*
X169070572Y-132543301D01*
X169052725Y-132770070D01*
X169052725Y-132779930D01*
X165577275Y-132779930D01*
X165577275Y-132770070D01*
X165559428Y-132543301D01*
X165557885Y-132533554D01*
X165504783Y-132312373D01*
X165501734Y-132302988D01*
X165414687Y-132092837D01*
X165410205Y-132084042D01*
X165307568Y-131916555D01*
X165297110Y-131907093D01*
X165288334Y-131910876D01*
X164437022Y-132762188D01*
X164429408Y-132776132D01*
X163699356Y-132776132D01*
X163700592Y-132773868D01*
X163700461Y-132772035D01*
X163696210Y-132765420D01*
X162844710Y-131913920D01*
X162832330Y-131907160D01*
X162824680Y-131912887D01*
X162719795Y-132084042D01*
X162715313Y-132092837D01*
X162628266Y-132302988D01*
X162625217Y-132312373D01*
X162572115Y-132533554D01*
X162570572Y-132543301D01*
X162552725Y-132770070D01*
X162552725Y-132779930D01*
X159377275Y-132779930D01*
X159377275Y-132770070D01*
X159359428Y-132543301D01*
X159357885Y-132533554D01*
X159304783Y-132312373D01*
X159301734Y-132302988D01*
X159214687Y-132092837D01*
X159210205Y-132084042D01*
X159107568Y-131916555D01*
X159097110Y-131907093D01*
X159088334Y-131910876D01*
X158237022Y-132762188D01*
X158229408Y-132776132D01*
X157499356Y-132776132D01*
X157500592Y-132773868D01*
X157500461Y-132772035D01*
X157496210Y-132765420D01*
X156644710Y-131913920D01*
X156632330Y-131907160D01*
X156624680Y-131912887D01*
X156519795Y-132084042D01*
X156515313Y-132092837D01*
X156428266Y-132302988D01*
X156425217Y-132312373D01*
X156372115Y-132533554D01*
X156370572Y-132543301D01*
X156352725Y-132770070D01*
X156352725Y-132779930D01*
X152877275Y-132779930D01*
X152877275Y-132770070D01*
X152859428Y-132543301D01*
X152857885Y-132533554D01*
X152804783Y-132312373D01*
X152801734Y-132302988D01*
X152714687Y-132092837D01*
X152710205Y-132084042D01*
X152607568Y-131916555D01*
X152597110Y-131907093D01*
X152588334Y-131910876D01*
X151737022Y-132762188D01*
X151729408Y-132776132D01*
X150999356Y-132776132D01*
X151000592Y-132773868D01*
X151000461Y-132772035D01*
X150996210Y-132765420D01*
X150144710Y-131913920D01*
X150132330Y-131907160D01*
X150124680Y-131912887D01*
X150019795Y-132084042D01*
X150015313Y-132092837D01*
X149928266Y-132302988D01*
X149925217Y-132312373D01*
X149872115Y-132533554D01*
X149870572Y-132543301D01*
X149852725Y-132770070D01*
X149852725Y-132779930D01*
X146677275Y-132779930D01*
X146677275Y-132770070D01*
X146659428Y-132543301D01*
X146657885Y-132533554D01*
X146604783Y-132312373D01*
X146601734Y-132302988D01*
X146514687Y-132092837D01*
X146510205Y-132084042D01*
X146407568Y-131916555D01*
X146397110Y-131907093D01*
X146388334Y-131910876D01*
X145537022Y-132762188D01*
X145529408Y-132776132D01*
X144799356Y-132776132D01*
X144800592Y-132773868D01*
X144800461Y-132772035D01*
X144796210Y-132765420D01*
X143944710Y-131913920D01*
X143932330Y-131907160D01*
X143924680Y-131912887D01*
X143819795Y-132084042D01*
X143815313Y-132092837D01*
X143728266Y-132302988D01*
X143725217Y-132312373D01*
X143672115Y-132533554D01*
X143670572Y-132543301D01*
X143652725Y-132770070D01*
X143652725Y-132779930D01*
X140177275Y-132779930D01*
X140177275Y-132770070D01*
X140159428Y-132543301D01*
X140157885Y-132533554D01*
X140104783Y-132312373D01*
X140101734Y-132302988D01*
X140014687Y-132092837D01*
X140010205Y-132084042D01*
X139907568Y-131916555D01*
X139897110Y-131907093D01*
X139888334Y-131910876D01*
X139037022Y-132762188D01*
X139029408Y-132776132D01*
X138362694Y-132776132D01*
X138365924Y-132730968D01*
X138394885Y-132685905D01*
X139526080Y-131554710D01*
X139532534Y-131542890D01*
X144297093Y-131542890D01*
X144300876Y-131551666D01*
X145152188Y-132402978D01*
X145166132Y-132410592D01*
X145167965Y-132410461D01*
X145174580Y-132406210D01*
X146026080Y-131554710D01*
X146032534Y-131542890D01*
X150497093Y-131542890D01*
X150500876Y-131551666D01*
X151352188Y-132402978D01*
X151366132Y-132410592D01*
X151367965Y-132410461D01*
X151374580Y-132406210D01*
X152226080Y-131554710D01*
X152232534Y-131542890D01*
X156997093Y-131542890D01*
X157000876Y-131551666D01*
X157852188Y-132402978D01*
X157866132Y-132410592D01*
X157867965Y-132410461D01*
X157874580Y-132406210D01*
X158726080Y-131554710D01*
X158732534Y-131542890D01*
X163197093Y-131542890D01*
X163200876Y-131551666D01*
X164052188Y-132402978D01*
X164066132Y-132410592D01*
X164067965Y-132410461D01*
X164074580Y-132406210D01*
X164926080Y-131554710D01*
X164932534Y-131542890D01*
X169697093Y-131542890D01*
X169700876Y-131551666D01*
X170552188Y-132402978D01*
X170566132Y-132410592D01*
X170567965Y-132410461D01*
X170574580Y-132406210D01*
X171426080Y-131554710D01*
X171432534Y-131542890D01*
X175897093Y-131542890D01*
X175900876Y-131551666D01*
X176752188Y-132402978D01*
X176766132Y-132410592D01*
X176767965Y-132410461D01*
X176774580Y-132406210D01*
X177626080Y-131554710D01*
X177632534Y-131542890D01*
X182397093Y-131542890D01*
X182400876Y-131551666D01*
X183252188Y-132402978D01*
X183266132Y-132410592D01*
X183267965Y-132410461D01*
X183274580Y-132406210D01*
X184126080Y-131554710D01*
X184132840Y-131542330D01*
X184127113Y-131534680D01*
X183955958Y-131429795D01*
X183947163Y-131425313D01*
X183737012Y-131338266D01*
X183727627Y-131335217D01*
X183506446Y-131282115D01*
X183496699Y-131280572D01*
X183269930Y-131262725D01*
X183260070Y-131262725D01*
X183033301Y-131280572D01*
X183023554Y-131282115D01*
X182802373Y-131335217D01*
X182792988Y-131338266D01*
X182582837Y-131425313D01*
X182574042Y-131429795D01*
X182406555Y-131532432D01*
X182397093Y-131542890D01*
X177632534Y-131542890D01*
X177632840Y-131542330D01*
X177627113Y-131534680D01*
X177455958Y-131429795D01*
X177447163Y-131425313D01*
X177237012Y-131338266D01*
X177227627Y-131335217D01*
X177006446Y-131282115D01*
X176996699Y-131280572D01*
X176769930Y-131262725D01*
X176760070Y-131262725D01*
X176533301Y-131280572D01*
X176523554Y-131282115D01*
X176302373Y-131335217D01*
X176292988Y-131338266D01*
X176082837Y-131425313D01*
X176074042Y-131429795D01*
X175906555Y-131532432D01*
X175897093Y-131542890D01*
X171432534Y-131542890D01*
X171432840Y-131542330D01*
X171427113Y-131534680D01*
X171255958Y-131429795D01*
X171247163Y-131425313D01*
X171037012Y-131338266D01*
X171027627Y-131335217D01*
X170806446Y-131282115D01*
X170796699Y-131280572D01*
X170569930Y-131262725D01*
X170560070Y-131262725D01*
X170333301Y-131280572D01*
X170323554Y-131282115D01*
X170102373Y-131335217D01*
X170092988Y-131338266D01*
X169882837Y-131425313D01*
X169874042Y-131429795D01*
X169706555Y-131532432D01*
X169697093Y-131542890D01*
X164932534Y-131542890D01*
X164932840Y-131542330D01*
X164927113Y-131534680D01*
X164755958Y-131429795D01*
X164747163Y-131425313D01*
X164537012Y-131338266D01*
X164527627Y-131335217D01*
X164306446Y-131282115D01*
X164296699Y-131280572D01*
X164069930Y-131262725D01*
X164060070Y-131262725D01*
X163833301Y-131280572D01*
X163823554Y-131282115D01*
X163602373Y-131335217D01*
X163592988Y-131338266D01*
X163382837Y-131425313D01*
X163374042Y-131429795D01*
X163206555Y-131532432D01*
X163197093Y-131542890D01*
X158732534Y-131542890D01*
X158732840Y-131542330D01*
X158727113Y-131534680D01*
X158555958Y-131429795D01*
X158547163Y-131425313D01*
X158337012Y-131338266D01*
X158327627Y-131335217D01*
X158106446Y-131282115D01*
X158096699Y-131280572D01*
X157869930Y-131262725D01*
X157860070Y-131262725D01*
X157633301Y-131280572D01*
X157623554Y-131282115D01*
X157402373Y-131335217D01*
X157392988Y-131338266D01*
X157182837Y-131425313D01*
X157174042Y-131429795D01*
X157006555Y-131532432D01*
X156997093Y-131542890D01*
X152232534Y-131542890D01*
X152232840Y-131542330D01*
X152227113Y-131534680D01*
X152055958Y-131429795D01*
X152047163Y-131425313D01*
X151837012Y-131338266D01*
X151827627Y-131335217D01*
X151606446Y-131282115D01*
X151596699Y-131280572D01*
X151369930Y-131262725D01*
X151360070Y-131262725D01*
X151133301Y-131280572D01*
X151123554Y-131282115D01*
X150902373Y-131335217D01*
X150892988Y-131338266D01*
X150682837Y-131425313D01*
X150674042Y-131429795D01*
X150506555Y-131532432D01*
X150497093Y-131542890D01*
X146032534Y-131542890D01*
X146032840Y-131542330D01*
X146027113Y-131534680D01*
X145855958Y-131429795D01*
X145847163Y-131425313D01*
X145637012Y-131338266D01*
X145627627Y-131335217D01*
X145406446Y-131282115D01*
X145396699Y-131280572D01*
X145169930Y-131262725D01*
X145160070Y-131262725D01*
X144933301Y-131280572D01*
X144923554Y-131282115D01*
X144702373Y-131335217D01*
X144692988Y-131338266D01*
X144482837Y-131425313D01*
X144474042Y-131429795D01*
X144306555Y-131532432D01*
X144297093Y-131542890D01*
X139532534Y-131542890D01*
X139532840Y-131542330D01*
X139527113Y-131534680D01*
X139355958Y-131429795D01*
X139347163Y-131425313D01*
X139137012Y-131338266D01*
X139127627Y-131335217D01*
X138906446Y-131282115D01*
X138896699Y-131280572D01*
X138669930Y-131262725D01*
X138660070Y-131262725D01*
X138433301Y-131280572D01*
X138423554Y-131282115D01*
X138202373Y-131335217D01*
X138192988Y-131338266D01*
X137982837Y-131425313D01*
X137974045Y-131429793D01*
X137960337Y-131438194D01*
X137891804Y-131456734D01*
X137824127Y-131435279D01*
X137778793Y-131380641D01*
X137768500Y-131330763D01*
X137768500Y-111748234D01*
X137769578Y-111731788D01*
X137772672Y-111708286D01*
X137773750Y-111700098D01*
X137768500Y-111660220D01*
X137768500Y-111660213D01*
X137766470Y-111644793D01*
X137753916Y-111549436D01*
X137752838Y-111541248D01*
X137691524Y-111393223D01*
X137681762Y-111380500D01*
X137646127Y-111334061D01*
X137646125Y-111334059D01*
X137633419Y-111317499D01*
X137618477Y-111298026D01*
X137618474Y-111298023D01*
X137613249Y-111291214D01*
X137599016Y-111272664D01*
X137599013Y-111272661D01*
X137593987Y-111266111D01*
X137587432Y-111261081D01*
X137568621Y-111246646D01*
X137556230Y-111235779D01*
X137338005Y-111017554D01*
X137303979Y-110955242D01*
X137301100Y-110928459D01*
X137301100Y-108271360D01*
X137321102Y-108203239D01*
X137374758Y-108156746D01*
X137445032Y-108146642D01*
X137509612Y-108176136D01*
X137526658Y-108194131D01*
X137530382Y-108198931D01*
X137534419Y-108205758D01*
X137548739Y-108220078D01*
X137561579Y-108235111D01*
X137573488Y-108251502D01*
X137598161Y-108271913D01*
X137607554Y-108279684D01*
X137616333Y-108287672D01*
X137924741Y-108596079D01*
X140855954Y-111527292D01*
X140863494Y-111535578D01*
X140867606Y-111542058D01*
X140873383Y-111547483D01*
X140917273Y-111588698D01*
X140920115Y-111591453D01*
X140939837Y-111611175D01*
X140942961Y-111613598D01*
X140942965Y-111613602D01*
X140943030Y-111613652D01*
X140952051Y-111621357D01*
X140984285Y-111651626D01*
X140991233Y-111655445D01*
X140991235Y-111655447D01*
X141002038Y-111661386D01*
X141018565Y-111672242D01*
X141028304Y-111679797D01*
X141028306Y-111679798D01*
X141034566Y-111684654D01*
X141075146Y-111702214D01*
X141085794Y-111707431D01*
X141110582Y-111721058D01*
X141124546Y-111728735D01*
X141132222Y-111730706D01*
X141132225Y-111730707D01*
X141144168Y-111733773D01*
X141162873Y-111740177D01*
X141181461Y-111748221D01*
X141189284Y-111749460D01*
X141189294Y-111749463D01*
X141225130Y-111755139D01*
X141236750Y-111757545D01*
X141268565Y-111765713D01*
X141279576Y-111768540D01*
X141299830Y-111768540D01*
X141319540Y-111770091D01*
X141339549Y-111773260D01*
X141347441Y-111772514D01*
X141366186Y-111770742D01*
X141383568Y-111769099D01*
X141395425Y-111768540D01*
X145307951Y-111768540D01*
X145319134Y-111769067D01*
X145326627Y-111770742D01*
X145334553Y-111770493D01*
X145334554Y-111770493D01*
X145394704Y-111768602D01*
X145398663Y-111768540D01*
X145426574Y-111768540D01*
X145430509Y-111768043D01*
X145430574Y-111768035D01*
X145442411Y-111767102D01*
X145474669Y-111766088D01*
X145478688Y-111765962D01*
X145486607Y-111765713D01*
X145506061Y-111760061D01*
X145525418Y-111756053D01*
X145537648Y-111754508D01*
X145537649Y-111754508D01*
X145545515Y-111753514D01*
X145552886Y-111750595D01*
X145552888Y-111750595D01*
X145586630Y-111737236D01*
X145597860Y-111733391D01*
X145632701Y-111723269D01*
X145632702Y-111723269D01*
X145640311Y-111721058D01*
X145647130Y-111717025D01*
X145647135Y-111717023D01*
X145657746Y-111710747D01*
X145675494Y-111702052D01*
X145694335Y-111694592D01*
X145730105Y-111668604D01*
X145740025Y-111662088D01*
X145771253Y-111643620D01*
X145771256Y-111643618D01*
X145778080Y-111639582D01*
X145792401Y-111625261D01*
X145807435Y-111612420D01*
X145809149Y-111611175D01*
X145823825Y-111600512D01*
X145852016Y-111566435D01*
X145860006Y-111557656D01*
X147094973Y-110322689D01*
X147157285Y-110288663D01*
X147197238Y-110286474D01*
X147306446Y-110297952D01*
X147306448Y-110297952D01*
X147312575Y-110298596D01*
X147402303Y-110290430D01*
X147513164Y-110280341D01*
X147513167Y-110280340D01*
X147519303Y-110279782D01*
X147525209Y-110278044D01*
X147525213Y-110278043D01*
X147691173Y-110229198D01*
X147718440Y-110221173D01*
X147772126Y-110193107D01*
X147841760Y-110179273D01*
X147907821Y-110205283D01*
X147949333Y-110262879D01*
X147956500Y-110304769D01*
X147956500Y-119301233D01*
X147955973Y-119312416D01*
X147954298Y-119319909D01*
X147954547Y-119327835D01*
X147954547Y-119327836D01*
X147956438Y-119387986D01*
X147956500Y-119391945D01*
X147956500Y-119419856D01*
X147956997Y-119423790D01*
X147956997Y-119423791D01*
X147957005Y-119423856D01*
X147957938Y-119435693D01*
X147959327Y-119479889D01*
X147964978Y-119499339D01*
X147968987Y-119518700D01*
X147971526Y-119538797D01*
X147974445Y-119546168D01*
X147974445Y-119546170D01*
X147987804Y-119579912D01*
X147991649Y-119591142D01*
X148003982Y-119633593D01*
X148008015Y-119640412D01*
X148008017Y-119640417D01*
X148014293Y-119651028D01*
X148022988Y-119668776D01*
X148030448Y-119687617D01*
X148035110Y-119694033D01*
X148035110Y-119694034D01*
X148056436Y-119723387D01*
X148062952Y-119733307D01*
X148085458Y-119771362D01*
X148099779Y-119785683D01*
X148112619Y-119800716D01*
X148124528Y-119817107D01*
X148130634Y-119822158D01*
X148158605Y-119845298D01*
X148167384Y-119853288D01*
X152722878Y-124408783D01*
X152756904Y-124471095D01*
X152759093Y-124484706D01*
X152776458Y-124649928D01*
X152835473Y-124831556D01*
X152930960Y-124996944D01*
X153058747Y-125138866D01*
X153213248Y-125251118D01*
X153219276Y-125253802D01*
X153219278Y-125253803D01*
X153338193Y-125306747D01*
X153387712Y-125328794D01*
X153477062Y-125347786D01*
X153568056Y-125367128D01*
X153568061Y-125367128D01*
X153574513Y-125368500D01*
X153630406Y-125368500D01*
X153698527Y-125388502D01*
X153719501Y-125405405D01*
X156468343Y-128154247D01*
X156475887Y-128162537D01*
X156480000Y-128169018D01*
X156485777Y-128174443D01*
X156529667Y-128215658D01*
X156532509Y-128218413D01*
X156552230Y-128238134D01*
X156555425Y-128240612D01*
X156564447Y-128248318D01*
X156596679Y-128278586D01*
X156603628Y-128282406D01*
X156614432Y-128288346D01*
X156630956Y-128299199D01*
X156646959Y-128311613D01*
X156687543Y-128329176D01*
X156698173Y-128334383D01*
X156736940Y-128355695D01*
X156744617Y-128357666D01*
X156744622Y-128357668D01*
X156756558Y-128360732D01*
X156775266Y-128367137D01*
X156793855Y-128375181D01*
X156801683Y-128376421D01*
X156801690Y-128376423D01*
X156837524Y-128382099D01*
X156849144Y-128384505D01*
X156884289Y-128393528D01*
X156891970Y-128395500D01*
X156912224Y-128395500D01*
X156931934Y-128397051D01*
X156951943Y-128400220D01*
X156959835Y-128399474D01*
X156995961Y-128396059D01*
X157007819Y-128395500D01*
X168201800Y-128395500D01*
X168269921Y-128415502D01*
X168289147Y-128431843D01*
X168289420Y-128431540D01*
X168294332Y-128435963D01*
X168298747Y-128440866D01*
X168453248Y-128553118D01*
X168459276Y-128555802D01*
X168459278Y-128555803D01*
X168621681Y-128628109D01*
X168627712Y-128630794D01*
X168721113Y-128650647D01*
X168808056Y-128669128D01*
X168808061Y-128669128D01*
X168814513Y-128670500D01*
X169005487Y-128670500D01*
X169011939Y-128669128D01*
X169011944Y-128669128D01*
X169098887Y-128650647D01*
X169192288Y-128630794D01*
X169198319Y-128628109D01*
X169360722Y-128555803D01*
X169360724Y-128555802D01*
X169366752Y-128553118D01*
X169521253Y-128440866D01*
X169525668Y-128435963D01*
X169530580Y-128431540D01*
X169531705Y-128432789D01*
X169585014Y-128399949D01*
X169618200Y-128395500D01*
X173027800Y-128395500D01*
X173095921Y-128415502D01*
X173115147Y-128431843D01*
X173115420Y-128431540D01*
X173120332Y-128435963D01*
X173124747Y-128440866D01*
X173279248Y-128553118D01*
X173285276Y-128555802D01*
X173285278Y-128555803D01*
X173447681Y-128628109D01*
X173453712Y-128630794D01*
X173547113Y-128650647D01*
X173634056Y-128669128D01*
X173634061Y-128669128D01*
X173640513Y-128670500D01*
X173831487Y-128670500D01*
X173837939Y-128669128D01*
X173837944Y-128669128D01*
X173924887Y-128650647D01*
X174018288Y-128630794D01*
X174024319Y-128628109D01*
X174186722Y-128555803D01*
X174186724Y-128555802D01*
X174192752Y-128553118D01*
X174347253Y-128440866D01*
X174384095Y-128399949D01*
X174470621Y-128303852D01*
X174470622Y-128303851D01*
X174475040Y-128298944D01*
X174550053Y-128169018D01*
X174567223Y-128139279D01*
X174567224Y-128139278D01*
X174570527Y-128133556D01*
X174629542Y-127951928D01*
X174649504Y-127762000D01*
X174629542Y-127572072D01*
X174570527Y-127390444D01*
X174475040Y-127225056D01*
X174363287Y-127100941D01*
X174351675Y-127088045D01*
X174351674Y-127088044D01*
X174347253Y-127083134D01*
X174192752Y-126970882D01*
X174186724Y-126968198D01*
X174186722Y-126968197D01*
X174024319Y-126895891D01*
X174024318Y-126895891D01*
X174018288Y-126893206D01*
X173924888Y-126873353D01*
X173837944Y-126854872D01*
X173837939Y-126854872D01*
X173831487Y-126853500D01*
X173640513Y-126853500D01*
X173634061Y-126854872D01*
X173634056Y-126854872D01*
X173547112Y-126873353D01*
X173453712Y-126893206D01*
X173447682Y-126895891D01*
X173447681Y-126895891D01*
X173285278Y-126968197D01*
X173285276Y-126968198D01*
X173279248Y-126970882D01*
X173124747Y-127083134D01*
X173120332Y-127088037D01*
X173115420Y-127092460D01*
X173114295Y-127091211D01*
X173060986Y-127124051D01*
X173027800Y-127128500D01*
X169618200Y-127128500D01*
X169550079Y-127108498D01*
X169530853Y-127092157D01*
X169530580Y-127092460D01*
X169525668Y-127088037D01*
X169521253Y-127083134D01*
X169366752Y-126970882D01*
X169360724Y-126968198D01*
X169360722Y-126968197D01*
X169198319Y-126895891D01*
X169198318Y-126895891D01*
X169192288Y-126893206D01*
X169098888Y-126873353D01*
X169011944Y-126854872D01*
X169011939Y-126854872D01*
X169005487Y-126853500D01*
X168814513Y-126853500D01*
X168808061Y-126854872D01*
X168808056Y-126854872D01*
X168721112Y-126873353D01*
X168627712Y-126893206D01*
X168621682Y-126895891D01*
X168621681Y-126895891D01*
X168459278Y-126968197D01*
X168459276Y-126968198D01*
X168453248Y-126970882D01*
X168298747Y-127083134D01*
X168294332Y-127088037D01*
X168289420Y-127092460D01*
X168288295Y-127091211D01*
X168234986Y-127124051D01*
X168201800Y-127128500D01*
X157286595Y-127128500D01*
X157218474Y-127108498D01*
X157197500Y-127091595D01*
X154617122Y-124511217D01*
X154583096Y-124448905D01*
X154580907Y-124435292D01*
X154564232Y-124276635D01*
X154564232Y-124276633D01*
X154563542Y-124270072D01*
X154504527Y-124088444D01*
X154409040Y-123923056D01*
X154281253Y-123781134D01*
X154126752Y-123668882D01*
X154120724Y-123666198D01*
X154120722Y-123666197D01*
X153958319Y-123593891D01*
X153958318Y-123593891D01*
X153952288Y-123591206D01*
X153858888Y-123571353D01*
X153771944Y-123552872D01*
X153771939Y-123552872D01*
X153765487Y-123551500D01*
X153709594Y-123551500D01*
X153641473Y-123531498D01*
X153620499Y-123514595D01*
X149260405Y-119154500D01*
X149226379Y-119092188D01*
X149223500Y-119065405D01*
X149223500Y-117099669D01*
X170727001Y-117099669D01*
X170727371Y-117106490D01*
X170732895Y-117157352D01*
X170736521Y-117172604D01*
X170781676Y-117293054D01*
X170790214Y-117308649D01*
X170866715Y-117410724D01*
X170879276Y-117423285D01*
X170981351Y-117499786D01*
X170996946Y-117508324D01*
X171117394Y-117553478D01*
X171132649Y-117557105D01*
X171183514Y-117562631D01*
X171190328Y-117563000D01*
X171812885Y-117563000D01*
X171828124Y-117558525D01*
X171829329Y-117557135D01*
X171831000Y-117549452D01*
X171831000Y-116477115D01*
X171826525Y-116461876D01*
X171825135Y-116460671D01*
X171817452Y-116459000D01*
X170745116Y-116459000D01*
X170729877Y-116463475D01*
X170728672Y-116464865D01*
X170727001Y-116472548D01*
X170727001Y-117099669D01*
X149223500Y-117099669D01*
X149223500Y-111035352D01*
X149243502Y-110967231D01*
X149297158Y-110920738D01*
X149367432Y-110910634D01*
X149432012Y-110940128D01*
X149438593Y-110946255D01*
X150168872Y-111676535D01*
X150898590Y-112406253D01*
X150906130Y-112414539D01*
X150910242Y-112421018D01*
X150916019Y-112426443D01*
X150959893Y-112467643D01*
X150962735Y-112470398D01*
X150982472Y-112490135D01*
X150985669Y-112492615D01*
X150994689Y-112500318D01*
X151026921Y-112530586D01*
X151033867Y-112534405D01*
X151033870Y-112534407D01*
X151044676Y-112540348D01*
X151061195Y-112551199D01*
X151077201Y-112563614D01*
X151084470Y-112566759D01*
X151084474Y-112566762D01*
X151117779Y-112581174D01*
X151128429Y-112586391D01*
X151167182Y-112607695D01*
X151174857Y-112609666D01*
X151174858Y-112609666D01*
X151186804Y-112612733D01*
X151205509Y-112619137D01*
X151224097Y-112627181D01*
X151231920Y-112628420D01*
X151231930Y-112628423D01*
X151267766Y-112634099D01*
X151279386Y-112636505D01*
X151302854Y-112642530D01*
X151322212Y-112647500D01*
X151342466Y-112647500D01*
X151362176Y-112649051D01*
X151382185Y-112652220D01*
X151390077Y-112651474D01*
X151426203Y-112648059D01*
X151438061Y-112647500D01*
X165764016Y-112647500D01*
X165815264Y-112658393D01*
X165895834Y-112694265D01*
X165895837Y-112694266D01*
X165901870Y-112696952D01*
X165943498Y-112705800D01*
X166082214Y-112735286D01*
X166082219Y-112735286D01*
X166088671Y-112736658D01*
X166279645Y-112736658D01*
X166286097Y-112735286D01*
X166286102Y-112735286D01*
X166373045Y-112716805D01*
X166466446Y-112696952D01*
X166472481Y-112694265D01*
X166634880Y-112621961D01*
X166634882Y-112621960D01*
X166640910Y-112619276D01*
X166646522Y-112615199D01*
X166723033Y-112559610D01*
X166795411Y-112507024D01*
X166803126Y-112498456D01*
X166918779Y-112370010D01*
X166918780Y-112370009D01*
X166923198Y-112365102D01*
X167018685Y-112199714D01*
X167077700Y-112018086D01*
X167090154Y-111899598D01*
X167096972Y-111834723D01*
X167097662Y-111828158D01*
X167091455Y-111769099D01*
X167078390Y-111644793D01*
X167078390Y-111644791D01*
X167077700Y-111638230D01*
X167018685Y-111456602D01*
X166923198Y-111291214D01*
X166795411Y-111149292D01*
X166640910Y-111037040D01*
X166634882Y-111034356D01*
X166634880Y-111034355D01*
X166472477Y-110962049D01*
X166472476Y-110962049D01*
X166466446Y-110959364D01*
X166373045Y-110939511D01*
X166286102Y-110921030D01*
X166286097Y-110921030D01*
X166279645Y-110919658D01*
X166088671Y-110919658D01*
X166082219Y-110921030D01*
X166082214Y-110921030D01*
X165995270Y-110939511D01*
X165901870Y-110959364D01*
X165895840Y-110962049D01*
X165895839Y-110962049D01*
X165733436Y-111034355D01*
X165733434Y-111034356D01*
X165727406Y-111037040D01*
X165572905Y-111149292D01*
X165445118Y-111291214D01*
X165429942Y-111317500D01*
X165378560Y-111366493D01*
X165320823Y-111380500D01*
X151716836Y-111380500D01*
X151648715Y-111360498D01*
X151627745Y-111343599D01*
X150761863Y-110477717D01*
X150727839Y-110415406D01*
X150732904Y-110344590D01*
X150775451Y-110287755D01*
X150841971Y-110262944D01*
X150888216Y-110268257D01*
X150916129Y-110276898D01*
X150922254Y-110277542D01*
X150922255Y-110277542D01*
X151116446Y-110297952D01*
X151116448Y-110297952D01*
X151122575Y-110298596D01*
X151212303Y-110290430D01*
X151323164Y-110280341D01*
X151323167Y-110280340D01*
X151329303Y-110279782D01*
X151335209Y-110278044D01*
X151335213Y-110278043D01*
X151501173Y-110229198D01*
X151528440Y-110221173D01*
X151608587Y-110179273D01*
X151707953Y-110127326D01*
X151777588Y-110113492D01*
X151826256Y-110128152D01*
X151858918Y-110145812D01*
X151987830Y-110215514D01*
X152186129Y-110276898D01*
X152192254Y-110277542D01*
X152192255Y-110277542D01*
X152386446Y-110297952D01*
X152386448Y-110297952D01*
X152392575Y-110298596D01*
X152482303Y-110290430D01*
X152593164Y-110280341D01*
X152593167Y-110280340D01*
X152599303Y-110279782D01*
X152605209Y-110278044D01*
X152605213Y-110278043D01*
X152771173Y-110229198D01*
X152798440Y-110221173D01*
X152878587Y-110179273D01*
X152977953Y-110127326D01*
X153047588Y-110113492D01*
X153096256Y-110128152D01*
X153128918Y-110145812D01*
X153257830Y-110215514D01*
X153456129Y-110276898D01*
X153462254Y-110277542D01*
X153462255Y-110277542D01*
X153656446Y-110297952D01*
X153656448Y-110297952D01*
X153662575Y-110298596D01*
X153752303Y-110290430D01*
X153863164Y-110280341D01*
X153863167Y-110280340D01*
X153869303Y-110279782D01*
X153875209Y-110278044D01*
X153875213Y-110278043D01*
X154041173Y-110229198D01*
X154068440Y-110221173D01*
X154148587Y-110179273D01*
X154247953Y-110127326D01*
X154317588Y-110113492D01*
X154366256Y-110128152D01*
X154398918Y-110145812D01*
X154527830Y-110215514D01*
X154726129Y-110276898D01*
X154732254Y-110277542D01*
X154732255Y-110277542D01*
X154926446Y-110297952D01*
X154926448Y-110297952D01*
X154932575Y-110298596D01*
X155022303Y-110290430D01*
X155133164Y-110280341D01*
X155133167Y-110280340D01*
X155139303Y-110279782D01*
X155145209Y-110278044D01*
X155145213Y-110278043D01*
X155311173Y-110229198D01*
X155338440Y-110221173D01*
X155418587Y-110179273D01*
X155517953Y-110127326D01*
X155587588Y-110113492D01*
X155636256Y-110128152D01*
X155668918Y-110145812D01*
X155797830Y-110215514D01*
X155996129Y-110276898D01*
X156002254Y-110277542D01*
X156002255Y-110277542D01*
X156196446Y-110297952D01*
X156196448Y-110297952D01*
X156202575Y-110298596D01*
X156292303Y-110290430D01*
X156403164Y-110280341D01*
X156403167Y-110280340D01*
X156409303Y-110279782D01*
X156415209Y-110278044D01*
X156415213Y-110278043D01*
X156581173Y-110229198D01*
X156608440Y-110221173D01*
X156688587Y-110179273D01*
X156787953Y-110127326D01*
X156857588Y-110113492D01*
X156906256Y-110128152D01*
X156938918Y-110145812D01*
X157067830Y-110215514D01*
X157266129Y-110276898D01*
X157272254Y-110277542D01*
X157272255Y-110277542D01*
X157466446Y-110297952D01*
X157466448Y-110297952D01*
X157472575Y-110298596D01*
X157562303Y-110290430D01*
X157673164Y-110280341D01*
X157673167Y-110280340D01*
X157679303Y-110279782D01*
X157685209Y-110278044D01*
X157685213Y-110278043D01*
X157851173Y-110229198D01*
X157878440Y-110221173D01*
X157958587Y-110179273D01*
X158057953Y-110127326D01*
X158127588Y-110113492D01*
X158176256Y-110128152D01*
X158208918Y-110145812D01*
X158337830Y-110215514D01*
X158536129Y-110276898D01*
X158542254Y-110277542D01*
X158542255Y-110277542D01*
X158736446Y-110297952D01*
X158736448Y-110297952D01*
X158742575Y-110298596D01*
X158832303Y-110290430D01*
X158943164Y-110280341D01*
X158943167Y-110280340D01*
X158949303Y-110279782D01*
X158955209Y-110278044D01*
X158955213Y-110278043D01*
X159121173Y-110229198D01*
X159148440Y-110221173D01*
X159228587Y-110179273D01*
X159327953Y-110127326D01*
X159397588Y-110113492D01*
X159446256Y-110128152D01*
X159478918Y-110145812D01*
X159607830Y-110215514D01*
X159806129Y-110276898D01*
X159812254Y-110277542D01*
X159812255Y-110277542D01*
X160006446Y-110297952D01*
X160006448Y-110297952D01*
X160012575Y-110298596D01*
X160102303Y-110290430D01*
X160213164Y-110280341D01*
X160213167Y-110280340D01*
X160219303Y-110279782D01*
X160225209Y-110278044D01*
X160225213Y-110278043D01*
X160391173Y-110229198D01*
X160418440Y-110221173D01*
X160575437Y-110139097D01*
X160596107Y-110128291D01*
X160665742Y-110114457D01*
X160722883Y-110134765D01*
X160723325Y-110135130D01*
X160897299Y-110229198D01*
X161086232Y-110287682D01*
X161092357Y-110288326D01*
X161092358Y-110288326D01*
X161276796Y-110307711D01*
X161276798Y-110307711D01*
X161282925Y-110308355D01*
X161390159Y-110298596D01*
X161473749Y-110290989D01*
X161473752Y-110290988D01*
X161479888Y-110290430D01*
X161485794Y-110288692D01*
X161485798Y-110288691D01*
X161590924Y-110257751D01*
X161669619Y-110234590D01*
X161675077Y-110231737D01*
X161675081Y-110231735D01*
X161775430Y-110179273D01*
X161844890Y-110142960D01*
X161849690Y-110139100D01*
X161854847Y-110135726D01*
X161856231Y-110137842D01*
X161911635Y-110114973D01*
X161981488Y-110127666D01*
X161991102Y-110133291D01*
X161993325Y-110135130D01*
X162167299Y-110229198D01*
X162356232Y-110287682D01*
X162362357Y-110288326D01*
X162362358Y-110288326D01*
X162546796Y-110307711D01*
X162546798Y-110307711D01*
X162552925Y-110308355D01*
X162660159Y-110298596D01*
X162743749Y-110290989D01*
X162743752Y-110290988D01*
X162749888Y-110290430D01*
X162755794Y-110288692D01*
X162755798Y-110288691D01*
X162860924Y-110257751D01*
X162939619Y-110234590D01*
X162945077Y-110231737D01*
X162945081Y-110231735D01*
X163045430Y-110179273D01*
X163114890Y-110142960D01*
X163269025Y-110019032D01*
X163396154Y-109867526D01*
X163399121Y-109862128D01*
X163399125Y-109862123D01*
X163488467Y-109699608D01*
X163491433Y-109694213D01*
X163515770Y-109617495D01*
X163549373Y-109511564D01*
X163549373Y-109511563D01*
X163551235Y-109505694D01*
X163568500Y-109351773D01*
X163568500Y-108245231D01*
X163567777Y-108237852D01*
X163556219Y-108119982D01*
X163554080Y-108098167D01*
X163542941Y-108061271D01*
X163498697Y-107914731D01*
X163496916Y-107908831D01*
X163404066Y-107734204D01*
X163333709Y-107647938D01*
X163282960Y-107585713D01*
X163282957Y-107585710D01*
X163279065Y-107580938D01*
X163271973Y-107575071D01*
X163131425Y-107458799D01*
X163131421Y-107458797D01*
X163126675Y-107454870D01*
X162952701Y-107360802D01*
X162763768Y-107302318D01*
X162757643Y-107301674D01*
X162757642Y-107301674D01*
X162573204Y-107282289D01*
X162573202Y-107282289D01*
X162567075Y-107281645D01*
X162484576Y-107289153D01*
X162376251Y-107299011D01*
X162376248Y-107299012D01*
X162370112Y-107299570D01*
X162364206Y-107301308D01*
X162364202Y-107301309D01*
X162280469Y-107325953D01*
X162180381Y-107355410D01*
X162174923Y-107358263D01*
X162174919Y-107358265D01*
X162085316Y-107405109D01*
X162005110Y-107447040D01*
X162000310Y-107450900D01*
X161995153Y-107454274D01*
X161993769Y-107452158D01*
X161938365Y-107475027D01*
X161868512Y-107462334D01*
X161858898Y-107456709D01*
X161856675Y-107454870D01*
X161682701Y-107360802D01*
X161493768Y-107302318D01*
X161487643Y-107301674D01*
X161487642Y-107301674D01*
X161303204Y-107282289D01*
X161303202Y-107282289D01*
X161297075Y-107281645D01*
X161214576Y-107289153D01*
X161106251Y-107299011D01*
X161106248Y-107299012D01*
X161100112Y-107299570D01*
X161094206Y-107301308D01*
X161094202Y-107301309D01*
X161010469Y-107325953D01*
X160910381Y-107355410D01*
X160904923Y-107358263D01*
X160904919Y-107358265D01*
X160745041Y-107441848D01*
X160735110Y-107447040D01*
X160734824Y-107446494D01*
X160671001Y-107465812D01*
X160610028Y-107450653D01*
X160432170Y-107354486D01*
X160233871Y-107293102D01*
X160227746Y-107292458D01*
X160227745Y-107292458D01*
X160033554Y-107272048D01*
X160033552Y-107272048D01*
X160027425Y-107271404D01*
X159941515Y-107279223D01*
X159826836Y-107289659D01*
X159826833Y-107289660D01*
X159820697Y-107290218D01*
X159814791Y-107291956D01*
X159814787Y-107291957D01*
X159702677Y-107324953D01*
X159621560Y-107348827D01*
X159574241Y-107373565D01*
X159442047Y-107442674D01*
X159372412Y-107456508D01*
X159323744Y-107441848D01*
X159173851Y-107360802D01*
X159162170Y-107354486D01*
X158963871Y-107293102D01*
X158957746Y-107292458D01*
X158957745Y-107292458D01*
X158763554Y-107272048D01*
X158763552Y-107272048D01*
X158757425Y-107271404D01*
X158671515Y-107279223D01*
X158556836Y-107289659D01*
X158556833Y-107289660D01*
X158550697Y-107290218D01*
X158544791Y-107291956D01*
X158544787Y-107291957D01*
X158432677Y-107324953D01*
X158351560Y-107348827D01*
X158304241Y-107373565D01*
X158172047Y-107442674D01*
X158102412Y-107456508D01*
X158053744Y-107441848D01*
X157903851Y-107360802D01*
X157892170Y-107354486D01*
X157693871Y-107293102D01*
X157687746Y-107292458D01*
X157687745Y-107292458D01*
X157493554Y-107272048D01*
X157493552Y-107272048D01*
X157487425Y-107271404D01*
X157401515Y-107279223D01*
X157286836Y-107289659D01*
X157286833Y-107289660D01*
X157280697Y-107290218D01*
X157274791Y-107291956D01*
X157274787Y-107291957D01*
X157162677Y-107324953D01*
X157081560Y-107348827D01*
X157034241Y-107373565D01*
X156902047Y-107442674D01*
X156832412Y-107456508D01*
X156783744Y-107441848D01*
X156633851Y-107360802D01*
X156622170Y-107354486D01*
X156423871Y-107293102D01*
X156417746Y-107292458D01*
X156417745Y-107292458D01*
X156223554Y-107272048D01*
X156223552Y-107272048D01*
X156217425Y-107271404D01*
X156131515Y-107279223D01*
X156016836Y-107289659D01*
X156016833Y-107289660D01*
X156010697Y-107290218D01*
X156004791Y-107291956D01*
X156004787Y-107291957D01*
X155892677Y-107324953D01*
X155811560Y-107348827D01*
X155764241Y-107373565D01*
X155632047Y-107442674D01*
X155562412Y-107456508D01*
X155513744Y-107441848D01*
X155363851Y-107360802D01*
X155352170Y-107354486D01*
X155153871Y-107293102D01*
X155147746Y-107292458D01*
X155147745Y-107292458D01*
X154953554Y-107272048D01*
X154953552Y-107272048D01*
X154947425Y-107271404D01*
X154861515Y-107279223D01*
X154746836Y-107289659D01*
X154746833Y-107289660D01*
X154740697Y-107290218D01*
X154734791Y-107291956D01*
X154734787Y-107291957D01*
X154622677Y-107324953D01*
X154541560Y-107348827D01*
X154494241Y-107373565D01*
X154362047Y-107442674D01*
X154292412Y-107456508D01*
X154243744Y-107441848D01*
X154093851Y-107360802D01*
X154082170Y-107354486D01*
X153883871Y-107293102D01*
X153877746Y-107292458D01*
X153877745Y-107292458D01*
X153683554Y-107272048D01*
X153683552Y-107272048D01*
X153677425Y-107271404D01*
X153591515Y-107279223D01*
X153476836Y-107289659D01*
X153476833Y-107289660D01*
X153470697Y-107290218D01*
X153464791Y-107291956D01*
X153464787Y-107291957D01*
X153352677Y-107324953D01*
X153271560Y-107348827D01*
X153224241Y-107373565D01*
X153092047Y-107442674D01*
X153022412Y-107456508D01*
X152973744Y-107441848D01*
X152823851Y-107360802D01*
X152812170Y-107354486D01*
X152613871Y-107293102D01*
X152607746Y-107292458D01*
X152607745Y-107292458D01*
X152413554Y-107272048D01*
X152413552Y-107272048D01*
X152407425Y-107271404D01*
X152321515Y-107279223D01*
X152206836Y-107289659D01*
X152206833Y-107289660D01*
X152200697Y-107290218D01*
X152194791Y-107291956D01*
X152194787Y-107291957D01*
X152082677Y-107324953D01*
X152001560Y-107348827D01*
X151954241Y-107373565D01*
X151822047Y-107442674D01*
X151752412Y-107456508D01*
X151703744Y-107441848D01*
X151553851Y-107360802D01*
X151542170Y-107354486D01*
X151343871Y-107293102D01*
X151337746Y-107292458D01*
X151337745Y-107292458D01*
X151143554Y-107272048D01*
X151143552Y-107272048D01*
X151137425Y-107271404D01*
X151051515Y-107279223D01*
X150936836Y-107289659D01*
X150936833Y-107289660D01*
X150930697Y-107290218D01*
X150924791Y-107291956D01*
X150924787Y-107291957D01*
X150812677Y-107324953D01*
X150731560Y-107348827D01*
X150552048Y-107442674D01*
X150551512Y-107442954D01*
X150481877Y-107456788D01*
X150433209Y-107442128D01*
X150277393Y-107357879D01*
X150266093Y-107353129D01*
X150131307Y-107311405D01*
X150117205Y-107311199D01*
X150114000Y-107317955D01*
X150114000Y-108017503D01*
X150108102Y-108055601D01*
X150089621Y-108113861D01*
X150088935Y-108119978D01*
X150088934Y-108119982D01*
X150084155Y-108162588D01*
X150071500Y-108275413D01*
X150071500Y-108913000D01*
X150051498Y-108981121D01*
X149997842Y-109027614D01*
X149945500Y-109039000D01*
X149774500Y-109039000D01*
X149706379Y-109018998D01*
X149659886Y-108965342D01*
X149648500Y-108913000D01*
X149648500Y-108282763D01*
X149647780Y-108275413D01*
X149633966Y-108134534D01*
X149633965Y-108134531D01*
X149633365Y-108128408D01*
X149614065Y-108064483D01*
X149611378Y-108055582D01*
X149606000Y-108019165D01*
X149606000Y-107324953D01*
X149602027Y-107311422D01*
X149594232Y-107310302D01*
X149467658Y-107347554D01*
X149456290Y-107352147D01*
X149282578Y-107442961D01*
X149212942Y-107456795D01*
X149164275Y-107442135D01*
X149013851Y-107360802D01*
X149002170Y-107354486D01*
X148803871Y-107293102D01*
X148797746Y-107292458D01*
X148797745Y-107292458D01*
X148603554Y-107272048D01*
X148603552Y-107272048D01*
X148597425Y-107271404D01*
X148511515Y-107279223D01*
X148396836Y-107289659D01*
X148396833Y-107289660D01*
X148390697Y-107290218D01*
X148384791Y-107291956D01*
X148384787Y-107291957D01*
X148272677Y-107324953D01*
X148191560Y-107348827D01*
X148144241Y-107373565D01*
X148012047Y-107442674D01*
X147942412Y-107456508D01*
X147893744Y-107441848D01*
X147743851Y-107360802D01*
X147732170Y-107354486D01*
X147533871Y-107293102D01*
X147527746Y-107292458D01*
X147527745Y-107292458D01*
X147333554Y-107272048D01*
X147333552Y-107272048D01*
X147327425Y-107271404D01*
X147241515Y-107279223D01*
X147126836Y-107289659D01*
X147126833Y-107289660D01*
X147120697Y-107290218D01*
X147114791Y-107291956D01*
X147114787Y-107291957D01*
X147002677Y-107324953D01*
X146921560Y-107348827D01*
X146874241Y-107373565D01*
X146742047Y-107442674D01*
X146672412Y-107456508D01*
X146623744Y-107441848D01*
X146473851Y-107360802D01*
X146462170Y-107354486D01*
X146263871Y-107293102D01*
X146257746Y-107292458D01*
X146257745Y-107292458D01*
X146063554Y-107272048D01*
X146063552Y-107272048D01*
X146057425Y-107271404D01*
X145971515Y-107279223D01*
X145856836Y-107289659D01*
X145856833Y-107289660D01*
X145850697Y-107290218D01*
X145844791Y-107291956D01*
X145844787Y-107291957D01*
X145732677Y-107324953D01*
X145651560Y-107348827D01*
X145604241Y-107373565D01*
X145472047Y-107442674D01*
X145402412Y-107456508D01*
X145353744Y-107441848D01*
X145203851Y-107360802D01*
X145192170Y-107354486D01*
X144993871Y-107293102D01*
X144987746Y-107292458D01*
X144987745Y-107292458D01*
X144793554Y-107272048D01*
X144793552Y-107272048D01*
X144787425Y-107271404D01*
X144701515Y-107279223D01*
X144586836Y-107289659D01*
X144586833Y-107289660D01*
X144580697Y-107290218D01*
X144574791Y-107291956D01*
X144574787Y-107291957D01*
X144417208Y-107338335D01*
X144346211Y-107338380D01*
X144286461Y-107300034D01*
X144256927Y-107235472D01*
X144266986Y-107165191D01*
X144292538Y-107128366D01*
X150151758Y-101269146D01*
X150160048Y-101261602D01*
X150166529Y-101257489D01*
X150213170Y-101207821D01*
X150215924Y-101204980D01*
X150235645Y-101185259D01*
X150238123Y-101182064D01*
X150245829Y-101173042D01*
X150270669Y-101146590D01*
X150276097Y-101140810D01*
X150285857Y-101123057D01*
X150296710Y-101106534D01*
X150304264Y-101096795D01*
X150309124Y-101090530D01*
X150326687Y-101049946D01*
X150331894Y-101039316D01*
X150353206Y-101000549D01*
X150355177Y-100992872D01*
X150355179Y-100992867D01*
X150358243Y-100980931D01*
X150364649Y-100962219D01*
X150369545Y-100950906D01*
X150372692Y-100943634D01*
X150379608Y-100899970D01*
X150382015Y-100888349D01*
X150391039Y-100853200D01*
X150391039Y-100853199D01*
X150393011Y-100845519D01*
X150393011Y-100825258D01*
X150394562Y-100805547D01*
X150396490Y-100793374D01*
X150397730Y-100785546D01*
X150393570Y-100741535D01*
X150393011Y-100729678D01*
X150393011Y-86193725D01*
X150413013Y-86125604D01*
X150466669Y-86079111D01*
X150536943Y-86069007D01*
X150563961Y-86076015D01*
X150744692Y-86145030D01*
X150749760Y-86146061D01*
X150749763Y-86146062D01*
X150836831Y-86163776D01*
X150963597Y-86189567D01*
X150968772Y-86189757D01*
X150968774Y-86189757D01*
X151181673Y-86197564D01*
X151181677Y-86197564D01*
X151186837Y-86197753D01*
X151191957Y-86197097D01*
X151191959Y-86197097D01*
X151403288Y-86170025D01*
X151403289Y-86170025D01*
X151408416Y-86169368D01*
X151413376Y-86167880D01*
X151617429Y-86106661D01*
X151617434Y-86106659D01*
X151622384Y-86105174D01*
X151822994Y-86006896D01*
X151936938Y-85925621D01*
X152004011Y-85902347D01*
X152073020Y-85919031D01*
G37*
%TD.AperFunction*%
%TA.AperFunction,Conductor*%
G36*
X168677532Y-103404736D02*
G01*
X168684115Y-103410865D01*
X173954595Y-108681345D01*
X173988621Y-108743657D01*
X173991500Y-108770440D01*
X173991500Y-112386692D01*
X173971498Y-112454813D01*
X173923683Y-112498453D01*
X173898607Y-112511507D01*
X173894474Y-112514610D01*
X173894471Y-112514612D01*
X173732125Y-112636505D01*
X173719965Y-112645635D01*
X173716393Y-112649373D01*
X173587065Y-112784707D01*
X173565629Y-112807138D01*
X173458201Y-112964621D01*
X173403293Y-113009621D01*
X173332768Y-113017792D01*
X173269021Y-112986538D01*
X173248324Y-112962054D01*
X173167822Y-112837617D01*
X173167820Y-112837614D01*
X173165014Y-112833277D01*
X173014670Y-112668051D01*
X173010619Y-112664852D01*
X173010615Y-112664848D01*
X172843414Y-112532800D01*
X172843410Y-112532798D01*
X172839359Y-112529598D01*
X172834831Y-112527098D01*
X172772263Y-112492559D01*
X172643789Y-112421638D01*
X172638920Y-112419914D01*
X172638916Y-112419912D01*
X172438087Y-112348795D01*
X172438083Y-112348794D01*
X172433212Y-112347069D01*
X172428119Y-112346162D01*
X172428116Y-112346161D01*
X172218373Y-112308800D01*
X172218367Y-112308799D01*
X172213284Y-112307894D01*
X172139452Y-112306992D01*
X171995081Y-112305228D01*
X171995079Y-112305228D01*
X171989911Y-112305165D01*
X171769091Y-112338955D01*
X171756532Y-112343060D01*
X171685568Y-112345210D01*
X171628294Y-112312389D01*
X168056405Y-108740500D01*
X168022379Y-108678188D01*
X168019500Y-108651405D01*
X168019500Y-107900754D01*
X168039502Y-107832633D01*
X168093158Y-107786140D01*
X168163432Y-107776036D01*
X168228012Y-107805530D01*
X168266396Y-107865256D01*
X168268746Y-107874556D01*
X168269768Y-107879364D01*
X168270458Y-107885928D01*
X168329473Y-108067556D01*
X168424960Y-108232944D01*
X168552747Y-108374866D01*
X168707248Y-108487118D01*
X168713276Y-108489802D01*
X168713278Y-108489803D01*
X168875681Y-108562109D01*
X168881712Y-108564794D01*
X168975113Y-108584647D01*
X169062056Y-108603128D01*
X169062061Y-108603128D01*
X169068513Y-108604500D01*
X169259487Y-108604500D01*
X169265939Y-108603128D01*
X169265944Y-108603128D01*
X169352888Y-108584647D01*
X169446288Y-108564794D01*
X169452319Y-108562109D01*
X169614722Y-108489803D01*
X169614724Y-108489802D01*
X169620752Y-108487118D01*
X169775253Y-108374866D01*
X169903040Y-108232944D01*
X169998527Y-108067556D01*
X170057542Y-107885928D01*
X170059831Y-107864155D01*
X170076814Y-107702565D01*
X170077504Y-107696000D01*
X170064794Y-107575071D01*
X170058232Y-107512635D01*
X170058232Y-107512633D01*
X170057542Y-107506072D01*
X169998527Y-107324444D01*
X169986805Y-107304140D01*
X169906341Y-107164774D01*
X169903040Y-107159056D01*
X169890280Y-107144884D01*
X169779675Y-107022045D01*
X169779674Y-107022044D01*
X169775253Y-107017134D01*
X169620752Y-106904882D01*
X169614724Y-106902198D01*
X169614722Y-106902197D01*
X169452319Y-106829891D01*
X169452318Y-106829891D01*
X169446288Y-106827206D01*
X169352888Y-106807353D01*
X169265944Y-106788872D01*
X169265939Y-106788872D01*
X169259487Y-106787500D01*
X169203595Y-106787500D01*
X169135474Y-106767498D01*
X169114500Y-106750595D01*
X168505925Y-106142020D01*
X168471899Y-106079708D01*
X168469020Y-106052925D01*
X168469020Y-103499960D01*
X168489022Y-103431839D01*
X168542678Y-103385346D01*
X168612952Y-103375242D01*
X168677532Y-103404736D01*
G37*
%TD.AperFunction*%
%TA.AperFunction,Conductor*%
G36*
X164021121Y-84602002D02*
G01*
X164067614Y-84655658D01*
X164079000Y-84708000D01*
X164079000Y-86175884D01*
X164083475Y-86191123D01*
X164084865Y-86192328D01*
X164092548Y-86193999D01*
X164719669Y-86193999D01*
X164726490Y-86193629D01*
X164777352Y-86188105D01*
X164792607Y-86184478D01*
X164805900Y-86179495D01*
X164876707Y-86174312D01*
X164939076Y-86208233D01*
X164973205Y-86270489D01*
X164976067Y-86293516D01*
X164977327Y-86333607D01*
X164982978Y-86353057D01*
X164986987Y-86372418D01*
X164989526Y-86392515D01*
X164992445Y-86399886D01*
X164992445Y-86399888D01*
X165005804Y-86433630D01*
X165009649Y-86444860D01*
X165019771Y-86479701D01*
X165021982Y-86487311D01*
X165026015Y-86494130D01*
X165026017Y-86494135D01*
X165032293Y-86504746D01*
X165040988Y-86522494D01*
X165048448Y-86541335D01*
X165053110Y-86547751D01*
X165053110Y-86547752D01*
X165074436Y-86577105D01*
X165080952Y-86587025D01*
X165103458Y-86625080D01*
X165117779Y-86639401D01*
X165130619Y-86654434D01*
X165142528Y-86670825D01*
X165176605Y-86699016D01*
X165185384Y-86707006D01*
X167282075Y-88803697D01*
X167316101Y-88866009D01*
X167318980Y-88892792D01*
X167318980Y-91789169D01*
X167298978Y-91857290D01*
X167282075Y-91878265D01*
X166814796Y-92345543D01*
X166752484Y-92379568D01*
X166681668Y-92374503D01*
X166624833Y-92331956D01*
X166600022Y-92265436D01*
X166599701Y-92256447D01*
X166599701Y-91850284D01*
X166600228Y-91839101D01*
X166601903Y-91831608D01*
X166601561Y-91820708D01*
X166599763Y-91763531D01*
X166599701Y-91759572D01*
X166599701Y-91731661D01*
X166599196Y-91727661D01*
X166598263Y-91715818D01*
X166597123Y-91679546D01*
X166596874Y-91671627D01*
X166591223Y-91652175D01*
X166587215Y-91632823D01*
X166585668Y-91620580D01*
X166584675Y-91612720D01*
X166581757Y-91605349D01*
X166568401Y-91571614D01*
X166564556Y-91560387D01*
X166563922Y-91558204D01*
X166552219Y-91517924D01*
X166548184Y-91511101D01*
X166545036Y-91503826D01*
X166547422Y-91502793D01*
X166533074Y-91446283D01*
X166533679Y-91437761D01*
X166534156Y-91433225D01*
X166534156Y-91433222D01*
X166534846Y-91426658D01*
X166520896Y-91293933D01*
X166515574Y-91243293D01*
X166515574Y-91243291D01*
X166514884Y-91236730D01*
X166455869Y-91055102D01*
X166360382Y-90889714D01*
X166232595Y-90747792D01*
X166078094Y-90635540D01*
X166072066Y-90632856D01*
X166072064Y-90632855D01*
X165909661Y-90560549D01*
X165909660Y-90560549D01*
X165903630Y-90557864D01*
X165810230Y-90538011D01*
X165723286Y-90519530D01*
X165723281Y-90519530D01*
X165716829Y-90518158D01*
X165525855Y-90518158D01*
X165519403Y-90519530D01*
X165519398Y-90519530D01*
X165432455Y-90538011D01*
X165339054Y-90557864D01*
X165333024Y-90560549D01*
X165333023Y-90560549D01*
X165227309Y-90607616D01*
X165156942Y-90617050D01*
X165092645Y-90586944D01*
X165054831Y-90526855D01*
X165050060Y-90492509D01*
X165050060Y-88295327D01*
X165050587Y-88284144D01*
X165052262Y-88276651D01*
X165050897Y-88233203D01*
X165050122Y-88208561D01*
X165050060Y-88204603D01*
X165050060Y-88176704D01*
X165049556Y-88172713D01*
X165048623Y-88160871D01*
X165047703Y-88131579D01*
X165047234Y-88116671D01*
X165045022Y-88109057D01*
X165045021Y-88109052D01*
X165041583Y-88097219D01*
X165037572Y-88077855D01*
X165036027Y-88065624D01*
X165035034Y-88057763D01*
X165032117Y-88050396D01*
X165032116Y-88050391D01*
X165018758Y-88016652D01*
X165014914Y-88005425D01*
X165009361Y-87986313D01*
X165002578Y-87962967D01*
X164992267Y-87945532D01*
X164983572Y-87927784D01*
X164976112Y-87908943D01*
X164957695Y-87883593D01*
X164950124Y-87873173D01*
X164943608Y-87863253D01*
X164925138Y-87832023D01*
X164921102Y-87825198D01*
X164915496Y-87819591D01*
X164906780Y-87810875D01*
X164893939Y-87795841D01*
X164886691Y-87785865D01*
X164886690Y-87785864D01*
X164882032Y-87779453D01*
X164847967Y-87751272D01*
X164839186Y-87743282D01*
X164587647Y-87491742D01*
X164580113Y-87483463D01*
X164576000Y-87476982D01*
X164526347Y-87430355D01*
X164523506Y-87427601D01*
X164503770Y-87407865D01*
X164500573Y-87405385D01*
X164491551Y-87397680D01*
X164465100Y-87372841D01*
X164459321Y-87367414D01*
X164452375Y-87363595D01*
X164452372Y-87363593D01*
X164441566Y-87357652D01*
X164425047Y-87346801D01*
X164424583Y-87346441D01*
X164409041Y-87334386D01*
X164401772Y-87331241D01*
X164401768Y-87331238D01*
X164368463Y-87316826D01*
X164357813Y-87311609D01*
X164319060Y-87290305D01*
X164299437Y-87285267D01*
X164280734Y-87278863D01*
X164269420Y-87273967D01*
X164269419Y-87273967D01*
X164262145Y-87270819D01*
X164254322Y-87269580D01*
X164254312Y-87269577D01*
X164218476Y-87263901D01*
X164206856Y-87261495D01*
X164171711Y-87252472D01*
X164171710Y-87252472D01*
X164164030Y-87250500D01*
X164143776Y-87250500D01*
X164124065Y-87248949D01*
X164111886Y-87247020D01*
X164104057Y-87245780D01*
X164096165Y-87246526D01*
X164060039Y-87249941D01*
X164048181Y-87250500D01*
X163827500Y-87250500D01*
X163759379Y-87230498D01*
X163712886Y-87176842D01*
X163701500Y-87124500D01*
X163701500Y-86438763D01*
X163702027Y-86427579D01*
X163703701Y-86420091D01*
X163701562Y-86352032D01*
X163701500Y-86348075D01*
X163701500Y-86320144D01*
X163700994Y-86316138D01*
X163700061Y-86304292D01*
X163699383Y-86282694D01*
X163698673Y-86260110D01*
X163693022Y-86240658D01*
X163689014Y-86221306D01*
X163687468Y-86209068D01*
X163687467Y-86209066D01*
X163686474Y-86201203D01*
X163670194Y-86160086D01*
X163666359Y-86148885D01*
X163654018Y-86106406D01*
X163649985Y-86099587D01*
X163649983Y-86099582D01*
X163643707Y-86088971D01*
X163635010Y-86071221D01*
X163627552Y-86052383D01*
X163601571Y-86016623D01*
X163595053Y-86006701D01*
X163588546Y-85995698D01*
X163571000Y-85931560D01*
X163571000Y-85108115D01*
X163566525Y-85092876D01*
X163565135Y-85091671D01*
X163557452Y-85090000D01*
X163319500Y-85090000D01*
X163251379Y-85069998D01*
X163204886Y-85016342D01*
X163193500Y-84964000D01*
X163193500Y-84708000D01*
X163213502Y-84639879D01*
X163267158Y-84593386D01*
X163319500Y-84582000D01*
X163953000Y-84582000D01*
X164021121Y-84602002D01*
G37*
%TD.AperFunction*%
%TA.AperFunction,Conductor*%
G36*
X161868621Y-84602002D02*
G01*
X161915114Y-84655658D01*
X161926500Y-84708000D01*
X161926500Y-84964000D01*
X161906498Y-85032121D01*
X161852842Y-85078614D01*
X161800500Y-85090000D01*
X161557115Y-85090000D01*
X161541876Y-85094475D01*
X161540671Y-85095865D01*
X161539000Y-85103548D01*
X161539000Y-86154517D01*
X161543064Y-86168359D01*
X161556478Y-86170393D01*
X161563184Y-86169534D01*
X161573262Y-86167392D01*
X161777255Y-86106191D01*
X161786837Y-86102435D01*
X161824379Y-86084044D01*
X161894353Y-86072038D01*
X161959710Y-86099769D01*
X161993161Y-86145605D01*
X161993713Y-86145301D01*
X161996075Y-86149598D01*
X161996963Y-86150815D01*
X162000448Y-86159617D01*
X162005110Y-86166033D01*
X162005110Y-86166034D01*
X162026436Y-86195387D01*
X162032952Y-86205307D01*
X162055458Y-86243362D01*
X162069779Y-86257683D01*
X162082619Y-86272716D01*
X162094528Y-86289107D01*
X162120070Y-86310237D01*
X162128605Y-86317298D01*
X162137384Y-86325288D01*
X162397595Y-86585499D01*
X162431621Y-86647811D01*
X162434500Y-86674594D01*
X162434500Y-87551233D01*
X162433973Y-87562416D01*
X162432298Y-87569909D01*
X162432547Y-87577835D01*
X162432547Y-87577836D01*
X162434438Y-87637986D01*
X162434500Y-87641945D01*
X162434500Y-87669856D01*
X162434997Y-87673790D01*
X162434997Y-87673791D01*
X162435005Y-87673856D01*
X162435938Y-87685693D01*
X162437327Y-87729889D01*
X162441218Y-87743282D01*
X162442978Y-87749339D01*
X162446987Y-87768700D01*
X162448353Y-87779509D01*
X162449526Y-87788797D01*
X162452445Y-87796168D01*
X162452445Y-87796170D01*
X162465804Y-87829912D01*
X162469649Y-87841142D01*
X162481982Y-87883593D01*
X162486015Y-87890412D01*
X162486017Y-87890417D01*
X162492293Y-87901028D01*
X162500988Y-87918776D01*
X162508448Y-87937617D01*
X162513110Y-87944033D01*
X162513110Y-87944034D01*
X162534436Y-87973387D01*
X162540952Y-87983307D01*
X162557408Y-88011132D01*
X162563458Y-88021362D01*
X162577779Y-88035683D01*
X162590619Y-88050716D01*
X162602528Y-88067107D01*
X162636605Y-88095298D01*
X162645384Y-88103288D01*
X162818343Y-88276247D01*
X162825887Y-88284537D01*
X162830000Y-88291018D01*
X162835777Y-88296443D01*
X162879667Y-88337658D01*
X162882509Y-88340413D01*
X162902230Y-88360134D01*
X162905425Y-88362612D01*
X162914447Y-88370318D01*
X162946679Y-88400586D01*
X162953628Y-88404406D01*
X162964432Y-88410346D01*
X162980956Y-88421199D01*
X162996959Y-88433613D01*
X163037543Y-88451176D01*
X163048173Y-88456383D01*
X163086940Y-88477695D01*
X163094617Y-88479666D01*
X163094622Y-88479668D01*
X163106558Y-88482732D01*
X163125266Y-88489137D01*
X163143855Y-88497181D01*
X163151683Y-88498421D01*
X163151690Y-88498423D01*
X163187524Y-88504099D01*
X163199144Y-88506505D01*
X163234289Y-88515528D01*
X163241970Y-88517500D01*
X163262224Y-88517500D01*
X163281934Y-88519051D01*
X163301943Y-88522220D01*
X163309835Y-88521474D01*
X163345961Y-88518059D01*
X163357819Y-88517500D01*
X163657060Y-88517500D01*
X163725181Y-88537502D01*
X163771674Y-88591158D01*
X163783060Y-88643500D01*
X163783060Y-91335249D01*
X163763058Y-91403370D01*
X163709402Y-91449863D01*
X163639128Y-91459967D01*
X163574548Y-91430473D01*
X163567965Y-91424344D01*
X160780894Y-88637272D01*
X160746868Y-88574960D01*
X160743989Y-88548177D01*
X160743989Y-86265194D01*
X160763991Y-86197073D01*
X160817647Y-86150580D01*
X160887921Y-86140476D01*
X160905144Y-86144198D01*
X160909891Y-86145577D01*
X161013250Y-86166606D01*
X161027299Y-86165410D01*
X161031000Y-86155065D01*
X161031000Y-84708000D01*
X161051002Y-84639879D01*
X161104658Y-84593386D01*
X161157000Y-84582000D01*
X161800500Y-84582000D01*
X161868621Y-84602002D01*
G37*
%TD.AperFunction*%
%TA.AperFunction,Conductor*%
G36*
X168039218Y-76687918D02*
G01*
X168054051Y-76690228D01*
X168054055Y-76690228D01*
X168062924Y-76691609D01*
X168078181Y-76689614D01*
X168103502Y-76688871D01*
X168272483Y-76700957D01*
X168290262Y-76703514D01*
X168480600Y-76744919D01*
X168497830Y-76749978D01*
X168680360Y-76818059D01*
X168696695Y-76825520D01*
X168734368Y-76846091D01*
X168867647Y-76918867D01*
X168882770Y-76928585D01*
X169038657Y-77045281D01*
X169038702Y-77045315D01*
X169052289Y-77057088D01*
X169190020Y-77194821D01*
X169201793Y-77208408D01*
X169318518Y-77364336D01*
X169328237Y-77379459D01*
X169421585Y-77550416D01*
X169429053Y-77566769D01*
X169497120Y-77749268D01*
X169502185Y-77766517D01*
X169542844Y-77953426D01*
X169543588Y-77956847D01*
X169546145Y-77974634D01*
X169556361Y-78117486D01*
X169557727Y-78136594D01*
X169556995Y-78154193D01*
X169556890Y-78162765D01*
X169555509Y-78171637D01*
X169556673Y-78180540D01*
X169556673Y-78180545D01*
X169559636Y-78203207D01*
X169560700Y-78219543D01*
X169560700Y-83537165D01*
X169540698Y-83605286D01*
X169487042Y-83651779D01*
X169416768Y-83661883D01*
X169354894Y-83634669D01*
X169333042Y-83616783D01*
X169235405Y-83536868D01*
X169001904Y-83393779D01*
X168997968Y-83392051D01*
X168755073Y-83285427D01*
X168755069Y-83285426D01*
X168751145Y-83283703D01*
X168487766Y-83208678D01*
X168483524Y-83208074D01*
X168483518Y-83208073D01*
X168283034Y-83179540D01*
X168216643Y-83170091D01*
X168072789Y-83169338D01*
X167947077Y-83168680D01*
X167947071Y-83168680D01*
X167942791Y-83168658D01*
X167938547Y-83169217D01*
X167938543Y-83169217D01*
X167819502Y-83184889D01*
X167671278Y-83204403D01*
X167667138Y-83205536D01*
X167667136Y-83205536D01*
X167603631Y-83222909D01*
X167407128Y-83276666D01*
X167393385Y-83282528D01*
X167159182Y-83382424D01*
X167159178Y-83382426D01*
X167155230Y-83384110D01*
X167077343Y-83430724D01*
X166940206Y-83512798D01*
X166871482Y-83530618D01*
X166804034Y-83508454D01*
X166759275Y-83453343D01*
X166749500Y-83404682D01*
X166749500Y-82882767D01*
X166750027Y-82871584D01*
X166751702Y-82864091D01*
X166749562Y-82796000D01*
X166749500Y-82792043D01*
X166749500Y-82764144D01*
X166748996Y-82760153D01*
X166748063Y-82748311D01*
X166747201Y-82720866D01*
X166746674Y-82704111D01*
X166744462Y-82696497D01*
X166744461Y-82696492D01*
X166741023Y-82684659D01*
X166737012Y-82665295D01*
X166735467Y-82653064D01*
X166734474Y-82645203D01*
X166731557Y-82637836D01*
X166731556Y-82637831D01*
X166718198Y-82604092D01*
X166714354Y-82592865D01*
X166704230Y-82558022D01*
X166702018Y-82550407D01*
X166691707Y-82532972D01*
X166683012Y-82515224D01*
X166675552Y-82496383D01*
X166649564Y-82460613D01*
X166643048Y-82450693D01*
X166624580Y-82419465D01*
X166624578Y-82419462D01*
X166620542Y-82412638D01*
X166606221Y-82398317D01*
X166593380Y-82383283D01*
X166589930Y-82378534D01*
X166581472Y-82366893D01*
X166575368Y-82361843D01*
X166575363Y-82361838D01*
X166547402Y-82338707D01*
X166538621Y-82330717D01*
X165953297Y-81745392D01*
X165919272Y-81683080D01*
X165924337Y-81612264D01*
X165966884Y-81555429D01*
X166016196Y-81533050D01*
X166106788Y-81513794D01*
X166112819Y-81511109D01*
X166275222Y-81438803D01*
X166275224Y-81438802D01*
X166281252Y-81436118D01*
X166435753Y-81323866D01*
X166444574Y-81314069D01*
X166559121Y-81186852D01*
X166559122Y-81186851D01*
X166563540Y-81181944D01*
X166621814Y-81081010D01*
X166655723Y-81022279D01*
X166655724Y-81022278D01*
X166659027Y-81016556D01*
X166718042Y-80834928D01*
X166738004Y-80645000D01*
X166726696Y-80537406D01*
X166718732Y-80461635D01*
X166718732Y-80461633D01*
X166718042Y-80455072D01*
X166659027Y-80273444D01*
X166563540Y-80108056D01*
X166539932Y-80081836D01*
X166440175Y-79971045D01*
X166440174Y-79971044D01*
X166435753Y-79966134D01*
X166281252Y-79853882D01*
X166275223Y-79851198D01*
X166275220Y-79851196D01*
X166255110Y-79842243D01*
X166201014Y-79796263D01*
X166183059Y-79739448D01*
X166181683Y-79739666D01*
X166180443Y-79731838D01*
X166180194Y-79723913D01*
X166177982Y-79716299D01*
X166177981Y-79716294D01*
X166174543Y-79704461D01*
X166170532Y-79685097D01*
X166168987Y-79672866D01*
X166167994Y-79665005D01*
X166165077Y-79657638D01*
X166165076Y-79657633D01*
X166151718Y-79623894D01*
X166147874Y-79612667D01*
X166137750Y-79577824D01*
X166135538Y-79570209D01*
X166125227Y-79552774D01*
X166116532Y-79535026D01*
X166109072Y-79516185D01*
X166083084Y-79480415D01*
X166076568Y-79470495D01*
X166058100Y-79439267D01*
X166058098Y-79439264D01*
X166054062Y-79432440D01*
X166039741Y-79418119D01*
X166026900Y-79403085D01*
X166019652Y-79393109D01*
X166014992Y-79386695D01*
X165980927Y-79358514D01*
X165972146Y-79350524D01*
X165604364Y-78982741D01*
X165596831Y-78974463D01*
X165592718Y-78967982D01*
X165543080Y-78921370D01*
X165540237Y-78918615D01*
X165523289Y-78901666D01*
X165520488Y-78898865D01*
X165517291Y-78896385D01*
X165508269Y-78888680D01*
X165481818Y-78863841D01*
X165476039Y-78858414D01*
X165469093Y-78854595D01*
X165469090Y-78854593D01*
X165458284Y-78848652D01*
X165441765Y-78837801D01*
X165441301Y-78837441D01*
X165425759Y-78825386D01*
X165418490Y-78822241D01*
X165418486Y-78822238D01*
X165385181Y-78807826D01*
X165374531Y-78802609D01*
X165335778Y-78781305D01*
X165316155Y-78776267D01*
X165297452Y-78769863D01*
X165286138Y-78764967D01*
X165286137Y-78764967D01*
X165278863Y-78761819D01*
X165271040Y-78760580D01*
X165271030Y-78760577D01*
X165235194Y-78754901D01*
X165223574Y-78752495D01*
X165188429Y-78743472D01*
X165188428Y-78743472D01*
X165180748Y-78741500D01*
X165160494Y-78741500D01*
X165140783Y-78739949D01*
X165128604Y-78738020D01*
X165120775Y-78736780D01*
X165112883Y-78737526D01*
X165076757Y-78740941D01*
X165064899Y-78741500D01*
X165004026Y-78741500D01*
X164935905Y-78721498D01*
X164889412Y-78667842D01*
X164879308Y-78597568D01*
X164908802Y-78532988D01*
X164928461Y-78514674D01*
X165035724Y-78434285D01*
X165048285Y-78421724D01*
X165124786Y-78319649D01*
X165133324Y-78304054D01*
X165178478Y-78183606D01*
X165182105Y-78168351D01*
X165187631Y-78117486D01*
X165188000Y-78110672D01*
X165188000Y-77488115D01*
X165183525Y-77472876D01*
X165182135Y-77471671D01*
X165174452Y-77470000D01*
X163702000Y-77470000D01*
X163633879Y-77449998D01*
X163587386Y-77396342D01*
X163576000Y-77344000D01*
X163576000Y-77088000D01*
X163596002Y-77019879D01*
X163649658Y-76973386D01*
X163702000Y-76962000D01*
X165169884Y-76962000D01*
X165185123Y-76957525D01*
X165186328Y-76956135D01*
X165187999Y-76948452D01*
X165187999Y-76812418D01*
X165208001Y-76744297D01*
X165261657Y-76697804D01*
X165313999Y-76686418D01*
X168019833Y-76686418D01*
X168039218Y-76687918D01*
G37*
%TD.AperFunction*%
%TD*%
M02*
