G04 #@! TF.GenerationSoftware,KiCad,Pcbnew,(5.1.12)-1*
G04 #@! TF.CreationDate,2022-10-01T18:20:28+09:00*
G04 #@! TF.ProjectId,AT,41542e6b-6963-4616-945f-706362585858,rev?*
G04 #@! TF.SameCoordinates,PX6146580PY496ed40*
G04 #@! TF.FileFunction,Legend,Bot*
G04 #@! TF.FilePolarity,Positive*
%FSLAX46Y46*%
G04 Gerber Fmt 4.6, Leading zero omitted, Abs format (unit mm)*
G04 Created by KiCad (PCBNEW (5.1.12)-1) date 2022-10-01 18:20:28*
%MOMM*%
%LPD*%
G01*
G04 APERTURE LIST*
%ADD10C,0.120000*%
%ADD11C,0.150000*%
%ADD12O,1.900000X1.900000*%
G04 APERTURE END LIST*
D10*
G04 #@! TO.C,J1*
X2730000Y230000D02*
X1400000Y230000D01*
X2730000Y-1100000D02*
X2730000Y230000D01*
X2730000Y-2370000D02*
X70000Y-2370000D01*
X70000Y-2370000D02*
X70000Y-20210000D01*
X2730000Y-2370000D02*
X2730000Y-20210000D01*
X2730000Y-20210000D02*
X70000Y-20210000D01*
D11*
X1733333Y1777620D02*
X1733333Y1063334D01*
X1780952Y920477D01*
X1876190Y825239D01*
X2019047Y777620D01*
X2114285Y777620D01*
X733333Y777620D02*
X1304761Y777620D01*
X1019047Y777620D02*
X1019047Y1777620D01*
X1114285Y1634762D01*
X1209523Y1539524D01*
X1304761Y1491905D01*
G04 #@! TD*
%LPC*%
D12*
G04 #@! TO.C,J1*
X1400000Y-18880000D03*
X1400000Y-16340000D03*
X1400000Y-13800000D03*
X1400000Y-11260000D03*
X1400000Y-8720000D03*
X1400000Y-6180000D03*
X1400000Y-3640000D03*
G36*
G01*
X2350000Y-250000D02*
X2350000Y-1950000D01*
G75*
G02*
X2250000Y-2050000I-100000J0D01*
G01*
X550000Y-2050000D01*
G75*
G02*
X450000Y-1950000I0J100000D01*
G01*
X450000Y-250000D01*
G75*
G02*
X550000Y-150000I100000J0D01*
G01*
X2250000Y-150000D01*
G75*
G02*
X2350000Y-250000I0J-100000D01*
G01*
G37*
G04 #@! TD*
M02*
