G04 #@! TF.GenerationSoftware,KiCad,Pcbnew,(5.1.12)-1*
G04 #@! TF.CreationDate,2022-10-01T18:20:28+09:00*
G04 #@! TF.ProjectId,AT,41542e6b-6963-4616-945f-706362585858,rev?*
G04 #@! TF.SameCoordinates,PX6146580PY496ed40*
G04 #@! TF.FileFunction,Soldermask,Top*
G04 #@! TF.FilePolarity,Negative*
%FSLAX46Y46*%
G04 Gerber Fmt 4.6, Leading zero omitted, Abs format (unit mm)*
G04 Created by KiCad (PCBNEW (5.1.12)-1) date 2022-10-01 18:20:28*
%MOMM*%
%LPD*%
G01*
G04 APERTURE LIST*
%ADD10O,1.900000X1.900000*%
G04 APERTURE END LIST*
G04 #@! TO.C,C6*
G36*
G01*
X10260000Y-15140000D02*
X10260000Y-14540000D01*
G75*
G02*
X10535000Y-14265000I275000J0D01*
G01*
X11085000Y-14265000D01*
G75*
G02*
X11360000Y-14540000I0J-275000D01*
G01*
X11360000Y-15140000D01*
G75*
G02*
X11085000Y-15415000I-275000J0D01*
G01*
X10535000Y-15415000D01*
G75*
G02*
X10260000Y-15140000I0J275000D01*
G01*
G37*
G36*
G01*
X8710000Y-15140000D02*
X8710000Y-14540000D01*
G75*
G02*
X8985000Y-14265000I275000J0D01*
G01*
X9535000Y-14265000D01*
G75*
G02*
X9810000Y-14540000I0J-275000D01*
G01*
X9810000Y-15140000D01*
G75*
G02*
X9535000Y-15415000I-275000J0D01*
G01*
X8985000Y-15415000D01*
G75*
G02*
X8710000Y-15140000I0J275000D01*
G01*
G37*
G04 #@! TD*
G04 #@! TO.C,D1*
G36*
G01*
X7270000Y-18186250D02*
X7270000Y-17573750D01*
G75*
G02*
X7538750Y-17305000I268750J0D01*
G01*
X8076250Y-17305000D01*
G75*
G02*
X8345000Y-17573750I0J-268750D01*
G01*
X8345000Y-18186250D01*
G75*
G02*
X8076250Y-18455000I-268750J0D01*
G01*
X7538750Y-18455000D01*
G75*
G02*
X7270000Y-18186250I0J268750D01*
G01*
G37*
G36*
G01*
X5695000Y-18186250D02*
X5695000Y-17573750D01*
G75*
G02*
X5963750Y-17305000I268750J0D01*
G01*
X6501250Y-17305000D01*
G75*
G02*
X6770000Y-17573750I0J-268750D01*
G01*
X6770000Y-18186250D01*
G75*
G02*
X6501250Y-18455000I-268750J0D01*
G01*
X5963750Y-18455000D01*
G75*
G02*
X5695000Y-18186250I0J268750D01*
G01*
G37*
G04 #@! TD*
G04 #@! TO.C,R4*
G36*
G01*
X7350000Y-15155000D02*
X7350000Y-14505000D01*
G75*
G02*
X7600000Y-14255000I250000J0D01*
G01*
X8100000Y-14255000D01*
G75*
G02*
X8350000Y-14505000I0J-250000D01*
G01*
X8350000Y-15155000D01*
G75*
G02*
X8100000Y-15405000I-250000J0D01*
G01*
X7600000Y-15405000D01*
G75*
G02*
X7350000Y-15155000I0J250000D01*
G01*
G37*
G36*
G01*
X5700000Y-15155000D02*
X5700000Y-14505000D01*
G75*
G02*
X5950000Y-14255000I250000J0D01*
G01*
X6450000Y-14255000D01*
G75*
G02*
X6700000Y-14505000I0J-250000D01*
G01*
X6700000Y-15155000D01*
G75*
G02*
X6450000Y-15405000I-250000J0D01*
G01*
X5950000Y-15405000D01*
G75*
G02*
X5700000Y-15155000I0J250000D01*
G01*
G37*
G04 #@! TD*
G04 #@! TO.C,R3*
G36*
G01*
X6695000Y-16035000D02*
X6695000Y-16685000D01*
G75*
G02*
X6445000Y-16935000I-250000J0D01*
G01*
X5945000Y-16935000D01*
G75*
G02*
X5695000Y-16685000I0J250000D01*
G01*
X5695000Y-16035000D01*
G75*
G02*
X5945000Y-15785000I250000J0D01*
G01*
X6445000Y-15785000D01*
G75*
G02*
X6695000Y-16035000I0J-250000D01*
G01*
G37*
G36*
G01*
X8345000Y-16035000D02*
X8345000Y-16685000D01*
G75*
G02*
X8095000Y-16935000I-250000J0D01*
G01*
X7595000Y-16935000D01*
G75*
G02*
X7345000Y-16685000I0J250000D01*
G01*
X7345000Y-16035000D01*
G75*
G02*
X7595000Y-15785000I250000J0D01*
G01*
X8095000Y-15785000D01*
G75*
G02*
X8345000Y-16035000I0J-250000D01*
G01*
G37*
G04 #@! TD*
G04 #@! TO.C,R2*
G36*
G01*
X7355000Y-7835000D02*
X7355000Y-7185000D01*
G75*
G02*
X7605000Y-6935000I250000J0D01*
G01*
X8105000Y-6935000D01*
G75*
G02*
X8355000Y-7185000I0J-250000D01*
G01*
X8355000Y-7835000D01*
G75*
G02*
X8105000Y-8085000I-250000J0D01*
G01*
X7605000Y-8085000D01*
G75*
G02*
X7355000Y-7835000I0J250000D01*
G01*
G37*
G36*
G01*
X5705000Y-7835000D02*
X5705000Y-7185000D01*
G75*
G02*
X5955000Y-6935000I250000J0D01*
G01*
X6455000Y-6935000D01*
G75*
G02*
X6705000Y-7185000I0J-250000D01*
G01*
X6705000Y-7835000D01*
G75*
G02*
X6455000Y-8085000I-250000J0D01*
G01*
X5955000Y-8085000D01*
G75*
G02*
X5705000Y-7835000I0J250000D01*
G01*
G37*
G04 #@! TD*
G04 #@! TO.C,R1*
G36*
G01*
X7355000Y-6315000D02*
X7355000Y-5665000D01*
G75*
G02*
X7605000Y-5415000I250000J0D01*
G01*
X8105000Y-5415000D01*
G75*
G02*
X8355000Y-5665000I0J-250000D01*
G01*
X8355000Y-6315000D01*
G75*
G02*
X8105000Y-6565000I-250000J0D01*
G01*
X7605000Y-6565000D01*
G75*
G02*
X7355000Y-6315000I0J250000D01*
G01*
G37*
G36*
G01*
X5705000Y-6315000D02*
X5705000Y-5665000D01*
G75*
G02*
X5955000Y-5415000I250000J0D01*
G01*
X6455000Y-5415000D01*
G75*
G02*
X6705000Y-5665000I0J-250000D01*
G01*
X6705000Y-6315000D01*
G75*
G02*
X6455000Y-6565000I-250000J0D01*
G01*
X5955000Y-6565000D01*
G75*
G02*
X5705000Y-6315000I0J250000D01*
G01*
G37*
G04 #@! TD*
G04 #@! TO.C,C7*
G36*
G01*
X10270000Y-7810000D02*
X10270000Y-7210000D01*
G75*
G02*
X10545000Y-6935000I275000J0D01*
G01*
X11095000Y-6935000D01*
G75*
G02*
X11370000Y-7210000I0J-275000D01*
G01*
X11370000Y-7810000D01*
G75*
G02*
X11095000Y-8085000I-275000J0D01*
G01*
X10545000Y-8085000D01*
G75*
G02*
X10270000Y-7810000I0J275000D01*
G01*
G37*
G36*
G01*
X8720000Y-7810000D02*
X8720000Y-7210000D01*
G75*
G02*
X8995000Y-6935000I275000J0D01*
G01*
X9545000Y-6935000D01*
G75*
G02*
X9820000Y-7210000I0J-275000D01*
G01*
X9820000Y-7810000D01*
G75*
G02*
X9545000Y-8085000I-275000J0D01*
G01*
X8995000Y-8085000D01*
G75*
G02*
X8720000Y-7810000I0J275000D01*
G01*
G37*
G04 #@! TD*
G04 #@! TO.C,C5*
G36*
G01*
X10500000Y-1565000D02*
X9900000Y-1565000D01*
G75*
G02*
X9625000Y-1290000I0J275000D01*
G01*
X9625000Y-740000D01*
G75*
G02*
X9900000Y-465000I275000J0D01*
G01*
X10500000Y-465000D01*
G75*
G02*
X10775000Y-740000I0J-275000D01*
G01*
X10775000Y-1290000D01*
G75*
G02*
X10500000Y-1565000I-275000J0D01*
G01*
G37*
G36*
G01*
X10500000Y-3115000D02*
X9900000Y-3115000D01*
G75*
G02*
X9625000Y-2840000I0J275000D01*
G01*
X9625000Y-2290000D01*
G75*
G02*
X9900000Y-2015000I275000J0D01*
G01*
X10500000Y-2015000D01*
G75*
G02*
X10775000Y-2290000I0J-275000D01*
G01*
X10775000Y-2840000D01*
G75*
G02*
X10500000Y-3115000I-275000J0D01*
G01*
G37*
G04 #@! TD*
G04 #@! TO.C,C4*
G36*
G01*
X9835000Y-16060000D02*
X9835000Y-16660000D01*
G75*
G02*
X9560000Y-16935000I-275000J0D01*
G01*
X9010000Y-16935000D01*
G75*
G02*
X8735000Y-16660000I0J275000D01*
G01*
X8735000Y-16060000D01*
G75*
G02*
X9010000Y-15785000I275000J0D01*
G01*
X9560000Y-15785000D01*
G75*
G02*
X9835000Y-16060000I0J-275000D01*
G01*
G37*
G36*
G01*
X11385000Y-16060000D02*
X11385000Y-16660000D01*
G75*
G02*
X11110000Y-16935000I-275000J0D01*
G01*
X10560000Y-16935000D01*
G75*
G02*
X10285000Y-16660000I0J275000D01*
G01*
X10285000Y-16060000D01*
G75*
G02*
X10560000Y-15785000I275000J0D01*
G01*
X11110000Y-15785000D01*
G75*
G02*
X11385000Y-16060000I0J-275000D01*
G01*
G37*
G04 #@! TD*
G04 #@! TO.C,C3*
G36*
G01*
X10275000Y-6290000D02*
X10275000Y-5690000D01*
G75*
G02*
X10550000Y-5415000I275000J0D01*
G01*
X11100000Y-5415000D01*
G75*
G02*
X11375000Y-5690000I0J-275000D01*
G01*
X11375000Y-6290000D01*
G75*
G02*
X11100000Y-6565000I-275000J0D01*
G01*
X10550000Y-6565000D01*
G75*
G02*
X10275000Y-6290000I0J275000D01*
G01*
G37*
G36*
G01*
X8725000Y-6290000D02*
X8725000Y-5690000D01*
G75*
G02*
X9000000Y-5415000I275000J0D01*
G01*
X9550000Y-5415000D01*
G75*
G02*
X9825000Y-5690000I0J-275000D01*
G01*
X9825000Y-6290000D01*
G75*
G02*
X9550000Y-6565000I-275000J0D01*
G01*
X9000000Y-6565000D01*
G75*
G02*
X8725000Y-6290000I0J275000D01*
G01*
G37*
G04 #@! TD*
G04 #@! TO.C,C1*
G36*
G01*
X7255000Y-4770000D02*
X7255000Y-4170000D01*
G75*
G02*
X7530000Y-3895000I275000J0D01*
G01*
X8080000Y-3895000D01*
G75*
G02*
X8355000Y-4170000I0J-275000D01*
G01*
X8355000Y-4770000D01*
G75*
G02*
X8080000Y-5045000I-275000J0D01*
G01*
X7530000Y-5045000D01*
G75*
G02*
X7255000Y-4770000I0J275000D01*
G01*
G37*
G36*
G01*
X5705000Y-4770000D02*
X5705000Y-4170000D01*
G75*
G02*
X5980000Y-3895000I275000J0D01*
G01*
X6530000Y-3895000D01*
G75*
G02*
X6805000Y-4170000I0J-275000D01*
G01*
X6805000Y-4770000D01*
G75*
G02*
X6530000Y-5045000I-275000J0D01*
G01*
X5980000Y-5045000D01*
G75*
G02*
X5705000Y-4770000I0J275000D01*
G01*
G37*
G04 #@! TD*
G04 #@! TO.C,C2*
G36*
G01*
X13067965Y-10210000D02*
X12092035Y-10210000D01*
G75*
G02*
X11805000Y-9922965I0J287035D01*
G01*
X11805000Y-8897035D01*
G75*
G02*
X12092035Y-8610000I287035J0D01*
G01*
X13067965Y-8610000D01*
G75*
G02*
X13355000Y-8897035I0J-287035D01*
G01*
X13355000Y-9922965D01*
G75*
G02*
X13067965Y-10210000I-287035J0D01*
G01*
G37*
G36*
G01*
X13067965Y-12910000D02*
X12092035Y-12910000D01*
G75*
G02*
X11805000Y-12622965I0J287035D01*
G01*
X11805000Y-11597035D01*
G75*
G02*
X12092035Y-11310000I287035J0D01*
G01*
X13067965Y-11310000D01*
G75*
G02*
X13355000Y-11597035I0J-287035D01*
G01*
X13355000Y-12622965D01*
G75*
G02*
X13067965Y-12910000I-287035J0D01*
G01*
G37*
G04 #@! TD*
D10*
G04 #@! TO.C,J1*
X1400000Y-18880000D03*
X1400000Y-16340000D03*
X1400000Y-13800000D03*
X1400000Y-11260000D03*
X1400000Y-8720000D03*
X1400000Y-6180000D03*
X1400000Y-3640000D03*
G36*
G01*
X2350000Y-250000D02*
X2350000Y-1950000D01*
G75*
G02*
X2250000Y-2050000I-100000J0D01*
G01*
X550000Y-2050000D01*
G75*
G02*
X450000Y-1950000I0J100000D01*
G01*
X450000Y-250000D01*
G75*
G02*
X550000Y-150000I100000J0D01*
G01*
X2250000Y-150000D01*
G75*
G02*
X2350000Y-250000I0J-100000D01*
G01*
G37*
G04 #@! TD*
G04 #@! TO.C,U2*
G36*
G01*
X7075000Y-9525000D02*
X6825000Y-9525000D01*
G75*
G02*
X6700000Y-9400000I0J125000D01*
G01*
X6700000Y-8600000D01*
G75*
G02*
X6825000Y-8475000I125000J0D01*
G01*
X7075000Y-8475000D01*
G75*
G02*
X7200000Y-8600000I0J-125000D01*
G01*
X7200000Y-9400000D01*
G75*
G02*
X7075000Y-9525000I-125000J0D01*
G01*
G37*
G36*
G01*
X7575000Y-9525000D02*
X7325000Y-9525000D01*
G75*
G02*
X7200000Y-9400000I0J125000D01*
G01*
X7200000Y-8600000D01*
G75*
G02*
X7325000Y-8475000I125000J0D01*
G01*
X7575000Y-8475000D01*
G75*
G02*
X7700000Y-8600000I0J-125000D01*
G01*
X7700000Y-9400000D01*
G75*
G02*
X7575000Y-9525000I-125000J0D01*
G01*
G37*
G36*
G01*
X8075000Y-9525000D02*
X7825000Y-9525000D01*
G75*
G02*
X7700000Y-9400000I0J125000D01*
G01*
X7700000Y-8600000D01*
G75*
G02*
X7825000Y-8475000I125000J0D01*
G01*
X8075000Y-8475000D01*
G75*
G02*
X8200000Y-8600000I0J-125000D01*
G01*
X8200000Y-9400000D01*
G75*
G02*
X8075000Y-9525000I-125000J0D01*
G01*
G37*
G36*
G01*
X8575000Y-9525000D02*
X8325000Y-9525000D01*
G75*
G02*
X8200000Y-9400000I0J125000D01*
G01*
X8200000Y-8600000D01*
G75*
G02*
X8325000Y-8475000I125000J0D01*
G01*
X8575000Y-8475000D01*
G75*
G02*
X8700000Y-8600000I0J-125000D01*
G01*
X8700000Y-9400000D01*
G75*
G02*
X8575000Y-9525000I-125000J0D01*
G01*
G37*
G36*
G01*
X9075000Y-9525000D02*
X8825000Y-9525000D01*
G75*
G02*
X8700000Y-9400000I0J125000D01*
G01*
X8700000Y-8600000D01*
G75*
G02*
X8825000Y-8475000I125000J0D01*
G01*
X9075000Y-8475000D01*
G75*
G02*
X9200000Y-8600000I0J-125000D01*
G01*
X9200000Y-9400000D01*
G75*
G02*
X9075000Y-9525000I-125000J0D01*
G01*
G37*
G36*
G01*
X9575000Y-9525000D02*
X9325000Y-9525000D01*
G75*
G02*
X9200000Y-9400000I0J125000D01*
G01*
X9200000Y-8600000D01*
G75*
G02*
X9325000Y-8475000I125000J0D01*
G01*
X9575000Y-8475000D01*
G75*
G02*
X9700000Y-8600000I0J-125000D01*
G01*
X9700000Y-9400000D01*
G75*
G02*
X9575000Y-9525000I-125000J0D01*
G01*
G37*
G36*
G01*
X9625000Y-9825000D02*
X9625000Y-9575000D01*
G75*
G02*
X9750000Y-9450000I125000J0D01*
G01*
X10550000Y-9450000D01*
G75*
G02*
X10675000Y-9575000I0J-125000D01*
G01*
X10675000Y-9825000D01*
G75*
G02*
X10550000Y-9950000I-125000J0D01*
G01*
X9750000Y-9950000D01*
G75*
G02*
X9625000Y-9825000I0J125000D01*
G01*
G37*
G36*
G01*
X9625000Y-10325000D02*
X9625000Y-10075000D01*
G75*
G02*
X9750000Y-9950000I125000J0D01*
G01*
X10550000Y-9950000D01*
G75*
G02*
X10675000Y-10075000I0J-125000D01*
G01*
X10675000Y-10325000D01*
G75*
G02*
X10550000Y-10450000I-125000J0D01*
G01*
X9750000Y-10450000D01*
G75*
G02*
X9625000Y-10325000I0J125000D01*
G01*
G37*
G36*
G01*
X9625000Y-10825000D02*
X9625000Y-10575000D01*
G75*
G02*
X9750000Y-10450000I125000J0D01*
G01*
X10550000Y-10450000D01*
G75*
G02*
X10675000Y-10575000I0J-125000D01*
G01*
X10675000Y-10825000D01*
G75*
G02*
X10550000Y-10950000I-125000J0D01*
G01*
X9750000Y-10950000D01*
G75*
G02*
X9625000Y-10825000I0J125000D01*
G01*
G37*
G36*
G01*
X9625000Y-11325000D02*
X9625000Y-11075000D01*
G75*
G02*
X9750000Y-10950000I125000J0D01*
G01*
X10550000Y-10950000D01*
G75*
G02*
X10675000Y-11075000I0J-125000D01*
G01*
X10675000Y-11325000D01*
G75*
G02*
X10550000Y-11450000I-125000J0D01*
G01*
X9750000Y-11450000D01*
G75*
G02*
X9625000Y-11325000I0J125000D01*
G01*
G37*
G36*
G01*
X9625000Y-11825000D02*
X9625000Y-11575000D01*
G75*
G02*
X9750000Y-11450000I125000J0D01*
G01*
X10550000Y-11450000D01*
G75*
G02*
X10675000Y-11575000I0J-125000D01*
G01*
X10675000Y-11825000D01*
G75*
G02*
X10550000Y-11950000I-125000J0D01*
G01*
X9750000Y-11950000D01*
G75*
G02*
X9625000Y-11825000I0J125000D01*
G01*
G37*
G36*
G01*
X9625000Y-12325000D02*
X9625000Y-12075000D01*
G75*
G02*
X9750000Y-11950000I125000J0D01*
G01*
X10550000Y-11950000D01*
G75*
G02*
X10675000Y-12075000I0J-125000D01*
G01*
X10675000Y-12325000D01*
G75*
G02*
X10550000Y-12450000I-125000J0D01*
G01*
X9750000Y-12450000D01*
G75*
G02*
X9625000Y-12325000I0J125000D01*
G01*
G37*
G36*
G01*
X9575000Y-13425000D02*
X9325000Y-13425000D01*
G75*
G02*
X9200000Y-13300000I0J125000D01*
G01*
X9200000Y-12500000D01*
G75*
G02*
X9325000Y-12375000I125000J0D01*
G01*
X9575000Y-12375000D01*
G75*
G02*
X9700000Y-12500000I0J-125000D01*
G01*
X9700000Y-13300000D01*
G75*
G02*
X9575000Y-13425000I-125000J0D01*
G01*
G37*
G36*
G01*
X9075000Y-13425000D02*
X8825000Y-13425000D01*
G75*
G02*
X8700000Y-13300000I0J125000D01*
G01*
X8700000Y-12500000D01*
G75*
G02*
X8825000Y-12375000I125000J0D01*
G01*
X9075000Y-12375000D01*
G75*
G02*
X9200000Y-12500000I0J-125000D01*
G01*
X9200000Y-13300000D01*
G75*
G02*
X9075000Y-13425000I-125000J0D01*
G01*
G37*
G36*
G01*
X8575000Y-13425000D02*
X8325000Y-13425000D01*
G75*
G02*
X8200000Y-13300000I0J125000D01*
G01*
X8200000Y-12500000D01*
G75*
G02*
X8325000Y-12375000I125000J0D01*
G01*
X8575000Y-12375000D01*
G75*
G02*
X8700000Y-12500000I0J-125000D01*
G01*
X8700000Y-13300000D01*
G75*
G02*
X8575000Y-13425000I-125000J0D01*
G01*
G37*
G36*
G01*
X8075000Y-13425000D02*
X7825000Y-13425000D01*
G75*
G02*
X7700000Y-13300000I0J125000D01*
G01*
X7700000Y-12500000D01*
G75*
G02*
X7825000Y-12375000I125000J0D01*
G01*
X8075000Y-12375000D01*
G75*
G02*
X8200000Y-12500000I0J-125000D01*
G01*
X8200000Y-13300000D01*
G75*
G02*
X8075000Y-13425000I-125000J0D01*
G01*
G37*
G36*
G01*
X7575000Y-13425000D02*
X7325000Y-13425000D01*
G75*
G02*
X7200000Y-13300000I0J125000D01*
G01*
X7200000Y-12500000D01*
G75*
G02*
X7325000Y-12375000I125000J0D01*
G01*
X7575000Y-12375000D01*
G75*
G02*
X7700000Y-12500000I0J-125000D01*
G01*
X7700000Y-13300000D01*
G75*
G02*
X7575000Y-13425000I-125000J0D01*
G01*
G37*
G36*
G01*
X7075000Y-13425000D02*
X6825000Y-13425000D01*
G75*
G02*
X6700000Y-13300000I0J125000D01*
G01*
X6700000Y-12500000D01*
G75*
G02*
X6825000Y-12375000I125000J0D01*
G01*
X7075000Y-12375000D01*
G75*
G02*
X7200000Y-12500000I0J-125000D01*
G01*
X7200000Y-13300000D01*
G75*
G02*
X7075000Y-13425000I-125000J0D01*
G01*
G37*
G36*
G01*
X5725000Y-12325000D02*
X5725000Y-12075000D01*
G75*
G02*
X5850000Y-11950000I125000J0D01*
G01*
X6650000Y-11950000D01*
G75*
G02*
X6775000Y-12075000I0J-125000D01*
G01*
X6775000Y-12325000D01*
G75*
G02*
X6650000Y-12450000I-125000J0D01*
G01*
X5850000Y-12450000D01*
G75*
G02*
X5725000Y-12325000I0J125000D01*
G01*
G37*
G36*
G01*
X5725000Y-11825000D02*
X5725000Y-11575000D01*
G75*
G02*
X5850000Y-11450000I125000J0D01*
G01*
X6650000Y-11450000D01*
G75*
G02*
X6775000Y-11575000I0J-125000D01*
G01*
X6775000Y-11825000D01*
G75*
G02*
X6650000Y-11950000I-125000J0D01*
G01*
X5850000Y-11950000D01*
G75*
G02*
X5725000Y-11825000I0J125000D01*
G01*
G37*
G36*
G01*
X5725000Y-11325000D02*
X5725000Y-11075000D01*
G75*
G02*
X5850000Y-10950000I125000J0D01*
G01*
X6650000Y-10950000D01*
G75*
G02*
X6775000Y-11075000I0J-125000D01*
G01*
X6775000Y-11325000D01*
G75*
G02*
X6650000Y-11450000I-125000J0D01*
G01*
X5850000Y-11450000D01*
G75*
G02*
X5725000Y-11325000I0J125000D01*
G01*
G37*
G36*
G01*
X5725000Y-10825000D02*
X5725000Y-10575000D01*
G75*
G02*
X5850000Y-10450000I125000J0D01*
G01*
X6650000Y-10450000D01*
G75*
G02*
X6775000Y-10575000I0J-125000D01*
G01*
X6775000Y-10825000D01*
G75*
G02*
X6650000Y-10950000I-125000J0D01*
G01*
X5850000Y-10950000D01*
G75*
G02*
X5725000Y-10825000I0J125000D01*
G01*
G37*
G36*
G01*
X5725000Y-10325000D02*
X5725000Y-10075000D01*
G75*
G02*
X5850000Y-9950000I125000J0D01*
G01*
X6650000Y-9950000D01*
G75*
G02*
X6775000Y-10075000I0J-125000D01*
G01*
X6775000Y-10325000D01*
G75*
G02*
X6650000Y-10450000I-125000J0D01*
G01*
X5850000Y-10450000D01*
G75*
G02*
X5725000Y-10325000I0J125000D01*
G01*
G37*
G36*
G01*
X5725000Y-9825000D02*
X5725000Y-9575000D01*
G75*
G02*
X5850000Y-9450000I125000J0D01*
G01*
X6650000Y-9450000D01*
G75*
G02*
X6775000Y-9575000I0J-125000D01*
G01*
X6775000Y-9825000D01*
G75*
G02*
X6650000Y-9950000I-125000J0D01*
G01*
X5850000Y-9950000D01*
G75*
G02*
X5725000Y-9825000I0J125000D01*
G01*
G37*
G04 #@! TD*
G04 #@! TO.C,U1*
G36*
G01*
X7920000Y-1255000D02*
X7920000Y-605000D01*
G75*
G02*
X8020000Y-505000I100000J0D01*
G01*
X9080000Y-505000D01*
G75*
G02*
X9180000Y-605000I0J-100000D01*
G01*
X9180000Y-1255000D01*
G75*
G02*
X9080000Y-1355000I-100000J0D01*
G01*
X8020000Y-1355000D01*
G75*
G02*
X7920000Y-1255000I0J100000D01*
G01*
G37*
G36*
G01*
X7920000Y-3155000D02*
X7920000Y-2505000D01*
G75*
G02*
X8020000Y-2405000I100000J0D01*
G01*
X9080000Y-2405000D01*
G75*
G02*
X9180000Y-2505000I0J-100000D01*
G01*
X9180000Y-3155000D01*
G75*
G02*
X9080000Y-3255000I-100000J0D01*
G01*
X8020000Y-3255000D01*
G75*
G02*
X7920000Y-3155000I0J100000D01*
G01*
G37*
G36*
G01*
X5720000Y-3155000D02*
X5720000Y-2505000D01*
G75*
G02*
X5820000Y-2405000I100000J0D01*
G01*
X6880000Y-2405000D01*
G75*
G02*
X6980000Y-2505000I0J-100000D01*
G01*
X6980000Y-3155000D01*
G75*
G02*
X6880000Y-3255000I-100000J0D01*
G01*
X5820000Y-3255000D01*
G75*
G02*
X5720000Y-3155000I0J100000D01*
G01*
G37*
G36*
G01*
X5720000Y-2205000D02*
X5720000Y-1555000D01*
G75*
G02*
X5820000Y-1455000I100000J0D01*
G01*
X6880000Y-1455000D01*
G75*
G02*
X6980000Y-1555000I0J-100000D01*
G01*
X6980000Y-2205000D01*
G75*
G02*
X6880000Y-2305000I-100000J0D01*
G01*
X5820000Y-2305000D01*
G75*
G02*
X5720000Y-2205000I0J100000D01*
G01*
G37*
G36*
G01*
X5720000Y-1255000D02*
X5720000Y-605000D01*
G75*
G02*
X5820000Y-505000I100000J0D01*
G01*
X6880000Y-505000D01*
G75*
G02*
X6980000Y-605000I0J-100000D01*
G01*
X6980000Y-1255000D01*
G75*
G02*
X6880000Y-1355000I-100000J0D01*
G01*
X5820000Y-1355000D01*
G75*
G02*
X5720000Y-1255000I0J100000D01*
G01*
G37*
G04 #@! TD*
M02*
