G04 #@! TF.GenerationSoftware,KiCad,Pcbnew,(5.1.12)-1*
G04 #@! TF.CreationDate,2022-10-01T18:20:28+09:00*
G04 #@! TF.ProjectId,AT,41542e6b-6963-4616-945f-706362585858,rev?*
G04 #@! TF.SameCoordinates,PX6146580PY496ed40*
G04 #@! TF.FileFunction,Copper,L1,Top*
G04 #@! TF.FilePolarity,Positive*
%FSLAX46Y46*%
G04 Gerber Fmt 4.6, Leading zero omitted, Abs format (unit mm)*
G04 Created by KiCad (PCBNEW (5.1.12)-1) date 2022-10-01 18:20:28*
%MOMM*%
%LPD*%
G01*
G04 APERTURE LIST*
G04 #@! TA.AperFunction,ComponentPad*
%ADD10O,1.700000X1.700000*%
G04 #@! TD*
G04 #@! TA.AperFunction,ComponentPad*
%ADD11R,1.700000X1.700000*%
G04 #@! TD*
G04 #@! TA.AperFunction,SMDPad,CuDef*
%ADD12R,1.060000X0.650000*%
G04 #@! TD*
G04 #@! TA.AperFunction,ViaPad*
%ADD13C,0.800000*%
G04 #@! TD*
G04 #@! TA.AperFunction,Conductor*
%ADD14C,0.250000*%
G04 #@! TD*
G04 #@! TA.AperFunction,Conductor*
%ADD15C,0.500000*%
G04 #@! TD*
G04 #@! TA.AperFunction,Conductor*
%ADD16C,0.254000*%
G04 #@! TD*
G04 #@! TA.AperFunction,Conductor*
%ADD17C,0.100000*%
G04 #@! TD*
G04 APERTURE END LIST*
G04 #@! TO.P,C6,2*
G04 #@! TO.N,GND*
G04 #@! TA.AperFunction,SMDPad,CuDef*
G36*
G01*
X10360000Y-15090000D02*
X10360000Y-14590000D01*
G75*
G02*
X10585000Y-14365000I225000J0D01*
G01*
X11035000Y-14365000D01*
G75*
G02*
X11260000Y-14590000I0J-225000D01*
G01*
X11260000Y-15090000D01*
G75*
G02*
X11035000Y-15315000I-225000J0D01*
G01*
X10585000Y-15315000D01*
G75*
G02*
X10360000Y-15090000I0J225000D01*
G01*
G37*
G04 #@! TD.AperFunction*
G04 #@! TO.P,C6,1*
G04 #@! TO.N,Net-(C6-Pad1)*
G04 #@! TA.AperFunction,SMDPad,CuDef*
G36*
G01*
X8810000Y-15090000D02*
X8810000Y-14590000D01*
G75*
G02*
X9035000Y-14365000I225000J0D01*
G01*
X9485000Y-14365000D01*
G75*
G02*
X9710000Y-14590000I0J-225000D01*
G01*
X9710000Y-15090000D01*
G75*
G02*
X9485000Y-15315000I-225000J0D01*
G01*
X9035000Y-15315000D01*
G75*
G02*
X8810000Y-15090000I0J225000D01*
G01*
G37*
G04 #@! TD.AperFunction*
G04 #@! TD*
G04 #@! TO.P,D1,2*
G04 #@! TO.N,Net-(D1-Pad2)*
G04 #@! TA.AperFunction,SMDPad,CuDef*
G36*
G01*
X7370000Y-18136250D02*
X7370000Y-17623750D01*
G75*
G02*
X7588750Y-17405000I218750J0D01*
G01*
X8026250Y-17405000D01*
G75*
G02*
X8245000Y-17623750I0J-218750D01*
G01*
X8245000Y-18136250D01*
G75*
G02*
X8026250Y-18355000I-218750J0D01*
G01*
X7588750Y-18355000D01*
G75*
G02*
X7370000Y-18136250I0J218750D01*
G01*
G37*
G04 #@! TD.AperFunction*
G04 #@! TO.P,D1,1*
G04 #@! TO.N,GND*
G04 #@! TA.AperFunction,SMDPad,CuDef*
G36*
G01*
X5795000Y-18136250D02*
X5795000Y-17623750D01*
G75*
G02*
X6013750Y-17405000I218750J0D01*
G01*
X6451250Y-17405000D01*
G75*
G02*
X6670000Y-17623750I0J-218750D01*
G01*
X6670000Y-18136250D01*
G75*
G02*
X6451250Y-18355000I-218750J0D01*
G01*
X6013750Y-18355000D01*
G75*
G02*
X5795000Y-18136250I0J218750D01*
G01*
G37*
G04 #@! TD.AperFunction*
G04 #@! TD*
G04 #@! TO.P,R4,2*
G04 #@! TO.N,GND*
G04 #@! TA.AperFunction,SMDPad,CuDef*
G36*
G01*
X7450000Y-15105000D02*
X7450000Y-14555000D01*
G75*
G02*
X7650000Y-14355000I200000J0D01*
G01*
X8050000Y-14355000D01*
G75*
G02*
X8250000Y-14555000I0J-200000D01*
G01*
X8250000Y-15105000D01*
G75*
G02*
X8050000Y-15305000I-200000J0D01*
G01*
X7650000Y-15305000D01*
G75*
G02*
X7450000Y-15105000I0J200000D01*
G01*
G37*
G04 #@! TD.AperFunction*
G04 #@! TO.P,R4,1*
G04 #@! TO.N,/AD0*
G04 #@! TA.AperFunction,SMDPad,CuDef*
G36*
G01*
X5800000Y-15105000D02*
X5800000Y-14555000D01*
G75*
G02*
X6000000Y-14355000I200000J0D01*
G01*
X6400000Y-14355000D01*
G75*
G02*
X6600000Y-14555000I0J-200000D01*
G01*
X6600000Y-15105000D01*
G75*
G02*
X6400000Y-15305000I-200000J0D01*
G01*
X6000000Y-15305000D01*
G75*
G02*
X5800000Y-15105000I0J200000D01*
G01*
G37*
G04 #@! TD.AperFunction*
G04 #@! TD*
G04 #@! TO.P,R3,2*
G04 #@! TO.N,+3V3*
G04 #@! TA.AperFunction,SMDPad,CuDef*
G36*
G01*
X6595000Y-16085000D02*
X6595000Y-16635000D01*
G75*
G02*
X6395000Y-16835000I-200000J0D01*
G01*
X5995000Y-16835000D01*
G75*
G02*
X5795000Y-16635000I0J200000D01*
G01*
X5795000Y-16085000D01*
G75*
G02*
X5995000Y-15885000I200000J0D01*
G01*
X6395000Y-15885000D01*
G75*
G02*
X6595000Y-16085000I0J-200000D01*
G01*
G37*
G04 #@! TD.AperFunction*
G04 #@! TO.P,R3,1*
G04 #@! TO.N,Net-(D1-Pad2)*
G04 #@! TA.AperFunction,SMDPad,CuDef*
G36*
G01*
X8245000Y-16085000D02*
X8245000Y-16635000D01*
G75*
G02*
X8045000Y-16835000I-200000J0D01*
G01*
X7645000Y-16835000D01*
G75*
G02*
X7445000Y-16635000I0J200000D01*
G01*
X7445000Y-16085000D01*
G75*
G02*
X7645000Y-15885000I200000J0D01*
G01*
X8045000Y-15885000D01*
G75*
G02*
X8245000Y-16085000I0J-200000D01*
G01*
G37*
G04 #@! TD.AperFunction*
G04 #@! TD*
G04 #@! TO.P,R2,2*
G04 #@! TO.N,+3V3*
G04 #@! TA.AperFunction,SMDPad,CuDef*
G36*
G01*
X7455000Y-7785000D02*
X7455000Y-7235000D01*
G75*
G02*
X7655000Y-7035000I200000J0D01*
G01*
X8055000Y-7035000D01*
G75*
G02*
X8255000Y-7235000I0J-200000D01*
G01*
X8255000Y-7785000D01*
G75*
G02*
X8055000Y-7985000I-200000J0D01*
G01*
X7655000Y-7985000D01*
G75*
G02*
X7455000Y-7785000I0J200000D01*
G01*
G37*
G04 #@! TD.AperFunction*
G04 #@! TO.P,R2,1*
G04 #@! TO.N,/SDA*
G04 #@! TA.AperFunction,SMDPad,CuDef*
G36*
G01*
X5805000Y-7785000D02*
X5805000Y-7235000D01*
G75*
G02*
X6005000Y-7035000I200000J0D01*
G01*
X6405000Y-7035000D01*
G75*
G02*
X6605000Y-7235000I0J-200000D01*
G01*
X6605000Y-7785000D01*
G75*
G02*
X6405000Y-7985000I-200000J0D01*
G01*
X6005000Y-7985000D01*
G75*
G02*
X5805000Y-7785000I0J200000D01*
G01*
G37*
G04 #@! TD.AperFunction*
G04 #@! TD*
G04 #@! TO.P,R1,2*
G04 #@! TO.N,+3V3*
G04 #@! TA.AperFunction,SMDPad,CuDef*
G36*
G01*
X7455000Y-6265000D02*
X7455000Y-5715000D01*
G75*
G02*
X7655000Y-5515000I200000J0D01*
G01*
X8055000Y-5515000D01*
G75*
G02*
X8255000Y-5715000I0J-200000D01*
G01*
X8255000Y-6265000D01*
G75*
G02*
X8055000Y-6465000I-200000J0D01*
G01*
X7655000Y-6465000D01*
G75*
G02*
X7455000Y-6265000I0J200000D01*
G01*
G37*
G04 #@! TD.AperFunction*
G04 #@! TO.P,R1,1*
G04 #@! TO.N,/SCL*
G04 #@! TA.AperFunction,SMDPad,CuDef*
G36*
G01*
X5805000Y-6265000D02*
X5805000Y-5715000D01*
G75*
G02*
X6005000Y-5515000I200000J0D01*
G01*
X6405000Y-5515000D01*
G75*
G02*
X6605000Y-5715000I0J-200000D01*
G01*
X6605000Y-6265000D01*
G75*
G02*
X6405000Y-6465000I-200000J0D01*
G01*
X6005000Y-6465000D01*
G75*
G02*
X5805000Y-6265000I0J200000D01*
G01*
G37*
G04 #@! TD.AperFunction*
G04 #@! TD*
G04 #@! TO.P,C7,2*
G04 #@! TO.N,GND*
G04 #@! TA.AperFunction,SMDPad,CuDef*
G36*
G01*
X10370000Y-7760000D02*
X10370000Y-7260000D01*
G75*
G02*
X10595000Y-7035000I225000J0D01*
G01*
X11045000Y-7035000D01*
G75*
G02*
X11270000Y-7260000I0J-225000D01*
G01*
X11270000Y-7760000D01*
G75*
G02*
X11045000Y-7985000I-225000J0D01*
G01*
X10595000Y-7985000D01*
G75*
G02*
X10370000Y-7760000I0J225000D01*
G01*
G37*
G04 #@! TD.AperFunction*
G04 #@! TO.P,C7,1*
G04 #@! TO.N,Net-(C7-Pad1)*
G04 #@! TA.AperFunction,SMDPad,CuDef*
G36*
G01*
X8820000Y-7760000D02*
X8820000Y-7260000D01*
G75*
G02*
X9045000Y-7035000I225000J0D01*
G01*
X9495000Y-7035000D01*
G75*
G02*
X9720000Y-7260000I0J-225000D01*
G01*
X9720000Y-7760000D01*
G75*
G02*
X9495000Y-7985000I-225000J0D01*
G01*
X9045000Y-7985000D01*
G75*
G02*
X8820000Y-7760000I0J225000D01*
G01*
G37*
G04 #@! TD.AperFunction*
G04 #@! TD*
G04 #@! TO.P,C5,2*
G04 #@! TO.N,+3V3*
G04 #@! TA.AperFunction,SMDPad,CuDef*
G36*
G01*
X10450000Y-1465000D02*
X9950000Y-1465000D01*
G75*
G02*
X9725000Y-1240000I0J225000D01*
G01*
X9725000Y-790000D01*
G75*
G02*
X9950000Y-565000I225000J0D01*
G01*
X10450000Y-565000D01*
G75*
G02*
X10675000Y-790000I0J-225000D01*
G01*
X10675000Y-1240000D01*
G75*
G02*
X10450000Y-1465000I-225000J0D01*
G01*
G37*
G04 #@! TD.AperFunction*
G04 #@! TO.P,C5,1*
G04 #@! TO.N,GND*
G04 #@! TA.AperFunction,SMDPad,CuDef*
G36*
G01*
X10450000Y-3015000D02*
X9950000Y-3015000D01*
G75*
G02*
X9725000Y-2790000I0J225000D01*
G01*
X9725000Y-2340000D01*
G75*
G02*
X9950000Y-2115000I225000J0D01*
G01*
X10450000Y-2115000D01*
G75*
G02*
X10675000Y-2340000I0J-225000D01*
G01*
X10675000Y-2790000D01*
G75*
G02*
X10450000Y-3015000I-225000J0D01*
G01*
G37*
G04 #@! TD.AperFunction*
G04 #@! TD*
G04 #@! TO.P,C4,2*
G04 #@! TO.N,GND*
G04 #@! TA.AperFunction,SMDPad,CuDef*
G36*
G01*
X9735000Y-16110000D02*
X9735000Y-16610000D01*
G75*
G02*
X9510000Y-16835000I-225000J0D01*
G01*
X9060000Y-16835000D01*
G75*
G02*
X8835000Y-16610000I0J225000D01*
G01*
X8835000Y-16110000D01*
G75*
G02*
X9060000Y-15885000I225000J0D01*
G01*
X9510000Y-15885000D01*
G75*
G02*
X9735000Y-16110000I0J-225000D01*
G01*
G37*
G04 #@! TD.AperFunction*
G04 #@! TO.P,C4,1*
G04 #@! TO.N,+3V3*
G04 #@! TA.AperFunction,SMDPad,CuDef*
G36*
G01*
X11285000Y-16110000D02*
X11285000Y-16610000D01*
G75*
G02*
X11060000Y-16835000I-225000J0D01*
G01*
X10610000Y-16835000D01*
G75*
G02*
X10385000Y-16610000I0J225000D01*
G01*
X10385000Y-16110000D01*
G75*
G02*
X10610000Y-15885000I225000J0D01*
G01*
X11060000Y-15885000D01*
G75*
G02*
X11285000Y-16110000I0J-225000D01*
G01*
G37*
G04 #@! TD.AperFunction*
G04 #@! TD*
G04 #@! TO.P,C3,2*
G04 #@! TO.N,GND*
G04 #@! TA.AperFunction,SMDPad,CuDef*
G36*
G01*
X10375000Y-6240000D02*
X10375000Y-5740000D01*
G75*
G02*
X10600000Y-5515000I225000J0D01*
G01*
X11050000Y-5515000D01*
G75*
G02*
X11275000Y-5740000I0J-225000D01*
G01*
X11275000Y-6240000D01*
G75*
G02*
X11050000Y-6465000I-225000J0D01*
G01*
X10600000Y-6465000D01*
G75*
G02*
X10375000Y-6240000I0J225000D01*
G01*
G37*
G04 #@! TD.AperFunction*
G04 #@! TO.P,C3,1*
G04 #@! TO.N,+3V3*
G04 #@! TA.AperFunction,SMDPad,CuDef*
G36*
G01*
X8825000Y-6240000D02*
X8825000Y-5740000D01*
G75*
G02*
X9050000Y-5515000I225000J0D01*
G01*
X9500000Y-5515000D01*
G75*
G02*
X9725000Y-5740000I0J-225000D01*
G01*
X9725000Y-6240000D01*
G75*
G02*
X9500000Y-6465000I-225000J0D01*
G01*
X9050000Y-6465000D01*
G75*
G02*
X8825000Y-6240000I0J225000D01*
G01*
G37*
G04 #@! TD.AperFunction*
G04 #@! TD*
G04 #@! TO.P,C1,2*
G04 #@! TO.N,GND*
G04 #@! TA.AperFunction,SMDPad,CuDef*
G36*
G01*
X7355000Y-4720000D02*
X7355000Y-4220000D01*
G75*
G02*
X7580000Y-3995000I225000J0D01*
G01*
X8030000Y-3995000D01*
G75*
G02*
X8255000Y-4220000I0J-225000D01*
G01*
X8255000Y-4720000D01*
G75*
G02*
X8030000Y-4945000I-225000J0D01*
G01*
X7580000Y-4945000D01*
G75*
G02*
X7355000Y-4720000I0J225000D01*
G01*
G37*
G04 #@! TD.AperFunction*
G04 #@! TO.P,C1,1*
G04 #@! TO.N,+5V*
G04 #@! TA.AperFunction,SMDPad,CuDef*
G36*
G01*
X5805000Y-4720000D02*
X5805000Y-4220000D01*
G75*
G02*
X6030000Y-3995000I225000J0D01*
G01*
X6480000Y-3995000D01*
G75*
G02*
X6705000Y-4220000I0J-225000D01*
G01*
X6705000Y-4720000D01*
G75*
G02*
X6480000Y-4945000I-225000J0D01*
G01*
X6030000Y-4945000D01*
G75*
G02*
X5805000Y-4720000I0J225000D01*
G01*
G37*
G04 #@! TD.AperFunction*
G04 #@! TD*
G04 #@! TO.P,C2,2*
G04 #@! TO.N,GND*
G04 #@! TA.AperFunction,SMDPad,CuDef*
G36*
G01*
X13005001Y-10110000D02*
X12154999Y-10110000D01*
G75*
G02*
X11905000Y-9860001I0J249999D01*
G01*
X11905000Y-8959999D01*
G75*
G02*
X12154999Y-8710000I249999J0D01*
G01*
X13005001Y-8710000D01*
G75*
G02*
X13255000Y-8959999I0J-249999D01*
G01*
X13255000Y-9860001D01*
G75*
G02*
X13005001Y-10110000I-249999J0D01*
G01*
G37*
G04 #@! TD.AperFunction*
G04 #@! TO.P,C2,1*
G04 #@! TO.N,+3V3*
G04 #@! TA.AperFunction,SMDPad,CuDef*
G36*
G01*
X13005001Y-12810000D02*
X12154999Y-12810000D01*
G75*
G02*
X11905000Y-12560001I0J249999D01*
G01*
X11905000Y-11659999D01*
G75*
G02*
X12154999Y-11410000I249999J0D01*
G01*
X13005001Y-11410000D01*
G75*
G02*
X13255000Y-11659999I0J-249999D01*
G01*
X13255000Y-12560001D01*
G75*
G02*
X13005001Y-12810000I-249999J0D01*
G01*
G37*
G04 #@! TD.AperFunction*
G04 #@! TD*
D10*
G04 #@! TO.P,J1,8*
G04 #@! TO.N,/INT*
X1400000Y-18880000D03*
G04 #@! TO.P,J1,7*
G04 #@! TO.N,/AD0*
X1400000Y-16340000D03*
G04 #@! TO.P,J1,6*
G04 #@! TO.N,/XCL*
X1400000Y-13800000D03*
G04 #@! TO.P,J1,5*
G04 #@! TO.N,/XDA*
X1400000Y-11260000D03*
G04 #@! TO.P,J1,4*
G04 #@! TO.N,/SDA*
X1400000Y-8720000D03*
G04 #@! TO.P,J1,3*
G04 #@! TO.N,/SCL*
X1400000Y-6180000D03*
G04 #@! TO.P,J1,2*
G04 #@! TO.N,GND*
X1400000Y-3640000D03*
D11*
G04 #@! TO.P,J1,1*
G04 #@! TO.N,+5V*
X1400000Y-1100000D03*
G04 #@! TD*
G04 #@! TO.P,U2,24*
G04 #@! TO.N,/SDA*
G04 #@! TA.AperFunction,SMDPad,CuDef*
G36*
G01*
X7025000Y-9425000D02*
X6875000Y-9425000D01*
G75*
G02*
X6800000Y-9350000I0J75000D01*
G01*
X6800000Y-8650000D01*
G75*
G02*
X6875000Y-8575000I75000J0D01*
G01*
X7025000Y-8575000D01*
G75*
G02*
X7100000Y-8650000I0J-75000D01*
G01*
X7100000Y-9350000D01*
G75*
G02*
X7025000Y-9425000I-75000J0D01*
G01*
G37*
G04 #@! TD.AperFunction*
G04 #@! TO.P,U2,23*
G04 #@! TO.N,/SCL*
G04 #@! TA.AperFunction,SMDPad,CuDef*
G36*
G01*
X7525000Y-9425000D02*
X7375000Y-9425000D01*
G75*
G02*
X7300000Y-9350000I0J75000D01*
G01*
X7300000Y-8650000D01*
G75*
G02*
X7375000Y-8575000I75000J0D01*
G01*
X7525000Y-8575000D01*
G75*
G02*
X7600000Y-8650000I0J-75000D01*
G01*
X7600000Y-9350000D01*
G75*
G02*
X7525000Y-9425000I-75000J0D01*
G01*
G37*
G04 #@! TD.AperFunction*
G04 #@! TO.P,U2,22*
G04 #@! TO.N,N/C*
G04 #@! TA.AperFunction,SMDPad,CuDef*
G36*
G01*
X8025000Y-9425000D02*
X7875000Y-9425000D01*
G75*
G02*
X7800000Y-9350000I0J75000D01*
G01*
X7800000Y-8650000D01*
G75*
G02*
X7875000Y-8575000I75000J0D01*
G01*
X8025000Y-8575000D01*
G75*
G02*
X8100000Y-8650000I0J-75000D01*
G01*
X8100000Y-9350000D01*
G75*
G02*
X8025000Y-9425000I-75000J0D01*
G01*
G37*
G04 #@! TD.AperFunction*
G04 #@! TO.P,U2,21*
G04 #@! TA.AperFunction,SMDPad,CuDef*
G36*
G01*
X8525000Y-9425000D02*
X8375000Y-9425000D01*
G75*
G02*
X8300000Y-9350000I0J75000D01*
G01*
X8300000Y-8650000D01*
G75*
G02*
X8375000Y-8575000I75000J0D01*
G01*
X8525000Y-8575000D01*
G75*
G02*
X8600000Y-8650000I0J-75000D01*
G01*
X8600000Y-9350000D01*
G75*
G02*
X8525000Y-9425000I-75000J0D01*
G01*
G37*
G04 #@! TD.AperFunction*
G04 #@! TO.P,U2,20*
G04 #@! TO.N,Net-(C7-Pad1)*
G04 #@! TA.AperFunction,SMDPad,CuDef*
G36*
G01*
X9025000Y-9425000D02*
X8875000Y-9425000D01*
G75*
G02*
X8800000Y-9350000I0J75000D01*
G01*
X8800000Y-8650000D01*
G75*
G02*
X8875000Y-8575000I75000J0D01*
G01*
X9025000Y-8575000D01*
G75*
G02*
X9100000Y-8650000I0J-75000D01*
G01*
X9100000Y-9350000D01*
G75*
G02*
X9025000Y-9425000I-75000J0D01*
G01*
G37*
G04 #@! TD.AperFunction*
G04 #@! TO.P,U2,19*
G04 #@! TO.N,N/C*
G04 #@! TA.AperFunction,SMDPad,CuDef*
G36*
G01*
X9525000Y-9425000D02*
X9375000Y-9425000D01*
G75*
G02*
X9300000Y-9350000I0J75000D01*
G01*
X9300000Y-8650000D01*
G75*
G02*
X9375000Y-8575000I75000J0D01*
G01*
X9525000Y-8575000D01*
G75*
G02*
X9600000Y-8650000I0J-75000D01*
G01*
X9600000Y-9350000D01*
G75*
G02*
X9525000Y-9425000I-75000J0D01*
G01*
G37*
G04 #@! TD.AperFunction*
G04 #@! TO.P,U2,18*
G04 #@! TO.N,GND*
G04 #@! TA.AperFunction,SMDPad,CuDef*
G36*
G01*
X9725000Y-9775000D02*
X9725000Y-9625000D01*
G75*
G02*
X9800000Y-9550000I75000J0D01*
G01*
X10500000Y-9550000D01*
G75*
G02*
X10575000Y-9625000I0J-75000D01*
G01*
X10575000Y-9775000D01*
G75*
G02*
X10500000Y-9850000I-75000J0D01*
G01*
X9800000Y-9850000D01*
G75*
G02*
X9725000Y-9775000I0J75000D01*
G01*
G37*
G04 #@! TD.AperFunction*
G04 #@! TO.P,U2,17*
G04 #@! TO.N,N/C*
G04 #@! TA.AperFunction,SMDPad,CuDef*
G36*
G01*
X9725000Y-10275000D02*
X9725000Y-10125000D01*
G75*
G02*
X9800000Y-10050000I75000J0D01*
G01*
X10500000Y-10050000D01*
G75*
G02*
X10575000Y-10125000I0J-75000D01*
G01*
X10575000Y-10275000D01*
G75*
G02*
X10500000Y-10350000I-75000J0D01*
G01*
X9800000Y-10350000D01*
G75*
G02*
X9725000Y-10275000I0J75000D01*
G01*
G37*
G04 #@! TD.AperFunction*
G04 #@! TO.P,U2,16*
G04 #@! TA.AperFunction,SMDPad,CuDef*
G36*
G01*
X9725000Y-10775000D02*
X9725000Y-10625000D01*
G75*
G02*
X9800000Y-10550000I75000J0D01*
G01*
X10500000Y-10550000D01*
G75*
G02*
X10575000Y-10625000I0J-75000D01*
G01*
X10575000Y-10775000D01*
G75*
G02*
X10500000Y-10850000I-75000J0D01*
G01*
X9800000Y-10850000D01*
G75*
G02*
X9725000Y-10775000I0J75000D01*
G01*
G37*
G04 #@! TD.AperFunction*
G04 #@! TO.P,U2,15*
G04 #@! TA.AperFunction,SMDPad,CuDef*
G36*
G01*
X9725000Y-11275000D02*
X9725000Y-11125000D01*
G75*
G02*
X9800000Y-11050000I75000J0D01*
G01*
X10500000Y-11050000D01*
G75*
G02*
X10575000Y-11125000I0J-75000D01*
G01*
X10575000Y-11275000D01*
G75*
G02*
X10500000Y-11350000I-75000J0D01*
G01*
X9800000Y-11350000D01*
G75*
G02*
X9725000Y-11275000I0J75000D01*
G01*
G37*
G04 #@! TD.AperFunction*
G04 #@! TO.P,U2,14*
G04 #@! TA.AperFunction,SMDPad,CuDef*
G36*
G01*
X9725000Y-11775000D02*
X9725000Y-11625000D01*
G75*
G02*
X9800000Y-11550000I75000J0D01*
G01*
X10500000Y-11550000D01*
G75*
G02*
X10575000Y-11625000I0J-75000D01*
G01*
X10575000Y-11775000D01*
G75*
G02*
X10500000Y-11850000I-75000J0D01*
G01*
X9800000Y-11850000D01*
G75*
G02*
X9725000Y-11775000I0J75000D01*
G01*
G37*
G04 #@! TD.AperFunction*
G04 #@! TO.P,U2,13*
G04 #@! TO.N,+3V3*
G04 #@! TA.AperFunction,SMDPad,CuDef*
G36*
G01*
X9725000Y-12275000D02*
X9725000Y-12125000D01*
G75*
G02*
X9800000Y-12050000I75000J0D01*
G01*
X10500000Y-12050000D01*
G75*
G02*
X10575000Y-12125000I0J-75000D01*
G01*
X10575000Y-12275000D01*
G75*
G02*
X10500000Y-12350000I-75000J0D01*
G01*
X9800000Y-12350000D01*
G75*
G02*
X9725000Y-12275000I0J75000D01*
G01*
G37*
G04 #@! TD.AperFunction*
G04 #@! TO.P,U2,12*
G04 #@! TO.N,/INT*
G04 #@! TA.AperFunction,SMDPad,CuDef*
G36*
G01*
X9525000Y-13325000D02*
X9375000Y-13325000D01*
G75*
G02*
X9300000Y-13250000I0J75000D01*
G01*
X9300000Y-12550000D01*
G75*
G02*
X9375000Y-12475000I75000J0D01*
G01*
X9525000Y-12475000D01*
G75*
G02*
X9600000Y-12550000I0J-75000D01*
G01*
X9600000Y-13250000D01*
G75*
G02*
X9525000Y-13325000I-75000J0D01*
G01*
G37*
G04 #@! TD.AperFunction*
G04 #@! TO.P,U2,11*
G04 #@! TO.N,GND*
G04 #@! TA.AperFunction,SMDPad,CuDef*
G36*
G01*
X9025000Y-13325000D02*
X8875000Y-13325000D01*
G75*
G02*
X8800000Y-13250000I0J75000D01*
G01*
X8800000Y-12550000D01*
G75*
G02*
X8875000Y-12475000I75000J0D01*
G01*
X9025000Y-12475000D01*
G75*
G02*
X9100000Y-12550000I0J-75000D01*
G01*
X9100000Y-13250000D01*
G75*
G02*
X9025000Y-13325000I-75000J0D01*
G01*
G37*
G04 #@! TD.AperFunction*
G04 #@! TO.P,U2,10*
G04 #@! TO.N,Net-(C6-Pad1)*
G04 #@! TA.AperFunction,SMDPad,CuDef*
G36*
G01*
X8525000Y-13325000D02*
X8375000Y-13325000D01*
G75*
G02*
X8300000Y-13250000I0J75000D01*
G01*
X8300000Y-12550000D01*
G75*
G02*
X8375000Y-12475000I75000J0D01*
G01*
X8525000Y-12475000D01*
G75*
G02*
X8600000Y-12550000I0J-75000D01*
G01*
X8600000Y-13250000D01*
G75*
G02*
X8525000Y-13325000I-75000J0D01*
G01*
G37*
G04 #@! TD.AperFunction*
G04 #@! TO.P,U2,9*
G04 #@! TO.N,/AD0*
G04 #@! TA.AperFunction,SMDPad,CuDef*
G36*
G01*
X8025000Y-13325000D02*
X7875000Y-13325000D01*
G75*
G02*
X7800000Y-13250000I0J75000D01*
G01*
X7800000Y-12550000D01*
G75*
G02*
X7875000Y-12475000I75000J0D01*
G01*
X8025000Y-12475000D01*
G75*
G02*
X8100000Y-12550000I0J-75000D01*
G01*
X8100000Y-13250000D01*
G75*
G02*
X8025000Y-13325000I-75000J0D01*
G01*
G37*
G04 #@! TD.AperFunction*
G04 #@! TO.P,U2,8*
G04 #@! TO.N,+3V3*
G04 #@! TA.AperFunction,SMDPad,CuDef*
G36*
G01*
X7525000Y-13325000D02*
X7375000Y-13325000D01*
G75*
G02*
X7300000Y-13250000I0J75000D01*
G01*
X7300000Y-12550000D01*
G75*
G02*
X7375000Y-12475000I75000J0D01*
G01*
X7525000Y-12475000D01*
G75*
G02*
X7600000Y-12550000I0J-75000D01*
G01*
X7600000Y-13250000D01*
G75*
G02*
X7525000Y-13325000I-75000J0D01*
G01*
G37*
G04 #@! TD.AperFunction*
G04 #@! TO.P,U2,7*
G04 #@! TO.N,/XCL*
G04 #@! TA.AperFunction,SMDPad,CuDef*
G36*
G01*
X7025000Y-13325000D02*
X6875000Y-13325000D01*
G75*
G02*
X6800000Y-13250000I0J75000D01*
G01*
X6800000Y-12550000D01*
G75*
G02*
X6875000Y-12475000I75000J0D01*
G01*
X7025000Y-12475000D01*
G75*
G02*
X7100000Y-12550000I0J-75000D01*
G01*
X7100000Y-13250000D01*
G75*
G02*
X7025000Y-13325000I-75000J0D01*
G01*
G37*
G04 #@! TD.AperFunction*
G04 #@! TO.P,U2,6*
G04 #@! TO.N,/XDA*
G04 #@! TA.AperFunction,SMDPad,CuDef*
G36*
G01*
X5825000Y-12275000D02*
X5825000Y-12125000D01*
G75*
G02*
X5900000Y-12050000I75000J0D01*
G01*
X6600000Y-12050000D01*
G75*
G02*
X6675000Y-12125000I0J-75000D01*
G01*
X6675000Y-12275000D01*
G75*
G02*
X6600000Y-12350000I-75000J0D01*
G01*
X5900000Y-12350000D01*
G75*
G02*
X5825000Y-12275000I0J75000D01*
G01*
G37*
G04 #@! TD.AperFunction*
G04 #@! TO.P,U2,5*
G04 #@! TO.N,N/C*
G04 #@! TA.AperFunction,SMDPad,CuDef*
G36*
G01*
X5825000Y-11775000D02*
X5825000Y-11625000D01*
G75*
G02*
X5900000Y-11550000I75000J0D01*
G01*
X6600000Y-11550000D01*
G75*
G02*
X6675000Y-11625000I0J-75000D01*
G01*
X6675000Y-11775000D01*
G75*
G02*
X6600000Y-11850000I-75000J0D01*
G01*
X5900000Y-11850000D01*
G75*
G02*
X5825000Y-11775000I0J75000D01*
G01*
G37*
G04 #@! TD.AperFunction*
G04 #@! TO.P,U2,4*
G04 #@! TA.AperFunction,SMDPad,CuDef*
G36*
G01*
X5825000Y-11275000D02*
X5825000Y-11125000D01*
G75*
G02*
X5900000Y-11050000I75000J0D01*
G01*
X6600000Y-11050000D01*
G75*
G02*
X6675000Y-11125000I0J-75000D01*
G01*
X6675000Y-11275000D01*
G75*
G02*
X6600000Y-11350000I-75000J0D01*
G01*
X5900000Y-11350000D01*
G75*
G02*
X5825000Y-11275000I0J75000D01*
G01*
G37*
G04 #@! TD.AperFunction*
G04 #@! TO.P,U2,3*
G04 #@! TA.AperFunction,SMDPad,CuDef*
G36*
G01*
X5825000Y-10775000D02*
X5825000Y-10625000D01*
G75*
G02*
X5900000Y-10550000I75000J0D01*
G01*
X6600000Y-10550000D01*
G75*
G02*
X6675000Y-10625000I0J-75000D01*
G01*
X6675000Y-10775000D01*
G75*
G02*
X6600000Y-10850000I-75000J0D01*
G01*
X5900000Y-10850000D01*
G75*
G02*
X5825000Y-10775000I0J75000D01*
G01*
G37*
G04 #@! TD.AperFunction*
G04 #@! TO.P,U2,2*
G04 #@! TA.AperFunction,SMDPad,CuDef*
G36*
G01*
X5825000Y-10275000D02*
X5825000Y-10125000D01*
G75*
G02*
X5900000Y-10050000I75000J0D01*
G01*
X6600000Y-10050000D01*
G75*
G02*
X6675000Y-10125000I0J-75000D01*
G01*
X6675000Y-10275000D01*
G75*
G02*
X6600000Y-10350000I-75000J0D01*
G01*
X5900000Y-10350000D01*
G75*
G02*
X5825000Y-10275000I0J75000D01*
G01*
G37*
G04 #@! TD.AperFunction*
G04 #@! TO.P,U2,1*
G04 #@! TO.N,GND*
G04 #@! TA.AperFunction,SMDPad,CuDef*
G36*
G01*
X5825000Y-9775000D02*
X5825000Y-9625000D01*
G75*
G02*
X5900000Y-9550000I75000J0D01*
G01*
X6600000Y-9550000D01*
G75*
G02*
X6675000Y-9625000I0J-75000D01*
G01*
X6675000Y-9775000D01*
G75*
G02*
X6600000Y-9850000I-75000J0D01*
G01*
X5900000Y-9850000D01*
G75*
G02*
X5825000Y-9775000I0J75000D01*
G01*
G37*
G04 #@! TD.AperFunction*
G04 #@! TD*
D12*
G04 #@! TO.P,U1,5*
G04 #@! TO.N,+3V3*
X8550000Y-930000D03*
G04 #@! TO.P,U1,4*
G04 #@! TO.N,N/C*
X8550000Y-2830000D03*
G04 #@! TO.P,U1,3*
G04 #@! TO.N,+5V*
X6350000Y-2830000D03*
G04 #@! TO.P,U1,2*
G04 #@! TO.N,GND*
X6350000Y-1880000D03*
G04 #@! TO.P,U1,1*
G04 #@! TO.N,+5V*
X6350000Y-930000D03*
G04 #@! TD*
D13*
G04 #@! TO.N,GND*
X3920000Y-17580000D03*
X11820000Y-14790000D03*
X12420000Y-5100000D03*
X9350000Y-4110000D03*
X4550000Y-3170000D03*
X4910000Y-8910000D03*
G04 #@! TO.N,/INT*
X13390000Y-15130000D03*
X10730000Y-12980000D03*
G04 #@! TO.N,/AD0*
X4820000Y-14830000D03*
G04 #@! TD*
D14*
G04 #@! TO.N,GND*
X9599288Y-14039990D02*
X10009990Y-14039990D01*
X8974990Y-13415692D02*
X9599288Y-14039990D01*
X8974990Y-12904990D02*
X8974990Y-13415692D01*
X8970000Y-12900000D02*
X8974990Y-12904990D01*
X8950000Y-12900000D02*
X8970000Y-12900000D01*
X10009990Y-14039990D02*
X10810000Y-14840000D01*
X7850000Y-14925000D02*
X9285000Y-16360000D01*
X7850000Y-14830000D02*
X7850000Y-14925000D01*
X9290000Y-16360000D02*
X10810000Y-14840000D01*
X9285000Y-16360000D02*
X9290000Y-16360000D01*
X10860000Y-14790000D02*
X10810000Y-14840000D01*
X11820000Y-14790000D02*
X10860000Y-14790000D01*
X10150000Y-8180000D02*
X10820000Y-7510000D01*
X10150000Y-9700000D02*
X10150000Y-8180000D01*
X6250000Y-9700000D02*
X5700000Y-9700000D01*
X5700000Y-9700000D02*
X4910000Y-8910000D01*
X4910000Y-8910000D02*
X4910000Y-8910000D01*
D15*
X4550000Y-2604315D02*
X4550000Y-3170000D01*
X5274315Y-1880000D02*
X4550000Y-2604315D01*
X6350000Y-1880000D02*
X5274315Y-1880000D01*
D14*
G04 #@! TO.N,Net-(D1-Pad2)*
X7807500Y-16397500D02*
X7845000Y-16360000D01*
X7807500Y-17880000D02*
X7807500Y-16397500D01*
D15*
G04 #@! TO.N,+5V*
X6180000Y-1100000D02*
X6350000Y-930000D01*
X1400000Y-1100000D02*
X6180000Y-1100000D01*
X6350000Y-4375000D02*
X6255000Y-4470000D01*
X6350000Y-2830000D02*
X6350000Y-4375000D01*
X7065002Y-930000D02*
X6350000Y-930000D01*
X7330001Y-1194999D02*
X7065002Y-930000D01*
X7330001Y-2565001D02*
X7330001Y-1194999D01*
X7065002Y-2830000D02*
X7330001Y-2565001D01*
X6350000Y-2830000D02*
X7065002Y-2830000D01*
D14*
G04 #@! TO.N,+3V3*
X10835000Y-16360000D02*
X11120000Y-16360000D01*
X12490000Y-12200000D02*
X12580000Y-12110000D01*
X10150000Y-12200000D02*
X12490000Y-12200000D01*
D15*
X7855000Y-7510000D02*
X7855000Y-5990000D01*
X7855000Y-5990000D02*
X9275000Y-5990000D01*
X11125010Y-1940010D02*
X10200000Y-1015000D01*
X11125010Y-4139990D02*
X11125010Y-1940010D01*
X9275000Y-5990000D02*
X11125010Y-4139990D01*
X8635000Y-1015000D02*
X8550000Y-930000D01*
X10200000Y-1015000D02*
X8635000Y-1015000D01*
X10200000Y-1015000D02*
X11735000Y-1015000D01*
X13705010Y-2985010D02*
X13705010Y-10984990D01*
X13705010Y-10984990D02*
X12580000Y-12110000D01*
X11735000Y-1015000D02*
X13705010Y-2985010D01*
D14*
X7190692Y-13650010D02*
X6340010Y-13650010D01*
X7450000Y-13390702D02*
X7190692Y-13650010D01*
X7450000Y-12900000D02*
X7450000Y-13390702D01*
X4094999Y-14481999D02*
X4926988Y-13650010D01*
X4094999Y-15178001D02*
X4094999Y-14481999D01*
X5276998Y-16360000D02*
X4094999Y-15178001D01*
X4926988Y-13650010D02*
X6340010Y-13650010D01*
X6195000Y-16360000D02*
X5276998Y-16360000D01*
X7044990Y-16809990D02*
X7044990Y-18361484D01*
X6595000Y-16360000D02*
X7044990Y-16809990D01*
X6195000Y-16360000D02*
X6595000Y-16360000D01*
X7044990Y-18361484D02*
X7366753Y-18683247D01*
X12580000Y-12110000D02*
X12580000Y-14615000D01*
X8511753Y-18683247D02*
X7366753Y-18683247D01*
X10835000Y-16360000D02*
X8511753Y-18683247D01*
X10835000Y-16360000D02*
X11810000Y-16360000D01*
X12580000Y-15590000D02*
X12580000Y-14615000D01*
X11810000Y-16360000D02*
X12580000Y-15590000D01*
G04 #@! TO.N,Net-(C6-Pad1)*
X8450000Y-14030000D02*
X9260000Y-14840000D01*
X8450000Y-12900000D02*
X8450000Y-14030000D01*
G04 #@! TO.N,Net-(C7-Pad1)*
X8950000Y-7830000D02*
X9270000Y-7510000D01*
X8950000Y-9000000D02*
X8950000Y-7830000D01*
G04 #@! TO.N,/SCL*
X6930010Y-6715010D02*
X6205000Y-5990000D01*
X6930010Y-7802488D02*
X6930010Y-6715010D01*
X7450000Y-8322478D02*
X6930010Y-7802488D01*
X7450000Y-9000000D02*
X7450000Y-8322478D01*
X1590000Y-5990000D02*
X1400000Y-6180000D01*
X6205000Y-5990000D02*
X1590000Y-5990000D01*
G04 #@! TO.N,/SDA*
X2610000Y-7510000D02*
X1400000Y-8720000D01*
X6205000Y-7510000D02*
X2610000Y-7510000D01*
X6950000Y-9000000D02*
X6730000Y-9000000D01*
X6205000Y-8475000D02*
X6205000Y-7510000D01*
X6730000Y-9000000D02*
X6205000Y-8475000D01*
G04 #@! TO.N,/INT*
X2602081Y-18880000D02*
X3372071Y-19649990D01*
X1400000Y-18880000D02*
X2602081Y-18880000D01*
X3372071Y-19649990D02*
X10230010Y-19649990D01*
X10230010Y-19649990D02*
X13390000Y-16490000D01*
X13390000Y-16490000D02*
X13390000Y-15130000D01*
X13390000Y-15130000D02*
X13390000Y-15130000D01*
X9530000Y-12980000D02*
X9450000Y-12900000D01*
X10730000Y-12980000D02*
X9530000Y-12980000D01*
G04 #@! TO.N,/AD0*
X6632522Y-14830000D02*
X6200000Y-14830000D01*
X7432532Y-14029990D02*
X6632522Y-14830000D01*
X7447122Y-14029990D02*
X7432532Y-14029990D01*
X7950000Y-13527112D02*
X7447122Y-14029990D01*
X7950000Y-12900000D02*
X7950000Y-13527112D01*
X6200000Y-14830000D02*
X4820000Y-14830000D01*
G04 #@! TO.N,/XCL*
X2300000Y-12900000D02*
X1400000Y-13800000D01*
X6950000Y-12900000D02*
X2300000Y-12900000D01*
G04 #@! TO.N,/XDA*
X2340000Y-12200000D02*
X1400000Y-11260000D01*
X6250000Y-12200000D02*
X2340000Y-12200000D01*
G04 #@! TD*
D16*
G04 #@! TO.N,GND*
X3583997Y-13918200D02*
X3554999Y-13941998D01*
X3531201Y-13970996D01*
X3531200Y-13970997D01*
X3460025Y-14057723D01*
X3389453Y-14189753D01*
X3376287Y-14233158D01*
X3345996Y-14333013D01*
X3334999Y-14444666D01*
X3334999Y-14444677D01*
X3331323Y-14481999D01*
X3334999Y-14519321D01*
X3334999Y-15140679D01*
X3331323Y-15178001D01*
X3334999Y-15215323D01*
X3334999Y-15215333D01*
X3345996Y-15326986D01*
X3389453Y-15470247D01*
X3460025Y-15602277D01*
X3491657Y-15640820D01*
X3554998Y-15718002D01*
X3584002Y-15741805D01*
X4713198Y-16871002D01*
X4736997Y-16900001D01*
X4765995Y-16923799D01*
X4852721Y-16994974D01*
X4984751Y-17065546D01*
X5128012Y-17109003D01*
X5227935Y-17118845D01*
X5205498Y-17160820D01*
X5169188Y-17280518D01*
X5156928Y-17405000D01*
X5160000Y-17594250D01*
X5318750Y-17753000D01*
X6105500Y-17753000D01*
X6105500Y-17733000D01*
X6284990Y-17733000D01*
X6284991Y-18027000D01*
X6105500Y-18027000D01*
X6105500Y-18007000D01*
X5318750Y-18007000D01*
X5160000Y-18165750D01*
X5156928Y-18355000D01*
X5169188Y-18479482D01*
X5205498Y-18599180D01*
X5264463Y-18709494D01*
X5343815Y-18806185D01*
X5440506Y-18885537D01*
X5448837Y-18889990D01*
X3686873Y-18889990D01*
X3165884Y-18369002D01*
X3142082Y-18339999D01*
X3026357Y-18245026D01*
X2894328Y-18174454D01*
X2751067Y-18130997D01*
X2680909Y-18124087D01*
X2553475Y-17933368D01*
X2346632Y-17726525D01*
X2172240Y-17610000D01*
X2346632Y-17493475D01*
X2553475Y-17286632D01*
X2715990Y-17043411D01*
X2827932Y-16773158D01*
X2885000Y-16486260D01*
X2885000Y-16193740D01*
X2827932Y-15906842D01*
X2715990Y-15636589D01*
X2553475Y-15393368D01*
X2346632Y-15186525D01*
X2172240Y-15070000D01*
X2346632Y-14953475D01*
X2553475Y-14746632D01*
X2715990Y-14503411D01*
X2827932Y-14233158D01*
X2885000Y-13946260D01*
X2885000Y-13660000D01*
X3842197Y-13660000D01*
X3583997Y-13918200D01*
G04 #@! TA.AperFunction,Conductor*
D17*
G36*
X3583997Y-13918200D02*
G01*
X3554999Y-13941998D01*
X3531201Y-13970996D01*
X3531200Y-13970997D01*
X3460025Y-14057723D01*
X3389453Y-14189753D01*
X3376287Y-14233158D01*
X3345996Y-14333013D01*
X3334999Y-14444666D01*
X3334999Y-14444677D01*
X3331323Y-14481999D01*
X3334999Y-14519321D01*
X3334999Y-15140679D01*
X3331323Y-15178001D01*
X3334999Y-15215323D01*
X3334999Y-15215333D01*
X3345996Y-15326986D01*
X3389453Y-15470247D01*
X3460025Y-15602277D01*
X3491657Y-15640820D01*
X3554998Y-15718002D01*
X3584002Y-15741805D01*
X4713198Y-16871002D01*
X4736997Y-16900001D01*
X4765995Y-16923799D01*
X4852721Y-16994974D01*
X4984751Y-17065546D01*
X5128012Y-17109003D01*
X5227935Y-17118845D01*
X5205498Y-17160820D01*
X5169188Y-17280518D01*
X5156928Y-17405000D01*
X5160000Y-17594250D01*
X5318750Y-17753000D01*
X6105500Y-17753000D01*
X6105500Y-17733000D01*
X6284990Y-17733000D01*
X6284991Y-18027000D01*
X6105500Y-18027000D01*
X6105500Y-18007000D01*
X5318750Y-18007000D01*
X5160000Y-18165750D01*
X5156928Y-18355000D01*
X5169188Y-18479482D01*
X5205498Y-18599180D01*
X5264463Y-18709494D01*
X5343815Y-18806185D01*
X5440506Y-18885537D01*
X5448837Y-18889990D01*
X3686873Y-18889990D01*
X3165884Y-18369002D01*
X3142082Y-18339999D01*
X3026357Y-18245026D01*
X2894328Y-18174454D01*
X2751067Y-18130997D01*
X2680909Y-18124087D01*
X2553475Y-17933368D01*
X2346632Y-17726525D01*
X2172240Y-17610000D01*
X2346632Y-17493475D01*
X2553475Y-17286632D01*
X2715990Y-17043411D01*
X2827932Y-16773158D01*
X2885000Y-16486260D01*
X2885000Y-16193740D01*
X2827932Y-15906842D01*
X2715990Y-15636589D01*
X2553475Y-15393368D01*
X2346632Y-15186525D01*
X2172240Y-15070000D01*
X2346632Y-14953475D01*
X2553475Y-14746632D01*
X2715990Y-14503411D01*
X2827932Y-14233158D01*
X2885000Y-13946260D01*
X2885000Y-13660000D01*
X3842197Y-13660000D01*
X3583997Y-13918200D01*
G37*
G04 #@! TD.AperFunction*
D16*
X9412000Y-16233000D02*
X9432000Y-16233000D01*
X9432000Y-16487000D01*
X9412000Y-16487000D01*
X9412000Y-16507000D01*
X9158000Y-16507000D01*
X9158000Y-16487000D01*
X9138000Y-16487000D01*
X9138000Y-16233000D01*
X9158000Y-16233000D01*
X9158000Y-16213000D01*
X9412000Y-16213000D01*
X9412000Y-16233000D01*
G04 #@! TA.AperFunction,Conductor*
D17*
G36*
X9412000Y-16233000D02*
G01*
X9432000Y-16233000D01*
X9432000Y-16487000D01*
X9412000Y-16487000D01*
X9412000Y-16507000D01*
X9158000Y-16507000D01*
X9158000Y-16487000D01*
X9138000Y-16487000D01*
X9138000Y-16233000D01*
X9158000Y-16233000D01*
X9158000Y-16213000D01*
X9412000Y-16213000D01*
X9412000Y-16233000D01*
G37*
G04 #@! TD.AperFunction*
D16*
X10937000Y-14713000D02*
X10957000Y-14713000D01*
X10957000Y-14967000D01*
X10937000Y-14967000D01*
X10937000Y-14987000D01*
X10683000Y-14987000D01*
X10683000Y-14967000D01*
X10663000Y-14967000D01*
X10663000Y-14713000D01*
X10683000Y-14713000D01*
X10683000Y-14693000D01*
X10937000Y-14693000D01*
X10937000Y-14713000D01*
G04 #@! TA.AperFunction,Conductor*
D17*
G36*
X10937000Y-14713000D02*
G01*
X10957000Y-14713000D01*
X10957000Y-14967000D01*
X10937000Y-14967000D01*
X10937000Y-14987000D01*
X10683000Y-14987000D01*
X10683000Y-14967000D01*
X10663000Y-14967000D01*
X10663000Y-14713000D01*
X10683000Y-14713000D01*
X10683000Y-14693000D01*
X10937000Y-14693000D01*
X10937000Y-14713000D01*
G37*
G04 #@! TD.AperFunction*
D16*
X7977000Y-14703000D02*
X7997000Y-14703000D01*
X7997000Y-14957000D01*
X7977000Y-14957000D01*
X7977000Y-14977000D01*
X7723000Y-14977000D01*
X7723000Y-14957000D01*
X7703000Y-14957000D01*
X7703000Y-14834324D01*
X7854324Y-14683000D01*
X7977000Y-14683000D01*
X7977000Y-14703000D01*
G04 #@! TA.AperFunction,Conductor*
D17*
G36*
X7977000Y-14703000D02*
G01*
X7997000Y-14703000D01*
X7997000Y-14957000D01*
X7977000Y-14957000D01*
X7977000Y-14977000D01*
X7723000Y-14977000D01*
X7723000Y-14957000D01*
X7703000Y-14957000D01*
X7703000Y-14834324D01*
X7854324Y-14683000D01*
X7977000Y-14683000D01*
X7977000Y-14703000D01*
G37*
G04 #@! TD.AperFunction*
D16*
X11820001Y-14712998D02*
X11736252Y-14712998D01*
X11820001Y-14629249D01*
X11820001Y-14712998D01*
G04 #@! TA.AperFunction,Conductor*
D17*
G36*
X11820001Y-14712998D02*
G01*
X11736252Y-14712998D01*
X11820001Y-14629249D01*
X11820001Y-14712998D01*
G37*
G04 #@! TD.AperFunction*
D16*
X5412394Y-8377606D02*
X5445000Y-8404365D01*
X5445000Y-8437677D01*
X5441324Y-8475000D01*
X5445000Y-8512322D01*
X5445000Y-8512332D01*
X5455997Y-8623985D01*
X5493238Y-8746754D01*
X5499454Y-8767246D01*
X5570026Y-8899276D01*
X5609871Y-8947826D01*
X5611869Y-8950261D01*
X5593477Y-8955414D01*
X5481928Y-9012006D01*
X5383562Y-9089274D01*
X5302161Y-9184247D01*
X5240853Y-9293275D01*
X5201992Y-9412170D01*
X5190000Y-9518250D01*
X5348750Y-9677000D01*
X5349645Y-9677000D01*
X5307102Y-9728838D01*
X5265982Y-9805768D01*
X5190000Y-9881750D01*
X5201462Y-9983141D01*
X5200629Y-9985887D01*
X5186928Y-10125000D01*
X5186928Y-10275000D01*
X5200629Y-10414113D01*
X5211515Y-10450000D01*
X5200629Y-10485887D01*
X5186928Y-10625000D01*
X5186928Y-10775000D01*
X5200629Y-10914113D01*
X5211515Y-10950000D01*
X5200629Y-10985887D01*
X5186928Y-11125000D01*
X5186928Y-11275000D01*
X5200629Y-11414113D01*
X5208482Y-11440000D01*
X2878289Y-11440000D01*
X2885000Y-11406260D01*
X2885000Y-11113740D01*
X2827932Y-10826842D01*
X2715990Y-10556589D01*
X2553475Y-10313368D01*
X2346632Y-10106525D01*
X2172240Y-9990000D01*
X2346632Y-9873475D01*
X2553475Y-9666632D01*
X2715990Y-9423411D01*
X2827932Y-9153158D01*
X2885000Y-8866260D01*
X2885000Y-8573740D01*
X2841210Y-8353593D01*
X2924803Y-8270000D01*
X5324084Y-8270000D01*
X5412394Y-8377606D01*
G04 #@! TA.AperFunction,Conductor*
D17*
G36*
X5412394Y-8377606D02*
G01*
X5445000Y-8404365D01*
X5445000Y-8437677D01*
X5441324Y-8475000D01*
X5445000Y-8512322D01*
X5445000Y-8512332D01*
X5455997Y-8623985D01*
X5493238Y-8746754D01*
X5499454Y-8767246D01*
X5570026Y-8899276D01*
X5609871Y-8947826D01*
X5611869Y-8950261D01*
X5593477Y-8955414D01*
X5481928Y-9012006D01*
X5383562Y-9089274D01*
X5302161Y-9184247D01*
X5240853Y-9293275D01*
X5201992Y-9412170D01*
X5190000Y-9518250D01*
X5348750Y-9677000D01*
X5349645Y-9677000D01*
X5307102Y-9728838D01*
X5265982Y-9805768D01*
X5190000Y-9881750D01*
X5201462Y-9983141D01*
X5200629Y-9985887D01*
X5186928Y-10125000D01*
X5186928Y-10275000D01*
X5200629Y-10414113D01*
X5211515Y-10450000D01*
X5200629Y-10485887D01*
X5186928Y-10625000D01*
X5186928Y-10775000D01*
X5200629Y-10914113D01*
X5211515Y-10950000D01*
X5200629Y-10985887D01*
X5186928Y-11125000D01*
X5186928Y-11275000D01*
X5200629Y-11414113D01*
X5208482Y-11440000D01*
X2878289Y-11440000D01*
X2885000Y-11406260D01*
X2885000Y-11113740D01*
X2827932Y-10826842D01*
X2715990Y-10556589D01*
X2553475Y-10313368D01*
X2346632Y-10106525D01*
X2172240Y-9990000D01*
X2346632Y-9873475D01*
X2553475Y-9666632D01*
X2715990Y-9423411D01*
X2827932Y-9153158D01*
X2885000Y-8866260D01*
X2885000Y-8573740D01*
X2841210Y-8353593D01*
X2924803Y-8270000D01*
X5324084Y-8270000D01*
X5412394Y-8377606D01*
G37*
G04 #@! TD.AperFunction*
D16*
X12820010Y-3351589D02*
X12820011Y-8120739D01*
X12707000Y-8233750D01*
X12707000Y-9283000D01*
X12727000Y-9283000D01*
X12727000Y-9537000D01*
X12707000Y-9537000D01*
X12707000Y-10586250D01*
X12779586Y-10658836D01*
X12666493Y-10771928D01*
X12154999Y-10771928D01*
X11981745Y-10788992D01*
X11815149Y-10839528D01*
X11661613Y-10921595D01*
X11527038Y-11032038D01*
X11416595Y-11166613D01*
X11334528Y-11320149D01*
X11298172Y-11440000D01*
X11191518Y-11440000D01*
X11199371Y-11414113D01*
X11213072Y-11275000D01*
X11213072Y-11125000D01*
X11199371Y-10985887D01*
X11188485Y-10950000D01*
X11199371Y-10914113D01*
X11213072Y-10775000D01*
X11213072Y-10625000D01*
X11199371Y-10485887D01*
X11188485Y-10450000D01*
X11199371Y-10414113D01*
X11213072Y-10275000D01*
X11213072Y-10125000D01*
X11211595Y-10110000D01*
X11266928Y-10110000D01*
X11279188Y-10234482D01*
X11315498Y-10354180D01*
X11374463Y-10464494D01*
X11453815Y-10561185D01*
X11550506Y-10640537D01*
X11660820Y-10699502D01*
X11780518Y-10735812D01*
X11905000Y-10748072D01*
X12294250Y-10745000D01*
X12453000Y-10586250D01*
X12453000Y-9537000D01*
X11428750Y-9537000D01*
X11270000Y-9695750D01*
X11266928Y-10110000D01*
X11211595Y-10110000D01*
X11199371Y-9985887D01*
X11198538Y-9983141D01*
X11210000Y-9881750D01*
X11134018Y-9805768D01*
X11092898Y-9728838D01*
X11050355Y-9677000D01*
X11051250Y-9677000D01*
X11210000Y-9518250D01*
X11198008Y-9412170D01*
X11159147Y-9293275D01*
X11097839Y-9184247D01*
X11016438Y-9089274D01*
X10918072Y-9012006D01*
X10806523Y-8955414D01*
X10686076Y-8921670D01*
X10561361Y-8912074D01*
X10435750Y-8915000D01*
X10277002Y-9073748D01*
X10277002Y-8915000D01*
X10238072Y-8915000D01*
X10238072Y-8650000D01*
X10233864Y-8607277D01*
X10245518Y-8610812D01*
X10370000Y-8623072D01*
X10534250Y-8620000D01*
X10693000Y-8461250D01*
X10693000Y-7637000D01*
X10947000Y-7637000D01*
X10947000Y-8461250D01*
X11105750Y-8620000D01*
X11270000Y-8623072D01*
X11275543Y-8622526D01*
X11266928Y-8710000D01*
X11270000Y-9124250D01*
X11428750Y-9283000D01*
X12453000Y-9283000D01*
X12453000Y-8233750D01*
X12294250Y-8075000D01*
X11905000Y-8071928D01*
X11899457Y-8072474D01*
X11908072Y-7985000D01*
X11905000Y-7795750D01*
X11746250Y-7637000D01*
X10947000Y-7637000D01*
X10693000Y-7637000D01*
X10673000Y-7637000D01*
X10673000Y-7383000D01*
X10693000Y-7383000D01*
X10693000Y-6946250D01*
X10698000Y-6941250D01*
X10698000Y-6558750D01*
X10947000Y-6558750D01*
X10947000Y-7383000D01*
X11746250Y-7383000D01*
X11905000Y-7224250D01*
X11908072Y-7035000D01*
X11895812Y-6910518D01*
X11859502Y-6790820D01*
X11840183Y-6754677D01*
X11864502Y-6709180D01*
X11900812Y-6589482D01*
X11913072Y-6465000D01*
X11910000Y-6275750D01*
X11751250Y-6117000D01*
X10952000Y-6117000D01*
X10952000Y-6553750D01*
X10947000Y-6558750D01*
X10698000Y-6558750D01*
X10698000Y-6117000D01*
X10678000Y-6117000D01*
X10678000Y-5863000D01*
X10698000Y-5863000D01*
X10698000Y-5843000D01*
X10952000Y-5843000D01*
X10952000Y-5863000D01*
X11751250Y-5863000D01*
X11910000Y-5704250D01*
X11913072Y-5515000D01*
X11900812Y-5390518D01*
X11864502Y-5270820D01*
X11805537Y-5160506D01*
X11726185Y-5063815D01*
X11629494Y-4984463D01*
X11566036Y-4950543D01*
X11720060Y-4796519D01*
X11753827Y-4768807D01*
X11793883Y-4720000D01*
X11864420Y-4634050D01*
X11864421Y-4634049D01*
X11946599Y-4480303D01*
X11997205Y-4313480D01*
X12010010Y-4183467D01*
X12010010Y-4183457D01*
X12014291Y-4139991D01*
X12010010Y-4096525D01*
X12010010Y-2541588D01*
X12820010Y-3351589D01*
G04 #@! TA.AperFunction,Conductor*
D17*
G36*
X12820010Y-3351589D02*
G01*
X12820011Y-8120739D01*
X12707000Y-8233750D01*
X12707000Y-9283000D01*
X12727000Y-9283000D01*
X12727000Y-9537000D01*
X12707000Y-9537000D01*
X12707000Y-10586250D01*
X12779586Y-10658836D01*
X12666493Y-10771928D01*
X12154999Y-10771928D01*
X11981745Y-10788992D01*
X11815149Y-10839528D01*
X11661613Y-10921595D01*
X11527038Y-11032038D01*
X11416595Y-11166613D01*
X11334528Y-11320149D01*
X11298172Y-11440000D01*
X11191518Y-11440000D01*
X11199371Y-11414113D01*
X11213072Y-11275000D01*
X11213072Y-11125000D01*
X11199371Y-10985887D01*
X11188485Y-10950000D01*
X11199371Y-10914113D01*
X11213072Y-10775000D01*
X11213072Y-10625000D01*
X11199371Y-10485887D01*
X11188485Y-10450000D01*
X11199371Y-10414113D01*
X11213072Y-10275000D01*
X11213072Y-10125000D01*
X11211595Y-10110000D01*
X11266928Y-10110000D01*
X11279188Y-10234482D01*
X11315498Y-10354180D01*
X11374463Y-10464494D01*
X11453815Y-10561185D01*
X11550506Y-10640537D01*
X11660820Y-10699502D01*
X11780518Y-10735812D01*
X11905000Y-10748072D01*
X12294250Y-10745000D01*
X12453000Y-10586250D01*
X12453000Y-9537000D01*
X11428750Y-9537000D01*
X11270000Y-9695750D01*
X11266928Y-10110000D01*
X11211595Y-10110000D01*
X11199371Y-9985887D01*
X11198538Y-9983141D01*
X11210000Y-9881750D01*
X11134018Y-9805768D01*
X11092898Y-9728838D01*
X11050355Y-9677000D01*
X11051250Y-9677000D01*
X11210000Y-9518250D01*
X11198008Y-9412170D01*
X11159147Y-9293275D01*
X11097839Y-9184247D01*
X11016438Y-9089274D01*
X10918072Y-9012006D01*
X10806523Y-8955414D01*
X10686076Y-8921670D01*
X10561361Y-8912074D01*
X10435750Y-8915000D01*
X10277002Y-9073748D01*
X10277002Y-8915000D01*
X10238072Y-8915000D01*
X10238072Y-8650000D01*
X10233864Y-8607277D01*
X10245518Y-8610812D01*
X10370000Y-8623072D01*
X10534250Y-8620000D01*
X10693000Y-8461250D01*
X10693000Y-7637000D01*
X10947000Y-7637000D01*
X10947000Y-8461250D01*
X11105750Y-8620000D01*
X11270000Y-8623072D01*
X11275543Y-8622526D01*
X11266928Y-8710000D01*
X11270000Y-9124250D01*
X11428750Y-9283000D01*
X12453000Y-9283000D01*
X12453000Y-8233750D01*
X12294250Y-8075000D01*
X11905000Y-8071928D01*
X11899457Y-8072474D01*
X11908072Y-7985000D01*
X11905000Y-7795750D01*
X11746250Y-7637000D01*
X10947000Y-7637000D01*
X10693000Y-7637000D01*
X10673000Y-7637000D01*
X10673000Y-7383000D01*
X10693000Y-7383000D01*
X10693000Y-6946250D01*
X10698000Y-6941250D01*
X10698000Y-6558750D01*
X10947000Y-6558750D01*
X10947000Y-7383000D01*
X11746250Y-7383000D01*
X11905000Y-7224250D01*
X11908072Y-7035000D01*
X11895812Y-6910518D01*
X11859502Y-6790820D01*
X11840183Y-6754677D01*
X11864502Y-6709180D01*
X11900812Y-6589482D01*
X11913072Y-6465000D01*
X11910000Y-6275750D01*
X11751250Y-6117000D01*
X10952000Y-6117000D01*
X10952000Y-6553750D01*
X10947000Y-6558750D01*
X10698000Y-6558750D01*
X10698000Y-6117000D01*
X10678000Y-6117000D01*
X10678000Y-5863000D01*
X10698000Y-5863000D01*
X10698000Y-5843000D01*
X10952000Y-5843000D01*
X10952000Y-5863000D01*
X11751250Y-5863000D01*
X11910000Y-5704250D01*
X11913072Y-5515000D01*
X11900812Y-5390518D01*
X11864502Y-5270820D01*
X11805537Y-5160506D01*
X11726185Y-5063815D01*
X11629494Y-4984463D01*
X11566036Y-4950543D01*
X11720060Y-4796519D01*
X11753827Y-4768807D01*
X11793883Y-4720000D01*
X11864420Y-4634050D01*
X11864421Y-4634049D01*
X11946599Y-4480303D01*
X11997205Y-4313480D01*
X12010010Y-4183467D01*
X12010010Y-4183457D01*
X12014291Y-4139991D01*
X12010010Y-4096525D01*
X12010010Y-2541588D01*
X12820010Y-3351589D01*
G37*
G04 #@! TD.AperFunction*
D16*
X5185000Y-2007002D02*
X5343748Y-2007002D01*
X5185000Y-2165750D01*
X5181928Y-2205000D01*
X5194188Y-2329482D01*
X5201929Y-2355000D01*
X5194188Y-2380518D01*
X5181928Y-2505000D01*
X5181928Y-3155000D01*
X5194188Y-3279482D01*
X5230498Y-3399180D01*
X5289463Y-3509494D01*
X5368815Y-3606185D01*
X5400962Y-3632568D01*
X5312382Y-3740503D01*
X5232625Y-3889717D01*
X5183512Y-4051623D01*
X5166928Y-4220000D01*
X5166928Y-4720000D01*
X5183512Y-4888377D01*
X5232625Y-5050283D01*
X5312382Y-5199497D01*
X5330749Y-5221878D01*
X5324084Y-5230000D01*
X2550107Y-5230000D01*
X2346632Y-5026525D01*
X2164466Y-4904805D01*
X2281355Y-4835178D01*
X2497588Y-4640269D01*
X2671641Y-4406920D01*
X2796825Y-4144099D01*
X2841476Y-3996890D01*
X2720155Y-3767000D01*
X1527000Y-3767000D01*
X1527000Y-3787000D01*
X1273000Y-3787000D01*
X1273000Y-3767000D01*
X1253000Y-3767000D01*
X1253000Y-3513000D01*
X1273000Y-3513000D01*
X1273000Y-3493000D01*
X1527000Y-3493000D01*
X1527000Y-3513000D01*
X2720155Y-3513000D01*
X2841476Y-3283110D01*
X2796825Y-3135901D01*
X2671641Y-2873080D01*
X2497588Y-2639731D01*
X2413534Y-2563966D01*
X2494180Y-2539502D01*
X2604494Y-2480537D01*
X2701185Y-2401185D01*
X2780537Y-2304494D01*
X2839502Y-2194180D01*
X2875812Y-2074482D01*
X2884625Y-1985000D01*
X5185000Y-1985000D01*
X5185000Y-2007002D01*
G04 #@! TA.AperFunction,Conductor*
D17*
G36*
X5185000Y-2007002D02*
G01*
X5343748Y-2007002D01*
X5185000Y-2165750D01*
X5181928Y-2205000D01*
X5194188Y-2329482D01*
X5201929Y-2355000D01*
X5194188Y-2380518D01*
X5181928Y-2505000D01*
X5181928Y-3155000D01*
X5194188Y-3279482D01*
X5230498Y-3399180D01*
X5289463Y-3509494D01*
X5368815Y-3606185D01*
X5400962Y-3632568D01*
X5312382Y-3740503D01*
X5232625Y-3889717D01*
X5183512Y-4051623D01*
X5166928Y-4220000D01*
X5166928Y-4720000D01*
X5183512Y-4888377D01*
X5232625Y-5050283D01*
X5312382Y-5199497D01*
X5330749Y-5221878D01*
X5324084Y-5230000D01*
X2550107Y-5230000D01*
X2346632Y-5026525D01*
X2164466Y-4904805D01*
X2281355Y-4835178D01*
X2497588Y-4640269D01*
X2671641Y-4406920D01*
X2796825Y-4144099D01*
X2841476Y-3996890D01*
X2720155Y-3767000D01*
X1527000Y-3767000D01*
X1527000Y-3787000D01*
X1273000Y-3787000D01*
X1273000Y-3767000D01*
X1253000Y-3767000D01*
X1253000Y-3513000D01*
X1273000Y-3513000D01*
X1273000Y-3493000D01*
X1527000Y-3493000D01*
X1527000Y-3513000D01*
X2720155Y-3513000D01*
X2841476Y-3283110D01*
X2796825Y-3135901D01*
X2671641Y-2873080D01*
X2497588Y-2639731D01*
X2413534Y-2563966D01*
X2494180Y-2539502D01*
X2604494Y-2480537D01*
X2701185Y-2401185D01*
X2780537Y-2304494D01*
X2839502Y-2194180D01*
X2875812Y-2074482D01*
X2884625Y-1985000D01*
X5185000Y-1985000D01*
X5185000Y-2007002D01*
G37*
G04 #@! TD.AperFunction*
D16*
X10240010Y-3773411D02*
X9136494Y-4876928D01*
X9050000Y-4876928D01*
X8892219Y-4892468D01*
X8890000Y-4755750D01*
X8731250Y-4597000D01*
X7932000Y-4597000D01*
X7932000Y-4617000D01*
X7678000Y-4617000D01*
X7678000Y-4597000D01*
X7658000Y-4597000D01*
X7658000Y-4343000D01*
X7678000Y-4343000D01*
X7678000Y-4323000D01*
X7932000Y-4323000D01*
X7932000Y-4343000D01*
X8731250Y-4343000D01*
X8890000Y-4184250D01*
X8893072Y-3995000D01*
X8880812Y-3870518D01*
X8857319Y-3793072D01*
X9080000Y-3793072D01*
X9204482Y-3780812D01*
X9324180Y-3744502D01*
X9434494Y-3685537D01*
X9519090Y-3616111D01*
X9600518Y-3640812D01*
X9725000Y-3653072D01*
X9914250Y-3650000D01*
X10073000Y-3491250D01*
X10073000Y-2692000D01*
X10053000Y-2692000D01*
X10053000Y-2438000D01*
X10073000Y-2438000D01*
X10073000Y-2418000D01*
X10240011Y-2418000D01*
X10240010Y-3773411D01*
G04 #@! TA.AperFunction,Conductor*
D17*
G36*
X10240010Y-3773411D02*
G01*
X9136494Y-4876928D01*
X9050000Y-4876928D01*
X8892219Y-4892468D01*
X8890000Y-4755750D01*
X8731250Y-4597000D01*
X7932000Y-4597000D01*
X7932000Y-4617000D01*
X7678000Y-4617000D01*
X7678000Y-4597000D01*
X7658000Y-4597000D01*
X7658000Y-4343000D01*
X7678000Y-4343000D01*
X7678000Y-4323000D01*
X7932000Y-4323000D01*
X7932000Y-4343000D01*
X8731250Y-4343000D01*
X8890000Y-4184250D01*
X8893072Y-3995000D01*
X8880812Y-3870518D01*
X8857319Y-3793072D01*
X9080000Y-3793072D01*
X9204482Y-3780812D01*
X9324180Y-3744502D01*
X9434494Y-3685537D01*
X9519090Y-3616111D01*
X9600518Y-3640812D01*
X9725000Y-3653072D01*
X9914250Y-3650000D01*
X10073000Y-3491250D01*
X10073000Y-2692000D01*
X10053000Y-2692000D01*
X10053000Y-2438000D01*
X10073000Y-2438000D01*
X10073000Y-2418000D01*
X10240011Y-2418000D01*
X10240010Y-3773411D01*
G37*
G04 #@! TD.AperFunction*
G04 #@! TD*
M02*
