G04 #@! TF.GenerationSoftware,KiCad,Pcbnew,(5.1.12)-1*
G04 #@! TF.CreationDate,2022-10-01T18:20:28+09:00*
G04 #@! TF.ProjectId,AT,41542e6b-6963-4616-945f-706362585858,rev?*
G04 #@! TF.SameCoordinates,PX6146580PY496ed40*
G04 #@! TF.FileFunction,Legend,Top*
G04 #@! TF.FilePolarity,Positive*
%FSLAX46Y46*%
G04 Gerber Fmt 4.6, Leading zero omitted, Abs format (unit mm)*
G04 Created by KiCad (PCBNEW (5.1.12)-1) date 2022-10-01 18:20:28*
%MOMM*%
%LPD*%
G01*
G04 APERTURE LIST*
%ADD10C,0.250000*%
%ADD11C,0.120000*%
%ADD12C,0.150000*%
%ADD13O,1.900000X1.900000*%
G04 APERTURE END LIST*
D10*
X3035238Y-19352380D02*
X3035238Y-18352380D01*
X3511428Y-19352380D02*
X3511428Y-18352380D01*
X4082857Y-19352380D01*
X4082857Y-18352380D01*
X4416190Y-18352380D02*
X4987619Y-18352380D01*
X4701904Y-19352380D02*
X4701904Y-18352380D01*
X2701904Y-16566666D02*
X3178095Y-16566666D01*
X2606666Y-16852380D02*
X2940000Y-15852380D01*
X3273333Y-16852380D01*
X3797142Y-15852380D02*
X3987619Y-15852380D01*
X4082857Y-15900000D01*
X4178095Y-15995238D01*
X4225714Y-16185714D01*
X4225714Y-16519047D01*
X4178095Y-16709523D01*
X4082857Y-16804761D01*
X3987619Y-16852380D01*
X3797142Y-16852380D01*
X3701904Y-16804761D01*
X3606666Y-16709523D01*
X3559047Y-16519047D01*
X3559047Y-16185714D01*
X3606666Y-15995238D01*
X3701904Y-15900000D01*
X3797142Y-15852380D01*
X4844761Y-15852380D02*
X4940000Y-15852380D01*
X5035238Y-15900000D01*
X5082857Y-15947619D01*
X5130476Y-16042857D01*
X5178095Y-16233333D01*
X5178095Y-16471428D01*
X5130476Y-16661904D01*
X5082857Y-16757142D01*
X5035238Y-16804761D01*
X4940000Y-16852380D01*
X4844761Y-16852380D01*
X4749523Y-16804761D01*
X4701904Y-16757142D01*
X4654285Y-16661904D01*
X4606666Y-16471428D01*
X4606666Y-16233333D01*
X4654285Y-16042857D01*
X4701904Y-15947619D01*
X4749523Y-15900000D01*
X4844761Y-15852380D01*
X2701904Y-13352380D02*
X3368571Y-14352380D01*
X3368571Y-13352380D02*
X2701904Y-14352380D01*
X4320952Y-14257142D02*
X4273333Y-14304761D01*
X4130476Y-14352380D01*
X4035238Y-14352380D01*
X3892380Y-14304761D01*
X3797142Y-14209523D01*
X3749523Y-14114285D01*
X3701904Y-13923809D01*
X3701904Y-13780952D01*
X3749523Y-13590476D01*
X3797142Y-13495238D01*
X3892380Y-13400000D01*
X4035238Y-13352380D01*
X4130476Y-13352380D01*
X4273333Y-13400000D01*
X4320952Y-13447619D01*
X5225714Y-14352380D02*
X4749523Y-14352380D01*
X4749523Y-13352380D01*
X2678095Y-10752380D02*
X3344761Y-11752380D01*
X3344761Y-10752380D02*
X2678095Y-11752380D01*
X3725714Y-11752380D02*
X3725714Y-10752380D01*
X3963809Y-10752380D01*
X4106666Y-10800000D01*
X4201904Y-10895238D01*
X4249523Y-10990476D01*
X4297142Y-11180952D01*
X4297142Y-11323809D01*
X4249523Y-11514285D01*
X4201904Y-11609523D01*
X4106666Y-11704761D01*
X3963809Y-11752380D01*
X3725714Y-11752380D01*
X4678095Y-11466666D02*
X5154285Y-11466666D01*
X4582857Y-11752380D02*
X4916190Y-10752380D01*
X5249523Y-11752380D01*
X2725714Y-9204761D02*
X2868571Y-9252380D01*
X3106666Y-9252380D01*
X3201904Y-9204761D01*
X3249523Y-9157142D01*
X3297142Y-9061904D01*
X3297142Y-8966666D01*
X3249523Y-8871428D01*
X3201904Y-8823809D01*
X3106666Y-8776190D01*
X2916190Y-8728571D01*
X2820952Y-8680952D01*
X2773333Y-8633333D01*
X2725714Y-8538095D01*
X2725714Y-8442857D01*
X2773333Y-8347619D01*
X2820952Y-8300000D01*
X2916190Y-8252380D01*
X3154285Y-8252380D01*
X3297142Y-8300000D01*
X3725714Y-9252380D02*
X3725714Y-8252380D01*
X3963809Y-8252380D01*
X4106666Y-8300000D01*
X4201904Y-8395238D01*
X4249523Y-8490476D01*
X4297142Y-8680952D01*
X4297142Y-8823809D01*
X4249523Y-9014285D01*
X4201904Y-9109523D01*
X4106666Y-9204761D01*
X3963809Y-9252380D01*
X3725714Y-9252380D01*
X4678095Y-8966666D02*
X5154285Y-8966666D01*
X4582857Y-9252380D02*
X4916190Y-8252380D01*
X5249523Y-9252380D01*
X2749523Y-6704761D02*
X2892380Y-6752380D01*
X3130476Y-6752380D01*
X3225714Y-6704761D01*
X3273333Y-6657142D01*
X3320952Y-6561904D01*
X3320952Y-6466666D01*
X3273333Y-6371428D01*
X3225714Y-6323809D01*
X3130476Y-6276190D01*
X2940000Y-6228571D01*
X2844761Y-6180952D01*
X2797142Y-6133333D01*
X2749523Y-6038095D01*
X2749523Y-5942857D01*
X2797142Y-5847619D01*
X2844761Y-5800000D01*
X2940000Y-5752380D01*
X3178095Y-5752380D01*
X3320952Y-5800000D01*
X4320952Y-6657142D02*
X4273333Y-6704761D01*
X4130476Y-6752380D01*
X4035238Y-6752380D01*
X3892380Y-6704761D01*
X3797142Y-6609523D01*
X3749523Y-6514285D01*
X3701904Y-6323809D01*
X3701904Y-6180952D01*
X3749523Y-5990476D01*
X3797142Y-5895238D01*
X3892380Y-5800000D01*
X4035238Y-5752380D01*
X4130476Y-5752380D01*
X4273333Y-5800000D01*
X4320952Y-5847619D01*
X5225714Y-6752380D02*
X4749523Y-6752380D01*
X4749523Y-5752380D01*
X3178095Y-3200000D02*
X3082857Y-3152380D01*
X2940000Y-3152380D01*
X2797142Y-3200000D01*
X2701904Y-3295238D01*
X2654285Y-3390476D01*
X2606666Y-3580952D01*
X2606666Y-3723809D01*
X2654285Y-3914285D01*
X2701904Y-4009523D01*
X2797142Y-4104761D01*
X2940000Y-4152380D01*
X3035238Y-4152380D01*
X3178095Y-4104761D01*
X3225714Y-4057142D01*
X3225714Y-3723809D01*
X3035238Y-3723809D01*
X3654285Y-4152380D02*
X3654285Y-3152380D01*
X4225714Y-4152380D01*
X4225714Y-3152380D01*
X4701904Y-4152380D02*
X4701904Y-3152380D01*
X4940000Y-3152380D01*
X5082857Y-3200000D01*
X5178095Y-3295238D01*
X5225714Y-3390476D01*
X5273333Y-3580952D01*
X5273333Y-3723809D01*
X5225714Y-3914285D01*
X5178095Y-4009523D01*
X5082857Y-4104761D01*
X4940000Y-4152380D01*
X4701904Y-4152380D01*
X2606666Y-652380D02*
X2940000Y-1652380D01*
X3273333Y-652380D01*
X4178095Y-1557142D02*
X4130476Y-1604761D01*
X3987619Y-1652380D01*
X3892380Y-1652380D01*
X3749523Y-1604761D01*
X3654285Y-1509523D01*
X3606666Y-1414285D01*
X3559047Y-1223809D01*
X3559047Y-1080952D01*
X3606666Y-890476D01*
X3654285Y-795238D01*
X3749523Y-700000D01*
X3892380Y-652380D01*
X3987619Y-652380D01*
X4130476Y-700000D01*
X4178095Y-747619D01*
X5178095Y-1557142D02*
X5130476Y-1604761D01*
X4987619Y-1652380D01*
X4892380Y-1652380D01*
X4749523Y-1604761D01*
X4654285Y-1509523D01*
X4606666Y-1414285D01*
X4559047Y-1223809D01*
X4559047Y-1080952D01*
X4606666Y-890476D01*
X4654285Y-795238D01*
X4749523Y-700000D01*
X4892380Y-652380D01*
X4987619Y-652380D01*
X5130476Y-700000D01*
X5178095Y-747619D01*
D11*
G04 #@! TO.C,C6*
X9894420Y-15350000D02*
X10175580Y-15350000D01*
X9894420Y-14330000D02*
X10175580Y-14330000D01*
G04 #@! TO.C,D1*
X5535000Y-18615000D02*
X7820000Y-18615000D01*
X5535000Y-17145000D02*
X5535000Y-18615000D01*
X7820000Y-17145000D02*
X5535000Y-17145000D01*
G04 #@! TO.C,R4*
X6787742Y-15352500D02*
X7262258Y-15352500D01*
X6787742Y-14307500D02*
X7262258Y-14307500D01*
G04 #@! TO.C,R3*
X7257258Y-15837500D02*
X6782742Y-15837500D01*
X7257258Y-16882500D02*
X6782742Y-16882500D01*
G04 #@! TO.C,R2*
X6792742Y-8032500D02*
X7267258Y-8032500D01*
X6792742Y-6987500D02*
X7267258Y-6987500D01*
G04 #@! TO.C,R1*
X6792742Y-6512500D02*
X7267258Y-6512500D01*
X6792742Y-5467500D02*
X7267258Y-5467500D01*
G04 #@! TO.C,C7*
X9904420Y-8020000D02*
X10185580Y-8020000D01*
X9904420Y-7000000D02*
X10185580Y-7000000D01*
G04 #@! TO.C,C5*
X10710000Y-1930580D02*
X10710000Y-1649420D01*
X9690000Y-1930580D02*
X9690000Y-1649420D01*
G04 #@! TO.C,C4*
X10200580Y-15850000D02*
X9919420Y-15850000D01*
X10200580Y-16870000D02*
X9919420Y-16870000D01*
G04 #@! TO.C,C3*
X9909420Y-6500000D02*
X10190580Y-6500000D01*
X9909420Y-5480000D02*
X10190580Y-5480000D01*
G04 #@! TO.C,C1*
X6889420Y-4980000D02*
X7170580Y-4980000D01*
X6889420Y-3960000D02*
X7170580Y-3960000D01*
G04 #@! TO.C,C2*
X13515000Y-13070000D02*
X13515000Y-9160000D01*
X11645000Y-13070000D02*
X13515000Y-13070000D01*
X11645000Y-9160000D02*
X11645000Y-13070000D01*
D12*
G04 #@! TO.C,U2*
X10350000Y-8800000D02*
X9825000Y-8800000D01*
X10350000Y-13100000D02*
X9825000Y-13100000D01*
X6050000Y-13100000D02*
X6575000Y-13100000D01*
X6050000Y-8800000D02*
X6575000Y-8800000D01*
X10350000Y-13100000D02*
X10350000Y-12575000D01*
X6050000Y-13100000D02*
X6050000Y-12575000D01*
X10350000Y-8800000D02*
X10350000Y-9325000D01*
D11*
G04 #@! TO.C,U1*
X8350000Y-270000D02*
X5900000Y-270000D01*
X6550000Y-3490000D02*
X8350000Y-3490000D01*
G04 #@! TO.C,C6*
D12*
X9868333Y-13767142D02*
X9820714Y-13814761D01*
X9677857Y-13862380D01*
X9582619Y-13862380D01*
X9439761Y-13814761D01*
X9344523Y-13719523D01*
X9296904Y-13624285D01*
X9249285Y-13433809D01*
X9249285Y-13290952D01*
X9296904Y-13100476D01*
X9344523Y-13005238D01*
X9439761Y-12910000D01*
X9582619Y-12862380D01*
X9677857Y-12862380D01*
X9820714Y-12910000D01*
X9868333Y-12957619D01*
X10725476Y-12862380D02*
X10535000Y-12862380D01*
X10439761Y-12910000D01*
X10392142Y-12957619D01*
X10296904Y-13100476D01*
X10249285Y-13290952D01*
X10249285Y-13671904D01*
X10296904Y-13767142D01*
X10344523Y-13814761D01*
X10439761Y-13862380D01*
X10630238Y-13862380D01*
X10725476Y-13814761D01*
X10773095Y-13767142D01*
X10820714Y-13671904D01*
X10820714Y-13433809D01*
X10773095Y-13338571D01*
X10725476Y-13290952D01*
X10630238Y-13243333D01*
X10439761Y-13243333D01*
X10344523Y-13290952D01*
X10296904Y-13338571D01*
X10249285Y-13433809D01*
G04 #@! TO.C,D1*
X6281904Y-16902380D02*
X6281904Y-15902380D01*
X6520000Y-15902380D01*
X6662857Y-15950000D01*
X6758095Y-16045238D01*
X6805714Y-16140476D01*
X6853333Y-16330952D01*
X6853333Y-16473809D01*
X6805714Y-16664285D01*
X6758095Y-16759523D01*
X6662857Y-16854761D01*
X6520000Y-16902380D01*
X6281904Y-16902380D01*
X7805714Y-16902380D02*
X7234285Y-16902380D01*
X7520000Y-16902380D02*
X7520000Y-15902380D01*
X7424761Y-16045238D01*
X7329523Y-16140476D01*
X7234285Y-16188095D01*
G04 #@! TO.C,R4*
X6858333Y-13852380D02*
X6525000Y-13376190D01*
X6286904Y-13852380D02*
X6286904Y-12852380D01*
X6667857Y-12852380D01*
X6763095Y-12900000D01*
X6810714Y-12947619D01*
X6858333Y-13042857D01*
X6858333Y-13185714D01*
X6810714Y-13280952D01*
X6763095Y-13328571D01*
X6667857Y-13376190D01*
X6286904Y-13376190D01*
X7715476Y-13185714D02*
X7715476Y-13852380D01*
X7477380Y-12804761D02*
X7239285Y-13519047D01*
X7858333Y-13519047D01*
G04 #@! TO.C,R3*
X6853333Y-18242380D02*
X6520000Y-17766190D01*
X6281904Y-18242380D02*
X6281904Y-17242380D01*
X6662857Y-17242380D01*
X6758095Y-17290000D01*
X6805714Y-17337619D01*
X6853333Y-17432857D01*
X6853333Y-17575714D01*
X6805714Y-17670952D01*
X6758095Y-17718571D01*
X6662857Y-17766190D01*
X6281904Y-17766190D01*
X7186666Y-17242380D02*
X7805714Y-17242380D01*
X7472380Y-17623333D01*
X7615238Y-17623333D01*
X7710476Y-17670952D01*
X7758095Y-17718571D01*
X7805714Y-17813809D01*
X7805714Y-18051904D01*
X7758095Y-18147142D01*
X7710476Y-18194761D01*
X7615238Y-18242380D01*
X7329523Y-18242380D01*
X7234285Y-18194761D01*
X7186666Y-18147142D01*
G04 #@! TO.C,R2*
X6863333Y-6532380D02*
X6530000Y-6056190D01*
X6291904Y-6532380D02*
X6291904Y-5532380D01*
X6672857Y-5532380D01*
X6768095Y-5580000D01*
X6815714Y-5627619D01*
X6863333Y-5722857D01*
X6863333Y-5865714D01*
X6815714Y-5960952D01*
X6768095Y-6008571D01*
X6672857Y-6056190D01*
X6291904Y-6056190D01*
X7244285Y-5627619D02*
X7291904Y-5580000D01*
X7387142Y-5532380D01*
X7625238Y-5532380D01*
X7720476Y-5580000D01*
X7768095Y-5627619D01*
X7815714Y-5722857D01*
X7815714Y-5818095D01*
X7768095Y-5960952D01*
X7196666Y-6532380D01*
X7815714Y-6532380D01*
G04 #@! TO.C,R1*
X6863333Y-5012380D02*
X6530000Y-4536190D01*
X6291904Y-5012380D02*
X6291904Y-4012380D01*
X6672857Y-4012380D01*
X6768095Y-4060000D01*
X6815714Y-4107619D01*
X6863333Y-4202857D01*
X6863333Y-4345714D01*
X6815714Y-4440952D01*
X6768095Y-4488571D01*
X6672857Y-4536190D01*
X6291904Y-4536190D01*
X7815714Y-5012380D02*
X7244285Y-5012380D01*
X7530000Y-5012380D02*
X7530000Y-4012380D01*
X7434761Y-4155238D01*
X7339523Y-4250476D01*
X7244285Y-4298095D01*
G04 #@! TO.C,C7*
X9878333Y-6437142D02*
X9830714Y-6484761D01*
X9687857Y-6532380D01*
X9592619Y-6532380D01*
X9449761Y-6484761D01*
X9354523Y-6389523D01*
X9306904Y-6294285D01*
X9259285Y-6103809D01*
X9259285Y-5960952D01*
X9306904Y-5770476D01*
X9354523Y-5675238D01*
X9449761Y-5580000D01*
X9592619Y-5532380D01*
X9687857Y-5532380D01*
X9830714Y-5580000D01*
X9878333Y-5627619D01*
X10211666Y-5532380D02*
X10878333Y-5532380D01*
X10449761Y-6532380D01*
G04 #@! TO.C,C5*
X9127142Y-1956666D02*
X9174761Y-2004285D01*
X9222380Y-2147142D01*
X9222380Y-2242380D01*
X9174761Y-2385238D01*
X9079523Y-2480476D01*
X8984285Y-2528095D01*
X8793809Y-2575714D01*
X8650952Y-2575714D01*
X8460476Y-2528095D01*
X8365238Y-2480476D01*
X8270000Y-2385238D01*
X8222380Y-2242380D01*
X8222380Y-2147142D01*
X8270000Y-2004285D01*
X8317619Y-1956666D01*
X8222380Y-1051904D02*
X8222380Y-1528095D01*
X8698571Y-1575714D01*
X8650952Y-1528095D01*
X8603333Y-1432857D01*
X8603333Y-1194761D01*
X8650952Y-1099523D01*
X8698571Y-1051904D01*
X8793809Y-1004285D01*
X9031904Y-1004285D01*
X9127142Y-1051904D01*
X9174761Y-1099523D01*
X9222380Y-1194761D01*
X9222380Y-1432857D01*
X9174761Y-1528095D01*
X9127142Y-1575714D01*
G04 #@! TO.C,C4*
X9893333Y-18147142D02*
X9845714Y-18194761D01*
X9702857Y-18242380D01*
X9607619Y-18242380D01*
X9464761Y-18194761D01*
X9369523Y-18099523D01*
X9321904Y-18004285D01*
X9274285Y-17813809D01*
X9274285Y-17670952D01*
X9321904Y-17480476D01*
X9369523Y-17385238D01*
X9464761Y-17290000D01*
X9607619Y-17242380D01*
X9702857Y-17242380D01*
X9845714Y-17290000D01*
X9893333Y-17337619D01*
X10750476Y-17575714D02*
X10750476Y-18242380D01*
X10512380Y-17194761D02*
X10274285Y-17909047D01*
X10893333Y-17909047D01*
G04 #@! TO.C,C3*
X9883333Y-4917142D02*
X9835714Y-4964761D01*
X9692857Y-5012380D01*
X9597619Y-5012380D01*
X9454761Y-4964761D01*
X9359523Y-4869523D01*
X9311904Y-4774285D01*
X9264285Y-4583809D01*
X9264285Y-4440952D01*
X9311904Y-4250476D01*
X9359523Y-4155238D01*
X9454761Y-4060000D01*
X9597619Y-4012380D01*
X9692857Y-4012380D01*
X9835714Y-4060000D01*
X9883333Y-4107619D01*
X10216666Y-4012380D02*
X10835714Y-4012380D01*
X10502380Y-4393333D01*
X10645238Y-4393333D01*
X10740476Y-4440952D01*
X10788095Y-4488571D01*
X10835714Y-4583809D01*
X10835714Y-4821904D01*
X10788095Y-4917142D01*
X10740476Y-4964761D01*
X10645238Y-5012380D01*
X10359523Y-5012380D01*
X10264285Y-4964761D01*
X10216666Y-4917142D01*
G04 #@! TO.C,C1*
X6863333Y-3397142D02*
X6815714Y-3444761D01*
X6672857Y-3492380D01*
X6577619Y-3492380D01*
X6434761Y-3444761D01*
X6339523Y-3349523D01*
X6291904Y-3254285D01*
X6244285Y-3063809D01*
X6244285Y-2920952D01*
X6291904Y-2730476D01*
X6339523Y-2635238D01*
X6434761Y-2540000D01*
X6577619Y-2492380D01*
X6672857Y-2492380D01*
X6815714Y-2540000D01*
X6863333Y-2587619D01*
X7815714Y-3492380D02*
X7244285Y-3492380D01*
X7530000Y-3492380D02*
X7530000Y-2492380D01*
X7434761Y-2635238D01*
X7339523Y-2730476D01*
X7244285Y-2778095D01*
G04 #@! TO.C,C2*
X11187142Y-10926666D02*
X11234761Y-10974285D01*
X11282380Y-11117142D01*
X11282380Y-11212380D01*
X11234761Y-11355238D01*
X11139523Y-11450476D01*
X11044285Y-11498095D01*
X10853809Y-11545714D01*
X10710952Y-11545714D01*
X10520476Y-11498095D01*
X10425238Y-11450476D01*
X10330000Y-11355238D01*
X10282380Y-11212380D01*
X10282380Y-11117142D01*
X10330000Y-10974285D01*
X10377619Y-10926666D01*
X10377619Y-10545714D02*
X10330000Y-10498095D01*
X10282380Y-10402857D01*
X10282380Y-10164761D01*
X10330000Y-10069523D01*
X10377619Y-10021904D01*
X10472857Y-9974285D01*
X10568095Y-9974285D01*
X10710952Y-10021904D01*
X11282380Y-10593333D01*
X11282380Y-9974285D01*
G04 #@! TO.C,U2*
X7438095Y-7027380D02*
X7438095Y-7836904D01*
X7485714Y-7932142D01*
X7533333Y-7979761D01*
X7628571Y-8027380D01*
X7819047Y-8027380D01*
X7914285Y-7979761D01*
X7961904Y-7932142D01*
X8009523Y-7836904D01*
X8009523Y-7027380D01*
X8438095Y-7122619D02*
X8485714Y-7075000D01*
X8580952Y-7027380D01*
X8819047Y-7027380D01*
X8914285Y-7075000D01*
X8961904Y-7122619D01*
X9009523Y-7217857D01*
X9009523Y-7313095D01*
X8961904Y-7455952D01*
X8390476Y-8027380D01*
X9009523Y-8027380D01*
G04 #@! TO.C,U1*
X6688095Y1567620D02*
X6688095Y758096D01*
X6735714Y662858D01*
X6783333Y615239D01*
X6878571Y567620D01*
X7069047Y567620D01*
X7164285Y615239D01*
X7211904Y662858D01*
X7259523Y758096D01*
X7259523Y1567620D01*
X8259523Y567620D02*
X7688095Y567620D01*
X7973809Y567620D02*
X7973809Y1567620D01*
X7878571Y1424762D01*
X7783333Y1329524D01*
X7688095Y1281905D01*
G04 #@! TD*
%LPC*%
G04 #@! TO.C,C6*
G36*
G01*
X10260000Y-15140000D02*
X10260000Y-14540000D01*
G75*
G02*
X10535000Y-14265000I275000J0D01*
G01*
X11085000Y-14265000D01*
G75*
G02*
X11360000Y-14540000I0J-275000D01*
G01*
X11360000Y-15140000D01*
G75*
G02*
X11085000Y-15415000I-275000J0D01*
G01*
X10535000Y-15415000D01*
G75*
G02*
X10260000Y-15140000I0J275000D01*
G01*
G37*
G36*
G01*
X8710000Y-15140000D02*
X8710000Y-14540000D01*
G75*
G02*
X8985000Y-14265000I275000J0D01*
G01*
X9535000Y-14265000D01*
G75*
G02*
X9810000Y-14540000I0J-275000D01*
G01*
X9810000Y-15140000D01*
G75*
G02*
X9535000Y-15415000I-275000J0D01*
G01*
X8985000Y-15415000D01*
G75*
G02*
X8710000Y-15140000I0J275000D01*
G01*
G37*
G04 #@! TD*
G04 #@! TO.C,D1*
G36*
G01*
X7270000Y-18186250D02*
X7270000Y-17573750D01*
G75*
G02*
X7538750Y-17305000I268750J0D01*
G01*
X8076250Y-17305000D01*
G75*
G02*
X8345000Y-17573750I0J-268750D01*
G01*
X8345000Y-18186250D01*
G75*
G02*
X8076250Y-18455000I-268750J0D01*
G01*
X7538750Y-18455000D01*
G75*
G02*
X7270000Y-18186250I0J268750D01*
G01*
G37*
G36*
G01*
X5695000Y-18186250D02*
X5695000Y-17573750D01*
G75*
G02*
X5963750Y-17305000I268750J0D01*
G01*
X6501250Y-17305000D01*
G75*
G02*
X6770000Y-17573750I0J-268750D01*
G01*
X6770000Y-18186250D01*
G75*
G02*
X6501250Y-18455000I-268750J0D01*
G01*
X5963750Y-18455000D01*
G75*
G02*
X5695000Y-18186250I0J268750D01*
G01*
G37*
G04 #@! TD*
G04 #@! TO.C,R4*
G36*
G01*
X7350000Y-15155000D02*
X7350000Y-14505000D01*
G75*
G02*
X7600000Y-14255000I250000J0D01*
G01*
X8100000Y-14255000D01*
G75*
G02*
X8350000Y-14505000I0J-250000D01*
G01*
X8350000Y-15155000D01*
G75*
G02*
X8100000Y-15405000I-250000J0D01*
G01*
X7600000Y-15405000D01*
G75*
G02*
X7350000Y-15155000I0J250000D01*
G01*
G37*
G36*
G01*
X5700000Y-15155000D02*
X5700000Y-14505000D01*
G75*
G02*
X5950000Y-14255000I250000J0D01*
G01*
X6450000Y-14255000D01*
G75*
G02*
X6700000Y-14505000I0J-250000D01*
G01*
X6700000Y-15155000D01*
G75*
G02*
X6450000Y-15405000I-250000J0D01*
G01*
X5950000Y-15405000D01*
G75*
G02*
X5700000Y-15155000I0J250000D01*
G01*
G37*
G04 #@! TD*
G04 #@! TO.C,R3*
G36*
G01*
X6695000Y-16035000D02*
X6695000Y-16685000D01*
G75*
G02*
X6445000Y-16935000I-250000J0D01*
G01*
X5945000Y-16935000D01*
G75*
G02*
X5695000Y-16685000I0J250000D01*
G01*
X5695000Y-16035000D01*
G75*
G02*
X5945000Y-15785000I250000J0D01*
G01*
X6445000Y-15785000D01*
G75*
G02*
X6695000Y-16035000I0J-250000D01*
G01*
G37*
G36*
G01*
X8345000Y-16035000D02*
X8345000Y-16685000D01*
G75*
G02*
X8095000Y-16935000I-250000J0D01*
G01*
X7595000Y-16935000D01*
G75*
G02*
X7345000Y-16685000I0J250000D01*
G01*
X7345000Y-16035000D01*
G75*
G02*
X7595000Y-15785000I250000J0D01*
G01*
X8095000Y-15785000D01*
G75*
G02*
X8345000Y-16035000I0J-250000D01*
G01*
G37*
G04 #@! TD*
G04 #@! TO.C,R2*
G36*
G01*
X7355000Y-7835000D02*
X7355000Y-7185000D01*
G75*
G02*
X7605000Y-6935000I250000J0D01*
G01*
X8105000Y-6935000D01*
G75*
G02*
X8355000Y-7185000I0J-250000D01*
G01*
X8355000Y-7835000D01*
G75*
G02*
X8105000Y-8085000I-250000J0D01*
G01*
X7605000Y-8085000D01*
G75*
G02*
X7355000Y-7835000I0J250000D01*
G01*
G37*
G36*
G01*
X5705000Y-7835000D02*
X5705000Y-7185000D01*
G75*
G02*
X5955000Y-6935000I250000J0D01*
G01*
X6455000Y-6935000D01*
G75*
G02*
X6705000Y-7185000I0J-250000D01*
G01*
X6705000Y-7835000D01*
G75*
G02*
X6455000Y-8085000I-250000J0D01*
G01*
X5955000Y-8085000D01*
G75*
G02*
X5705000Y-7835000I0J250000D01*
G01*
G37*
G04 #@! TD*
G04 #@! TO.C,R1*
G36*
G01*
X7355000Y-6315000D02*
X7355000Y-5665000D01*
G75*
G02*
X7605000Y-5415000I250000J0D01*
G01*
X8105000Y-5415000D01*
G75*
G02*
X8355000Y-5665000I0J-250000D01*
G01*
X8355000Y-6315000D01*
G75*
G02*
X8105000Y-6565000I-250000J0D01*
G01*
X7605000Y-6565000D01*
G75*
G02*
X7355000Y-6315000I0J250000D01*
G01*
G37*
G36*
G01*
X5705000Y-6315000D02*
X5705000Y-5665000D01*
G75*
G02*
X5955000Y-5415000I250000J0D01*
G01*
X6455000Y-5415000D01*
G75*
G02*
X6705000Y-5665000I0J-250000D01*
G01*
X6705000Y-6315000D01*
G75*
G02*
X6455000Y-6565000I-250000J0D01*
G01*
X5955000Y-6565000D01*
G75*
G02*
X5705000Y-6315000I0J250000D01*
G01*
G37*
G04 #@! TD*
G04 #@! TO.C,C7*
G36*
G01*
X10270000Y-7810000D02*
X10270000Y-7210000D01*
G75*
G02*
X10545000Y-6935000I275000J0D01*
G01*
X11095000Y-6935000D01*
G75*
G02*
X11370000Y-7210000I0J-275000D01*
G01*
X11370000Y-7810000D01*
G75*
G02*
X11095000Y-8085000I-275000J0D01*
G01*
X10545000Y-8085000D01*
G75*
G02*
X10270000Y-7810000I0J275000D01*
G01*
G37*
G36*
G01*
X8720000Y-7810000D02*
X8720000Y-7210000D01*
G75*
G02*
X8995000Y-6935000I275000J0D01*
G01*
X9545000Y-6935000D01*
G75*
G02*
X9820000Y-7210000I0J-275000D01*
G01*
X9820000Y-7810000D01*
G75*
G02*
X9545000Y-8085000I-275000J0D01*
G01*
X8995000Y-8085000D01*
G75*
G02*
X8720000Y-7810000I0J275000D01*
G01*
G37*
G04 #@! TD*
G04 #@! TO.C,C5*
G36*
G01*
X10500000Y-1565000D02*
X9900000Y-1565000D01*
G75*
G02*
X9625000Y-1290000I0J275000D01*
G01*
X9625000Y-740000D01*
G75*
G02*
X9900000Y-465000I275000J0D01*
G01*
X10500000Y-465000D01*
G75*
G02*
X10775000Y-740000I0J-275000D01*
G01*
X10775000Y-1290000D01*
G75*
G02*
X10500000Y-1565000I-275000J0D01*
G01*
G37*
G36*
G01*
X10500000Y-3115000D02*
X9900000Y-3115000D01*
G75*
G02*
X9625000Y-2840000I0J275000D01*
G01*
X9625000Y-2290000D01*
G75*
G02*
X9900000Y-2015000I275000J0D01*
G01*
X10500000Y-2015000D01*
G75*
G02*
X10775000Y-2290000I0J-275000D01*
G01*
X10775000Y-2840000D01*
G75*
G02*
X10500000Y-3115000I-275000J0D01*
G01*
G37*
G04 #@! TD*
G04 #@! TO.C,C4*
G36*
G01*
X9835000Y-16060000D02*
X9835000Y-16660000D01*
G75*
G02*
X9560000Y-16935000I-275000J0D01*
G01*
X9010000Y-16935000D01*
G75*
G02*
X8735000Y-16660000I0J275000D01*
G01*
X8735000Y-16060000D01*
G75*
G02*
X9010000Y-15785000I275000J0D01*
G01*
X9560000Y-15785000D01*
G75*
G02*
X9835000Y-16060000I0J-275000D01*
G01*
G37*
G36*
G01*
X11385000Y-16060000D02*
X11385000Y-16660000D01*
G75*
G02*
X11110000Y-16935000I-275000J0D01*
G01*
X10560000Y-16935000D01*
G75*
G02*
X10285000Y-16660000I0J275000D01*
G01*
X10285000Y-16060000D01*
G75*
G02*
X10560000Y-15785000I275000J0D01*
G01*
X11110000Y-15785000D01*
G75*
G02*
X11385000Y-16060000I0J-275000D01*
G01*
G37*
G04 #@! TD*
G04 #@! TO.C,C3*
G36*
G01*
X10275000Y-6290000D02*
X10275000Y-5690000D01*
G75*
G02*
X10550000Y-5415000I275000J0D01*
G01*
X11100000Y-5415000D01*
G75*
G02*
X11375000Y-5690000I0J-275000D01*
G01*
X11375000Y-6290000D01*
G75*
G02*
X11100000Y-6565000I-275000J0D01*
G01*
X10550000Y-6565000D01*
G75*
G02*
X10275000Y-6290000I0J275000D01*
G01*
G37*
G36*
G01*
X8725000Y-6290000D02*
X8725000Y-5690000D01*
G75*
G02*
X9000000Y-5415000I275000J0D01*
G01*
X9550000Y-5415000D01*
G75*
G02*
X9825000Y-5690000I0J-275000D01*
G01*
X9825000Y-6290000D01*
G75*
G02*
X9550000Y-6565000I-275000J0D01*
G01*
X9000000Y-6565000D01*
G75*
G02*
X8725000Y-6290000I0J275000D01*
G01*
G37*
G04 #@! TD*
G04 #@! TO.C,C1*
G36*
G01*
X7255000Y-4770000D02*
X7255000Y-4170000D01*
G75*
G02*
X7530000Y-3895000I275000J0D01*
G01*
X8080000Y-3895000D01*
G75*
G02*
X8355000Y-4170000I0J-275000D01*
G01*
X8355000Y-4770000D01*
G75*
G02*
X8080000Y-5045000I-275000J0D01*
G01*
X7530000Y-5045000D01*
G75*
G02*
X7255000Y-4770000I0J275000D01*
G01*
G37*
G36*
G01*
X5705000Y-4770000D02*
X5705000Y-4170000D01*
G75*
G02*
X5980000Y-3895000I275000J0D01*
G01*
X6530000Y-3895000D01*
G75*
G02*
X6805000Y-4170000I0J-275000D01*
G01*
X6805000Y-4770000D01*
G75*
G02*
X6530000Y-5045000I-275000J0D01*
G01*
X5980000Y-5045000D01*
G75*
G02*
X5705000Y-4770000I0J275000D01*
G01*
G37*
G04 #@! TD*
G04 #@! TO.C,C2*
G36*
G01*
X13067965Y-10210000D02*
X12092035Y-10210000D01*
G75*
G02*
X11805000Y-9922965I0J287035D01*
G01*
X11805000Y-8897035D01*
G75*
G02*
X12092035Y-8610000I287035J0D01*
G01*
X13067965Y-8610000D01*
G75*
G02*
X13355000Y-8897035I0J-287035D01*
G01*
X13355000Y-9922965D01*
G75*
G02*
X13067965Y-10210000I-287035J0D01*
G01*
G37*
G36*
G01*
X13067965Y-12910000D02*
X12092035Y-12910000D01*
G75*
G02*
X11805000Y-12622965I0J287035D01*
G01*
X11805000Y-11597035D01*
G75*
G02*
X12092035Y-11310000I287035J0D01*
G01*
X13067965Y-11310000D01*
G75*
G02*
X13355000Y-11597035I0J-287035D01*
G01*
X13355000Y-12622965D01*
G75*
G02*
X13067965Y-12910000I-287035J0D01*
G01*
G37*
G04 #@! TD*
D13*
G04 #@! TO.C,J1*
X1400000Y-18880000D03*
X1400000Y-16340000D03*
X1400000Y-13800000D03*
X1400000Y-11260000D03*
X1400000Y-8720000D03*
X1400000Y-6180000D03*
X1400000Y-3640000D03*
G36*
G01*
X2350000Y-250000D02*
X2350000Y-1950000D01*
G75*
G02*
X2250000Y-2050000I-100000J0D01*
G01*
X550000Y-2050000D01*
G75*
G02*
X450000Y-1950000I0J100000D01*
G01*
X450000Y-250000D01*
G75*
G02*
X550000Y-150000I100000J0D01*
G01*
X2250000Y-150000D01*
G75*
G02*
X2350000Y-250000I0J-100000D01*
G01*
G37*
G04 #@! TD*
G04 #@! TO.C,U2*
G36*
G01*
X7075000Y-9525000D02*
X6825000Y-9525000D01*
G75*
G02*
X6700000Y-9400000I0J125000D01*
G01*
X6700000Y-8600000D01*
G75*
G02*
X6825000Y-8475000I125000J0D01*
G01*
X7075000Y-8475000D01*
G75*
G02*
X7200000Y-8600000I0J-125000D01*
G01*
X7200000Y-9400000D01*
G75*
G02*
X7075000Y-9525000I-125000J0D01*
G01*
G37*
G36*
G01*
X7575000Y-9525000D02*
X7325000Y-9525000D01*
G75*
G02*
X7200000Y-9400000I0J125000D01*
G01*
X7200000Y-8600000D01*
G75*
G02*
X7325000Y-8475000I125000J0D01*
G01*
X7575000Y-8475000D01*
G75*
G02*
X7700000Y-8600000I0J-125000D01*
G01*
X7700000Y-9400000D01*
G75*
G02*
X7575000Y-9525000I-125000J0D01*
G01*
G37*
G36*
G01*
X8075000Y-9525000D02*
X7825000Y-9525000D01*
G75*
G02*
X7700000Y-9400000I0J125000D01*
G01*
X7700000Y-8600000D01*
G75*
G02*
X7825000Y-8475000I125000J0D01*
G01*
X8075000Y-8475000D01*
G75*
G02*
X8200000Y-8600000I0J-125000D01*
G01*
X8200000Y-9400000D01*
G75*
G02*
X8075000Y-9525000I-125000J0D01*
G01*
G37*
G36*
G01*
X8575000Y-9525000D02*
X8325000Y-9525000D01*
G75*
G02*
X8200000Y-9400000I0J125000D01*
G01*
X8200000Y-8600000D01*
G75*
G02*
X8325000Y-8475000I125000J0D01*
G01*
X8575000Y-8475000D01*
G75*
G02*
X8700000Y-8600000I0J-125000D01*
G01*
X8700000Y-9400000D01*
G75*
G02*
X8575000Y-9525000I-125000J0D01*
G01*
G37*
G36*
G01*
X9075000Y-9525000D02*
X8825000Y-9525000D01*
G75*
G02*
X8700000Y-9400000I0J125000D01*
G01*
X8700000Y-8600000D01*
G75*
G02*
X8825000Y-8475000I125000J0D01*
G01*
X9075000Y-8475000D01*
G75*
G02*
X9200000Y-8600000I0J-125000D01*
G01*
X9200000Y-9400000D01*
G75*
G02*
X9075000Y-9525000I-125000J0D01*
G01*
G37*
G36*
G01*
X9575000Y-9525000D02*
X9325000Y-9525000D01*
G75*
G02*
X9200000Y-9400000I0J125000D01*
G01*
X9200000Y-8600000D01*
G75*
G02*
X9325000Y-8475000I125000J0D01*
G01*
X9575000Y-8475000D01*
G75*
G02*
X9700000Y-8600000I0J-125000D01*
G01*
X9700000Y-9400000D01*
G75*
G02*
X9575000Y-9525000I-125000J0D01*
G01*
G37*
G36*
G01*
X9625000Y-9825000D02*
X9625000Y-9575000D01*
G75*
G02*
X9750000Y-9450000I125000J0D01*
G01*
X10550000Y-9450000D01*
G75*
G02*
X10675000Y-9575000I0J-125000D01*
G01*
X10675000Y-9825000D01*
G75*
G02*
X10550000Y-9950000I-125000J0D01*
G01*
X9750000Y-9950000D01*
G75*
G02*
X9625000Y-9825000I0J125000D01*
G01*
G37*
G36*
G01*
X9625000Y-10325000D02*
X9625000Y-10075000D01*
G75*
G02*
X9750000Y-9950000I125000J0D01*
G01*
X10550000Y-9950000D01*
G75*
G02*
X10675000Y-10075000I0J-125000D01*
G01*
X10675000Y-10325000D01*
G75*
G02*
X10550000Y-10450000I-125000J0D01*
G01*
X9750000Y-10450000D01*
G75*
G02*
X9625000Y-10325000I0J125000D01*
G01*
G37*
G36*
G01*
X9625000Y-10825000D02*
X9625000Y-10575000D01*
G75*
G02*
X9750000Y-10450000I125000J0D01*
G01*
X10550000Y-10450000D01*
G75*
G02*
X10675000Y-10575000I0J-125000D01*
G01*
X10675000Y-10825000D01*
G75*
G02*
X10550000Y-10950000I-125000J0D01*
G01*
X9750000Y-10950000D01*
G75*
G02*
X9625000Y-10825000I0J125000D01*
G01*
G37*
G36*
G01*
X9625000Y-11325000D02*
X9625000Y-11075000D01*
G75*
G02*
X9750000Y-10950000I125000J0D01*
G01*
X10550000Y-10950000D01*
G75*
G02*
X10675000Y-11075000I0J-125000D01*
G01*
X10675000Y-11325000D01*
G75*
G02*
X10550000Y-11450000I-125000J0D01*
G01*
X9750000Y-11450000D01*
G75*
G02*
X9625000Y-11325000I0J125000D01*
G01*
G37*
G36*
G01*
X9625000Y-11825000D02*
X9625000Y-11575000D01*
G75*
G02*
X9750000Y-11450000I125000J0D01*
G01*
X10550000Y-11450000D01*
G75*
G02*
X10675000Y-11575000I0J-125000D01*
G01*
X10675000Y-11825000D01*
G75*
G02*
X10550000Y-11950000I-125000J0D01*
G01*
X9750000Y-11950000D01*
G75*
G02*
X9625000Y-11825000I0J125000D01*
G01*
G37*
G36*
G01*
X9625000Y-12325000D02*
X9625000Y-12075000D01*
G75*
G02*
X9750000Y-11950000I125000J0D01*
G01*
X10550000Y-11950000D01*
G75*
G02*
X10675000Y-12075000I0J-125000D01*
G01*
X10675000Y-12325000D01*
G75*
G02*
X10550000Y-12450000I-125000J0D01*
G01*
X9750000Y-12450000D01*
G75*
G02*
X9625000Y-12325000I0J125000D01*
G01*
G37*
G36*
G01*
X9575000Y-13425000D02*
X9325000Y-13425000D01*
G75*
G02*
X9200000Y-13300000I0J125000D01*
G01*
X9200000Y-12500000D01*
G75*
G02*
X9325000Y-12375000I125000J0D01*
G01*
X9575000Y-12375000D01*
G75*
G02*
X9700000Y-12500000I0J-125000D01*
G01*
X9700000Y-13300000D01*
G75*
G02*
X9575000Y-13425000I-125000J0D01*
G01*
G37*
G36*
G01*
X9075000Y-13425000D02*
X8825000Y-13425000D01*
G75*
G02*
X8700000Y-13300000I0J125000D01*
G01*
X8700000Y-12500000D01*
G75*
G02*
X8825000Y-12375000I125000J0D01*
G01*
X9075000Y-12375000D01*
G75*
G02*
X9200000Y-12500000I0J-125000D01*
G01*
X9200000Y-13300000D01*
G75*
G02*
X9075000Y-13425000I-125000J0D01*
G01*
G37*
G36*
G01*
X8575000Y-13425000D02*
X8325000Y-13425000D01*
G75*
G02*
X8200000Y-13300000I0J125000D01*
G01*
X8200000Y-12500000D01*
G75*
G02*
X8325000Y-12375000I125000J0D01*
G01*
X8575000Y-12375000D01*
G75*
G02*
X8700000Y-12500000I0J-125000D01*
G01*
X8700000Y-13300000D01*
G75*
G02*
X8575000Y-13425000I-125000J0D01*
G01*
G37*
G36*
G01*
X8075000Y-13425000D02*
X7825000Y-13425000D01*
G75*
G02*
X7700000Y-13300000I0J125000D01*
G01*
X7700000Y-12500000D01*
G75*
G02*
X7825000Y-12375000I125000J0D01*
G01*
X8075000Y-12375000D01*
G75*
G02*
X8200000Y-12500000I0J-125000D01*
G01*
X8200000Y-13300000D01*
G75*
G02*
X8075000Y-13425000I-125000J0D01*
G01*
G37*
G36*
G01*
X7575000Y-13425000D02*
X7325000Y-13425000D01*
G75*
G02*
X7200000Y-13300000I0J125000D01*
G01*
X7200000Y-12500000D01*
G75*
G02*
X7325000Y-12375000I125000J0D01*
G01*
X7575000Y-12375000D01*
G75*
G02*
X7700000Y-12500000I0J-125000D01*
G01*
X7700000Y-13300000D01*
G75*
G02*
X7575000Y-13425000I-125000J0D01*
G01*
G37*
G36*
G01*
X7075000Y-13425000D02*
X6825000Y-13425000D01*
G75*
G02*
X6700000Y-13300000I0J125000D01*
G01*
X6700000Y-12500000D01*
G75*
G02*
X6825000Y-12375000I125000J0D01*
G01*
X7075000Y-12375000D01*
G75*
G02*
X7200000Y-12500000I0J-125000D01*
G01*
X7200000Y-13300000D01*
G75*
G02*
X7075000Y-13425000I-125000J0D01*
G01*
G37*
G36*
G01*
X5725000Y-12325000D02*
X5725000Y-12075000D01*
G75*
G02*
X5850000Y-11950000I125000J0D01*
G01*
X6650000Y-11950000D01*
G75*
G02*
X6775000Y-12075000I0J-125000D01*
G01*
X6775000Y-12325000D01*
G75*
G02*
X6650000Y-12450000I-125000J0D01*
G01*
X5850000Y-12450000D01*
G75*
G02*
X5725000Y-12325000I0J125000D01*
G01*
G37*
G36*
G01*
X5725000Y-11825000D02*
X5725000Y-11575000D01*
G75*
G02*
X5850000Y-11450000I125000J0D01*
G01*
X6650000Y-11450000D01*
G75*
G02*
X6775000Y-11575000I0J-125000D01*
G01*
X6775000Y-11825000D01*
G75*
G02*
X6650000Y-11950000I-125000J0D01*
G01*
X5850000Y-11950000D01*
G75*
G02*
X5725000Y-11825000I0J125000D01*
G01*
G37*
G36*
G01*
X5725000Y-11325000D02*
X5725000Y-11075000D01*
G75*
G02*
X5850000Y-10950000I125000J0D01*
G01*
X6650000Y-10950000D01*
G75*
G02*
X6775000Y-11075000I0J-125000D01*
G01*
X6775000Y-11325000D01*
G75*
G02*
X6650000Y-11450000I-125000J0D01*
G01*
X5850000Y-11450000D01*
G75*
G02*
X5725000Y-11325000I0J125000D01*
G01*
G37*
G36*
G01*
X5725000Y-10825000D02*
X5725000Y-10575000D01*
G75*
G02*
X5850000Y-10450000I125000J0D01*
G01*
X6650000Y-10450000D01*
G75*
G02*
X6775000Y-10575000I0J-125000D01*
G01*
X6775000Y-10825000D01*
G75*
G02*
X6650000Y-10950000I-125000J0D01*
G01*
X5850000Y-10950000D01*
G75*
G02*
X5725000Y-10825000I0J125000D01*
G01*
G37*
G36*
G01*
X5725000Y-10325000D02*
X5725000Y-10075000D01*
G75*
G02*
X5850000Y-9950000I125000J0D01*
G01*
X6650000Y-9950000D01*
G75*
G02*
X6775000Y-10075000I0J-125000D01*
G01*
X6775000Y-10325000D01*
G75*
G02*
X6650000Y-10450000I-125000J0D01*
G01*
X5850000Y-10450000D01*
G75*
G02*
X5725000Y-10325000I0J125000D01*
G01*
G37*
G36*
G01*
X5725000Y-9825000D02*
X5725000Y-9575000D01*
G75*
G02*
X5850000Y-9450000I125000J0D01*
G01*
X6650000Y-9450000D01*
G75*
G02*
X6775000Y-9575000I0J-125000D01*
G01*
X6775000Y-9825000D01*
G75*
G02*
X6650000Y-9950000I-125000J0D01*
G01*
X5850000Y-9950000D01*
G75*
G02*
X5725000Y-9825000I0J125000D01*
G01*
G37*
G04 #@! TD*
G04 #@! TO.C,U1*
G36*
G01*
X7920000Y-1255000D02*
X7920000Y-605000D01*
G75*
G02*
X8020000Y-505000I100000J0D01*
G01*
X9080000Y-505000D01*
G75*
G02*
X9180000Y-605000I0J-100000D01*
G01*
X9180000Y-1255000D01*
G75*
G02*
X9080000Y-1355000I-100000J0D01*
G01*
X8020000Y-1355000D01*
G75*
G02*
X7920000Y-1255000I0J100000D01*
G01*
G37*
G36*
G01*
X7920000Y-3155000D02*
X7920000Y-2505000D01*
G75*
G02*
X8020000Y-2405000I100000J0D01*
G01*
X9080000Y-2405000D01*
G75*
G02*
X9180000Y-2505000I0J-100000D01*
G01*
X9180000Y-3155000D01*
G75*
G02*
X9080000Y-3255000I-100000J0D01*
G01*
X8020000Y-3255000D01*
G75*
G02*
X7920000Y-3155000I0J100000D01*
G01*
G37*
G36*
G01*
X5720000Y-3155000D02*
X5720000Y-2505000D01*
G75*
G02*
X5820000Y-2405000I100000J0D01*
G01*
X6880000Y-2405000D01*
G75*
G02*
X6980000Y-2505000I0J-100000D01*
G01*
X6980000Y-3155000D01*
G75*
G02*
X6880000Y-3255000I-100000J0D01*
G01*
X5820000Y-3255000D01*
G75*
G02*
X5720000Y-3155000I0J100000D01*
G01*
G37*
G36*
G01*
X5720000Y-2205000D02*
X5720000Y-1555000D01*
G75*
G02*
X5820000Y-1455000I100000J0D01*
G01*
X6880000Y-1455000D01*
G75*
G02*
X6980000Y-1555000I0J-100000D01*
G01*
X6980000Y-2205000D01*
G75*
G02*
X6880000Y-2305000I-100000J0D01*
G01*
X5820000Y-2305000D01*
G75*
G02*
X5720000Y-2205000I0J100000D01*
G01*
G37*
G36*
G01*
X5720000Y-1255000D02*
X5720000Y-605000D01*
G75*
G02*
X5820000Y-505000I100000J0D01*
G01*
X6880000Y-505000D01*
G75*
G02*
X6980000Y-605000I0J-100000D01*
G01*
X6980000Y-1255000D01*
G75*
G02*
X6880000Y-1355000I-100000J0D01*
G01*
X5820000Y-1355000D01*
G75*
G02*
X5720000Y-1255000I0J100000D01*
G01*
G37*
G04 #@! TD*
M02*
