G04 #@! TF.GenerationSoftware,KiCad,Pcbnew,(6.0.4)*
G04 #@! TF.CreationDate,2022-07-19T17:44:27+09:00*
G04 #@! TF.ProjectId,io_board,696f5f62-6f61-4726-942e-6b696361645f,rev?*
G04 #@! TF.SameCoordinates,Original*
G04 #@! TF.FileFunction,Profile,NP*
%FSLAX46Y46*%
G04 Gerber Fmt 4.6, Leading zero omitted, Abs format (unit mm)*
G04 Created by KiCad (PCBNEW (6.0.4)) date 2022-07-19 17:44:27*
%MOMM*%
%LPD*%
G01*
G04 APERTURE LIST*
G04 #@! TA.AperFunction,Profile*
%ADD10C,0.200000*%
G04 #@! TD*
G04 #@! TA.AperFunction,Profile*
%ADD11C,0.100050*%
G04 #@! TD*
G04 APERTURE END LIST*
D10*
X186958888Y-58302679D02*
G75*
G03*
X186958912Y-62545344I2121312J-2121321D01*
G01*
X116096886Y-68353540D02*
G75*
G03*
X116096889Y-72596184I2121324J-2121320D01*
G01*
D11*
X154482025Y12407975D02*
G75*
G03*
X154482025Y12407975I-50025J0D01*
G01*
D10*
X121905065Y-62545321D02*
G75*
G03*
X121905088Y-58302703I-2121265J2121321D01*
G01*
X192767143Y-72596216D02*
G75*
G03*
X191595538Y-75424611I2828457J-2828484D01*
G01*
X192085478Y-53176221D02*
G75*
G03*
X189964116Y-48054859I-2121378J2121321D01*
G01*
X191595538Y-78376675D02*
X191595538Y-75424611D01*
X191214116Y-51054859D02*
G75*
G03*
X191214116Y-51054859I-1250000J0D01*
G01*
X119211858Y-81184448D02*
G75*
G03*
X189652142Y-81184448I35220142J93592427D01*
G01*
X186958912Y-58302703D02*
X192085436Y-53176179D01*
X121905088Y-62545344D02*
X116096889Y-68353543D01*
X117268462Y-75424611D02*
X117268462Y-78376675D01*
X189652146Y-81184459D02*
G75*
G03*
X191595538Y-78376675I-1056446J2807659D01*
G01*
X118899884Y-48054864D02*
G75*
G03*
X116778564Y-53176179I-4J-2999996D01*
G01*
X189964116Y-48054859D02*
X118899884Y-48054859D01*
X116778564Y-53176179D02*
X121905088Y-58302703D01*
X120149884Y-51054859D02*
G75*
G03*
X120149884Y-51054859I-1250000J0D01*
G01*
X189353484Y-78560323D02*
G75*
G03*
X189353484Y-78560323I-1250000J0D01*
G01*
X192767111Y-68353543D02*
X186958912Y-62545344D01*
X192767147Y-72596220D02*
G75*
G03*
X192767111Y-68353543I-2121347J2121320D01*
G01*
X117268510Y-78376675D02*
G75*
G03*
X119211858Y-81184448I2999990J-25D01*
G01*
X122010516Y-78560323D02*
G75*
G03*
X122010516Y-78560323I-1250000J0D01*
G01*
X117268465Y-75424611D02*
G75*
G03*
X116096889Y-72596184I-3999965J11D01*
G01*
M02*
