%TF.GenerationSoftware,KiCad,Pcbnew,(6.0.4)*%
%TF.CreationDate,2022-07-19T16:38:10+09:00*%
%TF.ProjectId,io_board,696f5f62-6f61-4726-942e-6b696361645f,rev?*%
%TF.SameCoordinates,Original*%
%TF.FileFunction,Copper,L1,Top*%
%TF.FilePolarity,Positive*%
%FSLAX46Y46*%
G04 Gerber Fmt 4.6, Leading zero omitted, Abs format (unit mm)*
G04 Created by KiCad (PCBNEW (6.0.4)) date 2022-07-19 16:38:10*
%MOMM*%
%LPD*%
G01*
G04 APERTURE LIST*
%TA.AperFunction,ComponentPad*%
%ADD10C,1.600000*%
%TD*%
%TA.AperFunction,ComponentPad*%
%ADD11C,2.000000*%
%TD*%
%TA.AperFunction,ComponentPad*%
%ADD12C,1.400000*%
%TD*%
%TA.AperFunction,ComponentPad*%
%ADD13O,1.400000X1.400000*%
%TD*%
%TA.AperFunction,ComponentPad*%
%ADD14R,1.700000X1.700000*%
%TD*%
%TA.AperFunction,ComponentPad*%
%ADD15O,1.700000X1.700000*%
%TD*%
%TA.AperFunction,ComponentPad*%
%ADD16O,4.000000X2.000000*%
%TD*%
%TA.AperFunction,Conductor*%
%ADD17C,1.000000*%
%TD*%
%TA.AperFunction,Conductor*%
%ADD18C,0.250000*%
%TD*%
G04 APERTURE END LIST*
D10*
X166116000Y-67782000D03*
X163616000Y-67782000D03*
D11*
X149860000Y-75982000D03*
X156360000Y-75982000D03*
X149860000Y-80482000D03*
X156360000Y-80482000D03*
D12*
X138684000Y-70612000D03*
D13*
X143764000Y-70612000D03*
D12*
X149860000Y-70612000D03*
D13*
X154940000Y-70612000D03*
D11*
X138482000Y-75764000D03*
X144982000Y-75764000D03*
X138482000Y-80264000D03*
X144982000Y-80264000D03*
D12*
X161036000Y-70830000D03*
D13*
X166116000Y-70830000D03*
D14*
X170967000Y-55392000D03*
D15*
X170967000Y-57932000D03*
X170967000Y-60472000D03*
X170967000Y-63012000D03*
X170967000Y-65552000D03*
X170967000Y-68092000D03*
X170967000Y-70632000D03*
D14*
X125999000Y-50267000D03*
D15*
X128539000Y-50267000D03*
X131079000Y-50267000D03*
X133619000Y-50267000D03*
X136159000Y-50267000D03*
X138699000Y-50267000D03*
X141239000Y-50267000D03*
X143779000Y-50267000D03*
X146319000Y-50267000D03*
X148859000Y-50267000D03*
X151399000Y-50267000D03*
X153939000Y-50267000D03*
X156479000Y-50267000D03*
D10*
X132080000Y-67564000D03*
X129580000Y-67564000D03*
D11*
X161036000Y-75982000D03*
X167536000Y-75982000D03*
X161036000Y-80482000D03*
X167536000Y-80482000D03*
X127104000Y-75764000D03*
X133604000Y-75764000D03*
X127104000Y-80264000D03*
X133604000Y-80264000D03*
D10*
X143764000Y-67564000D03*
X141264000Y-67564000D03*
X154940000Y-67564000D03*
X152440000Y-67564000D03*
D12*
X127000000Y-70612000D03*
D13*
X132080000Y-70612000D03*
D16*
X180340000Y-72644000D03*
X180340000Y-66644000D03*
D17*
X142763511Y-66064489D02*
X150940489Y-66064489D01*
X163995370Y-67782000D02*
X165643859Y-69430489D01*
D18*
X133604000Y-80264000D02*
X167318000Y-80264000D01*
D17*
X141264000Y-67564000D02*
X142763511Y-66064489D01*
X124460000Y-65532000D02*
X124460000Y-77620000D01*
X150940489Y-66064489D02*
X152440000Y-67564000D01*
X139764489Y-66064489D02*
X141264000Y-67564000D01*
X169692000Y-70632000D02*
X168490489Y-69430489D01*
X163616000Y-67782000D02*
X163995370Y-67782000D01*
X125999000Y-50267000D02*
X125999000Y-63993000D01*
X165643859Y-69430489D02*
X168490489Y-69430489D01*
D18*
X125999000Y-50267000D02*
X125975489Y-50290511D01*
X127104000Y-80264000D02*
X133604000Y-80264000D01*
D17*
X129580000Y-67564000D02*
X131079511Y-66064489D01*
X170967000Y-70632000D02*
X169692000Y-70632000D01*
X167318000Y-80264000D02*
X167536000Y-80482000D01*
X170967000Y-77051000D02*
X170967000Y-70632000D01*
X167536000Y-80482000D02*
X170967000Y-77051000D01*
X153939511Y-66064489D02*
X161898489Y-66064489D01*
X125999000Y-63993000D02*
X124460000Y-65532000D01*
X161898489Y-66064489D02*
X163616000Y-67782000D01*
D18*
X163616000Y-67782000D02*
X164516878Y-67782000D01*
D17*
X131079511Y-66064489D02*
X139764489Y-66064489D01*
X152440000Y-67564000D02*
X153939511Y-66064489D01*
X124460000Y-77620000D02*
X127104000Y-80264000D01*
D18*
X125999000Y-50267000D02*
X125779489Y-50486511D01*
D17*
X127104000Y-80264000D02*
X167318000Y-80264000D01*
X138684000Y-70612000D02*
X138684000Y-71573022D01*
X130088511Y-48717489D02*
X128539000Y-50267000D01*
D18*
X149860000Y-70612000D02*
X149860000Y-71628000D01*
D17*
X170967000Y-55392000D02*
X169692000Y-55392000D01*
D18*
X138402511Y-71854511D02*
X149578511Y-71854511D01*
X149578511Y-71854511D02*
X150086511Y-71854511D01*
D17*
X169692000Y-55392000D02*
X163017489Y-48717489D01*
X128399511Y-72011511D02*
X159854489Y-72011511D01*
X127689000Y-69923000D02*
X127000000Y-70612000D01*
X128539000Y-50267000D02*
X127689000Y-51117000D01*
X159854489Y-72011511D02*
X161036000Y-70830000D01*
D18*
X160011489Y-71854511D02*
X161036000Y-70830000D01*
D17*
X163017489Y-48717489D02*
X130088511Y-48717489D01*
D18*
X150086511Y-71854511D02*
X160011489Y-71854511D01*
X138684000Y-71573022D02*
X138402511Y-71854511D01*
D17*
X149860000Y-70612000D02*
X149860000Y-71573022D01*
D18*
X128242511Y-71854511D02*
X138402511Y-71854511D01*
D17*
X127000000Y-70612000D02*
X128399511Y-72011511D01*
X127689000Y-51117000D02*
X127689000Y-69923000D01*
X149860000Y-71573022D02*
X149578511Y-71854511D01*
D18*
X149860000Y-71628000D02*
X150086511Y-71854511D01*
X127000000Y-70612000D02*
X128242511Y-71854511D01*
M02*
