%FSLAX45Y45*%
G04 Gerber Fmt 4.5, Leading zero omitted, Abs format (unit mm)*
G04 Created by KiCad (PCBNEW (6.0.5)) date 2022-10-18 17:57:20*
%MOMM*%
%LPD*%
G01*
G04 APERTURE LIST*
%TA.AperFunction,Profile*%
%ADD10C,0.200000*%
%TD*%
%ADD11C,0.200000*%
%ADD12C,0.040000*%
%ADD13C,0.060000*%
%ADD14C,0.095000*%
%ADD15C,0.100000*%
%ADD16C,0.110000*%
%ADD17C,0.065000*%
G04 APERTURE END LIST*
D10*
X11393861Y-10102975D02*
G75*
G03*
X11276700Y-9820133I-399981J5D01*
G01*
X11276700Y-9395868D02*
G75*
G03*
X11276700Y-9820133I212130J-212132D01*
G01*
X16789590Y-7366000D02*
X11557000Y-7366000D01*
X11393858Y-10398182D02*
G75*
G03*
X11588197Y-10678959I300002J2D01*
G01*
X17001722Y-7453868D02*
G75*
G03*
X16789590Y-7366000I-212132J-212132D01*
G01*
X11557000Y-7366000D02*
G75*
G03*
X11344868Y-7878132I0J-300000D01*
G01*
X11732000Y-7666000D02*
G75*
G03*
X11732000Y-7666000I-175000J0D01*
G01*
X11344868Y-7878132D02*
X11857520Y-8390784D01*
X18943722Y-9820132D02*
G75*
G03*
X18943723Y-9395868I-212132J212132D01*
G01*
X11918063Y-10416546D02*
G75*
G03*
X11918063Y-10416546I-175000J0D01*
G01*
X18826565Y-10398182D02*
X18826565Y-10102975D01*
X11588197Y-10678959D02*
G75*
G03*
X18632226Y-10678959I3522014J9359243D01*
G01*
X18943724Y-9820134D02*
G75*
G03*
X18826565Y-10102975I282846J-282846D01*
G01*
X18652360Y-10416546D02*
G75*
G03*
X18652360Y-10416546I-175000J0D01*
G01*
X11857520Y-8815048D02*
G75*
G03*
X11857520Y-8390784I-212133J212132D01*
G01*
X18632225Y-10678957D02*
G75*
G03*
X18826565Y-10398182I-105645J280767D01*
G01*
X11857520Y-8815049D02*
X11276700Y-9395868D01*
X18943723Y-9395868D02*
X17001722Y-7453868D01*
X11393858Y-10102975D02*
X11393858Y-10398182D01*
D11*
D12*
X11791000Y-9441500D02*
X11831000Y-9481500D01*
X11831000Y-9441500D02*
X11791000Y-9481500D01*
X12108500Y-7727000D02*
X12148500Y-7767000D01*
X12148500Y-7727000D02*
X12108500Y-7767000D01*
X12743500Y-8298500D02*
X12783500Y-8338500D01*
X12783500Y-8298500D02*
X12743500Y-8338500D01*
X12870500Y-9949500D02*
X12910500Y-9989500D01*
X12910500Y-9949500D02*
X12870500Y-9989500D01*
X13886500Y-9505000D02*
X13926500Y-9545000D01*
X13926500Y-9505000D02*
X13886500Y-9545000D01*
X14077000Y-10394000D02*
X14117000Y-10434000D01*
X14117000Y-10394000D02*
X14077000Y-10434000D01*
X14140500Y-10711500D02*
X14180500Y-10751500D01*
X14180500Y-10711500D02*
X14140500Y-10751500D01*
X14775500Y-10394000D02*
X14815500Y-10434000D01*
X14815500Y-10394000D02*
X14775500Y-10434000D01*
X14895550Y-10457500D02*
X14935550Y-10497500D01*
X14935550Y-10457500D02*
X14895550Y-10497500D01*
X14902500Y-11029000D02*
X14942500Y-11069000D01*
X14942500Y-11029000D02*
X14902500Y-11069000D01*
X15220000Y-8552500D02*
X15260000Y-8592500D01*
X15260000Y-8552500D02*
X15220000Y-8592500D01*
X15317343Y-10452384D02*
X15357343Y-10492384D01*
X15357343Y-10452384D02*
X15317343Y-10492384D01*
X15347000Y-11029000D02*
X15387000Y-11069000D01*
X15387000Y-11029000D02*
X15347000Y-11069000D01*
X15601000Y-10394000D02*
X15641000Y-10434000D01*
X15641000Y-10394000D02*
X15601000Y-10434000D01*
X16045500Y-9568500D02*
X16085500Y-9608500D01*
X16085500Y-9568500D02*
X16045500Y-9608500D01*
X16109000Y-8552500D02*
X16149000Y-8592500D01*
X16149000Y-8552500D02*
X16109000Y-8592500D01*
X16553500Y-10394000D02*
X16593500Y-10434000D01*
X16593500Y-10394000D02*
X16553500Y-10434000D01*
X16617000Y-7727000D02*
X16657000Y-7767000D01*
X16657000Y-7727000D02*
X16617000Y-7767000D01*
X17061500Y-8552500D02*
X17101500Y-8592500D01*
X17101500Y-8552500D02*
X17061500Y-8592500D01*
X17125000Y-10394000D02*
X17165000Y-10434000D01*
X17165000Y-10394000D02*
X17125000Y-10434000D01*
X17696500Y-9441500D02*
X17736500Y-9481500D01*
X17736500Y-9441500D02*
X17696500Y-9481500D01*
X17696500Y-10394000D02*
X17736500Y-10434000D01*
X17736500Y-10394000D02*
X17696500Y-10434000D01*
D13*
X14711000Y-10675000D02*
G75*
G03*
X14711000Y-10675000I-30000J0D01*
G01*
D11*
X14661000Y-10620000D02*
X14661000Y-10730000D01*
X14701000Y-10620000D02*
X14701000Y-10730000D01*
X14661000Y-10730000D02*
G75*
G03*
X14701000Y-10730000I20000J0D01*
G01*
X14701000Y-10620000D02*
G75*
G03*
X14661000Y-10620000I-20000J0D01*
G01*
D13*
X14711000Y-11093000D02*
G75*
G03*
X14711000Y-11093000I-30000J0D01*
G01*
D11*
X14661000Y-11063000D02*
X14661000Y-11123000D01*
X14701000Y-11063000D02*
X14701000Y-11123000D01*
X14661000Y-11123000D02*
G75*
G03*
X14701000Y-11123000I20000J0D01*
G01*
X14701000Y-11063000D02*
G75*
G03*
X14661000Y-11063000I-20000J0D01*
G01*
D13*
X15575000Y-10675000D02*
G75*
G03*
X15575000Y-10675000I-30000J0D01*
G01*
D11*
X15525000Y-10620000D02*
X15525000Y-10730000D01*
X15565000Y-10620000D02*
X15565000Y-10730000D01*
X15525000Y-10730000D02*
G75*
G03*
X15565000Y-10730000I20000J0D01*
G01*
X15565000Y-10620000D02*
G75*
G03*
X15525000Y-10620000I-20000J0D01*
G01*
D13*
X15575000Y-11093000D02*
G75*
G03*
X15575000Y-11093000I-30000J0D01*
G01*
D11*
X15525000Y-11063000D02*
X15525000Y-11123000D01*
X15565000Y-11063000D02*
X15565000Y-11123000D01*
X15525000Y-11123000D02*
G75*
G03*
X15565000Y-11123000I20000J0D01*
G01*
X15565000Y-11063000D02*
G75*
G03*
X15525000Y-11063000I-20000J0D01*
G01*
D14*
X12710000Y-7647000D02*
X12710000Y-7742000D01*
X12662500Y-7694500D02*
X12757500Y-7694500D01*
X12960000Y-7647000D02*
X12960000Y-7742000D01*
X12912500Y-7694500D02*
X13007500Y-7694500D01*
X13210000Y-7647000D02*
X13210000Y-7742000D01*
X13162500Y-7694500D02*
X13257500Y-7694500D01*
X13460000Y-7647000D02*
X13460000Y-7742000D01*
X13412500Y-7694500D02*
X13507500Y-7694500D01*
X13710000Y-7647000D02*
X13710000Y-7742000D01*
X13662500Y-7694500D02*
X13757500Y-7694500D01*
X13960000Y-7647000D02*
X13960000Y-7742000D01*
X13912500Y-7694500D02*
X14007500Y-7694500D01*
D15*
X12925856Y-9023856D02*
X12925856Y-8953144D01*
X12855144Y-8953144D01*
X12855144Y-9023856D01*
X12925856Y-9023856D01*
D11*
X12790500Y-9028500D02*
X12990500Y-9028500D01*
X12790500Y-8948500D02*
X12990500Y-8948500D01*
X12990500Y-9028500D02*
G75*
G03*
X12990500Y-8948500I0J40000D01*
G01*
X12790500Y-8948500D02*
G75*
G03*
X12790500Y-9028500I0J-40000D01*
G01*
D15*
X12925856Y-9623856D02*
X12925856Y-9553144D01*
X12855144Y-9553144D01*
X12855144Y-9623856D01*
X12925856Y-9623856D01*
D11*
X12790500Y-9628500D02*
X12990500Y-9628500D01*
X12790500Y-9548500D02*
X12990500Y-9548500D01*
X12990500Y-9628500D02*
G75*
G03*
X12990500Y-9548500I0J40000D01*
G01*
X12790500Y-9548500D02*
G75*
G03*
X12790500Y-9628500I0J-40000D01*
G01*
D15*
X15658356Y-7729856D02*
X15658356Y-7659144D01*
X15587644Y-7659144D01*
X15587644Y-7729856D01*
X15658356Y-7729856D01*
X15908356Y-7729856D02*
X15908356Y-7659144D01*
X15837644Y-7659144D01*
X15837644Y-7729856D01*
X15908356Y-7729856D01*
D16*
X14788000Y-9228000D02*
X14843000Y-9173000D01*
X14788000Y-9118000D01*
X14733000Y-9173000D01*
X14788000Y-9228000D01*
X14788000Y-9678000D02*
X14843000Y-9623000D01*
X14788000Y-9568000D01*
X14733000Y-9623000D01*
X14788000Y-9678000D01*
X15438000Y-9228000D02*
X15493000Y-9173000D01*
X15438000Y-9118000D01*
X15383000Y-9173000D01*
X15438000Y-9228000D01*
X15438000Y-9678000D02*
X15493000Y-9623000D01*
X15438000Y-9568000D01*
X15383000Y-9623000D01*
X15438000Y-9678000D01*
X16629500Y-9228000D02*
X16684500Y-9173000D01*
X16629500Y-9118000D01*
X16574500Y-9173000D01*
X16629500Y-9228000D01*
X16629500Y-9678000D02*
X16684500Y-9623000D01*
X16629500Y-9568000D01*
X16574500Y-9623000D01*
X16629500Y-9678000D01*
X17279500Y-9228000D02*
X17334500Y-9173000D01*
X17279500Y-9118000D01*
X17224500Y-9173000D01*
X17279500Y-9228000D01*
X17279500Y-9678000D02*
X17334500Y-9623000D01*
X17279500Y-9568000D01*
X17224500Y-9623000D01*
X17279500Y-9678000D01*
D17*
X14791500Y-10692500D02*
X14856500Y-10757500D01*
X14856500Y-10692500D02*
X14791500Y-10757500D01*
X14856500Y-10725000D02*
G75*
G03*
X14856500Y-10725000I-32500J0D01*
G01*
X15369500Y-10692500D02*
X15434500Y-10757500D01*
X15434500Y-10692500D02*
X15369500Y-10757500D01*
X15434500Y-10725000D02*
G75*
G03*
X15434500Y-10725000I-32500J0D01*
G01*
D11*
X11436450Y-11640193D02*
X11436450Y-11440193D01*
X11484069Y-11440193D01*
X11512641Y-11449717D01*
X11531689Y-11468764D01*
X11541212Y-11487812D01*
X11550736Y-11525907D01*
X11550736Y-11554478D01*
X11541212Y-11592574D01*
X11531689Y-11611621D01*
X11512641Y-11630669D01*
X11484069Y-11640193D01*
X11436450Y-11640193D01*
X11636450Y-11640193D02*
X11636450Y-11506859D01*
X11636450Y-11544955D02*
X11645974Y-11525907D01*
X11655498Y-11516383D01*
X11674546Y-11506859D01*
X11693593Y-11506859D01*
X11760260Y-11640193D02*
X11760260Y-11506859D01*
X11760260Y-11440193D02*
X11750736Y-11449717D01*
X11760260Y-11459240D01*
X11769784Y-11449717D01*
X11760260Y-11440193D01*
X11760260Y-11459240D01*
X11884069Y-11640193D02*
X11865022Y-11630669D01*
X11855498Y-11611621D01*
X11855498Y-11440193D01*
X11988831Y-11640193D02*
X11969784Y-11630669D01*
X11960260Y-11611621D01*
X11960260Y-11440193D01*
X12217403Y-11640193D02*
X12217403Y-11440193D01*
X12284069Y-11583050D01*
X12350736Y-11440193D01*
X12350736Y-11640193D01*
X12531689Y-11640193D02*
X12531689Y-11535431D01*
X12522165Y-11516383D01*
X12503117Y-11506859D01*
X12465022Y-11506859D01*
X12445974Y-11516383D01*
X12531689Y-11630669D02*
X12512641Y-11640193D01*
X12465022Y-11640193D01*
X12445974Y-11630669D01*
X12436450Y-11611621D01*
X12436450Y-11592574D01*
X12445974Y-11573526D01*
X12465022Y-11564002D01*
X12512641Y-11564002D01*
X12531689Y-11554478D01*
X12626927Y-11506859D02*
X12626927Y-11706859D01*
X12626927Y-11516383D02*
X12645974Y-11506859D01*
X12684069Y-11506859D01*
X12703117Y-11516383D01*
X12712641Y-11525907D01*
X12722165Y-11544955D01*
X12722165Y-11602097D01*
X12712641Y-11621145D01*
X12703117Y-11630669D01*
X12684069Y-11640193D01*
X12645974Y-11640193D01*
X12626927Y-11630669D01*
X12807879Y-11621145D02*
X12817403Y-11630669D01*
X12807879Y-11640193D01*
X12798355Y-11630669D01*
X12807879Y-11621145D01*
X12807879Y-11640193D01*
X12807879Y-11516383D02*
X12817403Y-11525907D01*
X12807879Y-11535431D01*
X12798355Y-11525907D01*
X12807879Y-11516383D01*
X12807879Y-11535431D01*
D12*
X11138832Y-11949717D02*
X11178832Y-11989717D01*
X11178832Y-11949717D02*
X11138832Y-11989717D01*
D11*
X11474546Y-11860193D02*
X11493593Y-11860193D01*
X11512641Y-11869717D01*
X11522165Y-11879240D01*
X11531689Y-11898288D01*
X11541212Y-11936383D01*
X11541212Y-11984002D01*
X11531689Y-12022097D01*
X11522165Y-12041145D01*
X11512641Y-12050669D01*
X11493593Y-12060193D01*
X11474546Y-12060193D01*
X11455498Y-12050669D01*
X11445974Y-12041145D01*
X11436450Y-12022097D01*
X11426927Y-11984002D01*
X11426927Y-11936383D01*
X11436450Y-11898288D01*
X11445974Y-11879240D01*
X11455498Y-11869717D01*
X11474546Y-11860193D01*
X11626927Y-12041145D02*
X11636450Y-12050669D01*
X11626927Y-12060193D01*
X11617403Y-12050669D01*
X11626927Y-12041145D01*
X11626927Y-12060193D01*
X11807879Y-11926859D02*
X11807879Y-12060193D01*
X11760260Y-11850669D02*
X11712641Y-11993526D01*
X11836450Y-11993526D01*
X11950736Y-11860193D02*
X11969784Y-11860193D01*
X11988831Y-11869717D01*
X11998355Y-11879240D01*
X12007879Y-11898288D01*
X12017403Y-11936383D01*
X12017403Y-11984002D01*
X12007879Y-12022097D01*
X11998355Y-12041145D01*
X11988831Y-12050669D01*
X11969784Y-12060193D01*
X11950736Y-12060193D01*
X11931689Y-12050669D01*
X11922165Y-12041145D01*
X11912641Y-12022097D01*
X11903117Y-11984002D01*
X11903117Y-11936383D01*
X11912641Y-11898288D01*
X11922165Y-11879240D01*
X11931689Y-11869717D01*
X11950736Y-11860193D01*
X12141212Y-11860193D02*
X12160260Y-11860193D01*
X12179308Y-11869717D01*
X12188831Y-11879240D01*
X12198355Y-11898288D01*
X12207879Y-11936383D01*
X12207879Y-11984002D01*
X12198355Y-12022097D01*
X12188831Y-12041145D01*
X12179308Y-12050669D01*
X12160260Y-12060193D01*
X12141212Y-12060193D01*
X12122165Y-12050669D01*
X12112641Y-12041145D01*
X12103117Y-12022097D01*
X12093593Y-11984002D01*
X12093593Y-11936383D01*
X12103117Y-11898288D01*
X12112641Y-11879240D01*
X12122165Y-11869717D01*
X12141212Y-11860193D01*
X12293593Y-12060193D02*
X12293593Y-11926859D01*
X12293593Y-11945907D02*
X12303117Y-11936383D01*
X12322165Y-11926859D01*
X12350736Y-11926859D01*
X12369784Y-11936383D01*
X12379308Y-11955431D01*
X12379308Y-12060193D01*
X12379308Y-11955431D02*
X12388831Y-11936383D01*
X12407879Y-11926859D01*
X12436450Y-11926859D01*
X12455498Y-11936383D01*
X12465022Y-11955431D01*
X12465022Y-12060193D01*
X12560260Y-12060193D02*
X12560260Y-11926859D01*
X12560260Y-11945907D02*
X12569784Y-11936383D01*
X12588831Y-11926859D01*
X12617403Y-11926859D01*
X12636450Y-11936383D01*
X12645974Y-11955431D01*
X12645974Y-12060193D01*
X12645974Y-11955431D02*
X12655498Y-11936383D01*
X12674546Y-11926859D01*
X12703117Y-11926859D01*
X12722165Y-11936383D01*
X12731689Y-11955431D01*
X12731689Y-12060193D01*
X13122165Y-11850669D02*
X12950736Y-12107812D01*
X13379308Y-11860193D02*
X13398355Y-11860193D01*
X13417403Y-11869717D01*
X13426927Y-11879240D01*
X13436450Y-11898288D01*
X13445974Y-11936383D01*
X13445974Y-11984002D01*
X13436450Y-12022097D01*
X13426927Y-12041145D01*
X13417403Y-12050669D01*
X13398355Y-12060193D01*
X13379308Y-12060193D01*
X13360260Y-12050669D01*
X13350736Y-12041145D01*
X13341212Y-12022097D01*
X13331689Y-11984002D01*
X13331689Y-11936383D01*
X13341212Y-11898288D01*
X13350736Y-11879240D01*
X13360260Y-11869717D01*
X13379308Y-11860193D01*
X13531689Y-12041145D02*
X13541212Y-12050669D01*
X13531689Y-12060193D01*
X13522165Y-12050669D01*
X13531689Y-12041145D01*
X13531689Y-12060193D01*
X13665022Y-11860193D02*
X13684069Y-11860193D01*
X13703117Y-11869717D01*
X13712641Y-11879240D01*
X13722165Y-11898288D01*
X13731689Y-11936383D01*
X13731689Y-11984002D01*
X13722165Y-12022097D01*
X13712641Y-12041145D01*
X13703117Y-12050669D01*
X13684069Y-12060193D01*
X13665022Y-12060193D01*
X13645974Y-12050669D01*
X13636450Y-12041145D01*
X13626927Y-12022097D01*
X13617403Y-11984002D01*
X13617403Y-11936383D01*
X13626927Y-11898288D01*
X13636450Y-11879240D01*
X13645974Y-11869717D01*
X13665022Y-11860193D01*
X13922165Y-12060193D02*
X13807879Y-12060193D01*
X13865022Y-12060193D02*
X13865022Y-11860193D01*
X13845974Y-11888764D01*
X13826927Y-11907812D01*
X13807879Y-11917336D01*
X14103117Y-11860193D02*
X14007879Y-11860193D01*
X13998355Y-11955431D01*
X14007879Y-11945907D01*
X14026927Y-11936383D01*
X14074546Y-11936383D01*
X14093593Y-11945907D01*
X14103117Y-11955431D01*
X14112641Y-11974478D01*
X14112641Y-12022097D01*
X14103117Y-12041145D01*
X14093593Y-12050669D01*
X14074546Y-12060193D01*
X14026927Y-12060193D01*
X14007879Y-12050669D01*
X13998355Y-12041145D01*
X14179308Y-11860193D02*
X14312641Y-11860193D01*
X14226927Y-12060193D01*
X14379308Y-11860193D02*
X14379308Y-11898288D01*
X14455498Y-11860193D02*
X14455498Y-11898288D01*
X14750736Y-12136383D02*
X14741212Y-12126859D01*
X14722165Y-12098288D01*
X14712641Y-12079240D01*
X14703117Y-12050669D01*
X14693593Y-12003050D01*
X14693593Y-11964955D01*
X14703117Y-11917336D01*
X14712641Y-11888764D01*
X14722165Y-11869717D01*
X14741212Y-11841145D01*
X14750736Y-11831621D01*
X14817403Y-11879240D02*
X14826927Y-11869717D01*
X14845974Y-11860193D01*
X14893593Y-11860193D01*
X14912641Y-11869717D01*
X14922165Y-11879240D01*
X14931689Y-11898288D01*
X14931689Y-11917336D01*
X14922165Y-11945907D01*
X14807879Y-12060193D01*
X14931689Y-12060193D01*
X15007879Y-11879240D02*
X15017403Y-11869717D01*
X15036450Y-11860193D01*
X15084069Y-11860193D01*
X15103117Y-11869717D01*
X15112641Y-11879240D01*
X15122165Y-11898288D01*
X15122165Y-11917336D01*
X15112641Y-11945907D01*
X14998355Y-12060193D01*
X15122165Y-12060193D01*
X15360260Y-12060193D02*
X15360260Y-11860193D01*
X15445974Y-12060193D02*
X15445974Y-11955431D01*
X15436450Y-11936383D01*
X15417403Y-11926859D01*
X15388831Y-11926859D01*
X15369784Y-11936383D01*
X15360260Y-11945907D01*
X15569784Y-12060193D02*
X15550736Y-12050669D01*
X15541212Y-12041145D01*
X15531689Y-12022097D01*
X15531689Y-11964955D01*
X15541212Y-11945907D01*
X15550736Y-11936383D01*
X15569784Y-11926859D01*
X15598355Y-11926859D01*
X15617403Y-11936383D01*
X15626927Y-11945907D01*
X15636450Y-11964955D01*
X15636450Y-12022097D01*
X15626927Y-12041145D01*
X15617403Y-12050669D01*
X15598355Y-12060193D01*
X15569784Y-12060193D01*
X15750736Y-12060193D02*
X15731689Y-12050669D01*
X15722165Y-12031621D01*
X15722165Y-11860193D01*
X15903117Y-12050669D02*
X15884069Y-12060193D01*
X15845974Y-12060193D01*
X15826927Y-12050669D01*
X15817403Y-12031621D01*
X15817403Y-11955431D01*
X15826927Y-11936383D01*
X15845974Y-11926859D01*
X15884069Y-11926859D01*
X15903117Y-11936383D01*
X15912641Y-11955431D01*
X15912641Y-11974478D01*
X15817403Y-11993526D01*
X15988831Y-12050669D02*
X16007879Y-12060193D01*
X16045974Y-12060193D01*
X16065022Y-12050669D01*
X16074546Y-12031621D01*
X16074546Y-12022097D01*
X16065022Y-12003050D01*
X16045974Y-11993526D01*
X16017403Y-11993526D01*
X15998355Y-11984002D01*
X15988831Y-11964955D01*
X15988831Y-11955431D01*
X15998355Y-11936383D01*
X16017403Y-11926859D01*
X16045974Y-11926859D01*
X16065022Y-11936383D01*
X16141212Y-12136383D02*
X16150736Y-12126859D01*
X16169784Y-12098288D01*
X16179308Y-12079240D01*
X16188831Y-12050669D01*
X16198355Y-12003050D01*
X16198355Y-11964955D01*
X16188831Y-11917336D01*
X16179308Y-11888764D01*
X16169784Y-11869717D01*
X16150736Y-11841145D01*
X16141212Y-11831621D01*
D13*
X11178832Y-12233717D02*
G75*
G03*
X11178832Y-12233717I-30000J0D01*
G01*
D11*
X11474546Y-12124193D02*
X11493593Y-12124193D01*
X11512641Y-12133717D01*
X11522165Y-12143240D01*
X11531689Y-12162288D01*
X11541212Y-12200383D01*
X11541212Y-12248002D01*
X11531689Y-12286097D01*
X11522165Y-12305145D01*
X11512641Y-12314669D01*
X11493593Y-12324193D01*
X11474546Y-12324193D01*
X11455498Y-12314669D01*
X11445974Y-12305145D01*
X11436450Y-12286097D01*
X11426927Y-12248002D01*
X11426927Y-12200383D01*
X11436450Y-12162288D01*
X11445974Y-12143240D01*
X11455498Y-12133717D01*
X11474546Y-12124193D01*
X11626927Y-12305145D02*
X11636450Y-12314669D01*
X11626927Y-12324193D01*
X11617403Y-12314669D01*
X11626927Y-12305145D01*
X11626927Y-12324193D01*
X11807879Y-12124193D02*
X11769784Y-12124193D01*
X11750736Y-12133717D01*
X11741212Y-12143240D01*
X11722165Y-12171812D01*
X11712641Y-12209907D01*
X11712641Y-12286097D01*
X11722165Y-12305145D01*
X11731689Y-12314669D01*
X11750736Y-12324193D01*
X11788831Y-12324193D01*
X11807879Y-12314669D01*
X11817403Y-12305145D01*
X11826927Y-12286097D01*
X11826927Y-12238478D01*
X11817403Y-12219431D01*
X11807879Y-12209907D01*
X11788831Y-12200383D01*
X11750736Y-12200383D01*
X11731689Y-12209907D01*
X11722165Y-12219431D01*
X11712641Y-12238478D01*
X11950736Y-12124193D02*
X11969784Y-12124193D01*
X11988831Y-12133717D01*
X11998355Y-12143240D01*
X12007879Y-12162288D01*
X12017403Y-12200383D01*
X12017403Y-12248002D01*
X12007879Y-12286097D01*
X11998355Y-12305145D01*
X11988831Y-12314669D01*
X11969784Y-12324193D01*
X11950736Y-12324193D01*
X11931689Y-12314669D01*
X11922165Y-12305145D01*
X11912641Y-12286097D01*
X11903117Y-12248002D01*
X11903117Y-12200383D01*
X11912641Y-12162288D01*
X11922165Y-12143240D01*
X11931689Y-12133717D01*
X11950736Y-12124193D01*
X12141212Y-12124193D02*
X12160260Y-12124193D01*
X12179308Y-12133717D01*
X12188831Y-12143240D01*
X12198355Y-12162288D01*
X12207879Y-12200383D01*
X12207879Y-12248002D01*
X12198355Y-12286097D01*
X12188831Y-12305145D01*
X12179308Y-12314669D01*
X12160260Y-12324193D01*
X12141212Y-12324193D01*
X12122165Y-12314669D01*
X12112641Y-12305145D01*
X12103117Y-12286097D01*
X12093593Y-12248002D01*
X12093593Y-12200383D01*
X12103117Y-12162288D01*
X12112641Y-12143240D01*
X12122165Y-12133717D01*
X12141212Y-12124193D01*
X12293593Y-12324193D02*
X12293593Y-12190859D01*
X12293593Y-12209907D02*
X12303117Y-12200383D01*
X12322165Y-12190859D01*
X12350736Y-12190859D01*
X12369784Y-12200383D01*
X12379308Y-12219431D01*
X12379308Y-12324193D01*
X12379308Y-12219431D02*
X12388831Y-12200383D01*
X12407879Y-12190859D01*
X12436450Y-12190859D01*
X12455498Y-12200383D01*
X12465022Y-12219431D01*
X12465022Y-12324193D01*
X12560260Y-12324193D02*
X12560260Y-12190859D01*
X12560260Y-12209907D02*
X12569784Y-12200383D01*
X12588831Y-12190859D01*
X12617403Y-12190859D01*
X12636450Y-12200383D01*
X12645974Y-12219431D01*
X12645974Y-12324193D01*
X12645974Y-12219431D02*
X12655498Y-12200383D01*
X12674546Y-12190859D01*
X12703117Y-12190859D01*
X12722165Y-12200383D01*
X12731689Y-12219431D01*
X12731689Y-12324193D01*
X13122165Y-12114669D02*
X12950736Y-12371812D01*
X13379308Y-12124193D02*
X13398355Y-12124193D01*
X13417403Y-12133717D01*
X13426927Y-12143240D01*
X13436450Y-12162288D01*
X13445974Y-12200383D01*
X13445974Y-12248002D01*
X13436450Y-12286097D01*
X13426927Y-12305145D01*
X13417403Y-12314669D01*
X13398355Y-12324193D01*
X13379308Y-12324193D01*
X13360260Y-12314669D01*
X13350736Y-12305145D01*
X13341212Y-12286097D01*
X13331689Y-12248002D01*
X13331689Y-12200383D01*
X13341212Y-12162288D01*
X13350736Y-12143240D01*
X13360260Y-12133717D01*
X13379308Y-12124193D01*
X13531689Y-12305145D02*
X13541212Y-12314669D01*
X13531689Y-12324193D01*
X13522165Y-12314669D01*
X13531689Y-12305145D01*
X13531689Y-12324193D01*
X13665022Y-12124193D02*
X13684069Y-12124193D01*
X13703117Y-12133717D01*
X13712641Y-12143240D01*
X13722165Y-12162288D01*
X13731689Y-12200383D01*
X13731689Y-12248002D01*
X13722165Y-12286097D01*
X13712641Y-12305145D01*
X13703117Y-12314669D01*
X13684069Y-12324193D01*
X13665022Y-12324193D01*
X13645974Y-12314669D01*
X13636450Y-12305145D01*
X13626927Y-12286097D01*
X13617403Y-12248002D01*
X13617403Y-12200383D01*
X13626927Y-12162288D01*
X13636450Y-12143240D01*
X13645974Y-12133717D01*
X13665022Y-12124193D01*
X13807879Y-12143240D02*
X13817403Y-12133717D01*
X13836450Y-12124193D01*
X13884069Y-12124193D01*
X13903117Y-12133717D01*
X13912641Y-12143240D01*
X13922165Y-12162288D01*
X13922165Y-12181336D01*
X13912641Y-12209907D01*
X13798355Y-12324193D01*
X13922165Y-12324193D01*
X13988831Y-12124193D02*
X14112641Y-12124193D01*
X14045974Y-12200383D01*
X14074546Y-12200383D01*
X14093593Y-12209907D01*
X14103117Y-12219431D01*
X14112641Y-12238478D01*
X14112641Y-12286097D01*
X14103117Y-12305145D01*
X14093593Y-12314669D01*
X14074546Y-12324193D01*
X14017403Y-12324193D01*
X13998355Y-12314669D01*
X13988831Y-12305145D01*
X14284069Y-12124193D02*
X14245974Y-12124193D01*
X14226927Y-12133717D01*
X14217403Y-12143240D01*
X14198355Y-12171812D01*
X14188831Y-12209907D01*
X14188831Y-12286097D01*
X14198355Y-12305145D01*
X14207879Y-12314669D01*
X14226927Y-12324193D01*
X14265022Y-12324193D01*
X14284069Y-12314669D01*
X14293593Y-12305145D01*
X14303117Y-12286097D01*
X14303117Y-12238478D01*
X14293593Y-12219431D01*
X14284069Y-12209907D01*
X14265022Y-12200383D01*
X14226927Y-12200383D01*
X14207879Y-12209907D01*
X14198355Y-12219431D01*
X14188831Y-12238478D01*
X14379308Y-12124193D02*
X14379308Y-12162288D01*
X14455498Y-12124193D02*
X14455498Y-12162288D01*
X14750736Y-12400383D02*
X14741212Y-12390859D01*
X14722165Y-12362288D01*
X14712641Y-12343240D01*
X14703117Y-12314669D01*
X14693593Y-12267050D01*
X14693593Y-12228955D01*
X14703117Y-12181336D01*
X14712641Y-12152764D01*
X14722165Y-12133717D01*
X14741212Y-12105145D01*
X14750736Y-12095621D01*
X14865022Y-12124193D02*
X14884069Y-12124193D01*
X14903117Y-12133717D01*
X14912641Y-12143240D01*
X14922165Y-12162288D01*
X14931689Y-12200383D01*
X14931689Y-12248002D01*
X14922165Y-12286097D01*
X14912641Y-12305145D01*
X14903117Y-12314669D01*
X14884069Y-12324193D01*
X14865022Y-12324193D01*
X14845974Y-12314669D01*
X14836450Y-12305145D01*
X14826927Y-12286097D01*
X14817403Y-12248002D01*
X14817403Y-12200383D01*
X14826927Y-12162288D01*
X14836450Y-12143240D01*
X14845974Y-12133717D01*
X14865022Y-12124193D01*
X15169784Y-12324193D02*
X15169784Y-12124193D01*
X15255498Y-12324193D02*
X15255498Y-12219431D01*
X15245974Y-12200383D01*
X15226927Y-12190859D01*
X15198355Y-12190859D01*
X15179308Y-12200383D01*
X15169784Y-12209907D01*
X15379308Y-12324193D02*
X15360260Y-12314669D01*
X15350736Y-12305145D01*
X15341212Y-12286097D01*
X15341212Y-12228955D01*
X15350736Y-12209907D01*
X15360260Y-12200383D01*
X15379308Y-12190859D01*
X15407879Y-12190859D01*
X15426927Y-12200383D01*
X15436450Y-12209907D01*
X15445974Y-12228955D01*
X15445974Y-12286097D01*
X15436450Y-12305145D01*
X15426927Y-12314669D01*
X15407879Y-12324193D01*
X15379308Y-12324193D01*
X15560260Y-12324193D02*
X15541212Y-12314669D01*
X15531689Y-12295621D01*
X15531689Y-12124193D01*
X15712641Y-12314669D02*
X15693593Y-12324193D01*
X15655498Y-12324193D01*
X15636450Y-12314669D01*
X15626927Y-12295621D01*
X15626927Y-12219431D01*
X15636450Y-12200383D01*
X15655498Y-12190859D01*
X15693593Y-12190859D01*
X15712641Y-12200383D01*
X15722165Y-12219431D01*
X15722165Y-12238478D01*
X15626927Y-12257526D01*
X15798355Y-12314669D02*
X15817403Y-12324193D01*
X15855498Y-12324193D01*
X15874546Y-12314669D01*
X15884069Y-12295621D01*
X15884069Y-12286097D01*
X15874546Y-12267050D01*
X15855498Y-12257526D01*
X15826927Y-12257526D01*
X15807879Y-12248002D01*
X15798355Y-12228955D01*
X15798355Y-12219431D01*
X15807879Y-12200383D01*
X15826927Y-12190859D01*
X15855498Y-12190859D01*
X15874546Y-12200383D01*
X16122165Y-12248002D02*
X16274546Y-12248002D01*
X16198355Y-12324193D02*
X16198355Y-12171812D01*
X16607879Y-12190859D02*
X16607879Y-12324193D01*
X16560260Y-12114669D02*
X16512641Y-12257526D01*
X16636450Y-12257526D01*
X16855498Y-12314669D02*
X16874546Y-12324193D01*
X16912641Y-12324193D01*
X16931689Y-12314669D01*
X16941212Y-12295621D01*
X16941212Y-12286097D01*
X16931689Y-12267050D01*
X16912641Y-12257526D01*
X16884070Y-12257526D01*
X16865022Y-12248002D01*
X16855498Y-12228955D01*
X16855498Y-12219431D01*
X16865022Y-12200383D01*
X16884070Y-12190859D01*
X16912641Y-12190859D01*
X16931689Y-12200383D01*
X17055498Y-12324193D02*
X17036451Y-12314669D01*
X17026927Y-12295621D01*
X17026927Y-12124193D01*
X17160260Y-12324193D02*
X17141212Y-12314669D01*
X17131689Y-12305145D01*
X17122165Y-12286097D01*
X17122165Y-12228955D01*
X17131689Y-12209907D01*
X17141212Y-12200383D01*
X17160260Y-12190859D01*
X17188831Y-12190859D01*
X17207879Y-12200383D01*
X17217403Y-12209907D01*
X17226927Y-12228955D01*
X17226927Y-12286097D01*
X17217403Y-12305145D01*
X17207879Y-12314669D01*
X17188831Y-12324193D01*
X17160260Y-12324193D01*
X17284070Y-12190859D02*
X17360260Y-12190859D01*
X17312641Y-12124193D02*
X17312641Y-12295621D01*
X17322165Y-12314669D01*
X17341212Y-12324193D01*
X17360260Y-12324193D01*
X17417403Y-12314669D02*
X17436451Y-12324193D01*
X17474546Y-12324193D01*
X17493593Y-12314669D01*
X17503117Y-12295621D01*
X17503117Y-12286097D01*
X17493593Y-12267050D01*
X17474546Y-12257526D01*
X17445974Y-12257526D01*
X17426927Y-12248002D01*
X17417403Y-12228955D01*
X17417403Y-12219431D01*
X17426927Y-12200383D01*
X17445974Y-12190859D01*
X17474546Y-12190859D01*
X17493593Y-12200383D01*
X17569784Y-12400383D02*
X17579308Y-12390859D01*
X17598355Y-12362288D01*
X17607879Y-12343240D01*
X17617403Y-12314669D01*
X17626927Y-12267050D01*
X17626927Y-12228955D01*
X17617403Y-12181336D01*
X17607879Y-12152764D01*
X17598355Y-12133717D01*
X17579308Y-12105145D01*
X17569784Y-12095621D01*
D14*
X11131332Y-12450217D02*
X11131332Y-12545217D01*
X11083832Y-12497717D02*
X11178832Y-12497717D01*
D11*
X11474546Y-12388193D02*
X11493593Y-12388193D01*
X11512641Y-12397717D01*
X11522165Y-12407240D01*
X11531689Y-12426288D01*
X11541212Y-12464383D01*
X11541212Y-12512002D01*
X11531689Y-12550097D01*
X11522165Y-12569145D01*
X11512641Y-12578669D01*
X11493593Y-12588193D01*
X11474546Y-12588193D01*
X11455498Y-12578669D01*
X11445974Y-12569145D01*
X11436450Y-12550097D01*
X11426927Y-12512002D01*
X11426927Y-12464383D01*
X11436450Y-12426288D01*
X11445974Y-12407240D01*
X11455498Y-12397717D01*
X11474546Y-12388193D01*
X11626927Y-12569145D02*
X11636450Y-12578669D01*
X11626927Y-12588193D01*
X11617403Y-12578669D01*
X11626927Y-12569145D01*
X11626927Y-12588193D01*
X11731689Y-12588193D02*
X11769784Y-12588193D01*
X11788831Y-12578669D01*
X11798355Y-12569145D01*
X11817403Y-12540574D01*
X11826927Y-12502478D01*
X11826927Y-12426288D01*
X11817403Y-12407240D01*
X11807879Y-12397717D01*
X11788831Y-12388193D01*
X11750736Y-12388193D01*
X11731689Y-12397717D01*
X11722165Y-12407240D01*
X11712641Y-12426288D01*
X11712641Y-12473907D01*
X11722165Y-12492955D01*
X11731689Y-12502478D01*
X11750736Y-12512002D01*
X11788831Y-12512002D01*
X11807879Y-12502478D01*
X11817403Y-12492955D01*
X11826927Y-12473907D01*
X12007879Y-12388193D02*
X11912641Y-12388193D01*
X11903117Y-12483431D01*
X11912641Y-12473907D01*
X11931689Y-12464383D01*
X11979308Y-12464383D01*
X11998355Y-12473907D01*
X12007879Y-12483431D01*
X12017403Y-12502478D01*
X12017403Y-12550097D01*
X12007879Y-12569145D01*
X11998355Y-12578669D01*
X11979308Y-12588193D01*
X11931689Y-12588193D01*
X11912641Y-12578669D01*
X11903117Y-12569145D01*
X12141212Y-12388193D02*
X12160260Y-12388193D01*
X12179308Y-12397717D01*
X12188831Y-12407240D01*
X12198355Y-12426288D01*
X12207879Y-12464383D01*
X12207879Y-12512002D01*
X12198355Y-12550097D01*
X12188831Y-12569145D01*
X12179308Y-12578669D01*
X12160260Y-12588193D01*
X12141212Y-12588193D01*
X12122165Y-12578669D01*
X12112641Y-12569145D01*
X12103117Y-12550097D01*
X12093593Y-12512002D01*
X12093593Y-12464383D01*
X12103117Y-12426288D01*
X12112641Y-12407240D01*
X12122165Y-12397717D01*
X12141212Y-12388193D01*
X12293593Y-12588193D02*
X12293593Y-12454859D01*
X12293593Y-12473907D02*
X12303117Y-12464383D01*
X12322165Y-12454859D01*
X12350736Y-12454859D01*
X12369784Y-12464383D01*
X12379308Y-12483431D01*
X12379308Y-12588193D01*
X12379308Y-12483431D02*
X12388831Y-12464383D01*
X12407879Y-12454859D01*
X12436450Y-12454859D01*
X12455498Y-12464383D01*
X12465022Y-12483431D01*
X12465022Y-12588193D01*
X12560260Y-12588193D02*
X12560260Y-12454859D01*
X12560260Y-12473907D02*
X12569784Y-12464383D01*
X12588831Y-12454859D01*
X12617403Y-12454859D01*
X12636450Y-12464383D01*
X12645974Y-12483431D01*
X12645974Y-12588193D01*
X12645974Y-12483431D02*
X12655498Y-12464383D01*
X12674546Y-12454859D01*
X12703117Y-12454859D01*
X12722165Y-12464383D01*
X12731689Y-12483431D01*
X12731689Y-12588193D01*
X13122165Y-12378669D02*
X12950736Y-12635812D01*
X13379308Y-12388193D02*
X13398355Y-12388193D01*
X13417403Y-12397717D01*
X13426927Y-12407240D01*
X13436450Y-12426288D01*
X13445974Y-12464383D01*
X13445974Y-12512002D01*
X13436450Y-12550097D01*
X13426927Y-12569145D01*
X13417403Y-12578669D01*
X13398355Y-12588193D01*
X13379308Y-12588193D01*
X13360260Y-12578669D01*
X13350736Y-12569145D01*
X13341212Y-12550097D01*
X13331689Y-12512002D01*
X13331689Y-12464383D01*
X13341212Y-12426288D01*
X13350736Y-12407240D01*
X13360260Y-12397717D01*
X13379308Y-12388193D01*
X13531689Y-12569145D02*
X13541212Y-12578669D01*
X13531689Y-12588193D01*
X13522165Y-12578669D01*
X13531689Y-12569145D01*
X13531689Y-12588193D01*
X13665022Y-12388193D02*
X13684069Y-12388193D01*
X13703117Y-12397717D01*
X13712641Y-12407240D01*
X13722165Y-12426288D01*
X13731689Y-12464383D01*
X13731689Y-12512002D01*
X13722165Y-12550097D01*
X13712641Y-12569145D01*
X13703117Y-12578669D01*
X13684069Y-12588193D01*
X13665022Y-12588193D01*
X13645974Y-12578669D01*
X13636450Y-12569145D01*
X13626927Y-12550097D01*
X13617403Y-12512002D01*
X13617403Y-12464383D01*
X13626927Y-12426288D01*
X13636450Y-12407240D01*
X13645974Y-12397717D01*
X13665022Y-12388193D01*
X13798355Y-12388193D02*
X13922165Y-12388193D01*
X13855498Y-12464383D01*
X13884069Y-12464383D01*
X13903117Y-12473907D01*
X13912641Y-12483431D01*
X13922165Y-12502478D01*
X13922165Y-12550097D01*
X13912641Y-12569145D01*
X13903117Y-12578669D01*
X13884069Y-12588193D01*
X13826927Y-12588193D01*
X13807879Y-12578669D01*
X13798355Y-12569145D01*
X13988831Y-12388193D02*
X14122165Y-12388193D01*
X14036450Y-12588193D01*
X14284069Y-12454859D02*
X14284069Y-12588193D01*
X14236450Y-12378669D02*
X14188831Y-12521526D01*
X14312641Y-12521526D01*
X14379308Y-12388193D02*
X14379308Y-12426288D01*
X14455498Y-12388193D02*
X14455498Y-12426288D01*
X14750736Y-12664383D02*
X14741212Y-12654859D01*
X14722165Y-12626288D01*
X14712641Y-12607240D01*
X14703117Y-12578669D01*
X14693593Y-12531050D01*
X14693593Y-12492955D01*
X14703117Y-12445336D01*
X14712641Y-12416764D01*
X14722165Y-12397717D01*
X14741212Y-12369145D01*
X14750736Y-12359621D01*
X14912641Y-12388193D02*
X14874546Y-12388193D01*
X14855498Y-12397717D01*
X14845974Y-12407240D01*
X14826927Y-12435812D01*
X14817403Y-12473907D01*
X14817403Y-12550097D01*
X14826927Y-12569145D01*
X14836450Y-12578669D01*
X14855498Y-12588193D01*
X14893593Y-12588193D01*
X14912641Y-12578669D01*
X14922165Y-12569145D01*
X14931689Y-12550097D01*
X14931689Y-12502478D01*
X14922165Y-12483431D01*
X14912641Y-12473907D01*
X14893593Y-12464383D01*
X14855498Y-12464383D01*
X14836450Y-12473907D01*
X14826927Y-12483431D01*
X14817403Y-12502478D01*
X15169784Y-12588193D02*
X15169784Y-12388193D01*
X15255498Y-12588193D02*
X15255498Y-12483431D01*
X15245974Y-12464383D01*
X15226927Y-12454859D01*
X15198355Y-12454859D01*
X15179308Y-12464383D01*
X15169784Y-12473907D01*
X15379308Y-12588193D02*
X15360260Y-12578669D01*
X15350736Y-12569145D01*
X15341212Y-12550097D01*
X15341212Y-12492955D01*
X15350736Y-12473907D01*
X15360260Y-12464383D01*
X15379308Y-12454859D01*
X15407879Y-12454859D01*
X15426927Y-12464383D01*
X15436450Y-12473907D01*
X15445974Y-12492955D01*
X15445974Y-12550097D01*
X15436450Y-12569145D01*
X15426927Y-12578669D01*
X15407879Y-12588193D01*
X15379308Y-12588193D01*
X15560260Y-12588193D02*
X15541212Y-12578669D01*
X15531689Y-12559621D01*
X15531689Y-12388193D01*
X15712641Y-12578669D02*
X15693593Y-12588193D01*
X15655498Y-12588193D01*
X15636450Y-12578669D01*
X15626927Y-12559621D01*
X15626927Y-12483431D01*
X15636450Y-12464383D01*
X15655498Y-12454859D01*
X15693593Y-12454859D01*
X15712641Y-12464383D01*
X15722165Y-12483431D01*
X15722165Y-12502478D01*
X15626927Y-12521526D01*
X15798355Y-12578669D02*
X15817403Y-12588193D01*
X15855498Y-12588193D01*
X15874546Y-12578669D01*
X15884069Y-12559621D01*
X15884069Y-12550097D01*
X15874546Y-12531050D01*
X15855498Y-12521526D01*
X15826927Y-12521526D01*
X15807879Y-12512002D01*
X15798355Y-12492955D01*
X15798355Y-12483431D01*
X15807879Y-12464383D01*
X15826927Y-12454859D01*
X15855498Y-12454859D01*
X15874546Y-12464383D01*
X15950736Y-12664383D02*
X15960260Y-12654859D01*
X15979308Y-12626288D01*
X15988831Y-12607240D01*
X15998355Y-12578669D01*
X16007879Y-12531050D01*
X16007879Y-12492955D01*
X15998355Y-12445336D01*
X15988831Y-12416764D01*
X15979308Y-12397717D01*
X15960260Y-12369145D01*
X15950736Y-12359621D01*
D15*
X11164187Y-12797072D02*
X11164187Y-12726361D01*
X11093476Y-12726361D01*
X11093476Y-12797072D01*
X11164187Y-12797072D01*
D11*
X11541212Y-12852193D02*
X11426927Y-12852193D01*
X11484069Y-12852193D02*
X11484069Y-12652193D01*
X11465022Y-12680764D01*
X11445974Y-12699812D01*
X11426927Y-12709336D01*
X11626927Y-12833145D02*
X11636450Y-12842669D01*
X11626927Y-12852193D01*
X11617403Y-12842669D01*
X11626927Y-12833145D01*
X11626927Y-12852193D01*
X11760260Y-12652193D02*
X11779308Y-12652193D01*
X11798355Y-12661717D01*
X11807879Y-12671240D01*
X11817403Y-12690288D01*
X11826927Y-12728383D01*
X11826927Y-12776002D01*
X11817403Y-12814097D01*
X11807879Y-12833145D01*
X11798355Y-12842669D01*
X11779308Y-12852193D01*
X11760260Y-12852193D01*
X11741212Y-12842669D01*
X11731689Y-12833145D01*
X11722165Y-12814097D01*
X11712641Y-12776002D01*
X11712641Y-12728383D01*
X11722165Y-12690288D01*
X11731689Y-12671240D01*
X11741212Y-12661717D01*
X11760260Y-12652193D01*
X11950736Y-12652193D02*
X11969784Y-12652193D01*
X11988831Y-12661717D01*
X11998355Y-12671240D01*
X12007879Y-12690288D01*
X12017403Y-12728383D01*
X12017403Y-12776002D01*
X12007879Y-12814097D01*
X11998355Y-12833145D01*
X11988831Y-12842669D01*
X11969784Y-12852193D01*
X11950736Y-12852193D01*
X11931689Y-12842669D01*
X11922165Y-12833145D01*
X11912641Y-12814097D01*
X11903117Y-12776002D01*
X11903117Y-12728383D01*
X11912641Y-12690288D01*
X11922165Y-12671240D01*
X11931689Y-12661717D01*
X11950736Y-12652193D01*
X12141212Y-12652193D02*
X12160260Y-12652193D01*
X12179308Y-12661717D01*
X12188831Y-12671240D01*
X12198355Y-12690288D01*
X12207879Y-12728383D01*
X12207879Y-12776002D01*
X12198355Y-12814097D01*
X12188831Y-12833145D01*
X12179308Y-12842669D01*
X12160260Y-12852193D01*
X12141212Y-12852193D01*
X12122165Y-12842669D01*
X12112641Y-12833145D01*
X12103117Y-12814097D01*
X12093593Y-12776002D01*
X12093593Y-12728383D01*
X12103117Y-12690288D01*
X12112641Y-12671240D01*
X12122165Y-12661717D01*
X12141212Y-12652193D01*
X12293593Y-12852193D02*
X12293593Y-12718859D01*
X12293593Y-12737907D02*
X12303117Y-12728383D01*
X12322165Y-12718859D01*
X12350736Y-12718859D01*
X12369784Y-12728383D01*
X12379308Y-12747431D01*
X12379308Y-12852193D01*
X12379308Y-12747431D02*
X12388831Y-12728383D01*
X12407879Y-12718859D01*
X12436450Y-12718859D01*
X12455498Y-12728383D01*
X12465022Y-12747431D01*
X12465022Y-12852193D01*
X12560260Y-12852193D02*
X12560260Y-12718859D01*
X12560260Y-12737907D02*
X12569784Y-12728383D01*
X12588831Y-12718859D01*
X12617403Y-12718859D01*
X12636450Y-12728383D01*
X12645974Y-12747431D01*
X12645974Y-12852193D01*
X12645974Y-12747431D02*
X12655498Y-12728383D01*
X12674546Y-12718859D01*
X12703117Y-12718859D01*
X12722165Y-12728383D01*
X12731689Y-12747431D01*
X12731689Y-12852193D01*
X13122165Y-12642669D02*
X12950736Y-12899812D01*
X13379308Y-12652193D02*
X13398355Y-12652193D01*
X13417403Y-12661717D01*
X13426927Y-12671240D01*
X13436450Y-12690288D01*
X13445974Y-12728383D01*
X13445974Y-12776002D01*
X13436450Y-12814097D01*
X13426927Y-12833145D01*
X13417403Y-12842669D01*
X13398355Y-12852193D01*
X13379308Y-12852193D01*
X13360260Y-12842669D01*
X13350736Y-12833145D01*
X13341212Y-12814097D01*
X13331689Y-12776002D01*
X13331689Y-12728383D01*
X13341212Y-12690288D01*
X13350736Y-12671240D01*
X13360260Y-12661717D01*
X13379308Y-12652193D01*
X13531689Y-12833145D02*
X13541212Y-12842669D01*
X13531689Y-12852193D01*
X13522165Y-12842669D01*
X13531689Y-12833145D01*
X13531689Y-12852193D01*
X13665022Y-12652193D02*
X13684069Y-12652193D01*
X13703117Y-12661717D01*
X13712641Y-12671240D01*
X13722165Y-12690288D01*
X13731689Y-12728383D01*
X13731689Y-12776002D01*
X13722165Y-12814097D01*
X13712641Y-12833145D01*
X13703117Y-12842669D01*
X13684069Y-12852193D01*
X13665022Y-12852193D01*
X13645974Y-12842669D01*
X13636450Y-12833145D01*
X13626927Y-12814097D01*
X13617403Y-12776002D01*
X13617403Y-12728383D01*
X13626927Y-12690288D01*
X13636450Y-12671240D01*
X13645974Y-12661717D01*
X13665022Y-12652193D01*
X13798355Y-12652193D02*
X13922165Y-12652193D01*
X13855498Y-12728383D01*
X13884069Y-12728383D01*
X13903117Y-12737907D01*
X13912641Y-12747431D01*
X13922165Y-12766478D01*
X13922165Y-12814097D01*
X13912641Y-12833145D01*
X13903117Y-12842669D01*
X13884069Y-12852193D01*
X13826927Y-12852193D01*
X13807879Y-12842669D01*
X13798355Y-12833145D01*
X14017403Y-12852193D02*
X14055498Y-12852193D01*
X14074546Y-12842669D01*
X14084069Y-12833145D01*
X14103117Y-12804574D01*
X14112641Y-12766478D01*
X14112641Y-12690288D01*
X14103117Y-12671240D01*
X14093593Y-12661717D01*
X14074546Y-12652193D01*
X14036450Y-12652193D01*
X14017403Y-12661717D01*
X14007879Y-12671240D01*
X13998355Y-12690288D01*
X13998355Y-12737907D01*
X14007879Y-12756955D01*
X14017403Y-12766478D01*
X14036450Y-12776002D01*
X14074546Y-12776002D01*
X14093593Y-12766478D01*
X14103117Y-12756955D01*
X14112641Y-12737907D01*
X14284069Y-12718859D02*
X14284069Y-12852193D01*
X14236450Y-12642669D02*
X14188831Y-12785526D01*
X14312641Y-12785526D01*
X14379308Y-12652193D02*
X14379308Y-12690288D01*
X14455498Y-12652193D02*
X14455498Y-12690288D01*
X14750736Y-12928383D02*
X14741212Y-12918859D01*
X14722165Y-12890288D01*
X14712641Y-12871240D01*
X14703117Y-12842669D01*
X14693593Y-12795050D01*
X14693593Y-12756955D01*
X14703117Y-12709336D01*
X14712641Y-12680764D01*
X14722165Y-12661717D01*
X14741212Y-12633145D01*
X14750736Y-12623621D01*
X14817403Y-12671240D02*
X14826927Y-12661717D01*
X14845974Y-12652193D01*
X14893593Y-12652193D01*
X14912641Y-12661717D01*
X14922165Y-12671240D01*
X14931689Y-12690288D01*
X14931689Y-12709336D01*
X14922165Y-12737907D01*
X14807879Y-12852193D01*
X14931689Y-12852193D01*
X15169784Y-12852193D02*
X15169784Y-12652193D01*
X15255498Y-12852193D02*
X15255498Y-12747431D01*
X15245974Y-12728383D01*
X15226927Y-12718859D01*
X15198355Y-12718859D01*
X15179308Y-12728383D01*
X15169784Y-12737907D01*
X15379308Y-12852193D02*
X15360260Y-12842669D01*
X15350736Y-12833145D01*
X15341212Y-12814097D01*
X15341212Y-12756955D01*
X15350736Y-12737907D01*
X15360260Y-12728383D01*
X15379308Y-12718859D01*
X15407879Y-12718859D01*
X15426927Y-12728383D01*
X15436450Y-12737907D01*
X15445974Y-12756955D01*
X15445974Y-12814097D01*
X15436450Y-12833145D01*
X15426927Y-12842669D01*
X15407879Y-12852193D01*
X15379308Y-12852193D01*
X15560260Y-12852193D02*
X15541212Y-12842669D01*
X15531689Y-12823621D01*
X15531689Y-12652193D01*
X15712641Y-12842669D02*
X15693593Y-12852193D01*
X15655498Y-12852193D01*
X15636450Y-12842669D01*
X15626927Y-12823621D01*
X15626927Y-12747431D01*
X15636450Y-12728383D01*
X15655498Y-12718859D01*
X15693593Y-12718859D01*
X15712641Y-12728383D01*
X15722165Y-12747431D01*
X15722165Y-12766478D01*
X15626927Y-12785526D01*
X15798355Y-12842669D02*
X15817403Y-12852193D01*
X15855498Y-12852193D01*
X15874546Y-12842669D01*
X15884069Y-12823621D01*
X15884069Y-12814097D01*
X15874546Y-12795050D01*
X15855498Y-12785526D01*
X15826927Y-12785526D01*
X15807879Y-12776002D01*
X15798355Y-12756955D01*
X15798355Y-12747431D01*
X15807879Y-12728383D01*
X15826927Y-12718859D01*
X15855498Y-12718859D01*
X15874546Y-12728383D01*
X16122165Y-12776002D02*
X16274546Y-12776002D01*
X16198355Y-12852193D02*
X16198355Y-12699812D01*
X16512641Y-12671240D02*
X16522165Y-12661717D01*
X16541212Y-12652193D01*
X16588831Y-12652193D01*
X16607879Y-12661717D01*
X16617403Y-12671240D01*
X16626927Y-12690288D01*
X16626927Y-12709336D01*
X16617403Y-12737907D01*
X16503117Y-12852193D01*
X16626927Y-12852193D01*
X16855498Y-12842669D02*
X16874546Y-12852193D01*
X16912641Y-12852193D01*
X16931689Y-12842669D01*
X16941212Y-12823621D01*
X16941212Y-12814097D01*
X16931689Y-12795050D01*
X16912641Y-12785526D01*
X16884070Y-12785526D01*
X16865022Y-12776002D01*
X16855498Y-12756955D01*
X16855498Y-12747431D01*
X16865022Y-12728383D01*
X16884070Y-12718859D01*
X16912641Y-12718859D01*
X16931689Y-12728383D01*
X17055498Y-12852193D02*
X17036451Y-12842669D01*
X17026927Y-12823621D01*
X17026927Y-12652193D01*
X17160260Y-12852193D02*
X17141212Y-12842669D01*
X17131689Y-12833145D01*
X17122165Y-12814097D01*
X17122165Y-12756955D01*
X17131689Y-12737907D01*
X17141212Y-12728383D01*
X17160260Y-12718859D01*
X17188831Y-12718859D01*
X17207879Y-12728383D01*
X17217403Y-12737907D01*
X17226927Y-12756955D01*
X17226927Y-12814097D01*
X17217403Y-12833145D01*
X17207879Y-12842669D01*
X17188831Y-12852193D01*
X17160260Y-12852193D01*
X17284070Y-12718859D02*
X17360260Y-12718859D01*
X17312641Y-12652193D02*
X17312641Y-12823621D01*
X17322165Y-12842669D01*
X17341212Y-12852193D01*
X17360260Y-12852193D01*
X17417403Y-12842669D02*
X17436451Y-12852193D01*
X17474546Y-12852193D01*
X17493593Y-12842669D01*
X17503117Y-12823621D01*
X17503117Y-12814097D01*
X17493593Y-12795050D01*
X17474546Y-12785526D01*
X17445974Y-12785526D01*
X17426927Y-12776002D01*
X17417403Y-12756955D01*
X17417403Y-12747431D01*
X17426927Y-12728383D01*
X17445974Y-12718859D01*
X17474546Y-12718859D01*
X17493593Y-12728383D01*
X17569784Y-12928383D02*
X17579308Y-12918859D01*
X17598355Y-12890288D01*
X17607879Y-12871240D01*
X17617403Y-12842669D01*
X17626927Y-12795050D01*
X17626927Y-12756955D01*
X17617403Y-12709336D01*
X17607879Y-12680764D01*
X17598355Y-12661717D01*
X17579308Y-12633145D01*
X17569784Y-12623621D01*
D16*
X11123832Y-13080717D02*
X11178832Y-13025717D01*
X11123832Y-12970717D01*
X11068832Y-13025717D01*
X11123832Y-13080717D01*
D11*
X11541212Y-13116193D02*
X11426927Y-13116193D01*
X11484069Y-13116193D02*
X11484069Y-12916193D01*
X11465022Y-12944764D01*
X11445974Y-12963812D01*
X11426927Y-12973336D01*
X11626927Y-13097145D02*
X11636450Y-13106669D01*
X11626927Y-13116193D01*
X11617403Y-13106669D01*
X11626927Y-13097145D01*
X11626927Y-13116193D01*
X11826927Y-13116193D02*
X11712641Y-13116193D01*
X11769784Y-13116193D02*
X11769784Y-12916193D01*
X11750736Y-12944764D01*
X11731689Y-12963812D01*
X11712641Y-12973336D01*
X11950736Y-12916193D02*
X11969784Y-12916193D01*
X11988831Y-12925717D01*
X11998355Y-12935240D01*
X12007879Y-12954288D01*
X12017403Y-12992383D01*
X12017403Y-13040002D01*
X12007879Y-13078097D01*
X11998355Y-13097145D01*
X11988831Y-13106669D01*
X11969784Y-13116193D01*
X11950736Y-13116193D01*
X11931689Y-13106669D01*
X11922165Y-13097145D01*
X11912641Y-13078097D01*
X11903117Y-13040002D01*
X11903117Y-12992383D01*
X11912641Y-12954288D01*
X11922165Y-12935240D01*
X11931689Y-12925717D01*
X11950736Y-12916193D01*
X12141212Y-12916193D02*
X12160260Y-12916193D01*
X12179308Y-12925717D01*
X12188831Y-12935240D01*
X12198355Y-12954288D01*
X12207879Y-12992383D01*
X12207879Y-13040002D01*
X12198355Y-13078097D01*
X12188831Y-13097145D01*
X12179308Y-13106669D01*
X12160260Y-13116193D01*
X12141212Y-13116193D01*
X12122165Y-13106669D01*
X12112641Y-13097145D01*
X12103117Y-13078097D01*
X12093593Y-13040002D01*
X12093593Y-12992383D01*
X12103117Y-12954288D01*
X12112641Y-12935240D01*
X12122165Y-12925717D01*
X12141212Y-12916193D01*
X12293593Y-13116193D02*
X12293593Y-12982859D01*
X12293593Y-13001907D02*
X12303117Y-12992383D01*
X12322165Y-12982859D01*
X12350736Y-12982859D01*
X12369784Y-12992383D01*
X12379308Y-13011431D01*
X12379308Y-13116193D01*
X12379308Y-13011431D02*
X12388831Y-12992383D01*
X12407879Y-12982859D01*
X12436450Y-12982859D01*
X12455498Y-12992383D01*
X12465022Y-13011431D01*
X12465022Y-13116193D01*
X12560260Y-13116193D02*
X12560260Y-12982859D01*
X12560260Y-13001907D02*
X12569784Y-12992383D01*
X12588831Y-12982859D01*
X12617403Y-12982859D01*
X12636450Y-12992383D01*
X12645974Y-13011431D01*
X12645974Y-13116193D01*
X12645974Y-13011431D02*
X12655498Y-12992383D01*
X12674546Y-12982859D01*
X12703117Y-12982859D01*
X12722165Y-12992383D01*
X12731689Y-13011431D01*
X12731689Y-13116193D01*
X13122165Y-12906669D02*
X12950736Y-13163812D01*
X13379308Y-12916193D02*
X13398355Y-12916193D01*
X13417403Y-12925717D01*
X13426927Y-12935240D01*
X13436450Y-12954288D01*
X13445974Y-12992383D01*
X13445974Y-13040002D01*
X13436450Y-13078097D01*
X13426927Y-13097145D01*
X13417403Y-13106669D01*
X13398355Y-13116193D01*
X13379308Y-13116193D01*
X13360260Y-13106669D01*
X13350736Y-13097145D01*
X13341212Y-13078097D01*
X13331689Y-13040002D01*
X13331689Y-12992383D01*
X13341212Y-12954288D01*
X13350736Y-12935240D01*
X13360260Y-12925717D01*
X13379308Y-12916193D01*
X13531689Y-13097145D02*
X13541212Y-13106669D01*
X13531689Y-13116193D01*
X13522165Y-13106669D01*
X13531689Y-13097145D01*
X13531689Y-13116193D01*
X13665022Y-12916193D02*
X13684069Y-12916193D01*
X13703117Y-12925717D01*
X13712641Y-12935240D01*
X13722165Y-12954288D01*
X13731689Y-12992383D01*
X13731689Y-13040002D01*
X13722165Y-13078097D01*
X13712641Y-13097145D01*
X13703117Y-13106669D01*
X13684069Y-13116193D01*
X13665022Y-13116193D01*
X13645974Y-13106669D01*
X13636450Y-13097145D01*
X13626927Y-13078097D01*
X13617403Y-13040002D01*
X13617403Y-12992383D01*
X13626927Y-12954288D01*
X13636450Y-12935240D01*
X13645974Y-12925717D01*
X13665022Y-12916193D01*
X13903117Y-12982859D02*
X13903117Y-13116193D01*
X13855498Y-12906669D02*
X13807879Y-13049526D01*
X13931689Y-13049526D01*
X13988831Y-12916193D02*
X14112641Y-12916193D01*
X14045974Y-12992383D01*
X14074546Y-12992383D01*
X14093593Y-13001907D01*
X14103117Y-13011431D01*
X14112641Y-13030478D01*
X14112641Y-13078097D01*
X14103117Y-13097145D01*
X14093593Y-13106669D01*
X14074546Y-13116193D01*
X14017403Y-13116193D01*
X13998355Y-13106669D01*
X13988831Y-13097145D01*
X14179308Y-12916193D02*
X14303117Y-12916193D01*
X14236450Y-12992383D01*
X14265022Y-12992383D01*
X14284069Y-13001907D01*
X14293593Y-13011431D01*
X14303117Y-13030478D01*
X14303117Y-13078097D01*
X14293593Y-13097145D01*
X14284069Y-13106669D01*
X14265022Y-13116193D01*
X14207879Y-13116193D01*
X14188831Y-13106669D01*
X14179308Y-13097145D01*
X14379308Y-12916193D02*
X14379308Y-12954288D01*
X14455498Y-12916193D02*
X14455498Y-12954288D01*
X14750736Y-13192383D02*
X14741212Y-13182859D01*
X14722165Y-13154288D01*
X14712641Y-13135240D01*
X14703117Y-13106669D01*
X14693593Y-13059050D01*
X14693593Y-13020955D01*
X14703117Y-12973336D01*
X14712641Y-12944764D01*
X14722165Y-12925717D01*
X14741212Y-12897145D01*
X14750736Y-12887621D01*
X14855498Y-13001907D02*
X14836450Y-12992383D01*
X14826927Y-12982859D01*
X14817403Y-12963812D01*
X14817403Y-12954288D01*
X14826927Y-12935240D01*
X14836450Y-12925717D01*
X14855498Y-12916193D01*
X14893593Y-12916193D01*
X14912641Y-12925717D01*
X14922165Y-12935240D01*
X14931689Y-12954288D01*
X14931689Y-12963812D01*
X14922165Y-12982859D01*
X14912641Y-12992383D01*
X14893593Y-13001907D01*
X14855498Y-13001907D01*
X14836450Y-13011431D01*
X14826927Y-13020955D01*
X14817403Y-13040002D01*
X14817403Y-13078097D01*
X14826927Y-13097145D01*
X14836450Y-13106669D01*
X14855498Y-13116193D01*
X14893593Y-13116193D01*
X14912641Y-13106669D01*
X14922165Y-13097145D01*
X14931689Y-13078097D01*
X14931689Y-13040002D01*
X14922165Y-13020955D01*
X14912641Y-13011431D01*
X14893593Y-13001907D01*
X15169784Y-13116193D02*
X15169784Y-12916193D01*
X15255498Y-13116193D02*
X15255498Y-13011431D01*
X15245974Y-12992383D01*
X15226927Y-12982859D01*
X15198355Y-12982859D01*
X15179308Y-12992383D01*
X15169784Y-13001907D01*
X15379308Y-13116193D02*
X15360260Y-13106669D01*
X15350736Y-13097145D01*
X15341212Y-13078097D01*
X15341212Y-13020955D01*
X15350736Y-13001907D01*
X15360260Y-12992383D01*
X15379308Y-12982859D01*
X15407879Y-12982859D01*
X15426927Y-12992383D01*
X15436450Y-13001907D01*
X15445974Y-13020955D01*
X15445974Y-13078097D01*
X15436450Y-13097145D01*
X15426927Y-13106669D01*
X15407879Y-13116193D01*
X15379308Y-13116193D01*
X15560260Y-13116193D02*
X15541212Y-13106669D01*
X15531689Y-13087621D01*
X15531689Y-12916193D01*
X15712641Y-13106669D02*
X15693593Y-13116193D01*
X15655498Y-13116193D01*
X15636450Y-13106669D01*
X15626927Y-13087621D01*
X15626927Y-13011431D01*
X15636450Y-12992383D01*
X15655498Y-12982859D01*
X15693593Y-12982859D01*
X15712641Y-12992383D01*
X15722165Y-13011431D01*
X15722165Y-13030478D01*
X15626927Y-13049526D01*
X15798355Y-13106669D02*
X15817403Y-13116193D01*
X15855498Y-13116193D01*
X15874546Y-13106669D01*
X15884069Y-13087621D01*
X15884069Y-13078097D01*
X15874546Y-13059050D01*
X15855498Y-13049526D01*
X15826927Y-13049526D01*
X15807879Y-13040002D01*
X15798355Y-13020955D01*
X15798355Y-13011431D01*
X15807879Y-12992383D01*
X15826927Y-12982859D01*
X15855498Y-12982859D01*
X15874546Y-12992383D01*
X15950736Y-13192383D02*
X15960260Y-13182859D01*
X15979308Y-13154288D01*
X15988831Y-13135240D01*
X15998355Y-13106669D01*
X16007879Y-13059050D01*
X16007879Y-13020955D01*
X15998355Y-12973336D01*
X15988831Y-12944764D01*
X15979308Y-12925717D01*
X15960260Y-12897145D01*
X15950736Y-12887621D01*
D17*
X11113832Y-13257217D02*
X11178832Y-13322217D01*
X11178832Y-13257217D02*
X11113832Y-13322217D01*
X11178832Y-13289717D02*
G75*
G03*
X11178832Y-13289717I-32500J0D01*
G01*
D11*
X11474546Y-13180193D02*
X11493593Y-13180193D01*
X11512641Y-13189717D01*
X11522165Y-13199240D01*
X11531689Y-13218288D01*
X11541212Y-13256383D01*
X11541212Y-13304002D01*
X11531689Y-13342097D01*
X11522165Y-13361145D01*
X11512641Y-13370669D01*
X11493593Y-13380193D01*
X11474546Y-13380193D01*
X11455498Y-13370669D01*
X11445974Y-13361145D01*
X11436450Y-13342097D01*
X11426927Y-13304002D01*
X11426927Y-13256383D01*
X11436450Y-13218288D01*
X11445974Y-13199240D01*
X11455498Y-13189717D01*
X11474546Y-13180193D01*
X11626927Y-13361145D02*
X11636450Y-13370669D01*
X11626927Y-13380193D01*
X11617403Y-13370669D01*
X11626927Y-13361145D01*
X11626927Y-13380193D01*
X11807879Y-13180193D02*
X11769784Y-13180193D01*
X11750736Y-13189717D01*
X11741212Y-13199240D01*
X11722165Y-13227812D01*
X11712641Y-13265907D01*
X11712641Y-13342097D01*
X11722165Y-13361145D01*
X11731689Y-13370669D01*
X11750736Y-13380193D01*
X11788831Y-13380193D01*
X11807879Y-13370669D01*
X11817403Y-13361145D01*
X11826927Y-13342097D01*
X11826927Y-13294478D01*
X11817403Y-13275431D01*
X11807879Y-13265907D01*
X11788831Y-13256383D01*
X11750736Y-13256383D01*
X11731689Y-13265907D01*
X11722165Y-13275431D01*
X11712641Y-13294478D01*
X12007879Y-13180193D02*
X11912641Y-13180193D01*
X11903117Y-13275431D01*
X11912641Y-13265907D01*
X11931689Y-13256383D01*
X11979308Y-13256383D01*
X11998355Y-13265907D01*
X12007879Y-13275431D01*
X12017403Y-13294478D01*
X12017403Y-13342097D01*
X12007879Y-13361145D01*
X11998355Y-13370669D01*
X11979308Y-13380193D01*
X11931689Y-13380193D01*
X11912641Y-13370669D01*
X11903117Y-13361145D01*
X12141212Y-13180193D02*
X12160260Y-13180193D01*
X12179308Y-13189717D01*
X12188831Y-13199240D01*
X12198355Y-13218288D01*
X12207879Y-13256383D01*
X12207879Y-13304002D01*
X12198355Y-13342097D01*
X12188831Y-13361145D01*
X12179308Y-13370669D01*
X12160260Y-13380193D01*
X12141212Y-13380193D01*
X12122165Y-13370669D01*
X12112641Y-13361145D01*
X12103117Y-13342097D01*
X12093593Y-13304002D01*
X12093593Y-13256383D01*
X12103117Y-13218288D01*
X12112641Y-13199240D01*
X12122165Y-13189717D01*
X12141212Y-13180193D01*
X12293593Y-13380193D02*
X12293593Y-13246859D01*
X12293593Y-13265907D02*
X12303117Y-13256383D01*
X12322165Y-13246859D01*
X12350736Y-13246859D01*
X12369784Y-13256383D01*
X12379308Y-13275431D01*
X12379308Y-13380193D01*
X12379308Y-13275431D02*
X12388831Y-13256383D01*
X12407879Y-13246859D01*
X12436450Y-13246859D01*
X12455498Y-13256383D01*
X12465022Y-13275431D01*
X12465022Y-13380193D01*
X12560260Y-13380193D02*
X12560260Y-13246859D01*
X12560260Y-13265907D02*
X12569784Y-13256383D01*
X12588831Y-13246859D01*
X12617403Y-13246859D01*
X12636450Y-13256383D01*
X12645974Y-13275431D01*
X12645974Y-13380193D01*
X12645974Y-13275431D02*
X12655498Y-13256383D01*
X12674546Y-13246859D01*
X12703117Y-13246859D01*
X12722165Y-13256383D01*
X12731689Y-13275431D01*
X12731689Y-13380193D01*
X13122165Y-13170669D02*
X12950736Y-13427812D01*
X13379308Y-13180193D02*
X13398355Y-13180193D01*
X13417403Y-13189717D01*
X13426927Y-13199240D01*
X13436450Y-13218288D01*
X13445974Y-13256383D01*
X13445974Y-13304002D01*
X13436450Y-13342097D01*
X13426927Y-13361145D01*
X13417403Y-13370669D01*
X13398355Y-13380193D01*
X13379308Y-13380193D01*
X13360260Y-13370669D01*
X13350736Y-13361145D01*
X13341212Y-13342097D01*
X13331689Y-13304002D01*
X13331689Y-13256383D01*
X13341212Y-13218288D01*
X13350736Y-13199240D01*
X13360260Y-13189717D01*
X13379308Y-13180193D01*
X13531689Y-13361145D02*
X13541212Y-13370669D01*
X13531689Y-13380193D01*
X13522165Y-13370669D01*
X13531689Y-13361145D01*
X13531689Y-13380193D01*
X13665022Y-13180193D02*
X13684069Y-13180193D01*
X13703117Y-13189717D01*
X13712641Y-13199240D01*
X13722165Y-13218288D01*
X13731689Y-13256383D01*
X13731689Y-13304002D01*
X13722165Y-13342097D01*
X13712641Y-13361145D01*
X13703117Y-13370669D01*
X13684069Y-13380193D01*
X13665022Y-13380193D01*
X13645974Y-13370669D01*
X13636450Y-13361145D01*
X13626927Y-13342097D01*
X13617403Y-13304002D01*
X13617403Y-13256383D01*
X13626927Y-13218288D01*
X13636450Y-13199240D01*
X13645974Y-13189717D01*
X13665022Y-13180193D01*
X13807879Y-13199240D02*
X13817403Y-13189717D01*
X13836450Y-13180193D01*
X13884069Y-13180193D01*
X13903117Y-13189717D01*
X13912641Y-13199240D01*
X13922165Y-13218288D01*
X13922165Y-13237336D01*
X13912641Y-13265907D01*
X13798355Y-13380193D01*
X13922165Y-13380193D01*
X14103117Y-13180193D02*
X14007879Y-13180193D01*
X13998355Y-13275431D01*
X14007879Y-13265907D01*
X14026927Y-13256383D01*
X14074546Y-13256383D01*
X14093593Y-13265907D01*
X14103117Y-13275431D01*
X14112641Y-13294478D01*
X14112641Y-13342097D01*
X14103117Y-13361145D01*
X14093593Y-13370669D01*
X14074546Y-13380193D01*
X14026927Y-13380193D01*
X14007879Y-13370669D01*
X13998355Y-13361145D01*
X14284069Y-13180193D02*
X14245974Y-13180193D01*
X14226927Y-13189717D01*
X14217403Y-13199240D01*
X14198355Y-13227812D01*
X14188831Y-13265907D01*
X14188831Y-13342097D01*
X14198355Y-13361145D01*
X14207879Y-13370669D01*
X14226927Y-13380193D01*
X14265022Y-13380193D01*
X14284069Y-13370669D01*
X14293593Y-13361145D01*
X14303117Y-13342097D01*
X14303117Y-13294478D01*
X14293593Y-13275431D01*
X14284069Y-13265907D01*
X14265022Y-13256383D01*
X14226927Y-13256383D01*
X14207879Y-13265907D01*
X14198355Y-13275431D01*
X14188831Y-13294478D01*
X14379308Y-13180193D02*
X14379308Y-13218288D01*
X14455498Y-13180193D02*
X14455498Y-13218288D01*
X14750736Y-13456383D02*
X14741212Y-13446859D01*
X14722165Y-13418288D01*
X14712641Y-13399240D01*
X14703117Y-13370669D01*
X14693593Y-13323050D01*
X14693593Y-13284955D01*
X14703117Y-13237336D01*
X14712641Y-13208764D01*
X14722165Y-13189717D01*
X14741212Y-13161145D01*
X14750736Y-13151621D01*
X14817403Y-13199240D02*
X14826927Y-13189717D01*
X14845974Y-13180193D01*
X14893593Y-13180193D01*
X14912641Y-13189717D01*
X14922165Y-13199240D01*
X14931689Y-13218288D01*
X14931689Y-13237336D01*
X14922165Y-13265907D01*
X14807879Y-13380193D01*
X14931689Y-13380193D01*
X15169784Y-13380193D02*
X15169784Y-13180193D01*
X15255498Y-13380193D02*
X15255498Y-13275431D01*
X15245974Y-13256383D01*
X15226927Y-13246859D01*
X15198355Y-13246859D01*
X15179308Y-13256383D01*
X15169784Y-13265907D01*
X15379308Y-13380193D02*
X15360260Y-13370669D01*
X15350736Y-13361145D01*
X15341212Y-13342097D01*
X15341212Y-13284955D01*
X15350736Y-13265907D01*
X15360260Y-13256383D01*
X15379308Y-13246859D01*
X15407879Y-13246859D01*
X15426927Y-13256383D01*
X15436450Y-13265907D01*
X15445974Y-13284955D01*
X15445974Y-13342097D01*
X15436450Y-13361145D01*
X15426927Y-13370669D01*
X15407879Y-13380193D01*
X15379308Y-13380193D01*
X15560260Y-13380193D02*
X15541212Y-13370669D01*
X15531689Y-13351621D01*
X15531689Y-13180193D01*
X15712641Y-13370669D02*
X15693593Y-13380193D01*
X15655498Y-13380193D01*
X15636450Y-13370669D01*
X15626927Y-13351621D01*
X15626927Y-13275431D01*
X15636450Y-13256383D01*
X15655498Y-13246859D01*
X15693593Y-13246859D01*
X15712641Y-13256383D01*
X15722165Y-13275431D01*
X15722165Y-13294478D01*
X15626927Y-13313526D01*
X15798355Y-13370669D02*
X15817403Y-13380193D01*
X15855498Y-13380193D01*
X15874546Y-13370669D01*
X15884069Y-13351621D01*
X15884069Y-13342097D01*
X15874546Y-13323050D01*
X15855498Y-13313526D01*
X15826927Y-13313526D01*
X15807879Y-13304002D01*
X15798355Y-13284955D01*
X15798355Y-13275431D01*
X15807879Y-13256383D01*
X15826927Y-13246859D01*
X15855498Y-13246859D01*
X15874546Y-13256383D01*
X15950736Y-13456383D02*
X15960260Y-13446859D01*
X15979308Y-13418288D01*
X15988831Y-13399240D01*
X15998355Y-13370669D01*
X16007879Y-13323050D01*
X16007879Y-13284955D01*
X15998355Y-13237336D01*
X15988831Y-13208764D01*
X15979308Y-13189717D01*
X15960260Y-13161145D01*
X15950736Y-13151621D01*
X16312641Y-13456383D02*
X16303117Y-13446859D01*
X16284069Y-13418288D01*
X16274546Y-13399240D01*
X16265022Y-13370669D01*
X16255498Y-13323050D01*
X16255498Y-13284955D01*
X16265022Y-13237336D01*
X16274546Y-13208764D01*
X16284069Y-13189717D01*
X16303117Y-13161145D01*
X16312641Y-13151621D01*
X16388831Y-13246859D02*
X16388831Y-13380193D01*
X16388831Y-13265907D02*
X16398355Y-13256383D01*
X16417403Y-13246859D01*
X16445974Y-13246859D01*
X16465022Y-13256383D01*
X16474546Y-13275431D01*
X16474546Y-13380193D01*
X16598355Y-13380193D02*
X16579308Y-13370669D01*
X16569784Y-13361145D01*
X16560260Y-13342097D01*
X16560260Y-13284955D01*
X16569784Y-13265907D01*
X16579308Y-13256383D01*
X16598355Y-13246859D01*
X16626927Y-13246859D01*
X16645974Y-13256383D01*
X16655498Y-13265907D01*
X16665022Y-13284955D01*
X16665022Y-13342097D01*
X16655498Y-13361145D01*
X16645974Y-13370669D01*
X16626927Y-13380193D01*
X16598355Y-13380193D01*
X16722165Y-13246859D02*
X16798355Y-13246859D01*
X16750736Y-13180193D02*
X16750736Y-13351621D01*
X16760260Y-13370669D01*
X16779308Y-13380193D01*
X16798355Y-13380193D01*
X17017403Y-13246859D02*
X17017403Y-13446859D01*
X17017403Y-13256383D02*
X17036451Y-13246859D01*
X17074546Y-13246859D01*
X17093593Y-13256383D01*
X17103117Y-13265907D01*
X17112641Y-13284955D01*
X17112641Y-13342097D01*
X17103117Y-13361145D01*
X17093593Y-13370669D01*
X17074546Y-13380193D01*
X17036451Y-13380193D01*
X17017403Y-13370669D01*
X17226927Y-13380193D02*
X17207879Y-13370669D01*
X17198355Y-13351621D01*
X17198355Y-13180193D01*
X17388831Y-13380193D02*
X17388831Y-13275431D01*
X17379308Y-13256383D01*
X17360260Y-13246859D01*
X17322165Y-13246859D01*
X17303117Y-13256383D01*
X17388831Y-13370669D02*
X17369784Y-13380193D01*
X17322165Y-13380193D01*
X17303117Y-13370669D01*
X17293593Y-13351621D01*
X17293593Y-13332574D01*
X17303117Y-13313526D01*
X17322165Y-13304002D01*
X17369784Y-13304002D01*
X17388831Y-13294478D01*
X17455498Y-13246859D02*
X17531689Y-13246859D01*
X17484070Y-13180193D02*
X17484070Y-13351621D01*
X17493593Y-13370669D01*
X17512641Y-13380193D01*
X17531689Y-13380193D01*
X17674546Y-13370669D02*
X17655498Y-13380193D01*
X17617403Y-13380193D01*
X17598355Y-13370669D01*
X17588831Y-13351621D01*
X17588831Y-13275431D01*
X17598355Y-13256383D01*
X17617403Y-13246859D01*
X17655498Y-13246859D01*
X17674546Y-13256383D01*
X17684070Y-13275431D01*
X17684070Y-13294478D01*
X17588831Y-13313526D01*
X17855498Y-13380193D02*
X17855498Y-13180193D01*
X17855498Y-13370669D02*
X17836451Y-13380193D01*
X17798355Y-13380193D01*
X17779308Y-13370669D01*
X17769784Y-13361145D01*
X17760260Y-13342097D01*
X17760260Y-13284955D01*
X17769784Y-13265907D01*
X17779308Y-13256383D01*
X17798355Y-13246859D01*
X17836451Y-13246859D01*
X17855498Y-13256383D01*
X17931689Y-13456383D02*
X17941212Y-13446859D01*
X17960260Y-13418288D01*
X17969784Y-13399240D01*
X17979308Y-13370669D01*
X17988831Y-13323050D01*
X17988831Y-13284955D01*
X17979308Y-13237336D01*
X17969784Y-13208764D01*
X17960260Y-13189717D01*
X17941212Y-13161145D01*
X17931689Y-13151621D01*
M02*
