%TF.GenerationSoftware,KiCad,Pcbnew,(6.0.5)*%
%TF.CreationDate,2022-10-18T17:57:13+09:00*%
%TF.ProjectId,IO_Board,494f5f42-6f61-4726-942e-6b696361645f,rev?*%
%TF.SameCoordinates,Original*%
%TF.FileFunction,Copper,L1,Top*%
%TF.FilePolarity,Positive*%
%FSLAX46Y46*%
G04 Gerber Fmt 4.6, Leading zero omitted, Abs format (unit mm)*
G04 Created by KiCad (PCBNEW (6.0.5)) date 2022-10-18 17:57:13*
%MOMM*%
%LPD*%
G01*
G04 APERTURE LIST*
G04 Aperture macros list*
%AMRoundRect*
0 Rectangle with rounded corners*
0 $1 Rounding radius*
0 $2 $3 $4 $5 $6 $7 $8 $9 X,Y pos of 4 corners*
0 Add a 4 corners polygon primitive as box body*
4,1,4,$2,$3,$4,$5,$6,$7,$8,$9,$2,$3,0*
0 Add four circle primitives for the rounded corners*
1,1,$1+$1,$2,$3*
1,1,$1+$1,$4,$5*
1,1,$1+$1,$6,$7*
1,1,$1+$1,$8,$9*
0 Add four rect primitives between the rounded corners*
20,1,$1+$1,$2,$3,$4,$5,0*
20,1,$1+$1,$4,$5,$6,$7,0*
20,1,$1+$1,$6,$7,$8,$9,0*
20,1,$1+$1,$8,$9,$2,$3,0*%
G04 Aperture macros list end*
%TA.AperFunction,SMDPad,CuDef*%
%ADD10RoundRect,0.140000X-0.140000X-0.170000X0.140000X-0.170000X0.140000X0.170000X-0.140000X0.170000X0*%
%TD*%
%TA.AperFunction,SMDPad,CuDef*%
%ADD11R,1.400000X0.300000*%
%TD*%
%TA.AperFunction,SMDPad,CuDef*%
%ADD12RoundRect,0.200000X0.275000X-0.200000X0.275000X0.200000X-0.275000X0.200000X-0.275000X-0.200000X0*%
%TD*%
%TA.AperFunction,SMDPad,CuDef*%
%ADD13RoundRect,0.135000X-0.185000X0.135000X-0.185000X-0.135000X0.185000X-0.135000X0.185000X0.135000X0*%
%TD*%
%TA.AperFunction,SMDPad,CuDef*%
%ADD14R,0.300000X1.150000*%
%TD*%
%TA.AperFunction,ComponentPad*%
%ADD15O,1.000000X2.100000*%
%TD*%
%TA.AperFunction,ComponentPad*%
%ADD16O,1.000000X1.600000*%
%TD*%
%TA.AperFunction,ComponentPad*%
%ADD17C,2.000000*%
%TD*%
%TA.AperFunction,SMDPad,CuDef*%
%ADD18RoundRect,0.218750X0.256250X-0.218750X0.256250X0.218750X-0.256250X0.218750X-0.256250X-0.218750X0*%
%TD*%
%TA.AperFunction,SMDPad,CuDef*%
%ADD19RoundRect,0.225000X0.250000X-0.225000X0.250000X0.225000X-0.250000X0.225000X-0.250000X-0.225000X0*%
%TD*%
%TA.AperFunction,ComponentPad*%
%ADD20O,4.000000X2.000000*%
%TD*%
%TA.AperFunction,SMDPad,CuDef*%
%ADD21RoundRect,0.147500X-0.172500X0.147500X-0.172500X-0.147500X0.172500X-0.147500X0.172500X0.147500X0*%
%TD*%
%TA.AperFunction,SMDPad,CuDef*%
%ADD22RoundRect,0.140000X0.170000X-0.140000X0.170000X0.140000X-0.170000X0.140000X-0.170000X-0.140000X0*%
%TD*%
%TA.AperFunction,ComponentPad*%
%ADD23RoundRect,0.250000X0.600000X0.750000X-0.600000X0.750000X-0.600000X-0.750000X0.600000X-0.750000X0*%
%TD*%
%TA.AperFunction,ComponentPad*%
%ADD24O,1.700000X2.000000*%
%TD*%
%TA.AperFunction,ComponentPad*%
%ADD25RoundRect,0.250000X0.600000X0.725000X-0.600000X0.725000X-0.600000X-0.725000X0.600000X-0.725000X0*%
%TD*%
%TA.AperFunction,ComponentPad*%
%ADD26O,1.700000X1.950000*%
%TD*%
%TA.AperFunction,ViaPad*%
%ADD27C,0.800000*%
%TD*%
%TA.AperFunction,Conductor*%
%ADD28C,0.250000*%
%TD*%
%TA.AperFunction,Conductor*%
%ADD29C,0.200000*%
%TD*%
G04 APERTURE END LIST*
D10*
%TO.P,C2,1*%
%TO.N,Net-(C2-Pad1)*%
X145570000Y-102870000D03*
%TO.P,C2,2*%
%TO.N,GND*%
X146530000Y-102870000D03*
%TD*%
D11*
%TO.P,U1,1,UD+*%
%TO.N,D+*%
X139405000Y-103140000D03*
%TO.P,U1,2,UD-*%
%TO.N,D-*%
X139405000Y-103640000D03*
%TO.P,U1,3,GND*%
%TO.N,GND*%
X139405000Y-104140000D03*
%TO.P,U1,4,~{RTS}*%
%TO.N,unconnected-(U1-Pad4)*%
X139405000Y-104640000D03*
%TO.P,U1,5,~{CTS}*%
%TO.N,unconnected-(U1-Pad5)*%
X139405000Y-105140000D03*
%TO.P,U1,6,TNOW*%
%TO.N,Net-(R4-Pad1)*%
X143805000Y-105140000D03*
%TO.P,U1,7,VCC*%
%TO.N,VCC*%
X143805000Y-104640000D03*
%TO.P,U1,8,TXD*%
%TO.N,TX*%
X143805000Y-104140000D03*
%TO.P,U1,9,RXD*%
%TO.N,RX*%
X143805000Y-103640000D03*
%TO.P,U1,10,V3*%
%TO.N,Net-(C2-Pad1)*%
X143805000Y-103140000D03*
%TD*%
D12*
%TO.P,R3,1*%
%TO.N,Net-(D1-Pad2)*%
X158750000Y-110045000D03*
%TO.P,R3,2*%
%TO.N,VCC*%
X158750000Y-108395000D03*
%TD*%
D13*
%TO.P,R4,1*%
%TO.N,Net-(R4-Pad1)*%
X143510000Y-108200000D03*
%TO.P,R4,2*%
%TO.N,Net-(D2-Pad2)*%
X143510000Y-109220000D03*
%TD*%
D14*
%TO.P,J1,A1,GND*%
%TO.N,GND*%
X147780000Y-106185000D03*
%TO.P,J1,A4,VBUS*%
%TO.N,Net-(F1-Pad2)*%
X148580000Y-106185000D03*
%TO.P,J1,A5,CC1*%
%TO.N,Net-(J1-PadA5)*%
X149880000Y-106185000D03*
%TO.P,J1,A6,D+*%
%TO.N,D+*%
X150880000Y-106185000D03*
%TO.P,J1,A7,D-*%
%TO.N,D-*%
X151380000Y-106185000D03*
%TO.P,J1,A8,SBU1*%
%TO.N,unconnected-(J1-PadA8)*%
X152380000Y-106185000D03*
%TO.P,J1,A9,VBUS*%
%TO.N,Net-(F1-Pad2)*%
X153680000Y-106185000D03*
%TO.P,J1,A12,GND*%
%TO.N,GND*%
X154480000Y-106185000D03*
%TO.P,J1,B1,GND*%
X154180000Y-106185000D03*
%TO.P,J1,B4,VBUS*%
%TO.N,Net-(F1-Pad2)*%
X153380000Y-106185000D03*
%TO.P,J1,B5,CC2*%
%TO.N,Net-(J1-PadB5)*%
X152880000Y-106185000D03*
%TO.P,J1,B6,D+*%
%TO.N,D+*%
X151880000Y-106185000D03*
%TO.P,J1,B7,D-*%
%TO.N,D-*%
X150380000Y-106185000D03*
%TO.P,J1,B8,SBU2*%
%TO.N,unconnected-(J1-PadB8)*%
X149380000Y-106185000D03*
%TO.P,J1,B9,VBUS*%
%TO.N,Net-(F1-Pad2)*%
X148880000Y-106185000D03*
%TO.P,J1,B12,GND*%
%TO.N,GND*%
X148080000Y-106185000D03*
D15*
%TO.P,J1,S1,SHIELD*%
X155450000Y-106750000D03*
X146810000Y-106750000D03*
D16*
X155450000Y-110930000D03*
X146810000Y-110930000D03*
%TD*%
D17*
%TO.P,SW1,1,1*%
%TO.N,Net-(J2-Pad3)*%
X147880000Y-91730000D03*
X154380000Y-91730000D03*
%TO.P,SW1,2,2*%
%TO.N,GND*%
X147880000Y-96230000D03*
X154380000Y-96230000D03*
%TD*%
D18*
%TO.P,F1,1*%
%TO.N,VCC*%
X158115000Y-104927500D03*
%TO.P,F1,2*%
%TO.N,Net-(F1-Pad2)*%
X158115000Y-103352500D03*
%TD*%
D17*
%TO.P,SW2,1,1*%
%TO.N,Net-(J2-Pad4)*%
X166295000Y-91730000D03*
X172795000Y-91730000D03*
%TO.P,SW2,2,2*%
%TO.N,GND*%
X166295000Y-96230000D03*
X172795000Y-96230000D03*
%TD*%
D19*
%TO.P,C1,1*%
%TO.N,VCC*%
X160655000Y-104280000D03*
%TO.P,C1,2*%
%TO.N,GND*%
X160655000Y-102730000D03*
%TD*%
D20*
%TO.P,SW3,1*%
%TO.N,Net-(J3-Pad1)*%
X128905000Y-95885000D03*
%TO.P,SW3,2*%
%TO.N,Net-(J3-Pad2)*%
X128905000Y-89885000D03*
%TD*%
D21*
%TO.P,D1,1,K*%
%TO.N,GND*%
X157480000Y-108735000D03*
%TO.P,D1,2,A*%
%TO.N,Net-(D1-Pad2)*%
X157480000Y-109705000D03*
%TD*%
D22*
%TO.P,C3,1*%
%TO.N,VCC*%
X159385000Y-103985000D03*
%TO.P,C3,2*%
%TO.N,GND*%
X159385000Y-103025000D03*
%TD*%
D13*
%TO.P,R1,1*%
%TO.N,GND*%
X149860000Y-102360000D03*
%TO.P,R1,2*%
%TO.N,Net-(J1-PadA5)*%
X149860000Y-103380000D03*
%TD*%
D21*
%TO.P,D2,1,K*%
%TO.N,GND*%
X144780000Y-108225000D03*
%TO.P,D2,2,A*%
%TO.N,Net-(D2-Pad2)*%
X144780000Y-109195000D03*
%TD*%
D13*
%TO.P,R2,1*%
%TO.N,GND*%
X152400000Y-102360000D03*
%TO.P,R2,2*%
%TO.N,Net-(J1-PadB5)*%
X152400000Y-103380000D03*
%TD*%
D23*
%TO.P,J3,1,Pin_1*%
%TO.N,Net-(J3-Pad1)*%
X158730000Y-76945000D03*
D24*
%TO.P,J3,2,Pin_2*%
%TO.N,Net-(J3-Pad2)*%
X156230000Y-76945000D03*
%TD*%
D25*
%TO.P,J2,1,Pin_1*%
%TO.N,GND*%
X139600000Y-76945000D03*
D26*
%TO.P,J2,2,Pin_2*%
%TO.N,unconnected-(J2-Pad2)*%
X137100000Y-76945000D03*
%TO.P,J2,3,Pin_3*%
%TO.N,Net-(J2-Pad3)*%
X134600000Y-76945000D03*
%TO.P,J2,4,Pin_4*%
%TO.N,Net-(J2-Pad4)*%
X132100000Y-76945000D03*
%TO.P,J2,5,Pin_5*%
%TO.N,RX*%
X129600000Y-76945000D03*
%TO.P,J2,6,Pin_6*%
%TO.N,TX*%
X127100000Y-76945000D03*
%TD*%
D27*
%TO.N,VCC*%
X156210000Y-104140000D03*
X147955000Y-104140000D03*
%TO.N,GND*%
X128905000Y-99695000D03*
X153670000Y-110490000D03*
X118110000Y-94615000D03*
X161290000Y-85725000D03*
X166370000Y-77470000D03*
X177165000Y-104140000D03*
X121285000Y-77470000D03*
X140970000Y-104140000D03*
X149225000Y-110490000D03*
X152400000Y-85725000D03*
X177165000Y-94615000D03*
X139065000Y-95250000D03*
X160655000Y-95885000D03*
X141605000Y-107315000D03*
X127635000Y-83185000D03*
X165735000Y-104140000D03*
X171450000Y-104140000D03*
X170815000Y-85725000D03*
%TO.N,Net-(F1-Pad2)*%
X153373433Y-104723835D03*
X149155500Y-104775000D03*
%TD*%
D28*
%TO.N,VCC*%
X158435000Y-108395000D02*
X158115000Y-108075000D01*
X158750000Y-108395000D02*
X158435000Y-108395000D01*
X159385000Y-103985000D02*
X160429000Y-103985000D01*
X143805000Y-104640000D02*
X147455000Y-104640000D01*
X156210000Y-104140000D02*
X157327500Y-104140000D01*
X158115000Y-104927500D02*
X158442500Y-104927500D01*
X160429000Y-103985000D02*
X160655000Y-103985000D01*
X160655000Y-104211000D02*
X160429000Y-103985000D01*
X158442500Y-104927500D02*
X159385000Y-103985000D01*
X147455000Y-104640000D02*
X147955000Y-104140000D01*
X158115000Y-104927500D02*
X158115000Y-108075000D01*
X160655000Y-104280000D02*
X160655000Y-104211000D01*
X157327500Y-104140000D02*
X158115000Y-104927500D01*
%TO.N,GND*%
X154480000Y-106185000D02*
X154885000Y-106185000D01*
X139405000Y-104140000D02*
X140970000Y-104140000D01*
X154885000Y-106185000D02*
X155450000Y-106750000D01*
X147375000Y-106185000D02*
X146810000Y-106750000D01*
X148080000Y-106185000D02*
X147375000Y-106185000D01*
%TO.N,Net-(C2-Pad1)*%
X143805000Y-103140000D02*
X145300000Y-103140000D01*
X145300000Y-103140000D02*
X145570000Y-102870000D01*
%TO.N,Net-(D1-Pad2)*%
X158750000Y-110045000D02*
X157820000Y-110045000D01*
X157820000Y-110045000D02*
X157480000Y-109705000D01*
%TO.N,Net-(D2-Pad2)*%
X144755000Y-109220000D02*
X144780000Y-109195000D01*
X143510000Y-109220000D02*
X144755000Y-109220000D01*
%TO.N,Net-(F1-Pad2)*%
X148880000Y-105050500D02*
X149155500Y-104775000D01*
X153373433Y-106178433D02*
X153380000Y-106185000D01*
X148880000Y-106185000D02*
X148580000Y-106185000D01*
X148880000Y-106185000D02*
X148880000Y-105050500D01*
X153373433Y-104723835D02*
X153373433Y-106178433D01*
X153380000Y-105760000D02*
X155787500Y-103352500D01*
X153380000Y-106185000D02*
X153380000Y-105760000D01*
X155787500Y-103352500D02*
X158115000Y-103352500D01*
%TO.N,Net-(J1-PadA5)*%
X149860000Y-103380000D02*
X149880000Y-103400000D01*
X149880000Y-103400000D02*
X149880000Y-106185000D01*
D29*
%TO.N,D+*%
X137160000Y-104435978D02*
X137160000Y-106680000D01*
X139405000Y-103140000D02*
X138455978Y-103140000D01*
X138455978Y-103140000D02*
X137160000Y-104435978D01*
X150880000Y-106185000D02*
X150880000Y-107009022D01*
X146367500Y-109537500D02*
X148272500Y-109537500D01*
X150880000Y-106930000D02*
X150880000Y-106185000D01*
X151574022Y-107315000D02*
X151185978Y-107315000D01*
X148272500Y-109537500D02*
X149225000Y-108585000D01*
X150880000Y-107009022D02*
X151185978Y-107315000D01*
X144780000Y-111125000D02*
X146367500Y-109537500D01*
X150880000Y-106930000D02*
X149225000Y-108585000D01*
X141605000Y-111125000D02*
X144780000Y-111125000D01*
X151880000Y-107009022D02*
X151574022Y-107315000D01*
X151880000Y-106185000D02*
X151880000Y-107009022D01*
X137160000Y-106680000D02*
X141605000Y-111125000D01*
%TO.N,D-*%
X151380000Y-106185000D02*
X151380000Y-105360978D01*
X139405000Y-103640000D02*
X138520984Y-103640000D01*
X141770486Y-110725480D02*
X144614514Y-110725480D01*
X148107014Y-109137980D02*
X150380000Y-106864994D01*
X150380000Y-105525000D02*
X150594511Y-105310489D01*
X144614514Y-110725480D02*
X146202014Y-109137980D01*
X151380000Y-105360978D02*
X151329511Y-105310489D01*
X138520984Y-103640000D02*
X137559520Y-104601464D01*
X150380000Y-106185000D02*
X150380000Y-105525000D01*
X137559520Y-104601464D02*
X137559520Y-106514514D01*
X151329511Y-105310489D02*
X150594511Y-105310489D01*
X146202014Y-109137980D02*
X148107014Y-109137980D01*
X150380000Y-106864994D02*
X150380000Y-106185000D01*
X137559520Y-106514514D02*
X141770486Y-110725480D01*
D28*
%TO.N,Net-(J1-PadB5)*%
X152880000Y-105255000D02*
X152880000Y-106185000D01*
X152400000Y-104775000D02*
X152880000Y-105255000D01*
X152400000Y-103380000D02*
X152400000Y-104775000D01*
%TO.N,Net-(J2-Pad3)*%
X147880000Y-91730000D02*
X154380000Y-91730000D01*
X134600000Y-78450000D02*
X134600000Y-76945000D01*
X147880000Y-91730000D02*
X134600000Y-78450000D01*
%TO.N,Net-(J2-Pad4)*%
X166295000Y-91730000D02*
X164970489Y-93054511D01*
X132100000Y-77823143D02*
X132100000Y-76945000D01*
X147331368Y-93054511D02*
X132100000Y-77823143D01*
X166295000Y-91730000D02*
X172795000Y-91730000D01*
X164970489Y-93054511D02*
X147331368Y-93054511D01*
%TO.N,RX*%
X142708069Y-103542091D02*
X142708069Y-90053069D01*
X143805000Y-103640000D02*
X142805978Y-103640000D01*
X142805978Y-103640000D02*
X142708069Y-103542091D01*
X142708069Y-90053069D02*
X129600000Y-76945000D01*
%TO.N,TX*%
X127745000Y-76945000D02*
X127100000Y-76945000D01*
X142240000Y-91440000D02*
X127745000Y-76945000D01*
X143805000Y-104140000D02*
X142670260Y-104140000D01*
X142670260Y-104140000D02*
X142240000Y-103709740D01*
X142240000Y-103709740D02*
X142240000Y-91440000D01*
%TO.N,Net-(R4-Pad1)*%
X144780000Y-106930000D02*
X143510000Y-108200000D01*
X143805000Y-105140000D02*
X144510000Y-105140000D01*
X144780000Y-105410000D02*
X144780000Y-106930000D01*
X144510000Y-105140000D02*
X144780000Y-105410000D01*
%TD*%
%TA.AperFunction,Conductor*%
%TO.N,GND*%
G36*
X167865920Y-74170000D02*
G01*
X167880753Y-74172310D01*
X167880757Y-74172310D01*
X167889626Y-74173691D01*
X167907622Y-74171338D01*
X167931018Y-74170472D01*
X168167800Y-74183769D01*
X168181832Y-74185350D01*
X168312586Y-74207566D01*
X168443336Y-74229782D01*
X168457111Y-74232926D01*
X168472436Y-74237341D01*
X168712001Y-74306359D01*
X168725316Y-74311018D01*
X168970395Y-74412533D01*
X168983119Y-74418662D01*
X169215258Y-74546960D01*
X169227223Y-74554477D01*
X169443556Y-74707974D01*
X169454603Y-74716784D01*
X169625994Y-74869948D01*
X169643773Y-74889567D01*
X169649550Y-74897476D01*
X169656663Y-74902944D01*
X169656669Y-74902950D01*
X169674796Y-74916884D01*
X169687100Y-74927684D01*
X189042751Y-94283336D01*
X189055398Y-94298104D01*
X189064255Y-94310228D01*
X189064260Y-94310233D01*
X189069554Y-94317480D01*
X189076670Y-94322950D01*
X189083302Y-94328048D01*
X189100825Y-94344392D01*
X189192397Y-94447756D01*
X189272120Y-94537746D01*
X189281500Y-94549719D01*
X189366710Y-94673167D01*
X189443751Y-94784781D01*
X189451623Y-94797802D01*
X189556637Y-94997890D01*
X189584361Y-95050715D01*
X189590605Y-95064590D01*
X189691885Y-95331645D01*
X189696411Y-95346169D01*
X189755569Y-95586177D01*
X189764769Y-95623504D01*
X189767510Y-95638463D01*
X189783162Y-95767373D01*
X189801937Y-95922001D01*
X189802856Y-95937188D01*
X189802855Y-96222817D01*
X189801936Y-96238003D01*
X189773592Y-96471446D01*
X189767510Y-96521534D01*
X189764769Y-96536494D01*
X189726286Y-96692627D01*
X189696411Y-96813834D01*
X189691886Y-96828354D01*
X189656766Y-96920958D01*
X189590603Y-97095414D01*
X189584359Y-97109288D01*
X189451620Y-97362203D01*
X189443748Y-97375224D01*
X189281496Y-97610286D01*
X189272112Y-97622263D01*
X189108044Y-97807458D01*
X189090524Y-97823209D01*
X189090647Y-97823356D01*
X189086918Y-97826471D01*
X189082950Y-97829296D01*
X189078651Y-97833491D01*
X189078430Y-97833653D01*
X189078263Y-97833871D01*
X189073966Y-97838064D01*
X189071048Y-97841958D01*
X189069431Y-97843799D01*
X189063959Y-97850394D01*
X188810533Y-98126960D01*
X188810526Y-98126968D01*
X188808668Y-98128996D01*
X188806986Y-98131188D01*
X188570677Y-98439150D01*
X188570669Y-98439162D01*
X188569005Y-98441330D01*
X188567532Y-98443642D01*
X188567530Y-98443645D01*
X188477242Y-98585368D01*
X188357475Y-98773363D01*
X188210958Y-99054815D01*
X188192654Y-99089978D01*
X188175688Y-99122568D01*
X188174639Y-99125101D01*
X188026080Y-99483748D01*
X188025027Y-99486289D01*
X187906640Y-99861755D01*
X187821427Y-100246112D01*
X187770036Y-100636432D01*
X187754212Y-100998768D01*
X187753286Y-101007540D01*
X187753320Y-101007543D01*
X187752884Y-101012401D01*
X187752078Y-101017194D01*
X187752019Y-101022053D01*
X187752002Y-101023469D01*
X187751925Y-101029746D01*
X187755882Y-101057379D01*
X187757154Y-101075240D01*
X187757154Y-103932463D01*
X187755654Y-103951845D01*
X187751963Y-103975554D01*
X187753761Y-103989303D01*
X187754343Y-103993751D01*
X187755216Y-104017019D01*
X187742463Y-104248599D01*
X187740941Y-104262379D01*
X187698168Y-104519091D01*
X187695140Y-104532620D01*
X187669833Y-104622251D01*
X187626316Y-104776379D01*
X187624430Y-104783057D01*
X187619937Y-104796166D01*
X187609157Y-104822749D01*
X187522132Y-105037340D01*
X187516223Y-105049881D01*
X187471521Y-105132620D01*
X187392516Y-105278848D01*
X187385274Y-105290649D01*
X187314805Y-105392460D01*
X187237163Y-105504633D01*
X187228658Y-105515581D01*
X187057938Y-105711995D01*
X187048282Y-105721942D01*
X186857016Y-105898413D01*
X186846335Y-105907232D01*
X186636815Y-106061639D01*
X186625236Y-106069225D01*
X186400037Y-106199668D01*
X186387683Y-106205943D01*
X186182046Y-106296526D01*
X186156963Y-106304567D01*
X186147226Y-106306596D01*
X186147215Y-106306602D01*
X186147209Y-106306603D01*
X186138479Y-106311259D01*
X186138476Y-106311260D01*
X186121731Y-106320191D01*
X186105667Y-106327366D01*
X186098411Y-106330017D01*
X185945754Y-106385774D01*
X185874905Y-106390356D01*
X185812826Y-106355908D01*
X185779226Y-106293365D01*
X185784773Y-106222586D01*
X185827706Y-106166041D01*
X185846799Y-106154415D01*
X185901564Y-106127409D01*
X185901575Y-106127403D01*
X185905273Y-106125579D01*
X186023794Y-106046386D01*
X186148007Y-105963390D01*
X186148012Y-105963386D01*
X186151438Y-105961097D01*
X186154532Y-105958383D01*
X186154538Y-105958379D01*
X186370938Y-105768600D01*
X186374027Y-105765891D01*
X186410832Y-105723923D01*
X186566515Y-105546402D01*
X186566519Y-105546396D01*
X186569233Y-105543302D01*
X186587763Y-105515571D01*
X186731421Y-105300570D01*
X186733715Y-105297137D01*
X186739728Y-105284945D01*
X186855648Y-105049881D01*
X186864659Y-105031609D01*
X186898771Y-104931118D01*
X186958496Y-104755174D01*
X186958497Y-104755170D01*
X186959824Y-104751261D01*
X186960630Y-104747211D01*
X187016780Y-104464929D01*
X187016781Y-104464923D01*
X187017583Y-104460890D01*
X187018680Y-104444166D01*
X187036676Y-104169583D01*
X187036946Y-104165464D01*
X187031323Y-104079675D01*
X187017853Y-103874150D01*
X187017852Y-103874143D01*
X187017583Y-103870038D01*
X187016098Y-103862568D01*
X186960630Y-103583717D01*
X186960628Y-103583711D01*
X186959824Y-103579667D01*
X186882802Y-103352765D01*
X186865985Y-103303225D01*
X186865984Y-103303224D01*
X186864659Y-103299319D01*
X186786284Y-103140391D01*
X186735542Y-103037495D01*
X186735539Y-103037490D01*
X186733715Y-103033791D01*
X186639731Y-102893134D01*
X186571526Y-102791057D01*
X186571522Y-102791052D01*
X186569233Y-102787626D01*
X186566519Y-102784532D01*
X186566515Y-102784526D01*
X186376736Y-102568126D01*
X186374027Y-102565037D01*
X186344777Y-102539385D01*
X186154538Y-102372549D01*
X186154532Y-102372545D01*
X186151438Y-102369831D01*
X186148012Y-102367542D01*
X186148007Y-102367538D01*
X185908706Y-102207643D01*
X185905273Y-102205349D01*
X185901574Y-102203525D01*
X185901569Y-102203522D01*
X185703813Y-102106000D01*
X185639745Y-102074405D01*
X185607387Y-102063421D01*
X185363310Y-101980568D01*
X185363306Y-101980567D01*
X185359397Y-101979240D01*
X185355353Y-101978436D01*
X185355347Y-101978434D01*
X185073065Y-101922284D01*
X185073059Y-101922283D01*
X185069026Y-101921481D01*
X185064921Y-101921212D01*
X185064914Y-101921211D01*
X184777719Y-101902388D01*
X184773600Y-101902118D01*
X184769481Y-101902388D01*
X184482286Y-101921211D01*
X184482279Y-101921212D01*
X184478174Y-101921481D01*
X184474141Y-101922283D01*
X184474135Y-101922284D01*
X184191853Y-101978434D01*
X184191847Y-101978436D01*
X184187803Y-101979240D01*
X184183894Y-101980567D01*
X184183890Y-101980568D01*
X183939813Y-102063421D01*
X183907455Y-102074405D01*
X183843387Y-102106000D01*
X183645631Y-102203522D01*
X183645626Y-102203525D01*
X183641927Y-102205349D01*
X183638494Y-102207643D01*
X183399193Y-102367538D01*
X183399188Y-102367542D01*
X183395762Y-102369831D01*
X183392668Y-102372545D01*
X183392662Y-102372549D01*
X183202423Y-102539385D01*
X183173173Y-102565037D01*
X183170464Y-102568126D01*
X182980685Y-102784526D01*
X182980681Y-102784532D01*
X182977967Y-102787626D01*
X182975678Y-102791052D01*
X182975674Y-102791057D01*
X182907469Y-102893134D01*
X182813485Y-103033791D01*
X182811661Y-103037490D01*
X182811658Y-103037495D01*
X182760916Y-103140391D01*
X182682541Y-103299319D01*
X182681216Y-103303224D01*
X182681215Y-103303225D01*
X182664399Y-103352765D01*
X182587376Y-103579667D01*
X182586572Y-103583711D01*
X182586570Y-103583717D01*
X182531103Y-103862568D01*
X182529617Y-103870038D01*
X182529348Y-103874143D01*
X182529347Y-103874150D01*
X182515877Y-104079675D01*
X182510254Y-104165464D01*
X182510524Y-104169583D01*
X182528521Y-104444166D01*
X182529617Y-104460890D01*
X182530419Y-104464923D01*
X182530420Y-104464929D01*
X182586570Y-104747211D01*
X182587376Y-104751261D01*
X182588703Y-104755170D01*
X182588704Y-104755174D01*
X182648429Y-104931118D01*
X182682541Y-105031609D01*
X182691552Y-105049881D01*
X182807473Y-105284945D01*
X182813485Y-105297137D01*
X182815779Y-105300570D01*
X182959438Y-105515571D01*
X182977967Y-105543302D01*
X182980681Y-105546396D01*
X182980685Y-105546402D01*
X183136368Y-105723923D01*
X183173173Y-105765891D01*
X183176262Y-105768600D01*
X183392662Y-105958379D01*
X183392668Y-105958383D01*
X183395762Y-105961097D01*
X183399188Y-105963386D01*
X183399193Y-105963390D01*
X183523406Y-106046386D01*
X183641927Y-106125579D01*
X183645626Y-106127403D01*
X183645631Y-106127406D01*
X183781913Y-106194612D01*
X183907455Y-106256523D01*
X183911360Y-106257848D01*
X183911361Y-106257849D01*
X184183890Y-106350360D01*
X184183894Y-106350361D01*
X184187803Y-106351688D01*
X184191847Y-106352492D01*
X184191853Y-106352494D01*
X184474135Y-106408644D01*
X184474141Y-106408645D01*
X184478174Y-106409447D01*
X184482279Y-106409716D01*
X184482286Y-106409717D01*
X184769481Y-106428540D01*
X184773600Y-106428810D01*
X184777719Y-106428540D01*
X185064914Y-106409717D01*
X185064921Y-106409716D01*
X185069026Y-106409447D01*
X185073059Y-106408645D01*
X185073065Y-106408644D01*
X185248495Y-106373748D01*
X185319209Y-106380076D01*
X185375277Y-106423630D01*
X185398896Y-106490583D01*
X185382569Y-106559676D01*
X185331479Y-106608975D01*
X185316305Y-106615680D01*
X184326176Y-106977323D01*
X184323866Y-106978141D01*
X182881624Y-107473337D01*
X182651082Y-107552494D01*
X182495515Y-107605908D01*
X182493194Y-107606680D01*
X182229829Y-107691416D01*
X180652939Y-108198770D01*
X180650599Y-108199498D01*
X178799149Y-108755684D01*
X178796794Y-108756366D01*
X176934917Y-109276416D01*
X176932550Y-109277052D01*
X175889850Y-109546541D01*
X175060921Y-109760781D01*
X175058609Y-109761355D01*
X173177783Y-110208614D01*
X173175509Y-110209132D01*
X171286373Y-110619709D01*
X171283973Y-110620206D01*
X169387283Y-110993939D01*
X169384895Y-110994385D01*
X168976291Y-111066671D01*
X167481334Y-111331141D01*
X167478916Y-111331545D01*
X165997378Y-111564015D01*
X165620560Y-111623142D01*
X165569091Y-111631218D01*
X165566670Y-111631573D01*
X164822865Y-111733501D01*
X163651474Y-111894023D01*
X163649042Y-111894333D01*
X161728963Y-112119490D01*
X161726525Y-112119751D01*
X159802597Y-112307496D01*
X159800156Y-112307711D01*
X158396666Y-112417154D01*
X157872767Y-112458007D01*
X157870339Y-112458171D01*
X156389465Y-112544701D01*
X155940555Y-112570932D01*
X155938107Y-112571052D01*
X154006349Y-112646256D01*
X154003898Y-112646327D01*
X152071150Y-112683934D01*
X152068699Y-112683958D01*
X150135533Y-112683958D01*
X150133082Y-112683934D01*
X148200334Y-112646327D01*
X148197883Y-112646256D01*
X146266125Y-112571052D01*
X146263677Y-112570932D01*
X145814767Y-112544701D01*
X144333893Y-112458171D01*
X144331465Y-112458007D01*
X143807566Y-112417154D01*
X142404076Y-112307711D01*
X142401635Y-112307496D01*
X140477707Y-112119751D01*
X140475269Y-112119490D01*
X138555190Y-111894333D01*
X138552758Y-111894023D01*
X137381367Y-111733501D01*
X136637562Y-111631573D01*
X136635141Y-111631218D01*
X136583673Y-111623142D01*
X136206854Y-111564015D01*
X134725316Y-111331545D01*
X134722898Y-111331141D01*
X133227941Y-111066671D01*
X132819337Y-110994385D01*
X132816949Y-110993939D01*
X130920259Y-110620206D01*
X130917859Y-110619709D01*
X129028723Y-110209132D01*
X129026449Y-110208614D01*
X127145623Y-109761355D01*
X127143311Y-109760781D01*
X126314382Y-109546541D01*
X125271682Y-109277052D01*
X125269315Y-109276416D01*
X123407438Y-108756366D01*
X123405083Y-108755684D01*
X121553633Y-108199498D01*
X121551293Y-108198770D01*
X119974403Y-107691416D01*
X119711038Y-107606680D01*
X119708717Y-107605908D01*
X119553151Y-107552494D01*
X119322608Y-107473337D01*
X117880366Y-106978141D01*
X117878056Y-106977323D01*
X117136873Y-106706607D01*
X116887929Y-106615680D01*
X116830806Y-106573522D01*
X116805543Y-106507172D01*
X116820162Y-106437697D01*
X116870021Y-106387154D01*
X116939291Y-106371591D01*
X116955739Y-106373749D01*
X117131164Y-106408643D01*
X117135206Y-106409447D01*
X117139311Y-106409716D01*
X117139318Y-106409717D01*
X117426513Y-106428540D01*
X117430632Y-106428810D01*
X117434751Y-106428540D01*
X117721946Y-106409717D01*
X117721953Y-106409716D01*
X117726058Y-106409447D01*
X117730091Y-106408645D01*
X117730097Y-106408644D01*
X118012379Y-106352494D01*
X118012385Y-106352492D01*
X118016429Y-106351688D01*
X118020338Y-106350361D01*
X118020342Y-106350360D01*
X118292871Y-106257849D01*
X118292872Y-106257848D01*
X118296777Y-106256523D01*
X118422319Y-106194612D01*
X118558601Y-106127406D01*
X118558606Y-106127403D01*
X118562305Y-106125579D01*
X118680826Y-106046386D01*
X118805039Y-105963390D01*
X118805044Y-105963386D01*
X118808470Y-105961097D01*
X118811564Y-105958383D01*
X118811570Y-105958379D01*
X119027970Y-105768600D01*
X119031059Y-105765891D01*
X119067864Y-105723923D01*
X119223547Y-105546402D01*
X119223551Y-105546396D01*
X119226265Y-105543302D01*
X119244795Y-105515571D01*
X119388453Y-105300570D01*
X119390747Y-105297137D01*
X119396760Y-105284945D01*
X119512680Y-105049881D01*
X119521691Y-105031609D01*
X119555803Y-104931118D01*
X119615528Y-104755174D01*
X119615529Y-104755170D01*
X119616856Y-104751261D01*
X119617662Y-104747211D01*
X119673812Y-104464929D01*
X119673813Y-104464923D01*
X119674615Y-104460890D01*
X119675712Y-104444166D01*
X119693708Y-104169583D01*
X119693978Y-104165464D01*
X119688355Y-104079675D01*
X119674885Y-103874150D01*
X119674884Y-103874143D01*
X119674615Y-103870038D01*
X119673130Y-103862568D01*
X119617662Y-103583717D01*
X119617660Y-103583711D01*
X119616856Y-103579667D01*
X119539834Y-103352765D01*
X119523017Y-103303225D01*
X119523016Y-103303224D01*
X119521691Y-103299319D01*
X119443316Y-103140391D01*
X119392574Y-103037495D01*
X119392571Y-103037490D01*
X119390747Y-103033791D01*
X119296763Y-102893134D01*
X119228558Y-102791057D01*
X119228554Y-102791052D01*
X119226265Y-102787626D01*
X119223551Y-102784532D01*
X119223547Y-102784526D01*
X119033768Y-102568126D01*
X119031059Y-102565037D01*
X119001809Y-102539385D01*
X118811570Y-102372549D01*
X118811564Y-102372545D01*
X118808470Y-102369831D01*
X118805044Y-102367542D01*
X118805039Y-102367538D01*
X118565738Y-102207643D01*
X118562305Y-102205349D01*
X118558606Y-102203525D01*
X118558601Y-102203522D01*
X118360845Y-102106000D01*
X118296777Y-102074405D01*
X118264419Y-102063421D01*
X118020342Y-101980568D01*
X118020338Y-101980567D01*
X118016429Y-101979240D01*
X118012385Y-101978436D01*
X118012379Y-101978434D01*
X117730097Y-101922284D01*
X117730091Y-101922283D01*
X117726058Y-101921481D01*
X117721953Y-101921212D01*
X117721946Y-101921211D01*
X117434751Y-101902388D01*
X117430632Y-101902118D01*
X117426513Y-101902388D01*
X117139318Y-101921211D01*
X117139311Y-101921212D01*
X117135206Y-101921481D01*
X117131173Y-101922283D01*
X117131167Y-101922284D01*
X116848885Y-101978434D01*
X116848879Y-101978436D01*
X116844835Y-101979240D01*
X116840926Y-101980567D01*
X116840922Y-101980568D01*
X116596845Y-102063421D01*
X116564487Y-102074405D01*
X116500419Y-102106000D01*
X116302663Y-102203522D01*
X116302658Y-102203525D01*
X116298959Y-102205349D01*
X116295526Y-102207643D01*
X116056225Y-102367538D01*
X116056220Y-102367542D01*
X116052794Y-102369831D01*
X116049700Y-102372545D01*
X116049694Y-102372549D01*
X115859455Y-102539385D01*
X115830205Y-102565037D01*
X115827496Y-102568126D01*
X115637717Y-102784526D01*
X115637713Y-102784532D01*
X115634999Y-102787626D01*
X115632710Y-102791052D01*
X115632706Y-102791057D01*
X115564501Y-102893134D01*
X115470517Y-103033791D01*
X115468693Y-103037490D01*
X115468690Y-103037495D01*
X115417948Y-103140391D01*
X115339573Y-103299319D01*
X115338248Y-103303224D01*
X115338247Y-103303225D01*
X115321431Y-103352765D01*
X115244408Y-103579667D01*
X115243604Y-103583711D01*
X115243602Y-103583717D01*
X115188135Y-103862568D01*
X115186649Y-103870038D01*
X115186380Y-103874143D01*
X115186379Y-103874150D01*
X115172909Y-104079675D01*
X115167286Y-104165464D01*
X115167556Y-104169583D01*
X115185553Y-104444166D01*
X115186649Y-104460890D01*
X115187451Y-104464923D01*
X115187452Y-104464929D01*
X115243602Y-104747211D01*
X115244408Y-104751261D01*
X115245735Y-104755170D01*
X115245736Y-104755174D01*
X115305461Y-104931118D01*
X115339573Y-105031609D01*
X115348584Y-105049881D01*
X115464505Y-105284945D01*
X115470517Y-105297137D01*
X115472811Y-105300570D01*
X115616470Y-105515571D01*
X115634999Y-105543302D01*
X115637713Y-105546396D01*
X115637717Y-105546402D01*
X115793400Y-105723923D01*
X115830205Y-105765891D01*
X115833294Y-105768600D01*
X116049694Y-105958379D01*
X116049700Y-105958383D01*
X116052794Y-105961097D01*
X116056220Y-105963386D01*
X116056225Y-105963390D01*
X116180438Y-106046386D01*
X116298959Y-106125579D01*
X116355259Y-106153343D01*
X116357427Y-106154412D01*
X116409676Y-106202480D01*
X116427643Y-106271166D01*
X116405624Y-106338661D01*
X116350609Y-106383538D01*
X116280066Y-106391547D01*
X116258471Y-106385771D01*
X116176710Y-106355908D01*
X116105820Y-106330016D01*
X116087060Y-106321359D01*
X116068773Y-106311024D01*
X116050902Y-106306842D01*
X116028818Y-106299463D01*
X115927208Y-106254699D01*
X115816562Y-106205954D01*
X115804214Y-106199682D01*
X115579015Y-106069228D01*
X115567423Y-106061632D01*
X115567421Y-106061630D01*
X115381354Y-105924500D01*
X115357928Y-105907235D01*
X115347238Y-105898409D01*
X115155975Y-105721936D01*
X115146319Y-105711989D01*
X115049898Y-105601055D01*
X114975593Y-105515565D01*
X114967098Y-105504629D01*
X114818981Y-105290633D01*
X114811734Y-105278823D01*
X114794400Y-105246739D01*
X114688029Y-105049864D01*
X114682121Y-105037325D01*
X114669462Y-105006109D01*
X114590250Y-104810789D01*
X114584320Y-104796166D01*
X114579824Y-104783053D01*
X114578383Y-104777949D01*
X114509101Y-104532586D01*
X114506076Y-104519068D01*
X114500252Y-104484114D01*
X114463300Y-104262368D01*
X114461777Y-104248592D01*
X114457933Y-104178817D01*
X114449419Y-104024304D01*
X114450728Y-103997987D01*
X114450888Y-103996962D01*
X114450888Y-103996958D01*
X114452269Y-103988089D01*
X114451105Y-103979188D01*
X114451105Y-103979184D01*
X114448142Y-103956530D01*
X114447078Y-103940192D01*
X114447078Y-101083003D01*
X114448825Y-101062096D01*
X114451345Y-101047117D01*
X114452154Y-101042311D01*
X114452307Y-101029759D01*
X114451617Y-101024939D01*
X114451400Y-101021608D01*
X114450733Y-101014451D01*
X114450432Y-101007543D01*
X114448021Y-100952314D01*
X114434353Y-100639199D01*
X114434352Y-100639188D01*
X114434232Y-100636438D01*
X114382847Y-100246110D01*
X114297636Y-99861747D01*
X114179248Y-99486274D01*
X114028585Y-99122548D01*
X113846792Y-98773338D01*
X113635253Y-98441303D01*
X113395580Y-98128969D01*
X113150539Y-97861568D01*
X113144997Y-97854718D01*
X113144970Y-97854741D01*
X113141852Y-97851009D01*
X113139023Y-97847036D01*
X113134836Y-97842746D01*
X113134675Y-97842526D01*
X113134459Y-97842360D01*
X113130255Y-97838053D01*
X113119763Y-97830190D01*
X113101017Y-97812919D01*
X112932110Y-97622265D01*
X112922727Y-97610288D01*
X112760469Y-97375220D01*
X112752597Y-97362199D01*
X112745782Y-97349213D01*
X112619858Y-97109288D01*
X112613618Y-97095423D01*
X112613615Y-97095414D01*
X112512331Y-96828355D01*
X112507807Y-96813837D01*
X112463120Y-96632536D01*
X112439450Y-96536504D01*
X112436708Y-96521538D01*
X112402280Y-96238004D01*
X112401361Y-96222816D01*
X112401360Y-95937817D01*
X126392514Y-95937817D01*
X126393095Y-95942837D01*
X126393095Y-95942841D01*
X126408966Y-96080004D01*
X126420415Y-96178956D01*
X126421791Y-96183820D01*
X126421792Y-96183823D01*
X126467476Y-96345266D01*
X126486510Y-96412532D01*
X126488644Y-96417108D01*
X126488646Y-96417114D01*
X126573363Y-96598790D01*
X126589099Y-96632536D01*
X126725544Y-96833307D01*
X126892332Y-97009681D01*
X126896358Y-97012759D01*
X126896359Y-97012760D01*
X127081154Y-97154047D01*
X127081158Y-97154050D01*
X127085174Y-97157120D01*
X127299109Y-97271831D01*
X127528631Y-97350862D01*
X127594267Y-97362199D01*
X127763926Y-97391504D01*
X127763932Y-97391505D01*
X127767836Y-97392179D01*
X127771797Y-97392359D01*
X127771798Y-97392359D01*
X127795506Y-97393436D01*
X127795525Y-97393436D01*
X127796925Y-97393500D01*
X129966001Y-97393500D01*
X129968509Y-97393298D01*
X129968514Y-97393298D01*
X130141924Y-97379346D01*
X130141929Y-97379345D01*
X130146965Y-97378940D01*
X130151873Y-97377734D01*
X130151876Y-97377734D01*
X130377792Y-97322244D01*
X130382706Y-97321037D01*
X130387358Y-97319062D01*
X130387362Y-97319061D01*
X130601498Y-97228165D01*
X130606156Y-97226188D01*
X130712037Y-97159511D01*
X130807288Y-97099528D01*
X130807291Y-97099526D01*
X130811567Y-97096833D01*
X130910422Y-97009681D01*
X130989858Y-96939650D01*
X130989861Y-96939647D01*
X130993655Y-96936302D01*
X131134112Y-96765306D01*
X131144526Y-96752628D01*
X131144528Y-96752625D01*
X131147734Y-96748722D01*
X131269841Y-96538922D01*
X131356833Y-96312298D01*
X131357868Y-96307345D01*
X131405440Y-96079631D01*
X131405440Y-96079627D01*
X131406474Y-96074680D01*
X131417486Y-95832183D01*
X131409987Y-95767373D01*
X131390167Y-95596071D01*
X131390166Y-95596067D01*
X131389585Y-95591044D01*
X131350517Y-95452978D01*
X131327476Y-95371555D01*
X131323490Y-95357468D01*
X131321356Y-95352892D01*
X131321354Y-95352886D01*
X131223038Y-95142046D01*
X131223036Y-95142042D01*
X131220901Y-95137464D01*
X131084456Y-94936693D01*
X130917668Y-94760319D01*
X130913641Y-94757240D01*
X130728846Y-94615953D01*
X130728842Y-94615950D01*
X130724826Y-94612880D01*
X130510891Y-94498169D01*
X130281369Y-94419138D01*
X130182022Y-94401978D01*
X130046074Y-94378496D01*
X130046068Y-94378495D01*
X130042164Y-94377821D01*
X130038203Y-94377641D01*
X130038202Y-94377641D01*
X130014494Y-94376564D01*
X130014475Y-94376564D01*
X130013075Y-94376500D01*
X127843999Y-94376500D01*
X127841491Y-94376702D01*
X127841486Y-94376702D01*
X127668076Y-94390654D01*
X127668071Y-94390655D01*
X127663035Y-94391060D01*
X127658127Y-94392266D01*
X127658124Y-94392266D01*
X127432208Y-94447756D01*
X127427294Y-94448963D01*
X127422642Y-94450938D01*
X127422638Y-94450939D01*
X127315252Y-94496522D01*
X127203844Y-94543812D01*
X127194458Y-94549723D01*
X127002712Y-94670472D01*
X127002709Y-94670474D01*
X126998433Y-94673167D01*
X126994639Y-94676512D01*
X126820142Y-94830350D01*
X126820139Y-94830353D01*
X126816345Y-94833698D01*
X126813135Y-94837606D01*
X126813134Y-94837607D01*
X126688221Y-94989680D01*
X126662266Y-95021278D01*
X126540159Y-95231078D01*
X126538346Y-95235801D01*
X126489868Y-95362093D01*
X126453167Y-95457702D01*
X126452133Y-95462652D01*
X126452132Y-95462655D01*
X126418530Y-95623501D01*
X126403526Y-95695320D01*
X126392514Y-95937817D01*
X112401360Y-95937817D01*
X112401360Y-95937188D01*
X112402279Y-95922000D01*
X112436707Y-95638467D01*
X112439449Y-95623501D01*
X112507805Y-95346169D01*
X112512332Y-95331643D01*
X112613614Y-95064586D01*
X112619859Y-95050710D01*
X112752597Y-94797802D01*
X112760468Y-94784782D01*
X112922719Y-94549720D01*
X112932103Y-94537742D01*
X112968622Y-94496522D01*
X113098579Y-94349832D01*
X113118510Y-94331693D01*
X113118548Y-94331656D01*
X113125800Y-94326358D01*
X113145204Y-94301116D01*
X113156004Y-94288812D01*
X117507000Y-89937817D01*
X126392514Y-89937817D01*
X126393095Y-89942837D01*
X126393095Y-89942841D01*
X126415918Y-90140088D01*
X126420415Y-90178956D01*
X126421791Y-90183820D01*
X126421792Y-90183823D01*
X126467476Y-90345266D01*
X126486510Y-90412532D01*
X126488644Y-90417108D01*
X126488646Y-90417114D01*
X126545446Y-90538922D01*
X126589099Y-90632536D01*
X126591940Y-90636717D01*
X126591941Y-90636718D01*
X126607785Y-90660031D01*
X126725544Y-90833307D01*
X126892332Y-91009681D01*
X126896358Y-91012759D01*
X126896359Y-91012760D01*
X127081154Y-91154047D01*
X127081158Y-91154050D01*
X127085174Y-91157120D01*
X127299109Y-91271831D01*
X127528631Y-91350862D01*
X127627978Y-91368022D01*
X127763926Y-91391504D01*
X127763932Y-91391505D01*
X127767836Y-91392179D01*
X127771797Y-91392359D01*
X127771798Y-91392359D01*
X127795506Y-91393436D01*
X127795525Y-91393436D01*
X127796925Y-91393500D01*
X129966001Y-91393500D01*
X129968509Y-91393298D01*
X129968514Y-91393298D01*
X130141924Y-91379346D01*
X130141929Y-91379345D01*
X130146965Y-91378940D01*
X130151873Y-91377734D01*
X130151876Y-91377734D01*
X130377792Y-91322244D01*
X130382706Y-91321037D01*
X130387358Y-91319062D01*
X130387362Y-91319061D01*
X130601498Y-91228165D01*
X130606156Y-91226188D01*
X130712037Y-91159511D01*
X130807288Y-91099528D01*
X130807291Y-91099526D01*
X130811567Y-91096833D01*
X130910422Y-91009681D01*
X130989858Y-90939650D01*
X130989861Y-90939647D01*
X130993655Y-90936302D01*
X131147734Y-90748722D01*
X131269841Y-90538922D01*
X131271654Y-90534199D01*
X131355020Y-90317022D01*
X131355021Y-90317018D01*
X131356833Y-90312298D01*
X131360909Y-90292789D01*
X131405440Y-90079631D01*
X131405440Y-90079627D01*
X131406474Y-90074680D01*
X131417486Y-89832183D01*
X131402235Y-89700373D01*
X131390167Y-89596071D01*
X131390166Y-89596067D01*
X131389585Y-89591044D01*
X131350517Y-89452978D01*
X131324866Y-89362331D01*
X131323490Y-89357468D01*
X131321356Y-89352892D01*
X131321354Y-89352886D01*
X131223038Y-89142046D01*
X131223036Y-89142042D01*
X131220901Y-89137464D01*
X131084456Y-88936693D01*
X130917668Y-88760319D01*
X130913641Y-88757240D01*
X130728846Y-88615953D01*
X130728842Y-88615950D01*
X130724826Y-88612880D01*
X130603272Y-88547703D01*
X130515352Y-88500561D01*
X130510891Y-88498169D01*
X130281369Y-88419138D01*
X130182022Y-88401978D01*
X130046074Y-88378496D01*
X130046068Y-88378495D01*
X130042164Y-88377821D01*
X130038203Y-88377641D01*
X130038202Y-88377641D01*
X130014494Y-88376564D01*
X130014475Y-88376564D01*
X130013075Y-88376500D01*
X127843999Y-88376500D01*
X127841491Y-88376702D01*
X127841486Y-88376702D01*
X127668076Y-88390654D01*
X127668071Y-88390655D01*
X127663035Y-88391060D01*
X127658127Y-88392266D01*
X127658124Y-88392266D01*
X127542007Y-88420787D01*
X127427294Y-88448963D01*
X127422642Y-88450938D01*
X127422638Y-88450939D01*
X127315252Y-88496522D01*
X127203844Y-88543812D01*
X127127354Y-88591981D01*
X127002712Y-88670472D01*
X127002709Y-88670474D01*
X126998433Y-88673167D01*
X126994639Y-88676512D01*
X126820142Y-88830350D01*
X126820139Y-88830353D01*
X126816345Y-88833698D01*
X126662266Y-89021278D01*
X126540159Y-89231078D01*
X126453167Y-89457702D01*
X126403526Y-89695320D01*
X126392514Y-89937817D01*
X117507000Y-89937817D01*
X118897114Y-88547703D01*
X118913131Y-88534155D01*
X118925515Y-88525338D01*
X118925520Y-88525334D01*
X118929482Y-88522513D01*
X118938466Y-88513745D01*
X118941422Y-88509801D01*
X118948879Y-88500762D01*
X119167174Y-88259909D01*
X119169256Y-88257612D01*
X119374607Y-87980728D01*
X119376190Y-87978088D01*
X119376196Y-87978078D01*
X119550246Y-87687691D01*
X119551829Y-87685050D01*
X119608270Y-87565716D01*
X119697897Y-87376217D01*
X119697901Y-87376208D01*
X119699217Y-87373425D01*
X119815350Y-87048853D01*
X119899111Y-86714462D01*
X119949692Y-86373471D01*
X119966607Y-86029164D01*
X119949693Y-85684857D01*
X119899112Y-85343865D01*
X119885102Y-85287935D01*
X119816104Y-85012474D01*
X119816101Y-85012464D01*
X119815352Y-85009474D01*
X119699219Y-84684902D01*
X119697903Y-84682119D01*
X119697899Y-84682110D01*
X119553158Y-84376079D01*
X119551833Y-84373277D01*
X119374611Y-84077598D01*
X119169261Y-83800714D01*
X118959434Y-83569203D01*
X118950149Y-83557662D01*
X118950062Y-83557540D01*
X118950061Y-83557539D01*
X118947234Y-83553568D01*
X118938467Y-83544584D01*
X118934583Y-83541673D01*
X118934575Y-83541666D01*
X118916124Y-83527838D01*
X118902594Y-83516107D01*
X114041850Y-78655363D01*
X114007824Y-78593051D01*
X114012889Y-78522236D01*
X114055436Y-78465400D01*
X114121956Y-78440589D01*
X114191330Y-78455680D01*
X114200947Y-78461503D01*
X114438327Y-78620115D01*
X114442026Y-78621939D01*
X114442031Y-78621942D01*
X114578313Y-78689148D01*
X114703855Y-78751059D01*
X114707760Y-78752384D01*
X114707761Y-78752385D01*
X114980290Y-78844896D01*
X114980294Y-78844897D01*
X114984203Y-78846224D01*
X114988247Y-78847028D01*
X114988253Y-78847030D01*
X115270535Y-78903180D01*
X115270541Y-78903181D01*
X115274574Y-78903983D01*
X115278679Y-78904252D01*
X115278686Y-78904253D01*
X115565881Y-78923076D01*
X115570000Y-78923346D01*
X115574119Y-78923076D01*
X115861314Y-78904253D01*
X115861321Y-78904252D01*
X115865426Y-78903983D01*
X115869459Y-78903181D01*
X115869465Y-78903180D01*
X116151747Y-78847030D01*
X116151753Y-78847028D01*
X116155797Y-78846224D01*
X116159706Y-78844897D01*
X116159710Y-78844896D01*
X116432239Y-78752385D01*
X116432240Y-78752384D01*
X116436145Y-78751059D01*
X116561687Y-78689148D01*
X116697969Y-78621942D01*
X116697974Y-78621939D01*
X116701673Y-78620115D01*
X116806774Y-78549889D01*
X116944407Y-78457926D01*
X116944412Y-78457922D01*
X116947838Y-78455633D01*
X116950932Y-78452919D01*
X116950938Y-78452915D01*
X117167338Y-78263136D01*
X117170427Y-78260427D01*
X117205495Y-78220440D01*
X117362915Y-78040938D01*
X117362919Y-78040932D01*
X117365633Y-78037838D01*
X117377203Y-78020523D01*
X117527821Y-77795106D01*
X117530115Y-77791673D01*
X117539045Y-77773566D01*
X117659235Y-77529843D01*
X117661059Y-77526145D01*
X117695334Y-77425175D01*
X117754896Y-77249710D01*
X117754897Y-77249706D01*
X117756224Y-77245797D01*
X117757030Y-77241747D01*
X117779678Y-77127890D01*
X125741500Y-77127890D01*
X125743396Y-77150230D01*
X125752449Y-77256922D01*
X125756080Y-77299720D01*
X125757418Y-77304875D01*
X125757419Y-77304881D01*
X125789872Y-77429916D01*
X125813999Y-77522872D01*
X125816191Y-77527738D01*
X125816192Y-77527741D01*
X125827454Y-77552741D01*
X125908688Y-77733075D01*
X126037441Y-77924319D01*
X126041120Y-77928176D01*
X126041122Y-77928178D01*
X126060810Y-77948816D01*
X126196576Y-78091135D01*
X126381542Y-78228754D01*
X126386293Y-78231170D01*
X126386297Y-78231172D01*
X126443838Y-78260427D01*
X126587051Y-78333240D01*
X126592145Y-78334822D01*
X126592148Y-78334823D01*
X126792020Y-78396885D01*
X126807227Y-78401607D01*
X126812516Y-78402308D01*
X127030489Y-78431198D01*
X127030494Y-78431198D01*
X127035774Y-78431898D01*
X127041103Y-78431698D01*
X127041105Y-78431698D01*
X127158038Y-78427308D01*
X127266158Y-78423249D01*
X127271468Y-78422135D01*
X127425057Y-78389909D01*
X127491791Y-78375907D01*
X127496750Y-78373949D01*
X127496752Y-78373948D01*
X127701256Y-78293185D01*
X127701258Y-78293184D01*
X127706221Y-78291224D01*
X127711047Y-78288296D01*
X127867881Y-78193126D01*
X127903317Y-78171623D01*
X127907347Y-78168126D01*
X127911657Y-78164983D01*
X127912383Y-78165979D01*
X127971529Y-78138925D01*
X128041809Y-78148985D01*
X128078632Y-78174536D01*
X141569595Y-91665499D01*
X141603621Y-91727811D01*
X141606500Y-91754594D01*
X141606500Y-103630973D01*
X141605973Y-103642156D01*
X141604298Y-103649649D01*
X141604547Y-103657575D01*
X141604547Y-103657576D01*
X141606438Y-103717726D01*
X141606500Y-103721685D01*
X141606500Y-103749596D01*
X141606997Y-103753530D01*
X141606997Y-103753531D01*
X141607005Y-103753596D01*
X141607938Y-103765433D01*
X141609327Y-103809629D01*
X141614978Y-103829079D01*
X141618987Y-103848440D01*
X141621526Y-103868537D01*
X141624445Y-103875908D01*
X141624445Y-103875910D01*
X141637804Y-103909652D01*
X141641649Y-103920882D01*
X141651771Y-103955723D01*
X141653982Y-103963333D01*
X141658015Y-103970152D01*
X141658017Y-103970157D01*
X141664293Y-103980768D01*
X141672988Y-103998516D01*
X141680448Y-104017357D01*
X141685110Y-104023773D01*
X141685110Y-104023774D01*
X141706436Y-104053127D01*
X141712952Y-104063047D01*
X141730597Y-104092882D01*
X141735458Y-104101102D01*
X141749779Y-104115423D01*
X141762619Y-104130456D01*
X141774528Y-104146847D01*
X141780634Y-104151898D01*
X141808605Y-104175038D01*
X141817384Y-104183028D01*
X142166603Y-104532247D01*
X142174147Y-104540537D01*
X142178260Y-104547018D01*
X142184037Y-104552443D01*
X142227927Y-104593658D01*
X142230769Y-104596413D01*
X142250491Y-104616135D01*
X142253615Y-104618558D01*
X142253619Y-104618562D01*
X142253684Y-104618612D01*
X142262705Y-104626317D01*
X142294939Y-104656586D01*
X142301887Y-104660405D01*
X142301889Y-104660407D01*
X142312692Y-104666346D01*
X142329219Y-104677202D01*
X142338958Y-104684757D01*
X142338960Y-104684758D01*
X142345220Y-104689614D01*
X142385800Y-104707174D01*
X142396448Y-104712391D01*
X142401029Y-104714909D01*
X142435200Y-104733695D01*
X142442876Y-104735666D01*
X142442879Y-104735667D01*
X142454822Y-104738733D01*
X142473527Y-104745137D01*
X142492115Y-104753181D01*
X142499941Y-104754421D01*
X142507559Y-104756634D01*
X142506705Y-104759573D01*
X142557926Y-104783844D01*
X142595463Y-104844106D01*
X142599341Y-104864287D01*
X142600656Y-104876392D01*
X142600656Y-104903607D01*
X142597668Y-104931118D01*
X142596500Y-104941866D01*
X142596500Y-105338134D01*
X142603255Y-105400316D01*
X142654385Y-105536705D01*
X142741739Y-105653261D01*
X142858295Y-105740615D01*
X142994684Y-105791745D01*
X143056866Y-105798500D01*
X144020500Y-105798500D01*
X144088621Y-105818502D01*
X144135114Y-105872158D01*
X144146500Y-105924500D01*
X144146500Y-106615405D01*
X144126498Y-106683526D01*
X144109595Y-106704500D01*
X143429499Y-107384596D01*
X143367187Y-107418622D01*
X143340404Y-107421501D01*
X143260012Y-107421501D01*
X143223534Y-107424371D01*
X143159382Y-107443009D01*
X143075017Y-107467519D01*
X143075015Y-107467520D01*
X143067404Y-107469731D01*
X143060582Y-107473766D01*
X143060581Y-107473766D01*
X142940929Y-107544528D01*
X142927459Y-107552494D01*
X142812494Y-107667459D01*
X142729731Y-107807404D01*
X142727520Y-107815015D01*
X142727519Y-107815017D01*
X142716791Y-107851943D01*
X142684371Y-107963534D01*
X142683867Y-107969941D01*
X142683866Y-107969945D01*
X142683160Y-107978918D01*
X142681500Y-108000011D01*
X142681501Y-108399988D01*
X142684371Y-108436466D01*
X142729731Y-108592596D01*
X142733767Y-108599421D01*
X142733769Y-108599425D01*
X142761231Y-108645861D01*
X142778691Y-108714677D01*
X142761231Y-108774139D01*
X142733769Y-108820575D01*
X142733767Y-108820579D01*
X142729731Y-108827404D01*
X142727520Y-108835015D01*
X142727519Y-108835017D01*
X142714029Y-108881450D01*
X142684371Y-108983534D01*
X142681500Y-109020011D01*
X142681501Y-109419988D01*
X142684371Y-109456466D01*
X142729731Y-109612596D01*
X142812494Y-109752541D01*
X142927459Y-109867506D01*
X142934277Y-109871538D01*
X142934282Y-109871542D01*
X142952856Y-109882526D01*
X143001309Y-109934418D01*
X143014015Y-110004269D01*
X142986940Y-110069900D01*
X142928681Y-110110475D01*
X142888718Y-110116980D01*
X142074725Y-110116980D01*
X142006604Y-110096978D01*
X141985630Y-110080075D01*
X138204925Y-106299370D01*
X138170899Y-106237058D01*
X138168020Y-106210275D01*
X138168020Y-105774956D01*
X138188022Y-105706835D01*
X138241678Y-105660342D01*
X138311952Y-105650238D01*
X138369584Y-105674129D01*
X138458295Y-105740615D01*
X138594684Y-105791745D01*
X138656866Y-105798500D01*
X140153134Y-105798500D01*
X140215316Y-105791745D01*
X140351705Y-105740615D01*
X140468261Y-105653261D01*
X140555615Y-105536705D01*
X140606745Y-105400316D01*
X140613500Y-105338134D01*
X140613500Y-104941866D01*
X140612333Y-104931118D01*
X140609344Y-104903607D01*
X140609344Y-104876393D01*
X140613131Y-104841533D01*
X140613131Y-104841529D01*
X140613500Y-104838134D01*
X140613500Y-104441866D01*
X140609091Y-104401280D01*
X140609091Y-104374067D01*
X140612631Y-104341483D01*
X140613000Y-104334672D01*
X140613000Y-104308115D01*
X140608525Y-104292876D01*
X140582830Y-104270611D01*
X140583288Y-104270082D01*
X140570900Y-104263318D01*
X140555792Y-104243160D01*
X140555614Y-104243294D01*
X140534832Y-104215564D01*
X140509985Y-104149057D01*
X140525039Y-104079675D01*
X140534832Y-104064436D01*
X140550231Y-104043889D01*
X140555614Y-104036706D01*
X140555903Y-104036922D01*
X140602065Y-103990861D01*
X140607418Y-103988647D01*
X140611328Y-103984135D01*
X140612999Y-103976452D01*
X140612999Y-103945330D01*
X140612630Y-103938509D01*
X140609091Y-103905930D01*
X140609091Y-103878716D01*
X140610419Y-103866500D01*
X140613500Y-103838134D01*
X140613500Y-103441866D01*
X140609344Y-103403606D01*
X140609344Y-103376393D01*
X140613131Y-103341533D01*
X140613131Y-103341529D01*
X140613500Y-103338134D01*
X140613500Y-102941866D01*
X140606745Y-102879684D01*
X140555615Y-102743295D01*
X140468261Y-102626739D01*
X140351705Y-102539385D01*
X140215316Y-102488255D01*
X140153134Y-102481500D01*
X138656866Y-102481500D01*
X138594684Y-102488255D01*
X138567404Y-102498482D01*
X138511848Y-102519309D01*
X138467618Y-102527327D01*
X138464166Y-102527327D01*
X138455978Y-102526249D01*
X138447790Y-102527327D01*
X138315289Y-102544771D01*
X138297127Y-102547162D01*
X138149102Y-102608476D01*
X138119234Y-102631395D01*
X138053915Y-102681515D01*
X138053899Y-102681529D01*
X138028544Y-102700984D01*
X138028541Y-102700987D01*
X138021991Y-102706013D01*
X138016961Y-102712568D01*
X138002526Y-102731379D01*
X137991659Y-102743770D01*
X136763766Y-103971663D01*
X136751375Y-103982530D01*
X136726013Y-104001991D01*
X136701526Y-104033903D01*
X136701523Y-104033906D01*
X136693863Y-104043889D01*
X136678492Y-104063921D01*
X136628476Y-104129102D01*
X136606139Y-104183028D01*
X136578982Y-104248592D01*
X136567162Y-104277127D01*
X136564941Y-104294000D01*
X136551500Y-104396093D01*
X136551500Y-104396098D01*
X136546250Y-104435978D01*
X136547328Y-104444166D01*
X136550422Y-104467668D01*
X136551500Y-104484114D01*
X136551500Y-106631864D01*
X136550422Y-106648307D01*
X136546250Y-106680000D01*
X136551500Y-106719880D01*
X136551500Y-106719885D01*
X136561808Y-106798181D01*
X136567162Y-106838851D01*
X136628476Y-106986876D01*
X136633503Y-106993427D01*
X136633504Y-106993429D01*
X136701520Y-107082069D01*
X136701526Y-107082075D01*
X136726013Y-107113987D01*
X136732568Y-107119017D01*
X136751379Y-107133452D01*
X136763770Y-107144319D01*
X141140685Y-111521234D01*
X141151552Y-111533625D01*
X141171013Y-111558987D01*
X141177563Y-111564013D01*
X141202921Y-111583471D01*
X141202928Y-111583477D01*
X141251144Y-111620474D01*
X141298125Y-111656524D01*
X141446150Y-111717838D01*
X141565115Y-111733500D01*
X141565120Y-111733500D01*
X141565129Y-111733501D01*
X141596812Y-111737672D01*
X141605000Y-111738750D01*
X141636693Y-111734578D01*
X141653136Y-111733500D01*
X144731864Y-111733500D01*
X144748307Y-111734578D01*
X144780000Y-111738750D01*
X144788189Y-111737672D01*
X144819874Y-111733501D01*
X144819884Y-111733500D01*
X144819885Y-111733500D01*
X144819901Y-111733498D01*
X144919457Y-111720391D01*
X144930664Y-111718916D01*
X144930666Y-111718915D01*
X144938851Y-111717838D01*
X145086876Y-111656524D01*
X145119392Y-111631574D01*
X145182072Y-111583477D01*
X145182075Y-111583474D01*
X145207434Y-111564015D01*
X145213987Y-111558987D01*
X145219017Y-111552432D01*
X145233452Y-111533621D01*
X145244319Y-111521230D01*
X145586905Y-111178644D01*
X145649217Y-111144618D01*
X145720032Y-111149683D01*
X145776868Y-111192230D01*
X145801679Y-111258750D01*
X145802000Y-111267739D01*
X145802000Y-111276657D01*
X145802301Y-111282805D01*
X145815812Y-111420603D01*
X145818195Y-111432638D01*
X145871767Y-111610076D01*
X145876441Y-111621416D01*
X145963460Y-111785077D01*
X145970249Y-111795294D01*
X146087397Y-111938933D01*
X146096041Y-111947637D01*
X146238856Y-112065784D01*
X146249027Y-112072644D01*
X146412076Y-112160804D01*
X146423381Y-112165556D01*
X146538692Y-112201250D01*
X146552795Y-112201456D01*
X146556000Y-112194701D01*
X146556000Y-112187924D01*
X147064000Y-112187924D01*
X147067973Y-112201455D01*
X147075768Y-112202575D01*
X147183521Y-112170862D01*
X147194889Y-112166269D01*
X147359154Y-112080393D01*
X147369415Y-112073679D01*
X147513873Y-111957532D01*
X147522632Y-111948954D01*
X147641778Y-111806961D01*
X147648708Y-111796841D01*
X147738002Y-111634415D01*
X147742834Y-111623142D01*
X147798880Y-111446462D01*
X147801430Y-111434468D01*
X147817607Y-111290239D01*
X147818000Y-111283215D01*
X147818000Y-111276657D01*
X154442000Y-111276657D01*
X154442301Y-111282805D01*
X154455812Y-111420603D01*
X154458195Y-111432638D01*
X154511767Y-111610076D01*
X154516441Y-111621416D01*
X154603460Y-111785077D01*
X154610249Y-111795294D01*
X154727397Y-111938933D01*
X154736041Y-111947637D01*
X154878856Y-112065784D01*
X154889027Y-112072644D01*
X155052076Y-112160804D01*
X155063381Y-112165556D01*
X155178692Y-112201250D01*
X155192795Y-112201456D01*
X155196000Y-112194701D01*
X155196000Y-112187924D01*
X155704000Y-112187924D01*
X155707973Y-112201455D01*
X155715768Y-112202575D01*
X155823521Y-112170862D01*
X155834889Y-112166269D01*
X155999154Y-112080393D01*
X156009415Y-112073679D01*
X156153873Y-111957532D01*
X156162632Y-111948954D01*
X156281778Y-111806961D01*
X156288708Y-111796841D01*
X156378002Y-111634415D01*
X156382834Y-111623142D01*
X156438880Y-111446462D01*
X156441430Y-111434468D01*
X156457607Y-111290239D01*
X156458000Y-111283215D01*
X156458000Y-111202115D01*
X156453525Y-111186876D01*
X156452135Y-111185671D01*
X156444452Y-111184000D01*
X155722115Y-111184000D01*
X155706876Y-111188475D01*
X155705671Y-111189865D01*
X155704000Y-111197548D01*
X155704000Y-112187924D01*
X155196000Y-112187924D01*
X155196000Y-111202115D01*
X155191525Y-111186876D01*
X155190135Y-111185671D01*
X155182452Y-111184000D01*
X154460115Y-111184000D01*
X154444876Y-111188475D01*
X154443671Y-111189865D01*
X154442000Y-111197548D01*
X154442000Y-111276657D01*
X147818000Y-111276657D01*
X147818000Y-111202115D01*
X147813525Y-111186876D01*
X147812135Y-111185671D01*
X147804452Y-111184000D01*
X147082115Y-111184000D01*
X147066876Y-111188475D01*
X147065671Y-111189865D01*
X147064000Y-111197548D01*
X147064000Y-112187924D01*
X146556000Y-112187924D01*
X146556000Y-110802000D01*
X146576002Y-110733879D01*
X146629658Y-110687386D01*
X146682000Y-110676000D01*
X147799885Y-110676000D01*
X147815124Y-110671525D01*
X147816329Y-110670135D01*
X147818000Y-110662452D01*
X147818000Y-110657885D01*
X154442000Y-110657885D01*
X154446475Y-110673124D01*
X154447865Y-110674329D01*
X154455548Y-110676000D01*
X155177885Y-110676000D01*
X155193124Y-110671525D01*
X155194329Y-110670135D01*
X155196000Y-110662452D01*
X155196000Y-110657885D01*
X155704000Y-110657885D01*
X155708475Y-110673124D01*
X155709865Y-110674329D01*
X155717548Y-110676000D01*
X156439885Y-110676000D01*
X156455124Y-110671525D01*
X156456329Y-110670135D01*
X156458000Y-110662452D01*
X156458000Y-110583343D01*
X156457699Y-110577195D01*
X156444188Y-110439397D01*
X156441805Y-110427362D01*
X156388233Y-110249924D01*
X156383559Y-110238584D01*
X156296540Y-110074923D01*
X156289751Y-110064706D01*
X156172603Y-109921067D01*
X156163959Y-109912363D01*
X156021144Y-109794216D01*
X156010973Y-109787356D01*
X155847924Y-109699196D01*
X155836619Y-109694444D01*
X155721308Y-109658750D01*
X155707205Y-109658544D01*
X155704000Y-109665299D01*
X155704000Y-110657885D01*
X155196000Y-110657885D01*
X155196000Y-109672076D01*
X155192027Y-109658545D01*
X155184232Y-109657425D01*
X155076479Y-109689138D01*
X155065111Y-109693731D01*
X154900846Y-109779607D01*
X154890585Y-109786321D01*
X154746127Y-109902468D01*
X154737368Y-109911046D01*
X154618222Y-110053039D01*
X154611292Y-110063159D01*
X154521998Y-110225585D01*
X154517166Y-110236858D01*
X154461120Y-110413538D01*
X154458570Y-110425532D01*
X154442393Y-110569761D01*
X154442000Y-110576785D01*
X154442000Y-110657885D01*
X147818000Y-110657885D01*
X147818000Y-110583343D01*
X147817699Y-110577195D01*
X147804188Y-110439397D01*
X147801806Y-110427365D01*
X147765893Y-110308419D01*
X147765352Y-110237424D01*
X147803279Y-110177407D01*
X147867633Y-110147423D01*
X147886515Y-110146000D01*
X148224364Y-110146000D01*
X148240807Y-110147078D01*
X148272500Y-110151250D01*
X148280689Y-110150172D01*
X148312374Y-110146001D01*
X148312384Y-110146000D01*
X148312385Y-110146000D01*
X148413849Y-110132642D01*
X148423164Y-110131416D01*
X148423166Y-110131416D01*
X148431351Y-110130338D01*
X148579376Y-110069024D01*
X148587020Y-110063159D01*
X148674572Y-109995977D01*
X148674575Y-109995974D01*
X148699937Y-109976513D01*
X148706487Y-109971487D01*
X148725958Y-109946113D01*
X148736816Y-109933733D01*
X150780625Y-107889924D01*
X150842937Y-107855898D01*
X150917938Y-107862610D01*
X151027128Y-107907838D01*
X151146093Y-107923500D01*
X151146098Y-107923500D01*
X151146107Y-107923501D01*
X151177790Y-107927672D01*
X151185978Y-107928750D01*
X151217671Y-107924578D01*
X151234114Y-107923500D01*
X151525886Y-107923500D01*
X151542329Y-107924578D01*
X151574022Y-107928750D01*
X151582211Y-107927672D01*
X151613896Y-107923501D01*
X151613906Y-107923500D01*
X151613907Y-107923500D01*
X151613923Y-107923498D01*
X151713479Y-107910391D01*
X151724686Y-107908916D01*
X151724688Y-107908915D01*
X151732873Y-107907838D01*
X151880898Y-107846524D01*
X151921959Y-107815017D01*
X151976094Y-107773477D01*
X151976097Y-107773474D01*
X152001456Y-107754015D01*
X152008009Y-107748987D01*
X152027142Y-107724053D01*
X152027474Y-107723621D01*
X152038341Y-107711230D01*
X152276234Y-107473337D01*
X152288625Y-107462470D01*
X152307437Y-107448035D01*
X152313987Y-107443009D01*
X152338474Y-107411097D01*
X152338477Y-107411094D01*
X152410069Y-107317794D01*
X152467406Y-107275928D01*
X152510030Y-107268500D01*
X152578134Y-107268500D01*
X152581529Y-107268131D01*
X152581533Y-107268131D01*
X152607531Y-107265307D01*
X152616394Y-107264344D01*
X152643606Y-107264344D01*
X152652469Y-107265307D01*
X152678467Y-107268131D01*
X152678471Y-107268131D01*
X152681866Y-107268500D01*
X153067168Y-107268500D01*
X153135289Y-107288502D01*
X153181782Y-107342158D01*
X153191547Y-107374357D01*
X153192013Y-107377234D01*
X153192370Y-107384047D01*
X153194181Y-107390620D01*
X153194181Y-107390623D01*
X153238466Y-107551399D01*
X153240461Y-107558641D01*
X153324922Y-107718836D01*
X153329327Y-107724049D01*
X153329330Y-107724053D01*
X153437406Y-107851943D01*
X153437410Y-107851947D01*
X153441813Y-107857157D01*
X153447237Y-107861304D01*
X153447238Y-107861305D01*
X153580257Y-107963006D01*
X153580261Y-107963009D01*
X153585678Y-107967150D01*
X153675282Y-108008933D01*
X153743631Y-108040805D01*
X153743634Y-108040806D01*
X153749808Y-108043685D01*
X153756456Y-108045171D01*
X153756459Y-108045172D01*
X153883816Y-108073639D01*
X153926543Y-108083190D01*
X153932088Y-108083500D01*
X154065244Y-108083500D01*
X154200037Y-108068857D01*
X154348323Y-108018953D01*
X154365204Y-108013272D01*
X154365206Y-108013271D01*
X154371675Y-108011094D01*
X154518038Y-107923151D01*
X154586727Y-107905212D01*
X154654214Y-107927259D01*
X154680572Y-107951519D01*
X154727397Y-108008933D01*
X154736041Y-108017637D01*
X154878856Y-108135784D01*
X154889027Y-108142644D01*
X155052076Y-108230804D01*
X155063381Y-108235556D01*
X155178692Y-108271250D01*
X155192795Y-108271456D01*
X155196000Y-108264701D01*
X155196000Y-108257924D01*
X155704000Y-108257924D01*
X155707973Y-108271455D01*
X155715768Y-108272575D01*
X155823521Y-108240862D01*
X155834889Y-108236269D01*
X155999154Y-108150393D01*
X156009415Y-108143679D01*
X156153873Y-108027532D01*
X156162632Y-108018954D01*
X156281778Y-107876961D01*
X156288708Y-107866841D01*
X156378002Y-107704415D01*
X156382834Y-107693142D01*
X156438880Y-107516462D01*
X156441430Y-107504468D01*
X156457607Y-107360239D01*
X156458000Y-107353215D01*
X156458000Y-107022115D01*
X156453525Y-107006876D01*
X156452135Y-107005671D01*
X156444452Y-107004000D01*
X155722115Y-107004000D01*
X155706876Y-107008475D01*
X155705671Y-107009865D01*
X155704000Y-107017548D01*
X155704000Y-108257924D01*
X155196000Y-108257924D01*
X155196000Y-107022115D01*
X155191525Y-107006876D01*
X155190135Y-107005671D01*
X155182452Y-107004000D01*
X154908574Y-107004000D01*
X154840453Y-106983998D01*
X154797117Y-106936765D01*
X154718263Y-106787205D01*
X154715078Y-106781164D01*
X154710673Y-106775951D01*
X154710670Y-106775947D01*
X154652072Y-106706607D01*
X154649301Y-106703328D01*
X154620609Y-106638387D01*
X154631582Y-106568244D01*
X154678735Y-106515167D01*
X154745539Y-106496000D01*
X155177885Y-106496000D01*
X155193124Y-106491525D01*
X155194329Y-106490135D01*
X155196000Y-106482452D01*
X155196000Y-106477885D01*
X155704000Y-106477885D01*
X155708475Y-106493124D01*
X155709865Y-106494329D01*
X155717548Y-106496000D01*
X156439885Y-106496000D01*
X156455124Y-106491525D01*
X156456329Y-106490135D01*
X156458000Y-106482452D01*
X156458000Y-106153343D01*
X156457699Y-106147195D01*
X156444188Y-106009397D01*
X156441805Y-105997362D01*
X156388233Y-105819924D01*
X156383559Y-105808584D01*
X156296540Y-105644923D01*
X156289751Y-105634706D01*
X156172603Y-105491067D01*
X156163959Y-105482363D01*
X156021144Y-105364216D01*
X156010973Y-105357356D01*
X155847924Y-105269196D01*
X155836619Y-105264444D01*
X155721308Y-105228750D01*
X155707205Y-105228544D01*
X155704000Y-105235299D01*
X155704000Y-106477885D01*
X155196000Y-106477885D01*
X155196000Y-105242076D01*
X155192027Y-105228545D01*
X155184231Y-105227424D01*
X155125971Y-105244571D01*
X155054975Y-105244615D01*
X154995225Y-105206269D01*
X154965691Y-105141707D01*
X154975750Y-105071427D01*
X155001302Y-105034602D01*
X155324008Y-104711896D01*
X155386320Y-104677870D01*
X155457135Y-104682935D01*
X155506737Y-104716679D01*
X155598747Y-104818866D01*
X155677926Y-104876393D01*
X155715383Y-104903607D01*
X155753248Y-104931118D01*
X155759276Y-104933802D01*
X155759278Y-104933803D01*
X155919190Y-105005000D01*
X155927712Y-105008794D01*
X156016671Y-105027703D01*
X156108056Y-105047128D01*
X156108061Y-105047128D01*
X156114513Y-105048500D01*
X156305487Y-105048500D01*
X156311939Y-105047128D01*
X156311944Y-105047128D01*
X156403329Y-105027703D01*
X156492288Y-105008794D01*
X156500810Y-105005000D01*
X156660722Y-104933803D01*
X156660724Y-104933802D01*
X156666752Y-104931118D01*
X156704618Y-104903607D01*
X156815107Y-104823331D01*
X156821253Y-104818866D01*
X156825668Y-104813963D01*
X156830580Y-104809540D01*
X156831705Y-104810789D01*
X156885014Y-104777949D01*
X156918200Y-104773500D01*
X157005500Y-104773500D01*
X157073621Y-104793502D01*
X157120114Y-104847158D01*
X157131500Y-104899500D01*
X157131500Y-105194572D01*
X157131837Y-105197818D01*
X157131837Y-105197822D01*
X157132984Y-105208872D01*
X157142022Y-105295982D01*
X157195692Y-105456849D01*
X157284929Y-105601055D01*
X157404947Y-105720864D01*
X157411177Y-105724704D01*
X157411178Y-105724705D01*
X157421616Y-105731139D01*
X157469110Y-105783912D01*
X157481500Y-105838399D01*
X157481500Y-107806001D01*
X157461498Y-107874122D01*
X157407842Y-107920615D01*
X157355500Y-107932001D01*
X157243771Y-107932001D01*
X157238834Y-107932195D01*
X157210560Y-107934419D01*
X157197959Y-107936720D01*
X157052713Y-107978918D01*
X157038276Y-107985166D01*
X156909373Y-108061399D01*
X156896935Y-108071048D01*
X156791048Y-108176935D01*
X156781399Y-108189373D01*
X156705166Y-108318276D01*
X156698918Y-108332713D01*
X156660891Y-108463605D01*
X156660931Y-108477705D01*
X156668201Y-108481000D01*
X157567154Y-108481000D01*
X157635275Y-108501002D01*
X157649157Y-108512555D01*
X157649528Y-108512107D01*
X157683605Y-108540298D01*
X157692384Y-108548288D01*
X157697095Y-108552999D01*
X157731121Y-108615311D01*
X157734000Y-108642094D01*
X157734000Y-108775500D01*
X157713998Y-108843621D01*
X157660342Y-108890114D01*
X157608000Y-108901500D01*
X157251679Y-108901501D01*
X157241254Y-108901501D01*
X157204063Y-108904427D01*
X157109269Y-108931967D01*
X157052513Y-108948456D01*
X157052511Y-108948457D01*
X157044900Y-108950668D01*
X157038075Y-108954704D01*
X157038071Y-108954706D01*
X157009753Y-108971453D01*
X156945614Y-108989000D01*
X156673952Y-108989000D01*
X156660421Y-108992973D01*
X156659286Y-109000871D01*
X156698918Y-109137287D01*
X156705166Y-109151724D01*
X156707323Y-109155372D01*
X156708143Y-109158603D01*
X156708314Y-109158999D01*
X156708250Y-109159027D01*
X156724781Y-109224189D01*
X156707323Y-109283645D01*
X156704706Y-109288071D01*
X156704704Y-109288075D01*
X156700668Y-109294900D01*
X156654427Y-109454063D01*
X156653923Y-109460468D01*
X156653922Y-109460473D01*
X156653751Y-109462650D01*
X156651500Y-109491253D01*
X156651501Y-109918746D01*
X156654427Y-109955937D01*
X156666793Y-109998500D01*
X156688996Y-110074923D01*
X156700668Y-110115100D01*
X156785038Y-110257763D01*
X156902237Y-110374962D01*
X157044900Y-110459332D01*
X157052511Y-110461543D01*
X157052513Y-110461544D01*
X157103196Y-110476268D01*
X157204063Y-110505573D01*
X157210468Y-110506077D01*
X157210473Y-110506078D01*
X157238797Y-110508307D01*
X157238805Y-110508307D01*
X157241253Y-110508500D01*
X157338261Y-110508500D01*
X157406382Y-110528502D01*
X157424512Y-110542649D01*
X157444679Y-110561586D01*
X157451627Y-110565405D01*
X157451629Y-110565407D01*
X157462432Y-110571346D01*
X157478959Y-110582202D01*
X157488698Y-110589757D01*
X157488700Y-110589758D01*
X157494960Y-110594614D01*
X157535540Y-110612174D01*
X157546188Y-110617391D01*
X157551309Y-110620206D01*
X157584940Y-110638695D01*
X157592616Y-110640666D01*
X157592619Y-110640667D01*
X157604562Y-110643733D01*
X157623267Y-110650137D01*
X157641855Y-110658181D01*
X157649678Y-110659420D01*
X157649688Y-110659423D01*
X157685524Y-110665099D01*
X157697144Y-110667505D01*
X157732289Y-110676528D01*
X157739970Y-110678500D01*
X157760224Y-110678500D01*
X157779934Y-110680051D01*
X157799943Y-110683220D01*
X157842564Y-110679191D01*
X157912265Y-110692694D01*
X157943517Y-110715537D01*
X158034619Y-110806639D01*
X158181301Y-110895472D01*
X158188548Y-110897743D01*
X158188550Y-110897744D01*
X158254836Y-110918517D01*
X158344938Y-110946753D01*
X158418365Y-110953500D01*
X158421263Y-110953500D01*
X158750860Y-110953499D01*
X159081634Y-110953499D01*
X159084492Y-110953236D01*
X159084501Y-110953236D01*
X159120004Y-110949974D01*
X159155062Y-110946753D01*
X159161447Y-110944752D01*
X159311450Y-110897744D01*
X159311452Y-110897743D01*
X159318699Y-110895472D01*
X159465381Y-110806639D01*
X159586639Y-110685381D01*
X159590807Y-110678500D01*
X159652158Y-110577195D01*
X159675472Y-110538699D01*
X159684997Y-110508307D01*
X159701609Y-110455297D01*
X159726753Y-110375062D01*
X159733500Y-110301635D01*
X159733499Y-109788366D01*
X159732695Y-109779607D01*
X159727364Y-109721592D01*
X159726753Y-109714938D01*
X159709145Y-109658750D01*
X159677744Y-109558550D01*
X159677743Y-109558548D01*
X159675472Y-109551301D01*
X159586639Y-109404619D01*
X159491115Y-109309095D01*
X159457089Y-109246783D01*
X159462154Y-109175968D01*
X159491115Y-109130905D01*
X159586639Y-109035381D01*
X159675472Y-108888699D01*
X159726753Y-108725062D01*
X159733500Y-108651635D01*
X159733499Y-108138366D01*
X159726753Y-108064938D01*
X159715031Y-108027532D01*
X159677744Y-107908550D01*
X159677743Y-107908548D01*
X159675472Y-107901301D01*
X159586639Y-107754619D01*
X159465381Y-107633361D01*
X159318699Y-107544528D01*
X159311452Y-107542257D01*
X159311450Y-107542256D01*
X159229141Y-107516462D01*
X159155062Y-107493247D01*
X159081635Y-107486500D01*
X159074145Y-107486500D01*
X158874500Y-107486501D01*
X158806380Y-107466499D01*
X158759887Y-107412844D01*
X158748500Y-107360501D01*
X158748500Y-105838266D01*
X158768502Y-105770145D01*
X158808198Y-105731121D01*
X158819830Y-105723923D01*
X158819829Y-105723923D01*
X158826055Y-105720071D01*
X158945864Y-105600053D01*
X159034849Y-105455692D01*
X159037154Y-105448743D01*
X159086072Y-105301262D01*
X159086072Y-105301260D01*
X159088238Y-105294731D01*
X159097035Y-105208872D01*
X159123876Y-105143145D01*
X159133284Y-105132620D01*
X159455499Y-104810405D01*
X159517811Y-104776379D01*
X159544594Y-104773500D01*
X159620484Y-104773500D01*
X159622934Y-104773307D01*
X159622938Y-104773307D01*
X159625854Y-104773077D01*
X159627852Y-104772920D01*
X159697333Y-104787516D01*
X159744883Y-104832229D01*
X159780633Y-104890000D01*
X159826248Y-104963713D01*
X159947298Y-105084552D01*
X160092899Y-105174302D01*
X160255243Y-105228149D01*
X160262080Y-105228849D01*
X160262082Y-105228850D01*
X160303401Y-105233083D01*
X160356268Y-105238500D01*
X160953732Y-105238500D01*
X160956978Y-105238163D01*
X160956982Y-105238163D01*
X160991083Y-105234625D01*
X161056019Y-105227887D01*
X161107657Y-105210659D01*
X161211324Y-105176073D01*
X161211326Y-105176072D01*
X161218268Y-105173756D01*
X161241492Y-105159385D01*
X161357485Y-105087606D01*
X161363713Y-105083752D01*
X161484552Y-104962702D01*
X161520979Y-104903607D01*
X161570462Y-104823331D01*
X161570463Y-104823329D01*
X161574302Y-104817101D01*
X161628149Y-104654757D01*
X161632477Y-104612521D01*
X161634409Y-104593658D01*
X161638500Y-104553732D01*
X161638500Y-104006268D01*
X161638053Y-104001954D01*
X161632174Y-103945296D01*
X161627887Y-103903981D01*
X161598312Y-103815335D01*
X161576073Y-103748676D01*
X161576072Y-103748674D01*
X161573756Y-103741732D01*
X161554528Y-103710659D01*
X161487606Y-103602515D01*
X161483752Y-103596287D01*
X161478570Y-103591114D01*
X161474023Y-103585377D01*
X161475830Y-103583945D01*
X161447098Y-103531425D01*
X161452108Y-103460605D01*
X161475499Y-103424147D01*
X161474448Y-103423317D01*
X161487998Y-103406160D01*
X161570004Y-103273120D01*
X161576151Y-103259939D01*
X161625491Y-103111186D01*
X161628358Y-103097810D01*
X161637672Y-103006903D01*
X161637929Y-103001874D01*
X161633525Y-102986876D01*
X161632135Y-102985671D01*
X161624452Y-102984000D01*
X159657115Y-102984000D01*
X159641876Y-102988475D01*
X159640671Y-102989865D01*
X159639000Y-102997548D01*
X159639000Y-103070500D01*
X159618998Y-103138621D01*
X159565342Y-103185114D01*
X159513000Y-103196500D01*
X159257000Y-103196500D01*
X159188879Y-103176498D01*
X159142386Y-103122842D01*
X159131000Y-103070500D01*
X159131000Y-102457885D01*
X159639000Y-102457885D01*
X159643475Y-102473124D01*
X159644865Y-102474329D01*
X159652548Y-102476000D01*
X160382885Y-102476000D01*
X160398124Y-102471525D01*
X160399329Y-102470135D01*
X160401000Y-102462452D01*
X160401000Y-102457885D01*
X160909000Y-102457885D01*
X160913475Y-102473124D01*
X160914865Y-102474329D01*
X160922548Y-102476000D01*
X161619885Y-102476000D01*
X161635124Y-102471525D01*
X161636329Y-102470135D01*
X161638000Y-102462452D01*
X161638000Y-102459562D01*
X161637663Y-102453047D01*
X161628106Y-102360943D01*
X161625212Y-102347544D01*
X161575619Y-102198893D01*
X161569445Y-102185714D01*
X161487212Y-102052827D01*
X161478176Y-102041426D01*
X161367571Y-101931014D01*
X161356160Y-101922002D01*
X161223120Y-101839996D01*
X161209939Y-101833849D01*
X161061186Y-101784509D01*
X161047810Y-101781642D01*
X160956903Y-101772328D01*
X160950486Y-101772000D01*
X160927115Y-101772000D01*
X160911876Y-101776475D01*
X160910671Y-101777865D01*
X160909000Y-101785548D01*
X160909000Y-102457885D01*
X160401000Y-102457885D01*
X160401000Y-101790115D01*
X160396525Y-101774876D01*
X160395135Y-101773671D01*
X160387452Y-101772000D01*
X160359562Y-101772000D01*
X160353047Y-101772337D01*
X160260943Y-101781894D01*
X160247544Y-101784788D01*
X160098893Y-101834381D01*
X160085714Y-101840555D01*
X159952827Y-101922788D01*
X159941426Y-101931824D01*
X159831014Y-102042429D01*
X159822002Y-102053840D01*
X159743198Y-102181685D01*
X159690426Y-102229178D01*
X159661843Y-102238877D01*
X159641969Y-102243052D01*
X159639000Y-102254513D01*
X159639000Y-102457885D01*
X159131000Y-102457885D01*
X159131000Y-102256576D01*
X159126656Y-102241781D01*
X159116225Y-102239937D01*
X159106641Y-102241688D01*
X158963216Y-102283357D01*
X158948780Y-102289604D01*
X158821501Y-102364876D01*
X158809074Y-102374516D01*
X158760256Y-102423334D01*
X158697944Y-102457360D01*
X158631494Y-102453832D01*
X158526265Y-102418929D01*
X158526263Y-102418929D01*
X158519731Y-102416762D01*
X158419572Y-102406500D01*
X157810428Y-102406500D01*
X157807182Y-102406837D01*
X157807178Y-102406837D01*
X157773397Y-102410342D01*
X157709018Y-102417022D01*
X157548151Y-102470692D01*
X157403945Y-102559929D01*
X157284136Y-102679947D01*
X157282304Y-102678118D01*
X157234277Y-102712160D01*
X157193327Y-102719000D01*
X155866267Y-102719000D01*
X155855084Y-102718473D01*
X155847591Y-102716798D01*
X155839665Y-102717047D01*
X155839664Y-102717047D01*
X155779514Y-102718938D01*
X155775555Y-102719000D01*
X155747644Y-102719000D01*
X155743710Y-102719497D01*
X155743709Y-102719497D01*
X155743644Y-102719505D01*
X155731807Y-102720438D01*
X155699990Y-102721438D01*
X155695529Y-102721578D01*
X155687610Y-102721827D01*
X155669954Y-102726956D01*
X155668158Y-102727478D01*
X155648806Y-102731486D01*
X155641735Y-102732380D01*
X155628703Y-102734026D01*
X155621334Y-102736943D01*
X155621332Y-102736944D01*
X155587597Y-102750300D01*
X155576369Y-102754145D01*
X155533907Y-102766482D01*
X155527084Y-102770517D01*
X155527082Y-102770518D01*
X155516472Y-102776793D01*
X155498724Y-102785488D01*
X155479883Y-102792948D01*
X155473467Y-102797610D01*
X155473466Y-102797610D01*
X155444113Y-102818936D01*
X155434193Y-102825452D01*
X155402965Y-102843920D01*
X155402962Y-102843922D01*
X155396138Y-102847958D01*
X155381817Y-102862279D01*
X155366784Y-102875119D01*
X155350393Y-102887028D01*
X155345342Y-102893134D01*
X155322202Y-102921105D01*
X155314212Y-102929884D01*
X154180174Y-104063921D01*
X154117862Y-104097947D01*
X154047046Y-104092882D01*
X153997443Y-104059137D01*
X153989101Y-104049872D01*
X153989099Y-104049871D01*
X153984686Y-104044969D01*
X153955514Y-104023774D01*
X153835527Y-103936598D01*
X153835526Y-103936597D01*
X153830185Y-103932717D01*
X153824157Y-103930033D01*
X153824155Y-103930032D01*
X153661752Y-103857726D01*
X153661751Y-103857726D01*
X153655721Y-103855041D01*
X153560105Y-103834717D01*
X153475377Y-103816707D01*
X153475372Y-103816707D01*
X153468920Y-103815335D01*
X153335668Y-103815335D01*
X153267547Y-103795333D01*
X153221054Y-103741677D01*
X153210950Y-103671403D01*
X153214669Y-103654191D01*
X153225629Y-103616466D01*
X153226135Y-103610047D01*
X153228307Y-103582444D01*
X153228307Y-103582438D01*
X153228500Y-103579989D01*
X153228499Y-103180012D01*
X153225629Y-103143534D01*
X153184473Y-103001874D01*
X153182481Y-102995017D01*
X153182480Y-102995015D01*
X153180269Y-102987404D01*
X153148477Y-102933647D01*
X153131018Y-102864834D01*
X153148478Y-102805370D01*
X153175771Y-102759220D01*
X153182019Y-102744783D01*
X153214961Y-102631395D01*
X153214921Y-102617295D01*
X153207651Y-102614000D01*
X152737542Y-102614000D01*
X152702390Y-102608997D01*
X152692647Y-102606166D01*
X152692640Y-102606165D01*
X152686466Y-102604371D01*
X152680059Y-102603867D01*
X152680055Y-102603866D01*
X152652444Y-102601693D01*
X152652438Y-102601693D01*
X152649989Y-102601500D01*
X152400152Y-102601500D01*
X152150012Y-102601501D01*
X152113534Y-102604371D01*
X152107352Y-102606167D01*
X152107347Y-102606168D01*
X152097610Y-102608997D01*
X152062458Y-102614000D01*
X151598100Y-102614000D01*
X151584569Y-102617973D01*
X151583434Y-102625871D01*
X151617981Y-102744783D01*
X151624229Y-102759220D01*
X151651522Y-102805370D01*
X151668982Y-102874187D01*
X151651523Y-102933646D01*
X151619731Y-102987404D01*
X151617520Y-102995015D01*
X151617519Y-102995017D01*
X151615527Y-103001874D01*
X151574371Y-103143534D01*
X151573867Y-103149941D01*
X151573866Y-103149945D01*
X151571693Y-103177556D01*
X151571500Y-103180011D01*
X151571501Y-103579988D01*
X151574371Y-103616466D01*
X151598510Y-103699552D01*
X151615624Y-103758458D01*
X151619731Y-103772596D01*
X151623766Y-103779418D01*
X151623766Y-103779419D01*
X151689163Y-103890000D01*
X151702494Y-103912541D01*
X151729595Y-103939642D01*
X151763621Y-104001954D01*
X151766500Y-104028737D01*
X151766500Y-104644287D01*
X151746498Y-104712408D01*
X151692842Y-104758901D01*
X151622568Y-104769005D01*
X151592282Y-104760696D01*
X151531856Y-104735667D01*
X151488362Y-104717651D01*
X151480177Y-104716573D01*
X151480175Y-104716573D01*
X151467533Y-104714909D01*
X151369404Y-104701990D01*
X151369402Y-104701990D01*
X151369396Y-104701989D01*
X151369394Y-104701989D01*
X151369385Y-104701988D01*
X151337700Y-104697817D01*
X151329511Y-104696739D01*
X151297818Y-104700911D01*
X151281375Y-104701989D01*
X150642647Y-104701989D01*
X150626219Y-104700913D01*
X150623064Y-104700498D01*
X150558136Y-104671782D01*
X150519038Y-104612521D01*
X150513500Y-104575575D01*
X150513500Y-104008737D01*
X150533502Y-103940616D01*
X150550405Y-103919642D01*
X150557506Y-103912541D01*
X150570837Y-103890000D01*
X150636234Y-103779419D01*
X150636234Y-103779418D01*
X150640269Y-103772596D01*
X150644377Y-103758458D01*
X150678314Y-103641643D01*
X150685629Y-103616466D01*
X150686135Y-103610047D01*
X150688307Y-103582444D01*
X150688307Y-103582438D01*
X150688500Y-103579989D01*
X150688499Y-103180012D01*
X150685629Y-103143534D01*
X150644473Y-103001874D01*
X150642481Y-102995017D01*
X150642480Y-102995015D01*
X150640269Y-102987404D01*
X150608477Y-102933647D01*
X150591018Y-102864834D01*
X150608478Y-102805370D01*
X150635771Y-102759220D01*
X150642019Y-102744783D01*
X150674961Y-102631395D01*
X150674921Y-102617295D01*
X150667651Y-102614000D01*
X150197542Y-102614000D01*
X150162390Y-102608997D01*
X150152647Y-102606166D01*
X150152640Y-102606165D01*
X150146466Y-102604371D01*
X150140059Y-102603867D01*
X150140055Y-102603866D01*
X150112444Y-102601693D01*
X150112438Y-102601693D01*
X150109989Y-102601500D01*
X149860152Y-102601500D01*
X149610012Y-102601501D01*
X149573534Y-102604371D01*
X149567352Y-102606167D01*
X149567347Y-102606168D01*
X149557610Y-102608997D01*
X149522458Y-102614000D01*
X149058100Y-102614000D01*
X149044569Y-102617973D01*
X149043434Y-102625871D01*
X149077981Y-102744783D01*
X149084229Y-102759220D01*
X149111522Y-102805370D01*
X149128982Y-102874187D01*
X149111523Y-102933646D01*
X149079731Y-102987404D01*
X149077520Y-102995015D01*
X149077519Y-102995017D01*
X149075527Y-103001874D01*
X149034371Y-103143534D01*
X149033867Y-103149941D01*
X149033866Y-103149945D01*
X149031693Y-103177556D01*
X149031500Y-103180011D01*
X149031501Y-103579988D01*
X149034371Y-103616466D01*
X149061737Y-103710659D01*
X149066450Y-103726882D01*
X149066247Y-103797878D01*
X149027693Y-103857495D01*
X148971651Y-103885281D01*
X148947776Y-103890356D01*
X148876985Y-103884955D01*
X148820352Y-103842139D01*
X148801745Y-103806047D01*
X148800336Y-103801710D01*
X148789527Y-103768444D01*
X148785955Y-103762256D01*
X148723557Y-103654181D01*
X148694040Y-103603056D01*
X148676833Y-103583945D01*
X148570675Y-103466045D01*
X148570674Y-103466044D01*
X148566253Y-103461134D01*
X148455120Y-103380391D01*
X148417094Y-103352763D01*
X148417093Y-103352762D01*
X148411752Y-103348882D01*
X148405724Y-103346198D01*
X148405722Y-103346197D01*
X148243319Y-103273891D01*
X148243318Y-103273891D01*
X148237288Y-103271206D01*
X148143887Y-103251353D01*
X148056944Y-103232872D01*
X148056939Y-103232872D01*
X148050487Y-103231500D01*
X147859513Y-103231500D01*
X147853061Y-103232872D01*
X147853056Y-103232872D01*
X147766113Y-103251353D01*
X147672712Y-103271206D01*
X147666682Y-103273891D01*
X147666681Y-103273891D01*
X147504278Y-103346197D01*
X147504276Y-103346198D01*
X147498248Y-103348882D01*
X147492906Y-103352763D01*
X147492903Y-103352765D01*
X147487715Y-103356534D01*
X147420846Y-103380391D01*
X147351695Y-103364308D01*
X147302217Y-103313393D01*
X147288120Y-103243810D01*
X147292660Y-103219442D01*
X147313313Y-103148356D01*
X147314768Y-103140391D01*
X147311948Y-103126969D01*
X147300487Y-103124000D01*
X146802115Y-103124000D01*
X146786876Y-103128475D01*
X146785671Y-103129865D01*
X146784000Y-103137548D01*
X146784000Y-103663558D01*
X146787973Y-103677089D01*
X146795871Y-103678224D01*
X146921784Y-103641643D01*
X146943497Y-103632247D01*
X146944718Y-103635069D01*
X146999624Y-103621143D01*
X147066954Y-103643665D01*
X147111419Y-103699013D01*
X147118902Y-103769614D01*
X147114771Y-103785992D01*
X147071412Y-103919436D01*
X147031338Y-103978042D01*
X146965942Y-104005679D01*
X146951579Y-104006500D01*
X145486197Y-104006500D01*
X145418076Y-103986498D01*
X145371583Y-103932842D01*
X145361479Y-103862568D01*
X145390973Y-103797988D01*
X145453822Y-103759102D01*
X145458797Y-103758474D01*
X145466168Y-103755555D01*
X145466170Y-103755555D01*
X145499912Y-103742196D01*
X145511142Y-103738351D01*
X145545983Y-103728229D01*
X145545984Y-103728229D01*
X145553593Y-103726018D01*
X145560412Y-103721985D01*
X145560417Y-103721983D01*
X145571028Y-103715707D01*
X145588776Y-103707012D01*
X145607617Y-103699552D01*
X145608295Y-103701264D01*
X145658008Y-103688500D01*
X145775484Y-103688500D01*
X145777932Y-103688307D01*
X145777940Y-103688307D01*
X145805844Y-103686111D01*
X145805849Y-103686110D01*
X145812254Y-103685606D01*
X145911005Y-103656916D01*
X145961984Y-103642106D01*
X145961986Y-103642105D01*
X145969597Y-103639894D01*
X145978469Y-103634647D01*
X145986353Y-103629985D01*
X146055170Y-103612526D01*
X146114628Y-103629984D01*
X146123778Y-103635395D01*
X146138216Y-103641643D01*
X146258605Y-103676619D01*
X146272705Y-103676579D01*
X146276000Y-103669309D01*
X146276000Y-103391379D01*
X146293546Y-103327240D01*
X146305859Y-103306420D01*
X146305859Y-103306419D01*
X146309894Y-103299597D01*
X146326102Y-103243810D01*
X146344636Y-103180012D01*
X146355606Y-103142254D01*
X146356582Y-103129865D01*
X146358307Y-103107940D01*
X146358307Y-103107932D01*
X146358500Y-103105484D01*
X146358500Y-102634516D01*
X146358307Y-102632060D01*
X146356111Y-102604156D01*
X146356110Y-102604151D01*
X146355617Y-102597885D01*
X146784000Y-102597885D01*
X146788475Y-102613124D01*
X146789865Y-102614329D01*
X146797548Y-102616000D01*
X147298424Y-102616000D01*
X147313219Y-102611656D01*
X147315063Y-102601225D01*
X147313312Y-102591641D01*
X147271643Y-102448216D01*
X147265396Y-102433780D01*
X147190124Y-102306501D01*
X147180484Y-102294074D01*
X147075926Y-102189516D01*
X147063499Y-102179876D01*
X146936220Y-102104604D01*
X146921784Y-102098357D01*
X146888217Y-102088605D01*
X149045039Y-102088605D01*
X149045079Y-102102705D01*
X149052349Y-102106000D01*
X149587885Y-102106000D01*
X149603124Y-102101525D01*
X149604329Y-102100135D01*
X149606000Y-102092452D01*
X149606000Y-102087885D01*
X150114000Y-102087885D01*
X150118475Y-102103124D01*
X150119865Y-102104329D01*
X150127548Y-102106000D01*
X150661900Y-102106000D01*
X150675431Y-102102027D01*
X150676566Y-102094129D01*
X150674961Y-102088605D01*
X151585039Y-102088605D01*
X151585079Y-102102705D01*
X151592349Y-102106000D01*
X152127885Y-102106000D01*
X152143124Y-102101525D01*
X152144329Y-102100135D01*
X152146000Y-102092452D01*
X152146000Y-102087885D01*
X152654000Y-102087885D01*
X152658475Y-102103124D01*
X152659865Y-102104329D01*
X152667548Y-102106000D01*
X153201900Y-102106000D01*
X153215431Y-102102027D01*
X153216566Y-102094129D01*
X153182019Y-101975217D01*
X153175770Y-101960778D01*
X153101146Y-101834595D01*
X153091499Y-101822159D01*
X152987841Y-101718501D01*
X152975405Y-101708854D01*
X152849222Y-101634230D01*
X152834783Y-101627981D01*
X152692564Y-101586662D01*
X152679977Y-101584363D01*
X152672057Y-101583740D01*
X152656970Y-101586910D01*
X152654000Y-101598374D01*
X152654000Y-102087885D01*
X152146000Y-102087885D01*
X152146000Y-101600434D01*
X152141656Y-101585639D01*
X152129997Y-101583579D01*
X152120023Y-101584363D01*
X152107436Y-101586662D01*
X151965217Y-101627981D01*
X151950778Y-101634230D01*
X151824595Y-101708854D01*
X151812159Y-101718501D01*
X151708501Y-101822159D01*
X151698854Y-101834595D01*
X151624230Y-101960778D01*
X151617981Y-101975217D01*
X151585039Y-102088605D01*
X150674961Y-102088605D01*
X150642019Y-101975217D01*
X150635770Y-101960778D01*
X150561146Y-101834595D01*
X150551499Y-101822159D01*
X150447841Y-101718501D01*
X150435405Y-101708854D01*
X150309222Y-101634230D01*
X150294783Y-101627981D01*
X150152564Y-101586662D01*
X150139977Y-101584363D01*
X150132057Y-101583740D01*
X150116970Y-101586910D01*
X150114000Y-101598374D01*
X150114000Y-102087885D01*
X149606000Y-102087885D01*
X149606000Y-101600434D01*
X149601656Y-101585639D01*
X149589997Y-101583579D01*
X149580023Y-101584363D01*
X149567436Y-101586662D01*
X149425217Y-101627981D01*
X149410778Y-101634230D01*
X149284595Y-101708854D01*
X149272159Y-101718501D01*
X149168501Y-101822159D01*
X149158854Y-101834595D01*
X149084230Y-101960778D01*
X149077981Y-101975217D01*
X149045039Y-102088605D01*
X146888217Y-102088605D01*
X146801395Y-102063381D01*
X146787295Y-102063421D01*
X146784000Y-102070691D01*
X146784000Y-102597885D01*
X146355617Y-102597885D01*
X146355606Y-102597746D01*
X146314973Y-102457885D01*
X146312106Y-102448016D01*
X146312105Y-102448014D01*
X146309894Y-102440403D01*
X146293546Y-102412760D01*
X146276000Y-102348621D01*
X146276000Y-102076442D01*
X146272027Y-102062911D01*
X146264129Y-102061776D01*
X146138216Y-102098357D01*
X146123778Y-102104605D01*
X146114628Y-102110016D01*
X146045812Y-102127474D01*
X145986353Y-102110015D01*
X145976423Y-102104143D01*
X145976424Y-102104143D01*
X145969597Y-102100106D01*
X145961986Y-102097895D01*
X145961984Y-102097894D01*
X145887411Y-102076229D01*
X145812254Y-102054394D01*
X145805849Y-102053890D01*
X145805844Y-102053889D01*
X145777940Y-102051693D01*
X145777932Y-102051693D01*
X145775484Y-102051500D01*
X145364516Y-102051500D01*
X145362068Y-102051693D01*
X145362060Y-102051693D01*
X145334156Y-102053889D01*
X145334151Y-102053890D01*
X145327746Y-102054394D01*
X145252589Y-102076229D01*
X145178016Y-102097894D01*
X145178014Y-102097895D01*
X145170403Y-102100106D01*
X145163581Y-102104141D01*
X145163580Y-102104141D01*
X145160437Y-102106000D01*
X145029371Y-102183512D01*
X144913512Y-102299371D01*
X144909478Y-102306192D01*
X144846454Y-102412760D01*
X144830106Y-102440403D01*
X144828192Y-102439271D01*
X144790047Y-102485114D01*
X144719819Y-102506500D01*
X144686826Y-102506500D01*
X144642596Y-102498482D01*
X144615316Y-102488255D01*
X144553134Y-102481500D01*
X143467569Y-102481500D01*
X143399448Y-102461498D01*
X143352955Y-102407842D01*
X143341569Y-102355500D01*
X143341569Y-97462670D01*
X147012160Y-97462670D01*
X147017887Y-97470320D01*
X147189042Y-97575205D01*
X147197837Y-97579687D01*
X147407988Y-97666734D01*
X147417373Y-97669783D01*
X147638554Y-97722885D01*
X147648301Y-97724428D01*
X147875070Y-97742275D01*
X147884930Y-97742275D01*
X148111699Y-97724428D01*
X148121446Y-97722885D01*
X148342627Y-97669783D01*
X148352012Y-97666734D01*
X148562163Y-97579687D01*
X148570958Y-97575205D01*
X148738445Y-97472568D01*
X148747400Y-97462670D01*
X153512160Y-97462670D01*
X153517887Y-97470320D01*
X153689042Y-97575205D01*
X153697837Y-97579687D01*
X153907988Y-97666734D01*
X153917373Y-97669783D01*
X154138554Y-97722885D01*
X154148301Y-97724428D01*
X154375070Y-97742275D01*
X154384930Y-97742275D01*
X154611699Y-97724428D01*
X154621446Y-97722885D01*
X154842627Y-97669783D01*
X154852012Y-97666734D01*
X155062163Y-97579687D01*
X155070958Y-97575205D01*
X155238445Y-97472568D01*
X155247400Y-97462670D01*
X165427160Y-97462670D01*
X165432887Y-97470320D01*
X165604042Y-97575205D01*
X165612837Y-97579687D01*
X165822988Y-97666734D01*
X165832373Y-97669783D01*
X166053554Y-97722885D01*
X166063301Y-97724428D01*
X166290070Y-97742275D01*
X166299930Y-97742275D01*
X166526699Y-97724428D01*
X166536446Y-97722885D01*
X166757627Y-97669783D01*
X166767012Y-97666734D01*
X166977163Y-97579687D01*
X166985958Y-97575205D01*
X167153445Y-97472568D01*
X167162400Y-97462670D01*
X171927160Y-97462670D01*
X171932887Y-97470320D01*
X172104042Y-97575205D01*
X172112837Y-97579687D01*
X172322988Y-97666734D01*
X172332373Y-97669783D01*
X172553554Y-97722885D01*
X172563301Y-97724428D01*
X172790070Y-97742275D01*
X172799930Y-97742275D01*
X173026699Y-97724428D01*
X173036446Y-97722885D01*
X173257627Y-97669783D01*
X173267012Y-97666734D01*
X173477163Y-97579687D01*
X173485958Y-97575205D01*
X173653445Y-97472568D01*
X173662907Y-97462110D01*
X173659124Y-97453334D01*
X172807812Y-96602022D01*
X172793868Y-96594408D01*
X172792035Y-96594539D01*
X172785420Y-96598790D01*
X171933920Y-97450290D01*
X171927160Y-97462670D01*
X167162400Y-97462670D01*
X167162907Y-97462110D01*
X167159124Y-97453334D01*
X166307812Y-96602022D01*
X166293868Y-96594408D01*
X166292035Y-96594539D01*
X166285420Y-96598790D01*
X165433920Y-97450290D01*
X165427160Y-97462670D01*
X155247400Y-97462670D01*
X155247907Y-97462110D01*
X155244124Y-97453334D01*
X154392812Y-96602022D01*
X154378868Y-96594408D01*
X154377035Y-96594539D01*
X154370420Y-96598790D01*
X153518920Y-97450290D01*
X153512160Y-97462670D01*
X148747400Y-97462670D01*
X148747907Y-97462110D01*
X148744124Y-97453334D01*
X147892812Y-96602022D01*
X147878868Y-96594408D01*
X147877035Y-96594539D01*
X147870420Y-96598790D01*
X147018920Y-97450290D01*
X147012160Y-97462670D01*
X143341569Y-97462670D01*
X143341569Y-96234930D01*
X146367725Y-96234930D01*
X146385572Y-96461699D01*
X146387115Y-96471446D01*
X146440217Y-96692627D01*
X146443266Y-96702012D01*
X146530313Y-96912163D01*
X146534795Y-96920958D01*
X146637432Y-97088445D01*
X146647890Y-97097907D01*
X146656666Y-97094124D01*
X147507978Y-96242812D01*
X147514356Y-96231132D01*
X148244408Y-96231132D01*
X148244539Y-96232965D01*
X148248790Y-96239580D01*
X149100290Y-97091080D01*
X149112670Y-97097840D01*
X149120320Y-97092113D01*
X149225205Y-96920958D01*
X149229687Y-96912163D01*
X149316734Y-96702012D01*
X149319783Y-96692627D01*
X149372885Y-96471446D01*
X149374428Y-96461699D01*
X149392275Y-96234930D01*
X152867725Y-96234930D01*
X152885572Y-96461699D01*
X152887115Y-96471446D01*
X152940217Y-96692627D01*
X152943266Y-96702012D01*
X153030313Y-96912163D01*
X153034795Y-96920958D01*
X153137432Y-97088445D01*
X153147890Y-97097907D01*
X153156666Y-97094124D01*
X154007978Y-96242812D01*
X154014356Y-96231132D01*
X154744408Y-96231132D01*
X154744539Y-96232965D01*
X154748790Y-96239580D01*
X155600290Y-97091080D01*
X155612670Y-97097840D01*
X155620320Y-97092113D01*
X155725205Y-96920958D01*
X155729687Y-96912163D01*
X155816734Y-96702012D01*
X155819783Y-96692627D01*
X155872885Y-96471446D01*
X155874428Y-96461699D01*
X155892275Y-96234930D01*
X164782725Y-96234930D01*
X164800572Y-96461699D01*
X164802115Y-96471446D01*
X164855217Y-96692627D01*
X164858266Y-96702012D01*
X164945313Y-96912163D01*
X164949795Y-96920958D01*
X165052432Y-97088445D01*
X165062890Y-97097907D01*
X165071666Y-97094124D01*
X165922978Y-96242812D01*
X165929356Y-96231132D01*
X166659408Y-96231132D01*
X166659539Y-96232965D01*
X166663790Y-96239580D01*
X167515290Y-97091080D01*
X167527670Y-97097840D01*
X167535320Y-97092113D01*
X167640205Y-96920958D01*
X167644687Y-96912163D01*
X167731734Y-96702012D01*
X167734783Y-96692627D01*
X167787885Y-96471446D01*
X167789428Y-96461699D01*
X167807275Y-96234930D01*
X171282725Y-96234930D01*
X171300572Y-96461699D01*
X171302115Y-96471446D01*
X171355217Y-96692627D01*
X171358266Y-96702012D01*
X171445313Y-96912163D01*
X171449795Y-96920958D01*
X171552432Y-97088445D01*
X171562890Y-97097907D01*
X171571666Y-97094124D01*
X172422978Y-96242812D01*
X172429356Y-96231132D01*
X173159408Y-96231132D01*
X173159539Y-96232965D01*
X173163790Y-96239580D01*
X174015290Y-97091080D01*
X174027670Y-97097840D01*
X174035320Y-97092113D01*
X174140205Y-96920958D01*
X174144687Y-96912163D01*
X174231734Y-96702012D01*
X174234783Y-96692627D01*
X174287885Y-96471446D01*
X174289428Y-96461699D01*
X174307275Y-96234930D01*
X174307275Y-96225070D01*
X174289428Y-95998301D01*
X174287885Y-95988554D01*
X174234783Y-95767373D01*
X174231734Y-95757988D01*
X174144687Y-95547837D01*
X174140205Y-95539042D01*
X174037568Y-95371555D01*
X174027110Y-95362093D01*
X174018334Y-95365876D01*
X173167022Y-96217188D01*
X173159408Y-96231132D01*
X172429356Y-96231132D01*
X172430592Y-96228868D01*
X172430461Y-96227035D01*
X172426210Y-96220420D01*
X171574710Y-95368920D01*
X171562330Y-95362160D01*
X171554680Y-95367887D01*
X171449795Y-95539042D01*
X171445313Y-95547837D01*
X171358266Y-95757988D01*
X171355217Y-95767373D01*
X171302115Y-95988554D01*
X171300572Y-95998301D01*
X171282725Y-96225070D01*
X171282725Y-96234930D01*
X167807275Y-96234930D01*
X167807275Y-96225070D01*
X167789428Y-95998301D01*
X167787885Y-95988554D01*
X167734783Y-95767373D01*
X167731734Y-95757988D01*
X167644687Y-95547837D01*
X167640205Y-95539042D01*
X167537568Y-95371555D01*
X167527110Y-95362093D01*
X167518334Y-95365876D01*
X166667022Y-96217188D01*
X166659408Y-96231132D01*
X165929356Y-96231132D01*
X165930592Y-96228868D01*
X165930461Y-96227035D01*
X165926210Y-96220420D01*
X165074710Y-95368920D01*
X165062330Y-95362160D01*
X165054680Y-95367887D01*
X164949795Y-95539042D01*
X164945313Y-95547837D01*
X164858266Y-95757988D01*
X164855217Y-95767373D01*
X164802115Y-95988554D01*
X164800572Y-95998301D01*
X164782725Y-96225070D01*
X164782725Y-96234930D01*
X155892275Y-96234930D01*
X155892275Y-96225070D01*
X155874428Y-95998301D01*
X155872885Y-95988554D01*
X155819783Y-95767373D01*
X155816734Y-95757988D01*
X155729687Y-95547837D01*
X155725205Y-95539042D01*
X155622568Y-95371555D01*
X155612110Y-95362093D01*
X155603334Y-95365876D01*
X154752022Y-96217188D01*
X154744408Y-96231132D01*
X154014356Y-96231132D01*
X154015592Y-96228868D01*
X154015461Y-96227035D01*
X154011210Y-96220420D01*
X153159710Y-95368920D01*
X153147330Y-95362160D01*
X153139680Y-95367887D01*
X153034795Y-95539042D01*
X153030313Y-95547837D01*
X152943266Y-95757988D01*
X152940217Y-95767373D01*
X152887115Y-95988554D01*
X152885572Y-95998301D01*
X152867725Y-96225070D01*
X152867725Y-96234930D01*
X149392275Y-96234930D01*
X149392275Y-96225070D01*
X149374428Y-95998301D01*
X149372885Y-95988554D01*
X149319783Y-95767373D01*
X149316734Y-95757988D01*
X149229687Y-95547837D01*
X149225205Y-95539042D01*
X149122568Y-95371555D01*
X149112110Y-95362093D01*
X149103334Y-95365876D01*
X148252022Y-96217188D01*
X148244408Y-96231132D01*
X147514356Y-96231132D01*
X147515592Y-96228868D01*
X147515461Y-96227035D01*
X147511210Y-96220420D01*
X146659710Y-95368920D01*
X146647330Y-95362160D01*
X146639680Y-95367887D01*
X146534795Y-95539042D01*
X146530313Y-95547837D01*
X146443266Y-95757988D01*
X146440217Y-95767373D01*
X146387115Y-95988554D01*
X146385572Y-95998301D01*
X146367725Y-96225070D01*
X146367725Y-96234930D01*
X143341569Y-96234930D01*
X143341569Y-94997890D01*
X147012093Y-94997890D01*
X147015876Y-95006666D01*
X147867188Y-95857978D01*
X147881132Y-95865592D01*
X147882965Y-95865461D01*
X147889580Y-95861210D01*
X148741080Y-95009710D01*
X148747534Y-94997890D01*
X153512093Y-94997890D01*
X153515876Y-95006666D01*
X154367188Y-95857978D01*
X154381132Y-95865592D01*
X154382965Y-95865461D01*
X154389580Y-95861210D01*
X155241080Y-95009710D01*
X155247534Y-94997890D01*
X165427093Y-94997890D01*
X165430876Y-95006666D01*
X166282188Y-95857978D01*
X166296132Y-95865592D01*
X166297965Y-95865461D01*
X166304580Y-95861210D01*
X167156080Y-95009710D01*
X167162534Y-94997890D01*
X171927093Y-94997890D01*
X171930876Y-95006666D01*
X172782188Y-95857978D01*
X172796132Y-95865592D01*
X172797965Y-95865461D01*
X172804580Y-95861210D01*
X173656080Y-95009710D01*
X173662840Y-94997330D01*
X173657113Y-94989680D01*
X173485958Y-94884795D01*
X173477163Y-94880313D01*
X173267012Y-94793266D01*
X173257627Y-94790217D01*
X173036446Y-94737115D01*
X173026699Y-94735572D01*
X172799930Y-94717725D01*
X172790070Y-94717725D01*
X172563301Y-94735572D01*
X172553554Y-94737115D01*
X172332373Y-94790217D01*
X172322988Y-94793266D01*
X172112837Y-94880313D01*
X172104042Y-94884795D01*
X171936555Y-94987432D01*
X171927093Y-94997890D01*
X167162534Y-94997890D01*
X167162840Y-94997330D01*
X167157113Y-94989680D01*
X166985958Y-94884795D01*
X166977163Y-94880313D01*
X166767012Y-94793266D01*
X166757627Y-94790217D01*
X166536446Y-94737115D01*
X166526699Y-94735572D01*
X166299930Y-94717725D01*
X166290070Y-94717725D01*
X166063301Y-94735572D01*
X166053554Y-94737115D01*
X165832373Y-94790217D01*
X165822988Y-94793266D01*
X165612837Y-94880313D01*
X165604042Y-94884795D01*
X165436555Y-94987432D01*
X165427093Y-94997890D01*
X155247534Y-94997890D01*
X155247840Y-94997330D01*
X155242113Y-94989680D01*
X155070958Y-94884795D01*
X155062163Y-94880313D01*
X154852012Y-94793266D01*
X154842627Y-94790217D01*
X154621446Y-94737115D01*
X154611699Y-94735572D01*
X154384930Y-94717725D01*
X154375070Y-94717725D01*
X154148301Y-94735572D01*
X154138554Y-94737115D01*
X153917373Y-94790217D01*
X153907988Y-94793266D01*
X153697837Y-94880313D01*
X153689042Y-94884795D01*
X153521555Y-94987432D01*
X153512093Y-94997890D01*
X148747534Y-94997890D01*
X148747840Y-94997330D01*
X148742113Y-94989680D01*
X148570958Y-94884795D01*
X148562163Y-94880313D01*
X148352012Y-94793266D01*
X148342627Y-94790217D01*
X148121446Y-94737115D01*
X148111699Y-94735572D01*
X147884930Y-94717725D01*
X147875070Y-94717725D01*
X147648301Y-94735572D01*
X147638554Y-94737115D01*
X147417373Y-94790217D01*
X147407988Y-94793266D01*
X147197837Y-94880313D01*
X147189042Y-94884795D01*
X147021555Y-94987432D01*
X147012093Y-94997890D01*
X143341569Y-94997890D01*
X143341569Y-90264806D01*
X143361571Y-90196685D01*
X143415227Y-90150192D01*
X143485501Y-90140088D01*
X143550081Y-90169582D01*
X143556664Y-90175711D01*
X146827711Y-93446758D01*
X146835255Y-93455048D01*
X146839368Y-93461529D01*
X146845145Y-93466954D01*
X146889035Y-93508169D01*
X146891877Y-93510924D01*
X146911598Y-93530645D01*
X146914793Y-93533123D01*
X146923815Y-93540829D01*
X146956047Y-93571097D01*
X146962996Y-93574917D01*
X146973800Y-93580857D01*
X146990324Y-93591710D01*
X147006327Y-93604124D01*
X147046911Y-93621687D01*
X147057541Y-93626894D01*
X147096308Y-93648206D01*
X147103985Y-93650177D01*
X147103990Y-93650179D01*
X147115926Y-93653243D01*
X147134634Y-93659648D01*
X147153223Y-93667692D01*
X147161051Y-93668932D01*
X147161058Y-93668934D01*
X147196892Y-93674610D01*
X147208512Y-93677016D01*
X147240327Y-93685184D01*
X147251338Y-93688011D01*
X147271592Y-93688011D01*
X147291302Y-93689562D01*
X147311311Y-93692731D01*
X147319203Y-93691985D01*
X147337948Y-93690213D01*
X147355330Y-93688570D01*
X147367187Y-93688011D01*
X164891722Y-93688011D01*
X164902905Y-93688538D01*
X164910398Y-93690213D01*
X164918324Y-93689964D01*
X164918325Y-93689964D01*
X164978475Y-93688073D01*
X164982434Y-93688011D01*
X165010345Y-93688011D01*
X165014280Y-93687514D01*
X165014345Y-93687506D01*
X165026182Y-93686573D01*
X165058440Y-93685559D01*
X165062459Y-93685433D01*
X165070378Y-93685184D01*
X165089832Y-93679532D01*
X165109189Y-93675524D01*
X165121419Y-93673979D01*
X165121420Y-93673979D01*
X165129286Y-93672985D01*
X165136657Y-93670066D01*
X165136659Y-93670066D01*
X165170401Y-93656707D01*
X165181631Y-93652862D01*
X165216472Y-93642740D01*
X165216473Y-93642740D01*
X165224082Y-93640529D01*
X165230901Y-93636496D01*
X165230906Y-93636494D01*
X165241517Y-93630218D01*
X165259265Y-93621523D01*
X165278106Y-93614063D01*
X165298476Y-93599264D01*
X165313876Y-93588075D01*
X165323796Y-93581559D01*
X165355024Y-93563091D01*
X165355027Y-93563089D01*
X165361851Y-93559053D01*
X165376172Y-93544732D01*
X165391206Y-93531891D01*
X165392921Y-93530645D01*
X165407596Y-93519983D01*
X165435787Y-93485906D01*
X165443777Y-93477127D01*
X165716540Y-93204364D01*
X165778852Y-93170338D01*
X165835049Y-93170940D01*
X166053476Y-93223380D01*
X166053482Y-93223381D01*
X166058289Y-93224535D01*
X166295000Y-93243165D01*
X166531711Y-93224535D01*
X166536518Y-93223381D01*
X166536524Y-93223380D01*
X166682391Y-93188360D01*
X166762594Y-93169105D01*
X166767167Y-93167211D01*
X166977389Y-93080135D01*
X166977393Y-93080133D01*
X166981963Y-93078240D01*
X166986183Y-93075654D01*
X167180202Y-92956759D01*
X167180208Y-92956755D01*
X167184416Y-92954176D01*
X167364969Y-92799969D01*
X167519176Y-92619416D01*
X167521755Y-92615208D01*
X167521759Y-92615202D01*
X167639133Y-92423665D01*
X167691781Y-92376034D01*
X167746566Y-92363500D01*
X171343434Y-92363500D01*
X171411555Y-92383502D01*
X171450867Y-92423665D01*
X171568241Y-92615202D01*
X171568245Y-92615208D01*
X171570824Y-92619416D01*
X171725031Y-92799969D01*
X171905584Y-92954176D01*
X171909792Y-92956755D01*
X171909798Y-92956759D01*
X172103817Y-93075654D01*
X172108037Y-93078240D01*
X172112607Y-93080133D01*
X172112611Y-93080135D01*
X172322833Y-93167211D01*
X172327406Y-93169105D01*
X172407609Y-93188360D01*
X172553476Y-93223380D01*
X172553482Y-93223381D01*
X172558289Y-93224535D01*
X172795000Y-93243165D01*
X173031711Y-93224535D01*
X173036518Y-93223381D01*
X173036524Y-93223380D01*
X173182391Y-93188360D01*
X173262594Y-93169105D01*
X173267167Y-93167211D01*
X173477389Y-93080135D01*
X173477393Y-93080133D01*
X173481963Y-93078240D01*
X173486183Y-93075654D01*
X173680202Y-92956759D01*
X173680208Y-92956755D01*
X173684416Y-92954176D01*
X173864969Y-92799969D01*
X174019176Y-92619416D01*
X174021755Y-92615208D01*
X174021759Y-92615202D01*
X174140654Y-92421183D01*
X174143240Y-92416963D01*
X174149849Y-92401009D01*
X174232211Y-92202167D01*
X174232212Y-92202165D01*
X174234105Y-92197594D01*
X174289535Y-91966711D01*
X174308165Y-91730000D01*
X174289535Y-91493289D01*
X174265563Y-91393436D01*
X174236763Y-91273478D01*
X174234105Y-91262406D01*
X174217986Y-91223490D01*
X174145135Y-91047611D01*
X174145133Y-91047607D01*
X174143240Y-91043037D01*
X174079884Y-90939650D01*
X174021759Y-90844798D01*
X174021755Y-90844792D01*
X174019176Y-90840584D01*
X173864969Y-90660031D01*
X173684416Y-90505824D01*
X173680208Y-90503245D01*
X173680202Y-90503241D01*
X173486183Y-90384346D01*
X173481963Y-90381760D01*
X173477393Y-90379867D01*
X173477389Y-90379865D01*
X173267167Y-90292789D01*
X173267165Y-90292788D01*
X173262594Y-90290895D01*
X173182391Y-90271640D01*
X173036524Y-90236620D01*
X173036518Y-90236619D01*
X173031711Y-90235465D01*
X172795000Y-90216835D01*
X172558289Y-90235465D01*
X172553482Y-90236619D01*
X172553476Y-90236620D01*
X172407609Y-90271640D01*
X172327406Y-90290895D01*
X172322835Y-90292788D01*
X172322833Y-90292789D01*
X172112611Y-90379865D01*
X172112607Y-90379867D01*
X172108037Y-90381760D01*
X172103817Y-90384346D01*
X171909798Y-90503241D01*
X171909792Y-90503245D01*
X171905584Y-90505824D01*
X171725031Y-90660031D01*
X171570824Y-90840584D01*
X171568245Y-90844792D01*
X171568241Y-90844798D01*
X171450867Y-91036335D01*
X171398219Y-91083966D01*
X171343434Y-91096500D01*
X167746566Y-91096500D01*
X167678445Y-91076498D01*
X167639133Y-91036335D01*
X167521759Y-90844798D01*
X167521755Y-90844792D01*
X167519176Y-90840584D01*
X167364969Y-90660031D01*
X167184416Y-90505824D01*
X167180208Y-90503245D01*
X167180202Y-90503241D01*
X166986183Y-90384346D01*
X166981963Y-90381760D01*
X166977393Y-90379867D01*
X166977389Y-90379865D01*
X166767167Y-90292789D01*
X166767165Y-90292788D01*
X166762594Y-90290895D01*
X166682391Y-90271640D01*
X166536524Y-90236620D01*
X166536518Y-90236619D01*
X166531711Y-90235465D01*
X166295000Y-90216835D01*
X166058289Y-90235465D01*
X166053482Y-90236619D01*
X166053476Y-90236620D01*
X165907609Y-90271640D01*
X165827406Y-90290895D01*
X165822835Y-90292788D01*
X165822833Y-90292789D01*
X165612611Y-90379865D01*
X165612607Y-90379867D01*
X165608037Y-90381760D01*
X165603817Y-90384346D01*
X165409798Y-90503241D01*
X165409792Y-90503245D01*
X165405584Y-90505824D01*
X165225031Y-90660031D01*
X165070824Y-90840584D01*
X165068245Y-90844792D01*
X165068241Y-90844798D01*
X165010116Y-90939650D01*
X164946760Y-91043037D01*
X164944867Y-91047607D01*
X164944865Y-91047611D01*
X164872014Y-91223490D01*
X164855895Y-91262406D01*
X164853237Y-91273478D01*
X164824438Y-91393436D01*
X164800465Y-91493289D01*
X164781835Y-91730000D01*
X164800465Y-91966711D01*
X164801619Y-91971518D01*
X164801620Y-91971524D01*
X164854060Y-92189950D01*
X164850513Y-92260858D01*
X164820636Y-92308459D01*
X164744989Y-92384106D01*
X164682677Y-92418132D01*
X164655894Y-92421011D01*
X155915135Y-92421011D01*
X155847014Y-92401009D01*
X155800521Y-92347353D01*
X155790417Y-92277079D01*
X155798726Y-92246793D01*
X155817211Y-92202167D01*
X155817212Y-92202165D01*
X155819105Y-92197594D01*
X155874535Y-91966711D01*
X155893165Y-91730000D01*
X155874535Y-91493289D01*
X155850563Y-91393436D01*
X155821763Y-91273478D01*
X155819105Y-91262406D01*
X155802986Y-91223490D01*
X155730135Y-91047611D01*
X155730133Y-91047607D01*
X155728240Y-91043037D01*
X155664884Y-90939650D01*
X155606759Y-90844798D01*
X155606755Y-90844792D01*
X155604176Y-90840584D01*
X155449969Y-90660031D01*
X155269416Y-90505824D01*
X155265208Y-90503245D01*
X155265202Y-90503241D01*
X155071183Y-90384346D01*
X155066963Y-90381760D01*
X155062393Y-90379867D01*
X155062389Y-90379865D01*
X154852167Y-90292789D01*
X154852165Y-90292788D01*
X154847594Y-90290895D01*
X154767391Y-90271640D01*
X154621524Y-90236620D01*
X154621518Y-90236619D01*
X154616711Y-90235465D01*
X154380000Y-90216835D01*
X154143289Y-90235465D01*
X154138482Y-90236619D01*
X154138476Y-90236620D01*
X153992609Y-90271640D01*
X153912406Y-90290895D01*
X153907835Y-90292788D01*
X153907833Y-90292789D01*
X153697611Y-90379865D01*
X153697607Y-90379867D01*
X153693037Y-90381760D01*
X153688817Y-90384346D01*
X153494798Y-90503241D01*
X153494792Y-90503245D01*
X153490584Y-90505824D01*
X153310031Y-90660031D01*
X153155824Y-90840584D01*
X153153245Y-90844792D01*
X153153241Y-90844798D01*
X153035867Y-91036335D01*
X152983219Y-91083966D01*
X152928434Y-91096500D01*
X149331566Y-91096500D01*
X149263445Y-91076498D01*
X149224133Y-91036335D01*
X149106759Y-90844798D01*
X149106755Y-90844792D01*
X149104176Y-90840584D01*
X148949969Y-90660031D01*
X148769416Y-90505824D01*
X148765208Y-90503245D01*
X148765202Y-90503241D01*
X148571183Y-90384346D01*
X148566963Y-90381760D01*
X148562393Y-90379867D01*
X148562389Y-90379865D01*
X148352167Y-90292789D01*
X148352165Y-90292788D01*
X148347594Y-90290895D01*
X148267391Y-90271640D01*
X148121524Y-90236620D01*
X148121518Y-90236619D01*
X148116711Y-90235465D01*
X147880000Y-90216835D01*
X147643289Y-90235465D01*
X147638482Y-90236619D01*
X147638476Y-90236620D01*
X147420049Y-90289060D01*
X147349141Y-90285513D01*
X147301540Y-90255636D01*
X135399472Y-78353567D01*
X135365446Y-78291255D01*
X135370511Y-78220440D01*
X135405987Y-78169306D01*
X135573412Y-78024023D01*
X135573414Y-78024021D01*
X135577445Y-78020523D01*
X135641383Y-77942545D01*
X135720240Y-77846373D01*
X135720244Y-77846367D01*
X135723624Y-77842245D01*
X135741552Y-77810750D01*
X135792632Y-77761445D01*
X135862262Y-77747583D01*
X135928333Y-77773566D01*
X135955573Y-77802716D01*
X136037441Y-77924319D01*
X136041120Y-77928176D01*
X136041122Y-77928178D01*
X136060810Y-77948816D01*
X136196576Y-78091135D01*
X136381542Y-78228754D01*
X136386293Y-78231170D01*
X136386297Y-78231172D01*
X136443838Y-78260427D01*
X136587051Y-78333240D01*
X136592145Y-78334822D01*
X136592148Y-78334823D01*
X136792020Y-78396885D01*
X136807227Y-78401607D01*
X136812516Y-78402308D01*
X137030489Y-78431198D01*
X137030494Y-78431198D01*
X137035774Y-78431898D01*
X137041103Y-78431698D01*
X137041105Y-78431698D01*
X137158038Y-78427308D01*
X137266158Y-78423249D01*
X137271468Y-78422135D01*
X137425057Y-78389909D01*
X137491791Y-78375907D01*
X137496750Y-78373949D01*
X137496752Y-78373948D01*
X137701256Y-78293185D01*
X137701258Y-78293184D01*
X137706221Y-78291224D01*
X137711047Y-78288296D01*
X137867881Y-78193126D01*
X137903317Y-78171623D01*
X137943493Y-78136760D01*
X138073412Y-78024023D01*
X138073414Y-78024021D01*
X138077445Y-78020523D01*
X138107006Y-77984471D01*
X138165666Y-77944476D01*
X138236636Y-77942545D01*
X138297384Y-77979290D01*
X138311584Y-77998059D01*
X138398063Y-78137807D01*
X138407099Y-78149208D01*
X138521829Y-78263739D01*
X138533240Y-78272751D01*
X138671243Y-78357816D01*
X138684424Y-78363963D01*
X138838710Y-78415138D01*
X138852086Y-78418005D01*
X138946438Y-78427672D01*
X138952854Y-78428000D01*
X139327885Y-78428000D01*
X139343124Y-78423525D01*
X139344329Y-78422135D01*
X139346000Y-78414452D01*
X139346000Y-78409884D01*
X139854000Y-78409884D01*
X139858475Y-78425123D01*
X139859865Y-78426328D01*
X139867548Y-78427999D01*
X140247095Y-78427999D01*
X140253614Y-78427662D01*
X140349206Y-78417743D01*
X140362600Y-78414851D01*
X140516784Y-78363412D01*
X140529962Y-78357239D01*
X140667807Y-78271937D01*
X140679208Y-78262901D01*
X140793739Y-78148171D01*
X140802751Y-78136760D01*
X140887816Y-77998757D01*
X140893963Y-77985576D01*
X140945138Y-77831290D01*
X140948005Y-77817914D01*
X140957672Y-77723562D01*
X140958000Y-77717146D01*
X140958000Y-77217115D01*
X140953525Y-77201876D01*
X140952135Y-77200671D01*
X140944452Y-77199000D01*
X139872115Y-77199000D01*
X139856876Y-77203475D01*
X139855671Y-77204865D01*
X139854000Y-77212548D01*
X139854000Y-78409884D01*
X139346000Y-78409884D01*
X139346000Y-77152890D01*
X154871500Y-77152890D01*
X154875554Y-77200671D01*
X154884397Y-77304881D01*
X154886080Y-77324720D01*
X154887418Y-77329875D01*
X154887419Y-77329881D01*
X154942657Y-77542703D01*
X154943999Y-77547872D01*
X154946191Y-77552738D01*
X154946192Y-77552741D01*
X154972456Y-77611044D01*
X155038688Y-77758075D01*
X155167441Y-77949319D01*
X155171120Y-77953176D01*
X155171122Y-77953178D01*
X155231426Y-78016392D01*
X155326576Y-78116135D01*
X155511542Y-78253754D01*
X155516293Y-78256170D01*
X155516297Y-78256172D01*
X155579481Y-78288296D01*
X155717051Y-78358240D01*
X155722145Y-78359822D01*
X155722148Y-78359823D01*
X155898082Y-78414452D01*
X155937227Y-78426607D01*
X155942516Y-78427308D01*
X156160489Y-78456198D01*
X156160494Y-78456198D01*
X156165774Y-78456898D01*
X156171103Y-78456698D01*
X156171105Y-78456698D01*
X156280966Y-78452574D01*
X156396158Y-78448249D01*
X156418802Y-78443498D01*
X156616572Y-78402002D01*
X156621791Y-78400907D01*
X156626750Y-78398949D01*
X156626752Y-78398948D01*
X156831256Y-78318185D01*
X156831258Y-78318184D01*
X156836221Y-78316224D01*
X156872343Y-78294305D01*
X157028757Y-78199390D01*
X157028756Y-78199390D01*
X157033317Y-78196623D01*
X157102303Y-78136760D01*
X157203412Y-78049023D01*
X157203414Y-78049021D01*
X157207445Y-78045523D01*
X157236670Y-78009880D01*
X157295329Y-77969886D01*
X157366299Y-77967954D01*
X157427048Y-78004698D01*
X157441248Y-78023468D01*
X157452059Y-78040938D01*
X157531522Y-78169348D01*
X157656697Y-78294305D01*
X157662927Y-78298145D01*
X157662928Y-78298146D01*
X157800090Y-78382694D01*
X157807262Y-78387115D01*
X157852145Y-78402002D01*
X157968611Y-78440632D01*
X157968613Y-78440632D01*
X157975139Y-78442797D01*
X157981975Y-78443497D01*
X157981978Y-78443498D01*
X158017663Y-78447154D01*
X158079600Y-78453500D01*
X159380400Y-78453500D01*
X159383646Y-78453163D01*
X159383650Y-78453163D01*
X159479308Y-78443238D01*
X159479312Y-78443237D01*
X159486166Y-78442526D01*
X159492702Y-78440345D01*
X159492704Y-78440345D01*
X159643878Y-78389909D01*
X159653946Y-78386550D01*
X159804348Y-78293478D01*
X159825852Y-78271937D01*
X159877259Y-78220440D01*
X159929305Y-78168303D01*
X159933146Y-78162072D01*
X160018275Y-78023968D01*
X160018276Y-78023966D01*
X160022115Y-78017738D01*
X160077797Y-77849861D01*
X160078578Y-77842245D01*
X160087201Y-77758075D01*
X160088500Y-77745400D01*
X160088500Y-76144600D01*
X160082553Y-76087284D01*
X160078238Y-76045692D01*
X160078237Y-76045688D01*
X160077526Y-76038834D01*
X160073710Y-76027394D01*
X160023868Y-75878002D01*
X160021550Y-75871054D01*
X159928478Y-75720652D01*
X159803303Y-75595695D01*
X159785675Y-75584829D01*
X159658968Y-75506725D01*
X159658966Y-75506724D01*
X159652738Y-75502885D01*
X159559607Y-75471995D01*
X159491389Y-75449368D01*
X159491387Y-75449368D01*
X159484861Y-75447203D01*
X159478025Y-75446503D01*
X159478022Y-75446502D01*
X159434969Y-75442091D01*
X159380400Y-75436500D01*
X158079600Y-75436500D01*
X158076354Y-75436837D01*
X158076350Y-75436837D01*
X157980692Y-75446762D01*
X157980688Y-75446763D01*
X157973834Y-75447474D01*
X157967298Y-75449655D01*
X157967296Y-75449655D01*
X157891742Y-75474862D01*
X157806054Y-75503450D01*
X157655652Y-75596522D01*
X157650479Y-75601704D01*
X157625965Y-75626261D01*
X157530695Y-75721697D01*
X157441760Y-75865977D01*
X157440920Y-75867339D01*
X157388148Y-75914832D01*
X157318076Y-75926256D01*
X157252952Y-75897982D01*
X157242490Y-75888195D01*
X157157273Y-75798865D01*
X157133424Y-75773865D01*
X156948458Y-75636246D01*
X156943707Y-75633830D01*
X156943703Y-75633828D01*
X156792120Y-75556760D01*
X156742949Y-75531760D01*
X156737855Y-75530178D01*
X156737852Y-75530177D01*
X156527871Y-75464976D01*
X156522773Y-75463393D01*
X156488134Y-75458802D01*
X156299511Y-75433802D01*
X156299506Y-75433802D01*
X156294226Y-75433102D01*
X156288897Y-75433302D01*
X156288895Y-75433302D01*
X156180779Y-75437361D01*
X156063842Y-75441751D01*
X156058623Y-75442846D01*
X156036566Y-75447474D01*
X155838209Y-75489093D01*
X155833250Y-75491051D01*
X155833248Y-75491052D01*
X155628744Y-75571815D01*
X155628742Y-75571816D01*
X155623779Y-75573776D01*
X155619220Y-75576543D01*
X155619217Y-75576544D01*
X155520832Y-75636246D01*
X155426683Y-75693377D01*
X155422653Y-75696874D01*
X155300674Y-75802722D01*
X155252555Y-75844477D01*
X155234926Y-75865977D01*
X155109760Y-76018627D01*
X155109756Y-76018633D01*
X155106376Y-76022755D01*
X155103737Y-76027391D01*
X155103735Y-76027394D01*
X155074218Y-76079248D01*
X154992325Y-76223114D01*
X154913663Y-76439825D01*
X154912714Y-76445074D01*
X154912713Y-76445077D01*
X154873377Y-76662608D01*
X154873376Y-76662615D01*
X154872639Y-76666692D01*
X154872444Y-76670837D01*
X154871653Y-76687608D01*
X154871500Y-76690844D01*
X154871500Y-77152890D01*
X139346000Y-77152890D01*
X139346000Y-76672885D01*
X139854000Y-76672885D01*
X139858475Y-76688124D01*
X139859865Y-76689329D01*
X139867548Y-76691000D01*
X140939884Y-76691000D01*
X140955123Y-76686525D01*
X140956328Y-76685135D01*
X140957999Y-76677452D01*
X140957999Y-76172905D01*
X140957662Y-76166386D01*
X140947743Y-76070794D01*
X140944851Y-76057400D01*
X140893412Y-75903216D01*
X140887239Y-75890038D01*
X140801937Y-75752193D01*
X140792901Y-75740792D01*
X140678171Y-75626261D01*
X140666760Y-75617249D01*
X140528757Y-75532184D01*
X140515576Y-75526037D01*
X140361290Y-75474862D01*
X140347914Y-75471995D01*
X140253562Y-75462328D01*
X140247145Y-75462000D01*
X139872115Y-75462000D01*
X139856876Y-75466475D01*
X139855671Y-75467865D01*
X139854000Y-75475548D01*
X139854000Y-76672885D01*
X139346000Y-76672885D01*
X139346000Y-75480116D01*
X139341525Y-75464877D01*
X139340135Y-75463672D01*
X139332452Y-75462001D01*
X138952905Y-75462001D01*
X138946386Y-75462338D01*
X138850794Y-75472257D01*
X138837400Y-75475149D01*
X138683216Y-75526588D01*
X138670038Y-75532761D01*
X138532193Y-75618063D01*
X138520792Y-75627099D01*
X138406261Y-75741829D01*
X138397247Y-75753243D01*
X138311277Y-75892713D01*
X138258505Y-75940207D01*
X138188434Y-75951631D01*
X138123310Y-75923357D01*
X138112847Y-75913570D01*
X138092951Y-75892713D01*
X138003424Y-75798865D01*
X137818458Y-75661246D01*
X137813707Y-75658830D01*
X137813703Y-75658828D01*
X137691155Y-75596522D01*
X137612949Y-75556760D01*
X137607855Y-75555178D01*
X137607852Y-75555177D01*
X137397871Y-75489976D01*
X137392773Y-75488393D01*
X137387484Y-75487692D01*
X137169511Y-75458802D01*
X137169506Y-75458802D01*
X137164226Y-75458102D01*
X137158897Y-75458302D01*
X137158895Y-75458302D01*
X137060368Y-75462001D01*
X136933842Y-75466751D01*
X136928623Y-75467846D01*
X136908849Y-75471995D01*
X136708209Y-75514093D01*
X136703250Y-75516051D01*
X136703248Y-75516052D01*
X136498744Y-75596815D01*
X136498742Y-75596816D01*
X136493779Y-75598776D01*
X136489220Y-75601543D01*
X136489217Y-75601544D01*
X136390832Y-75661246D01*
X136296683Y-75718377D01*
X136292653Y-75721874D01*
X136131196Y-75861979D01*
X136122555Y-75869477D01*
X136119168Y-75873608D01*
X135979760Y-76043627D01*
X135979756Y-76043633D01*
X135976376Y-76047755D01*
X135958448Y-76079250D01*
X135907368Y-76128555D01*
X135837738Y-76142417D01*
X135771667Y-76116434D01*
X135744427Y-76087284D01*
X135717814Y-76047755D01*
X135662559Y-75965681D01*
X135612848Y-75913570D01*
X135563632Y-75861979D01*
X135503424Y-75798865D01*
X135318458Y-75661246D01*
X135313707Y-75658830D01*
X135313703Y-75658828D01*
X135191155Y-75596522D01*
X135112949Y-75556760D01*
X135107855Y-75555178D01*
X135107852Y-75555177D01*
X134897871Y-75489976D01*
X134892773Y-75488393D01*
X134887484Y-75487692D01*
X134669511Y-75458802D01*
X134669506Y-75458802D01*
X134664226Y-75458102D01*
X134658897Y-75458302D01*
X134658895Y-75458302D01*
X134560368Y-75462001D01*
X134433842Y-75466751D01*
X134428623Y-75467846D01*
X134408849Y-75471995D01*
X134208209Y-75514093D01*
X134203250Y-75516051D01*
X134203248Y-75516052D01*
X133998744Y-75596815D01*
X133998742Y-75596816D01*
X133993779Y-75598776D01*
X133989220Y-75601543D01*
X133989217Y-75601544D01*
X133890832Y-75661246D01*
X133796683Y-75718377D01*
X133792653Y-75721874D01*
X133631196Y-75861979D01*
X133622555Y-75869477D01*
X133619168Y-75873608D01*
X133479760Y-76043627D01*
X133479756Y-76043633D01*
X133476376Y-76047755D01*
X133458448Y-76079250D01*
X133407368Y-76128555D01*
X133337738Y-76142417D01*
X133271667Y-76116434D01*
X133244427Y-76087284D01*
X133217814Y-76047755D01*
X133162559Y-75965681D01*
X133112848Y-75913570D01*
X133063632Y-75861979D01*
X133003424Y-75798865D01*
X132818458Y-75661246D01*
X132813707Y-75658830D01*
X132813703Y-75658828D01*
X132691155Y-75596522D01*
X132612949Y-75556760D01*
X132607855Y-75555178D01*
X132607852Y-75555177D01*
X132397871Y-75489976D01*
X132392773Y-75488393D01*
X132387484Y-75487692D01*
X132169511Y-75458802D01*
X132169506Y-75458802D01*
X132164226Y-75458102D01*
X132158897Y-75458302D01*
X132158895Y-75458302D01*
X132060368Y-75462001D01*
X131933842Y-75466751D01*
X131928623Y-75467846D01*
X131908849Y-75471995D01*
X131708209Y-75514093D01*
X131703250Y-75516051D01*
X131703248Y-75516052D01*
X131498744Y-75596815D01*
X131498742Y-75596816D01*
X131493779Y-75598776D01*
X131489220Y-75601543D01*
X131489217Y-75601544D01*
X131390832Y-75661246D01*
X131296683Y-75718377D01*
X131292653Y-75721874D01*
X131131196Y-75861979D01*
X131122555Y-75869477D01*
X131119168Y-75873608D01*
X130979760Y-76043627D01*
X130979756Y-76043633D01*
X130976376Y-76047755D01*
X130958448Y-76079250D01*
X130907368Y-76128555D01*
X130837738Y-76142417D01*
X130771667Y-76116434D01*
X130744427Y-76087284D01*
X130717814Y-76047755D01*
X130662559Y-75965681D01*
X130612848Y-75913570D01*
X130563632Y-75861979D01*
X130503424Y-75798865D01*
X130318458Y-75661246D01*
X130313707Y-75658830D01*
X130313703Y-75658828D01*
X130191155Y-75596522D01*
X130112949Y-75556760D01*
X130107855Y-75555178D01*
X130107852Y-75555177D01*
X129897871Y-75489976D01*
X129892773Y-75488393D01*
X129887484Y-75487692D01*
X129669511Y-75458802D01*
X129669506Y-75458802D01*
X129664226Y-75458102D01*
X129658897Y-75458302D01*
X129658895Y-75458302D01*
X129560368Y-75462001D01*
X129433842Y-75466751D01*
X129428623Y-75467846D01*
X129408849Y-75471995D01*
X129208209Y-75514093D01*
X129203250Y-75516051D01*
X129203248Y-75516052D01*
X128998744Y-75596815D01*
X128998742Y-75596816D01*
X128993779Y-75598776D01*
X128989220Y-75601543D01*
X128989217Y-75601544D01*
X128890832Y-75661246D01*
X128796683Y-75718377D01*
X128792653Y-75721874D01*
X128631196Y-75861979D01*
X128622555Y-75869477D01*
X128619168Y-75873608D01*
X128479760Y-76043627D01*
X128479756Y-76043633D01*
X128476376Y-76047755D01*
X128458448Y-76079250D01*
X128407368Y-76128555D01*
X128337738Y-76142417D01*
X128271667Y-76116434D01*
X128244427Y-76087284D01*
X128217814Y-76047755D01*
X128162559Y-75965681D01*
X128112848Y-75913570D01*
X128063632Y-75861979D01*
X128003424Y-75798865D01*
X127818458Y-75661246D01*
X127813707Y-75658830D01*
X127813703Y-75658828D01*
X127691155Y-75596522D01*
X127612949Y-75556760D01*
X127607855Y-75555178D01*
X127607852Y-75555177D01*
X127397871Y-75489976D01*
X127392773Y-75488393D01*
X127387484Y-75487692D01*
X127169511Y-75458802D01*
X127169506Y-75458802D01*
X127164226Y-75458102D01*
X127158897Y-75458302D01*
X127158895Y-75458302D01*
X127060368Y-75462001D01*
X126933842Y-75466751D01*
X126928623Y-75467846D01*
X126908849Y-75471995D01*
X126708209Y-75514093D01*
X126703250Y-75516051D01*
X126703248Y-75516052D01*
X126498744Y-75596815D01*
X126498742Y-75596816D01*
X126493779Y-75598776D01*
X126489220Y-75601543D01*
X126489217Y-75601544D01*
X126390832Y-75661246D01*
X126296683Y-75718377D01*
X126292653Y-75721874D01*
X126131196Y-75861979D01*
X126122555Y-75869477D01*
X126119168Y-75873608D01*
X125979760Y-76043627D01*
X125979756Y-76043633D01*
X125976376Y-76047755D01*
X125973738Y-76052390D01*
X125973735Y-76052394D01*
X125919389Y-76147866D01*
X125862325Y-76248114D01*
X125783663Y-76464825D01*
X125782714Y-76470074D01*
X125782713Y-76470077D01*
X125743377Y-76687608D01*
X125743376Y-76687615D01*
X125742639Y-76691692D01*
X125741500Y-76715844D01*
X125741500Y-77127890D01*
X117779678Y-77127890D01*
X117813180Y-76959465D01*
X117813181Y-76959459D01*
X117813983Y-76955426D01*
X117817633Y-76899746D01*
X117833076Y-76664119D01*
X117833346Y-76660000D01*
X117820225Y-76459809D01*
X117814253Y-76368686D01*
X117814252Y-76368679D01*
X117813983Y-76364574D01*
X117795220Y-76270244D01*
X117757030Y-76078253D01*
X117757028Y-76078247D01*
X117756224Y-76074203D01*
X117688132Y-75873608D01*
X117662385Y-75797761D01*
X117662384Y-75797760D01*
X117661059Y-75793855D01*
X117563337Y-75595695D01*
X117531942Y-75532031D01*
X117531939Y-75532026D01*
X117530115Y-75528327D01*
X117475441Y-75446502D01*
X117367926Y-75285593D01*
X117367922Y-75285588D01*
X117365633Y-75282162D01*
X117362919Y-75279068D01*
X117362915Y-75279062D01*
X117173136Y-75062662D01*
X117170427Y-75059573D01*
X117167338Y-75056864D01*
X116950938Y-74867085D01*
X116950932Y-74867081D01*
X116947838Y-74864367D01*
X116944412Y-74862078D01*
X116944407Y-74862074D01*
X116705106Y-74702179D01*
X116701673Y-74699885D01*
X116697974Y-74698061D01*
X116697969Y-74698058D01*
X116561687Y-74630852D01*
X116436145Y-74568941D01*
X116432239Y-74567615D01*
X116159710Y-74475104D01*
X116159706Y-74475103D01*
X116155797Y-74473776D01*
X116151753Y-74472972D01*
X116151747Y-74472970D01*
X115875792Y-74418079D01*
X115812883Y-74385171D01*
X115777751Y-74323476D01*
X115781551Y-74252581D01*
X115823077Y-74194995D01*
X115889144Y-74169001D01*
X115900374Y-74168500D01*
X167846535Y-74168500D01*
X167865920Y-74170000D01*
G37*
%TD.AperFunction*%
%TA.AperFunction,Conductor*%
G36*
X146069432Y-105293502D02*
G01*
X146115925Y-105347158D01*
X146126029Y-105417432D01*
X146097833Y-105480491D01*
X145978222Y-105623039D01*
X145971292Y-105633159D01*
X145881998Y-105795585D01*
X145877166Y-105806858D01*
X145821120Y-105983538D01*
X145818570Y-105995532D01*
X145802393Y-106139761D01*
X145802000Y-106146785D01*
X145802000Y-106477885D01*
X145806475Y-106493124D01*
X145807865Y-106494329D01*
X145815548Y-106496000D01*
X147509035Y-106496000D01*
X147577156Y-106516002D01*
X147623649Y-106569658D01*
X147633753Y-106639932D01*
X147605256Y-106703070D01*
X147601515Y-106706607D01*
X147597678Y-106712252D01*
X147597677Y-106712254D01*
X147592491Y-106719885D01*
X147499723Y-106856388D01*
X147472363Y-106924794D01*
X147428496Y-106980613D01*
X147355375Y-107004000D01*
X145820115Y-107004000D01*
X145804876Y-107008475D01*
X145803671Y-107009865D01*
X145802000Y-107017548D01*
X145802000Y-107346657D01*
X145802301Y-107352805D01*
X145815812Y-107490603D01*
X145818195Y-107502638D01*
X145871767Y-107680076D01*
X145876441Y-107691416D01*
X145963460Y-107855077D01*
X145970249Y-107865294D01*
X146087397Y-108008933D01*
X146096041Y-108017637D01*
X146238856Y-108135784D01*
X146249027Y-108142644D01*
X146412076Y-108230804D01*
X146423381Y-108235556D01*
X146577019Y-108283115D01*
X146636179Y-108322366D01*
X146664726Y-108387371D01*
X146653597Y-108457490D01*
X146606326Y-108510461D01*
X146539760Y-108529480D01*
X146250150Y-108529480D01*
X146233707Y-108528402D01*
X146202014Y-108524230D01*
X146193825Y-108525308D01*
X146162140Y-108529479D01*
X146162131Y-108529480D01*
X146162129Y-108529480D01*
X146162123Y-108529481D01*
X146162121Y-108529481D01*
X146062557Y-108542589D01*
X146051350Y-108544064D01*
X146051348Y-108544065D01*
X146043163Y-108545142D01*
X145895138Y-108606456D01*
X145888587Y-108611483D01*
X145888585Y-108611484D01*
X145799942Y-108679503D01*
X145799939Y-108679506D01*
X145777968Y-108696365D01*
X145711748Y-108721966D01*
X145642199Y-108707701D01*
X145591403Y-108658100D01*
X145575487Y-108588911D01*
X145580267Y-108561250D01*
X145599109Y-108496395D01*
X145599069Y-108482295D01*
X145591799Y-108479000D01*
X145314386Y-108479000D01*
X145250247Y-108461453D01*
X145221929Y-108444706D01*
X145221925Y-108444704D01*
X145215100Y-108440668D01*
X145207489Y-108438457D01*
X145207487Y-108438456D01*
X145154947Y-108423192D01*
X145055937Y-108394427D01*
X145049532Y-108393923D01*
X145049527Y-108393922D01*
X145021203Y-108391693D01*
X145021195Y-108391693D01*
X145018747Y-108391500D01*
X145008334Y-108391500D01*
X144651999Y-108391501D01*
X144583880Y-108371499D01*
X144537387Y-108317844D01*
X144526000Y-108265501D01*
X144526000Y-108132094D01*
X144546002Y-108063973D01*
X144562905Y-108042999D01*
X144597999Y-108007905D01*
X144660311Y-107973879D01*
X144687094Y-107971000D01*
X145586048Y-107971000D01*
X145599579Y-107967027D01*
X145600714Y-107959129D01*
X145561082Y-107822713D01*
X145554834Y-107808276D01*
X145478601Y-107679373D01*
X145468952Y-107666935D01*
X145363065Y-107561048D01*
X145350627Y-107551399D01*
X145302681Y-107523044D01*
X145254229Y-107471151D01*
X145241524Y-107401301D01*
X145268600Y-107335670D01*
X145274972Y-107328337D01*
X145291159Y-107311101D01*
X145291162Y-107311097D01*
X145296586Y-107305321D01*
X145306346Y-107287568D01*
X145317199Y-107271045D01*
X145324753Y-107261306D01*
X145329613Y-107255041D01*
X145347176Y-107214457D01*
X145352383Y-107203827D01*
X145373695Y-107165060D01*
X145375666Y-107157383D01*
X145375668Y-107157378D01*
X145378732Y-107145442D01*
X145385138Y-107126730D01*
X145390033Y-107115419D01*
X145393181Y-107108145D01*
X145394421Y-107100317D01*
X145394423Y-107100310D01*
X145400099Y-107064476D01*
X145402505Y-107052856D01*
X145411528Y-107017711D01*
X145411528Y-107017710D01*
X145413500Y-107010030D01*
X145413500Y-106989776D01*
X145415051Y-106970065D01*
X145416980Y-106957886D01*
X145418220Y-106950057D01*
X145414059Y-106906038D01*
X145413500Y-106894181D01*
X145413500Y-105488768D01*
X145414027Y-105477585D01*
X145415702Y-105470092D01*
X145415286Y-105456849D01*
X145413608Y-105403458D01*
X145431461Y-105334742D01*
X145483630Y-105286587D01*
X145539546Y-105273500D01*
X146001311Y-105273500D01*
X146069432Y-105293502D01*
G37*
%TD.AperFunction*%
%TA.AperFunction,Conductor*%
G36*
X147863621Y-106055002D02*
G01*
X147910114Y-106108658D01*
X147921500Y-106161000D01*
X147921500Y-106209000D01*
X147901498Y-106277121D01*
X147847842Y-106323614D01*
X147795500Y-106335000D01*
X147508000Y-106335000D01*
X147439879Y-106314998D01*
X147393386Y-106261342D01*
X147382000Y-106209000D01*
X147382000Y-106161000D01*
X147402002Y-106092879D01*
X147455658Y-106046386D01*
X147508000Y-106035000D01*
X147795500Y-106035000D01*
X147863621Y-106055002D01*
G37*
%TD.AperFunction*%
%TA.AperFunction,Conductor*%
G36*
X154820121Y-106055002D02*
G01*
X154866614Y-106108658D01*
X154878000Y-106161000D01*
X154878000Y-106209000D01*
X154857998Y-106277121D01*
X154804342Y-106323614D01*
X154752000Y-106335000D01*
X154464500Y-106335000D01*
X154396379Y-106314998D01*
X154349886Y-106261342D01*
X154338500Y-106209000D01*
X154338500Y-106161000D01*
X154358502Y-106092879D01*
X154412158Y-106046386D01*
X154464500Y-106035000D01*
X154752000Y-106035000D01*
X154820121Y-106055002D01*
G37*
%TD.AperFunction*%
%TD*%
M02*
