M48
; DRILL file {KiCad (6.0.5)} date Tue Oct 18 17:57:19 2022
; FORMAT={3:3/ absolute / metric / keep zeros}
; #@! TF.CreationDate,2022-10-18T17:57:19+09:00
; #@! TF.GenerationSoftware,Kicad,Pcbnew,(6.0.5)
; #@! TF.FileFunction,MixedPlating,1,2
FMAT,2
METRIC
; #@! TA.AperFunction,Plated,PTH,ViaDrill
T1C0.400
; #@! TA.AperFunction,Plated,PTH,ComponentDrill
T2C0.600
; #@! TA.AperFunction,Plated,PTH,ComponentDrill
T3C0.950
; #@! TA.AperFunction,Plated,PTH,ComponentDrill
T4C1.000
; #@! TA.AperFunction,Plated,PTH,ComponentDrill
T5C1.100
; #@! TA.AperFunction,NonPlated,NPTH,ComponentDrill
T6C0.650
%
G90
G05
T1
X118110Y-094615
X121285Y-077470
X127635Y-083185
X128905Y-099695
X139065Y-095250
X140970Y-104140
X141605Y-107315
X147955Y-104140
X149156Y-104775
X149225Y-110490
X152400Y-085725
X153373Y-104724
X153670Y-110490
X156210Y-104140
X160655Y-095885
X161290Y-085725
X165735Y-104140
X166370Y-077470
X170815Y-085725
X171450Y-104140
X177165Y-094615
X177165Y-104140
T3
X127100Y-076945
X129600Y-076945
X132100Y-076945
X134600Y-076945
X137100Y-076945
X139600Y-076945
T4
X156230Y-076945
X158730Y-076945
T5
X147880Y-091730
X147880Y-096230
X154380Y-091730
X154380Y-096230
X166295Y-091730
X166295Y-096230
X172795Y-091730
X172795Y-096230
T6
X148240Y-107250
X154020Y-107250
T2
G00X146810Y-106200
M15
G01X146810Y-107300
M16
G05
G00X146810Y-110630
M15
G01X146810Y-111230
M16
G05
G00X155450Y-106200
M15
G01X155450Y-107300
M16
G05
G00X155450Y-110630
M15
G01X155450Y-111230
M16
G05
T4
G00X127905Y-089885
M15
G01X129905Y-089885
M16
G05
G00X127905Y-095885
M15
G01X129905Y-095885
M16
G05
T0
M30
