%TF.GenerationSoftware,KiCad,Pcbnew,(6.0.5)*%
%TF.CreationDate,2022-10-18T17:57:13+09:00*%
%TF.ProjectId,IO_Board,494f5f42-6f61-4726-942e-6b696361645f,rev?*%
%TF.SameCoordinates,Original*%
%TF.FileFunction,Legend,Bot*%
%TF.FilePolarity,Positive*%
%FSLAX46Y46*%
G04 Gerber Fmt 4.6, Leading zero omitted, Abs format (unit mm)*
G04 Created by KiCad (PCBNEW (6.0.5)) date 2022-10-18 17:57:13*
%MOMM*%
%LPD*%
G01*
G04 APERTURE LIST*
%ADD10C,0.150000*%
%ADD11C,0.120000*%
G04 APERTURE END LIST*
D10*
%TO.C,J3*%
X157813333Y-72847380D02*
X157813333Y-73561666D01*
X157860952Y-73704523D01*
X157956190Y-73799761D01*
X158099047Y-73847380D01*
X158194285Y-73847380D01*
X157432380Y-72847380D02*
X156813333Y-72847380D01*
X157146666Y-73228333D01*
X157003809Y-73228333D01*
X156908571Y-73275952D01*
X156860952Y-73323571D01*
X156813333Y-73418809D01*
X156813333Y-73656904D01*
X156860952Y-73752142D01*
X156908571Y-73799761D01*
X157003809Y-73847380D01*
X157289523Y-73847380D01*
X157384761Y-73799761D01*
X157432380Y-73752142D01*
%TO.C,J2*%
X133683333Y-72847380D02*
X133683333Y-73561666D01*
X133730952Y-73704523D01*
X133826190Y-73799761D01*
X133969047Y-73847380D01*
X134064285Y-73847380D01*
X133254761Y-72942619D02*
X133207142Y-72895000D01*
X133111904Y-72847380D01*
X132873809Y-72847380D01*
X132778571Y-72895000D01*
X132730952Y-72942619D01*
X132683333Y-73037857D01*
X132683333Y-73133095D01*
X132730952Y-73275952D01*
X133302380Y-73847380D01*
X132683333Y-73847380D01*
D11*
%TO.C,J3*%
X153680000Y-76745000D02*
X154430000Y-76745000D01*
X161280000Y-75245000D02*
X159480000Y-75245000D01*
X155480000Y-74495000D02*
X155480000Y-75245000D01*
X156980000Y-74495000D02*
X157980000Y-74495000D01*
X159480000Y-74495000D02*
X161280000Y-74495000D01*
X161580000Y-74195000D02*
X161580000Y-75445000D01*
X161290000Y-74485000D02*
X161290000Y-80455000D01*
X154430000Y-79695000D02*
X157480000Y-79695000D01*
X161290000Y-80455000D02*
X153670000Y-80455000D01*
X161280000Y-76745000D02*
X160530000Y-76745000D01*
X153670000Y-80455000D02*
X153670000Y-74485000D01*
X160530000Y-79695000D02*
X157480000Y-79695000D01*
X157980000Y-74495000D02*
X157980000Y-75245000D01*
X157980000Y-75245000D02*
X156980000Y-75245000D01*
X155480000Y-75245000D02*
X153680000Y-75245000D01*
X153670000Y-74485000D02*
X161290000Y-74485000D01*
X161280000Y-74495000D02*
X161280000Y-75245000D01*
X156980000Y-75245000D02*
X156980000Y-74495000D01*
X159480000Y-75245000D02*
X159480000Y-74495000D01*
X153680000Y-74495000D02*
X155480000Y-74495000D01*
X160530000Y-76745000D02*
X160530000Y-79695000D01*
X160330000Y-74195000D02*
X161580000Y-74195000D01*
X154430000Y-76745000D02*
X154430000Y-79695000D01*
X153680000Y-75245000D02*
X153680000Y-74495000D01*
%TO.C,J2*%
X124550000Y-76745000D02*
X125300000Y-76745000D01*
X125300000Y-76745000D02*
X125300000Y-79695000D01*
X141400000Y-79695000D02*
X133350000Y-79695000D01*
X142150000Y-74495000D02*
X142150000Y-75245000D01*
X140350000Y-74495000D02*
X142150000Y-74495000D01*
X127850000Y-75245000D02*
X127850000Y-74495000D01*
X124540000Y-74485000D02*
X142160000Y-74485000D01*
X124540000Y-80455000D02*
X124540000Y-74485000D01*
X142160000Y-80455000D02*
X124540000Y-80455000D01*
X140350000Y-75245000D02*
X140350000Y-74495000D01*
X142150000Y-75245000D02*
X140350000Y-75245000D01*
X142150000Y-76745000D02*
X141400000Y-76745000D01*
X126350000Y-75245000D02*
X124550000Y-75245000D01*
X141400000Y-76745000D02*
X141400000Y-79695000D01*
X142450000Y-74195000D02*
X142450000Y-75445000D01*
X141200000Y-74195000D02*
X142450000Y-74195000D01*
X126350000Y-74495000D02*
X126350000Y-75245000D01*
X138850000Y-75245000D02*
X127850000Y-75245000D01*
X127850000Y-74495000D02*
X138850000Y-74495000D01*
X125300000Y-79695000D02*
X133350000Y-79695000D01*
X138850000Y-74495000D02*
X138850000Y-75245000D01*
X124550000Y-75245000D02*
X124550000Y-74495000D01*
X142160000Y-74485000D02*
X142160000Y-80455000D01*
X124550000Y-74495000D02*
X126350000Y-74495000D01*
%TD*%
M02*
