%TF.GenerationSoftware,KiCad,Pcbnew,(6.0.5)*%
%TF.CreationDate,2022-10-18T17:57:13+09:00*%
%TF.ProjectId,IO_Board,494f5f42-6f61-4726-942e-6b696361645f,rev?*%
%TF.SameCoordinates,Original*%
%TF.FileFunction,Soldermask,Top*%
%TF.FilePolarity,Negative*%
%FSLAX46Y46*%
G04 Gerber Fmt 4.6, Leading zero omitted, Abs format (unit mm)*
G04 Created by KiCad (PCBNEW (6.0.5)) date 2022-10-18 17:57:13*
%MOMM*%
%LPD*%
G01*
G04 APERTURE LIST*
G04 Aperture macros list*
%AMRoundRect*
0 Rectangle with rounded corners*
0 $1 Rounding radius*
0 $2 $3 $4 $5 $6 $7 $8 $9 X,Y pos of 4 corners*
0 Add a 4 corners polygon primitive as box body*
4,1,4,$2,$3,$4,$5,$6,$7,$8,$9,$2,$3,0*
0 Add four circle primitives for the rounded corners*
1,1,$1+$1,$2,$3*
1,1,$1+$1,$4,$5*
1,1,$1+$1,$6,$7*
1,1,$1+$1,$8,$9*
0 Add four rect primitives between the rounded corners*
20,1,$1+$1,$2,$3,$4,$5,0*
20,1,$1+$1,$4,$5,$6,$7,0*
20,1,$1+$1,$6,$7,$8,$9,0*
20,1,$1+$1,$8,$9,$2,$3,0*%
G04 Aperture macros list end*
%ADD10RoundRect,0.140000X-0.140000X-0.170000X0.140000X-0.170000X0.140000X0.170000X-0.140000X0.170000X0*%
%ADD11R,1.400000X0.300000*%
%ADD12RoundRect,0.200000X0.275000X-0.200000X0.275000X0.200000X-0.275000X0.200000X-0.275000X-0.200000X0*%
%ADD13RoundRect,0.135000X-0.185000X0.135000X-0.185000X-0.135000X0.185000X-0.135000X0.185000X0.135000X0*%
%ADD14C,0.650000*%
%ADD15R,0.300000X1.150000*%
%ADD16O,1.000000X2.100000*%
%ADD17O,1.000000X1.600000*%
%ADD18C,2.000000*%
%ADD19RoundRect,0.218750X0.256250X-0.218750X0.256250X0.218750X-0.256250X0.218750X-0.256250X-0.218750X0*%
%ADD20RoundRect,0.225000X0.250000X-0.225000X0.250000X0.225000X-0.250000X0.225000X-0.250000X-0.225000X0*%
%ADD21O,4.000000X2.000000*%
%ADD22RoundRect,0.147500X-0.172500X0.147500X-0.172500X-0.147500X0.172500X-0.147500X0.172500X0.147500X0*%
%ADD23RoundRect,0.140000X0.170000X-0.140000X0.170000X0.140000X-0.170000X0.140000X-0.170000X-0.140000X0*%
%ADD24RoundRect,0.250000X0.600000X0.750000X-0.600000X0.750000X-0.600000X-0.750000X0.600000X-0.750000X0*%
%ADD25O,1.700000X2.000000*%
%ADD26RoundRect,0.250000X0.600000X0.725000X-0.600000X0.725000X-0.600000X-0.725000X0.600000X-0.725000X0*%
%ADD27O,1.700000X1.950000*%
G04 APERTURE END LIST*
D10*
%TO.C,C2*%
X145570000Y-102870000D03*
X146530000Y-102870000D03*
%TD*%
D11*
%TO.C,U1*%
X139405000Y-103140000D03*
X139405000Y-103640000D03*
X139405000Y-104140000D03*
X139405000Y-104640000D03*
X139405000Y-105140000D03*
X143805000Y-105140000D03*
X143805000Y-104640000D03*
X143805000Y-104140000D03*
X143805000Y-103640000D03*
X143805000Y-103140000D03*
%TD*%
D12*
%TO.C,R3*%
X158750000Y-110045000D03*
X158750000Y-108395000D03*
%TD*%
D13*
%TO.C,R4*%
X143510000Y-108200000D03*
X143510000Y-109220000D03*
%TD*%
D14*
%TO.C,J1*%
X148240000Y-107250000D03*
X154020000Y-107250000D03*
D15*
X147780000Y-106185000D03*
X148580000Y-106185000D03*
X149880000Y-106185000D03*
X150880000Y-106185000D03*
X151380000Y-106185000D03*
X152380000Y-106185000D03*
X153680000Y-106185000D03*
X154480000Y-106185000D03*
X154180000Y-106185000D03*
X153380000Y-106185000D03*
X152880000Y-106185000D03*
X151880000Y-106185000D03*
X150380000Y-106185000D03*
X149380000Y-106185000D03*
X148880000Y-106185000D03*
X148080000Y-106185000D03*
D16*
X155450000Y-106750000D03*
X146810000Y-106750000D03*
D17*
X155450000Y-110930000D03*
X146810000Y-110930000D03*
%TD*%
D18*
%TO.C,SW1*%
X147880000Y-91730000D03*
X154380000Y-91730000D03*
X147880000Y-96230000D03*
X154380000Y-96230000D03*
%TD*%
D19*
%TO.C,F1*%
X158115000Y-104927500D03*
X158115000Y-103352500D03*
%TD*%
D18*
%TO.C,SW2*%
X166295000Y-91730000D03*
X172795000Y-91730000D03*
X166295000Y-96230000D03*
X172795000Y-96230000D03*
%TD*%
D20*
%TO.C,C1*%
X160655000Y-104280000D03*
X160655000Y-102730000D03*
%TD*%
D21*
%TO.C,SW3*%
X128905000Y-95885000D03*
X128905000Y-89885000D03*
%TD*%
D22*
%TO.C,D1*%
X157480000Y-108735000D03*
X157480000Y-109705000D03*
%TD*%
D23*
%TO.C,C3*%
X159385000Y-103985000D03*
X159385000Y-103025000D03*
%TD*%
D13*
%TO.C,R1*%
X149860000Y-102360000D03*
X149860000Y-103380000D03*
%TD*%
D22*
%TO.C,D2*%
X144780000Y-108225000D03*
X144780000Y-109195000D03*
%TD*%
D13*
%TO.C,R2*%
X152400000Y-102360000D03*
X152400000Y-103380000D03*
%TD*%
D24*
%TO.C,J3*%
X158730000Y-76945000D03*
D25*
X156230000Y-76945000D03*
%TD*%
D26*
%TO.C,J2*%
X139600000Y-76945000D03*
D27*
X137100000Y-76945000D03*
X134600000Y-76945000D03*
X132100000Y-76945000D03*
X129600000Y-76945000D03*
X127100000Y-76945000D03*
%TD*%
M02*
