G04 #@! TF.GenerationSoftware,KiCad,Pcbnew,(6.0.4)*
G04 #@! TF.CreationDate,2022-07-19T16:13:39+09:00*
G04 #@! TF.ProjectId,io_board for cnc,696f5f62-6f61-4726-9420-666f7220636e,rev?*
G04 #@! TF.SameCoordinates,Original*
G04 #@! TF.FileFunction,Profile,NP*
%FSLAX46Y46*%
G04 Gerber Fmt 4.6, Leading zero omitted, Abs format (unit mm)*
G04 Created by KiCad (PCBNEW (6.0.4)) date 2022-07-19 16:13:39*
%MOMM*%
%LPD*%
G01*
G04 APERTURE LIST*
G04 #@! TA.AperFunction,Profile*
%ADD10C,0.200000*%
G04 #@! TD*
G04 APERTURE END LIST*
D10*
X181987484Y-135964323D02*
G75*
G03*
X181987484Y-135964323I-1250000J0D01*
G01*
X109412564Y-110580179D02*
X114539088Y-115706703D01*
X185401143Y-130000216D02*
G75*
G03*
X184229538Y-132828611I2828457J-2828484D01*
G01*
X185401111Y-125757543D02*
X179592912Y-119949344D01*
X114539088Y-119949344D02*
X108730889Y-125757543D01*
X109902465Y-132828611D02*
G75*
G03*
X108730889Y-130000184I-3999965J11D01*
G01*
X184229538Y-135780675D02*
X184229538Y-132828611D01*
X111533884Y-105458864D02*
G75*
G03*
X109412564Y-110580179I-4J-2999996D01*
G01*
X111845858Y-138588448D02*
G75*
G03*
X182286142Y-138588448I35220142J93592427D01*
G01*
X182286146Y-138588459D02*
G75*
G03*
X184229538Y-135780675I-1056446J2807659D01*
G01*
X114539065Y-119949321D02*
G75*
G03*
X114539088Y-115706703I-2121265J2121321D01*
G01*
X182598116Y-105458859D02*
X111533884Y-105458859D01*
X108730886Y-125757540D02*
G75*
G03*
X108730889Y-130000184I2121324J-2121320D01*
G01*
X179592912Y-115706703D02*
X184719436Y-110580179D01*
X185401147Y-130000220D02*
G75*
G03*
X185401111Y-125757543I-2121347J2121320D01*
G01*
X114644516Y-135964323D02*
G75*
G03*
X114644516Y-135964323I-1250000J0D01*
G01*
X109902462Y-132828611D02*
X109902462Y-135780675D01*
X112783884Y-108458859D02*
G75*
G03*
X112783884Y-108458859I-1250000J0D01*
G01*
X184719478Y-110580221D02*
G75*
G03*
X182598116Y-105458859I-2121378J2121321D01*
G01*
X179592888Y-115706679D02*
G75*
G03*
X179592912Y-119949344I2121312J-2121321D01*
G01*
X109902510Y-135780675D02*
G75*
G03*
X111845858Y-138588448I2999990J-25D01*
G01*
X183848116Y-108458859D02*
G75*
G03*
X183848116Y-108458859I-1250000J0D01*
G01*
M02*
