%TF.GenerationSoftware,KiCad,Pcbnew,(6.0.5)*%
%TF.CreationDate,2022-10-16T22:52:23+09:00*%
%TF.ProjectId,main_board_Teensy,6d61696e-5f62-46f6-9172-645f5465656e,rev?*%
%TF.SameCoordinates,Original*%
%TF.FileFunction,Legend,Top*%
%TF.FilePolarity,Positive*%
%FSLAX46Y46*%
G04 Gerber Fmt 4.6, Leading zero omitted, Abs format (unit mm)*
G04 Created by KiCad (PCBNEW (6.0.5)) date 2022-10-16 22:52:23*
%MOMM*%
%LPD*%
G01*
G04 APERTURE LIST*
%ADD10C,0.150000*%
%ADD11C,0.120000*%
%ADD12C,0.100000*%
G04 APERTURE END LIST*
D10*
X171164761Y-135616904D02*
X170783809Y-135616904D01*
X170783809Y-134816904D01*
X171431428Y-135616904D02*
X171431428Y-135083571D01*
X171431428Y-134816904D02*
X171393333Y-134855000D01*
X171431428Y-134893095D01*
X171469523Y-134855000D01*
X171431428Y-134816904D01*
X171431428Y-134893095D01*
X171812380Y-135083571D02*
X171812380Y-135616904D01*
X171812380Y-135159761D02*
X171850476Y-135121666D01*
X171926666Y-135083571D01*
X172040952Y-135083571D01*
X172117142Y-135121666D01*
X172155238Y-135197857D01*
X172155238Y-135616904D01*
X172840952Y-135578809D02*
X172764761Y-135616904D01*
X172612380Y-135616904D01*
X172536190Y-135578809D01*
X172498095Y-135502619D01*
X172498095Y-135197857D01*
X172536190Y-135121666D01*
X172612380Y-135083571D01*
X172764761Y-135083571D01*
X172840952Y-135121666D01*
X172879047Y-135197857D01*
X172879047Y-135274047D01*
X172498095Y-135350238D01*
X174098095Y-135197857D02*
X174212380Y-135235952D01*
X174250476Y-135274047D01*
X174288571Y-135350238D01*
X174288571Y-135464523D01*
X174250476Y-135540714D01*
X174212380Y-135578809D01*
X174136190Y-135616904D01*
X173831428Y-135616904D01*
X173831428Y-134816904D01*
X174098095Y-134816904D01*
X174174285Y-134855000D01*
X174212380Y-134893095D01*
X174250476Y-134969285D01*
X174250476Y-135045476D01*
X174212380Y-135121666D01*
X174174285Y-135159761D01*
X174098095Y-135197857D01*
X173831428Y-135197857D01*
X174631428Y-135616904D02*
X174631428Y-135083571D01*
X174631428Y-135235952D02*
X174669523Y-135159761D01*
X174707619Y-135121666D01*
X174783809Y-135083571D01*
X174860000Y-135083571D01*
X175126666Y-135616904D02*
X175126666Y-135083571D01*
X175126666Y-134816904D02*
X175088571Y-134855000D01*
X175126666Y-134893095D01*
X175164761Y-134855000D01*
X175126666Y-134816904D01*
X175126666Y-134893095D01*
X175850476Y-135083571D02*
X175850476Y-135731190D01*
X175812380Y-135807380D01*
X175774285Y-135845476D01*
X175698095Y-135883571D01*
X175583809Y-135883571D01*
X175507619Y-135845476D01*
X175850476Y-135578809D02*
X175774285Y-135616904D01*
X175621904Y-135616904D01*
X175545714Y-135578809D01*
X175507619Y-135540714D01*
X175469523Y-135464523D01*
X175469523Y-135235952D01*
X175507619Y-135159761D01*
X175545714Y-135121666D01*
X175621904Y-135083571D01*
X175774285Y-135083571D01*
X175850476Y-135121666D01*
X176231428Y-135616904D02*
X176231428Y-134816904D01*
X176574285Y-135616904D02*
X176574285Y-135197857D01*
X176536190Y-135121666D01*
X176460000Y-135083571D01*
X176345714Y-135083571D01*
X176269523Y-135121666D01*
X176231428Y-135159761D01*
X176840952Y-135083571D02*
X177145714Y-135083571D01*
X176955238Y-134816904D02*
X176955238Y-135502619D01*
X176993333Y-135578809D01*
X177069523Y-135616904D01*
X177145714Y-135616904D01*
X177412380Y-135083571D02*
X177412380Y-135616904D01*
X177412380Y-135159761D02*
X177450476Y-135121666D01*
X177526666Y-135083571D01*
X177640952Y-135083571D01*
X177717142Y-135121666D01*
X177755238Y-135197857D01*
X177755238Y-135616904D01*
X178440952Y-135578809D02*
X178364761Y-135616904D01*
X178212380Y-135616904D01*
X178136190Y-135578809D01*
X178098095Y-135502619D01*
X178098095Y-135197857D01*
X178136190Y-135121666D01*
X178212380Y-135083571D01*
X178364761Y-135083571D01*
X178440952Y-135121666D01*
X178479047Y-135197857D01*
X178479047Y-135274047D01*
X178098095Y-135350238D01*
X178783809Y-135578809D02*
X178860000Y-135616904D01*
X179012380Y-135616904D01*
X179088571Y-135578809D01*
X179126666Y-135502619D01*
X179126666Y-135464523D01*
X179088571Y-135388333D01*
X179012380Y-135350238D01*
X178898095Y-135350238D01*
X178821904Y-135312142D01*
X178783809Y-135235952D01*
X178783809Y-135197857D01*
X178821904Y-135121666D01*
X178898095Y-135083571D01*
X179012380Y-135083571D01*
X179088571Y-135121666D01*
X179431428Y-135578809D02*
X179507619Y-135616904D01*
X179660000Y-135616904D01*
X179736190Y-135578809D01*
X179774285Y-135502619D01*
X179774285Y-135464523D01*
X179736190Y-135388333D01*
X179660000Y-135350238D01*
X179545714Y-135350238D01*
X179469523Y-135312142D01*
X179431428Y-135235952D01*
X179431428Y-135197857D01*
X179469523Y-135121666D01*
X179545714Y-135083571D01*
X179660000Y-135083571D01*
X179736190Y-135121666D01*
X134595238Y-134816904D02*
X135052380Y-134816904D01*
X134823809Y-135616904D02*
X134823809Y-134816904D01*
X135433333Y-135616904D02*
X135357142Y-135578809D01*
X135319047Y-135540714D01*
X135280952Y-135464523D01*
X135280952Y-135235952D01*
X135319047Y-135159761D01*
X135357142Y-135121666D01*
X135433333Y-135083571D01*
X135547619Y-135083571D01*
X135623809Y-135121666D01*
X135661904Y-135159761D01*
X135700000Y-135235952D01*
X135700000Y-135464523D01*
X135661904Y-135540714D01*
X135623809Y-135578809D01*
X135547619Y-135616904D01*
X135433333Y-135616904D01*
X136385714Y-135083571D02*
X136385714Y-135616904D01*
X136042857Y-135083571D02*
X136042857Y-135502619D01*
X136080952Y-135578809D01*
X136157142Y-135616904D01*
X136271428Y-135616904D01*
X136347619Y-135578809D01*
X136385714Y-135540714D01*
X137109523Y-135578809D02*
X137033333Y-135616904D01*
X136880952Y-135616904D01*
X136804761Y-135578809D01*
X136766666Y-135540714D01*
X136728571Y-135464523D01*
X136728571Y-135235952D01*
X136766666Y-135159761D01*
X136804761Y-135121666D01*
X136880952Y-135083571D01*
X137033333Y-135083571D01*
X137109523Y-135121666D01*
X137452380Y-135616904D02*
X137452380Y-134816904D01*
X137795238Y-135616904D02*
X137795238Y-135197857D01*
X137757142Y-135121666D01*
X137680952Y-135083571D01*
X137566666Y-135083571D01*
X137490476Y-135121666D01*
X137452380Y-135159761D01*
X139052380Y-135197857D02*
X139166666Y-135235952D01*
X139204761Y-135274047D01*
X139242857Y-135350238D01*
X139242857Y-135464523D01*
X139204761Y-135540714D01*
X139166666Y-135578809D01*
X139090476Y-135616904D01*
X138785714Y-135616904D01*
X138785714Y-134816904D01*
X139052380Y-134816904D01*
X139128571Y-134855000D01*
X139166666Y-134893095D01*
X139204761Y-134969285D01*
X139204761Y-135045476D01*
X139166666Y-135121666D01*
X139128571Y-135159761D01*
X139052380Y-135197857D01*
X138785714Y-135197857D01*
X139585714Y-135616904D02*
X139585714Y-135083571D01*
X139585714Y-135235952D02*
X139623809Y-135159761D01*
X139661904Y-135121666D01*
X139738095Y-135083571D01*
X139814285Y-135083571D01*
X140080952Y-135616904D02*
X140080952Y-135083571D01*
X140080952Y-134816904D02*
X140042857Y-134855000D01*
X140080952Y-134893095D01*
X140119047Y-134855000D01*
X140080952Y-134816904D01*
X140080952Y-134893095D01*
X140804761Y-135083571D02*
X140804761Y-135731190D01*
X140766666Y-135807380D01*
X140728571Y-135845476D01*
X140652380Y-135883571D01*
X140538095Y-135883571D01*
X140461904Y-135845476D01*
X140804761Y-135578809D02*
X140728571Y-135616904D01*
X140576190Y-135616904D01*
X140500000Y-135578809D01*
X140461904Y-135540714D01*
X140423809Y-135464523D01*
X140423809Y-135235952D01*
X140461904Y-135159761D01*
X140500000Y-135121666D01*
X140576190Y-135083571D01*
X140728571Y-135083571D01*
X140804761Y-135121666D01*
X141185714Y-135616904D02*
X141185714Y-134816904D01*
X141528571Y-135616904D02*
X141528571Y-135197857D01*
X141490476Y-135121666D01*
X141414285Y-135083571D01*
X141300000Y-135083571D01*
X141223809Y-135121666D01*
X141185714Y-135159761D01*
X141795238Y-135083571D02*
X142100000Y-135083571D01*
X141909523Y-134816904D02*
X141909523Y-135502619D01*
X141947619Y-135578809D01*
X142023809Y-135616904D01*
X142100000Y-135616904D01*
X142366666Y-135083571D02*
X142366666Y-135616904D01*
X142366666Y-135159761D02*
X142404761Y-135121666D01*
X142480952Y-135083571D01*
X142595238Y-135083571D01*
X142671428Y-135121666D01*
X142709523Y-135197857D01*
X142709523Y-135616904D01*
X143395238Y-135578809D02*
X143319047Y-135616904D01*
X143166666Y-135616904D01*
X143090476Y-135578809D01*
X143052380Y-135502619D01*
X143052380Y-135197857D01*
X143090476Y-135121666D01*
X143166666Y-135083571D01*
X143319047Y-135083571D01*
X143395238Y-135121666D01*
X143433333Y-135197857D01*
X143433333Y-135274047D01*
X143052380Y-135350238D01*
X143738095Y-135578809D02*
X143814285Y-135616904D01*
X143966666Y-135616904D01*
X144042857Y-135578809D01*
X144080952Y-135502619D01*
X144080952Y-135464523D01*
X144042857Y-135388333D01*
X143966666Y-135350238D01*
X143852380Y-135350238D01*
X143776190Y-135312142D01*
X143738095Y-135235952D01*
X143738095Y-135197857D01*
X143776190Y-135121666D01*
X143852380Y-135083571D01*
X143966666Y-135083571D01*
X144042857Y-135121666D01*
X144385714Y-135578809D02*
X144461904Y-135616904D01*
X144614285Y-135616904D01*
X144690476Y-135578809D01*
X144728571Y-135502619D01*
X144728571Y-135464523D01*
X144690476Y-135388333D01*
X144614285Y-135350238D01*
X144500000Y-135350238D01*
X144423809Y-135312142D01*
X144385714Y-135235952D01*
X144385714Y-135197857D01*
X144423809Y-135121666D01*
X144500000Y-135083571D01*
X144614285Y-135083571D01*
X144690476Y-135121666D01*
%TO.C,programmable switch*%
X138216666Y-145276914D02*
X138216666Y-146276914D01*
X138216666Y-145324533D02*
X138311904Y-145276914D01*
X138502380Y-145276914D01*
X138597619Y-145324533D01*
X138645238Y-145372152D01*
X138692857Y-145467390D01*
X138692857Y-145753104D01*
X138645238Y-145848342D01*
X138597619Y-145895961D01*
X138502380Y-145943580D01*
X138311904Y-145943580D01*
X138216666Y-145895961D01*
X139121428Y-145943580D02*
X139121428Y-145276914D01*
X139121428Y-145467390D02*
X139169047Y-145372152D01*
X139216666Y-145324533D01*
X139311904Y-145276914D01*
X139407142Y-145276914D01*
X139883333Y-145943580D02*
X139788095Y-145895961D01*
X139740476Y-145848342D01*
X139692857Y-145753104D01*
X139692857Y-145467390D01*
X139740476Y-145372152D01*
X139788095Y-145324533D01*
X139883333Y-145276914D01*
X140026190Y-145276914D01*
X140121428Y-145324533D01*
X140169047Y-145372152D01*
X140216666Y-145467390D01*
X140216666Y-145753104D01*
X140169047Y-145848342D01*
X140121428Y-145895961D01*
X140026190Y-145943580D01*
X139883333Y-145943580D01*
X141073809Y-145276914D02*
X141073809Y-146086438D01*
X141026190Y-146181676D01*
X140978571Y-146229295D01*
X140883333Y-146276914D01*
X140740476Y-146276914D01*
X140645238Y-146229295D01*
X141073809Y-145895961D02*
X140978571Y-145943580D01*
X140788095Y-145943580D01*
X140692857Y-145895961D01*
X140645238Y-145848342D01*
X140597619Y-145753104D01*
X140597619Y-145467390D01*
X140645238Y-145372152D01*
X140692857Y-145324533D01*
X140788095Y-145276914D01*
X140978571Y-145276914D01*
X141073809Y-145324533D01*
X141550000Y-145943580D02*
X141550000Y-145276914D01*
X141550000Y-145467390D02*
X141597619Y-145372152D01*
X141645238Y-145324533D01*
X141740476Y-145276914D01*
X141835714Y-145276914D01*
X142597619Y-145943580D02*
X142597619Y-145419771D01*
X142550000Y-145324533D01*
X142454761Y-145276914D01*
X142264285Y-145276914D01*
X142169047Y-145324533D01*
X142597619Y-145895961D02*
X142502380Y-145943580D01*
X142264285Y-145943580D01*
X142169047Y-145895961D01*
X142121428Y-145800723D01*
X142121428Y-145705485D01*
X142169047Y-145610247D01*
X142264285Y-145562628D01*
X142502380Y-145562628D01*
X142597619Y-145515009D01*
X143073809Y-145943580D02*
X143073809Y-145276914D01*
X143073809Y-145372152D02*
X143121428Y-145324533D01*
X143216666Y-145276914D01*
X143359523Y-145276914D01*
X143454761Y-145324533D01*
X143502380Y-145419771D01*
X143502380Y-145943580D01*
X143502380Y-145419771D02*
X143550000Y-145324533D01*
X143645238Y-145276914D01*
X143788095Y-145276914D01*
X143883333Y-145324533D01*
X143930952Y-145419771D01*
X143930952Y-145943580D01*
X144407142Y-145943580D02*
X144407142Y-145276914D01*
X144407142Y-145372152D02*
X144454761Y-145324533D01*
X144550000Y-145276914D01*
X144692857Y-145276914D01*
X144788095Y-145324533D01*
X144835714Y-145419771D01*
X144835714Y-145943580D01*
X144835714Y-145419771D02*
X144883333Y-145324533D01*
X144978571Y-145276914D01*
X145121428Y-145276914D01*
X145216666Y-145324533D01*
X145264285Y-145419771D01*
X145264285Y-145943580D01*
X146169047Y-145943580D02*
X146169047Y-145419771D01*
X146121428Y-145324533D01*
X146026190Y-145276914D01*
X145835714Y-145276914D01*
X145740476Y-145324533D01*
X146169047Y-145895961D02*
X146073809Y-145943580D01*
X145835714Y-145943580D01*
X145740476Y-145895961D01*
X145692857Y-145800723D01*
X145692857Y-145705485D01*
X145740476Y-145610247D01*
X145835714Y-145562628D01*
X146073809Y-145562628D01*
X146169047Y-145515009D01*
X146645238Y-145943580D02*
X146645238Y-144943580D01*
X146645238Y-145324533D02*
X146740476Y-145276914D01*
X146930952Y-145276914D01*
X147026190Y-145324533D01*
X147073809Y-145372152D01*
X147121428Y-145467390D01*
X147121428Y-145753104D01*
X147073809Y-145848342D01*
X147026190Y-145895961D01*
X146930952Y-145943580D01*
X146740476Y-145943580D01*
X146645238Y-145895961D01*
X147692857Y-145943580D02*
X147597619Y-145895961D01*
X147550000Y-145800723D01*
X147550000Y-144943580D01*
X148454761Y-145895961D02*
X148359523Y-145943580D01*
X148169047Y-145943580D01*
X148073809Y-145895961D01*
X148026190Y-145800723D01*
X148026190Y-145419771D01*
X148073809Y-145324533D01*
X148169047Y-145276914D01*
X148359523Y-145276914D01*
X148454761Y-145324533D01*
X148502380Y-145419771D01*
X148502380Y-145515009D01*
X148026190Y-145610247D01*
X149645238Y-145895961D02*
X149740476Y-145943580D01*
X149930952Y-145943580D01*
X150026190Y-145895961D01*
X150073809Y-145800723D01*
X150073809Y-145753104D01*
X150026190Y-145657866D01*
X149930952Y-145610247D01*
X149788095Y-145610247D01*
X149692857Y-145562628D01*
X149645238Y-145467390D01*
X149645238Y-145419771D01*
X149692857Y-145324533D01*
X149788095Y-145276914D01*
X149930952Y-145276914D01*
X150026190Y-145324533D01*
X150407142Y-145276914D02*
X150597619Y-145943580D01*
X150788095Y-145467390D01*
X150978571Y-145943580D01*
X151169047Y-145276914D01*
X151550000Y-145943580D02*
X151550000Y-145276914D01*
X151550000Y-144943580D02*
X151502380Y-144991200D01*
X151550000Y-145038819D01*
X151597619Y-144991200D01*
X151550000Y-144943580D01*
X151550000Y-145038819D01*
X151883333Y-145276914D02*
X152264285Y-145276914D01*
X152026190Y-144943580D02*
X152026190Y-145800723D01*
X152073809Y-145895961D01*
X152169047Y-145943580D01*
X152264285Y-145943580D01*
X153026190Y-145895961D02*
X152930952Y-145943580D01*
X152740476Y-145943580D01*
X152645238Y-145895961D01*
X152597619Y-145848342D01*
X152550000Y-145753104D01*
X152550000Y-145467390D01*
X152597619Y-145372152D01*
X152645238Y-145324533D01*
X152740476Y-145276914D01*
X152930952Y-145276914D01*
X153026190Y-145324533D01*
X153454761Y-145943580D02*
X153454761Y-144943580D01*
X153883333Y-145943580D02*
X153883333Y-145419771D01*
X153835714Y-145324533D01*
X153740476Y-145276914D01*
X153597619Y-145276914D01*
X153502380Y-145324533D01*
X153454761Y-145372152D01*
%TO.C,Cam Reset*%
X171386904Y-145797542D02*
X171339285Y-145845161D01*
X171196428Y-145892780D01*
X171101190Y-145892780D01*
X170958333Y-145845161D01*
X170863095Y-145749923D01*
X170815476Y-145654685D01*
X170767857Y-145464209D01*
X170767857Y-145321352D01*
X170815476Y-145130876D01*
X170863095Y-145035638D01*
X170958333Y-144940400D01*
X171101190Y-144892780D01*
X171196428Y-144892780D01*
X171339285Y-144940400D01*
X171386904Y-144988019D01*
X172244047Y-145892780D02*
X172244047Y-145368971D01*
X172196428Y-145273733D01*
X172101190Y-145226114D01*
X171910714Y-145226114D01*
X171815476Y-145273733D01*
X172244047Y-145845161D02*
X172148809Y-145892780D01*
X171910714Y-145892780D01*
X171815476Y-145845161D01*
X171767857Y-145749923D01*
X171767857Y-145654685D01*
X171815476Y-145559447D01*
X171910714Y-145511828D01*
X172148809Y-145511828D01*
X172244047Y-145464209D01*
X172720238Y-145892780D02*
X172720238Y-145226114D01*
X172720238Y-145321352D02*
X172767857Y-145273733D01*
X172863095Y-145226114D01*
X173005952Y-145226114D01*
X173101190Y-145273733D01*
X173148809Y-145368971D01*
X173148809Y-145892780D01*
X173148809Y-145368971D02*
X173196428Y-145273733D01*
X173291666Y-145226114D01*
X173434523Y-145226114D01*
X173529761Y-145273733D01*
X173577380Y-145368971D01*
X173577380Y-145892780D01*
X175386904Y-145892780D02*
X175053571Y-145416590D01*
X174815476Y-145892780D02*
X174815476Y-144892780D01*
X175196428Y-144892780D01*
X175291666Y-144940400D01*
X175339285Y-144988019D01*
X175386904Y-145083257D01*
X175386904Y-145226114D01*
X175339285Y-145321352D01*
X175291666Y-145368971D01*
X175196428Y-145416590D01*
X174815476Y-145416590D01*
X176196428Y-145845161D02*
X176101190Y-145892780D01*
X175910714Y-145892780D01*
X175815476Y-145845161D01*
X175767857Y-145749923D01*
X175767857Y-145368971D01*
X175815476Y-145273733D01*
X175910714Y-145226114D01*
X176101190Y-145226114D01*
X176196428Y-145273733D01*
X176244047Y-145368971D01*
X176244047Y-145464209D01*
X175767857Y-145559447D01*
X176625000Y-145845161D02*
X176720238Y-145892780D01*
X176910714Y-145892780D01*
X177005952Y-145845161D01*
X177053571Y-145749923D01*
X177053571Y-145702304D01*
X177005952Y-145607066D01*
X176910714Y-145559447D01*
X176767857Y-145559447D01*
X176672619Y-145511828D01*
X176625000Y-145416590D01*
X176625000Y-145368971D01*
X176672619Y-145273733D01*
X176767857Y-145226114D01*
X176910714Y-145226114D01*
X177005952Y-145273733D01*
X177863095Y-145845161D02*
X177767857Y-145892780D01*
X177577380Y-145892780D01*
X177482142Y-145845161D01*
X177434523Y-145749923D01*
X177434523Y-145368971D01*
X177482142Y-145273733D01*
X177577380Y-145226114D01*
X177767857Y-145226114D01*
X177863095Y-145273733D01*
X177910714Y-145368971D01*
X177910714Y-145464209D01*
X177434523Y-145559447D01*
X178196428Y-145226114D02*
X178577380Y-145226114D01*
X178339285Y-144892780D02*
X178339285Y-145749923D01*
X178386904Y-145845161D01*
X178482142Y-145892780D01*
X178577380Y-145892780D01*
%TO.C,Gyro Reset*%
X159809276Y-144940400D02*
X159714038Y-144892780D01*
X159571180Y-144892780D01*
X159428323Y-144940400D01*
X159333085Y-145035638D01*
X159285466Y-145130876D01*
X159237847Y-145321352D01*
X159237847Y-145464209D01*
X159285466Y-145654685D01*
X159333085Y-145749923D01*
X159428323Y-145845161D01*
X159571180Y-145892780D01*
X159666419Y-145892780D01*
X159809276Y-145845161D01*
X159856895Y-145797542D01*
X159856895Y-145464209D01*
X159666419Y-145464209D01*
X160190228Y-145226114D02*
X160428323Y-145892780D01*
X160666419Y-145226114D02*
X160428323Y-145892780D01*
X160333085Y-146130876D01*
X160285466Y-146178495D01*
X160190228Y-146226114D01*
X161047371Y-145892780D02*
X161047371Y-145226114D01*
X161047371Y-145416590D02*
X161094990Y-145321352D01*
X161142609Y-145273733D01*
X161237847Y-145226114D01*
X161333085Y-145226114D01*
X161809276Y-145892780D02*
X161714038Y-145845161D01*
X161666419Y-145797542D01*
X161618800Y-145702304D01*
X161618800Y-145416590D01*
X161666419Y-145321352D01*
X161714038Y-145273733D01*
X161809276Y-145226114D01*
X161952133Y-145226114D01*
X162047371Y-145273733D01*
X162094990Y-145321352D01*
X162142609Y-145416590D01*
X162142609Y-145702304D01*
X162094990Y-145797542D01*
X162047371Y-145845161D01*
X161952133Y-145892780D01*
X161809276Y-145892780D01*
X163904514Y-145892780D02*
X163571180Y-145416590D01*
X163333085Y-145892780D02*
X163333085Y-144892780D01*
X163714038Y-144892780D01*
X163809276Y-144940400D01*
X163856895Y-144988019D01*
X163904514Y-145083257D01*
X163904514Y-145226114D01*
X163856895Y-145321352D01*
X163809276Y-145368971D01*
X163714038Y-145416590D01*
X163333085Y-145416590D01*
X164714038Y-145845161D02*
X164618800Y-145892780D01*
X164428323Y-145892780D01*
X164333085Y-145845161D01*
X164285466Y-145749923D01*
X164285466Y-145368971D01*
X164333085Y-145273733D01*
X164428323Y-145226114D01*
X164618800Y-145226114D01*
X164714038Y-145273733D01*
X164761657Y-145368971D01*
X164761657Y-145464209D01*
X164285466Y-145559447D01*
X165142609Y-145845161D02*
X165237847Y-145892780D01*
X165428323Y-145892780D01*
X165523561Y-145845161D01*
X165571180Y-145749923D01*
X165571180Y-145702304D01*
X165523561Y-145607066D01*
X165428323Y-145559447D01*
X165285466Y-145559447D01*
X165190228Y-145511828D01*
X165142609Y-145416590D01*
X165142609Y-145368971D01*
X165190228Y-145273733D01*
X165285466Y-145226114D01*
X165428323Y-145226114D01*
X165523561Y-145273733D01*
X166380704Y-145845161D02*
X166285466Y-145892780D01*
X166094990Y-145892780D01*
X165999752Y-145845161D01*
X165952133Y-145749923D01*
X165952133Y-145368971D01*
X165999752Y-145273733D01*
X166094990Y-145226114D01*
X166285466Y-145226114D01*
X166380704Y-145273733D01*
X166428323Y-145368971D01*
X166428323Y-145464209D01*
X165952133Y-145559447D01*
X166714038Y-145226114D02*
X167094990Y-145226114D01*
X166856895Y-144892780D02*
X166856895Y-145749923D01*
X166904514Y-145845161D01*
X166999752Y-145892780D01*
X167094990Y-145892780D01*
%TO.C,SW10*%
X151352476Y-141628761D02*
X151495333Y-141676380D01*
X151733428Y-141676380D01*
X151828666Y-141628761D01*
X151876285Y-141581142D01*
X151923904Y-141485904D01*
X151923904Y-141390666D01*
X151876285Y-141295428D01*
X151828666Y-141247809D01*
X151733428Y-141200190D01*
X151542952Y-141152571D01*
X151447714Y-141104952D01*
X151400095Y-141057333D01*
X151352476Y-140962095D01*
X151352476Y-140866857D01*
X151400095Y-140771619D01*
X151447714Y-140724000D01*
X151542952Y-140676380D01*
X151781047Y-140676380D01*
X151923904Y-140724000D01*
X152257238Y-140676380D02*
X152495333Y-141676380D01*
X152685809Y-140962095D01*
X152876285Y-141676380D01*
X153114380Y-140676380D01*
X154019142Y-141676380D02*
X153447714Y-141676380D01*
X153733428Y-141676380D02*
X153733428Y-140676380D01*
X153638190Y-140819238D01*
X153542952Y-140914476D01*
X153447714Y-140962095D01*
X154638190Y-140676380D02*
X154733428Y-140676380D01*
X154828666Y-140724000D01*
X154876285Y-140771619D01*
X154923904Y-140866857D01*
X154971523Y-141057333D01*
X154971523Y-141295428D01*
X154923904Y-141485904D01*
X154876285Y-141581142D01*
X154828666Y-141628761D01*
X154733428Y-141676380D01*
X154638190Y-141676380D01*
X154542952Y-141628761D01*
X154495333Y-141581142D01*
X154447714Y-141485904D01*
X154400095Y-141295428D01*
X154400095Y-141057333D01*
X154447714Y-140866857D01*
X154495333Y-140771619D01*
X154542952Y-140724000D01*
X154638190Y-140676380D01*
D11*
%TO.C,R3*%
X194216060Y-69211341D02*
X194433341Y-68994060D01*
X193678659Y-68673940D02*
X193895940Y-68456659D01*
%TO.C,C26*%
X129584564Y-106624800D02*
X129800236Y-106624800D01*
X129584564Y-107344800D02*
X129800236Y-107344800D01*
%TO.C,C13*%
X101071836Y-105686000D02*
X100856164Y-105686000D01*
X101071836Y-106406000D02*
X100856164Y-106406000D01*
D12*
%TO.C,D15*%
X191439000Y-77925000D02*
G75*
G03*
X191439000Y-77925000I-50000J0D01*
G01*
D11*
%TO.C,C32*%
X129800236Y-104084800D02*
X129584564Y-104084800D01*
X129800236Y-104804800D02*
X129584564Y-104804800D01*
%TO.C,R9*%
X122556000Y-76681359D02*
X122556000Y-76988641D01*
X123316000Y-76681359D02*
X123316000Y-76988641D01*
%TO.C,D7*%
X197181217Y-67061662D02*
X197994390Y-66248490D01*
X195908425Y-58010696D02*
X201070304Y-63172575D01*
X192019338Y-61899783D02*
X197181217Y-67061662D01*
%TO.C,R1*%
X161947159Y-136272000D02*
X162254441Y-136272000D01*
X161947159Y-137032000D02*
X162254441Y-137032000D01*
%TO.C,R14*%
X129538759Y-100760800D02*
X129846041Y-100760800D01*
X129538759Y-100000800D02*
X129846041Y-100000800D01*
%TO.C,C33*%
X129776836Y-112374000D02*
X129561164Y-112374000D01*
X129776836Y-111654000D02*
X129561164Y-111654000D01*
%TO.C,D20*%
X140763576Y-151495927D02*
X134019255Y-148702338D01*
X134019255Y-148702338D02*
X133579169Y-149764799D01*
X138658817Y-156577264D02*
X131914496Y-153783675D01*
%TO.C,C29*%
X152596964Y-137012000D02*
X152812636Y-137012000D01*
X152596964Y-136292000D02*
X152812636Y-136292000D01*
%TO.C,C6*%
X114195757Y-138089947D02*
X114043254Y-138242450D01*
X114704874Y-138599064D02*
X114552371Y-138751567D01*
%TO.C,D8*%
X180940745Y-148702338D02*
X174196424Y-151495927D01*
X183045504Y-153783675D02*
X176301183Y-156577264D01*
X174196424Y-151495927D02*
X174636510Y-152558388D01*
%TO.C,C14*%
X208031087Y-76240483D02*
X208230342Y-76157949D01*
X207755554Y-75575289D02*
X207954809Y-75492755D01*
%TO.C,C10*%
X106928914Y-126961517D02*
X106729659Y-127044051D01*
X107204447Y-127626711D02*
X107005192Y-127709245D01*
%TO.C,U2*%
X183367341Y-71257348D02*
X182854689Y-71770000D01*
X187960000Y-76875311D02*
X187447348Y-76362659D01*
X188472652Y-76362659D02*
X187960000Y-76875311D01*
X187960000Y-66664689D02*
X188472652Y-67177341D01*
X182854689Y-71770000D02*
X183367341Y-72282652D01*
X187447348Y-67177341D02*
X187960000Y-66664689D01*
X192552659Y-72282652D02*
X193065311Y-71770000D01*
%TO.C,C3*%
X164052964Y-136292000D02*
X164268636Y-136292000D01*
X164052964Y-137012000D02*
X164268636Y-137012000D01*
%TO.C,programmable switch*%
X138010000Y-144256000D02*
X142510000Y-144256000D01*
X143760000Y-141756000D02*
X143760000Y-140256000D01*
X136760000Y-140256000D02*
X136760000Y-141756000D01*
X142510000Y-137756000D02*
X138010000Y-137756000D01*
%TO.C,D12*%
X107584149Y-84884194D02*
X110377738Y-78139873D01*
X110377738Y-78139873D02*
X109315277Y-77699787D01*
X102502812Y-82779435D02*
X105296401Y-76035114D01*
%TO.C,R4*%
X196089000Y-76679359D02*
X196089000Y-76986641D01*
X196849000Y-76679359D02*
X196849000Y-76986641D01*
%TO.C,D19*%
X215476000Y-97951000D02*
X215476000Y-105251000D01*
X209976000Y-105251000D02*
X211126000Y-105251000D01*
X209976000Y-97951000D02*
X209976000Y-105251000D01*
%TO.C,D5*%
X201070304Y-140029425D02*
X195908425Y-145191304D01*
X192019338Y-141302217D02*
X192832510Y-142115390D01*
X197181217Y-136140338D02*
X192019338Y-141302217D01*
%TO.C,C21*%
X114704874Y-64602936D02*
X114552371Y-64450433D01*
X114195757Y-65112053D02*
X114043254Y-64959550D01*
%TO.C,C20*%
X140332772Y-155554143D02*
X140250238Y-155753398D01*
X139667578Y-155278610D02*
X139585044Y-155477865D01*
%TO.C,R19*%
X139059159Y-136272000D02*
X139366441Y-136272000D01*
X139059159Y-137032000D02*
X139366441Y-137032000D01*
%TO.C,Y2*%
X131020761Y-65785000D02*
X135020761Y-65785000D01*
X131020761Y-62485000D02*
X131020761Y-65785000D01*
%TO.C,C5*%
X211157610Y-119413422D02*
X211356865Y-119495956D01*
X211433143Y-118748228D02*
X211632398Y-118830762D01*
D12*
%TO.C,D13*%
X195503000Y-77925000D02*
G75*
G03*
X195503000Y-77925000I-50000J0D01*
G01*
%TO.C,D18*%
X124002000Y-77925000D02*
G75*
G03*
X124002000Y-77925000I-50000J0D01*
G01*
D11*
%TO.C,C18*%
X136123000Y-63265164D02*
X136123000Y-63480836D01*
X135403000Y-63265164D02*
X135403000Y-63480836D01*
%TO.C,C4*%
X153395000Y-45192836D02*
X153395000Y-44977164D01*
X152675000Y-45192836D02*
X152675000Y-44977164D01*
%TO.C,Cam Reset*%
X176875000Y-137720000D02*
X172375000Y-137720000D01*
X178125000Y-141720000D02*
X178125000Y-140220000D01*
X171125000Y-140220000D02*
X171125000Y-141720000D01*
X172375000Y-144220000D02*
X176875000Y-144220000D01*
%TO.C,R23*%
X129820641Y-116000800D02*
X129513359Y-116000800D01*
X129820641Y-115240800D02*
X129513359Y-115240800D01*
%TO.C,U5*%
X127350761Y-76845311D02*
X126838109Y-76332659D01*
X122245450Y-71740000D02*
X122758102Y-72252652D01*
X131943420Y-72252652D02*
X132456072Y-71740000D01*
X126838109Y-67147341D02*
X127350761Y-66634689D01*
X127350761Y-66634689D02*
X127863413Y-67147341D01*
X127863413Y-76332659D02*
X127350761Y-76845311D01*
X122758102Y-71227348D02*
X122245450Y-71740000D01*
%TO.C,D9*%
X104985000Y-105251000D02*
X104985000Y-97951000D01*
X104985000Y-97951000D02*
X103835000Y-97951000D01*
X99485000Y-105251000D02*
X99485000Y-97951000D01*
%TO.C,C24*%
X129828236Y-122372800D02*
X129612564Y-122372800D01*
X129828236Y-123092800D02*
X129612564Y-123092800D01*
%TO.C,C34*%
X129774836Y-114964800D02*
X129559164Y-114964800D01*
X129774836Y-114244800D02*
X129559164Y-114244800D01*
%TO.C,C9*%
X200764243Y-138089947D02*
X200916746Y-138242450D01*
X200255126Y-138599064D02*
X200407629Y-138751567D01*
%TO.C,C28*%
X129561164Y-109164800D02*
X129776836Y-109164800D01*
X129561164Y-109884800D02*
X129776836Y-109884800D01*
%TO.C,D11*%
X153830000Y-154095000D02*
X153830000Y-155245000D01*
X161130000Y-154095000D02*
X153830000Y-154095000D01*
X161130000Y-159595000D02*
X153830000Y-159595000D01*
%TO.C,C15*%
X161565000Y-158009164D02*
X161565000Y-158224836D01*
X162285000Y-158009164D02*
X162285000Y-158224836D01*
%TO.C,R2*%
X193454060Y-68449341D02*
X193671341Y-68232060D01*
X192916659Y-67911940D02*
X193133940Y-67694659D01*
%TO.C,D22*%
X134018490Y-54497814D02*
X140762811Y-51704225D01*
X140762811Y-51704225D02*
X140322725Y-50641764D01*
X131913731Y-49416477D02*
X138658052Y-46622888D01*
%TO.C,R18*%
X150519159Y-137032000D02*
X150826441Y-137032000D01*
X150519159Y-136272000D02*
X150826441Y-136272000D01*
%TO.C,R10*%
X122669316Y-68596717D02*
X122452035Y-68379436D01*
X123206717Y-68059316D02*
X122989436Y-67842035D01*
%TO.C,Y1*%
X180200000Y-65785000D02*
X184200000Y-65785000D01*
X180200000Y-62485000D02*
X180200000Y-65785000D01*
%TO.C,C17*%
X130662000Y-63480836D02*
X130662000Y-63265164D01*
X129942000Y-63480836D02*
X129942000Y-63265164D01*
D12*
%TO.C,D16*%
X119938000Y-77925000D02*
G75*
G03*
X119938000Y-77925000I-50000J0D01*
G01*
D11*
%TO.C,R20*%
X129846041Y-103300800D02*
X129538759Y-103300800D01*
X129846041Y-102540800D02*
X129538759Y-102540800D01*
%TO.C,R17*%
X129513359Y-110160800D02*
X129820641Y-110160800D01*
X129513359Y-110920800D02*
X129820641Y-110920800D01*
%TO.C,C2*%
X185322800Y-63519164D02*
X185322800Y-63734836D01*
X184602800Y-63519164D02*
X184602800Y-63734836D01*
%TO.C,C7*%
X192837307Y-67513810D02*
X192989810Y-67361307D01*
X192328190Y-67004693D02*
X192480693Y-66852190D01*
%TO.C,C31*%
X129800236Y-101544800D02*
X129584564Y-101544800D01*
X129800236Y-102264800D02*
X129584564Y-102264800D01*
%TO.C,R11*%
X121907316Y-69358717D02*
X121690035Y-69141436D01*
X122444717Y-68821316D02*
X122227436Y-68604035D01*
%TO.C,D4*%
X174197189Y-51704225D02*
X180941510Y-54497814D01*
X176301948Y-46622888D02*
X183046269Y-49416477D01*
X180941510Y-54497814D02*
X181381596Y-53435353D01*
%TO.C,R15*%
X129538759Y-108380800D02*
X129846041Y-108380800D01*
X129538759Y-107620800D02*
X129846041Y-107620800D01*
%TO.C,R7*%
X118492000Y-76681359D02*
X118492000Y-76988641D01*
X119252000Y-76681359D02*
X119252000Y-76988641D01*
%TO.C,C19*%
X213888164Y-96796000D02*
X214103836Y-96796000D01*
X213888164Y-97516000D02*
X214103836Y-97516000D01*
%TO.C,R12*%
X175260000Y-130651000D02*
X175260000Y-133191000D01*
X175260000Y-131921000D02*
X175260000Y-130651000D01*
X173990000Y-131921000D02*
X176530000Y-131921000D01*
X172720000Y-129381000D02*
X177800000Y-129381000D01*
X177800000Y-129381000D02*
X177800000Y-134461000D01*
X177800000Y-134461000D02*
X172720000Y-134461000D01*
X172720000Y-134461000D02*
X172720000Y-129381000D01*
X176530000Y-131921000D02*
G75*
G03*
X176530000Y-131921000I-1270000J0D01*
G01*
%TO.C,R6*%
X192025000Y-76679359D02*
X192025000Y-76986641D01*
X192785000Y-76679359D02*
X192785000Y-76986641D01*
%TO.C,R21*%
X129846041Y-105840800D02*
X129538759Y-105840800D01*
X129846041Y-105080800D02*
X129538759Y-105080800D01*
%TO.C,R5*%
X194817000Y-76681359D02*
X194817000Y-76988641D01*
X194057000Y-76681359D02*
X194057000Y-76988641D01*
%TO.C,D6*%
X110377738Y-125062127D02*
X107584149Y-118317806D01*
X107584149Y-118317806D02*
X106521688Y-118757892D01*
X105296401Y-127166886D02*
X102502812Y-120422565D01*
%TO.C,R22*%
X129822641Y-112650000D02*
X129515359Y-112650000D01*
X129822641Y-113410000D02*
X129515359Y-113410000D01*
D12*
%TO.C,D14*%
X193471000Y-77925000D02*
G75*
G03*
X193471000Y-77925000I-50000J0D01*
G01*
D11*
%TO.C,D2*%
X207376775Y-118318189D02*
X204583186Y-125062510D01*
X212458112Y-120422948D02*
X209664523Y-127167269D01*
X204583186Y-125062510D02*
X205645647Y-125502596D01*
%TO.C,C16*%
X103526857Y-84453772D02*
X103327602Y-84371238D01*
X103802390Y-83788578D02*
X103603135Y-83706044D01*
%TO.C,D21*%
X122940662Y-61899783D02*
X122127490Y-61086610D01*
X117778783Y-67061662D02*
X122940662Y-61899783D01*
X113889696Y-63172575D02*
X119051575Y-58010696D01*
%TO.C,C1*%
X179811000Y-63734836D02*
X179811000Y-63519164D01*
X179091000Y-63734836D02*
X179091000Y-63519164D01*
%TO.C,R13*%
X138430000Y-131921000D02*
X140970000Y-131921000D01*
X139700000Y-131921000D02*
X139700000Y-130651000D01*
X139700000Y-130651000D02*
X139700000Y-133191000D01*
X137160000Y-129381000D02*
X142240000Y-129381000D01*
X142240000Y-129381000D02*
X142240000Y-134461000D01*
X142240000Y-134461000D02*
X137160000Y-134461000D01*
X137160000Y-134461000D02*
X137160000Y-129381000D01*
X140970000Y-131921000D02*
G75*
G03*
X140970000Y-131921000I-1270000J0D01*
G01*
%TO.C,Gyro Reset*%
X165370000Y-137720000D02*
X160870000Y-137720000D01*
X166620000Y-141720000D02*
X166620000Y-140220000D01*
X159620000Y-140220000D02*
X159620000Y-141720000D01*
X160870000Y-144220000D02*
X165370000Y-144220000D01*
%TO.C,C30*%
X141138964Y-137012000D02*
X141354636Y-137012000D01*
X141138964Y-136292000D02*
X141354636Y-136292000D01*
%TO.C,C25*%
X129584564Y-99724800D02*
X129800236Y-99724800D01*
X129584564Y-99004800D02*
X129800236Y-99004800D01*
%TO.C,C27*%
X129584564Y-96464800D02*
X129800236Y-96464800D01*
X129584564Y-97184800D02*
X129800236Y-97184800D01*
%TO.C,SW10*%
X153940000Y-137720000D02*
X149440000Y-137720000D01*
X148190000Y-140220000D02*
X148190000Y-141720000D01*
X149440000Y-144220000D02*
X153940000Y-144220000D01*
X155190000Y-141720000D02*
X155190000Y-140220000D01*
%TO.C,D1*%
X153830000Y-43605000D02*
X161130000Y-43605000D01*
X161130000Y-49105000D02*
X161130000Y-47955000D01*
X153830000Y-49105000D02*
X161130000Y-49105000D01*
%TO.C,C12*%
X182840517Y-152152086D02*
X182923051Y-152351341D01*
X183505711Y-151876553D02*
X183588245Y-152075808D01*
%TO.C,C11*%
X200764243Y-65112053D02*
X200916746Y-64959550D01*
X200255126Y-64602936D02*
X200407629Y-64450433D01*
%TO.C,R16*%
X129538759Y-98220800D02*
X129846041Y-98220800D01*
X129538759Y-97460800D02*
X129846041Y-97460800D01*
%TO.C,D10*%
X207376775Y-84883811D02*
X208439236Y-84443725D01*
X209664523Y-76034731D02*
X212458112Y-82779052D01*
X204583186Y-78139490D02*
X207376775Y-84883811D01*
%TO.C,C23*%
X132119483Y-51049914D02*
X132036949Y-50850659D01*
X131454289Y-51325447D02*
X131371755Y-51126192D01*
%TO.C,C22*%
X131918896Y-67726221D02*
X132071399Y-67573718D01*
X131409779Y-67217104D02*
X131562282Y-67064601D01*
D12*
%TO.C,D17*%
X121970000Y-77925000D02*
G75*
G03*
X121970000Y-77925000I-50000J0D01*
G01*
D11*
%TO.C,C8*%
X174627228Y-47647857D02*
X174709762Y-47448602D01*
X175292422Y-47923390D02*
X175374956Y-47724135D01*
%TO.C,R8*%
X121284000Y-76681359D02*
X121284000Y-76988641D01*
X120524000Y-76681359D02*
X120524000Y-76988641D01*
%TO.C,D3*%
X119052282Y-145190597D02*
X113890403Y-140028718D01*
X122941369Y-141301510D02*
X117779490Y-136139631D01*
X117779490Y-136139631D02*
X116966317Y-136952803D01*
%TD*%
M02*
