%FSLAX45Y45*%
G04 Gerber Fmt 4.5, Leading zero omitted, Abs format (unit mm)*
G04 Created by KiCad (PCBNEW (6.0.5)) date 2022-10-16 22:53:59*
%MOMM*%
%LPD*%
G01*
G04 APERTURE LIST*
%TA.AperFunction,Profile*%
%ADD10C,0.200000*%
%TD*%
%ADD11C,0.200000*%
G04 APERTURE END LIST*
D10*
X12423000Y-5628811D02*
G75*
G03*
X12423000Y-5628811I-175000J0D01*
G01*
X15873000Y-8210000D02*
G75*
G03*
X15873000Y-8210000I-125000J0D01*
G01*
X17561750Y-9185000D02*
G75*
G03*
X17561750Y-9185000I-125000J0D01*
G01*
X12423000Y-14678811D02*
G75*
G03*
X12423000Y-14678811I-175000J0D01*
G01*
X19423000Y-14678811D02*
G75*
G03*
X19423000Y-14678811I-175000J0D01*
G01*
X17561750Y-11135000D02*
G75*
G03*
X17561750Y-11135000I-125000J0D01*
G01*
X14184250Y-9185000D02*
G75*
G03*
X14184250Y-9185000I-125000J0D01*
G01*
X17298000Y-10160000D02*
G75*
G03*
X17298000Y-10160000I-1550000J0D01*
G01*
X21748000Y-10160000D02*
G75*
G03*
X21748000Y-10160000I-6000000J0D01*
G01*
X14184250Y-11135000D02*
G75*
G03*
X14184250Y-11135000I-125000J0D01*
G01*
X19423000Y-5628811D02*
G75*
G03*
X19423000Y-5628811I-175000J0D01*
G01*
X15873000Y-12110000D02*
G75*
G03*
X15873000Y-12110000I-125000J0D01*
G01*
D11*
X9995619Y-16480476D02*
X9995619Y-16280476D01*
X10043238Y-16280476D01*
X10071810Y-16290000D01*
X10090857Y-16309048D01*
X10100381Y-16328095D01*
X10109905Y-16366190D01*
X10109905Y-16394762D01*
X10100381Y-16432857D01*
X10090857Y-16451905D01*
X10071810Y-16470952D01*
X10043238Y-16480476D01*
X9995619Y-16480476D01*
X10195619Y-16480476D02*
X10195619Y-16347143D01*
X10195619Y-16385238D02*
X10205143Y-16366190D01*
X10214667Y-16356667D01*
X10233714Y-16347143D01*
X10252762Y-16347143D01*
X10319429Y-16480476D02*
X10319429Y-16347143D01*
X10319429Y-16280476D02*
X10309905Y-16290000D01*
X10319429Y-16299524D01*
X10328952Y-16290000D01*
X10319429Y-16280476D01*
X10319429Y-16299524D01*
X10443238Y-16480476D02*
X10424190Y-16470952D01*
X10414667Y-16451905D01*
X10414667Y-16280476D01*
X10548000Y-16480476D02*
X10528952Y-16470952D01*
X10519429Y-16451905D01*
X10519429Y-16280476D01*
X10776571Y-16480476D02*
X10776571Y-16280476D01*
X10843238Y-16423333D01*
X10909905Y-16280476D01*
X10909905Y-16480476D01*
X11090857Y-16480476D02*
X11090857Y-16375714D01*
X11081333Y-16356667D01*
X11062286Y-16347143D01*
X11024190Y-16347143D01*
X11005143Y-16356667D01*
X11090857Y-16470952D02*
X11071810Y-16480476D01*
X11024190Y-16480476D01*
X11005143Y-16470952D01*
X10995619Y-16451905D01*
X10995619Y-16432857D01*
X11005143Y-16413809D01*
X11024190Y-16404286D01*
X11071810Y-16404286D01*
X11090857Y-16394762D01*
X11186095Y-16347143D02*
X11186095Y-16547143D01*
X11186095Y-16356667D02*
X11205143Y-16347143D01*
X11243238Y-16347143D01*
X11262286Y-16356667D01*
X11271809Y-16366190D01*
X11281333Y-16385238D01*
X11281333Y-16442381D01*
X11271809Y-16461428D01*
X11262286Y-16470952D01*
X11243238Y-16480476D01*
X11205143Y-16480476D01*
X11186095Y-16470952D01*
X11367048Y-16461428D02*
X11376571Y-16470952D01*
X11367048Y-16480476D01*
X11357524Y-16470952D01*
X11367048Y-16461428D01*
X11367048Y-16480476D01*
X11367048Y-16356667D02*
X11376571Y-16366190D01*
X11367048Y-16375714D01*
X11357524Y-16366190D01*
X11367048Y-16356667D01*
X11367048Y-16375714D01*
M02*
