%TF.GenerationSoftware,KiCad,Pcbnew,(6.0.5)*%
%TF.CreationDate,2022-10-16T22:52:23+09:00*%
%TF.ProjectId,main_board_Teensy,6d61696e-5f62-46f6-9172-645f5465656e,rev?*%
%TF.SameCoordinates,Original*%
%TF.FileFunction,Legend,Bot*%
%TF.FilePolarity,Positive*%
%FSLAX46Y46*%
G04 Gerber Fmt 4.6, Leading zero omitted, Abs format (unit mm)*
G04 Created by KiCad (PCBNEW (6.0.5)) date 2022-10-16 22:52:23*
%MOMM*%
%LPD*%
G01*
G04 APERTURE LIST*
%ADD10C,0.150000*%
%ADD11C,0.200000*%
%ADD12C,0.120000*%
%ADD13C,0.100000*%
%ADD14C,0.010000*%
G04 APERTURE END LIST*
D10*
X196423809Y-115931904D02*
X196804761Y-115931904D01*
X196804761Y-115131904D01*
X196042857Y-115931904D02*
X196119047Y-115893809D01*
X196157142Y-115855714D01*
X196195238Y-115779523D01*
X196195238Y-115550952D01*
X196157142Y-115474761D01*
X196119047Y-115436666D01*
X196042857Y-115398571D01*
X195928571Y-115398571D01*
X195852380Y-115436666D01*
X195814285Y-115474761D01*
X195776190Y-115550952D01*
X195776190Y-115779523D01*
X195814285Y-115855714D01*
X195852380Y-115893809D01*
X195928571Y-115931904D01*
X196042857Y-115931904D01*
X195090476Y-115398571D02*
X195090476Y-116046190D01*
X195128571Y-116122380D01*
X195166666Y-116160476D01*
X195242857Y-116198571D01*
X195357142Y-116198571D01*
X195433333Y-116160476D01*
X195090476Y-115893809D02*
X195166666Y-115931904D01*
X195319047Y-115931904D01*
X195395238Y-115893809D01*
X195433333Y-115855714D01*
X195471428Y-115779523D01*
X195471428Y-115550952D01*
X195433333Y-115474761D01*
X195395238Y-115436666D01*
X195319047Y-115398571D01*
X195166666Y-115398571D01*
X195090476Y-115436666D01*
X194709523Y-115931904D02*
X194709523Y-115398571D01*
X194709523Y-115131904D02*
X194747619Y-115170000D01*
X194709523Y-115208095D01*
X194671428Y-115170000D01*
X194709523Y-115131904D01*
X194709523Y-115208095D01*
X193985714Y-115893809D02*
X194061904Y-115931904D01*
X194214285Y-115931904D01*
X194290476Y-115893809D01*
X194328571Y-115855714D01*
X194366666Y-115779523D01*
X194366666Y-115550952D01*
X194328571Y-115474761D01*
X194290476Y-115436666D01*
X194214285Y-115398571D01*
X194061904Y-115398571D01*
X193985714Y-115436666D01*
X192652380Y-115931904D02*
X193033333Y-115931904D01*
X193033333Y-115131904D01*
X192080952Y-115893809D02*
X192157142Y-115931904D01*
X192309523Y-115931904D01*
X192385714Y-115893809D01*
X192423809Y-115817619D01*
X192423809Y-115512857D01*
X192385714Y-115436666D01*
X192309523Y-115398571D01*
X192157142Y-115398571D01*
X192080952Y-115436666D01*
X192042857Y-115512857D01*
X192042857Y-115589047D01*
X192423809Y-115665238D01*
X191776190Y-115398571D02*
X191585714Y-115931904D01*
X191395238Y-115398571D01*
X190785714Y-115893809D02*
X190861904Y-115931904D01*
X191014285Y-115931904D01*
X191090476Y-115893809D01*
X191128571Y-115817619D01*
X191128571Y-115512857D01*
X191090476Y-115436666D01*
X191014285Y-115398571D01*
X190861904Y-115398571D01*
X190785714Y-115436666D01*
X190747619Y-115512857D01*
X190747619Y-115589047D01*
X191128571Y-115665238D01*
X190290476Y-115931904D02*
X190366666Y-115893809D01*
X190404761Y-115817619D01*
X190404761Y-115131904D01*
X189033333Y-115893809D02*
X189109523Y-115931904D01*
X189261904Y-115931904D01*
X189338095Y-115893809D01*
X189376190Y-115855714D01*
X189414285Y-115779523D01*
X189414285Y-115550952D01*
X189376190Y-115474761D01*
X189338095Y-115436666D01*
X189261904Y-115398571D01*
X189109523Y-115398571D01*
X189033333Y-115436666D01*
X188576190Y-115931904D02*
X188652380Y-115893809D01*
X188690476Y-115855714D01*
X188728571Y-115779523D01*
X188728571Y-115550952D01*
X188690476Y-115474761D01*
X188652380Y-115436666D01*
X188576190Y-115398571D01*
X188461904Y-115398571D01*
X188385714Y-115436666D01*
X188347619Y-115474761D01*
X188309523Y-115550952D01*
X188309523Y-115779523D01*
X188347619Y-115855714D01*
X188385714Y-115893809D01*
X188461904Y-115931904D01*
X188576190Y-115931904D01*
X187966666Y-115398571D02*
X187966666Y-115931904D01*
X187966666Y-115474761D02*
X187928571Y-115436666D01*
X187852380Y-115398571D01*
X187738095Y-115398571D01*
X187661904Y-115436666D01*
X187623809Y-115512857D01*
X187623809Y-115931904D01*
X187319047Y-115398571D02*
X187128571Y-115931904D01*
X186938095Y-115398571D01*
X186328571Y-115893809D02*
X186404761Y-115931904D01*
X186557142Y-115931904D01*
X186633333Y-115893809D01*
X186671428Y-115817619D01*
X186671428Y-115512857D01*
X186633333Y-115436666D01*
X186557142Y-115398571D01*
X186404761Y-115398571D01*
X186328571Y-115436666D01*
X186290476Y-115512857D01*
X186290476Y-115589047D01*
X186671428Y-115665238D01*
X185947619Y-115931904D02*
X185947619Y-115398571D01*
X185947619Y-115550952D02*
X185909523Y-115474761D01*
X185871428Y-115436666D01*
X185795238Y-115398571D01*
X185719047Y-115398571D01*
X185566666Y-115398571D02*
X185261904Y-115398571D01*
X185452380Y-115131904D02*
X185452380Y-115817619D01*
X185414285Y-115893809D01*
X185338095Y-115931904D01*
X185261904Y-115931904D01*
X184690476Y-115893809D02*
X184766666Y-115931904D01*
X184919047Y-115931904D01*
X184995238Y-115893809D01*
X185033333Y-115817619D01*
X185033333Y-115512857D01*
X184995238Y-115436666D01*
X184919047Y-115398571D01*
X184766666Y-115398571D01*
X184690476Y-115436666D01*
X184652380Y-115512857D01*
X184652380Y-115589047D01*
X185033333Y-115665238D01*
X184309523Y-115931904D02*
X184309523Y-115398571D01*
X184309523Y-115550952D02*
X184271428Y-115474761D01*
X184233333Y-115436666D01*
X184157142Y-115398571D01*
X184080952Y-115398571D01*
X160946666Y-78301904D02*
X160794285Y-78301904D01*
X160718095Y-78340000D01*
X160641904Y-78416190D01*
X160603809Y-78568571D01*
X160603809Y-78835238D01*
X160641904Y-78987619D01*
X160718095Y-79063809D01*
X160794285Y-79101904D01*
X160946666Y-79101904D01*
X161022857Y-79063809D01*
X161099047Y-78987619D01*
X161137142Y-78835238D01*
X161137142Y-78568571D01*
X161099047Y-78416190D01*
X161022857Y-78340000D01*
X160946666Y-78301904D01*
X160260952Y-79101904D02*
X160260952Y-78301904D01*
X159956190Y-78301904D01*
X159880000Y-78340000D01*
X159841904Y-78378095D01*
X159803809Y-78454285D01*
X159803809Y-78568571D01*
X159841904Y-78644761D01*
X159880000Y-78682857D01*
X159956190Y-78720952D01*
X160260952Y-78720952D01*
X159460952Y-78682857D02*
X159194285Y-78682857D01*
X159080000Y-79101904D02*
X159460952Y-79101904D01*
X159460952Y-78301904D01*
X159080000Y-78301904D01*
X158737142Y-79101904D02*
X158737142Y-78301904D01*
X158280000Y-79101904D01*
X158280000Y-78301904D01*
X157289523Y-79101904D02*
X157289523Y-78301904D01*
X157022857Y-78873333D01*
X156756190Y-78301904D01*
X156756190Y-79101904D01*
X156489523Y-78301904D02*
X156222857Y-79101904D01*
X155956190Y-78301904D01*
X155080000Y-79101904D02*
X155080000Y-78301904D01*
X155080000Y-78682857D02*
X154622857Y-78682857D01*
X154622857Y-79101904D02*
X154622857Y-78301904D01*
X154318095Y-78301904D02*
X153784761Y-78301904D01*
X154127619Y-79101904D01*
X196423809Y-99421904D02*
X196804761Y-99421904D01*
X196804761Y-98621904D01*
X196042857Y-99421904D02*
X196119047Y-99383809D01*
X196157142Y-99345714D01*
X196195238Y-99269523D01*
X196195238Y-99040952D01*
X196157142Y-98964761D01*
X196119047Y-98926666D01*
X196042857Y-98888571D01*
X195928571Y-98888571D01*
X195852380Y-98926666D01*
X195814285Y-98964761D01*
X195776190Y-99040952D01*
X195776190Y-99269523D01*
X195814285Y-99345714D01*
X195852380Y-99383809D01*
X195928571Y-99421904D01*
X196042857Y-99421904D01*
X195090476Y-98888571D02*
X195090476Y-99536190D01*
X195128571Y-99612380D01*
X195166666Y-99650476D01*
X195242857Y-99688571D01*
X195357142Y-99688571D01*
X195433333Y-99650476D01*
X195090476Y-99383809D02*
X195166666Y-99421904D01*
X195319047Y-99421904D01*
X195395238Y-99383809D01*
X195433333Y-99345714D01*
X195471428Y-99269523D01*
X195471428Y-99040952D01*
X195433333Y-98964761D01*
X195395238Y-98926666D01*
X195319047Y-98888571D01*
X195166666Y-98888571D01*
X195090476Y-98926666D01*
X194709523Y-99421904D02*
X194709523Y-98888571D01*
X194709523Y-98621904D02*
X194747619Y-98660000D01*
X194709523Y-98698095D01*
X194671428Y-98660000D01*
X194709523Y-98621904D01*
X194709523Y-98698095D01*
X193985714Y-99383809D02*
X194061904Y-99421904D01*
X194214285Y-99421904D01*
X194290476Y-99383809D01*
X194328571Y-99345714D01*
X194366666Y-99269523D01*
X194366666Y-99040952D01*
X194328571Y-98964761D01*
X194290476Y-98926666D01*
X194214285Y-98888571D01*
X194061904Y-98888571D01*
X193985714Y-98926666D01*
X192652380Y-99421904D02*
X193033333Y-99421904D01*
X193033333Y-98621904D01*
X192080952Y-99383809D02*
X192157142Y-99421904D01*
X192309523Y-99421904D01*
X192385714Y-99383809D01*
X192423809Y-99307619D01*
X192423809Y-99002857D01*
X192385714Y-98926666D01*
X192309523Y-98888571D01*
X192157142Y-98888571D01*
X192080952Y-98926666D01*
X192042857Y-99002857D01*
X192042857Y-99079047D01*
X192423809Y-99155238D01*
X191776190Y-98888571D02*
X191585714Y-99421904D01*
X191395238Y-98888571D01*
X190785714Y-99383809D02*
X190861904Y-99421904D01*
X191014285Y-99421904D01*
X191090476Y-99383809D01*
X191128571Y-99307619D01*
X191128571Y-99002857D01*
X191090476Y-98926666D01*
X191014285Y-98888571D01*
X190861904Y-98888571D01*
X190785714Y-98926666D01*
X190747619Y-99002857D01*
X190747619Y-99079047D01*
X191128571Y-99155238D01*
X190290476Y-99421904D02*
X190366666Y-99383809D01*
X190404761Y-99307619D01*
X190404761Y-98621904D01*
X189033333Y-99383809D02*
X189109523Y-99421904D01*
X189261904Y-99421904D01*
X189338095Y-99383809D01*
X189376190Y-99345714D01*
X189414285Y-99269523D01*
X189414285Y-99040952D01*
X189376190Y-98964761D01*
X189338095Y-98926666D01*
X189261904Y-98888571D01*
X189109523Y-98888571D01*
X189033333Y-98926666D01*
X188576190Y-99421904D02*
X188652380Y-99383809D01*
X188690476Y-99345714D01*
X188728571Y-99269523D01*
X188728571Y-99040952D01*
X188690476Y-98964761D01*
X188652380Y-98926666D01*
X188576190Y-98888571D01*
X188461904Y-98888571D01*
X188385714Y-98926666D01*
X188347619Y-98964761D01*
X188309523Y-99040952D01*
X188309523Y-99269523D01*
X188347619Y-99345714D01*
X188385714Y-99383809D01*
X188461904Y-99421904D01*
X188576190Y-99421904D01*
X187966666Y-98888571D02*
X187966666Y-99421904D01*
X187966666Y-98964761D02*
X187928571Y-98926666D01*
X187852380Y-98888571D01*
X187738095Y-98888571D01*
X187661904Y-98926666D01*
X187623809Y-99002857D01*
X187623809Y-99421904D01*
X187319047Y-98888571D02*
X187128571Y-99421904D01*
X186938095Y-98888571D01*
X186328571Y-99383809D02*
X186404761Y-99421904D01*
X186557142Y-99421904D01*
X186633333Y-99383809D01*
X186671428Y-99307619D01*
X186671428Y-99002857D01*
X186633333Y-98926666D01*
X186557142Y-98888571D01*
X186404761Y-98888571D01*
X186328571Y-98926666D01*
X186290476Y-99002857D01*
X186290476Y-99079047D01*
X186671428Y-99155238D01*
X185947619Y-99421904D02*
X185947619Y-98888571D01*
X185947619Y-99040952D02*
X185909523Y-98964761D01*
X185871428Y-98926666D01*
X185795238Y-98888571D01*
X185719047Y-98888571D01*
X185566666Y-98888571D02*
X185261904Y-98888571D01*
X185452380Y-98621904D02*
X185452380Y-99307619D01*
X185414285Y-99383809D01*
X185338095Y-99421904D01*
X185261904Y-99421904D01*
X184690476Y-99383809D02*
X184766666Y-99421904D01*
X184919047Y-99421904D01*
X184995238Y-99383809D01*
X185033333Y-99307619D01*
X185033333Y-99002857D01*
X184995238Y-98926666D01*
X184919047Y-98888571D01*
X184766666Y-98888571D01*
X184690476Y-98926666D01*
X184652380Y-99002857D01*
X184652380Y-99079047D01*
X185033333Y-99155238D01*
X184309523Y-99421904D02*
X184309523Y-98888571D01*
X184309523Y-99040952D02*
X184271428Y-98964761D01*
X184233333Y-98926666D01*
X184157142Y-98888571D01*
X184080952Y-98888571D01*
D11*
X161630761Y-57008380D02*
X161630761Y-56008380D01*
X161297428Y-56722666D01*
X160964095Y-56008380D01*
X160964095Y-57008380D01*
X160059333Y-57008380D02*
X160059333Y-56484571D01*
X160106952Y-56389333D01*
X160202190Y-56341714D01*
X160392666Y-56341714D01*
X160487904Y-56389333D01*
X160059333Y-56960761D02*
X160154571Y-57008380D01*
X160392666Y-57008380D01*
X160487904Y-56960761D01*
X160535523Y-56865523D01*
X160535523Y-56770285D01*
X160487904Y-56675047D01*
X160392666Y-56627428D01*
X160154571Y-56627428D01*
X160059333Y-56579809D01*
X159583142Y-57008380D02*
X159583142Y-56341714D01*
X159583142Y-56008380D02*
X159630761Y-56056000D01*
X159583142Y-56103619D01*
X159535523Y-56056000D01*
X159583142Y-56008380D01*
X159583142Y-56103619D01*
X159106952Y-56341714D02*
X159106952Y-57008380D01*
X159106952Y-56436952D02*
X159059333Y-56389333D01*
X158964095Y-56341714D01*
X158821238Y-56341714D01*
X158726000Y-56389333D01*
X158678380Y-56484571D01*
X158678380Y-57008380D01*
X157106952Y-56484571D02*
X156964095Y-56532190D01*
X156916476Y-56579809D01*
X156868857Y-56675047D01*
X156868857Y-56817904D01*
X156916476Y-56913142D01*
X156964095Y-56960761D01*
X157059333Y-57008380D01*
X157440285Y-57008380D01*
X157440285Y-56008380D01*
X157106952Y-56008380D01*
X157011714Y-56056000D01*
X156964095Y-56103619D01*
X156916476Y-56198857D01*
X156916476Y-56294095D01*
X156964095Y-56389333D01*
X157011714Y-56436952D01*
X157106952Y-56484571D01*
X157440285Y-56484571D01*
X156297428Y-57008380D02*
X156392666Y-56960761D01*
X156440285Y-56913142D01*
X156487904Y-56817904D01*
X156487904Y-56532190D01*
X156440285Y-56436952D01*
X156392666Y-56389333D01*
X156297428Y-56341714D01*
X156154571Y-56341714D01*
X156059333Y-56389333D01*
X156011714Y-56436952D01*
X155964095Y-56532190D01*
X155964095Y-56817904D01*
X156011714Y-56913142D01*
X156059333Y-56960761D01*
X156154571Y-57008380D01*
X156297428Y-57008380D01*
X155106952Y-57008380D02*
X155106952Y-56484571D01*
X155154571Y-56389333D01*
X155249809Y-56341714D01*
X155440285Y-56341714D01*
X155535523Y-56389333D01*
X155106952Y-56960761D02*
X155202190Y-57008380D01*
X155440285Y-57008380D01*
X155535523Y-56960761D01*
X155583142Y-56865523D01*
X155583142Y-56770285D01*
X155535523Y-56675047D01*
X155440285Y-56627428D01*
X155202190Y-56627428D01*
X155106952Y-56579809D01*
X154630761Y-57008380D02*
X154630761Y-56341714D01*
X154630761Y-56532190D02*
X154583142Y-56436952D01*
X154535523Y-56389333D01*
X154440285Y-56341714D01*
X154345047Y-56341714D01*
X153583142Y-57008380D02*
X153583142Y-56008380D01*
X153583142Y-56960761D02*
X153678380Y-57008380D01*
X153868857Y-57008380D01*
X153964095Y-56960761D01*
X154011714Y-56913142D01*
X154059333Y-56817904D01*
X154059333Y-56532190D01*
X154011714Y-56436952D01*
X153964095Y-56389333D01*
X153868857Y-56341714D01*
X153678380Y-56341714D01*
X153583142Y-56389333D01*
X165726000Y-58618380D02*
X165726000Y-57618380D01*
X165345047Y-57618380D01*
X165249809Y-57666000D01*
X165202190Y-57713619D01*
X165154571Y-57808857D01*
X165154571Y-57951714D01*
X165202190Y-58046952D01*
X165249809Y-58094571D01*
X165345047Y-58142190D01*
X165726000Y-58142190D01*
X164583142Y-58618380D02*
X164678380Y-58570761D01*
X164726000Y-58523142D01*
X164773619Y-58427904D01*
X164773619Y-58142190D01*
X164726000Y-58046952D01*
X164678380Y-57999333D01*
X164583142Y-57951714D01*
X164440285Y-57951714D01*
X164345047Y-57999333D01*
X164297428Y-58046952D01*
X164249809Y-58142190D01*
X164249809Y-58427904D01*
X164297428Y-58523142D01*
X164345047Y-58570761D01*
X164440285Y-58618380D01*
X164583142Y-58618380D01*
X163916476Y-57951714D02*
X163726000Y-58618380D01*
X163535523Y-58142190D01*
X163345047Y-58618380D01*
X163154571Y-57951714D01*
X162392666Y-58570761D02*
X162487904Y-58618380D01*
X162678380Y-58618380D01*
X162773619Y-58570761D01*
X162821238Y-58475523D01*
X162821238Y-58094571D01*
X162773619Y-57999333D01*
X162678380Y-57951714D01*
X162487904Y-57951714D01*
X162392666Y-57999333D01*
X162345047Y-58094571D01*
X162345047Y-58189809D01*
X162821238Y-58285047D01*
X161916476Y-58618380D02*
X161916476Y-57951714D01*
X161916476Y-58142190D02*
X161868857Y-58046952D01*
X161821238Y-57999333D01*
X161726000Y-57951714D01*
X161630761Y-57951714D01*
X160916476Y-58570761D02*
X161011714Y-58618380D01*
X161202190Y-58618380D01*
X161297428Y-58570761D01*
X161345047Y-58475523D01*
X161345047Y-58094571D01*
X161297428Y-57999333D01*
X161202190Y-57951714D01*
X161011714Y-57951714D01*
X160916476Y-57999333D01*
X160868857Y-58094571D01*
X160868857Y-58189809D01*
X161345047Y-58285047D01*
X160011714Y-58618380D02*
X160011714Y-57618380D01*
X160011714Y-58570761D02*
X160106952Y-58618380D01*
X160297428Y-58618380D01*
X160392666Y-58570761D01*
X160440285Y-58523142D01*
X160487904Y-58427904D01*
X160487904Y-58142190D01*
X160440285Y-58046952D01*
X160392666Y-57999333D01*
X160297428Y-57951714D01*
X160106952Y-57951714D01*
X160011714Y-57999333D01*
X158773619Y-58618380D02*
X158773619Y-57618380D01*
X158773619Y-57999333D02*
X158678380Y-57951714D01*
X158487904Y-57951714D01*
X158392666Y-57999333D01*
X158345047Y-58046952D01*
X158297428Y-58142190D01*
X158297428Y-58427904D01*
X158345047Y-58523142D01*
X158392666Y-58570761D01*
X158487904Y-58618380D01*
X158678380Y-58618380D01*
X158773619Y-58570761D01*
X157964095Y-57951714D02*
X157726000Y-58618380D01*
X157487904Y-57951714D02*
X157726000Y-58618380D01*
X157821238Y-58856476D01*
X157868857Y-58904095D01*
X157964095Y-58951714D01*
X156487904Y-57618380D02*
X155916476Y-57618380D01*
X156202190Y-58618380D02*
X156202190Y-57618380D01*
X155202190Y-58570761D02*
X155297428Y-58618380D01*
X155487904Y-58618380D01*
X155583142Y-58570761D01*
X155630761Y-58475523D01*
X155630761Y-58094571D01*
X155583142Y-57999333D01*
X155487904Y-57951714D01*
X155297428Y-57951714D01*
X155202190Y-57999333D01*
X155154571Y-58094571D01*
X155154571Y-58189809D01*
X155630761Y-58285047D01*
X154345047Y-58570761D02*
X154440285Y-58618380D01*
X154630761Y-58618380D01*
X154726000Y-58570761D01*
X154773619Y-58475523D01*
X154773619Y-58094571D01*
X154726000Y-57999333D01*
X154630761Y-57951714D01*
X154440285Y-57951714D01*
X154345047Y-57999333D01*
X154297428Y-58094571D01*
X154297428Y-58189809D01*
X154773619Y-58285047D01*
X153868857Y-57951714D02*
X153868857Y-58618380D01*
X153868857Y-58046952D02*
X153821238Y-57999333D01*
X153726000Y-57951714D01*
X153583142Y-57951714D01*
X153487904Y-57999333D01*
X153440285Y-58094571D01*
X153440285Y-58618380D01*
X153011714Y-58570761D02*
X152916476Y-58618380D01*
X152726000Y-58618380D01*
X152630761Y-58570761D01*
X152583142Y-58475523D01*
X152583142Y-58427904D01*
X152630761Y-58332666D01*
X152726000Y-58285047D01*
X152868857Y-58285047D01*
X152964095Y-58237428D01*
X153011714Y-58142190D01*
X153011714Y-58094571D01*
X152964095Y-57999333D01*
X152868857Y-57951714D01*
X152726000Y-57951714D01*
X152630761Y-57999333D01*
X152249809Y-57951714D02*
X152011714Y-58618380D01*
X151773619Y-57951714D02*
X152011714Y-58618380D01*
X152106952Y-58856476D01*
X152154571Y-58904095D01*
X152249809Y-58951714D01*
X150202190Y-57951714D02*
X150202190Y-58618380D01*
X150440285Y-57570761D02*
X150678380Y-58285047D01*
X150059333Y-58285047D01*
X149678380Y-58523142D02*
X149630761Y-58570761D01*
X149678380Y-58618380D01*
X149726000Y-58570761D01*
X149678380Y-58523142D01*
X149678380Y-58618380D01*
X149011714Y-57618380D02*
X148916476Y-57618380D01*
X148821238Y-57666000D01*
X148773619Y-57713619D01*
X148726000Y-57808857D01*
X148678380Y-57999333D01*
X148678380Y-58237428D01*
X148726000Y-58427904D01*
X148773619Y-58523142D01*
X148821238Y-58570761D01*
X148916476Y-58618380D01*
X149011714Y-58618380D01*
X149106952Y-58570761D01*
X149154571Y-58523142D01*
X149202190Y-58427904D01*
X149249809Y-58237428D01*
X149249809Y-57999333D01*
X149202190Y-57808857D01*
X149154571Y-57713619D01*
X149106952Y-57666000D01*
X149011714Y-57618380D01*
X165297428Y-60180761D02*
X165154571Y-60228380D01*
X164916476Y-60228380D01*
X164821238Y-60180761D01*
X164773619Y-60133142D01*
X164726000Y-60037904D01*
X164726000Y-59942666D01*
X164773619Y-59847428D01*
X164821238Y-59799809D01*
X164916476Y-59752190D01*
X165106952Y-59704571D01*
X165202190Y-59656952D01*
X165249809Y-59609333D01*
X165297428Y-59514095D01*
X165297428Y-59418857D01*
X165249809Y-59323619D01*
X165202190Y-59276000D01*
X165106952Y-59228380D01*
X164868857Y-59228380D01*
X164726000Y-59276000D01*
X164297428Y-59561714D02*
X164297428Y-60561714D01*
X164297428Y-59609333D02*
X164202190Y-59561714D01*
X164011714Y-59561714D01*
X163916476Y-59609333D01*
X163868857Y-59656952D01*
X163821238Y-59752190D01*
X163821238Y-60037904D01*
X163868857Y-60133142D01*
X163916476Y-60180761D01*
X164011714Y-60228380D01*
X164202190Y-60228380D01*
X164297428Y-60180761D01*
X163249809Y-60228380D02*
X163345047Y-60180761D01*
X163392666Y-60133142D01*
X163440285Y-60037904D01*
X163440285Y-59752190D01*
X163392666Y-59656952D01*
X163345047Y-59609333D01*
X163249809Y-59561714D01*
X163106952Y-59561714D01*
X163011714Y-59609333D01*
X162964095Y-59656952D01*
X162916476Y-59752190D01*
X162916476Y-60037904D01*
X162964095Y-60133142D01*
X163011714Y-60180761D01*
X163106952Y-60228380D01*
X163249809Y-60228380D01*
X162487904Y-59561714D02*
X162487904Y-60228380D01*
X162487904Y-59656952D02*
X162440285Y-59609333D01*
X162345047Y-59561714D01*
X162202190Y-59561714D01*
X162106952Y-59609333D01*
X162059333Y-59704571D01*
X162059333Y-60228380D01*
X161630761Y-60180761D02*
X161535523Y-60228380D01*
X161345047Y-60228380D01*
X161249809Y-60180761D01*
X161202190Y-60085523D01*
X161202190Y-60037904D01*
X161249809Y-59942666D01*
X161345047Y-59895047D01*
X161487904Y-59895047D01*
X161583142Y-59847428D01*
X161630761Y-59752190D01*
X161630761Y-59704571D01*
X161583142Y-59609333D01*
X161487904Y-59561714D01*
X161345047Y-59561714D01*
X161249809Y-59609333D01*
X160630761Y-60228380D02*
X160726000Y-60180761D01*
X160773619Y-60133142D01*
X160821238Y-60037904D01*
X160821238Y-59752190D01*
X160773619Y-59656952D01*
X160726000Y-59609333D01*
X160630761Y-59561714D01*
X160487904Y-59561714D01*
X160392666Y-59609333D01*
X160345047Y-59656952D01*
X160297428Y-59752190D01*
X160297428Y-60037904D01*
X160345047Y-60133142D01*
X160392666Y-60180761D01*
X160487904Y-60228380D01*
X160630761Y-60228380D01*
X159868857Y-60228380D02*
X159868857Y-59561714D01*
X159868857Y-59752190D02*
X159821238Y-59656952D01*
X159773619Y-59609333D01*
X159678380Y-59561714D01*
X159583142Y-59561714D01*
X158868857Y-60180761D02*
X158964095Y-60228380D01*
X159154571Y-60228380D01*
X159249809Y-60180761D01*
X159297428Y-60085523D01*
X159297428Y-59704571D01*
X159249809Y-59609333D01*
X159154571Y-59561714D01*
X158964095Y-59561714D01*
X158868857Y-59609333D01*
X158821238Y-59704571D01*
X158821238Y-59799809D01*
X159297428Y-59895047D01*
X157964095Y-60228380D02*
X157964095Y-59228380D01*
X157964095Y-60180761D02*
X158059333Y-60228380D01*
X158249809Y-60228380D01*
X158345047Y-60180761D01*
X158392666Y-60133142D01*
X158440285Y-60037904D01*
X158440285Y-59752190D01*
X158392666Y-59656952D01*
X158345047Y-59609333D01*
X158249809Y-59561714D01*
X158059333Y-59561714D01*
X157964095Y-59609333D01*
X156726000Y-60228380D02*
X156726000Y-59228380D01*
X156726000Y-59609333D02*
X156630761Y-59561714D01*
X156440285Y-59561714D01*
X156345047Y-59609333D01*
X156297428Y-59656952D01*
X156249809Y-59752190D01*
X156249809Y-60037904D01*
X156297428Y-60133142D01*
X156345047Y-60180761D01*
X156440285Y-60228380D01*
X156630761Y-60228380D01*
X156726000Y-60180761D01*
X155916476Y-59561714D02*
X155678380Y-60228380D01*
X155440285Y-59561714D02*
X155678380Y-60228380D01*
X155773619Y-60466476D01*
X155821238Y-60514095D01*
X155916476Y-60561714D01*
X154011714Y-59228380D02*
X154011714Y-59942666D01*
X154059333Y-60085523D01*
X154154571Y-60180761D01*
X154297428Y-60228380D01*
X154392666Y-60228380D01*
X153059333Y-60228380D02*
X153535523Y-60228380D01*
X153535523Y-59228380D01*
X152154571Y-60133142D02*
X152202190Y-60180761D01*
X152345047Y-60228380D01*
X152440285Y-60228380D01*
X152583142Y-60180761D01*
X152678380Y-60085523D01*
X152726000Y-59990285D01*
X152773619Y-59799809D01*
X152773619Y-59656952D01*
X152726000Y-59466476D01*
X152678380Y-59371238D01*
X152583142Y-59276000D01*
X152440285Y-59228380D01*
X152345047Y-59228380D01*
X152202190Y-59276000D01*
X152154571Y-59323619D01*
X151726000Y-60228380D02*
X151726000Y-59228380D01*
X151345047Y-59228380D01*
X151249809Y-59276000D01*
X151202190Y-59323619D01*
X151154571Y-59418857D01*
X151154571Y-59561714D01*
X151202190Y-59656952D01*
X151249809Y-59704571D01*
X151345047Y-59752190D01*
X151726000Y-59752190D01*
X150154571Y-60133142D02*
X150202190Y-60180761D01*
X150345047Y-60228380D01*
X150440285Y-60228380D01*
X150583142Y-60180761D01*
X150678380Y-60085523D01*
X150726000Y-59990285D01*
X150773619Y-59799809D01*
X150773619Y-59656952D01*
X150726000Y-59466476D01*
X150678380Y-59371238D01*
X150583142Y-59276000D01*
X150440285Y-59228380D01*
X150345047Y-59228380D01*
X150202190Y-59276000D01*
X150154571Y-59323619D01*
X149392666Y-59704571D02*
X149249809Y-59752190D01*
X149202190Y-59799809D01*
X149154571Y-59895047D01*
X149154571Y-60037904D01*
X149202190Y-60133142D01*
X149249809Y-60180761D01*
X149345047Y-60228380D01*
X149726000Y-60228380D01*
X149726000Y-59228380D01*
X149392666Y-59228380D01*
X149297428Y-59276000D01*
X149249809Y-59323619D01*
X149202190Y-59418857D01*
X149202190Y-59514095D01*
X149249809Y-59609333D01*
X149297428Y-59656952D01*
X149392666Y-59704571D01*
X149726000Y-59704571D01*
D10*
%TO.C,U15*%
X177464286Y-146340267D02*
X177774077Y-147088169D01*
X177766529Y-147194381D01*
X177740757Y-147256598D01*
X177670992Y-147337039D01*
X177495015Y-147409931D01*
X177388803Y-147402382D01*
X177326586Y-147376611D01*
X177246146Y-147306846D01*
X176936354Y-146558943D01*
X176395158Y-147865506D02*
X176923090Y-147646830D01*
X176659124Y-147756168D02*
X176276440Y-146832288D01*
X176419098Y-146927825D01*
X176543533Y-146979368D01*
X176649744Y-146986916D01*
X175176584Y-147287864D02*
X175616527Y-147105634D01*
X175842751Y-147527353D01*
X175780534Y-147501582D01*
X175674322Y-147494034D01*
X175454351Y-147585149D01*
X175384585Y-147665589D01*
X175358814Y-147727807D01*
X175351266Y-147834018D01*
X175442381Y-148053990D01*
X175522821Y-148123755D01*
X175585039Y-148149526D01*
X175691250Y-148157074D01*
X175911221Y-148065959D01*
X175980987Y-147985519D01*
X176006758Y-147923302D01*
%TO.C,D23*%
X177052380Y-118165714D02*
X176052380Y-118165714D01*
X176052380Y-118403809D01*
X176100000Y-118546666D01*
X176195238Y-118641904D01*
X176290476Y-118689523D01*
X176480952Y-118737142D01*
X176623809Y-118737142D01*
X176814285Y-118689523D01*
X176909523Y-118641904D01*
X177004761Y-118546666D01*
X177052380Y-118403809D01*
X177052380Y-118165714D01*
X176147619Y-119118095D02*
X176100000Y-119165714D01*
X176052380Y-119260952D01*
X176052380Y-119499047D01*
X176100000Y-119594285D01*
X176147619Y-119641904D01*
X176242857Y-119689523D01*
X176338095Y-119689523D01*
X176480952Y-119641904D01*
X177052380Y-119070476D01*
X177052380Y-119689523D01*
X176052380Y-120022857D02*
X176052380Y-120641904D01*
X176433333Y-120308571D01*
X176433333Y-120451428D01*
X176480952Y-120546666D01*
X176528571Y-120594285D01*
X176623809Y-120641904D01*
X176861904Y-120641904D01*
X176957142Y-120594285D01*
X177004761Y-120546666D01*
X177052380Y-120451428D01*
X177052380Y-120165714D01*
X177004761Y-120070476D01*
X176957142Y-120022857D01*
X176982380Y-115308095D02*
X175982380Y-115308095D01*
X176982380Y-115879523D02*
X176410952Y-115450952D01*
X175982380Y-115879523D02*
X176553809Y-115308095D01*
%TO.C,BZ1*%
X127245952Y-137938571D02*
X127103095Y-137986190D01*
X127055476Y-138033809D01*
X127007857Y-138129047D01*
X127007857Y-138271904D01*
X127055476Y-138367142D01*
X127103095Y-138414761D01*
X127198333Y-138462380D01*
X127579285Y-138462380D01*
X127579285Y-137462380D01*
X127245952Y-137462380D01*
X127150714Y-137510000D01*
X127103095Y-137557619D01*
X127055476Y-137652857D01*
X127055476Y-137748095D01*
X127103095Y-137843333D01*
X127150714Y-137890952D01*
X127245952Y-137938571D01*
X127579285Y-137938571D01*
X126674523Y-137462380D02*
X126007857Y-137462380D01*
X126674523Y-138462380D01*
X126007857Y-138462380D01*
X125103095Y-138462380D02*
X125674523Y-138462380D01*
X125388809Y-138462380D02*
X125388809Y-137462380D01*
X125484047Y-137605238D01*
X125579285Y-137700476D01*
X125674523Y-137748095D01*
X122935952Y-133421428D02*
X122174047Y-133421428D01*
X122555000Y-133802380D02*
X122555000Y-133040476D01*
%TO.C,U10*%
X111792136Y-83903415D02*
X111044234Y-83593624D01*
X110974468Y-83513183D01*
X110948697Y-83450966D01*
X110941149Y-83344755D01*
X111014041Y-83168778D01*
X111094481Y-83099012D01*
X111156698Y-83073241D01*
X111262910Y-83065693D01*
X112010812Y-83375484D01*
X111469616Y-82068921D02*
X111250940Y-82596852D01*
X111360278Y-82332887D02*
X112284158Y-82715570D01*
X112115729Y-82748889D01*
X111991294Y-82800432D01*
X111910854Y-82870197D01*
X112630395Y-81879679D02*
X112666841Y-81791690D01*
X112659293Y-81685479D01*
X112633522Y-81623262D01*
X112563756Y-81542821D01*
X112406002Y-81425935D01*
X112186031Y-81334820D01*
X111991831Y-81305922D01*
X111885619Y-81313470D01*
X111823402Y-81339242D01*
X111742961Y-81409007D01*
X111706515Y-81496996D01*
X111714064Y-81603207D01*
X111739835Y-81665424D01*
X111809600Y-81745865D01*
X111967354Y-81862751D01*
X112187326Y-81953866D01*
X112381526Y-81982764D01*
X112487737Y-81975216D01*
X112549955Y-81949444D01*
X112630395Y-81879679D01*
%TO.C,J1*%
X170692380Y-133016666D02*
X171406666Y-133016666D01*
X171549523Y-132969047D01*
X171644761Y-132873809D01*
X171692380Y-132730952D01*
X171692380Y-132635714D01*
X171692380Y-134016666D02*
X171692380Y-133445238D01*
X171692380Y-133730952D02*
X170692380Y-133730952D01*
X170835238Y-133635714D01*
X170930476Y-133540476D01*
X170978095Y-133445238D01*
%TO.C,U9*%
X112557502Y-121144343D02*
X111809599Y-121454134D01*
X111703388Y-121446586D01*
X111641171Y-121420815D01*
X111560730Y-121351049D01*
X111487838Y-121175072D01*
X111495386Y-121068861D01*
X111521158Y-121006643D01*
X111590923Y-120926203D01*
X112338826Y-120616412D01*
X111214493Y-120515158D02*
X111141601Y-120339181D01*
X111149149Y-120232970D01*
X111174920Y-120170752D01*
X111270457Y-120028095D01*
X111428211Y-119911209D01*
X111780165Y-119765424D01*
X111886377Y-119772973D01*
X111948594Y-119798744D01*
X112029034Y-119868509D01*
X112101926Y-120044486D01*
X112094378Y-120150698D01*
X112068607Y-120212915D01*
X111998841Y-120293356D01*
X111778870Y-120384471D01*
X111672659Y-120376922D01*
X111610441Y-120351151D01*
X111530001Y-120281386D01*
X111457109Y-120105409D01*
X111464657Y-119999197D01*
X111490428Y-119936980D01*
X111560194Y-119856539D01*
%TO.C,U13*%
X202220267Y-81615713D02*
X202968169Y-81305922D01*
X203074381Y-81313470D01*
X203136598Y-81339242D01*
X203217039Y-81409007D01*
X203289931Y-81584984D01*
X203282382Y-81691196D01*
X203256611Y-81753413D01*
X203186846Y-81833853D01*
X202438943Y-82143645D01*
X203745506Y-82684841D02*
X203526830Y-82156909D01*
X203636168Y-82420875D02*
X202712288Y-82803559D01*
X202807825Y-82660901D01*
X202859368Y-82536466D01*
X202866916Y-82430255D01*
X202949188Y-83375484D02*
X203186087Y-83947409D01*
X203410480Y-83493665D01*
X203465149Y-83625648D01*
X203545589Y-83695414D01*
X203607807Y-83721185D01*
X203714018Y-83728733D01*
X203933990Y-83637618D01*
X204003755Y-83557178D01*
X204029526Y-83494960D01*
X204037074Y-83388749D01*
X203927736Y-83124783D01*
X203847296Y-83055018D01*
X203785079Y-83029247D01*
%TO.C,U7*%
X125221904Y-107402380D02*
X125221904Y-108211904D01*
X125174285Y-108307142D01*
X125126666Y-108354761D01*
X125031428Y-108402380D01*
X124840952Y-108402380D01*
X124745714Y-108354761D01*
X124698095Y-108307142D01*
X124650476Y-108211904D01*
X124650476Y-107402380D01*
X124269523Y-107402380D02*
X123602857Y-107402380D01*
X124031428Y-108402380D01*
X128031428Y-104862380D02*
X127460000Y-104862380D01*
X127745714Y-105862380D02*
X127745714Y-104862380D01*
X126745714Y-105814761D02*
X126840952Y-105862380D01*
X127031428Y-105862380D01*
X127126666Y-105814761D01*
X127174285Y-105719523D01*
X127174285Y-105338571D01*
X127126666Y-105243333D01*
X127031428Y-105195714D01*
X126840952Y-105195714D01*
X126745714Y-105243333D01*
X126698095Y-105338571D01*
X126698095Y-105433809D01*
X127174285Y-105529047D01*
X125888571Y-105814761D02*
X125983809Y-105862380D01*
X126174285Y-105862380D01*
X126269523Y-105814761D01*
X126317142Y-105719523D01*
X126317142Y-105338571D01*
X126269523Y-105243333D01*
X126174285Y-105195714D01*
X125983809Y-105195714D01*
X125888571Y-105243333D01*
X125840952Y-105338571D01*
X125840952Y-105433809D01*
X126317142Y-105529047D01*
X125412380Y-105195714D02*
X125412380Y-105862380D01*
X125412380Y-105290952D02*
X125364761Y-105243333D01*
X125269523Y-105195714D01*
X125126666Y-105195714D01*
X125031428Y-105243333D01*
X124983809Y-105338571D01*
X124983809Y-105862380D01*
X124555238Y-105814761D02*
X124460000Y-105862380D01*
X124269523Y-105862380D01*
X124174285Y-105814761D01*
X124126666Y-105719523D01*
X124126666Y-105671904D01*
X124174285Y-105576666D01*
X124269523Y-105529047D01*
X124412380Y-105529047D01*
X124507619Y-105481428D01*
X124555238Y-105386190D01*
X124555238Y-105338571D01*
X124507619Y-105243333D01*
X124412380Y-105195714D01*
X124269523Y-105195714D01*
X124174285Y-105243333D01*
X123793333Y-105195714D02*
X123555238Y-105862380D01*
X123317142Y-105195714D02*
X123555238Y-105862380D01*
X123650476Y-106100476D01*
X123698095Y-106148095D01*
X123793333Y-106195714D01*
X122507619Y-105195714D02*
X122507619Y-105862380D01*
X122745714Y-104814761D02*
X122983809Y-105529047D01*
X122364761Y-105529047D01*
X121983809Y-105767142D02*
X121936190Y-105814761D01*
X121983809Y-105862380D01*
X122031428Y-105814761D01*
X121983809Y-105767142D01*
X121983809Y-105862380D01*
X121317142Y-104862380D02*
X121221904Y-104862380D01*
X121126666Y-104910000D01*
X121079047Y-104957619D01*
X121031428Y-105052857D01*
X120983809Y-105243333D01*
X120983809Y-105481428D01*
X121031428Y-105671904D01*
X121079047Y-105767142D01*
X121126666Y-105814761D01*
X121221904Y-105862380D01*
X121317142Y-105862380D01*
X121412380Y-105814761D01*
X121460000Y-105767142D01*
X121507619Y-105671904D01*
X121555238Y-105481428D01*
X121555238Y-105243333D01*
X121507619Y-105052857D01*
X121460000Y-104957619D01*
X121412380Y-104910000D01*
X121317142Y-104862380D01*
%TO.C,U12*%
X175176584Y-55912135D02*
X175486375Y-55164233D01*
X175566816Y-55094467D01*
X175629033Y-55068696D01*
X175735244Y-55061148D01*
X175911221Y-55134040D01*
X175980987Y-55214480D01*
X176006758Y-55276697D01*
X176014306Y-55382909D01*
X175704515Y-56130811D01*
X177011078Y-55589615D02*
X176483147Y-55370939D01*
X176747112Y-55480277D02*
X176364429Y-56404157D01*
X176331110Y-56235728D01*
X176279567Y-56111293D01*
X176209802Y-56030853D01*
X177016795Y-56571290D02*
X177042566Y-56633508D01*
X177112332Y-56713948D01*
X177332303Y-56805063D01*
X177438514Y-56797515D01*
X177500732Y-56771744D01*
X177581172Y-56701978D01*
X177617618Y-56613990D01*
X177628293Y-56463784D01*
X177319038Y-55717176D01*
X177890963Y-55954076D01*
%TO.C,J8*%
X120983333Y-78192380D02*
X120983333Y-78906666D01*
X121030952Y-79049523D01*
X121126190Y-79144761D01*
X121269047Y-79192380D01*
X121364285Y-79192380D01*
X120364285Y-78620952D02*
X120459523Y-78573333D01*
X120507142Y-78525714D01*
X120554761Y-78430476D01*
X120554761Y-78382857D01*
X120507142Y-78287619D01*
X120459523Y-78240000D01*
X120364285Y-78192380D01*
X120173809Y-78192380D01*
X120078571Y-78240000D01*
X120030952Y-78287619D01*
X119983333Y-78382857D01*
X119983333Y-78430476D01*
X120030952Y-78525714D01*
X120078571Y-78573333D01*
X120173809Y-78620952D01*
X120364285Y-78620952D01*
X120459523Y-78668571D01*
X120507142Y-78716190D01*
X120554761Y-78811428D01*
X120554761Y-79001904D01*
X120507142Y-79097142D01*
X120459523Y-79144761D01*
X120364285Y-79192380D01*
X120173809Y-79192380D01*
X120078571Y-79144761D01*
X120030952Y-79097142D01*
X119983333Y-79001904D01*
X119983333Y-78811428D01*
X120030952Y-78716190D01*
X120078571Y-78668571D01*
X120173809Y-78620952D01*
%TO.C,J6*%
X132433333Y-78452380D02*
X132433333Y-79166666D01*
X132480952Y-79309523D01*
X132576190Y-79404761D01*
X132719047Y-79452380D01*
X132814285Y-79452380D01*
X131528571Y-78452380D02*
X131719047Y-78452380D01*
X131814285Y-78500000D01*
X131861904Y-78547619D01*
X131957142Y-78690476D01*
X132004761Y-78880952D01*
X132004761Y-79261904D01*
X131957142Y-79357142D01*
X131909523Y-79404761D01*
X131814285Y-79452380D01*
X131623809Y-79452380D01*
X131528571Y-79404761D01*
X131480952Y-79357142D01*
X131433333Y-79261904D01*
X131433333Y-79023809D01*
X131480952Y-78928571D01*
X131528571Y-78880952D01*
X131623809Y-78833333D01*
X131814285Y-78833333D01*
X131909523Y-78880952D01*
X131957142Y-78928571D01*
X132004761Y-79023809D01*
%TO.C,U14*%
X203167864Y-119296584D02*
X203915766Y-119606375D01*
X203985532Y-119686816D01*
X204011303Y-119749033D01*
X204018851Y-119855244D01*
X203945959Y-120031221D01*
X203865519Y-120100987D01*
X203803302Y-120126758D01*
X203697090Y-120134306D01*
X202949188Y-119824515D01*
X203490384Y-121131078D02*
X203709060Y-120603147D01*
X203599722Y-120867112D02*
X202675842Y-120484429D01*
X202844271Y-120451110D01*
X202968706Y-120399567D01*
X203049146Y-120329802D01*
X202546450Y-121667852D02*
X203162369Y-121922975D01*
X202285611Y-121302097D02*
X203036640Y-121355471D01*
X202799741Y-121927396D01*
%TO.C,U4*%
X191261904Y-117562380D02*
X191261904Y-118371904D01*
X191214285Y-118467142D01*
X191166666Y-118514761D01*
X191071428Y-118562380D01*
X190880952Y-118562380D01*
X190785714Y-118514761D01*
X190738095Y-118467142D01*
X190690476Y-118371904D01*
X190690476Y-117562380D01*
X189785714Y-117895714D02*
X189785714Y-118562380D01*
X190023809Y-117514761D02*
X190261904Y-118229047D01*
X189642857Y-118229047D01*
%TO.C,J7*%
X170692380Y-125396666D02*
X171406666Y-125396666D01*
X171549523Y-125349047D01*
X171644761Y-125253809D01*
X171692380Y-125110952D01*
X171692380Y-125015714D01*
X170692380Y-125777619D02*
X170692380Y-126444285D01*
X171692380Y-126015714D01*
%TO.C,U6*%
X158241904Y-84542380D02*
X158241904Y-85351904D01*
X158194285Y-85447142D01*
X158146666Y-85494761D01*
X158051428Y-85542380D01*
X157860952Y-85542380D01*
X157765714Y-85494761D01*
X157718095Y-85447142D01*
X157670476Y-85351904D01*
X157670476Y-84542380D01*
X156765714Y-84542380D02*
X156956190Y-84542380D01*
X157051428Y-84590000D01*
X157099047Y-84637619D01*
X157194285Y-84780476D01*
X157241904Y-84970952D01*
X157241904Y-85351904D01*
X157194285Y-85447142D01*
X157146666Y-85494761D01*
X157051428Y-85542380D01*
X156860952Y-85542380D01*
X156765714Y-85494761D01*
X156718095Y-85447142D01*
X156670476Y-85351904D01*
X156670476Y-85113809D01*
X156718095Y-85018571D01*
X156765714Y-84970952D01*
X156860952Y-84923333D01*
X157051428Y-84923333D01*
X157146666Y-84970952D01*
X157194285Y-85018571D01*
X157241904Y-85113809D01*
%TO.C,J4*%
X170692380Y-129206666D02*
X171406666Y-129206666D01*
X171549523Y-129159047D01*
X171644761Y-129063809D01*
X171692380Y-128920952D01*
X171692380Y-128825714D01*
X171025714Y-130111428D02*
X171692380Y-130111428D01*
X170644761Y-129873333D02*
X171359047Y-129635238D01*
X171359047Y-130254285D01*
%TO.C,J5*%
X188682380Y-136826666D02*
X189396666Y-136826666D01*
X189539523Y-136779047D01*
X189634761Y-136683809D01*
X189682380Y-136540952D01*
X189682380Y-136445714D01*
X188682380Y-137779047D02*
X188682380Y-137302857D01*
X189158571Y-137255238D01*
X189110952Y-137302857D01*
X189063333Y-137398095D01*
X189063333Y-137636190D01*
X189110952Y-137731428D01*
X189158571Y-137779047D01*
X189253809Y-137826666D01*
X189491904Y-137826666D01*
X189587142Y-137779047D01*
X189634761Y-137731428D01*
X189682380Y-137636190D01*
X189682380Y-137398095D01*
X189634761Y-137302857D01*
X189587142Y-137255238D01*
%TO.C,J3*%
X138255333Y-66220380D02*
X138255333Y-66934666D01*
X138302952Y-67077523D01*
X138398190Y-67172761D01*
X138541047Y-67220380D01*
X138636285Y-67220380D01*
X137874380Y-66220380D02*
X137255333Y-66220380D01*
X137588666Y-66601333D01*
X137445809Y-66601333D01*
X137350571Y-66648952D01*
X137302952Y-66696571D01*
X137255333Y-66791809D01*
X137255333Y-67029904D01*
X137302952Y-67125142D01*
X137350571Y-67172761D01*
X137445809Y-67220380D01*
X137731523Y-67220380D01*
X137826761Y-67172761D01*
X137874380Y-67125142D01*
%TO.C,J9*%
X181697380Y-134286666D02*
X182411666Y-134286666D01*
X182554523Y-134239047D01*
X182649761Y-134143809D01*
X182697380Y-134000952D01*
X182697380Y-133905714D01*
X182697380Y-134810476D02*
X182697380Y-135000952D01*
X182649761Y-135096190D01*
X182602142Y-135143809D01*
X182459285Y-135239047D01*
X182268809Y-135286666D01*
X181887857Y-135286666D01*
X181792619Y-135239047D01*
X181745000Y-135191428D01*
X181697380Y-135096190D01*
X181697380Y-134905714D01*
X181745000Y-134810476D01*
X181792619Y-134762857D01*
X181887857Y-134715238D01*
X182125952Y-134715238D01*
X182221190Y-134762857D01*
X182268809Y-134810476D01*
X182316428Y-134905714D01*
X182316428Y-135096190D01*
X182268809Y-135191428D01*
X182221190Y-135239047D01*
X182125952Y-135286666D01*
%TO.C,J2*%
X157813333Y-66127380D02*
X157813333Y-66841666D01*
X157860952Y-66984523D01*
X157956190Y-67079761D01*
X158099047Y-67127380D01*
X158194285Y-67127380D01*
X157384761Y-66222619D02*
X157337142Y-66175000D01*
X157241904Y-66127380D01*
X157003809Y-66127380D01*
X156908571Y-66175000D01*
X156860952Y-66222619D01*
X156813333Y-66317857D01*
X156813333Y-66413095D01*
X156860952Y-66555952D01*
X157432380Y-67127380D01*
X156813333Y-67127380D01*
%TO.C,U1*%
X191261904Y-101052380D02*
X191261904Y-101861904D01*
X191214285Y-101957142D01*
X191166666Y-102004761D01*
X191071428Y-102052380D01*
X190880952Y-102052380D01*
X190785714Y-102004761D01*
X190738095Y-101957142D01*
X190690476Y-101861904D01*
X190690476Y-101052380D01*
X189690476Y-102052380D02*
X190261904Y-102052380D01*
X189976190Y-102052380D02*
X189976190Y-101052380D01*
X190071428Y-101195238D01*
X190166666Y-101290476D01*
X190261904Y-101338095D01*
%TO.C,U3*%
X188656904Y-83907380D02*
X188656904Y-84716904D01*
X188609285Y-84812142D01*
X188561666Y-84859761D01*
X188466428Y-84907380D01*
X188275952Y-84907380D01*
X188180714Y-84859761D01*
X188133095Y-84812142D01*
X188085476Y-84716904D01*
X188085476Y-83907380D01*
X187704523Y-83907380D02*
X187085476Y-83907380D01*
X187418809Y-84288333D01*
X187275952Y-84288333D01*
X187180714Y-84335952D01*
X187133095Y-84383571D01*
X187085476Y-84478809D01*
X187085476Y-84716904D01*
X187133095Y-84812142D01*
X187180714Y-84859761D01*
X187275952Y-84907380D01*
X187561666Y-84907380D01*
X187656904Y-84859761D01*
X187704523Y-84812142D01*
X191221904Y-83002380D02*
X191221904Y-82002380D01*
X190888571Y-82716666D01*
X190555238Y-82002380D01*
X190555238Y-83002380D01*
X190079047Y-83002380D02*
X190079047Y-82002380D01*
X189698095Y-82002380D01*
X189602857Y-82050000D01*
X189555238Y-82097619D01*
X189507619Y-82192857D01*
X189507619Y-82335714D01*
X189555238Y-82430952D01*
X189602857Y-82478571D01*
X189698095Y-82526190D01*
X190079047Y-82526190D01*
X189079047Y-82002380D02*
X189079047Y-82811904D01*
X189031428Y-82907142D01*
X188983809Y-82954761D01*
X188888571Y-83002380D01*
X188698095Y-83002380D01*
X188602857Y-82954761D01*
X188555238Y-82907142D01*
X188507619Y-82811904D01*
X188507619Y-82002380D01*
X187602857Y-82002380D02*
X187793333Y-82002380D01*
X187888571Y-82050000D01*
X187936190Y-82097619D01*
X188031428Y-82240476D01*
X188079047Y-82430952D01*
X188079047Y-82811904D01*
X188031428Y-82907142D01*
X187983809Y-82954761D01*
X187888571Y-83002380D01*
X187698095Y-83002380D01*
X187602857Y-82954761D01*
X187555238Y-82907142D01*
X187507619Y-82811904D01*
X187507619Y-82573809D01*
X187555238Y-82478571D01*
X187602857Y-82430952D01*
X187698095Y-82383333D01*
X187888571Y-82383333D01*
X187983809Y-82430952D01*
X188031428Y-82478571D01*
X188079047Y-82573809D01*
X186888571Y-82002380D02*
X186793333Y-82002380D01*
X186698095Y-82050000D01*
X186650476Y-82097619D01*
X186602857Y-82192857D01*
X186555238Y-82383333D01*
X186555238Y-82621428D01*
X186602857Y-82811904D01*
X186650476Y-82907142D01*
X186698095Y-82954761D01*
X186793333Y-83002380D01*
X186888571Y-83002380D01*
X186983809Y-82954761D01*
X187031428Y-82907142D01*
X187079047Y-82811904D01*
X187126666Y-82621428D01*
X187126666Y-82383333D01*
X187079047Y-82192857D01*
X187031428Y-82097619D01*
X186983809Y-82050000D01*
X186888571Y-82002380D01*
X185650476Y-82002380D02*
X186126666Y-82002380D01*
X186174285Y-82478571D01*
X186126666Y-82430952D01*
X186031428Y-82383333D01*
X185793333Y-82383333D01*
X185698095Y-82430952D01*
X185650476Y-82478571D01*
X185602857Y-82573809D01*
X185602857Y-82811904D01*
X185650476Y-82907142D01*
X185698095Y-82954761D01*
X185793333Y-83002380D01*
X186031428Y-83002380D01*
X186126666Y-82954761D01*
X186174285Y-82907142D01*
X184983809Y-82002380D02*
X184888571Y-82002380D01*
X184793333Y-82050000D01*
X184745714Y-82097619D01*
X184698095Y-82192857D01*
X184650476Y-82383333D01*
X184650476Y-82621428D01*
X184698095Y-82811904D01*
X184745714Y-82907142D01*
X184793333Y-82954761D01*
X184888571Y-83002380D01*
X184983809Y-83002380D01*
X185079047Y-82954761D01*
X185126666Y-82907142D01*
X185174285Y-82811904D01*
X185221904Y-82621428D01*
X185221904Y-82383333D01*
X185174285Y-82192857D01*
X185126666Y-82097619D01*
X185079047Y-82050000D01*
X184983809Y-82002380D01*
%TO.C,U8*%
X139343472Y-147105634D02*
X139033681Y-147853536D01*
X138953241Y-147923302D01*
X138891024Y-147949073D01*
X138784812Y-147956621D01*
X138608835Y-147883729D01*
X138539069Y-147803289D01*
X138513298Y-147741072D01*
X138505750Y-147634860D01*
X138815541Y-146886958D01*
X138079609Y-147046007D02*
X138185820Y-147038458D01*
X138248038Y-147012687D01*
X138328478Y-146942922D01*
X138346701Y-146898927D01*
X138339153Y-146792716D01*
X138313381Y-146730499D01*
X138243616Y-146650058D01*
X138067639Y-146577166D01*
X137961427Y-146584714D01*
X137899210Y-146610486D01*
X137818770Y-146680251D01*
X137800547Y-146724245D01*
X137808095Y-146830457D01*
X137833866Y-146892674D01*
X137903632Y-146973115D01*
X138079609Y-147046007D01*
X138149374Y-147126447D01*
X138175145Y-147188664D01*
X138182694Y-147294876D01*
X138109802Y-147470853D01*
X138029361Y-147540618D01*
X137967144Y-147566390D01*
X137860932Y-147573938D01*
X137684955Y-147501046D01*
X137615190Y-147420605D01*
X137589419Y-147358388D01*
X137581870Y-147252177D01*
X137654762Y-147076200D01*
X137735203Y-147006434D01*
X137797420Y-146980663D01*
X137903632Y-146973115D01*
%TO.C,U11*%
X137495713Y-56859732D02*
X137185922Y-56111830D01*
X137193470Y-56005618D01*
X137219242Y-55943401D01*
X137289007Y-55862960D01*
X137464984Y-55790068D01*
X137571196Y-55797617D01*
X137633413Y-55823388D01*
X137713853Y-55893153D01*
X138023645Y-56641056D01*
X138564841Y-55334493D02*
X138036909Y-55553169D01*
X138300875Y-55443831D02*
X138683559Y-56367711D01*
X138540901Y-56272174D01*
X138416466Y-56220631D01*
X138310255Y-56213083D01*
X139444726Y-54970032D02*
X138916795Y-55188709D01*
X139180760Y-55079371D02*
X139563444Y-56003250D01*
X139420786Y-55907713D01*
X139296352Y-55856171D01*
X139190140Y-55848623D01*
D12*
%TO.C,U15*%
X180219665Y-146543398D02*
X173179703Y-149459446D01*
X173179703Y-149459446D02*
X174151719Y-151806100D01*
X174151719Y-151806100D02*
X181191681Y-148890052D01*
X181191681Y-148890052D02*
X180219665Y-146543398D01*
X175559711Y-151222890D02*
G75*
G03*
X179783688Y-149473262I1625981J2048141D01*
G01*
%TO.C,D23*%
X177930000Y-116660000D02*
X177600000Y-116660000D01*
X177600000Y-117680000D02*
X180540000Y-117680000D01*
X180210000Y-116660000D02*
X180540000Y-116660000D01*
X177600000Y-116660000D02*
X177600000Y-122100000D01*
X180540000Y-116660000D02*
X180540000Y-122100000D01*
X177600000Y-117560000D02*
X180540000Y-117560000D01*
X180540000Y-122100000D02*
X180210000Y-122100000D01*
X177600000Y-117440000D02*
X180540000Y-117440000D01*
X177600000Y-122100000D02*
X177930000Y-122100000D01*
%TO.C,BZ1*%
X132465000Y-130810000D02*
G75*
G03*
X132465000Y-130810000I-6100000J0D01*
G01*
%TO.C,U10*%
X109621554Y-85901297D02*
X112537602Y-78861335D01*
X112537602Y-78861335D02*
X110190948Y-77889319D01*
X110190948Y-77889319D02*
X107274900Y-84929281D01*
X107274900Y-84929281D02*
X109621554Y-85901297D01*
X109607738Y-79297312D02*
G75*
G03*
X107858110Y-83521289I298513J-2597996D01*
G01*
%TO.C,J1*%
X167640000Y-132020000D02*
X144720000Y-132020000D01*
X144720000Y-134680000D02*
X144720000Y-132020000D01*
X167640000Y-134680000D02*
X144720000Y-134680000D01*
X167640000Y-134680000D02*
X167640000Y-132020000D01*
X168910000Y-134680000D02*
X170240000Y-134680000D01*
X170240000Y-134680000D02*
X170240000Y-133350000D01*
%TO.C,U9*%
X112537602Y-124340665D02*
X109621554Y-117300703D01*
X109621554Y-117300703D02*
X107274900Y-118272719D01*
X107274900Y-118272719D02*
X110190948Y-125312681D01*
X110190948Y-125312681D02*
X112537602Y-124340665D01*
X107858110Y-119680711D02*
G75*
G03*
X109607738Y-123904688I2048141J-1625981D01*
G01*
D11*
%TO.C,SW4*%
X143715000Y-125730000D02*
X143715000Y-125730000D01*
X143615000Y-125730000D02*
X143615000Y-125730000D01*
D13*
X138075000Y-127255000D02*
X138075000Y-119125000D01*
D11*
X143715000Y-125730000D02*
X143715000Y-125730000D01*
D13*
X143155000Y-119125000D02*
X143155000Y-127255000D01*
X143155000Y-127255000D02*
X138075000Y-127255000D01*
X138075000Y-119125000D02*
X143155000Y-119125000D01*
D11*
X143615000Y-125730000D02*
G75*
G03*
X143715000Y-125730000I50000J0D01*
G01*
X143615000Y-125730000D02*
G75*
G03*
X143715000Y-125730000I50000J0D01*
G01*
X143715000Y-125730000D02*
G75*
G03*
X143615000Y-125730000I-50000J0D01*
G01*
D12*
%TO.C,U13*%
X202422397Y-78861334D02*
X205338445Y-85901296D01*
X205338445Y-85901296D02*
X207685099Y-84929280D01*
X207685099Y-84929280D02*
X204769051Y-77889318D01*
X204769051Y-77889318D02*
X202422397Y-78861334D01*
X207101889Y-83521288D02*
G75*
G03*
X205352261Y-79297311I-2048141J1625981D01*
G01*
%TO.C,U7*%
X135890000Y-88440000D02*
X135890000Y-124000000D01*
X113030000Y-88440000D02*
X135890000Y-88440000D01*
X113030000Y-124000000D02*
X113030000Y-88440000D01*
X135890000Y-124000000D02*
X113030000Y-124000000D01*
%TO.C,U12*%
X173179703Y-53742554D02*
X180219665Y-56658602D01*
X180219665Y-56658602D02*
X181191681Y-54311948D01*
X181191681Y-54311948D02*
X174151719Y-51395900D01*
X174151719Y-51395900D02*
X173179703Y-53742554D01*
X179783688Y-53728738D02*
G75*
G03*
X175559711Y-51979110I-2597996J-298513D01*
G01*
%TO.C,J8*%
X126060000Y-79800000D02*
X127310000Y-79800000D01*
X127010000Y-82350000D02*
X126260000Y-82350000D01*
X114400000Y-86060000D02*
X114400000Y-80090000D01*
X117710000Y-80100000D02*
X123710000Y-80100000D01*
X127010000Y-80100000D02*
X127010000Y-80850000D01*
X115160000Y-85300000D02*
X120710000Y-85300000D01*
X114400000Y-80090000D02*
X127020000Y-80090000D01*
X127310000Y-79800000D02*
X127310000Y-81050000D01*
X115160000Y-82350000D02*
X115160000Y-85300000D01*
X116210000Y-80850000D02*
X114410000Y-80850000D01*
X126260000Y-82350000D02*
X126260000Y-85300000D01*
X127010000Y-80850000D02*
X125210000Y-80850000D01*
X123710000Y-80850000D02*
X117710000Y-80850000D01*
X114410000Y-80100000D02*
X116210000Y-80100000D01*
X117710000Y-80850000D02*
X117710000Y-80100000D01*
X127020000Y-86060000D02*
X114400000Y-86060000D01*
X114410000Y-82350000D02*
X115160000Y-82350000D01*
X125210000Y-80850000D02*
X125210000Y-80100000D01*
X125210000Y-80100000D02*
X127010000Y-80100000D01*
X123710000Y-80100000D02*
X123710000Y-80850000D01*
X126260000Y-85300000D02*
X120710000Y-85300000D01*
X127020000Y-80090000D02*
X127020000Y-86060000D01*
X114410000Y-80850000D02*
X114410000Y-80100000D01*
X116210000Y-80100000D02*
X116210000Y-80850000D01*
%TO.C,J6*%
X134950000Y-79800000D02*
X136200000Y-79800000D01*
X134100000Y-80850000D02*
X134100000Y-80100000D01*
X135150000Y-82350000D02*
X135150000Y-85300000D01*
X129050000Y-82350000D02*
X129050000Y-85300000D01*
X128300000Y-80850000D02*
X128300000Y-80100000D01*
X128300000Y-80100000D02*
X130100000Y-80100000D01*
X131600000Y-80100000D02*
X132600000Y-80100000D01*
X135900000Y-80850000D02*
X134100000Y-80850000D01*
X134100000Y-80100000D02*
X135900000Y-80100000D01*
X129050000Y-85300000D02*
X132100000Y-85300000D01*
X132600000Y-80850000D02*
X131600000Y-80850000D01*
X128290000Y-80090000D02*
X135910000Y-80090000D01*
X135150000Y-85300000D02*
X132100000Y-85300000D01*
X131600000Y-80850000D02*
X131600000Y-80100000D01*
X130100000Y-80850000D02*
X128300000Y-80850000D01*
X135910000Y-86060000D02*
X128290000Y-86060000D01*
X130100000Y-80100000D02*
X130100000Y-80850000D01*
X128300000Y-82350000D02*
X129050000Y-82350000D01*
X136200000Y-79800000D02*
X136200000Y-81050000D01*
X135910000Y-80090000D02*
X135910000Y-86060000D01*
X135900000Y-80100000D02*
X135900000Y-80850000D01*
X135900000Y-82350000D02*
X135150000Y-82350000D01*
X132600000Y-80100000D02*
X132600000Y-80850000D01*
X128290000Y-86060000D02*
X128290000Y-80090000D01*
%TO.C,U14*%
X205338446Y-117300703D02*
X202422398Y-124340665D01*
X202422398Y-124340665D02*
X204769052Y-125312681D01*
X204769052Y-125312681D02*
X207685100Y-118272719D01*
X207685100Y-118272719D02*
X205338446Y-117300703D01*
X205352262Y-123904688D02*
G75*
G03*
X207101890Y-119680711I-298513J2597996D01*
G01*
%TO.C,U4*%
X199390000Y-124460000D02*
X181610000Y-124460000D01*
X181610000Y-124460000D02*
X181610000Y-109220000D01*
X181610000Y-109220000D02*
X199390000Y-109220000D01*
X199390000Y-109220000D02*
X199390000Y-124460000D01*
%TO.C,J7*%
X144720000Y-127060000D02*
X144720000Y-124400000D01*
X167640000Y-127060000D02*
X167640000Y-124400000D01*
X168910000Y-127060000D02*
X170240000Y-127060000D01*
X167640000Y-124400000D02*
X144720000Y-124400000D01*
X167640000Y-127060000D02*
X144720000Y-127060000D01*
X170240000Y-127060000D02*
X170240000Y-125730000D01*
%TO.C,U6*%
X157480000Y-109601000D02*
X175260000Y-109601000D01*
X139480000Y-101601000D02*
X175480000Y-101601000D01*
X175260000Y-65151000D02*
X139700000Y-65151000D01*
X139700000Y-65151000D02*
X139700000Y-109601000D01*
X157480000Y-109601000D02*
X157480000Y-65101000D01*
X175260000Y-109601000D02*
X175260000Y-65151000D01*
X139700000Y-109601000D02*
X157480000Y-109601000D01*
X164980000Y-101601000D02*
G75*
G03*
X164980000Y-101601000I-7500000J0D01*
G01*
%TO.C,J4*%
X167640000Y-130870000D02*
X144720000Y-130870000D01*
X144720000Y-130870000D02*
X144720000Y-128210000D01*
X168910000Y-130870000D02*
X170240000Y-130870000D01*
X167640000Y-128210000D02*
X144720000Y-128210000D01*
X167640000Y-130870000D02*
X167640000Y-128210000D01*
X170240000Y-130870000D02*
X170240000Y-129540000D01*
%TO.C,J5*%
X192505000Y-136160000D02*
X191255000Y-136160000D01*
X189955000Y-135110000D02*
X187005000Y-135110000D01*
X192205000Y-134060000D02*
X192205000Y-135860000D01*
X191455000Y-135860000D02*
X191455000Y-134060000D01*
X187005000Y-135110000D02*
X187005000Y-130810000D01*
X192205000Y-127560000D02*
X191455000Y-127560000D01*
X192205000Y-132560000D02*
X191455000Y-132560000D01*
X191455000Y-127560000D02*
X191455000Y-125760000D01*
X192205000Y-129060000D02*
X192205000Y-132560000D01*
X191455000Y-134060000D02*
X192205000Y-134060000D01*
X189955000Y-126510000D02*
X187005000Y-126510000D01*
X192215000Y-125750000D02*
X192215000Y-135870000D01*
X191455000Y-129060000D02*
X192205000Y-129060000D01*
X189955000Y-125760000D02*
X189955000Y-126510000D01*
X191455000Y-125760000D02*
X192205000Y-125760000D01*
X186245000Y-125750000D02*
X192215000Y-125750000D01*
X192215000Y-135870000D02*
X186245000Y-135870000D01*
X191455000Y-132560000D02*
X191455000Y-129060000D01*
X187005000Y-126510000D02*
X187005000Y-130810000D01*
X192205000Y-135860000D02*
X191455000Y-135860000D01*
X186245000Y-135870000D02*
X186245000Y-125750000D01*
X192205000Y-125760000D02*
X192205000Y-127560000D01*
X192505000Y-134910000D02*
X192505000Y-136160000D01*
X189955000Y-135860000D02*
X189955000Y-135110000D01*
%TO.C,J3*%
X139252000Y-69098000D02*
X139252000Y-67768000D01*
X139252000Y-70368000D02*
X139252000Y-78048000D01*
X139252000Y-67768000D02*
X137922000Y-67768000D01*
X136592000Y-70368000D02*
X136592000Y-78048000D01*
X139252000Y-70368000D02*
X136592000Y-70368000D01*
X139252000Y-78048000D02*
X136592000Y-78048000D01*
%TO.C,J9*%
X185330000Y-129060000D02*
X185330000Y-130060000D01*
X183080000Y-126510000D02*
X180130000Y-126510000D01*
X184580000Y-133360000D02*
X184580000Y-131560000D01*
X184580000Y-125760000D02*
X185330000Y-125760000D01*
X185340000Y-125750000D02*
X185340000Y-133370000D01*
X185340000Y-133370000D02*
X179370000Y-133370000D01*
X185330000Y-133360000D02*
X184580000Y-133360000D01*
X185330000Y-131560000D02*
X185330000Y-133360000D01*
X179370000Y-133370000D02*
X179370000Y-125750000D01*
X184580000Y-129060000D02*
X185330000Y-129060000D01*
X183080000Y-132610000D02*
X180130000Y-132610000D01*
X179370000Y-125750000D02*
X185340000Y-125750000D01*
X183080000Y-125760000D02*
X183080000Y-126510000D01*
X184580000Y-127560000D02*
X184580000Y-125760000D01*
X183080000Y-133360000D02*
X183080000Y-132610000D01*
X184580000Y-130060000D02*
X184580000Y-129060000D01*
X180130000Y-126510000D02*
X180130000Y-129560000D01*
X185330000Y-127560000D02*
X184580000Y-127560000D01*
X185630000Y-132410000D02*
X185630000Y-133660000D01*
X180130000Y-132610000D02*
X180130000Y-129560000D01*
X184580000Y-131560000D02*
X185330000Y-131560000D01*
X185330000Y-130060000D02*
X184580000Y-130060000D01*
X185330000Y-125760000D02*
X185330000Y-127560000D01*
X185630000Y-133660000D02*
X184380000Y-133660000D01*
%TO.C,G\u002A\u002A\u002A*%
G36*
X132152965Y-70685182D02*
G01*
X132190519Y-70689599D01*
X132258870Y-70701266D01*
X132287341Y-70712657D01*
X132277694Y-70722948D01*
X132231691Y-70731317D01*
X132151094Y-70736942D01*
X132037666Y-70739000D01*
X131937371Y-70739634D01*
X131860411Y-70742313D01*
X131813458Y-70747852D01*
X131790035Y-70757061D01*
X131783666Y-70770750D01*
X131770580Y-70793034D01*
X131720166Y-70802500D01*
X131686651Y-70804445D01*
X131661911Y-70821023D01*
X131656666Y-70866000D01*
X131650123Y-70910568D01*
X131624916Y-70929500D01*
X131611450Y-70933373D01*
X131597322Y-70961969D01*
X131593166Y-71024750D01*
X131594457Y-71065149D01*
X131603990Y-71107534D01*
X131624916Y-71120000D01*
X131647200Y-71133087D01*
X131656666Y-71183500D01*
X131650123Y-71228068D01*
X131624916Y-71247000D01*
X131610110Y-71243312D01*
X131593166Y-71215250D01*
X131589479Y-71200443D01*
X131561416Y-71183500D01*
X131549228Y-71179863D01*
X131537340Y-71157639D01*
X131531330Y-71108486D01*
X131529666Y-71024750D01*
X131530394Y-70963809D01*
X131534839Y-70904367D01*
X131544669Y-70874316D01*
X131561416Y-70866000D01*
X131576223Y-70862312D01*
X131593166Y-70834250D01*
X131596854Y-70819443D01*
X131624916Y-70802500D01*
X131639723Y-70798812D01*
X131656666Y-70770750D01*
X131669290Y-70748692D01*
X131718403Y-70739000D01*
X131763552Y-70732259D01*
X131788089Y-70715149D01*
X131813952Y-70697816D01*
X131872697Y-70685339D01*
X131954989Y-70678565D01*
X132051515Y-70678257D01*
X132152965Y-70685182D01*
G37*
D14*
X132152965Y-70685182D02*
X132190519Y-70689599D01*
X132258870Y-70701266D01*
X132287341Y-70712657D01*
X132277694Y-70722948D01*
X132231691Y-70731317D01*
X132151094Y-70736942D01*
X132037666Y-70739000D01*
X131937371Y-70739634D01*
X131860411Y-70742313D01*
X131813458Y-70747852D01*
X131790035Y-70757061D01*
X131783666Y-70770750D01*
X131770580Y-70793034D01*
X131720166Y-70802500D01*
X131686651Y-70804445D01*
X131661911Y-70821023D01*
X131656666Y-70866000D01*
X131650123Y-70910568D01*
X131624916Y-70929500D01*
X131611450Y-70933373D01*
X131597322Y-70961969D01*
X131593166Y-71024750D01*
X131594457Y-71065149D01*
X131603990Y-71107534D01*
X131624916Y-71120000D01*
X131647200Y-71133087D01*
X131656666Y-71183500D01*
X131650123Y-71228068D01*
X131624916Y-71247000D01*
X131610110Y-71243312D01*
X131593166Y-71215250D01*
X131589479Y-71200443D01*
X131561416Y-71183500D01*
X131549228Y-71179863D01*
X131537340Y-71157639D01*
X131531330Y-71108486D01*
X131529666Y-71024750D01*
X131530394Y-70963809D01*
X131534839Y-70904367D01*
X131544669Y-70874316D01*
X131561416Y-70866000D01*
X131576223Y-70862312D01*
X131593166Y-70834250D01*
X131596854Y-70819443D01*
X131624916Y-70802500D01*
X131639723Y-70798812D01*
X131656666Y-70770750D01*
X131669290Y-70748692D01*
X131718403Y-70739000D01*
X131763552Y-70732259D01*
X131788089Y-70715149D01*
X131813952Y-70697816D01*
X131872697Y-70685339D01*
X131954989Y-70678565D01*
X132051515Y-70678257D01*
X132152965Y-70685182D01*
G36*
X131212166Y-70643750D02*
G01*
X131213457Y-70684149D01*
X131222990Y-70726534D01*
X131243916Y-70739000D01*
X131256105Y-70742637D01*
X131267993Y-70764861D01*
X131274003Y-70814014D01*
X131275666Y-70897750D01*
X131276394Y-70958690D01*
X131280839Y-71018133D01*
X131290669Y-71048184D01*
X131307416Y-71056500D01*
X131319605Y-71060137D01*
X131331493Y-71082361D01*
X131337503Y-71131514D01*
X131339166Y-71215250D01*
X131339894Y-71276190D01*
X131344339Y-71335633D01*
X131354169Y-71365684D01*
X131370916Y-71374000D01*
X131384383Y-71377873D01*
X131398511Y-71406469D01*
X131402666Y-71469250D01*
X131401376Y-71509649D01*
X131391843Y-71552034D01*
X131370916Y-71564500D01*
X131356110Y-71568188D01*
X131339166Y-71596250D01*
X131337442Y-71603795D01*
X131323627Y-71614078D01*
X131291026Y-71621051D01*
X131233755Y-71625304D01*
X131145930Y-71627424D01*
X131021666Y-71628000D01*
X130704166Y-71628000D01*
X130704166Y-71564500D01*
X130697623Y-71519932D01*
X130672416Y-71501000D01*
X130657610Y-71497312D01*
X130640666Y-71469250D01*
X130645740Y-71456713D01*
X130667169Y-71447093D01*
X130711483Y-71441224D01*
X130785156Y-71438296D01*
X130894666Y-71437500D01*
X131148666Y-71437500D01*
X131148666Y-71342250D01*
X131147376Y-71301851D01*
X131137843Y-71259465D01*
X131116916Y-71247000D01*
X131104728Y-71243363D01*
X131092840Y-71221139D01*
X131086830Y-71171986D01*
X131085166Y-71088250D01*
X131084439Y-71027309D01*
X131079994Y-70967867D01*
X131070164Y-70937816D01*
X131053416Y-70929500D01*
X131041228Y-70925863D01*
X131029340Y-70903639D01*
X131023330Y-70854486D01*
X131021666Y-70770750D01*
X131020939Y-70709809D01*
X131016494Y-70650367D01*
X131006664Y-70620316D01*
X130989916Y-70612000D01*
X130975110Y-70608312D01*
X130958166Y-70580250D01*
X130958417Y-70576424D01*
X130971831Y-70559582D01*
X131011423Y-70550938D01*
X131085166Y-70548500D01*
X131212166Y-70548500D01*
X131212166Y-70643750D01*
G37*
X131212166Y-70643750D02*
X131213457Y-70684149D01*
X131222990Y-70726534D01*
X131243916Y-70739000D01*
X131256105Y-70742637D01*
X131267993Y-70764861D01*
X131274003Y-70814014D01*
X131275666Y-70897750D01*
X131276394Y-70958690D01*
X131280839Y-71018133D01*
X131290669Y-71048184D01*
X131307416Y-71056500D01*
X131319605Y-71060137D01*
X131331493Y-71082361D01*
X131337503Y-71131514D01*
X131339166Y-71215250D01*
X131339894Y-71276190D01*
X131344339Y-71335633D01*
X131354169Y-71365684D01*
X131370916Y-71374000D01*
X131384383Y-71377873D01*
X131398511Y-71406469D01*
X131402666Y-71469250D01*
X131401376Y-71509649D01*
X131391843Y-71552034D01*
X131370916Y-71564500D01*
X131356110Y-71568188D01*
X131339166Y-71596250D01*
X131337442Y-71603795D01*
X131323627Y-71614078D01*
X131291026Y-71621051D01*
X131233755Y-71625304D01*
X131145930Y-71627424D01*
X131021666Y-71628000D01*
X130704166Y-71628000D01*
X130704166Y-71564500D01*
X130697623Y-71519932D01*
X130672416Y-71501000D01*
X130657610Y-71497312D01*
X130640666Y-71469250D01*
X130645740Y-71456713D01*
X130667169Y-71447093D01*
X130711483Y-71441224D01*
X130785156Y-71438296D01*
X130894666Y-71437500D01*
X131148666Y-71437500D01*
X131148666Y-71342250D01*
X131147376Y-71301851D01*
X131137843Y-71259465D01*
X131116916Y-71247000D01*
X131104728Y-71243363D01*
X131092840Y-71221139D01*
X131086830Y-71171986D01*
X131085166Y-71088250D01*
X131084439Y-71027309D01*
X131079994Y-70967867D01*
X131070164Y-70937816D01*
X131053416Y-70929500D01*
X131041228Y-70925863D01*
X131029340Y-70903639D01*
X131023330Y-70854486D01*
X131021666Y-70770750D01*
X131020939Y-70709809D01*
X131016494Y-70650367D01*
X131006664Y-70620316D01*
X130989916Y-70612000D01*
X130975110Y-70608312D01*
X130958166Y-70580250D01*
X130958417Y-70576424D01*
X130971831Y-70559582D01*
X131011423Y-70550938D01*
X131085166Y-70548500D01*
X131212166Y-70548500D01*
X131212166Y-70643750D01*
G36*
X124396705Y-70379649D02*
G01*
X124472611Y-70383332D01*
X124525079Y-70389849D01*
X124544666Y-70398255D01*
X124558758Y-70408603D01*
X124604769Y-70421437D01*
X124671666Y-70432083D01*
X124729660Y-70440624D01*
X124779498Y-70452314D01*
X124798666Y-70463124D01*
X124801806Y-70467818D01*
X124833459Y-70480670D01*
X124888170Y-70491431D01*
X124910719Y-70495137D01*
X124961405Y-70509511D01*
X124985184Y-70525968D01*
X124990807Y-70535090D01*
X125022680Y-70548500D01*
X125035870Y-70551584D01*
X125052666Y-70578568D01*
X125052674Y-70579036D01*
X125071646Y-70604126D01*
X125116166Y-70622583D01*
X125117401Y-70622858D01*
X125161419Y-70638372D01*
X125179666Y-70656015D01*
X125183235Y-70664963D01*
X125211416Y-70675500D01*
X125226223Y-70679188D01*
X125243166Y-70707250D01*
X125246854Y-70722057D01*
X125274916Y-70739000D01*
X125289723Y-70742688D01*
X125306666Y-70770750D01*
X125310354Y-70785557D01*
X125338416Y-70802500D01*
X125360700Y-70815587D01*
X125370166Y-70866000D01*
X125376710Y-70910568D01*
X125401916Y-70929500D01*
X125416723Y-70933188D01*
X125433666Y-70961250D01*
X125437354Y-70976057D01*
X125465416Y-70993000D01*
X125478883Y-70996873D01*
X125493011Y-71025469D01*
X125497166Y-71088250D01*
X125498457Y-71128649D01*
X125507990Y-71171034D01*
X125528916Y-71183500D01*
X125532512Y-71183815D01*
X125544473Y-71193233D01*
X125552585Y-71220324D01*
X125557531Y-71271249D01*
X125559997Y-71352171D01*
X125560666Y-71469250D01*
X125560631Y-71501605D01*
X125559585Y-71609258D01*
X125556575Y-71682262D01*
X125550917Y-71726779D01*
X125541925Y-71748972D01*
X125528916Y-71755000D01*
X125506633Y-71768087D01*
X125497166Y-71818500D01*
X125490623Y-71863068D01*
X125465416Y-71882000D01*
X125450610Y-71885688D01*
X125433666Y-71913750D01*
X125429979Y-71928557D01*
X125401916Y-71945500D01*
X125387110Y-71949188D01*
X125370166Y-71977250D01*
X125357080Y-71999534D01*
X125306666Y-72009000D01*
X125262099Y-72015543D01*
X125243166Y-72040750D01*
X125230080Y-72063034D01*
X125179666Y-72072500D01*
X125135099Y-72079043D01*
X125116166Y-72104250D01*
X125116041Y-72106372D01*
X125108693Y-72117307D01*
X125086119Y-72125241D01*
X125042900Y-72130626D01*
X124973615Y-72133912D01*
X124872844Y-72135553D01*
X124735166Y-72136000D01*
X124709696Y-72135989D01*
X124578477Y-72135377D01*
X124483271Y-72133496D01*
X124418657Y-72129894D01*
X124379215Y-72124121D01*
X124359525Y-72115723D01*
X124354166Y-72104250D01*
X124350294Y-72090783D01*
X124321697Y-72076655D01*
X124258916Y-72072500D01*
X124218517Y-72071209D01*
X124176132Y-72061677D01*
X124163666Y-72040750D01*
X124159979Y-72025943D01*
X124131916Y-72009000D01*
X124109633Y-71995913D01*
X124100166Y-71945500D01*
X124093623Y-71900932D01*
X124068416Y-71882000D01*
X124054950Y-71878127D01*
X124040822Y-71849530D01*
X124036666Y-71786750D01*
X124035376Y-71746351D01*
X124025843Y-71703965D01*
X124004916Y-71691500D01*
X123990110Y-71687812D01*
X123973166Y-71659750D01*
X123976854Y-71644943D01*
X124004916Y-71628000D01*
X124019522Y-71625612D01*
X124036666Y-71606833D01*
X124040249Y-71597096D01*
X124068416Y-71585667D01*
X124083022Y-71588055D01*
X124100166Y-71606833D01*
X124103749Y-71616570D01*
X124131916Y-71628000D01*
X124146687Y-71631474D01*
X124163666Y-71658068D01*
X124163674Y-71658536D01*
X124182646Y-71683626D01*
X124227166Y-71702083D01*
X124228458Y-71702370D01*
X124272438Y-71717257D01*
X124290666Y-71733437D01*
X124304766Y-71743020D01*
X124350777Y-71755192D01*
X124417666Y-71765583D01*
X124475634Y-71774429D01*
X124525490Y-71787131D01*
X124544666Y-71799411D01*
X124558668Y-71808098D01*
X124604686Y-71815610D01*
X124671666Y-71818500D01*
X124729461Y-71816352D01*
X124779439Y-71809291D01*
X124798666Y-71799015D01*
X124798678Y-71798633D01*
X124817729Y-71780942D01*
X124862166Y-71765583D01*
X124863152Y-71765363D01*
X124907337Y-71746675D01*
X124925666Y-71721568D01*
X124929335Y-71707580D01*
X124957416Y-71691500D01*
X124979700Y-71678413D01*
X124989166Y-71628000D01*
X124995710Y-71583432D01*
X125020916Y-71564500D01*
X125024742Y-71564249D01*
X125041584Y-71550835D01*
X125050228Y-71511243D01*
X125052666Y-71437500D01*
X125052604Y-71422198D01*
X125049250Y-71354828D01*
X125039352Y-71320253D01*
X125020916Y-71310500D01*
X125017091Y-71310249D01*
X125000249Y-71296835D01*
X124991605Y-71257243D01*
X124989166Y-71183500D01*
X124989104Y-71168198D01*
X124985750Y-71100828D01*
X124975852Y-71066253D01*
X124957416Y-71056500D01*
X124942610Y-71052812D01*
X124925666Y-71024750D01*
X124921979Y-71009943D01*
X124893916Y-70993000D01*
X124879110Y-70989312D01*
X124862166Y-70961250D01*
X124858479Y-70946443D01*
X124830416Y-70929500D01*
X124815610Y-70925812D01*
X124798666Y-70897750D01*
X124794979Y-70882943D01*
X124766916Y-70866000D01*
X124752110Y-70862312D01*
X124735166Y-70834250D01*
X124722080Y-70811966D01*
X124671666Y-70802500D01*
X124627099Y-70795956D01*
X124608166Y-70770750D01*
X124606407Y-70762384D01*
X124590820Y-70750689D01*
X124553431Y-70743544D01*
X124487408Y-70739973D01*
X124385916Y-70739000D01*
X124327356Y-70739251D01*
X124245491Y-70741478D01*
X124195477Y-70746819D01*
X124170480Y-70756251D01*
X124163666Y-70770750D01*
X124150580Y-70793034D01*
X124100166Y-70802500D01*
X124055599Y-70809043D01*
X124036666Y-70834250D01*
X124032979Y-70849057D01*
X124004916Y-70866000D01*
X123990110Y-70869688D01*
X123973166Y-70897750D01*
X123960080Y-70920034D01*
X123909666Y-70929500D01*
X123865099Y-70922956D01*
X123846166Y-70897750D01*
X123842479Y-70882943D01*
X123814416Y-70866000D01*
X123800950Y-70862127D01*
X123786822Y-70833530D01*
X123782666Y-70770750D01*
X123781376Y-70730351D01*
X123771843Y-70687965D01*
X123750916Y-70675500D01*
X123743042Y-70674395D01*
X123724732Y-70651239D01*
X123719166Y-70593302D01*
X123721503Y-70556928D01*
X123740270Y-70513541D01*
X123784484Y-70491651D01*
X123862041Y-70485289D01*
X123891705Y-70480927D01*
X123909666Y-70465911D01*
X123923758Y-70455563D01*
X123969769Y-70442730D01*
X124036666Y-70432083D01*
X124094634Y-70423237D01*
X124144490Y-70410535D01*
X124163666Y-70398255D01*
X124168486Y-70393992D01*
X124205237Y-70386387D01*
X124270278Y-70381129D01*
X124354166Y-70379167D01*
X124396705Y-70379649D01*
G37*
X124396705Y-70379649D02*
X124472611Y-70383332D01*
X124525079Y-70389849D01*
X124544666Y-70398255D01*
X124558758Y-70408603D01*
X124604769Y-70421437D01*
X124671666Y-70432083D01*
X124729660Y-70440624D01*
X124779498Y-70452314D01*
X124798666Y-70463124D01*
X124801806Y-70467818D01*
X124833459Y-70480670D01*
X124888170Y-70491431D01*
X124910719Y-70495137D01*
X124961405Y-70509511D01*
X124985184Y-70525968D01*
X124990807Y-70535090D01*
X125022680Y-70548500D01*
X125035870Y-70551584D01*
X125052666Y-70578568D01*
X125052674Y-70579036D01*
X125071646Y-70604126D01*
X125116166Y-70622583D01*
X125117401Y-70622858D01*
X125161419Y-70638372D01*
X125179666Y-70656015D01*
X125183235Y-70664963D01*
X125211416Y-70675500D01*
X125226223Y-70679188D01*
X125243166Y-70707250D01*
X125246854Y-70722057D01*
X125274916Y-70739000D01*
X125289723Y-70742688D01*
X125306666Y-70770750D01*
X125310354Y-70785557D01*
X125338416Y-70802500D01*
X125360700Y-70815587D01*
X125370166Y-70866000D01*
X125376710Y-70910568D01*
X125401916Y-70929500D01*
X125416723Y-70933188D01*
X125433666Y-70961250D01*
X125437354Y-70976057D01*
X125465416Y-70993000D01*
X125478883Y-70996873D01*
X125493011Y-71025469D01*
X125497166Y-71088250D01*
X125498457Y-71128649D01*
X125507990Y-71171034D01*
X125528916Y-71183500D01*
X125532512Y-71183815D01*
X125544473Y-71193233D01*
X125552585Y-71220324D01*
X125557531Y-71271249D01*
X125559997Y-71352171D01*
X125560666Y-71469250D01*
X125560631Y-71501605D01*
X125559585Y-71609258D01*
X125556575Y-71682262D01*
X125550917Y-71726779D01*
X125541925Y-71748972D01*
X125528916Y-71755000D01*
X125506633Y-71768087D01*
X125497166Y-71818500D01*
X125490623Y-71863068D01*
X125465416Y-71882000D01*
X125450610Y-71885688D01*
X125433666Y-71913750D01*
X125429979Y-71928557D01*
X125401916Y-71945500D01*
X125387110Y-71949188D01*
X125370166Y-71977250D01*
X125357080Y-71999534D01*
X125306666Y-72009000D01*
X125262099Y-72015543D01*
X125243166Y-72040750D01*
X125230080Y-72063034D01*
X125179666Y-72072500D01*
X125135099Y-72079043D01*
X125116166Y-72104250D01*
X125116041Y-72106372D01*
X125108693Y-72117307D01*
X125086119Y-72125241D01*
X125042900Y-72130626D01*
X124973615Y-72133912D01*
X124872844Y-72135553D01*
X124735166Y-72136000D01*
X124709696Y-72135989D01*
X124578477Y-72135377D01*
X124483271Y-72133496D01*
X124418657Y-72129894D01*
X124379215Y-72124121D01*
X124359525Y-72115723D01*
X124354166Y-72104250D01*
X124350294Y-72090783D01*
X124321697Y-72076655D01*
X124258916Y-72072500D01*
X124218517Y-72071209D01*
X124176132Y-72061677D01*
X124163666Y-72040750D01*
X124159979Y-72025943D01*
X124131916Y-72009000D01*
X124109633Y-71995913D01*
X124100166Y-71945500D01*
X124093623Y-71900932D01*
X124068416Y-71882000D01*
X124054950Y-71878127D01*
X124040822Y-71849530D01*
X124036666Y-71786750D01*
X124035376Y-71746351D01*
X124025843Y-71703965D01*
X124004916Y-71691500D01*
X123990110Y-71687812D01*
X123973166Y-71659750D01*
X123976854Y-71644943D01*
X124004916Y-71628000D01*
X124019522Y-71625612D01*
X124036666Y-71606833D01*
X124040249Y-71597096D01*
X124068416Y-71585667D01*
X124083022Y-71588055D01*
X124100166Y-71606833D01*
X124103749Y-71616570D01*
X124131916Y-71628000D01*
X124146687Y-71631474D01*
X124163666Y-71658068D01*
X124163674Y-71658536D01*
X124182646Y-71683626D01*
X124227166Y-71702083D01*
X124228458Y-71702370D01*
X124272438Y-71717257D01*
X124290666Y-71733437D01*
X124304766Y-71743020D01*
X124350777Y-71755192D01*
X124417666Y-71765583D01*
X124475634Y-71774429D01*
X124525490Y-71787131D01*
X124544666Y-71799411D01*
X124558668Y-71808098D01*
X124604686Y-71815610D01*
X124671666Y-71818500D01*
X124729461Y-71816352D01*
X124779439Y-71809291D01*
X124798666Y-71799015D01*
X124798678Y-71798633D01*
X124817729Y-71780942D01*
X124862166Y-71765583D01*
X124863152Y-71765363D01*
X124907337Y-71746675D01*
X124925666Y-71721568D01*
X124929335Y-71707580D01*
X124957416Y-71691500D01*
X124979700Y-71678413D01*
X124989166Y-71628000D01*
X124995710Y-71583432D01*
X125020916Y-71564500D01*
X125024742Y-71564249D01*
X125041584Y-71550835D01*
X125050228Y-71511243D01*
X125052666Y-71437500D01*
X125052604Y-71422198D01*
X125049250Y-71354828D01*
X125039352Y-71320253D01*
X125020916Y-71310500D01*
X125017091Y-71310249D01*
X125000249Y-71296835D01*
X124991605Y-71257243D01*
X124989166Y-71183500D01*
X124989104Y-71168198D01*
X124985750Y-71100828D01*
X124975852Y-71066253D01*
X124957416Y-71056500D01*
X124942610Y-71052812D01*
X124925666Y-71024750D01*
X124921979Y-71009943D01*
X124893916Y-70993000D01*
X124879110Y-70989312D01*
X124862166Y-70961250D01*
X124858479Y-70946443D01*
X124830416Y-70929500D01*
X124815610Y-70925812D01*
X124798666Y-70897750D01*
X124794979Y-70882943D01*
X124766916Y-70866000D01*
X124752110Y-70862312D01*
X124735166Y-70834250D01*
X124722080Y-70811966D01*
X124671666Y-70802500D01*
X124627099Y-70795956D01*
X124608166Y-70770750D01*
X124606407Y-70762384D01*
X124590820Y-70750689D01*
X124553431Y-70743544D01*
X124487408Y-70739973D01*
X124385916Y-70739000D01*
X124327356Y-70739251D01*
X124245491Y-70741478D01*
X124195477Y-70746819D01*
X124170480Y-70756251D01*
X124163666Y-70770750D01*
X124150580Y-70793034D01*
X124100166Y-70802500D01*
X124055599Y-70809043D01*
X124036666Y-70834250D01*
X124032979Y-70849057D01*
X124004916Y-70866000D01*
X123990110Y-70869688D01*
X123973166Y-70897750D01*
X123960080Y-70920034D01*
X123909666Y-70929500D01*
X123865099Y-70922956D01*
X123846166Y-70897750D01*
X123842479Y-70882943D01*
X123814416Y-70866000D01*
X123800950Y-70862127D01*
X123786822Y-70833530D01*
X123782666Y-70770750D01*
X123781376Y-70730351D01*
X123771843Y-70687965D01*
X123750916Y-70675500D01*
X123743042Y-70674395D01*
X123724732Y-70651239D01*
X123719166Y-70593302D01*
X123721503Y-70556928D01*
X123740270Y-70513541D01*
X123784484Y-70491651D01*
X123862041Y-70485289D01*
X123891705Y-70480927D01*
X123909666Y-70465911D01*
X123923758Y-70455563D01*
X123969769Y-70442730D01*
X124036666Y-70432083D01*
X124094634Y-70423237D01*
X124144490Y-70410535D01*
X124163666Y-70398255D01*
X124168486Y-70393992D01*
X124205237Y-70386387D01*
X124270278Y-70381129D01*
X124354166Y-70379167D01*
X124396705Y-70379649D01*
G36*
X131703223Y-71314188D02*
G01*
X131720166Y-71342250D01*
X131716479Y-71357057D01*
X131688416Y-71374000D01*
X131673610Y-71370312D01*
X131656666Y-71342250D01*
X131660354Y-71327443D01*
X131688416Y-71310500D01*
X131703223Y-71314188D01*
G37*
X131703223Y-71314188D02*
X131720166Y-71342250D01*
X131716479Y-71357057D01*
X131688416Y-71374000D01*
X131673610Y-71370312D01*
X131656666Y-71342250D01*
X131660354Y-71327443D01*
X131688416Y-71310500D01*
X131703223Y-71314188D01*
G36*
X120586705Y-70379649D02*
G01*
X120662611Y-70383332D01*
X120715079Y-70389849D01*
X120734666Y-70398255D01*
X120748758Y-70408603D01*
X120794769Y-70421437D01*
X120861666Y-70432083D01*
X120919649Y-70440745D01*
X120969495Y-70452837D01*
X120988666Y-70464230D01*
X120988680Y-70464587D01*
X121007748Y-70480830D01*
X121052166Y-70495583D01*
X121053447Y-70495868D01*
X121097434Y-70510874D01*
X121115666Y-70527333D01*
X121115679Y-70527695D01*
X121134745Y-70544215D01*
X121179166Y-70559083D01*
X121180401Y-70559358D01*
X121224419Y-70574872D01*
X121242666Y-70592515D01*
X121246235Y-70601463D01*
X121274416Y-70612000D01*
X121289223Y-70615688D01*
X121306166Y-70643750D01*
X121309854Y-70658557D01*
X121337916Y-70675500D01*
X121352723Y-70679188D01*
X121369666Y-70707250D01*
X121373354Y-70722057D01*
X121401416Y-70739000D01*
X121416223Y-70742688D01*
X121433166Y-70770750D01*
X121436854Y-70785557D01*
X121464916Y-70802500D01*
X121479723Y-70806188D01*
X121496666Y-70834250D01*
X121500354Y-70849057D01*
X121528416Y-70866000D01*
X121550700Y-70879087D01*
X121560166Y-70929500D01*
X121566710Y-70974068D01*
X121591916Y-70993000D01*
X121614200Y-71006087D01*
X121623666Y-71056500D01*
X121630210Y-71101068D01*
X121655416Y-71120000D01*
X121662962Y-71121724D01*
X121673245Y-71135539D01*
X121680218Y-71168140D01*
X121684471Y-71225411D01*
X121686591Y-71313236D01*
X121687166Y-71437500D01*
X121686994Y-71512954D01*
X121685613Y-71615782D01*
X121682352Y-71685516D01*
X121676625Y-71728041D01*
X121667843Y-71749241D01*
X121655416Y-71755000D01*
X121633133Y-71768087D01*
X121623666Y-71818500D01*
X121617123Y-71863068D01*
X121591916Y-71882000D01*
X121577110Y-71885688D01*
X121560166Y-71913750D01*
X121556479Y-71928557D01*
X121528416Y-71945500D01*
X121513610Y-71949188D01*
X121496666Y-71977250D01*
X121483580Y-71999534D01*
X121433166Y-72009000D01*
X121388599Y-72015543D01*
X121369666Y-72040750D01*
X121356580Y-72063034D01*
X121306166Y-72072500D01*
X121261599Y-72079043D01*
X121242666Y-72104250D01*
X121238522Y-72114864D01*
X121220318Y-72123840D01*
X121182344Y-72129929D01*
X121118962Y-72133643D01*
X121024532Y-72135496D01*
X120893416Y-72136000D01*
X120776656Y-72135623D01*
X120677923Y-72133968D01*
X120610946Y-72130516D01*
X120570087Y-72124754D01*
X120549707Y-72116169D01*
X120544166Y-72104250D01*
X120540294Y-72090783D01*
X120511697Y-72076655D01*
X120448916Y-72072500D01*
X120408517Y-72071209D01*
X120366132Y-72061677D01*
X120353666Y-72040750D01*
X120340580Y-72018466D01*
X120290166Y-72009000D01*
X120256651Y-72007054D01*
X120231911Y-71990477D01*
X120226666Y-71945500D01*
X120220123Y-71900932D01*
X120194916Y-71882000D01*
X120184977Y-71879840D01*
X120171748Y-71860408D01*
X120165034Y-71814335D01*
X120163166Y-71733833D01*
X120163629Y-71687447D01*
X120167793Y-71625712D01*
X120177666Y-71594380D01*
X120194916Y-71585667D01*
X120209522Y-71588055D01*
X120226666Y-71606833D01*
X120230249Y-71616570D01*
X120258416Y-71628000D01*
X120273223Y-71631688D01*
X120290166Y-71659750D01*
X120303253Y-71682034D01*
X120353666Y-71691500D01*
X120398089Y-71698190D01*
X120417166Y-71721172D01*
X120424020Y-71734769D01*
X120464541Y-71752246D01*
X120544166Y-71765583D01*
X120602134Y-71774429D01*
X120651990Y-71787131D01*
X120671166Y-71799411D01*
X120685168Y-71808098D01*
X120731186Y-71815610D01*
X120798166Y-71818500D01*
X120855961Y-71816352D01*
X120905939Y-71809291D01*
X120925166Y-71799015D01*
X120925178Y-71798633D01*
X120944229Y-71780942D01*
X120988666Y-71765583D01*
X120989652Y-71765363D01*
X121033837Y-71746675D01*
X121052166Y-71721568D01*
X121055835Y-71707580D01*
X121083916Y-71691500D01*
X121098723Y-71687812D01*
X121115666Y-71659750D01*
X121119354Y-71644943D01*
X121147416Y-71628000D01*
X121155782Y-71626241D01*
X121167477Y-71610653D01*
X121174622Y-71573264D01*
X121178193Y-71507241D01*
X121179166Y-71405750D01*
X121178915Y-71347189D01*
X121176688Y-71265324D01*
X121171347Y-71215310D01*
X121161915Y-71190314D01*
X121147416Y-71183500D01*
X121125133Y-71170413D01*
X121115666Y-71120000D01*
X121109123Y-71075432D01*
X121083916Y-71056500D01*
X121061633Y-71043413D01*
X121052166Y-70993000D01*
X121045623Y-70948432D01*
X121020416Y-70929500D01*
X121005610Y-70925812D01*
X120988666Y-70897750D01*
X120975580Y-70875466D01*
X120925166Y-70866000D01*
X120880599Y-70859456D01*
X120861666Y-70834250D01*
X120848580Y-70811966D01*
X120798166Y-70802500D01*
X120753599Y-70795956D01*
X120734666Y-70770750D01*
X120734566Y-70768443D01*
X120725069Y-70753753D01*
X120694993Y-70744753D01*
X120637104Y-70740237D01*
X120544166Y-70739000D01*
X120530323Y-70739017D01*
X120442184Y-70740599D01*
X120388185Y-70745612D01*
X120361090Y-70755260D01*
X120353666Y-70770750D01*
X120340580Y-70793034D01*
X120290166Y-70802500D01*
X120245599Y-70809043D01*
X120226666Y-70834250D01*
X120213580Y-70856534D01*
X120163166Y-70866000D01*
X120118599Y-70872543D01*
X120099666Y-70897750D01*
X120095979Y-70912557D01*
X120067916Y-70929500D01*
X120053110Y-70933188D01*
X120036166Y-70961250D01*
X120032479Y-70976057D01*
X120004416Y-70993000D01*
X119982133Y-70979913D01*
X119972666Y-70929500D01*
X119966123Y-70884932D01*
X119940916Y-70866000D01*
X119937091Y-70865749D01*
X119920249Y-70852335D01*
X119911605Y-70812743D01*
X119909166Y-70739000D01*
X119909104Y-70723698D01*
X119905750Y-70656328D01*
X119895852Y-70621753D01*
X119877416Y-70612000D01*
X119862610Y-70608312D01*
X119845666Y-70580250D01*
X119849354Y-70565443D01*
X119877416Y-70548500D01*
X119891989Y-70546381D01*
X119909166Y-70529628D01*
X119925214Y-70512602D01*
X119967163Y-70496200D01*
X120009450Y-70481355D01*
X120036860Y-70462710D01*
X120037652Y-70461729D01*
X120066513Y-70450479D01*
X120124875Y-70438988D01*
X120201114Y-70429599D01*
X120210930Y-70428649D01*
X120283214Y-70419100D01*
X120334300Y-70407906D01*
X120353666Y-70397294D01*
X120358486Y-70393246D01*
X120395236Y-70386023D01*
X120460277Y-70381030D01*
X120544166Y-70379167D01*
X120586705Y-70379649D01*
G37*
X120586705Y-70379649D02*
X120662611Y-70383332D01*
X120715079Y-70389849D01*
X120734666Y-70398255D01*
X120748758Y-70408603D01*
X120794769Y-70421437D01*
X120861666Y-70432083D01*
X120919649Y-70440745D01*
X120969495Y-70452837D01*
X120988666Y-70464230D01*
X120988680Y-70464587D01*
X121007748Y-70480830D01*
X121052166Y-70495583D01*
X121053447Y-70495868D01*
X121097434Y-70510874D01*
X121115666Y-70527333D01*
X121115679Y-70527695D01*
X121134745Y-70544215D01*
X121179166Y-70559083D01*
X121180401Y-70559358D01*
X121224419Y-70574872D01*
X121242666Y-70592515D01*
X121246235Y-70601463D01*
X121274416Y-70612000D01*
X121289223Y-70615688D01*
X121306166Y-70643750D01*
X121309854Y-70658557D01*
X121337916Y-70675500D01*
X121352723Y-70679188D01*
X121369666Y-70707250D01*
X121373354Y-70722057D01*
X121401416Y-70739000D01*
X121416223Y-70742688D01*
X121433166Y-70770750D01*
X121436854Y-70785557D01*
X121464916Y-70802500D01*
X121479723Y-70806188D01*
X121496666Y-70834250D01*
X121500354Y-70849057D01*
X121528416Y-70866000D01*
X121550700Y-70879087D01*
X121560166Y-70929500D01*
X121566710Y-70974068D01*
X121591916Y-70993000D01*
X121614200Y-71006087D01*
X121623666Y-71056500D01*
X121630210Y-71101068D01*
X121655416Y-71120000D01*
X121662962Y-71121724D01*
X121673245Y-71135539D01*
X121680218Y-71168140D01*
X121684471Y-71225411D01*
X121686591Y-71313236D01*
X121687166Y-71437500D01*
X121686994Y-71512954D01*
X121685613Y-71615782D01*
X121682352Y-71685516D01*
X121676625Y-71728041D01*
X121667843Y-71749241D01*
X121655416Y-71755000D01*
X121633133Y-71768087D01*
X121623666Y-71818500D01*
X121617123Y-71863068D01*
X121591916Y-71882000D01*
X121577110Y-71885688D01*
X121560166Y-71913750D01*
X121556479Y-71928557D01*
X121528416Y-71945500D01*
X121513610Y-71949188D01*
X121496666Y-71977250D01*
X121483580Y-71999534D01*
X121433166Y-72009000D01*
X121388599Y-72015543D01*
X121369666Y-72040750D01*
X121356580Y-72063034D01*
X121306166Y-72072500D01*
X121261599Y-72079043D01*
X121242666Y-72104250D01*
X121238522Y-72114864D01*
X121220318Y-72123840D01*
X121182344Y-72129929D01*
X121118962Y-72133643D01*
X121024532Y-72135496D01*
X120893416Y-72136000D01*
X120776656Y-72135623D01*
X120677923Y-72133968D01*
X120610946Y-72130516D01*
X120570087Y-72124754D01*
X120549707Y-72116169D01*
X120544166Y-72104250D01*
X120540294Y-72090783D01*
X120511697Y-72076655D01*
X120448916Y-72072500D01*
X120408517Y-72071209D01*
X120366132Y-72061677D01*
X120353666Y-72040750D01*
X120340580Y-72018466D01*
X120290166Y-72009000D01*
X120256651Y-72007054D01*
X120231911Y-71990477D01*
X120226666Y-71945500D01*
X120220123Y-71900932D01*
X120194916Y-71882000D01*
X120184977Y-71879840D01*
X120171748Y-71860408D01*
X120165034Y-71814335D01*
X120163166Y-71733833D01*
X120163629Y-71687447D01*
X120167793Y-71625712D01*
X120177666Y-71594380D01*
X120194916Y-71585667D01*
X120209522Y-71588055D01*
X120226666Y-71606833D01*
X120230249Y-71616570D01*
X120258416Y-71628000D01*
X120273223Y-71631688D01*
X120290166Y-71659750D01*
X120303253Y-71682034D01*
X120353666Y-71691500D01*
X120398089Y-71698190D01*
X120417166Y-71721172D01*
X120424020Y-71734769D01*
X120464541Y-71752246D01*
X120544166Y-71765583D01*
X120602134Y-71774429D01*
X120651990Y-71787131D01*
X120671166Y-71799411D01*
X120685168Y-71808098D01*
X120731186Y-71815610D01*
X120798166Y-71818500D01*
X120855961Y-71816352D01*
X120905939Y-71809291D01*
X120925166Y-71799015D01*
X120925178Y-71798633D01*
X120944229Y-71780942D01*
X120988666Y-71765583D01*
X120989652Y-71765363D01*
X121033837Y-71746675D01*
X121052166Y-71721568D01*
X121055835Y-71707580D01*
X121083916Y-71691500D01*
X121098723Y-71687812D01*
X121115666Y-71659750D01*
X121119354Y-71644943D01*
X121147416Y-71628000D01*
X121155782Y-71626241D01*
X121167477Y-71610653D01*
X121174622Y-71573264D01*
X121178193Y-71507241D01*
X121179166Y-71405750D01*
X121178915Y-71347189D01*
X121176688Y-71265324D01*
X121171347Y-71215310D01*
X121161915Y-71190314D01*
X121147416Y-71183500D01*
X121125133Y-71170413D01*
X121115666Y-71120000D01*
X121109123Y-71075432D01*
X121083916Y-71056500D01*
X121061633Y-71043413D01*
X121052166Y-70993000D01*
X121045623Y-70948432D01*
X121020416Y-70929500D01*
X121005610Y-70925812D01*
X120988666Y-70897750D01*
X120975580Y-70875466D01*
X120925166Y-70866000D01*
X120880599Y-70859456D01*
X120861666Y-70834250D01*
X120848580Y-70811966D01*
X120798166Y-70802500D01*
X120753599Y-70795956D01*
X120734666Y-70770750D01*
X120734566Y-70768443D01*
X120725069Y-70753753D01*
X120694993Y-70744753D01*
X120637104Y-70740237D01*
X120544166Y-70739000D01*
X120530323Y-70739017D01*
X120442184Y-70740599D01*
X120388185Y-70745612D01*
X120361090Y-70755260D01*
X120353666Y-70770750D01*
X120340580Y-70793034D01*
X120290166Y-70802500D01*
X120245599Y-70809043D01*
X120226666Y-70834250D01*
X120213580Y-70856534D01*
X120163166Y-70866000D01*
X120118599Y-70872543D01*
X120099666Y-70897750D01*
X120095979Y-70912557D01*
X120067916Y-70929500D01*
X120053110Y-70933188D01*
X120036166Y-70961250D01*
X120032479Y-70976057D01*
X120004416Y-70993000D01*
X119982133Y-70979913D01*
X119972666Y-70929500D01*
X119966123Y-70884932D01*
X119940916Y-70866000D01*
X119937091Y-70865749D01*
X119920249Y-70852335D01*
X119911605Y-70812743D01*
X119909166Y-70739000D01*
X119909104Y-70723698D01*
X119905750Y-70656328D01*
X119895852Y-70621753D01*
X119877416Y-70612000D01*
X119862610Y-70608312D01*
X119845666Y-70580250D01*
X119849354Y-70565443D01*
X119877416Y-70548500D01*
X119891989Y-70546381D01*
X119909166Y-70529628D01*
X119925214Y-70512602D01*
X119967163Y-70496200D01*
X120009450Y-70481355D01*
X120036860Y-70462710D01*
X120037652Y-70461729D01*
X120066513Y-70450479D01*
X120124875Y-70438988D01*
X120201114Y-70429599D01*
X120210930Y-70428649D01*
X120283214Y-70419100D01*
X120334300Y-70407906D01*
X120353666Y-70397294D01*
X120358486Y-70393246D01*
X120395236Y-70386023D01*
X120460277Y-70381030D01*
X120544166Y-70379167D01*
X120586705Y-70379649D01*
G36*
X132401522Y-70762555D02*
G01*
X132418666Y-70781333D01*
X132415084Y-70791070D01*
X132386916Y-70802500D01*
X132372311Y-70800112D01*
X132355166Y-70781333D01*
X132358749Y-70771596D01*
X132386916Y-70760167D01*
X132401522Y-70762555D01*
G37*
X132401522Y-70762555D02*
X132418666Y-70781333D01*
X132415084Y-70791070D01*
X132386916Y-70802500D01*
X132372311Y-70800112D01*
X132355166Y-70781333D01*
X132358749Y-70771596D01*
X132386916Y-70760167D01*
X132401522Y-70762555D01*
G36*
X129815922Y-70506168D02*
G01*
X129860262Y-70511638D01*
X129878666Y-70524546D01*
X129881433Y-70529491D01*
X129912302Y-70543502D01*
X129966384Y-70554691D01*
X129986604Y-70557908D01*
X130039600Y-70571761D01*
X130067137Y-70587550D01*
X130091154Y-70605585D01*
X130138170Y-70623200D01*
X130178117Y-70638447D01*
X130196166Y-70656628D01*
X130199731Y-70665289D01*
X130227916Y-70675500D01*
X130242723Y-70679188D01*
X130259666Y-70707250D01*
X130263354Y-70722057D01*
X130291416Y-70739000D01*
X130306223Y-70742688D01*
X130323166Y-70770750D01*
X130326854Y-70785557D01*
X130354916Y-70802500D01*
X130377200Y-70815587D01*
X130386666Y-70866000D01*
X130393210Y-70910568D01*
X130418416Y-70929500D01*
X130426782Y-70931259D01*
X130438477Y-70946847D01*
X130445622Y-70984235D01*
X130449193Y-71050258D01*
X130450166Y-71151750D01*
X130449915Y-71210310D01*
X130447688Y-71292175D01*
X130442347Y-71342189D01*
X130432915Y-71367186D01*
X130418416Y-71374000D01*
X130396133Y-71387087D01*
X130386666Y-71437500D01*
X130380123Y-71482068D01*
X130354916Y-71501000D01*
X130340110Y-71504688D01*
X130323166Y-71532750D01*
X130319294Y-71546216D01*
X130290697Y-71560345D01*
X130227916Y-71564500D01*
X130187517Y-71565791D01*
X130145132Y-71575323D01*
X130132666Y-71596250D01*
X130132416Y-71600075D01*
X130119002Y-71616918D01*
X130079410Y-71625561D01*
X130005666Y-71628000D01*
X129990364Y-71627937D01*
X129922995Y-71624584D01*
X129888420Y-71614686D01*
X129878666Y-71596250D01*
X129865580Y-71573966D01*
X129815166Y-71564500D01*
X129770599Y-71557956D01*
X129751666Y-71532750D01*
X129738580Y-71510466D01*
X129688166Y-71501000D01*
X129643599Y-71494456D01*
X129624666Y-71469250D01*
X129628354Y-71454443D01*
X129656416Y-71437500D01*
X129672202Y-71432963D01*
X129688166Y-71403455D01*
X129688700Y-71395195D01*
X129703479Y-71378666D01*
X129746163Y-71383967D01*
X129788303Y-71398465D01*
X129814955Y-71415991D01*
X129814998Y-71416060D01*
X129843020Y-71428705D01*
X129901606Y-71437897D01*
X129979108Y-71442457D01*
X130063875Y-71441205D01*
X130113090Y-71431491D01*
X130132666Y-71405750D01*
X130136354Y-71390943D01*
X130164416Y-71374000D01*
X130176953Y-71368927D01*
X130186573Y-71347497D01*
X130192443Y-71303184D01*
X130195370Y-71229510D01*
X130196166Y-71120000D01*
X130195532Y-71019705D01*
X130192854Y-70942744D01*
X130187314Y-70895791D01*
X130178105Y-70872368D01*
X130164416Y-70866000D01*
X130149610Y-70862312D01*
X130132666Y-70834250D01*
X130128979Y-70819443D01*
X130100916Y-70802500D01*
X130086110Y-70798812D01*
X130069166Y-70770750D01*
X130056080Y-70748466D01*
X130005666Y-70739000D01*
X129961099Y-70732456D01*
X129942166Y-70707250D01*
X129941916Y-70703424D01*
X129928502Y-70686582D01*
X129888910Y-70677938D01*
X129815166Y-70675500D01*
X129799864Y-70675562D01*
X129732495Y-70678916D01*
X129697920Y-70688814D01*
X129688166Y-70707250D01*
X129675080Y-70729534D01*
X129624666Y-70739000D01*
X129580099Y-70732456D01*
X129561166Y-70707250D01*
X129557479Y-70692443D01*
X129529416Y-70675500D01*
X129514610Y-70671812D01*
X129497666Y-70643750D01*
X129501130Y-70628982D01*
X129527653Y-70612000D01*
X129540439Y-70610059D01*
X129565149Y-70589468D01*
X129569855Y-70583471D01*
X129605389Y-70567151D01*
X129662163Y-70554931D01*
X129685597Y-70551145D01*
X129732866Y-70538305D01*
X129751666Y-70524546D01*
X129751671Y-70524328D01*
X129770570Y-70511494D01*
X129815166Y-70506167D01*
X129815922Y-70506168D01*
G37*
X129815922Y-70506168D02*
X129860262Y-70511638D01*
X129878666Y-70524546D01*
X129881433Y-70529491D01*
X129912302Y-70543502D01*
X129966384Y-70554691D01*
X129986604Y-70557908D01*
X130039600Y-70571761D01*
X130067137Y-70587550D01*
X130091154Y-70605585D01*
X130138170Y-70623200D01*
X130178117Y-70638447D01*
X130196166Y-70656628D01*
X130199731Y-70665289D01*
X130227916Y-70675500D01*
X130242723Y-70679188D01*
X130259666Y-70707250D01*
X130263354Y-70722057D01*
X130291416Y-70739000D01*
X130306223Y-70742688D01*
X130323166Y-70770750D01*
X130326854Y-70785557D01*
X130354916Y-70802500D01*
X130377200Y-70815587D01*
X130386666Y-70866000D01*
X130393210Y-70910568D01*
X130418416Y-70929500D01*
X130426782Y-70931259D01*
X130438477Y-70946847D01*
X130445622Y-70984235D01*
X130449193Y-71050258D01*
X130450166Y-71151750D01*
X130449915Y-71210310D01*
X130447688Y-71292175D01*
X130442347Y-71342189D01*
X130432915Y-71367186D01*
X130418416Y-71374000D01*
X130396133Y-71387087D01*
X130386666Y-71437500D01*
X130380123Y-71482068D01*
X130354916Y-71501000D01*
X130340110Y-71504688D01*
X130323166Y-71532750D01*
X130319294Y-71546216D01*
X130290697Y-71560345D01*
X130227916Y-71564500D01*
X130187517Y-71565791D01*
X130145132Y-71575323D01*
X130132666Y-71596250D01*
X130132416Y-71600075D01*
X130119002Y-71616918D01*
X130079410Y-71625561D01*
X130005666Y-71628000D01*
X129990364Y-71627937D01*
X129922995Y-71624584D01*
X129888420Y-71614686D01*
X129878666Y-71596250D01*
X129865580Y-71573966D01*
X129815166Y-71564500D01*
X129770599Y-71557956D01*
X129751666Y-71532750D01*
X129738580Y-71510466D01*
X129688166Y-71501000D01*
X129643599Y-71494456D01*
X129624666Y-71469250D01*
X129628354Y-71454443D01*
X129656416Y-71437500D01*
X129672202Y-71432963D01*
X129688166Y-71403455D01*
X129688700Y-71395195D01*
X129703479Y-71378666D01*
X129746163Y-71383967D01*
X129788303Y-71398465D01*
X129814955Y-71415991D01*
X129814998Y-71416060D01*
X129843020Y-71428705D01*
X129901606Y-71437897D01*
X129979108Y-71442457D01*
X130063875Y-71441205D01*
X130113090Y-71431491D01*
X130132666Y-71405750D01*
X130136354Y-71390943D01*
X130164416Y-71374000D01*
X130176953Y-71368927D01*
X130186573Y-71347497D01*
X130192443Y-71303184D01*
X130195370Y-71229510D01*
X130196166Y-71120000D01*
X130195532Y-71019705D01*
X130192854Y-70942744D01*
X130187314Y-70895791D01*
X130178105Y-70872368D01*
X130164416Y-70866000D01*
X130149610Y-70862312D01*
X130132666Y-70834250D01*
X130128979Y-70819443D01*
X130100916Y-70802500D01*
X130086110Y-70798812D01*
X130069166Y-70770750D01*
X130056080Y-70748466D01*
X130005666Y-70739000D01*
X129961099Y-70732456D01*
X129942166Y-70707250D01*
X129941916Y-70703424D01*
X129928502Y-70686582D01*
X129888910Y-70677938D01*
X129815166Y-70675500D01*
X129799864Y-70675562D01*
X129732495Y-70678916D01*
X129697920Y-70688814D01*
X129688166Y-70707250D01*
X129675080Y-70729534D01*
X129624666Y-70739000D01*
X129580099Y-70732456D01*
X129561166Y-70707250D01*
X129557479Y-70692443D01*
X129529416Y-70675500D01*
X129514610Y-70671812D01*
X129497666Y-70643750D01*
X129501130Y-70628982D01*
X129527653Y-70612000D01*
X129540439Y-70610059D01*
X129565149Y-70589468D01*
X129569855Y-70583471D01*
X129605389Y-70567151D01*
X129662163Y-70554931D01*
X129685597Y-70551145D01*
X129732866Y-70538305D01*
X129751666Y-70524546D01*
X129751671Y-70524328D01*
X129770570Y-70511494D01*
X129815166Y-70506167D01*
X129815922Y-70506168D01*
G36*
X132528522Y-70826055D02*
G01*
X132545666Y-70844833D01*
X132549249Y-70854570D01*
X132577416Y-70866000D01*
X132592223Y-70869688D01*
X132609166Y-70897750D01*
X132612854Y-70912557D01*
X132640916Y-70929500D01*
X132663200Y-70942587D01*
X132672666Y-70993000D01*
X132679210Y-71037568D01*
X132704416Y-71056500D01*
X132726700Y-71069587D01*
X132736166Y-71120000D01*
X132742710Y-71164568D01*
X132767916Y-71183500D01*
X132780105Y-71187137D01*
X132791993Y-71209361D01*
X132798003Y-71258514D01*
X132799666Y-71342250D01*
X132798939Y-71403190D01*
X132794494Y-71462633D01*
X132784664Y-71492684D01*
X132767916Y-71501000D01*
X132745633Y-71514087D01*
X132736166Y-71564500D01*
X132729623Y-71609068D01*
X132704416Y-71628000D01*
X132689610Y-71631688D01*
X132672666Y-71659750D01*
X132659580Y-71682034D01*
X132609166Y-71691500D01*
X132564599Y-71698043D01*
X132545666Y-71723250D01*
X132543942Y-71730795D01*
X132530127Y-71741078D01*
X132497526Y-71748051D01*
X132440255Y-71752304D01*
X132352430Y-71754424D01*
X132228166Y-71755000D01*
X132219649Y-71754997D01*
X132094584Y-71754117D01*
X132006340Y-71751339D01*
X131949730Y-71746205D01*
X131919568Y-71738259D01*
X131910666Y-71727044D01*
X131915970Y-71716056D01*
X131942833Y-71707500D01*
X131998423Y-71705202D01*
X132089402Y-71708470D01*
X132157470Y-71711116D01*
X132279354Y-71711073D01*
X132385816Y-71705006D01*
X132470155Y-71693656D01*
X132525672Y-71677762D01*
X132545666Y-71658065D01*
X132549335Y-71644079D01*
X132577416Y-71628000D01*
X132592223Y-71624312D01*
X132609166Y-71596250D01*
X132612854Y-71581443D01*
X132640916Y-71564500D01*
X132655723Y-71560812D01*
X132672666Y-71532750D01*
X132676354Y-71517943D01*
X132704416Y-71501000D01*
X132716605Y-71497363D01*
X132728493Y-71475139D01*
X132734503Y-71425986D01*
X132736166Y-71342250D01*
X132735439Y-71281309D01*
X132730994Y-71221867D01*
X132721164Y-71191816D01*
X132704416Y-71183500D01*
X132682133Y-71170413D01*
X132672666Y-71120000D01*
X132666123Y-71075432D01*
X132640916Y-71056500D01*
X132618633Y-71043413D01*
X132609166Y-70993000D01*
X132602623Y-70948432D01*
X132577416Y-70929500D01*
X132562610Y-70925812D01*
X132545666Y-70897750D01*
X132541979Y-70882943D01*
X132513916Y-70866000D01*
X132499311Y-70863612D01*
X132482166Y-70844833D01*
X132485749Y-70835096D01*
X132513916Y-70823667D01*
X132528522Y-70826055D01*
G37*
X132528522Y-70826055D02*
X132545666Y-70844833D01*
X132549249Y-70854570D01*
X132577416Y-70866000D01*
X132592223Y-70869688D01*
X132609166Y-70897750D01*
X132612854Y-70912557D01*
X132640916Y-70929500D01*
X132663200Y-70942587D01*
X132672666Y-70993000D01*
X132679210Y-71037568D01*
X132704416Y-71056500D01*
X132726700Y-71069587D01*
X132736166Y-71120000D01*
X132742710Y-71164568D01*
X132767916Y-71183500D01*
X132780105Y-71187137D01*
X132791993Y-71209361D01*
X132798003Y-71258514D01*
X132799666Y-71342250D01*
X132798939Y-71403190D01*
X132794494Y-71462633D01*
X132784664Y-71492684D01*
X132767916Y-71501000D01*
X132745633Y-71514087D01*
X132736166Y-71564500D01*
X132729623Y-71609068D01*
X132704416Y-71628000D01*
X132689610Y-71631688D01*
X132672666Y-71659750D01*
X132659580Y-71682034D01*
X132609166Y-71691500D01*
X132564599Y-71698043D01*
X132545666Y-71723250D01*
X132543942Y-71730795D01*
X132530127Y-71741078D01*
X132497526Y-71748051D01*
X132440255Y-71752304D01*
X132352430Y-71754424D01*
X132228166Y-71755000D01*
X132219649Y-71754997D01*
X132094584Y-71754117D01*
X132006340Y-71751339D01*
X131949730Y-71746205D01*
X131919568Y-71738259D01*
X131910666Y-71727044D01*
X131915970Y-71716056D01*
X131942833Y-71707500D01*
X131998423Y-71705202D01*
X132089402Y-71708470D01*
X132157470Y-71711116D01*
X132279354Y-71711073D01*
X132385816Y-71705006D01*
X132470155Y-71693656D01*
X132525672Y-71677762D01*
X132545666Y-71658065D01*
X132549335Y-71644079D01*
X132577416Y-71628000D01*
X132592223Y-71624312D01*
X132609166Y-71596250D01*
X132612854Y-71581443D01*
X132640916Y-71564500D01*
X132655723Y-71560812D01*
X132672666Y-71532750D01*
X132676354Y-71517943D01*
X132704416Y-71501000D01*
X132716605Y-71497363D01*
X132728493Y-71475139D01*
X132734503Y-71425986D01*
X132736166Y-71342250D01*
X132735439Y-71281309D01*
X132730994Y-71221867D01*
X132721164Y-71191816D01*
X132704416Y-71183500D01*
X132682133Y-71170413D01*
X132672666Y-71120000D01*
X132666123Y-71075432D01*
X132640916Y-71056500D01*
X132618633Y-71043413D01*
X132609166Y-70993000D01*
X132602623Y-70948432D01*
X132577416Y-70929500D01*
X132562610Y-70925812D01*
X132545666Y-70897750D01*
X132541979Y-70882943D01*
X132513916Y-70866000D01*
X132499311Y-70863612D01*
X132482166Y-70844833D01*
X132485749Y-70835096D01*
X132513916Y-70823667D01*
X132528522Y-70826055D01*
G36*
X133053666Y-70675500D02*
G01*
X133053729Y-70690802D01*
X133057083Y-70758171D01*
X133066981Y-70792746D01*
X133085416Y-70802500D01*
X133097605Y-70806137D01*
X133109493Y-70828361D01*
X133115503Y-70877514D01*
X133117166Y-70961250D01*
X133117894Y-71022190D01*
X133122339Y-71081633D01*
X133132169Y-71111684D01*
X133148916Y-71120000D01*
X133152742Y-71120250D01*
X133169584Y-71133664D01*
X133178228Y-71173257D01*
X133180666Y-71247000D01*
X133180729Y-71262302D01*
X133184083Y-71329671D01*
X133193981Y-71364246D01*
X133212416Y-71374000D01*
X133227223Y-71377688D01*
X133244166Y-71405750D01*
X133244417Y-71409575D01*
X133257831Y-71426418D01*
X133297423Y-71435061D01*
X133371166Y-71437500D01*
X133386469Y-71437437D01*
X133453838Y-71434084D01*
X133488413Y-71424186D01*
X133498166Y-71405750D01*
X133498173Y-71405168D01*
X133516955Y-71380974D01*
X133567031Y-71374715D01*
X133641041Y-71387341D01*
X133645573Y-71388773D01*
X133676390Y-71414257D01*
X133690018Y-71451951D01*
X133684260Y-71486114D01*
X133656916Y-71501000D01*
X133642110Y-71504688D01*
X133625166Y-71532750D01*
X133612080Y-71555034D01*
X133561666Y-71564500D01*
X133517099Y-71571043D01*
X133498166Y-71596250D01*
X133497916Y-71600075D01*
X133484502Y-71616918D01*
X133444910Y-71625561D01*
X133371166Y-71628000D01*
X133355864Y-71627937D01*
X133288495Y-71624584D01*
X133253920Y-71614686D01*
X133244166Y-71596250D01*
X133231080Y-71573966D01*
X133180666Y-71564500D01*
X133136099Y-71557956D01*
X133117166Y-71532750D01*
X133113479Y-71517943D01*
X133085416Y-71501000D01*
X133070610Y-71497312D01*
X133053666Y-71469250D01*
X133049979Y-71454443D01*
X133021916Y-71437500D01*
X132999633Y-71424413D01*
X132990166Y-71374000D01*
X132983623Y-71329432D01*
X132958416Y-71310500D01*
X132946228Y-71306863D01*
X132934340Y-71284639D01*
X132928330Y-71235486D01*
X132926666Y-71151750D01*
X132925939Y-71090809D01*
X132921494Y-71031367D01*
X132911664Y-71001316D01*
X132894916Y-70993000D01*
X132882728Y-70989363D01*
X132870840Y-70967139D01*
X132864830Y-70917986D01*
X132863166Y-70834250D01*
X132862439Y-70773309D01*
X132857994Y-70713867D01*
X132848164Y-70683816D01*
X132831416Y-70675500D01*
X132809133Y-70662413D01*
X132799666Y-70612000D01*
X132799666Y-70548500D01*
X133053666Y-70548500D01*
X133053666Y-70675500D01*
G37*
X133053666Y-70675500D02*
X133053729Y-70690802D01*
X133057083Y-70758171D01*
X133066981Y-70792746D01*
X133085416Y-70802500D01*
X133097605Y-70806137D01*
X133109493Y-70828361D01*
X133115503Y-70877514D01*
X133117166Y-70961250D01*
X133117894Y-71022190D01*
X133122339Y-71081633D01*
X133132169Y-71111684D01*
X133148916Y-71120000D01*
X133152742Y-71120250D01*
X133169584Y-71133664D01*
X133178228Y-71173257D01*
X133180666Y-71247000D01*
X133180729Y-71262302D01*
X133184083Y-71329671D01*
X133193981Y-71364246D01*
X133212416Y-71374000D01*
X133227223Y-71377688D01*
X133244166Y-71405750D01*
X133244417Y-71409575D01*
X133257831Y-71426418D01*
X133297423Y-71435061D01*
X133371166Y-71437500D01*
X133386469Y-71437437D01*
X133453838Y-71434084D01*
X133488413Y-71424186D01*
X133498166Y-71405750D01*
X133498173Y-71405168D01*
X133516955Y-71380974D01*
X133567031Y-71374715D01*
X133641041Y-71387341D01*
X133645573Y-71388773D01*
X133676390Y-71414257D01*
X133690018Y-71451951D01*
X133684260Y-71486114D01*
X133656916Y-71501000D01*
X133642110Y-71504688D01*
X133625166Y-71532750D01*
X133612080Y-71555034D01*
X133561666Y-71564500D01*
X133517099Y-71571043D01*
X133498166Y-71596250D01*
X133497916Y-71600075D01*
X133484502Y-71616918D01*
X133444910Y-71625561D01*
X133371166Y-71628000D01*
X133355864Y-71627937D01*
X133288495Y-71624584D01*
X133253920Y-71614686D01*
X133244166Y-71596250D01*
X133231080Y-71573966D01*
X133180666Y-71564500D01*
X133136099Y-71557956D01*
X133117166Y-71532750D01*
X133113479Y-71517943D01*
X133085416Y-71501000D01*
X133070610Y-71497312D01*
X133053666Y-71469250D01*
X133049979Y-71454443D01*
X133021916Y-71437500D01*
X132999633Y-71424413D01*
X132990166Y-71374000D01*
X132983623Y-71329432D01*
X132958416Y-71310500D01*
X132946228Y-71306863D01*
X132934340Y-71284639D01*
X132928330Y-71235486D01*
X132926666Y-71151750D01*
X132925939Y-71090809D01*
X132921494Y-71031367D01*
X132911664Y-71001316D01*
X132894916Y-70993000D01*
X132882728Y-70989363D01*
X132870840Y-70967139D01*
X132864830Y-70917986D01*
X132863166Y-70834250D01*
X132862439Y-70773309D01*
X132857994Y-70713867D01*
X132848164Y-70683816D01*
X132831416Y-70675500D01*
X132809133Y-70662413D01*
X132799666Y-70612000D01*
X132799666Y-70548500D01*
X133053666Y-70548500D01*
X133053666Y-70675500D01*
G36*
X131703223Y-71568188D02*
G01*
X131720166Y-71596250D01*
X131716479Y-71611057D01*
X131688416Y-71628000D01*
X131673610Y-71624312D01*
X131656666Y-71596250D01*
X131660354Y-71581443D01*
X131688416Y-71564500D01*
X131703223Y-71568188D01*
G37*
X131703223Y-71568188D02*
X131720166Y-71596250D01*
X131716479Y-71611057D01*
X131688416Y-71628000D01*
X131673610Y-71624312D01*
X131656666Y-71596250D01*
X131660354Y-71581443D01*
X131688416Y-71564500D01*
X131703223Y-71568188D01*
G36*
X131830223Y-71631688D02*
G01*
X131847166Y-71659750D01*
X131843479Y-71674557D01*
X131815416Y-71691500D01*
X131800610Y-71687812D01*
X131783666Y-71659750D01*
X131787354Y-71644943D01*
X131815416Y-71628000D01*
X131830223Y-71631688D01*
G37*
X131830223Y-71631688D02*
X131847166Y-71659750D01*
X131843479Y-71674557D01*
X131815416Y-71691500D01*
X131800610Y-71687812D01*
X131783666Y-71659750D01*
X131787354Y-71644943D01*
X131815416Y-71628000D01*
X131830223Y-71631688D01*
G36*
X126785384Y-70424196D02*
G01*
X126862269Y-70428316D01*
X126910041Y-70434841D01*
X126925308Y-70439890D01*
X126946187Y-70457511D01*
X126955522Y-70494204D01*
X126957666Y-70561552D01*
X126960249Y-70627637D01*
X126970089Y-70664862D01*
X126989416Y-70675500D01*
X126993242Y-70675750D01*
X127010084Y-70689164D01*
X127018728Y-70728757D01*
X127021166Y-70802500D01*
X127021229Y-70817802D01*
X127024583Y-70885171D01*
X127034481Y-70919746D01*
X127052916Y-70929500D01*
X127056742Y-70929750D01*
X127073584Y-70943164D01*
X127082228Y-70982757D01*
X127084666Y-71056500D01*
X127084729Y-71071802D01*
X127088083Y-71139171D01*
X127097981Y-71173746D01*
X127116416Y-71183500D01*
X127120242Y-71183750D01*
X127137084Y-71197164D01*
X127145728Y-71236757D01*
X127148166Y-71310500D01*
X127148229Y-71325802D01*
X127151583Y-71393171D01*
X127161481Y-71427746D01*
X127179916Y-71437500D01*
X127183742Y-71437750D01*
X127200584Y-71451164D01*
X127209228Y-71490757D01*
X127211666Y-71564500D01*
X127211729Y-71579802D01*
X127215083Y-71647171D01*
X127224981Y-71681746D01*
X127243416Y-71691500D01*
X127247242Y-71691750D01*
X127264084Y-71705164D01*
X127272728Y-71744757D01*
X127275166Y-71818500D01*
X127275229Y-71833802D01*
X127278583Y-71901171D01*
X127288481Y-71935746D01*
X127306916Y-71945500D01*
X127320383Y-71949373D01*
X127334511Y-71977969D01*
X127338666Y-72040750D01*
X127338666Y-72136000D01*
X126671916Y-72136000D01*
X126604168Y-72135978D01*
X126429767Y-72135597D01*
X126292132Y-72134588D01*
X126187096Y-72132753D01*
X126110496Y-72129895D01*
X126058168Y-72125813D01*
X126025946Y-72120311D01*
X126009667Y-72113189D01*
X126005166Y-72104250D01*
X126001479Y-72089443D01*
X125973416Y-72072500D01*
X125959950Y-72068627D01*
X125945822Y-72040030D01*
X125941666Y-71977250D01*
X125940376Y-71936851D01*
X125930843Y-71894465D01*
X125909916Y-71882000D01*
X125889207Y-71871643D01*
X125878166Y-71829083D01*
X125878166Y-71776167D01*
X126703666Y-71776167D01*
X126703666Y-71638583D01*
X126703434Y-71607359D01*
X126699624Y-71543005D01*
X126689726Y-71510185D01*
X126671916Y-71501000D01*
X126668091Y-71500749D01*
X126651249Y-71487335D01*
X126642605Y-71447743D01*
X126640166Y-71374000D01*
X126640104Y-71358698D01*
X126636750Y-71291328D01*
X126626852Y-71256753D01*
X126608416Y-71247000D01*
X126604591Y-71246749D01*
X126587749Y-71233335D01*
X126579105Y-71193743D01*
X126576666Y-71120000D01*
X126576604Y-71104698D01*
X126573250Y-71037328D01*
X126563352Y-71002753D01*
X126544916Y-70993000D01*
X126541091Y-70992749D01*
X126524249Y-70979335D01*
X126515605Y-70939743D01*
X126513166Y-70866000D01*
X126513104Y-70850698D01*
X126509750Y-70783328D01*
X126499852Y-70748753D01*
X126481416Y-70739000D01*
X126477591Y-70738749D01*
X126460749Y-70725335D01*
X126452105Y-70685743D01*
X126449666Y-70612000D01*
X126449604Y-70596698D01*
X126446250Y-70529328D01*
X126436352Y-70494753D01*
X126417916Y-70485000D01*
X126411247Y-70484755D01*
X126387541Y-70473436D01*
X126396214Y-70453137D01*
X126433791Y-70434841D01*
X126449776Y-70431762D01*
X126511583Y-70426264D01*
X126596888Y-70423170D01*
X126692539Y-70422481D01*
X126785384Y-70424196D01*
G37*
X126785384Y-70424196D02*
X126862269Y-70428316D01*
X126910041Y-70434841D01*
X126925308Y-70439890D01*
X126946187Y-70457511D01*
X126955522Y-70494204D01*
X126957666Y-70561552D01*
X126960249Y-70627637D01*
X126970089Y-70664862D01*
X126989416Y-70675500D01*
X126993242Y-70675750D01*
X127010084Y-70689164D01*
X127018728Y-70728757D01*
X127021166Y-70802500D01*
X127021229Y-70817802D01*
X127024583Y-70885171D01*
X127034481Y-70919746D01*
X127052916Y-70929500D01*
X127056742Y-70929750D01*
X127073584Y-70943164D01*
X127082228Y-70982757D01*
X127084666Y-71056500D01*
X127084729Y-71071802D01*
X127088083Y-71139171D01*
X127097981Y-71173746D01*
X127116416Y-71183500D01*
X127120242Y-71183750D01*
X127137084Y-71197164D01*
X127145728Y-71236757D01*
X127148166Y-71310500D01*
X127148229Y-71325802D01*
X127151583Y-71393171D01*
X127161481Y-71427746D01*
X127179916Y-71437500D01*
X127183742Y-71437750D01*
X127200584Y-71451164D01*
X127209228Y-71490757D01*
X127211666Y-71564500D01*
X127211729Y-71579802D01*
X127215083Y-71647171D01*
X127224981Y-71681746D01*
X127243416Y-71691500D01*
X127247242Y-71691750D01*
X127264084Y-71705164D01*
X127272728Y-71744757D01*
X127275166Y-71818500D01*
X127275229Y-71833802D01*
X127278583Y-71901171D01*
X127288481Y-71935746D01*
X127306916Y-71945500D01*
X127320383Y-71949373D01*
X127334511Y-71977969D01*
X127338666Y-72040750D01*
X127338666Y-72136000D01*
X126671916Y-72136000D01*
X126604168Y-72135978D01*
X126429767Y-72135597D01*
X126292132Y-72134588D01*
X126187096Y-72132753D01*
X126110496Y-72129895D01*
X126058168Y-72125813D01*
X126025946Y-72120311D01*
X126009667Y-72113189D01*
X126005166Y-72104250D01*
X126001479Y-72089443D01*
X125973416Y-72072500D01*
X125959950Y-72068627D01*
X125945822Y-72040030D01*
X125941666Y-71977250D01*
X125940376Y-71936851D01*
X125930843Y-71894465D01*
X125909916Y-71882000D01*
X125889207Y-71871643D01*
X125878166Y-71829083D01*
X125878166Y-71776167D01*
X126703666Y-71776167D01*
X126703666Y-71638583D01*
X126703434Y-71607359D01*
X126699624Y-71543005D01*
X126689726Y-71510185D01*
X126671916Y-71501000D01*
X126668091Y-71500749D01*
X126651249Y-71487335D01*
X126642605Y-71447743D01*
X126640166Y-71374000D01*
X126640104Y-71358698D01*
X126636750Y-71291328D01*
X126626852Y-71256753D01*
X126608416Y-71247000D01*
X126604591Y-71246749D01*
X126587749Y-71233335D01*
X126579105Y-71193743D01*
X126576666Y-71120000D01*
X126576604Y-71104698D01*
X126573250Y-71037328D01*
X126563352Y-71002753D01*
X126544916Y-70993000D01*
X126541091Y-70992749D01*
X126524249Y-70979335D01*
X126515605Y-70939743D01*
X126513166Y-70866000D01*
X126513104Y-70850698D01*
X126509750Y-70783328D01*
X126499852Y-70748753D01*
X126481416Y-70739000D01*
X126477591Y-70738749D01*
X126460749Y-70725335D01*
X126452105Y-70685743D01*
X126449666Y-70612000D01*
X126449604Y-70596698D01*
X126446250Y-70529328D01*
X126436352Y-70494753D01*
X126417916Y-70485000D01*
X126411247Y-70484755D01*
X126387541Y-70473436D01*
X126396214Y-70453137D01*
X126433791Y-70434841D01*
X126449776Y-70431762D01*
X126511583Y-70426264D01*
X126596888Y-70423170D01*
X126692539Y-70422481D01*
X126785384Y-70424196D01*
G36*
X131273290Y-69744262D02*
G01*
X131373887Y-69746163D01*
X131455290Y-69750128D01*
X131509787Y-69755668D01*
X131529666Y-69762294D01*
X131529981Y-69763489D01*
X131553806Y-69774293D01*
X131608059Y-69785405D01*
X131682219Y-69794599D01*
X131690039Y-69795348D01*
X131765013Y-69804905D01*
X131820954Y-69816158D01*
X131846261Y-69826827D01*
X131860775Y-69835422D01*
X131908002Y-69848898D01*
X131974166Y-69860583D01*
X132021893Y-69868580D01*
X132076804Y-69882700D01*
X132103408Y-69896500D01*
X132108618Y-69901398D01*
X132146289Y-69916658D01*
X132203949Y-69928475D01*
X132218545Y-69930619D01*
X132274136Y-69944767D01*
X132288555Y-69959944D01*
X132262436Y-69972053D01*
X132196416Y-69977000D01*
X132156017Y-69975709D01*
X132113632Y-69966177D01*
X132101166Y-69945250D01*
X132097022Y-69934635D01*
X132078818Y-69925660D01*
X132040844Y-69919571D01*
X131977462Y-69915856D01*
X131883032Y-69914004D01*
X131751916Y-69913500D01*
X131635156Y-69913877D01*
X131536423Y-69915531D01*
X131469446Y-69918984D01*
X131428587Y-69924746D01*
X131408207Y-69933330D01*
X131402666Y-69945250D01*
X131402416Y-69949075D01*
X131389002Y-69965918D01*
X131349410Y-69974561D01*
X131275666Y-69977000D01*
X131260364Y-69977062D01*
X131192995Y-69980416D01*
X131158420Y-69990314D01*
X131148666Y-70008750D01*
X131135580Y-70031034D01*
X131085166Y-70040500D01*
X131040599Y-70047043D01*
X131021666Y-70072250D01*
X131017979Y-70087057D01*
X130989916Y-70104000D01*
X130975110Y-70107688D01*
X130958166Y-70135750D01*
X130945080Y-70158034D01*
X130894666Y-70167500D01*
X130861151Y-70169445D01*
X130836411Y-70186023D01*
X130831166Y-70231000D01*
X130824623Y-70275568D01*
X130799416Y-70294500D01*
X130784610Y-70298188D01*
X130767666Y-70326250D01*
X130766742Y-70331528D01*
X130756034Y-70341291D01*
X130729120Y-70348378D01*
X130680775Y-70353190D01*
X130605776Y-70356130D01*
X130498898Y-70357599D01*
X130354916Y-70358000D01*
X130286301Y-70357929D01*
X130159380Y-70357105D01*
X130067251Y-70355035D01*
X130004690Y-70351316D01*
X129966472Y-70345547D01*
X129947372Y-70337325D01*
X129942166Y-70326250D01*
X129945854Y-70311443D01*
X129973916Y-70294500D01*
X129988723Y-70290812D01*
X130005666Y-70262750D01*
X130009354Y-70247943D01*
X130037416Y-70231000D01*
X130052223Y-70227312D01*
X130069166Y-70199250D01*
X130072854Y-70184443D01*
X130100916Y-70167500D01*
X130115723Y-70163812D01*
X130132666Y-70135750D01*
X130136354Y-70120943D01*
X130164416Y-70104000D01*
X130178997Y-70101810D01*
X130196166Y-70084515D01*
X130196178Y-70084133D01*
X130215229Y-70066442D01*
X130259666Y-70051083D01*
X130260652Y-70050863D01*
X130304837Y-70032175D01*
X130323166Y-70007068D01*
X130326835Y-69993080D01*
X130354916Y-69977000D01*
X130369489Y-69974881D01*
X130386666Y-69958128D01*
X130402714Y-69941102D01*
X130444663Y-69924700D01*
X130487162Y-69909352D01*
X130515696Y-69889050D01*
X130520938Y-69883963D01*
X130558724Y-69868209D01*
X130616449Y-69856191D01*
X130638304Y-69852744D01*
X130685396Y-69840691D01*
X130704166Y-69828124D01*
X130718271Y-69819044D01*
X130764281Y-69807306D01*
X130831166Y-69797083D01*
X130889134Y-69788237D01*
X130938990Y-69775535D01*
X130958166Y-69763255D01*
X130959676Y-69761293D01*
X130989637Y-69754573D01*
X131052138Y-69749135D01*
X131139468Y-69745494D01*
X131243916Y-69744167D01*
X131273290Y-69744262D01*
G37*
X131273290Y-69744262D02*
X131373887Y-69746163D01*
X131455290Y-69750128D01*
X131509787Y-69755668D01*
X131529666Y-69762294D01*
X131529981Y-69763489D01*
X131553806Y-69774293D01*
X131608059Y-69785405D01*
X131682219Y-69794599D01*
X131690039Y-69795348D01*
X131765013Y-69804905D01*
X131820954Y-69816158D01*
X131846261Y-69826827D01*
X131860775Y-69835422D01*
X131908002Y-69848898D01*
X131974166Y-69860583D01*
X132021893Y-69868580D01*
X132076804Y-69882700D01*
X132103408Y-69896500D01*
X132108618Y-69901398D01*
X132146289Y-69916658D01*
X132203949Y-69928475D01*
X132218545Y-69930619D01*
X132274136Y-69944767D01*
X132288555Y-69959944D01*
X132262436Y-69972053D01*
X132196416Y-69977000D01*
X132156017Y-69975709D01*
X132113632Y-69966177D01*
X132101166Y-69945250D01*
X132097022Y-69934635D01*
X132078818Y-69925660D01*
X132040844Y-69919571D01*
X131977462Y-69915856D01*
X131883032Y-69914004D01*
X131751916Y-69913500D01*
X131635156Y-69913877D01*
X131536423Y-69915531D01*
X131469446Y-69918984D01*
X131428587Y-69924746D01*
X131408207Y-69933330D01*
X131402666Y-69945250D01*
X131402416Y-69949075D01*
X131389002Y-69965918D01*
X131349410Y-69974561D01*
X131275666Y-69977000D01*
X131260364Y-69977062D01*
X131192995Y-69980416D01*
X131158420Y-69990314D01*
X131148666Y-70008750D01*
X131135580Y-70031034D01*
X131085166Y-70040500D01*
X131040599Y-70047043D01*
X131021666Y-70072250D01*
X131017979Y-70087057D01*
X130989916Y-70104000D01*
X130975110Y-70107688D01*
X130958166Y-70135750D01*
X130945080Y-70158034D01*
X130894666Y-70167500D01*
X130861151Y-70169445D01*
X130836411Y-70186023D01*
X130831166Y-70231000D01*
X130824623Y-70275568D01*
X130799416Y-70294500D01*
X130784610Y-70298188D01*
X130767666Y-70326250D01*
X130766742Y-70331528D01*
X130756034Y-70341291D01*
X130729120Y-70348378D01*
X130680775Y-70353190D01*
X130605776Y-70356130D01*
X130498898Y-70357599D01*
X130354916Y-70358000D01*
X130286301Y-70357929D01*
X130159380Y-70357105D01*
X130067251Y-70355035D01*
X130004690Y-70351316D01*
X129966472Y-70345547D01*
X129947372Y-70337325D01*
X129942166Y-70326250D01*
X129945854Y-70311443D01*
X129973916Y-70294500D01*
X129988723Y-70290812D01*
X130005666Y-70262750D01*
X130009354Y-70247943D01*
X130037416Y-70231000D01*
X130052223Y-70227312D01*
X130069166Y-70199250D01*
X130072854Y-70184443D01*
X130100916Y-70167500D01*
X130115723Y-70163812D01*
X130132666Y-70135750D01*
X130136354Y-70120943D01*
X130164416Y-70104000D01*
X130178997Y-70101810D01*
X130196166Y-70084515D01*
X130196178Y-70084133D01*
X130215229Y-70066442D01*
X130259666Y-70051083D01*
X130260652Y-70050863D01*
X130304837Y-70032175D01*
X130323166Y-70007068D01*
X130326835Y-69993080D01*
X130354916Y-69977000D01*
X130369489Y-69974881D01*
X130386666Y-69958128D01*
X130402714Y-69941102D01*
X130444663Y-69924700D01*
X130487162Y-69909352D01*
X130515696Y-69889050D01*
X130520938Y-69883963D01*
X130558724Y-69868209D01*
X130616449Y-69856191D01*
X130638304Y-69852744D01*
X130685396Y-69840691D01*
X130704166Y-69828124D01*
X130718271Y-69819044D01*
X130764281Y-69807306D01*
X130831166Y-69797083D01*
X130889134Y-69788237D01*
X130938990Y-69775535D01*
X130958166Y-69763255D01*
X130959676Y-69761293D01*
X130989637Y-69754573D01*
X131052138Y-69749135D01*
X131139468Y-69745494D01*
X131243916Y-69744167D01*
X131273290Y-69744262D01*
G36*
X119782166Y-71818500D02*
G01*
X119782229Y-71833802D01*
X119785583Y-71901171D01*
X119795481Y-71935746D01*
X119813916Y-71945500D01*
X119827383Y-71949373D01*
X119841511Y-71977969D01*
X119845666Y-72040750D01*
X119845666Y-72136000D01*
X119305916Y-72136000D01*
X119225740Y-72135948D01*
X119076171Y-72135367D01*
X118962251Y-72133922D01*
X118879376Y-72131341D01*
X118822936Y-72127355D01*
X118788326Y-72121692D01*
X118770939Y-72114080D01*
X118766166Y-72104250D01*
X118765916Y-72100424D01*
X118752502Y-72083582D01*
X118712910Y-72074938D01*
X118639166Y-72072500D01*
X118623864Y-72072437D01*
X118556495Y-72069084D01*
X118521920Y-72059186D01*
X118512166Y-72040750D01*
X118499080Y-72018466D01*
X118448666Y-72009000D01*
X118404099Y-72002456D01*
X118385166Y-71977250D01*
X118372080Y-71954966D01*
X118321666Y-71945500D01*
X118277099Y-71938956D01*
X118258166Y-71913750D01*
X118254479Y-71898943D01*
X118226416Y-71882000D01*
X118204133Y-71868913D01*
X118194666Y-71818500D01*
X118188123Y-71773932D01*
X118162916Y-71755000D01*
X118149450Y-71751127D01*
X118135322Y-71722530D01*
X118131166Y-71659750D01*
X118129876Y-71619351D01*
X118120343Y-71576965D01*
X118099416Y-71564500D01*
X118090202Y-71562205D01*
X118639166Y-71562205D01*
X118640414Y-71630680D01*
X118647359Y-71670581D01*
X118664707Y-71690411D01*
X118697163Y-71701467D01*
X118740007Y-71717655D01*
X118770447Y-71740803D01*
X118772049Y-71742503D01*
X118803753Y-71752352D01*
X118865151Y-71760713D01*
X118945375Y-71767080D01*
X119033554Y-71770947D01*
X119118818Y-71771810D01*
X119190299Y-71769163D01*
X119237125Y-71762500D01*
X119247650Y-71758342D01*
X119270874Y-71732955D01*
X119269567Y-71704800D01*
X119242416Y-71691500D01*
X119238591Y-71691249D01*
X119221749Y-71677835D01*
X119213105Y-71638243D01*
X119210666Y-71564500D01*
X119210604Y-71549198D01*
X119207250Y-71481828D01*
X119197352Y-71447253D01*
X119178916Y-71437500D01*
X119164110Y-71433812D01*
X119147166Y-71405750D01*
X119143529Y-71393562D01*
X119121305Y-71381673D01*
X119072153Y-71375663D01*
X118988416Y-71374000D01*
X118927476Y-71374727D01*
X118868034Y-71379172D01*
X118837982Y-71389003D01*
X118829666Y-71405750D01*
X118825794Y-71419216D01*
X118797197Y-71433345D01*
X118734416Y-71437500D01*
X118639166Y-71437500D01*
X118639166Y-71562205D01*
X118090202Y-71562205D01*
X118084610Y-71560812D01*
X118067666Y-71532750D01*
X118071354Y-71517943D01*
X118099416Y-71501000D01*
X118121700Y-71487913D01*
X118131166Y-71437500D01*
X118137710Y-71392932D01*
X118162916Y-71374000D01*
X118177723Y-71370312D01*
X118194666Y-71342250D01*
X118198354Y-71327443D01*
X118226416Y-71310500D01*
X118241223Y-71306812D01*
X118258166Y-71278750D01*
X118261854Y-71263943D01*
X118289916Y-71247000D01*
X118304723Y-71243312D01*
X118321666Y-71215250D01*
X118317979Y-71200443D01*
X118289916Y-71183500D01*
X118275110Y-71179812D01*
X118258166Y-71151750D01*
X118245080Y-71129466D01*
X118194666Y-71120000D01*
X118150099Y-71113456D01*
X118131166Y-71088250D01*
X118127479Y-71073443D01*
X118099416Y-71056500D01*
X118085950Y-71052627D01*
X118071822Y-71024030D01*
X118067666Y-70961250D01*
X118066376Y-70920851D01*
X118061180Y-70897750D01*
X118575666Y-70897750D01*
X118576957Y-70938149D01*
X118586490Y-70980534D01*
X118607416Y-70993000D01*
X118622162Y-70996324D01*
X118639166Y-71021873D01*
X118640586Y-71028087D01*
X118671034Y-71049155D01*
X118737371Y-71064206D01*
X118785180Y-71069570D01*
X118885653Y-71074737D01*
X118978479Y-71072552D01*
X119046625Y-71063076D01*
X119056586Y-71058568D01*
X119078129Y-71027704D01*
X119084983Y-70984526D01*
X119076471Y-70946101D01*
X119051916Y-70929500D01*
X119038450Y-70925627D01*
X119024322Y-70897030D01*
X119020166Y-70834250D01*
X119020166Y-70739000D01*
X118829666Y-70739000D01*
X118815823Y-70739017D01*
X118727684Y-70740599D01*
X118673685Y-70745612D01*
X118646590Y-70755260D01*
X118639166Y-70770750D01*
X118635479Y-70785557D01*
X118607416Y-70802500D01*
X118593950Y-70806373D01*
X118579822Y-70834969D01*
X118575666Y-70897750D01*
X118061180Y-70897750D01*
X118056843Y-70878465D01*
X118035916Y-70866000D01*
X118013633Y-70852913D01*
X118004166Y-70802500D01*
X118010710Y-70757932D01*
X118035916Y-70739000D01*
X118058200Y-70725913D01*
X118067666Y-70675500D01*
X118074210Y-70630932D01*
X118099416Y-70612000D01*
X118114223Y-70608312D01*
X118131166Y-70580250D01*
X118134630Y-70565482D01*
X118161153Y-70548500D01*
X118173933Y-70546629D01*
X118198361Y-70526834D01*
X118201829Y-70521924D01*
X118235161Y-70505120D01*
X118290083Y-70491811D01*
X118307106Y-70488708D01*
X118360636Y-70473093D01*
X118389676Y-70455268D01*
X118412278Y-70448577D01*
X118470481Y-70441972D01*
X118556857Y-70435973D01*
X118664154Y-70430755D01*
X118785119Y-70426495D01*
X118912501Y-70423369D01*
X119039046Y-70421554D01*
X119157503Y-70421225D01*
X119260619Y-70422558D01*
X119341141Y-70425731D01*
X119391817Y-70430918D01*
X119392976Y-70431136D01*
X119434254Y-70440864D01*
X119455556Y-70457781D01*
X119463490Y-70493603D01*
X119464666Y-70560042D01*
X119467349Y-70628092D01*
X119477200Y-70664977D01*
X119496416Y-70675500D01*
X119500242Y-70675750D01*
X119517084Y-70689164D01*
X119525728Y-70728757D01*
X119528166Y-70802500D01*
X119528229Y-70817802D01*
X119531583Y-70885171D01*
X119541481Y-70919746D01*
X119559916Y-70929500D01*
X119563742Y-70929750D01*
X119580584Y-70943164D01*
X119589228Y-70982757D01*
X119589287Y-70984526D01*
X119591666Y-71056500D01*
X119591729Y-71071802D01*
X119595083Y-71139171D01*
X119604981Y-71173746D01*
X119623416Y-71183500D01*
X119627242Y-71183750D01*
X119644084Y-71197164D01*
X119652728Y-71236757D01*
X119655166Y-71310500D01*
X119655229Y-71325802D01*
X119658583Y-71393171D01*
X119668481Y-71427746D01*
X119686916Y-71437500D01*
X119690742Y-71437750D01*
X119707584Y-71451164D01*
X119716228Y-71490757D01*
X119718666Y-71564500D01*
X119718729Y-71579802D01*
X119722083Y-71647171D01*
X119731981Y-71681746D01*
X119750416Y-71691500D01*
X119754242Y-71691750D01*
X119771084Y-71705164D01*
X119777152Y-71732955D01*
X119779728Y-71744757D01*
X119782166Y-71818500D01*
G37*
X119782166Y-71818500D02*
X119782229Y-71833802D01*
X119785583Y-71901171D01*
X119795481Y-71935746D01*
X119813916Y-71945500D01*
X119827383Y-71949373D01*
X119841511Y-71977969D01*
X119845666Y-72040750D01*
X119845666Y-72136000D01*
X119305916Y-72136000D01*
X119225740Y-72135948D01*
X119076171Y-72135367D01*
X118962251Y-72133922D01*
X118879376Y-72131341D01*
X118822936Y-72127355D01*
X118788326Y-72121692D01*
X118770939Y-72114080D01*
X118766166Y-72104250D01*
X118765916Y-72100424D01*
X118752502Y-72083582D01*
X118712910Y-72074938D01*
X118639166Y-72072500D01*
X118623864Y-72072437D01*
X118556495Y-72069084D01*
X118521920Y-72059186D01*
X118512166Y-72040750D01*
X118499080Y-72018466D01*
X118448666Y-72009000D01*
X118404099Y-72002456D01*
X118385166Y-71977250D01*
X118372080Y-71954966D01*
X118321666Y-71945500D01*
X118277099Y-71938956D01*
X118258166Y-71913750D01*
X118254479Y-71898943D01*
X118226416Y-71882000D01*
X118204133Y-71868913D01*
X118194666Y-71818500D01*
X118188123Y-71773932D01*
X118162916Y-71755000D01*
X118149450Y-71751127D01*
X118135322Y-71722530D01*
X118131166Y-71659750D01*
X118129876Y-71619351D01*
X118120343Y-71576965D01*
X118099416Y-71564500D01*
X118090202Y-71562205D01*
X118639166Y-71562205D01*
X118640414Y-71630680D01*
X118647359Y-71670581D01*
X118664707Y-71690411D01*
X118697163Y-71701467D01*
X118740007Y-71717655D01*
X118770447Y-71740803D01*
X118772049Y-71742503D01*
X118803753Y-71752352D01*
X118865151Y-71760713D01*
X118945375Y-71767080D01*
X119033554Y-71770947D01*
X119118818Y-71771810D01*
X119190299Y-71769163D01*
X119237125Y-71762500D01*
X119247650Y-71758342D01*
X119270874Y-71732955D01*
X119269567Y-71704800D01*
X119242416Y-71691500D01*
X119238591Y-71691249D01*
X119221749Y-71677835D01*
X119213105Y-71638243D01*
X119210666Y-71564500D01*
X119210604Y-71549198D01*
X119207250Y-71481828D01*
X119197352Y-71447253D01*
X119178916Y-71437500D01*
X119164110Y-71433812D01*
X119147166Y-71405750D01*
X119143529Y-71393562D01*
X119121305Y-71381673D01*
X119072153Y-71375663D01*
X118988416Y-71374000D01*
X118927476Y-71374727D01*
X118868034Y-71379172D01*
X118837982Y-71389003D01*
X118829666Y-71405750D01*
X118825794Y-71419216D01*
X118797197Y-71433345D01*
X118734416Y-71437500D01*
X118639166Y-71437500D01*
X118639166Y-71562205D01*
X118090202Y-71562205D01*
X118084610Y-71560812D01*
X118067666Y-71532750D01*
X118071354Y-71517943D01*
X118099416Y-71501000D01*
X118121700Y-71487913D01*
X118131166Y-71437500D01*
X118137710Y-71392932D01*
X118162916Y-71374000D01*
X118177723Y-71370312D01*
X118194666Y-71342250D01*
X118198354Y-71327443D01*
X118226416Y-71310500D01*
X118241223Y-71306812D01*
X118258166Y-71278750D01*
X118261854Y-71263943D01*
X118289916Y-71247000D01*
X118304723Y-71243312D01*
X118321666Y-71215250D01*
X118317979Y-71200443D01*
X118289916Y-71183500D01*
X118275110Y-71179812D01*
X118258166Y-71151750D01*
X118245080Y-71129466D01*
X118194666Y-71120000D01*
X118150099Y-71113456D01*
X118131166Y-71088250D01*
X118127479Y-71073443D01*
X118099416Y-71056500D01*
X118085950Y-71052627D01*
X118071822Y-71024030D01*
X118067666Y-70961250D01*
X118066376Y-70920851D01*
X118061180Y-70897750D01*
X118575666Y-70897750D01*
X118576957Y-70938149D01*
X118586490Y-70980534D01*
X118607416Y-70993000D01*
X118622162Y-70996324D01*
X118639166Y-71021873D01*
X118640586Y-71028087D01*
X118671034Y-71049155D01*
X118737371Y-71064206D01*
X118785180Y-71069570D01*
X118885653Y-71074737D01*
X118978479Y-71072552D01*
X119046625Y-71063076D01*
X119056586Y-71058568D01*
X119078129Y-71027704D01*
X119084983Y-70984526D01*
X119076471Y-70946101D01*
X119051916Y-70929500D01*
X119038450Y-70925627D01*
X119024322Y-70897030D01*
X119020166Y-70834250D01*
X119020166Y-70739000D01*
X118829666Y-70739000D01*
X118815823Y-70739017D01*
X118727684Y-70740599D01*
X118673685Y-70745612D01*
X118646590Y-70755260D01*
X118639166Y-70770750D01*
X118635479Y-70785557D01*
X118607416Y-70802500D01*
X118593950Y-70806373D01*
X118579822Y-70834969D01*
X118575666Y-70897750D01*
X118061180Y-70897750D01*
X118056843Y-70878465D01*
X118035916Y-70866000D01*
X118013633Y-70852913D01*
X118004166Y-70802500D01*
X118010710Y-70757932D01*
X118035916Y-70739000D01*
X118058200Y-70725913D01*
X118067666Y-70675500D01*
X118074210Y-70630932D01*
X118099416Y-70612000D01*
X118114223Y-70608312D01*
X118131166Y-70580250D01*
X118134630Y-70565482D01*
X118161153Y-70548500D01*
X118173933Y-70546629D01*
X118198361Y-70526834D01*
X118201829Y-70521924D01*
X118235161Y-70505120D01*
X118290083Y-70491811D01*
X118307106Y-70488708D01*
X118360636Y-70473093D01*
X118389676Y-70455268D01*
X118412278Y-70448577D01*
X118470481Y-70441972D01*
X118556857Y-70435973D01*
X118664154Y-70430755D01*
X118785119Y-70426495D01*
X118912501Y-70423369D01*
X119039046Y-70421554D01*
X119157503Y-70421225D01*
X119260619Y-70422558D01*
X119341141Y-70425731D01*
X119391817Y-70430918D01*
X119392976Y-70431136D01*
X119434254Y-70440864D01*
X119455556Y-70457781D01*
X119463490Y-70493603D01*
X119464666Y-70560042D01*
X119467349Y-70628092D01*
X119477200Y-70664977D01*
X119496416Y-70675500D01*
X119500242Y-70675750D01*
X119517084Y-70689164D01*
X119525728Y-70728757D01*
X119528166Y-70802500D01*
X119528229Y-70817802D01*
X119531583Y-70885171D01*
X119541481Y-70919746D01*
X119559916Y-70929500D01*
X119563742Y-70929750D01*
X119580584Y-70943164D01*
X119589228Y-70982757D01*
X119589287Y-70984526D01*
X119591666Y-71056500D01*
X119591729Y-71071802D01*
X119595083Y-71139171D01*
X119604981Y-71173746D01*
X119623416Y-71183500D01*
X119627242Y-71183750D01*
X119644084Y-71197164D01*
X119652728Y-71236757D01*
X119655166Y-71310500D01*
X119655229Y-71325802D01*
X119658583Y-71393171D01*
X119668481Y-71427746D01*
X119686916Y-71437500D01*
X119690742Y-71437750D01*
X119707584Y-71451164D01*
X119716228Y-71490757D01*
X119718666Y-71564500D01*
X119718729Y-71579802D01*
X119722083Y-71647171D01*
X119731981Y-71681746D01*
X119750416Y-71691500D01*
X119754242Y-71691750D01*
X119771084Y-71705164D01*
X119777152Y-71732955D01*
X119779728Y-71744757D01*
X119782166Y-71818500D01*
G36*
X123478481Y-71173746D02*
G01*
X123496916Y-71183500D01*
X123500742Y-71183750D01*
X123517584Y-71197164D01*
X123526228Y-71236757D01*
X123528666Y-71310500D01*
X123528729Y-71325802D01*
X123532083Y-71393171D01*
X123541981Y-71427746D01*
X123560416Y-71437500D01*
X123564242Y-71437750D01*
X123581084Y-71451164D01*
X123589728Y-71490757D01*
X123592166Y-71564500D01*
X123592229Y-71579802D01*
X123595583Y-71647171D01*
X123605481Y-71681746D01*
X123623916Y-71691500D01*
X123627742Y-71691750D01*
X123644584Y-71705164D01*
X123653228Y-71744757D01*
X123655666Y-71818500D01*
X123655729Y-71833802D01*
X123659083Y-71901171D01*
X123668981Y-71935746D01*
X123687416Y-71945500D01*
X123700883Y-71949373D01*
X123715011Y-71977969D01*
X123719166Y-72040750D01*
X123719166Y-72136000D01*
X123211166Y-72136000D01*
X123211166Y-72072500D01*
X123204623Y-72027932D01*
X123179416Y-72009000D01*
X123175591Y-72008749D01*
X123158749Y-71995335D01*
X123150105Y-71955743D01*
X123147666Y-71882000D01*
X123147604Y-71866698D01*
X123144250Y-71799328D01*
X123134352Y-71764753D01*
X123115916Y-71755000D01*
X123102450Y-71751127D01*
X123088322Y-71722530D01*
X123084166Y-71659750D01*
X123084166Y-71564500D01*
X122798416Y-71564500D01*
X122766061Y-71564465D01*
X122658409Y-71563418D01*
X122585404Y-71560408D01*
X122540887Y-71554750D01*
X122518695Y-71545759D01*
X122512666Y-71532750D01*
X122512416Y-71528924D01*
X122499002Y-71512082D01*
X122459410Y-71503438D01*
X122385666Y-71501000D01*
X122370364Y-71500937D01*
X122302995Y-71497584D01*
X122268420Y-71487686D01*
X122258666Y-71469250D01*
X122245580Y-71446966D01*
X122195166Y-71437500D01*
X122150599Y-71430956D01*
X122131666Y-71405750D01*
X122127979Y-71390943D01*
X122099916Y-71374000D01*
X122085110Y-71370312D01*
X122068166Y-71342250D01*
X122064479Y-71327443D01*
X122036416Y-71310500D01*
X122021610Y-71306812D01*
X122004666Y-71278750D01*
X122000979Y-71263943D01*
X121972916Y-71247000D01*
X121958110Y-71243312D01*
X121941166Y-71215250D01*
X121937479Y-71200443D01*
X121909416Y-71183500D01*
X121905591Y-71183249D01*
X121888749Y-71169835D01*
X121880105Y-71130243D01*
X121877666Y-71056500D01*
X121877604Y-71041198D01*
X121874250Y-70973828D01*
X121870649Y-70961250D01*
X122385666Y-70961250D01*
X122386957Y-71001649D01*
X122396490Y-71044034D01*
X122417416Y-71056500D01*
X122432223Y-71060188D01*
X122449166Y-71088250D01*
X122452854Y-71103057D01*
X122480916Y-71120000D01*
X122495670Y-71123375D01*
X122512666Y-71149281D01*
X122531131Y-71176672D01*
X122582043Y-71196569D01*
X122655541Y-71204377D01*
X122685219Y-71209200D01*
X122703166Y-71225833D01*
X122716656Y-71235392D01*
X122762519Y-71243787D01*
X122830166Y-71247000D01*
X122957166Y-71247000D01*
X122957166Y-71120000D01*
X122957104Y-71104698D01*
X122953750Y-71037328D01*
X122943852Y-71002753D01*
X122925416Y-70993000D01*
X122921591Y-70992749D01*
X122904749Y-70979335D01*
X122896105Y-70939743D01*
X122893666Y-70866000D01*
X122893666Y-70739000D01*
X122703166Y-70739000D01*
X122689323Y-70739017D01*
X122601184Y-70740599D01*
X122547185Y-70745612D01*
X122520090Y-70755260D01*
X122512666Y-70770750D01*
X122508979Y-70785557D01*
X122480916Y-70802500D01*
X122466110Y-70806188D01*
X122449166Y-70834250D01*
X122445479Y-70849057D01*
X122417416Y-70866000D01*
X122403950Y-70869873D01*
X122389822Y-70898469D01*
X122385666Y-70961250D01*
X121870649Y-70961250D01*
X121864352Y-70939253D01*
X121845916Y-70929500D01*
X121823633Y-70916413D01*
X121814166Y-70866000D01*
X121820710Y-70821432D01*
X121845916Y-70802500D01*
X121868200Y-70789413D01*
X121877666Y-70739000D01*
X121884210Y-70694432D01*
X121909416Y-70675500D01*
X121929822Y-70665562D01*
X121941166Y-70624265D01*
X121941654Y-70612654D01*
X121957696Y-70577833D01*
X122004666Y-70559083D01*
X122005964Y-70558795D01*
X122049940Y-70543973D01*
X122068166Y-70527946D01*
X122084232Y-70512068D01*
X122126163Y-70496200D01*
X122168932Y-70480204D01*
X122198949Y-70457713D01*
X122200867Y-70455829D01*
X122232283Y-70447310D01*
X122301093Y-70440048D01*
X122408527Y-70433970D01*
X122555820Y-70429002D01*
X122744203Y-70425071D01*
X122875552Y-70423039D01*
X123010119Y-70421520D01*
X123110869Y-70421439D01*
X123182583Y-70423027D01*
X123230039Y-70426514D01*
X123258019Y-70432131D01*
X123271301Y-70440109D01*
X123274666Y-70450679D01*
X123278961Y-70467862D01*
X123306416Y-70485000D01*
X123310242Y-70485250D01*
X123327084Y-70498664D01*
X123335728Y-70538257D01*
X123338166Y-70612000D01*
X123338229Y-70627302D01*
X123341583Y-70694671D01*
X123351481Y-70729246D01*
X123369916Y-70739000D01*
X123383383Y-70742873D01*
X123397511Y-70771469D01*
X123401666Y-70834250D01*
X123402957Y-70874649D01*
X123412490Y-70917034D01*
X123433416Y-70929500D01*
X123437242Y-70929750D01*
X123454084Y-70943164D01*
X123462728Y-70982757D01*
X123465166Y-71056500D01*
X123465229Y-71071802D01*
X123467629Y-71120000D01*
X123468583Y-71139171D01*
X123478481Y-71173746D01*
G37*
X123478481Y-71173746D02*
X123496916Y-71183500D01*
X123500742Y-71183750D01*
X123517584Y-71197164D01*
X123526228Y-71236757D01*
X123528666Y-71310500D01*
X123528729Y-71325802D01*
X123532083Y-71393171D01*
X123541981Y-71427746D01*
X123560416Y-71437500D01*
X123564242Y-71437750D01*
X123581084Y-71451164D01*
X123589728Y-71490757D01*
X123592166Y-71564500D01*
X123592229Y-71579802D01*
X123595583Y-71647171D01*
X123605481Y-71681746D01*
X123623916Y-71691500D01*
X123627742Y-71691750D01*
X123644584Y-71705164D01*
X123653228Y-71744757D01*
X123655666Y-71818500D01*
X123655729Y-71833802D01*
X123659083Y-71901171D01*
X123668981Y-71935746D01*
X123687416Y-71945500D01*
X123700883Y-71949373D01*
X123715011Y-71977969D01*
X123719166Y-72040750D01*
X123719166Y-72136000D01*
X123211166Y-72136000D01*
X123211166Y-72072500D01*
X123204623Y-72027932D01*
X123179416Y-72009000D01*
X123175591Y-72008749D01*
X123158749Y-71995335D01*
X123150105Y-71955743D01*
X123147666Y-71882000D01*
X123147604Y-71866698D01*
X123144250Y-71799328D01*
X123134352Y-71764753D01*
X123115916Y-71755000D01*
X123102450Y-71751127D01*
X123088322Y-71722530D01*
X123084166Y-71659750D01*
X123084166Y-71564500D01*
X122798416Y-71564500D01*
X122766061Y-71564465D01*
X122658409Y-71563418D01*
X122585404Y-71560408D01*
X122540887Y-71554750D01*
X122518695Y-71545759D01*
X122512666Y-71532750D01*
X122512416Y-71528924D01*
X122499002Y-71512082D01*
X122459410Y-71503438D01*
X122385666Y-71501000D01*
X122370364Y-71500937D01*
X122302995Y-71497584D01*
X122268420Y-71487686D01*
X122258666Y-71469250D01*
X122245580Y-71446966D01*
X122195166Y-71437500D01*
X122150599Y-71430956D01*
X122131666Y-71405750D01*
X122127979Y-71390943D01*
X122099916Y-71374000D01*
X122085110Y-71370312D01*
X122068166Y-71342250D01*
X122064479Y-71327443D01*
X122036416Y-71310500D01*
X122021610Y-71306812D01*
X122004666Y-71278750D01*
X122000979Y-71263943D01*
X121972916Y-71247000D01*
X121958110Y-71243312D01*
X121941166Y-71215250D01*
X121937479Y-71200443D01*
X121909416Y-71183500D01*
X121905591Y-71183249D01*
X121888749Y-71169835D01*
X121880105Y-71130243D01*
X121877666Y-71056500D01*
X121877604Y-71041198D01*
X121874250Y-70973828D01*
X121870649Y-70961250D01*
X122385666Y-70961250D01*
X122386957Y-71001649D01*
X122396490Y-71044034D01*
X122417416Y-71056500D01*
X122432223Y-71060188D01*
X122449166Y-71088250D01*
X122452854Y-71103057D01*
X122480916Y-71120000D01*
X122495670Y-71123375D01*
X122512666Y-71149281D01*
X122531131Y-71176672D01*
X122582043Y-71196569D01*
X122655541Y-71204377D01*
X122685219Y-71209200D01*
X122703166Y-71225833D01*
X122716656Y-71235392D01*
X122762519Y-71243787D01*
X122830166Y-71247000D01*
X122957166Y-71247000D01*
X122957166Y-71120000D01*
X122957104Y-71104698D01*
X122953750Y-71037328D01*
X122943852Y-71002753D01*
X122925416Y-70993000D01*
X122921591Y-70992749D01*
X122904749Y-70979335D01*
X122896105Y-70939743D01*
X122893666Y-70866000D01*
X122893666Y-70739000D01*
X122703166Y-70739000D01*
X122689323Y-70739017D01*
X122601184Y-70740599D01*
X122547185Y-70745612D01*
X122520090Y-70755260D01*
X122512666Y-70770750D01*
X122508979Y-70785557D01*
X122480916Y-70802500D01*
X122466110Y-70806188D01*
X122449166Y-70834250D01*
X122445479Y-70849057D01*
X122417416Y-70866000D01*
X122403950Y-70869873D01*
X122389822Y-70898469D01*
X122385666Y-70961250D01*
X121870649Y-70961250D01*
X121864352Y-70939253D01*
X121845916Y-70929500D01*
X121823633Y-70916413D01*
X121814166Y-70866000D01*
X121820710Y-70821432D01*
X121845916Y-70802500D01*
X121868200Y-70789413D01*
X121877666Y-70739000D01*
X121884210Y-70694432D01*
X121909416Y-70675500D01*
X121929822Y-70665562D01*
X121941166Y-70624265D01*
X121941654Y-70612654D01*
X121957696Y-70577833D01*
X122004666Y-70559083D01*
X122005964Y-70558795D01*
X122049940Y-70543973D01*
X122068166Y-70527946D01*
X122084232Y-70512068D01*
X122126163Y-70496200D01*
X122168932Y-70480204D01*
X122198949Y-70457713D01*
X122200867Y-70455829D01*
X122232283Y-70447310D01*
X122301093Y-70440048D01*
X122408527Y-70433970D01*
X122555820Y-70429002D01*
X122744203Y-70425071D01*
X122875552Y-70423039D01*
X123010119Y-70421520D01*
X123110869Y-70421439D01*
X123182583Y-70423027D01*
X123230039Y-70426514D01*
X123258019Y-70432131D01*
X123271301Y-70440109D01*
X123274666Y-70450679D01*
X123278961Y-70467862D01*
X123306416Y-70485000D01*
X123310242Y-70485250D01*
X123327084Y-70498664D01*
X123335728Y-70538257D01*
X123338166Y-70612000D01*
X123338229Y-70627302D01*
X123341583Y-70694671D01*
X123351481Y-70729246D01*
X123369916Y-70739000D01*
X123383383Y-70742873D01*
X123397511Y-70771469D01*
X123401666Y-70834250D01*
X123402957Y-70874649D01*
X123412490Y-70917034D01*
X123433416Y-70929500D01*
X123437242Y-70929750D01*
X123454084Y-70943164D01*
X123462728Y-70982757D01*
X123465166Y-71056500D01*
X123465229Y-71071802D01*
X123467629Y-71120000D01*
X123468583Y-71139171D01*
X123478481Y-71173746D01*
G36*
X127808637Y-70421510D02*
G01*
X127939856Y-70422123D01*
X128035062Y-70424004D01*
X128099676Y-70427605D01*
X128139118Y-70433379D01*
X128158808Y-70441777D01*
X128164166Y-70453250D01*
X128167854Y-70468057D01*
X128195916Y-70485000D01*
X128199742Y-70485250D01*
X128216584Y-70498664D01*
X128225228Y-70538257D01*
X128227666Y-70612000D01*
X128227666Y-70739000D01*
X128037166Y-70739000D01*
X128037166Y-70866000D01*
X128037229Y-70881302D01*
X128040583Y-70948671D01*
X128050481Y-70983246D01*
X128068916Y-70993000D01*
X128072742Y-70993250D01*
X128089584Y-71006664D01*
X128098228Y-71046257D01*
X128100666Y-71120000D01*
X128100729Y-71135302D01*
X128104083Y-71202671D01*
X128113981Y-71237246D01*
X128132416Y-71247000D01*
X128136242Y-71247250D01*
X128153084Y-71260664D01*
X128161728Y-71300257D01*
X128164166Y-71374000D01*
X128164229Y-71389302D01*
X128167583Y-71456671D01*
X128177481Y-71491246D01*
X128195916Y-71501000D01*
X128218200Y-71514087D01*
X128227666Y-71564500D01*
X128234210Y-71609068D01*
X128259416Y-71628000D01*
X128277932Y-71635857D01*
X128291166Y-71670333D01*
X128296839Y-71695036D01*
X128321153Y-71712667D01*
X128333972Y-71714915D01*
X128360054Y-71739125D01*
X128362188Y-71742710D01*
X128386030Y-71753263D01*
X128438514Y-71760144D01*
X128524180Y-71763755D01*
X128647568Y-71764495D01*
X128926166Y-71763407D01*
X128926166Y-71822703D01*
X128932585Y-71863274D01*
X128957916Y-71882000D01*
X128961742Y-71882250D01*
X128978584Y-71895664D01*
X128987228Y-71935257D01*
X128989666Y-72009000D01*
X128989666Y-72136000D01*
X128608666Y-72136000D01*
X128583196Y-72135989D01*
X128451977Y-72135377D01*
X128356771Y-72133496D01*
X128292157Y-72129894D01*
X128252715Y-72124121D01*
X128233025Y-72115723D01*
X128227666Y-72104250D01*
X128223794Y-72090783D01*
X128195197Y-72076655D01*
X128132416Y-72072500D01*
X128092017Y-72071209D01*
X128049632Y-72061677D01*
X128037166Y-72040750D01*
X128033479Y-72025943D01*
X128005416Y-72009000D01*
X127990610Y-72005312D01*
X127973666Y-71977250D01*
X127969979Y-71962443D01*
X127941916Y-71945500D01*
X127927110Y-71941812D01*
X127910166Y-71913750D01*
X127906479Y-71898943D01*
X127878416Y-71882000D01*
X127863610Y-71878312D01*
X127846666Y-71850250D01*
X127842979Y-71835443D01*
X127814916Y-71818500D01*
X127792633Y-71805413D01*
X127783166Y-71755000D01*
X127776623Y-71710432D01*
X127751416Y-71691500D01*
X127737950Y-71687627D01*
X127723822Y-71659030D01*
X127719666Y-71596250D01*
X127718376Y-71555851D01*
X127708843Y-71513465D01*
X127687916Y-71501000D01*
X127674450Y-71497127D01*
X127660322Y-71468530D01*
X127656166Y-71405750D01*
X127654876Y-71365351D01*
X127645343Y-71322965D01*
X127624416Y-71310500D01*
X127620591Y-71310249D01*
X127603749Y-71296835D01*
X127595105Y-71257243D01*
X127592666Y-71183500D01*
X127592604Y-71168198D01*
X127589250Y-71100828D01*
X127579352Y-71066253D01*
X127560916Y-71056500D01*
X127557091Y-71056249D01*
X127540249Y-71042835D01*
X127531605Y-71003243D01*
X127529166Y-70929500D01*
X127529104Y-70914198D01*
X127525750Y-70846828D01*
X127515852Y-70812253D01*
X127497416Y-70802500D01*
X127493591Y-70802249D01*
X127476749Y-70788835D01*
X127468105Y-70749243D01*
X127465666Y-70675500D01*
X127465604Y-70660198D01*
X127462250Y-70592828D01*
X127452352Y-70558253D01*
X127433916Y-70548500D01*
X127411633Y-70535413D01*
X127402166Y-70485000D01*
X127402166Y-70421500D01*
X127783166Y-70421500D01*
X127808637Y-70421510D01*
G37*
X127808637Y-70421510D02*
X127939856Y-70422123D01*
X128035062Y-70424004D01*
X128099676Y-70427605D01*
X128139118Y-70433379D01*
X128158808Y-70441777D01*
X128164166Y-70453250D01*
X128167854Y-70468057D01*
X128195916Y-70485000D01*
X128199742Y-70485250D01*
X128216584Y-70498664D01*
X128225228Y-70538257D01*
X128227666Y-70612000D01*
X128227666Y-70739000D01*
X128037166Y-70739000D01*
X128037166Y-70866000D01*
X128037229Y-70881302D01*
X128040583Y-70948671D01*
X128050481Y-70983246D01*
X128068916Y-70993000D01*
X128072742Y-70993250D01*
X128089584Y-71006664D01*
X128098228Y-71046257D01*
X128100666Y-71120000D01*
X128100729Y-71135302D01*
X128104083Y-71202671D01*
X128113981Y-71237246D01*
X128132416Y-71247000D01*
X128136242Y-71247250D01*
X128153084Y-71260664D01*
X128161728Y-71300257D01*
X128164166Y-71374000D01*
X128164229Y-71389302D01*
X128167583Y-71456671D01*
X128177481Y-71491246D01*
X128195916Y-71501000D01*
X128218200Y-71514087D01*
X128227666Y-71564500D01*
X128234210Y-71609068D01*
X128259416Y-71628000D01*
X128277932Y-71635857D01*
X128291166Y-71670333D01*
X128296839Y-71695036D01*
X128321153Y-71712667D01*
X128333972Y-71714915D01*
X128360054Y-71739125D01*
X128362188Y-71742710D01*
X128386030Y-71753263D01*
X128438514Y-71760144D01*
X128524180Y-71763755D01*
X128647568Y-71764495D01*
X128926166Y-71763407D01*
X128926166Y-71822703D01*
X128932585Y-71863274D01*
X128957916Y-71882000D01*
X128961742Y-71882250D01*
X128978584Y-71895664D01*
X128987228Y-71935257D01*
X128989666Y-72009000D01*
X128989666Y-72136000D01*
X128608666Y-72136000D01*
X128583196Y-72135989D01*
X128451977Y-72135377D01*
X128356771Y-72133496D01*
X128292157Y-72129894D01*
X128252715Y-72124121D01*
X128233025Y-72115723D01*
X128227666Y-72104250D01*
X128223794Y-72090783D01*
X128195197Y-72076655D01*
X128132416Y-72072500D01*
X128092017Y-72071209D01*
X128049632Y-72061677D01*
X128037166Y-72040750D01*
X128033479Y-72025943D01*
X128005416Y-72009000D01*
X127990610Y-72005312D01*
X127973666Y-71977250D01*
X127969979Y-71962443D01*
X127941916Y-71945500D01*
X127927110Y-71941812D01*
X127910166Y-71913750D01*
X127906479Y-71898943D01*
X127878416Y-71882000D01*
X127863610Y-71878312D01*
X127846666Y-71850250D01*
X127842979Y-71835443D01*
X127814916Y-71818500D01*
X127792633Y-71805413D01*
X127783166Y-71755000D01*
X127776623Y-71710432D01*
X127751416Y-71691500D01*
X127737950Y-71687627D01*
X127723822Y-71659030D01*
X127719666Y-71596250D01*
X127718376Y-71555851D01*
X127708843Y-71513465D01*
X127687916Y-71501000D01*
X127674450Y-71497127D01*
X127660322Y-71468530D01*
X127656166Y-71405750D01*
X127654876Y-71365351D01*
X127645343Y-71322965D01*
X127624416Y-71310500D01*
X127620591Y-71310249D01*
X127603749Y-71296835D01*
X127595105Y-71257243D01*
X127592666Y-71183500D01*
X127592604Y-71168198D01*
X127589250Y-71100828D01*
X127579352Y-71066253D01*
X127560916Y-71056500D01*
X127557091Y-71056249D01*
X127540249Y-71042835D01*
X127531605Y-71003243D01*
X127529166Y-70929500D01*
X127529104Y-70914198D01*
X127525750Y-70846828D01*
X127515852Y-70812253D01*
X127497416Y-70802500D01*
X127493591Y-70802249D01*
X127476749Y-70788835D01*
X127468105Y-70749243D01*
X127465666Y-70675500D01*
X127465604Y-70660198D01*
X127462250Y-70592828D01*
X127452352Y-70558253D01*
X127433916Y-70548500D01*
X127411633Y-70535413D01*
X127402166Y-70485000D01*
X127402166Y-70421500D01*
X127783166Y-70421500D01*
X127808637Y-70421510D01*
G36*
X130487032Y-71755071D02*
G01*
X130613953Y-71755895D01*
X130706082Y-71757965D01*
X130768643Y-71761684D01*
X130806861Y-71767453D01*
X130825961Y-71775674D01*
X130831166Y-71786750D01*
X130834854Y-71801557D01*
X130862916Y-71818500D01*
X130881432Y-71826357D01*
X130894666Y-71860833D01*
X130900559Y-71885520D01*
X130926416Y-71903167D01*
X130941223Y-71906854D01*
X130958166Y-71934917D01*
X130961854Y-71949723D01*
X130989916Y-71966667D01*
X131004723Y-71970354D01*
X131021666Y-71998417D01*
X131025354Y-72013223D01*
X131053416Y-72030167D01*
X131068223Y-72033854D01*
X131085166Y-72061917D01*
X131088854Y-72076723D01*
X131116916Y-72093667D01*
X131131522Y-72096055D01*
X131148666Y-72114833D01*
X131152249Y-72124570D01*
X131180416Y-72136000D01*
X131195187Y-72139474D01*
X131212166Y-72166068D01*
X131212174Y-72166536D01*
X131231146Y-72191626D01*
X131275666Y-72210083D01*
X131276901Y-72210358D01*
X131320919Y-72225872D01*
X131339166Y-72243515D01*
X131342735Y-72252463D01*
X131370916Y-72263000D01*
X131385663Y-72266335D01*
X131402666Y-72291963D01*
X131403320Y-72296286D01*
X131429955Y-72318010D01*
X131490384Y-72332691D01*
X131510604Y-72335908D01*
X131563600Y-72349761D01*
X131591137Y-72365550D01*
X131615154Y-72383585D01*
X131662170Y-72401200D01*
X131702144Y-72415787D01*
X131720166Y-72432189D01*
X131732423Y-72440882D01*
X131776597Y-72453075D01*
X131841875Y-72463793D01*
X131894727Y-72472026D01*
X131949402Y-72485099D01*
X131975208Y-72497646D01*
X131997862Y-72505716D01*
X132054583Y-72514793D01*
X132136395Y-72523417D01*
X132234500Y-72530473D01*
X132329060Y-72537240D01*
X132408603Y-72545628D01*
X132462397Y-72554425D01*
X132482166Y-72562559D01*
X132486531Y-72567917D01*
X132520603Y-72576935D01*
X132577416Y-72580500D01*
X132605863Y-72579674D01*
X132653742Y-72573227D01*
X132672666Y-72562477D01*
X132676326Y-72558639D01*
X132710856Y-72548808D01*
X132773998Y-72539223D01*
X132856144Y-72531506D01*
X132890909Y-72528734D01*
X132969390Y-72519882D01*
X133026561Y-72509701D01*
X133051936Y-72499885D01*
X133055810Y-72496082D01*
X133091338Y-72480818D01*
X133147204Y-72468106D01*
X133163200Y-72465246D01*
X133215384Y-72450746D01*
X133242666Y-72434761D01*
X133266379Y-72417276D01*
X133313170Y-72399967D01*
X133353136Y-72385174D01*
X133371166Y-72368220D01*
X133371180Y-72367866D01*
X133390250Y-72351773D01*
X133434667Y-72337083D01*
X133435652Y-72336863D01*
X133479837Y-72318175D01*
X133498167Y-72293068D01*
X133501835Y-72279080D01*
X133529916Y-72263000D01*
X133544723Y-72259312D01*
X133561666Y-72231250D01*
X133565354Y-72216443D01*
X133593416Y-72199500D01*
X133608223Y-72195812D01*
X133625166Y-72167750D01*
X133628854Y-72152943D01*
X133656916Y-72136000D01*
X133679200Y-72122913D01*
X133688666Y-72072500D01*
X133695210Y-72027932D01*
X133720416Y-72009000D01*
X133742700Y-72022087D01*
X133752166Y-72072500D01*
X133745623Y-72117068D01*
X133720416Y-72136000D01*
X133698133Y-72149087D01*
X133688666Y-72199500D01*
X133682123Y-72244068D01*
X133656916Y-72263000D01*
X133642110Y-72266688D01*
X133625166Y-72294750D01*
X133621479Y-72309557D01*
X133593416Y-72326500D01*
X133571133Y-72339587D01*
X133561666Y-72390000D01*
X133555123Y-72434568D01*
X133529916Y-72453500D01*
X133515110Y-72457188D01*
X133498166Y-72485250D01*
X133494479Y-72500057D01*
X133466416Y-72517000D01*
X133451610Y-72520688D01*
X133434666Y-72548750D01*
X133421580Y-72571034D01*
X133371166Y-72580500D01*
X133326599Y-72587043D01*
X133307666Y-72612250D01*
X133303979Y-72627057D01*
X133275916Y-72644000D01*
X133261110Y-72647688D01*
X133244166Y-72675750D01*
X133231080Y-72698034D01*
X133180666Y-72707500D01*
X133136099Y-72714043D01*
X133117166Y-72739250D01*
X133104080Y-72761534D01*
X133053666Y-72771000D01*
X133009099Y-72777543D01*
X132990166Y-72802750D01*
X132989916Y-72806575D01*
X132976502Y-72823418D01*
X132936910Y-72832061D01*
X132863166Y-72834500D01*
X132847864Y-72834562D01*
X132780495Y-72837916D01*
X132745920Y-72847814D01*
X132736166Y-72866250D01*
X132734407Y-72874616D01*
X132718820Y-72886311D01*
X132681431Y-72893455D01*
X132615408Y-72897026D01*
X132513916Y-72898000D01*
X132455356Y-72898251D01*
X132373491Y-72900478D01*
X132323477Y-72905819D01*
X132298480Y-72915251D01*
X132291666Y-72929750D01*
X132287979Y-72944557D01*
X132259916Y-72961500D01*
X132245110Y-72957812D01*
X132228166Y-72929750D01*
X132223093Y-72917213D01*
X132201664Y-72907593D01*
X132157350Y-72901724D01*
X132083677Y-72898796D01*
X131974166Y-72898000D01*
X131873871Y-72897366D01*
X131796911Y-72894687D01*
X131749958Y-72889148D01*
X131726535Y-72879939D01*
X131720166Y-72866250D01*
X131719916Y-72862424D01*
X131706502Y-72845582D01*
X131666910Y-72836938D01*
X131593166Y-72834500D01*
X131577864Y-72834437D01*
X131510495Y-72831084D01*
X131475920Y-72821186D01*
X131466166Y-72802750D01*
X131462294Y-72789283D01*
X131433697Y-72775155D01*
X131370916Y-72771000D01*
X131330517Y-72769709D01*
X131288132Y-72760177D01*
X131275666Y-72739250D01*
X131262580Y-72716966D01*
X131212166Y-72707500D01*
X131167599Y-72700956D01*
X131148666Y-72675750D01*
X131144794Y-72662283D01*
X131116197Y-72648155D01*
X131053416Y-72644000D01*
X131013017Y-72642709D01*
X130970632Y-72633177D01*
X130958166Y-72612250D01*
X130954479Y-72597443D01*
X130926416Y-72580500D01*
X130911610Y-72576812D01*
X130894666Y-72548750D01*
X130881580Y-72526466D01*
X130831166Y-72517000D01*
X130786599Y-72510456D01*
X130767666Y-72485250D01*
X130754580Y-72462966D01*
X130704166Y-72453500D01*
X130659599Y-72446956D01*
X130640666Y-72421750D01*
X130636979Y-72406943D01*
X130608916Y-72390000D01*
X130594110Y-72386312D01*
X130577166Y-72358250D01*
X130573479Y-72343443D01*
X130545416Y-72326500D01*
X130530610Y-72322812D01*
X130513666Y-72294750D01*
X130500580Y-72272466D01*
X130450166Y-72263000D01*
X130405599Y-72256456D01*
X130386666Y-72231250D01*
X130382979Y-72216443D01*
X130354916Y-72199500D01*
X130340110Y-72195812D01*
X130323166Y-72167750D01*
X130319479Y-72152943D01*
X130291416Y-72136000D01*
X130276610Y-72132312D01*
X130259666Y-72104250D01*
X130255979Y-72089443D01*
X130227916Y-72072500D01*
X130205633Y-72059413D01*
X130196166Y-72009000D01*
X130189623Y-71964432D01*
X130164416Y-71945500D01*
X130149610Y-71941812D01*
X130132666Y-71913750D01*
X130128979Y-71898943D01*
X130100916Y-71882000D01*
X130086110Y-71878312D01*
X130069166Y-71850250D01*
X130065479Y-71835443D01*
X130037416Y-71818500D01*
X130022610Y-71814812D01*
X130005666Y-71786750D01*
X130006591Y-71781472D01*
X130017299Y-71771709D01*
X130044213Y-71764622D01*
X130092558Y-71759809D01*
X130167557Y-71756869D01*
X130274435Y-71755400D01*
X130418416Y-71755000D01*
X130487032Y-71755071D01*
G37*
X130487032Y-71755071D02*
X130613953Y-71755895D01*
X130706082Y-71757965D01*
X130768643Y-71761684D01*
X130806861Y-71767453D01*
X130825961Y-71775674D01*
X130831166Y-71786750D01*
X130834854Y-71801557D01*
X130862916Y-71818500D01*
X130881432Y-71826357D01*
X130894666Y-71860833D01*
X130900559Y-71885520D01*
X130926416Y-71903167D01*
X130941223Y-71906854D01*
X130958166Y-71934917D01*
X130961854Y-71949723D01*
X130989916Y-71966667D01*
X131004723Y-71970354D01*
X131021666Y-71998417D01*
X131025354Y-72013223D01*
X131053416Y-72030167D01*
X131068223Y-72033854D01*
X131085166Y-72061917D01*
X131088854Y-72076723D01*
X131116916Y-72093667D01*
X131131522Y-72096055D01*
X131148666Y-72114833D01*
X131152249Y-72124570D01*
X131180416Y-72136000D01*
X131195187Y-72139474D01*
X131212166Y-72166068D01*
X131212174Y-72166536D01*
X131231146Y-72191626D01*
X131275666Y-72210083D01*
X131276901Y-72210358D01*
X131320919Y-72225872D01*
X131339166Y-72243515D01*
X131342735Y-72252463D01*
X131370916Y-72263000D01*
X131385663Y-72266335D01*
X131402666Y-72291963D01*
X131403320Y-72296286D01*
X131429955Y-72318010D01*
X131490384Y-72332691D01*
X131510604Y-72335908D01*
X131563600Y-72349761D01*
X131591137Y-72365550D01*
X131615154Y-72383585D01*
X131662170Y-72401200D01*
X131702144Y-72415787D01*
X131720166Y-72432189D01*
X131732423Y-72440882D01*
X131776597Y-72453075D01*
X131841875Y-72463793D01*
X131894727Y-72472026D01*
X131949402Y-72485099D01*
X131975208Y-72497646D01*
X131997862Y-72505716D01*
X132054583Y-72514793D01*
X132136395Y-72523417D01*
X132234500Y-72530473D01*
X132329060Y-72537240D01*
X132408603Y-72545628D01*
X132462397Y-72554425D01*
X132482166Y-72562559D01*
X132486531Y-72567917D01*
X132520603Y-72576935D01*
X132577416Y-72580500D01*
X132605863Y-72579674D01*
X132653742Y-72573227D01*
X132672666Y-72562477D01*
X132676326Y-72558639D01*
X132710856Y-72548808D01*
X132773998Y-72539223D01*
X132856144Y-72531506D01*
X132890909Y-72528734D01*
X132969390Y-72519882D01*
X133026561Y-72509701D01*
X133051936Y-72499885D01*
X133055810Y-72496082D01*
X133091338Y-72480818D01*
X133147204Y-72468106D01*
X133163200Y-72465246D01*
X133215384Y-72450746D01*
X133242666Y-72434761D01*
X133266379Y-72417276D01*
X133313170Y-72399967D01*
X133353136Y-72385174D01*
X133371166Y-72368220D01*
X133371180Y-72367866D01*
X133390250Y-72351773D01*
X133434667Y-72337083D01*
X133435652Y-72336863D01*
X133479837Y-72318175D01*
X133498167Y-72293068D01*
X133501835Y-72279080D01*
X133529916Y-72263000D01*
X133544723Y-72259312D01*
X133561666Y-72231250D01*
X133565354Y-72216443D01*
X133593416Y-72199500D01*
X133608223Y-72195812D01*
X133625166Y-72167750D01*
X133628854Y-72152943D01*
X133656916Y-72136000D01*
X133679200Y-72122913D01*
X133688666Y-72072500D01*
X133695210Y-72027932D01*
X133720416Y-72009000D01*
X133742700Y-72022087D01*
X133752166Y-72072500D01*
X133745623Y-72117068D01*
X133720416Y-72136000D01*
X133698133Y-72149087D01*
X133688666Y-72199500D01*
X133682123Y-72244068D01*
X133656916Y-72263000D01*
X133642110Y-72266688D01*
X133625166Y-72294750D01*
X133621479Y-72309557D01*
X133593416Y-72326500D01*
X133571133Y-72339587D01*
X133561666Y-72390000D01*
X133555123Y-72434568D01*
X133529916Y-72453500D01*
X133515110Y-72457188D01*
X133498166Y-72485250D01*
X133494479Y-72500057D01*
X133466416Y-72517000D01*
X133451610Y-72520688D01*
X133434666Y-72548750D01*
X133421580Y-72571034D01*
X133371166Y-72580500D01*
X133326599Y-72587043D01*
X133307666Y-72612250D01*
X133303979Y-72627057D01*
X133275916Y-72644000D01*
X133261110Y-72647688D01*
X133244166Y-72675750D01*
X133231080Y-72698034D01*
X133180666Y-72707500D01*
X133136099Y-72714043D01*
X133117166Y-72739250D01*
X133104080Y-72761534D01*
X133053666Y-72771000D01*
X133009099Y-72777543D01*
X132990166Y-72802750D01*
X132989916Y-72806575D01*
X132976502Y-72823418D01*
X132936910Y-72832061D01*
X132863166Y-72834500D01*
X132847864Y-72834562D01*
X132780495Y-72837916D01*
X132745920Y-72847814D01*
X132736166Y-72866250D01*
X132734407Y-72874616D01*
X132718820Y-72886311D01*
X132681431Y-72893455D01*
X132615408Y-72897026D01*
X132513916Y-72898000D01*
X132455356Y-72898251D01*
X132373491Y-72900478D01*
X132323477Y-72905819D01*
X132298480Y-72915251D01*
X132291666Y-72929750D01*
X132287979Y-72944557D01*
X132259916Y-72961500D01*
X132245110Y-72957812D01*
X132228166Y-72929750D01*
X132223093Y-72917213D01*
X132201664Y-72907593D01*
X132157350Y-72901724D01*
X132083677Y-72898796D01*
X131974166Y-72898000D01*
X131873871Y-72897366D01*
X131796911Y-72894687D01*
X131749958Y-72889148D01*
X131726535Y-72879939D01*
X131720166Y-72866250D01*
X131719916Y-72862424D01*
X131706502Y-72845582D01*
X131666910Y-72836938D01*
X131593166Y-72834500D01*
X131577864Y-72834437D01*
X131510495Y-72831084D01*
X131475920Y-72821186D01*
X131466166Y-72802750D01*
X131462294Y-72789283D01*
X131433697Y-72775155D01*
X131370916Y-72771000D01*
X131330517Y-72769709D01*
X131288132Y-72760177D01*
X131275666Y-72739250D01*
X131262580Y-72716966D01*
X131212166Y-72707500D01*
X131167599Y-72700956D01*
X131148666Y-72675750D01*
X131144794Y-72662283D01*
X131116197Y-72648155D01*
X131053416Y-72644000D01*
X131013017Y-72642709D01*
X130970632Y-72633177D01*
X130958166Y-72612250D01*
X130954479Y-72597443D01*
X130926416Y-72580500D01*
X130911610Y-72576812D01*
X130894666Y-72548750D01*
X130881580Y-72526466D01*
X130831166Y-72517000D01*
X130786599Y-72510456D01*
X130767666Y-72485250D01*
X130754580Y-72462966D01*
X130704166Y-72453500D01*
X130659599Y-72446956D01*
X130640666Y-72421750D01*
X130636979Y-72406943D01*
X130608916Y-72390000D01*
X130594110Y-72386312D01*
X130577166Y-72358250D01*
X130573479Y-72343443D01*
X130545416Y-72326500D01*
X130530610Y-72322812D01*
X130513666Y-72294750D01*
X130500580Y-72272466D01*
X130450166Y-72263000D01*
X130405599Y-72256456D01*
X130386666Y-72231250D01*
X130382979Y-72216443D01*
X130354916Y-72199500D01*
X130340110Y-72195812D01*
X130323166Y-72167750D01*
X130319479Y-72152943D01*
X130291416Y-72136000D01*
X130276610Y-72132312D01*
X130259666Y-72104250D01*
X130255979Y-72089443D01*
X130227916Y-72072500D01*
X130205633Y-72059413D01*
X130196166Y-72009000D01*
X130189623Y-71964432D01*
X130164416Y-71945500D01*
X130149610Y-71941812D01*
X130132666Y-71913750D01*
X130128979Y-71898943D01*
X130100916Y-71882000D01*
X130086110Y-71878312D01*
X130069166Y-71850250D01*
X130065479Y-71835443D01*
X130037416Y-71818500D01*
X130022610Y-71814812D01*
X130005666Y-71786750D01*
X130006591Y-71781472D01*
X130017299Y-71771709D01*
X130044213Y-71764622D01*
X130092558Y-71759809D01*
X130167557Y-71756869D01*
X130274435Y-71755400D01*
X130418416Y-71755000D01*
X130487032Y-71755071D01*
G36*
X131891734Y-70936043D02*
G01*
X131910666Y-70961250D01*
X131910718Y-70963237D01*
X131926673Y-70988451D01*
X131956626Y-70990094D01*
X131979458Y-70966542D01*
X131990306Y-70955915D01*
X132041073Y-70944026D01*
X132132916Y-70940083D01*
X132191451Y-70941420D01*
X132259299Y-70949981D01*
X132286375Y-70966542D01*
X132292479Y-70977195D01*
X132325180Y-70993000D01*
X132339128Y-70996667D01*
X132355166Y-71024750D01*
X132358854Y-71039557D01*
X132386916Y-71056500D01*
X132401723Y-71060188D01*
X132418666Y-71088250D01*
X132422354Y-71103057D01*
X132450416Y-71120000D01*
X132465223Y-71123688D01*
X132482166Y-71151750D01*
X132485854Y-71166557D01*
X132513916Y-71183500D01*
X132517742Y-71183750D01*
X132534584Y-71197164D01*
X132543228Y-71236757D01*
X132545666Y-71310500D01*
X132545604Y-71325802D01*
X132542250Y-71393171D01*
X132532352Y-71427746D01*
X132513916Y-71437500D01*
X132499110Y-71441188D01*
X132482166Y-71469250D01*
X132481916Y-71473075D01*
X132468502Y-71489918D01*
X132428910Y-71498561D01*
X132355166Y-71501000D01*
X132297812Y-71498752D01*
X132247446Y-71491108D01*
X132228166Y-71479833D01*
X132238612Y-71466580D01*
X132275791Y-71458377D01*
X132283235Y-71458312D01*
X132355153Y-71452569D01*
X132396068Y-71431532D01*
X132414424Y-71386315D01*
X132418666Y-71308031D01*
X132418630Y-71296573D01*
X132415403Y-71228434D01*
X132405510Y-71193403D01*
X132386916Y-71183500D01*
X132364633Y-71170413D01*
X132355166Y-71120000D01*
X132348623Y-71075432D01*
X132323416Y-71056500D01*
X132308610Y-71052812D01*
X132291666Y-71024750D01*
X132291416Y-71020924D01*
X132278002Y-71004082D01*
X132238410Y-70995438D01*
X132164666Y-70993000D01*
X132037666Y-70993000D01*
X132037666Y-71151750D01*
X132038394Y-71212690D01*
X132042839Y-71272133D01*
X132052669Y-71302184D01*
X132069416Y-71310500D01*
X132084223Y-71314188D01*
X132101166Y-71342250D01*
X132104854Y-71357057D01*
X132132916Y-71374000D01*
X132147723Y-71377688D01*
X132164666Y-71405750D01*
X132160979Y-71420557D01*
X132132916Y-71437500D01*
X132118110Y-71441188D01*
X132101166Y-71469250D01*
X132100916Y-71473075D01*
X132087502Y-71489918D01*
X132047910Y-71498561D01*
X131974166Y-71501000D01*
X131958864Y-71500937D01*
X131891495Y-71497584D01*
X131856920Y-71487686D01*
X131847166Y-71469250D01*
X131843479Y-71454443D01*
X131815416Y-71437500D01*
X131800811Y-71435112D01*
X131783666Y-71416333D01*
X131787249Y-71406596D01*
X131815416Y-71395167D01*
X131830022Y-71397555D01*
X131847166Y-71416333D01*
X131847171Y-71416597D01*
X131866081Y-71431369D01*
X131910666Y-71437500D01*
X131934623Y-71436961D01*
X131961697Y-71428562D01*
X131972326Y-71400821D01*
X131974166Y-71342250D01*
X131972876Y-71301851D01*
X131963343Y-71259465D01*
X131942416Y-71247000D01*
X131920133Y-71233913D01*
X131910666Y-71183500D01*
X131904123Y-71138932D01*
X131878916Y-71120000D01*
X131856633Y-71106913D01*
X131847166Y-71056500D01*
X131840623Y-71011932D01*
X131815416Y-70993000D01*
X131800610Y-70989312D01*
X131783666Y-70961250D01*
X131796753Y-70938966D01*
X131847166Y-70929500D01*
X131891734Y-70936043D01*
G37*
X131891734Y-70936043D02*
X131910666Y-70961250D01*
X131910718Y-70963237D01*
X131926673Y-70988451D01*
X131956626Y-70990094D01*
X131979458Y-70966542D01*
X131990306Y-70955915D01*
X132041073Y-70944026D01*
X132132916Y-70940083D01*
X132191451Y-70941420D01*
X132259299Y-70949981D01*
X132286375Y-70966542D01*
X132292479Y-70977195D01*
X132325180Y-70993000D01*
X132339128Y-70996667D01*
X132355166Y-71024750D01*
X132358854Y-71039557D01*
X132386916Y-71056500D01*
X132401723Y-71060188D01*
X132418666Y-71088250D01*
X132422354Y-71103057D01*
X132450416Y-71120000D01*
X132465223Y-71123688D01*
X132482166Y-71151750D01*
X132485854Y-71166557D01*
X132513916Y-71183500D01*
X132517742Y-71183750D01*
X132534584Y-71197164D01*
X132543228Y-71236757D01*
X132545666Y-71310500D01*
X132545604Y-71325802D01*
X132542250Y-71393171D01*
X132532352Y-71427746D01*
X132513916Y-71437500D01*
X132499110Y-71441188D01*
X132482166Y-71469250D01*
X132481916Y-71473075D01*
X132468502Y-71489918D01*
X132428910Y-71498561D01*
X132355166Y-71501000D01*
X132297812Y-71498752D01*
X132247446Y-71491108D01*
X132228166Y-71479833D01*
X132238612Y-71466580D01*
X132275791Y-71458377D01*
X132283235Y-71458312D01*
X132355153Y-71452569D01*
X132396068Y-71431532D01*
X132414424Y-71386315D01*
X132418666Y-71308031D01*
X132418630Y-71296573D01*
X132415403Y-71228434D01*
X132405510Y-71193403D01*
X132386916Y-71183500D01*
X132364633Y-71170413D01*
X132355166Y-71120000D01*
X132348623Y-71075432D01*
X132323416Y-71056500D01*
X132308610Y-71052812D01*
X132291666Y-71024750D01*
X132291416Y-71020924D01*
X132278002Y-71004082D01*
X132238410Y-70995438D01*
X132164666Y-70993000D01*
X132037666Y-70993000D01*
X132037666Y-71151750D01*
X132038394Y-71212690D01*
X132042839Y-71272133D01*
X132052669Y-71302184D01*
X132069416Y-71310500D01*
X132084223Y-71314188D01*
X132101166Y-71342250D01*
X132104854Y-71357057D01*
X132132916Y-71374000D01*
X132147723Y-71377688D01*
X132164666Y-71405750D01*
X132160979Y-71420557D01*
X132132916Y-71437500D01*
X132118110Y-71441188D01*
X132101166Y-71469250D01*
X132100916Y-71473075D01*
X132087502Y-71489918D01*
X132047910Y-71498561D01*
X131974166Y-71501000D01*
X131958864Y-71500937D01*
X131891495Y-71497584D01*
X131856920Y-71487686D01*
X131847166Y-71469250D01*
X131843479Y-71454443D01*
X131815416Y-71437500D01*
X131800811Y-71435112D01*
X131783666Y-71416333D01*
X131787249Y-71406596D01*
X131815416Y-71395167D01*
X131830022Y-71397555D01*
X131847166Y-71416333D01*
X131847171Y-71416597D01*
X131866081Y-71431369D01*
X131910666Y-71437500D01*
X131934623Y-71436961D01*
X131961697Y-71428562D01*
X131972326Y-71400821D01*
X131974166Y-71342250D01*
X131972876Y-71301851D01*
X131963343Y-71259465D01*
X131942416Y-71247000D01*
X131920133Y-71233913D01*
X131910666Y-71183500D01*
X131904123Y-71138932D01*
X131878916Y-71120000D01*
X131856633Y-71106913D01*
X131847166Y-71056500D01*
X131840623Y-71011932D01*
X131815416Y-70993000D01*
X131800610Y-70989312D01*
X131783666Y-70961250D01*
X131796753Y-70938966D01*
X131847166Y-70929500D01*
X131891734Y-70936043D01*
D12*
%TO.C,J2*%
X155980000Y-73910000D02*
X155980000Y-68410000D01*
X153980000Y-73910000D02*
X153480000Y-73910000D01*
X158980000Y-73910000D02*
X158480000Y-73910000D01*
X146530000Y-77610000D02*
X146230000Y-77010000D01*
X163980000Y-73910000D02*
X163480000Y-73910000D01*
X148480000Y-68410000D02*
X148980000Y-68410000D01*
X146480000Y-68410000D02*
X146480000Y-73910000D01*
X151480000Y-73910000D02*
X150980000Y-73910000D01*
X160980000Y-73910000D02*
X160980000Y-68410000D01*
X145980000Y-73910000D02*
X145980000Y-68410000D01*
X161480000Y-73910000D02*
X160980000Y-73910000D01*
X168480000Y-68410000D02*
X168980000Y-68410000D01*
X165980000Y-73910000D02*
X165980000Y-68410000D01*
X155980000Y-68410000D02*
X156480000Y-68410000D01*
X153480000Y-68410000D02*
X153980000Y-68410000D01*
X148980000Y-68410000D02*
X148980000Y-73910000D01*
X150980000Y-68410000D02*
X151480000Y-68410000D01*
X166480000Y-68410000D02*
X166480000Y-73910000D01*
X163480000Y-68410000D02*
X163980000Y-68410000D01*
X151480000Y-68410000D02*
X151480000Y-73910000D01*
X168480000Y-73910000D02*
X168480000Y-68410000D01*
X145980000Y-68410000D02*
X146480000Y-68410000D01*
X156480000Y-73910000D02*
X155980000Y-73910000D01*
X160980000Y-68410000D02*
X161480000Y-68410000D01*
X158480000Y-68410000D02*
X158980000Y-68410000D01*
X153980000Y-68410000D02*
X153980000Y-73910000D01*
X146480000Y-73910000D02*
X145980000Y-73910000D01*
X156480000Y-68410000D02*
X156480000Y-73910000D01*
X158980000Y-68410000D02*
X158980000Y-73910000D01*
X148480000Y-73910000D02*
X148480000Y-68410000D01*
X145090000Y-79520000D02*
X145090000Y-75020000D01*
X145930000Y-77610000D02*
X146530000Y-77610000D01*
X169870000Y-79520000D02*
X169870000Y-75020000D01*
X165980000Y-68410000D02*
X166480000Y-68410000D01*
X168980000Y-73910000D02*
X168480000Y-73910000D01*
X146230000Y-77010000D02*
X145930000Y-77610000D01*
X166480000Y-73910000D02*
X165980000Y-73910000D01*
X157480000Y-67800000D02*
X143670000Y-67800000D01*
X157480000Y-67800000D02*
X171290000Y-67800000D01*
X150980000Y-73910000D02*
X150980000Y-68410000D01*
X143670000Y-67800000D02*
X143670000Y-79520000D01*
X158480000Y-73910000D02*
X158480000Y-68410000D01*
X171290000Y-67800000D02*
X171290000Y-79520000D01*
X171290000Y-79520000D02*
X169870000Y-79520000D01*
X168980000Y-68410000D02*
X168980000Y-73910000D01*
X143670000Y-79520000D02*
X145090000Y-79520000D01*
X163980000Y-68410000D02*
X163980000Y-73910000D01*
X163480000Y-73910000D02*
X163480000Y-68410000D01*
X153480000Y-73910000D02*
X153480000Y-68410000D01*
X148980000Y-73910000D02*
X148480000Y-73910000D01*
X161480000Y-68410000D02*
X161480000Y-73910000D01*
%TO.C,U1*%
X199390000Y-107950000D02*
X181610000Y-107950000D01*
X181610000Y-107950000D02*
X181610000Y-92710000D01*
X181610000Y-92710000D02*
X199390000Y-92710000D01*
X199390000Y-92710000D02*
X199390000Y-107950000D01*
%TO.C,U3*%
X198215000Y-75565000D02*
X198215000Y-92075000D01*
X198215000Y-92075000D02*
X177895000Y-92075000D01*
X177895000Y-92075000D02*
X177895000Y-75565000D01*
X177895000Y-75565000D02*
X198215000Y-75565000D01*
D13*
%TO.C,SW1*%
X176885000Y-119125000D02*
X176885000Y-127255000D01*
D11*
X171345000Y-120650000D02*
X171345000Y-120650000D01*
X171245000Y-120650000D02*
X171245000Y-120650000D01*
D13*
X171805000Y-119125000D02*
X176885000Y-119125000D01*
X171805000Y-127255000D02*
X171805000Y-119125000D01*
X176885000Y-127255000D02*
X171805000Y-127255000D01*
D11*
X171245000Y-120650000D02*
X171245000Y-120650000D01*
X171345000Y-120650000D02*
G75*
G03*
X171245000Y-120650000I-50000J0D01*
G01*
X171245000Y-120650000D02*
G75*
G03*
X171345000Y-120650000I50000J0D01*
G01*
X171345000Y-120650000D02*
G75*
G03*
X171245000Y-120650000I-50000J0D01*
G01*
D12*
%TO.C,U8*%
X141780297Y-149459446D02*
X134740335Y-146543398D01*
X134740335Y-146543398D02*
X133768319Y-148890052D01*
X133768319Y-148890052D02*
X140808281Y-151806100D01*
X140808281Y-151806100D02*
X141780297Y-149459446D01*
X135176312Y-149473262D02*
G75*
G03*
X139400289Y-151222890I2597996J298513D01*
G01*
%TO.C,U11*%
X134740335Y-56658602D02*
X141780297Y-53742554D01*
X141780297Y-53742554D02*
X140808281Y-51395900D01*
X140808281Y-51395900D02*
X133768319Y-54311948D01*
X133768319Y-54311948D02*
X134740335Y-56658602D01*
X139400289Y-51979110D02*
G75*
G03*
X135176312Y-53728738I-1625981J-2048141D01*
G01*
%TD*%
M02*
