M48
; DRILL file {KiCad (6.0.5)} date Sun Oct 16 22:53:52 2022
; FORMAT={-:-/ absolute / metric / decimal}
; #@! TF.CreationDate,2022-10-16T22:53:52+09:00
; #@! TF.GenerationSoftware,Kicad,Pcbnew,(6.0.5)
; #@! TF.FileFunction,Plated,1,2,PTH
FMAT,2
METRIC
; #@! TA.AperFunction,Plated,PTH,ViaDrill
T1C0.400
; #@! TA.AperFunction,Plated,PTH,ComponentDrill
T2C0.762
; #@! TA.AperFunction,Plated,PTH,ComponentDrill
T3C0.900
; #@! TA.AperFunction,Plated,PTH,ComponentDrill
T4C0.950
; #@! TA.AperFunction,Plated,PTH,ComponentDrill
T5C1.000
; #@! TA.AperFunction,Plated,PTH,ComponentDrill
T6C1.090
; #@! TA.AperFunction,Plated,PTH,ComponentDrill
T7C1.100
%
G90
G05
T1
X102.362Y-107.442
X103.632Y-101.6
X104.648Y-86.106
X105.41Y-95.758
X107.696Y-128.778
X108.966Y-71.12
X108.966Y-86.614
X109.474Y-75.692
X110.998Y-117.602
X111.951Y-102.87
X112.522Y-75.692
X113.03Y-80.772
X113.218Y-136.489
X113.665Y-128.27
X113.792Y-66.294
X114.935Y-128.27
X116.205Y-128.27
X116.373Y-78.74
X117.348Y-67.818
X117.475Y-78.74
X117.475Y-128.27
X118.364Y-121.158
X118.475Y-78.74
X119.126Y-118.872
X119.634Y-123.444
X119.671Y-71.12
X119.84Y-133.525
X119.888Y-78.532
X121.22Y-69.531
X121.285Y-86.45
X121.92Y-79.248
X122.428Y-71.628
X122.906Y-67.018
X123.698Y-64.977
X124.37Y-126.365
X124.933Y-64.938
X124.968Y-86.45
X125.222Y-60.452
X125.476Y-77.978
X125.476Y-79.121
X125.631Y-94.643
X125.73Y-95.638
X125.73Y-96.774
X125.73Y-99.06
X125.73Y-127.545
X125.933Y-64.938
X126.107Y-62.099
X126.454Y-106.68
X126.492Y-138.43
X126.932Y-64.956
X127.0Y-89.535
X127.196Y-87.826
X127.631Y-108.335
X127.635Y-102.87
X127.724Y-91.694
X127.762Y-59.69
X127.762Y-105.156
X127.762Y-111.76
X127.762Y-116.586
X127.762Y-119.634
X127.848Y-61.554
X128.147Y-109.343
X128.359Y-81.026
X128.48Y-98.71
X128.524Y-101.346
X128.724Y-91.694
X128.778Y-140.97
X128.905Y-134.557
X129.08Y-77.47
X129.667Y-136.435
X129.894Y-65.532
X130.048Y-119.634
X130.07Y-77.606
X130.81Y-138.43
X131.113Y-136.006
X131.322Y-53.598
X131.453Y-68.969
X132.211Y-74.164
X132.438Y-69.139
X133.35Y-74.295
X133.35Y-149.098
X133.358Y-141.089
X133.858Y-51.054
X133.858Y-130.556
X134.366Y-87.54
X134.366Y-141.478
X134.366Y-144.78
X134.62Y-61.829
X135.092Y-125.33
X135.128Y-88.265
X135.165Y-71.628
X135.799Y-124.623
X135.8Y-105.918
X135.89Y-83.185
X135.89Y-146.304
X136.086Y-84.259
X136.44Y-64.89
X136.457Y-72.957
X136.525Y-59.055
X136.525Y-125.73
X137.16Y-50.8
X137.249Y-116.205
X138.43Y-118.11
X138.684Y-66.802
X138.938Y-138.684
X139.505Y-118.305
X139.7Y-69.088
X140.061Y-67.923
X140.97Y-142.748
X141.224Y-50.292
X141.732Y-137.668
X143.002Y-74.93
X143.256Y-68.072
X143.424Y-134.711
X143.783Y-71.882
X144.018Y-136.989
X144.11Y-133.985
X144.272Y-76.454
X144.472Y-74.106
X147.574Y-76.962
X147.828Y-136.652
X148.209Y-122.465
X149.86Y-154.432
X150.065Y-141.429
X151.638Y-143.51
X151.892Y-157.734
X152.4Y-139.954
X154.432Y-136.398
X155.575Y-136.398
X156.67Y-137.21
X156.718Y-140.208
X157.48Y-47.752
X157.48Y-155.448
X161.544Y-140.208
X163.068Y-143.51
X163.83Y-157.226
X166.116Y-64.008
X168.656Y-135.636
X168.656Y-137.668
X168.656Y-139.7
X168.91Y-64.77
X169.164Y-48.768
X170.375Y-122.995
X170.434Y-73.914
X170.688Y-51.562
X170.815Y-121.92
X171.264Y-119.321
X171.704Y-62.992
X173.228Y-48.768
X173.482Y-152.654
X174.752Y-143.51
X175.26Y-131.826
X176.022Y-124.46
X178.054Y-109.22
X178.435Y-76.708
X179.07Y-120.65
X179.165Y-109.22
X179.324Y-71.12
X179.578Y-129.54
X180.086Y-77.311
X181.864Y-110.744
X182.372Y-53.848
X182.462Y-75.125
X182.462Y-78.035
X182.626Y-72.898
X182.66Y-70.324
X182.88Y-108.966
X182.88Y-109.982
X182.935Y-107.887
X183.425Y-75.438
X183.642Y-150.114
X184.15Y-119.634
X185.42Y-114.3
X185.876Y-67.056
X186.97Y-64.87
X187.452Y-81.28
X188.214Y-114.554
X189.23Y-119.634
X190.119Y-77.343
X190.246Y-63.246
X190.754Y-114.554
X190.754Y-140.716
X190.854Y-66.208
X191.008Y-86.36
X191.008Y-109.474
X191.516Y-78.867
X191.897Y-66.208
X192.469Y-74.24
X192.532Y-109.474
X193.294Y-134.62
X193.421Y-78.232
X193.548Y-73.152
X193.548Y-114.554
X193.635Y-66.265
X194.056Y-81.28
X194.31Y-119.634
X194.749Y-67.379
X194.818Y-139.192
X194.854Y-73.116
X195.453Y-78.232
X195.834Y-64.262
X197.245Y-70.635
X197.358Y-141.224
X198.374Y-134.62
X198.628Y-89.916
X198.731Y-64.159
X200.749Y-86.36
X201.422Y-67.056
X201.422Y-70.612
X201.422Y-133.096
X202.438Y-124.968
X204.216Y-71.374
X205.74Y-75.184
X206.756Y-72.644
X207.264Y-116.84
X210.312Y-110.49
X210.312Y-117.348
X211.074Y-86.106
X211.074Y-106.172
X213.106Y-102.108
X213.526Y-95.25
T2
X108.934Y-84.242
X108.934Y-118.96
X109.906Y-81.895
X109.906Y-121.307
X110.878Y-79.549
X110.878Y-123.653
X135.428Y-54.999
X135.428Y-148.203
X137.16Y-131.921
X137.774Y-54.027
X137.774Y-149.175
X139.7Y-129.381
X140.121Y-53.055
X140.121Y-150.147
X142.24Y-131.921
X172.72Y-131.921
X174.839Y-53.055
X174.839Y-150.147
X175.26Y-129.381
X177.186Y-54.027
X177.186Y-149.175
X177.8Y-131.921
X179.532Y-54.999
X179.532Y-148.203
X204.082Y-79.549
X204.082Y-123.653
X205.054Y-81.895
X205.054Y-121.307
X206.026Y-84.242
X206.026Y-118.96
T3
X179.07Y-115.57
X179.07Y-123.19
T4
X116.96Y-82.55
X119.46Y-82.55
X121.96Y-82.55
X124.46Y-82.55
X146.23Y-75.51
X148.73Y-75.51
X151.23Y-75.51
X153.73Y-75.51
X156.23Y-75.51
X158.73Y-75.51
X161.23Y-75.51
X163.73Y-75.51
X166.23Y-75.51
X168.73Y-75.51
X189.755Y-128.31
X189.755Y-130.81
X189.755Y-133.31
T5
X114.3Y-89.71
X114.3Y-92.25
X114.3Y-94.79
X114.3Y-97.33
X114.3Y-99.87
X114.3Y-102.41
X114.3Y-104.95
X114.3Y-107.49
X114.3Y-110.03
X114.3Y-112.57
X114.3Y-115.11
X114.3Y-117.65
X114.3Y-120.19
X114.3Y-122.73
X116.84Y-89.71
X116.84Y-92.25
X116.84Y-94.79
X116.84Y-97.33
X116.84Y-99.87
X116.84Y-102.41
X116.84Y-104.95
X116.84Y-107.49
X116.84Y-110.03
X116.84Y-112.57
X116.84Y-115.11
X116.84Y-117.65
X116.84Y-120.19
X116.84Y-122.73
X122.565Y-130.81
X130.165Y-130.81
X130.85Y-82.55
X132.08Y-89.71
X132.08Y-92.25
X132.08Y-94.79
X132.08Y-97.33
X132.08Y-99.87
X132.08Y-102.41
X132.08Y-104.95
X132.08Y-107.49
X132.08Y-110.03
X132.08Y-112.57
X132.08Y-115.11
X132.08Y-117.65
X132.08Y-120.19
X132.08Y-122.73
X133.35Y-82.55
X134.62Y-89.71
X134.62Y-92.25
X134.62Y-94.79
X134.62Y-97.33
X134.62Y-99.87
X134.62Y-102.41
X134.62Y-104.95
X134.62Y-107.49
X134.62Y-110.03
X134.62Y-112.57
X134.62Y-115.11
X134.62Y-117.65
X134.62Y-120.19
X134.62Y-122.73
X137.922Y-69.098
X137.922Y-71.638
X137.922Y-74.178
X137.922Y-76.718
X141.48Y-66.802
X141.48Y-69.342
X141.48Y-71.882
X141.48Y-74.422
X141.48Y-76.962
X141.48Y-79.502
X141.48Y-82.042
X141.48Y-84.582
X146.05Y-125.73
X146.05Y-129.54
X146.05Y-133.35
X148.59Y-125.73
X148.59Y-129.54
X148.59Y-133.35
X151.13Y-125.73
X151.13Y-129.54
X151.13Y-133.35
X153.67Y-125.73
X153.67Y-129.54
X153.67Y-133.35
X156.21Y-125.73
X156.21Y-129.54
X156.21Y-133.35
X158.75Y-125.73
X158.75Y-129.54
X158.75Y-133.35
X161.29Y-125.73
X161.29Y-129.54
X161.29Y-133.35
X163.83Y-125.73
X163.83Y-129.54
X163.83Y-133.35
X166.37Y-125.73
X166.37Y-129.54
X166.37Y-133.35
X168.91Y-125.73
X168.91Y-129.54
X168.91Y-133.35
X173.48Y-66.802
X173.48Y-69.342
X173.48Y-71.882
X173.48Y-74.422
X173.48Y-76.962
X173.48Y-79.502
X173.48Y-82.042
X173.48Y-84.582
X179.165Y-90.805
X181.705Y-90.805
X182.88Y-128.31
X182.88Y-130.81
X184.15Y-95.25
X184.15Y-105.41
X184.15Y-111.76
X184.15Y-121.92
X184.245Y-90.805
X186.69Y-95.25
X186.69Y-105.41
X186.69Y-111.76
X186.69Y-121.92
X186.785Y-90.805
X189.23Y-95.25
X189.23Y-105.41
X189.23Y-111.76
X189.23Y-121.92
X189.325Y-90.805
X191.77Y-95.25
X191.77Y-105.41
X191.77Y-111.76
X191.77Y-121.92
X191.865Y-90.805
X194.31Y-95.25
X194.31Y-105.41
X194.31Y-111.76
X194.31Y-121.92
X194.405Y-90.805
X196.85Y-95.25
X196.85Y-105.41
X196.85Y-111.76
X196.85Y-121.92
X196.945Y-90.805
T6
X140.615Y-120.65
X140.615Y-123.19
X140.615Y-125.73
X174.345Y-120.65
X174.345Y-123.19
X174.345Y-125.73
T7
X137.01Y-138.756
X137.01Y-143.256
X143.51Y-138.756
X143.51Y-143.256
X148.44Y-138.72
X148.44Y-143.22
X154.94Y-138.72
X154.94Y-143.22
X159.87Y-138.72
X159.87Y-143.22
X166.37Y-138.72
X166.37Y-143.22
X171.375Y-138.72
X171.375Y-143.22
X177.875Y-138.72
X177.875Y-143.22
T0
M30
