%TF.GenerationSoftware,KiCad,Pcbnew,(6.0.5)*%
%TF.CreationDate,2022-10-16T22:52:23+09:00*%
%TF.ProjectId,main_board_Teensy,6d61696e-5f62-46f6-9172-645f5465656e,rev?*%
%TF.SameCoordinates,Original*%
%TF.FileFunction,Soldermask,Bot*%
%TF.FilePolarity,Negative*%
%FSLAX46Y46*%
G04 Gerber Fmt 4.6, Leading zero omitted, Abs format (unit mm)*
G04 Created by KiCad (PCBNEW (6.0.5)) date 2022-10-16 22:52:23*
%MOMM*%
%LPD*%
G01*
G04 APERTURE LIST*
G04 Aperture macros list*
%AMRoundRect*
0 Rectangle with rounded corners*
0 $1 Rounding radius*
0 $2 $3 $4 $5 $6 $7 $8 $9 X,Y pos of 4 corners*
0 Add a 4 corners polygon primitive as box body*
4,1,4,$2,$3,$4,$5,$6,$7,$8,$9,$2,$3,0*
0 Add four circle primitives for the rounded corners*
1,1,$1+$1,$2,$3*
1,1,$1+$1,$4,$5*
1,1,$1+$1,$6,$7*
1,1,$1+$1,$8,$9*
0 Add four rect primitives between the rounded corners*
20,1,$1+$1,$2,$3,$4,$5,0*
20,1,$1+$1,$4,$5,$6,$7,0*
20,1,$1+$1,$6,$7,$8,$9,0*
20,1,$1+$1,$8,$9,$2,$3,0*%
G04 Aperture macros list end*
%ADD10C,2.000000*%
%ADD11C,1.524000*%
%ADD12R,1.800000X1.800000*%
%ADD13O,1.800000X1.800000*%
%ADD14R,2.000000X2.000000*%
%ADD15R,1.700000X1.700000*%
%ADD16O,1.700000X1.700000*%
%ADD17C,1.635000*%
%ADD18C,1.700000*%
%ADD19RoundRect,0.250000X0.600000X0.725000X-0.600000X0.725000X-0.600000X-0.725000X0.600000X-0.725000X0*%
%ADD20O,1.700000X1.950000*%
%ADD21RoundRect,0.250000X0.600000X0.750000X-0.600000X0.750000X-0.600000X-0.750000X0.600000X-0.750000X0*%
%ADD22O,1.700000X2.000000*%
%ADD23RoundRect,0.250000X0.725000X-0.600000X0.725000X0.600000X-0.725000X0.600000X-0.725000X-0.600000X0*%
%ADD24O,1.950000X1.700000*%
%ADD25RoundRect,0.250000X0.750000X-0.600000X0.750000X0.600000X-0.750000X0.600000X-0.750000X-0.600000X0*%
%ADD26O,2.000000X1.700000*%
%ADD27RoundRect,0.250000X-0.600000X-0.725000X0.600000X-0.725000X0.600000X0.725000X-0.600000X0.725000X0*%
%ADD28O,1.700000X2.500000*%
G04 APERTURE END LIST*
D10*
%TO.C,programmable switch*%
X137010000Y-143256000D03*
X143510000Y-143256000D03*
X143510000Y-138756000D03*
X137010000Y-138756000D03*
%TD*%
%TO.C,Cam Reset*%
X171375000Y-143220000D03*
X177875000Y-143220000D03*
X177875000Y-138720000D03*
X171375000Y-138720000D03*
%TD*%
D11*
%TO.C,R12*%
X172720000Y-131921000D03*
X175260000Y-129381000D03*
X177800000Y-131921000D03*
%TD*%
%TO.C,R13*%
X137160000Y-131921000D03*
X139700000Y-129381000D03*
X142240000Y-131921000D03*
%TD*%
D10*
%TO.C,Gyro Reset*%
X166370000Y-143220000D03*
X159870000Y-143220000D03*
X159870000Y-138720000D03*
X166370000Y-138720000D03*
%TD*%
%TO.C,SW10*%
X154940000Y-143220000D03*
X148440000Y-143220000D03*
X148440000Y-138720000D03*
X154940000Y-138720000D03*
%TD*%
D11*
%TO.C,U15*%
X179532346Y-148202733D03*
X177185692Y-149174749D03*
X174839038Y-150146765D03*
%TD*%
D12*
%TO.C,D23*%
X179070000Y-115570000D03*
D13*
X179070000Y-123190000D03*
%TD*%
D14*
%TO.C,BZ1*%
X122565000Y-130810000D03*
D10*
X130165000Y-130810000D03*
%TD*%
D11*
%TO.C,U10*%
X108934235Y-84241962D03*
X109906251Y-81895308D03*
X110878267Y-79548654D03*
%TD*%
D15*
%TO.C,J1*%
X168910000Y-133350000D03*
D16*
X166370000Y-133350000D03*
X163830000Y-133350000D03*
X161290000Y-133350000D03*
X158750000Y-133350000D03*
X156210000Y-133350000D03*
X153670000Y-133350000D03*
X151130000Y-133350000D03*
X148590000Y-133350000D03*
X146050000Y-133350000D03*
%TD*%
D11*
%TO.C,U9*%
X110878267Y-123653346D03*
X109906251Y-121306692D03*
X108934235Y-118960038D03*
%TD*%
D17*
%TO.C,SW4*%
X140615000Y-125730000D03*
X140615000Y-123190000D03*
X140615000Y-120650000D03*
%TD*%
D11*
%TO.C,U13*%
X204081732Y-79548653D03*
X205053748Y-81895307D03*
X206025764Y-84241961D03*
%TD*%
D18*
%TO.C,U7*%
X134620000Y-94790000D03*
X132080000Y-120190000D03*
X114300000Y-117650000D03*
X116840000Y-122730000D03*
X134620000Y-112570000D03*
X134620000Y-115110000D03*
X116840000Y-120190000D03*
X116840000Y-117650000D03*
X116840000Y-115110000D03*
X116840000Y-112570000D03*
X116840000Y-110030000D03*
X116840000Y-107490000D03*
X116840000Y-104950000D03*
X116840000Y-102410000D03*
X116840000Y-99870000D03*
X116840000Y-97330000D03*
X116840000Y-94790000D03*
X116840000Y-92250000D03*
X116840000Y-89710000D03*
X114300000Y-89710000D03*
X134620000Y-92250000D03*
X134620000Y-89710000D03*
X132080000Y-89710000D03*
X132080000Y-92250000D03*
X132080000Y-94790000D03*
X132080000Y-97330000D03*
X132080000Y-99870000D03*
X132080000Y-102410000D03*
X132080000Y-104950000D03*
X132080000Y-107490000D03*
X132080000Y-110030000D03*
X132080000Y-112570000D03*
X132080000Y-115110000D03*
X114300000Y-112570000D03*
X132080000Y-117650000D03*
X134620000Y-97330000D03*
X132080000Y-122730000D03*
X134620000Y-122730000D03*
X134620000Y-99870000D03*
X134620000Y-107490000D03*
X134620000Y-104950000D03*
X134620000Y-110030000D03*
X134620000Y-102410000D03*
X114300000Y-102410000D03*
X114300000Y-92250000D03*
X114300000Y-99870000D03*
X114300000Y-94790000D03*
X114300000Y-97330000D03*
X114300000Y-122730000D03*
X114300000Y-120190000D03*
X114300000Y-115110000D03*
X114300000Y-110030000D03*
X114300000Y-107490000D03*
X114300000Y-104950000D03*
X134620000Y-120190000D03*
X134620000Y-117650000D03*
%TD*%
D11*
%TO.C,U12*%
X174839038Y-53055235D03*
X177185692Y-54027251D03*
X179532346Y-54999267D03*
%TD*%
D19*
%TO.C,J8*%
X124460000Y-82550000D03*
D20*
X121960000Y-82550000D03*
X119460000Y-82550000D03*
X116960000Y-82550000D03*
%TD*%
D21*
%TO.C,J6*%
X133350000Y-82550000D03*
D22*
X130850000Y-82550000D03*
%TD*%
D11*
%TO.C,U14*%
X206025765Y-118960038D03*
X205053749Y-121306692D03*
X204081733Y-123653346D03*
%TD*%
D18*
%TO.C,U4*%
X184150000Y-121920000D03*
X186690000Y-121920000D03*
X189230000Y-121920000D03*
X191770000Y-121920000D03*
X194310000Y-121920000D03*
X196850000Y-121920000D03*
X196850000Y-111760000D03*
X194310000Y-111760000D03*
X191770000Y-111760000D03*
X189230000Y-111760000D03*
X186690000Y-111760000D03*
X184150000Y-111760000D03*
%TD*%
D15*
%TO.C,J7*%
X168910000Y-125730000D03*
D16*
X166370000Y-125730000D03*
X163830000Y-125730000D03*
X161290000Y-125730000D03*
X158750000Y-125730000D03*
X156210000Y-125730000D03*
X153670000Y-125730000D03*
X151130000Y-125730000D03*
X148590000Y-125730000D03*
X146050000Y-125730000D03*
%TD*%
D18*
%TO.C,U6*%
X141480000Y-66802000D03*
X141480000Y-69342000D03*
X141480000Y-71882000D03*
X141480000Y-74422000D03*
X141480000Y-76962000D03*
X141480000Y-79502000D03*
X141480000Y-82042000D03*
X141480000Y-84582000D03*
X173480000Y-84582000D03*
X173480000Y-82042000D03*
X173480000Y-79502000D03*
X173480000Y-76962000D03*
X173480000Y-74422000D03*
X173480000Y-71882000D03*
X173480000Y-69342000D03*
X173480000Y-66802000D03*
%TD*%
D15*
%TO.C,J4*%
X168910000Y-129540000D03*
D16*
X166370000Y-129540000D03*
X163830000Y-129540000D03*
X161290000Y-129540000D03*
X158750000Y-129540000D03*
X156210000Y-129540000D03*
X153670000Y-129540000D03*
X151130000Y-129540000D03*
X148590000Y-129540000D03*
X146050000Y-129540000D03*
%TD*%
D23*
%TO.C,J5*%
X189755000Y-133310000D03*
D24*
X189755000Y-130810000D03*
X189755000Y-128310000D03*
%TD*%
D15*
%TO.C,J3*%
X137922000Y-69098000D03*
D16*
X137922000Y-71638000D03*
X137922000Y-74178000D03*
X137922000Y-76718000D03*
%TD*%
D25*
%TO.C,J9*%
X182880000Y-130810000D03*
D26*
X182880000Y-128310000D03*
%TD*%
D27*
%TO.C,J2*%
X146230000Y-75510000D03*
D20*
X148730000Y-75510000D03*
X151230000Y-75510000D03*
X153730000Y-75510000D03*
X156230000Y-75510000D03*
X158730000Y-75510000D03*
X161230000Y-75510000D03*
X163730000Y-75510000D03*
X166230000Y-75510000D03*
X168730000Y-75510000D03*
%TD*%
D18*
%TO.C,U1*%
X184150000Y-105410000D03*
X186690000Y-105410000D03*
X189230000Y-105410000D03*
X191770000Y-105410000D03*
X194310000Y-105410000D03*
X196850000Y-105410000D03*
X196850000Y-95250000D03*
X194310000Y-95250000D03*
X191770000Y-95250000D03*
X189230000Y-95250000D03*
X186690000Y-95250000D03*
X184150000Y-95250000D03*
%TD*%
D28*
%TO.C,U3*%
X179165000Y-90805000D03*
X181705000Y-90805000D03*
X184245000Y-90805000D03*
X186785000Y-90805000D03*
X189325000Y-90805000D03*
X191865000Y-90805000D03*
X194405000Y-90805000D03*
X196945000Y-90805000D03*
%TD*%
D17*
%TO.C,SW1*%
X174345000Y-120650000D03*
X174345000Y-123190000D03*
X174345000Y-125730000D03*
%TD*%
D11*
%TO.C,U8*%
X140120962Y-150146765D03*
X137774308Y-149174749D03*
X135427654Y-148202733D03*
%TD*%
%TO.C,U11*%
X135427654Y-54999267D03*
X137774308Y-54027251D03*
X140120962Y-53055235D03*
%TD*%
M02*
