%TF.GenerationSoftware,KiCad,Pcbnew,(6.0.5)*%
%TF.CreationDate,2023-02-26T15:47:36+09:00*%
%TF.ProjectId,mainboard,6d61696e-626f-4617-9264-2e6b69636164,rev?*%
%TF.SameCoordinates,Original*%
%TF.FileFunction,Legend,Top*%
%TF.FilePolarity,Positive*%
%FSLAX46Y46*%
G04 Gerber Fmt 4.6, Leading zero omitted, Abs format (unit mm)*
G04 Created by KiCad (PCBNEW (6.0.5)) date 2023-02-26 15:47:36*
%MOMM*%
%LPD*%
G01*
G04 APERTURE LIST*
%ADD10C,0.150000*%
%ADD11C,0.120000*%
%ADD12C,0.100000*%
G04 APERTURE END LIST*
D10*
%TO.C,R24*%
X133977142Y-123134380D02*
X133643809Y-122658190D01*
X133405714Y-123134380D02*
X133405714Y-122134380D01*
X133786666Y-122134380D01*
X133881904Y-122182000D01*
X133929523Y-122229619D01*
X133977142Y-122324857D01*
X133977142Y-122467714D01*
X133929523Y-122562952D01*
X133881904Y-122610571D01*
X133786666Y-122658190D01*
X133405714Y-122658190D01*
X134358095Y-122229619D02*
X134405714Y-122182000D01*
X134500952Y-122134380D01*
X134739047Y-122134380D01*
X134834285Y-122182000D01*
X134881904Y-122229619D01*
X134929523Y-122324857D01*
X134929523Y-122420095D01*
X134881904Y-122562952D01*
X134310476Y-123134380D01*
X134929523Y-123134380D01*
X135786666Y-122467714D02*
X135786666Y-123134380D01*
X135548571Y-122086761D02*
X135310476Y-122801047D01*
X135929523Y-122801047D01*
%TO.C,SW6*%
X141541666Y-141882761D02*
X141684523Y-141930380D01*
X141922619Y-141930380D01*
X142017857Y-141882761D01*
X142065476Y-141835142D01*
X142113095Y-141739904D01*
X142113095Y-141644666D01*
X142065476Y-141549428D01*
X142017857Y-141501809D01*
X141922619Y-141454190D01*
X141732142Y-141406571D01*
X141636904Y-141358952D01*
X141589285Y-141311333D01*
X141541666Y-141216095D01*
X141541666Y-141120857D01*
X141589285Y-141025619D01*
X141636904Y-140978000D01*
X141732142Y-140930380D01*
X141970238Y-140930380D01*
X142113095Y-140978000D01*
X142446428Y-140930380D02*
X142684523Y-141930380D01*
X142875000Y-141216095D01*
X143065476Y-141930380D01*
X143303571Y-140930380D01*
X144113095Y-140930380D02*
X143922619Y-140930380D01*
X143827380Y-140978000D01*
X143779761Y-141025619D01*
X143684523Y-141168476D01*
X143636904Y-141358952D01*
X143636904Y-141739904D01*
X143684523Y-141835142D01*
X143732142Y-141882761D01*
X143827380Y-141930380D01*
X144017857Y-141930380D01*
X144113095Y-141882761D01*
X144160714Y-141835142D01*
X144208333Y-141739904D01*
X144208333Y-141501809D01*
X144160714Y-141406571D01*
X144113095Y-141358952D01*
X144017857Y-141311333D01*
X143827380Y-141311333D01*
X143732142Y-141358952D01*
X143684523Y-141406571D01*
X143636904Y-141501809D01*
%TO.C,SW2*%
X160591666Y-141882761D02*
X160734523Y-141930380D01*
X160972619Y-141930380D01*
X161067857Y-141882761D01*
X161115476Y-141835142D01*
X161163095Y-141739904D01*
X161163095Y-141644666D01*
X161115476Y-141549428D01*
X161067857Y-141501809D01*
X160972619Y-141454190D01*
X160782142Y-141406571D01*
X160686904Y-141358952D01*
X160639285Y-141311333D01*
X160591666Y-141216095D01*
X160591666Y-141120857D01*
X160639285Y-141025619D01*
X160686904Y-140978000D01*
X160782142Y-140930380D01*
X161020238Y-140930380D01*
X161163095Y-140978000D01*
X161496428Y-140930380D02*
X161734523Y-141930380D01*
X161925000Y-141216095D01*
X162115476Y-141930380D01*
X162353571Y-140930380D01*
X162686904Y-141025619D02*
X162734523Y-140978000D01*
X162829761Y-140930380D01*
X163067857Y-140930380D01*
X163163095Y-140978000D01*
X163210714Y-141025619D01*
X163258333Y-141120857D01*
X163258333Y-141216095D01*
X163210714Y-141358952D01*
X162639285Y-141930380D01*
X163258333Y-141930380D01*
%TO.C,SW4*%
X170116666Y-141882761D02*
X170259523Y-141930380D01*
X170497619Y-141930380D01*
X170592857Y-141882761D01*
X170640476Y-141835142D01*
X170688095Y-141739904D01*
X170688095Y-141644666D01*
X170640476Y-141549428D01*
X170592857Y-141501809D01*
X170497619Y-141454190D01*
X170307142Y-141406571D01*
X170211904Y-141358952D01*
X170164285Y-141311333D01*
X170116666Y-141216095D01*
X170116666Y-141120857D01*
X170164285Y-141025619D01*
X170211904Y-140978000D01*
X170307142Y-140930380D01*
X170545238Y-140930380D01*
X170688095Y-140978000D01*
X171021428Y-140930380D02*
X171259523Y-141930380D01*
X171450000Y-141216095D01*
X171640476Y-141930380D01*
X171878571Y-140930380D01*
X172688095Y-141263714D02*
X172688095Y-141930380D01*
X172450000Y-140882761D02*
X172211904Y-141597047D01*
X172830952Y-141597047D01*
%TO.C,R34*%
X169537142Y-123134380D02*
X169203809Y-122658190D01*
X168965714Y-123134380D02*
X168965714Y-122134380D01*
X169346666Y-122134380D01*
X169441904Y-122182000D01*
X169489523Y-122229619D01*
X169537142Y-122324857D01*
X169537142Y-122467714D01*
X169489523Y-122562952D01*
X169441904Y-122610571D01*
X169346666Y-122658190D01*
X168965714Y-122658190D01*
X169870476Y-122134380D02*
X170489523Y-122134380D01*
X170156190Y-122515333D01*
X170299047Y-122515333D01*
X170394285Y-122562952D01*
X170441904Y-122610571D01*
X170489523Y-122705809D01*
X170489523Y-122943904D01*
X170441904Y-123039142D01*
X170394285Y-123086761D01*
X170299047Y-123134380D01*
X170013333Y-123134380D01*
X169918095Y-123086761D01*
X169870476Y-123039142D01*
X171346666Y-122467714D02*
X171346666Y-123134380D01*
X171108571Y-122086761D02*
X170870476Y-122801047D01*
X171489523Y-122801047D01*
%TO.C,SW5*%
X132016666Y-141882761D02*
X132159523Y-141930380D01*
X132397619Y-141930380D01*
X132492857Y-141882761D01*
X132540476Y-141835142D01*
X132588095Y-141739904D01*
X132588095Y-141644666D01*
X132540476Y-141549428D01*
X132492857Y-141501809D01*
X132397619Y-141454190D01*
X132207142Y-141406571D01*
X132111904Y-141358952D01*
X132064285Y-141311333D01*
X132016666Y-141216095D01*
X132016666Y-141120857D01*
X132064285Y-141025619D01*
X132111904Y-140978000D01*
X132207142Y-140930380D01*
X132445238Y-140930380D01*
X132588095Y-140978000D01*
X132921428Y-140930380D02*
X133159523Y-141930380D01*
X133350000Y-141216095D01*
X133540476Y-141930380D01*
X133778571Y-140930380D01*
X134635714Y-140930380D02*
X134159523Y-140930380D01*
X134111904Y-141406571D01*
X134159523Y-141358952D01*
X134254761Y-141311333D01*
X134492857Y-141311333D01*
X134588095Y-141358952D01*
X134635714Y-141406571D01*
X134683333Y-141501809D01*
X134683333Y-141739904D01*
X134635714Y-141835142D01*
X134588095Y-141882761D01*
X134492857Y-141930380D01*
X134254761Y-141930380D01*
X134159523Y-141882761D01*
X134111904Y-141835142D01*
%TO.C,SW1*%
X151066666Y-141882761D02*
X151209523Y-141930380D01*
X151447619Y-141930380D01*
X151542857Y-141882761D01*
X151590476Y-141835142D01*
X151638095Y-141739904D01*
X151638095Y-141644666D01*
X151590476Y-141549428D01*
X151542857Y-141501809D01*
X151447619Y-141454190D01*
X151257142Y-141406571D01*
X151161904Y-141358952D01*
X151114285Y-141311333D01*
X151066666Y-141216095D01*
X151066666Y-141120857D01*
X151114285Y-141025619D01*
X151161904Y-140978000D01*
X151257142Y-140930380D01*
X151495238Y-140930380D01*
X151638095Y-140978000D01*
X151971428Y-140930380D02*
X152209523Y-141930380D01*
X152400000Y-141216095D01*
X152590476Y-141930380D01*
X152828571Y-140930380D01*
X153733333Y-141930380D02*
X153161904Y-141930380D01*
X153447619Y-141930380D02*
X153447619Y-140930380D01*
X153352380Y-141073238D01*
X153257142Y-141168476D01*
X153161904Y-141216095D01*
D11*
%TO.C,C21*%
X157374000Y-49637836D02*
X157374000Y-49422164D01*
X158094000Y-49637836D02*
X158094000Y-49422164D01*
%TO.C,Y2*%
X173568060Y-92068487D02*
X175901513Y-94401940D01*
X175901513Y-94401940D02*
X178729940Y-91573513D01*
%TO.C,R29*%
X121792000Y-81687641D02*
X121792000Y-81380359D01*
X121032000Y-81687641D02*
X121032000Y-81380359D01*
%TO.C,D11*%
X196887623Y-62274256D02*
X191725744Y-57112377D01*
X191725744Y-57112377D02*
X190912571Y-57925549D01*
X192998536Y-66163343D02*
X187836657Y-61001464D01*
D10*
%TO.C,U20*%
X182745559Y-110490000D02*
X182374328Y-110861231D01*
X179705000Y-113530559D02*
X180076231Y-113159328D01*
X179705000Y-107449441D02*
X179333769Y-107820672D01*
X179705000Y-107449441D02*
X180076231Y-107820672D01*
X176664441Y-110490000D02*
X177035672Y-110861231D01*
X179705000Y-113530559D02*
X179333769Y-113159328D01*
X176664441Y-110490000D02*
X177035672Y-110118769D01*
D11*
%TO.C,C26*%
X198503313Y-126080436D02*
X198702568Y-126162970D01*
X198227780Y-126745630D02*
X198427035Y-126828164D01*
%TO.C,D17*%
X211665000Y-105250000D02*
X211665000Y-97950000D01*
X206165000Y-105250000D02*
X206165000Y-97950000D01*
X211665000Y-97950000D02*
X210515000Y-97950000D01*
%TO.C,C20*%
X180209880Y-90511509D02*
X180362383Y-90359006D01*
X180718997Y-91020626D02*
X180871500Y-90868123D01*
%TO.C,C39*%
X100353574Y-118369832D02*
X100154319Y-118452366D01*
X100629107Y-119035026D02*
X100429852Y-119117560D01*
%TO.C,D12*%
X178451894Y-154956926D02*
X178011808Y-153894465D01*
X169602814Y-152669178D02*
X176347135Y-149875589D01*
X171707573Y-157750515D02*
X178451894Y-154956926D01*
%TO.C,C15*%
X102489753Y-116889683D02*
X102290498Y-116972217D01*
X102214220Y-116224489D02*
X102014965Y-116307023D01*
%TO.C,C25*%
X204362164Y-106574000D02*
X204577836Y-106574000D01*
X204362164Y-107294000D02*
X204577836Y-107294000D01*
%TO.C,R19*%
X186236020Y-141184799D02*
X186453301Y-141402080D01*
X185698619Y-141722200D02*
X185915900Y-141939481D01*
%TO.C,U10*%
X185252902Y-86057804D02*
X185588777Y-86393680D01*
X182233556Y-83038458D02*
X181897680Y-82702583D01*
X185588777Y-86393680D02*
X185252902Y-86729556D01*
X178206583Y-86393680D02*
X178542458Y-86057804D01*
X181897680Y-82702583D02*
X181561804Y-83038458D01*
X181561804Y-89748902D02*
X181897680Y-90084777D01*
X178542458Y-86729556D02*
X178206583Y-86393680D01*
%TO.C,C16*%
X100437836Y-96626000D02*
X100222164Y-96626000D01*
X100437836Y-95906000D02*
X100222164Y-95906000D01*
%TO.C,R24*%
X133350000Y-120745000D02*
X135890000Y-120745000D01*
X134620000Y-119475000D02*
X134620000Y-122015000D01*
X134620000Y-120745000D02*
X134620000Y-119475000D01*
X132080000Y-118205000D02*
X137160000Y-118205000D01*
X137160000Y-118205000D02*
X137160000Y-123285000D01*
X137160000Y-123285000D02*
X132080000Y-123285000D01*
X132080000Y-123285000D02*
X132080000Y-118205000D01*
X135890000Y-120745000D02*
G75*
G03*
X135890000Y-120745000I-1270000J0D01*
G01*
%TO.C,C4*%
X186512810Y-90753693D02*
X186360307Y-90601190D01*
X186003693Y-91262810D02*
X185851190Y-91110307D01*
%TO.C,C28*%
X167024489Y-151785780D02*
X167107023Y-151985035D01*
X167689683Y-151510247D02*
X167772217Y-151709502D01*
%TO.C,SW6*%
X139375000Y-140855000D02*
X139375000Y-142355000D01*
X145125000Y-138355000D02*
X140625000Y-138355000D01*
X140625000Y-144855000D02*
X145125000Y-144855000D01*
X146375000Y-142355000D02*
X146375000Y-140855000D01*
%TO.C,D7*%
X111801464Y-137036657D02*
X116963343Y-142198536D01*
X113074256Y-146087623D02*
X113887429Y-145274451D01*
X107912377Y-140925744D02*
X113074256Y-146087623D01*
%TO.C,C46*%
X206902164Y-105304000D02*
X207117836Y-105304000D01*
X206902164Y-106024000D02*
X207117836Y-106024000D01*
%TO.C,R11*%
X118563980Y-62015201D02*
X118346699Y-61797920D01*
X119101381Y-61477800D02*
X118884100Y-61260519D01*
%TO.C,C40*%
X193557973Y-65680274D02*
X193710476Y-65527771D01*
X194067090Y-66189391D02*
X194219593Y-66036888D01*
%TO.C,C48*%
X119836693Y-60655810D02*
X119684190Y-60503307D01*
X120345810Y-60146693D02*
X120193307Y-59994190D01*
%TO.C,C18*%
X119683467Y-60830935D02*
X119530964Y-60678432D01*
X119174350Y-61340052D02*
X119021847Y-61187549D01*
%TO.C,R30*%
X193293000Y-115469641D02*
X193293000Y-115162359D01*
X192533000Y-115469641D02*
X192533000Y-115162359D01*
D12*
%TO.C,D4*%
X194106000Y-114226000D02*
G75*
G03*
X194106000Y-114226000I-50000J0D01*
G01*
D11*
%TO.C,R14*%
X176023101Y-55191147D02*
X176140693Y-54907256D01*
X176725249Y-55481986D02*
X176842841Y-55198095D01*
%TO.C,R1*%
X181008060Y-95888659D02*
X181225341Y-96105940D01*
X180470659Y-96426060D02*
X180687940Y-96643341D01*
%TO.C,C42*%
X97897836Y-97176000D02*
X97682164Y-97176000D01*
X97897836Y-97896000D02*
X97682164Y-97896000D01*
%TO.C,D19*%
X107912377Y-62274256D02*
X108725549Y-63087429D01*
X116963343Y-61001464D02*
X111801464Y-66163343D01*
X113074256Y-57112377D02*
X107912377Y-62274256D01*
%TO.C,C8*%
X193019000Y-111613836D02*
X193019000Y-111398164D01*
X192299000Y-111613836D02*
X192299000Y-111398164D01*
%TO.C,C22*%
X177545630Y-55772220D02*
X177628164Y-55572965D01*
X176880436Y-55496687D02*
X176962970Y-55297432D01*
%TO.C,R31*%
X121792000Y-75792359D02*
X121792000Y-76099641D01*
X121032000Y-75792359D02*
X121032000Y-76099641D01*
%TO.C,C10*%
X178997110Y-92839350D02*
X178844607Y-92991853D01*
X178487993Y-92330233D02*
X178335490Y-92482736D01*
%TO.C,R13*%
X156465000Y-49683641D02*
X156465000Y-49376359D01*
X157225000Y-49683641D02*
X157225000Y-49376359D01*
%TO.C,R10*%
X105991147Y-77976899D02*
X105707256Y-77859307D01*
X106281986Y-77274751D02*
X105998095Y-77157159D01*
%TO.C,R22*%
X185751349Y-88055876D02*
X185968630Y-88273157D01*
X186288750Y-87518475D02*
X186506031Y-87735756D01*
%TO.C,C31*%
X177934219Y-105457970D02*
X178133030Y-105656781D01*
X177212970Y-106179219D02*
X177411781Y-106378030D01*
%TO.C,C9*%
X177208362Y-94628098D02*
X177360865Y-94475595D01*
X176699245Y-94118981D02*
X176851748Y-93966478D01*
%TO.C,C34*%
X110732910Y-137010609D02*
X110580407Y-137163112D01*
X111242027Y-137519726D02*
X111089524Y-137672229D01*
%TO.C,R8*%
X102589091Y-117009812D02*
X102305200Y-117127404D01*
X102879930Y-117711960D02*
X102596039Y-117829552D01*
%TO.C,R20*%
X168511960Y-151120070D02*
X168629552Y-151403961D01*
X167809812Y-151410909D02*
X167927404Y-151694800D01*
%TO.C,C17*%
X106296687Y-77119564D02*
X106097432Y-77037030D01*
X106572220Y-76454370D02*
X106372965Y-76371836D01*
%TO.C,R18*%
X198808853Y-125223101D02*
X199092744Y-125340693D01*
X198518014Y-125925249D02*
X198801905Y-126042841D01*
%TO.C,D9*%
X187836657Y-142198536D02*
X192998536Y-137036657D01*
X196887623Y-140925744D02*
X196074451Y-140112571D01*
X191725744Y-146087623D02*
X196887623Y-140925744D01*
%TO.C,Y1*%
X197652940Y-89909487D02*
X194824513Y-87081060D01*
X195319487Y-92242940D02*
X197652940Y-89909487D01*
%TO.C,R5*%
X147575000Y-153516359D02*
X147575000Y-153823641D01*
X148335000Y-153516359D02*
X148335000Y-153823641D01*
%TO.C,C30*%
X176958970Y-113291219D02*
X177157781Y-113490030D01*
X177680219Y-112569970D02*
X177879030Y-112768781D01*
%TO.C,SW2*%
X165425000Y-142355000D02*
X165425000Y-140855000D01*
X164175000Y-138355000D02*
X159675000Y-138355000D01*
X159675000Y-144855000D02*
X164175000Y-144855000D01*
X158425000Y-140855000D02*
X158425000Y-142355000D01*
%TO.C,D22*%
X126348106Y-48243074D02*
X126788192Y-49305535D01*
X133092427Y-45449485D02*
X126348106Y-48243074D01*
X135197186Y-50530822D02*
X128452865Y-53324411D01*
%TO.C,C6*%
X197028307Y-95681190D02*
X197180810Y-95833693D01*
X196519190Y-96190307D02*
X196671693Y-96342810D01*
%TO.C,R12*%
X136288040Y-52079930D02*
X136170448Y-51796039D01*
X136990188Y-51789091D02*
X136872596Y-51505200D01*
%TO.C,C36*%
X181998219Y-113839970D02*
X182197030Y-114038781D01*
X181276970Y-114561219D02*
X181475781Y-114760030D01*
%TO.C,U1*%
X179669916Y-101105025D02*
X179174942Y-101600000D01*
X179174942Y-101600000D02*
X179669916Y-102094975D01*
X189230000Y-91544942D02*
X189724975Y-92039916D01*
X189724975Y-111160084D02*
X189230000Y-111655058D01*
X189230000Y-111655058D02*
X188735025Y-111160084D01*
X188735025Y-92039916D02*
X189230000Y-91544942D01*
X198790084Y-102094975D02*
X199285058Y-101600000D01*
X198790084Y-101105025D02*
X199702251Y-100192858D01*
X199285058Y-101600000D02*
X198790084Y-101105025D01*
%TO.C,R7*%
X112277800Y-134898619D02*
X112060519Y-135115900D01*
X112815201Y-135436020D02*
X112597920Y-135653301D01*
D12*
%TO.C,D2*%
X190042000Y-114226000D02*
G75*
G03*
X190042000Y-114226000I-50000J0D01*
G01*
D11*
%TO.C,C27*%
X185625650Y-141859948D02*
X185778153Y-142012451D01*
X185116533Y-142369065D02*
X185269036Y-142521568D01*
%TO.C,C35*%
X175379781Y-108410030D02*
X175180970Y-108211219D01*
X176101030Y-107688781D02*
X175902219Y-107489970D01*
%TO.C,C37*%
X177344319Y-52939558D02*
X177426853Y-52740303D01*
X176679125Y-52664025D02*
X176761659Y-52464770D01*
%TO.C,C29*%
X184581190Y-83133693D02*
X184733693Y-82981190D01*
X185090307Y-83642810D02*
X185242810Y-83490307D01*
%TO.C,C44*%
X147976000Y-156102164D02*
X147976000Y-156317836D01*
X148696000Y-156102164D02*
X148696000Y-156317836D01*
%TO.C,D15*%
X148750000Y-155365000D02*
X156050000Y-155365000D01*
X156050000Y-160865000D02*
X156050000Y-159715000D01*
X148750000Y-160865000D02*
X156050000Y-160865000D01*
%TO.C,R28*%
X121032000Y-74067641D02*
X121032000Y-73760359D01*
X121792000Y-74067641D02*
X121792000Y-73760359D01*
%TO.C,R23*%
X185751349Y-84687756D02*
X185968630Y-84470475D01*
X186288750Y-85225157D02*
X186506031Y-85007876D01*
%TO.C,C33*%
X201060442Y-126544319D02*
X201259697Y-126626853D01*
X201335975Y-125879125D02*
X201535230Y-125961659D01*
%TO.C,R33*%
X191261000Y-115469641D02*
X191261000Y-115162359D01*
X190501000Y-115469641D02*
X190501000Y-115162359D01*
%TO.C,C45*%
X103464025Y-77320875D02*
X103264770Y-77238341D01*
X103739558Y-76655681D02*
X103540303Y-76573147D01*
%TO.C,D6*%
X205756926Y-127651894D02*
X208550515Y-120907573D01*
X208550515Y-120907573D02*
X207488054Y-120467487D01*
X200675589Y-125547135D02*
X203469178Y-118802814D01*
%TO.C,R2*%
X179708659Y-97188060D02*
X179925940Y-97405341D01*
X180246060Y-96650659D02*
X180463341Y-96867940D01*
%TO.C,C47*%
X127455681Y-150260442D02*
X127373147Y-150459697D01*
X128120875Y-150535975D02*
X128038341Y-150735230D01*
%TO.C,C5*%
X184327190Y-92634307D02*
X184479693Y-92786810D01*
X184836307Y-92125190D02*
X184988810Y-92277693D01*
%TO.C,C24*%
X202585780Y-86975511D02*
X202785035Y-86892977D01*
X202310247Y-86310317D02*
X202509502Y-86227783D01*
%TO.C,D14*%
X208550515Y-82292427D02*
X205756926Y-75548106D01*
X205756926Y-75548106D02*
X204694465Y-75988192D01*
X203469178Y-84397186D02*
X200675589Y-77652865D01*
%TO.C,C3*%
X199945164Y-103907000D02*
X200160836Y-103907000D01*
X199945164Y-104627000D02*
X200160836Y-104627000D01*
%TO.C,C11*%
X178638810Y-88824307D02*
X178486307Y-88976810D01*
X178129693Y-88315190D02*
X177977190Y-88467693D01*
%TO.C,R25*%
X182215770Y-113485697D02*
X182551303Y-113821230D01*
X182954697Y-112746770D02*
X183290230Y-113082303D01*
%TO.C,D10*%
X96249485Y-120907573D02*
X99043074Y-127651894D01*
X101330822Y-118802814D02*
X104124411Y-125547135D01*
X99043074Y-127651894D02*
X100105535Y-127211808D01*
%TO.C,R4*%
X177221973Y-85114500D02*
X177439254Y-85331781D01*
X177759374Y-84577099D02*
X177976655Y-84794380D01*
%TO.C,D18*%
X126348106Y-154956926D02*
X133092427Y-157750515D01*
X128452865Y-149875589D02*
X135197186Y-152669178D01*
X133092427Y-157750515D02*
X133532513Y-156688054D01*
%TO.C,SW4*%
X174950000Y-142355000D02*
X174950000Y-140855000D01*
X173700000Y-138355000D02*
X169200000Y-138355000D01*
X169200000Y-144855000D02*
X173700000Y-144855000D01*
X167950000Y-140855000D02*
X167950000Y-142355000D01*
%TO.C,R26*%
X177194230Y-106732303D02*
X176858697Y-106396770D01*
X176455303Y-107471230D02*
X176119770Y-107135697D01*
%TO.C,R15*%
X191984799Y-67763980D02*
X192202080Y-67546699D01*
X192522200Y-68301381D02*
X192739481Y-68084100D01*
%TO.C,D13*%
X93135000Y-97950000D02*
X93135000Y-105250000D01*
X93135000Y-105250000D02*
X94285000Y-105250000D01*
X98635000Y-97950000D02*
X98635000Y-105250000D01*
%TO.C,R34*%
X170180000Y-120745000D02*
X170180000Y-119475000D01*
X168910000Y-120745000D02*
X171450000Y-120745000D01*
X170180000Y-119475000D02*
X170180000Y-122015000D01*
X167640000Y-118205000D02*
X172720000Y-118205000D01*
X172720000Y-118205000D02*
X172720000Y-123285000D01*
X172720000Y-123285000D02*
X167640000Y-123285000D01*
X167640000Y-123285000D02*
X167640000Y-118205000D01*
X171450000Y-120745000D02*
G75*
G03*
X171450000Y-120745000I-1270000J0D01*
G01*
D12*
%TO.C,D1*%
X192074000Y-114226000D02*
G75*
G03*
X192074000Y-114226000I-50000J0D01*
G01*
D11*
%TO.C,SW5*%
X131100000Y-144855000D02*
X135600000Y-144855000D01*
X135600000Y-138355000D02*
X131100000Y-138355000D01*
X136850000Y-142355000D02*
X136850000Y-140855000D01*
X129850000Y-140855000D02*
X129850000Y-142355000D01*
%TO.C,R32*%
X121792000Y-83412359D02*
X121792000Y-83719641D01*
X121032000Y-83412359D02*
X121032000Y-83719641D01*
%TO.C,D8*%
X171707573Y-45449485D02*
X171267487Y-46511946D01*
X178451894Y-48243074D02*
X171707573Y-45449485D01*
X176347135Y-53324411D02*
X169602814Y-50530822D01*
%TO.C,R36*%
X195325000Y-115469641D02*
X195325000Y-115162359D01*
X194565000Y-115469641D02*
X194565000Y-115162359D01*
%TO.C,D5*%
X156050000Y-47835000D02*
X148750000Y-47835000D01*
X156050000Y-42335000D02*
X148750000Y-42335000D01*
X148750000Y-42335000D02*
X148750000Y-43485000D01*
%TO.C,SW1*%
X154650000Y-138355000D02*
X150150000Y-138355000D01*
X155900000Y-142355000D02*
X155900000Y-140855000D01*
X150150000Y-144855000D02*
X154650000Y-144855000D01*
X148900000Y-140855000D02*
X148900000Y-142355000D01*
%TO.C,C49*%
X135630168Y-49553574D02*
X135547634Y-49354319D01*
X134964974Y-49829107D02*
X134882440Y-49629852D01*
%TO.C,C12*%
X147426000Y-153562164D02*
X147426000Y-153777836D01*
X146706000Y-153562164D02*
X146706000Y-153777836D01*
%TO.C,R3*%
X185259940Y-92071341D02*
X185042659Y-91854060D01*
X185797341Y-91533940D02*
X185580060Y-91316659D01*
%TO.C,C38*%
X184836307Y-142671190D02*
X184988810Y-142823693D01*
X184327190Y-143180307D02*
X184479693Y-143332810D01*
%TO.C,C13*%
X127919564Y-147703313D02*
X127837030Y-147902568D01*
X127254370Y-147427780D02*
X127171836Y-147627035D01*
%TO.C,C14*%
X112140052Y-134825650D02*
X111987549Y-134978153D01*
X111630935Y-134316533D02*
X111478432Y-134469036D01*
%TO.C,R16*%
X201920070Y-85488040D02*
X202203961Y-85370448D01*
X202210909Y-86190188D02*
X202494800Y-86072596D01*
%TO.C,R6*%
X128074751Y-147718014D02*
X127957159Y-148001905D01*
X128776899Y-148008853D02*
X128659307Y-148292744D01*
%TO.C,C32*%
X156824000Y-47097836D02*
X156824000Y-46882164D01*
X156104000Y-47097836D02*
X156104000Y-46882164D01*
%TO.C,R21*%
X184654341Y-82710060D02*
X184437060Y-82927341D01*
X184116940Y-82172659D02*
X183899659Y-82389940D01*
%TO.C,R27*%
X183231770Y-112469697D02*
X183567303Y-112805230D01*
X183970697Y-111730770D02*
X184306230Y-112066303D01*
%TO.C,C23*%
X193169065Y-68883467D02*
X193321568Y-68730964D01*
X192659948Y-68374350D02*
X192812451Y-68221847D01*
%TO.C,C2*%
X193786364Y-87505440D02*
X193633861Y-87657943D01*
X193277247Y-86996323D02*
X193124744Y-87148826D01*
%TO.C,D16*%
X96249485Y-82292427D02*
X97311946Y-82732513D01*
X99043074Y-75548106D02*
X96249485Y-82292427D01*
X104124411Y-77652865D02*
X101330822Y-84397186D01*
%TO.C,C7*%
X181939693Y-108026810D02*
X181787190Y-107874307D01*
X182448810Y-107517693D02*
X182296307Y-107365190D01*
%TO.C,R35*%
X189356000Y-115469641D02*
X189356000Y-115162359D01*
X188596000Y-115469641D02*
X188596000Y-115162359D01*
%TO.C,C43*%
X204472294Y-84819453D02*
X204671549Y-84736919D01*
X204196761Y-84154259D02*
X204396016Y-84071725D01*
%TO.C,C41*%
X169835026Y-153370893D02*
X169917560Y-153570148D01*
X169169832Y-153646426D02*
X169252366Y-153845681D01*
%TO.C,C19*%
X137110317Y-51689753D02*
X137027783Y-51490498D01*
X137775511Y-51414220D02*
X137692977Y-51214965D01*
D12*
%TO.C,D3*%
X188136000Y-114226000D02*
G75*
G03*
X188136000Y-114226000I-50000J0D01*
G01*
D11*
%TO.C,R9*%
X100483641Y-96775000D02*
X100176359Y-96775000D01*
X100483641Y-97535000D02*
X100176359Y-97535000D01*
%TO.C,C1*%
X197208761Y-90967435D02*
X197056258Y-91119938D01*
X197717878Y-91476552D02*
X197565375Y-91629055D01*
%TO.C,R17*%
X204316359Y-106425000D02*
X204623641Y-106425000D01*
X204316359Y-105665000D02*
X204623641Y-105665000D01*
%TD*%
M02*
