%TF.GenerationSoftware,KiCad,Pcbnew,(6.0.5)*%
%TF.CreationDate,2023-02-26T15:47:36+09:00*%
%TF.ProjectId,mainboard,6d61696e-626f-4617-9264-2e6b69636164,rev?*%
%TF.SameCoordinates,Original*%
%TF.FileFunction,Soldermask,Top*%
%TF.FilePolarity,Negative*%
%FSLAX46Y46*%
G04 Gerber Fmt 4.6, Leading zero omitted, Abs format (unit mm)*
G04 Created by KiCad (PCBNEW (6.0.5)) date 2023-02-26 15:47:36*
%MOMM*%
%LPD*%
G01*
G04 APERTURE LIST*
G04 Aperture macros list*
%AMRoundRect*
0 Rectangle with rounded corners*
0 $1 Rounding radius*
0 $2 $3 $4 $5 $6 $7 $8 $9 X,Y pos of 4 corners*
0 Add a 4 corners polygon primitive as box body*
4,1,4,$2,$3,$4,$5,$6,$7,$8,$9,$2,$3,0*
0 Add four circle primitives for the rounded corners*
1,1,$1+$1,$2,$3*
1,1,$1+$1,$4,$5*
1,1,$1+$1,$6,$7*
1,1,$1+$1,$8,$9*
0 Add four rect primitives between the rounded corners*
20,1,$1+$1,$2,$3,$4,$5,0*
20,1,$1+$1,$4,$5,$6,$7,0*
20,1,$1+$1,$6,$7,$8,$9,0*
20,1,$1+$1,$8,$9,$2,$3,0*%
%AMRotRect*
0 Rectangle, with rotation*
0 The origin of the aperture is its center*
0 $1 length*
0 $2 width*
0 $3 Rotation angle, in degrees counterclockwise*
0 Add horizontal line*
21,1,$1,$2,0,0,$3*%
G04 Aperture macros list end*
%ADD10RoundRect,0.140000X0.170000X-0.140000X0.170000X0.140000X-0.170000X0.140000X-0.170000X-0.140000X0*%
%ADD11RotRect,1.400000X1.200000X45.000000*%
%ADD12RoundRect,0.135000X0.185000X-0.135000X0.185000X0.135000X-0.185000X0.135000X-0.185000X-0.135000X0*%
%ADD13RotRect,1.500000X1.000000X135.000000*%
%ADD14RoundRect,0.075000X0.194454X0.300520X-0.300520X-0.194454X-0.194454X-0.300520X0.300520X0.194454X0*%
%ADD15RoundRect,0.075000X-0.300520X0.194454X0.194454X-0.300520X0.300520X-0.194454X-0.194454X0.300520X0*%
%ADD16RoundRect,0.140000X-0.194399X-0.103484X0.064287X-0.210635X0.194399X0.103484X-0.064287X0.210635X0*%
%ADD17R,1.000000X1.500000*%
%ADD18RoundRect,0.140000X0.021213X-0.219203X0.219203X-0.021213X-0.021213X0.219203X-0.219203X0.021213X0*%
%ADD19RoundRect,0.140000X0.064287X0.210635X-0.194399X0.103484X-0.064287X-0.210635X0.194399X-0.103484X0*%
%ADD20RotRect,1.500000X1.000000X22.500000*%
%ADD21RoundRect,0.140000X-0.140000X-0.170000X0.140000X-0.170000X0.140000X0.170000X-0.140000X0.170000X0*%
%ADD22RoundRect,0.135000X-0.226274X-0.035355X-0.035355X-0.226274X0.226274X0.035355X0.035355X0.226274X0*%
%ADD23RoundRect,0.062500X0.309359X-0.220971X-0.220971X0.309359X-0.309359X0.220971X0.220971X-0.309359X0*%
%ADD24RoundRect,0.062500X0.309359X0.220971X0.220971X0.309359X-0.309359X-0.220971X-0.220971X-0.309359X0*%
%ADD25RotRect,3.100000X3.100000X135.000000*%
%ADD26RoundRect,0.140000X0.140000X0.170000X-0.140000X0.170000X-0.140000X-0.170000X0.140000X-0.170000X0*%
%ADD27C,1.524000*%
%ADD28RoundRect,0.140000X0.219203X0.021213X0.021213X0.219203X-0.219203X-0.021213X-0.021213X-0.219203X0*%
%ADD29RoundRect,0.140000X-0.210635X0.064287X-0.103484X-0.194399X0.210635X-0.064287X0.103484X0.194399X0*%
%ADD30C,2.000000*%
%ADD31RotRect,1.500000X1.000000X315.000000*%
%ADD32RoundRect,0.135000X0.226274X0.035355X0.035355X0.226274X-0.226274X-0.035355X-0.035355X-0.226274X0*%
%ADD33C,1.600000*%
%ADD34RoundRect,0.147500X-0.172500X0.147500X-0.172500X-0.147500X0.172500X-0.147500X0.172500X0.147500X0*%
%ADD35RoundRect,0.135000X0.119255X-0.195520X0.222580X0.053927X-0.119255X0.195520X-0.222580X-0.053927X0*%
%ADD36RotRect,1.500000X1.000000X225.000000*%
%ADD37RoundRect,0.140000X0.103484X-0.194399X0.210635X0.064287X-0.103484X0.194399X-0.210635X-0.064287X0*%
%ADD38RoundRect,0.135000X-0.185000X0.135000X-0.185000X-0.135000X0.185000X-0.135000X0.185000X0.135000X0*%
%ADD39RoundRect,0.140000X-0.021213X0.219203X-0.219203X0.021213X0.021213X-0.219203X0.219203X-0.021213X0*%
%ADD40RoundRect,0.135000X0.195520X0.119255X-0.053927X0.222580X-0.195520X-0.119255X0.053927X-0.222580X0*%
%ADD41RoundRect,0.225000X-0.335876X-0.017678X-0.017678X-0.335876X0.335876X0.017678X0.017678X0.335876X0*%
%ADD42RoundRect,0.135000X0.053927X0.222580X-0.195520X0.119255X-0.053927X-0.222580X0.195520X-0.119255X0*%
%ADD43RoundRect,0.135000X-0.222580X0.053927X-0.119255X-0.195520X0.222580X-0.053927X0.119255X0.195520X0*%
%ADD44RoundRect,0.140000X0.194399X0.103484X-0.064287X0.210635X-0.194399X-0.103484X0.064287X-0.210635X0*%
%ADD45RoundRect,0.135000X-0.195520X-0.119255X0.053927X-0.222580X0.195520X0.119255X-0.053927X0.222580X0*%
%ADD46RotRect,1.500000X1.000000X45.000000*%
%ADD47RotRect,1.400000X1.200000X135.000000*%
%ADD48RotRect,1.500000X1.000000X202.500000*%
%ADD49RoundRect,0.140000X-0.219203X-0.021213X-0.021213X-0.219203X0.219203X0.021213X0.021213X0.219203X0*%
%ADD50RoundRect,0.135000X0.222580X-0.053927X0.119255X0.195520X-0.222580X0.053927X-0.119255X-0.195520X0*%
%ADD51RoundRect,0.075000X0.415425X0.521491X-0.521491X-0.415425X-0.415425X-0.521491X0.521491X0.415425X0*%
%ADD52RoundRect,0.075000X-0.415425X0.521491X-0.521491X0.415425X0.415425X-0.521491X0.521491X-0.415425X0*%
%ADD53RoundRect,0.135000X-0.035355X0.226274X-0.226274X0.035355X0.035355X-0.226274X0.226274X-0.035355X0*%
%ADD54RoundRect,0.225000X0.335876X0.017678X0.017678X0.335876X-0.335876X-0.017678X-0.017678X-0.335876X0*%
%ADD55RoundRect,0.140000X-0.170000X0.140000X-0.170000X-0.140000X0.170000X-0.140000X0.170000X0.140000X0*%
%ADD56R,1.500000X1.000000*%
%ADD57RoundRect,0.135000X0.035355X-0.226274X0.226274X-0.035355X-0.035355X0.226274X-0.226274X0.035355X0*%
%ADD58RotRect,1.500000X1.000000X67.500000*%
%ADD59RoundRect,0.140000X-0.103484X0.194399X-0.210635X-0.064287X0.103484X-0.194399X0.210635X0.064287X0*%
%ADD60RoundRect,0.140000X-0.064287X-0.210635X0.194399X-0.103484X0.064287X0.210635X-0.194399X0.103484X0*%
%ADD61RotRect,1.500000X1.000000X112.500000*%
%ADD62RoundRect,0.200000X-0.335876X-0.053033X-0.053033X-0.335876X0.335876X0.053033X0.053033X0.335876X0*%
%ADD63RotRect,1.500000X1.000000X292.500000*%
%ADD64RotRect,1.500000X1.000000X337.500000*%
%ADD65RoundRect,0.200000X0.335876X0.053033X0.053033X0.335876X-0.335876X-0.053033X-0.053033X-0.335876X0*%
%ADD66RotRect,1.500000X1.000000X157.500000*%
%ADD67RoundRect,0.140000X0.210635X-0.064287X0.103484X0.194399X-0.210635X0.064287X-0.103484X-0.194399X0*%
%ADD68RoundRect,0.135000X-0.053927X-0.222580X0.195520X-0.119255X0.053927X0.222580X-0.195520X0.119255X0*%
%ADD69RoundRect,0.135000X-0.119255X0.195520X-0.222580X-0.053927X0.119255X-0.195520X0.222580X0.053927X0*%
%ADD70RotRect,1.500000X1.000000X247.500000*%
%ADD71RoundRect,0.135000X0.135000X0.185000X-0.135000X0.185000X-0.135000X-0.185000X0.135000X-0.185000X0*%
%ADD72RoundRect,0.135000X-0.135000X-0.185000X0.135000X-0.185000X0.135000X0.185000X-0.135000X0.185000X0*%
%ADD73R,1.700000X1.700000*%
%ADD74O,1.700000X1.700000*%
%ADD75C,1.635000*%
%ADD76RoundRect,0.250000X-0.725000X0.600000X-0.725000X-0.600000X0.725000X-0.600000X0.725000X0.600000X0*%
%ADD77O,1.950000X1.700000*%
%ADD78RoundRect,0.250000X0.600000X0.725000X-0.600000X0.725000X-0.600000X-0.725000X0.600000X-0.725000X0*%
%ADD79O,1.700000X1.950000*%
%ADD80C,1.700000*%
%ADD81RoundRect,0.250000X-0.600000X-0.725000X0.600000X-0.725000X0.600000X0.725000X-0.600000X0.725000X0*%
%ADD82R,1.800000X1.800000*%
%ADD83O,1.800000X1.800000*%
%ADD84R,2.000000X2.000000*%
G04 APERTURE END LIST*
D10*
%TO.C,C21*%
X157734000Y-50010000D03*
X157734000Y-49050000D03*
%TD*%
D11*
%TO.C,Y2*%
X175972223Y-93199858D03*
X177527858Y-91644223D03*
X176325777Y-90442142D03*
X174770142Y-91997777D03*
%TD*%
D12*
%TO.C,R29*%
X121412000Y-82044000D03*
X121412000Y-81024000D03*
%TD*%
D13*
%TO.C,D11*%
X192963181Y-64501642D03*
X195225922Y-62238901D03*
X191761099Y-58774078D03*
X189498358Y-61036819D03*
%TD*%
D14*
%TO.C,U20*%
X181967742Y-109995025D03*
X181614188Y-109641472D03*
X181260635Y-109287918D03*
X180907082Y-108934365D03*
X180553528Y-108580812D03*
X180199975Y-108227258D03*
D15*
X179210025Y-108227258D03*
X178856472Y-108580812D03*
X178502918Y-108934365D03*
X178149365Y-109287918D03*
X177795812Y-109641472D03*
X177442258Y-109995025D03*
D14*
X177442258Y-110984975D03*
X177795812Y-111338528D03*
X178149365Y-111692082D03*
X178502918Y-112045635D03*
X178856472Y-112399188D03*
X179210025Y-112752742D03*
D15*
X180199975Y-112752742D03*
X180553528Y-112399188D03*
X180907082Y-112045635D03*
X181260635Y-111692082D03*
X181614188Y-111338528D03*
X181967742Y-110984975D03*
%TD*%
D16*
%TO.C,C26*%
X198021712Y-126270612D03*
X198908636Y-126637988D03*
%TD*%
D17*
%TO.C,D17*%
X207315000Y-104050000D03*
X210515000Y-104050000D03*
X210515000Y-99150000D03*
X207315000Y-99150000D03*
%TD*%
D18*
%TO.C,C20*%
X180201279Y-91029227D03*
X180880101Y-90350405D03*
%TD*%
D19*
%TO.C,C39*%
X100835175Y-118560008D03*
X99948251Y-118927384D03*
%TD*%
D20*
%TO.C,D12*%
X171151556Y-153272419D03*
X172376143Y-156228834D03*
X176903152Y-154353685D03*
X175678565Y-151397270D03*
%TD*%
D19*
%TO.C,C15*%
X102695821Y-116414665D03*
X101808897Y-116782041D03*
%TD*%
D21*
%TO.C,C25*%
X203990000Y-106934000D03*
X204950000Y-106934000D03*
%TD*%
D22*
%TO.C,R19*%
X185715336Y-141201516D03*
X186436584Y-141922764D03*
%TD*%
D23*
%TO.C,U10*%
X182383816Y-89354690D03*
X182737369Y-89001136D03*
X183090923Y-88647583D03*
X183444476Y-88294029D03*
X183798029Y-87940476D03*
X184151583Y-87586923D03*
X184505136Y-87233369D03*
X184858690Y-86879816D03*
D24*
X184858690Y-85907544D03*
X184505136Y-85553991D03*
X184151583Y-85200437D03*
X183798029Y-84846884D03*
X183444476Y-84493331D03*
X183090923Y-84139777D03*
X182737369Y-83786224D03*
X182383816Y-83432670D03*
D23*
X181411544Y-83432670D03*
X181057991Y-83786224D03*
X180704437Y-84139777D03*
X180350884Y-84493331D03*
X179997331Y-84846884D03*
X179643777Y-85200437D03*
X179290224Y-85553991D03*
X178936670Y-85907544D03*
D24*
X178936670Y-86879816D03*
X179290224Y-87233369D03*
X179643777Y-87586923D03*
X179997331Y-87940476D03*
X180350884Y-88294029D03*
X180704437Y-88647583D03*
X181057991Y-89001136D03*
X181411544Y-89354690D03*
D25*
X181897680Y-86393680D03*
%TD*%
D26*
%TO.C,C16*%
X100810000Y-96266000D03*
X99850000Y-96266000D03*
%TD*%
D27*
%TO.C,R24*%
X132080000Y-120745000D03*
X134620000Y-118205000D03*
X137160000Y-120745000D03*
%TD*%
D28*
%TO.C,C4*%
X186521411Y-91271411D03*
X185842589Y-90592589D03*
%TD*%
D29*
%TO.C,C28*%
X167214665Y-151304179D03*
X167582041Y-152191103D03*
%TD*%
D30*
%TO.C,SW6*%
X146125000Y-139355000D03*
X139625000Y-139355000D03*
X139625000Y-143855000D03*
X146125000Y-143855000D03*
%TD*%
D31*
%TO.C,D7*%
X111836819Y-138698358D03*
X109574078Y-140961099D03*
X113038901Y-144425922D03*
X115301642Y-142163181D03*
%TD*%
D21*
%TO.C,C46*%
X206530000Y-105664000D03*
X207490000Y-105664000D03*
%TD*%
D32*
%TO.C,R11*%
X119084664Y-61998484D03*
X118363416Y-61277236D03*
%TD*%
D33*
%TO.C,Q1*%
X119613000Y-74930000D03*
X119613000Y-72390000D03*
X119613000Y-69850000D03*
%TD*%
D18*
%TO.C,C40*%
X193549372Y-66197992D03*
X194228194Y-65519170D03*
%TD*%
D28*
%TO.C,C48*%
X120354411Y-60664411D03*
X119675589Y-59985589D03*
%TD*%
%TO.C,C18*%
X119692068Y-61348653D03*
X119013246Y-60669831D03*
%TD*%
D12*
%TO.C,R30*%
X192913000Y-115826000D03*
X192913000Y-114806000D03*
%TD*%
D34*
%TO.C,D4*%
X194056000Y-114831000D03*
X194056000Y-115801000D03*
%TD*%
D35*
%TO.C,R14*%
X176237802Y-55665800D03*
X176628140Y-54723442D03*
%TD*%
D22*
%TO.C,R1*%
X180487376Y-95905376D03*
X181208624Y-96626624D03*
%TD*%
D26*
%TO.C,C42*%
X98270000Y-97536000D03*
X97310000Y-97536000D03*
%TD*%
D36*
%TO.C,D19*%
X115301642Y-61036819D03*
X113038901Y-58774078D03*
X109574078Y-62238901D03*
X111836819Y-64501642D03*
%TD*%
D10*
%TO.C,C8*%
X192659000Y-111986000D03*
X192659000Y-111026000D03*
%TD*%
D37*
%TO.C,C22*%
X177070612Y-55978288D03*
X177437988Y-55091364D03*
%TD*%
D38*
%TO.C,R31*%
X121412000Y-75436000D03*
X121412000Y-76456000D03*
%TD*%
D39*
%TO.C,C10*%
X179005711Y-92321632D03*
X178326889Y-93000454D03*
%TD*%
D12*
%TO.C,R13*%
X156845000Y-50040000D03*
X156845000Y-49020000D03*
%TD*%
D40*
%TO.C,R10*%
X106465800Y-77762198D03*
X105523442Y-77371860D03*
%TD*%
D22*
%TO.C,R22*%
X185768066Y-87535192D03*
X186489314Y-88256440D03*
%TD*%
D41*
%TO.C,C31*%
X177124992Y-105369992D03*
X178221008Y-106466008D03*
%TD*%
D18*
%TO.C,C9*%
X176690644Y-94636699D03*
X177369466Y-93957877D03*
%TD*%
D39*
%TO.C,C34*%
X111250628Y-137002008D03*
X110571806Y-137680830D03*
%TD*%
D42*
%TO.C,R8*%
X103063744Y-117224513D03*
X102121386Y-117614851D03*
%TD*%
D43*
%TO.C,R20*%
X168024513Y-150936256D03*
X168414851Y-151878614D03*
%TD*%
D44*
%TO.C,C17*%
X106778288Y-76929388D03*
X105891364Y-76562012D03*
%TD*%
D45*
%TO.C,R18*%
X198334200Y-125437802D03*
X199276558Y-125828140D03*
%TD*%
D46*
%TO.C,D9*%
X189498358Y-142163181D03*
X191761099Y-144425922D03*
X195225922Y-140961099D03*
X192963181Y-138698358D03*
%TD*%
D47*
%TO.C,Y1*%
X196450858Y-89838777D03*
X194895223Y-88283142D03*
X193693142Y-89485223D03*
X195248777Y-91040858D03*
%TD*%
D38*
%TO.C,R5*%
X147955000Y-153160000D03*
X147955000Y-154180000D03*
%TD*%
D41*
%TO.C,C30*%
X176870992Y-112481992D03*
X177967008Y-113578008D03*
%TD*%
D30*
%TO.C,SW2*%
X165175000Y-139355000D03*
X158675000Y-139355000D03*
X165175000Y-143855000D03*
X158675000Y-143855000D03*
%TD*%
D48*
%TO.C,D22*%
X133648444Y-49927581D03*
X132423857Y-46971166D03*
X127896848Y-48846315D03*
X129121435Y-51802730D03*
%TD*%
D49*
%TO.C,C6*%
X196510589Y-95672589D03*
X197189411Y-96351411D03*
%TD*%
D50*
%TO.C,R12*%
X136775487Y-52263744D03*
X136385149Y-51321386D03*
%TD*%
D41*
%TO.C,C36*%
X181188992Y-113751992D03*
X182285008Y-114848008D03*
%TD*%
D51*
%TO.C,U1*%
X198890846Y-100424435D03*
X198537293Y-100070882D03*
X198183740Y-99717328D03*
X197830186Y-99363775D03*
X197476633Y-99010221D03*
X197123079Y-98656668D03*
X196769526Y-98303115D03*
X196415973Y-97949561D03*
X196062419Y-97596008D03*
X195708866Y-97242454D03*
X195355312Y-96888901D03*
X195001759Y-96535348D03*
X194648206Y-96181794D03*
X194294652Y-95828241D03*
X193941099Y-95474688D03*
X193587546Y-95121134D03*
X193233992Y-94767581D03*
X192880439Y-94414027D03*
X192526885Y-94060474D03*
X192173332Y-93706921D03*
X191819779Y-93353367D03*
X191466225Y-92999814D03*
X191112672Y-92646260D03*
X190759118Y-92292707D03*
X190405565Y-91939154D03*
D52*
X188054435Y-91939154D03*
X187700882Y-92292707D03*
X187347328Y-92646260D03*
X186993775Y-92999814D03*
X186640221Y-93353367D03*
X186286668Y-93706921D03*
X185933115Y-94060474D03*
X185579561Y-94414027D03*
X185226008Y-94767581D03*
X184872454Y-95121134D03*
X184518901Y-95474688D03*
X184165348Y-95828241D03*
X183811794Y-96181794D03*
X183458241Y-96535348D03*
X183104688Y-96888901D03*
X182751134Y-97242454D03*
X182397581Y-97596008D03*
X182044027Y-97949561D03*
X181690474Y-98303115D03*
X181336921Y-98656668D03*
X180983367Y-99010221D03*
X180629814Y-99363775D03*
X180276260Y-99717328D03*
X179922707Y-100070882D03*
X179569154Y-100424435D03*
D51*
X179569154Y-102775565D03*
X179922707Y-103129118D03*
X180276260Y-103482672D03*
X180629814Y-103836225D03*
X180983367Y-104189779D03*
X181336921Y-104543332D03*
X181690474Y-104896885D03*
X182044027Y-105250439D03*
X182397581Y-105603992D03*
X182751134Y-105957546D03*
X183104688Y-106311099D03*
X183458241Y-106664652D03*
X183811794Y-107018206D03*
X184165348Y-107371759D03*
X184518901Y-107725312D03*
X184872454Y-108078866D03*
X185226008Y-108432419D03*
X185579561Y-108785973D03*
X185933115Y-109139526D03*
X186286668Y-109493079D03*
X186640221Y-109846633D03*
X186993775Y-110200186D03*
X187347328Y-110553740D03*
X187700882Y-110907293D03*
X188054435Y-111260846D03*
D52*
X190405565Y-111260846D03*
X190759118Y-110907293D03*
X191112672Y-110553740D03*
X191466225Y-110200186D03*
X191819779Y-109846633D03*
X192173332Y-109493079D03*
X192526885Y-109139526D03*
X192880439Y-108785973D03*
X193233992Y-108432419D03*
X193587546Y-108078866D03*
X193941099Y-107725312D03*
X194294652Y-107371759D03*
X194648206Y-107018206D03*
X195001759Y-106664652D03*
X195355312Y-106311099D03*
X195708866Y-105957546D03*
X196062419Y-105603992D03*
X196415973Y-105250439D03*
X196769526Y-104896885D03*
X197123079Y-104543332D03*
X197476633Y-104189779D03*
X197830186Y-103836225D03*
X198183740Y-103482672D03*
X198537293Y-103129118D03*
X198890846Y-102775565D03*
%TD*%
D53*
%TO.C,R7*%
X112798484Y-134915336D03*
X112077236Y-135636584D03*
%TD*%
D34*
%TO.C,D2*%
X189992000Y-114831000D03*
X189992000Y-115801000D03*
%TD*%
D49*
%TO.C,C27*%
X185107932Y-141851347D03*
X185786754Y-142530169D03*
%TD*%
D54*
%TO.C,C35*%
X176189008Y-108498008D03*
X175092992Y-107401992D03*
%TD*%
D37*
%TO.C,C37*%
X176869301Y-53145626D03*
X177236677Y-52258702D03*
%TD*%
D18*
%TO.C,C29*%
X184572589Y-83651411D03*
X185251411Y-82972589D03*
%TD*%
D55*
%TO.C,C44*%
X148336000Y-155730000D03*
X148336000Y-156690000D03*
%TD*%
D56*
%TO.C,D15*%
X149950000Y-156515000D03*
X149950000Y-159715000D03*
X154850000Y-159715000D03*
X154850000Y-156515000D03*
%TD*%
D12*
%TO.C,R28*%
X121412000Y-74424000D03*
X121412000Y-73404000D03*
%TD*%
D57*
%TO.C,R23*%
X185768066Y-85208440D03*
X186489314Y-84487192D03*
%TD*%
D16*
%TO.C,C33*%
X200854374Y-126069301D03*
X201741298Y-126436677D03*
%TD*%
D12*
%TO.C,R33*%
X190881000Y-115826000D03*
X190881000Y-114806000D03*
%TD*%
D44*
%TO.C,C45*%
X103945626Y-77130699D03*
X103058702Y-76763323D03*
%TD*%
D58*
%TO.C,D6*%
X202197270Y-124878565D03*
X205153685Y-126103152D03*
X207028834Y-121576143D03*
X204072419Y-120351556D03*
%TD*%
D22*
%TO.C,R2*%
X179725376Y-96667376D03*
X180446624Y-97388624D03*
%TD*%
D59*
%TO.C,C47*%
X127930699Y-150054374D03*
X127563323Y-150941298D03*
%TD*%
D49*
%TO.C,C5*%
X184318589Y-92116589D03*
X184997411Y-92795411D03*
%TD*%
D60*
%TO.C,C24*%
X202104179Y-86785335D03*
X202991103Y-86417959D03*
%TD*%
D61*
%TO.C,D14*%
X204072419Y-82848444D03*
X207028834Y-81623857D03*
X205153685Y-77096848D03*
X202197270Y-78321435D03*
%TD*%
D21*
%TO.C,C3*%
X199573000Y-104267000D03*
X200533000Y-104267000D03*
%TD*%
D39*
%TO.C,C11*%
X178647411Y-88306589D03*
X177968589Y-88985411D03*
%TD*%
D62*
%TO.C,R25*%
X182169637Y-112700637D03*
X183336363Y-113867363D03*
%TD*%
D63*
%TO.C,D10*%
X100727581Y-120351556D03*
X97771166Y-121576143D03*
X99646315Y-126103152D03*
X102602730Y-124878565D03*
%TD*%
D22*
%TO.C,R4*%
X177238690Y-84593816D03*
X177959938Y-85315064D03*
%TD*%
D64*
%TO.C,D18*%
X129121435Y-151397270D03*
X127896848Y-154353685D03*
X132423857Y-156228834D03*
X133648444Y-153272419D03*
%TD*%
D30*
%TO.C,SW4*%
X168200000Y-139355000D03*
X174700000Y-139355000D03*
X168200000Y-143855000D03*
X174700000Y-143855000D03*
%TD*%
D65*
%TO.C,R26*%
X177240363Y-107517363D03*
X176073637Y-106350637D03*
%TD*%
D57*
%TO.C,R15*%
X192001516Y-68284664D03*
X192722764Y-67563416D03*
%TD*%
D17*
%TO.C,D13*%
X97485000Y-99150000D03*
X94285000Y-99150000D03*
X94285000Y-104050000D03*
X97485000Y-104050000D03*
%TD*%
D27*
%TO.C,R34*%
X167640000Y-120745000D03*
X170180000Y-118205000D03*
X172720000Y-120745000D03*
%TD*%
D34*
%TO.C,D1*%
X192024000Y-114831000D03*
X192024000Y-115801000D03*
%TD*%
D30*
%TO.C,SW5*%
X136600000Y-139355000D03*
X130100000Y-139355000D03*
X136600000Y-143855000D03*
X130100000Y-143855000D03*
%TD*%
D38*
%TO.C,R32*%
X121412000Y-83056000D03*
X121412000Y-84076000D03*
%TD*%
D66*
%TO.C,D8*%
X175678565Y-51802730D03*
X176903152Y-48846315D03*
X172376143Y-46971166D03*
X171151556Y-49927581D03*
%TD*%
D12*
%TO.C,R36*%
X194945000Y-115826000D03*
X194945000Y-114806000D03*
%TD*%
D56*
%TO.C,D5*%
X154850000Y-46685000D03*
X154850000Y-43485000D03*
X149950000Y-43485000D03*
X149950000Y-46685000D03*
%TD*%
D30*
%TO.C,SW1*%
X155650000Y-139355000D03*
X149150000Y-139355000D03*
X149150000Y-143855000D03*
X155650000Y-143855000D03*
%TD*%
D67*
%TO.C,C49*%
X135439992Y-50035175D03*
X135072616Y-49148251D03*
%TD*%
D55*
%TO.C,C12*%
X147066000Y-153190000D03*
X147066000Y-154150000D03*
%TD*%
D32*
%TO.C,R3*%
X185780624Y-92054624D03*
X185059376Y-91333376D03*
%TD*%
D49*
%TO.C,C38*%
X184318589Y-142662589D03*
X184997411Y-143341411D03*
%TD*%
D59*
%TO.C,C13*%
X127729388Y-147221712D03*
X127362012Y-148108636D03*
%TD*%
D39*
%TO.C,C14*%
X112148653Y-134307932D03*
X111469831Y-134986754D03*
%TD*%
D68*
%TO.C,R16*%
X201736256Y-85975487D03*
X202678614Y-85585149D03*
%TD*%
D69*
%TO.C,R6*%
X128562198Y-147534200D03*
X128171860Y-148476558D03*
%TD*%
D10*
%TO.C,C32*%
X156464000Y-47470000D03*
X156464000Y-46510000D03*
%TD*%
D53*
%TO.C,R21*%
X184637624Y-82189376D03*
X183916376Y-82910624D03*
%TD*%
D62*
%TO.C,R27*%
X183185637Y-111684637D03*
X184352363Y-112851363D03*
%TD*%
D18*
%TO.C,C23*%
X192651347Y-68892068D03*
X193330169Y-68213246D03*
%TD*%
D39*
%TO.C,C2*%
X193794965Y-86987722D03*
X193116143Y-87666544D03*
%TD*%
D33*
%TO.C,Q2*%
X119613000Y-82550000D03*
X119613000Y-80010000D03*
X119613000Y-77470000D03*
%TD*%
D70*
%TO.C,D16*%
X102602730Y-78321435D03*
X99646315Y-77096848D03*
X97771166Y-81623857D03*
X100727581Y-82848444D03*
%TD*%
D28*
%TO.C,C7*%
X182457411Y-108035411D03*
X181778589Y-107356589D03*
%TD*%
D12*
%TO.C,R35*%
X188976000Y-115826000D03*
X188976000Y-114806000D03*
%TD*%
D60*
%TO.C,C43*%
X203990693Y-84629277D03*
X204877617Y-84261901D03*
%TD*%
D29*
%TO.C,C41*%
X169360008Y-153164825D03*
X169727384Y-154051749D03*
%TD*%
D67*
%TO.C,C19*%
X137585335Y-51895821D03*
X137217959Y-51008897D03*
%TD*%
D34*
%TO.C,D3*%
X188086000Y-114831000D03*
X188086000Y-115801000D03*
%TD*%
D71*
%TO.C,R9*%
X100840000Y-97155000D03*
X99820000Y-97155000D03*
%TD*%
D39*
%TO.C,C1*%
X197726479Y-90958834D03*
X197047657Y-91637656D03*
%TD*%
D72*
%TO.C,R17*%
X203960000Y-106045000D03*
X204980000Y-106045000D03*
%TD*%
D73*
%TO.C,J6*%
X140975000Y-126075000D03*
D74*
X143515000Y-126075000D03*
X146055000Y-126075000D03*
X148595000Y-126075000D03*
X151135000Y-126075000D03*
X153675000Y-126075000D03*
X156215000Y-126075000D03*
X158755000Y-126075000D03*
X161295000Y-126075000D03*
X163835000Y-126075000D03*
%TD*%
D75*
%TO.C,SW3*%
X182245000Y-120015000D03*
X179705000Y-120015000D03*
X177165000Y-120015000D03*
%TD*%
D27*
%TO.C,U16*%
X201478423Y-119179672D03*
X200506407Y-121526326D03*
X199534391Y-123872980D03*
%TD*%
%TO.C,U8*%
X113784898Y-66577001D03*
X115580950Y-64780950D03*
X117377001Y-62984898D03*
%TD*%
D76*
%TO.C,J11*%
X186546000Y-125770000D03*
D77*
X186546000Y-128270000D03*
X186546000Y-130770000D03*
%TD*%
D27*
%TO.C,U11*%
X149860000Y-49530000D03*
X152400000Y-49530000D03*
X154940000Y-49530000D03*
%TD*%
%TO.C,U17*%
X191015102Y-136622999D03*
X189219050Y-138419050D03*
X187422999Y-140215102D03*
%TD*%
%TO.C,U2*%
X154940000Y-153670000D03*
X152400000Y-153670000D03*
X149860000Y-153670000D03*
%TD*%
D73*
%TO.C,J4*%
X140975000Y-129540000D03*
D74*
X143515000Y-129540000D03*
X146055000Y-129540000D03*
X148595000Y-129540000D03*
X151135000Y-129540000D03*
X153675000Y-129540000D03*
X156215000Y-129540000D03*
X158755000Y-129540000D03*
X161295000Y-129540000D03*
X163835000Y-129540000D03*
%TD*%
D76*
%TO.C,J12*%
X179815000Y-125770000D03*
D77*
X179815000Y-128270000D03*
X179815000Y-130770000D03*
%TD*%
D73*
%TO.C,J8*%
X171958000Y-66802000D03*
D74*
X171958000Y-69342000D03*
X171958000Y-71882000D03*
X171958000Y-74422000D03*
X171958000Y-76962000D03*
X171958000Y-79502000D03*
X171958000Y-82042000D03*
X171958000Y-84582000D03*
%TD*%
D27*
%TO.C,U7*%
X103321577Y-84020328D03*
X104293593Y-81673674D03*
X105265609Y-79327020D03*
%TD*%
D73*
%TO.C,J2*%
X178968000Y-74422000D03*
D74*
X178968000Y-71882000D03*
X178968000Y-69342000D03*
X178968000Y-66802000D03*
%TD*%
D78*
%TO.C,J9*%
X121880000Y-97773000D03*
D79*
X119380000Y-97773000D03*
X116880000Y-97773000D03*
%TD*%
D27*
%TO.C,U5*%
X105265609Y-123872980D03*
X104293593Y-121526326D03*
X103321577Y-119179672D03*
%TD*%
D80*
%TO.C,U21*%
X129540000Y-90630000D03*
X109220000Y-95710000D03*
X127000000Y-85550000D03*
X111760000Y-88090000D03*
X109220000Y-113490000D03*
X109220000Y-93170000D03*
X127000000Y-88090000D03*
X127000000Y-90630000D03*
X127000000Y-93170000D03*
X127000000Y-95710000D03*
X127000000Y-98250000D03*
X127000000Y-100790000D03*
X127000000Y-103330000D03*
X127000000Y-105870000D03*
X127000000Y-108410000D03*
X127000000Y-110950000D03*
X127000000Y-113490000D03*
X127000000Y-116030000D03*
X127000000Y-118570000D03*
X129540000Y-118570000D03*
X109220000Y-116030000D03*
X109220000Y-118570000D03*
X111760000Y-118570000D03*
X111760000Y-116030000D03*
X111760000Y-113490000D03*
X111760000Y-110950000D03*
X111760000Y-108410000D03*
X111760000Y-105870000D03*
X111760000Y-103330000D03*
X111760000Y-100790000D03*
X111760000Y-98250000D03*
X111760000Y-95710000D03*
X111760000Y-93170000D03*
X111760000Y-90630000D03*
X109220000Y-110950000D03*
X129540000Y-95710000D03*
X111760000Y-85550000D03*
X109220000Y-85550000D03*
X109220000Y-108410000D03*
X109220000Y-100790000D03*
X109220000Y-103330000D03*
X109220000Y-98250000D03*
X109220000Y-105870000D03*
X129540000Y-105870000D03*
X129540000Y-116030000D03*
X129540000Y-108410000D03*
X129540000Y-113490000D03*
X129540000Y-110950000D03*
X129540000Y-85550000D03*
X129540000Y-88090000D03*
X129540000Y-93170000D03*
X129540000Y-98250000D03*
X129540000Y-100790000D03*
X129540000Y-103330000D03*
X109220000Y-88090000D03*
X109220000Y-90630000D03*
%TD*%
D27*
%TO.C,U4*%
X117377001Y-140215102D03*
X115580950Y-138419050D03*
X113784898Y-136622999D03*
%TD*%
D80*
%TO.C,U19*%
X136400000Y-66802000D03*
X136400000Y-69342000D03*
X136400000Y-71882000D03*
X136400000Y-74422000D03*
X136400000Y-76962000D03*
X136400000Y-79502000D03*
X136400000Y-82042000D03*
X136400000Y-84582000D03*
X168400000Y-84582000D03*
X168400000Y-82042000D03*
X168400000Y-79502000D03*
X168400000Y-76962000D03*
X168400000Y-74422000D03*
X168400000Y-71882000D03*
X168400000Y-69342000D03*
X168400000Y-66802000D03*
%TD*%
D27*
%TO.C,U15*%
X204470000Y-99060000D03*
X204470000Y-101600000D03*
X204470000Y-104140000D03*
%TD*%
%TO.C,U13*%
X187422999Y-62984898D03*
X189219050Y-64780950D03*
X191015102Y-66577001D03*
%TD*%
%TO.C,U3*%
X134820328Y-150678423D03*
X132473674Y-149706407D03*
X130127020Y-148734391D03*
%TD*%
%TO.C,U18*%
X174672980Y-148734391D03*
X172326326Y-149706407D03*
X169979672Y-150678423D03*
%TD*%
D81*
%TO.C,J10*%
X128330000Y-127525000D03*
D79*
X130830000Y-127525000D03*
X133330000Y-127525000D03*
X135830000Y-127525000D03*
%TD*%
D27*
%TO.C,U14*%
X199534391Y-79327020D03*
X200506407Y-81673674D03*
X201478423Y-84020328D03*
%TD*%
D76*
%TO.C,J5*%
X123935000Y-68580000D03*
D77*
X123935000Y-71080000D03*
X123935000Y-73580000D03*
X123935000Y-76080000D03*
X123935000Y-78580000D03*
X123935000Y-81080000D03*
%TD*%
D82*
%TO.C,D20*%
X168148000Y-125730000D03*
D83*
X175768000Y-125730000D03*
%TD*%
D73*
%TO.C,J7*%
X140858000Y-77318000D03*
D74*
X143398000Y-77318000D03*
X145938000Y-77318000D03*
%TD*%
D82*
%TO.C,D21*%
X168148000Y-130810000D03*
D83*
X175768000Y-130810000D03*
%TD*%
D76*
%TO.C,J3*%
X130285000Y-68580000D03*
D77*
X130285000Y-71080000D03*
X130285000Y-73580000D03*
X130285000Y-76080000D03*
X130285000Y-78580000D03*
X130285000Y-81080000D03*
%TD*%
D84*
%TO.C,BZ1*%
X121910000Y-127000000D03*
D30*
X114310000Y-127000000D03*
%TD*%
D27*
%TO.C,U6*%
X100330000Y-104140000D03*
X100330000Y-101600000D03*
X100330000Y-99060000D03*
%TD*%
%TO.C,U12*%
X169979672Y-52521577D03*
X172326326Y-53493593D03*
X174672980Y-54465609D03*
%TD*%
%TO.C,U9*%
X130127020Y-54465609D03*
X132473674Y-53493593D03*
X134820328Y-52521577D03*
%TD*%
D73*
%TO.C,J1*%
X175387000Y-74422000D03*
D74*
X175387000Y-71882000D03*
X175387000Y-69342000D03*
X175387000Y-66802000D03*
%TD*%
M02*
