%TF.GenerationSoftware,KiCad,Pcbnew,(6.0.5)*%
%TF.CreationDate,2023-02-26T15:47:36+09:00*%
%TF.ProjectId,mainboard,6d61696e-626f-4617-9264-2e6b69636164,rev?*%
%TF.SameCoordinates,Original*%
%TF.FileFunction,Legend,Bot*%
%TF.FilePolarity,Positive*%
%FSLAX46Y46*%
G04 Gerber Fmt 4.6, Leading zero omitted, Abs format (unit mm)*
G04 Created by KiCad (PCBNEW (6.0.5)) date 2023-02-26 15:47:36*
%MOMM*%
%LPD*%
G01*
G04 APERTURE LIST*
%ADD10C,0.150000*%
%ADD11C,0.254000*%
%ADD12C,0.120000*%
%ADD13C,0.100000*%
%ADD14C,0.200000*%
G04 APERTURE END LIST*
D10*
X171028571Y-58156571D02*
X171257142Y-58156571D01*
X171257142Y-58956571D01*
X170400000Y-58328000D02*
X169257142Y-58328000D01*
X170342857Y-58499428D02*
X169428571Y-58499428D01*
X169371428Y-59470857D02*
X169257142Y-59470857D01*
X169828571Y-58842285D02*
X170228571Y-59242285D01*
X170685714Y-59470857D01*
X170342857Y-58156571D02*
X170457142Y-58442285D01*
X170685714Y-58613714D01*
X170400000Y-58956571D02*
X170000000Y-59128000D01*
X169771428Y-59413714D01*
X170514285Y-58728000D02*
X169485714Y-58728000D01*
X169485714Y-59070857D01*
X169371428Y-59470857D01*
X169200000Y-59470857D01*
X169142857Y-59299428D01*
X168571428Y-58613714D02*
X167771428Y-58613714D01*
X168628571Y-59413714D02*
X167714285Y-59413714D01*
X168628571Y-58899428D02*
X168628571Y-59470857D01*
X168628571Y-58899428D02*
X167714285Y-58899428D01*
X167714285Y-59470857D01*
X168171428Y-58099428D02*
X167771428Y-58499428D01*
X167428571Y-58670857D01*
X168171428Y-58099428D02*
X168628571Y-58556571D01*
X168914285Y-58670857D01*
X166400000Y-58556571D02*
X166857142Y-58899428D01*
X166971428Y-59013714D01*
X166971428Y-59242285D01*
X166857142Y-59413714D01*
X166400000Y-59413714D01*
X166857142Y-58156571D02*
X166800000Y-58442285D01*
X166685714Y-58728000D01*
X165828571Y-58442285D02*
X165314285Y-58442285D01*
X165142857Y-58499428D02*
X164514285Y-58499428D01*
X165142857Y-58785142D02*
X164514285Y-58785142D01*
X165542857Y-58099428D02*
X165542857Y-59470857D01*
X165142857Y-58213714D02*
X165142857Y-59413714D01*
X165142857Y-58213714D02*
X164514285Y-58213714D01*
X164514285Y-58785142D01*
X164800000Y-59128000D02*
X164514285Y-59470857D01*
X165542857Y-58670857D02*
X165314285Y-58899428D01*
X164914285Y-58785142D02*
X164742857Y-59242285D01*
X165600000Y-58499428D02*
X165885714Y-59128000D01*
X164457142Y-58899428D02*
X164571428Y-59070857D01*
X164800000Y-59128000D01*
X165600000Y-58385142D02*
X165771428Y-59013714D01*
X164800000Y-59356571D02*
X165314285Y-59413714D01*
X163428571Y-58499428D02*
X162628571Y-58499428D01*
X163485714Y-58899428D02*
X162685714Y-58899428D01*
X163600000Y-59413714D02*
X162628571Y-59413714D01*
X163828571Y-58099428D02*
X163828571Y-59470857D01*
X163085714Y-58099428D02*
X163085714Y-59413714D01*
X163714285Y-58385142D02*
X163657142Y-58613714D01*
X164057142Y-58442285D02*
X164057142Y-58785142D01*
X163371428Y-58213714D02*
X163542857Y-58670857D01*
X162228571Y-58442285D02*
X161485714Y-58328000D01*
X161600000Y-58385142D02*
X161828571Y-58556571D01*
X161942857Y-58842285D01*
X161942857Y-59185142D01*
X161828571Y-59356571D01*
X161657142Y-59413714D01*
X161542857Y-58099428D02*
X161428571Y-58270857D01*
X161371428Y-58042285D02*
X161257142Y-58213714D01*
X161028571Y-58499428D02*
X160228571Y-58499428D01*
X160457142Y-58213714D02*
X160457142Y-59013714D01*
X160514285Y-59242285D01*
X160742857Y-59470857D01*
X160514285Y-58785142D02*
X160628571Y-58670857D01*
X160685714Y-58670857D01*
X160800000Y-58842285D01*
X160800000Y-58956571D01*
X160685714Y-59013714D01*
X160628571Y-59013714D01*
X160514285Y-58899428D01*
X159314285Y-58213714D02*
X159314285Y-59470857D01*
X159542857Y-59413714D01*
X159657142Y-59299428D01*
X159657142Y-59185142D01*
X159542857Y-59070857D01*
X158971428Y-59356571D01*
X159314285Y-58556571D02*
X159028571Y-58499428D01*
X158285714Y-59070857D02*
X158171428Y-59070857D01*
X158057142Y-59185142D01*
X158057142Y-59299428D01*
X158171428Y-59413714D01*
X158285714Y-59413714D01*
X158400000Y-59299428D01*
X158400000Y-59185142D01*
X158285714Y-59070857D01*
X156742857Y-59070857D02*
X156285714Y-59070857D01*
X157028571Y-58385142D02*
X157028571Y-59470857D01*
X156742857Y-58613714D02*
X156742857Y-59185142D01*
X156742857Y-58613714D02*
X156285714Y-58613714D01*
X156285714Y-59070857D01*
X156971428Y-58156571D02*
X157085714Y-58442285D01*
X157314285Y-58728000D01*
X156800000Y-58328000D02*
X155828571Y-58328000D01*
X155942857Y-58328000D02*
X155942857Y-59470857D01*
X156285714Y-59470857D01*
X155428571Y-58442285D02*
X155028571Y-58442285D01*
X155142857Y-58156571D02*
X155428571Y-59356571D01*
X155085714Y-58728000D02*
X154742857Y-58728000D01*
X155142857Y-59070857D02*
X155028571Y-59356571D01*
X154685714Y-59356571D01*
X154800000Y-58328000D02*
X154685714Y-58499428D01*
X154628571Y-58270857D02*
X154514285Y-58442285D01*
X154171428Y-58785142D02*
X153657142Y-58670857D01*
X153485714Y-58728000D01*
X153428571Y-58956571D01*
X153542857Y-59128000D01*
X153885714Y-59299428D01*
X152914285Y-58442285D02*
X152171428Y-58328000D01*
X152285714Y-58385142D02*
X152514285Y-58556571D01*
X152628571Y-58842285D01*
X152628571Y-59185142D01*
X152514285Y-59356571D01*
X152342857Y-59413714D01*
X151085714Y-58556571D02*
X150400000Y-58556571D01*
X151485714Y-58328000D02*
X151485714Y-59470857D01*
X150742857Y-58328000D02*
X150742857Y-58785142D01*
X151428571Y-58156571D02*
X151542857Y-58499428D01*
X151771428Y-58728000D01*
X151257142Y-58213714D02*
X150228571Y-58213714D01*
X150228571Y-59470857D01*
X151257142Y-58213714D02*
X151257142Y-59470857D01*
X151257142Y-59413714D02*
X150228571Y-59413714D01*
X150971428Y-58785142D02*
X150514285Y-58785142D01*
X150514285Y-59185142D01*
X150971428Y-59185142D01*
X150971428Y-58785142D01*
X149257142Y-58213714D02*
X149314285Y-58842285D01*
X149542857Y-59185142D01*
X149771428Y-59356571D01*
X150000000Y-59470857D01*
X149314285Y-58842285D02*
X148971428Y-59128000D01*
X148685714Y-59356571D01*
X148457142Y-59470857D01*
X148114285Y-58442285D02*
X147371428Y-58328000D01*
X147485714Y-58385142D02*
X147714285Y-58556571D01*
X147828571Y-58842285D01*
X147828571Y-59185142D01*
X147714285Y-59356571D01*
X147542857Y-59413714D01*
X147428571Y-58099428D02*
X147314285Y-58270857D01*
X147257142Y-58042285D02*
X147142857Y-58213714D01*
X146285714Y-58442285D02*
X145485714Y-58442285D01*
X146057142Y-58728000D02*
X145485714Y-58728000D01*
X146057142Y-59070857D02*
X145485714Y-59070857D01*
X146685714Y-58385142D02*
X146685714Y-59470857D01*
X146057142Y-58385142D02*
X146057142Y-59470857D01*
X146571428Y-58156571D02*
X146742857Y-58499428D01*
X146971428Y-58728000D01*
X146171428Y-58156571D02*
X146342857Y-58556571D01*
X146514285Y-58728000D01*
X144914285Y-58213714D02*
X144914285Y-59413714D01*
X145085714Y-58499428D02*
X144857142Y-58442285D01*
X144914285Y-58499428D01*
X145142857Y-59185142D02*
X144628571Y-58442285D01*
X144457142Y-58442285D01*
X144400000Y-58613714D01*
X144457142Y-59013714D01*
X144457142Y-59356571D01*
X144285714Y-59128000D01*
X143828571Y-58442285D02*
X143485714Y-58442285D01*
X143600000Y-58156571D02*
X143828571Y-59128000D01*
X143200000Y-58385142D02*
X143028571Y-58613714D01*
X143314285Y-58613714D02*
X143314285Y-59299428D01*
X143428571Y-59356571D01*
X143600000Y-59299428D01*
X143600000Y-59070857D01*
X143428571Y-59013714D01*
X143085714Y-59299428D01*
X142057142Y-58213714D02*
X142342857Y-58785142D01*
X142057142Y-59413714D01*
X141028571Y-58442285D02*
X140571428Y-58442285D01*
X140742857Y-58213714D02*
X140742857Y-59356571D01*
X141028571Y-59299428D01*
X141028571Y-59070857D01*
X140857142Y-59013714D01*
X140571428Y-59242285D01*
X141257142Y-58213714D02*
X141314285Y-58556571D01*
X141314285Y-58899428D01*
X141257142Y-59356571D01*
X141200000Y-58956571D01*
X140057142Y-58442285D02*
X139714285Y-58442285D01*
X139828571Y-58156571D02*
X140057142Y-59128000D01*
X139428571Y-58385142D02*
X139257142Y-58613714D01*
X139542857Y-58613714D02*
X139542857Y-59299428D01*
X139657142Y-59356571D01*
X139828571Y-59299428D01*
X139828571Y-59070857D01*
X139657142Y-59013714D01*
X139314285Y-59299428D01*
X138228571Y-58499428D02*
X138114285Y-58728000D01*
X138057142Y-59013714D01*
X138800000Y-58385142D02*
X138800000Y-58785142D01*
X138742857Y-59070857D01*
X138628571Y-59413714D01*
X138457142Y-59070857D01*
X137142857Y-58213714D02*
X137485714Y-59470857D01*
X137200000Y-58899428D01*
X137085714Y-58899428D01*
X136971428Y-59470857D01*
X136914285Y-59470857D01*
X136742857Y-59185142D01*
X136285714Y-58442285D02*
X135542857Y-58328000D01*
X135657142Y-58385142D02*
X135885714Y-58556571D01*
X136000000Y-58842285D01*
X136000000Y-59185142D01*
X135885714Y-59356571D01*
X135714285Y-59413714D01*
X135600000Y-58099428D02*
X135485714Y-58270857D01*
X135428571Y-58042285D02*
X135314285Y-58213714D01*
X135085714Y-58499428D02*
X134285714Y-58499428D01*
X134514285Y-58213714D02*
X134514285Y-59013714D01*
X134571428Y-59242285D01*
X134800000Y-59470857D01*
X134571428Y-58785142D02*
X134685714Y-58670857D01*
X134742857Y-58670857D01*
X134857142Y-58842285D01*
X134857142Y-58956571D01*
X134742857Y-59013714D01*
X134685714Y-59013714D01*
X134571428Y-58899428D01*
X133771428Y-59470857D02*
X133542857Y-59470857D01*
X133542857Y-58785142D01*
%TO.C,J6*%
X137657380Y-125741666D02*
X138371666Y-125741666D01*
X138514523Y-125694047D01*
X138609761Y-125598809D01*
X138657380Y-125455952D01*
X138657380Y-125360714D01*
X137657380Y-126646428D02*
X137657380Y-126455952D01*
X137705000Y-126360714D01*
X137752619Y-126313095D01*
X137895476Y-126217857D01*
X138085952Y-126170238D01*
X138466904Y-126170238D01*
X138562142Y-126217857D01*
X138609761Y-126265476D01*
X138657380Y-126360714D01*
X138657380Y-126551190D01*
X138609761Y-126646428D01*
X138562142Y-126694047D01*
X138466904Y-126741666D01*
X138228809Y-126741666D01*
X138133571Y-126694047D01*
X138085952Y-126646428D01*
X138038333Y-126551190D01*
X138038333Y-126360714D01*
X138085952Y-126265476D01*
X138133571Y-126217857D01*
X138228809Y-126170238D01*
D11*
%TO.C,SW3*%
X181398333Y-118878047D02*
X181216904Y-118938523D01*
X180914523Y-118938523D01*
X180793571Y-118878047D01*
X180733095Y-118817571D01*
X180672619Y-118696619D01*
X180672619Y-118575666D01*
X180733095Y-118454714D01*
X180793571Y-118394238D01*
X180914523Y-118333761D01*
X181156428Y-118273285D01*
X181277380Y-118212809D01*
X181337857Y-118152333D01*
X181398333Y-118031380D01*
X181398333Y-117910428D01*
X181337857Y-117789476D01*
X181277380Y-117729000D01*
X181156428Y-117668523D01*
X180854047Y-117668523D01*
X180672619Y-117729000D01*
X180249285Y-117668523D02*
X179946904Y-118938523D01*
X179705000Y-118031380D01*
X179463095Y-118938523D01*
X179160714Y-117668523D01*
X178797857Y-117668523D02*
X178011666Y-117668523D01*
X178435000Y-118152333D01*
X178253571Y-118152333D01*
X178132619Y-118212809D01*
X178072142Y-118273285D01*
X178011666Y-118394238D01*
X178011666Y-118696619D01*
X178072142Y-118817571D01*
X178132619Y-118878047D01*
X178253571Y-118938523D01*
X178616428Y-118938523D01*
X178737380Y-118878047D01*
X178797857Y-118817571D01*
D10*
%TO.C,J11*%
X182448380Y-127460476D02*
X183162666Y-127460476D01*
X183305523Y-127412857D01*
X183400761Y-127317619D01*
X183448380Y-127174761D01*
X183448380Y-127079523D01*
X183448380Y-128460476D02*
X183448380Y-127889047D01*
X183448380Y-128174761D02*
X182448380Y-128174761D01*
X182591238Y-128079523D01*
X182686476Y-127984285D01*
X182734095Y-127889047D01*
X183448380Y-129412857D02*
X183448380Y-128841428D01*
X183448380Y-129127142D02*
X182448380Y-129127142D01*
X182591238Y-129031904D01*
X182686476Y-128936666D01*
X182734095Y-128841428D01*
%TO.C,J4*%
X138097380Y-129206666D02*
X138811666Y-129206666D01*
X138954523Y-129159047D01*
X139049761Y-129063809D01*
X139097380Y-128920952D01*
X139097380Y-128825714D01*
X138430714Y-130111428D02*
X139097380Y-130111428D01*
X138049761Y-129873333D02*
X138764047Y-129635238D01*
X138764047Y-130254285D01*
%TO.C,J12*%
X175717380Y-127460476D02*
X176431666Y-127460476D01*
X176574523Y-127412857D01*
X176669761Y-127317619D01*
X176717380Y-127174761D01*
X176717380Y-127079523D01*
X176717380Y-128460476D02*
X176717380Y-127889047D01*
X176717380Y-128174761D02*
X175717380Y-128174761D01*
X175860238Y-128079523D01*
X175955476Y-127984285D01*
X176003095Y-127889047D01*
X175812619Y-128841428D02*
X175765000Y-128889047D01*
X175717380Y-128984285D01*
X175717380Y-129222380D01*
X175765000Y-129317619D01*
X175812619Y-129365238D01*
X175907857Y-129412857D01*
X176003095Y-129412857D01*
X176145952Y-129365238D01*
X176717380Y-128793809D01*
X176717380Y-129412857D01*
%TO.C,J8*%
X172291333Y-63714380D02*
X172291333Y-64428666D01*
X172338952Y-64571523D01*
X172434190Y-64666761D01*
X172577047Y-64714380D01*
X172672285Y-64714380D01*
X171672285Y-64142952D02*
X171767523Y-64095333D01*
X171815142Y-64047714D01*
X171862761Y-63952476D01*
X171862761Y-63904857D01*
X171815142Y-63809619D01*
X171767523Y-63762000D01*
X171672285Y-63714380D01*
X171481809Y-63714380D01*
X171386571Y-63762000D01*
X171338952Y-63809619D01*
X171291333Y-63904857D01*
X171291333Y-63952476D01*
X171338952Y-64047714D01*
X171386571Y-64095333D01*
X171481809Y-64142952D01*
X171672285Y-64142952D01*
X171767523Y-64190571D01*
X171815142Y-64238190D01*
X171862761Y-64333428D01*
X171862761Y-64523904D01*
X171815142Y-64619142D01*
X171767523Y-64666761D01*
X171672285Y-64714380D01*
X171481809Y-64714380D01*
X171386571Y-64666761D01*
X171338952Y-64619142D01*
X171291333Y-64523904D01*
X171291333Y-64333428D01*
X171338952Y-64238190D01*
X171386571Y-64190571D01*
X171481809Y-64142952D01*
%TO.C,J2*%
X179301333Y-76414380D02*
X179301333Y-77128666D01*
X179348952Y-77271523D01*
X179444190Y-77366761D01*
X179587047Y-77414380D01*
X179682285Y-77414380D01*
X178872761Y-76509619D02*
X178825142Y-76462000D01*
X178729904Y-76414380D01*
X178491809Y-76414380D01*
X178396571Y-76462000D01*
X178348952Y-76509619D01*
X178301333Y-76604857D01*
X178301333Y-76700095D01*
X178348952Y-76842952D01*
X178920380Y-77414380D01*
X178301333Y-77414380D01*
%TO.C,J9*%
X119713333Y-93675380D02*
X119713333Y-94389666D01*
X119760952Y-94532523D01*
X119856190Y-94627761D01*
X119999047Y-94675380D01*
X120094285Y-94675380D01*
X119189523Y-94675380D02*
X118999047Y-94675380D01*
X118903809Y-94627761D01*
X118856190Y-94580142D01*
X118760952Y-94437285D01*
X118713333Y-94246809D01*
X118713333Y-93865857D01*
X118760952Y-93770619D01*
X118808571Y-93723000D01*
X118903809Y-93675380D01*
X119094285Y-93675380D01*
X119189523Y-93723000D01*
X119237142Y-93770619D01*
X119284761Y-93865857D01*
X119284761Y-94103952D01*
X119237142Y-94199190D01*
X119189523Y-94246809D01*
X119094285Y-94294428D01*
X118903809Y-94294428D01*
X118808571Y-94246809D01*
X118760952Y-94199190D01*
X118713333Y-94103952D01*
%TO.C,U21*%
X120618095Y-106132380D02*
X120618095Y-106941904D01*
X120570476Y-107037142D01*
X120522857Y-107084761D01*
X120427619Y-107132380D01*
X120237142Y-107132380D01*
X120141904Y-107084761D01*
X120094285Y-107037142D01*
X120046666Y-106941904D01*
X120046666Y-106132380D01*
X119618095Y-106227619D02*
X119570476Y-106180000D01*
X119475238Y-106132380D01*
X119237142Y-106132380D01*
X119141904Y-106180000D01*
X119094285Y-106227619D01*
X119046666Y-106322857D01*
X119046666Y-106418095D01*
X119094285Y-106560952D01*
X119665714Y-107132380D01*
X119046666Y-107132380D01*
X118094285Y-107132380D02*
X118665714Y-107132380D01*
X118380000Y-107132380D02*
X118380000Y-106132380D01*
X118475238Y-106275238D01*
X118570476Y-106370476D01*
X118665714Y-106418095D01*
X122971428Y-104354380D02*
X122400000Y-104354380D01*
X122685714Y-105354380D02*
X122685714Y-104354380D01*
X121685714Y-105306761D02*
X121780952Y-105354380D01*
X121971428Y-105354380D01*
X122066666Y-105306761D01*
X122114285Y-105211523D01*
X122114285Y-104830571D01*
X122066666Y-104735333D01*
X121971428Y-104687714D01*
X121780952Y-104687714D01*
X121685714Y-104735333D01*
X121638095Y-104830571D01*
X121638095Y-104925809D01*
X122114285Y-105021047D01*
X120828571Y-105306761D02*
X120923809Y-105354380D01*
X121114285Y-105354380D01*
X121209523Y-105306761D01*
X121257142Y-105211523D01*
X121257142Y-104830571D01*
X121209523Y-104735333D01*
X121114285Y-104687714D01*
X120923809Y-104687714D01*
X120828571Y-104735333D01*
X120780952Y-104830571D01*
X120780952Y-104925809D01*
X121257142Y-105021047D01*
X120352380Y-104687714D02*
X120352380Y-105354380D01*
X120352380Y-104782952D02*
X120304761Y-104735333D01*
X120209523Y-104687714D01*
X120066666Y-104687714D01*
X119971428Y-104735333D01*
X119923809Y-104830571D01*
X119923809Y-105354380D01*
X119495238Y-105306761D02*
X119400000Y-105354380D01*
X119209523Y-105354380D01*
X119114285Y-105306761D01*
X119066666Y-105211523D01*
X119066666Y-105163904D01*
X119114285Y-105068666D01*
X119209523Y-105021047D01*
X119352380Y-105021047D01*
X119447619Y-104973428D01*
X119495238Y-104878190D01*
X119495238Y-104830571D01*
X119447619Y-104735333D01*
X119352380Y-104687714D01*
X119209523Y-104687714D01*
X119114285Y-104735333D01*
X118733333Y-104687714D02*
X118495238Y-105354380D01*
X118257142Y-104687714D02*
X118495238Y-105354380D01*
X118590476Y-105592476D01*
X118638095Y-105640095D01*
X118733333Y-105687714D01*
X117447619Y-104687714D02*
X117447619Y-105354380D01*
X117685714Y-104306761D02*
X117923809Y-105021047D01*
X117304761Y-105021047D01*
X116923809Y-105259142D02*
X116876190Y-105306761D01*
X116923809Y-105354380D01*
X116971428Y-105306761D01*
X116923809Y-105259142D01*
X116923809Y-105354380D01*
X116257142Y-104354380D02*
X116161904Y-104354380D01*
X116066666Y-104402000D01*
X116019047Y-104449619D01*
X115971428Y-104544857D01*
X115923809Y-104735333D01*
X115923809Y-104973428D01*
X115971428Y-105163904D01*
X116019047Y-105259142D01*
X116066666Y-105306761D01*
X116161904Y-105354380D01*
X116257142Y-105354380D01*
X116352380Y-105306761D01*
X116400000Y-105259142D01*
X116447619Y-105163904D01*
X116495238Y-104973428D01*
X116495238Y-104735333D01*
X116447619Y-104544857D01*
X116400000Y-104449619D01*
X116352380Y-104402000D01*
X116257142Y-104354380D01*
%TO.C,U19*%
X153638095Y-78446380D02*
X153638095Y-79255904D01*
X153590476Y-79351142D01*
X153542857Y-79398761D01*
X153447619Y-79446380D01*
X153257142Y-79446380D01*
X153161904Y-79398761D01*
X153114285Y-79351142D01*
X153066666Y-79255904D01*
X153066666Y-78446380D01*
X152066666Y-79446380D02*
X152638095Y-79446380D01*
X152352380Y-79446380D02*
X152352380Y-78446380D01*
X152447619Y-78589238D01*
X152542857Y-78684476D01*
X152638095Y-78732095D01*
X151590476Y-79446380D02*
X151400000Y-79446380D01*
X151304761Y-79398761D01*
X151257142Y-79351142D01*
X151161904Y-79208285D01*
X151114285Y-79017809D01*
X151114285Y-78636857D01*
X151161904Y-78541619D01*
X151209523Y-78494000D01*
X151304761Y-78446380D01*
X151495238Y-78446380D01*
X151590476Y-78494000D01*
X151638095Y-78541619D01*
X151685714Y-78636857D01*
X151685714Y-78874952D01*
X151638095Y-78970190D01*
X151590476Y-79017809D01*
X151495238Y-79065428D01*
X151304761Y-79065428D01*
X151209523Y-79017809D01*
X151161904Y-78970190D01*
X151114285Y-78874952D01*
%TO.C,J10*%
X132889523Y-130527380D02*
X132889523Y-131241666D01*
X132937142Y-131384523D01*
X133032380Y-131479761D01*
X133175238Y-131527380D01*
X133270476Y-131527380D01*
X131889523Y-131527380D02*
X132460952Y-131527380D01*
X132175238Y-131527380D02*
X132175238Y-130527380D01*
X132270476Y-130670238D01*
X132365714Y-130765476D01*
X132460952Y-130813095D01*
X131270476Y-130527380D02*
X131175238Y-130527380D01*
X131080000Y-130575000D01*
X131032380Y-130622619D01*
X130984761Y-130717857D01*
X130937142Y-130908333D01*
X130937142Y-131146428D01*
X130984761Y-131336904D01*
X131032380Y-131432142D01*
X131080000Y-131479761D01*
X131175238Y-131527380D01*
X131270476Y-131527380D01*
X131365714Y-131479761D01*
X131413333Y-131432142D01*
X131460952Y-131336904D01*
X131508571Y-131146428D01*
X131508571Y-130908333D01*
X131460952Y-130717857D01*
X131413333Y-130622619D01*
X131365714Y-130575000D01*
X131270476Y-130527380D01*
%TO.C,J5*%
X119837380Y-74496666D02*
X120551666Y-74496666D01*
X120694523Y-74449047D01*
X120789761Y-74353809D01*
X120837380Y-74210952D01*
X120837380Y-74115714D01*
X119837380Y-75449047D02*
X119837380Y-74972857D01*
X120313571Y-74925238D01*
X120265952Y-74972857D01*
X120218333Y-75068095D01*
X120218333Y-75306190D01*
X120265952Y-75401428D01*
X120313571Y-75449047D01*
X120408809Y-75496666D01*
X120646904Y-75496666D01*
X120742142Y-75449047D01*
X120789761Y-75401428D01*
X120837380Y-75306190D01*
X120837380Y-75068095D01*
X120789761Y-74972857D01*
X120742142Y-74925238D01*
%TO.C,D20*%
X173172285Y-128652380D02*
X173172285Y-127652380D01*
X172934190Y-127652380D01*
X172791333Y-127700000D01*
X172696095Y-127795238D01*
X172648476Y-127890476D01*
X172600857Y-128080952D01*
X172600857Y-128223809D01*
X172648476Y-128414285D01*
X172696095Y-128509523D01*
X172791333Y-128604761D01*
X172934190Y-128652380D01*
X173172285Y-128652380D01*
X172219904Y-127747619D02*
X172172285Y-127700000D01*
X172077047Y-127652380D01*
X171838952Y-127652380D01*
X171743714Y-127700000D01*
X171696095Y-127747619D01*
X171648476Y-127842857D01*
X171648476Y-127938095D01*
X171696095Y-128080952D01*
X172267523Y-128652380D01*
X171648476Y-128652380D01*
X171029428Y-127652380D02*
X170934190Y-127652380D01*
X170838952Y-127700000D01*
X170791333Y-127747619D01*
X170743714Y-127842857D01*
X170696095Y-128033333D01*
X170696095Y-128271428D01*
X170743714Y-128461904D01*
X170791333Y-128557142D01*
X170838952Y-128604761D01*
X170934190Y-128652380D01*
X171029428Y-128652380D01*
X171124666Y-128604761D01*
X171172285Y-128557142D01*
X171219904Y-128461904D01*
X171267523Y-128271428D01*
X171267523Y-128033333D01*
X171219904Y-127842857D01*
X171172285Y-127747619D01*
X171124666Y-127700000D01*
X171029428Y-127652380D01*
X168409904Y-128082380D02*
X168409904Y-127082380D01*
X167838476Y-128082380D02*
X168267047Y-127510952D01*
X167838476Y-127082380D02*
X168409904Y-127653809D01*
%TO.C,J7*%
X141049333Y-79462380D02*
X141049333Y-80176666D01*
X141096952Y-80319523D01*
X141192190Y-80414761D01*
X141335047Y-80462380D01*
X141430285Y-80462380D01*
X140668380Y-79462380D02*
X140001714Y-79462380D01*
X140430285Y-80462380D01*
%TO.C,D21*%
X173172285Y-133732380D02*
X173172285Y-132732380D01*
X172934190Y-132732380D01*
X172791333Y-132780000D01*
X172696095Y-132875238D01*
X172648476Y-132970476D01*
X172600857Y-133160952D01*
X172600857Y-133303809D01*
X172648476Y-133494285D01*
X172696095Y-133589523D01*
X172791333Y-133684761D01*
X172934190Y-133732380D01*
X173172285Y-133732380D01*
X172219904Y-132827619D02*
X172172285Y-132780000D01*
X172077047Y-132732380D01*
X171838952Y-132732380D01*
X171743714Y-132780000D01*
X171696095Y-132827619D01*
X171648476Y-132922857D01*
X171648476Y-133018095D01*
X171696095Y-133160952D01*
X172267523Y-133732380D01*
X171648476Y-133732380D01*
X170696095Y-133732380D02*
X171267523Y-133732380D01*
X170981809Y-133732380D02*
X170981809Y-132732380D01*
X171077047Y-132875238D01*
X171172285Y-132970476D01*
X171267523Y-133018095D01*
X168409904Y-133162380D02*
X168409904Y-132162380D01*
X167838476Y-133162380D02*
X168267047Y-132590952D01*
X167838476Y-132162380D02*
X168409904Y-132733809D01*
%TO.C,J3*%
X126187380Y-74496666D02*
X126901666Y-74496666D01*
X127044523Y-74449047D01*
X127139761Y-74353809D01*
X127187380Y-74210952D01*
X127187380Y-74115714D01*
X126187380Y-74877619D02*
X126187380Y-75496666D01*
X126568333Y-75163333D01*
X126568333Y-75306190D01*
X126615952Y-75401428D01*
X126663571Y-75449047D01*
X126758809Y-75496666D01*
X126996904Y-75496666D01*
X127092142Y-75449047D01*
X127139761Y-75401428D01*
X127187380Y-75306190D01*
X127187380Y-75020476D01*
X127139761Y-74925238D01*
X127092142Y-74877619D01*
%TO.C,BZ1*%
X118990952Y-126928571D02*
X118848095Y-126976190D01*
X118800476Y-127023809D01*
X118752857Y-127119047D01*
X118752857Y-127261904D01*
X118800476Y-127357142D01*
X118848095Y-127404761D01*
X118943333Y-127452380D01*
X119324285Y-127452380D01*
X119324285Y-126452380D01*
X118990952Y-126452380D01*
X118895714Y-126500000D01*
X118848095Y-126547619D01*
X118800476Y-126642857D01*
X118800476Y-126738095D01*
X118848095Y-126833333D01*
X118895714Y-126880952D01*
X118990952Y-126928571D01*
X119324285Y-126928571D01*
X118419523Y-126452380D02*
X117752857Y-126452380D01*
X118419523Y-127452380D01*
X117752857Y-127452380D01*
X116848095Y-127452380D02*
X117419523Y-127452380D01*
X117133809Y-127452380D02*
X117133809Y-126452380D01*
X117229047Y-126595238D01*
X117324285Y-126690476D01*
X117419523Y-126738095D01*
X122300952Y-124531428D02*
X121539047Y-124531428D01*
X121920000Y-124912380D02*
X121920000Y-124150476D01*
%TO.C,J1*%
X175720333Y-76414380D02*
X175720333Y-77128666D01*
X175767952Y-77271523D01*
X175863190Y-77366761D01*
X176006047Y-77414380D01*
X176101285Y-77414380D01*
X174720333Y-77414380D02*
X175291761Y-77414380D01*
X175006047Y-77414380D02*
X175006047Y-76414380D01*
X175101285Y-76557238D01*
X175196523Y-76652476D01*
X175291761Y-76700095D01*
D12*
%TO.C,J6*%
X142245000Y-127405000D02*
X165165000Y-127405000D01*
X165165000Y-124745000D02*
X165165000Y-127405000D01*
X142245000Y-124745000D02*
X165165000Y-124745000D01*
X139645000Y-127405000D02*
X140975000Y-127405000D01*
X142245000Y-124745000D02*
X142245000Y-127405000D01*
X139645000Y-126075000D02*
X139645000Y-127405000D01*
D13*
%TO.C,SW3*%
X175640000Y-122555000D02*
X175640000Y-117475000D01*
D14*
X182245000Y-116915000D02*
X182245000Y-116915000D01*
X182245000Y-117015000D02*
X182245000Y-117015000D01*
D13*
X183770000Y-122555000D02*
X175640000Y-122555000D01*
D14*
X182245000Y-116915000D02*
X182245000Y-116915000D01*
D13*
X175640000Y-117475000D02*
X183770000Y-117475000D01*
X183770000Y-117475000D02*
X183770000Y-122555000D01*
D14*
X182245000Y-117015000D02*
G75*
G03*
X182245000Y-116915000I0J50000D01*
G01*
X182245000Y-117015000D02*
G75*
G03*
X182245000Y-116915000I0J50000D01*
G01*
X182245000Y-116915000D02*
G75*
G03*
X182245000Y-117015000I0J-50000D01*
G01*
D12*
%TO.C,U16*%
X200791104Y-117520337D02*
X197875056Y-124560299D01*
X197875056Y-124560299D02*
X200221710Y-125532315D01*
X200221710Y-125532315D02*
X203137758Y-118492353D01*
X203137758Y-118492353D02*
X200791104Y-117520337D01*
X200804920Y-124124322D02*
G75*
G03*
X202554548Y-119900345I-298513J2597996D01*
G01*
%TO.C,U8*%
X113784898Y-68373052D02*
X119173052Y-62984898D01*
X119173052Y-62984898D02*
X117377001Y-61188847D01*
X117377001Y-61188847D02*
X111988847Y-66577001D01*
X111988847Y-66577001D02*
X113784898Y-68373052D01*
X116299370Y-62266478D02*
G75*
G03*
X113066478Y-65499370I-718420J-2514472D01*
G01*
%TO.C,J11*%
X184846000Y-125020000D02*
X184096000Y-125020000D01*
X183796000Y-124170000D02*
X183796000Y-122920000D01*
X184096000Y-130020000D02*
X184096000Y-126520000D01*
X184086000Y-123210000D02*
X190056000Y-123210000D01*
X190056000Y-123210000D02*
X190056000Y-133330000D01*
X184096000Y-126520000D02*
X184846000Y-126520000D01*
X184096000Y-131520000D02*
X184846000Y-131520000D01*
X190056000Y-133330000D02*
X184086000Y-133330000D01*
X184846000Y-133320000D02*
X184096000Y-133320000D01*
X186346000Y-123970000D02*
X189296000Y-123970000D01*
X189296000Y-132570000D02*
X189296000Y-128270000D01*
X186346000Y-133320000D02*
X186346000Y-132570000D01*
X184846000Y-131520000D02*
X184846000Y-133320000D01*
X184096000Y-125020000D02*
X184096000Y-123220000D01*
X184096000Y-123220000D02*
X184846000Y-123220000D01*
X184846000Y-123220000D02*
X184846000Y-125020000D01*
X184846000Y-126520000D02*
X184846000Y-130020000D01*
X186346000Y-123220000D02*
X186346000Y-123970000D01*
X184096000Y-133320000D02*
X184096000Y-131520000D01*
X184846000Y-130020000D02*
X184096000Y-130020000D01*
X189296000Y-123970000D02*
X189296000Y-128270000D01*
X184086000Y-133330000D02*
X184086000Y-123210000D01*
X186346000Y-132570000D02*
X189296000Y-132570000D01*
X183796000Y-122920000D02*
X185046000Y-122920000D01*
%TO.C,U11*%
X148590000Y-50800000D02*
X156210000Y-50800000D01*
X156210000Y-50800000D02*
X156210000Y-48260000D01*
X156210000Y-48260000D02*
X148590000Y-48260000D01*
X148590000Y-48260000D02*
X148590000Y-50800000D01*
X154686000Y-48260000D02*
G75*
G03*
X150114000Y-48260000I-2286000J-1270000D01*
G01*
%TO.C,U17*%
X191015102Y-134826948D02*
X185626948Y-140215102D01*
X185626948Y-140215102D02*
X187422999Y-142011153D01*
X187422999Y-142011153D02*
X192811153Y-136622999D01*
X192811153Y-136622999D02*
X191015102Y-134826948D01*
X188500630Y-140933522D02*
G75*
G03*
X191733522Y-137700630I718420J2514472D01*
G01*
%TO.C,U2*%
X156210000Y-152400000D02*
X148590000Y-152400000D01*
X148590000Y-152400000D02*
X148590000Y-154940000D01*
X148590000Y-154940000D02*
X156210000Y-154940000D01*
X156210000Y-154940000D02*
X156210000Y-152400000D01*
X150114000Y-154940000D02*
G75*
G03*
X154686000Y-154940000I2286000J1270000D01*
G01*
%TO.C,J4*%
X139645000Y-128210000D02*
X139645000Y-129540000D01*
X142245000Y-130870000D02*
X165165000Y-130870000D01*
X142245000Y-128210000D02*
X165165000Y-128210000D01*
X140975000Y-128210000D02*
X139645000Y-128210000D01*
X142245000Y-128210000D02*
X142245000Y-130870000D01*
X165165000Y-128210000D02*
X165165000Y-130870000D01*
%TO.C,J12*%
X177365000Y-131520000D02*
X178115000Y-131520000D01*
X177065000Y-124170000D02*
X177065000Y-122920000D01*
X182565000Y-123970000D02*
X182565000Y-128270000D01*
X179615000Y-123220000D02*
X179615000Y-123970000D01*
X178115000Y-125020000D02*
X177365000Y-125020000D01*
X177365000Y-123220000D02*
X178115000Y-123220000D01*
X177365000Y-133320000D02*
X177365000Y-131520000D01*
X183325000Y-133330000D02*
X177355000Y-133330000D01*
X177355000Y-123210000D02*
X183325000Y-123210000D01*
X179615000Y-132570000D02*
X182565000Y-132570000D01*
X178115000Y-133320000D02*
X177365000Y-133320000D01*
X179615000Y-123970000D02*
X182565000Y-123970000D01*
X178115000Y-131520000D02*
X178115000Y-133320000D01*
X177365000Y-126520000D02*
X178115000Y-126520000D01*
X177365000Y-130020000D02*
X177365000Y-126520000D01*
X183325000Y-123210000D02*
X183325000Y-133330000D01*
X178115000Y-123220000D02*
X178115000Y-125020000D01*
X178115000Y-130020000D02*
X177365000Y-130020000D01*
X177065000Y-122920000D02*
X178315000Y-122920000D01*
X177355000Y-133330000D02*
X177355000Y-123210000D01*
X178115000Y-126520000D02*
X178115000Y-130020000D01*
X177365000Y-125020000D02*
X177365000Y-123220000D01*
X179615000Y-133320000D02*
X179615000Y-132570000D01*
X182565000Y-132570000D02*
X182565000Y-128270000D01*
%TO.C,J8*%
X170628000Y-68072000D02*
X170628000Y-85912000D01*
X173288000Y-68072000D02*
X173288000Y-85912000D01*
X171958000Y-65472000D02*
X170628000Y-65472000D01*
X173288000Y-68072000D02*
X170628000Y-68072000D01*
X170628000Y-65472000D02*
X170628000Y-66802000D01*
X173288000Y-85912000D02*
X170628000Y-85912000D01*
%TO.C,U7*%
X104008896Y-85679663D02*
X106924944Y-78639701D01*
X106924944Y-78639701D02*
X104578290Y-77667685D01*
X104578290Y-77667685D02*
X101662242Y-84707647D01*
X101662242Y-84707647D02*
X104008896Y-85679663D01*
X103995080Y-79075678D02*
G75*
G03*
X102245452Y-83299655I298513J-2597996D01*
G01*
%TO.C,J2*%
X177638000Y-65472000D02*
X180298000Y-65472000D01*
X180298000Y-73152000D02*
X180298000Y-65472000D01*
X177638000Y-73152000D02*
X180298000Y-73152000D01*
X180298000Y-75752000D02*
X180298000Y-74422000D01*
X178968000Y-75752000D02*
X180298000Y-75752000D01*
X177638000Y-73152000D02*
X177638000Y-65472000D01*
%TO.C,J9*%
X114330000Y-95323000D02*
X116130000Y-95323000D01*
X115080000Y-100523000D02*
X119380000Y-100523000D01*
X124430000Y-95323000D02*
X124430000Y-96073000D01*
X114330000Y-97573000D02*
X115080000Y-97573000D01*
X114330000Y-96073000D02*
X114330000Y-95323000D01*
X121130000Y-95323000D02*
X121130000Y-96073000D01*
X124440000Y-101283000D02*
X114320000Y-101283000D01*
X114320000Y-95313000D02*
X124440000Y-95313000D01*
X122630000Y-95323000D02*
X124430000Y-95323000D01*
X123680000Y-97573000D02*
X123680000Y-100523000D01*
X123680000Y-100523000D02*
X119380000Y-100523000D01*
X115080000Y-97573000D02*
X115080000Y-100523000D01*
X116130000Y-96073000D02*
X114330000Y-96073000D01*
X114320000Y-101283000D02*
X114320000Y-95313000D01*
X122630000Y-96073000D02*
X122630000Y-95323000D01*
X116130000Y-95323000D02*
X116130000Y-96073000D01*
X124430000Y-96073000D02*
X122630000Y-96073000D01*
X124730000Y-95023000D02*
X124730000Y-96273000D01*
X124440000Y-95313000D02*
X124440000Y-101283000D01*
X121130000Y-96073000D02*
X117630000Y-96073000D01*
X117630000Y-95323000D02*
X121130000Y-95323000D01*
X117630000Y-96073000D02*
X117630000Y-95323000D01*
X124430000Y-97573000D02*
X123680000Y-97573000D01*
X123480000Y-95023000D02*
X124730000Y-95023000D01*
%TO.C,U5*%
X106924944Y-124560299D02*
X104008896Y-117520337D01*
X104008896Y-117520337D02*
X101662242Y-118492353D01*
X101662242Y-118492353D02*
X104578290Y-125532315D01*
X104578290Y-125532315D02*
X106924944Y-124560299D01*
X102245452Y-119900345D02*
G75*
G03*
X103995080Y-124124322I2048141J-1625981D01*
G01*
%TO.C,U21*%
X130810000Y-119840000D02*
X107950000Y-119840000D01*
X130810000Y-84280000D02*
X130810000Y-119840000D01*
X107950000Y-119840000D02*
X107950000Y-84280000D01*
X107950000Y-84280000D02*
X130810000Y-84280000D01*
%TO.C,U4*%
X119173052Y-140215102D02*
X113784898Y-134826948D01*
X113784898Y-134826948D02*
X111988847Y-136622999D01*
X111988847Y-136622999D02*
X117377001Y-142011153D01*
X117377001Y-142011153D02*
X119173052Y-140215102D01*
X113066478Y-137700630D02*
G75*
G03*
X116299370Y-140933522I2514472J-718420D01*
G01*
%TO.C,U15*%
X203200000Y-97790000D02*
X205740000Y-97790000D01*
X205740000Y-97790000D02*
X205740000Y-105410000D01*
X205740000Y-105410000D02*
X203200000Y-105410000D01*
X203200000Y-105410000D02*
X203200000Y-97790000D01*
X205740000Y-103886000D02*
G75*
G03*
X205740000Y-99314000I-1270000J2286000D01*
G01*
%TO.C,U13*%
X185626948Y-62984898D02*
X191015102Y-68373052D01*
X191015102Y-68373052D02*
X192811153Y-66577001D01*
X192811153Y-66577001D02*
X187422999Y-61188847D01*
X187422999Y-61188847D02*
X185626948Y-62984898D01*
X191733522Y-65499370D02*
G75*
G03*
X188500630Y-62266478I-2514472J718420D01*
G01*
%TO.C,U3*%
X136479663Y-149991104D02*
X129439701Y-147075056D01*
X129439701Y-147075056D02*
X128467685Y-149421710D01*
X128467685Y-149421710D02*
X135507647Y-152337758D01*
X135507647Y-152337758D02*
X136479663Y-149991104D01*
X129875678Y-150004920D02*
G75*
G03*
X134099655Y-151754548I2597996J298513D01*
G01*
%TO.C,U18*%
X175360299Y-147075056D02*
X168320337Y-149991104D01*
X168320337Y-149991104D02*
X169292353Y-152337758D01*
X169292353Y-152337758D02*
X176332315Y-149421710D01*
X176332315Y-149421710D02*
X175360299Y-147075056D01*
X170700345Y-151754548D02*
G75*
G03*
X174924322Y-150004920I1625981J2048141D01*
G01*
%TO.C,J10*%
X136580000Y-129975000D02*
X136580000Y-129225000D01*
X125770000Y-124015000D02*
X138390000Y-124015000D01*
X125780000Y-129975000D02*
X125780000Y-129225000D01*
X138380000Y-127725000D02*
X137630000Y-127725000D01*
X137630000Y-127725000D02*
X137630000Y-124775000D01*
X125770000Y-129985000D02*
X125770000Y-124015000D01*
X126530000Y-124775000D02*
X132080000Y-124775000D01*
X138380000Y-129225000D02*
X138380000Y-129975000D01*
X138390000Y-129985000D02*
X125770000Y-129985000D01*
X138390000Y-124015000D02*
X138390000Y-129985000D01*
X137630000Y-124775000D02*
X132080000Y-124775000D01*
X125480000Y-130275000D02*
X125480000Y-129025000D01*
X136580000Y-129225000D02*
X138380000Y-129225000D01*
X135080000Y-129975000D02*
X129080000Y-129975000D01*
X129080000Y-129975000D02*
X129080000Y-129225000D01*
X129080000Y-129225000D02*
X135080000Y-129225000D01*
X125780000Y-127725000D02*
X126530000Y-127725000D01*
X126530000Y-127725000D02*
X126530000Y-124775000D01*
X125780000Y-129225000D02*
X127580000Y-129225000D01*
X135080000Y-129225000D02*
X135080000Y-129975000D01*
X138380000Y-129975000D02*
X136580000Y-129975000D01*
X127580000Y-129975000D02*
X125780000Y-129975000D01*
X127580000Y-129225000D02*
X127580000Y-129975000D01*
X126730000Y-130275000D02*
X125480000Y-130275000D01*
%TO.C,U14*%
X197875056Y-78639701D02*
X200791104Y-85679663D01*
X200791104Y-85679663D02*
X203137758Y-84707647D01*
X203137758Y-84707647D02*
X200221710Y-77667685D01*
X200221710Y-77667685D02*
X197875056Y-78639701D01*
X202554548Y-83299655D02*
G75*
G03*
X200804920Y-79075678I-2048141J1625981D01*
G01*
%TO.C,J5*%
X126685000Y-66780000D02*
X126685000Y-74830000D01*
X121475000Y-83640000D02*
X121475000Y-66020000D01*
X122235000Y-83630000D02*
X121485000Y-83630000D01*
X122235000Y-67830000D02*
X121485000Y-67830000D01*
X123735000Y-66780000D02*
X126685000Y-66780000D01*
X122235000Y-66030000D02*
X122235000Y-67830000D01*
X121185000Y-65730000D02*
X122435000Y-65730000D01*
X121485000Y-66030000D02*
X122235000Y-66030000D01*
X122235000Y-69330000D02*
X122235000Y-80330000D01*
X121475000Y-66020000D02*
X127445000Y-66020000D01*
X127445000Y-83640000D02*
X121475000Y-83640000D01*
X121485000Y-80330000D02*
X121485000Y-69330000D01*
X121485000Y-67830000D02*
X121485000Y-66030000D01*
X123735000Y-83630000D02*
X123735000Y-82880000D01*
X121485000Y-83630000D02*
X121485000Y-81830000D01*
X126685000Y-82880000D02*
X126685000Y-74830000D01*
X127445000Y-66020000D02*
X127445000Y-83640000D01*
X121485000Y-81830000D02*
X122235000Y-81830000D01*
X121485000Y-69330000D02*
X122235000Y-69330000D01*
X123735000Y-82880000D02*
X126685000Y-82880000D01*
X123735000Y-66030000D02*
X123735000Y-66780000D01*
X122235000Y-81830000D02*
X122235000Y-83630000D01*
X122235000Y-80330000D02*
X121485000Y-80330000D01*
X121185000Y-66980000D02*
X121185000Y-65730000D01*
%TO.C,D20*%
X169238000Y-127200000D02*
X174678000Y-127200000D01*
X174678000Y-124260000D02*
X174678000Y-124590000D01*
X170018000Y-127200000D02*
X170018000Y-124260000D01*
X169238000Y-124590000D02*
X169238000Y-124260000D01*
X169238000Y-126870000D02*
X169238000Y-127200000D01*
X169238000Y-124260000D02*
X174678000Y-124260000D01*
X174678000Y-127200000D02*
X174678000Y-126870000D01*
X170258000Y-127200000D02*
X170258000Y-124260000D01*
X170138000Y-127200000D02*
X170138000Y-124260000D01*
%TO.C,J7*%
X147268000Y-75988000D02*
X147268000Y-78648000D01*
X139528000Y-78648000D02*
X140858000Y-78648000D01*
X142128000Y-78648000D02*
X147268000Y-78648000D01*
X142128000Y-75988000D02*
X147268000Y-75988000D01*
X142128000Y-75988000D02*
X142128000Y-78648000D01*
X139528000Y-77318000D02*
X139528000Y-78648000D01*
%TO.C,D21*%
X170258000Y-132280000D02*
X170258000Y-129340000D01*
X169238000Y-132280000D02*
X174678000Y-132280000D01*
X170138000Y-132280000D02*
X170138000Y-129340000D01*
X174678000Y-129340000D02*
X174678000Y-129670000D01*
X169238000Y-131950000D02*
X169238000Y-132280000D01*
X174678000Y-132280000D02*
X174678000Y-131950000D01*
X169238000Y-129340000D02*
X174678000Y-129340000D01*
X169238000Y-129670000D02*
X169238000Y-129340000D01*
X170018000Y-132280000D02*
X170018000Y-129340000D01*
%TO.C,J3*%
X130085000Y-82880000D02*
X133035000Y-82880000D01*
X133035000Y-66780000D02*
X133035000Y-74830000D01*
X127835000Y-81830000D02*
X128585000Y-81830000D01*
X133035000Y-82880000D02*
X133035000Y-74830000D01*
X127835000Y-69330000D02*
X128585000Y-69330000D01*
X128585000Y-69330000D02*
X128585000Y-80330000D01*
X130085000Y-66780000D02*
X133035000Y-66780000D01*
X127535000Y-66980000D02*
X127535000Y-65730000D01*
X128585000Y-83630000D02*
X127835000Y-83630000D01*
X127835000Y-66030000D02*
X128585000Y-66030000D01*
X127835000Y-80330000D02*
X127835000Y-69330000D01*
X127825000Y-83640000D02*
X127825000Y-66020000D01*
X127535000Y-65730000D02*
X128785000Y-65730000D01*
X128585000Y-81830000D02*
X128585000Y-83630000D01*
X127835000Y-83630000D02*
X127835000Y-81830000D01*
X130085000Y-83630000D02*
X130085000Y-82880000D01*
X133795000Y-66020000D02*
X133795000Y-83640000D01*
X127835000Y-67830000D02*
X127835000Y-66030000D01*
X127825000Y-66020000D02*
X133795000Y-66020000D01*
X128585000Y-66030000D02*
X128585000Y-67830000D01*
X128585000Y-80330000D02*
X127835000Y-80330000D01*
X133795000Y-83640000D02*
X127825000Y-83640000D01*
X130085000Y-66030000D02*
X130085000Y-66780000D01*
X128585000Y-67830000D02*
X127835000Y-67830000D01*
%TO.C,BZ1*%
X124210000Y-127000000D02*
G75*
G03*
X124210000Y-127000000I-6100000J0D01*
G01*
%TO.C,U6*%
X101600000Y-105410000D02*
X99060000Y-105410000D01*
X99060000Y-105410000D02*
X99060000Y-97790000D01*
X99060000Y-97790000D02*
X101600000Y-97790000D01*
X101600000Y-97790000D02*
X101600000Y-105410000D01*
X99060000Y-99314000D02*
G75*
G03*
X99060000Y-103886000I1270000J-2286000D01*
G01*
%TO.C,U12*%
X168320337Y-53208896D02*
X175360299Y-56124944D01*
X175360299Y-56124944D02*
X176332315Y-53778290D01*
X176332315Y-53778290D02*
X169292353Y-50862242D01*
X169292353Y-50862242D02*
X168320337Y-53208896D01*
X174924322Y-53195080D02*
G75*
G03*
X170700345Y-51445452I-2597996J-298513D01*
G01*
%TO.C,U9*%
X129439701Y-56124944D02*
X136479663Y-53208896D01*
X136479663Y-53208896D02*
X135507647Y-50862242D01*
X135507647Y-50862242D02*
X128467685Y-53778290D01*
X128467685Y-53778290D02*
X129439701Y-56124944D01*
X134099655Y-51445452D02*
G75*
G03*
X129875678Y-53195080I-1625981J-2048141D01*
G01*
%TO.C,J1*%
X174057000Y-73152000D02*
X174057000Y-65472000D01*
X174057000Y-73152000D02*
X176717000Y-73152000D01*
X174057000Y-65472000D02*
X176717000Y-65472000D01*
X175387000Y-75752000D02*
X176717000Y-75752000D01*
X176717000Y-75752000D02*
X176717000Y-74422000D01*
X176717000Y-73152000D02*
X176717000Y-65472000D01*
%TD*%
M02*
