M48
; DRILL file {KiCad (6.0.5)} date Sun Feb 26 15:47:40 2023
; FORMAT={-:-/ absolute / inch / decimal}
; #@! TF.CreationDate,2023-02-26T15:47:40+09:00
; #@! TF.GenerationSoftware,Kicad,Pcbnew,(6.0.5)
; #@! TF.FileFunction,Plated,1,2,PTH
FMAT,2
INCH
; #@! TA.AperFunction,Plated,PTH,ViaDrill
T1C0.0157
; #@! TA.AperFunction,Plated,PTH,ComponentDrill
T2C0.0300
; #@! TA.AperFunction,Plated,PTH,ComponentDrill
T3C0.0354
; #@! TA.AperFunction,Plated,PTH,ComponentDrill
T4C0.0374
; #@! TA.AperFunction,Plated,PTH,ComponentDrill
T5C0.0394
; #@! TA.AperFunction,Plated,PTH,ComponentDrill
T6C0.0429
; #@! TA.AperFunction,Plated,PTH,ComponentDrill
T7C0.0433
%
G90
G05
T1
X3.7Y-4.18
X3.73Y-3.63
X3.77Y-3.72
X3.77Y-4.0
X3.8Y-3.3
X3.8Y-4.67
X3.89Y-3.75
X3.92Y-3.44
X3.94Y-4.6
X3.94Y-4.85
X3.95Y-3.15
X3.96Y-4.18
X3.96Y-5.05
X3.98Y-3.57
X3.99Y-2.89
X4.02Y-4.53
X4.1Y-3.52
X4.1Y-4.4
X4.15Y-5.29
X4.17Y-2.95
X4.2Y-4.59
X4.2Y-5.03
X4.22Y-3.37
X4.22Y-3.95
X4.23Y-4.22
X4.24Y-2.52
X4.28Y-3.15
X4.31Y-5.36
X4.32Y-4.91
X4.34Y-2.93
X4.42Y-5.57
X4.43Y-2.43
X4.43Y-2.68
X4.49Y-2.25
X4.51Y-2.94
X4.51Y-3.27
X4.52Y-3.43
X4.52Y-3.93
X4.62Y-2.3902
X4.625Y-3.15
X4.63Y-2.85
X4.65Y-3.3
X4.65Y-4.9
X4.65Y-5.15
X4.72Y-4.09
X4.75Y-3.62
X4.76Y-2.12
X4.775Y-3.1
X4.79Y-2.36
X4.8Y-4.2096
X4.81Y-3.75
X4.82Y-5.35
X4.86Y-5.81
X4.875Y-3.375
X4.875Y-3.625
X4.93Y-6.05
X4.95Y-1.96
X4.95Y-2.2
X4.975Y-3.25
X4.99Y-5.175
X4.99Y-5.88
X5.0Y-5.52
X5.02Y-2.61
X5.025Y-2.8
X5.03Y-4.92
X5.1Y-5.11
X5.15Y-1.94
X5.15Y-6.06
X5.165Y-4.18
X5.17Y-3.44
X5.17Y-3.72
X5.17Y-3.92
X5.17Y-4.1
X5.2Y-2.18
X5.26Y-4.575
X5.27Y-5.61
X5.29Y-6.18
X5.3Y-1.83
X5.31Y-5.34
X5.38Y-5.91
X5.4327Y-4.9323
X5.44Y-2.68
X5.46Y-1.99
X5.46Y-3.4
X5.46Y-3.61
X5.46Y-5.1
X5.49Y-3.16
X5.51Y-2.83
X5.54Y-6.08
X5.6Y-6.21
X5.63Y-5.62
X5.69Y-6.11
X5.74Y-6.22
X5.76Y-5.23
X5.82Y-1.7
X5.83Y-1.8914
X5.88Y-5.91
X5.96Y-6.1
X5.99Y-5.93
X5.99Y-6.23
X6.0Y-1.78
X6.0Y-5.62
X6.05Y-1.9
X6.14Y-5.4
X6.18Y-6.28
X6.2Y-6.06
X6.22Y-1.77
X6.3Y-1.91
X6.3Y-5.38
X6.33Y-5.21
X6.36Y-1.73
X6.37Y-5.62
X6.4Y-5.04
X6.41Y-2.02
X6.43Y-5.73
X6.45Y-5.23
X6.48Y-4.77
X6.51Y-4.91
X6.52Y-5.03
X6.53Y-1.92
X6.53Y-5.93
X6.55Y-2.83
X6.55Y-2.98
X6.55Y-3.32
X6.6Y-6.06
X6.64Y-6.21
X6.71Y-2.88
X6.72Y-1.81
X6.74Y-5.62
X6.7915Y-3.4243
X6.81Y-2.2
X6.85Y-1.95
X6.85Y-5.25
X6.85Y-6.06
X6.86Y-4.6
X6.94Y-4.34
X6.94Y-4.51
X6.97Y-5.49
X6.9765Y-3.8465
X6.9776Y-3.8071
X7.0Y-2.14
X7.0064Y-3.4396
X7.02Y-2.3
X7.03Y-3.715
X7.035Y-3.875
X7.04Y-6.04
X7.05Y-2.06
X7.0562Y-3.5438
X7.06Y-5.8
X7.065Y-3.845
X7.07Y-4.51
X7.08Y-1.96
X7.08Y-3.6491
X7.08Y-4.82
X7.0923Y-3.6873
X7.0939Y-3.5306
X7.1Y-3.05
X7.12Y-4.0
X7.1234Y-3.5962
X7.14Y-2.18
X7.14Y-3.74
X7.17Y-2.66
X7.19Y-4.35
X7.195Y-3.745
X7.2Y-3.575
X7.21Y-5.66
X7.22Y-3.68
X7.22Y-4.2815
X7.22Y-5.05
X7.225Y-2.975
X7.225Y-3.2
X7.2348Y-3.5448
X7.24Y-4.12
X7.2495Y-4.3448
X7.25Y-2.55
X7.27Y-5.88
X7.2732Y-3.4868
X7.2773Y-4.3727
X7.31Y-2.36
X7.34Y-4.86
X7.35Y-4.55
X7.3715Y-3.2735
X7.3785Y-3.5659
X7.4Y-3.15
X7.4Y-3.245
X7.4Y-4.11
X7.4184Y-3.4356
X7.4184Y-3.475
X7.425Y-3.565
X7.4557Y-3.5404
X7.4727Y-4.4885
X7.49Y-3.71
X7.5Y-5.74
X7.53Y-4.25
X7.545Y-4.4138
X7.55Y-3.45
X7.5515Y-4.4885
X7.56Y-3.3565
X7.57Y-2.43
X7.57Y-5.57
X7.58Y-4.61
X7.58Y-5.28
X7.6283Y-4.4708
X7.6295Y-4.4105
X7.63Y-5.36
X7.6397Y-4.6047
X7.65Y-2.72
X7.665Y-4.485
X7.687Y-4.443
X7.7Y-5.43
X7.71Y-2.62
X7.71Y-2.99
X7.71Y-3.21
X7.735Y-3.46
X7.75Y-3.65
X7.77Y-4.0
X7.79Y-2.67
X7.8Y-2.87
X7.8Y-5.04
X7.83Y-3.835
X7.83Y-4.76
X7.84Y-3.25
X7.85Y-3.725
X7.8694Y-3.835
X7.875Y-3.575
X7.875Y-4.25
X7.89Y-4.055
X7.8934Y-3.7934
X7.9184Y-4.0
X7.93Y-5.06
X7.9573Y-4.4523
X8.0Y-4.4
X8.02Y-3.39
X8.04Y-2.95
X8.05Y-3.15
X8.05Y-4.85
X8.08Y-4.52
X8.1Y-4.05
X8.11Y-3.49
X8.11Y-3.85
X8.11Y-4.29
X8.18Y-4.71
X8.21Y-3.34
X8.23Y-4.0
X8.23Y-4.23
X8.28Y-4.32
X8.29Y-3.82
T2
X3.95Y-3.9
X3.95Y-4.0
X3.95Y-4.1
X4.0678Y-3.3079
X4.0678Y-4.6921
X4.106Y-3.2155
X4.106Y-4.7845
X4.1443Y-3.1231
X4.1443Y-4.8769
X4.4797Y-2.6211
X4.4797Y-5.3789
X4.5504Y-2.5504
X4.5504Y-5.4496
X4.6211Y-2.4797
X4.6211Y-5.5203
X5.1231Y-2.1443
X5.1231Y-5.8557
X5.2Y-4.7537
X5.2155Y-2.106
X5.2155Y-5.894
X5.3Y-4.6537
X5.3079Y-2.0678
X5.3079Y-5.9322
X5.4Y-4.7537
X5.9Y-1.95
X5.9Y-6.05
X6.0Y-1.95
X6.0Y-6.05
X6.1Y-1.95
X6.1Y-6.05
X6.6Y-4.7537
X6.6921Y-2.0678
X6.6921Y-5.9322
X6.7Y-4.6537
X6.7845Y-2.106
X6.7845Y-5.894
X6.8Y-4.7537
X6.8769Y-2.1443
X6.8769Y-5.8557
X7.3789Y-2.4797
X7.3789Y-5.5203
X7.4496Y-2.5504
X7.4496Y-5.4496
X7.5203Y-2.6211
X7.5203Y-5.3789
X7.8557Y-3.1231
X7.8557Y-4.8769
X7.894Y-3.2155
X7.894Y-4.7845
X7.9322Y-3.3079
X7.9322Y-4.6921
X8.05Y-3.9
X8.05Y-4.0
X8.05Y-4.1
T3
X6.62Y-4.95
X6.62Y-5.15
X6.92Y-4.95
X6.92Y-5.15
T4
X4.6016Y-3.8493
X4.7Y-3.8493
X4.7984Y-3.8493
X4.8793Y-2.7
X4.8793Y-2.7984
X4.8793Y-2.8969
X4.8793Y-2.9953
X4.8793Y-3.0937
X4.8793Y-3.1921
X5.0524Y-5.0207
X5.1293Y-2.7
X5.1293Y-2.7984
X5.1293Y-2.8969
X5.1293Y-2.9953
X5.1293Y-3.0937
X5.1293Y-3.1921
X5.1508Y-5.0207
X5.2492Y-5.0207
X5.3476Y-5.0207
X7.0793Y-4.9516
X7.0793Y-5.05
X7.0793Y-5.1484
X7.3443Y-4.9516
X7.3443Y-5.05
X7.3443Y-5.1484
T5
X4.3Y-3.3681
X4.3Y-3.4681
X4.3Y-3.5681
X4.3Y-3.6681
X4.3Y-3.7681
X4.3Y-3.8681
X4.3Y-3.9681
X4.3Y-4.0681
X4.3Y-4.1681
X4.3Y-4.2681
X4.3Y-4.3681
X4.3Y-4.4681
X4.3Y-4.5681
X4.3Y-4.6681
X4.4Y-3.3681
X4.4Y-3.4681
X4.4Y-3.5681
X4.4Y-3.6681
X4.4Y-3.7681
X4.4Y-3.8681
X4.4Y-3.9681
X4.4Y-4.0681
X4.4Y-4.1681
X4.4Y-4.2681
X4.4Y-4.3681
X4.4Y-4.4681
X4.4Y-4.5681
X4.4Y-4.6681
X4.5004Y-5.0
X4.7092Y-2.75
X4.7092Y-2.85
X4.7092Y-2.95
X4.7092Y-3.05
X4.7092Y-3.15
X4.7092Y-3.25
X4.7996Y-5.0
X5.0Y-3.3681
X5.0Y-3.4681
X5.0Y-3.5681
X5.0Y-3.6681
X5.0Y-3.7681
X5.0Y-3.8681
X5.0Y-3.9681
X5.0Y-4.0681
X5.0Y-4.1681
X5.0Y-4.2681
X5.0Y-4.3681
X5.0Y-4.4681
X5.0Y-4.5681
X5.0Y-4.6681
X5.1Y-3.3681
X5.1Y-3.4681
X5.1Y-3.5681
X5.1Y-3.6681
X5.1Y-3.7681
X5.1Y-3.8681
X5.1Y-3.9681
X5.1Y-4.0681
X5.1Y-4.1681
X5.1Y-4.2681
X5.1Y-4.3681
X5.1Y-4.4681
X5.1Y-4.5681
X5.1Y-4.6681
X5.3701Y-2.63
X5.3701Y-2.73
X5.3701Y-2.83
X5.3701Y-2.93
X5.3701Y-3.03
X5.3701Y-3.13
X5.3701Y-3.23
X5.3701Y-3.33
X5.5456Y-3.044
X5.5502Y-4.9636
X5.5502Y-5.1
X5.6456Y-3.044
X5.6502Y-4.9636
X5.6502Y-5.1
X5.7456Y-3.044
X5.7502Y-4.9636
X5.7502Y-5.1
X5.8502Y-4.9636
X5.8502Y-5.1
X5.9502Y-4.9636
X5.9502Y-5.1
X6.0502Y-4.9636
X6.0502Y-5.1
X6.1502Y-4.9636
X6.1502Y-5.1
X6.2502Y-4.9636
X6.2502Y-5.1
X6.3502Y-4.9636
X6.3502Y-5.1
X6.4502Y-4.9636
X6.4502Y-5.1
X6.6299Y-2.63
X6.6299Y-2.73
X6.6299Y-2.83
X6.6299Y-2.93
X6.6299Y-3.03
X6.6299Y-3.13
X6.6299Y-3.23
X6.6299Y-3.33
X6.77Y-2.63
X6.77Y-2.73
X6.77Y-2.83
X6.77Y-2.93
X6.77Y-3.03
X6.77Y-3.13
X6.77Y-3.23
X6.77Y-3.33
X6.905Y-2.63
X6.905Y-2.73
X6.905Y-2.83
X6.905Y-2.93
X7.046Y-2.63
X7.046Y-2.73
X7.046Y-2.83
X7.046Y-2.93
T6
X6.975Y-4.725
X7.075Y-4.725
X7.175Y-4.725
T7
X5.122Y-5.4864
X5.122Y-5.6636
X5.378Y-5.4864
X5.378Y-5.6636
X5.497Y-5.4864
X5.497Y-5.6636
X5.753Y-5.4864
X5.753Y-5.6636
X5.872Y-5.4864
X5.872Y-5.6636
X6.128Y-5.4864
X6.128Y-5.6636
X6.247Y-5.4864
X6.247Y-5.6636
X6.503Y-5.4864
X6.503Y-5.6636
X6.622Y-5.4864
X6.622Y-5.6636
X6.878Y-5.4864
X6.878Y-5.6636
T0
M30
