%TF.GenerationSoftware,KiCad,Pcbnew,(6.0.5)*%
%TF.CreationDate,2022-10-18T17:21:11+09:00*%
%TF.ProjectId,line_sensor_front,6c696e65-5f73-4656-9e73-6f725f66726f,rev?*%
%TF.SameCoordinates,Original*%
%TF.FileFunction,Legend,Bot*%
%TF.FilePolarity,Positive*%
%FSLAX46Y46*%
G04 Gerber Fmt 4.6, Leading zero omitted, Abs format (unit mm)*
G04 Created by KiCad (PCBNEW (6.0.5)) date 2022-10-18 17:21:11*
%MOMM*%
%LPD*%
G01*
G04 APERTURE LIST*
%ADD10C,0.150000*%
%ADD11C,0.120000*%
G04 APERTURE END LIST*
D10*
%TO.C,C5*%
X152566666Y-99942142D02*
X152614285Y-99989761D01*
X152757142Y-100037380D01*
X152852380Y-100037380D01*
X152995238Y-99989761D01*
X153090476Y-99894523D01*
X153138095Y-99799285D01*
X153185714Y-99608809D01*
X153185714Y-99465952D01*
X153138095Y-99275476D01*
X153090476Y-99180238D01*
X152995238Y-99085000D01*
X152852380Y-99037380D01*
X152757142Y-99037380D01*
X152614285Y-99085000D01*
X152566666Y-99132619D01*
X151661904Y-99037380D02*
X152138095Y-99037380D01*
X152185714Y-99513571D01*
X152138095Y-99465952D01*
X152042857Y-99418333D01*
X151804761Y-99418333D01*
X151709523Y-99465952D01*
X151661904Y-99513571D01*
X151614285Y-99608809D01*
X151614285Y-99846904D01*
X151661904Y-99942142D01*
X151709523Y-99989761D01*
X151804761Y-100037380D01*
X152042857Y-100037380D01*
X152138095Y-99989761D01*
X152185714Y-99942142D01*
%TO.C,C7*%
X169501921Y-113167260D02*
X169549540Y-113214879D01*
X169692397Y-113262498D01*
X169787635Y-113262498D01*
X169930493Y-113214879D01*
X170025731Y-113119641D01*
X170073350Y-113024403D01*
X170120969Y-112833927D01*
X170120969Y-112691070D01*
X170073350Y-112500594D01*
X170025731Y-112405356D01*
X169930493Y-112310118D01*
X169787635Y-112262498D01*
X169692397Y-112262498D01*
X169549540Y-112310118D01*
X169501921Y-112357737D01*
X169168588Y-112262498D02*
X168501921Y-112262498D01*
X168930493Y-113262498D01*
%TO.C,C6*%
X135515128Y-113269986D02*
X135562747Y-113317605D01*
X135705604Y-113365224D01*
X135800842Y-113365224D01*
X135943700Y-113317605D01*
X136038938Y-113222367D01*
X136086557Y-113127129D01*
X136134176Y-112936653D01*
X136134176Y-112793796D01*
X136086557Y-112603320D01*
X136038938Y-112508082D01*
X135943700Y-112412844D01*
X135800842Y-112365224D01*
X135705604Y-112365224D01*
X135562747Y-112412844D01*
X135515128Y-112460463D01*
X134657985Y-112365224D02*
X134848462Y-112365224D01*
X134943700Y-112412844D01*
X134991319Y-112460463D01*
X135086557Y-112603320D01*
X135134176Y-112793796D01*
X135134176Y-113174748D01*
X135086557Y-113269986D01*
X135038938Y-113317605D01*
X134943700Y-113365224D01*
X134753223Y-113365224D01*
X134657985Y-113317605D01*
X134610366Y-113269986D01*
X134562747Y-113174748D01*
X134562747Y-112936653D01*
X134610366Y-112841415D01*
X134657985Y-112793796D01*
X134753223Y-112746177D01*
X134943700Y-112746177D01*
X135038938Y-112793796D01*
X135086557Y-112841415D01*
X135134176Y-112936653D01*
D11*
%TO.C,C1*%
X121560000Y-95103836D02*
X121560000Y-94888164D01*
X122280000Y-95103836D02*
X122280000Y-94888164D01*
%TO.C,C5*%
X152292164Y-98065000D02*
X152507836Y-98065000D01*
X152292164Y-98785000D02*
X152507836Y-98785000D01*
%TO.C,C7*%
X169227419Y-112010118D02*
X169443091Y-112010118D01*
X169227419Y-111290118D02*
X169443091Y-111290118D01*
%TO.C,C4*%
X182520000Y-95103836D02*
X182520000Y-94888164D01*
X183240000Y-95103836D02*
X183240000Y-94888164D01*
%TO.C,C3*%
X164740000Y-95131836D02*
X164740000Y-94916164D01*
X165460000Y-95131836D02*
X165460000Y-94916164D01*
%TO.C,C2*%
X140060000Y-95103836D02*
X140060000Y-94888164D01*
X139340000Y-95103836D02*
X139340000Y-94888164D01*
%TO.C,C6*%
X135240626Y-111392844D02*
X135456298Y-111392844D01*
X135240626Y-112112844D02*
X135456298Y-112112844D01*
%TD*%
M02*
