%FSLAX45Y45*%
G04 Gerber Fmt 4.5, Leading zero omitted, Abs format (unit mm)*
G04 Created by KiCad (PCBNEW (6.0.5)) date 2022-10-18 17:21:19*
%MOMM*%
%LPD*%
G01*
G04 APERTURE LIST*
%TA.AperFunction,Profile*%
%ADD10C,0.200000*%
%TD*%
%TA.AperFunction,Profile*%
%ADD11C,0.100050*%
%TD*%
%ADD12C,0.200000*%
%ADD13C,0.040000*%
%ADD14C,0.076200*%
%ADD15C,0.090000*%
%ADD16C,0.100000*%
G04 APERTURE END LIST*
D10*
X12527491Y-12012991D02*
G75*
G03*
X12760610Y-12128778I139509J-11689D01*
G01*
X14660208Y-10416771D02*
G75*
G03*
X14834677Y-10218414I-25528J198361D01*
G01*
X19534677Y-9079958D02*
X10935417Y-9079958D01*
X11159677Y-9479958D02*
G75*
G03*
X11159677Y-9479958I-175000J0D01*
G01*
X12233670Y-11526751D02*
G75*
G03*
X12350027Y-11823405I113370J-126679D01*
G01*
X15634677Y-10218414D02*
X15634677Y-10179958D01*
X11534677Y-9879959D02*
X14634677Y-9879959D01*
X19534677Y-9879957D02*
G75*
G03*
X19734677Y-9679958I3J199997D01*
G01*
X12527491Y-12012990D02*
G75*
G03*
X12350027Y-11823405I-174391J14611D01*
G01*
X15834677Y-9879959D02*
X18910890Y-9879958D01*
X10736898Y-9682902D02*
G75*
G03*
X10937639Y-9882162I200002J742D01*
G01*
X14660209Y-10416776D02*
G75*
G03*
X12233673Y-11526755I574471J-4463184D01*
G01*
D11*
X15239680Y-14879958D02*
G75*
G03*
X15239680Y-14879958I-5003J0D01*
G01*
D10*
X18910890Y-9879958D02*
X19534677Y-9879958D01*
X19734682Y-9279958D02*
G75*
G03*
X19534677Y-9079958I-200002J-2D01*
G01*
X17708370Y-12128437D02*
G75*
G03*
X17941555Y-12013592I93600J104107D01*
G01*
X14834677Y-10079959D02*
X14834677Y-10218414D01*
X19659677Y-9479958D02*
G75*
G03*
X19659677Y-9479958I-175000J0D01*
G01*
X17708368Y-12128440D02*
G75*
G03*
X12760610Y-12128778I-2473691J-2751518D01*
G01*
X10935417Y-9079957D02*
G75*
G03*
X10735418Y-9280697I3J-200003D01*
G01*
X18120263Y-11825223D02*
G75*
G03*
X18237818Y-11528669I4097J169953D01*
G01*
X15634677Y-10179958D02*
X15634677Y-10079959D01*
X14834681Y-10079959D02*
G75*
G03*
X14634677Y-9879959I-200002J-2D01*
G01*
X18237820Y-11528667D02*
G75*
G03*
X15809145Y-10416777I-3003140J-3351293D01*
G01*
X15634676Y-10218414D02*
G75*
G03*
X15809145Y-10416777I200004J4D01*
G01*
X15834677Y-9879957D02*
G75*
G03*
X15634677Y-10079959I3J-200003D01*
G01*
X10735418Y-9280697D02*
X10736903Y-9682902D01*
X19734677Y-9679958D02*
X19734677Y-9279958D01*
X10937639Y-9882162D02*
X11534677Y-9879959D01*
X18120263Y-11825231D02*
G75*
G03*
X17941555Y-12013592I-4233J-174939D01*
G01*
D12*
D13*
X11943400Y-9301800D02*
X11983400Y-9341800D01*
X11983400Y-9301800D02*
X11943400Y-9341800D01*
X12248200Y-9174800D02*
X12288200Y-9214800D01*
X12288200Y-9174800D02*
X12248200Y-9214800D01*
X12527600Y-11537000D02*
X12567600Y-11577000D01*
X12567600Y-11537000D02*
X12527600Y-11577000D01*
X12807000Y-11841800D02*
X12847000Y-11881800D01*
X12847000Y-11841800D02*
X12807000Y-11881800D01*
X13162600Y-9632000D02*
X13202600Y-9672000D01*
X13202600Y-9632000D02*
X13162600Y-9672000D01*
X13162600Y-11003600D02*
X13202600Y-11043600D01*
X13202600Y-11003600D02*
X13162600Y-11043600D01*
X13213400Y-11613200D02*
X13253400Y-11653200D01*
X13253400Y-11613200D02*
X13213400Y-11653200D01*
X13365800Y-11308400D02*
X13405800Y-11348400D01*
X13405800Y-11308400D02*
X13365800Y-11348400D01*
X13543600Y-10978200D02*
X13583600Y-11018200D01*
X13583600Y-10978200D02*
X13543600Y-11018200D01*
X13721400Y-9403400D02*
X13761400Y-9443400D01*
X13761400Y-9403400D02*
X13721400Y-9443400D01*
X14077000Y-9479600D02*
X14117000Y-9519600D01*
X14117000Y-9479600D02*
X14077000Y-9519600D01*
X14127800Y-11206800D02*
X14167800Y-11246800D01*
X14167800Y-11206800D02*
X14127800Y-11246800D01*
X14407200Y-9606600D02*
X14447200Y-9646600D01*
X14447200Y-9606600D02*
X14407200Y-9646600D01*
X14483400Y-9352600D02*
X14523400Y-9392600D01*
X14523400Y-9352600D02*
X14483400Y-9392600D01*
X14534200Y-10521000D02*
X14574200Y-10561000D01*
X14574200Y-10521000D02*
X14534200Y-10561000D01*
X14966000Y-10521000D02*
X15006000Y-10561000D01*
X15006000Y-10521000D02*
X14966000Y-10561000D01*
X15042200Y-9327200D02*
X15082200Y-9367200D01*
X15082200Y-9327200D02*
X15042200Y-9367200D01*
X15143800Y-10114600D02*
X15183800Y-10154600D01*
X15183800Y-10114600D02*
X15143800Y-10154600D01*
X15220000Y-10521000D02*
X15260000Y-10561000D01*
X15260000Y-10521000D02*
X15220000Y-10561000D01*
X15499400Y-9682800D02*
X15539400Y-9722800D01*
X15539400Y-9682800D02*
X15499400Y-9722800D01*
X15550200Y-10978200D02*
X15590200Y-11018200D01*
X15590200Y-10978200D02*
X15550200Y-11018200D01*
X15880400Y-10978200D02*
X15920400Y-11018200D01*
X15920400Y-10978200D02*
X15880400Y-11018200D01*
X16007400Y-9759000D02*
X16047400Y-9799000D01*
X16047400Y-9759000D02*
X16007400Y-9799000D01*
X16426500Y-11029000D02*
X16466500Y-11069000D01*
X16466500Y-11029000D02*
X16426500Y-11069000D01*
X16591600Y-9733600D02*
X16631600Y-9773600D01*
X16631600Y-9733600D02*
X16591600Y-9773600D01*
X17277400Y-9606600D02*
X17317400Y-9646600D01*
X17317400Y-9606600D02*
X17277400Y-9646600D01*
X17760000Y-9682800D02*
X17800000Y-9722800D01*
X17800000Y-9682800D02*
X17760000Y-9722800D01*
X18369600Y-9251000D02*
X18409600Y-9291000D01*
X18409600Y-9251000D02*
X18369600Y-9291000D01*
X18369600Y-9733600D02*
X18409600Y-9773600D01*
X18409600Y-9733600D02*
X18369600Y-9773600D01*
D14*
X12484100Y-9372400D02*
G75*
G03*
X12484100Y-9372400I-38100J0D01*
G01*
X12484100Y-9626400D02*
G75*
G03*
X12484100Y-9626400I-38100J0D01*
G01*
X12992100Y-9372400D02*
G75*
G03*
X12992100Y-9372400I-38100J0D01*
G01*
X12992100Y-9626400D02*
G75*
G03*
X12992100Y-9626400I-38100J0D01*
G01*
X13761351Y-10913306D02*
G75*
G03*
X13761351Y-10913306I-38100J0D01*
G01*
X13837730Y-11155550D02*
G75*
G03*
X13837730Y-11155550I-38100J0D01*
G01*
X14245839Y-10760547D02*
G75*
G03*
X14245839Y-10760547I-38100J0D01*
G01*
X14262100Y-9372400D02*
G75*
G03*
X14262100Y-9372400I-38100J0D01*
G01*
X14262100Y-9626400D02*
G75*
G03*
X14262100Y-9626400I-38100J0D01*
G01*
X14322219Y-11002791D02*
G75*
G03*
X14322219Y-11002791I-38100J0D01*
G01*
X14770100Y-9372400D02*
G75*
G03*
X14770100Y-9372400I-38100J0D01*
G01*
X14770100Y-9626400D02*
G75*
G03*
X14770100Y-9626400I-38100J0D01*
G01*
X15024100Y-10032800D02*
G75*
G03*
X15024100Y-10032800I-38100J0D01*
G01*
X15024100Y-10286800D02*
G75*
G03*
X15024100Y-10286800I-38100J0D01*
G01*
X15532100Y-10032800D02*
G75*
G03*
X15532100Y-10032800I-38100J0D01*
G01*
X15532100Y-10286800D02*
G75*
G03*
X15532100Y-10286800I-38100J0D01*
G01*
X15786100Y-9372400D02*
G75*
G03*
X15786100Y-9372400I-38100J0D01*
G01*
X15786100Y-9626400D02*
G75*
G03*
X15786100Y-9626400I-38100J0D01*
G01*
X16233489Y-11005993D02*
G75*
G03*
X16233489Y-11005993I-38100J0D01*
G01*
X16294100Y-9372400D02*
G75*
G03*
X16294100Y-9372400I-38100J0D01*
G01*
X16294100Y-9626400D02*
G75*
G03*
X16294100Y-9626400I-38100J0D01*
G01*
X16309868Y-10763748D02*
G75*
G03*
X16309868Y-10763748I-38100J0D01*
G01*
X16717977Y-11158751D02*
G75*
G03*
X16717977Y-11158751I-38100J0D01*
G01*
X16794356Y-10916507D02*
G75*
G03*
X16794356Y-10916507I-38100J0D01*
G01*
X17564100Y-9372400D02*
G75*
G03*
X17564100Y-9372400I-38100J0D01*
G01*
X17564100Y-9626400D02*
G75*
G03*
X17564100Y-9626400I-38100J0D01*
G01*
X18072100Y-9372400D02*
G75*
G03*
X18072100Y-9372400I-38100J0D01*
G01*
X18072100Y-9626400D02*
G75*
G03*
X18072100Y-9626400I-38100J0D01*
G01*
D15*
X11684000Y-9328100D02*
X11684000Y-9418100D01*
X11639000Y-9373100D02*
X11729000Y-9373100D01*
X11684000Y-9582100D02*
X11684000Y-9672100D01*
X11639000Y-9627100D02*
X11729000Y-9627100D01*
X12942233Y-11226635D02*
X12942233Y-11316635D01*
X12897233Y-11271635D02*
X12987233Y-11271635D01*
X13078707Y-11440857D02*
X13078707Y-11530857D01*
X13033707Y-11485857D02*
X13123707Y-11485857D01*
X13462000Y-9327600D02*
X13462000Y-9417600D01*
X13417000Y-9372600D02*
X13507000Y-9372600D01*
X13462000Y-9581600D02*
X13462000Y-9671600D01*
X13417000Y-9626600D02*
X13507000Y-9626600D01*
X15240000Y-9328100D02*
X15240000Y-9418100D01*
X15195000Y-9373100D02*
X15285000Y-9373100D01*
X15240000Y-9582100D02*
X15240000Y-9672100D01*
X15195000Y-9627100D02*
X15285000Y-9627100D01*
X17018000Y-9328100D02*
X17018000Y-9418100D01*
X16973000Y-9373100D02*
X17063000Y-9373100D01*
X17018000Y-9582100D02*
X17018000Y-9672100D01*
X16973000Y-9627100D02*
X17063000Y-9627100D01*
X17365507Y-11500132D02*
X17365507Y-11590132D01*
X17320507Y-11545132D02*
X17410507Y-11545132D01*
X17501981Y-11285910D02*
X17501981Y-11375910D01*
X17456981Y-11330910D02*
X17546981Y-11330910D01*
X18796000Y-9328100D02*
X18796000Y-9418100D01*
X18751000Y-9373100D02*
X18841000Y-9373100D01*
X18796000Y-9582100D02*
X18796000Y-9672100D01*
X18751000Y-9627100D02*
X18841000Y-9627100D01*
D16*
X14894356Y-10773856D02*
X14894356Y-10703144D01*
X14823644Y-10703144D01*
X14823644Y-10773856D01*
X14894356Y-10773856D01*
X15148356Y-10773856D02*
X15148356Y-10703144D01*
X15077644Y-10703144D01*
X15077644Y-10773856D01*
X15148356Y-10773856D01*
X15402356Y-10773856D02*
X15402356Y-10703144D01*
X15331644Y-10703144D01*
X15331644Y-10773856D01*
X15402356Y-10773856D01*
X15656356Y-10773856D02*
X15656356Y-10703144D01*
X15585644Y-10703144D01*
X15585644Y-10773856D01*
X15656356Y-10773856D01*
D12*
X10983036Y-15200440D02*
X10983036Y-15000440D01*
X11030655Y-15000440D01*
X11059226Y-15009963D01*
X11078274Y-15029011D01*
X11087798Y-15048059D01*
X11097321Y-15086154D01*
X11097321Y-15114725D01*
X11087798Y-15152821D01*
X11078274Y-15171868D01*
X11059226Y-15190916D01*
X11030655Y-15200440D01*
X10983036Y-15200440D01*
X11183036Y-15200440D02*
X11183036Y-15067106D01*
X11183036Y-15105201D02*
X11192559Y-15086154D01*
X11202083Y-15076630D01*
X11221131Y-15067106D01*
X11240178Y-15067106D01*
X11306845Y-15200440D02*
X11306845Y-15067106D01*
X11306845Y-15000440D02*
X11297321Y-15009963D01*
X11306845Y-15019487D01*
X11316369Y-15009963D01*
X11306845Y-15000440D01*
X11306845Y-15019487D01*
X11430655Y-15200440D02*
X11411607Y-15190916D01*
X11402083Y-15171868D01*
X11402083Y-15000440D01*
X11535417Y-15200440D02*
X11516369Y-15190916D01*
X11506845Y-15171868D01*
X11506845Y-15000440D01*
X11763988Y-15200440D02*
X11763988Y-15000440D01*
X11830655Y-15143297D01*
X11897321Y-15000440D01*
X11897321Y-15200440D01*
X12078274Y-15200440D02*
X12078274Y-15095678D01*
X12068750Y-15076630D01*
X12049702Y-15067106D01*
X12011607Y-15067106D01*
X11992559Y-15076630D01*
X12078274Y-15190916D02*
X12059226Y-15200440D01*
X12011607Y-15200440D01*
X11992559Y-15190916D01*
X11983036Y-15171868D01*
X11983036Y-15152821D01*
X11992559Y-15133773D01*
X12011607Y-15124249D01*
X12059226Y-15124249D01*
X12078274Y-15114725D01*
X12173512Y-15067106D02*
X12173512Y-15267106D01*
X12173512Y-15076630D02*
X12192559Y-15067106D01*
X12230655Y-15067106D01*
X12249702Y-15076630D01*
X12259226Y-15086154D01*
X12268750Y-15105201D01*
X12268750Y-15162344D01*
X12259226Y-15181392D01*
X12249702Y-15190916D01*
X12230655Y-15200440D01*
X12192559Y-15200440D01*
X12173512Y-15190916D01*
X12354464Y-15181392D02*
X12363988Y-15190916D01*
X12354464Y-15200440D01*
X12344940Y-15190916D01*
X12354464Y-15181392D01*
X12354464Y-15200440D01*
X12354464Y-15076630D02*
X12363988Y-15086154D01*
X12354464Y-15095678D01*
X12344940Y-15086154D01*
X12354464Y-15076630D01*
X12354464Y-15095678D01*
D13*
X10685417Y-15509963D02*
X10725417Y-15549963D01*
X10725417Y-15509963D02*
X10685417Y-15549963D01*
D12*
X11021131Y-15420440D02*
X11040179Y-15420440D01*
X11059226Y-15429963D01*
X11068750Y-15439487D01*
X11078274Y-15458535D01*
X11087798Y-15496630D01*
X11087798Y-15544249D01*
X11078274Y-15582344D01*
X11068750Y-15601392D01*
X11059226Y-15610916D01*
X11040179Y-15620440D01*
X11021131Y-15620440D01*
X11002083Y-15610916D01*
X10992559Y-15601392D01*
X10983036Y-15582344D01*
X10973512Y-15544249D01*
X10973512Y-15496630D01*
X10983036Y-15458535D01*
X10992559Y-15439487D01*
X11002083Y-15429963D01*
X11021131Y-15420440D01*
X11173512Y-15601392D02*
X11183036Y-15610916D01*
X11173512Y-15620440D01*
X11163988Y-15610916D01*
X11173512Y-15601392D01*
X11173512Y-15620440D01*
X11354464Y-15487106D02*
X11354464Y-15620440D01*
X11306845Y-15410916D02*
X11259226Y-15553773D01*
X11383036Y-15553773D01*
X11497321Y-15420440D02*
X11516369Y-15420440D01*
X11535417Y-15429963D01*
X11544940Y-15439487D01*
X11554464Y-15458535D01*
X11563988Y-15496630D01*
X11563988Y-15544249D01*
X11554464Y-15582344D01*
X11544940Y-15601392D01*
X11535417Y-15610916D01*
X11516369Y-15620440D01*
X11497321Y-15620440D01*
X11478274Y-15610916D01*
X11468750Y-15601392D01*
X11459226Y-15582344D01*
X11449702Y-15544249D01*
X11449702Y-15496630D01*
X11459226Y-15458535D01*
X11468750Y-15439487D01*
X11478274Y-15429963D01*
X11497321Y-15420440D01*
X11687797Y-15420440D02*
X11706845Y-15420440D01*
X11725893Y-15429963D01*
X11735417Y-15439487D01*
X11744940Y-15458535D01*
X11754464Y-15496630D01*
X11754464Y-15544249D01*
X11744940Y-15582344D01*
X11735417Y-15601392D01*
X11725893Y-15610916D01*
X11706845Y-15620440D01*
X11687797Y-15620440D01*
X11668750Y-15610916D01*
X11659226Y-15601392D01*
X11649702Y-15582344D01*
X11640178Y-15544249D01*
X11640178Y-15496630D01*
X11649702Y-15458535D01*
X11659226Y-15439487D01*
X11668750Y-15429963D01*
X11687797Y-15420440D01*
X11840178Y-15620440D02*
X11840178Y-15487106D01*
X11840178Y-15506154D02*
X11849702Y-15496630D01*
X11868750Y-15487106D01*
X11897321Y-15487106D01*
X11916369Y-15496630D01*
X11925893Y-15515678D01*
X11925893Y-15620440D01*
X11925893Y-15515678D02*
X11935417Y-15496630D01*
X11954464Y-15487106D01*
X11983036Y-15487106D01*
X12002083Y-15496630D01*
X12011607Y-15515678D01*
X12011607Y-15620440D01*
X12106845Y-15620440D02*
X12106845Y-15487106D01*
X12106845Y-15506154D02*
X12116369Y-15496630D01*
X12135417Y-15487106D01*
X12163988Y-15487106D01*
X12183036Y-15496630D01*
X12192559Y-15515678D01*
X12192559Y-15620440D01*
X12192559Y-15515678D02*
X12202083Y-15496630D01*
X12221131Y-15487106D01*
X12249702Y-15487106D01*
X12268750Y-15496630D01*
X12278274Y-15515678D01*
X12278274Y-15620440D01*
X12668750Y-15410916D02*
X12497321Y-15668059D01*
X12925893Y-15420440D02*
X12944940Y-15420440D01*
X12963988Y-15429963D01*
X12973512Y-15439487D01*
X12983036Y-15458535D01*
X12992559Y-15496630D01*
X12992559Y-15544249D01*
X12983036Y-15582344D01*
X12973512Y-15601392D01*
X12963988Y-15610916D01*
X12944940Y-15620440D01*
X12925893Y-15620440D01*
X12906845Y-15610916D01*
X12897321Y-15601392D01*
X12887797Y-15582344D01*
X12878274Y-15544249D01*
X12878274Y-15496630D01*
X12887797Y-15458535D01*
X12897321Y-15439487D01*
X12906845Y-15429963D01*
X12925893Y-15420440D01*
X13078274Y-15601392D02*
X13087797Y-15610916D01*
X13078274Y-15620440D01*
X13068750Y-15610916D01*
X13078274Y-15601392D01*
X13078274Y-15620440D01*
X13211607Y-15420440D02*
X13230655Y-15420440D01*
X13249702Y-15429963D01*
X13259226Y-15439487D01*
X13268750Y-15458535D01*
X13278274Y-15496630D01*
X13278274Y-15544249D01*
X13268750Y-15582344D01*
X13259226Y-15601392D01*
X13249702Y-15610916D01*
X13230655Y-15620440D01*
X13211607Y-15620440D01*
X13192559Y-15610916D01*
X13183036Y-15601392D01*
X13173512Y-15582344D01*
X13163988Y-15544249D01*
X13163988Y-15496630D01*
X13173512Y-15458535D01*
X13183036Y-15439487D01*
X13192559Y-15429963D01*
X13211607Y-15420440D01*
X13468750Y-15620440D02*
X13354464Y-15620440D01*
X13411607Y-15620440D02*
X13411607Y-15420440D01*
X13392559Y-15449011D01*
X13373512Y-15468059D01*
X13354464Y-15477582D01*
X13649702Y-15420440D02*
X13554464Y-15420440D01*
X13544940Y-15515678D01*
X13554464Y-15506154D01*
X13573512Y-15496630D01*
X13621131Y-15496630D01*
X13640178Y-15506154D01*
X13649702Y-15515678D01*
X13659226Y-15534725D01*
X13659226Y-15582344D01*
X13649702Y-15601392D01*
X13640178Y-15610916D01*
X13621131Y-15620440D01*
X13573512Y-15620440D01*
X13554464Y-15610916D01*
X13544940Y-15601392D01*
X13725893Y-15420440D02*
X13859226Y-15420440D01*
X13773512Y-15620440D01*
X13925893Y-15420440D02*
X13925893Y-15458535D01*
X14002083Y-15420440D02*
X14002083Y-15458535D01*
X14297321Y-15696630D02*
X14287797Y-15687106D01*
X14268750Y-15658535D01*
X14259226Y-15639487D01*
X14249702Y-15610916D01*
X14240178Y-15563297D01*
X14240178Y-15525201D01*
X14249702Y-15477582D01*
X14259226Y-15449011D01*
X14268750Y-15429963D01*
X14287797Y-15401392D01*
X14297321Y-15391868D01*
X14363988Y-15439487D02*
X14373512Y-15429963D01*
X14392559Y-15420440D01*
X14440178Y-15420440D01*
X14459226Y-15429963D01*
X14468750Y-15439487D01*
X14478274Y-15458535D01*
X14478274Y-15477582D01*
X14468750Y-15506154D01*
X14354464Y-15620440D01*
X14478274Y-15620440D01*
X14573512Y-15620440D02*
X14611607Y-15620440D01*
X14630655Y-15610916D01*
X14640178Y-15601392D01*
X14659226Y-15572821D01*
X14668750Y-15534725D01*
X14668750Y-15458535D01*
X14659226Y-15439487D01*
X14649702Y-15429963D01*
X14630655Y-15420440D01*
X14592559Y-15420440D01*
X14573512Y-15429963D01*
X14563988Y-15439487D01*
X14554464Y-15458535D01*
X14554464Y-15506154D01*
X14563988Y-15525201D01*
X14573512Y-15534725D01*
X14592559Y-15544249D01*
X14630655Y-15544249D01*
X14649702Y-15534725D01*
X14659226Y-15525201D01*
X14668750Y-15506154D01*
X14906845Y-15620440D02*
X14906845Y-15420440D01*
X14992559Y-15620440D02*
X14992559Y-15515678D01*
X14983036Y-15496630D01*
X14963988Y-15487106D01*
X14935416Y-15487106D01*
X14916369Y-15496630D01*
X14906845Y-15506154D01*
X15116369Y-15620440D02*
X15097321Y-15610916D01*
X15087797Y-15601392D01*
X15078274Y-15582344D01*
X15078274Y-15525201D01*
X15087797Y-15506154D01*
X15097321Y-15496630D01*
X15116369Y-15487106D01*
X15144940Y-15487106D01*
X15163988Y-15496630D01*
X15173512Y-15506154D01*
X15183036Y-15525201D01*
X15183036Y-15582344D01*
X15173512Y-15601392D01*
X15163988Y-15610916D01*
X15144940Y-15620440D01*
X15116369Y-15620440D01*
X15297321Y-15620440D02*
X15278274Y-15610916D01*
X15268750Y-15591868D01*
X15268750Y-15420440D01*
X15449702Y-15610916D02*
X15430655Y-15620440D01*
X15392559Y-15620440D01*
X15373512Y-15610916D01*
X15363988Y-15591868D01*
X15363988Y-15515678D01*
X15373512Y-15496630D01*
X15392559Y-15487106D01*
X15430655Y-15487106D01*
X15449702Y-15496630D01*
X15459226Y-15515678D01*
X15459226Y-15534725D01*
X15363988Y-15553773D01*
X15535416Y-15610916D02*
X15554464Y-15620440D01*
X15592559Y-15620440D01*
X15611607Y-15610916D01*
X15621131Y-15591868D01*
X15621131Y-15582344D01*
X15611607Y-15563297D01*
X15592559Y-15553773D01*
X15563988Y-15553773D01*
X15544940Y-15544249D01*
X15535416Y-15525201D01*
X15535416Y-15515678D01*
X15544940Y-15496630D01*
X15563988Y-15487106D01*
X15592559Y-15487106D01*
X15611607Y-15496630D01*
X15687797Y-15696630D02*
X15697321Y-15687106D01*
X15716369Y-15658535D01*
X15725893Y-15639487D01*
X15735416Y-15610916D01*
X15744940Y-15563297D01*
X15744940Y-15525201D01*
X15735416Y-15477582D01*
X15725893Y-15449011D01*
X15716369Y-15429963D01*
X15697321Y-15401392D01*
X15687797Y-15391868D01*
D14*
X10725417Y-15793963D02*
G75*
G03*
X10725417Y-15793963I-38100J0D01*
G01*
D12*
X11021131Y-15684440D02*
X11040179Y-15684440D01*
X11059226Y-15693963D01*
X11068750Y-15703487D01*
X11078274Y-15722535D01*
X11087798Y-15760630D01*
X11087798Y-15808249D01*
X11078274Y-15846344D01*
X11068750Y-15865392D01*
X11059226Y-15874916D01*
X11040179Y-15884440D01*
X11021131Y-15884440D01*
X11002083Y-15874916D01*
X10992559Y-15865392D01*
X10983036Y-15846344D01*
X10973512Y-15808249D01*
X10973512Y-15760630D01*
X10983036Y-15722535D01*
X10992559Y-15703487D01*
X11002083Y-15693963D01*
X11021131Y-15684440D01*
X11173512Y-15865392D02*
X11183036Y-15874916D01*
X11173512Y-15884440D01*
X11163988Y-15874916D01*
X11173512Y-15865392D01*
X11173512Y-15884440D01*
X11249702Y-15684440D02*
X11383036Y-15684440D01*
X11297321Y-15884440D01*
X11544940Y-15684440D02*
X11506845Y-15684440D01*
X11487797Y-15693963D01*
X11478274Y-15703487D01*
X11459226Y-15732059D01*
X11449702Y-15770154D01*
X11449702Y-15846344D01*
X11459226Y-15865392D01*
X11468750Y-15874916D01*
X11487797Y-15884440D01*
X11525893Y-15884440D01*
X11544940Y-15874916D01*
X11554464Y-15865392D01*
X11563988Y-15846344D01*
X11563988Y-15798725D01*
X11554464Y-15779678D01*
X11544940Y-15770154D01*
X11525893Y-15760630D01*
X11487797Y-15760630D01*
X11468750Y-15770154D01*
X11459226Y-15779678D01*
X11449702Y-15798725D01*
X11640178Y-15703487D02*
X11649702Y-15693963D01*
X11668750Y-15684440D01*
X11716369Y-15684440D01*
X11735417Y-15693963D01*
X11744940Y-15703487D01*
X11754464Y-15722535D01*
X11754464Y-15741582D01*
X11744940Y-15770154D01*
X11630655Y-15884440D01*
X11754464Y-15884440D01*
X11840178Y-15884440D02*
X11840178Y-15751106D01*
X11840178Y-15770154D02*
X11849702Y-15760630D01*
X11868750Y-15751106D01*
X11897321Y-15751106D01*
X11916369Y-15760630D01*
X11925893Y-15779678D01*
X11925893Y-15884440D01*
X11925893Y-15779678D02*
X11935417Y-15760630D01*
X11954464Y-15751106D01*
X11983036Y-15751106D01*
X12002083Y-15760630D01*
X12011607Y-15779678D01*
X12011607Y-15884440D01*
X12106845Y-15884440D02*
X12106845Y-15751106D01*
X12106845Y-15770154D02*
X12116369Y-15760630D01*
X12135417Y-15751106D01*
X12163988Y-15751106D01*
X12183036Y-15760630D01*
X12192559Y-15779678D01*
X12192559Y-15884440D01*
X12192559Y-15779678D02*
X12202083Y-15760630D01*
X12221131Y-15751106D01*
X12249702Y-15751106D01*
X12268750Y-15760630D01*
X12278274Y-15779678D01*
X12278274Y-15884440D01*
X12668750Y-15674916D02*
X12497321Y-15932059D01*
X12925893Y-15684440D02*
X12944940Y-15684440D01*
X12963988Y-15693963D01*
X12973512Y-15703487D01*
X12983036Y-15722535D01*
X12992559Y-15760630D01*
X12992559Y-15808249D01*
X12983036Y-15846344D01*
X12973512Y-15865392D01*
X12963988Y-15874916D01*
X12944940Y-15884440D01*
X12925893Y-15884440D01*
X12906845Y-15874916D01*
X12897321Y-15865392D01*
X12887797Y-15846344D01*
X12878274Y-15808249D01*
X12878274Y-15760630D01*
X12887797Y-15722535D01*
X12897321Y-15703487D01*
X12906845Y-15693963D01*
X12925893Y-15684440D01*
X13078274Y-15865392D02*
X13087797Y-15874916D01*
X13078274Y-15884440D01*
X13068750Y-15874916D01*
X13078274Y-15865392D01*
X13078274Y-15884440D01*
X13211607Y-15684440D02*
X13230655Y-15684440D01*
X13249702Y-15693963D01*
X13259226Y-15703487D01*
X13268750Y-15722535D01*
X13278274Y-15760630D01*
X13278274Y-15808249D01*
X13268750Y-15846344D01*
X13259226Y-15865392D01*
X13249702Y-15874916D01*
X13230655Y-15884440D01*
X13211607Y-15884440D01*
X13192559Y-15874916D01*
X13183036Y-15865392D01*
X13173512Y-15846344D01*
X13163988Y-15808249D01*
X13163988Y-15760630D01*
X13173512Y-15722535D01*
X13183036Y-15703487D01*
X13192559Y-15693963D01*
X13211607Y-15684440D01*
X13344940Y-15684440D02*
X13468750Y-15684440D01*
X13402083Y-15760630D01*
X13430655Y-15760630D01*
X13449702Y-15770154D01*
X13459226Y-15779678D01*
X13468750Y-15798725D01*
X13468750Y-15846344D01*
X13459226Y-15865392D01*
X13449702Y-15874916D01*
X13430655Y-15884440D01*
X13373512Y-15884440D01*
X13354464Y-15874916D01*
X13344940Y-15865392D01*
X13592559Y-15684440D02*
X13611607Y-15684440D01*
X13630655Y-15693963D01*
X13640178Y-15703487D01*
X13649702Y-15722535D01*
X13659226Y-15760630D01*
X13659226Y-15808249D01*
X13649702Y-15846344D01*
X13640178Y-15865392D01*
X13630655Y-15874916D01*
X13611607Y-15884440D01*
X13592559Y-15884440D01*
X13573512Y-15874916D01*
X13563988Y-15865392D01*
X13554464Y-15846344D01*
X13544940Y-15808249D01*
X13544940Y-15760630D01*
X13554464Y-15722535D01*
X13563988Y-15703487D01*
X13573512Y-15693963D01*
X13592559Y-15684440D01*
X13783036Y-15684440D02*
X13802083Y-15684440D01*
X13821131Y-15693963D01*
X13830655Y-15703487D01*
X13840178Y-15722535D01*
X13849702Y-15760630D01*
X13849702Y-15808249D01*
X13840178Y-15846344D01*
X13830655Y-15865392D01*
X13821131Y-15874916D01*
X13802083Y-15884440D01*
X13783036Y-15884440D01*
X13763988Y-15874916D01*
X13754464Y-15865392D01*
X13744940Y-15846344D01*
X13735417Y-15808249D01*
X13735417Y-15760630D01*
X13744940Y-15722535D01*
X13754464Y-15703487D01*
X13763988Y-15693963D01*
X13783036Y-15684440D01*
X13925893Y-15684440D02*
X13925893Y-15722535D01*
X14002083Y-15684440D02*
X14002083Y-15722535D01*
X14297321Y-15960630D02*
X14287797Y-15951106D01*
X14268750Y-15922535D01*
X14259226Y-15903487D01*
X14249702Y-15874916D01*
X14240178Y-15827297D01*
X14240178Y-15789201D01*
X14249702Y-15741582D01*
X14259226Y-15713011D01*
X14268750Y-15693963D01*
X14287797Y-15665392D01*
X14297321Y-15655868D01*
X14363988Y-15703487D02*
X14373512Y-15693963D01*
X14392559Y-15684440D01*
X14440178Y-15684440D01*
X14459226Y-15693963D01*
X14468750Y-15703487D01*
X14478274Y-15722535D01*
X14478274Y-15741582D01*
X14468750Y-15770154D01*
X14354464Y-15884440D01*
X14478274Y-15884440D01*
X14592559Y-15770154D02*
X14573512Y-15760630D01*
X14563988Y-15751106D01*
X14554464Y-15732059D01*
X14554464Y-15722535D01*
X14563988Y-15703487D01*
X14573512Y-15693963D01*
X14592559Y-15684440D01*
X14630655Y-15684440D01*
X14649702Y-15693963D01*
X14659226Y-15703487D01*
X14668750Y-15722535D01*
X14668750Y-15732059D01*
X14659226Y-15751106D01*
X14649702Y-15760630D01*
X14630655Y-15770154D01*
X14592559Y-15770154D01*
X14573512Y-15779678D01*
X14563988Y-15789201D01*
X14554464Y-15808249D01*
X14554464Y-15846344D01*
X14563988Y-15865392D01*
X14573512Y-15874916D01*
X14592559Y-15884440D01*
X14630655Y-15884440D01*
X14649702Y-15874916D01*
X14659226Y-15865392D01*
X14668750Y-15846344D01*
X14668750Y-15808249D01*
X14659226Y-15789201D01*
X14649702Y-15779678D01*
X14630655Y-15770154D01*
X14906845Y-15884440D02*
X14906845Y-15684440D01*
X14992559Y-15884440D02*
X14992559Y-15779678D01*
X14983036Y-15760630D01*
X14963988Y-15751106D01*
X14935416Y-15751106D01*
X14916369Y-15760630D01*
X14906845Y-15770154D01*
X15116369Y-15884440D02*
X15097321Y-15874916D01*
X15087797Y-15865392D01*
X15078274Y-15846344D01*
X15078274Y-15789201D01*
X15087797Y-15770154D01*
X15097321Y-15760630D01*
X15116369Y-15751106D01*
X15144940Y-15751106D01*
X15163988Y-15760630D01*
X15173512Y-15770154D01*
X15183036Y-15789201D01*
X15183036Y-15846344D01*
X15173512Y-15865392D01*
X15163988Y-15874916D01*
X15144940Y-15884440D01*
X15116369Y-15884440D01*
X15297321Y-15884440D02*
X15278274Y-15874916D01*
X15268750Y-15855868D01*
X15268750Y-15684440D01*
X15449702Y-15874916D02*
X15430655Y-15884440D01*
X15392559Y-15884440D01*
X15373512Y-15874916D01*
X15363988Y-15855868D01*
X15363988Y-15779678D01*
X15373512Y-15760630D01*
X15392559Y-15751106D01*
X15430655Y-15751106D01*
X15449702Y-15760630D01*
X15459226Y-15779678D01*
X15459226Y-15798725D01*
X15363988Y-15817773D01*
X15535416Y-15874916D02*
X15554464Y-15884440D01*
X15592559Y-15884440D01*
X15611607Y-15874916D01*
X15621131Y-15855868D01*
X15621131Y-15846344D01*
X15611607Y-15827297D01*
X15592559Y-15817773D01*
X15563988Y-15817773D01*
X15544940Y-15808249D01*
X15535416Y-15789201D01*
X15535416Y-15779678D01*
X15544940Y-15760630D01*
X15563988Y-15751106D01*
X15592559Y-15751106D01*
X15611607Y-15760630D01*
X15687797Y-15960630D02*
X15697321Y-15951106D01*
X15716369Y-15922535D01*
X15725893Y-15903487D01*
X15735416Y-15874916D01*
X15744940Y-15827297D01*
X15744940Y-15789201D01*
X15735416Y-15741582D01*
X15725893Y-15713011D01*
X15716369Y-15693963D01*
X15697321Y-15665392D01*
X15687797Y-15655868D01*
D15*
X10680417Y-16012963D02*
X10680417Y-16102963D01*
X10635417Y-16057963D02*
X10725417Y-16057963D01*
D12*
X11021131Y-15948440D02*
X11040179Y-15948440D01*
X11059226Y-15957963D01*
X11068750Y-15967487D01*
X11078274Y-15986535D01*
X11087798Y-16024630D01*
X11087798Y-16072249D01*
X11078274Y-16110344D01*
X11068750Y-16129392D01*
X11059226Y-16138916D01*
X11040179Y-16148440D01*
X11021131Y-16148440D01*
X11002083Y-16138916D01*
X10992559Y-16129392D01*
X10983036Y-16110344D01*
X10973512Y-16072249D01*
X10973512Y-16024630D01*
X10983036Y-15986535D01*
X10992559Y-15967487D01*
X11002083Y-15957963D01*
X11021131Y-15948440D01*
X11173512Y-16129392D02*
X11183036Y-16138916D01*
X11173512Y-16148440D01*
X11163988Y-16138916D01*
X11173512Y-16129392D01*
X11173512Y-16148440D01*
X11278274Y-16148440D02*
X11316369Y-16148440D01*
X11335417Y-16138916D01*
X11344940Y-16129392D01*
X11363988Y-16100821D01*
X11373512Y-16062725D01*
X11373512Y-15986535D01*
X11363988Y-15967487D01*
X11354464Y-15957963D01*
X11335417Y-15948440D01*
X11297321Y-15948440D01*
X11278274Y-15957963D01*
X11268750Y-15967487D01*
X11259226Y-15986535D01*
X11259226Y-16034154D01*
X11268750Y-16053201D01*
X11278274Y-16062725D01*
X11297321Y-16072249D01*
X11335417Y-16072249D01*
X11354464Y-16062725D01*
X11363988Y-16053201D01*
X11373512Y-16034154D01*
X11497321Y-15948440D02*
X11516369Y-15948440D01*
X11535417Y-15957963D01*
X11544940Y-15967487D01*
X11554464Y-15986535D01*
X11563988Y-16024630D01*
X11563988Y-16072249D01*
X11554464Y-16110344D01*
X11544940Y-16129392D01*
X11535417Y-16138916D01*
X11516369Y-16148440D01*
X11497321Y-16148440D01*
X11478274Y-16138916D01*
X11468750Y-16129392D01*
X11459226Y-16110344D01*
X11449702Y-16072249D01*
X11449702Y-16024630D01*
X11459226Y-15986535D01*
X11468750Y-15967487D01*
X11478274Y-15957963D01*
X11497321Y-15948440D01*
X11687797Y-15948440D02*
X11706845Y-15948440D01*
X11725893Y-15957963D01*
X11735417Y-15967487D01*
X11744940Y-15986535D01*
X11754464Y-16024630D01*
X11754464Y-16072249D01*
X11744940Y-16110344D01*
X11735417Y-16129392D01*
X11725893Y-16138916D01*
X11706845Y-16148440D01*
X11687797Y-16148440D01*
X11668750Y-16138916D01*
X11659226Y-16129392D01*
X11649702Y-16110344D01*
X11640178Y-16072249D01*
X11640178Y-16024630D01*
X11649702Y-15986535D01*
X11659226Y-15967487D01*
X11668750Y-15957963D01*
X11687797Y-15948440D01*
X11840178Y-16148440D02*
X11840178Y-16015106D01*
X11840178Y-16034154D02*
X11849702Y-16024630D01*
X11868750Y-16015106D01*
X11897321Y-16015106D01*
X11916369Y-16024630D01*
X11925893Y-16043678D01*
X11925893Y-16148440D01*
X11925893Y-16043678D02*
X11935417Y-16024630D01*
X11954464Y-16015106D01*
X11983036Y-16015106D01*
X12002083Y-16024630D01*
X12011607Y-16043678D01*
X12011607Y-16148440D01*
X12106845Y-16148440D02*
X12106845Y-16015106D01*
X12106845Y-16034154D02*
X12116369Y-16024630D01*
X12135417Y-16015106D01*
X12163988Y-16015106D01*
X12183036Y-16024630D01*
X12192559Y-16043678D01*
X12192559Y-16148440D01*
X12192559Y-16043678D02*
X12202083Y-16024630D01*
X12221131Y-16015106D01*
X12249702Y-16015106D01*
X12268750Y-16024630D01*
X12278274Y-16043678D01*
X12278274Y-16148440D01*
X12668750Y-15938916D02*
X12497321Y-16196059D01*
X12925893Y-15948440D02*
X12944940Y-15948440D01*
X12963988Y-15957963D01*
X12973512Y-15967487D01*
X12983036Y-15986535D01*
X12992559Y-16024630D01*
X12992559Y-16072249D01*
X12983036Y-16110344D01*
X12973512Y-16129392D01*
X12963988Y-16138916D01*
X12944940Y-16148440D01*
X12925893Y-16148440D01*
X12906845Y-16138916D01*
X12897321Y-16129392D01*
X12887797Y-16110344D01*
X12878274Y-16072249D01*
X12878274Y-16024630D01*
X12887797Y-15986535D01*
X12897321Y-15967487D01*
X12906845Y-15957963D01*
X12925893Y-15948440D01*
X13078274Y-16129392D02*
X13087797Y-16138916D01*
X13078274Y-16148440D01*
X13068750Y-16138916D01*
X13078274Y-16129392D01*
X13078274Y-16148440D01*
X13211607Y-15948440D02*
X13230655Y-15948440D01*
X13249702Y-15957963D01*
X13259226Y-15967487D01*
X13268750Y-15986535D01*
X13278274Y-16024630D01*
X13278274Y-16072249D01*
X13268750Y-16110344D01*
X13259226Y-16129392D01*
X13249702Y-16138916D01*
X13230655Y-16148440D01*
X13211607Y-16148440D01*
X13192559Y-16138916D01*
X13183036Y-16129392D01*
X13173512Y-16110344D01*
X13163988Y-16072249D01*
X13163988Y-16024630D01*
X13173512Y-15986535D01*
X13183036Y-15967487D01*
X13192559Y-15957963D01*
X13211607Y-15948440D01*
X13344940Y-15948440D02*
X13468750Y-15948440D01*
X13402083Y-16024630D01*
X13430655Y-16024630D01*
X13449702Y-16034154D01*
X13459226Y-16043678D01*
X13468750Y-16062725D01*
X13468750Y-16110344D01*
X13459226Y-16129392D01*
X13449702Y-16138916D01*
X13430655Y-16148440D01*
X13373512Y-16148440D01*
X13354464Y-16138916D01*
X13344940Y-16129392D01*
X13649702Y-15948440D02*
X13554464Y-15948440D01*
X13544940Y-16043678D01*
X13554464Y-16034154D01*
X13573512Y-16024630D01*
X13621131Y-16024630D01*
X13640178Y-16034154D01*
X13649702Y-16043678D01*
X13659226Y-16062725D01*
X13659226Y-16110344D01*
X13649702Y-16129392D01*
X13640178Y-16138916D01*
X13621131Y-16148440D01*
X13573512Y-16148440D01*
X13554464Y-16138916D01*
X13544940Y-16129392D01*
X13830655Y-16015106D02*
X13830655Y-16148440D01*
X13783036Y-15938916D02*
X13735417Y-16081773D01*
X13859226Y-16081773D01*
X13925893Y-15948440D02*
X13925893Y-15986535D01*
X14002083Y-15948440D02*
X14002083Y-15986535D01*
X14297321Y-16224630D02*
X14287797Y-16215106D01*
X14268750Y-16186535D01*
X14259226Y-16167487D01*
X14249702Y-16138916D01*
X14240178Y-16091297D01*
X14240178Y-16053201D01*
X14249702Y-16005582D01*
X14259226Y-15977011D01*
X14268750Y-15957963D01*
X14287797Y-15929392D01*
X14297321Y-15919868D01*
X14478274Y-16148440D02*
X14363988Y-16148440D01*
X14421131Y-16148440D02*
X14421131Y-15948440D01*
X14402083Y-15977011D01*
X14383036Y-15996059D01*
X14363988Y-16005582D01*
X14649702Y-16015106D02*
X14649702Y-16148440D01*
X14602083Y-15938916D02*
X14554464Y-16081773D01*
X14678274Y-16081773D01*
X14906845Y-16148440D02*
X14906845Y-15948440D01*
X14992559Y-16148440D02*
X14992559Y-16043678D01*
X14983036Y-16024630D01*
X14963988Y-16015106D01*
X14935416Y-16015106D01*
X14916369Y-16024630D01*
X14906845Y-16034154D01*
X15116369Y-16148440D02*
X15097321Y-16138916D01*
X15087797Y-16129392D01*
X15078274Y-16110344D01*
X15078274Y-16053201D01*
X15087797Y-16034154D01*
X15097321Y-16024630D01*
X15116369Y-16015106D01*
X15144940Y-16015106D01*
X15163988Y-16024630D01*
X15173512Y-16034154D01*
X15183036Y-16053201D01*
X15183036Y-16110344D01*
X15173512Y-16129392D01*
X15163988Y-16138916D01*
X15144940Y-16148440D01*
X15116369Y-16148440D01*
X15297321Y-16148440D02*
X15278274Y-16138916D01*
X15268750Y-16119868D01*
X15268750Y-15948440D01*
X15449702Y-16138916D02*
X15430655Y-16148440D01*
X15392559Y-16148440D01*
X15373512Y-16138916D01*
X15363988Y-16119868D01*
X15363988Y-16043678D01*
X15373512Y-16024630D01*
X15392559Y-16015106D01*
X15430655Y-16015106D01*
X15449702Y-16024630D01*
X15459226Y-16043678D01*
X15459226Y-16062725D01*
X15363988Y-16081773D01*
X15535416Y-16138916D02*
X15554464Y-16148440D01*
X15592559Y-16148440D01*
X15611607Y-16138916D01*
X15621131Y-16119868D01*
X15621131Y-16110344D01*
X15611607Y-16091297D01*
X15592559Y-16081773D01*
X15563988Y-16081773D01*
X15544940Y-16072249D01*
X15535416Y-16053201D01*
X15535416Y-16043678D01*
X15544940Y-16024630D01*
X15563988Y-16015106D01*
X15592559Y-16015106D01*
X15611607Y-16024630D01*
X15687797Y-16224630D02*
X15697321Y-16215106D01*
X15716369Y-16186535D01*
X15725893Y-16167487D01*
X15735416Y-16138916D01*
X15744940Y-16091297D01*
X15744940Y-16053201D01*
X15735416Y-16005582D01*
X15725893Y-15977011D01*
X15716369Y-15957963D01*
X15697321Y-15929392D01*
X15687797Y-15919868D01*
D16*
X10710772Y-16357319D02*
X10710772Y-16286608D01*
X10640061Y-16286608D01*
X10640061Y-16357319D01*
X10710772Y-16357319D01*
D12*
X11087798Y-16412440D02*
X10973512Y-16412440D01*
X11030655Y-16412440D02*
X11030655Y-16212440D01*
X11011607Y-16241011D01*
X10992559Y-16260059D01*
X10973512Y-16269582D01*
X11173512Y-16393392D02*
X11183036Y-16402916D01*
X11173512Y-16412440D01*
X11163988Y-16402916D01*
X11173512Y-16393392D01*
X11173512Y-16412440D01*
X11306845Y-16212440D02*
X11325893Y-16212440D01*
X11344940Y-16221963D01*
X11354464Y-16231487D01*
X11363988Y-16250535D01*
X11373512Y-16288630D01*
X11373512Y-16336249D01*
X11363988Y-16374344D01*
X11354464Y-16393392D01*
X11344940Y-16402916D01*
X11325893Y-16412440D01*
X11306845Y-16412440D01*
X11287797Y-16402916D01*
X11278274Y-16393392D01*
X11268750Y-16374344D01*
X11259226Y-16336249D01*
X11259226Y-16288630D01*
X11268750Y-16250535D01*
X11278274Y-16231487D01*
X11287797Y-16221963D01*
X11306845Y-16212440D01*
X11497321Y-16212440D02*
X11516369Y-16212440D01*
X11535417Y-16221963D01*
X11544940Y-16231487D01*
X11554464Y-16250535D01*
X11563988Y-16288630D01*
X11563988Y-16336249D01*
X11554464Y-16374344D01*
X11544940Y-16393392D01*
X11535417Y-16402916D01*
X11516369Y-16412440D01*
X11497321Y-16412440D01*
X11478274Y-16402916D01*
X11468750Y-16393392D01*
X11459226Y-16374344D01*
X11449702Y-16336249D01*
X11449702Y-16288630D01*
X11459226Y-16250535D01*
X11468750Y-16231487D01*
X11478274Y-16221963D01*
X11497321Y-16212440D01*
X11687797Y-16212440D02*
X11706845Y-16212440D01*
X11725893Y-16221963D01*
X11735417Y-16231487D01*
X11744940Y-16250535D01*
X11754464Y-16288630D01*
X11754464Y-16336249D01*
X11744940Y-16374344D01*
X11735417Y-16393392D01*
X11725893Y-16402916D01*
X11706845Y-16412440D01*
X11687797Y-16412440D01*
X11668750Y-16402916D01*
X11659226Y-16393392D01*
X11649702Y-16374344D01*
X11640178Y-16336249D01*
X11640178Y-16288630D01*
X11649702Y-16250535D01*
X11659226Y-16231487D01*
X11668750Y-16221963D01*
X11687797Y-16212440D01*
X11840178Y-16412440D02*
X11840178Y-16279106D01*
X11840178Y-16298154D02*
X11849702Y-16288630D01*
X11868750Y-16279106D01*
X11897321Y-16279106D01*
X11916369Y-16288630D01*
X11925893Y-16307678D01*
X11925893Y-16412440D01*
X11925893Y-16307678D02*
X11935417Y-16288630D01*
X11954464Y-16279106D01*
X11983036Y-16279106D01*
X12002083Y-16288630D01*
X12011607Y-16307678D01*
X12011607Y-16412440D01*
X12106845Y-16412440D02*
X12106845Y-16279106D01*
X12106845Y-16298154D02*
X12116369Y-16288630D01*
X12135417Y-16279106D01*
X12163988Y-16279106D01*
X12183036Y-16288630D01*
X12192559Y-16307678D01*
X12192559Y-16412440D01*
X12192559Y-16307678D02*
X12202083Y-16288630D01*
X12221131Y-16279106D01*
X12249702Y-16279106D01*
X12268750Y-16288630D01*
X12278274Y-16307678D01*
X12278274Y-16412440D01*
X12668750Y-16202916D02*
X12497321Y-16460059D01*
X12925893Y-16212440D02*
X12944940Y-16212440D01*
X12963988Y-16221963D01*
X12973512Y-16231487D01*
X12983036Y-16250535D01*
X12992559Y-16288630D01*
X12992559Y-16336249D01*
X12983036Y-16374344D01*
X12973512Y-16393392D01*
X12963988Y-16402916D01*
X12944940Y-16412440D01*
X12925893Y-16412440D01*
X12906845Y-16402916D01*
X12897321Y-16393392D01*
X12887797Y-16374344D01*
X12878274Y-16336249D01*
X12878274Y-16288630D01*
X12887797Y-16250535D01*
X12897321Y-16231487D01*
X12906845Y-16221963D01*
X12925893Y-16212440D01*
X13078274Y-16393392D02*
X13087797Y-16402916D01*
X13078274Y-16412440D01*
X13068750Y-16402916D01*
X13078274Y-16393392D01*
X13078274Y-16412440D01*
X13211607Y-16212440D02*
X13230655Y-16212440D01*
X13249702Y-16221963D01*
X13259226Y-16231487D01*
X13268750Y-16250535D01*
X13278274Y-16288630D01*
X13278274Y-16336249D01*
X13268750Y-16374344D01*
X13259226Y-16393392D01*
X13249702Y-16402916D01*
X13230655Y-16412440D01*
X13211607Y-16412440D01*
X13192559Y-16402916D01*
X13183036Y-16393392D01*
X13173512Y-16374344D01*
X13163988Y-16336249D01*
X13163988Y-16288630D01*
X13173512Y-16250535D01*
X13183036Y-16231487D01*
X13192559Y-16221963D01*
X13211607Y-16212440D01*
X13344940Y-16212440D02*
X13468750Y-16212440D01*
X13402083Y-16288630D01*
X13430655Y-16288630D01*
X13449702Y-16298154D01*
X13459226Y-16307678D01*
X13468750Y-16326725D01*
X13468750Y-16374344D01*
X13459226Y-16393392D01*
X13449702Y-16402916D01*
X13430655Y-16412440D01*
X13373512Y-16412440D01*
X13354464Y-16402916D01*
X13344940Y-16393392D01*
X13563988Y-16412440D02*
X13602083Y-16412440D01*
X13621131Y-16402916D01*
X13630655Y-16393392D01*
X13649702Y-16364821D01*
X13659226Y-16326725D01*
X13659226Y-16250535D01*
X13649702Y-16231487D01*
X13640178Y-16221963D01*
X13621131Y-16212440D01*
X13583036Y-16212440D01*
X13563988Y-16221963D01*
X13554464Y-16231487D01*
X13544940Y-16250535D01*
X13544940Y-16298154D01*
X13554464Y-16317201D01*
X13563988Y-16326725D01*
X13583036Y-16336249D01*
X13621131Y-16336249D01*
X13640178Y-16326725D01*
X13649702Y-16317201D01*
X13659226Y-16298154D01*
X13830655Y-16279106D02*
X13830655Y-16412440D01*
X13783036Y-16202916D02*
X13735417Y-16345773D01*
X13859226Y-16345773D01*
X13925893Y-16212440D02*
X13925893Y-16250535D01*
X14002083Y-16212440D02*
X14002083Y-16250535D01*
X14297321Y-16488630D02*
X14287797Y-16479106D01*
X14268750Y-16450535D01*
X14259226Y-16431487D01*
X14249702Y-16402916D01*
X14240178Y-16355297D01*
X14240178Y-16317201D01*
X14249702Y-16269582D01*
X14259226Y-16241011D01*
X14268750Y-16221963D01*
X14287797Y-16193392D01*
X14297321Y-16183868D01*
X14459226Y-16279106D02*
X14459226Y-16412440D01*
X14411607Y-16202916D02*
X14363988Y-16345773D01*
X14487797Y-16345773D01*
X14716369Y-16412440D02*
X14716369Y-16212440D01*
X14802083Y-16412440D02*
X14802083Y-16307678D01*
X14792559Y-16288630D01*
X14773512Y-16279106D01*
X14744940Y-16279106D01*
X14725893Y-16288630D01*
X14716369Y-16298154D01*
X14925893Y-16412440D02*
X14906845Y-16402916D01*
X14897321Y-16393392D01*
X14887797Y-16374344D01*
X14887797Y-16317201D01*
X14897321Y-16298154D01*
X14906845Y-16288630D01*
X14925893Y-16279106D01*
X14954464Y-16279106D01*
X14973512Y-16288630D01*
X14983036Y-16298154D01*
X14992559Y-16317201D01*
X14992559Y-16374344D01*
X14983036Y-16393392D01*
X14973512Y-16402916D01*
X14954464Y-16412440D01*
X14925893Y-16412440D01*
X15106845Y-16412440D02*
X15087797Y-16402916D01*
X15078274Y-16383868D01*
X15078274Y-16212440D01*
X15259226Y-16402916D02*
X15240178Y-16412440D01*
X15202083Y-16412440D01*
X15183036Y-16402916D01*
X15173512Y-16383868D01*
X15173512Y-16307678D01*
X15183036Y-16288630D01*
X15202083Y-16279106D01*
X15240178Y-16279106D01*
X15259226Y-16288630D01*
X15268750Y-16307678D01*
X15268750Y-16326725D01*
X15173512Y-16345773D01*
X15344940Y-16402916D02*
X15363988Y-16412440D01*
X15402083Y-16412440D01*
X15421131Y-16402916D01*
X15430655Y-16383868D01*
X15430655Y-16374344D01*
X15421131Y-16355297D01*
X15402083Y-16345773D01*
X15373512Y-16345773D01*
X15354464Y-16336249D01*
X15344940Y-16317201D01*
X15344940Y-16307678D01*
X15354464Y-16288630D01*
X15373512Y-16279106D01*
X15402083Y-16279106D01*
X15421131Y-16288630D01*
X15497321Y-16488630D02*
X15506845Y-16479106D01*
X15525893Y-16450535D01*
X15535416Y-16431487D01*
X15544940Y-16402916D01*
X15554464Y-16355297D01*
X15554464Y-16317201D01*
X15544940Y-16269582D01*
X15535416Y-16241011D01*
X15525893Y-16221963D01*
X15506845Y-16193392D01*
X15497321Y-16183868D01*
M02*
