M48
; DRILL file {KiCad (6.0.5)} date Tue Oct 18 17:21:18 2022
; FORMAT={3:3/ absolute / metric / keep zeros}
; #@! TF.CreationDate,2022-10-18T17:21:18+09:00
; #@! TF.GenerationSoftware,Kicad,Pcbnew,(6.0.5)
; #@! TF.FileFunction,MixedPlating,1,2
FMAT,2
METRIC
; #@! TA.AperFunction,Plated,PTH,ViaDrill
T1C0.400
; #@! TA.AperFunction,Plated,PTH,ComponentDrill
T2C0.762
; #@! TA.AperFunction,Plated,PTH,ComponentDrill
T3C0.900
; #@! TA.AperFunction,Plated,PTH,ComponentDrill
T4C1.000
%
G90
G05
T1
X119634Y-093218
X122682Y-091948
X125476Y-115570
X128270Y-118618
X131826Y-096520
X131826Y-110236
X132334Y-116332
X133858Y-113284
X135636Y-109982
X137414Y-094234
X140970Y-094996
X141478Y-112268
X144272Y-096266
X145034Y-093726
X145542Y-105410
X149860Y-105410
X150622Y-093472
X151638Y-101346
X152400Y-105410
X155194Y-097028
X155702Y-109982
X159004Y-109982
X160274Y-097790
X164465Y-110490
X166116Y-097536
X172974Y-096266
X177800Y-097028
X183896Y-092710
X183896Y-097536
T2
X124460Y-093724
X124460Y-096264
X129540Y-093724
X129540Y-096264
X137233Y-109133
X137996Y-111555
X142077Y-107605
X142240Y-093724
X142240Y-096264
X142841Y-110028
X147320Y-093724
X147320Y-096264
X149860Y-100328
X149860Y-102868
X154940Y-100328
X154940Y-102868
X157480Y-093724
X157480Y-096264
X161954Y-110060
X162560Y-093724
X162560Y-096264
X162718Y-107637
X166799Y-111588
X167563Y-109165
X175260Y-093724
X175260Y-096264
X180340Y-093724
X180340Y-096264
T3
X116840Y-093731
X116840Y-096271
X129422Y-112716
X130787Y-114859
X134620Y-093726
X134620Y-096266
X152400Y-093731
X152400Y-096271
X170180Y-093731
X170180Y-096271
X173655Y-115451
X175020Y-113309
X187960Y-093731
X187960Y-096271
T4
X148590Y-107385
X151130Y-107385
X153670Y-107385
X156210Y-107385
T0
M30
