%TF.GenerationSoftware,KiCad,Pcbnew,(6.0.5)*%
%TF.CreationDate,2022-10-18T17:21:11+09:00*%
%TF.ProjectId,line_sensor_front,6c696e65-5f73-4656-9e73-6f725f66726f,rev?*%
%TF.SameCoordinates,Original*%
%TF.FileFunction,Legend,Top*%
%TF.FilePolarity,Positive*%
%FSLAX46Y46*%
G04 Gerber Fmt 4.6, Leading zero omitted, Abs format (unit mm)*
G04 Created by KiCad (PCBNEW (6.0.5)) date 2022-10-18 17:21:11*
%MOMM*%
%LPD*%
G01*
G04 APERTURE LIST*
%ADD10C,0.150000*%
%ADD11C,0.120000*%
G04 APERTURE END LIST*
D10*
%TO.C,U7*%
X166256089Y-102328154D02*
X166012661Y-103100210D01*
X166029437Y-103205360D01*
X166060533Y-103265094D01*
X166137044Y-103339148D01*
X166318704Y-103396425D01*
X166423854Y-103379649D01*
X166483588Y-103348553D01*
X166557642Y-103272042D01*
X166801070Y-102499986D01*
X167164391Y-102614540D02*
X167800202Y-102815011D01*
X167090761Y-103639854D01*
%TO.C,U6*%
X137085700Y-102754360D02*
X137329128Y-103526417D01*
X137403182Y-103602928D01*
X137462916Y-103634023D01*
X137568066Y-103650800D01*
X137749726Y-103593522D01*
X137826237Y-103519469D01*
X137857333Y-103459734D01*
X137874109Y-103354585D01*
X137630681Y-102582528D01*
X138493568Y-102310461D02*
X138311907Y-102367738D01*
X138235396Y-102441792D01*
X138204301Y-102501527D01*
X138156428Y-102666410D01*
X138168291Y-102862390D01*
X138282845Y-103225711D01*
X138356899Y-103302222D01*
X138416633Y-103333318D01*
X138521783Y-103350094D01*
X138703443Y-103292817D01*
X138779954Y-103218763D01*
X138811050Y-103159029D01*
X138827826Y-103053879D01*
X138756230Y-102826804D01*
X138682176Y-102750293D01*
X138622442Y-102719197D01*
X138517292Y-102702420D01*
X138335632Y-102759698D01*
X138259121Y-102833752D01*
X138228025Y-102893486D01*
X138211249Y-102998635D01*
%TO.C,D7*%
X171825960Y-113655371D02*
X170982569Y-113118071D01*
X171110497Y-112917264D01*
X171227416Y-112822365D01*
X171358910Y-112793213D01*
X171464819Y-112804223D01*
X171651051Y-112866405D01*
X171771535Y-112943162D01*
X171906596Y-113085666D01*
X171961333Y-113176999D01*
X171990485Y-113308493D01*
X171953889Y-113454563D01*
X171825960Y-113655371D01*
X171468697Y-112355003D02*
X171826897Y-111792742D01*
X172440017Y-112691495D01*
%TO.C,D6*%
X128386373Y-115757305D02*
X127542982Y-116294604D01*
X127415053Y-116093797D01*
X127378457Y-115947727D01*
X127407609Y-115816232D01*
X127462346Y-115724899D01*
X127597407Y-115582395D01*
X127717891Y-115505638D01*
X127904123Y-115443457D01*
X128010032Y-115432447D01*
X128141526Y-115461598D01*
X128258445Y-115556497D01*
X128386373Y-115757305D01*
X126775411Y-115089759D02*
X126877753Y-115250405D01*
X126969086Y-115305143D01*
X127034834Y-115319718D01*
X127206489Y-115323284D01*
X127392721Y-115261103D01*
X127714013Y-115056417D01*
X127768750Y-114965085D01*
X127783326Y-114899337D01*
X127772316Y-114793429D01*
X127669974Y-114632783D01*
X127578641Y-114578045D01*
X127512893Y-114563470D01*
X127406985Y-114574479D01*
X127206177Y-114702408D01*
X127151440Y-114793741D01*
X127136864Y-114859488D01*
X127147874Y-114965397D01*
X127250217Y-115126043D01*
X127341550Y-115180780D01*
X127407297Y-115195356D01*
X127513206Y-115184346D01*
D11*
%TO.C,U7*%
X162335783Y-108848705D02*
X164758224Y-109612498D01*
X164758224Y-109612498D02*
X164376328Y-110823718D01*
X164376328Y-110823718D02*
X161953887Y-110059925D01*
X161953887Y-110059925D02*
X162335783Y-108848705D01*
X162717679Y-107637484D02*
X167562562Y-109165070D01*
X167562562Y-109165070D02*
X166798769Y-111587511D01*
X166798769Y-111587511D02*
X161953886Y-110059925D01*
X161953886Y-110059925D02*
X162717679Y-107637484D01*
%TO.C,D2*%
X135700000Y-96556000D02*
X135856000Y-96556000D01*
X133384000Y-96556000D02*
X133540000Y-96556000D01*
X133540163Y-93954870D02*
G75*
G03*
X133540000Y-96036961I1079837J-1041130D01*
G01*
X135700000Y-96036961D02*
G75*
G03*
X135699837Y-93954870I-1080000J1040961D01*
G01*
X135855516Y-96556000D02*
G75*
G03*
X135698608Y-93323665I-1235516J1560000D01*
G01*
X133541392Y-93323665D02*
G75*
G03*
X133384484Y-96556000I1078608J-1672335D01*
G01*
%TO.C,J1*%
X154050000Y-108427929D02*
X154050000Y-108825000D01*
X153290000Y-117485000D02*
X153290000Y-111485000D01*
X156210000Y-106115000D02*
X157480000Y-106115000D01*
X156410000Y-111485000D02*
X156410000Y-117485000D01*
X148970000Y-111485000D02*
X148970000Y-117485000D01*
X150750000Y-117485000D02*
X150750000Y-111485000D01*
X156590000Y-117485000D02*
X155830000Y-117485000D01*
X147260000Y-111485000D02*
X157540000Y-111485000D01*
X150750000Y-108427929D02*
X150750000Y-108825000D01*
X148970000Y-117485000D02*
X148210000Y-117485000D01*
X155830000Y-117485000D02*
X155830000Y-111485000D01*
X154940000Y-108825000D02*
X154940000Y-111485000D01*
X156590000Y-111485000D02*
X156590000Y-117485000D01*
X154050000Y-117485000D02*
X153290000Y-117485000D01*
X151510000Y-117485000D02*
X150750000Y-117485000D01*
X156290000Y-111485000D02*
X156290000Y-117485000D01*
X154050000Y-111485000D02*
X154050000Y-117485000D01*
X155830000Y-108495000D02*
X155830000Y-108825000D01*
X149860000Y-108825000D02*
X149860000Y-111485000D01*
X157540000Y-108825000D02*
X147260000Y-108825000D01*
X152400000Y-108825000D02*
X152400000Y-111485000D01*
X156050000Y-111485000D02*
X156050000Y-117485000D01*
X151510000Y-108427929D02*
X151510000Y-108825000D01*
X148970000Y-108427929D02*
X148970000Y-108825000D01*
X157480000Y-106115000D02*
X157480000Y-107385000D01*
X156530000Y-111485000D02*
X156530000Y-117485000D01*
X147260000Y-108825000D02*
X147260000Y-111485000D01*
X153290000Y-108427929D02*
X153290000Y-108825000D01*
X155930000Y-111485000D02*
X155930000Y-117485000D01*
X157540000Y-111485000D02*
X157540000Y-108825000D01*
X148210000Y-108427929D02*
X148210000Y-108825000D01*
X148210000Y-117485000D02*
X148210000Y-111485000D01*
X156590000Y-108495000D02*
X156590000Y-108825000D01*
X156170000Y-111485000D02*
X156170000Y-117485000D01*
X151510000Y-111485000D02*
X151510000Y-117485000D01*
%TO.C,D1*%
X117920000Y-96561000D02*
X118076000Y-96561000D01*
X115604000Y-96561000D02*
X115760000Y-96561000D01*
X118075516Y-96561000D02*
G75*
G03*
X117918608Y-93328665I-1235516J1560000D01*
G01*
X117920000Y-96041961D02*
G75*
G03*
X117919837Y-93959870I-1080000J1040961D01*
G01*
X115761392Y-93328665D02*
G75*
G03*
X115604484Y-96561000I1078608J-1672335D01*
G01*
X115760163Y-93959870D02*
G75*
G03*
X115760000Y-96041961I1079837J-1041130D01*
G01*
%TO.C,U3*%
X157480000Y-94994000D02*
X160020000Y-94994000D01*
X160020000Y-94994000D02*
X160020000Y-96264000D01*
X160020000Y-96264000D02*
X157480000Y-96264000D01*
X157480000Y-96264000D02*
X157480000Y-94994000D01*
X157480000Y-93724000D02*
X162560000Y-93724000D01*
X162560000Y-93724000D02*
X162560000Y-96264000D01*
X162560000Y-96264000D02*
X157480000Y-96264000D01*
X157480000Y-96264000D02*
X157480000Y-93724000D01*
%TO.C,D5*%
X153480000Y-96561000D02*
X153636000Y-96561000D01*
X151164000Y-96561000D02*
X151320000Y-96561000D01*
X151320163Y-93959870D02*
G75*
G03*
X151320000Y-96041961I1079837J-1041130D01*
G01*
X151321392Y-93328665D02*
G75*
G03*
X151164484Y-96561000I1078608J-1672335D01*
G01*
X153635516Y-96561000D02*
G75*
G03*
X153478608Y-93328665I-1235516J1560000D01*
G01*
X153480000Y-96041961D02*
G75*
G03*
X153479837Y-93959870I-1080000J1040961D01*
G01*
%TO.C,U1*%
X124460000Y-93724000D02*
X129540000Y-93724000D01*
X129540000Y-93724000D02*
X129540000Y-96264000D01*
X129540000Y-96264000D02*
X124460000Y-96264000D01*
X124460000Y-96264000D02*
X124460000Y-93724000D01*
X124460000Y-94994000D02*
X127000000Y-94994000D01*
X127000000Y-94994000D02*
X127000000Y-96264000D01*
X127000000Y-96264000D02*
X124460000Y-96264000D01*
X124460000Y-96264000D02*
X124460000Y-94994000D01*
%TO.C,U4*%
X175260000Y-94994000D02*
X177800000Y-94994000D01*
X177800000Y-94994000D02*
X177800000Y-96264000D01*
X177800000Y-96264000D02*
X175260000Y-96264000D01*
X175260000Y-96264000D02*
X175260000Y-94994000D01*
X175260000Y-93724000D02*
X180340000Y-93724000D01*
X180340000Y-93724000D02*
X180340000Y-96264000D01*
X180340000Y-96264000D02*
X175260000Y-96264000D01*
X175260000Y-96264000D02*
X175260000Y-93724000D01*
%TO.C,U6*%
X137232511Y-109133058D02*
X142077394Y-107605472D01*
X142077394Y-107605472D02*
X142841186Y-110027913D01*
X142841186Y-110027913D02*
X137996304Y-111555499D01*
X137996304Y-111555499D02*
X137232511Y-109133058D01*
X137614408Y-110344278D02*
X140036849Y-109580486D01*
X140036849Y-109580486D02*
X140418745Y-110791706D01*
X140418745Y-110791706D02*
X137996304Y-111555499D01*
X137996304Y-111555499D02*
X137614408Y-110344278D01*
%TO.C,D7*%
X172456824Y-115031799D02*
X172588393Y-115115618D01*
X174410119Y-116276185D02*
X174541688Y-116360004D01*
X174326300Y-112390241D02*
G75*
G03*
X172457232Y-115032059I11144J-1989970D01*
G01*
X173986117Y-112921935D02*
G75*
G03*
X172867273Y-114677865I351327J-1458276D01*
G01*
X174541280Y-116359744D02*
G75*
G03*
X176145677Y-113549313I-203836J1979533D01*
G01*
X174688998Y-115838432D02*
G75*
G03*
X175807568Y-114082327I-351554J1458221D01*
G01*
%TO.C,D4*%
X189040000Y-96561000D02*
X189196000Y-96561000D01*
X186724000Y-96561000D02*
X186880000Y-96561000D01*
X186880163Y-93959870D02*
G75*
G03*
X186880000Y-96041961I1079837J-1041130D01*
G01*
X186881392Y-93328665D02*
G75*
G03*
X186724484Y-96561000I1078608J-1672335D01*
G01*
X189195516Y-96561000D02*
G75*
G03*
X189038608Y-93328665I-1235516J1560000D01*
G01*
X189040000Y-96041961D02*
G75*
G03*
X189039837Y-93959870I-1080000J1040961D01*
G01*
%TO.C,U5*%
X149860000Y-101598000D02*
X152400000Y-101598000D01*
X152400000Y-101598000D02*
X152400000Y-102868000D01*
X152400000Y-102868000D02*
X149860000Y-102868000D01*
X149860000Y-102868000D02*
X149860000Y-101598000D01*
X149860000Y-100328000D02*
X154940000Y-100328000D01*
X154940000Y-100328000D02*
X154940000Y-102868000D01*
X154940000Y-102868000D02*
X149860000Y-102868000D01*
X149860000Y-102868000D02*
X149860000Y-100328000D01*
%TO.C,U2*%
X142240000Y-94994000D02*
X144780000Y-94994000D01*
X144780000Y-94994000D02*
X144780000Y-96264000D01*
X144780000Y-96264000D02*
X142240000Y-96264000D01*
X142240000Y-96264000D02*
X142240000Y-94994000D01*
X142240000Y-93724000D02*
X147320000Y-93724000D01*
X147320000Y-93724000D02*
X147320000Y-96264000D01*
X147320000Y-96264000D02*
X142240000Y-96264000D01*
X142240000Y-96264000D02*
X142240000Y-93724000D01*
%TO.C,D6*%
X129900455Y-115767252D02*
X130032024Y-115683433D01*
X131853750Y-114522866D02*
X131985319Y-114439047D01*
X128296466Y-112956561D02*
G75*
G03*
X129900863Y-115766992I1808233J-830898D01*
G01*
X131574870Y-114085113D02*
G75*
G03*
X130456026Y-112329183I-1470171J297654D01*
G01*
X131984910Y-114439307D02*
G75*
G03*
X130115843Y-111797490I-1880211J651848D01*
G01*
X128634575Y-113489575D02*
G75*
G03*
X129753145Y-115245680I1470124J-297884D01*
G01*
%TO.C,D3*%
X171260000Y-96561000D02*
X171416000Y-96561000D01*
X168944000Y-96561000D02*
X169100000Y-96561000D01*
X169100163Y-93959870D02*
G75*
G03*
X169100000Y-96041961I1079837J-1041130D01*
G01*
X171260000Y-96041961D02*
G75*
G03*
X171259837Y-93959870I-1080000J1040961D01*
G01*
X169101392Y-93328665D02*
G75*
G03*
X168944484Y-96561000I1078608J-1672335D01*
G01*
X171415516Y-96561000D02*
G75*
G03*
X171258608Y-93328665I-1235516J1560000D01*
G01*
%TD*%
M02*
