%TF.GenerationSoftware,KiCad,Pcbnew,(6.0.5)*%
%TF.CreationDate,2022-10-18T17:21:12+09:00*%
%TF.ProjectId,line_sensor_front,6c696e65-5f73-4656-9e73-6f725f66726f,rev?*%
%TF.SameCoordinates,Original*%
%TF.FileFunction,Soldermask,Bot*%
%TF.FilePolarity,Negative*%
%FSLAX46Y46*%
G04 Gerber Fmt 4.6, Leading zero omitted, Abs format (unit mm)*
G04 Created by KiCad (PCBNEW (6.0.5)) date 2022-10-18 17:21:12*
%MOMM*%
%LPD*%
G01*
G04 APERTURE LIST*
G04 Aperture macros list*
%AMRoundRect*
0 Rectangle with rounded corners*
0 $1 Rounding radius*
0 $2 $3 $4 $5 $6 $7 $8 $9 X,Y pos of 4 corners*
0 Add a 4 corners polygon primitive as box body*
4,1,4,$2,$3,$4,$5,$6,$7,$8,$9,$2,$3,0*
0 Add four circle primitives for the rounded corners*
1,1,$1+$1,$2,$3*
1,1,$1+$1,$4,$5*
1,1,$1+$1,$6,$7*
1,1,$1+$1,$8,$9*
0 Add four rect primitives between the rounded corners*
20,1,$1+$1,$2,$3,$4,$5,0*
20,1,$1+$1,$4,$5,$6,$7,0*
20,1,$1+$1,$6,$7,$8,$9,0*
20,1,$1+$1,$8,$9,$2,$3,0*%
%AMRotRect*
0 Rectangle, with rotation*
0 The origin of the aperture is its center*
0 $1 length*
0 $2 width*
0 $3 Rotation angle, in degrees counterclockwise*
0 Add horizontal line*
21,1,$1,$2,0,0,$3*%
G04 Aperture macros list end*
%ADD10C,1.524000*%
%ADD11R,1.800000X1.800000*%
%ADD12C,1.800000*%
%ADD13R,1.700000X1.700000*%
%ADD14O,1.700000X1.700000*%
%ADD15RotRect,1.800000X1.800000X57.500000*%
%ADD16RotRect,1.800000X1.800000X122.500000*%
%ADD17RoundRect,0.140000X0.170000X-0.140000X0.170000X0.140000X-0.170000X0.140000X-0.170000X-0.140000X0*%
%ADD18RoundRect,0.140000X-0.140000X-0.170000X0.140000X-0.170000X0.140000X0.170000X-0.140000X0.170000X0*%
G04 APERTURE END LIST*
D10*
%TO.C,U7*%
X166798769Y-111587511D03*
X167562562Y-109165070D03*
X162717679Y-107637484D03*
X161953887Y-110059925D03*
%TD*%
D11*
%TO.C,D2*%
X134620000Y-96266000D03*
D12*
X134620000Y-93726000D03*
%TD*%
D13*
%TO.C,J1*%
X156210000Y-107385000D03*
D14*
X153670000Y-107385000D03*
X151130000Y-107385000D03*
X148590000Y-107385000D03*
%TD*%
D11*
%TO.C,D1*%
X116840000Y-96271000D03*
D12*
X116840000Y-93731000D03*
%TD*%
D10*
%TO.C,U3*%
X162560000Y-96264000D03*
X162560000Y-93724000D03*
X157480000Y-93724000D03*
X157480000Y-96264000D03*
%TD*%
D11*
%TO.C,D5*%
X152400000Y-96271000D03*
D12*
X152400000Y-93731000D03*
%TD*%
D10*
%TO.C,U1*%
X129540000Y-96264000D03*
X129540000Y-93724000D03*
X124460000Y-93724000D03*
X124460000Y-96264000D03*
%TD*%
%TO.C,U4*%
X180340000Y-96264000D03*
X180340000Y-93724000D03*
X175260000Y-93724000D03*
X175260000Y-96264000D03*
%TD*%
%TO.C,U6*%
X142841186Y-110027913D03*
X142077394Y-107605472D03*
X137232511Y-109133058D03*
X137996304Y-111555499D03*
%TD*%
D15*
%TO.C,D7*%
X173655073Y-115451318D03*
D12*
X175019814Y-113309104D03*
%TD*%
D11*
%TO.C,D4*%
X187960000Y-96271000D03*
D12*
X187960000Y-93731000D03*
%TD*%
D10*
%TO.C,U5*%
X154940000Y-102868000D03*
X154940000Y-100328000D03*
X149860000Y-100328000D03*
X149860000Y-102868000D03*
%TD*%
%TO.C,U2*%
X147320000Y-96264000D03*
X147320000Y-93724000D03*
X142240000Y-93724000D03*
X142240000Y-96264000D03*
%TD*%
D16*
%TO.C,D6*%
X130787070Y-114858566D03*
D12*
X129422329Y-112716352D03*
%TD*%
D11*
%TO.C,D3*%
X170180000Y-96271000D03*
D12*
X170180000Y-93731000D03*
%TD*%
D17*
%TO.C,C1*%
X121920000Y-95476000D03*
X121920000Y-94516000D03*
%TD*%
D18*
%TO.C,C5*%
X151920000Y-98425000D03*
X152880000Y-98425000D03*
%TD*%
%TO.C,C7*%
X168855255Y-111650118D03*
X169815255Y-111650118D03*
%TD*%
D17*
%TO.C,C4*%
X182880000Y-95476000D03*
X182880000Y-94516000D03*
%TD*%
%TO.C,C3*%
X165100000Y-95504000D03*
X165100000Y-94544000D03*
%TD*%
%TO.C,C2*%
X139700000Y-95476000D03*
X139700000Y-94516000D03*
%TD*%
D18*
%TO.C,C6*%
X134868462Y-111752844D03*
X135828462Y-111752844D03*
%TD*%
M02*
