%TF.GenerationSoftware,KiCad,Pcbnew,(6.0.5)*%
%TF.CreationDate,2022-10-18T17:21:12+09:00*%
%TF.ProjectId,line_sensor_front,6c696e65-5f73-4656-9e73-6f725f66726f,rev?*%
%TF.SameCoordinates,Original*%
%TF.FileFunction,Profile,NP*%
%FSLAX46Y46*%
G04 Gerber Fmt 4.6, Leading zero omitted, Abs format (unit mm)*
G04 Created by KiCad (PCBNEW (6.0.5)) date 2022-10-18 17:21:12*
%MOMM*%
%LPD*%
G01*
G04 APERTURE LIST*
%TA.AperFunction,Profile*%
%ADD10C,0.200000*%
%TD*%
%TA.AperFunction,Profile*%
%ADD11C,0.100050*%
%TD*%
G04 APERTURE END LIST*
D10*
X125274913Y-120129906D02*
G75*
G03*
X127606102Y-121287783I1395087J-116894D01*
G01*
X146602083Y-104167712D02*
G75*
G03*
X148346772Y-102184136I-255283J1983612D01*
G01*
X195346773Y-90799584D02*
X109354167Y-90799584D01*
X111596771Y-94799584D02*
G75*
G03*
X111596771Y-94799584I-1750000J0D01*
G01*
X122336699Y-115267508D02*
G75*
G03*
X123500268Y-118234050I1133701J-1266792D01*
G01*
X156346772Y-102184136D02*
X156346772Y-101799584D01*
X115346771Y-98799585D02*
X146346772Y-98799585D01*
X195346773Y-98799573D02*
G75*
G03*
X197346773Y-96799584I27J1999973D01*
G01*
X125274910Y-120129905D02*
G75*
G03*
X123500268Y-118234050I-1743910J146105D01*
G01*
X158346772Y-98799585D02*
X189108902Y-98799584D01*
X107368980Y-96829015D02*
G75*
G03*
X109376393Y-98821620I2000020J7415D01*
G01*
X146602090Y-104167761D02*
G75*
G03*
X122336733Y-115267546I5744710J-44631839D01*
G01*
D11*
X152396797Y-148799585D02*
G75*
G03*
X152396797Y-148799585I-50025J0D01*
G01*
D10*
X189108902Y-98799584D02*
X195346773Y-98799584D01*
X197346816Y-92799584D02*
G75*
G03*
X195346773Y-90799584I-2000016J-16D01*
G01*
X177083704Y-121284374D02*
G75*
G03*
X179415549Y-120135925I935996J1041074D01*
G01*
X148346772Y-100799585D02*
X148346772Y-102184136D01*
X196596773Y-94799584D02*
G75*
G03*
X196596773Y-94799584I-1750000J0D01*
G01*
X177083679Y-121284403D02*
G75*
G03*
X127606102Y-121287783I-24736909J-27515177D01*
G01*
X109354167Y-90799566D02*
G75*
G03*
X107354180Y-92806966I33J-2000034D01*
G01*
X181202633Y-118252227D02*
G75*
G03*
X182378183Y-115286686I40967J1699527D01*
G01*
X156346772Y-101799584D02*
X156346772Y-100799585D01*
X148346815Y-100799585D02*
G75*
G03*
X146346772Y-98799585I-2000015J-15D01*
G01*
X182378196Y-115286672D02*
G75*
G03*
X158091453Y-104167772I-30031396J-33512928D01*
G01*
X156346761Y-102184136D02*
G75*
G03*
X158091453Y-104167772I2000039J36D01*
G01*
X158346772Y-98799572D02*
G75*
G03*
X156346772Y-100799585I28J-2000028D01*
G01*
X107354180Y-92806966D02*
X107369025Y-96829015D01*
X197346773Y-96799584D02*
X197346773Y-92799584D01*
X109376393Y-98821620D02*
X115346771Y-98799585D01*
X181202631Y-118252306D02*
G75*
G03*
X179415549Y-120135925I-42331J-1749394D01*
G01*
M02*
