M48
; DRILL file {KiCad (6.0.4)} date Tue Jul 19 16:26:22 2022
; FORMAT={3:3/ absolute / metric / keep zeros}
; #@! TF.CreationDate,2022-07-19T16:26:22+09:00
; #@! TF.GenerationSoftware,Kicad,Pcbnew,(6.0.4)
; #@! TF.FileFunction,Plated,1,2,PTH
FMAT,2
METRIC
; #@! TA.AperFunction,Plated,PTH,ComponentDrill
T1C0.950
; #@! TA.AperFunction,Plated,PTH,ComponentDrill
T2C1.000
; #@! TA.AperFunction,Plated,PTH,ComponentDrill
T3C1.100
%
G90
G05
T1
X124286Y-113013
X126786Y-113013
X129286Y-113013
X131786Y-113013
X134286Y-113013
T2
X145308Y-113267
X147808Y-113267
T3
X121008Y-131390
X121008Y-135890
X127508Y-131390
X127508Y-135890
X133708Y-131390
X133708Y-135890
X140208Y-131390
X140208Y-135890
X146408Y-131390
X146408Y-135890
X152908Y-131390
X152908Y-135890
T2
G00X165370Y-121508
M15
G01X167370Y-121508
M16
G05
G00X165370Y-127508
M15
G01X167370Y-127508
M16
G05
T0
M30
