M48
; DRILL file {KiCad (6.0.5)} date Sun Jul  3 21:23:42 2022
; FORMAT={-:-/ absolute / metric / decimal}
; #@! TF.CreationDate,2022-07-03T21:23:42+09:00
; #@! TF.GenerationSoftware,Kicad,Pcbnew,(6.0.5)
; #@! TF.FileFunction,Plated,1,2,PTH
FMAT,2
METRIC
; #@! TA.AperFunction,Plated,PTH,ViaDrill
T1C0.400
; #@! TA.AperFunction,Plated,PTH,ComponentDrill
T2C0.500
; #@! TA.AperFunction,Plated,PTH,ComponentDrill
T3C0.700
; #@! TA.AperFunction,Plated,PTH,ComponentDrill
T4C0.800
; #@! TA.AperFunction,Plated,PTH,ComponentDrill
T5C1.000
; #@! TA.AperFunction,Plated,PTH,ComponentDrill
T6C1.090
; #@! TA.AperFunction,Plated,PTH,ComponentDrill
T7C1.400
; #@! TA.AperFunction,Plated,PTH,ComponentDrill
T8C1.700
%
G90
G05
T1
X143.51Y-95.758
X143.51Y-111.506
X146.558Y-97.79
X155.194Y-95.25
T3
X128.27Y-112.014
X133.35Y-112.014
X143.764Y-106.68
X143.764Y-108.966
X148.844Y-106.68
X148.844Y-108.966
T4
X130.088Y-108.966
X132.588Y-108.966
X136.946Y-106.172
X137.2Y-89.916
X139.446Y-106.172
X139.7Y-89.916
X157.226Y-104.902
X157.734Y-92.456
X157.774Y-98.298
X159.766Y-104.902
X160.234Y-92.456
X160.274Y-98.298
X162.306Y-104.902
X166.303Y-110.607
X168.469Y-109.357
T5
X165.025Y-96.436
X167.19Y-95.186
X168.2Y-101.77
X170.365Y-100.52
X171.375Y-107.104
X173.54Y-105.854
T6
X135.89Y-94.996
X135.89Y-97.536
X135.89Y-100.076
T7
X120.324Y-98.734
X127.508Y-105.918
T8
X128.27Y-89.916
X131.07Y-92.716
T2
G00X123.425Y-94.354
M15
G01X122.294Y-95.485
M16
G05
G00X126.042Y-96.97
M15
G01X124.91Y-98.102
M16
G05
G00X129.082Y-100.011
M15
G01X127.951Y-101.142
M16
G05
G00X131.699Y-102.627
M15
G01X130.567Y-103.759
M16
G05
T5
G00X158.734Y-118.364
M15
G01X156.734Y-118.364
M16
G05
G00X158.734Y-124.364
M15
G01X156.734Y-124.364
M16
G05
T0
M30
