G04 #@! TF.GenerationSoftware,KiCad,Pcbnew,(6.0.5)*
G04 #@! TF.CreationDate,2022-07-03T21:23:33+09:00*
G04 #@! TF.ProjectId,psu_board,7073755f-626f-4617-9264-2e6b69636164,rev?*
G04 #@! TF.SameCoordinates,Original*
G04 #@! TF.FileFunction,Legend,Top*
G04 #@! TF.FilePolarity,Positive*
%FSLAX46Y46*%
G04 Gerber Fmt 4.6, Leading zero omitted, Abs format (unit mm)*
G04 Created by KiCad (PCBNEW (6.0.5)) date 2022-07-03 21:23:33*
%MOMM*%
%LPD*%
G01*
G04 APERTURE LIST*
%ADD10C,0.150000*%
%ADD11C,0.254000*%
%ADD12C,0.120000*%
%ADD13C,0.200000*%
%ADD14C,0.100000*%
G04 APERTURE END LIST*
D10*
X124487397Y-102036565D02*
X124723099Y-102272268D01*
X125093489Y-101901878D02*
X124386382Y-102608985D01*
X124049664Y-102272268D01*
X124117008Y-100925398D02*
X124521069Y-101329459D01*
X124319038Y-101127428D02*
X123611932Y-101834535D01*
X123780290Y-101800863D01*
X123914977Y-101800863D01*
X124015993Y-101834535D01*
X122657583Y-104628035D02*
X121950477Y-105335142D01*
X121782118Y-105166783D01*
X121714774Y-105032096D01*
X121714774Y-104897409D01*
X121748446Y-104796394D01*
X121849461Y-104628035D01*
X121950477Y-104527020D01*
X122118835Y-104426005D01*
X122219851Y-104392333D01*
X122354538Y-104392333D01*
X122489225Y-104459676D01*
X122657583Y-104628035D01*
X121580087Y-103550539D02*
X121984148Y-103954600D01*
X121782118Y-103752569D02*
X121075011Y-104459676D01*
X121243370Y-104426005D01*
X121378057Y-104426005D01*
X121479072Y-104459676D01*
X126316020Y-107480368D02*
X125608913Y-108187475D01*
X125911959Y-107076307D02*
X125810944Y-107783414D01*
X125204852Y-107783414D02*
X126012974Y-107783414D01*
X146137333Y-107132380D02*
X145804000Y-106656190D01*
X145565904Y-107132380D02*
X145565904Y-106132380D01*
X145946857Y-106132380D01*
X146042095Y-106180000D01*
X146089714Y-106227619D01*
X146137333Y-106322857D01*
X146137333Y-106465714D01*
X146089714Y-106560952D01*
X146042095Y-106608571D01*
X145946857Y-106656190D01*
X145565904Y-106656190D01*
X146518285Y-106227619D02*
X146565904Y-106180000D01*
X146661142Y-106132380D01*
X146899238Y-106132380D01*
X146994476Y-106180000D01*
X147042095Y-106227619D01*
X147089714Y-106322857D01*
X147089714Y-106418095D01*
X147042095Y-106560952D01*
X146470666Y-107132380D01*
X147089714Y-107132380D01*
X158817333Y-89063142D02*
X158769714Y-89110761D01*
X158626857Y-89158380D01*
X158531619Y-89158380D01*
X158388761Y-89110761D01*
X158293523Y-89015523D01*
X158245904Y-88920285D01*
X158198285Y-88729809D01*
X158198285Y-88586952D01*
X158245904Y-88396476D01*
X158293523Y-88301238D01*
X158388761Y-88206000D01*
X158531619Y-88158380D01*
X158626857Y-88158380D01*
X158769714Y-88206000D01*
X158817333Y-88253619D01*
X159722095Y-88158380D02*
X159245904Y-88158380D01*
X159198285Y-88634571D01*
X159245904Y-88586952D01*
X159341142Y-88539333D01*
X159579238Y-88539333D01*
X159674476Y-88586952D01*
X159722095Y-88634571D01*
X159769714Y-88729809D01*
X159769714Y-88967904D01*
X159722095Y-89063142D01*
X159674476Y-89110761D01*
X159579238Y-89158380D01*
X159341142Y-89158380D01*
X159245904Y-89110761D01*
X159198285Y-89063142D01*
X163770016Y-92429361D02*
X164127159Y-93047951D01*
X164157348Y-93195478D01*
X164122488Y-93325576D01*
X164022580Y-93438244D01*
X163940101Y-93485863D01*
X165136041Y-92795387D02*
X164641170Y-93081101D01*
X164888605Y-92938244D02*
X164388605Y-92072218D01*
X164377555Y-92243555D01*
X164342696Y-92373653D01*
X164284027Y-92462511D01*
X130643333Y-112466380D02*
X130310000Y-111990190D01*
X130071904Y-112466380D02*
X130071904Y-111466380D01*
X130452857Y-111466380D01*
X130548095Y-111514000D01*
X130595714Y-111561619D01*
X130643333Y-111656857D01*
X130643333Y-111799714D01*
X130595714Y-111894952D01*
X130548095Y-111942571D01*
X130452857Y-111990190D01*
X130071904Y-111990190D01*
X130976666Y-111466380D02*
X131595714Y-111466380D01*
X131262380Y-111847333D01*
X131405238Y-111847333D01*
X131500476Y-111894952D01*
X131548095Y-111942571D01*
X131595714Y-112037809D01*
X131595714Y-112275904D01*
X131548095Y-112371142D01*
X131500476Y-112418761D01*
X131405238Y-112466380D01*
X131119523Y-112466380D01*
X131024285Y-112418761D01*
X130976666Y-112371142D01*
X164138761Y-119697333D02*
X164186380Y-119554476D01*
X164186380Y-119316380D01*
X164138761Y-119221142D01*
X164091142Y-119173523D01*
X163995904Y-119125904D01*
X163900666Y-119125904D01*
X163805428Y-119173523D01*
X163757809Y-119221142D01*
X163710190Y-119316380D01*
X163662571Y-119506857D01*
X163614952Y-119602095D01*
X163567333Y-119649714D01*
X163472095Y-119697333D01*
X163376857Y-119697333D01*
X163281619Y-119649714D01*
X163234000Y-119602095D01*
X163186380Y-119506857D01*
X163186380Y-119268761D01*
X163234000Y-119125904D01*
X163186380Y-118792571D02*
X164186380Y-118554476D01*
X163472095Y-118364000D01*
X164186380Y-118173523D01*
X163186380Y-117935428D01*
X163281619Y-117602095D02*
X163234000Y-117554476D01*
X163186380Y-117459238D01*
X163186380Y-117221142D01*
X163234000Y-117125904D01*
X163281619Y-117078285D01*
X163376857Y-117030666D01*
X163472095Y-117030666D01*
X163614952Y-117078285D01*
X164186380Y-117649714D01*
X164186380Y-117030666D01*
X157114952Y-111816380D02*
X157305428Y-111816380D01*
X157400666Y-111864000D01*
X157495904Y-111959238D01*
X157543523Y-112149714D01*
X157543523Y-112483047D01*
X157495904Y-112673523D01*
X157400666Y-112768761D01*
X157305428Y-112816380D01*
X157114952Y-112816380D01*
X157019714Y-112768761D01*
X156924476Y-112673523D01*
X156876857Y-112483047D01*
X156876857Y-112149714D01*
X156924476Y-111959238D01*
X157019714Y-111864000D01*
X157114952Y-111816380D01*
X157972095Y-112816380D02*
X157972095Y-111816380D01*
X158543523Y-112816380D01*
X158543523Y-111816380D01*
X146137333Y-109418380D02*
X145804000Y-108942190D01*
X145565904Y-109418380D02*
X145565904Y-108418380D01*
X145946857Y-108418380D01*
X146042095Y-108466000D01*
X146089714Y-108513619D01*
X146137333Y-108608857D01*
X146137333Y-108751714D01*
X146089714Y-108846952D01*
X146042095Y-108894571D01*
X145946857Y-108942190D01*
X145565904Y-108942190D01*
X147089714Y-109418380D02*
X146518285Y-109418380D01*
X146804000Y-109418380D02*
X146804000Y-108418380D01*
X146708761Y-108561238D01*
X146613523Y-108656476D01*
X146518285Y-108704095D01*
X133639971Y-88457339D02*
X133572627Y-88322652D01*
X133572627Y-88255309D01*
X133606299Y-88154293D01*
X133707314Y-88053278D01*
X133808330Y-88019606D01*
X133875673Y-88019606D01*
X133976688Y-88053278D01*
X134246062Y-88322652D01*
X133538956Y-89029759D01*
X133303253Y-88794057D01*
X133269582Y-88693041D01*
X133269582Y-88625698D01*
X133303253Y-88524683D01*
X133370597Y-88457339D01*
X133471612Y-88423667D01*
X133538956Y-88423667D01*
X133639971Y-88457339D01*
X133875673Y-88693041D01*
X132932864Y-88423667D02*
X132528803Y-88019606D01*
X133437940Y-87514530D02*
X132730833Y-88221637D01*
X132629818Y-86706408D02*
X133033879Y-87110469D01*
X132831849Y-86908438D02*
X132124742Y-87615545D01*
X132293101Y-87581873D01*
X132427788Y-87581873D01*
X132528803Y-87615545D01*
X158857333Y-94905142D02*
X158809714Y-94952761D01*
X158666857Y-95000380D01*
X158571619Y-95000380D01*
X158428761Y-94952761D01*
X158333523Y-94857523D01*
X158285904Y-94762285D01*
X158238285Y-94571809D01*
X158238285Y-94428952D01*
X158285904Y-94238476D01*
X158333523Y-94143238D01*
X158428761Y-94048000D01*
X158571619Y-94000380D01*
X158666857Y-94000380D01*
X158809714Y-94048000D01*
X158857333Y-94095619D01*
X159714476Y-94333714D02*
X159714476Y-95000380D01*
X159476380Y-93952761D02*
X159238285Y-94667047D01*
X159857333Y-94667047D01*
X136437904Y-123134380D02*
X136437904Y-122134380D01*
X136771238Y-122848666D01*
X137104571Y-122134380D01*
X137104571Y-123134380D01*
X137580761Y-122610571D02*
X137914095Y-122610571D01*
X138056952Y-123134380D02*
X137580761Y-123134380D01*
X137580761Y-122134380D01*
X138056952Y-122134380D01*
X138437904Y-123086761D02*
X138580761Y-123134380D01*
X138818857Y-123134380D01*
X138914095Y-123086761D01*
X138961714Y-123039142D01*
X139009333Y-122943904D01*
X139009333Y-122848666D01*
X138961714Y-122753428D01*
X138914095Y-122705809D01*
X138818857Y-122658190D01*
X138628380Y-122610571D01*
X138533142Y-122562952D01*
X138485523Y-122515333D01*
X138437904Y-122420095D01*
X138437904Y-122324857D01*
X138485523Y-122229619D01*
X138533142Y-122182000D01*
X138628380Y-122134380D01*
X138866476Y-122134380D01*
X139009333Y-122182000D01*
X139961714Y-123134380D02*
X139390285Y-123134380D01*
X139676000Y-123134380D02*
X139676000Y-122134380D01*
X139580761Y-122277238D01*
X139485523Y-122372476D01*
X139390285Y-122420095D01*
X166945016Y-97763361D02*
X167302159Y-98381951D01*
X167332348Y-98529478D01*
X167297488Y-98659576D01*
X167197580Y-98772244D01*
X167115101Y-98819863D01*
X167363789Y-97631554D02*
X167381218Y-97566505D01*
X167439888Y-97477647D01*
X167646084Y-97358599D01*
X167752372Y-97352220D01*
X167817421Y-97369649D01*
X167906279Y-97428318D01*
X167953898Y-97510797D01*
X167984088Y-97658324D01*
X167774930Y-98438910D01*
X168311041Y-98129387D01*
X138029333Y-102779142D02*
X137981714Y-102826761D01*
X137838857Y-102874380D01*
X137743619Y-102874380D01*
X137600761Y-102826761D01*
X137505523Y-102731523D01*
X137457904Y-102636285D01*
X137410285Y-102445809D01*
X137410285Y-102302952D01*
X137457904Y-102112476D01*
X137505523Y-102017238D01*
X137600761Y-101922000D01*
X137743619Y-101874380D01*
X137838857Y-101874380D01*
X137981714Y-101922000D01*
X138029333Y-101969619D01*
X138410285Y-101969619D02*
X138457904Y-101922000D01*
X138553142Y-101874380D01*
X138791238Y-101874380D01*
X138886476Y-101922000D01*
X138934095Y-101969619D01*
X138981714Y-102064857D01*
X138981714Y-102160095D01*
X138934095Y-102302952D01*
X138362666Y-102874380D01*
X138981714Y-102874380D01*
X131171333Y-111873142D02*
X131123714Y-111920761D01*
X130980857Y-111968380D01*
X130885619Y-111968380D01*
X130742761Y-111920761D01*
X130647523Y-111825523D01*
X130599904Y-111730285D01*
X130552285Y-111539809D01*
X130552285Y-111396952D01*
X130599904Y-111206476D01*
X130647523Y-111111238D01*
X130742761Y-111016000D01*
X130885619Y-110968380D01*
X130980857Y-110968380D01*
X131123714Y-111016000D01*
X131171333Y-111063619D01*
X132028476Y-110968380D02*
X131838000Y-110968380D01*
X131742761Y-111016000D01*
X131695142Y-111063619D01*
X131599904Y-111206476D01*
X131552285Y-111396952D01*
X131552285Y-111777904D01*
X131599904Y-111873142D01*
X131647523Y-111920761D01*
X131742761Y-111968380D01*
X131933238Y-111968380D01*
X132028476Y-111920761D01*
X132076095Y-111873142D01*
X132123714Y-111777904D01*
X132123714Y-111539809D01*
X132076095Y-111444571D01*
X132028476Y-111396952D01*
X131933238Y-111349333D01*
X131742761Y-111349333D01*
X131647523Y-111396952D01*
X131599904Y-111444571D01*
X131552285Y-111539809D01*
X170120016Y-103097361D02*
X170477159Y-103715951D01*
X170507348Y-103863478D01*
X170472488Y-103993576D01*
X170372580Y-104106244D01*
X170290101Y-104153863D01*
X170449930Y-102906885D02*
X170986041Y-102597361D01*
X170887842Y-103093942D01*
X171011560Y-103022514D01*
X171117848Y-103016134D01*
X171182897Y-103033564D01*
X171271756Y-103092233D01*
X171390803Y-103298429D01*
X171397183Y-103404717D01*
X171379753Y-103469766D01*
X171321084Y-103558625D01*
X171073648Y-103701482D01*
X170967360Y-103707862D01*
X170902311Y-103690432D01*
X159170761Y-101694380D02*
X158837428Y-101218190D01*
X158599333Y-101694380D02*
X158599333Y-100694380D01*
X158980285Y-100694380D01*
X159075523Y-100742000D01*
X159123142Y-100789619D01*
X159170761Y-100884857D01*
X159170761Y-101027714D01*
X159123142Y-101122952D01*
X159075523Y-101170571D01*
X158980285Y-101218190D01*
X158599333Y-101218190D01*
X159456476Y-100694380D02*
X159789809Y-101694380D01*
X160123142Y-100694380D01*
X160980285Y-101694380D02*
X160408857Y-101694380D01*
X160694571Y-101694380D02*
X160694571Y-100694380D01*
X160599333Y-100837238D01*
X160504095Y-100932476D01*
X160408857Y-100980095D01*
D11*
X133916666Y-98050047D02*
X134098095Y-98110523D01*
X134400476Y-98110523D01*
X134521428Y-98050047D01*
X134581904Y-97989571D01*
X134642380Y-97868619D01*
X134642380Y-97747666D01*
X134581904Y-97626714D01*
X134521428Y-97566238D01*
X134400476Y-97505761D01*
X134158571Y-97445285D01*
X134037619Y-97384809D01*
X133977142Y-97324333D01*
X133916666Y-97203380D01*
X133916666Y-97082428D01*
X133977142Y-96961476D01*
X134037619Y-96901000D01*
X134158571Y-96840523D01*
X134460952Y-96840523D01*
X134642380Y-96901000D01*
X135065714Y-96840523D02*
X135368095Y-98110523D01*
X135610000Y-97203380D01*
X135851904Y-98110523D01*
X136154285Y-96840523D01*
X137303333Y-98110523D02*
X136577619Y-98110523D01*
X136940476Y-98110523D02*
X136940476Y-96840523D01*
X136819523Y-97021952D01*
X136698571Y-97142904D01*
X136577619Y-97203380D01*
D10*
X146288095Y-97619380D02*
X146288095Y-98428904D01*
X146335714Y-98524142D01*
X146383333Y-98571761D01*
X146478571Y-98619380D01*
X146669047Y-98619380D01*
X146764285Y-98571761D01*
X146811904Y-98524142D01*
X146859523Y-98428904D01*
X146859523Y-97619380D01*
X147859523Y-98619380D02*
X147288095Y-98619380D01*
X147573809Y-98619380D02*
X147573809Y-97619380D01*
X147478571Y-97762238D01*
X147383333Y-97857476D01*
X147288095Y-97905095D01*
X138283333Y-92823142D02*
X138235714Y-92870761D01*
X138092857Y-92918380D01*
X137997619Y-92918380D01*
X137854761Y-92870761D01*
X137759523Y-92775523D01*
X137711904Y-92680285D01*
X137664285Y-92489809D01*
X137664285Y-92346952D01*
X137711904Y-92156476D01*
X137759523Y-92061238D01*
X137854761Y-91966000D01*
X137997619Y-91918380D01*
X138092857Y-91918380D01*
X138235714Y-91966000D01*
X138283333Y-92013619D01*
X138616666Y-91918380D02*
X139235714Y-91918380D01*
X138902380Y-92299333D01*
X139045238Y-92299333D01*
X139140476Y-92346952D01*
X139188095Y-92394571D01*
X139235714Y-92489809D01*
X139235714Y-92727904D01*
X139188095Y-92823142D01*
X139140476Y-92870761D01*
X139045238Y-92918380D01*
X138759523Y-92918380D01*
X138664285Y-92870761D01*
X138616666Y-92823142D01*
X166145234Y-108166263D02*
X166127805Y-108231311D01*
X166027896Y-108343979D01*
X165945418Y-108391598D01*
X165797890Y-108421788D01*
X165667792Y-108386928D01*
X165578934Y-108328259D01*
X165442457Y-108187111D01*
X165371028Y-108063393D01*
X165317029Y-107874627D01*
X165310650Y-107768339D01*
X165345509Y-107638241D01*
X165445418Y-107525573D01*
X165527896Y-107477954D01*
X165675424Y-107447765D01*
X165740472Y-107465194D01*
X167017640Y-107772551D02*
X166522768Y-108058265D01*
X166770204Y-107915408D02*
X166270204Y-107049382D01*
X166259154Y-107220719D01*
X166224294Y-107350817D01*
X166165625Y-107439675D01*
D12*
X119812075Y-95464177D02*
X125200229Y-100852330D01*
X128792331Y-97260228D02*
X123404177Y-91872074D01*
X125200229Y-100852330D02*
X130588382Y-106240484D01*
X134180485Y-102648382D02*
X128792331Y-97260228D01*
X130588382Y-106240484D02*
X134180485Y-102648382D01*
X123404177Y-91872074D02*
X119812075Y-95464177D01*
X124725535Y-105921536D02*
X127511536Y-103135535D01*
X128540376Y-104164375D02*
X122077420Y-97701419D01*
X119291419Y-100487420D02*
X119524764Y-100254075D01*
X125987720Y-106717031D02*
X125754375Y-106950376D01*
X124810388Y-106006388D02*
X127596388Y-103220388D01*
X122077420Y-97701419D02*
X121844075Y-97934764D01*
X125754375Y-106950376D02*
X119291419Y-100487420D01*
X124640682Y-105836683D02*
X127426683Y-103050682D01*
X128307031Y-104397720D02*
X128540376Y-104164375D01*
X148224000Y-107600000D02*
X144384000Y-107600000D01*
X148224000Y-105760000D02*
X144384000Y-105760000D01*
X159785000Y-93496000D02*
X159785000Y-94911000D01*
X160105000Y-93496000D02*
X160105000Y-94785000D01*
X160305000Y-93496000D02*
X160305000Y-94680000D01*
X160785000Y-90592000D02*
X160785000Y-91416000D01*
X160225000Y-93496000D02*
X160225000Y-94724000D01*
X159825000Y-93496000D02*
X159825000Y-94898000D01*
X160985000Y-90803000D02*
X160985000Y-91416000D01*
X160025000Y-90091000D02*
X160025000Y-91416000D01*
X161505000Y-91779000D02*
X161505000Y-93133000D01*
X156429225Y-90731000D02*
X156429225Y-91231000D01*
X159705000Y-89976000D02*
X159705000Y-91416000D01*
X160505000Y-90361000D02*
X160505000Y-91416000D01*
X159785000Y-90001000D02*
X159785000Y-91416000D01*
X160545000Y-90391000D02*
X160545000Y-91416000D01*
X160065000Y-93496000D02*
X160065000Y-94804000D01*
X160705000Y-90519000D02*
X160705000Y-91416000D01*
X159945000Y-90058000D02*
X159945000Y-91416000D01*
X160625000Y-93496000D02*
X160625000Y-94460000D01*
X160785000Y-93496000D02*
X160785000Y-94320000D01*
X160265000Y-93496000D02*
X160265000Y-94703000D01*
X161185000Y-91073000D02*
X161185000Y-91416000D01*
X161025000Y-93496000D02*
X161025000Y-94061000D01*
X159945000Y-93496000D02*
X159945000Y-94854000D01*
X160945000Y-90757000D02*
X160945000Y-91416000D01*
X160665000Y-93496000D02*
X160665000Y-94427000D01*
X160305000Y-90232000D02*
X160305000Y-91416000D01*
X159424000Y-89913000D02*
X159424000Y-91416000D01*
X159664000Y-89965000D02*
X159664000Y-91416000D01*
X160865000Y-90671000D02*
X160865000Y-91416000D01*
X159504000Y-93496000D02*
X159504000Y-94984000D01*
X161065000Y-93496000D02*
X161065000Y-94010000D01*
X161385000Y-91445000D02*
X161385000Y-93467000D01*
X161265000Y-91205000D02*
X161265000Y-91416000D01*
X161465000Y-91651000D02*
X161465000Y-93261000D01*
X160505000Y-93496000D02*
X160505000Y-94551000D01*
X160665000Y-90485000D02*
X160665000Y-91416000D01*
X160145000Y-93496000D02*
X160145000Y-94766000D01*
X159224000Y-93496000D02*
X159224000Y-95025000D01*
X160745000Y-93496000D02*
X160745000Y-94357000D01*
X161105000Y-93496000D02*
X161105000Y-93956000D01*
X161185000Y-93496000D02*
X161185000Y-93839000D01*
X159745000Y-93496000D02*
X159745000Y-94924000D01*
X160985000Y-93496000D02*
X160985000Y-94109000D01*
X159264000Y-89891000D02*
X159264000Y-91416000D01*
X159504000Y-89928000D02*
X159504000Y-91416000D01*
X159745000Y-89988000D02*
X159745000Y-91416000D01*
X160345000Y-93496000D02*
X160345000Y-94656000D01*
X160025000Y-93496000D02*
X160025000Y-94821000D01*
X159825000Y-90014000D02*
X159825000Y-91416000D01*
X159624000Y-89955000D02*
X159624000Y-91416000D01*
X159624000Y-93496000D02*
X159624000Y-94957000D01*
X160585000Y-90421000D02*
X160585000Y-91416000D01*
X160185000Y-90166000D02*
X160185000Y-91416000D01*
X159384000Y-93496000D02*
X159384000Y-95006000D01*
X159344000Y-89900000D02*
X159344000Y-91416000D01*
X159985000Y-90074000D02*
X159985000Y-91416000D01*
X161145000Y-93496000D02*
X161145000Y-93899000D01*
X159304000Y-89895000D02*
X159304000Y-91416000D01*
X160425000Y-93496000D02*
X160425000Y-94605000D01*
X161105000Y-90956000D02*
X161105000Y-91416000D01*
X159464000Y-89920000D02*
X159464000Y-91416000D01*
X161585000Y-92172000D02*
X161585000Y-92740000D01*
X161145000Y-91013000D02*
X161145000Y-91416000D01*
X161345000Y-91358000D02*
X161345000Y-93554000D01*
X161025000Y-90851000D02*
X161025000Y-91416000D01*
X160465000Y-90334000D02*
X160465000Y-91416000D01*
X156179225Y-90981000D02*
X156679225Y-90981000D01*
X160905000Y-93496000D02*
X160905000Y-94199000D01*
X161305000Y-91278000D02*
X161305000Y-93634000D01*
X161225000Y-93496000D02*
X161225000Y-93775000D01*
X160825000Y-93496000D02*
X160825000Y-94282000D01*
X159464000Y-93496000D02*
X159464000Y-94992000D01*
X159584000Y-89945000D02*
X159584000Y-91416000D01*
X160345000Y-90256000D02*
X160345000Y-91416000D01*
X159865000Y-93496000D02*
X159865000Y-94884000D01*
X159705000Y-93496000D02*
X159705000Y-94936000D01*
X159985000Y-93496000D02*
X159985000Y-94838000D01*
X160065000Y-90108000D02*
X160065000Y-91416000D01*
X161265000Y-93496000D02*
X161265000Y-93707000D01*
X159424000Y-93496000D02*
X159424000Y-94999000D01*
X159384000Y-89906000D02*
X159384000Y-91416000D01*
X159905000Y-93496000D02*
X159905000Y-94870000D01*
X159544000Y-89936000D02*
X159544000Y-91416000D01*
X160745000Y-90555000D02*
X160745000Y-91416000D01*
X159224000Y-89887000D02*
X159224000Y-91416000D01*
X159905000Y-90042000D02*
X159905000Y-91416000D01*
X160225000Y-90188000D02*
X160225000Y-91416000D01*
X159264000Y-93496000D02*
X159264000Y-95021000D01*
X159584000Y-93496000D02*
X159584000Y-94967000D01*
X160265000Y-90209000D02*
X160265000Y-91416000D01*
X160185000Y-93496000D02*
X160185000Y-94746000D01*
X159664000Y-93496000D02*
X159664000Y-94947000D01*
X160825000Y-90630000D02*
X160825000Y-91416000D01*
X159544000Y-93496000D02*
X159544000Y-94976000D01*
X160585000Y-93496000D02*
X160585000Y-94491000D01*
X159184000Y-89883000D02*
X159184000Y-95029000D01*
X159304000Y-93496000D02*
X159304000Y-95017000D01*
X160425000Y-90307000D02*
X160425000Y-91416000D01*
X161545000Y-91938000D02*
X161545000Y-92974000D01*
X159865000Y-90028000D02*
X159865000Y-91416000D01*
X159344000Y-93496000D02*
X159344000Y-95012000D01*
X160465000Y-93496000D02*
X160465000Y-94578000D01*
X160705000Y-93496000D02*
X160705000Y-94393000D01*
X161225000Y-91137000D02*
X161225000Y-91416000D01*
X160385000Y-90281000D02*
X160385000Y-91416000D01*
X161065000Y-90902000D02*
X161065000Y-91416000D01*
X159024000Y-89876000D02*
X159024000Y-95036000D01*
X160145000Y-90146000D02*
X160145000Y-91416000D01*
X160945000Y-93496000D02*
X160945000Y-94155000D01*
X160865000Y-93496000D02*
X160865000Y-94241000D01*
X159104000Y-89878000D02*
X159104000Y-95034000D01*
X161425000Y-91541000D02*
X161425000Y-93371000D01*
X160905000Y-90713000D02*
X160905000Y-91416000D01*
X159064000Y-89877000D02*
X159064000Y-95035000D01*
X160545000Y-93496000D02*
X160545000Y-94521000D01*
X160105000Y-90127000D02*
X160105000Y-91416000D01*
X160625000Y-90452000D02*
X160625000Y-91416000D01*
X160385000Y-93496000D02*
X160385000Y-94631000D01*
X158984000Y-89876000D02*
X158984000Y-95036000D01*
X159144000Y-89880000D02*
X159144000Y-95032000D01*
X161604000Y-92456000D02*
G75*
G03*
X161604000Y-92456000I-2620000J0D01*
G01*
X166614552Y-92689575D02*
X166989552Y-93339094D01*
X162264328Y-94854767D02*
X161181797Y-95479767D01*
X168548397Y-92439094D02*
X168173397Y-91789575D01*
X164824488Y-94589094D02*
X165690513Y-94089094D01*
X163150450Y-94689575D02*
X161591604Y-95589575D01*
X165315513Y-93439575D02*
X164449488Y-93939575D01*
X168173397Y-91789575D02*
X166614552Y-92689575D01*
X161577944Y-95585915D02*
X164562944Y-100756086D01*
X170123878Y-96667907D02*
X167482501Y-98192907D01*
X164841123Y-99717907D02*
X167482501Y-98192907D01*
X164562944Y-100756086D02*
X171162058Y-96946086D01*
X163366123Y-97163132D02*
X164841123Y-99717907D01*
X163525450Y-95339094D02*
X163150450Y-94689575D01*
X164449488Y-93939575D02*
X164824488Y-94589094D01*
X168177058Y-91775915D02*
X161577944Y-95585915D01*
X162716604Y-97538132D02*
X163366123Y-97163132D01*
X166989552Y-93339094D02*
X168548397Y-92439094D01*
X161591604Y-95589575D02*
X161966604Y-96239094D01*
X161181797Y-95479767D02*
X161806797Y-96562299D01*
X161966604Y-96239094D02*
X163525450Y-95339094D01*
X168648878Y-94113132D02*
X170123878Y-96667907D01*
X169298397Y-93738132D02*
X168648878Y-94113132D01*
X171162058Y-96946086D02*
X168177058Y-91775915D01*
X165690513Y-94089094D02*
X165315513Y-93439575D01*
X132730000Y-111094000D02*
X128890000Y-111094000D01*
X132730000Y-112934000D02*
X128890000Y-112934000D01*
X153034000Y-110864000D02*
X153034000Y-125864000D01*
X150234000Y-107864000D02*
X150234000Y-128864000D01*
X157734000Y-107864000D02*
X150234000Y-107864000D01*
X157734000Y-110864000D02*
X153034000Y-110864000D01*
X165234000Y-128864000D02*
X165234000Y-107864000D01*
X162434000Y-125864000D02*
X162434000Y-110864000D01*
X153034000Y-125864000D02*
X162434000Y-125864000D01*
X165234000Y-107864000D02*
X157734000Y-107864000D01*
X162434000Y-110864000D02*
X157734000Y-110864000D01*
X150234000Y-128864000D02*
X165234000Y-128864000D01*
X144384000Y-109886000D02*
X148224000Y-109886000D01*
X144384000Y-108046000D02*
X148224000Y-108046000D01*
X126459807Y-87681543D02*
X126671939Y-88317939D01*
X126671939Y-88317939D02*
X126035543Y-88105807D01*
X126035543Y-88105807D02*
X126459807Y-87681543D01*
X133170250Y-91832259D02*
X134018778Y-92680788D01*
X134018778Y-92680788D02*
X129054889Y-97644677D01*
X128305355Y-86967365D02*
X129153883Y-87815893D01*
X134372332Y-90630178D02*
X133170250Y-91832259D01*
X123341466Y-91931254D02*
X128305355Y-86967365D01*
X129153883Y-87815893D02*
X130355965Y-86613811D01*
X129054889Y-97644677D02*
X123341466Y-91931254D01*
X130355965Y-86613811D02*
X134372332Y-90630178D01*
X159865000Y-95856000D02*
X159865000Y-97258000D01*
X160625000Y-99338000D02*
X160625000Y-100333000D01*
X160225000Y-96008000D02*
X160225000Y-97258000D01*
X161025000Y-96645000D02*
X161025000Y-97258000D01*
X160425000Y-99338000D02*
X160425000Y-100473000D01*
X160345000Y-99338000D02*
X160345000Y-100522000D01*
X160705000Y-99338000D02*
X160705000Y-100269000D01*
X160065000Y-95933000D02*
X160065000Y-97258000D01*
X160585000Y-96233000D02*
X160585000Y-97258000D01*
X161065000Y-99338000D02*
X161065000Y-99903000D01*
X159384000Y-95742000D02*
X159384000Y-97258000D01*
X161625000Y-98014000D02*
X161625000Y-98582000D01*
X156219225Y-96823000D02*
X156719225Y-96823000D01*
X160625000Y-96263000D02*
X160625000Y-97258000D01*
X160025000Y-99338000D02*
X160025000Y-100680000D01*
X161105000Y-99338000D02*
X161105000Y-99852000D01*
X160985000Y-99338000D02*
X160985000Y-99997000D01*
X160665000Y-99338000D02*
X160665000Y-100302000D01*
X159985000Y-99338000D02*
X159985000Y-100696000D01*
X160385000Y-96098000D02*
X160385000Y-97258000D01*
X159745000Y-95818000D02*
X159745000Y-97258000D01*
X160825000Y-99338000D02*
X160825000Y-100162000D01*
X160265000Y-99338000D02*
X160265000Y-100566000D01*
X160465000Y-99338000D02*
X160465000Y-100447000D01*
X161265000Y-96979000D02*
X161265000Y-97258000D01*
X159624000Y-99338000D02*
X159624000Y-100809000D01*
X160185000Y-95988000D02*
X160185000Y-97258000D01*
X161105000Y-96744000D02*
X161105000Y-97258000D01*
X159144000Y-95720000D02*
X159144000Y-100876000D01*
X159785000Y-99338000D02*
X159785000Y-100766000D01*
X160585000Y-99338000D02*
X160585000Y-100363000D01*
X159584000Y-99338000D02*
X159584000Y-100818000D01*
X159384000Y-99338000D02*
X159384000Y-100854000D01*
X159664000Y-99338000D02*
X159664000Y-100799000D01*
X159304000Y-95733000D02*
X159304000Y-97258000D01*
X161345000Y-97120000D02*
X161345000Y-99476000D01*
X160065000Y-99338000D02*
X160065000Y-100663000D01*
X159464000Y-95755000D02*
X159464000Y-97258000D01*
X159024000Y-95718000D02*
X159024000Y-100878000D01*
X160185000Y-99338000D02*
X160185000Y-100608000D01*
X160905000Y-96513000D02*
X160905000Y-97258000D01*
X160385000Y-99338000D02*
X160385000Y-100498000D01*
X159544000Y-95770000D02*
X159544000Y-97258000D01*
X160305000Y-99338000D02*
X160305000Y-100545000D01*
X159224000Y-95725000D02*
X159224000Y-100871000D01*
X161025000Y-99338000D02*
X161025000Y-99951000D01*
X159905000Y-95870000D02*
X159905000Y-97258000D01*
X159064000Y-95718000D02*
X159064000Y-100878000D01*
X160425000Y-96123000D02*
X160425000Y-97258000D01*
X160345000Y-96074000D02*
X160345000Y-97258000D01*
X160865000Y-96472000D02*
X160865000Y-97258000D01*
X159704000Y-95807000D02*
X159704000Y-97258000D01*
X160145000Y-99338000D02*
X160145000Y-100627000D01*
X159664000Y-95797000D02*
X159664000Y-97258000D01*
X161145000Y-96798000D02*
X161145000Y-97258000D01*
X161385000Y-97200000D02*
X161385000Y-99396000D01*
X161065000Y-96693000D02*
X161065000Y-97258000D01*
X159424000Y-95748000D02*
X159424000Y-97258000D01*
X161265000Y-99338000D02*
X161265000Y-99617000D01*
X160105000Y-99338000D02*
X160105000Y-100646000D01*
X161505000Y-97493000D02*
X161505000Y-99103000D01*
X160865000Y-99338000D02*
X160865000Y-100124000D01*
X161545000Y-97621000D02*
X161545000Y-98975000D01*
X160225000Y-99338000D02*
X160225000Y-100588000D01*
X156469225Y-96573000D02*
X156469225Y-97073000D01*
X160945000Y-99338000D02*
X160945000Y-100041000D01*
X160705000Y-96327000D02*
X160705000Y-97258000D01*
X160825000Y-96434000D02*
X160825000Y-97258000D01*
X160025000Y-95916000D02*
X160025000Y-97258000D01*
X160905000Y-99338000D02*
X160905000Y-100083000D01*
X159785000Y-95830000D02*
X159785000Y-97258000D01*
X159344000Y-95737000D02*
X159344000Y-97258000D01*
X161425000Y-97287000D02*
X161425000Y-99309000D01*
X159424000Y-99338000D02*
X159424000Y-100848000D01*
X161185000Y-99338000D02*
X161185000Y-99741000D01*
X160145000Y-95969000D02*
X160145000Y-97258000D01*
X160305000Y-96051000D02*
X160305000Y-97258000D01*
X159544000Y-99338000D02*
X159544000Y-100826000D01*
X159464000Y-99338000D02*
X159464000Y-100841000D01*
X159344000Y-99338000D02*
X159344000Y-100859000D01*
X161145000Y-99338000D02*
X161145000Y-99798000D01*
X159264000Y-99338000D02*
X159264000Y-100867000D01*
X159865000Y-99338000D02*
X159865000Y-100740000D01*
X159504000Y-99338000D02*
X159504000Y-100834000D01*
X160545000Y-99338000D02*
X160545000Y-100393000D01*
X159905000Y-99338000D02*
X159905000Y-100726000D01*
X160745000Y-99338000D02*
X160745000Y-100235000D01*
X159584000Y-95778000D02*
X159584000Y-97258000D01*
X160785000Y-99338000D02*
X160785000Y-100199000D01*
X161305000Y-97047000D02*
X161305000Y-97258000D01*
X160985000Y-96599000D02*
X160985000Y-97258000D01*
X160785000Y-96397000D02*
X160785000Y-97258000D01*
X159985000Y-95900000D02*
X159985000Y-97258000D01*
X160105000Y-95950000D02*
X160105000Y-97258000D01*
X159945000Y-99338000D02*
X159945000Y-100712000D01*
X160745000Y-96361000D02*
X160745000Y-97258000D01*
X161185000Y-96855000D02*
X161185000Y-97258000D01*
X160505000Y-96176000D02*
X160505000Y-97258000D01*
X160665000Y-96294000D02*
X160665000Y-97258000D01*
X161225000Y-96915000D02*
X161225000Y-97258000D01*
X160505000Y-99338000D02*
X160505000Y-100420000D01*
X160465000Y-96149000D02*
X160465000Y-97258000D01*
X159264000Y-95729000D02*
X159264000Y-97258000D01*
X160265000Y-96030000D02*
X160265000Y-97258000D01*
X159945000Y-95884000D02*
X159945000Y-97258000D01*
X161465000Y-97383000D02*
X161465000Y-99213000D01*
X160945000Y-96555000D02*
X160945000Y-97258000D01*
X159825000Y-95843000D02*
X159825000Y-97258000D01*
X159184000Y-95722000D02*
X159184000Y-100874000D01*
X161585000Y-97780000D02*
X161585000Y-98816000D01*
X159504000Y-95762000D02*
X159504000Y-97258000D01*
X159624000Y-95787000D02*
X159624000Y-97258000D01*
X159825000Y-99338000D02*
X159825000Y-100753000D01*
X159304000Y-99338000D02*
X159304000Y-100863000D01*
X159104000Y-95719000D02*
X159104000Y-100877000D01*
X160545000Y-96203000D02*
X160545000Y-97258000D01*
X159745000Y-99338000D02*
X159745000Y-100778000D01*
X159704000Y-99338000D02*
X159704000Y-100789000D01*
X161225000Y-99338000D02*
X161225000Y-99681000D01*
X161305000Y-99338000D02*
X161305000Y-99549000D01*
X161644000Y-98298000D02*
G75*
G03*
X161644000Y-98298000I-2620000J0D01*
G01*
X126746000Y-123698000D02*
X126746000Y-113538000D01*
X149606000Y-113538000D02*
X149606000Y-123698000D01*
X126746000Y-113538000D02*
X138176000Y-113538000D01*
X138176000Y-113538000D02*
X149606000Y-113538000D01*
X149606000Y-123698000D02*
X138176000Y-123698000D01*
X138176000Y-123698000D02*
X126746000Y-123698000D01*
X170164552Y-98673094D02*
X171723397Y-97773094D01*
X168490513Y-98773575D02*
X167624488Y-99273575D01*
X172473397Y-99072132D02*
X171823878Y-99447132D01*
X164766604Y-100923575D02*
X165141604Y-101573094D01*
X164752944Y-100919915D02*
X167737944Y-106090086D01*
X174337058Y-102280086D02*
X171352058Y-97109915D01*
X165141604Y-101573094D02*
X166700450Y-100673094D01*
X164356797Y-100813767D02*
X164981797Y-101896299D01*
X169789552Y-98023575D02*
X170164552Y-98673094D01*
X167624488Y-99273575D02*
X167999488Y-99923094D01*
X165439328Y-100188767D02*
X164356797Y-100813767D01*
X171348397Y-97123575D02*
X169789552Y-98023575D01*
X166541123Y-102497132D02*
X168016123Y-105051907D01*
X171823878Y-99447132D02*
X173298878Y-102001907D01*
X167737944Y-106090086D02*
X174337058Y-102280086D01*
X171723397Y-97773094D02*
X171348397Y-97123575D01*
X165891604Y-102872132D02*
X166541123Y-102497132D01*
X167999488Y-99923094D02*
X168865513Y-99423094D01*
X168016123Y-105051907D02*
X170657501Y-103526907D01*
X168865513Y-99423094D02*
X168490513Y-98773575D01*
X171352058Y-97109915D02*
X164752944Y-100919915D01*
X166700450Y-100673094D02*
X166325450Y-100023575D01*
X173298878Y-102001907D02*
X170657501Y-103526907D01*
X166325450Y-100023575D02*
X164766604Y-100923575D01*
X139317000Y-107212000D02*
X139317000Y-108501000D01*
X140037000Y-107212000D02*
X140037000Y-107998000D01*
X135641225Y-104447000D02*
X135641225Y-104947000D01*
X138796000Y-107212000D02*
X138796000Y-108683000D01*
X140637000Y-105257000D02*
X140637000Y-107087000D01*
X135391225Y-104697000D02*
X135891225Y-104697000D01*
X139157000Y-103774000D02*
X139157000Y-105132000D01*
X138876000Y-103681000D02*
X138876000Y-105132000D01*
X138276000Y-103593000D02*
X138276000Y-108751000D01*
X138796000Y-103661000D02*
X138796000Y-105132000D01*
X138356000Y-103596000D02*
X138356000Y-108748000D01*
X139997000Y-104308000D02*
X139997000Y-105132000D01*
X140557000Y-105074000D02*
X140557000Y-107270000D01*
X139837000Y-107212000D02*
X139837000Y-108176000D01*
X139197000Y-107212000D02*
X139197000Y-108554000D01*
X140397000Y-104789000D02*
X140397000Y-105132000D01*
X139717000Y-104077000D02*
X139717000Y-105132000D01*
X139837000Y-104168000D02*
X139837000Y-105132000D01*
X140437000Y-107212000D02*
X140437000Y-107491000D01*
X139157000Y-107212000D02*
X139157000Y-108570000D01*
X139797000Y-107212000D02*
X139797000Y-108207000D01*
X139637000Y-104023000D02*
X139637000Y-105132000D01*
X140277000Y-104618000D02*
X140277000Y-105132000D01*
X139357000Y-107212000D02*
X139357000Y-108482000D01*
X139437000Y-103904000D02*
X139437000Y-105132000D01*
X138836000Y-107212000D02*
X138836000Y-108673000D01*
X139477000Y-107212000D02*
X139477000Y-108419000D01*
X138676000Y-107212000D02*
X138676000Y-108708000D01*
X138316000Y-103594000D02*
X138316000Y-108750000D01*
X140317000Y-107212000D02*
X140317000Y-107672000D01*
X138556000Y-107212000D02*
X138556000Y-108728000D01*
X140077000Y-104387000D02*
X140077000Y-105132000D01*
X140597000Y-105161000D02*
X140597000Y-107183000D01*
X139357000Y-103862000D02*
X139357000Y-105132000D01*
X139757000Y-107212000D02*
X139757000Y-108237000D01*
X140717000Y-105495000D02*
X140717000Y-106849000D01*
X139237000Y-107212000D02*
X139237000Y-108537000D01*
X140157000Y-104473000D02*
X140157000Y-105132000D01*
X138716000Y-107212000D02*
X138716000Y-108700000D01*
X138236000Y-103592000D02*
X138236000Y-108752000D01*
X138516000Y-103611000D02*
X138516000Y-105132000D01*
X138676000Y-103636000D02*
X138676000Y-105132000D01*
X139517000Y-107212000D02*
X139517000Y-108396000D01*
X139877000Y-107212000D02*
X139877000Y-108143000D01*
X140477000Y-107212000D02*
X140477000Y-107423000D01*
X138596000Y-107212000D02*
X138596000Y-108722000D01*
X139637000Y-107212000D02*
X139637000Y-108321000D01*
X140517000Y-104994000D02*
X140517000Y-107350000D01*
X139397000Y-107212000D02*
X139397000Y-108462000D01*
X138876000Y-107212000D02*
X138876000Y-108663000D01*
X138596000Y-103622000D02*
X138596000Y-105132000D01*
X138636000Y-107212000D02*
X138636000Y-108715000D01*
X138476000Y-107212000D02*
X138476000Y-108737000D01*
X140077000Y-107212000D02*
X140077000Y-107957000D01*
X138756000Y-107212000D02*
X138756000Y-108692000D01*
X139317000Y-103843000D02*
X139317000Y-105132000D01*
X139717000Y-107212000D02*
X139717000Y-108267000D01*
X140237000Y-104567000D02*
X140237000Y-105132000D01*
X139677000Y-104050000D02*
X139677000Y-105132000D01*
X140397000Y-107212000D02*
X140397000Y-107555000D01*
X138997000Y-103717000D02*
X138997000Y-105132000D01*
X139277000Y-103824000D02*
X139277000Y-105132000D01*
X138556000Y-103616000D02*
X138556000Y-105132000D01*
X139797000Y-104137000D02*
X139797000Y-105132000D01*
X139037000Y-103730000D02*
X139037000Y-105132000D01*
X139877000Y-104201000D02*
X139877000Y-105132000D01*
X140237000Y-107212000D02*
X140237000Y-107777000D01*
X140277000Y-107212000D02*
X140277000Y-107726000D01*
X139397000Y-103882000D02*
X139397000Y-105132000D01*
X138756000Y-103652000D02*
X138756000Y-105132000D01*
X139557000Y-103972000D02*
X139557000Y-105132000D01*
X138396000Y-103599000D02*
X138396000Y-108745000D01*
X139917000Y-104235000D02*
X139917000Y-105132000D01*
X139557000Y-107212000D02*
X139557000Y-108372000D01*
X138917000Y-107212000D02*
X138917000Y-108652000D01*
X138436000Y-103603000D02*
X138436000Y-105132000D01*
X139517000Y-103948000D02*
X139517000Y-105132000D01*
X138196000Y-103592000D02*
X138196000Y-108752000D01*
X139957000Y-107212000D02*
X139957000Y-108073000D01*
X140437000Y-104853000D02*
X140437000Y-105132000D01*
X140317000Y-104672000D02*
X140317000Y-105132000D01*
X139077000Y-103744000D02*
X139077000Y-105132000D01*
X138476000Y-103607000D02*
X138476000Y-105132000D01*
X140677000Y-105367000D02*
X140677000Y-106977000D01*
X138957000Y-103704000D02*
X138957000Y-105132000D01*
X139597000Y-103997000D02*
X139597000Y-105132000D01*
X138836000Y-103671000D02*
X138836000Y-105132000D01*
X139677000Y-107212000D02*
X139677000Y-108294000D01*
X140197000Y-107212000D02*
X140197000Y-107825000D01*
X140757000Y-105654000D02*
X140757000Y-106690000D01*
X139477000Y-103925000D02*
X139477000Y-105132000D01*
X139957000Y-104271000D02*
X139957000Y-105132000D01*
X139917000Y-107212000D02*
X139917000Y-108109000D01*
X140357000Y-104729000D02*
X140357000Y-105132000D01*
X139197000Y-103790000D02*
X139197000Y-105132000D01*
X138917000Y-103692000D02*
X138917000Y-105132000D01*
X139997000Y-107212000D02*
X139997000Y-108036000D01*
X140157000Y-107212000D02*
X140157000Y-107871000D01*
X139437000Y-107212000D02*
X139437000Y-108440000D01*
X140357000Y-107212000D02*
X140357000Y-107615000D01*
X140797000Y-105888000D02*
X140797000Y-106456000D01*
X138997000Y-107212000D02*
X138997000Y-108627000D01*
X138636000Y-103629000D02*
X138636000Y-105132000D01*
X139277000Y-107212000D02*
X139277000Y-108520000D01*
X139077000Y-107212000D02*
X139077000Y-108600000D01*
X138516000Y-107212000D02*
X138516000Y-108733000D01*
X140477000Y-104921000D02*
X140477000Y-105132000D01*
X139757000Y-104107000D02*
X139757000Y-105132000D01*
X139117000Y-103758000D02*
X139117000Y-105132000D01*
X139237000Y-103807000D02*
X139237000Y-105132000D01*
X138957000Y-107212000D02*
X138957000Y-108640000D01*
X140117000Y-104429000D02*
X140117000Y-105132000D01*
X140037000Y-104346000D02*
X140037000Y-105132000D01*
X139117000Y-107212000D02*
X139117000Y-108586000D01*
X138716000Y-103644000D02*
X138716000Y-105132000D01*
X140117000Y-107212000D02*
X140117000Y-107915000D01*
X139597000Y-107212000D02*
X139597000Y-108347000D01*
X139037000Y-107212000D02*
X139037000Y-108614000D01*
X138436000Y-107212000D02*
X138436000Y-108741000D01*
X140197000Y-104519000D02*
X140197000Y-105132000D01*
X140816000Y-106172000D02*
G75*
G03*
X140816000Y-106172000I-2620000J0D01*
G01*
X133358000Y-110386000D02*
X129318000Y-110386000D01*
X133358000Y-110386000D02*
X133358000Y-109761000D01*
X129318000Y-108171000D02*
X129318000Y-107546000D01*
X133358000Y-108171000D02*
X133358000Y-107546000D01*
X129318000Y-110386000D02*
X129318000Y-109761000D01*
X133358000Y-107546000D02*
X129318000Y-107546000D01*
X171191123Y-110385907D02*
X173832501Y-108860907D01*
X171174488Y-105257094D02*
X172040513Y-104757094D01*
X171665513Y-104107575D02*
X170799488Y-104607575D01*
X169875450Y-106007094D02*
X169500450Y-105357575D01*
X168316604Y-106907094D02*
X169875450Y-106007094D01*
X177512058Y-107614086D02*
X174527058Y-102443915D01*
X167941604Y-106257575D02*
X168316604Y-106907094D01*
X174523397Y-102457575D02*
X172964552Y-103357575D01*
X169066604Y-108206132D02*
X169716123Y-107831132D01*
X167927944Y-106253915D02*
X170912944Y-111424086D01*
X174527058Y-102443915D02*
X167927944Y-106253915D01*
X173339552Y-104007094D02*
X174898397Y-103107094D01*
X174898397Y-103107094D02*
X174523397Y-102457575D01*
X170912944Y-111424086D02*
X177512058Y-107614086D01*
X167531797Y-106147767D02*
X168156797Y-107230299D01*
X169500450Y-105357575D02*
X167941604Y-106257575D01*
X176473878Y-107335907D02*
X173832501Y-108860907D01*
X174998878Y-104781132D02*
X176473878Y-107335907D01*
X172040513Y-104757094D02*
X171665513Y-104107575D01*
X169716123Y-107831132D02*
X171191123Y-110385907D01*
X168614328Y-105522767D02*
X167531797Y-106147767D01*
X172964552Y-103357575D02*
X173339552Y-104007094D01*
X175648397Y-104406132D02*
X174998878Y-104781132D01*
X170799488Y-104607575D02*
X171174488Y-105257094D01*
X154881000Y-102372000D02*
X164651000Y-102372000D01*
X164651000Y-102372000D02*
X164651000Y-107442000D01*
X154881000Y-102372000D02*
X154881000Y-107442000D01*
X154881000Y-107442000D02*
X164651000Y-107442000D01*
D13*
X132790000Y-100076000D02*
X132790000Y-100076000D01*
D14*
X133350000Y-101601000D02*
X138430000Y-101601000D01*
D13*
X132790000Y-100076000D02*
X132790000Y-100076000D01*
X132890000Y-100076000D02*
X132890000Y-100076000D01*
D14*
X138430000Y-101601000D02*
X138430000Y-93471000D01*
X138430000Y-93471000D02*
X133350000Y-93471000D01*
X133350000Y-93471000D02*
X133350000Y-101601000D01*
D13*
X132790000Y-100076000D02*
G75*
G03*
X132890000Y-100076000I50000J0D01*
G01*
X132890000Y-100076000D02*
G75*
G03*
X132790000Y-100076000I-50000J0D01*
G01*
X132790000Y-100076000D02*
G75*
G03*
X132890000Y-100076000I50000J0D01*
G01*
D12*
X140470000Y-91336000D02*
X140470000Y-90711000D01*
X136430000Y-91336000D02*
X136430000Y-90711000D01*
X136430000Y-89121000D02*
X136430000Y-88496000D01*
X140470000Y-88496000D02*
X136430000Y-88496000D01*
X140470000Y-91336000D02*
X136430000Y-91336000D01*
X140470000Y-89121000D02*
X140470000Y-88496000D01*
X166034129Y-111680490D02*
X166346629Y-112221756D01*
X166346629Y-112221756D02*
X169845372Y-110201756D01*
X168425372Y-107742244D02*
X168737872Y-108283510D01*
X164926629Y-109762244D02*
X165239129Y-110303510D01*
X169532872Y-109660490D02*
X169845372Y-110201756D01*
X164926629Y-109762244D02*
X168425372Y-107742244D01*
M02*
