G04 #@! TF.GenerationSoftware,KiCad,Pcbnew,(6.0.5)*
G04 #@! TF.CreationDate,2022-07-03T21:23:33+09:00*
G04 #@! TF.ProjectId,psu_board,7073755f-626f-4617-9264-2e6b69636164,rev?*
G04 #@! TF.SameCoordinates,Original*
G04 #@! TF.FileFunction,Copper,L1,Top*
G04 #@! TF.FilePolarity,Positive*
%FSLAX46Y46*%
G04 Gerber Fmt 4.6, Leading zero omitted, Abs format (unit mm)*
G04 Created by KiCad (PCBNEW (6.0.5)) date 2022-07-03 21:23:33*
%MOMM*%
%LPD*%
G01*
G04 APERTURE LIST*
G04 Aperture macros list*
%AMRoundRect*
0 Rectangle with rounded corners*
0 $1 Rounding radius*
0 $2 $3 $4 $5 $6 $7 $8 $9 X,Y pos of 4 corners*
0 Add a 4 corners polygon primitive as box body*
4,1,4,$2,$3,$4,$5,$6,$7,$8,$9,$2,$3,0*
0 Add four circle primitives for the rounded corners*
1,1,$1+$1,$2,$3*
1,1,$1+$1,$4,$5*
1,1,$1+$1,$6,$7*
1,1,$1+$1,$8,$9*
0 Add four rect primitives between the rounded corners*
20,1,$1+$1,$2,$3,$4,$5,0*
20,1,$1+$1,$4,$5,$6,$7,0*
20,1,$1+$1,$6,$7,$8,$9,0*
20,1,$1+$1,$8,$9,$2,$3,0*%
%AMHorizOval*
0 Thick line with rounded ends*
0 $1 width*
0 $2 $3 position (X,Y) of the first rounded end (center of the circle)*
0 $4 $5 position (X,Y) of the second rounded end (center of the circle)*
0 Add line between two ends*
20,1,$1,$2,$3,$4,$5,0*
0 Add two circle primitives to create the rounded ends*
1,1,$1,$2,$3*
1,1,$1,$4,$5*%
%AMRotRect*
0 Rectangle, with rotation*
0 The origin of the aperture is its center*
0 $1 length*
0 $2 width*
0 $3 Rotation angle, in degrees counterclockwise*
0 Add horizontal line*
21,1,$1,$2,0,0,$3*%
%AMOutline4P*
0 Free polygon, 4 corners , with rotation*
0 The origin of the aperture is its center*
0 number of corners: always 4*
0 $1 to $8 corner X, Y*
0 $9 Rotation angle, in degrees counterclockwise*
0 create outline with 4 corners*
4,1,4,$1,$2,$3,$4,$5,$6,$7,$8,$1,$2,$9*%
G04 Aperture macros list end*
G04 #@! TA.AperFunction,ComponentPad*
%ADD10HorizOval,1.500000X-0.424264X-0.424264X0.424264X0.424264X0*%
G04 #@! TD*
G04 #@! TA.AperFunction,ComponentPad*
%ADD11RotRect,2.800000X2.800000X135.000000*%
G04 #@! TD*
G04 #@! TA.AperFunction,ComponentPad*
%ADD12HorizOval,2.800000X0.000000X0.000000X0.000000X0.000000X0*%
G04 #@! TD*
G04 #@! TA.AperFunction,ComponentPad*
%ADD13C,1.400000*%
G04 #@! TD*
G04 #@! TA.AperFunction,ComponentPad*
%ADD14O,1.400000X1.400000*%
G04 #@! TD*
G04 #@! TA.AperFunction,ComponentPad*
%ADD15R,1.600000X1.600000*%
G04 #@! TD*
G04 #@! TA.AperFunction,ComponentPad*
%ADD16C,1.600000*%
G04 #@! TD*
G04 #@! TA.AperFunction,ComponentPad*
%ADD17RoundRect,0.250000X-0.144615X-0.949519X0.894615X-0.349519X0.144615X0.949519X-0.894615X0.349519X0*%
G04 #@! TD*
G04 #@! TA.AperFunction,ComponentPad*
%ADD18HorizOval,1.700000X-0.075000X0.129904X0.075000X-0.129904X0*%
G04 #@! TD*
G04 #@! TA.AperFunction,ComponentPad*
%ADD19O,4.000000X2.000000*%
G04 #@! TD*
G04 #@! TA.AperFunction,ComponentPad*
%ADD20RoundRect,0.250001X-1.555634X0.000000X0.000000X-1.555634X1.555634X0.000000X0.000000X1.555634X0*%
G04 #@! TD*
G04 #@! TA.AperFunction,ComponentPad*
%ADD21C,2.700000*%
G04 #@! TD*
G04 #@! TA.AperFunction,ComponentPad*
%ADD22C,1.440000*%
G04 #@! TD*
G04 #@! TA.AperFunction,ComponentPad*
%ADD23C,1.635000*%
G04 #@! TD*
G04 #@! TA.AperFunction,SMDPad,CuDef*
%ADD24Outline4P,-1.500000X-0.600000X1.500000X-0.600000X1.500000X0.600000X-1.500000X0.600000X0.000000*%
G04 #@! TD*
G04 #@! TA.AperFunction,SMDPad,CuDef*
%ADD25Outline4P,-2.035000X-0.885000X2.035000X-0.885000X2.035000X0.885000X-2.035000X0.885000X0.000000*%
G04 #@! TD*
G04 #@! TA.AperFunction,SMDPad,CuDef*
%ADD26Outline4P,-0.600000X-1.500000X0.600000X-1.500000X0.600000X1.500000X-0.600000X1.500000X0.000000*%
G04 #@! TD*
G04 #@! TA.AperFunction,SMDPad,CuDef*
%ADD27Outline4P,-0.885000X-2.035000X0.885000X-2.035000X0.885000X2.035000X-0.885000X2.035000X0.000000*%
G04 #@! TD*
G04 #@! TA.AperFunction,SMDPad,CuDef*
%ADD28Outline4P,-0.750000X-0.600000X0.750000X-0.600000X0.750000X0.600000X-0.750000X0.600000X0.000000*%
G04 #@! TD*
G04 #@! TA.AperFunction,SMDPad,CuDef*
%ADD29Outline4P,-0.500000X-0.600000X0.500000X-0.600000X0.500000X0.600000X-0.500000X0.600000X0.000000*%
G04 #@! TD*
G04 #@! TA.AperFunction,ViaPad*
%ADD30C,0.800000*%
G04 #@! TD*
G04 #@! TA.AperFunction,Conductor*
%ADD31C,1.700000*%
G04 #@! TD*
G04 APERTURE END LIST*
D10*
X125476000Y-97536000D03*
X122859705Y-94919705D03*
X131132854Y-103192854D03*
X128516559Y-100576559D03*
D11*
X127508000Y-105918000D03*
D12*
X120323795Y-98733795D03*
D13*
X148844000Y-106680000D03*
D14*
X143764000Y-106680000D03*
D15*
X157734000Y-92456000D03*
D16*
X160234000Y-92456000D03*
D17*
X165024969Y-96436337D03*
D18*
X167190033Y-95186337D03*
D13*
X133350000Y-112014000D03*
D14*
X128270000Y-112014000D03*
D19*
X157734000Y-118364000D03*
X157734000Y-124364000D03*
D13*
X143764000Y-108966000D03*
D14*
X148844000Y-108966000D03*
D20*
X128270000Y-89916000D03*
D21*
X131070143Y-92716143D03*
D15*
X157774000Y-98298000D03*
D16*
X160274000Y-98298000D03*
D17*
X168199969Y-101770337D03*
D18*
X170365033Y-100520337D03*
D15*
X136946000Y-106172000D03*
D16*
X139446000Y-106172000D03*
X132588000Y-108966000D03*
X130088000Y-108966000D03*
D17*
X171374969Y-107104337D03*
D18*
X173540033Y-105854337D03*
D22*
X162306000Y-104902000D03*
X159766000Y-104902000D03*
X157226000Y-104902000D03*
D23*
X135890000Y-100076000D03*
X135890000Y-97536000D03*
X135890000Y-94996000D03*
D24*
X141454000Y-97782000D03*
X141454000Y-93202000D03*
D25*
X143619000Y-93202000D03*
D26*
X144764000Y-92182000D03*
X149344000Y-92182000D03*
X147054000Y-92182000D03*
D25*
X148199000Y-93202000D03*
D27*
X151654000Y-94347000D03*
D24*
X152654000Y-93202000D03*
X152654000Y-97782000D03*
X152654000Y-102362000D03*
D26*
X147054000Y-103382000D03*
X144764000Y-103382000D03*
D24*
X141454000Y-102362000D03*
X141454000Y-100072000D03*
D28*
X153404000Y-100072000D03*
D26*
X149344000Y-103382000D03*
D29*
X151654000Y-100072000D03*
D16*
X139700000Y-89916000D03*
X137200000Y-89916000D03*
X166303469Y-110607000D03*
X168468533Y-109357000D03*
D30*
X143510000Y-95758000D03*
X155194000Y-95250000D03*
X143510000Y-111506000D03*
X146558000Y-97790000D03*
D31*
X149423511Y-90606489D02*
X159186489Y-90606489D01*
X139954000Y-106680000D02*
X139446000Y-106172000D01*
X147054000Y-92182000D02*
X149344000Y-92182000D01*
X160234000Y-95544000D02*
X160234000Y-98258000D01*
X135890000Y-100076000D02*
X135890000Y-101232119D01*
X148457519Y-93460519D02*
X148457519Y-100069459D01*
X160234000Y-92456000D02*
X160234000Y-95544000D01*
X124390343Y-102800343D02*
X128847657Y-102800343D01*
X135890000Y-101232119D02*
X139446000Y-104788119D01*
X148199000Y-93202000D02*
X148457519Y-93460519D01*
X147054000Y-101472978D02*
X147054000Y-103382000D01*
X149344000Y-92182000D02*
X149344000Y-90686000D01*
X167190033Y-95186337D02*
X166095958Y-94092262D01*
X160234000Y-91654000D02*
X160234000Y-92456000D01*
X128847657Y-102800343D02*
X131572000Y-100076000D01*
X139446000Y-104788119D02*
X139446000Y-106172000D01*
X143764000Y-106680000D02*
X139954000Y-106680000D01*
X159186489Y-90606489D02*
X160234000Y-91654000D01*
X120323795Y-98733795D02*
X124390343Y-102800343D01*
X147054000Y-103382000D02*
X147054000Y-106582000D01*
X131572000Y-100076000D02*
X135890000Y-100076000D01*
X146956000Y-106680000D02*
X143764000Y-106680000D01*
X161685738Y-94092262D02*
X160234000Y-95544000D01*
X148457519Y-100069459D02*
X147054000Y-101472978D01*
X160234000Y-98258000D02*
X160274000Y-98298000D01*
X166095958Y-94092262D02*
X161685738Y-94092262D01*
X149344000Y-90686000D02*
X149423511Y-90606489D01*
X147054000Y-106582000D02*
X146956000Y-106680000D01*
X136946000Y-106974000D02*
X138938000Y-108966000D01*
X143764000Y-108966000D02*
X143764000Y-109073674D01*
X143619000Y-95649000D02*
X143510000Y-95758000D01*
X153162000Y-111506000D02*
X153162000Y-119792000D01*
X138938000Y-108966000D02*
X143764000Y-108966000D01*
X143764000Y-109073674D02*
X146196326Y-111506000D01*
X153162000Y-119792000D02*
X157734000Y-124364000D01*
X146196326Y-111506000D02*
X153162000Y-111506000D01*
X143619000Y-93202000D02*
X143619000Y-95649000D01*
X136946000Y-106172000D02*
X136946000Y-106974000D01*
X155448000Y-98044000D02*
X155186000Y-97782000D01*
X155448000Y-101854000D02*
X155448000Y-98044000D01*
X155186000Y-97782000D02*
X152654000Y-97782000D01*
X155956000Y-102362000D02*
X155448000Y-101854000D01*
X151654000Y-96782000D02*
X152654000Y-97782000D01*
X164338000Y-104431532D02*
X164338000Y-102362000D01*
X171374969Y-107104337D02*
X167010805Y-107104337D01*
X167010805Y-107104337D02*
X164338000Y-104431532D01*
X155186000Y-95258000D02*
X155194000Y-95250000D01*
X164338000Y-102362000D02*
X155956000Y-102362000D01*
X155186000Y-97782000D02*
X155186000Y-95258000D01*
X151654000Y-94347000D02*
X151654000Y-96782000D01*
X143510000Y-111506000D02*
X138684000Y-111506000D01*
X133096000Y-105918000D02*
X127508000Y-105918000D01*
X138684000Y-111506000D02*
X133096000Y-105918000D01*
X141208000Y-97536000D02*
X141454000Y-97782000D01*
X141454000Y-97782000D02*
X146550000Y-97782000D01*
X146550000Y-97782000D02*
X146558000Y-97790000D01*
X135890000Y-97536000D02*
X141208000Y-97536000D01*
X155194000Y-104902000D02*
X157226000Y-104902000D01*
X152654000Y-102362000D02*
X155194000Y-104902000D01*
M02*
