%TF.GenerationSoftware,KiCad,Pcbnew,(6.0.5)*%
%TF.CreationDate,2023-02-26T21:46:22+09:00*%
%TF.ProjectId,psu_board,7073755f-626f-4617-9264-2e6b69636164,rev?*%
%TF.SameCoordinates,Original*%
%TF.FileFunction,Legend,Top*%
%TF.FilePolarity,Positive*%
%FSLAX46Y46*%
G04 Gerber Fmt 4.6, Leading zero omitted, Abs format (unit mm)*
G04 Created by KiCad (PCBNEW (6.0.5)) date 2023-02-26 21:46:22*
%MOMM*%
%LPD*%
G01*
G04 APERTURE LIST*
%ADD10C,0.150000*%
%ADD11C,0.120000*%
%ADD12C,0.100000*%
%ADD13C,0.200000*%
G04 APERTURE END LIST*
D10*
X162401523Y-106894380D02*
X162496761Y-106894380D01*
X162592000Y-106942000D01*
X162639619Y-106989619D01*
X162687238Y-107084857D01*
X162734857Y-107275333D01*
X162734857Y-107513428D01*
X162687238Y-107703904D01*
X162639619Y-107799142D01*
X162592000Y-107846761D01*
X162496761Y-107894380D01*
X162401523Y-107894380D01*
X162306285Y-107846761D01*
X162258666Y-107799142D01*
X162211047Y-107703904D01*
X162163428Y-107513428D01*
X162163428Y-107275333D01*
X162211047Y-107084857D01*
X162258666Y-106989619D01*
X162306285Y-106942000D01*
X162401523Y-106894380D01*
X163163428Y-107799142D02*
X163211047Y-107846761D01*
X163163428Y-107894380D01*
X163115809Y-107846761D01*
X163163428Y-107799142D01*
X163163428Y-107894380D01*
X163544380Y-106894380D02*
X164163428Y-106894380D01*
X163830095Y-107275333D01*
X163972952Y-107275333D01*
X164068190Y-107322952D01*
X164115809Y-107370571D01*
X164163428Y-107465809D01*
X164163428Y-107703904D01*
X164115809Y-107799142D01*
X164068190Y-107846761D01*
X163972952Y-107894380D01*
X163687238Y-107894380D01*
X163592000Y-107846761D01*
X163544380Y-107799142D01*
X164496761Y-106894380D02*
X165115809Y-106894380D01*
X164782476Y-107275333D01*
X164925333Y-107275333D01*
X165020571Y-107322952D01*
X165068190Y-107370571D01*
X165115809Y-107465809D01*
X165115809Y-107703904D01*
X165068190Y-107799142D01*
X165020571Y-107846761D01*
X164925333Y-107894380D01*
X164639619Y-107894380D01*
X164544380Y-107846761D01*
X164496761Y-107799142D01*
X165544380Y-107227714D02*
X165544380Y-108227714D01*
X166020571Y-107751523D02*
X166068190Y-107846761D01*
X166163428Y-107894380D01*
X165544380Y-107751523D02*
X165592000Y-107846761D01*
X165687238Y-107894380D01*
X165877714Y-107894380D01*
X165972952Y-107846761D01*
X166020571Y-107751523D01*
X166020571Y-107227714D01*
X166925333Y-107370571D02*
X166592000Y-107370571D01*
X166592000Y-107894380D02*
X166592000Y-106894380D01*
X167068190Y-106894380D01*
X173206336Y-104292700D02*
X173742447Y-103983176D01*
X173644248Y-104479757D01*
X173767966Y-104408329D01*
X173874254Y-104401949D01*
X173939303Y-104419379D01*
X174028161Y-104478048D01*
X174147209Y-104684244D01*
X174153588Y-104790532D01*
X174136159Y-104855581D01*
X174077489Y-104944440D01*
X173830054Y-105087297D01*
X173723765Y-105093676D01*
X173658717Y-105076247D01*
X174031122Y-103816509D02*
X174567233Y-103506986D01*
X174469034Y-104003567D01*
X174592752Y-103932138D01*
X174699040Y-103925758D01*
X174764089Y-103943188D01*
X174852947Y-104001857D01*
X174971995Y-104208054D01*
X174978374Y-104314342D01*
X174960945Y-104379391D01*
X174902276Y-104468249D01*
X174654840Y-104611106D01*
X174548552Y-104617486D01*
X174483503Y-104600056D01*
X175105053Y-103581375D02*
X175605053Y-104447400D01*
X175779351Y-103796912D02*
X175868209Y-103855581D01*
X175974497Y-103849201D01*
X175366958Y-104035007D02*
X175455816Y-104093676D01*
X175562104Y-104087297D01*
X175727062Y-103992059D01*
X175785731Y-103903200D01*
X175779351Y-103796912D01*
X175517446Y-103343280D01*
X176372422Y-103014617D02*
X176083746Y-103181283D01*
X176345651Y-103634916D02*
X175845651Y-102768890D01*
X176258044Y-102530795D01*
%TO.C,F1*%
X128745790Y-93911194D02*
X128510087Y-94146896D01*
X128880477Y-94517286D02*
X128173370Y-93810179D01*
X128510087Y-93473461D01*
X129856957Y-93540805D02*
X129452896Y-93944866D01*
X129654927Y-93742835D02*
X128947820Y-93035729D01*
X128981492Y-93204087D01*
X128981492Y-93338774D01*
X128947820Y-93439790D01*
%TO.C,D1*%
X133147969Y-97869793D02*
X132440862Y-97162687D01*
X132609221Y-96994328D01*
X132743908Y-96926984D01*
X132878595Y-96926984D01*
X132979610Y-96960656D01*
X133147969Y-97061671D01*
X133248984Y-97162687D01*
X133350000Y-97331045D01*
X133383671Y-97432061D01*
X133383671Y-97566748D01*
X133316328Y-97701435D01*
X133147969Y-97869793D01*
X134225465Y-96792297D02*
X133821404Y-97196358D01*
X134023435Y-96994328D02*
X133316328Y-96287221D01*
X133350000Y-96455580D01*
X133350000Y-96590267D01*
X133316328Y-96691282D01*
%TO.C,C4*%
X173516233Y-103516628D02*
X173498804Y-103581676D01*
X173398895Y-103694344D01*
X173316417Y-103741963D01*
X173168889Y-103772153D01*
X173038791Y-103737293D01*
X172949933Y-103678624D01*
X172813456Y-103537476D01*
X172742027Y-103413758D01*
X172688028Y-103224992D01*
X172681649Y-103118704D01*
X172716508Y-102988606D01*
X172816417Y-102875938D01*
X172898895Y-102828319D01*
X173046423Y-102798130D01*
X173111471Y-102815559D01*
X173972827Y-102593185D02*
X174306160Y-103170535D01*
X173576154Y-102382318D02*
X173727100Y-103119955D01*
X174263211Y-102810431D01*
%TO.C,Kiker PSU*%
X157188982Y-84984625D02*
X156688982Y-84118599D01*
X157683854Y-84698910D02*
X157026986Y-84418324D01*
X157183854Y-83832885D02*
X156974697Y-84613471D01*
X158055008Y-84484625D02*
X157721674Y-83907274D01*
X157555008Y-83618599D02*
X157537578Y-83683648D01*
X157602627Y-83701078D01*
X157620057Y-83636029D01*
X157555008Y-83618599D01*
X157602627Y-83701078D01*
X158467401Y-84246529D02*
X157967401Y-83380504D01*
X158359403Y-83868996D02*
X158797315Y-84056053D01*
X158463982Y-83478703D02*
X158324544Y-83999094D01*
X159474574Y-83610052D02*
X159415905Y-83698910D01*
X159250948Y-83794148D01*
X159144660Y-83800528D01*
X159055801Y-83741859D01*
X158865325Y-83411945D01*
X158858945Y-83305657D01*
X158917614Y-83216798D01*
X159082572Y-83121560D01*
X159188860Y-83115180D01*
X159277718Y-83173849D01*
X159325337Y-83256328D01*
X158960563Y-83576902D01*
X159910777Y-83413196D02*
X159577443Y-82835846D01*
X159672681Y-83000803D02*
X159666302Y-82894515D01*
X159683731Y-82829466D01*
X159742400Y-82740608D01*
X159824879Y-82692989D01*
X161106716Y-82722720D02*
X160606716Y-81856694D01*
X160936631Y-81666218D01*
X161042919Y-81659839D01*
X161107968Y-81677268D01*
X161196826Y-81735937D01*
X161268255Y-81859655D01*
X161274634Y-81965943D01*
X161257205Y-82030992D01*
X161198536Y-82119851D01*
X160868621Y-82310327D01*
X161907693Y-82205290D02*
X162055220Y-82175101D01*
X162261417Y-82056053D01*
X162320086Y-81967195D01*
X162337516Y-81902146D01*
X162331136Y-81795858D01*
X162283517Y-81713379D01*
X162194659Y-81654710D01*
X162129610Y-81637280D01*
X162023322Y-81643660D01*
X161834555Y-81697659D01*
X161728267Y-81704039D01*
X161663218Y-81686609D01*
X161574360Y-81627940D01*
X161526741Y-81545461D01*
X161520361Y-81439173D01*
X161537791Y-81374124D01*
X161596460Y-81285266D01*
X161802656Y-81166218D01*
X161950184Y-81136029D01*
X162297528Y-80880504D02*
X162702290Y-81581572D01*
X162791148Y-81640241D01*
X162856197Y-81657671D01*
X162962485Y-81651291D01*
X163127442Y-81556053D01*
X163186111Y-81467195D01*
X163203541Y-81402146D01*
X163197161Y-81295858D01*
X162792400Y-80594790D01*
%TO.C,22\u03BCF*%
X147891714Y-80573619D02*
X147939333Y-80526000D01*
X148034571Y-80478380D01*
X148272666Y-80478380D01*
X148367904Y-80526000D01*
X148415523Y-80573619D01*
X148463142Y-80668857D01*
X148463142Y-80764095D01*
X148415523Y-80906952D01*
X147844095Y-81478380D01*
X148463142Y-81478380D01*
X148844095Y-80573619D02*
X148891714Y-80526000D01*
X148986952Y-80478380D01*
X149225047Y-80478380D01*
X149320285Y-80526000D01*
X149367904Y-80573619D01*
X149415523Y-80668857D01*
X149415523Y-80764095D01*
X149367904Y-80906952D01*
X148796476Y-81478380D01*
X149415523Y-81478380D01*
X149844095Y-80811714D02*
X149844095Y-81811714D01*
X150320285Y-81335523D02*
X150367904Y-81430761D01*
X150463142Y-81478380D01*
X149844095Y-81335523D02*
X149891714Y-81430761D01*
X149986952Y-81478380D01*
X150177428Y-81478380D01*
X150272666Y-81430761D01*
X150320285Y-81335523D01*
X150320285Y-80811714D01*
X151225047Y-80954571D02*
X150891714Y-80954571D01*
X150891714Y-81478380D02*
X150891714Y-80478380D01*
X151367904Y-80478380D01*
%TO.C,SW2*%
X132016666Y-105306761D02*
X132159523Y-105354380D01*
X132397619Y-105354380D01*
X132492857Y-105306761D01*
X132540476Y-105259142D01*
X132588095Y-105163904D01*
X132588095Y-105068666D01*
X132540476Y-104973428D01*
X132492857Y-104925809D01*
X132397619Y-104878190D01*
X132207142Y-104830571D01*
X132111904Y-104782952D01*
X132064285Y-104735333D01*
X132016666Y-104640095D01*
X132016666Y-104544857D01*
X132064285Y-104449619D01*
X132111904Y-104402000D01*
X132207142Y-104354380D01*
X132445238Y-104354380D01*
X132588095Y-104402000D01*
X132921428Y-104354380D02*
X133159523Y-105354380D01*
X133350000Y-104640095D01*
X133540476Y-105354380D01*
X133778571Y-104354380D01*
X134111904Y-104449619D02*
X134159523Y-104402000D01*
X134254761Y-104354380D01*
X134492857Y-104354380D01*
X134588095Y-104402000D01*
X134635714Y-104449619D01*
X134683333Y-104544857D01*
X134683333Y-104640095D01*
X134635714Y-104782952D01*
X134064285Y-105354380D01*
X134683333Y-105354380D01*
%TO.C,MB*%
X160540502Y-101138440D02*
X160040502Y-100272414D01*
X160686320Y-100724337D01*
X160617852Y-99939081D01*
X161117852Y-100805106D01*
X161557016Y-99946712D02*
X161704543Y-99916523D01*
X161769592Y-99933952D01*
X161858450Y-99992622D01*
X161929879Y-100116339D01*
X161936259Y-100222628D01*
X161918829Y-100287676D01*
X161860160Y-100376535D01*
X161530245Y-100567011D01*
X161030245Y-99700986D01*
X161318921Y-99534319D01*
X161425209Y-99527939D01*
X161490258Y-99545369D01*
X161579116Y-99604038D01*
X161626735Y-99686517D01*
X161633115Y-99792805D01*
X161615685Y-99857854D01*
X161557016Y-99946712D01*
X161268341Y-100113379D01*
%TO.C,R1*%
X140549333Y-94686380D02*
X140216000Y-94210190D01*
X139977904Y-94686380D02*
X139977904Y-93686380D01*
X140358857Y-93686380D01*
X140454095Y-93734000D01*
X140501714Y-93781619D01*
X140549333Y-93876857D01*
X140549333Y-94019714D01*
X140501714Y-94114952D01*
X140454095Y-94162571D01*
X140358857Y-94210190D01*
X139977904Y-94210190D01*
X141501714Y-94686380D02*
X140930285Y-94686380D01*
X141216000Y-94686380D02*
X141216000Y-93686380D01*
X141120761Y-93829238D01*
X141025523Y-93924476D01*
X140930285Y-93972095D01*
X138946095Y-95305619D02*
X138993714Y-95258000D01*
X139088952Y-95210380D01*
X139327047Y-95210380D01*
X139422285Y-95258000D01*
X139469904Y-95305619D01*
X139517523Y-95400857D01*
X139517523Y-95496095D01*
X139469904Y-95638952D01*
X138898476Y-96210380D01*
X139517523Y-96210380D01*
X140136571Y-95210380D02*
X140231809Y-95210380D01*
X140327047Y-95258000D01*
X140374666Y-95305619D01*
X140422285Y-95400857D01*
X140469904Y-95591333D01*
X140469904Y-95829428D01*
X140422285Y-96019904D01*
X140374666Y-96115142D01*
X140327047Y-96162761D01*
X140231809Y-96210380D01*
X140136571Y-96210380D01*
X140041333Y-96162761D01*
X139993714Y-96115142D01*
X139946095Y-96019904D01*
X139898476Y-95829428D01*
X139898476Y-95591333D01*
X139946095Y-95400857D01*
X139993714Y-95305619D01*
X140041333Y-95258000D01*
X140136571Y-95210380D01*
X140898476Y-96210380D02*
X140898476Y-95210380D01*
X141469904Y-96210380D02*
X141041333Y-95638952D01*
X141469904Y-95210380D02*
X140898476Y-95781809D01*
%TO.C,RV1*%
X154080761Y-112720380D02*
X153747428Y-112244190D01*
X153509333Y-112720380D02*
X153509333Y-111720380D01*
X153890285Y-111720380D01*
X153985523Y-111768000D01*
X154033142Y-111815619D01*
X154080761Y-111910857D01*
X154080761Y-112053714D01*
X154033142Y-112148952D01*
X153985523Y-112196571D01*
X153890285Y-112244190D01*
X153509333Y-112244190D01*
X154366476Y-111720380D02*
X154699809Y-112720380D01*
X155033142Y-111720380D01*
X155890285Y-112720380D02*
X155318857Y-112720380D01*
X155604571Y-112720380D02*
X155604571Y-111720380D01*
X155509333Y-111863238D01*
X155414095Y-111958476D01*
X155318857Y-112006095D01*
%TO.C,R2*%
X146645333Y-111084380D02*
X146312000Y-110608190D01*
X146073904Y-111084380D02*
X146073904Y-110084380D01*
X146454857Y-110084380D01*
X146550095Y-110132000D01*
X146597714Y-110179619D01*
X146645333Y-110274857D01*
X146645333Y-110417714D01*
X146597714Y-110512952D01*
X146550095Y-110560571D01*
X146454857Y-110608190D01*
X146073904Y-110608190D01*
X147026285Y-110179619D02*
X147073904Y-110132000D01*
X147169142Y-110084380D01*
X147407238Y-110084380D01*
X147502476Y-110132000D01*
X147550095Y-110179619D01*
X147597714Y-110274857D01*
X147597714Y-110370095D01*
X147550095Y-110512952D01*
X146978666Y-111084380D01*
X147597714Y-111084380D01*
X142930666Y-110942380D02*
X142359238Y-110942380D01*
X142644952Y-110942380D02*
X142644952Y-109942380D01*
X142549714Y-110085238D01*
X142454476Y-110180476D01*
X142359238Y-110228095D01*
X143359238Y-110847142D02*
X143406857Y-110894761D01*
X143359238Y-110942380D01*
X143311619Y-110894761D01*
X143359238Y-110847142D01*
X143359238Y-110942380D01*
X143787809Y-110037619D02*
X143835428Y-109990000D01*
X143930666Y-109942380D01*
X144168761Y-109942380D01*
X144264000Y-109990000D01*
X144311619Y-110037619D01*
X144359238Y-110132857D01*
X144359238Y-110228095D01*
X144311619Y-110370952D01*
X143740190Y-110942380D01*
X144359238Y-110942380D01*
X144787809Y-110942380D02*
X144787809Y-109942380D01*
X144883047Y-110561428D02*
X145168761Y-110942380D01*
X145168761Y-110275714D02*
X144787809Y-110656666D01*
%TO.C,C3*%
X160615333Y-107799142D02*
X160567714Y-107846761D01*
X160424857Y-107894380D01*
X160329619Y-107894380D01*
X160186761Y-107846761D01*
X160091523Y-107751523D01*
X160043904Y-107656285D01*
X159996285Y-107465809D01*
X159996285Y-107322952D01*
X160043904Y-107132476D01*
X160091523Y-107037238D01*
X160186761Y-106942000D01*
X160329619Y-106894380D01*
X160424857Y-106894380D01*
X160567714Y-106942000D01*
X160615333Y-106989619D01*
X160948666Y-106894380D02*
X161567714Y-106894380D01*
X161234380Y-107275333D01*
X161377238Y-107275333D01*
X161472476Y-107322952D01*
X161520095Y-107370571D01*
X161567714Y-107465809D01*
X161567714Y-107703904D01*
X161520095Y-107799142D01*
X161472476Y-107846761D01*
X161377238Y-107894380D01*
X161091523Y-107894380D01*
X160996285Y-107846761D01*
X160948666Y-107799142D01*
%TO.C,BT1*%
X140109908Y-87881076D02*
X140244595Y-87813732D01*
X140311938Y-87813732D01*
X140412954Y-87847404D01*
X140513969Y-87948419D01*
X140547641Y-88049435D01*
X140547641Y-88116778D01*
X140513969Y-88217793D01*
X140244595Y-88487167D01*
X139537488Y-87780061D01*
X139773190Y-87544358D01*
X139874206Y-87510687D01*
X139941549Y-87510687D01*
X140042564Y-87544358D01*
X140109908Y-87611702D01*
X140143580Y-87712717D01*
X140143580Y-87780061D01*
X140109908Y-87881076D01*
X139874206Y-88116778D01*
X140143580Y-87173969D02*
X140547641Y-86769908D01*
X141052717Y-87679045D02*
X140345610Y-86971938D01*
X141860839Y-86870923D02*
X141456778Y-87274984D01*
X141658809Y-87072954D02*
X140951702Y-86365847D01*
X140985374Y-86534206D01*
X140985374Y-86668893D01*
X140951702Y-86769908D01*
%TO.C,SW1*%
X131762666Y-107846761D02*
X131905523Y-107894380D01*
X132143619Y-107894380D01*
X132238857Y-107846761D01*
X132286476Y-107799142D01*
X132334095Y-107703904D01*
X132334095Y-107608666D01*
X132286476Y-107513428D01*
X132238857Y-107465809D01*
X132143619Y-107418190D01*
X131953142Y-107370571D01*
X131857904Y-107322952D01*
X131810285Y-107275333D01*
X131762666Y-107180095D01*
X131762666Y-107084857D01*
X131810285Y-106989619D01*
X131857904Y-106942000D01*
X131953142Y-106894380D01*
X132191238Y-106894380D01*
X132334095Y-106942000D01*
X132667428Y-106894380D02*
X132905523Y-107894380D01*
X133096000Y-107180095D01*
X133286476Y-107894380D01*
X133524571Y-106894380D01*
X134429333Y-107894380D02*
X133857904Y-107894380D01*
X134143619Y-107894380D02*
X134143619Y-106894380D01*
X134048380Y-107037238D01*
X133953142Y-107132476D01*
X133857904Y-107180095D01*
X132476952Y-122546380D02*
X132667428Y-122546380D01*
X132762666Y-122594000D01*
X132857904Y-122689238D01*
X132905523Y-122879714D01*
X132905523Y-123213047D01*
X132857904Y-123403523D01*
X132762666Y-123498761D01*
X132667428Y-123546380D01*
X132476952Y-123546380D01*
X132381714Y-123498761D01*
X132286476Y-123403523D01*
X132238857Y-123213047D01*
X132238857Y-122879714D01*
X132286476Y-122689238D01*
X132381714Y-122594000D01*
X132476952Y-122546380D01*
X133334095Y-123546380D02*
X133334095Y-122546380D01*
X133905523Y-123546380D01*
X133905523Y-122546380D01*
%TO.C,10\u03BCF*%
X153035142Y-81478380D02*
X152463714Y-81478380D01*
X152749428Y-81478380D02*
X152749428Y-80478380D01*
X152654190Y-80621238D01*
X152558952Y-80716476D01*
X152463714Y-80764095D01*
X153654190Y-80478380D02*
X153749428Y-80478380D01*
X153844666Y-80526000D01*
X153892285Y-80573619D01*
X153939904Y-80668857D01*
X153987523Y-80859333D01*
X153987523Y-81097428D01*
X153939904Y-81287904D01*
X153892285Y-81383142D01*
X153844666Y-81430761D01*
X153749428Y-81478380D01*
X153654190Y-81478380D01*
X153558952Y-81430761D01*
X153511333Y-81383142D01*
X153463714Y-81287904D01*
X153416095Y-81097428D01*
X153416095Y-80859333D01*
X153463714Y-80668857D01*
X153511333Y-80573619D01*
X153558952Y-80526000D01*
X153654190Y-80478380D01*
X154416095Y-80811714D02*
X154416095Y-81811714D01*
X154892285Y-81335523D02*
X154939904Y-81430761D01*
X155035142Y-81478380D01*
X154416095Y-81335523D02*
X154463714Y-81430761D01*
X154558952Y-81478380D01*
X154749428Y-81478380D01*
X154844666Y-81430761D01*
X154892285Y-81335523D01*
X154892285Y-80811714D01*
X155797047Y-80954571D02*
X155463714Y-80954571D01*
X155463714Y-81478380D02*
X155463714Y-80478380D01*
X155939904Y-80478380D01*
%TO.C,U1*%
X150872095Y-97373380D02*
X150872095Y-98182904D01*
X150919714Y-98278142D01*
X150967333Y-98325761D01*
X151062571Y-98373380D01*
X151253047Y-98373380D01*
X151348285Y-98325761D01*
X151395904Y-98278142D01*
X151443523Y-98182904D01*
X151443523Y-97373380D01*
X152443523Y-98373380D02*
X151872095Y-98373380D01*
X152157809Y-98373380D02*
X152157809Y-97373380D01*
X152062571Y-97516238D01*
X151967333Y-97611476D01*
X151872095Y-97659095D01*
%TO.C,MD*%
X161556502Y-98090440D02*
X161056502Y-97224414D01*
X161702320Y-97676337D01*
X161633852Y-96891081D01*
X162133852Y-97757106D01*
X162546245Y-97519011D02*
X162046245Y-96652986D01*
X162252442Y-96533938D01*
X162399969Y-96503749D01*
X162530067Y-96538608D01*
X162618925Y-96597277D01*
X162755403Y-96738425D01*
X162826831Y-96862143D01*
X162880830Y-97050910D01*
X162887210Y-97157198D01*
X162852350Y-97287295D01*
X162752442Y-97399963D01*
X162546245Y-97519011D01*
%TO.C,U2*%
X162560095Y-111212380D02*
X162560095Y-112021904D01*
X162607714Y-112117142D01*
X162655333Y-112164761D01*
X162750571Y-112212380D01*
X162941047Y-112212380D01*
X163036285Y-112164761D01*
X163083904Y-112117142D01*
X163131523Y-112021904D01*
X163131523Y-111212380D01*
X163560095Y-111307619D02*
X163607714Y-111260000D01*
X163702952Y-111212380D01*
X163941047Y-111212380D01*
X164036285Y-111260000D01*
X164083904Y-111307619D01*
X164131523Y-111402857D01*
X164131523Y-111498095D01*
X164083904Y-111640952D01*
X163512476Y-112212380D01*
X164131523Y-112212380D01*
X159750571Y-115276380D02*
X160322000Y-115276380D01*
X160036285Y-116276380D02*
X160036285Y-115276380D01*
X160607714Y-115990666D02*
X161083904Y-115990666D01*
X160512476Y-116276380D02*
X160845809Y-115276380D01*
X161179142Y-116276380D01*
X161941047Y-115609714D02*
X161941047Y-116276380D01*
X161702952Y-115228761D02*
X161464857Y-115943047D01*
X162083904Y-115943047D01*
X162607714Y-115704952D02*
X162512476Y-115657333D01*
X162464857Y-115609714D01*
X162417238Y-115514476D01*
X162417238Y-115466857D01*
X162464857Y-115371619D01*
X162512476Y-115324000D01*
X162607714Y-115276380D01*
X162798190Y-115276380D01*
X162893428Y-115324000D01*
X162941047Y-115371619D01*
X162988666Y-115466857D01*
X162988666Y-115514476D01*
X162941047Y-115609714D01*
X162893428Y-115657333D01*
X162798190Y-115704952D01*
X162607714Y-115704952D01*
X162512476Y-115752571D01*
X162464857Y-115800190D01*
X162417238Y-115895428D01*
X162417238Y-116085904D01*
X162464857Y-116181142D01*
X162512476Y-116228761D01*
X162607714Y-116276380D01*
X162798190Y-116276380D01*
X162893428Y-116228761D01*
X162941047Y-116181142D01*
X162988666Y-116085904D01*
X162988666Y-115895428D01*
X162941047Y-115800190D01*
X162893428Y-115752571D01*
X162798190Y-115704952D01*
X163607714Y-115276380D02*
X163702952Y-115276380D01*
X163798190Y-115324000D01*
X163845809Y-115371619D01*
X163893428Y-115466857D01*
X163941047Y-115657333D01*
X163941047Y-115895428D01*
X163893428Y-116085904D01*
X163845809Y-116181142D01*
X163798190Y-116228761D01*
X163702952Y-116276380D01*
X163607714Y-116276380D01*
X163512476Y-116228761D01*
X163464857Y-116181142D01*
X163417238Y-116085904D01*
X163369619Y-115895428D01*
X163369619Y-115657333D01*
X163417238Y-115466857D01*
X163464857Y-115371619D01*
X163512476Y-115324000D01*
X163607714Y-115276380D01*
X164274380Y-115276380D02*
X164893428Y-115276380D01*
X164560095Y-115657333D01*
X164702952Y-115657333D01*
X164798190Y-115704952D01*
X164845809Y-115752571D01*
X164893428Y-115847809D01*
X164893428Y-116085904D01*
X164845809Y-116181142D01*
X164798190Y-116228761D01*
X164702952Y-116276380D01*
X164417238Y-116276380D01*
X164322000Y-116228761D01*
X164274380Y-116181142D01*
X165226761Y-115276380D02*
X165845809Y-115276380D01*
X165512476Y-115657333D01*
X165655333Y-115657333D01*
X165750571Y-115704952D01*
X165798190Y-115752571D01*
X165845809Y-115847809D01*
X165845809Y-116085904D01*
X165798190Y-116181142D01*
X165750571Y-116228761D01*
X165655333Y-116276380D01*
X165369619Y-116276380D01*
X165274380Y-116228761D01*
X165226761Y-116181142D01*
X166226761Y-116228761D02*
X166369619Y-116276380D01*
X166607714Y-116276380D01*
X166702952Y-116228761D01*
X166750571Y-116181142D01*
X166798190Y-116085904D01*
X166798190Y-115990666D01*
X166750571Y-115895428D01*
X166702952Y-115847809D01*
X166607714Y-115800190D01*
X166417238Y-115752571D01*
X166322000Y-115704952D01*
X166274380Y-115657333D01*
X166226761Y-115562095D01*
X166226761Y-115466857D01*
X166274380Y-115371619D01*
X166322000Y-115324000D01*
X166417238Y-115276380D01*
X166655333Y-115276380D01*
X166798190Y-115324000D01*
D11*
%TO.C,F1*%
X125421846Y-100892154D02*
X130810000Y-95504000D01*
X132606051Y-86523744D02*
X127217898Y-91911898D01*
X136198154Y-90115846D02*
X132606051Y-86523744D01*
X127217898Y-91911898D02*
X121829744Y-97300051D01*
X121829744Y-97300051D02*
X125421846Y-100892154D01*
X130810000Y-95504000D02*
X136198154Y-90115846D01*
%TO.C,D1*%
X134680478Y-92911523D02*
X128217522Y-99374479D01*
X129246362Y-98345638D02*
X132032363Y-101131639D01*
X136172473Y-94205528D02*
X136073478Y-94304523D01*
X137466478Y-95697523D02*
X134680478Y-92911523D01*
X129161509Y-98430491D02*
X131947510Y-101216492D01*
X129331215Y-98260785D02*
X132117216Y-101046786D01*
X131003522Y-102160479D02*
X137466478Y-95697523D01*
X128217522Y-99374479D02*
X131003522Y-102160479D01*
X129511527Y-100866474D02*
X129610522Y-100767479D01*
%TO.C,C4*%
X173958000Y-107950000D02*
G75*
G03*
X173958000Y-107950000I-3270000J0D01*
G01*
%TO.C,Kiker PSU*%
X166844058Y-87040086D02*
X163859058Y-81869915D01*
X162671552Y-83433094D02*
X164230397Y-82533094D01*
X159207450Y-85433094D02*
X158832450Y-84783575D01*
X165805878Y-86761907D02*
X163164501Y-88286907D01*
X163859058Y-81869915D02*
X157259944Y-85679915D01*
X160131488Y-84033575D02*
X160506488Y-84683094D01*
X157946328Y-84948767D02*
X156863797Y-85573767D01*
X160506488Y-84683094D02*
X161372513Y-84183094D01*
X160523123Y-89811907D02*
X163164501Y-88286907D01*
X160244944Y-90850086D02*
X166844058Y-87040086D01*
X162296552Y-82783575D02*
X162671552Y-83433094D01*
X164330878Y-84207132D02*
X165805878Y-86761907D01*
X164230397Y-82533094D02*
X163855397Y-81883575D01*
X161372513Y-84183094D02*
X160997513Y-83533575D01*
X158832450Y-84783575D02*
X157273604Y-85683575D01*
X164980397Y-83832132D02*
X164330878Y-84207132D01*
X157273604Y-85683575D02*
X157648604Y-86333094D01*
X157259944Y-85679915D02*
X160244944Y-90850086D01*
X158398604Y-87632132D02*
X159048123Y-87257132D01*
X156863797Y-85573767D02*
X157488797Y-86656299D01*
X163855397Y-81883575D02*
X162296552Y-82783575D01*
X157648604Y-86333094D02*
X159207450Y-85433094D01*
X159048123Y-87257132D02*
X160523123Y-89811907D01*
X160997513Y-83533575D02*
X160131488Y-84033575D01*
%TO.C,22\u03BCF*%
X147885000Y-88268000D02*
X147885000Y-82928000D01*
X151327000Y-88268000D02*
X151327000Y-82928000D01*
X147885000Y-82928000D02*
X148551000Y-82928000D01*
X150661000Y-88268000D02*
X151327000Y-88268000D01*
X147885000Y-88268000D02*
X148551000Y-88268000D01*
X150661000Y-82928000D02*
X151327000Y-82928000D01*
D12*
%TO.C,SW2*%
X141224000Y-105665000D02*
X141224000Y-97535000D01*
D13*
X141784000Y-99060000D02*
X141784000Y-99060000D01*
D12*
X136144000Y-105665000D02*
X141224000Y-105665000D01*
D13*
X141684000Y-99060000D02*
X141684000Y-99060000D01*
D12*
X141224000Y-97535000D02*
X136144000Y-97535000D01*
D13*
X141784000Y-99060000D02*
X141784000Y-99060000D01*
D12*
X136144000Y-97535000D02*
X136144000Y-105665000D01*
D13*
X141784000Y-99060000D02*
G75*
G03*
X141684000Y-99060000I-50000J0D01*
G01*
X141684000Y-99060000D02*
G75*
G03*
X141784000Y-99060000I50000J0D01*
G01*
X141784000Y-99060000D02*
G75*
G03*
X141684000Y-99060000I-50000J0D01*
G01*
D11*
%TO.C,MB*%
X164061591Y-100836132D02*
X165536591Y-103390907D01*
X168176045Y-95862575D02*
X165144956Y-97612575D01*
X174022589Y-99369086D02*
X171037589Y-94198915D01*
X165144956Y-97612575D02*
X165519956Y-98262094D01*
X171033929Y-94212575D02*
X169475083Y-95112575D01*
X171509410Y-96536132D02*
X172984410Y-99090907D01*
X164220918Y-99012094D02*
X163845918Y-98362575D01*
X169850083Y-95762094D02*
X171408929Y-94862094D01*
X163845918Y-98362575D02*
X162287072Y-99262575D01*
X162287072Y-99262575D02*
X162662072Y-99912094D01*
X165519956Y-98262094D02*
X168551045Y-96512094D01*
X171408929Y-94862094D02*
X171033929Y-94212575D01*
X171037589Y-94198915D02*
X162273412Y-99258915D01*
X168551045Y-96512094D02*
X168176045Y-95862575D01*
X172158929Y-96161132D02*
X171509410Y-96536132D01*
X162273412Y-99258915D02*
X165258412Y-104429086D01*
X169475083Y-95112575D02*
X169850083Y-95762094D01*
X165258412Y-104429086D02*
X174022589Y-99369086D01*
X162959796Y-98527767D02*
X161877265Y-99152767D01*
X172984410Y-99090907D02*
X169260501Y-101240907D01*
X165536591Y-103390907D02*
X169260501Y-101240907D01*
X161877265Y-99152767D02*
X162502265Y-100235299D01*
X163412072Y-101211132D02*
X164061591Y-100836132D01*
X162662072Y-99912094D02*
X164220918Y-99012094D01*
%TO.C,MES1*%
X165100000Y-118477000D02*
X165100000Y-128637000D01*
X142240000Y-128637000D02*
X142240000Y-118477000D01*
X153670000Y-118477000D02*
X165100000Y-118477000D01*
X142240000Y-118477000D02*
X153670000Y-118477000D01*
X165100000Y-128637000D02*
X153670000Y-128637000D01*
X153670000Y-128637000D02*
X142240000Y-128637000D01*
%TO.C,R1*%
X143668000Y-93076000D02*
X143668000Y-96916000D01*
X141828000Y-93076000D02*
X141828000Y-96916000D01*
%TO.C,RV1*%
X159561000Y-106172000D02*
X149791000Y-106172000D01*
X159561000Y-111242000D02*
X159561000Y-106172000D01*
X159561000Y-111242000D02*
X149791000Y-111242000D01*
X149791000Y-111242000D02*
X149791000Y-106172000D01*
%TO.C,R2*%
X146954000Y-109632000D02*
X143114000Y-109632000D01*
X146954000Y-107792000D02*
X143114000Y-107792000D01*
%TO.C,C3*%
X162693000Y-108554000D02*
X163951000Y-108554000D01*
X162693000Y-110394000D02*
X163951000Y-110394000D01*
%TO.C,BT1*%
X134100831Y-84777198D02*
X138117198Y-80760831D01*
X134454385Y-86827808D02*
X135302913Y-85979280D01*
X139418274Y-91791697D02*
X134454385Y-86827808D01*
X135168563Y-88673356D02*
X135804959Y-88461224D01*
X135302913Y-85979280D02*
X134100831Y-84777198D01*
X135592827Y-89097620D02*
X135168563Y-88673356D01*
X139319279Y-81962913D02*
X140167808Y-81114385D01*
X140167808Y-81114385D02*
X145131697Y-86078274D01*
X138117198Y-80760831D02*
X139319279Y-81962913D01*
X135804959Y-88461224D02*
X135592827Y-89097620D01*
X145131697Y-86078274D02*
X139418274Y-91791697D01*
%TO.C,SW1*%
X133096000Y-127594000D02*
X140596000Y-127594000D01*
X133096000Y-124594000D02*
X137796000Y-124594000D01*
X140596000Y-127594000D02*
X140596000Y-106594000D01*
X125596000Y-127594000D02*
X133096000Y-127594000D01*
X137796000Y-124594000D02*
X137796000Y-109594000D01*
X128396000Y-109594000D02*
X128396000Y-124594000D01*
X137796000Y-109594000D02*
X128396000Y-109594000D01*
X125596000Y-106594000D02*
X125596000Y-127594000D01*
X128396000Y-124594000D02*
X133096000Y-124594000D01*
X140596000Y-106594000D02*
X125596000Y-106594000D01*
%TO.C,10\u03BCF*%
X152457000Y-88268000D02*
X153123000Y-88268000D01*
X155233000Y-82928000D02*
X155899000Y-82928000D01*
X155233000Y-88268000D02*
X155899000Y-88268000D01*
X155899000Y-88268000D02*
X155899000Y-82928000D01*
X152457000Y-88268000D02*
X152457000Y-82928000D01*
X152457000Y-82928000D02*
X153123000Y-82928000D01*
%TO.C,MD*%
X163800944Y-96946086D02*
X170400058Y-93136086D01*
X170400058Y-93136086D02*
X167415058Y-87965915D01*
X160419797Y-91669767D02*
X161044797Y-92752299D01*
X161502328Y-91044767D02*
X160419797Y-91669767D01*
X168536397Y-89928132D02*
X167886878Y-90303132D01*
X166227552Y-89529094D02*
X167786397Y-88629094D01*
X162388450Y-90879575D02*
X160829604Y-91779575D01*
X160829604Y-91779575D02*
X161204604Y-92429094D01*
X169361878Y-92857907D02*
X166720501Y-94382907D01*
X167411397Y-87979575D02*
X165852552Y-88879575D01*
X163687488Y-90129575D02*
X164062488Y-90779094D01*
X167786397Y-88629094D02*
X167411397Y-87979575D01*
X164553513Y-89629575D02*
X163687488Y-90129575D01*
X161204604Y-92429094D02*
X162763450Y-91529094D01*
X164928513Y-90279094D02*
X164553513Y-89629575D01*
X165852552Y-88879575D02*
X166227552Y-89529094D01*
X167415058Y-87965915D02*
X160815944Y-91775915D01*
X161954604Y-93728132D02*
X162604123Y-93353132D01*
X164079123Y-95907907D02*
X166720501Y-94382907D01*
X162604123Y-93353132D02*
X164079123Y-95907907D01*
X164062488Y-90779094D02*
X164928513Y-90279094D01*
X167886878Y-90303132D02*
X169361878Y-92857907D01*
X160815944Y-91775915D02*
X163800944Y-96946086D01*
X162763450Y-91529094D02*
X162388450Y-90879575D01*
%TD*%
M02*
