%TF.GenerationSoftware,KiCad,Pcbnew,(6.0.5)*%
%TF.CreationDate,2023-02-26T21:46:22+09:00*%
%TF.ProjectId,psu_board,7073755f-626f-4617-9264-2e6b69636164,rev?*%
%TF.SameCoordinates,Original*%
%TF.FileFunction,Copper,L1,Top*%
%TF.FilePolarity,Positive*%
%FSLAX46Y46*%
G04 Gerber Fmt 4.6, Leading zero omitted, Abs format (unit mm)*
G04 Created by KiCad (PCBNEW (6.0.5)) date 2023-02-26 21:46:22*
%MOMM*%
%LPD*%
G01*
G04 APERTURE LIST*
G04 Aperture macros list*
%AMRoundRect*
0 Rectangle with rounded corners*
0 $1 Rounding radius*
0 $2 $3 $4 $5 $6 $7 $8 $9 X,Y pos of 4 corners*
0 Add a 4 corners polygon primitive as box body*
4,1,4,$2,$3,$4,$5,$6,$7,$8,$9,$2,$3,0*
0 Add four circle primitives for the rounded corners*
1,1,$1+$1,$2,$3*
1,1,$1+$1,$4,$5*
1,1,$1+$1,$6,$7*
1,1,$1+$1,$8,$9*
0 Add four rect primitives between the rounded corners*
20,1,$1+$1,$2,$3,$4,$5,0*
20,1,$1+$1,$4,$5,$6,$7,0*
20,1,$1+$1,$6,$7,$8,$9,0*
20,1,$1+$1,$8,$9,$2,$3,0*%
%AMHorizOval*
0 Thick line with rounded ends*
0 $1 width*
0 $2 $3 position (X,Y) of the first rounded end (center of the circle)*
0 $4 $5 position (X,Y) of the second rounded end (center of the circle)*
0 Add line between two ends*
20,1,$1,$2,$3,$4,$5,0*
0 Add two circle primitives to create the rounded ends*
1,1,$1,$2,$3*
1,1,$1,$4,$5*%
%AMRotRect*
0 Rectangle, with rotation*
0 The origin of the aperture is its center*
0 $1 length*
0 $2 width*
0 $3 Rotation angle, in degrees counterclockwise*
0 Add horizontal line*
21,1,$1,$2,0,0,$3*%
%AMOutline4P*
0 Free polygon, 4 corners , with rotation*
0 The origin of the aperture is its center*
0 number of corners: always 4*
0 $1 to $8 corner X, Y*
0 $9 Rotation angle, in degrees counterclockwise*
0 create outline with 4 corners*
4,1,4,$1,$2,$3,$4,$5,$6,$7,$8,$1,$2,$9*%
G04 Aperture macros list end*
%TA.AperFunction,ComponentPad*%
%ADD10HorizOval,1.500000X-0.424264X0.424264X0.424264X-0.424264X0*%
%TD*%
%TA.AperFunction,ComponentPad*%
%ADD11RotRect,2.800000X2.800000X45.000000*%
%TD*%
%TA.AperFunction,ComponentPad*%
%ADD12HorizOval,2.800000X0.000000X0.000000X0.000000X0.000000X0*%
%TD*%
%TA.AperFunction,ComponentPad*%
%ADD13C,1.600000*%
%TD*%
%TA.AperFunction,ComponentPad*%
%ADD14RoundRect,0.250000X-0.144615X-0.949519X0.894615X-0.349519X0.144615X0.949519X-0.894615X0.349519X0*%
%TD*%
%TA.AperFunction,ComponentPad*%
%ADD15HorizOval,1.700000X-0.075000X0.129904X0.075000X-0.129904X0*%
%TD*%
%TA.AperFunction,ComponentPad*%
%ADD16C,1.635000*%
%TD*%
%TA.AperFunction,ComponentPad*%
%ADD17RoundRect,0.250000X-0.157115X-0.927868X0.882115X-0.327868X0.157115X0.927868X-0.882115X0.327868X0*%
%TD*%
%TA.AperFunction,ComponentPad*%
%ADD18HorizOval,1.700000X-0.062500X0.108253X0.062500X-0.108253X0*%
%TD*%
%TA.AperFunction,ComponentPad*%
%ADD19C,1.400000*%
%TD*%
%TA.AperFunction,ComponentPad*%
%ADD20O,1.400000X1.400000*%
%TD*%
%TA.AperFunction,ComponentPad*%
%ADD21C,1.440000*%
%TD*%
%TA.AperFunction,ComponentPad*%
%ADD22RoundRect,0.250001X0.000000X-1.555634X1.555634X0.000000X0.000000X1.555634X-1.555634X0.000000X0*%
%TD*%
%TA.AperFunction,ComponentPad*%
%ADD23C,2.700000*%
%TD*%
%TA.AperFunction,ComponentPad*%
%ADD24O,4.000000X2.000000*%
%TD*%
%TA.AperFunction,SMDPad,CuDef*%
%ADD25Outline4P,-1.500000X-0.600000X1.500000X-0.600000X1.500000X0.600000X-1.500000X0.600000X0.000000*%
%TD*%
%TA.AperFunction,SMDPad,CuDef*%
%ADD26Outline4P,-2.035000X-0.885000X2.035000X-0.885000X2.035000X0.885000X-2.035000X0.885000X0.000000*%
%TD*%
%TA.AperFunction,SMDPad,CuDef*%
%ADD27Outline4P,-0.600000X-1.500000X0.600000X-1.500000X0.600000X1.500000X-0.600000X1.500000X0.000000*%
%TD*%
%TA.AperFunction,SMDPad,CuDef*%
%ADD28Outline4P,-0.885000X-2.035000X0.885000X-2.035000X0.885000X2.035000X-0.885000X2.035000X0.000000*%
%TD*%
%TA.AperFunction,SMDPad,CuDef*%
%ADD29Outline4P,-0.750000X-0.600000X0.750000X-0.600000X0.750000X0.600000X-0.750000X0.600000X0.000000*%
%TD*%
%TA.AperFunction,SMDPad,CuDef*%
%ADD30Outline4P,-0.500000X-0.600000X0.500000X-0.600000X0.500000X0.600000X-0.500000X0.600000X0.000000*%
%TD*%
%TA.AperFunction,ComponentPad*%
%ADD31C,1.700000*%
%TD*%
%TA.AperFunction,ViaPad*%
%ADD32C,0.800000*%
%TD*%
%TA.AperFunction,Conductor*%
%ADD33C,2.000000*%
%TD*%
G04 APERTURE END LIST*
D10*
%TO.P,F1,1*%
%TO.N,Net-(BT1-Pad1)*%
X133150523Y-89571374D03*
X130534228Y-92187669D03*
%TO.P,F1,2*%
%TO.N,Net-(D1-Pad1)*%
X124877374Y-97844523D03*
X127493669Y-95228228D03*
%TD*%
D11*
%TO.P,D1,1,K*%
%TO.N,Net-(D1-Pad1)*%
X128351872Y-102026129D03*
D12*
%TO.P,D1,2,A*%
%TO.N,GND*%
X137332128Y-93045873D03*
%TD*%
D13*
%TO.P,C4,1*%
%TO.N,+3V3*%
X170063000Y-106867468D03*
%TO.P,C4,2*%
%TO.N,GND*%
X171313000Y-109032532D03*
%TD*%
D14*
%TO.P,Kiker PSU,1,Pin_1*%
%TO.N,+7.5V*%
X160706969Y-86530337D03*
D15*
%TO.P,Kiker PSU,2,Pin_2*%
%TO.N,GND*%
X162872033Y-85280337D03*
%TD*%
D13*
%TO.P,22\u03BCF,1*%
%TO.N,+7.5V*%
X149606000Y-88098000D03*
%TO.P,22\u03BCF,2*%
%TO.N,GND*%
X149606000Y-83098000D03*
%TD*%
D16*
%TO.P,SW2,1*%
%TO.N,GND*%
X138684000Y-99060000D03*
%TO.P,SW2,2*%
%TO.N,Net-(R1-Pad2)*%
X138684000Y-101600000D03*
%TO.P,SW2,3*%
%TO.N,N/C*%
X138684000Y-104140000D03*
%TD*%
D17*
%TO.P,MB,1,Pin_1*%
%TO.N,+5V*%
X165720437Y-100109337D03*
D18*
%TO.P,MB,2,Pin_2*%
%TO.N,GND*%
X167885501Y-98859337D03*
%TO.P,MB,3,Pin_3*%
%TO.N,+3V3*%
X170050564Y-97609337D03*
%TD*%
D19*
%TO.P,R1,1*%
%TO.N,+7.5V*%
X142748000Y-92456000D03*
D20*
%TO.P,R1,2*%
%TO.N,Net-(R1-Pad2)*%
X142748000Y-97536000D03*
%TD*%
D21*
%TO.P,RV1,1,1*%
%TO.N,Net-(R2-Pad1)*%
X152136000Y-108712000D03*
%TO.P,RV1,2,2*%
X154676000Y-108712000D03*
%TO.P,RV1,3,3*%
%TO.N,Net-(RV1-Pad3)*%
X157216000Y-108712000D03*
%TD*%
D19*
%TO.P,R2,1*%
%TO.N,Net-(R2-Pad1)*%
X147574000Y-108712000D03*
D20*
%TO.P,R2,2*%
%TO.N,GND*%
X142494000Y-108712000D03*
%TD*%
D13*
%TO.P,C3,1*%
%TO.N,+5V*%
X162072000Y-109474000D03*
%TO.P,C3,2*%
%TO.N,GND*%
X164572000Y-109474000D03*
%TD*%
D22*
%TO.P,BT1,1,+*%
%TO.N,Net-(BT1-Pad1)*%
X137403020Y-86863163D03*
D23*
%TO.P,BT1,2,-*%
%TO.N,GND*%
X140203163Y-84063020D03*
%TD*%
D24*
%TO.P,SW1,1*%
%TO.N,Net-(D1-Pad1)*%
X133096000Y-117094000D03*
%TO.P,SW1,2*%
%TO.N,+7.5V*%
X133096000Y-111094000D03*
%TD*%
D13*
%TO.P,10\u03BCF,1*%
%TO.N,+5V*%
X154178000Y-88098000D03*
%TO.P,10\u03BCF,2*%
%TO.N,GND*%
X154178000Y-83098000D03*
%TD*%
D25*
%TO.P,U1,1,ON/OFF_CTRL*%
%TO.N,Net-(R1-Pad2)*%
X146038000Y-97536000D03*
%TO.P,U1,2,VIN*%
%TO.N,+7.5V*%
X146038000Y-92956000D03*
D26*
X148203000Y-92956000D03*
D27*
X149348000Y-91936000D03*
%TO.P,U1,3,GND*%
%TO.N,GND*%
X153928000Y-91936000D03*
X151638000Y-91936000D03*
D26*
X152783000Y-92956000D03*
D28*
%TO.P,U1,4,VOUT*%
%TO.N,+5V*%
X156238000Y-94101000D03*
D25*
X157238000Y-92956000D03*
%TO.P,U1,5,SENSE*%
X157238000Y-97536000D03*
%TO.P,U1,6,TRIM*%
%TO.N,Net-(RV1-Pad3)*%
X157238000Y-102116000D03*
D27*
%TO.P,U1,7,GND*%
%TO.N,GND*%
X151638000Y-103136000D03*
%TO.P,U1,8*%
%TO.N,N/C*%
X149348000Y-103136000D03*
D25*
%TO.P,U1,9*%
X146038000Y-102116000D03*
%TO.P,U1,10,PG_OUT*%
%TO.N,unconnected-(U1-Pad10)*%
X146038000Y-99826000D03*
D29*
%TO.P,U1,11*%
%TO.N,N/C*%
X157988000Y-99826000D03*
D27*
%TO.P,U1,12*%
X153928000Y-103136000D03*
D30*
%TO.P,U1,13*%
X156238000Y-99826000D03*
%TD*%
D14*
%TO.P,MD,1,Pin_1*%
%TO.N,+7.5V*%
X164262969Y-92626337D03*
D15*
%TO.P,MD,2,Pin_2*%
%TO.N,GND*%
X166428033Y-91376337D03*
%TD*%
D31*
%TO.P,U2,1,VIN*%
%TO.N,+5V*%
X160782000Y-113792000D03*
%TO.P,U2,2,VOUT*%
%TO.N,+3V3*%
X165862000Y-113792000D03*
%TO.P,U2,3,GND*%
%TO.N,GND*%
X163322000Y-113792000D03*
%TD*%
D32*
%TO.N,Net-(BT1-Pad1)*%
X134728948Y-87992948D03*
X131934948Y-90786948D03*
%TO.N,GND*%
X158496000Y-110998000D03*
X160909000Y-100457000D03*
X168402000Y-90297000D03*
X159639000Y-108585000D03*
X163322000Y-111506000D03*
X122174000Y-103632000D03*
X151638000Y-105918000D03*
X136144000Y-111252000D03*
X136652000Y-101092000D03*
X139700000Y-92202000D03*
X166116000Y-97536000D03*
X132842000Y-113538000D03*
X140843000Y-79248000D03*
X164338000Y-104648000D03*
X152781000Y-94996000D03*
X144526000Y-110998000D03*
X155448000Y-103632000D03*
X143002000Y-85852000D03*
X147574000Y-103632000D03*
X149098000Y-115316000D03*
X146050000Y-115316000D03*
X154686000Y-110998000D03*
X168148000Y-94361000D03*
X151892000Y-88138000D03*
X153670000Y-116586000D03*
X151638000Y-100076000D03*
X133096000Y-120142000D03*
X173101000Y-101346000D03*
X137668000Y-115443000D03*
X137033000Y-123952000D03*
X158242000Y-94996000D03*
X165862000Y-108204000D03*
X131572000Y-98552000D03*
X158369000Y-117221000D03*
X164084000Y-107696000D03*
X151892000Y-83058000D03*
X143002000Y-115316000D03*
X174879000Y-105664000D03*
X158496000Y-114046000D03*
X140716000Y-98806000D03*
X141097000Y-110998000D03*
X127508000Y-109220000D03*
X140716000Y-103632000D03*
X136906000Y-83312000D03*
X145923000Y-83693000D03*
X133350000Y-86614000D03*
X127762000Y-92456000D03*
X150876000Y-110998000D03*
X135382000Y-91186000D03*
X147447000Y-95250000D03*
X135128000Y-109220000D03*
X131318000Y-102362000D03*
X158242000Y-91186000D03*
X167894000Y-111887000D03*
X171958000Y-96520000D03*
X139954000Y-115443000D03*
X131318000Y-109220000D03*
X127508000Y-104648000D03*
X164592000Y-88265000D03*
X130302000Y-94996000D03*
X138557000Y-107569000D03*
X163322000Y-117221000D03*
X164719000Y-84074000D03*
X147574000Y-110998000D03*
X143510000Y-102870000D03*
X159004000Y-87630000D03*
X163068000Y-94996000D03*
X139192000Y-89408000D03*
X129032000Y-116459000D03*
X159639000Y-104267000D03*
X129159000Y-123825000D03*
X156718000Y-87630000D03*
X131318000Y-105918000D03*
X167894000Y-101092000D03*
X134874000Y-95504000D03*
X157734000Y-81915000D03*
X167894000Y-105918000D03*
X142748000Y-95250000D03*
X135128000Y-102616000D03*
X121920000Y-98298000D03*
%TO.N,+7.5V*%
X158750000Y-85598000D03*
X161701225Y-88234775D03*
X133096000Y-104140000D03*
X142748000Y-90170000D03*
X133096000Y-106172000D03*
X145034000Y-87884000D03*
X162543435Y-89678565D03*
X141194758Y-93696758D03*
X156464000Y-85598000D03*
X134590758Y-100300758D03*
X136114758Y-98776758D03*
X151892000Y-85598000D03*
X163292067Y-90961933D03*
X139416758Y-95474758D03*
X133096000Y-101854000D03*
X137638758Y-97252758D03*
X147320000Y-85598000D03*
X154178000Y-85598000D03*
X133096000Y-108204000D03*
X149606000Y-85598000D03*
%TO.N,Net-(D1-Pad1)*%
X147574000Y-113245489D03*
X126219948Y-96501948D03*
X141478000Y-113245489D03*
X150622000Y-113245489D03*
X135636000Y-114554000D03*
X129540000Y-106172000D03*
X136906000Y-113284000D03*
X149098000Y-113245489D03*
X126446871Y-100121129D03*
X129540000Y-113792000D03*
X153583511Y-113245489D03*
X143002000Y-113245489D03*
X129540000Y-112014000D03*
X154686000Y-114300000D03*
X129540000Y-110236000D03*
X138430000Y-113245489D03*
X129540000Y-104140000D03*
X146050000Y-113245489D03*
X152146000Y-113245489D03*
X130937000Y-115189000D03*
X144526000Y-113245489D03*
X139954000Y-113245489D03*
X129540000Y-108204000D03*
%TD*%
D33*
%TO.N,Net-(BT1-Pad1)*%
X134728948Y-87992948D02*
X133150523Y-89571374D01*
X135858734Y-86863163D02*
X134728948Y-87992948D01*
X131934948Y-90786948D02*
X130534228Y-92187669D01*
X133150523Y-89571374D02*
X131934948Y-90786948D01*
X137403020Y-86863163D02*
X135858734Y-86863163D01*
%TO.N,+7.5V*%
X146038000Y-92956000D02*
X143248000Y-92956000D01*
X142748000Y-92456000D02*
X142748000Y-90170000D01*
X141194758Y-93696758D02*
X142435515Y-92456000D01*
X149348000Y-91936000D02*
X143268000Y-91936000D01*
X156464000Y-85598000D02*
X158750000Y-85598000D01*
X142435515Y-92456000D02*
X142748000Y-92456000D01*
X160706969Y-86530337D02*
X161701225Y-88234775D01*
X133096000Y-101795515D02*
X134590758Y-100300758D01*
X151892000Y-85598000D02*
X154178000Y-85598000D01*
X133096000Y-104140000D02*
X133096000Y-101854000D01*
X159774632Y-85598000D02*
X160706969Y-86530337D01*
X158750000Y-85598000D02*
X159774632Y-85598000D01*
X163292067Y-90961933D02*
X164262969Y-92626337D01*
X142748000Y-90170000D02*
X145034000Y-87884000D01*
X149606000Y-91678000D02*
X149348000Y-91936000D01*
X143268000Y-91936000D02*
X142748000Y-92456000D01*
X147320000Y-85598000D02*
X149606000Y-85598000D01*
X137638758Y-97252758D02*
X139416758Y-95474758D01*
X145034000Y-87884000D02*
X147320000Y-85598000D01*
X139416758Y-95474758D02*
X141194758Y-93696758D01*
X161701225Y-88234775D02*
X163292067Y-90961933D01*
X133096000Y-101854000D02*
X133096000Y-101795515D01*
X133096000Y-111094000D02*
X133096000Y-108204000D01*
X134590758Y-100300758D02*
X136114758Y-98776758D01*
X149606000Y-85598000D02*
X151892000Y-85598000D01*
X154178000Y-85598000D02*
X156464000Y-85598000D01*
X133096000Y-106172000D02*
X133096000Y-104140000D01*
X143248000Y-92956000D02*
X142748000Y-92456000D01*
X133096000Y-108204000D02*
X133096000Y-106172000D01*
X136114758Y-98776758D02*
X137638758Y-97252758D01*
X149606000Y-88098000D02*
X149606000Y-91678000D01*
%TO.N,+5V*%
X157238000Y-97536000D02*
X163147100Y-97536000D01*
X156238000Y-94101000D02*
X156238000Y-90158000D01*
X156238000Y-94101000D02*
X156238000Y-96536000D01*
X162072000Y-103757774D02*
X162072000Y-109474000D01*
X160782000Y-110764000D02*
X160782000Y-113792000D01*
X163147100Y-97536000D02*
X165720437Y-100109337D01*
X156238000Y-90158000D02*
X154178000Y-88098000D01*
X165720437Y-100109337D02*
X162072000Y-103757774D01*
X156238000Y-96536000D02*
X157238000Y-97536000D01*
X162072000Y-109474000D02*
X160782000Y-110764000D01*
%TO.N,Net-(D1-Pad1)*%
X153670000Y-113284000D02*
X154686000Y-114300000D01*
X136906000Y-113284000D02*
X153670000Y-113284000D01*
X135636000Y-114554000D02*
X136906000Y-113284000D01*
X129540000Y-112014000D02*
X129540000Y-113792000D01*
X129540000Y-113792000D02*
X130937000Y-115189000D01*
X129540000Y-103214257D02*
X129540000Y-104140000D01*
X129540000Y-106172000D02*
X129540000Y-108204000D01*
X124877374Y-98551631D02*
X126446871Y-100121129D01*
X126446871Y-100121129D02*
X128351872Y-102026129D01*
X129540000Y-104140000D02*
X129540000Y-106172000D01*
X130937000Y-115189000D02*
X132842000Y-117094000D01*
X129540000Y-110236000D02*
X129540000Y-112014000D01*
X132842000Y-117094000D02*
X133096000Y-117094000D01*
X127493669Y-95228228D02*
X126219948Y-96501948D01*
X128351872Y-102026129D02*
X129540000Y-103214257D01*
X133096000Y-117094000D02*
X135636000Y-114554000D01*
X124877374Y-97844523D02*
X124877374Y-98551631D01*
X126219948Y-96501948D02*
X124877374Y-97844523D01*
X129540000Y-108204000D02*
X129540000Y-110236000D01*
%TO.N,Net-(R2-Pad1)*%
X152136000Y-108712000D02*
X147574000Y-108712000D01*
X154676000Y-108712000D02*
X152136000Y-108712000D01*
%TO.N,Net-(RV1-Pad3)*%
X157238000Y-102116000D02*
X157238000Y-108690000D01*
X157238000Y-108690000D02*
X157216000Y-108712000D01*
%TO.N,+3V3*%
X170063000Y-106867468D02*
X165862000Y-111068468D01*
X165862000Y-111068468D02*
X165862000Y-113792000D01*
X170050564Y-97609337D02*
X170050564Y-106855032D01*
X170050564Y-106855032D02*
X170063000Y-106867468D01*
%TO.N,Net-(R1-Pad2)*%
X142748000Y-100584000D02*
X141732000Y-101600000D01*
X141732000Y-101600000D02*
X138684000Y-101600000D01*
X142748000Y-97536000D02*
X142748000Y-100584000D01*
X146038000Y-97536000D02*
X142748000Y-97536000D01*
%TD*%
%TA.AperFunction,Conductor*%
%TO.N,GND*%
G36*
X142223865Y-77732928D02*
G01*
X142415901Y-77759695D01*
X142433405Y-77763418D01*
X142584739Y-77807039D01*
X142605950Y-77815995D01*
X142606138Y-77815597D01*
X142610538Y-77817675D01*
X142614768Y-77820088D01*
X142620388Y-77822229D01*
X142620625Y-77822360D01*
X142620889Y-77822419D01*
X142626498Y-77824556D01*
X142631258Y-77825568D01*
X142633553Y-77826245D01*
X142639688Y-77828226D01*
X143796779Y-78234822D01*
X143854416Y-78276276D01*
X143880492Y-78342311D01*
X143866727Y-78411960D01*
X143817491Y-78463111D01*
X143785982Y-78474934D01*
X143786178Y-78475649D01*
X143522028Y-78547912D01*
X143518080Y-78549596D01*
X143274082Y-78653670D01*
X143274078Y-78653672D01*
X143270130Y-78655356D01*
X143151514Y-78726346D01*
X143038825Y-78793788D01*
X143038821Y-78793791D01*
X143035143Y-78795992D01*
X142821418Y-78967218D01*
X142632908Y-79165866D01*
X142473102Y-79388260D01*
X142344957Y-79630285D01*
X142343485Y-79634308D01*
X142343483Y-79634312D01*
X142300972Y-79750479D01*
X142250843Y-79887461D01*
X142192504Y-80155031D01*
X142171017Y-80428042D01*
X142171434Y-80435280D01*
X142186782Y-80701444D01*
X142239505Y-80970177D01*
X142240892Y-80974227D01*
X142240893Y-80974232D01*
X142312675Y-81183889D01*
X142328212Y-81229268D01*
X142357338Y-81287178D01*
X142426937Y-81425561D01*
X142451260Y-81473923D01*
X142453686Y-81477452D01*
X142453689Y-81477458D01*
X142603943Y-81696077D01*
X142606374Y-81699614D01*
X142790682Y-81902167D01*
X143000775Y-82077831D01*
X143004416Y-82080115D01*
X143229124Y-82221075D01*
X143229128Y-82221077D01*
X143232764Y-82223358D01*
X143331121Y-82267768D01*
X143478445Y-82334288D01*
X143478449Y-82334290D01*
X143482357Y-82336054D01*
X143486477Y-82337274D01*
X143486476Y-82337274D01*
X143740823Y-82412615D01*
X143740827Y-82412616D01*
X143744936Y-82413833D01*
X143749170Y-82414481D01*
X143749175Y-82414482D01*
X144011398Y-82454607D01*
X144011400Y-82454607D01*
X144015640Y-82455256D01*
X144155012Y-82457446D01*
X144285171Y-82459491D01*
X144285177Y-82459491D01*
X144289462Y-82459558D01*
X144561335Y-82426658D01*
X144826227Y-82357165D01*
X144830187Y-82355525D01*
X144830192Y-82355523D01*
X145008618Y-82281616D01*
X145079236Y-82252365D01*
X145315682Y-82114197D01*
X145447309Y-82010988D01*
X148884576Y-82010988D01*
X148891644Y-82024434D01*
X149593188Y-82725978D01*
X149607132Y-82733592D01*
X149608965Y-82733461D01*
X149615580Y-82729210D01*
X150321077Y-82023713D01*
X150327507Y-82011938D01*
X150326772Y-82010988D01*
X153456576Y-82010988D01*
X153463644Y-82024434D01*
X154165188Y-82725978D01*
X154179132Y-82733592D01*
X154180965Y-82733461D01*
X154187580Y-82729210D01*
X154893077Y-82023713D01*
X154899507Y-82011938D01*
X154890211Y-81999923D01*
X154839006Y-81964069D01*
X154829511Y-81958586D01*
X154632053Y-81866510D01*
X154621761Y-81862764D01*
X154411312Y-81806375D01*
X154400519Y-81804472D01*
X154183475Y-81785483D01*
X154172525Y-81785483D01*
X153955481Y-81804472D01*
X153944688Y-81806375D01*
X153734239Y-81862764D01*
X153723947Y-81866510D01*
X153526489Y-81958586D01*
X153516994Y-81964069D01*
X153464952Y-82000509D01*
X153456576Y-82010988D01*
X150326772Y-82010988D01*
X150318211Y-81999923D01*
X150267006Y-81964069D01*
X150257511Y-81958586D01*
X150060053Y-81866510D01*
X150049761Y-81862764D01*
X149839312Y-81806375D01*
X149828519Y-81804472D01*
X149611475Y-81785483D01*
X149600525Y-81785483D01*
X149383481Y-81804472D01*
X149372688Y-81806375D01*
X149162239Y-81862764D01*
X149151947Y-81866510D01*
X148954489Y-81958586D01*
X148944994Y-81964069D01*
X148892952Y-82000509D01*
X148884576Y-82010988D01*
X145447309Y-82010988D01*
X145531189Y-81945218D01*
X145572909Y-81902167D01*
X145718786Y-81751633D01*
X145721769Y-81748555D01*
X145724302Y-81745107D01*
X145724306Y-81745102D01*
X145881357Y-81531302D01*
X145883895Y-81527847D01*
X145911254Y-81477458D01*
X146012518Y-81290954D01*
X146012519Y-81290952D01*
X146014568Y-81287178D01*
X146068954Y-81143249D01*
X146109851Y-81035019D01*
X146109852Y-81035015D01*
X146111369Y-81031001D01*
X146158918Y-80823391D01*
X146171549Y-80768241D01*
X146171550Y-80768237D01*
X146172507Y-80764057D01*
X146178762Y-80693979D01*
X146196631Y-80493751D01*
X146196631Y-80493749D01*
X146196851Y-80491285D01*
X146197293Y-80449124D01*
X146195846Y-80427902D01*
X146178959Y-80180179D01*
X146178958Y-80180173D01*
X146178667Y-80175902D01*
X146123132Y-79907736D01*
X146031717Y-79649589D01*
X145906113Y-79406236D01*
X145898439Y-79395316D01*
X145825119Y-79290993D01*
X145748645Y-79182181D01*
X145621953Y-79045844D01*
X145590236Y-78982329D01*
X145597892Y-78911746D01*
X145642493Y-78856508D01*
X145709878Y-78834151D01*
X145749404Y-78839077D01*
X146213710Y-78973955D01*
X146213724Y-78973959D01*
X146214561Y-78974202D01*
X146215403Y-78974422D01*
X146215419Y-78974426D01*
X147429283Y-79290993D01*
X147429305Y-79290998D01*
X147430124Y-79291212D01*
X147430959Y-79291405D01*
X147430974Y-79291409D01*
X148653152Y-79574363D01*
X148653173Y-79574368D01*
X148653974Y-79574553D01*
X148654762Y-79574713D01*
X148654782Y-79574717D01*
X149878603Y-79822677D01*
X149885177Y-79824009D01*
X149886045Y-79824160D01*
X149886050Y-79824161D01*
X151121927Y-80039239D01*
X151121943Y-80039242D01*
X151122796Y-80039390D01*
X151123639Y-80039513D01*
X151123665Y-80039517D01*
X152059607Y-80175902D01*
X152365887Y-80220533D01*
X152366784Y-80220638D01*
X152366780Y-80220638D01*
X153612651Y-80367198D01*
X153612684Y-80367201D01*
X153613505Y-80367298D01*
X153614338Y-80367373D01*
X153614350Y-80367374D01*
X154863849Y-80479499D01*
X154863856Y-80479500D01*
X154864697Y-80479575D01*
X154865508Y-80479625D01*
X154865544Y-80479628D01*
X156117637Y-80557224D01*
X156117653Y-80557225D01*
X156118512Y-80557278D01*
X156686470Y-80576762D01*
X157373108Y-80600317D01*
X157373136Y-80600318D01*
X157373994Y-80600347D01*
X157374890Y-80600353D01*
X158629280Y-80608744D01*
X158629284Y-80608744D01*
X158630186Y-80608750D01*
X158631090Y-80608731D01*
X158631102Y-80608731D01*
X159885243Y-80582499D01*
X159885272Y-80582498D01*
X159886132Y-80582480D01*
X160409369Y-80557075D01*
X161140053Y-80521598D01*
X161140063Y-80521597D01*
X161140874Y-80521558D01*
X161867635Y-80466131D01*
X162368906Y-80427902D01*
X162376921Y-80427595D01*
X162381024Y-80427910D01*
X162387016Y-80427444D01*
X162387284Y-80427461D01*
X162387546Y-80427402D01*
X162393539Y-80426936D01*
X162398276Y-80425816D01*
X162398283Y-80425815D01*
X162404391Y-80424371D01*
X162431004Y-80421013D01*
X162563065Y-80418524D01*
X162595885Y-80417905D01*
X162613753Y-80418839D01*
X162653562Y-80423772D01*
X162806172Y-80442684D01*
X162823726Y-80446140D01*
X163010823Y-80497001D01*
X163027698Y-80502903D01*
X163205715Y-80579763D01*
X163221594Y-80588003D01*
X163386908Y-80689291D01*
X163401462Y-80699698D01*
X163479148Y-80764057D01*
X163550768Y-80823391D01*
X163563702Y-80835756D01*
X163693981Y-80979353D01*
X163705032Y-80993426D01*
X163727613Y-81026813D01*
X163795420Y-81127070D01*
X163803883Y-81143249D01*
X163807806Y-81150240D01*
X163811045Y-81158612D01*
X163816504Y-81165738D01*
X163816505Y-81165741D01*
X163830405Y-81183889D01*
X163839495Y-81197506D01*
X178494090Y-106580011D01*
X178510828Y-106649006D01*
X178487608Y-106716098D01*
X178431800Y-106759985D01*
X178361125Y-106766734D01*
X178350458Y-106764191D01*
X178104560Y-106694146D01*
X178100318Y-106693542D01*
X178100312Y-106693541D01*
X177867191Y-106660363D01*
X177833437Y-106655559D01*
X177689583Y-106654806D01*
X177563871Y-106654148D01*
X177563865Y-106654148D01*
X177559585Y-106654126D01*
X177555341Y-106654685D01*
X177555337Y-106654685D01*
X177436296Y-106670357D01*
X177288072Y-106689871D01*
X177283932Y-106691004D01*
X177283930Y-106691004D01*
X177264853Y-106696223D01*
X177023922Y-106762134D01*
X177007424Y-106769171D01*
X176775976Y-106867892D01*
X176775972Y-106867894D01*
X176772024Y-106869578D01*
X176679564Y-106924914D01*
X176540719Y-107008010D01*
X176540715Y-107008013D01*
X176537037Y-107010214D01*
X176323312Y-107181440D01*
X176244600Y-107264385D01*
X176143605Y-107370812D01*
X176134802Y-107380088D01*
X175974996Y-107602482D01*
X175846851Y-107844507D01*
X175845379Y-107848530D01*
X175845377Y-107848534D01*
X175805228Y-107958245D01*
X175752737Y-108101683D01*
X175694398Y-108369253D01*
X175672911Y-108642264D01*
X175673328Y-108649502D01*
X175688676Y-108915666D01*
X175741399Y-109184399D01*
X175742786Y-109188449D01*
X175742787Y-109188454D01*
X175828717Y-109439434D01*
X175830106Y-109443490D01*
X175861227Y-109505367D01*
X175936865Y-109655757D01*
X175953154Y-109688145D01*
X175955580Y-109691674D01*
X175955583Y-109691680D01*
X176082956Y-109877007D01*
X176108268Y-109913836D01*
X176111155Y-109917009D01*
X176111156Y-109917010D01*
X176278098Y-110100478D01*
X176292576Y-110116389D01*
X176295871Y-110119144D01*
X176295872Y-110119145D01*
X176337140Y-110153650D01*
X176502669Y-110292053D01*
X176506310Y-110294337D01*
X176731018Y-110435297D01*
X176731022Y-110435299D01*
X176734658Y-110437580D01*
X176984251Y-110550276D01*
X176987165Y-110551139D01*
X177043799Y-110593452D01*
X177068672Y-110659949D01*
X177053646Y-110729337D01*
X177006002Y-110778175D01*
X173651449Y-112714927D01*
X168951586Y-115428394D01*
X168932609Y-115437334D01*
X168918358Y-115442648D01*
X168918350Y-115442651D01*
X168913798Y-115444349D01*
X168902851Y-115450493D01*
X168899024Y-115453499D01*
X168896812Y-115454976D01*
X168890086Y-115459743D01*
X168571286Y-115662838D01*
X168569111Y-115664507D01*
X168261118Y-115900837D01*
X168261112Y-115900842D01*
X168258950Y-115902501D01*
X167968690Y-116168474D01*
X167966839Y-116170494D01*
X167966836Y-116170497D01*
X167780569Y-116373771D01*
X167702716Y-116458732D01*
X167654590Y-116521451D01*
X167464723Y-116768888D01*
X167464715Y-116768900D01*
X167463051Y-116771068D01*
X167251521Y-117103103D01*
X167183374Y-117234012D01*
X167154941Y-117288631D01*
X167069734Y-117452310D01*
X166919075Y-117816033D01*
X166918249Y-117818653D01*
X166918246Y-117818661D01*
X166801597Y-118188622D01*
X166800689Y-118191502D01*
X166715479Y-118575861D01*
X166715121Y-118578581D01*
X166715120Y-118578586D01*
X166711008Y-118609820D01*
X166664092Y-118966183D01*
X166646919Y-119359499D01*
X166664092Y-119752815D01*
X166715479Y-120143138D01*
X166800689Y-120527496D01*
X166919074Y-120902966D01*
X166920122Y-120905497D01*
X166920126Y-120905507D01*
X167017074Y-121139557D01*
X167069734Y-121266688D01*
X167237199Y-121588385D01*
X167240784Y-121596447D01*
X167240815Y-121596433D01*
X167242870Y-121600864D01*
X167244567Y-121605416D01*
X167250711Y-121616363D01*
X167253715Y-121620187D01*
X167267951Y-121638310D01*
X167277984Y-121653143D01*
X168170537Y-123199090D01*
X171567376Y-129082589D01*
X171584114Y-129151584D01*
X171560894Y-129218676D01*
X171505086Y-129262563D01*
X171440504Y-129270332D01*
X171244029Y-129242369D01*
X171100175Y-129241616D01*
X170974463Y-129240958D01*
X170974457Y-129240958D01*
X170970177Y-129240936D01*
X170965933Y-129241495D01*
X170965929Y-129241495D01*
X170863220Y-129255017D01*
X170698664Y-129276681D01*
X170694524Y-129277814D01*
X170694522Y-129277814D01*
X170656616Y-129288184D01*
X170434514Y-129348944D01*
X170430566Y-129350628D01*
X170186568Y-129454702D01*
X170186564Y-129454704D01*
X170182616Y-129456388D01*
X170095723Y-129508392D01*
X169951311Y-129594820D01*
X169951307Y-129594823D01*
X169947629Y-129597024D01*
X169733904Y-129768250D01*
X169545394Y-129966898D01*
X169385588Y-130189292D01*
X169257443Y-130431317D01*
X169255971Y-130435340D01*
X169255969Y-130435344D01*
X169213458Y-130551511D01*
X169163329Y-130688493D01*
X169104990Y-130956063D01*
X169083503Y-131229074D01*
X169083920Y-131236312D01*
X169099268Y-131502476D01*
X169151991Y-131771209D01*
X169153378Y-131775259D01*
X169153379Y-131775264D01*
X169231561Y-132003613D01*
X169240698Y-132030300D01*
X169302222Y-132152628D01*
X169339423Y-132226593D01*
X169363746Y-132274955D01*
X169366172Y-132278484D01*
X169366175Y-132278490D01*
X169510316Y-132488215D01*
X169518860Y-132500646D01*
X169703168Y-132703199D01*
X169706463Y-132705954D01*
X169711015Y-132709760D01*
X169750445Y-132768800D01*
X169751696Y-132839786D01*
X169714370Y-132900179D01*
X169645589Y-132931479D01*
X169489130Y-132950741D01*
X169389055Y-132963062D01*
X169386662Y-132963332D01*
X168943490Y-133009143D01*
X167479521Y-133160473D01*
X167477075Y-133160702D01*
X165566443Y-133320634D01*
X165563994Y-133320815D01*
X163650604Y-133443478D01*
X163648152Y-133443611D01*
X161732788Y-133528954D01*
X161730333Y-133529040D01*
X159813567Y-133577038D01*
X159811121Y-133577075D01*
X159254189Y-133580163D01*
X157893884Y-133587704D01*
X157891428Y-133587694D01*
X155974305Y-133560953D01*
X155971849Y-133560895D01*
X154055605Y-133496792D01*
X154053152Y-133496686D01*
X152138523Y-133395246D01*
X152136072Y-133395092D01*
X150223783Y-133256354D01*
X150221335Y-133256152D01*
X149027973Y-133146154D01*
X148312128Y-133080170D01*
X148309736Y-133079927D01*
X146404232Y-132866756D01*
X146401876Y-132866469D01*
X145509869Y-132749034D01*
X144500958Y-132616208D01*
X144498526Y-132615864D01*
X143363790Y-132443911D01*
X142602800Y-132328594D01*
X142600437Y-132328212D01*
X141357575Y-132115015D01*
X140710703Y-132004052D01*
X140708287Y-132003613D01*
X138981424Y-131672622D01*
X138825294Y-131642696D01*
X138822915Y-131642217D01*
X137103825Y-131277840D01*
X136947219Y-131244646D01*
X136944821Y-131244113D01*
X136083850Y-131044012D01*
X135077312Y-130810079D01*
X135074933Y-130809502D01*
X135064588Y-130806884D01*
X134580854Y-130684473D01*
X133216174Y-130339134D01*
X133213800Y-130338508D01*
X131364634Y-129832021D01*
X131362271Y-129831349D01*
X129523276Y-129288902D01*
X129520928Y-129288184D01*
X129365064Y-129238887D01*
X128931382Y-129101721D01*
X141731024Y-129101721D01*
X141733491Y-129110352D01*
X141739150Y-129130153D01*
X141742728Y-129146915D01*
X141746920Y-129176187D01*
X141750634Y-129184355D01*
X141750634Y-129184356D01*
X141757548Y-129199562D01*
X141763996Y-129217086D01*
X141771051Y-129241771D01*
X141775843Y-129249365D01*
X141775844Y-129249368D01*
X141786830Y-129266780D01*
X141794969Y-129281863D01*
X141807208Y-129308782D01*
X141813069Y-129315584D01*
X141823970Y-129328235D01*
X141835073Y-129343239D01*
X141848776Y-129364958D01*
X141855501Y-129370897D01*
X141855504Y-129370901D01*
X141870938Y-129384532D01*
X141882982Y-129396724D01*
X141896427Y-129412327D01*
X141896430Y-129412329D01*
X141902287Y-129419127D01*
X141909816Y-129424007D01*
X141909817Y-129424008D01*
X141923835Y-129433094D01*
X141938709Y-129444385D01*
X141950392Y-129454702D01*
X141957951Y-129461378D01*
X141984711Y-129473942D01*
X141999691Y-129482263D01*
X142016983Y-129493471D01*
X142016988Y-129493473D01*
X142024515Y-129498352D01*
X142033108Y-129500922D01*
X142033113Y-129500924D01*
X142049120Y-129505711D01*
X142066564Y-129512372D01*
X142081676Y-129519467D01*
X142081678Y-129519468D01*
X142089800Y-129523281D01*
X142098667Y-129524662D01*
X142098668Y-129524662D01*
X142101353Y-129525080D01*
X142119017Y-129527830D01*
X142135732Y-129531613D01*
X142155466Y-129537515D01*
X142155472Y-129537516D01*
X142164066Y-129540086D01*
X142173037Y-129540141D01*
X142173038Y-129540141D01*
X142183097Y-129540202D01*
X142198506Y-129540296D01*
X142199289Y-129540329D01*
X142200386Y-129540500D01*
X142231377Y-129540500D01*
X142232147Y-129540502D01*
X142305785Y-129540952D01*
X142305786Y-129540952D01*
X142309721Y-129540976D01*
X142311065Y-129540592D01*
X142312410Y-129540500D01*
X165091377Y-129540500D01*
X165092148Y-129540502D01*
X165169721Y-129540976D01*
X165198152Y-129532850D01*
X165214915Y-129529272D01*
X165215753Y-129529152D01*
X165244187Y-129525080D01*
X165267564Y-129514451D01*
X165285087Y-129508004D01*
X165309771Y-129500949D01*
X165317365Y-129496157D01*
X165317368Y-129496156D01*
X165334780Y-129485170D01*
X165349865Y-129477030D01*
X165376782Y-129464792D01*
X165396235Y-129448030D01*
X165411239Y-129436927D01*
X165432958Y-129423224D01*
X165438897Y-129416499D01*
X165438901Y-129416496D01*
X165452532Y-129401062D01*
X165464724Y-129389018D01*
X165480327Y-129375573D01*
X165480329Y-129375570D01*
X165487127Y-129369713D01*
X165499498Y-129350628D01*
X165501094Y-129348165D01*
X165512385Y-129333291D01*
X165523431Y-129320783D01*
X165523432Y-129320782D01*
X165529378Y-129314049D01*
X165541943Y-129287287D01*
X165550263Y-129272309D01*
X165561471Y-129255017D01*
X165561473Y-129255012D01*
X165566352Y-129247485D01*
X165568922Y-129238892D01*
X165568924Y-129238887D01*
X165573711Y-129222880D01*
X165580372Y-129205436D01*
X165587467Y-129190324D01*
X165587468Y-129190322D01*
X165591281Y-129182200D01*
X165595830Y-129152983D01*
X165599613Y-129136268D01*
X165605515Y-129116534D01*
X165605516Y-129116528D01*
X165608086Y-129107934D01*
X165608296Y-129073494D01*
X165608329Y-129072711D01*
X165608500Y-129071614D01*
X165608500Y-129040623D01*
X165608502Y-129039853D01*
X165608952Y-128966215D01*
X165608952Y-128966214D01*
X165608976Y-128962279D01*
X165608592Y-128960935D01*
X165608500Y-128959590D01*
X165608500Y-118626623D01*
X165608502Y-118625853D01*
X165608800Y-118577102D01*
X165608976Y-118548279D01*
X165600850Y-118519847D01*
X165597272Y-118503085D01*
X165594352Y-118482698D01*
X165593080Y-118473813D01*
X165582451Y-118450436D01*
X165576004Y-118432913D01*
X165571416Y-118416862D01*
X165568949Y-118408229D01*
X165564156Y-118400632D01*
X165553170Y-118383220D01*
X165545030Y-118368135D01*
X165544114Y-118366120D01*
X165532792Y-118341218D01*
X165516030Y-118321765D01*
X165504927Y-118306761D01*
X165491224Y-118285042D01*
X165484499Y-118279103D01*
X165484496Y-118279099D01*
X165469062Y-118265468D01*
X165457018Y-118253276D01*
X165443573Y-118237673D01*
X165443570Y-118237671D01*
X165437713Y-118230873D01*
X165424009Y-118221990D01*
X165416165Y-118216906D01*
X165401291Y-118205615D01*
X165388783Y-118194569D01*
X165388782Y-118194568D01*
X165382049Y-118188622D01*
X165355287Y-118176057D01*
X165340309Y-118167737D01*
X165323017Y-118156529D01*
X165323012Y-118156527D01*
X165315485Y-118151648D01*
X165306892Y-118149078D01*
X165306887Y-118149076D01*
X165290880Y-118144289D01*
X165273436Y-118137628D01*
X165258324Y-118130533D01*
X165258322Y-118130532D01*
X165250200Y-118126719D01*
X165241333Y-118125338D01*
X165241332Y-118125338D01*
X165230478Y-118123648D01*
X165220983Y-118122170D01*
X165204268Y-118118387D01*
X165184534Y-118112485D01*
X165184528Y-118112484D01*
X165175934Y-118109914D01*
X165166963Y-118109859D01*
X165166962Y-118109859D01*
X165156903Y-118109798D01*
X165141494Y-118109704D01*
X165140711Y-118109671D01*
X165139614Y-118109500D01*
X165108623Y-118109500D01*
X165107853Y-118109498D01*
X165034215Y-118109048D01*
X165034214Y-118109048D01*
X165030279Y-118109024D01*
X165028935Y-118109408D01*
X165027590Y-118109500D01*
X142248623Y-118109500D01*
X142247853Y-118109498D01*
X142247037Y-118109493D01*
X142170279Y-118109024D01*
X142147918Y-118115415D01*
X142141847Y-118117150D01*
X142125085Y-118120728D01*
X142095813Y-118124920D01*
X142087645Y-118128634D01*
X142087644Y-118128634D01*
X142072438Y-118135548D01*
X142054914Y-118141996D01*
X142030229Y-118149051D01*
X142022635Y-118153843D01*
X142022632Y-118153844D01*
X142005220Y-118164830D01*
X141990137Y-118172969D01*
X141963218Y-118185208D01*
X141956416Y-118191069D01*
X141943765Y-118201970D01*
X141928761Y-118213073D01*
X141907042Y-118226776D01*
X141901103Y-118233501D01*
X141901099Y-118233504D01*
X141887468Y-118248938D01*
X141875276Y-118260982D01*
X141859673Y-118274427D01*
X141859671Y-118274430D01*
X141852873Y-118280287D01*
X141847993Y-118287816D01*
X141847992Y-118287817D01*
X141838906Y-118301835D01*
X141827615Y-118316709D01*
X141816569Y-118329217D01*
X141810622Y-118335951D01*
X141804312Y-118349391D01*
X141798058Y-118362711D01*
X141789737Y-118377691D01*
X141778529Y-118394983D01*
X141778527Y-118394988D01*
X141773648Y-118402515D01*
X141771078Y-118411108D01*
X141771076Y-118411113D01*
X141766289Y-118427120D01*
X141759628Y-118444564D01*
X141754337Y-118455834D01*
X141748719Y-118467800D01*
X141747338Y-118476667D01*
X141747338Y-118476668D01*
X141744170Y-118497015D01*
X141740387Y-118513732D01*
X141734485Y-118533466D01*
X141734484Y-118533472D01*
X141731914Y-118542066D01*
X141731859Y-118551037D01*
X141731859Y-118551038D01*
X141731704Y-118576497D01*
X141731671Y-118577289D01*
X141731500Y-118578386D01*
X141731500Y-118609377D01*
X141731498Y-118610147D01*
X141731024Y-118687721D01*
X141731408Y-118689065D01*
X141731500Y-118690410D01*
X141731500Y-129023377D01*
X141731498Y-129024147D01*
X141731024Y-129101721D01*
X128931382Y-129101721D01*
X127692885Y-128710006D01*
X127690636Y-128709271D01*
X126785144Y-128403341D01*
X125874121Y-128095542D01*
X125871802Y-128094733D01*
X124805978Y-127711331D01*
X124067626Y-127445728D01*
X124065402Y-127444903D01*
X122274277Y-126760879D01*
X122271991Y-126759981D01*
X122029510Y-126661921D01*
X121973856Y-126617839D01*
X121950871Y-126550666D01*
X121967850Y-126481730D01*
X122013177Y-126436323D01*
X122193862Y-126330739D01*
X122193863Y-126330738D01*
X122197565Y-126328575D01*
X122413072Y-126159596D01*
X122603652Y-125962933D01*
X122606185Y-125959485D01*
X122606189Y-125959480D01*
X122763240Y-125745680D01*
X122765778Y-125742225D01*
X122821315Y-125639939D01*
X122894401Y-125505332D01*
X122894402Y-125505330D01*
X122896451Y-125501556D01*
X122993252Y-125245379D01*
X123034156Y-125066781D01*
X123053432Y-124982619D01*
X123053433Y-124982615D01*
X123054390Y-124978435D01*
X123062893Y-124883167D01*
X123078514Y-124708129D01*
X123078514Y-124708127D01*
X123078734Y-124705663D01*
X123079176Y-124663502D01*
X123078232Y-124649658D01*
X123060842Y-124394557D01*
X123060841Y-124394551D01*
X123060550Y-124390280D01*
X123005015Y-124122114D01*
X122913600Y-123863967D01*
X122787996Y-123620614D01*
X122770129Y-123595191D01*
X122632991Y-123400064D01*
X122630528Y-123396559D01*
X122444108Y-123195947D01*
X122440793Y-123193233D01*
X122440789Y-123193230D01*
X122235506Y-123025208D01*
X122232188Y-123022492D01*
X121998687Y-122879403D01*
X121993810Y-122877262D01*
X121751856Y-122771051D01*
X121751852Y-122771050D01*
X121747928Y-122769327D01*
X121484549Y-122694302D01*
X121480307Y-122693698D01*
X121480301Y-122693697D01*
X121285127Y-122665920D01*
X121245135Y-122660228D01*
X121180512Y-122630827D01*
X121142044Y-122571156D01*
X121141942Y-122500159D01*
X121173794Y-122446390D01*
X124146447Y-119473738D01*
X127232867Y-116387318D01*
X127248882Y-116373771D01*
X127249212Y-116373536D01*
X127265239Y-116362125D01*
X127274223Y-116353358D01*
X127277140Y-116349466D01*
X127279005Y-116347341D01*
X127284114Y-116341181D01*
X127322945Y-116298805D01*
X127539535Y-116062438D01*
X127663536Y-115900837D01*
X127777529Y-115752277D01*
X127779198Y-115750102D01*
X127990728Y-115418067D01*
X128172514Y-115068859D01*
X128249305Y-114883469D01*
X128293853Y-114828188D01*
X128361217Y-114805767D01*
X128430008Y-114823325D01*
X128460228Y-114848362D01*
X128485350Y-114876858D01*
X128485353Y-114876861D01*
X128488698Y-114880655D01*
X128492612Y-114883870D01*
X128492613Y-114883871D01*
X128520987Y-114907178D01*
X128530107Y-114915448D01*
X129913463Y-116298805D01*
X129913468Y-116298809D01*
X130551948Y-116937289D01*
X130585974Y-116999601D01*
X130588723Y-117032099D01*
X130583743Y-117141762D01*
X130583743Y-117141769D01*
X130583514Y-117146817D01*
X130584095Y-117151837D01*
X130584095Y-117151841D01*
X130599923Y-117288631D01*
X130611415Y-117387956D01*
X130612791Y-117392820D01*
X130612792Y-117392823D01*
X130658476Y-117554266D01*
X130677510Y-117621532D01*
X130679644Y-117626108D01*
X130679646Y-117626114D01*
X130769432Y-117818661D01*
X130780099Y-117841536D01*
X130916544Y-118042307D01*
X131083332Y-118218681D01*
X131087358Y-118221759D01*
X131087359Y-118221760D01*
X131272154Y-118363047D01*
X131272158Y-118363050D01*
X131276174Y-118366120D01*
X131280632Y-118368510D01*
X131280633Y-118368511D01*
X131370807Y-118416862D01*
X131490109Y-118480831D01*
X131719631Y-118559862D01*
X131796701Y-118573174D01*
X131954926Y-118600504D01*
X131954932Y-118600505D01*
X131958836Y-118601179D01*
X131962797Y-118601359D01*
X131962798Y-118601359D01*
X131986506Y-118602436D01*
X131986525Y-118602436D01*
X131987925Y-118602500D01*
X132790108Y-118602500D01*
X132798019Y-118602749D01*
X132868413Y-118607178D01*
X132909992Y-118603101D01*
X132922288Y-118602500D01*
X133071984Y-118602500D01*
X133075502Y-118602549D01*
X133170150Y-118605193D01*
X133170153Y-118605193D01*
X133175205Y-118605334D01*
X133188150Y-118603607D01*
X133204812Y-118602500D01*
X134157001Y-118602500D01*
X134159509Y-118602298D01*
X134159514Y-118602298D01*
X134332924Y-118588346D01*
X134332929Y-118588345D01*
X134337965Y-118587940D01*
X134342873Y-118586734D01*
X134342876Y-118586734D01*
X134568792Y-118531244D01*
X134573706Y-118530037D01*
X134578358Y-118528062D01*
X134578362Y-118528061D01*
X134761229Y-118450438D01*
X134797156Y-118435188D01*
X134903634Y-118368135D01*
X134998288Y-118308528D01*
X134998291Y-118308526D01*
X135002567Y-118305833D01*
X135092240Y-118226776D01*
X135180858Y-118148650D01*
X135180861Y-118148647D01*
X135184655Y-118145302D01*
X135189484Y-118139423D01*
X135335526Y-117961628D01*
X135335528Y-117961625D01*
X135338734Y-117957722D01*
X135460841Y-117747922D01*
X135547833Y-117521298D01*
X135548868Y-117516345D01*
X135596440Y-117288631D01*
X135596440Y-117288627D01*
X135597474Y-117283680D01*
X135608486Y-117041183D01*
X135581645Y-116809203D01*
X135593685Y-116739235D01*
X135617715Y-116705626D01*
X136745804Y-115577537D01*
X137493937Y-114829405D01*
X137556249Y-114795379D01*
X137583032Y-114792500D01*
X152992969Y-114792500D01*
X153061090Y-114812502D01*
X153082064Y-114829405D01*
X153662464Y-115409805D01*
X153664374Y-115411431D01*
X153664381Y-115411437D01*
X153763538Y-115495826D01*
X153800720Y-115527470D01*
X154008358Y-115653221D01*
X154233429Y-115744155D01*
X154238360Y-115745275D01*
X154238359Y-115745275D01*
X154465213Y-115796815D01*
X154465216Y-115796816D01*
X154470144Y-115797935D01*
X154475191Y-115798253D01*
X154475194Y-115798253D01*
X154695650Y-115812123D01*
X154704562Y-115812684D01*
X154707359Y-115812860D01*
X154712413Y-115813178D01*
X154900476Y-115794737D01*
X154948975Y-115789982D01*
X154948976Y-115789982D01*
X154954002Y-115789489D01*
X155188696Y-115727481D01*
X155410456Y-115628746D01*
X155613578Y-115495826D01*
X155792836Y-115332142D01*
X155943618Y-115141902D01*
X156062045Y-114930002D01*
X156115823Y-114782250D01*
X156143339Y-114706652D01*
X156143340Y-114706647D01*
X156145070Y-114701895D01*
X156162252Y-114611826D01*
X156189607Y-114468422D01*
X156190556Y-114463447D01*
X156197334Y-114220795D01*
X156165229Y-113980180D01*
X156151007Y-113933074D01*
X156096532Y-113752643D01*
X156096530Y-113752639D01*
X156095067Y-113747792D01*
X155988654Y-113529612D01*
X155848726Y-113331253D01*
X155829091Y-113309750D01*
X154753675Y-112234334D01*
X154751221Y-112231812D01*
X154686138Y-112162988D01*
X154686135Y-112162986D01*
X154682668Y-112159319D01*
X154620239Y-112111589D01*
X154615108Y-112107448D01*
X154559133Y-112059809D01*
X154559132Y-112059808D01*
X154555280Y-112056530D01*
X154550955Y-112053911D01*
X154550950Y-112053907D01*
X154527176Y-112039509D01*
X154515929Y-112031837D01*
X154489826Y-112011880D01*
X154420592Y-111974757D01*
X154414868Y-111971493D01*
X154347642Y-111930779D01*
X154317181Y-111918472D01*
X154304841Y-111912692D01*
X154301350Y-111910820D01*
X154275891Y-111897169D01*
X154271110Y-111895523D01*
X154271106Y-111895521D01*
X154201599Y-111871588D01*
X154195421Y-111869278D01*
X154127266Y-111841742D01*
X154127267Y-111841742D01*
X154122571Y-111839845D01*
X154090539Y-111832568D01*
X154077441Y-111828837D01*
X154046369Y-111818138D01*
X153968900Y-111804757D01*
X153962496Y-111803477D01*
X153885856Y-111786065D01*
X153853047Y-111784001D01*
X153839547Y-111782415D01*
X153807164Y-111776821D01*
X153803207Y-111776641D01*
X153803204Y-111776641D01*
X153779494Y-111775564D01*
X153779475Y-111775564D01*
X153778075Y-111775500D01*
X153721892Y-111775500D01*
X153713980Y-111775251D01*
X153708386Y-111774899D01*
X153643587Y-111770822D01*
X153604545Y-111774650D01*
X153602008Y-111774899D01*
X153589712Y-111775500D01*
X136930002Y-111775500D01*
X136926483Y-111775451D01*
X136831850Y-111772807D01*
X136831847Y-111772807D01*
X136826795Y-111772666D01*
X136748902Y-111783059D01*
X136742361Y-111783758D01*
X136717617Y-111785749D01*
X136669077Y-111789654D01*
X136669073Y-111789655D01*
X136664035Y-111790060D01*
X136632122Y-111797899D01*
X136618742Y-111800426D01*
X136586180Y-111804771D01*
X136581339Y-111806232D01*
X136581337Y-111806233D01*
X136510971Y-111827478D01*
X136504610Y-111829219D01*
X136428294Y-111847963D01*
X136423634Y-111849941D01*
X136398049Y-111860801D01*
X136385239Y-111865438D01*
X136353792Y-111874933D01*
X136349244Y-111877151D01*
X136349237Y-111877154D01*
X136283182Y-111909371D01*
X136277180Y-111912107D01*
X136233192Y-111930779D01*
X136204844Y-111942812D01*
X136188104Y-111953354D01*
X136177044Y-111960319D01*
X136165140Y-111966945D01*
X136135612Y-111981346D01*
X136131475Y-111984265D01*
X136131474Y-111984265D01*
X136071403Y-112026641D01*
X136065914Y-112030301D01*
X136028429Y-112053907D01*
X135999433Y-112072167D01*
X135995644Y-112075508D01*
X135995638Y-112075512D01*
X135974783Y-112093898D01*
X135964088Y-112102344D01*
X135937253Y-112121274D01*
X135915750Y-112140909D01*
X135876034Y-112180625D01*
X135870264Y-112186044D01*
X135821142Y-112229350D01*
X135821139Y-112229353D01*
X135817345Y-112232698D01*
X135814135Y-112236606D01*
X135814134Y-112236607D01*
X135790821Y-112264989D01*
X135782551Y-112274108D01*
X133058095Y-114998564D01*
X132995783Y-115032590D01*
X132924968Y-115027525D01*
X132879905Y-114998564D01*
X131085405Y-113204064D01*
X131051379Y-113141752D01*
X131048500Y-113114969D01*
X131048500Y-112446991D01*
X131068502Y-112378870D01*
X131122158Y-112332377D01*
X131192432Y-112322273D01*
X131251027Y-112346894D01*
X131276174Y-112366120D01*
X131280632Y-112368510D01*
X131280633Y-112368511D01*
X131399953Y-112432490D01*
X131490109Y-112480831D01*
X131719631Y-112559862D01*
X131818978Y-112577022D01*
X131954926Y-112600504D01*
X131954932Y-112600505D01*
X131958836Y-112601179D01*
X131962797Y-112601359D01*
X131962798Y-112601359D01*
X131986506Y-112602436D01*
X131986525Y-112602436D01*
X131987925Y-112602500D01*
X133058188Y-112602500D01*
X133063903Y-112602630D01*
X133148817Y-112606486D01*
X133153837Y-112605905D01*
X133153841Y-112605905D01*
X133176050Y-112603335D01*
X133190532Y-112602500D01*
X134157001Y-112602500D01*
X134159509Y-112602298D01*
X134159514Y-112602298D01*
X134332924Y-112588346D01*
X134332929Y-112588345D01*
X134337965Y-112587940D01*
X134342873Y-112586734D01*
X134342876Y-112586734D01*
X134568792Y-112531244D01*
X134573706Y-112530037D01*
X134578358Y-112528062D01*
X134578362Y-112528061D01*
X134792498Y-112437165D01*
X134797156Y-112435188D01*
X134903037Y-112368511D01*
X134998288Y-112308528D01*
X134998291Y-112308526D01*
X135002567Y-112305833D01*
X135144589Y-112180625D01*
X135180858Y-112148650D01*
X135180861Y-112148647D01*
X135184655Y-112145302D01*
X135187866Y-112141393D01*
X135335526Y-111961628D01*
X135335528Y-111961625D01*
X135338734Y-111957722D01*
X135443629Y-111777495D01*
X135458299Y-111752290D01*
X135458300Y-111752288D01*
X135460841Y-111747922D01*
X135547833Y-111521298D01*
X135597474Y-111283680D01*
X135608486Y-111041183D01*
X135607905Y-111036159D01*
X135581167Y-110805071D01*
X135581166Y-110805067D01*
X135580585Y-110800044D01*
X135555339Y-110710824D01*
X135515866Y-110571331D01*
X135514490Y-110566468D01*
X135512356Y-110561892D01*
X135512354Y-110561886D01*
X135414038Y-110351046D01*
X135414036Y-110351042D01*
X135411901Y-110346464D01*
X135397549Y-110325345D01*
X135338582Y-110238579D01*
X135275456Y-110145693D01*
X135108668Y-109969319D01*
X135044800Y-109920488D01*
X134919846Y-109824953D01*
X134919842Y-109824950D01*
X134915826Y-109821880D01*
X134910254Y-109818892D01*
X134706352Y-109709561D01*
X134701891Y-109707169D01*
X134689479Y-109702895D01*
X134631582Y-109661806D01*
X134605090Y-109595937D01*
X134604500Y-109583760D01*
X134604500Y-108978522D01*
X141314801Y-108978522D01*
X141353092Y-109121423D01*
X141356842Y-109131727D01*
X141441521Y-109313323D01*
X141446998Y-109322811D01*
X141561925Y-109486942D01*
X141568981Y-109495350D01*
X141710650Y-109637019D01*
X141719058Y-109644075D01*
X141883189Y-109759002D01*
X141892677Y-109764479D01*
X142074273Y-109849158D01*
X142084577Y-109852908D01*
X142222503Y-109889866D01*
X142236599Y-109889530D01*
X142240000Y-109881588D01*
X142240000Y-109876439D01*
X142748000Y-109876439D01*
X142751973Y-109889970D01*
X142760522Y-109891199D01*
X142903423Y-109852908D01*
X142913727Y-109849158D01*
X143095323Y-109764479D01*
X143104811Y-109759002D01*
X143268942Y-109644075D01*
X143277350Y-109637019D01*
X143419019Y-109495350D01*
X143426075Y-109486942D01*
X143541002Y-109322811D01*
X143546479Y-109313323D01*
X143631158Y-109131727D01*
X143634908Y-109121423D01*
X143671866Y-108983497D01*
X143671530Y-108969401D01*
X143663588Y-108966000D01*
X142766115Y-108966000D01*
X142750876Y-108970475D01*
X142749671Y-108971865D01*
X142748000Y-108979548D01*
X142748000Y-109876439D01*
X142240000Y-109876439D01*
X142240000Y-108984115D01*
X142235525Y-108968876D01*
X142234135Y-108967671D01*
X142226452Y-108966000D01*
X141329561Y-108966000D01*
X141316030Y-108969973D01*
X141314801Y-108978522D01*
X134604500Y-108978522D01*
X134604500Y-108440503D01*
X141316134Y-108440503D01*
X141316470Y-108454599D01*
X141324412Y-108458000D01*
X142221885Y-108458000D01*
X142237124Y-108453525D01*
X142238329Y-108452135D01*
X142240000Y-108444452D01*
X142240000Y-108439885D01*
X142748000Y-108439885D01*
X142752475Y-108455124D01*
X142753865Y-108456329D01*
X142761548Y-108458000D01*
X143658439Y-108458000D01*
X143671970Y-108454027D01*
X143673199Y-108445478D01*
X143634908Y-108302577D01*
X143631158Y-108292273D01*
X143546479Y-108110677D01*
X143541002Y-108101189D01*
X143426075Y-107937058D01*
X143419019Y-107928650D01*
X143277350Y-107786981D01*
X143268942Y-107779925D01*
X143104811Y-107664998D01*
X143095323Y-107659521D01*
X142913727Y-107574842D01*
X142903423Y-107571092D01*
X142765497Y-107534134D01*
X142751401Y-107534470D01*
X142748000Y-107542412D01*
X142748000Y-108439885D01*
X142240000Y-108439885D01*
X142240000Y-107547561D01*
X142236027Y-107534030D01*
X142227478Y-107532801D01*
X142084577Y-107571092D01*
X142074273Y-107574842D01*
X141892677Y-107659521D01*
X141883189Y-107664998D01*
X141719058Y-107779925D01*
X141710650Y-107786981D01*
X141568981Y-107928650D01*
X141561925Y-107937058D01*
X141446998Y-108101189D01*
X141441521Y-108110677D01*
X141356842Y-108292273D01*
X141353092Y-108302577D01*
X141316134Y-108440503D01*
X134604500Y-108440503D01*
X134604500Y-102472546D01*
X134624502Y-102404425D01*
X134641405Y-102383451D01*
X135155222Y-101869635D01*
X135372040Y-101652817D01*
X137171514Y-101652817D01*
X137172095Y-101657837D01*
X137172095Y-101657841D01*
X137197080Y-101873774D01*
X137199415Y-101893956D01*
X137200791Y-101898820D01*
X137200792Y-101898823D01*
X137234301Y-102017240D01*
X137265510Y-102127532D01*
X137267644Y-102132108D01*
X137267646Y-102132114D01*
X137352409Y-102313889D01*
X137368099Y-102347536D01*
X137370940Y-102351717D01*
X137370941Y-102351718D01*
X137388099Y-102376965D01*
X137504544Y-102548307D01*
X137671332Y-102724681D01*
X137675358Y-102727759D01*
X137675359Y-102727760D01*
X137780947Y-102808488D01*
X137864174Y-102872120D01*
X137868637Y-102874513D01*
X137872890Y-102877254D01*
X137871163Y-102879933D01*
X137912975Y-102918826D01*
X137930564Y-102987609D01*
X137908173Y-103054983D01*
X137876914Y-103086381D01*
X137828408Y-103120345D01*
X137664345Y-103284408D01*
X137531264Y-103474468D01*
X137528943Y-103479446D01*
X137528941Y-103479449D01*
X137461270Y-103624570D01*
X137433208Y-103684749D01*
X137431786Y-103690057D01*
X137431785Y-103690059D01*
X137395423Y-103825766D01*
X137373157Y-103908863D01*
X137352935Y-104140000D01*
X137373157Y-104371137D01*
X137374581Y-104376450D01*
X137374581Y-104376452D01*
X137376233Y-104382615D01*
X137433208Y-104595251D01*
X137435530Y-104600232D01*
X137435531Y-104600233D01*
X137499988Y-104738460D01*
X137531264Y-104805532D01*
X137664345Y-104995592D01*
X137828408Y-105159655D01*
X137832916Y-105162812D01*
X137832919Y-105162814D01*
X137912278Y-105218381D01*
X138018467Y-105292736D01*
X138023449Y-105295059D01*
X138023454Y-105295062D01*
X138223767Y-105388469D01*
X138228749Y-105390792D01*
X138234057Y-105392214D01*
X138234059Y-105392215D01*
X138447548Y-105449419D01*
X138447550Y-105449419D01*
X138452863Y-105450843D01*
X138684000Y-105471065D01*
X138915137Y-105450843D01*
X138920450Y-105449419D01*
X138920452Y-105449419D01*
X139133941Y-105392215D01*
X139133943Y-105392214D01*
X139139251Y-105390792D01*
X139144233Y-105388469D01*
X139344546Y-105295062D01*
X139344551Y-105295059D01*
X139349533Y-105292736D01*
X139455722Y-105218381D01*
X139535081Y-105162814D01*
X139535084Y-105162812D01*
X139539592Y-105159655D01*
X139703655Y-104995592D01*
X139836736Y-104805532D01*
X139868013Y-104738460D01*
X139932469Y-104600233D01*
X139932470Y-104600232D01*
X139934792Y-104595251D01*
X139991768Y-104382615D01*
X139993419Y-104376452D01*
X139993419Y-104376450D01*
X139994843Y-104371137D01*
X140015065Y-104140000D01*
X139994843Y-103908863D01*
X139972577Y-103825766D01*
X139936215Y-103690059D01*
X139936214Y-103690057D01*
X139934792Y-103684749D01*
X139906730Y-103624570D01*
X139839059Y-103479449D01*
X139839057Y-103479446D01*
X139836736Y-103474468D01*
X139719313Y-103306770D01*
X139696625Y-103239496D01*
X139713910Y-103170636D01*
X139765680Y-103122052D01*
X139822526Y-103108500D01*
X141707984Y-103108500D01*
X141711502Y-103108549D01*
X141806150Y-103111193D01*
X141806153Y-103111193D01*
X141811205Y-103111334D01*
X141816774Y-103110591D01*
X141832077Y-103108549D01*
X141889098Y-103100941D01*
X141895639Y-103100242D01*
X141924332Y-103097933D01*
X141968923Y-103094346D01*
X141968927Y-103094345D01*
X141973965Y-103093940D01*
X142005878Y-103086101D01*
X142019258Y-103083574D01*
X142051820Y-103079229D01*
X142056661Y-103077768D01*
X142056663Y-103077767D01*
X142127029Y-103056522D01*
X142133392Y-103054781D01*
X142150374Y-103050610D01*
X142209706Y-103036037D01*
X142239952Y-103023199D01*
X142252763Y-103018561D01*
X142279362Y-103010530D01*
X142284208Y-103009067D01*
X142288756Y-103006849D01*
X142288763Y-103006846D01*
X142354818Y-102974629D01*
X142360820Y-102971893D01*
X142426307Y-102944095D01*
X142433156Y-102941188D01*
X142460956Y-102923681D01*
X142472860Y-102917055D01*
X142502388Y-102902654D01*
X142566600Y-102857357D01*
X142572086Y-102853699D01*
X142634286Y-102814529D01*
X142634287Y-102814528D01*
X142638567Y-102811833D01*
X142642356Y-102808492D01*
X142642362Y-102808488D01*
X142663217Y-102790102D01*
X142673912Y-102781656D01*
X142693935Y-102767531D01*
X142700747Y-102762726D01*
X142715650Y-102749118D01*
X142721187Y-102744062D01*
X142721195Y-102744054D01*
X142722250Y-102743091D01*
X142761966Y-102703375D01*
X142767736Y-102697956D01*
X142816858Y-102654650D01*
X142816861Y-102654647D01*
X142820655Y-102651302D01*
X142832446Y-102636948D01*
X142847179Y-102619011D01*
X142855449Y-102609892D01*
X143797666Y-101667675D01*
X143800189Y-101665221D01*
X143816928Y-101649392D01*
X143880166Y-101617120D01*
X143950813Y-101624161D01*
X144006438Y-101668279D01*
X144029500Y-101740941D01*
X144029500Y-102764134D01*
X144036255Y-102826316D01*
X144087385Y-102962705D01*
X144174739Y-103079261D01*
X144291295Y-103166615D01*
X144427684Y-103217745D01*
X144489866Y-103224500D01*
X147586134Y-103224500D01*
X147648316Y-103217745D01*
X147784705Y-103166615D01*
X147901261Y-103079261D01*
X147988615Y-102962705D01*
X147995518Y-102944292D01*
X148038159Y-102887527D01*
X148104720Y-102862827D01*
X148174069Y-102878034D01*
X148224188Y-102928320D01*
X148239500Y-102988521D01*
X148239500Y-104684134D01*
X148246255Y-104746316D01*
X148297385Y-104882705D01*
X148384739Y-104999261D01*
X148501295Y-105086615D01*
X148637684Y-105137745D01*
X148699866Y-105144500D01*
X149996134Y-105144500D01*
X150058316Y-105137745D01*
X150194705Y-105086615D01*
X150311261Y-104999261D01*
X150392487Y-104890882D01*
X150449346Y-104848367D01*
X150520165Y-104843341D01*
X150582458Y-104877401D01*
X150594140Y-104890883D01*
X150669716Y-104991725D01*
X150682276Y-105004285D01*
X150784351Y-105080786D01*
X150799946Y-105089324D01*
X150920394Y-105134478D01*
X150935649Y-105138105D01*
X150986514Y-105143631D01*
X150993328Y-105144000D01*
X151365885Y-105144000D01*
X151381124Y-105139525D01*
X151382329Y-105138135D01*
X151384000Y-105130452D01*
X151384000Y-101146116D01*
X151379525Y-101130877D01*
X151378135Y-101129672D01*
X151370452Y-101128001D01*
X150993331Y-101128001D01*
X150986510Y-101128371D01*
X150935648Y-101133895D01*
X150920396Y-101137521D01*
X150799946Y-101182676D01*
X150784351Y-101191214D01*
X150682276Y-101267715D01*
X150669716Y-101280275D01*
X150594140Y-101381117D01*
X150537281Y-101423633D01*
X150466462Y-101428659D01*
X150404169Y-101394599D01*
X150392487Y-101381118D01*
X150316643Y-101279920D01*
X150316642Y-101279919D01*
X150311261Y-101272739D01*
X150194705Y-101185385D01*
X150058316Y-101134255D01*
X149996134Y-101127500D01*
X148699866Y-101127500D01*
X148637684Y-101134255D01*
X148501295Y-101185385D01*
X148384739Y-101272739D01*
X148297385Y-101389295D01*
X148294233Y-101397704D01*
X148294232Y-101397705D01*
X148281737Y-101431035D01*
X148239096Y-101487800D01*
X148172534Y-101512500D01*
X148103185Y-101497293D01*
X148053067Y-101447007D01*
X148041172Y-101415953D01*
X148040598Y-101413540D01*
X148039745Y-101405684D01*
X148035590Y-101394599D01*
X147991767Y-101277703D01*
X147988615Y-101269295D01*
X147901261Y-101152739D01*
X147793299Y-101071826D01*
X147750784Y-101014967D01*
X147745758Y-100944148D01*
X147779818Y-100881855D01*
X147793299Y-100870174D01*
X147819688Y-100850397D01*
X147901261Y-100789261D01*
X147988615Y-100672705D01*
X148039745Y-100536316D01*
X148046500Y-100474134D01*
X148046500Y-99177866D01*
X148039745Y-99115684D01*
X147988615Y-98979295D01*
X147901261Y-98862739D01*
X147793299Y-98781826D01*
X147750784Y-98724967D01*
X147745758Y-98654148D01*
X147779818Y-98591855D01*
X147793299Y-98580174D01*
X147865150Y-98526325D01*
X147901261Y-98499261D01*
X147988615Y-98382705D01*
X148039745Y-98246316D01*
X148046500Y-98184134D01*
X148046500Y-96887866D01*
X148039745Y-96825684D01*
X147988615Y-96689295D01*
X147901261Y-96572739D01*
X147784705Y-96485385D01*
X147648316Y-96434255D01*
X147586134Y-96427500D01*
X147114480Y-96427500D01*
X147046359Y-96407498D01*
X147037951Y-96401596D01*
X146861846Y-96266953D01*
X146861840Y-96266949D01*
X146857826Y-96263880D01*
X146788600Y-96226761D01*
X146648352Y-96151561D01*
X146648350Y-96151560D01*
X146643891Y-96149169D01*
X146414369Y-96070138D01*
X146293623Y-96049282D01*
X146179074Y-96029496D01*
X146179068Y-96029495D01*
X146175164Y-96028821D01*
X146171203Y-96028641D01*
X146171202Y-96028641D01*
X146147494Y-96027564D01*
X146147475Y-96027564D01*
X146146075Y-96027500D01*
X142785812Y-96027500D01*
X142780096Y-96027370D01*
X142695183Y-96023514D01*
X142690163Y-96024095D01*
X142690159Y-96024095D01*
X142650871Y-96028641D01*
X142602944Y-96034186D01*
X142598593Y-96034613D01*
X142506035Y-96042060D01*
X142488029Y-96046482D01*
X142472467Y-96049282D01*
X142459071Y-96050833D01*
X142459068Y-96050834D01*
X142454044Y-96051415D01*
X142449182Y-96052791D01*
X142449181Y-96052791D01*
X142364710Y-96076693D01*
X142360460Y-96077816D01*
X142270294Y-96099963D01*
X142265641Y-96101938D01*
X142265638Y-96101939D01*
X142259457Y-96104563D01*
X142253222Y-96107209D01*
X142238311Y-96112461D01*
X142220468Y-96117510D01*
X142215893Y-96119644D01*
X142215886Y-96119646D01*
X142179111Y-96136795D01*
X142136318Y-96156750D01*
X142132327Y-96158527D01*
X142046844Y-96194812D01*
X142042572Y-96197502D01*
X142042563Y-96197507D01*
X142031154Y-96204692D01*
X142017260Y-96212267D01*
X142000464Y-96220099D01*
X141996277Y-96222944D01*
X141996276Y-96222945D01*
X141923680Y-96272281D01*
X141920001Y-96274689D01*
X141861057Y-96311809D01*
X141841433Y-96324167D01*
X141837649Y-96327503D01*
X141837645Y-96327506D01*
X141827521Y-96336432D01*
X141815024Y-96346125D01*
X141799693Y-96356544D01*
X141796016Y-96360021D01*
X141796010Y-96360026D01*
X141732265Y-96420308D01*
X141729016Y-96423275D01*
X141663137Y-96481354D01*
X141663131Y-96481360D01*
X141659345Y-96484698D01*
X141656139Y-96488601D01*
X141656137Y-96488603D01*
X141647574Y-96499028D01*
X141636789Y-96510594D01*
X141623319Y-96523332D01*
X141601752Y-96551541D01*
X141566945Y-96597066D01*
X141564214Y-96600513D01*
X141537218Y-96633378D01*
X141505266Y-96672278D01*
X141495938Y-96688306D01*
X141487146Y-96701439D01*
X141475880Y-96716174D01*
X141473490Y-96720632D01*
X141473489Y-96720633D01*
X141432011Y-96797990D01*
X141429871Y-96801819D01*
X141421329Y-96816496D01*
X141391942Y-96866988D01*
X141383159Y-96882078D01*
X141381345Y-96886803D01*
X141381339Y-96886816D01*
X141376516Y-96899382D01*
X141369929Y-96913771D01*
X141361169Y-96930109D01*
X141359524Y-96934887D01*
X141359519Y-96934898D01*
X141330936Y-97017910D01*
X141329432Y-97022043D01*
X141297982Y-97103972D01*
X141297980Y-97103980D01*
X141296167Y-97108702D01*
X141295132Y-97113657D01*
X141292378Y-97126839D01*
X141288177Y-97142092D01*
X141282138Y-97159631D01*
X141266324Y-97251187D01*
X141265511Y-97255446D01*
X141247560Y-97341368D01*
X141247559Y-97341374D01*
X141246526Y-97346320D01*
X141246297Y-97351367D01*
X141246296Y-97351373D01*
X141245685Y-97364836D01*
X141243977Y-97380561D01*
X141240821Y-97398836D01*
X141239500Y-97427925D01*
X141239500Y-97498188D01*
X141239370Y-97503903D01*
X141235514Y-97588817D01*
X141236095Y-97593837D01*
X141236095Y-97593841D01*
X141238665Y-97616050D01*
X141239500Y-97630532D01*
X141239500Y-99906969D01*
X141219498Y-99975090D01*
X141202595Y-99996064D01*
X141144064Y-100054595D01*
X141081752Y-100088621D01*
X141054969Y-100091500D01*
X139821916Y-100091500D01*
X139753795Y-100071498D01*
X139707302Y-100017842D01*
X139697198Y-99947568D01*
X139718703Y-99893230D01*
X139833141Y-99729795D01*
X139838627Y-99720294D01*
X139931995Y-99520064D01*
X139935743Y-99509768D01*
X139992926Y-99296360D01*
X139994828Y-99285573D01*
X140014084Y-99065475D01*
X140014084Y-99054525D01*
X139994828Y-98834427D01*
X139992926Y-98823640D01*
X139935743Y-98610232D01*
X139931995Y-98599936D01*
X139838627Y-98399706D01*
X139833144Y-98390211D01*
X139794055Y-98334386D01*
X139783578Y-98326011D01*
X139770131Y-98333079D01*
X137956358Y-100146852D01*
X137948744Y-100160796D01*
X137950724Y-100188488D01*
X137953770Y-100196273D01*
X137939786Y-100265878D01*
X137895393Y-100313883D01*
X137781712Y-100385472D01*
X137781709Y-100385474D01*
X137777433Y-100388167D01*
X137773639Y-100391512D01*
X137599142Y-100545350D01*
X137599139Y-100545353D01*
X137595345Y-100548698D01*
X137592135Y-100552606D01*
X137592134Y-100552607D01*
X137459324Y-100714294D01*
X137441266Y-100736278D01*
X137410429Y-100789261D01*
X137325898Y-100934500D01*
X137319159Y-100946078D01*
X137317346Y-100950801D01*
X137241521Y-101148335D01*
X137232167Y-101172702D01*
X137231133Y-101177652D01*
X137231132Y-101177655D01*
X137183883Y-101403826D01*
X137182526Y-101410320D01*
X137171514Y-101652817D01*
X135372040Y-101652817D01*
X137330976Y-99693881D01*
X137393288Y-99659855D01*
X137464104Y-99664920D01*
X137520939Y-99707467D01*
X137529192Y-99719979D01*
X137534855Y-99729789D01*
X137573945Y-99785614D01*
X137584422Y-99793989D01*
X137597869Y-99786921D01*
X139411642Y-97973148D01*
X139418072Y-97961373D01*
X139408779Y-97949360D01*
X139353781Y-97910849D01*
X139343977Y-97905189D01*
X139294984Y-97853807D01*
X139281548Y-97784093D01*
X139307934Y-97718182D01*
X139317882Y-97706975D01*
X142614860Y-94409997D01*
X142677172Y-94375971D01*
X142751154Y-94382267D01*
X142795429Y-94400155D01*
X142800369Y-94401277D01*
X142800368Y-94401277D01*
X142827460Y-94407432D01*
X142840559Y-94411163D01*
X142871631Y-94421862D01*
X142949100Y-94435243D01*
X142955504Y-94436523D01*
X143032144Y-94453935D01*
X143064953Y-94455999D01*
X143078453Y-94457585D01*
X143110836Y-94463179D01*
X143114793Y-94463359D01*
X143114796Y-94463359D01*
X143138506Y-94464436D01*
X143138525Y-94464436D01*
X143139925Y-94464500D01*
X143196108Y-94464500D01*
X143204019Y-94464749D01*
X143274413Y-94469178D01*
X143315992Y-94465101D01*
X143328288Y-94464500D01*
X146099001Y-94464500D01*
X146101509Y-94464298D01*
X146101514Y-94464298D01*
X146274924Y-94450346D01*
X146274929Y-94450345D01*
X146279965Y-94449940D01*
X146284873Y-94448734D01*
X146284876Y-94448734D01*
X146510792Y-94393244D01*
X146515706Y-94392037D01*
X146520358Y-94390062D01*
X146520362Y-94390061D01*
X146592321Y-94359516D01*
X146641553Y-94349500D01*
X150286134Y-94349500D01*
X150348316Y-94342745D01*
X150449484Y-94304819D01*
X150520289Y-94299636D01*
X150537942Y-94304819D01*
X150630394Y-94339478D01*
X150645649Y-94343105D01*
X150696514Y-94348631D01*
X150703328Y-94349000D01*
X152510885Y-94349000D01*
X152526124Y-94344525D01*
X152527329Y-94343135D01*
X152529000Y-94335452D01*
X152529000Y-92828000D01*
X152549002Y-92759879D01*
X152602658Y-92713386D01*
X152655000Y-92702000D01*
X152911000Y-92702000D01*
X152979121Y-92722002D01*
X153025614Y-92775658D01*
X153037000Y-92828000D01*
X153037000Y-94330884D01*
X153041475Y-94346123D01*
X153042865Y-94347328D01*
X153050548Y-94348999D01*
X154603500Y-94348999D01*
X154671621Y-94369001D01*
X154718114Y-94422657D01*
X154729500Y-94474999D01*
X154729500Y-96511984D01*
X154729451Y-96515502D01*
X154728003Y-96567358D01*
X154726666Y-96615205D01*
X154733761Y-96668374D01*
X154737058Y-96693086D01*
X154737758Y-96699639D01*
X154739447Y-96720633D01*
X154740766Y-96737018D01*
X154744060Y-96777965D01*
X154749922Y-96801830D01*
X154751897Y-96809870D01*
X154754426Y-96823258D01*
X154758771Y-96855820D01*
X154760232Y-96860661D01*
X154760233Y-96860663D01*
X154781478Y-96931029D01*
X154783219Y-96937390D01*
X154801963Y-97013706D01*
X154803941Y-97018366D01*
X154814801Y-97043951D01*
X154819438Y-97056761D01*
X154828933Y-97088208D01*
X154831151Y-97092756D01*
X154831154Y-97092763D01*
X154863371Y-97158818D01*
X154866107Y-97164820D01*
X154896812Y-97237156D01*
X154906979Y-97253300D01*
X154914319Y-97264956D01*
X154920945Y-97276860D01*
X154935346Y-97306388D01*
X154938265Y-97310525D01*
X154938265Y-97310526D01*
X154980641Y-97370597D01*
X154984301Y-97376086D01*
X155000801Y-97402287D01*
X155026167Y-97442567D01*
X155029508Y-97446356D01*
X155029512Y-97446362D01*
X155047898Y-97467217D01*
X155056344Y-97477912D01*
X155075274Y-97504747D01*
X155094909Y-97526250D01*
X155134625Y-97565966D01*
X155140044Y-97571736D01*
X155186698Y-97624655D01*
X155190610Y-97627868D01*
X155191028Y-97628272D01*
X155226135Y-97689982D01*
X155229500Y-97718908D01*
X155229500Y-98184134D01*
X155236255Y-98246316D01*
X155287385Y-98382705D01*
X155374739Y-98499261D01*
X155410851Y-98526325D01*
X155482701Y-98580174D01*
X155525216Y-98637033D01*
X155530242Y-98707852D01*
X155496182Y-98770145D01*
X155482702Y-98781825D01*
X155374739Y-98862739D01*
X155287385Y-98979295D01*
X155236255Y-99115684D01*
X155229500Y-99177866D01*
X155229500Y-100474134D01*
X155236255Y-100536316D01*
X155287385Y-100672705D01*
X155374739Y-100789261D01*
X155456313Y-100850397D01*
X155482701Y-100870174D01*
X155525216Y-100927033D01*
X155530242Y-100997852D01*
X155496182Y-101060145D01*
X155482702Y-101071825D01*
X155374739Y-101152739D01*
X155287385Y-101269295D01*
X155284233Y-101277703D01*
X155240411Y-101394599D01*
X155236255Y-101405684D01*
X155235402Y-101413540D01*
X155234828Y-101415953D01*
X155199610Y-101477599D01*
X155136655Y-101510419D01*
X155065950Y-101503993D01*
X155009943Y-101460361D01*
X154994263Y-101431035D01*
X154981768Y-101397705D01*
X154981767Y-101397704D01*
X154978615Y-101389295D01*
X154891261Y-101272739D01*
X154774705Y-101185385D01*
X154638316Y-101134255D01*
X154576134Y-101127500D01*
X153279866Y-101127500D01*
X153217684Y-101134255D01*
X153081295Y-101185385D01*
X152964739Y-101272739D01*
X152959358Y-101279919D01*
X152959357Y-101279920D01*
X152883513Y-101381118D01*
X152826654Y-101423633D01*
X152755835Y-101428659D01*
X152693542Y-101394599D01*
X152681860Y-101381117D01*
X152606284Y-101280275D01*
X152593724Y-101267715D01*
X152491649Y-101191214D01*
X152476054Y-101182676D01*
X152355606Y-101137522D01*
X152340351Y-101133895D01*
X152289486Y-101128369D01*
X152282672Y-101128000D01*
X151910115Y-101128000D01*
X151894876Y-101132475D01*
X151893671Y-101133865D01*
X151892000Y-101141548D01*
X151892000Y-105125884D01*
X151896475Y-105141123D01*
X151897865Y-105142328D01*
X151905548Y-105143999D01*
X152282669Y-105143999D01*
X152289490Y-105143629D01*
X152340352Y-105138105D01*
X152355604Y-105134479D01*
X152476054Y-105089324D01*
X152491649Y-105080786D01*
X152593724Y-105004285D01*
X152606284Y-104991725D01*
X152681860Y-104890883D01*
X152738719Y-104848367D01*
X152809538Y-104843341D01*
X152871831Y-104877401D01*
X152883513Y-104890882D01*
X152964739Y-104999261D01*
X153081295Y-105086615D01*
X153217684Y-105137745D01*
X153279866Y-105144500D01*
X154576134Y-105144500D01*
X154638316Y-105137745D01*
X154774705Y-105086615D01*
X154891261Y-104999261D01*
X154978615Y-104882705D01*
X155029745Y-104746316D01*
X155036500Y-104684134D01*
X155036500Y-102988521D01*
X155056502Y-102920400D01*
X155110158Y-102873907D01*
X155180432Y-102863803D01*
X155245012Y-102893297D01*
X155280482Y-102944292D01*
X155287385Y-102962705D01*
X155374739Y-103079261D01*
X155491295Y-103166615D01*
X155499703Y-103169767D01*
X155620286Y-103214972D01*
X155620289Y-103214973D01*
X155627684Y-103217745D01*
X155633453Y-103218372D01*
X155694291Y-103253126D01*
X155727113Y-103316081D01*
X155729500Y-103340493D01*
X155729500Y-107363596D01*
X155709498Y-107431717D01*
X155655842Y-107478210D01*
X155585568Y-107488314D01*
X155526971Y-107463692D01*
X155499846Y-107442953D01*
X155499842Y-107442950D01*
X155495826Y-107439880D01*
X155384315Y-107380088D01*
X155286352Y-107327561D01*
X155281891Y-107325169D01*
X155052369Y-107246138D01*
X154953022Y-107228978D01*
X154817074Y-107205496D01*
X154817068Y-107205495D01*
X154813164Y-107204821D01*
X154809203Y-107204641D01*
X154809202Y-107204641D01*
X154785494Y-107203564D01*
X154785475Y-107203564D01*
X154784075Y-107203500D01*
X147512999Y-107203500D01*
X147510491Y-107203702D01*
X147510486Y-107203702D01*
X147337076Y-107217654D01*
X147337071Y-107217655D01*
X147332035Y-107218060D01*
X147327127Y-107219266D01*
X147327124Y-107219266D01*
X147103773Y-107274126D01*
X147096294Y-107275963D01*
X147091642Y-107277938D01*
X147091638Y-107277939D01*
X146980372Y-107325169D01*
X146872844Y-107370812D01*
X146813516Y-107408173D01*
X146671712Y-107497472D01*
X146671709Y-107497474D01*
X146667433Y-107500167D01*
X146644297Y-107520564D01*
X146489142Y-107657350D01*
X146489139Y-107657353D01*
X146485345Y-107660698D01*
X146482135Y-107664606D01*
X146482134Y-107664607D01*
X146336953Y-107841355D01*
X146331266Y-107848278D01*
X146209159Y-108058078D01*
X146207346Y-108062801D01*
X146126754Y-108272753D01*
X146122167Y-108284702D01*
X146121133Y-108289652D01*
X146121132Y-108289655D01*
X146086674Y-108454599D01*
X146072526Y-108522320D01*
X146061514Y-108764817D01*
X146062095Y-108769837D01*
X146062095Y-108769841D01*
X146087446Y-108988935D01*
X146089415Y-109005956D01*
X146090791Y-109010820D01*
X146090792Y-109010823D01*
X146107863Y-109071149D01*
X146155510Y-109239532D01*
X146157644Y-109244108D01*
X146157646Y-109244114D01*
X146255962Y-109454954D01*
X146258099Y-109459536D01*
X146394544Y-109660307D01*
X146561332Y-109836681D01*
X146565358Y-109839759D01*
X146565359Y-109839760D01*
X146750154Y-109981047D01*
X146750158Y-109981050D01*
X146754174Y-109984120D01*
X146758632Y-109986510D01*
X146758633Y-109986511D01*
X146819471Y-110019132D01*
X146968109Y-110098831D01*
X147197631Y-110177862D01*
X147296978Y-110195022D01*
X147432926Y-110218504D01*
X147432932Y-110218505D01*
X147436836Y-110219179D01*
X147440797Y-110219359D01*
X147440798Y-110219359D01*
X147464506Y-110220436D01*
X147464525Y-110220436D01*
X147465925Y-110220500D01*
X154737001Y-110220500D01*
X154739509Y-110220298D01*
X154739514Y-110220298D01*
X154912924Y-110206346D01*
X154912929Y-110206345D01*
X154917965Y-110205940D01*
X154922873Y-110204734D01*
X154922876Y-110204734D01*
X155148792Y-110149244D01*
X155153706Y-110148037D01*
X155158358Y-110146062D01*
X155158362Y-110146061D01*
X155314248Y-110079891D01*
X155377156Y-110053188D01*
X155481020Y-109987781D01*
X155578288Y-109926528D01*
X155578291Y-109926526D01*
X155582567Y-109923833D01*
X155660540Y-109855091D01*
X155760858Y-109766650D01*
X155760861Y-109766647D01*
X155764655Y-109763302D01*
X155777338Y-109747862D01*
X155821959Y-109693538D01*
X155846833Y-109663256D01*
X155905527Y-109623314D01*
X155976498Y-109621444D01*
X156037243Y-109658271D01*
X156142621Y-109773675D01*
X156183858Y-109818836D01*
X156251004Y-109872055D01*
X156370129Y-109966473D01*
X156370135Y-109966477D01*
X156374098Y-109969618D01*
X156457667Y-110016323D01*
X156575243Y-110082034D01*
X156585998Y-110088045D01*
X156680749Y-110122532D01*
X156809348Y-110169339D01*
X156809353Y-110169340D01*
X156814105Y-110171070D01*
X156819074Y-110172018D01*
X156819078Y-110172019D01*
X157028486Y-110211965D01*
X157052553Y-110216556D01*
X157208051Y-110220900D01*
X157290150Y-110223193D01*
X157290153Y-110223193D01*
X157295205Y-110223334D01*
X157300218Y-110222665D01*
X157300220Y-110222665D01*
X157530806Y-110191898D01*
X157535820Y-110191229D01*
X157540661Y-110189767D01*
X157540663Y-110189767D01*
X157763357Y-110122532D01*
X157763361Y-110122530D01*
X157768208Y-110121067D01*
X157986388Y-110014654D01*
X158124806Y-109917010D01*
X158181514Y-109877007D01*
X158181518Y-109877004D01*
X158184747Y-109874726D01*
X158206250Y-109855091D01*
X158287666Y-109773675D01*
X158290188Y-109771221D01*
X158359012Y-109706138D01*
X158359014Y-109706135D01*
X158362681Y-109702668D01*
X158410411Y-109640239D01*
X158414552Y-109635108D01*
X158462191Y-109579133D01*
X158462192Y-109579132D01*
X158465470Y-109575280D01*
X158468089Y-109570955D01*
X158468093Y-109570950D01*
X158482491Y-109547176D01*
X158490163Y-109535929D01*
X158510120Y-109509826D01*
X158547243Y-109440592D01*
X158550507Y-109434868D01*
X158570824Y-109401322D01*
X158591221Y-109367642D01*
X158593116Y-109362953D01*
X158593119Y-109362946D01*
X158603533Y-109337172D01*
X158609312Y-109324836D01*
X158622440Y-109300351D01*
X158622442Y-109300347D01*
X158624831Y-109295891D01*
X158645912Y-109234669D01*
X158650405Y-109221619D01*
X158652715Y-109215439D01*
X158680263Y-109147257D01*
X158680264Y-109147254D01*
X158682156Y-109142571D01*
X158689436Y-109110529D01*
X158693169Y-109097425D01*
X158702216Y-109071149D01*
X158703862Y-109066369D01*
X158704722Y-109061389D01*
X158704725Y-109061378D01*
X158717238Y-108988935D01*
X158718530Y-108982467D01*
X158734815Y-108910788D01*
X158734816Y-108910779D01*
X158735935Y-108905855D01*
X158737999Y-108873049D01*
X158739586Y-108859545D01*
X158745179Y-108827164D01*
X158745359Y-108823204D01*
X158746436Y-108799494D01*
X158746436Y-108799475D01*
X158746500Y-108798075D01*
X158746500Y-108741892D01*
X158746749Y-108733980D01*
X158750860Y-108668641D01*
X158751178Y-108663587D01*
X158747101Y-108622006D01*
X158746500Y-108609711D01*
X158746500Y-103340493D01*
X158766502Y-103272372D01*
X158820158Y-103225879D01*
X158841763Y-103218457D01*
X158848316Y-103217745D01*
X158855711Y-103214973D01*
X158855714Y-103214972D01*
X158976297Y-103169767D01*
X158984705Y-103166615D01*
X159101261Y-103079261D01*
X159188615Y-102962705D01*
X159239745Y-102826316D01*
X159246500Y-102764134D01*
X159246500Y-101467866D01*
X159239745Y-101405684D01*
X159188615Y-101269295D01*
X159101261Y-101152739D01*
X158993299Y-101071826D01*
X158950784Y-101014967D01*
X158945758Y-100944148D01*
X158979818Y-100881855D01*
X158993299Y-100870174D01*
X159019688Y-100850397D01*
X159101261Y-100789261D01*
X159188615Y-100672705D01*
X159239745Y-100536316D01*
X159246500Y-100474134D01*
X159246500Y-99177866D01*
X159246391Y-99176864D01*
X159262574Y-99108212D01*
X159313636Y-99058885D01*
X159372101Y-99044500D01*
X162470069Y-99044500D01*
X162538190Y-99064502D01*
X162559164Y-99081405D01*
X163498001Y-100020242D01*
X163532027Y-100082554D01*
X163526962Y-100153369D01*
X163498001Y-100198432D01*
X161022334Y-102674099D01*
X161019812Y-102676553D01*
X160956366Y-102736551D01*
X160947319Y-102745106D01*
X160900818Y-102805927D01*
X160899592Y-102807531D01*
X160895448Y-102812666D01*
X160844530Y-102872494D01*
X160841911Y-102876819D01*
X160841907Y-102876824D01*
X160827509Y-102900598D01*
X160819837Y-102911845D01*
X160799880Y-102937948D01*
X160797490Y-102942406D01*
X160797489Y-102942407D01*
X160762761Y-103007175D01*
X160759496Y-103012900D01*
X160718779Y-103080132D01*
X160710371Y-103100942D01*
X160706473Y-103110591D01*
X160700693Y-103122932D01*
X160685169Y-103151883D01*
X160683523Y-103156664D01*
X160683521Y-103156668D01*
X160659588Y-103226175D01*
X160657278Y-103232353D01*
X160627845Y-103305203D01*
X160626723Y-103310142D01*
X160620568Y-103337234D01*
X160616837Y-103350333D01*
X160606138Y-103381405D01*
X160592757Y-103458874D01*
X160591477Y-103465278D01*
X160574065Y-103541918D01*
X160572001Y-103574727D01*
X160570415Y-103588227D01*
X160564821Y-103620610D01*
X160563500Y-103649699D01*
X160563500Y-103705882D01*
X160563251Y-103713793D01*
X160558822Y-103784187D01*
X160559316Y-103789222D01*
X160562899Y-103825766D01*
X160563500Y-103838062D01*
X160563500Y-108796969D01*
X160543498Y-108865090D01*
X160526595Y-108886064D01*
X159732334Y-109680325D01*
X159729812Y-109682779D01*
X159663402Y-109745580D01*
X159657319Y-109751332D01*
X159640237Y-109773675D01*
X159609592Y-109813757D01*
X159605448Y-109818892D01*
X159573814Y-109856062D01*
X159554530Y-109878720D01*
X159551911Y-109883045D01*
X159551907Y-109883050D01*
X159537509Y-109906824D01*
X159529837Y-109918071D01*
X159509880Y-109944174D01*
X159483430Y-109993504D01*
X159472761Y-110013401D01*
X159469496Y-110019126D01*
X159428779Y-110086358D01*
X159426884Y-110091049D01*
X159416473Y-110116817D01*
X159410693Y-110129158D01*
X159395169Y-110158109D01*
X159393523Y-110162890D01*
X159393521Y-110162894D01*
X159369588Y-110232401D01*
X159367278Y-110238579D01*
X159359075Y-110258882D01*
X159337845Y-110311429D01*
X159334521Y-110326060D01*
X159330568Y-110343460D01*
X159326837Y-110356559D01*
X159316138Y-110387631D01*
X159302757Y-110465100D01*
X159301477Y-110471504D01*
X159284065Y-110548144D01*
X159282001Y-110580953D01*
X159280415Y-110594453D01*
X159274821Y-110626836D01*
X159273500Y-110655925D01*
X159273500Y-110712108D01*
X159273251Y-110720019D01*
X159268822Y-110790413D01*
X159270259Y-110805071D01*
X159272899Y-110831992D01*
X159273500Y-110844288D01*
X159273500Y-113853001D01*
X159273702Y-113855509D01*
X159273702Y-113855514D01*
X159283733Y-113980180D01*
X159288060Y-114033965D01*
X159289266Y-114038873D01*
X159289266Y-114038876D01*
X159318167Y-114156539D01*
X159345963Y-114269706D01*
X159440812Y-114493156D01*
X159443510Y-114497440D01*
X159512646Y-114607225D01*
X159570167Y-114698567D01*
X159573512Y-114702361D01*
X159727350Y-114876858D01*
X159727353Y-114876861D01*
X159730698Y-114880655D01*
X159734606Y-114883865D01*
X159734607Y-114883866D01*
X159909502Y-115027525D01*
X159918278Y-115034734D01*
X159981113Y-115071305D01*
X160120783Y-115152595D01*
X160128078Y-115156841D01*
X160132801Y-115158654D01*
X160349978Y-115242020D01*
X160349982Y-115242021D01*
X160354702Y-115243833D01*
X160359652Y-115244867D01*
X160359655Y-115244868D01*
X160587369Y-115292440D01*
X160587373Y-115292440D01*
X160592320Y-115293474D01*
X160834817Y-115304486D01*
X160839837Y-115303905D01*
X160839841Y-115303905D01*
X161070929Y-115277167D01*
X161070933Y-115277166D01*
X161075956Y-115276585D01*
X161080820Y-115275209D01*
X161080823Y-115275208D01*
X161304669Y-115211866D01*
X161304668Y-115211866D01*
X161309532Y-115210490D01*
X161314108Y-115208356D01*
X161314114Y-115208354D01*
X161524954Y-115110038D01*
X161524958Y-115110036D01*
X161529536Y-115107901D01*
X161538839Y-115101579D01*
X161726119Y-114974302D01*
X161730307Y-114971456D01*
X161788048Y-114916853D01*
X162561977Y-114916853D01*
X162567258Y-114923907D01*
X162728756Y-115018279D01*
X162738042Y-115022729D01*
X162937001Y-115098703D01*
X162946899Y-115101579D01*
X163155595Y-115144038D01*
X163165823Y-115145257D01*
X163378650Y-115153062D01*
X163388936Y-115152595D01*
X163600185Y-115125534D01*
X163610262Y-115123392D01*
X163814255Y-115062191D01*
X163823842Y-115058433D01*
X164015098Y-114964738D01*
X164023944Y-114959465D01*
X164071247Y-114925723D01*
X164079648Y-114915023D01*
X164072660Y-114901870D01*
X163334812Y-114164022D01*
X163320868Y-114156408D01*
X163319035Y-114156539D01*
X163312420Y-114160790D01*
X162568737Y-114904473D01*
X162561977Y-114916853D01*
X161788048Y-114916853D01*
X161906681Y-114804668D01*
X161940261Y-114760747D01*
X162051043Y-114615851D01*
X162051046Y-114615846D01*
X162054120Y-114611826D01*
X162056513Y-114607363D01*
X162057731Y-114605473D01*
X162111446Y-114559049D01*
X162184240Y-114549424D01*
X162197280Y-114551585D01*
X162207694Y-114547096D01*
X163232905Y-113521885D01*
X163295217Y-113487859D01*
X163366032Y-113492924D01*
X163411095Y-113521885D01*
X164432474Y-114543264D01*
X164446419Y-114550879D01*
X164477037Y-114548689D01*
X164546411Y-114563781D01*
X164592645Y-114607225D01*
X164647472Y-114694288D01*
X164650167Y-114698567D01*
X164653512Y-114702361D01*
X164807350Y-114876858D01*
X164807353Y-114876861D01*
X164810698Y-114880655D01*
X164814606Y-114883865D01*
X164814607Y-114883866D01*
X164989502Y-115027525D01*
X164998278Y-115034734D01*
X165061113Y-115071305D01*
X165200783Y-115152595D01*
X165208078Y-115156841D01*
X165212801Y-115158654D01*
X165429978Y-115242020D01*
X165429982Y-115242021D01*
X165434702Y-115243833D01*
X165439652Y-115244867D01*
X165439655Y-115244868D01*
X165667369Y-115292440D01*
X165667373Y-115292440D01*
X165672320Y-115293474D01*
X165914817Y-115304486D01*
X165919837Y-115303905D01*
X165919841Y-115303905D01*
X166150929Y-115277167D01*
X166150933Y-115277166D01*
X166155956Y-115276585D01*
X166160820Y-115275209D01*
X166160823Y-115275208D01*
X166384669Y-115211866D01*
X166384668Y-115211866D01*
X166389532Y-115210490D01*
X166394108Y-115208356D01*
X166394114Y-115208354D01*
X166604954Y-115110038D01*
X166604958Y-115110036D01*
X166609536Y-115107901D01*
X166618839Y-115101579D01*
X166806119Y-114974302D01*
X166810307Y-114971456D01*
X166986681Y-114804668D01*
X167020261Y-114760747D01*
X167131047Y-114615846D01*
X167131050Y-114615842D01*
X167134120Y-114611826D01*
X167137527Y-114605473D01*
X167246439Y-114402352D01*
X167248831Y-114397891D01*
X167327862Y-114168369D01*
X167369179Y-113929164D01*
X167370500Y-113900075D01*
X167370500Y-111745499D01*
X167390502Y-111677378D01*
X167407405Y-111656404D01*
X168945215Y-110118594D01*
X170591493Y-110118594D01*
X170600789Y-110130609D01*
X170651994Y-110166463D01*
X170661489Y-110171946D01*
X170858945Y-110264021D01*
X170869239Y-110267768D01*
X171079688Y-110324157D01*
X171090481Y-110326060D01*
X171307525Y-110345049D01*
X171318475Y-110345049D01*
X171535519Y-110326060D01*
X171546312Y-110324157D01*
X171756761Y-110267768D01*
X171767055Y-110264021D01*
X171964511Y-110171946D01*
X171974006Y-110166463D01*
X172026048Y-110130023D01*
X172034424Y-110119544D01*
X172027356Y-110106098D01*
X171325812Y-109404554D01*
X171311868Y-109396940D01*
X171310035Y-109397071D01*
X171303420Y-109401322D01*
X170597923Y-110106819D01*
X170591493Y-110118594D01*
X168945215Y-110118594D01*
X169819845Y-109243964D01*
X169882157Y-109209938D01*
X169952972Y-109215003D01*
X170009808Y-109257550D01*
X170030647Y-109300448D01*
X170077764Y-109476293D01*
X170081510Y-109486585D01*
X170173586Y-109684043D01*
X170179069Y-109693538D01*
X170215509Y-109745580D01*
X170225988Y-109753956D01*
X170239434Y-109746888D01*
X170952658Y-109033664D01*
X171677408Y-109033664D01*
X171677539Y-109035497D01*
X171681790Y-109042112D01*
X172387287Y-109747609D01*
X172399062Y-109754039D01*
X172411077Y-109744743D01*
X172446931Y-109693538D01*
X172452414Y-109684043D01*
X172544490Y-109486585D01*
X172548236Y-109476293D01*
X172604625Y-109265844D01*
X172606528Y-109255051D01*
X172625517Y-109038007D01*
X172625517Y-109027057D01*
X172606528Y-108810013D01*
X172604625Y-108799220D01*
X172548236Y-108588771D01*
X172544490Y-108578479D01*
X172452414Y-108381021D01*
X172446931Y-108371526D01*
X172410491Y-108319484D01*
X172400012Y-108311108D01*
X172386566Y-108318176D01*
X171685022Y-109019720D01*
X171677408Y-109033664D01*
X170952658Y-109033664D01*
X172028077Y-107958245D01*
X172034507Y-107946470D01*
X172025211Y-107934455D01*
X171974006Y-107898601D01*
X171964511Y-107893118D01*
X171767053Y-107801042D01*
X171756761Y-107797296D01*
X171546312Y-107740907D01*
X171535520Y-107739004D01*
X171512365Y-107736978D01*
X171446247Y-107711115D01*
X171404607Y-107653611D01*
X171400666Y-107582724D01*
X171412216Y-107554408D01*
X171411333Y-107553966D01*
X171413604Y-107549432D01*
X171416221Y-107545110D01*
X171420656Y-107534134D01*
X171423168Y-107527915D01*
X171430006Y-107513643D01*
X171436579Y-107501882D01*
X171439045Y-107497470D01*
X171451340Y-107463692D01*
X171460877Y-107437489D01*
X171470801Y-107410223D01*
X171472373Y-107406128D01*
X171485552Y-107373510D01*
X171507155Y-107320039D01*
X171511262Y-107301962D01*
X171515730Y-107286782D01*
X171520337Y-107274126D01*
X171520339Y-107274119D01*
X171522070Y-107269363D01*
X171539464Y-107178178D01*
X171540363Y-107173873D01*
X171559815Y-107088256D01*
X171559816Y-107088249D01*
X171560935Y-107083324D01*
X171562099Y-107064822D01*
X171564082Y-107049125D01*
X171566607Y-107035889D01*
X171567556Y-107030915D01*
X171570149Y-106938096D01*
X171570349Y-106933705D01*
X171574384Y-106869578D01*
X171576178Y-106841056D01*
X171574369Y-106822606D01*
X171573816Y-106806793D01*
X171574334Y-106788263D01*
X171571787Y-106769171D01*
X171562054Y-106696223D01*
X171561549Y-106691860D01*
X171559666Y-106672663D01*
X171559064Y-106660363D01*
X171559064Y-97548336D01*
X171558862Y-97545823D01*
X171544910Y-97372413D01*
X171544909Y-97372408D01*
X171544504Y-97367372D01*
X171540575Y-97351373D01*
X171487808Y-97136545D01*
X171486601Y-97131631D01*
X171478972Y-97113657D01*
X171401060Y-96930109D01*
X171391752Y-96908181D01*
X171306575Y-96772923D01*
X171265092Y-96707049D01*
X171265090Y-96707046D01*
X171262397Y-96702770D01*
X171180742Y-96610150D01*
X171105214Y-96524479D01*
X171105211Y-96524476D01*
X171101866Y-96520682D01*
X171095560Y-96515502D01*
X170918192Y-96369811D01*
X170918189Y-96369809D01*
X170914286Y-96366603D01*
X170704486Y-96244496D01*
X170699763Y-96242683D01*
X170482586Y-96159317D01*
X170482582Y-96159316D01*
X170477862Y-96157504D01*
X170472912Y-96156470D01*
X170472909Y-96156469D01*
X170245195Y-96108897D01*
X170245191Y-96108897D01*
X170240244Y-96107863D01*
X169997747Y-96096851D01*
X169992727Y-96097432D01*
X169992723Y-96097432D01*
X169761635Y-96124170D01*
X169761631Y-96124171D01*
X169756608Y-96124752D01*
X169751744Y-96126128D01*
X169751741Y-96126129D01*
X169615526Y-96164674D01*
X169523032Y-96190847D01*
X169518456Y-96192981D01*
X169518450Y-96192983D01*
X169307610Y-96291299D01*
X169307606Y-96291301D01*
X169303028Y-96293436D01*
X169102257Y-96429881D01*
X168925883Y-96596669D01*
X168922805Y-96600695D01*
X168922804Y-96600696D01*
X168781517Y-96785491D01*
X168781514Y-96785495D01*
X168778444Y-96789511D01*
X168776054Y-96793969D01*
X168776053Y-96793970D01*
X168760347Y-96823262D01*
X168663733Y-97003446D01*
X168584702Y-97232968D01*
X168571306Y-97310526D01*
X168552948Y-97416807D01*
X168521644Y-97480529D01*
X168460858Y-97517211D01*
X168389889Y-97515207D01*
X168373454Y-97508561D01*
X168320657Y-97482753D01*
X168310746Y-97478909D01*
X168099837Y-97417036D01*
X168089420Y-97414917D01*
X167871115Y-97389465D01*
X167860481Y-97389131D01*
X167641003Y-97400825D01*
X167630470Y-97402287D01*
X167416103Y-97450794D01*
X167405966Y-97454009D01*
X167391592Y-97459949D01*
X167380423Y-97468933D01*
X167383731Y-97482247D01*
X168169471Y-98843188D01*
X168186209Y-98912183D01*
X168162989Y-98979275D01*
X168123352Y-99015307D01*
X167901650Y-99143307D01*
X167832655Y-99160045D01*
X167765563Y-99136825D01*
X167729531Y-99097188D01*
X166944935Y-97738228D01*
X166934729Y-97728497D01*
X166924778Y-97732481D01*
X166835087Y-97812814D01*
X166827791Y-97820557D01*
X166691119Y-97992686D01*
X166685238Y-98001537D01*
X166579522Y-98194234D01*
X166575212Y-98203962D01*
X166503475Y-98411712D01*
X166500868Y-98422014D01*
X166494225Y-98462359D01*
X166463422Y-98526325D01*
X166402926Y-98563483D01*
X166331944Y-98562037D01*
X166310267Y-98552884D01*
X166298643Y-98546639D01*
X166269180Y-98524739D01*
X164230775Y-96486334D01*
X164228321Y-96483812D01*
X164163238Y-96414988D01*
X164163235Y-96414986D01*
X164159768Y-96411319D01*
X164097339Y-96363589D01*
X164092208Y-96359448D01*
X164036233Y-96311809D01*
X164036232Y-96311808D01*
X164032380Y-96308530D01*
X164028055Y-96305911D01*
X164028050Y-96305907D01*
X164004276Y-96291509D01*
X163993029Y-96283837D01*
X163966926Y-96263880D01*
X163897692Y-96226757D01*
X163891968Y-96223493D01*
X163873432Y-96212267D01*
X163824742Y-96182779D01*
X163794281Y-96170472D01*
X163781941Y-96164692D01*
X163752991Y-96149169D01*
X163748208Y-96147522D01*
X163748206Y-96147521D01*
X163678699Y-96123588D01*
X163672521Y-96121278D01*
X163613499Y-96097432D01*
X163599671Y-96091845D01*
X163567639Y-96084568D01*
X163554541Y-96080837D01*
X163523469Y-96070138D01*
X163446000Y-96056757D01*
X163439596Y-96055477D01*
X163362956Y-96038065D01*
X163330147Y-96036001D01*
X163316647Y-96034415D01*
X163284264Y-96028821D01*
X163280307Y-96028641D01*
X163280304Y-96028641D01*
X163256594Y-96027564D01*
X163256575Y-96027564D01*
X163255175Y-96027500D01*
X163198992Y-96027500D01*
X163191080Y-96027251D01*
X163185486Y-96026899D01*
X163120687Y-96022822D01*
X163081645Y-96026650D01*
X163079108Y-96026899D01*
X163066812Y-96027500D01*
X157915031Y-96027500D01*
X157846910Y-96007498D01*
X157825936Y-95990595D01*
X157783405Y-95948064D01*
X157749379Y-95885752D01*
X157746500Y-95858969D01*
X157746500Y-94190500D01*
X157766502Y-94122379D01*
X157820158Y-94075886D01*
X157872500Y-94064500D01*
X158786134Y-94064500D01*
X158848316Y-94057745D01*
X158984705Y-94006615D01*
X159101261Y-93919261D01*
X159188615Y-93802705D01*
X159239745Y-93666316D01*
X159246500Y-93604134D01*
X159246500Y-92307866D01*
X159239745Y-92245684D01*
X159188615Y-92109295D01*
X159101261Y-91992739D01*
X158984705Y-91905385D01*
X158848316Y-91854255D01*
X158786134Y-91847500D01*
X157872500Y-91847500D01*
X157804379Y-91827498D01*
X157757886Y-91773842D01*
X157746500Y-91721500D01*
X157746500Y-90182016D01*
X157746549Y-90178498D01*
X157749193Y-90083850D01*
X157749193Y-90083847D01*
X157749334Y-90078795D01*
X157738941Y-90000902D01*
X157738241Y-89994353D01*
X157737989Y-89991214D01*
X157734621Y-89949357D01*
X157732346Y-89921077D01*
X157732345Y-89921073D01*
X157731940Y-89916035D01*
X157724101Y-89884122D01*
X157721573Y-89870738D01*
X157717898Y-89843194D01*
X157717229Y-89838180D01*
X157703779Y-89793631D01*
X157694522Y-89762971D01*
X157692781Y-89756608D01*
X157675244Y-89685209D01*
X157674037Y-89680294D01*
X157661199Y-89650048D01*
X157656561Y-89637237D01*
X157648530Y-89610638D01*
X157647067Y-89605792D01*
X157644849Y-89601244D01*
X157644846Y-89601237D01*
X157612629Y-89535182D01*
X157609893Y-89529180D01*
X157581162Y-89461495D01*
X157579188Y-89456844D01*
X157561681Y-89429044D01*
X157555052Y-89417134D01*
X157540654Y-89387612D01*
X157495357Y-89323400D01*
X157491699Y-89317914D01*
X157452529Y-89255714D01*
X157452528Y-89255713D01*
X157449833Y-89251433D01*
X157446492Y-89247644D01*
X157446488Y-89247638D01*
X157428102Y-89226783D01*
X157419656Y-89216088D01*
X157403009Y-89192490D01*
X157400726Y-89189253D01*
X157389762Y-89177246D01*
X157382062Y-89168813D01*
X157382054Y-89168805D01*
X157381091Y-89167750D01*
X157341375Y-89128034D01*
X157335956Y-89122264D01*
X157292650Y-89073142D01*
X157292647Y-89073139D01*
X157289302Y-89069345D01*
X157257011Y-89042821D01*
X157247892Y-89034551D01*
X155534936Y-87321595D01*
X155500910Y-87259283D01*
X155505975Y-87188468D01*
X155548522Y-87131632D01*
X155615042Y-87106821D01*
X155624031Y-87106500D01*
X159097601Y-87106500D01*
X159165722Y-87126502D01*
X159186696Y-87143405D01*
X159490767Y-87447476D01*
X159510508Y-87473083D01*
X160428946Y-89047548D01*
X160428956Y-89047564D01*
X161988752Y-91721500D01*
X162019793Y-91774714D01*
X162019798Y-91774722D01*
X162990695Y-93439117D01*
X163094454Y-93588094D01*
X163263252Y-93762546D01*
X163278151Y-93773669D01*
X163395463Y-93861250D01*
X163429204Y-93899215D01*
X163486673Y-93998754D01*
X163549060Y-94084863D01*
X163681427Y-94202177D01*
X163687877Y-94205643D01*
X163687879Y-94205644D01*
X163830782Y-94282427D01*
X163837231Y-94285892D01*
X164008114Y-94331521D01*
X164015427Y-94331732D01*
X164015429Y-94331732D01*
X164088891Y-94333848D01*
X164184912Y-94336614D01*
X164267175Y-94319653D01*
X164351403Y-94302287D01*
X164351404Y-94302287D01*
X164358139Y-94300898D01*
X164367034Y-94296910D01*
X164399334Y-94282427D01*
X164453956Y-94257936D01*
X164691616Y-94120723D01*
X164987560Y-93949860D01*
X164992074Y-93947375D01*
X165066207Y-93908526D01*
X165066209Y-93908525D01*
X165070689Y-93906177D01*
X165089679Y-93891941D01*
X165102254Y-93883641D01*
X165577657Y-93609167D01*
X165580482Y-93607536D01*
X165666591Y-93545150D01*
X165783905Y-93412783D01*
X165867621Y-93256979D01*
X165892776Y-93162772D01*
X165911361Y-93093168D01*
X165911361Y-93093165D01*
X165913249Y-93086096D01*
X165914501Y-93042652D01*
X165916266Y-92981356D01*
X165918190Y-92914560D01*
X165940145Y-92847045D01*
X165995117Y-92802116D01*
X166065653Y-92794040D01*
X166079607Y-92797284D01*
X166226194Y-92840288D01*
X166236613Y-92842407D01*
X166454918Y-92867860D01*
X166465551Y-92868194D01*
X166685029Y-92856500D01*
X166695563Y-92855038D01*
X166909929Y-92806532D01*
X166920066Y-92803317D01*
X166934441Y-92797377D01*
X166945610Y-92788392D01*
X166942302Y-92775077D01*
X166190866Y-91473552D01*
X166779383Y-91473552D01*
X166781776Y-91481040D01*
X167381099Y-92519095D01*
X167391305Y-92528827D01*
X167401256Y-92524843D01*
X167490945Y-92444511D01*
X167498241Y-92436769D01*
X167634915Y-92264641D01*
X167640795Y-92255790D01*
X167746511Y-92063092D01*
X167750821Y-92053364D01*
X167822559Y-91845613D01*
X167825166Y-91835314D01*
X167860876Y-91618433D01*
X167861709Y-91607846D01*
X167860366Y-91388044D01*
X167859403Y-91377472D01*
X167821046Y-91161042D01*
X167818313Y-91150772D01*
X167743643Y-90942795D01*
X167740337Y-90935200D01*
X167738343Y-90931338D01*
X167728643Y-90922027D01*
X167726947Y-90921695D01*
X167719271Y-90924134D01*
X166790691Y-91460250D01*
X166779731Y-91471745D01*
X166779383Y-91473552D01*
X166190866Y-91473552D01*
X166081063Y-91283367D01*
X165474967Y-90233577D01*
X165464761Y-90223846D01*
X165454810Y-90227830D01*
X165365120Y-90308163D01*
X165357824Y-90315905D01*
X165221152Y-90488033D01*
X165215271Y-90496884D01*
X165106987Y-90694261D01*
X165105679Y-90693544D01*
X165064232Y-90742471D01*
X164996339Y-90763234D01*
X164927999Y-90743995D01*
X164886096Y-90700732D01*
X164564341Y-90149152D01*
X164564336Y-90149144D01*
X164456500Y-89964282D01*
X165910455Y-89964282D01*
X165913764Y-89977599D01*
X166511946Y-91013678D01*
X166523441Y-91024638D01*
X166525249Y-91024987D01*
X166532736Y-91022594D01*
X167458018Y-90488382D01*
X167468575Y-90477310D01*
X167464419Y-90465987D01*
X167404702Y-90380225D01*
X167397919Y-90372055D01*
X167243718Y-90215412D01*
X167235656Y-90208501D01*
X167057274Y-90080084D01*
X167048155Y-90074627D01*
X166850686Y-89978100D01*
X166840780Y-89974258D01*
X166629871Y-89912385D01*
X166619454Y-89910266D01*
X166401149Y-89884814D01*
X166390515Y-89884480D01*
X166171037Y-89896174D01*
X166160503Y-89897636D01*
X165946134Y-89946143D01*
X165936001Y-89949357D01*
X165921625Y-89955297D01*
X165910455Y-89964282D01*
X164456500Y-89964282D01*
X162973499Y-87421994D01*
X162973497Y-87421991D01*
X162699098Y-86951592D01*
X162682051Y-86882673D01*
X162704971Y-86815478D01*
X162760581Y-86771341D01*
X162822526Y-86762953D01*
X162898918Y-86771860D01*
X162909551Y-86772194D01*
X163129029Y-86760500D01*
X163139563Y-86759038D01*
X163353929Y-86710532D01*
X163364066Y-86707317D01*
X163378441Y-86701377D01*
X163389610Y-86692392D01*
X163386302Y-86679077D01*
X162634866Y-85377552D01*
X163223383Y-85377552D01*
X163225776Y-85385040D01*
X163825099Y-86423095D01*
X163835305Y-86432827D01*
X163845256Y-86428843D01*
X163934945Y-86348511D01*
X163942241Y-86340769D01*
X164078915Y-86168641D01*
X164084795Y-86159790D01*
X164190511Y-85967092D01*
X164194821Y-85957364D01*
X164266559Y-85749613D01*
X164269166Y-85739314D01*
X164304876Y-85522433D01*
X164305709Y-85511846D01*
X164304366Y-85292044D01*
X164303403Y-85281472D01*
X164265046Y-85065042D01*
X164262313Y-85054772D01*
X164187643Y-84846795D01*
X164184337Y-84839200D01*
X164182343Y-84835338D01*
X164172643Y-84826027D01*
X164170947Y-84825695D01*
X164163271Y-84828134D01*
X163234691Y-85364250D01*
X163223731Y-85375745D01*
X163223383Y-85377552D01*
X162634866Y-85377552D01*
X162525063Y-85187367D01*
X161918967Y-84137577D01*
X161908761Y-84127846D01*
X161898810Y-84131830D01*
X161809120Y-84212163D01*
X161801824Y-84219905D01*
X161665152Y-84392033D01*
X161659271Y-84400884D01*
X161553554Y-84593582D01*
X161549246Y-84603303D01*
X161477507Y-84811060D01*
X161474899Y-84821365D01*
X161468256Y-84861710D01*
X161437452Y-84925676D01*
X161376955Y-84962833D01*
X161305973Y-84961385D01*
X161284295Y-84952232D01*
X161252889Y-84935357D01*
X161223433Y-84913460D01*
X160858307Y-84548334D01*
X160855853Y-84545812D01*
X160790770Y-84476988D01*
X160790767Y-84476986D01*
X160787300Y-84473319D01*
X160724871Y-84425589D01*
X160719740Y-84421448D01*
X160663765Y-84373809D01*
X160663764Y-84373808D01*
X160659912Y-84370530D01*
X160655587Y-84367911D01*
X160655582Y-84367907D01*
X160631808Y-84353509D01*
X160620561Y-84345837D01*
X160594458Y-84325880D01*
X160525224Y-84288757D01*
X160519500Y-84285493D01*
X160452274Y-84244779D01*
X160421813Y-84232472D01*
X160409473Y-84226692D01*
X160405982Y-84224820D01*
X160380523Y-84211169D01*
X160375742Y-84209523D01*
X160375738Y-84209521D01*
X160306231Y-84185588D01*
X160300053Y-84183278D01*
X160231898Y-84155742D01*
X160231899Y-84155742D01*
X160227203Y-84153845D01*
X160195171Y-84146568D01*
X160182073Y-84142837D01*
X160151001Y-84132138D01*
X160073532Y-84118757D01*
X160067128Y-84117477D01*
X159990488Y-84100065D01*
X159957679Y-84098001D01*
X159944179Y-84096415D01*
X159911796Y-84090821D01*
X159907839Y-84090641D01*
X159907836Y-84090641D01*
X159884126Y-84089564D01*
X159884107Y-84089564D01*
X159882707Y-84089500D01*
X159826524Y-84089500D01*
X159818612Y-84089251D01*
X159813018Y-84088899D01*
X159748219Y-84084822D01*
X159709177Y-84088650D01*
X159706640Y-84088899D01*
X159694344Y-84089500D01*
X155322561Y-84089500D01*
X155254440Y-84069498D01*
X155207947Y-84015842D01*
X155197843Y-83945568D01*
X155219348Y-83891229D01*
X155235416Y-83868282D01*
X162354455Y-83868282D01*
X162357764Y-83881599D01*
X162955946Y-84917678D01*
X162967441Y-84928638D01*
X162969249Y-84928987D01*
X162976736Y-84926594D01*
X163902018Y-84392382D01*
X163912575Y-84381310D01*
X163908419Y-84369987D01*
X163848702Y-84284225D01*
X163841919Y-84276055D01*
X163687718Y-84119412D01*
X163679656Y-84112501D01*
X163501274Y-83984084D01*
X163492155Y-83978627D01*
X163294686Y-83882100D01*
X163284780Y-83878258D01*
X163073871Y-83816385D01*
X163063454Y-83814266D01*
X162845149Y-83788814D01*
X162834515Y-83788480D01*
X162615037Y-83800174D01*
X162604503Y-83801636D01*
X162390134Y-83850143D01*
X162380001Y-83853357D01*
X162365625Y-83859297D01*
X162354455Y-83868282D01*
X155235416Y-83868282D01*
X155311931Y-83759007D01*
X155317414Y-83749511D01*
X155409490Y-83552053D01*
X155413236Y-83541761D01*
X155469625Y-83331312D01*
X155471528Y-83320519D01*
X155490517Y-83103475D01*
X155490517Y-83092525D01*
X155471528Y-82875481D01*
X155469625Y-82864688D01*
X155413236Y-82654239D01*
X155409490Y-82643947D01*
X155317414Y-82446489D01*
X155311931Y-82436994D01*
X155275491Y-82384952D01*
X155265012Y-82376576D01*
X155251566Y-82383644D01*
X154267095Y-83368115D01*
X154204783Y-83402141D01*
X154133968Y-83397076D01*
X154088905Y-83368115D01*
X153103713Y-82382923D01*
X153091938Y-82376493D01*
X153079923Y-82385789D01*
X153044069Y-82436994D01*
X153038586Y-82446489D01*
X152946510Y-82643947D01*
X152942764Y-82654239D01*
X152886375Y-82864688D01*
X152884472Y-82875481D01*
X152865483Y-83092525D01*
X152865483Y-83103475D01*
X152884472Y-83320519D01*
X152886375Y-83331312D01*
X152942764Y-83541761D01*
X152946510Y-83552053D01*
X153038586Y-83749511D01*
X153044069Y-83759007D01*
X153136652Y-83891229D01*
X153159340Y-83958503D01*
X153142055Y-84027364D01*
X153090285Y-84075948D01*
X153033439Y-84089500D01*
X150750561Y-84089500D01*
X150682440Y-84069498D01*
X150635947Y-84015842D01*
X150625843Y-83945568D01*
X150647348Y-83891229D01*
X150739931Y-83759007D01*
X150745414Y-83749511D01*
X150837490Y-83552053D01*
X150841236Y-83541761D01*
X150897625Y-83331312D01*
X150899528Y-83320519D01*
X150918517Y-83103475D01*
X150918517Y-83092525D01*
X150899528Y-82875481D01*
X150897625Y-82864688D01*
X150841236Y-82654239D01*
X150837490Y-82643947D01*
X150745414Y-82446489D01*
X150739931Y-82436994D01*
X150703491Y-82384952D01*
X150693012Y-82376576D01*
X150679566Y-82383644D01*
X149695095Y-83368115D01*
X149632783Y-83402141D01*
X149561968Y-83397076D01*
X149516905Y-83368115D01*
X148531713Y-82382923D01*
X148519938Y-82376493D01*
X148507923Y-82385789D01*
X148472069Y-82436994D01*
X148466586Y-82446489D01*
X148374510Y-82643947D01*
X148370764Y-82654239D01*
X148314375Y-82864688D01*
X148312472Y-82875481D01*
X148293483Y-83092525D01*
X148293483Y-83103475D01*
X148312472Y-83320519D01*
X148314375Y-83331312D01*
X148370764Y-83541761D01*
X148374510Y-83552053D01*
X148466586Y-83749511D01*
X148472069Y-83759007D01*
X148564652Y-83891229D01*
X148587340Y-83958503D01*
X148570055Y-84027364D01*
X148518285Y-84075948D01*
X148461439Y-84089500D01*
X147344016Y-84089500D01*
X147340498Y-84089451D01*
X147245850Y-84086807D01*
X147245847Y-84086807D01*
X147240795Y-84086666D01*
X147162902Y-84097059D01*
X147156361Y-84097758D01*
X147131617Y-84099749D01*
X147083077Y-84103654D01*
X147083073Y-84103655D01*
X147078035Y-84104060D01*
X147046122Y-84111899D01*
X147032742Y-84114426D01*
X147000180Y-84118771D01*
X146995339Y-84120232D01*
X146995337Y-84120233D01*
X146924971Y-84141478D01*
X146918610Y-84143219D01*
X146842294Y-84161963D01*
X146837634Y-84163941D01*
X146812049Y-84174801D01*
X146799239Y-84179438D01*
X146767792Y-84188933D01*
X146763244Y-84191151D01*
X146763237Y-84191154D01*
X146697182Y-84223371D01*
X146691180Y-84226107D01*
X146647192Y-84244779D01*
X146618844Y-84256812D01*
X146609050Y-84262980D01*
X146591044Y-84274319D01*
X146579140Y-84280945D01*
X146549612Y-84295346D01*
X146545475Y-84298265D01*
X146545474Y-84298265D01*
X146485403Y-84340641D01*
X146479914Y-84344301D01*
X146442429Y-84367907D01*
X146413433Y-84386167D01*
X146409644Y-84389508D01*
X146409638Y-84389512D01*
X146388783Y-84407898D01*
X146378088Y-84416344D01*
X146351253Y-84435274D01*
X146348329Y-84437944D01*
X146340543Y-84445054D01*
X146329750Y-84454909D01*
X146290034Y-84494625D01*
X146284264Y-84500044D01*
X146235142Y-84543350D01*
X146235139Y-84543353D01*
X146231345Y-84546698D01*
X146228135Y-84550606D01*
X146228134Y-84550607D01*
X146204821Y-84578989D01*
X146196551Y-84588108D01*
X141698334Y-89086325D01*
X141695812Y-89088779D01*
X141643660Y-89138097D01*
X141623319Y-89157332D01*
X141598914Y-89189253D01*
X141575592Y-89219757D01*
X141571448Y-89224892D01*
X141520530Y-89284720D01*
X141517911Y-89289045D01*
X141517907Y-89289050D01*
X141503509Y-89312824D01*
X141495837Y-89324071D01*
X141475880Y-89350174D01*
X141439977Y-89417134D01*
X141438761Y-89419401D01*
X141435496Y-89425126D01*
X141394779Y-89492358D01*
X141392884Y-89497049D01*
X141382473Y-89522817D01*
X141376693Y-89535158D01*
X141361169Y-89564109D01*
X141359523Y-89568890D01*
X141359521Y-89568894D01*
X141335588Y-89638401D01*
X141333278Y-89644579D01*
X141303845Y-89717429D01*
X141302723Y-89722368D01*
X141296568Y-89749460D01*
X141292837Y-89762559D01*
X141282138Y-89793631D01*
X141268757Y-89871100D01*
X141267477Y-89877504D01*
X141250065Y-89954144D01*
X141248001Y-89986953D01*
X141246415Y-90000453D01*
X141240821Y-90032836D01*
X141240641Y-90036793D01*
X141240641Y-90036796D01*
X141239781Y-90055741D01*
X141239500Y-90061925D01*
X141239500Y-90118108D01*
X141239251Y-90126019D01*
X141234822Y-90196413D01*
X141236390Y-90212405D01*
X141238899Y-90237992D01*
X141239500Y-90250288D01*
X141239500Y-91466482D01*
X141219498Y-91534603D01*
X141202596Y-91555577D01*
X140204508Y-92553667D01*
X139450373Y-93307802D01*
X139388060Y-93341827D01*
X139317245Y-93336763D01*
X139260409Y-93294216D01*
X139235598Y-93227696D01*
X139236399Y-93201933D01*
X139240798Y-93169182D01*
X139241328Y-93162772D01*
X139244901Y-93049095D01*
X139244774Y-93042652D01*
X139226234Y-92780796D01*
X139224981Y-92771992D01*
X139169986Y-92516550D01*
X139167507Y-92508017D01*
X139077069Y-92262875D01*
X139073414Y-92254780D01*
X138949334Y-92024820D01*
X138944575Y-92017322D01*
X138859887Y-91902663D01*
X138848759Y-91894221D01*
X138836166Y-91901045D01*
X136186655Y-94550556D01*
X136179489Y-94563679D01*
X136186879Y-94573981D01*
X136228758Y-94608076D01*
X136236037Y-94613191D01*
X136459884Y-94747958D01*
X136467798Y-94751991D01*
X136708414Y-94853879D01*
X136716819Y-94856756D01*
X136969385Y-94923723D01*
X136978117Y-94925389D01*
X137237602Y-94956100D01*
X137246468Y-94956518D01*
X137500520Y-94950532D01*
X137569093Y-94968924D01*
X137616837Y-95021469D01*
X137628593Y-95091486D01*
X137600630Y-95156743D01*
X137592583Y-95165592D01*
X133600508Y-99157667D01*
X132046334Y-100711840D01*
X132043812Y-100714294D01*
X132020565Y-100736278D01*
X131971319Y-100782847D01*
X131923582Y-100845284D01*
X131919469Y-100850383D01*
X131868530Y-100910235D01*
X131865911Y-100914560D01*
X131865907Y-100914565D01*
X131851509Y-100938339D01*
X131843837Y-100949586D01*
X131823880Y-100975689D01*
X131786758Y-101044922D01*
X131783490Y-101050652D01*
X131746713Y-101111378D01*
X131742780Y-101117872D01*
X131730466Y-101148349D01*
X131724697Y-101160665D01*
X131709169Y-101189624D01*
X131683577Y-101263948D01*
X131681286Y-101270076D01*
X131651845Y-101342944D01*
X131650723Y-101347883D01*
X131650722Y-101347886D01*
X131644568Y-101374975D01*
X131640837Y-101388074D01*
X131630138Y-101419146D01*
X131616757Y-101496615D01*
X131615477Y-101503019D01*
X131598065Y-101579659D01*
X131596001Y-101612468D01*
X131594415Y-101625968D01*
X131588821Y-101658351D01*
X131588641Y-101662308D01*
X131588641Y-101662311D01*
X131587931Y-101677958D01*
X131587500Y-101687440D01*
X131587500Y-101743622D01*
X131587251Y-101751533D01*
X131582822Y-101821927D01*
X131583316Y-101826962D01*
X131586899Y-101863506D01*
X131587500Y-101875802D01*
X131587500Y-109587636D01*
X131567498Y-109655757D01*
X131510733Y-109703619D01*
X131399508Y-109750831D01*
X131399495Y-109750838D01*
X131394844Y-109752812D01*
X131376317Y-109764479D01*
X131241643Y-109849288D01*
X131173341Y-109868663D01*
X131105407Y-109848035D01*
X131059410Y-109793953D01*
X131048500Y-109742668D01*
X131048500Y-103238273D01*
X131048549Y-103234755D01*
X131051193Y-103140107D01*
X131051193Y-103140104D01*
X131051334Y-103135052D01*
X131040941Y-103057159D01*
X131040241Y-103050610D01*
X131038910Y-103034059D01*
X131035246Y-102988521D01*
X131034346Y-102977334D01*
X131034345Y-102977330D01*
X131033940Y-102972292D01*
X131026101Y-102940379D01*
X131023573Y-102926995D01*
X131022247Y-102917052D01*
X131019229Y-102894437D01*
X131009685Y-102862827D01*
X130996522Y-102819228D01*
X130994781Y-102812865D01*
X130988083Y-102785595D01*
X130976037Y-102736551D01*
X130963199Y-102706305D01*
X130958561Y-102693494D01*
X130950530Y-102666895D01*
X130949067Y-102662049D01*
X130946849Y-102657501D01*
X130946846Y-102657494D01*
X130914629Y-102591439D01*
X130911893Y-102585437D01*
X130883162Y-102517752D01*
X130881188Y-102513101D01*
X130863681Y-102485301D01*
X130857052Y-102473391D01*
X130856640Y-102472546D01*
X130842654Y-102443869D01*
X130797836Y-102380336D01*
X130774913Y-102313142D01*
X130786095Y-102255554D01*
X130821137Y-102178484D01*
X130821137Y-102178483D01*
X130824851Y-102170315D01*
X130831675Y-102122669D01*
X130844227Y-102035018D01*
X130845500Y-102026129D01*
X130839278Y-101982684D01*
X130826124Y-101890829D01*
X130826123Y-101890826D01*
X130824851Y-101881943D01*
X130821136Y-101873771D01*
X130767832Y-101756537D01*
X130764563Y-101749347D01*
X130725371Y-101700601D01*
X128677400Y-99652630D01*
X128628654Y-99613438D01*
X128507783Y-99558481D01*
X128504227Y-99556864D01*
X128504226Y-99556864D01*
X128496058Y-99553150D01*
X128487175Y-99551878D01*
X128487172Y-99551877D01*
X128360761Y-99533774D01*
X128351872Y-99532501D01*
X128342983Y-99533774D01*
X128216572Y-99551877D01*
X128216569Y-99551878D01*
X128207686Y-99553150D01*
X128199518Y-99556864D01*
X128199514Y-99556865D01*
X128152818Y-99578096D01*
X128082528Y-99588082D01*
X128017996Y-99558481D01*
X128011573Y-99552490D01*
X127470407Y-99011324D01*
X126746256Y-98287172D01*
X126712230Y-98224860D01*
X126717295Y-98154045D01*
X126746256Y-98108982D01*
X127210198Y-97645040D01*
X127908337Y-96946902D01*
X127970649Y-96912877D01*
X127995451Y-96910014D01*
X128050014Y-96909157D01*
X128076825Y-96903897D01*
X128264955Y-96866988D01*
X128264959Y-96866987D01*
X128270463Y-96865907D01*
X128275689Y-96863869D01*
X128275694Y-96863868D01*
X128454971Y-96793970D01*
X128479768Y-96784302D01*
X128671315Y-96666922D01*
X128675508Y-96663187D01*
X128675511Y-96663184D01*
X128800815Y-96551541D01*
X128839048Y-96517477D01*
X128977667Y-96340691D01*
X129082788Y-96142152D01*
X129087992Y-96125848D01*
X129149383Y-95933481D01*
X129149383Y-95933480D01*
X129151089Y-95928135D01*
X129180412Y-95705406D01*
X129169830Y-95481004D01*
X129119675Y-95262022D01*
X129031537Y-95055384D01*
X129028461Y-95050701D01*
X129028456Y-95050692D01*
X129002059Y-95010507D01*
X128983537Y-94964081D01*
X128983159Y-94960226D01*
X128973955Y-94925389D01*
X128922442Y-94730421D01*
X128922440Y-94730415D01*
X128921150Y-94725533D01*
X128822416Y-94503773D01*
X128796879Y-94464749D01*
X128692269Y-94304887D01*
X128692267Y-94304884D01*
X128689496Y-94300650D01*
X128672856Y-94282427D01*
X128529223Y-94125128D01*
X128529219Y-94125124D01*
X128525811Y-94121392D01*
X128521847Y-94118250D01*
X128339538Y-93973754D01*
X128339536Y-93973753D01*
X128335571Y-93970610D01*
X128331158Y-93968143D01*
X128331154Y-93968141D01*
X128128085Y-93854649D01*
X128128081Y-93854647D01*
X128123672Y-93852183D01*
X127987733Y-93802705D01*
X127900321Y-93770889D01*
X127900316Y-93770888D01*
X127895564Y-93769158D01*
X127890595Y-93768210D01*
X127890591Y-93768209D01*
X127765730Y-93744391D01*
X127726912Y-93730071D01*
X127600279Y-93657841D01*
X127600278Y-93657841D01*
X127595412Y-93655065D01*
X127590135Y-93653196D01*
X127590130Y-93653194D01*
X127388936Y-93581948D01*
X127388933Y-93581947D01*
X127383646Y-93580075D01*
X127161948Y-93543770D01*
X127156335Y-93543858D01*
X127156332Y-93543858D01*
X127037529Y-93545725D01*
X126937324Y-93547299D01*
X126931819Y-93548379D01*
X126722384Y-93589468D01*
X126722380Y-93589469D01*
X126716876Y-93590549D01*
X126711650Y-93592587D01*
X126711645Y-93592588D01*
X126577201Y-93645006D01*
X126507570Y-93672154D01*
X126316023Y-93789534D01*
X126311830Y-93793269D01*
X126311827Y-93793272D01*
X126223323Y-93872127D01*
X126148290Y-93938979D01*
X126009671Y-94115765D01*
X126007046Y-94120723D01*
X125909538Y-94304887D01*
X125904551Y-94314305D01*
X125902845Y-94319651D01*
X125902844Y-94319653D01*
X125865777Y-94435798D01*
X125836249Y-94528321D01*
X125810286Y-94725533D01*
X125807873Y-94743860D01*
X125779151Y-94808787D01*
X125772046Y-94816509D01*
X124462707Y-96125848D01*
X124400395Y-96159874D01*
X124375594Y-96162737D01*
X124321029Y-96163594D01*
X124315524Y-96164674D01*
X124106089Y-96205763D01*
X124106085Y-96205764D01*
X124100581Y-96206844D01*
X124095355Y-96208882D01*
X124095350Y-96208883D01*
X123960424Y-96261489D01*
X123891275Y-96288449D01*
X123699728Y-96405829D01*
X123695535Y-96409564D01*
X123695532Y-96409567D01*
X123579370Y-96513064D01*
X123531995Y-96555274D01*
X123393376Y-96732060D01*
X123390751Y-96737018D01*
X123299156Y-96910014D01*
X123288256Y-96930600D01*
X123286550Y-96935946D01*
X123286549Y-96935948D01*
X123259072Y-97022043D01*
X123219954Y-97144616D01*
X123190631Y-97367345D01*
X123190895Y-97372944D01*
X123190895Y-97372946D01*
X123194718Y-97454009D01*
X123201214Y-97591747D01*
X123251368Y-97810729D01*
X123291659Y-97905189D01*
X123332755Y-98001537D01*
X123339507Y-98017368D01*
X123342586Y-98022055D01*
X123348187Y-98030583D01*
X123368874Y-98099758D01*
X123368874Y-98527615D01*
X123368825Y-98531133D01*
X123366616Y-98610232D01*
X123366040Y-98630836D01*
X123376317Y-98707852D01*
X123376432Y-98708717D01*
X123377132Y-98715270D01*
X123383434Y-98793596D01*
X123391271Y-98825501D01*
X123393800Y-98838889D01*
X123398145Y-98871451D01*
X123399606Y-98876292D01*
X123399607Y-98876294D01*
X123420852Y-98946660D01*
X123422593Y-98953021D01*
X123441337Y-99029337D01*
X123443315Y-99033997D01*
X123454175Y-99059582D01*
X123458812Y-99072392D01*
X123468307Y-99103839D01*
X123470525Y-99108387D01*
X123470528Y-99108394D01*
X123502744Y-99174447D01*
X123505479Y-99180448D01*
X123534206Y-99248124D01*
X123534210Y-99248131D01*
X123536186Y-99252787D01*
X123538882Y-99257068D01*
X123538885Y-99257074D01*
X123553692Y-99280588D01*
X123560318Y-99292492D01*
X123572500Y-99317468D01*
X123572504Y-99317475D01*
X123574720Y-99322018D01*
X123620025Y-99386242D01*
X123623665Y-99391701D01*
X123665541Y-99458198D01*
X123668882Y-99461987D01*
X123668886Y-99461993D01*
X123687267Y-99482842D01*
X123695715Y-99493539D01*
X123712364Y-99517142D01*
X123712375Y-99517155D01*
X123714648Y-99520378D01*
X123734283Y-99541881D01*
X123773999Y-99581597D01*
X123779418Y-99587367D01*
X123822724Y-99636489D01*
X123822727Y-99636492D01*
X123826072Y-99640286D01*
X123829986Y-99643501D01*
X123829987Y-99643502D01*
X123858361Y-99666809D01*
X123867481Y-99675079D01*
X124624855Y-100432454D01*
X125878233Y-101685832D01*
X125912259Y-101748144D01*
X125907194Y-101818960D01*
X125903838Y-101827079D01*
X125882608Y-101873771D01*
X125882607Y-101873774D01*
X125878893Y-101881943D01*
X125877621Y-101890826D01*
X125877620Y-101890829D01*
X125864466Y-101982684D01*
X125858244Y-102026129D01*
X125859517Y-102035018D01*
X125872070Y-102122669D01*
X125878893Y-102170315D01*
X125939181Y-102302911D01*
X125978373Y-102351657D01*
X127994595Y-104367879D01*
X128028621Y-104430191D01*
X128031500Y-104456974D01*
X128031500Y-110536987D01*
X128011498Y-110605108D01*
X127957842Y-110651601D01*
X127887568Y-110661705D01*
X127822988Y-110632211D01*
X127799234Y-110604689D01*
X127779198Y-110573238D01*
X127694285Y-110462577D01*
X127541199Y-110263070D01*
X127541194Y-110263064D01*
X127539535Y-110260902D01*
X127294509Y-109993503D01*
X127288960Y-109986644D01*
X127288933Y-109986666D01*
X127285813Y-109982931D01*
X127282990Y-109978966D01*
X127274223Y-109969982D01*
X127251887Y-109953242D01*
X127238357Y-109941511D01*
X120653258Y-103356412D01*
X120619232Y-103294100D01*
X120624297Y-103223285D01*
X120666844Y-103166449D01*
X120727216Y-103142230D01*
X120919971Y-103118904D01*
X120924235Y-103118388D01*
X121189127Y-103048895D01*
X121193087Y-103047255D01*
X121193092Y-103047253D01*
X121361890Y-102977334D01*
X121442136Y-102944095D01*
X121631029Y-102833715D01*
X121674879Y-102808091D01*
X121674880Y-102808090D01*
X121678582Y-102805927D01*
X121894089Y-102636948D01*
X121911472Y-102619011D01*
X122053406Y-102472546D01*
X122084669Y-102440285D01*
X122087202Y-102436837D01*
X122087206Y-102436832D01*
X122244257Y-102223032D01*
X122246795Y-102219577D01*
X122302332Y-102117291D01*
X122375418Y-101982684D01*
X122375419Y-101982682D01*
X122377468Y-101978908D01*
X122434839Y-101827079D01*
X122472751Y-101726749D01*
X122472752Y-101726745D01*
X122474269Y-101722731D01*
X122522895Y-101510419D01*
X122534449Y-101459971D01*
X122534450Y-101459967D01*
X122535407Y-101455787D01*
X122537232Y-101435345D01*
X122559531Y-101185481D01*
X122559531Y-101185479D01*
X122559751Y-101183015D01*
X122560193Y-101140854D01*
X122559249Y-101127010D01*
X122541859Y-100871909D01*
X122541858Y-100871903D01*
X122541567Y-100867632D01*
X122486032Y-100599466D01*
X122394617Y-100341319D01*
X122269013Y-100097966D01*
X122262446Y-100088621D01*
X122163312Y-99947568D01*
X122111545Y-99873911D01*
X121977619Y-99729789D01*
X121928046Y-99676442D01*
X121928043Y-99676439D01*
X121925125Y-99673299D01*
X121921810Y-99670585D01*
X121921806Y-99670582D01*
X121753104Y-99532501D01*
X121713205Y-99499844D01*
X121479704Y-99356755D01*
X121409980Y-99326148D01*
X121232873Y-99248403D01*
X121232869Y-99248402D01*
X121228945Y-99246679D01*
X120965566Y-99171654D01*
X120961324Y-99171050D01*
X120961318Y-99171049D01*
X120760834Y-99142516D01*
X120694443Y-99133067D01*
X120550589Y-99132314D01*
X120424877Y-99131656D01*
X120424871Y-99131656D01*
X120420591Y-99131634D01*
X120416339Y-99132194D01*
X120416336Y-99132194D01*
X120411760Y-99132796D01*
X120341612Y-99121855D01*
X120288514Y-99074726D01*
X120269326Y-99006371D01*
X120290139Y-98938494D01*
X120306222Y-98918779D01*
X127514510Y-91710491D01*
X128847485Y-91710491D01*
X128847749Y-91716090D01*
X128847749Y-91716092D01*
X128849615Y-91755658D01*
X128858068Y-91934893D01*
X128871317Y-91992739D01*
X128903240Y-92132121D01*
X128908222Y-92153875D01*
X128996361Y-92360514D01*
X128999438Y-92365198D01*
X128999441Y-92365204D01*
X129025840Y-92405393D01*
X129044361Y-92451816D01*
X129044739Y-92455671D01*
X129106747Y-92690365D01*
X129108803Y-92694982D01*
X129108803Y-92694983D01*
X129120833Y-92722002D01*
X129205482Y-92912125D01*
X129208252Y-92916358D01*
X129332719Y-93106563D01*
X129338402Y-93115248D01*
X129341817Y-93118987D01*
X129341817Y-93118988D01*
X129498675Y-93290770D01*
X129498679Y-93290774D01*
X129502087Y-93294506D01*
X129506050Y-93297647D01*
X129506051Y-93297648D01*
X129514751Y-93304543D01*
X129692327Y-93445288D01*
X129696740Y-93447755D01*
X129696744Y-93447757D01*
X129899811Y-93561248D01*
X129899816Y-93561250D01*
X129904226Y-93563715D01*
X129908982Y-93565446D01*
X130127572Y-93645006D01*
X130127574Y-93645007D01*
X130132334Y-93646739D01*
X130190533Y-93657841D01*
X130262166Y-93671506D01*
X130300983Y-93685826D01*
X130427613Y-93758054D01*
X130427621Y-93758058D01*
X130432485Y-93760832D01*
X130437762Y-93762701D01*
X130437767Y-93762703D01*
X130638961Y-93833949D01*
X130638964Y-93833950D01*
X130644251Y-93835822D01*
X130865950Y-93872127D01*
X130871563Y-93872039D01*
X130871566Y-93872039D01*
X130990345Y-93870173D01*
X131090573Y-93868598D01*
X131096078Y-93867518D01*
X131305514Y-93826429D01*
X131305518Y-93826428D01*
X131311022Y-93825348D01*
X131316248Y-93823310D01*
X131316253Y-93823309D01*
X131483621Y-93758054D01*
X131520327Y-93743743D01*
X131711874Y-93626363D01*
X131716067Y-93622628D01*
X131716070Y-93622625D01*
X131875417Y-93480651D01*
X131879607Y-93476918D01*
X132018226Y-93300132D01*
X132123347Y-93101593D01*
X132130628Y-93078781D01*
X132158884Y-92990240D01*
X135420373Y-92990240D01*
X135430631Y-93251332D01*
X135431606Y-93260161D01*
X135478550Y-93517205D01*
X135480759Y-93525807D01*
X135563452Y-93773669D01*
X135566856Y-93781887D01*
X135683647Y-94015623D01*
X135688171Y-94023271D01*
X135803480Y-94190108D01*
X135813801Y-94198462D01*
X135827451Y-94191340D01*
X136960106Y-93058685D01*
X136967720Y-93044741D01*
X136967589Y-93042908D01*
X136963338Y-93036293D01*
X135827947Y-91900902D01*
X135815106Y-91893890D01*
X135804417Y-91901686D01*
X135752791Y-91967172D01*
X135747786Y-91974536D01*
X135616548Y-92200478D01*
X135612644Y-92208448D01*
X135514548Y-92450636D01*
X135511804Y-92459080D01*
X135448811Y-92712673D01*
X135447284Y-92721424D01*
X135420652Y-92981356D01*
X135420373Y-92990240D01*
X132158884Y-92990240D01*
X132189942Y-92892922D01*
X132189942Y-92892921D01*
X132191648Y-92887576D01*
X132220025Y-92672034D01*
X132248746Y-92607109D01*
X132255851Y-92599387D01*
X133326677Y-91528561D01*
X136180173Y-91528561D01*
X136187153Y-91541688D01*
X137319316Y-92673851D01*
X137333260Y-92681465D01*
X137335093Y-92681334D01*
X137341708Y-92677083D01*
X138476932Y-91541859D01*
X138483786Y-91529307D01*
X138475578Y-91518236D01*
X138385890Y-91449789D01*
X138378441Y-91444896D01*
X138150481Y-91317232D01*
X138142431Y-91313444D01*
X137898745Y-91219168D01*
X137890255Y-91216556D01*
X137635706Y-91157556D01*
X137626928Y-91156166D01*
X137366606Y-91133619D01*
X137357735Y-91133479D01*
X137096824Y-91147838D01*
X137088014Y-91148952D01*
X136831735Y-91199928D01*
X136823178Y-91202269D01*
X136576624Y-91288853D01*
X136568490Y-91292373D01*
X136336605Y-91412828D01*
X136329033Y-91417467D01*
X136188575Y-91517840D01*
X136180173Y-91528561D01*
X133326677Y-91528561D01*
X133565189Y-91290049D01*
X133627501Y-91256023D01*
X133652302Y-91253160D01*
X133706868Y-91252303D01*
X133712373Y-91251223D01*
X133921809Y-91210134D01*
X133921813Y-91210133D01*
X133927317Y-91209053D01*
X133932543Y-91207015D01*
X133932548Y-91207014D01*
X134121153Y-91133479D01*
X134136622Y-91127448D01*
X134328169Y-91010068D01*
X134332362Y-91006333D01*
X134332365Y-91006330D01*
X134491712Y-90864356D01*
X134495902Y-90860623D01*
X134634521Y-90683837D01*
X134739642Y-90485298D01*
X134742192Y-90477310D01*
X134806237Y-90276627D01*
X134806237Y-90276626D01*
X134807943Y-90271281D01*
X134836320Y-90055739D01*
X134865041Y-89990814D01*
X134872146Y-89983092D01*
X135719177Y-89136061D01*
X135719219Y-89136020D01*
X136294295Y-88560944D01*
X136356607Y-88526918D01*
X136427422Y-88531983D01*
X136472485Y-88560944D01*
X136902318Y-88990777D01*
X136984865Y-89057804D01*
X136991028Y-89060884D01*
X136991032Y-89060886D01*
X137057697Y-89094196D01*
X137143084Y-89136861D01*
X137207093Y-89151933D01*
X137308124Y-89175723D01*
X137308126Y-89175723D01*
X137315247Y-89177400D01*
X137322563Y-89177394D01*
X137322566Y-89177394D01*
X137403873Y-89177323D01*
X137492117Y-89177246D01*
X137598784Y-89151933D01*
X137657088Y-89138097D01*
X137657089Y-89138097D01*
X137664209Y-89136407D01*
X137670745Y-89133127D01*
X137670750Y-89133125D01*
X137816141Y-89060160D01*
X137816145Y-89060157D01*
X137822289Y-89057074D01*
X137827624Y-89052731D01*
X137901228Y-88992808D01*
X137901234Y-88992802D01*
X137903722Y-88990777D01*
X139530634Y-87363865D01*
X139597661Y-87281318D01*
X139600741Y-87275155D01*
X139600743Y-87275151D01*
X139673449Y-87129641D01*
X139676718Y-87123099D01*
X139717257Y-86950936D01*
X139717103Y-86774066D01*
X139676264Y-86601974D01*
X139672984Y-86595438D01*
X139672982Y-86595433D01*
X139600017Y-86450042D01*
X139600014Y-86450038D01*
X139596931Y-86443894D01*
X139579998Y-86423095D01*
X139532665Y-86364955D01*
X139532659Y-86364949D01*
X139530634Y-86362461D01*
X138848169Y-85679996D01*
X138814143Y-85617684D01*
X138819208Y-85546869D01*
X138861755Y-85490033D01*
X138928275Y-85465222D01*
X138997649Y-85480313D01*
X139016815Y-85493189D01*
X139128618Y-85584211D01*
X139135894Y-85589325D01*
X139353677Y-85720441D01*
X139361591Y-85724474D01*
X139595686Y-85823601D01*
X139604091Y-85826478D01*
X139849813Y-85891630D01*
X139858545Y-85893296D01*
X140110998Y-85923175D01*
X140119866Y-85923593D01*
X140374006Y-85917604D01*
X140382861Y-85916767D01*
X140633622Y-85875029D01*
X140642256Y-85872956D01*
X140884640Y-85796300D01*
X140892902Y-85793029D01*
X141122058Y-85682990D01*
X141129782Y-85678584D01*
X141312381Y-85556576D01*
X141320669Y-85546658D01*
X141313412Y-85532479D01*
X139845085Y-84064152D01*
X140567571Y-84064152D01*
X140567702Y-84065985D01*
X140571953Y-84072600D01*
X141673190Y-85173837D01*
X141686591Y-85181155D01*
X141696492Y-85174169D01*
X141707290Y-85161325D01*
X141712516Y-85154130D01*
X141847030Y-84938445D01*
X141851201Y-84930567D01*
X141953980Y-84698085D01*
X141956996Y-84689708D01*
X142025995Y-84445054D01*
X142027799Y-84436346D01*
X142061806Y-84183165D01*
X142062334Y-84176772D01*
X142065808Y-84066242D01*
X142065681Y-84059799D01*
X142047641Y-83805006D01*
X142046388Y-83796203D01*
X141992883Y-83547682D01*
X141990404Y-83539149D01*
X141902417Y-83300650D01*
X141898762Y-83292555D01*
X141778044Y-83068827D01*
X141773285Y-83061329D01*
X141695167Y-82955565D01*
X141684039Y-82947123D01*
X141671446Y-82953947D01*
X140575185Y-84050208D01*
X140567571Y-84064152D01*
X139845085Y-84064152D01*
X138734586Y-82953653D01*
X138721745Y-82946641D01*
X138711056Y-82954436D01*
X138665278Y-83012505D01*
X138660285Y-83019853D01*
X138532603Y-83239675D01*
X138528695Y-83247649D01*
X138433260Y-83483267D01*
X138430511Y-83491729D01*
X138369230Y-83738433D01*
X138367701Y-83747194D01*
X138341790Y-84000079D01*
X138341511Y-84008962D01*
X138351491Y-84262980D01*
X138352465Y-84271804D01*
X138398141Y-84521895D01*
X138400345Y-84530482D01*
X138480799Y-84771633D01*
X138484203Y-84779851D01*
X138597830Y-85007255D01*
X138602348Y-85014894D01*
X138749419Y-85227688D01*
X138747679Y-85228890D01*
X138771389Y-85286606D01*
X138758579Y-85356437D01*
X138710049Y-85408258D01*
X138641207Y-85425615D01*
X138573910Y-85402998D01*
X138556977Y-85388804D01*
X137903722Y-84735549D01*
X137821175Y-84668522D01*
X137815012Y-84665442D01*
X137815008Y-84665440D01*
X137669498Y-84592734D01*
X137669499Y-84592734D01*
X137662956Y-84589465D01*
X137568462Y-84567215D01*
X137497916Y-84550603D01*
X137497914Y-84550603D01*
X137490793Y-84548926D01*
X137483477Y-84548932D01*
X137483474Y-84548932D01*
X137402167Y-84549003D01*
X137313923Y-84549080D01*
X137227877Y-84569500D01*
X137148952Y-84588229D01*
X137148951Y-84588229D01*
X137141831Y-84589919D01*
X137135295Y-84593199D01*
X137135290Y-84593201D01*
X136989899Y-84666166D01*
X136989895Y-84666169D01*
X136983751Y-84669252D01*
X136978418Y-84673594D01*
X136978416Y-84673595D01*
X136904812Y-84733518D01*
X136904806Y-84733524D01*
X136902318Y-84735549D01*
X136320109Y-85317758D01*
X136257797Y-85351784D01*
X136231014Y-85354663D01*
X135882751Y-85354663D01*
X135879233Y-85354614D01*
X135784585Y-85351970D01*
X135784582Y-85351970D01*
X135779530Y-85351829D01*
X135701638Y-85362222D01*
X135695097Y-85362921D01*
X135645312Y-85366927D01*
X135621814Y-85368817D01*
X135621813Y-85368817D01*
X135616769Y-85369223D01*
X135611850Y-85370431D01*
X135611851Y-85370431D01*
X135584863Y-85377059D01*
X135571476Y-85379589D01*
X135550492Y-85382389D01*
X135538915Y-85383934D01*
X135463700Y-85406642D01*
X135457346Y-85408381D01*
X135381028Y-85427126D01*
X135350781Y-85439965D01*
X135337979Y-85444599D01*
X135328518Y-85447456D01*
X135311368Y-85452633D01*
X135311363Y-85452635D01*
X135306527Y-85454095D01*
X135301983Y-85456311D01*
X135301976Y-85456314D01*
X135235913Y-85488535D01*
X135229912Y-85491270D01*
X135162243Y-85519994D01*
X135162235Y-85519998D01*
X135157578Y-85521975D01*
X135153294Y-85524673D01*
X135129779Y-85539481D01*
X135117871Y-85546109D01*
X135116313Y-85546869D01*
X135088347Y-85560509D01*
X135084217Y-85563423D01*
X135084211Y-85563426D01*
X135024133Y-85605806D01*
X135018649Y-85609464D01*
X134952167Y-85651330D01*
X134927523Y-85673056D01*
X134916835Y-85681497D01*
X134889988Y-85700436D01*
X134868485Y-85720071D01*
X134828768Y-85759788D01*
X134822998Y-85765207D01*
X134773876Y-85808513D01*
X134773873Y-85808516D01*
X134770079Y-85811861D01*
X134766864Y-85815775D01*
X134766863Y-85815776D01*
X134743556Y-85844150D01*
X134735286Y-85853270D01*
X133738699Y-86849856D01*
X133738698Y-86849857D01*
X133222372Y-87366184D01*
X132735857Y-87852699D01*
X132673545Y-87886725D01*
X132648744Y-87889588D01*
X132594178Y-87890445D01*
X132588673Y-87891525D01*
X132379238Y-87932614D01*
X132379234Y-87932615D01*
X132373730Y-87933695D01*
X132368504Y-87935733D01*
X132368499Y-87935734D01*
X132226522Y-87991089D01*
X132164424Y-88015300D01*
X131972877Y-88132680D01*
X131968684Y-88136415D01*
X131968681Y-88136418D01*
X131847938Y-88243997D01*
X131805144Y-88282125D01*
X131666525Y-88458911D01*
X131561405Y-88657451D01*
X131493103Y-88871467D01*
X131464817Y-89086325D01*
X131464727Y-89087006D01*
X131436005Y-89151933D01*
X131428900Y-89159655D01*
X130119561Y-90468994D01*
X130057249Y-90503020D01*
X130032448Y-90505883D01*
X129977883Y-90506740D01*
X129972378Y-90507820D01*
X129762943Y-90548909D01*
X129762939Y-90548910D01*
X129757435Y-90549990D01*
X129752209Y-90552028D01*
X129752204Y-90552029D01*
X129610227Y-90607384D01*
X129548129Y-90631595D01*
X129356582Y-90748975D01*
X129352389Y-90752710D01*
X129352386Y-90752713D01*
X129236224Y-90856210D01*
X129188849Y-90898420D01*
X129050230Y-91075206D01*
X129047605Y-91080164D01*
X128956010Y-91253160D01*
X128945110Y-91273746D01*
X128943404Y-91279092D01*
X128943403Y-91279094D01*
X128931232Y-91317232D01*
X128876808Y-91487762D01*
X128847485Y-91710491D01*
X127514510Y-91710491D01*
X136643448Y-82581553D01*
X139087052Y-82581553D01*
X139094032Y-82594679D01*
X140190351Y-83690998D01*
X140204295Y-83698612D01*
X140206128Y-83698481D01*
X140212743Y-83694230D01*
X141312292Y-82594681D01*
X141319146Y-82582129D01*
X141310939Y-82571059D01*
X141229393Y-82508825D01*
X141221964Y-82503945D01*
X141000168Y-82379733D01*
X140992134Y-82375952D01*
X140755028Y-82284223D01*
X140746555Y-82281616D01*
X140498899Y-82224213D01*
X140490123Y-82222823D01*
X140236854Y-82200888D01*
X140227983Y-82200748D01*
X139974139Y-82214718D01*
X139965337Y-82215830D01*
X139715995Y-82265428D01*
X139707442Y-82267768D01*
X139467584Y-82351998D01*
X139459418Y-82355532D01*
X139233832Y-82472716D01*
X139226260Y-82477355D01*
X139095455Y-82570830D01*
X139087052Y-82581553D01*
X136643448Y-82581553D01*
X141024910Y-78200091D01*
X141039675Y-78187446D01*
X141059054Y-78173288D01*
X141068466Y-78161043D01*
X141085815Y-78142640D01*
X141213080Y-78032285D01*
X141227398Y-78021551D01*
X141277025Y-77989587D01*
X141390402Y-77916561D01*
X141406095Y-77907965D01*
X141582331Y-77827124D01*
X141599075Y-77820841D01*
X141706509Y-77789023D01*
X141784984Y-77765782D01*
X141802459Y-77761932D01*
X141898373Y-77747848D01*
X141994290Y-77733765D01*
X142012128Y-77732429D01*
X142111418Y-77732067D01*
X142206012Y-77731723D01*
X142223865Y-77732928D01*
G37*
%TD.AperFunction*%
%TA.AperFunction,Conductor*%
G36*
X167524575Y-100258634D02*
G01*
X167671165Y-100301638D01*
X167681582Y-100303757D01*
X167899887Y-100329209D01*
X167910521Y-100329543D01*
X168129999Y-100317849D01*
X168140533Y-100316387D01*
X168354899Y-100267881D01*
X168365045Y-100264663D01*
X168367951Y-100263462D01*
X168369275Y-100263321D01*
X168370126Y-100263051D01*
X168370181Y-100263224D01*
X168438547Y-100255936D01*
X168502006Y-100287773D01*
X168538178Y-100348863D01*
X168542064Y-100379914D01*
X168542064Y-106202873D01*
X168522062Y-106270994D01*
X168505159Y-106291968D01*
X165922364Y-108874763D01*
X165860052Y-108908789D01*
X165789237Y-108903724D01*
X165732401Y-108861177D01*
X165719073Y-108838916D01*
X165711413Y-108822488D01*
X165705931Y-108812994D01*
X165669491Y-108760952D01*
X165659012Y-108752576D01*
X165645566Y-108759644D01*
X163856923Y-110548287D01*
X163850493Y-110560062D01*
X163859789Y-110572077D01*
X163910994Y-110607931D01*
X163920489Y-110613414D01*
X164117947Y-110705490D01*
X164128239Y-110709236D01*
X164269411Y-110747063D01*
X164330034Y-110784015D01*
X164361055Y-110847876D01*
X164362552Y-110876669D01*
X164362002Y-110885412D01*
X164360415Y-110898921D01*
X164354821Y-110931304D01*
X164353500Y-110960393D01*
X164353500Y-111016576D01*
X164353251Y-111024487D01*
X164348822Y-111094881D01*
X164349316Y-111099916D01*
X164352899Y-111136460D01*
X164353500Y-111148756D01*
X164353500Y-112616045D01*
X164333498Y-112684166D01*
X164279842Y-112730659D01*
X164209568Y-112740763D01*
X164149408Y-112714927D01*
X164080139Y-112660222D01*
X164071552Y-112654517D01*
X163885117Y-112551599D01*
X163875705Y-112547369D01*
X163674959Y-112476280D01*
X163664989Y-112473646D01*
X163455327Y-112436301D01*
X163445073Y-112435331D01*
X163232116Y-112432728D01*
X163221832Y-112433448D01*
X163011321Y-112465661D01*
X163001293Y-112468050D01*
X162798868Y-112534212D01*
X162789359Y-112538209D01*
X162600463Y-112636542D01*
X162591738Y-112642036D01*
X162492153Y-112716807D01*
X162425668Y-112741713D01*
X162356273Y-112726721D01*
X162305999Y-112676590D01*
X162290500Y-112616047D01*
X162290500Y-111441031D01*
X162310502Y-111372910D01*
X162327405Y-111351936D01*
X163121666Y-110557675D01*
X163124188Y-110555221D01*
X163193001Y-110490148D01*
X163196681Y-110486668D01*
X163244418Y-110424231D01*
X163248531Y-110419132D01*
X163299470Y-110359280D01*
X163302089Y-110354955D01*
X163302093Y-110354950D01*
X163316491Y-110331176D01*
X163324163Y-110319929D01*
X163344120Y-110293826D01*
X163346549Y-110289297D01*
X163360891Y-110262548D01*
X163410709Y-110211965D01*
X163480880Y-110197583D01*
X163498434Y-110188356D01*
X165287077Y-108399713D01*
X165293507Y-108387938D01*
X165284211Y-108375923D01*
X165233006Y-108340069D01*
X165223511Y-108334586D01*
X165026053Y-108242510D01*
X165015761Y-108238764D01*
X164805312Y-108182375D01*
X164794519Y-108180472D01*
X164577475Y-108161483D01*
X164566525Y-108161483D01*
X164349481Y-108180472D01*
X164338688Y-108182375D01*
X164128239Y-108238764D01*
X164117947Y-108242510D01*
X163920489Y-108334586D01*
X163910993Y-108340069D01*
X163778771Y-108432652D01*
X163711497Y-108455340D01*
X163642636Y-108438055D01*
X163594052Y-108386285D01*
X163580500Y-108329439D01*
X163580500Y-104434805D01*
X163600502Y-104366684D01*
X163617405Y-104345710D01*
X166703247Y-101259868D01*
X166729342Y-101239844D01*
X166852848Y-101168538D01*
X167025450Y-101068886D01*
X167111559Y-101006499D01*
X167228873Y-100874132D01*
X167312589Y-100718329D01*
X167346276Y-100592166D01*
X167356329Y-100554517D01*
X167356329Y-100554514D01*
X167358217Y-100547445D01*
X167359265Y-100511085D01*
X167360486Y-100468690D01*
X167363158Y-100375910D01*
X167385113Y-100308395D01*
X167440085Y-100263466D01*
X167510621Y-100255390D01*
X167524575Y-100258634D01*
G37*
%TD.AperFunction*%
%TA.AperFunction,Conductor*%
G36*
X152857349Y-87126502D02*
G01*
X152903842Y-87180158D01*
X152913946Y-87250432D01*
X152899216Y-87293970D01*
X152841722Y-87396844D01*
X152801955Y-87467998D01*
X152791438Y-87496894D01*
X152744735Y-87625208D01*
X152718930Y-87696105D01*
X152717982Y-87701074D01*
X152717981Y-87701078D01*
X152713108Y-87726623D01*
X152673444Y-87934553D01*
X152666666Y-88177205D01*
X152698771Y-88417820D01*
X152700233Y-88422661D01*
X152700233Y-88422663D01*
X152741983Y-88560944D01*
X152768933Y-88650208D01*
X152875346Y-88868388D01*
X152902959Y-88907531D01*
X153005387Y-89052731D01*
X153015274Y-89066747D01*
X153034909Y-89088250D01*
X153659565Y-89712906D01*
X153693591Y-89775218D01*
X153688526Y-89846033D01*
X153645979Y-89902869D01*
X153579459Y-89927680D01*
X153570470Y-89928001D01*
X153283331Y-89928001D01*
X153276510Y-89928371D01*
X153225648Y-89933895D01*
X153210396Y-89937521D01*
X153089946Y-89982676D01*
X153074351Y-89991214D01*
X152972276Y-90067715D01*
X152959715Y-90080276D01*
X152883826Y-90181535D01*
X152826967Y-90224050D01*
X152756149Y-90229076D01*
X152693855Y-90195016D01*
X152682174Y-90181535D01*
X152606285Y-90080276D01*
X152593724Y-90067715D01*
X152491649Y-89991214D01*
X152476054Y-89982676D01*
X152355606Y-89937522D01*
X152340351Y-89933895D01*
X152289486Y-89928369D01*
X152282672Y-89928000D01*
X151910115Y-89928000D01*
X151894876Y-89932475D01*
X151893671Y-89933865D01*
X151892000Y-89941548D01*
X151892000Y-91663885D01*
X151896475Y-91679124D01*
X151897865Y-91680329D01*
X151905548Y-91682000D01*
X154056000Y-91682000D01*
X154124121Y-91702002D01*
X154170614Y-91755658D01*
X154182000Y-91808000D01*
X154182000Y-92064000D01*
X154161998Y-92132121D01*
X154108342Y-92178614D01*
X154056000Y-92190000D01*
X151510000Y-92190000D01*
X151441879Y-92169998D01*
X151395386Y-92116342D01*
X151384000Y-92064000D01*
X151384000Y-89946116D01*
X151379525Y-89930877D01*
X151378135Y-89929672D01*
X151370452Y-89928001D01*
X151240500Y-89928001D01*
X151172379Y-89907999D01*
X151125886Y-89854343D01*
X151114500Y-89802001D01*
X151114500Y-88036999D01*
X151112754Y-88015300D01*
X151100346Y-87861076D01*
X151100345Y-87861071D01*
X151099940Y-87856035D01*
X151042037Y-87620294D01*
X150947188Y-87396844D01*
X150885977Y-87299643D01*
X150866602Y-87231341D01*
X150887230Y-87163407D01*
X150941311Y-87117410D01*
X150992597Y-87106500D01*
X152789228Y-87106500D01*
X152857349Y-87126502D01*
G37*
%TD.AperFunction*%
%TD*%
M02*
