%TF.GenerationSoftware,KiCad,Pcbnew,(6.0.5)*%
%TF.CreationDate,2023-02-26T21:46:22+09:00*%
%TF.ProjectId,psu_board,7073755f-626f-4617-9264-2e6b69636164,rev?*%
%TF.SameCoordinates,Original*%
%TF.FileFunction,Copper,L2,Bot*%
%TF.FilePolarity,Positive*%
%FSLAX46Y46*%
G04 Gerber Fmt 4.6, Leading zero omitted, Abs format (unit mm)*
G04 Created by KiCad (PCBNEW (6.0.5)) date 2023-02-26 21:46:22*
%MOMM*%
%LPD*%
G01*
G04 APERTURE LIST*
G04 Aperture macros list*
%AMRoundRect*
0 Rectangle with rounded corners*
0 $1 Rounding radius*
0 $2 $3 $4 $5 $6 $7 $8 $9 X,Y pos of 4 corners*
0 Add a 4 corners polygon primitive as box body*
4,1,4,$2,$3,$4,$5,$6,$7,$8,$9,$2,$3,0*
0 Add four circle primitives for the rounded corners*
1,1,$1+$1,$2,$3*
1,1,$1+$1,$4,$5*
1,1,$1+$1,$6,$7*
1,1,$1+$1,$8,$9*
0 Add four rect primitives between the rounded corners*
20,1,$1+$1,$2,$3,$4,$5,0*
20,1,$1+$1,$4,$5,$6,$7,0*
20,1,$1+$1,$6,$7,$8,$9,0*
20,1,$1+$1,$8,$9,$2,$3,0*%
%AMHorizOval*
0 Thick line with rounded ends*
0 $1 width*
0 $2 $3 position (X,Y) of the first rounded end (center of the circle)*
0 $4 $5 position (X,Y) of the second rounded end (center of the circle)*
0 Add line between two ends*
20,1,$1,$2,$3,$4,$5,0*
0 Add two circle primitives to create the rounded ends*
1,1,$1,$2,$3*
1,1,$1,$4,$5*%
%AMRotRect*
0 Rectangle, with rotation*
0 The origin of the aperture is its center*
0 $1 length*
0 $2 width*
0 $3 Rotation angle, in degrees counterclockwise*
0 Add horizontal line*
21,1,$1,$2,0,0,$3*%
G04 Aperture macros list end*
%TA.AperFunction,ComponentPad*%
%ADD10HorizOval,1.500000X-0.424264X0.424264X0.424264X-0.424264X0*%
%TD*%
%TA.AperFunction,ComponentPad*%
%ADD11RotRect,2.800000X2.800000X45.000000*%
%TD*%
%TA.AperFunction,ComponentPad*%
%ADD12HorizOval,2.800000X0.000000X0.000000X0.000000X0.000000X0*%
%TD*%
%TA.AperFunction,ComponentPad*%
%ADD13C,1.600000*%
%TD*%
%TA.AperFunction,ComponentPad*%
%ADD14RoundRect,0.250000X-0.144615X-0.949519X0.894615X-0.349519X0.144615X0.949519X-0.894615X0.349519X0*%
%TD*%
%TA.AperFunction,ComponentPad*%
%ADD15HorizOval,1.700000X-0.075000X0.129904X0.075000X-0.129904X0*%
%TD*%
%TA.AperFunction,ComponentPad*%
%ADD16C,1.635000*%
%TD*%
%TA.AperFunction,ComponentPad*%
%ADD17RoundRect,0.250000X-0.157115X-0.927868X0.882115X-0.327868X0.157115X0.927868X-0.882115X0.327868X0*%
%TD*%
%TA.AperFunction,ComponentPad*%
%ADD18HorizOval,1.700000X-0.062500X0.108253X0.062500X-0.108253X0*%
%TD*%
%TA.AperFunction,SMDPad,CuDef*%
%ADD19R,2.000000X4.000000*%
%TD*%
%TA.AperFunction,ComponentPad*%
%ADD20C,1.400000*%
%TD*%
%TA.AperFunction,ComponentPad*%
%ADD21O,1.400000X1.400000*%
%TD*%
%TA.AperFunction,ComponentPad*%
%ADD22C,1.440000*%
%TD*%
%TA.AperFunction,ComponentPad*%
%ADD23RoundRect,0.250001X0.000000X-1.555634X1.555634X0.000000X0.000000X1.555634X-1.555634X0.000000X0*%
%TD*%
%TA.AperFunction,ComponentPad*%
%ADD24C,2.700000*%
%TD*%
%TA.AperFunction,ComponentPad*%
%ADD25O,4.000000X2.000000*%
%TD*%
%TA.AperFunction,ComponentPad*%
%ADD26C,1.700000*%
%TD*%
%TA.AperFunction,ViaPad*%
%ADD27C,0.800000*%
%TD*%
%TA.AperFunction,Conductor*%
%ADD28C,2.000000*%
%TD*%
G04 APERTURE END LIST*
D10*
%TO.P,F1,1*%
%TO.N,Net-(BT1-Pad1)*%
X133150523Y-89571374D03*
X130534228Y-92187669D03*
%TO.P,F1,2*%
%TO.N,Net-(D1-Pad1)*%
X124877374Y-97844523D03*
X127493669Y-95228228D03*
%TD*%
D11*
%TO.P,D1,1,K*%
%TO.N,Net-(D1-Pad1)*%
X128351872Y-102026129D03*
D12*
%TO.P,D1,2,A*%
%TO.N,GND*%
X137332128Y-93045873D03*
%TD*%
D13*
%TO.P,C4,1*%
%TO.N,+3V3*%
X170063000Y-106867468D03*
%TO.P,C4,2*%
%TO.N,GND*%
X171313000Y-109032532D03*
%TD*%
D14*
%TO.P,Kiker PSU,1,Pin_1*%
%TO.N,+7.5V*%
X160706969Y-86530337D03*
D15*
%TO.P,Kiker PSU,2,Pin_2*%
%TO.N,GND*%
X162872033Y-85280337D03*
%TD*%
D13*
%TO.P,22\u03BCF,1*%
%TO.N,+7.5V*%
X149606000Y-88098000D03*
%TO.P,22\u03BCF,2*%
%TO.N,GND*%
X149606000Y-83098000D03*
%TD*%
D16*
%TO.P,SW2,1*%
%TO.N,GND*%
X138684000Y-99060000D03*
%TO.P,SW2,2*%
%TO.N,Net-(R1-Pad2)*%
X138684000Y-101600000D03*
%TO.P,SW2,3*%
%TO.N,N/C*%
X138684000Y-104140000D03*
%TD*%
D17*
%TO.P,MB,1,Pin_1*%
%TO.N,+5V*%
X165720437Y-100109337D03*
D18*
%TO.P,MB,2,Pin_2*%
%TO.N,GND*%
X167885501Y-98859337D03*
%TO.P,MB,3,Pin_3*%
%TO.N,+3V3*%
X170050564Y-97609337D03*
%TD*%
D19*
%TO.P,MES1,1,-*%
%TO.N,GND*%
X151384000Y-116445000D03*
%TO.P,MES1,2,+*%
%TO.N,Net-(D1-Pad1)*%
X155956000Y-116445000D03*
%TD*%
D20*
%TO.P,R1,1*%
%TO.N,+7.5V*%
X142748000Y-92456000D03*
D21*
%TO.P,R1,2*%
%TO.N,Net-(R1-Pad2)*%
X142748000Y-97536000D03*
%TD*%
D22*
%TO.P,RV1,1,1*%
%TO.N,Net-(R2-Pad1)*%
X152136000Y-108712000D03*
%TO.P,RV1,2,2*%
X154676000Y-108712000D03*
%TO.P,RV1,3,3*%
%TO.N,Net-(RV1-Pad3)*%
X157216000Y-108712000D03*
%TD*%
D20*
%TO.P,R2,1*%
%TO.N,Net-(R2-Pad1)*%
X147574000Y-108712000D03*
D21*
%TO.P,R2,2*%
%TO.N,GND*%
X142494000Y-108712000D03*
%TD*%
D13*
%TO.P,C3,1*%
%TO.N,+5V*%
X162072000Y-109474000D03*
%TO.P,C3,2*%
%TO.N,GND*%
X164572000Y-109474000D03*
%TD*%
D23*
%TO.P,BT1,1,+*%
%TO.N,Net-(BT1-Pad1)*%
X137403020Y-86863163D03*
D24*
%TO.P,BT1,2,-*%
%TO.N,GND*%
X140203163Y-84063020D03*
%TD*%
D25*
%TO.P,SW1,1*%
%TO.N,Net-(D1-Pad1)*%
X133096000Y-117094000D03*
%TO.P,SW1,2*%
%TO.N,+7.5V*%
X133096000Y-111094000D03*
%TD*%
D13*
%TO.P,10\u03BCF,1*%
%TO.N,+5V*%
X154178000Y-88098000D03*
%TO.P,10\u03BCF,2*%
%TO.N,GND*%
X154178000Y-83098000D03*
%TD*%
D14*
%TO.P,MD,1,Pin_1*%
%TO.N,+7.5V*%
X164262969Y-92626337D03*
D15*
%TO.P,MD,2,Pin_2*%
%TO.N,GND*%
X166428033Y-91376337D03*
%TD*%
D26*
%TO.P,U2,1,VIN*%
%TO.N,+5V*%
X160782000Y-113792000D03*
%TO.P,U2,2,VOUT*%
%TO.N,+3V3*%
X165862000Y-113792000D03*
%TO.P,U2,3,GND*%
%TO.N,GND*%
X163322000Y-113792000D03*
%TD*%
D27*
%TO.N,Net-(BT1-Pad1)*%
X134728948Y-87992948D03*
X131934948Y-90786948D03*
%TO.N,GND*%
X158496000Y-110998000D03*
X160909000Y-100457000D03*
X168402000Y-90297000D03*
X159639000Y-108585000D03*
X163322000Y-111506000D03*
X122174000Y-103632000D03*
X151638000Y-105918000D03*
X136144000Y-111252000D03*
X136652000Y-101092000D03*
X139700000Y-92202000D03*
X166116000Y-97536000D03*
X132842000Y-113538000D03*
X140843000Y-79248000D03*
X164338000Y-104648000D03*
X152781000Y-94996000D03*
X144526000Y-110998000D03*
X155448000Y-103632000D03*
X143002000Y-85852000D03*
X147574000Y-103632000D03*
X149098000Y-115316000D03*
X146050000Y-115316000D03*
X154686000Y-110998000D03*
X168148000Y-94361000D03*
X151892000Y-88138000D03*
X153670000Y-116586000D03*
X151638000Y-100076000D03*
X133096000Y-120142000D03*
X173101000Y-101346000D03*
X137668000Y-115443000D03*
X137033000Y-123952000D03*
X158242000Y-94996000D03*
X165862000Y-108204000D03*
X131572000Y-98552000D03*
X158369000Y-117221000D03*
X164084000Y-107696000D03*
X151892000Y-83058000D03*
X143002000Y-115316000D03*
X174879000Y-105664000D03*
X158496000Y-114046000D03*
X140716000Y-98806000D03*
X141097000Y-110998000D03*
X127508000Y-109220000D03*
X140716000Y-103632000D03*
X136906000Y-83312000D03*
X145923000Y-83693000D03*
X133350000Y-86614000D03*
X127762000Y-92456000D03*
X150876000Y-110998000D03*
X135382000Y-91186000D03*
X147447000Y-95250000D03*
X135128000Y-109220000D03*
X131318000Y-102362000D03*
X158242000Y-91186000D03*
X167894000Y-111887000D03*
X171958000Y-96520000D03*
X139954000Y-115443000D03*
X131318000Y-109220000D03*
X127508000Y-104648000D03*
X164592000Y-88265000D03*
X130302000Y-94996000D03*
X138557000Y-107569000D03*
X163322000Y-117221000D03*
X164719000Y-84074000D03*
X147574000Y-110998000D03*
X143510000Y-102870000D03*
X159004000Y-87630000D03*
X163068000Y-94996000D03*
X139192000Y-89408000D03*
X129032000Y-116459000D03*
X159639000Y-104267000D03*
X129159000Y-123825000D03*
X156718000Y-87630000D03*
X131318000Y-105918000D03*
X167894000Y-101092000D03*
X134874000Y-95504000D03*
X157734000Y-81915000D03*
X167894000Y-105918000D03*
X142748000Y-95250000D03*
X135128000Y-102616000D03*
X121920000Y-98298000D03*
%TO.N,+7.5V*%
X158750000Y-85598000D03*
X161701225Y-88234775D03*
X133096000Y-104140000D03*
X142748000Y-90170000D03*
X133096000Y-106172000D03*
X145034000Y-87884000D03*
X162543435Y-89678565D03*
X141194758Y-93696758D03*
X156464000Y-85598000D03*
X134590758Y-100300758D03*
X136114758Y-98776758D03*
X151892000Y-85598000D03*
X163292067Y-90961933D03*
X139416758Y-95474758D03*
X133096000Y-101854000D03*
X137638758Y-97252758D03*
X147320000Y-85598000D03*
X154178000Y-85598000D03*
X133096000Y-108204000D03*
X149606000Y-85598000D03*
%TO.N,Net-(D1-Pad1)*%
X147574000Y-113245489D03*
X126219948Y-96501948D03*
X141478000Y-113245489D03*
X150622000Y-113245489D03*
X135636000Y-114554000D03*
X129540000Y-106172000D03*
X136906000Y-113284000D03*
X149098000Y-113245489D03*
X126446871Y-100121129D03*
X129540000Y-113792000D03*
X153583511Y-113245489D03*
X143002000Y-113245489D03*
X129540000Y-112014000D03*
X154686000Y-114300000D03*
X129540000Y-110236000D03*
X138430000Y-113245489D03*
X129540000Y-104140000D03*
X146050000Y-113245489D03*
X152146000Y-113245489D03*
X130937000Y-115189000D03*
X144526000Y-113245489D03*
X139954000Y-113245489D03*
X129540000Y-108204000D03*
%TD*%
D28*
%TO.N,Net-(BT1-Pad1)*%
X137403020Y-86863163D02*
X135858734Y-86863163D01*
X135858734Y-86863163D02*
X130534228Y-92187669D01*
%TO.N,+7.5V*%
X160528000Y-86351368D02*
X160519368Y-86351368D01*
X147320000Y-85598000D02*
X142748000Y-90170000D01*
X164262969Y-92626337D02*
X162543435Y-89678565D01*
X162543435Y-89678565D02*
X160706969Y-86530337D01*
X159766000Y-85598000D02*
X147320000Y-85598000D01*
X142748000Y-90170000D02*
X142748000Y-92456000D01*
X160706969Y-86530337D02*
X160528000Y-86351368D01*
X160519368Y-86351368D02*
X159766000Y-85598000D01*
X133096000Y-111094000D02*
X133096000Y-101795515D01*
X133096000Y-101795515D02*
X142435515Y-92456000D01*
X142435515Y-92456000D02*
X142748000Y-92456000D01*
%TO.N,Net-(D1-Pad1)*%
X129540000Y-103214257D02*
X128351872Y-102026129D01*
X136944511Y-113245489D02*
X138214511Y-113245489D01*
X150406511Y-113245489D02*
X151930511Y-113245489D01*
X145834511Y-113245489D02*
X147358511Y-113245489D01*
X144310511Y-113245489D02*
X145834511Y-113245489D01*
X129540000Y-113792000D02*
X129540000Y-103214257D01*
X151930511Y-113245489D02*
X153583511Y-113245489D01*
X155956000Y-115617978D02*
X155956000Y-116445000D01*
X153583511Y-113245489D02*
X155956000Y-115617978D01*
X124877374Y-97844523D02*
X124877374Y-98551631D01*
X147358511Y-113245489D02*
X148882511Y-113245489D01*
X138214511Y-113245489D02*
X139738511Y-113245489D01*
X133096000Y-117094000D02*
X136944511Y-113245489D01*
X124877374Y-98551631D02*
X128351872Y-102026129D01*
X148882511Y-113245489D02*
X150406511Y-113245489D01*
X133096000Y-117094000D02*
X132842000Y-117094000D01*
X141262511Y-113245489D02*
X142786511Y-113245489D01*
X127493669Y-95228228D02*
X124877374Y-97844523D01*
X142786511Y-113245489D02*
X144310511Y-113245489D01*
X139738511Y-113245489D02*
X141262511Y-113245489D01*
X132842000Y-117094000D02*
X129540000Y-113792000D01*
%TD*%
%TA.AperFunction,Conductor*%
%TO.N,GND*%
G36*
X142223865Y-77732928D02*
G01*
X142415901Y-77759695D01*
X142433405Y-77763418D01*
X142584739Y-77807039D01*
X142605950Y-77815995D01*
X142606138Y-77815597D01*
X142610538Y-77817675D01*
X142614768Y-77820088D01*
X142620388Y-77822229D01*
X142620625Y-77822360D01*
X142620889Y-77822419D01*
X142626498Y-77824556D01*
X142631258Y-77825568D01*
X142633553Y-77826245D01*
X142639688Y-77828226D01*
X143796779Y-78234822D01*
X143854416Y-78276276D01*
X143880492Y-78342311D01*
X143866727Y-78411960D01*
X143817491Y-78463111D01*
X143785982Y-78474934D01*
X143786178Y-78475649D01*
X143522028Y-78547912D01*
X143518080Y-78549596D01*
X143274082Y-78653670D01*
X143274078Y-78653672D01*
X143270130Y-78655356D01*
X143151514Y-78726346D01*
X143038825Y-78793788D01*
X143038821Y-78793791D01*
X143035143Y-78795992D01*
X142821418Y-78967218D01*
X142632908Y-79165866D01*
X142473102Y-79388260D01*
X142344957Y-79630285D01*
X142343485Y-79634308D01*
X142343483Y-79634312D01*
X142300972Y-79750479D01*
X142250843Y-79887461D01*
X142192504Y-80155031D01*
X142171017Y-80428042D01*
X142171434Y-80435280D01*
X142186782Y-80701444D01*
X142239505Y-80970177D01*
X142240892Y-80974227D01*
X142240893Y-80974232D01*
X142312675Y-81183889D01*
X142328212Y-81229268D01*
X142357338Y-81287178D01*
X142426937Y-81425561D01*
X142451260Y-81473923D01*
X142453686Y-81477452D01*
X142453689Y-81477458D01*
X142603943Y-81696077D01*
X142606374Y-81699614D01*
X142790682Y-81902167D01*
X143000775Y-82077831D01*
X143004416Y-82080115D01*
X143229124Y-82221075D01*
X143229128Y-82221077D01*
X143232764Y-82223358D01*
X143331121Y-82267768D01*
X143478445Y-82334288D01*
X143478449Y-82334290D01*
X143482357Y-82336054D01*
X143486477Y-82337274D01*
X143486476Y-82337274D01*
X143740823Y-82412615D01*
X143740827Y-82412616D01*
X143744936Y-82413833D01*
X143749170Y-82414481D01*
X143749175Y-82414482D01*
X144011398Y-82454607D01*
X144011400Y-82454607D01*
X144015640Y-82455256D01*
X144155012Y-82457446D01*
X144285171Y-82459491D01*
X144285177Y-82459491D01*
X144289462Y-82459558D01*
X144561335Y-82426658D01*
X144826227Y-82357165D01*
X144830187Y-82355525D01*
X144830192Y-82355523D01*
X145008618Y-82281616D01*
X145079236Y-82252365D01*
X145315682Y-82114197D01*
X145447309Y-82010988D01*
X148884576Y-82010988D01*
X148891644Y-82024434D01*
X149593188Y-82725978D01*
X149607132Y-82733592D01*
X149608965Y-82733461D01*
X149615580Y-82729210D01*
X150321077Y-82023713D01*
X150327507Y-82011938D01*
X150326772Y-82010988D01*
X153456576Y-82010988D01*
X153463644Y-82024434D01*
X154165188Y-82725978D01*
X154179132Y-82733592D01*
X154180965Y-82733461D01*
X154187580Y-82729210D01*
X154893077Y-82023713D01*
X154899507Y-82011938D01*
X154890211Y-81999923D01*
X154839006Y-81964069D01*
X154829511Y-81958586D01*
X154632053Y-81866510D01*
X154621761Y-81862764D01*
X154411312Y-81806375D01*
X154400519Y-81804472D01*
X154183475Y-81785483D01*
X154172525Y-81785483D01*
X153955481Y-81804472D01*
X153944688Y-81806375D01*
X153734239Y-81862764D01*
X153723947Y-81866510D01*
X153526489Y-81958586D01*
X153516994Y-81964069D01*
X153464952Y-82000509D01*
X153456576Y-82010988D01*
X150326772Y-82010988D01*
X150318211Y-81999923D01*
X150267006Y-81964069D01*
X150257511Y-81958586D01*
X150060053Y-81866510D01*
X150049761Y-81862764D01*
X149839312Y-81806375D01*
X149828519Y-81804472D01*
X149611475Y-81785483D01*
X149600525Y-81785483D01*
X149383481Y-81804472D01*
X149372688Y-81806375D01*
X149162239Y-81862764D01*
X149151947Y-81866510D01*
X148954489Y-81958586D01*
X148944994Y-81964069D01*
X148892952Y-82000509D01*
X148884576Y-82010988D01*
X145447309Y-82010988D01*
X145531189Y-81945218D01*
X145572909Y-81902167D01*
X145718786Y-81751633D01*
X145721769Y-81748555D01*
X145724302Y-81745107D01*
X145724306Y-81745102D01*
X145881357Y-81531302D01*
X145883895Y-81527847D01*
X145911254Y-81477458D01*
X146012518Y-81290954D01*
X146012519Y-81290952D01*
X146014568Y-81287178D01*
X146068954Y-81143249D01*
X146109851Y-81035019D01*
X146109852Y-81035015D01*
X146111369Y-81031001D01*
X146158918Y-80823391D01*
X146171549Y-80768241D01*
X146171550Y-80768237D01*
X146172507Y-80764057D01*
X146178762Y-80693979D01*
X146196631Y-80493751D01*
X146196631Y-80493749D01*
X146196851Y-80491285D01*
X146197293Y-80449124D01*
X146195846Y-80427902D01*
X146178959Y-80180179D01*
X146178958Y-80180173D01*
X146178667Y-80175902D01*
X146123132Y-79907736D01*
X146031717Y-79649589D01*
X145906113Y-79406236D01*
X145898439Y-79395316D01*
X145825119Y-79290993D01*
X145748645Y-79182181D01*
X145621953Y-79045844D01*
X145590236Y-78982329D01*
X145597892Y-78911746D01*
X145642493Y-78856508D01*
X145709878Y-78834151D01*
X145749404Y-78839077D01*
X146213710Y-78973955D01*
X146213724Y-78973959D01*
X146214561Y-78974202D01*
X146215403Y-78974422D01*
X146215419Y-78974426D01*
X147429283Y-79290993D01*
X147429305Y-79290998D01*
X147430124Y-79291212D01*
X147430959Y-79291405D01*
X147430974Y-79291409D01*
X148653152Y-79574363D01*
X148653173Y-79574368D01*
X148653974Y-79574553D01*
X148654762Y-79574713D01*
X148654782Y-79574717D01*
X149878603Y-79822677D01*
X149885177Y-79824009D01*
X149886045Y-79824160D01*
X149886050Y-79824161D01*
X151121927Y-80039239D01*
X151121943Y-80039242D01*
X151122796Y-80039390D01*
X151123639Y-80039513D01*
X151123665Y-80039517D01*
X152059607Y-80175902D01*
X152365887Y-80220533D01*
X152366784Y-80220638D01*
X152366780Y-80220638D01*
X153612651Y-80367198D01*
X153612684Y-80367201D01*
X153613505Y-80367298D01*
X153614338Y-80367373D01*
X153614350Y-80367374D01*
X154863849Y-80479499D01*
X154863856Y-80479500D01*
X154864697Y-80479575D01*
X154865508Y-80479625D01*
X154865544Y-80479628D01*
X156117637Y-80557224D01*
X156117653Y-80557225D01*
X156118512Y-80557278D01*
X156686470Y-80576762D01*
X157373108Y-80600317D01*
X157373136Y-80600318D01*
X157373994Y-80600347D01*
X157374890Y-80600353D01*
X158629280Y-80608744D01*
X158629284Y-80608744D01*
X158630186Y-80608750D01*
X158631090Y-80608731D01*
X158631102Y-80608731D01*
X159885243Y-80582499D01*
X159885272Y-80582498D01*
X159886132Y-80582480D01*
X160409369Y-80557075D01*
X161140053Y-80521598D01*
X161140063Y-80521597D01*
X161140874Y-80521558D01*
X161867635Y-80466131D01*
X162368906Y-80427902D01*
X162376921Y-80427595D01*
X162381024Y-80427910D01*
X162387016Y-80427444D01*
X162387284Y-80427461D01*
X162387546Y-80427402D01*
X162393539Y-80426936D01*
X162398276Y-80425816D01*
X162398283Y-80425815D01*
X162404391Y-80424371D01*
X162431004Y-80421013D01*
X162563065Y-80418524D01*
X162595885Y-80417905D01*
X162613753Y-80418839D01*
X162653562Y-80423772D01*
X162806172Y-80442684D01*
X162823726Y-80446140D01*
X163010823Y-80497001D01*
X163027698Y-80502903D01*
X163205715Y-80579763D01*
X163221594Y-80588003D01*
X163386908Y-80689291D01*
X163401462Y-80699698D01*
X163479148Y-80764057D01*
X163550768Y-80823391D01*
X163563702Y-80835756D01*
X163693981Y-80979353D01*
X163705032Y-80993426D01*
X163727613Y-81026813D01*
X163795420Y-81127070D01*
X163803883Y-81143249D01*
X163807806Y-81150240D01*
X163811045Y-81158612D01*
X163816504Y-81165738D01*
X163816505Y-81165741D01*
X163830405Y-81183889D01*
X163839495Y-81197506D01*
X178494090Y-106580011D01*
X178510828Y-106649006D01*
X178487608Y-106716098D01*
X178431800Y-106759985D01*
X178361125Y-106766734D01*
X178350458Y-106764191D01*
X178104560Y-106694146D01*
X178100318Y-106693542D01*
X178100312Y-106693541D01*
X177899828Y-106665008D01*
X177833437Y-106655559D01*
X177689583Y-106654806D01*
X177563871Y-106654148D01*
X177563865Y-106654148D01*
X177559585Y-106654126D01*
X177555341Y-106654685D01*
X177555337Y-106654685D01*
X177436296Y-106670357D01*
X177288072Y-106689871D01*
X177283932Y-106691004D01*
X177283930Y-106691004D01*
X177211002Y-106710955D01*
X177023922Y-106762134D01*
X177007424Y-106769171D01*
X176775976Y-106867892D01*
X176775972Y-106867894D01*
X176772024Y-106869578D01*
X176679564Y-106924914D01*
X176540719Y-107008010D01*
X176540715Y-107008013D01*
X176537037Y-107010214D01*
X176323312Y-107181440D01*
X176228368Y-107281490D01*
X176194945Y-107316711D01*
X176134802Y-107380088D01*
X175974996Y-107602482D01*
X175846851Y-107844507D01*
X175845379Y-107848530D01*
X175845377Y-107848534D01*
X175787270Y-108007317D01*
X175752737Y-108101683D01*
X175694398Y-108369253D01*
X175687726Y-108454027D01*
X175674207Y-108625803D01*
X175672911Y-108642264D01*
X175673328Y-108649502D01*
X175688676Y-108915666D01*
X175741399Y-109184399D01*
X175742786Y-109188449D01*
X175742787Y-109188454D01*
X175816775Y-109404554D01*
X175830106Y-109443490D01*
X175860882Y-109504681D01*
X175936865Y-109655757D01*
X175953154Y-109688145D01*
X175955580Y-109691674D01*
X175955583Y-109691680D01*
X176086027Y-109881475D01*
X176108268Y-109913836D01*
X176111155Y-109917009D01*
X176111156Y-109917010D01*
X176283212Y-110106098D01*
X176292576Y-110116389D01*
X176502669Y-110292053D01*
X176506310Y-110294337D01*
X176731018Y-110435297D01*
X176731022Y-110435299D01*
X176734658Y-110437580D01*
X176984251Y-110550276D01*
X176987165Y-110551139D01*
X177043799Y-110593452D01*
X177068672Y-110659949D01*
X177053646Y-110729337D01*
X177006002Y-110778175D01*
X172901622Y-113147840D01*
X168951586Y-115428394D01*
X168932609Y-115437334D01*
X168918358Y-115442648D01*
X168918350Y-115442651D01*
X168913798Y-115444349D01*
X168902851Y-115450493D01*
X168899024Y-115453499D01*
X168896812Y-115454976D01*
X168890086Y-115459743D01*
X168571286Y-115662838D01*
X168569111Y-115664507D01*
X168261118Y-115900837D01*
X168261112Y-115900842D01*
X168258950Y-115902501D01*
X167968690Y-116168474D01*
X167966839Y-116170494D01*
X167966836Y-116170497D01*
X167780569Y-116373771D01*
X167702716Y-116458732D01*
X167654590Y-116521451D01*
X167464723Y-116768888D01*
X167464715Y-116768900D01*
X167463051Y-116771068D01*
X167251521Y-117103103D01*
X167183374Y-117234012D01*
X167154941Y-117288631D01*
X167069734Y-117452310D01*
X166919075Y-117816033D01*
X166918249Y-117818653D01*
X166918246Y-117818661D01*
X166801597Y-118188622D01*
X166800689Y-118191502D01*
X166715479Y-118575861D01*
X166715121Y-118578581D01*
X166715120Y-118578586D01*
X166711008Y-118609820D01*
X166664092Y-118966183D01*
X166646919Y-119359499D01*
X166664092Y-119752815D01*
X166715479Y-120143138D01*
X166800689Y-120527496D01*
X166919074Y-120902966D01*
X166920122Y-120905497D01*
X166920126Y-120905507D01*
X167017074Y-121139557D01*
X167069734Y-121266688D01*
X167237199Y-121588385D01*
X167240784Y-121596447D01*
X167240815Y-121596433D01*
X167242870Y-121600864D01*
X167244567Y-121605416D01*
X167250711Y-121616363D01*
X167253715Y-121620187D01*
X167267951Y-121638310D01*
X167277984Y-121653143D01*
X168170537Y-123199090D01*
X171567376Y-129082589D01*
X171584114Y-129151584D01*
X171560894Y-129218676D01*
X171505086Y-129262563D01*
X171440504Y-129270332D01*
X171244029Y-129242369D01*
X171100175Y-129241616D01*
X170974463Y-129240958D01*
X170974457Y-129240958D01*
X170970177Y-129240936D01*
X170965933Y-129241495D01*
X170965929Y-129241495D01*
X170863220Y-129255017D01*
X170698664Y-129276681D01*
X170694524Y-129277814D01*
X170694522Y-129277814D01*
X170656616Y-129288184D01*
X170434514Y-129348944D01*
X170430566Y-129350628D01*
X170186568Y-129454702D01*
X170186564Y-129454704D01*
X170182616Y-129456388D01*
X170095723Y-129508392D01*
X169951311Y-129594820D01*
X169951307Y-129594823D01*
X169947629Y-129597024D01*
X169733904Y-129768250D01*
X169545394Y-129966898D01*
X169385588Y-130189292D01*
X169257443Y-130431317D01*
X169255971Y-130435340D01*
X169255969Y-130435344D01*
X169213458Y-130551511D01*
X169163329Y-130688493D01*
X169104990Y-130956063D01*
X169083503Y-131229074D01*
X169083920Y-131236312D01*
X169099268Y-131502476D01*
X169151991Y-131771209D01*
X169153378Y-131775259D01*
X169153379Y-131775264D01*
X169231561Y-132003613D01*
X169240698Y-132030300D01*
X169302222Y-132152628D01*
X169339423Y-132226593D01*
X169363746Y-132274955D01*
X169366172Y-132278484D01*
X169366175Y-132278490D01*
X169510316Y-132488215D01*
X169518860Y-132500646D01*
X169703168Y-132703199D01*
X169706463Y-132705954D01*
X169711015Y-132709760D01*
X169750445Y-132768800D01*
X169751696Y-132839786D01*
X169714370Y-132900179D01*
X169645589Y-132931479D01*
X169489130Y-132950741D01*
X169389055Y-132963062D01*
X169386662Y-132963332D01*
X168943490Y-133009143D01*
X167479521Y-133160473D01*
X167477075Y-133160702D01*
X165566443Y-133320634D01*
X165563994Y-133320815D01*
X163650604Y-133443478D01*
X163648152Y-133443611D01*
X161732788Y-133528954D01*
X161730333Y-133529040D01*
X159813567Y-133577038D01*
X159811121Y-133577075D01*
X159254189Y-133580163D01*
X157893884Y-133587704D01*
X157891428Y-133587694D01*
X155974305Y-133560953D01*
X155971849Y-133560895D01*
X154055605Y-133496792D01*
X154053152Y-133496686D01*
X152138523Y-133395246D01*
X152136072Y-133395092D01*
X150223783Y-133256354D01*
X150221335Y-133256152D01*
X149027973Y-133146154D01*
X148312128Y-133080170D01*
X148309736Y-133079927D01*
X146404232Y-132866756D01*
X146401876Y-132866469D01*
X145509869Y-132749034D01*
X144500958Y-132616208D01*
X144498526Y-132615864D01*
X143363790Y-132443911D01*
X142602800Y-132328594D01*
X142600437Y-132328212D01*
X141357575Y-132115015D01*
X140710703Y-132004052D01*
X140708287Y-132003613D01*
X138981424Y-131672622D01*
X138825294Y-131642696D01*
X138822915Y-131642217D01*
X137103825Y-131277840D01*
X136947219Y-131244646D01*
X136944821Y-131244113D01*
X136083850Y-131044012D01*
X135077312Y-130810079D01*
X135074933Y-130809502D01*
X135064588Y-130806884D01*
X134580854Y-130684473D01*
X133216174Y-130339134D01*
X133213800Y-130338508D01*
X131364634Y-129832021D01*
X131362271Y-129831349D01*
X129523276Y-129288902D01*
X129520928Y-129288184D01*
X129365064Y-129238887D01*
X127692885Y-128710006D01*
X127690636Y-128709271D01*
X126785144Y-128403341D01*
X125874121Y-128095542D01*
X125871802Y-128094733D01*
X124805978Y-127711331D01*
X124067626Y-127445728D01*
X124065402Y-127444903D01*
X122274277Y-126760879D01*
X122271991Y-126759981D01*
X122029510Y-126661921D01*
X121973856Y-126617839D01*
X121950871Y-126550666D01*
X121967850Y-126481730D01*
X122013177Y-126436323D01*
X122193862Y-126330739D01*
X122193863Y-126330738D01*
X122197565Y-126328575D01*
X122413072Y-126159596D01*
X122603652Y-125962933D01*
X122606185Y-125959485D01*
X122606189Y-125959480D01*
X122763240Y-125745680D01*
X122765778Y-125742225D01*
X122821315Y-125639939D01*
X122894401Y-125505332D01*
X122894402Y-125505330D01*
X122896451Y-125501556D01*
X122993252Y-125245379D01*
X123034156Y-125066781D01*
X123053432Y-124982619D01*
X123053433Y-124982615D01*
X123054390Y-124978435D01*
X123062893Y-124883167D01*
X123078514Y-124708129D01*
X123078514Y-124708127D01*
X123078734Y-124705663D01*
X123079176Y-124663502D01*
X123078232Y-124649658D01*
X123060842Y-124394557D01*
X123060841Y-124394551D01*
X123060550Y-124390280D01*
X123005015Y-124122114D01*
X122913600Y-123863967D01*
X122787996Y-123620614D01*
X122770129Y-123595191D01*
X122632991Y-123400064D01*
X122630528Y-123396559D01*
X122444108Y-123195947D01*
X122440793Y-123193233D01*
X122440789Y-123193230D01*
X122235506Y-123025208D01*
X122232188Y-123022492D01*
X121998687Y-122879403D01*
X121993810Y-122877262D01*
X121751856Y-122771051D01*
X121751852Y-122771050D01*
X121747928Y-122769327D01*
X121484549Y-122694302D01*
X121480307Y-122693698D01*
X121480301Y-122693697D01*
X121285127Y-122665920D01*
X121245135Y-122660228D01*
X121180512Y-122630827D01*
X121142044Y-122571156D01*
X121141942Y-122500159D01*
X121173794Y-122446390D01*
X124146447Y-119473738D01*
X127232867Y-116387318D01*
X127248882Y-116373771D01*
X127249212Y-116373536D01*
X127265239Y-116362125D01*
X127274223Y-116353358D01*
X127277140Y-116349466D01*
X127279005Y-116347341D01*
X127284114Y-116341181D01*
X127408064Y-116205914D01*
X127539535Y-116062438D01*
X127663536Y-115900837D01*
X127777529Y-115752277D01*
X127779198Y-115750102D01*
X127990728Y-115418067D01*
X128172514Y-115068859D01*
X128249305Y-114883469D01*
X128293853Y-114828188D01*
X128361217Y-114805767D01*
X128430008Y-114823325D01*
X128460228Y-114848362D01*
X128485350Y-114876858D01*
X128485353Y-114876861D01*
X128488698Y-114880655D01*
X128492606Y-114883865D01*
X128492607Y-114883866D01*
X128520989Y-114907179D01*
X128530108Y-114915449D01*
X130551948Y-116937289D01*
X130585974Y-116999601D01*
X130588723Y-117032099D01*
X130583743Y-117141762D01*
X130583743Y-117141769D01*
X130583514Y-117146817D01*
X130584095Y-117151837D01*
X130584095Y-117151841D01*
X130599923Y-117288631D01*
X130611415Y-117387956D01*
X130612791Y-117392820D01*
X130612792Y-117392823D01*
X130658476Y-117554266D01*
X130677510Y-117621532D01*
X130679644Y-117626108D01*
X130679646Y-117626114D01*
X130769432Y-117818661D01*
X130780099Y-117841536D01*
X130916544Y-118042307D01*
X131083332Y-118218681D01*
X131087358Y-118221759D01*
X131087359Y-118221760D01*
X131272154Y-118363047D01*
X131272158Y-118363050D01*
X131276174Y-118366120D01*
X131280632Y-118368510D01*
X131280633Y-118368511D01*
X131370807Y-118416862D01*
X131490109Y-118480831D01*
X131719631Y-118559862D01*
X131796701Y-118573174D01*
X131954926Y-118600504D01*
X131954932Y-118600505D01*
X131958836Y-118601179D01*
X131962797Y-118601359D01*
X131962798Y-118601359D01*
X131986506Y-118602436D01*
X131986525Y-118602436D01*
X131987925Y-118602500D01*
X132790107Y-118602500D01*
X132798018Y-118602749D01*
X132868412Y-118607178D01*
X132909991Y-118603101D01*
X132922287Y-118602500D01*
X133071984Y-118602500D01*
X133075502Y-118602549D01*
X133170150Y-118605193D01*
X133170153Y-118605193D01*
X133175205Y-118605334D01*
X133188150Y-118603607D01*
X133204812Y-118602500D01*
X134157001Y-118602500D01*
X134159509Y-118602298D01*
X134159514Y-118602298D01*
X134332924Y-118588346D01*
X134332929Y-118588345D01*
X134337965Y-118587940D01*
X134342873Y-118586734D01*
X134342876Y-118586734D01*
X134568792Y-118531244D01*
X134573706Y-118530037D01*
X134578358Y-118528062D01*
X134578362Y-118528061D01*
X134761229Y-118450438D01*
X134797156Y-118435188D01*
X134903634Y-118368135D01*
X134998288Y-118308528D01*
X134998291Y-118308526D01*
X135002567Y-118305833D01*
X135092240Y-118226776D01*
X135180858Y-118148650D01*
X135180861Y-118148647D01*
X135184655Y-118145302D01*
X135189484Y-118139423D01*
X135335526Y-117961628D01*
X135335528Y-117961625D01*
X135338734Y-117957722D01*
X135460841Y-117747922D01*
X135547833Y-117521298D01*
X135548868Y-117516345D01*
X135596440Y-117288631D01*
X135596440Y-117288627D01*
X135597474Y-117283680D01*
X135608486Y-117041183D01*
X135581645Y-116809203D01*
X135593685Y-116739235D01*
X135617715Y-116705626D01*
X137532447Y-114790894D01*
X137594759Y-114756868D01*
X137621542Y-114753989D01*
X149750000Y-114753989D01*
X149818121Y-114773991D01*
X149864614Y-114827647D01*
X149876000Y-114879989D01*
X149876000Y-116172885D01*
X149880475Y-116188124D01*
X149881865Y-116189329D01*
X149889548Y-116191000D01*
X152873884Y-116191000D01*
X152889123Y-116186525D01*
X152890328Y-116185135D01*
X152891999Y-116177452D01*
X152891999Y-114991508D01*
X152912001Y-114923387D01*
X152965657Y-114876894D01*
X153035931Y-114866790D01*
X153100511Y-114896284D01*
X153107094Y-114902413D01*
X154410595Y-116205914D01*
X154444621Y-116268226D01*
X154447500Y-116295009D01*
X154447500Y-117983500D01*
X154427498Y-118051621D01*
X154373842Y-118098114D01*
X154321500Y-118109500D01*
X153018000Y-118109500D01*
X152949879Y-118089498D01*
X152903386Y-118035842D01*
X152892000Y-117983500D01*
X152892000Y-116717115D01*
X152887525Y-116701876D01*
X152886135Y-116700671D01*
X152878452Y-116699000D01*
X149894116Y-116699000D01*
X149878877Y-116703475D01*
X149877672Y-116704865D01*
X149876001Y-116712548D01*
X149876001Y-117983500D01*
X149855999Y-118051621D01*
X149802343Y-118098114D01*
X149750001Y-118109500D01*
X142248623Y-118109500D01*
X142247853Y-118109498D01*
X142247037Y-118109493D01*
X142170279Y-118109024D01*
X142147918Y-118115415D01*
X142141847Y-118117150D01*
X142125085Y-118120728D01*
X142095813Y-118124920D01*
X142087645Y-118128634D01*
X142087644Y-118128634D01*
X142072438Y-118135548D01*
X142054914Y-118141996D01*
X142030229Y-118149051D01*
X142022635Y-118153843D01*
X142022632Y-118153844D01*
X142005220Y-118164830D01*
X141990137Y-118172969D01*
X141963218Y-118185208D01*
X141956416Y-118191069D01*
X141943765Y-118201970D01*
X141928761Y-118213073D01*
X141907042Y-118226776D01*
X141901103Y-118233501D01*
X141901099Y-118233504D01*
X141887468Y-118248938D01*
X141875276Y-118260982D01*
X141859673Y-118274427D01*
X141859671Y-118274430D01*
X141852873Y-118280287D01*
X141847993Y-118287816D01*
X141847992Y-118287817D01*
X141838906Y-118301835D01*
X141827615Y-118316709D01*
X141816569Y-118329217D01*
X141810622Y-118335951D01*
X141804312Y-118349391D01*
X141798058Y-118362711D01*
X141789737Y-118377691D01*
X141778529Y-118394983D01*
X141778527Y-118394988D01*
X141773648Y-118402515D01*
X141771078Y-118411108D01*
X141771076Y-118411113D01*
X141766289Y-118427120D01*
X141759628Y-118444564D01*
X141754337Y-118455834D01*
X141748719Y-118467800D01*
X141747338Y-118476667D01*
X141747338Y-118476668D01*
X141744170Y-118497015D01*
X141740387Y-118513732D01*
X141734485Y-118533466D01*
X141734484Y-118533472D01*
X141731914Y-118542066D01*
X141731859Y-118551037D01*
X141731859Y-118551038D01*
X141731704Y-118576497D01*
X141731671Y-118577289D01*
X141731500Y-118578386D01*
X141731500Y-118609377D01*
X141731498Y-118610147D01*
X141731024Y-118687721D01*
X141731408Y-118689065D01*
X141731500Y-118690410D01*
X141731500Y-129023377D01*
X141731498Y-129024147D01*
X141731024Y-129101721D01*
X141733491Y-129110352D01*
X141739150Y-129130153D01*
X141742728Y-129146915D01*
X141746920Y-129176187D01*
X141750634Y-129184355D01*
X141750634Y-129184356D01*
X141757548Y-129199562D01*
X141763996Y-129217086D01*
X141771051Y-129241771D01*
X141775843Y-129249365D01*
X141775844Y-129249368D01*
X141786830Y-129266780D01*
X141794969Y-129281863D01*
X141807208Y-129308782D01*
X141813069Y-129315584D01*
X141823970Y-129328235D01*
X141835073Y-129343239D01*
X141848776Y-129364958D01*
X141855501Y-129370897D01*
X141855504Y-129370901D01*
X141870938Y-129384532D01*
X141882982Y-129396724D01*
X141896427Y-129412327D01*
X141896430Y-129412329D01*
X141902287Y-129419127D01*
X141909816Y-129424007D01*
X141909817Y-129424008D01*
X141923835Y-129433094D01*
X141938709Y-129444385D01*
X141950392Y-129454702D01*
X141957951Y-129461378D01*
X141984711Y-129473942D01*
X141999691Y-129482263D01*
X142016983Y-129493471D01*
X142016988Y-129493473D01*
X142024515Y-129498352D01*
X142033108Y-129500922D01*
X142033113Y-129500924D01*
X142049120Y-129505711D01*
X142066564Y-129512372D01*
X142081676Y-129519467D01*
X142081678Y-129519468D01*
X142089800Y-129523281D01*
X142098667Y-129524662D01*
X142098668Y-129524662D01*
X142101353Y-129525080D01*
X142119017Y-129527830D01*
X142135732Y-129531613D01*
X142155466Y-129537515D01*
X142155472Y-129537516D01*
X142164066Y-129540086D01*
X142173037Y-129540141D01*
X142173038Y-129540141D01*
X142183097Y-129540202D01*
X142198506Y-129540296D01*
X142199289Y-129540329D01*
X142200386Y-129540500D01*
X142231377Y-129540500D01*
X142232147Y-129540502D01*
X142305785Y-129540952D01*
X142305786Y-129540952D01*
X142309721Y-129540976D01*
X142311065Y-129540592D01*
X142312410Y-129540500D01*
X165091377Y-129540500D01*
X165092148Y-129540502D01*
X165169721Y-129540976D01*
X165198152Y-129532850D01*
X165214915Y-129529272D01*
X165215753Y-129529152D01*
X165244187Y-129525080D01*
X165267564Y-129514451D01*
X165285087Y-129508004D01*
X165309771Y-129500949D01*
X165317365Y-129496157D01*
X165317368Y-129496156D01*
X165334780Y-129485170D01*
X165349865Y-129477030D01*
X165376782Y-129464792D01*
X165396235Y-129448030D01*
X165411239Y-129436927D01*
X165432958Y-129423224D01*
X165438897Y-129416499D01*
X165438901Y-129416496D01*
X165452532Y-129401062D01*
X165464724Y-129389018D01*
X165480327Y-129375573D01*
X165480329Y-129375570D01*
X165487127Y-129369713D01*
X165499498Y-129350628D01*
X165501094Y-129348165D01*
X165512385Y-129333291D01*
X165523431Y-129320783D01*
X165523432Y-129320782D01*
X165529378Y-129314049D01*
X165541943Y-129287287D01*
X165550263Y-129272309D01*
X165561471Y-129255017D01*
X165561473Y-129255012D01*
X165566352Y-129247485D01*
X165568922Y-129238892D01*
X165568924Y-129238887D01*
X165573711Y-129222880D01*
X165580372Y-129205436D01*
X165587467Y-129190324D01*
X165587468Y-129190322D01*
X165591281Y-129182200D01*
X165595830Y-129152983D01*
X165599613Y-129136268D01*
X165605515Y-129116534D01*
X165605516Y-129116528D01*
X165608086Y-129107934D01*
X165608296Y-129073494D01*
X165608329Y-129072711D01*
X165608500Y-129071614D01*
X165608500Y-129040623D01*
X165608502Y-129039853D01*
X165608952Y-128966215D01*
X165608952Y-128966214D01*
X165608976Y-128962279D01*
X165608592Y-128960935D01*
X165608500Y-128959590D01*
X165608500Y-118626623D01*
X165608502Y-118625853D01*
X165608800Y-118577102D01*
X165608976Y-118548279D01*
X165600850Y-118519847D01*
X165597272Y-118503085D01*
X165594352Y-118482698D01*
X165593080Y-118473813D01*
X165582451Y-118450436D01*
X165576004Y-118432913D01*
X165571416Y-118416862D01*
X165568949Y-118408229D01*
X165564156Y-118400632D01*
X165553170Y-118383220D01*
X165545030Y-118368135D01*
X165544114Y-118366120D01*
X165532792Y-118341218D01*
X165516030Y-118321765D01*
X165504927Y-118306761D01*
X165491224Y-118285042D01*
X165484499Y-118279103D01*
X165484496Y-118279099D01*
X165469062Y-118265468D01*
X165457018Y-118253276D01*
X165443573Y-118237673D01*
X165443570Y-118237671D01*
X165437713Y-118230873D01*
X165424009Y-118221990D01*
X165416165Y-118216906D01*
X165401291Y-118205615D01*
X165388783Y-118194569D01*
X165388782Y-118194568D01*
X165382049Y-118188622D01*
X165355287Y-118176057D01*
X165340309Y-118167737D01*
X165323017Y-118156529D01*
X165323012Y-118156527D01*
X165315485Y-118151648D01*
X165306892Y-118149078D01*
X165306887Y-118149076D01*
X165290880Y-118144289D01*
X165273436Y-118137628D01*
X165258324Y-118130533D01*
X165258322Y-118130532D01*
X165250200Y-118126719D01*
X165241333Y-118125338D01*
X165241332Y-118125338D01*
X165230478Y-118123648D01*
X165220983Y-118122170D01*
X165204268Y-118118387D01*
X165184534Y-118112485D01*
X165184528Y-118112484D01*
X165175934Y-118109914D01*
X165166963Y-118109859D01*
X165166962Y-118109859D01*
X165156903Y-118109798D01*
X165141494Y-118109704D01*
X165140711Y-118109671D01*
X165139614Y-118109500D01*
X165108623Y-118109500D01*
X165107853Y-118109498D01*
X165034215Y-118109048D01*
X165034214Y-118109048D01*
X165030279Y-118109024D01*
X165028935Y-118109408D01*
X165027590Y-118109500D01*
X157590500Y-118109500D01*
X157522379Y-118089498D01*
X157475886Y-118035842D01*
X157464500Y-117983500D01*
X157464500Y-115641994D01*
X157464549Y-115638476D01*
X157467193Y-115543828D01*
X157467193Y-115543825D01*
X157467334Y-115538773D01*
X157465607Y-115525828D01*
X157464500Y-115509166D01*
X157464500Y-114396866D01*
X157457745Y-114334684D01*
X157406615Y-114198295D01*
X157319261Y-114081739D01*
X157202705Y-113994385D01*
X157066316Y-113943255D01*
X157004134Y-113936500D01*
X156460053Y-113936500D01*
X156391932Y-113916498D01*
X156370958Y-113899595D01*
X156230058Y-113758695D01*
X159419251Y-113758695D01*
X159419548Y-113763848D01*
X159419548Y-113763851D01*
X159425011Y-113858590D01*
X159432110Y-113981715D01*
X159433247Y-113986761D01*
X159433248Y-113986767D01*
X159434965Y-113994385D01*
X159481222Y-114199639D01*
X159519461Y-114293811D01*
X159559928Y-114393469D01*
X159565266Y-114406616D01*
X159567965Y-114411020D01*
X159679288Y-114592683D01*
X159681987Y-114597088D01*
X159828250Y-114765938D01*
X160000126Y-114908632D01*
X160193000Y-115021338D01*
X160401692Y-115101030D01*
X160406760Y-115102061D01*
X160406763Y-115102062D01*
X160511604Y-115123392D01*
X160620597Y-115145567D01*
X160625772Y-115145757D01*
X160625774Y-115145757D01*
X160838673Y-115153564D01*
X160838677Y-115153564D01*
X160843837Y-115153753D01*
X160848957Y-115153097D01*
X160848959Y-115153097D01*
X161060288Y-115126025D01*
X161060289Y-115126025D01*
X161065416Y-115125368D01*
X161070366Y-115123883D01*
X161274429Y-115062661D01*
X161274434Y-115062659D01*
X161279384Y-115061174D01*
X161479994Y-114962896D01*
X161544544Y-114916853D01*
X162561977Y-114916853D01*
X162567258Y-114923907D01*
X162728756Y-115018279D01*
X162738042Y-115022729D01*
X162937001Y-115098703D01*
X162946899Y-115101579D01*
X163155595Y-115144038D01*
X163165823Y-115145257D01*
X163378650Y-115153062D01*
X163388936Y-115152595D01*
X163600185Y-115125534D01*
X163610262Y-115123392D01*
X163814255Y-115062191D01*
X163823842Y-115058433D01*
X164015098Y-114964738D01*
X164023944Y-114959465D01*
X164071247Y-114925723D01*
X164079648Y-114915023D01*
X164072660Y-114901870D01*
X163334812Y-114164022D01*
X163320868Y-114156408D01*
X163319035Y-114156539D01*
X163312420Y-114160790D01*
X162568737Y-114904473D01*
X162561977Y-114916853D01*
X161544544Y-114916853D01*
X161661860Y-114833173D01*
X161666863Y-114828188D01*
X161816435Y-114679137D01*
X161820096Y-114675489D01*
X161879594Y-114592689D01*
X161950453Y-114494077D01*
X161951640Y-114494930D01*
X161998960Y-114451362D01*
X162068897Y-114439145D01*
X162134338Y-114466678D01*
X162162166Y-114498512D01*
X162188459Y-114541419D01*
X162198916Y-114550880D01*
X162207694Y-114547096D01*
X162949978Y-113804812D01*
X162956356Y-113793132D01*
X163686408Y-113793132D01*
X163686539Y-113794965D01*
X163690790Y-113801580D01*
X164432474Y-114543264D01*
X164444484Y-114549823D01*
X164456223Y-114540855D01*
X164490022Y-114493819D01*
X164491277Y-114494721D01*
X164538391Y-114451355D01*
X164608330Y-114439148D01*
X164673767Y-114466691D01*
X164701580Y-114498513D01*
X164759287Y-114592683D01*
X164759291Y-114592688D01*
X164761987Y-114597088D01*
X164908250Y-114765938D01*
X165080126Y-114908632D01*
X165273000Y-115021338D01*
X165481692Y-115101030D01*
X165486760Y-115102061D01*
X165486763Y-115102062D01*
X165591604Y-115123392D01*
X165700597Y-115145567D01*
X165705772Y-115145757D01*
X165705774Y-115145757D01*
X165918673Y-115153564D01*
X165918677Y-115153564D01*
X165923837Y-115153753D01*
X165928957Y-115153097D01*
X165928959Y-115153097D01*
X166140288Y-115126025D01*
X166140289Y-115126025D01*
X166145416Y-115125368D01*
X166150366Y-115123883D01*
X166354429Y-115062661D01*
X166354434Y-115062659D01*
X166359384Y-115061174D01*
X166559994Y-114962896D01*
X166741860Y-114833173D01*
X166746863Y-114828188D01*
X166896435Y-114679137D01*
X166900096Y-114675489D01*
X166959594Y-114592689D01*
X167027435Y-114498277D01*
X167030453Y-114494077D01*
X167043995Y-114466678D01*
X167127136Y-114298453D01*
X167127137Y-114298451D01*
X167129430Y-114293811D01*
X167194370Y-114080069D01*
X167223529Y-113858590D01*
X167225156Y-113792000D01*
X167206852Y-113569361D01*
X167152431Y-113352702D01*
X167063354Y-113147840D01*
X166942014Y-112960277D01*
X166791670Y-112795051D01*
X166787619Y-112791852D01*
X166787615Y-112791848D01*
X166620414Y-112659800D01*
X166620410Y-112659798D01*
X166616359Y-112656598D01*
X166420789Y-112548638D01*
X166415920Y-112546914D01*
X166415916Y-112546912D01*
X166215087Y-112475795D01*
X166215083Y-112475794D01*
X166210212Y-112474069D01*
X166205119Y-112473162D01*
X166205116Y-112473161D01*
X165995373Y-112435800D01*
X165995367Y-112435799D01*
X165990284Y-112434894D01*
X165916452Y-112433992D01*
X165772081Y-112432228D01*
X165772079Y-112432228D01*
X165766911Y-112432165D01*
X165546091Y-112465955D01*
X165333756Y-112535357D01*
X165289850Y-112558213D01*
X165206968Y-112601359D01*
X165135607Y-112638507D01*
X165131474Y-112641610D01*
X165131471Y-112641612D01*
X164961100Y-112769530D01*
X164956965Y-112772635D01*
X164802629Y-112934138D01*
X164729693Y-113041059D01*
X164694898Y-113092066D01*
X164639987Y-113137069D01*
X164569462Y-113145240D01*
X164505715Y-113113986D01*
X164485017Y-113089501D01*
X164455062Y-113043197D01*
X164444377Y-113033995D01*
X164434812Y-113038398D01*
X163694022Y-113779188D01*
X163686408Y-113793132D01*
X162956356Y-113793132D01*
X162957592Y-113790868D01*
X162957461Y-113789035D01*
X162953210Y-113782420D01*
X162211849Y-113041059D01*
X162200313Y-113034759D01*
X162188031Y-113044382D01*
X162155499Y-113092072D01*
X162100587Y-113137075D01*
X162030063Y-113145246D01*
X161966316Y-113113992D01*
X161945618Y-113089508D01*
X161864822Y-112964617D01*
X161864820Y-112964614D01*
X161862014Y-112960277D01*
X161711670Y-112795051D01*
X161707619Y-112791852D01*
X161707615Y-112791848D01*
X161551338Y-112668427D01*
X162563223Y-112668427D01*
X162569968Y-112680758D01*
X163309188Y-113419978D01*
X163323132Y-113427592D01*
X163324965Y-113427461D01*
X163331580Y-113423210D01*
X164075389Y-112679401D01*
X164082410Y-112666544D01*
X164075611Y-112657213D01*
X164071554Y-112654518D01*
X163885117Y-112551599D01*
X163875705Y-112547369D01*
X163674959Y-112476280D01*
X163664989Y-112473646D01*
X163455327Y-112436301D01*
X163445073Y-112435331D01*
X163232116Y-112432728D01*
X163221832Y-112433448D01*
X163011321Y-112465661D01*
X163001293Y-112468050D01*
X162798868Y-112534212D01*
X162789359Y-112538209D01*
X162600466Y-112636540D01*
X162591734Y-112642039D01*
X162571677Y-112657099D01*
X162563223Y-112668427D01*
X161551338Y-112668427D01*
X161540414Y-112659800D01*
X161540410Y-112659798D01*
X161536359Y-112656598D01*
X161340789Y-112548638D01*
X161335920Y-112546914D01*
X161335916Y-112546912D01*
X161135087Y-112475795D01*
X161135083Y-112475794D01*
X161130212Y-112474069D01*
X161125119Y-112473162D01*
X161125116Y-112473161D01*
X160915373Y-112435800D01*
X160915367Y-112435799D01*
X160910284Y-112434894D01*
X160836452Y-112433992D01*
X160692081Y-112432228D01*
X160692079Y-112432228D01*
X160686911Y-112432165D01*
X160466091Y-112465955D01*
X160253756Y-112535357D01*
X160209850Y-112558213D01*
X160126968Y-112601359D01*
X160055607Y-112638507D01*
X160051474Y-112641610D01*
X160051471Y-112641612D01*
X159881100Y-112769530D01*
X159876965Y-112772635D01*
X159722629Y-112934138D01*
X159596743Y-113118680D01*
X159502688Y-113321305D01*
X159442989Y-113536570D01*
X159419251Y-113758695D01*
X156230058Y-113758695D01*
X154667186Y-112195823D01*
X154664732Y-112193301D01*
X154599649Y-112124477D01*
X154599646Y-112124475D01*
X154596179Y-112120808D01*
X154533750Y-112073078D01*
X154528619Y-112068937D01*
X154472644Y-112021298D01*
X154472643Y-112021297D01*
X154468791Y-112018019D01*
X154464466Y-112015400D01*
X154464461Y-112015396D01*
X154440687Y-112000998D01*
X154429440Y-111993326D01*
X154403337Y-111973369D01*
X154334103Y-111936246D01*
X154328379Y-111932982D01*
X154261153Y-111892268D01*
X154230692Y-111879961D01*
X154218352Y-111874181D01*
X154214861Y-111872309D01*
X154189402Y-111858658D01*
X154184621Y-111857012D01*
X154184617Y-111857010D01*
X154115110Y-111833077D01*
X154108932Y-111830767D01*
X154040777Y-111803231D01*
X154040778Y-111803231D01*
X154036082Y-111801334D01*
X154004050Y-111794057D01*
X153990952Y-111790326D01*
X153959880Y-111779627D01*
X153882411Y-111766246D01*
X153876007Y-111764966D01*
X153799367Y-111747554D01*
X153766558Y-111745490D01*
X153753058Y-111743904D01*
X153720675Y-111738310D01*
X153716718Y-111738130D01*
X153716715Y-111738130D01*
X153693005Y-111737053D01*
X153692986Y-111737053D01*
X153691586Y-111736989D01*
X153635403Y-111736989D01*
X153627491Y-111736740D01*
X153621897Y-111736388D01*
X153557098Y-111732311D01*
X153518056Y-111736139D01*
X153515519Y-111736388D01*
X153503223Y-111736989D01*
X136968513Y-111736989D01*
X136964994Y-111736940D01*
X136870361Y-111734296D01*
X136870358Y-111734296D01*
X136865306Y-111734155D01*
X136787413Y-111744548D01*
X136780872Y-111745247D01*
X136756128Y-111747238D01*
X136707588Y-111751143D01*
X136707584Y-111751144D01*
X136702546Y-111751549D01*
X136670633Y-111759388D01*
X136657253Y-111761915D01*
X136624691Y-111766260D01*
X136619850Y-111767721D01*
X136619848Y-111767722D01*
X136549482Y-111788967D01*
X136543121Y-111790708D01*
X136466805Y-111809452D01*
X136462145Y-111811430D01*
X136436560Y-111822290D01*
X136423750Y-111826927D01*
X136392303Y-111836422D01*
X136387755Y-111838640D01*
X136387748Y-111838643D01*
X136321693Y-111870860D01*
X136315691Y-111873596D01*
X136271703Y-111892268D01*
X136243355Y-111904301D01*
X136219043Y-111919612D01*
X136215555Y-111921808D01*
X136203651Y-111928434D01*
X136174123Y-111942835D01*
X136169986Y-111945754D01*
X136169985Y-111945754D01*
X136109914Y-111988130D01*
X136104425Y-111991790D01*
X136066940Y-112015396D01*
X136037944Y-112033656D01*
X136034155Y-112036997D01*
X136034149Y-112037001D01*
X136013294Y-112055387D01*
X136002599Y-112063833D01*
X135975764Y-112082763D01*
X135954261Y-112102398D01*
X135914545Y-112142114D01*
X135908775Y-112147533D01*
X135859653Y-112190839D01*
X135859650Y-112190842D01*
X135855856Y-112194187D01*
X135852646Y-112198095D01*
X135852645Y-112198096D01*
X135829332Y-112226478D01*
X135821062Y-112235597D01*
X133058095Y-114998564D01*
X132995783Y-115032590D01*
X132924968Y-115027525D01*
X132879905Y-114998564D01*
X131085405Y-113204064D01*
X131051379Y-113141752D01*
X131048500Y-113114969D01*
X131048500Y-112446991D01*
X131068502Y-112378870D01*
X131122158Y-112332377D01*
X131192432Y-112322273D01*
X131251027Y-112346894D01*
X131276174Y-112366120D01*
X131280632Y-112368510D01*
X131280633Y-112368511D01*
X131399347Y-112432165D01*
X131490109Y-112480831D01*
X131719631Y-112559862D01*
X131818978Y-112577022D01*
X131954926Y-112600504D01*
X131954932Y-112600505D01*
X131958836Y-112601179D01*
X131962797Y-112601359D01*
X131962798Y-112601359D01*
X131986506Y-112602436D01*
X131986525Y-112602436D01*
X131987925Y-112602500D01*
X133058188Y-112602500D01*
X133063903Y-112602630D01*
X133148817Y-112606486D01*
X133153837Y-112605905D01*
X133153841Y-112605905D01*
X133176050Y-112603335D01*
X133190532Y-112602500D01*
X134157001Y-112602500D01*
X134159509Y-112602298D01*
X134159514Y-112602298D01*
X134332924Y-112588346D01*
X134332929Y-112588345D01*
X134337965Y-112587940D01*
X134342873Y-112586734D01*
X134342876Y-112586734D01*
X134568792Y-112531244D01*
X134573706Y-112530037D01*
X134578358Y-112528062D01*
X134578362Y-112528061D01*
X134792498Y-112437165D01*
X134797156Y-112435188D01*
X134903037Y-112368511D01*
X134998288Y-112308528D01*
X134998291Y-112308526D01*
X135002567Y-112305833D01*
X135127350Y-112195823D01*
X135180858Y-112148650D01*
X135180861Y-112148647D01*
X135184655Y-112145302D01*
X135201761Y-112124477D01*
X135335526Y-111961628D01*
X135335528Y-111961625D01*
X135338734Y-111957722D01*
X135429754Y-111801334D01*
X135458299Y-111752290D01*
X135458300Y-111752288D01*
X135460841Y-111747922D01*
X135465869Y-111734824D01*
X135546020Y-111526022D01*
X135546021Y-111526018D01*
X135547833Y-111521298D01*
X135597474Y-111283680D01*
X135608486Y-111041183D01*
X135601823Y-110983595D01*
X135581167Y-110805071D01*
X135581166Y-110805067D01*
X135580585Y-110800044D01*
X135576900Y-110787019D01*
X135515866Y-110571331D01*
X135514490Y-110566468D01*
X135512356Y-110561892D01*
X135512354Y-110561886D01*
X135414038Y-110351046D01*
X135414036Y-110351042D01*
X135411901Y-110346464D01*
X135275456Y-110145693D01*
X135108668Y-109969319D01*
X135072297Y-109941511D01*
X134919846Y-109824953D01*
X134919842Y-109824950D01*
X134915826Y-109821880D01*
X134863743Y-109793953D01*
X134706352Y-109709561D01*
X134701891Y-109707169D01*
X134689479Y-109702895D01*
X134631582Y-109661806D01*
X134605090Y-109595937D01*
X134604500Y-109583760D01*
X134604500Y-108978522D01*
X141314801Y-108978522D01*
X141353092Y-109121423D01*
X141356842Y-109131727D01*
X141441521Y-109313323D01*
X141446998Y-109322811D01*
X141561925Y-109486942D01*
X141568981Y-109495350D01*
X141710650Y-109637019D01*
X141719058Y-109644075D01*
X141883189Y-109759002D01*
X141892677Y-109764479D01*
X142074273Y-109849158D01*
X142084577Y-109852908D01*
X142222503Y-109889866D01*
X142236599Y-109889530D01*
X142240000Y-109881588D01*
X142240000Y-109876439D01*
X142748000Y-109876439D01*
X142751973Y-109889970D01*
X142760522Y-109891199D01*
X142903423Y-109852908D01*
X142913727Y-109849158D01*
X143095323Y-109764479D01*
X143104811Y-109759002D01*
X143268942Y-109644075D01*
X143277350Y-109637019D01*
X143419019Y-109495350D01*
X143426075Y-109486942D01*
X143541002Y-109322811D01*
X143546479Y-109313323D01*
X143631158Y-109131727D01*
X143634908Y-109121423D01*
X143671866Y-108983497D01*
X143671530Y-108969401D01*
X143663588Y-108966000D01*
X142766115Y-108966000D01*
X142750876Y-108970475D01*
X142749671Y-108971865D01*
X142748000Y-108979548D01*
X142748000Y-109876439D01*
X142240000Y-109876439D01*
X142240000Y-108984115D01*
X142235525Y-108968876D01*
X142234135Y-108967671D01*
X142226452Y-108966000D01*
X141329561Y-108966000D01*
X141316030Y-108969973D01*
X141314801Y-108978522D01*
X134604500Y-108978522D01*
X134604500Y-108712000D01*
X146360884Y-108712000D01*
X146379314Y-108922655D01*
X146380738Y-108927968D01*
X146380738Y-108927970D01*
X146429404Y-109109592D01*
X146434044Y-109126910D01*
X146436366Y-109131891D01*
X146436367Y-109131892D01*
X146487100Y-109240688D01*
X146523411Y-109318558D01*
X146644699Y-109491776D01*
X146794224Y-109641301D01*
X146967442Y-109762589D01*
X146972420Y-109764910D01*
X146972423Y-109764912D01*
X147153368Y-109849288D01*
X147159090Y-109851956D01*
X147164398Y-109853378D01*
X147164400Y-109853379D01*
X147358030Y-109905262D01*
X147358032Y-109905262D01*
X147363345Y-109906686D01*
X147574000Y-109925116D01*
X147784655Y-109906686D01*
X147789968Y-109905262D01*
X147789970Y-109905262D01*
X147983600Y-109853379D01*
X147983602Y-109853378D01*
X147988910Y-109851956D01*
X147994632Y-109849288D01*
X148175577Y-109764912D01*
X148175580Y-109764910D01*
X148180558Y-109762589D01*
X148353776Y-109641301D01*
X148503301Y-109491776D01*
X148624589Y-109318558D01*
X148660901Y-109240688D01*
X148711633Y-109131892D01*
X148711634Y-109131891D01*
X148713956Y-109126910D01*
X148718597Y-109109592D01*
X148767262Y-108927970D01*
X148767262Y-108927968D01*
X148768686Y-108922655D01*
X148787116Y-108712000D01*
X150902807Y-108712000D01*
X150921542Y-108926142D01*
X150922966Y-108931455D01*
X150922966Y-108931457D01*
X150970698Y-109109592D01*
X150977178Y-109133777D01*
X150979500Y-109138757D01*
X150979501Y-109138759D01*
X151032065Y-109251481D01*
X151068024Y-109328596D01*
X151191319Y-109504681D01*
X151343319Y-109656681D01*
X151519403Y-109779976D01*
X151524381Y-109782297D01*
X151524384Y-109782299D01*
X151675806Y-109852908D01*
X151714223Y-109870822D01*
X151719531Y-109872244D01*
X151719533Y-109872245D01*
X151916543Y-109925034D01*
X151916545Y-109925034D01*
X151921858Y-109926458D01*
X152136000Y-109945193D01*
X152350142Y-109926458D01*
X152355455Y-109925034D01*
X152355457Y-109925034D01*
X152552467Y-109872245D01*
X152552469Y-109872244D01*
X152557777Y-109870822D01*
X152596194Y-109852908D01*
X152747616Y-109782299D01*
X152747619Y-109782297D01*
X152752597Y-109779976D01*
X152928681Y-109656681D01*
X153080681Y-109504681D01*
X153203976Y-109328596D01*
X153239936Y-109251481D01*
X153291805Y-109140247D01*
X153338723Y-109086962D01*
X153407000Y-109067501D01*
X153474960Y-109088043D01*
X153520195Y-109140247D01*
X153572065Y-109251481D01*
X153608024Y-109328596D01*
X153731319Y-109504681D01*
X153883319Y-109656681D01*
X154059403Y-109779976D01*
X154064381Y-109782297D01*
X154064384Y-109782299D01*
X154215806Y-109852908D01*
X154254223Y-109870822D01*
X154259531Y-109872244D01*
X154259533Y-109872245D01*
X154456543Y-109925034D01*
X154456545Y-109925034D01*
X154461858Y-109926458D01*
X154676000Y-109945193D01*
X154890142Y-109926458D01*
X154895455Y-109925034D01*
X154895457Y-109925034D01*
X155092467Y-109872245D01*
X155092469Y-109872244D01*
X155097777Y-109870822D01*
X155136194Y-109852908D01*
X155287616Y-109782299D01*
X155287619Y-109782297D01*
X155292597Y-109779976D01*
X155468681Y-109656681D01*
X155620681Y-109504681D01*
X155743976Y-109328596D01*
X155779936Y-109251481D01*
X155831805Y-109140247D01*
X155878723Y-109086962D01*
X155947000Y-109067501D01*
X156014960Y-109088043D01*
X156060195Y-109140247D01*
X156112065Y-109251481D01*
X156148024Y-109328596D01*
X156271319Y-109504681D01*
X156423319Y-109656681D01*
X156599403Y-109779976D01*
X156604381Y-109782297D01*
X156604384Y-109782299D01*
X156755806Y-109852908D01*
X156794223Y-109870822D01*
X156799531Y-109872244D01*
X156799533Y-109872245D01*
X156996543Y-109925034D01*
X156996545Y-109925034D01*
X157001858Y-109926458D01*
X157216000Y-109945193D01*
X157430142Y-109926458D01*
X157435455Y-109925034D01*
X157435457Y-109925034D01*
X157632467Y-109872245D01*
X157632469Y-109872244D01*
X157637777Y-109870822D01*
X157676194Y-109852908D01*
X157827616Y-109782299D01*
X157827619Y-109782297D01*
X157832597Y-109779976D01*
X158008681Y-109656681D01*
X158160681Y-109504681D01*
X158182164Y-109474000D01*
X160758502Y-109474000D01*
X160778457Y-109702087D01*
X160779881Y-109707400D01*
X160779881Y-109707402D01*
X160834248Y-109910299D01*
X160837716Y-109923243D01*
X160840039Y-109928224D01*
X160840039Y-109928225D01*
X160932151Y-110125762D01*
X160932154Y-110125767D01*
X160934477Y-110130749D01*
X160963324Y-110171946D01*
X161047424Y-110292053D01*
X161065802Y-110318300D01*
X161227700Y-110480198D01*
X161232208Y-110483355D01*
X161232211Y-110483357D01*
X161308803Y-110536987D01*
X161415251Y-110611523D01*
X161420233Y-110613846D01*
X161420238Y-110613849D01*
X161587919Y-110692039D01*
X161622757Y-110708284D01*
X161628065Y-110709706D01*
X161628067Y-110709707D01*
X161838598Y-110766119D01*
X161838600Y-110766119D01*
X161843913Y-110767543D01*
X162072000Y-110787498D01*
X162300087Y-110767543D01*
X162305400Y-110766119D01*
X162305402Y-110766119D01*
X162515933Y-110709707D01*
X162515935Y-110709706D01*
X162521243Y-110708284D01*
X162556081Y-110692039D01*
X162723762Y-110613849D01*
X162723767Y-110613846D01*
X162728749Y-110611523D01*
X162802243Y-110560062D01*
X163850493Y-110560062D01*
X163859789Y-110572077D01*
X163910994Y-110607931D01*
X163920489Y-110613414D01*
X164117947Y-110705490D01*
X164128239Y-110709236D01*
X164338688Y-110765625D01*
X164349481Y-110767528D01*
X164566525Y-110786517D01*
X164577475Y-110786517D01*
X164794519Y-110767528D01*
X164805312Y-110765625D01*
X165015761Y-110709236D01*
X165026053Y-110705490D01*
X165223511Y-110613414D01*
X165233006Y-110607931D01*
X165285048Y-110571491D01*
X165293424Y-110561012D01*
X165286356Y-110547566D01*
X164584812Y-109846022D01*
X164570868Y-109838408D01*
X164569035Y-109838539D01*
X164562420Y-109842790D01*
X163856923Y-110548287D01*
X163850493Y-110560062D01*
X162802243Y-110560062D01*
X162835197Y-110536987D01*
X162911789Y-110483357D01*
X162911792Y-110483355D01*
X162916300Y-110480198D01*
X163078198Y-110318300D01*
X163096577Y-110292053D01*
X163184516Y-110166463D01*
X163209523Y-110130749D01*
X163211847Y-110125765D01*
X163213171Y-110123472D01*
X163264553Y-110074479D01*
X163334267Y-110061043D01*
X163400178Y-110087429D01*
X163431409Y-110123472D01*
X163438066Y-110135002D01*
X163474509Y-110187048D01*
X163484988Y-110195424D01*
X163498434Y-110188356D01*
X164199978Y-109486812D01*
X164206356Y-109475132D01*
X164936408Y-109475132D01*
X164936539Y-109476965D01*
X164940790Y-109483580D01*
X165646287Y-110189077D01*
X165658062Y-110195507D01*
X165670077Y-110186211D01*
X165705931Y-110135006D01*
X165711414Y-110125511D01*
X165714639Y-110118594D01*
X170591493Y-110118594D01*
X170600789Y-110130609D01*
X170651994Y-110166463D01*
X170661489Y-110171946D01*
X170858947Y-110264022D01*
X170869239Y-110267768D01*
X171079688Y-110324157D01*
X171090481Y-110326060D01*
X171307525Y-110345049D01*
X171318475Y-110345049D01*
X171535519Y-110326060D01*
X171546312Y-110324157D01*
X171756761Y-110267768D01*
X171767053Y-110264022D01*
X171964511Y-110171946D01*
X171974006Y-110166463D01*
X172026048Y-110130023D01*
X172034424Y-110119544D01*
X172027356Y-110106098D01*
X171325812Y-109404554D01*
X171311868Y-109396940D01*
X171310035Y-109397071D01*
X171303420Y-109401322D01*
X170597923Y-110106819D01*
X170591493Y-110118594D01*
X165714639Y-110118594D01*
X165803490Y-109928053D01*
X165807236Y-109917761D01*
X165863625Y-109707312D01*
X165865528Y-109696519D01*
X165884517Y-109479475D01*
X165884517Y-109468525D01*
X165865528Y-109251481D01*
X165863625Y-109240688D01*
X165807236Y-109030239D01*
X165803490Y-109019947D01*
X165711414Y-108822489D01*
X165705931Y-108812994D01*
X165669491Y-108760952D01*
X165659012Y-108752576D01*
X165645566Y-108759644D01*
X164944022Y-109461188D01*
X164936408Y-109475132D01*
X164206356Y-109475132D01*
X164207592Y-109472868D01*
X164207461Y-109471035D01*
X164203210Y-109464420D01*
X163497713Y-108758923D01*
X163485938Y-108752493D01*
X163473923Y-108761789D01*
X163438066Y-108812998D01*
X163431409Y-108824528D01*
X163380027Y-108873521D01*
X163310313Y-108886958D01*
X163244402Y-108860571D01*
X163213171Y-108824528D01*
X163211847Y-108822235D01*
X163209523Y-108817251D01*
X163121142Y-108691030D01*
X163081357Y-108634211D01*
X163081355Y-108634208D01*
X163078198Y-108629700D01*
X162916300Y-108467802D01*
X162911792Y-108464645D01*
X162911789Y-108464643D01*
X162800886Y-108386988D01*
X163850576Y-108386988D01*
X163857644Y-108400434D01*
X164559188Y-109101978D01*
X164573132Y-109109592D01*
X164574965Y-109109461D01*
X164581580Y-109105210D01*
X165287077Y-108399713D01*
X165293507Y-108387938D01*
X165284211Y-108375923D01*
X165233006Y-108340069D01*
X165223511Y-108334586D01*
X165026053Y-108242510D01*
X165015761Y-108238764D01*
X164805312Y-108182375D01*
X164794519Y-108180472D01*
X164577475Y-108161483D01*
X164566525Y-108161483D01*
X164349481Y-108180472D01*
X164338688Y-108182375D01*
X164128239Y-108238764D01*
X164117947Y-108242510D01*
X163920489Y-108334586D01*
X163910994Y-108340069D01*
X163858952Y-108376509D01*
X163850576Y-108386988D01*
X162800886Y-108386988D01*
X162792364Y-108381021D01*
X162728749Y-108336477D01*
X162723767Y-108334154D01*
X162723762Y-108334151D01*
X162526225Y-108242039D01*
X162526224Y-108242039D01*
X162521243Y-108239716D01*
X162515935Y-108238294D01*
X162515933Y-108238293D01*
X162305402Y-108181881D01*
X162305400Y-108181881D01*
X162300087Y-108180457D01*
X162072000Y-108160502D01*
X161843913Y-108180457D01*
X161838600Y-108181881D01*
X161838598Y-108181881D01*
X161628067Y-108238293D01*
X161628065Y-108238294D01*
X161622757Y-108239716D01*
X161617776Y-108242039D01*
X161617775Y-108242039D01*
X161420238Y-108334151D01*
X161420233Y-108334154D01*
X161415251Y-108336477D01*
X161351636Y-108381021D01*
X161232211Y-108464643D01*
X161232208Y-108464645D01*
X161227700Y-108467802D01*
X161065802Y-108629700D01*
X161062645Y-108634208D01*
X161062643Y-108634211D01*
X161054006Y-108646546D01*
X160934477Y-108817251D01*
X160932154Y-108822233D01*
X160932151Y-108822238D01*
X160840065Y-109019720D01*
X160837716Y-109024757D01*
X160836294Y-109030065D01*
X160836293Y-109030067D01*
X160779881Y-109240598D01*
X160778457Y-109245913D01*
X160758502Y-109474000D01*
X158182164Y-109474000D01*
X158283976Y-109328596D01*
X158319936Y-109251481D01*
X158372499Y-109138759D01*
X158372500Y-109138757D01*
X158374822Y-109133777D01*
X158381303Y-109109592D01*
X158429034Y-108931457D01*
X158429034Y-108931455D01*
X158430458Y-108926142D01*
X158449193Y-108712000D01*
X158430458Y-108497858D01*
X158423198Y-108470763D01*
X158376245Y-108295533D01*
X158376244Y-108295531D01*
X158374822Y-108290223D01*
X158366676Y-108272753D01*
X158286299Y-108100385D01*
X158286297Y-108100382D01*
X158283976Y-108095404D01*
X158160681Y-107919319D01*
X158008681Y-107767319D01*
X157832597Y-107644024D01*
X157827619Y-107641703D01*
X157827616Y-107641701D01*
X157642759Y-107555501D01*
X157642758Y-107555500D01*
X157637777Y-107553178D01*
X157632469Y-107551756D01*
X157632467Y-107551755D01*
X157435457Y-107498966D01*
X157435455Y-107498966D01*
X157430142Y-107497542D01*
X157216000Y-107478807D01*
X157001858Y-107497542D01*
X156996545Y-107498966D01*
X156996543Y-107498966D01*
X156799533Y-107551755D01*
X156799531Y-107551756D01*
X156794223Y-107553178D01*
X156789243Y-107555500D01*
X156789241Y-107555501D01*
X156604385Y-107641701D01*
X156604382Y-107641703D01*
X156599404Y-107644024D01*
X156423319Y-107767319D01*
X156271319Y-107919319D01*
X156148024Y-108095404D01*
X156145703Y-108100382D01*
X156145701Y-108100385D01*
X156060195Y-108283753D01*
X156013277Y-108337038D01*
X155945000Y-108356499D01*
X155877040Y-108335957D01*
X155831805Y-108283753D01*
X155746299Y-108100385D01*
X155746297Y-108100382D01*
X155743976Y-108095404D01*
X155620681Y-107919319D01*
X155468681Y-107767319D01*
X155292597Y-107644024D01*
X155287619Y-107641703D01*
X155287616Y-107641701D01*
X155102759Y-107555501D01*
X155102758Y-107555500D01*
X155097777Y-107553178D01*
X155092469Y-107551756D01*
X155092467Y-107551755D01*
X154895457Y-107498966D01*
X154895455Y-107498966D01*
X154890142Y-107497542D01*
X154676000Y-107478807D01*
X154461858Y-107497542D01*
X154456545Y-107498966D01*
X154456543Y-107498966D01*
X154259533Y-107551755D01*
X154259531Y-107551756D01*
X154254223Y-107553178D01*
X154249243Y-107555500D01*
X154249241Y-107555501D01*
X154064385Y-107641701D01*
X154064382Y-107641703D01*
X154059404Y-107644024D01*
X153883319Y-107767319D01*
X153731319Y-107919319D01*
X153608024Y-108095404D01*
X153605703Y-108100382D01*
X153605701Y-108100385D01*
X153520195Y-108283753D01*
X153473277Y-108337038D01*
X153405000Y-108356499D01*
X153337040Y-108335957D01*
X153291805Y-108283753D01*
X153206299Y-108100385D01*
X153206297Y-108100382D01*
X153203976Y-108095404D01*
X153080681Y-107919319D01*
X152928681Y-107767319D01*
X152752597Y-107644024D01*
X152747619Y-107641703D01*
X152747616Y-107641701D01*
X152562759Y-107555501D01*
X152562758Y-107555500D01*
X152557777Y-107553178D01*
X152552469Y-107551756D01*
X152552467Y-107551755D01*
X152355457Y-107498966D01*
X152355455Y-107498966D01*
X152350142Y-107497542D01*
X152136000Y-107478807D01*
X151921858Y-107497542D01*
X151916545Y-107498966D01*
X151916543Y-107498966D01*
X151719533Y-107551755D01*
X151719531Y-107551756D01*
X151714223Y-107553178D01*
X151709243Y-107555500D01*
X151709241Y-107555501D01*
X151524385Y-107641701D01*
X151524382Y-107641703D01*
X151519404Y-107644024D01*
X151343319Y-107767319D01*
X151191319Y-107919319D01*
X151068024Y-108095404D01*
X151065703Y-108100382D01*
X151065701Y-108100385D01*
X150985324Y-108272753D01*
X150977178Y-108290223D01*
X150975756Y-108295531D01*
X150975755Y-108295533D01*
X150928802Y-108470763D01*
X150921542Y-108497858D01*
X150902807Y-108712000D01*
X148787116Y-108712000D01*
X148768686Y-108501345D01*
X148766328Y-108492543D01*
X148715379Y-108302400D01*
X148715378Y-108302398D01*
X148713956Y-108297090D01*
X148710754Y-108290223D01*
X148626912Y-108110423D01*
X148626910Y-108110420D01*
X148624589Y-108105442D01*
X148503301Y-107932224D01*
X148353776Y-107782699D01*
X148180558Y-107661411D01*
X148175580Y-107659090D01*
X148175577Y-107659088D01*
X147993892Y-107574367D01*
X147993891Y-107574366D01*
X147988910Y-107572044D01*
X147983602Y-107570622D01*
X147983600Y-107570621D01*
X147789970Y-107518738D01*
X147789968Y-107518738D01*
X147784655Y-107517314D01*
X147574000Y-107498884D01*
X147363345Y-107517314D01*
X147358032Y-107518738D01*
X147358030Y-107518738D01*
X147164400Y-107570621D01*
X147164398Y-107570622D01*
X147159090Y-107572044D01*
X147154109Y-107574366D01*
X147154108Y-107574367D01*
X146972423Y-107659088D01*
X146972420Y-107659090D01*
X146967442Y-107661411D01*
X146794224Y-107782699D01*
X146644699Y-107932224D01*
X146523411Y-108105442D01*
X146521090Y-108110420D01*
X146521088Y-108110423D01*
X146437246Y-108290223D01*
X146434044Y-108297090D01*
X146432622Y-108302398D01*
X146432621Y-108302400D01*
X146381672Y-108492543D01*
X146379314Y-108501345D01*
X146360884Y-108712000D01*
X134604500Y-108712000D01*
X134604500Y-108440503D01*
X141316134Y-108440503D01*
X141316470Y-108454599D01*
X141324412Y-108458000D01*
X142221885Y-108458000D01*
X142237124Y-108453525D01*
X142238329Y-108452135D01*
X142240000Y-108444452D01*
X142240000Y-108439885D01*
X142748000Y-108439885D01*
X142752475Y-108455124D01*
X142753865Y-108456329D01*
X142761548Y-108458000D01*
X143658439Y-108458000D01*
X143671970Y-108454027D01*
X143673199Y-108445478D01*
X143634908Y-108302577D01*
X143631158Y-108292273D01*
X143546479Y-108110677D01*
X143541002Y-108101189D01*
X143426075Y-107937058D01*
X143419019Y-107928650D01*
X143277350Y-107786981D01*
X143268942Y-107779925D01*
X143104811Y-107664998D01*
X143095323Y-107659521D01*
X142913727Y-107574842D01*
X142903423Y-107571092D01*
X142765497Y-107534134D01*
X142751401Y-107534470D01*
X142748000Y-107542412D01*
X142748000Y-108439885D01*
X142240000Y-108439885D01*
X142240000Y-107547561D01*
X142236027Y-107534030D01*
X142227478Y-107532801D01*
X142084577Y-107571092D01*
X142074273Y-107574842D01*
X141892677Y-107659521D01*
X141883189Y-107664998D01*
X141719058Y-107779925D01*
X141710650Y-107786981D01*
X141568981Y-107928650D01*
X141561925Y-107937058D01*
X141446998Y-108101189D01*
X141441521Y-108110677D01*
X141356842Y-108292273D01*
X141353092Y-108302577D01*
X141316134Y-108440503D01*
X134604500Y-108440503D01*
X134604500Y-106867468D01*
X168749502Y-106867468D01*
X168769457Y-107095555D01*
X168828716Y-107316711D01*
X168831039Y-107321692D01*
X168831039Y-107321693D01*
X168923151Y-107519230D01*
X168923154Y-107519235D01*
X168925477Y-107524217D01*
X168958966Y-107572044D01*
X169021542Y-107661411D01*
X169056802Y-107711768D01*
X169218700Y-107873666D01*
X169223208Y-107876823D01*
X169223211Y-107876825D01*
X169278336Y-107915424D01*
X169406251Y-108004991D01*
X169411233Y-108007314D01*
X169411238Y-108007317D01*
X169604988Y-108097663D01*
X169613757Y-108101752D01*
X169619065Y-108103174D01*
X169619067Y-108103175D01*
X169829598Y-108159587D01*
X169829600Y-108159587D01*
X169834913Y-108161011D01*
X170051707Y-108179978D01*
X170057525Y-108180487D01*
X170063000Y-108180966D01*
X170068475Y-108180487D01*
X170071126Y-108180487D01*
X170139247Y-108200489D01*
X170185740Y-108254145D01*
X170195844Y-108324419D01*
X170180245Y-108369487D01*
X170173589Y-108381015D01*
X170081510Y-108578479D01*
X170077764Y-108588771D01*
X170021375Y-108799220D01*
X170019472Y-108810013D01*
X170000483Y-109027057D01*
X170000483Y-109038007D01*
X170019472Y-109255051D01*
X170021375Y-109265844D01*
X170077764Y-109476293D01*
X170081510Y-109486585D01*
X170173586Y-109684043D01*
X170179069Y-109693538D01*
X170215509Y-109745580D01*
X170225988Y-109753956D01*
X170239434Y-109746888D01*
X170952658Y-109033664D01*
X171677408Y-109033664D01*
X171677539Y-109035497D01*
X171681790Y-109042112D01*
X172387287Y-109747609D01*
X172399062Y-109754039D01*
X172411077Y-109744743D01*
X172446931Y-109693538D01*
X172452414Y-109684043D01*
X172544490Y-109486585D01*
X172548236Y-109476293D01*
X172604625Y-109265844D01*
X172606528Y-109255051D01*
X172625517Y-109038007D01*
X172625517Y-109027057D01*
X172606528Y-108810013D01*
X172604625Y-108799220D01*
X172548236Y-108588771D01*
X172544490Y-108578479D01*
X172452414Y-108381021D01*
X172446931Y-108371526D01*
X172410491Y-108319484D01*
X172400012Y-108311108D01*
X172386566Y-108318176D01*
X171685022Y-109019720D01*
X171677408Y-109033664D01*
X170952658Y-109033664D01*
X172028077Y-107958245D01*
X172034507Y-107946470D01*
X172025211Y-107934455D01*
X171974006Y-107898601D01*
X171964511Y-107893118D01*
X171767053Y-107801042D01*
X171756761Y-107797296D01*
X171546312Y-107740907D01*
X171535519Y-107739004D01*
X171318475Y-107720015D01*
X171305164Y-107720015D01*
X171237043Y-107700013D01*
X171190550Y-107646357D01*
X171180446Y-107576083D01*
X171196045Y-107531015D01*
X171197371Y-107528719D01*
X171200523Y-107524217D01*
X171202849Y-107519230D01*
X171294961Y-107321693D01*
X171294961Y-107321692D01*
X171297284Y-107316711D01*
X171356543Y-107095555D01*
X171376498Y-106867468D01*
X171356543Y-106639381D01*
X171297284Y-106418225D01*
X171294961Y-106413243D01*
X171202849Y-106215706D01*
X171202846Y-106215701D01*
X171200523Y-106210719D01*
X171069198Y-106023168D01*
X170907300Y-105861270D01*
X170902792Y-105858113D01*
X170902789Y-105858111D01*
X170824611Y-105803370D01*
X170719749Y-105729945D01*
X170714767Y-105727622D01*
X170714762Y-105727619D01*
X170517225Y-105635507D01*
X170517224Y-105635507D01*
X170512243Y-105633184D01*
X170506935Y-105631762D01*
X170506933Y-105631761D01*
X170296402Y-105575349D01*
X170296400Y-105575349D01*
X170291087Y-105573925D01*
X170063000Y-105553970D01*
X169834913Y-105573925D01*
X169829600Y-105575349D01*
X169829598Y-105575349D01*
X169619067Y-105631761D01*
X169619065Y-105631762D01*
X169613757Y-105633184D01*
X169608776Y-105635507D01*
X169608775Y-105635507D01*
X169411238Y-105727619D01*
X169411233Y-105727622D01*
X169406251Y-105729945D01*
X169301389Y-105803370D01*
X169223211Y-105858111D01*
X169223208Y-105858113D01*
X169218700Y-105861270D01*
X169056802Y-106023168D01*
X168925477Y-106210719D01*
X168923154Y-106215701D01*
X168923151Y-106215706D01*
X168831039Y-106413243D01*
X168828716Y-106418225D01*
X168769457Y-106639381D01*
X168749502Y-106867468D01*
X134604500Y-106867468D01*
X134604500Y-104140000D01*
X137352935Y-104140000D01*
X137373157Y-104371137D01*
X137433208Y-104595251D01*
X137531264Y-104805532D01*
X137664345Y-104995592D01*
X137828408Y-105159655D01*
X137832916Y-105162812D01*
X137832919Y-105162814D01*
X137912278Y-105218381D01*
X138018467Y-105292736D01*
X138023449Y-105295059D01*
X138023454Y-105295062D01*
X138223767Y-105388469D01*
X138228749Y-105390792D01*
X138234057Y-105392214D01*
X138234059Y-105392215D01*
X138447548Y-105449419D01*
X138447550Y-105449419D01*
X138452863Y-105450843D01*
X138684000Y-105471065D01*
X138915137Y-105450843D01*
X138920450Y-105449419D01*
X138920452Y-105449419D01*
X139133941Y-105392215D01*
X139133943Y-105392214D01*
X139139251Y-105390792D01*
X139144233Y-105388469D01*
X139344546Y-105295062D01*
X139344551Y-105295059D01*
X139349533Y-105292736D01*
X139455722Y-105218381D01*
X139535081Y-105162814D01*
X139535084Y-105162812D01*
X139539592Y-105159655D01*
X139703655Y-104995592D01*
X139836736Y-104805532D01*
X139934792Y-104595251D01*
X139994843Y-104371137D01*
X140015065Y-104140000D01*
X139994843Y-103908863D01*
X139934792Y-103684749D01*
X139836736Y-103474468D01*
X139703655Y-103284408D01*
X139539592Y-103120345D01*
X139535084Y-103117188D01*
X139535081Y-103117186D01*
X139435206Y-103047253D01*
X139349533Y-102987264D01*
X139344550Y-102984941D01*
X139344539Y-102984934D01*
X139342949Y-102984193D01*
X139342367Y-102983680D01*
X139339782Y-102982188D01*
X139340082Y-102981668D01*
X139289665Y-102937275D01*
X139270206Y-102868997D01*
X139290750Y-102801037D01*
X139340066Y-102758305D01*
X139339782Y-102757812D01*
X139342339Y-102756336D01*
X139342949Y-102755807D01*
X139344539Y-102755066D01*
X139344550Y-102755059D01*
X139349533Y-102752736D01*
X139455722Y-102678381D01*
X139535081Y-102622814D01*
X139535084Y-102622812D01*
X139539592Y-102619655D01*
X139703655Y-102455592D01*
X139836736Y-102265532D01*
X139858166Y-102219577D01*
X139932469Y-102060233D01*
X139932470Y-102060232D01*
X139934792Y-102055251D01*
X139940214Y-102035018D01*
X139993419Y-101836452D01*
X139993419Y-101836450D01*
X139994843Y-101831137D01*
X140015065Y-101600000D01*
X139994843Y-101368863D01*
X139992607Y-101360519D01*
X139936215Y-101150059D01*
X139936214Y-101150057D01*
X139934792Y-101144749D01*
X139924447Y-101122564D01*
X139839059Y-100939449D01*
X139839057Y-100939446D01*
X139836736Y-100934468D01*
X139703655Y-100744408D01*
X139539592Y-100580345D01*
X139535084Y-100577188D01*
X139535081Y-100577186D01*
X139440679Y-100511085D01*
X139349533Y-100447264D01*
X139344549Y-100444940D01*
X139344544Y-100444937D01*
X139342358Y-100443918D01*
X139341557Y-100443213D01*
X139339782Y-100442188D01*
X139339988Y-100441831D01*
X139289074Y-100397000D01*
X139269614Y-100328722D01*
X139290157Y-100260762D01*
X139339765Y-100217777D01*
X139339534Y-100217376D01*
X139341613Y-100216176D01*
X139342357Y-100215531D01*
X139344296Y-100214627D01*
X139353781Y-100209151D01*
X139409615Y-100170054D01*
X139417989Y-100159578D01*
X139410921Y-100146131D01*
X139112817Y-99848027D01*
X164077564Y-99848027D01*
X164079042Y-99855195D01*
X164106873Y-99990178D01*
X164113280Y-100021254D01*
X164156241Y-100117071D01*
X164931641Y-101460103D01*
X164994028Y-101546212D01*
X165126395Y-101663526D01*
X165282199Y-101747242D01*
X165289270Y-101749130D01*
X165446009Y-101790982D01*
X165446014Y-101790983D01*
X165453082Y-101792870D01*
X165460396Y-101793081D01*
X165460398Y-101793081D01*
X165531593Y-101795132D01*
X165629880Y-101797964D01*
X165663743Y-101790982D01*
X165796367Y-101763637D01*
X165796370Y-101763636D01*
X165803107Y-101762247D01*
X165898924Y-101719286D01*
X167025450Y-101068886D01*
X167111559Y-101006499D01*
X167228873Y-100874132D01*
X167312589Y-100718329D01*
X167348392Y-100584242D01*
X167356329Y-100554517D01*
X167356329Y-100554514D01*
X167358217Y-100547445D01*
X167359265Y-100511085D01*
X167361220Y-100443188D01*
X167363158Y-100375910D01*
X167385113Y-100308395D01*
X167440085Y-100263466D01*
X167510621Y-100255390D01*
X167524575Y-100258634D01*
X167671165Y-100301638D01*
X167681582Y-100303757D01*
X167899887Y-100329209D01*
X167910521Y-100329543D01*
X168129999Y-100317849D01*
X168140533Y-100316387D01*
X168354899Y-100267881D01*
X168365036Y-100264666D01*
X168379410Y-100258726D01*
X168390579Y-100249742D01*
X168387271Y-100236428D01*
X167538531Y-98766367D01*
X166944935Y-97738228D01*
X166934729Y-97728497D01*
X166924778Y-97732481D01*
X166835087Y-97812814D01*
X166827791Y-97820557D01*
X166691119Y-97992686D01*
X166685238Y-98001537D01*
X166579522Y-98194234D01*
X166575212Y-98203962D01*
X166503475Y-98411712D01*
X166500868Y-98422014D01*
X166494225Y-98462359D01*
X166463422Y-98526325D01*
X166402926Y-98563483D01*
X166331944Y-98562037D01*
X166310264Y-98552883D01*
X166158675Y-98471432D01*
X166135714Y-98465301D01*
X165994865Y-98427692D01*
X165994860Y-98427691D01*
X165987792Y-98425804D01*
X165980478Y-98425593D01*
X165980476Y-98425593D01*
X165909281Y-98423542D01*
X165810994Y-98420710D01*
X165803826Y-98422188D01*
X165644507Y-98455037D01*
X165644504Y-98455038D01*
X165637767Y-98456427D01*
X165541950Y-98499388D01*
X164415424Y-99149788D01*
X164329315Y-99212175D01*
X164212001Y-99344542D01*
X164128285Y-99500345D01*
X164126397Y-99507416D01*
X164107525Y-99578096D01*
X164082657Y-99671229D01*
X164082446Y-99678542D01*
X164082446Y-99678544D01*
X164080970Y-99729782D01*
X164077564Y-99848027D01*
X139112817Y-99848027D01*
X138696812Y-99432022D01*
X138682868Y-99424408D01*
X138681035Y-99424539D01*
X138674420Y-99428790D01*
X137956358Y-100146852D01*
X137949928Y-100158627D01*
X137959221Y-100170640D01*
X138014219Y-100209151D01*
X138023699Y-100214624D01*
X138025638Y-100215528D01*
X138026348Y-100216153D01*
X138028466Y-100217376D01*
X138028220Y-100217802D01*
X138078924Y-100262443D01*
X138098387Y-100330720D01*
X138077847Y-100398680D01*
X138028028Y-100441851D01*
X138028221Y-100442186D01*
X138026485Y-100443188D01*
X138025643Y-100443918D01*
X138023451Y-100444940D01*
X138023448Y-100444942D01*
X138018468Y-100447264D01*
X137828408Y-100580345D01*
X137664345Y-100744408D01*
X137531264Y-100934468D01*
X137528943Y-100939446D01*
X137528941Y-100939449D01*
X137443553Y-101122564D01*
X137433208Y-101144749D01*
X137431786Y-101150057D01*
X137431785Y-101150059D01*
X137375393Y-101360519D01*
X137373157Y-101368863D01*
X137352935Y-101600000D01*
X137373157Y-101831137D01*
X137374581Y-101836450D01*
X137374581Y-101836452D01*
X137427787Y-102035018D01*
X137433208Y-102055251D01*
X137435530Y-102060232D01*
X137435531Y-102060233D01*
X137509835Y-102219577D01*
X137531264Y-102265532D01*
X137664345Y-102455592D01*
X137828408Y-102619655D01*
X137832916Y-102622812D01*
X137832919Y-102622814D01*
X137912278Y-102678381D01*
X138018467Y-102752736D01*
X138023451Y-102755060D01*
X138023456Y-102755063D01*
X138025046Y-102755804D01*
X138025629Y-102756317D01*
X138028218Y-102757812D01*
X138027918Y-102758332D01*
X138078332Y-102802719D01*
X138097795Y-102870996D01*
X138077255Y-102938956D01*
X138027937Y-102981693D01*
X138028221Y-102982186D01*
X138025665Y-102983662D01*
X138025052Y-102984193D01*
X138023456Y-102984937D01*
X138023447Y-102984942D01*
X138018468Y-102987264D01*
X137828408Y-103120345D01*
X137664345Y-103284408D01*
X137531264Y-103474468D01*
X137433208Y-103684749D01*
X137373157Y-103908863D01*
X137352935Y-104140000D01*
X134604500Y-104140000D01*
X134604500Y-102472546D01*
X134624502Y-102404425D01*
X134641405Y-102383451D01*
X137330975Y-99693881D01*
X137393287Y-99659855D01*
X137464102Y-99664920D01*
X137520938Y-99707467D01*
X137529187Y-99719973D01*
X137534850Y-99729782D01*
X137573945Y-99785614D01*
X137584422Y-99793989D01*
X137597869Y-99786921D01*
X138323658Y-99061132D01*
X139048408Y-99061132D01*
X139048539Y-99062965D01*
X139052790Y-99069580D01*
X139770852Y-99787642D01*
X139782627Y-99794072D01*
X139794642Y-99784776D01*
X139833144Y-99729789D01*
X139838627Y-99720294D01*
X139931995Y-99520064D01*
X139935743Y-99509768D01*
X139992926Y-99296360D01*
X139994828Y-99285573D01*
X140014084Y-99065475D01*
X140014084Y-99054525D01*
X139994828Y-98834427D01*
X139992926Y-98823640D01*
X139935743Y-98610232D01*
X139931995Y-98599936D01*
X139838627Y-98399706D01*
X139833144Y-98390211D01*
X139794055Y-98334386D01*
X139783578Y-98326011D01*
X139770131Y-98333079D01*
X139056022Y-99047188D01*
X139048408Y-99061132D01*
X138323658Y-99061132D01*
X139411642Y-97973148D01*
X139418072Y-97961373D01*
X139408779Y-97949360D01*
X139353785Y-97910852D01*
X139343979Y-97905191D01*
X139294985Y-97853810D01*
X139281546Y-97784097D01*
X139307931Y-97718185D01*
X139317881Y-97706975D01*
X139488856Y-97536000D01*
X141534884Y-97536000D01*
X141553314Y-97746655D01*
X141554738Y-97751968D01*
X141554738Y-97751970D01*
X141595794Y-97905191D01*
X141608044Y-97950910D01*
X141610366Y-97955891D01*
X141610367Y-97955892D01*
X141662946Y-98068647D01*
X141697411Y-98142558D01*
X141818699Y-98315776D01*
X141968224Y-98465301D01*
X142141442Y-98586589D01*
X142146420Y-98588910D01*
X142146423Y-98588912D01*
X142247082Y-98635850D01*
X142333090Y-98675956D01*
X142338398Y-98677378D01*
X142338400Y-98677379D01*
X142532030Y-98729262D01*
X142532032Y-98729262D01*
X142537345Y-98730686D01*
X142748000Y-98749116D01*
X142958655Y-98730686D01*
X142963968Y-98729262D01*
X142963970Y-98729262D01*
X143157600Y-98677379D01*
X143157602Y-98677378D01*
X143162910Y-98675956D01*
X143248918Y-98635850D01*
X143349577Y-98588912D01*
X143349580Y-98588910D01*
X143354558Y-98586589D01*
X143527776Y-98465301D01*
X143677301Y-98315776D01*
X143798589Y-98142558D01*
X143833055Y-98068647D01*
X143885633Y-97955892D01*
X143885634Y-97955891D01*
X143887956Y-97950910D01*
X143900207Y-97905191D01*
X143941262Y-97751970D01*
X143941262Y-97751968D01*
X143942686Y-97746655D01*
X143961116Y-97536000D01*
X143955248Y-97468933D01*
X167380423Y-97468933D01*
X167383731Y-97482247D01*
X168232471Y-98952307D01*
X168826067Y-99980447D01*
X168836273Y-99990178D01*
X168846224Y-99986194D01*
X168935911Y-99905863D01*
X168943211Y-99898116D01*
X169079883Y-99725989D01*
X169085764Y-99717138D01*
X169191480Y-99524440D01*
X169195790Y-99514712D01*
X169267527Y-99306962D01*
X169270134Y-99296662D01*
X169305844Y-99079781D01*
X169306677Y-99069195D01*
X169306487Y-99038081D01*
X169326072Y-98969839D01*
X169379442Y-98923019D01*
X169449653Y-98912485D01*
X169487818Y-98924110D01*
X169545503Y-98952307D01*
X169620021Y-98988732D01*
X169625131Y-98990231D01*
X169625136Y-98990233D01*
X169836126Y-99052130D01*
X169836131Y-99052131D01*
X169841244Y-99053631D01*
X169846546Y-99054249D01*
X169846545Y-99054249D01*
X170064935Y-99079712D01*
X170064940Y-99079712D01*
X170070239Y-99080330D01*
X170128335Y-99077234D01*
X170295131Y-99068347D01*
X170295133Y-99068347D01*
X170300458Y-99068063D01*
X170305662Y-99066885D01*
X170305665Y-99066885D01*
X170520114Y-99018360D01*
X170525320Y-99017182D01*
X170530246Y-99015147D01*
X170530251Y-99015145D01*
X170733461Y-98931179D01*
X170733462Y-98931178D01*
X170738393Y-98929141D01*
X170892747Y-98832127D01*
X170929071Y-98809297D01*
X170929073Y-98809296D01*
X170933586Y-98806459D01*
X171105319Y-98652643D01*
X171248679Y-98472090D01*
X171254541Y-98461406D01*
X171324943Y-98333079D01*
X171359569Y-98269964D01*
X171434818Y-98052044D01*
X171472274Y-97824561D01*
X171471555Y-97706975D01*
X171470898Y-97599347D01*
X171470898Y-97599342D01*
X171470865Y-97594020D01*
X171430633Y-97367011D01*
X171352727Y-97150027D01*
X171341637Y-97128541D01*
X171135614Y-96771699D01*
X171037072Y-96630180D01*
X170921782Y-96513064D01*
X170879079Y-96469685D01*
X170879077Y-96469684D01*
X170875337Y-96465884D01*
X170688232Y-96331188D01*
X170584670Y-96280565D01*
X170485897Y-96232283D01*
X170485893Y-96232281D01*
X170481107Y-96229942D01*
X170259884Y-96165043D01*
X170254585Y-96164425D01*
X170254584Y-96164425D01*
X170036194Y-96138963D01*
X170036188Y-96138963D01*
X170030889Y-96138345D01*
X169959442Y-96142152D01*
X169805999Y-96150328D01*
X169805998Y-96150328D01*
X169800670Y-96150612D01*
X169747084Y-96162737D01*
X169581013Y-96200314D01*
X169581010Y-96200315D01*
X169575808Y-96201492D01*
X169570882Y-96203527D01*
X169570880Y-96203528D01*
X169510587Y-96228441D01*
X169362735Y-96289533D01*
X169291500Y-96334306D01*
X169172055Y-96409379D01*
X169172051Y-96409382D01*
X169167542Y-96412216D01*
X169163574Y-96415770D01*
X169163570Y-96415773D01*
X169085821Y-96485411D01*
X168995809Y-96566032D01*
X168852449Y-96746584D01*
X168741559Y-96948710D01*
X168666310Y-97166630D01*
X168628854Y-97394113D01*
X168628887Y-97399441D01*
X168629079Y-97430908D01*
X168609494Y-97499149D01*
X168556123Y-97545969D01*
X168485912Y-97556503D01*
X168447747Y-97544878D01*
X168320652Y-97482751D01*
X168310746Y-97478909D01*
X168099837Y-97417036D01*
X168089420Y-97414917D01*
X167871115Y-97389465D01*
X167860481Y-97389131D01*
X167641003Y-97400825D01*
X167630470Y-97402287D01*
X167416103Y-97450794D01*
X167405966Y-97454009D01*
X167391592Y-97459949D01*
X167380423Y-97468933D01*
X143955248Y-97468933D01*
X143942686Y-97325345D01*
X143901568Y-97171889D01*
X143889379Y-97126400D01*
X143889378Y-97126398D01*
X143887956Y-97121090D01*
X143885633Y-97116108D01*
X143800912Y-96934423D01*
X143800910Y-96934420D01*
X143798589Y-96929442D01*
X143677301Y-96756224D01*
X143527776Y-96606699D01*
X143354558Y-96485411D01*
X143349580Y-96483090D01*
X143349577Y-96483088D01*
X143167892Y-96398367D01*
X143167891Y-96398366D01*
X143162910Y-96396044D01*
X143157602Y-96394622D01*
X143157600Y-96394621D01*
X142963970Y-96342738D01*
X142963968Y-96342738D01*
X142958655Y-96341314D01*
X142748000Y-96322884D01*
X142537345Y-96341314D01*
X142532032Y-96342738D01*
X142532030Y-96342738D01*
X142338400Y-96394621D01*
X142338398Y-96394622D01*
X142333090Y-96396044D01*
X142328109Y-96398366D01*
X142328108Y-96398367D01*
X142146423Y-96483088D01*
X142146420Y-96483090D01*
X142141442Y-96485411D01*
X141968224Y-96606699D01*
X141818699Y-96756224D01*
X141697411Y-96929442D01*
X141695090Y-96934420D01*
X141695088Y-96934423D01*
X141610367Y-97116108D01*
X141608044Y-97121090D01*
X141606622Y-97126398D01*
X141606621Y-97126400D01*
X141594432Y-97171889D01*
X141553314Y-97325345D01*
X141534884Y-97536000D01*
X139488856Y-97536000D01*
X143077698Y-93947158D01*
X143136737Y-93913890D01*
X143168134Y-93906178D01*
X143225706Y-93892037D01*
X143230359Y-93890062D01*
X143230362Y-93890061D01*
X143236602Y-93887412D01*
X143242778Y-93884791D01*
X143257689Y-93879539D01*
X143275532Y-93874490D01*
X143280107Y-93872356D01*
X143280114Y-93872354D01*
X143334735Y-93846883D01*
X143359682Y-93835250D01*
X143363673Y-93833473D01*
X143449156Y-93797188D01*
X143453428Y-93794498D01*
X143453437Y-93794493D01*
X143464846Y-93787308D01*
X143478740Y-93779733D01*
X143481841Y-93778287D01*
X143495536Y-93771901D01*
X143514651Y-93758911D01*
X143572320Y-93719719D01*
X143575999Y-93717311D01*
X143650291Y-93670526D01*
X143650293Y-93670525D01*
X143654567Y-93667833D01*
X143658351Y-93664497D01*
X143658355Y-93664494D01*
X143668479Y-93655568D01*
X143680976Y-93645875D01*
X143696307Y-93635456D01*
X143699984Y-93631979D01*
X143699990Y-93631974D01*
X143763735Y-93571692D01*
X143766984Y-93568725D01*
X143832863Y-93510646D01*
X143832869Y-93510640D01*
X143836655Y-93507302D01*
X143848428Y-93492969D01*
X143859211Y-93481406D01*
X143872681Y-93468668D01*
X143929055Y-93394934D01*
X143931786Y-93391487D01*
X143987527Y-93323626D01*
X143990734Y-93319722D01*
X144000062Y-93303694D01*
X144008854Y-93290561D01*
X144020120Y-93275826D01*
X144028520Y-93260161D01*
X144063989Y-93194010D01*
X144066135Y-93190170D01*
X144110291Y-93114304D01*
X144110293Y-93114300D01*
X144112841Y-93109922D01*
X144114655Y-93105197D01*
X144114661Y-93105184D01*
X144119484Y-93092618D01*
X144126071Y-93078229D01*
X144132441Y-93066349D01*
X144132442Y-93066346D01*
X144134831Y-93061891D01*
X144136476Y-93057113D01*
X144136481Y-93057102D01*
X144165064Y-92974090D01*
X144166568Y-92969957D01*
X144198018Y-92888028D01*
X144198020Y-92888020D01*
X144199833Y-92883298D01*
X144203623Y-92865159D01*
X144207823Y-92849908D01*
X144212215Y-92837152D01*
X144213862Y-92832369D01*
X144229676Y-92740813D01*
X144230489Y-92736554D01*
X144248440Y-92650632D01*
X144248441Y-92650626D01*
X144249474Y-92645680D01*
X144249721Y-92640254D01*
X144250315Y-92627164D01*
X144252023Y-92611437D01*
X144254504Y-92597071D01*
X144255179Y-92593164D01*
X144256500Y-92564075D01*
X144256500Y-92493812D01*
X144256630Y-92488096D01*
X144260486Y-92403183D01*
X144257335Y-92375949D01*
X144256500Y-92361468D01*
X144256500Y-90847031D01*
X144276502Y-90778910D01*
X144293405Y-90757936D01*
X147907937Y-87143405D01*
X147970249Y-87109379D01*
X147997032Y-87106500D01*
X148460829Y-87106500D01*
X148528950Y-87126502D01*
X148575443Y-87180158D01*
X148585547Y-87250432D01*
X148564043Y-87304770D01*
X148468477Y-87441251D01*
X148466154Y-87446233D01*
X148466151Y-87446238D01*
X148448686Y-87483693D01*
X148371716Y-87648757D01*
X148370294Y-87654065D01*
X148370293Y-87654067D01*
X148313881Y-87864598D01*
X148312457Y-87869913D01*
X148292502Y-88098000D01*
X148312457Y-88326087D01*
X148371716Y-88547243D01*
X148374039Y-88552224D01*
X148374039Y-88552225D01*
X148466151Y-88749762D01*
X148466154Y-88749767D01*
X148468477Y-88754749D01*
X148599802Y-88942300D01*
X148761700Y-89104198D01*
X148766208Y-89107355D01*
X148766211Y-89107357D01*
X148810741Y-89138537D01*
X148949251Y-89235523D01*
X148954233Y-89237846D01*
X148954238Y-89237849D01*
X149151775Y-89329961D01*
X149156757Y-89332284D01*
X149162065Y-89333706D01*
X149162067Y-89333707D01*
X149372598Y-89390119D01*
X149372600Y-89390119D01*
X149377913Y-89391543D01*
X149606000Y-89411498D01*
X149834087Y-89391543D01*
X149839400Y-89390119D01*
X149839402Y-89390119D01*
X150049933Y-89333707D01*
X150049935Y-89333706D01*
X150055243Y-89332284D01*
X150060225Y-89329961D01*
X150257762Y-89237849D01*
X150257767Y-89237846D01*
X150262749Y-89235523D01*
X150401259Y-89138537D01*
X150445789Y-89107357D01*
X150445792Y-89107355D01*
X150450300Y-89104198D01*
X150612198Y-88942300D01*
X150743523Y-88754749D01*
X150745846Y-88749767D01*
X150745849Y-88749762D01*
X150837961Y-88552225D01*
X150837961Y-88552224D01*
X150840284Y-88547243D01*
X150899543Y-88326087D01*
X150919498Y-88098000D01*
X150899543Y-87869913D01*
X150898119Y-87864598D01*
X150841707Y-87654067D01*
X150841706Y-87654065D01*
X150840284Y-87648757D01*
X150763314Y-87483693D01*
X150745849Y-87446238D01*
X150745846Y-87446233D01*
X150743523Y-87441251D01*
X150647958Y-87304770D01*
X150625270Y-87237497D01*
X150642555Y-87168637D01*
X150694324Y-87120052D01*
X150751171Y-87106500D01*
X153032829Y-87106500D01*
X153100950Y-87126502D01*
X153147443Y-87180158D01*
X153157547Y-87250432D01*
X153136043Y-87304770D01*
X153040477Y-87441251D01*
X153038154Y-87446233D01*
X153038151Y-87446238D01*
X153020686Y-87483693D01*
X152943716Y-87648757D01*
X152942294Y-87654065D01*
X152942293Y-87654067D01*
X152885881Y-87864598D01*
X152884457Y-87869913D01*
X152864502Y-88098000D01*
X152884457Y-88326087D01*
X152943716Y-88547243D01*
X152946039Y-88552224D01*
X152946039Y-88552225D01*
X153038151Y-88749762D01*
X153038154Y-88749767D01*
X153040477Y-88754749D01*
X153171802Y-88942300D01*
X153333700Y-89104198D01*
X153338208Y-89107355D01*
X153338211Y-89107357D01*
X153382741Y-89138537D01*
X153521251Y-89235523D01*
X153526233Y-89237846D01*
X153526238Y-89237849D01*
X153723775Y-89329961D01*
X153728757Y-89332284D01*
X153734065Y-89333706D01*
X153734067Y-89333707D01*
X153944598Y-89390119D01*
X153944600Y-89390119D01*
X153949913Y-89391543D01*
X154178000Y-89411498D01*
X154406087Y-89391543D01*
X154411400Y-89390119D01*
X154411402Y-89390119D01*
X154621933Y-89333707D01*
X154621935Y-89333706D01*
X154627243Y-89332284D01*
X154632225Y-89329961D01*
X154829762Y-89237849D01*
X154829767Y-89237846D01*
X154834749Y-89235523D01*
X154973259Y-89138537D01*
X155017789Y-89107357D01*
X155017792Y-89107355D01*
X155022300Y-89104198D01*
X155184198Y-88942300D01*
X155315523Y-88754749D01*
X155317846Y-88749767D01*
X155317849Y-88749762D01*
X155409961Y-88552225D01*
X155409961Y-88552224D01*
X155412284Y-88547243D01*
X155471543Y-88326087D01*
X155491498Y-88098000D01*
X155471543Y-87869913D01*
X155470119Y-87864598D01*
X155413707Y-87654067D01*
X155413706Y-87654065D01*
X155412284Y-87648757D01*
X155335314Y-87483693D01*
X155317849Y-87446238D01*
X155317846Y-87446233D01*
X155315523Y-87441251D01*
X155219958Y-87304770D01*
X155197270Y-87237497D01*
X155214555Y-87168637D01*
X155266324Y-87120052D01*
X155323171Y-87106500D01*
X159088967Y-87106500D01*
X159157088Y-87126502D01*
X159178062Y-87143404D01*
X159435745Y-87401086D01*
X159438199Y-87403610D01*
X159506700Y-87476049D01*
X159506404Y-87476329D01*
X159527605Y-87502391D01*
X160960732Y-89959181D01*
X161258816Y-90470182D01*
X162990695Y-93439118D01*
X162992144Y-93441199D01*
X162992145Y-93441200D01*
X163091561Y-93583941D01*
X163091566Y-93583947D01*
X163094455Y-93588095D01*
X163263253Y-93762547D01*
X163395465Y-93861251D01*
X163429203Y-93899214D01*
X163486673Y-93998754D01*
X163549060Y-94084863D01*
X163681427Y-94202177D01*
X163687877Y-94205643D01*
X163687879Y-94205644D01*
X163830782Y-94282427D01*
X163837231Y-94285892D01*
X164008114Y-94331521D01*
X164015427Y-94331732D01*
X164015429Y-94331732D01*
X164088891Y-94333848D01*
X164184912Y-94336614D01*
X164267175Y-94319653D01*
X164351403Y-94302287D01*
X164351404Y-94302287D01*
X164358139Y-94300898D01*
X164367034Y-94296910D01*
X164399334Y-94282427D01*
X164453956Y-94257936D01*
X164987578Y-93949849D01*
X164992028Y-93947399D01*
X165070689Y-93906178D01*
X165074742Y-93903140D01*
X165089688Y-93891937D01*
X165102261Y-93883638D01*
X165577657Y-93609167D01*
X165580482Y-93607536D01*
X165666591Y-93545150D01*
X165783905Y-93412783D01*
X165867621Y-93256979D01*
X165892776Y-93162772D01*
X165911361Y-93093168D01*
X165911361Y-93093165D01*
X165913249Y-93086096D01*
X165914501Y-93042652D01*
X165916266Y-92981356D01*
X165918190Y-92914560D01*
X165940145Y-92847045D01*
X165995117Y-92802116D01*
X166065653Y-92794040D01*
X166079607Y-92797284D01*
X166226194Y-92840288D01*
X166236613Y-92842407D01*
X166454918Y-92867860D01*
X166465551Y-92868194D01*
X166685029Y-92856500D01*
X166695563Y-92855038D01*
X166909929Y-92806532D01*
X166920066Y-92803317D01*
X166934441Y-92797377D01*
X166945610Y-92788392D01*
X166942302Y-92775077D01*
X166190866Y-91473552D01*
X166779383Y-91473552D01*
X166781776Y-91481040D01*
X167381099Y-92519095D01*
X167391305Y-92528827D01*
X167401256Y-92524843D01*
X167490945Y-92444511D01*
X167498241Y-92436769D01*
X167634915Y-92264641D01*
X167640795Y-92255790D01*
X167746511Y-92063092D01*
X167750821Y-92053364D01*
X167822559Y-91845613D01*
X167825166Y-91835314D01*
X167860876Y-91618433D01*
X167861709Y-91607846D01*
X167860366Y-91388044D01*
X167859403Y-91377472D01*
X167821046Y-91161042D01*
X167818313Y-91150772D01*
X167743643Y-90942795D01*
X167740337Y-90935200D01*
X167738343Y-90931338D01*
X167728643Y-90922027D01*
X167726947Y-90921695D01*
X167719271Y-90924134D01*
X166790691Y-91460250D01*
X166779731Y-91471745D01*
X166779383Y-91473552D01*
X166190866Y-91473552D01*
X166081063Y-91283367D01*
X165474967Y-90233577D01*
X165464761Y-90223846D01*
X165454810Y-90227830D01*
X165365120Y-90308163D01*
X165357824Y-90315905D01*
X165221152Y-90488033D01*
X165215271Y-90496884D01*
X165106987Y-90694261D01*
X165105679Y-90693544D01*
X165064232Y-90742471D01*
X164996339Y-90763234D01*
X164927999Y-90743995D01*
X164886094Y-90700730D01*
X164456499Y-89964282D01*
X165910455Y-89964282D01*
X165913764Y-89977599D01*
X166511946Y-91013678D01*
X166523441Y-91024638D01*
X166525249Y-91024987D01*
X166532736Y-91022594D01*
X167458018Y-90488382D01*
X167468575Y-90477310D01*
X167464419Y-90465987D01*
X167404702Y-90380225D01*
X167397919Y-90372055D01*
X167243718Y-90215412D01*
X167235656Y-90208501D01*
X167057274Y-90080084D01*
X167048155Y-90074627D01*
X166850686Y-89978100D01*
X166840780Y-89974258D01*
X166629871Y-89912385D01*
X166619454Y-89910266D01*
X166401149Y-89884814D01*
X166390515Y-89884480D01*
X166171037Y-89896174D01*
X166160503Y-89897636D01*
X165946134Y-89946143D01*
X165936001Y-89949357D01*
X165921625Y-89955297D01*
X165910455Y-89964282D01*
X164456499Y-89964282D01*
X163815709Y-88865784D01*
X163815699Y-88865768D01*
X163691287Y-88652489D01*
X163108874Y-87654067D01*
X162699098Y-86951593D01*
X162682051Y-86882673D01*
X162704971Y-86815478D01*
X162760582Y-86771341D01*
X162822526Y-86762953D01*
X162898918Y-86771860D01*
X162909551Y-86772194D01*
X163129029Y-86760500D01*
X163139563Y-86759038D01*
X163353929Y-86710532D01*
X163364066Y-86707317D01*
X163378441Y-86701377D01*
X163389610Y-86692392D01*
X163386302Y-86679077D01*
X162634866Y-85377552D01*
X163223383Y-85377552D01*
X163225776Y-85385040D01*
X163825099Y-86423095D01*
X163835305Y-86432827D01*
X163845256Y-86428843D01*
X163934945Y-86348511D01*
X163942241Y-86340769D01*
X164078915Y-86168641D01*
X164084795Y-86159790D01*
X164190511Y-85967092D01*
X164194821Y-85957364D01*
X164266559Y-85749613D01*
X164269166Y-85739314D01*
X164304876Y-85522433D01*
X164305709Y-85511846D01*
X164304366Y-85292044D01*
X164303403Y-85281472D01*
X164265046Y-85065042D01*
X164262313Y-85054772D01*
X164187643Y-84846795D01*
X164184337Y-84839200D01*
X164182343Y-84835338D01*
X164172643Y-84826027D01*
X164170947Y-84825695D01*
X164163271Y-84828134D01*
X163234691Y-85364250D01*
X163223731Y-85375745D01*
X163223383Y-85377552D01*
X162634866Y-85377552D01*
X162525063Y-85187367D01*
X161918967Y-84137577D01*
X161908761Y-84127846D01*
X161898810Y-84131830D01*
X161809120Y-84212163D01*
X161801824Y-84219905D01*
X161665152Y-84392033D01*
X161659271Y-84400884D01*
X161553554Y-84593582D01*
X161549246Y-84603303D01*
X161477507Y-84811060D01*
X161474899Y-84821365D01*
X161468256Y-84861710D01*
X161437452Y-84925676D01*
X161376955Y-84962833D01*
X161305973Y-84961385D01*
X161284292Y-84952230D01*
X161234234Y-84925333D01*
X161204777Y-84903436D01*
X160849675Y-84548334D01*
X160847221Y-84545812D01*
X160782138Y-84476988D01*
X160782135Y-84476986D01*
X160778668Y-84473319D01*
X160716239Y-84425589D01*
X160711108Y-84421448D01*
X160655133Y-84373809D01*
X160655132Y-84373808D01*
X160651280Y-84370530D01*
X160646955Y-84367911D01*
X160646950Y-84367907D01*
X160623176Y-84353509D01*
X160611929Y-84345837D01*
X160585826Y-84325880D01*
X160516592Y-84288757D01*
X160510868Y-84285493D01*
X160443642Y-84244779D01*
X160413181Y-84232472D01*
X160400841Y-84226692D01*
X160397350Y-84224820D01*
X160371891Y-84211169D01*
X160367110Y-84209523D01*
X160367106Y-84209521D01*
X160297599Y-84185588D01*
X160291421Y-84183278D01*
X160223266Y-84155742D01*
X160223267Y-84155742D01*
X160218571Y-84153845D01*
X160186539Y-84146568D01*
X160173441Y-84142837D01*
X160142369Y-84132138D01*
X160064900Y-84118757D01*
X160058496Y-84117477D01*
X159981856Y-84100065D01*
X159949047Y-84098001D01*
X159935547Y-84096415D01*
X159903164Y-84090821D01*
X159899207Y-84090641D01*
X159899204Y-84090641D01*
X159875494Y-84089564D01*
X159875475Y-84089564D01*
X159874075Y-84089500D01*
X159817892Y-84089500D01*
X159809980Y-84089251D01*
X159804386Y-84088899D01*
X159739587Y-84084822D01*
X159700545Y-84088650D01*
X159698008Y-84088899D01*
X159685712Y-84089500D01*
X155322561Y-84089500D01*
X155254440Y-84069498D01*
X155207947Y-84015842D01*
X155197843Y-83945568D01*
X155219348Y-83891229D01*
X155235416Y-83868282D01*
X162354455Y-83868282D01*
X162357764Y-83881599D01*
X162955946Y-84917678D01*
X162967441Y-84928638D01*
X162969249Y-84928987D01*
X162976736Y-84926594D01*
X163902018Y-84392382D01*
X163912575Y-84381310D01*
X163908419Y-84369987D01*
X163848702Y-84284225D01*
X163841919Y-84276055D01*
X163687718Y-84119412D01*
X163679656Y-84112501D01*
X163501274Y-83984084D01*
X163492155Y-83978627D01*
X163294686Y-83882100D01*
X163284780Y-83878258D01*
X163073871Y-83816385D01*
X163063454Y-83814266D01*
X162845149Y-83788814D01*
X162834515Y-83788480D01*
X162615037Y-83800174D01*
X162604503Y-83801636D01*
X162390134Y-83850143D01*
X162380001Y-83853357D01*
X162365625Y-83859297D01*
X162354455Y-83868282D01*
X155235416Y-83868282D01*
X155311931Y-83759007D01*
X155317414Y-83749511D01*
X155409490Y-83552053D01*
X155413236Y-83541761D01*
X155469625Y-83331312D01*
X155471528Y-83320519D01*
X155490517Y-83103475D01*
X155490517Y-83092525D01*
X155471528Y-82875481D01*
X155469625Y-82864688D01*
X155413236Y-82654239D01*
X155409490Y-82643947D01*
X155317414Y-82446489D01*
X155311931Y-82436994D01*
X155275491Y-82384952D01*
X155265012Y-82376576D01*
X155251566Y-82383644D01*
X154267095Y-83368115D01*
X154204783Y-83402141D01*
X154133968Y-83397076D01*
X154088905Y-83368115D01*
X153103713Y-82382923D01*
X153091938Y-82376493D01*
X153079923Y-82385789D01*
X153044069Y-82436994D01*
X153038586Y-82446489D01*
X152946510Y-82643947D01*
X152942764Y-82654239D01*
X152886375Y-82864688D01*
X152884472Y-82875481D01*
X152865483Y-83092525D01*
X152865483Y-83103475D01*
X152884472Y-83320519D01*
X152886375Y-83331312D01*
X152942764Y-83541761D01*
X152946510Y-83552053D01*
X153038586Y-83749511D01*
X153044069Y-83759007D01*
X153136652Y-83891229D01*
X153159340Y-83958503D01*
X153142055Y-84027364D01*
X153090285Y-84075948D01*
X153033439Y-84089500D01*
X150750561Y-84089500D01*
X150682440Y-84069498D01*
X150635947Y-84015842D01*
X150625843Y-83945568D01*
X150647348Y-83891229D01*
X150739931Y-83759007D01*
X150745414Y-83749511D01*
X150837490Y-83552053D01*
X150841236Y-83541761D01*
X150897625Y-83331312D01*
X150899528Y-83320519D01*
X150918517Y-83103475D01*
X150918517Y-83092525D01*
X150899528Y-82875481D01*
X150897625Y-82864688D01*
X150841236Y-82654239D01*
X150837490Y-82643947D01*
X150745414Y-82446489D01*
X150739931Y-82436994D01*
X150703491Y-82384952D01*
X150693012Y-82376576D01*
X150679566Y-82383644D01*
X149695095Y-83368115D01*
X149632783Y-83402141D01*
X149561968Y-83397076D01*
X149516905Y-83368115D01*
X148531713Y-82382923D01*
X148519938Y-82376493D01*
X148507923Y-82385789D01*
X148472069Y-82436994D01*
X148466586Y-82446489D01*
X148374510Y-82643947D01*
X148370764Y-82654239D01*
X148314375Y-82864688D01*
X148312472Y-82875481D01*
X148293483Y-83092525D01*
X148293483Y-83103475D01*
X148312472Y-83320519D01*
X148314375Y-83331312D01*
X148370764Y-83541761D01*
X148374510Y-83552053D01*
X148466586Y-83749511D01*
X148472069Y-83759007D01*
X148564652Y-83891229D01*
X148587340Y-83958503D01*
X148570055Y-84027364D01*
X148518285Y-84075948D01*
X148461439Y-84089500D01*
X147344002Y-84089500D01*
X147340483Y-84089451D01*
X147245850Y-84086807D01*
X147245847Y-84086807D01*
X147240795Y-84086666D01*
X147162902Y-84097059D01*
X147156361Y-84097758D01*
X147131617Y-84099749D01*
X147083077Y-84103654D01*
X147083073Y-84103655D01*
X147078035Y-84104060D01*
X147046122Y-84111899D01*
X147032742Y-84114426D01*
X147000180Y-84118771D01*
X146995339Y-84120232D01*
X146995337Y-84120233D01*
X146924971Y-84141478D01*
X146918610Y-84143219D01*
X146842294Y-84161963D01*
X146837634Y-84163941D01*
X146812049Y-84174801D01*
X146799239Y-84179438D01*
X146767792Y-84188933D01*
X146763244Y-84191151D01*
X146763237Y-84191154D01*
X146697182Y-84223371D01*
X146691180Y-84226107D01*
X146647192Y-84244779D01*
X146618844Y-84256812D01*
X146609050Y-84262980D01*
X146591044Y-84274319D01*
X146579140Y-84280945D01*
X146549612Y-84295346D01*
X146545475Y-84298265D01*
X146545474Y-84298265D01*
X146485403Y-84340641D01*
X146479914Y-84344301D01*
X146442429Y-84367907D01*
X146413433Y-84386167D01*
X146409644Y-84389508D01*
X146409638Y-84389512D01*
X146388783Y-84407898D01*
X146378088Y-84416344D01*
X146351253Y-84435274D01*
X146348329Y-84437944D01*
X146340543Y-84445054D01*
X146329750Y-84454909D01*
X146290034Y-84494625D01*
X146284264Y-84500044D01*
X146235142Y-84543350D01*
X146235139Y-84543353D01*
X146231345Y-84546698D01*
X146228135Y-84550606D01*
X146228134Y-84550607D01*
X146204821Y-84578989D01*
X146196551Y-84588108D01*
X141698334Y-89086325D01*
X141695812Y-89088779D01*
X141643660Y-89138097D01*
X141623319Y-89157332D01*
X141620252Y-89161344D01*
X141575592Y-89219757D01*
X141571448Y-89224892D01*
X141520530Y-89284720D01*
X141517911Y-89289045D01*
X141517907Y-89289050D01*
X141503509Y-89312824D01*
X141495837Y-89324071D01*
X141475880Y-89350174D01*
X141442999Y-89411498D01*
X141438761Y-89419401D01*
X141435496Y-89425126D01*
X141394779Y-89492358D01*
X141392884Y-89497049D01*
X141382473Y-89522817D01*
X141376693Y-89535158D01*
X141361169Y-89564109D01*
X141359523Y-89568890D01*
X141359521Y-89568894D01*
X141335588Y-89638401D01*
X141333278Y-89644579D01*
X141303845Y-89717429D01*
X141302723Y-89722368D01*
X141296568Y-89749460D01*
X141292837Y-89762559D01*
X141282138Y-89793631D01*
X141268757Y-89871100D01*
X141267477Y-89877504D01*
X141250065Y-89954144D01*
X141248001Y-89986953D01*
X141246415Y-90000453D01*
X141240821Y-90032836D01*
X141239500Y-90061925D01*
X141239500Y-90118108D01*
X141239251Y-90126019D01*
X141234822Y-90196413D01*
X141236685Y-90215412D01*
X141238899Y-90237992D01*
X141239500Y-90250288D01*
X141239500Y-91466484D01*
X141219498Y-91534605D01*
X141202595Y-91555579D01*
X139450372Y-93307802D01*
X139388060Y-93341828D01*
X139317245Y-93336763D01*
X139260409Y-93294216D01*
X139235598Y-93227696D01*
X139236399Y-93201933D01*
X139240798Y-93169182D01*
X139241328Y-93162772D01*
X139244901Y-93049095D01*
X139244774Y-93042652D01*
X139226234Y-92780796D01*
X139224981Y-92771992D01*
X139169986Y-92516550D01*
X139167507Y-92508017D01*
X139077069Y-92262875D01*
X139073414Y-92254780D01*
X138949334Y-92024820D01*
X138944575Y-92017322D01*
X138859887Y-91902663D01*
X138848759Y-91894221D01*
X138836166Y-91901045D01*
X136186655Y-94550556D01*
X136179489Y-94563679D01*
X136186879Y-94573981D01*
X136228758Y-94608076D01*
X136236037Y-94613191D01*
X136459884Y-94747958D01*
X136467798Y-94751991D01*
X136708414Y-94853879D01*
X136716819Y-94856756D01*
X136969385Y-94923723D01*
X136978117Y-94925389D01*
X137237602Y-94956100D01*
X137246468Y-94956518D01*
X137500519Y-94950532D01*
X137569092Y-94968924D01*
X137616836Y-95021469D01*
X137628592Y-95091486D01*
X137600629Y-95156743D01*
X137592582Y-95165592D01*
X132046334Y-100711840D01*
X132043812Y-100714294D01*
X132032727Y-100724777D01*
X131971319Y-100782847D01*
X131968252Y-100786859D01*
X131923592Y-100845272D01*
X131919448Y-100850407D01*
X131868530Y-100910235D01*
X131865911Y-100914560D01*
X131865907Y-100914565D01*
X131851509Y-100938339D01*
X131843837Y-100949586D01*
X131823880Y-100975689D01*
X131821490Y-100980147D01*
X131821489Y-100980148D01*
X131786761Y-101044916D01*
X131783496Y-101050641D01*
X131742779Y-101117873D01*
X131730473Y-101148332D01*
X131724693Y-101160673D01*
X131709169Y-101189624D01*
X131707523Y-101194405D01*
X131707521Y-101194409D01*
X131683588Y-101263916D01*
X131681278Y-101270094D01*
X131651845Y-101342944D01*
X131650723Y-101347883D01*
X131644568Y-101374975D01*
X131640837Y-101388074D01*
X131630138Y-101419146D01*
X131616757Y-101496615D01*
X131615477Y-101503019D01*
X131598065Y-101579659D01*
X131596001Y-101612468D01*
X131594415Y-101625968D01*
X131588821Y-101658351D01*
X131588641Y-101662308D01*
X131588641Y-101662311D01*
X131587931Y-101677958D01*
X131587500Y-101687440D01*
X131587500Y-101743623D01*
X131587251Y-101751534D01*
X131582822Y-101821928D01*
X131583316Y-101826963D01*
X131586899Y-101863507D01*
X131587500Y-101875803D01*
X131587500Y-109587636D01*
X131567498Y-109655757D01*
X131510733Y-109703619D01*
X131399508Y-109750831D01*
X131399495Y-109750838D01*
X131394844Y-109752812D01*
X131376317Y-109764479D01*
X131241643Y-109849288D01*
X131173341Y-109868663D01*
X131105407Y-109848035D01*
X131059410Y-109793953D01*
X131048500Y-109742668D01*
X131048500Y-103238273D01*
X131048549Y-103234755D01*
X131051193Y-103140107D01*
X131051193Y-103140104D01*
X131051334Y-103135052D01*
X131040941Y-103057159D01*
X131040241Y-103050610D01*
X131034346Y-102977334D01*
X131034345Y-102977330D01*
X131033940Y-102972292D01*
X131026101Y-102940379D01*
X131023573Y-102926995D01*
X131019898Y-102899451D01*
X131019229Y-102894437D01*
X130996522Y-102819228D01*
X130994781Y-102812865D01*
X130991876Y-102801037D01*
X130976037Y-102736551D01*
X130963199Y-102706305D01*
X130958561Y-102693494D01*
X130950530Y-102666895D01*
X130949067Y-102662049D01*
X130946849Y-102657501D01*
X130946846Y-102657494D01*
X130914629Y-102591439D01*
X130911893Y-102585437D01*
X130883162Y-102517752D01*
X130881188Y-102513101D01*
X130863681Y-102485301D01*
X130857052Y-102473391D01*
X130850271Y-102459487D01*
X130842654Y-102443869D01*
X130797836Y-102380336D01*
X130774913Y-102313142D01*
X130786095Y-102255554D01*
X130821137Y-102178484D01*
X130821137Y-102178483D01*
X130824851Y-102170315D01*
X130845500Y-102026129D01*
X130839278Y-101982684D01*
X130826124Y-101890829D01*
X130826123Y-101890826D01*
X130824851Y-101881943D01*
X130819256Y-101869636D01*
X130767832Y-101756537D01*
X130764563Y-101749347D01*
X130725371Y-101700601D01*
X128677400Y-99652630D01*
X128628654Y-99613438D01*
X128550924Y-99578096D01*
X128504227Y-99556864D01*
X128504226Y-99556864D01*
X128496058Y-99553150D01*
X128487175Y-99551878D01*
X128487172Y-99551877D01*
X128360761Y-99533774D01*
X128351872Y-99532501D01*
X128342983Y-99533774D01*
X128216572Y-99551877D01*
X128216569Y-99551878D01*
X128207686Y-99553150D01*
X128199518Y-99556864D01*
X128199517Y-99556864D01*
X128152820Y-99578096D01*
X128082529Y-99588082D01*
X128017998Y-99558482D01*
X128011574Y-99552490D01*
X126746256Y-98287172D01*
X126712230Y-98224860D01*
X126717295Y-98154045D01*
X126746256Y-98108982D01*
X127908335Y-96946903D01*
X127970647Y-96912877D01*
X127995448Y-96910014D01*
X128050014Y-96909157D01*
X128055519Y-96908077D01*
X128264955Y-96866988D01*
X128264959Y-96866987D01*
X128270463Y-96865907D01*
X128275689Y-96863869D01*
X128275694Y-96863868D01*
X128416480Y-96808977D01*
X128479768Y-96784302D01*
X128671315Y-96666922D01*
X128675508Y-96663187D01*
X128675511Y-96663184D01*
X128834858Y-96521210D01*
X128839048Y-96517477D01*
X128977667Y-96340691D01*
X129082788Y-96142152D01*
X129087992Y-96125848D01*
X129149383Y-95933481D01*
X129149383Y-95933480D01*
X129151089Y-95928135D01*
X129180412Y-95705406D01*
X129169830Y-95481004D01*
X129119675Y-95262022D01*
X129031537Y-95055384D01*
X129002057Y-95010505D01*
X128983536Y-94964081D01*
X128983158Y-94960226D01*
X128921150Y-94725532D01*
X128868855Y-94608076D01*
X128824474Y-94508396D01*
X128824473Y-94508394D01*
X128822415Y-94503772D01*
X128819648Y-94499544D01*
X128819645Y-94499538D01*
X128735361Y-94370739D01*
X128689496Y-94300649D01*
X128650494Y-94257936D01*
X128595142Y-94197319D01*
X128525811Y-94121392D01*
X128521847Y-94118250D01*
X128339538Y-93973754D01*
X128339536Y-93973753D01*
X128335571Y-93970610D01*
X128331158Y-93968143D01*
X128331154Y-93968141D01*
X128128085Y-93854649D01*
X128128081Y-93854647D01*
X128123672Y-93852183D01*
X127977999Y-93799162D01*
X127900321Y-93770889D01*
X127900316Y-93770888D01*
X127895564Y-93769158D01*
X127890595Y-93768210D01*
X127890591Y-93768209D01*
X127765730Y-93744391D01*
X127726912Y-93730071D01*
X127600279Y-93657841D01*
X127600278Y-93657841D01*
X127595412Y-93655065D01*
X127590135Y-93653196D01*
X127590130Y-93653194D01*
X127388936Y-93581948D01*
X127388933Y-93581947D01*
X127383646Y-93580075D01*
X127161948Y-93543770D01*
X127156335Y-93543858D01*
X127156332Y-93543858D01*
X127037529Y-93545725D01*
X126937324Y-93547299D01*
X126931819Y-93548379D01*
X126722384Y-93589468D01*
X126722380Y-93589469D01*
X126716876Y-93590549D01*
X126711650Y-93592587D01*
X126711645Y-93592588D01*
X126594398Y-93638301D01*
X126507570Y-93672154D01*
X126316023Y-93789534D01*
X126311830Y-93793269D01*
X126311827Y-93793272D01*
X126223323Y-93872127D01*
X126148290Y-93938979D01*
X126009671Y-94115765D01*
X126007046Y-94120723D01*
X125909541Y-94304881D01*
X125904551Y-94314305D01*
X125902845Y-94319651D01*
X125902844Y-94319653D01*
X125897431Y-94336614D01*
X125836249Y-94528321D01*
X125835518Y-94533876D01*
X125835517Y-94533879D01*
X125807872Y-94743863D01*
X125779149Y-94808790D01*
X125772045Y-94816511D01*
X124462708Y-96125848D01*
X124400396Y-96159874D01*
X124375595Y-96162737D01*
X124321029Y-96163594D01*
X124315524Y-96164674D01*
X124106089Y-96205763D01*
X124106085Y-96205764D01*
X124100581Y-96206844D01*
X124095355Y-96208882D01*
X124095350Y-96208883D01*
X124035333Y-96232283D01*
X123891275Y-96288449D01*
X123699728Y-96405829D01*
X123695535Y-96409564D01*
X123695532Y-96409567D01*
X123610407Y-96485411D01*
X123531995Y-96555274D01*
X123393376Y-96732060D01*
X123372389Y-96771699D01*
X123299156Y-96910014D01*
X123288256Y-96930600D01*
X123286550Y-96935946D01*
X123286549Y-96935948D01*
X123283053Y-96946903D01*
X123219954Y-97144616D01*
X123190631Y-97367345D01*
X123190895Y-97372944D01*
X123190895Y-97372946D01*
X123194718Y-97454009D01*
X123201214Y-97591747D01*
X123251368Y-97810729D01*
X123294074Y-97910852D01*
X123332755Y-98001537D01*
X123339507Y-98017368D01*
X123342586Y-98022055D01*
X123348187Y-98030583D01*
X123368874Y-98099758D01*
X123368874Y-98527615D01*
X123368825Y-98531133D01*
X123366616Y-98610232D01*
X123366040Y-98630836D01*
X123372061Y-98675956D01*
X123376432Y-98708717D01*
X123377132Y-98715270D01*
X123383434Y-98793596D01*
X123391271Y-98825501D01*
X123393800Y-98838889D01*
X123398145Y-98871451D01*
X123399606Y-98876292D01*
X123399607Y-98876294D01*
X123420852Y-98946660D01*
X123422593Y-98953021D01*
X123441337Y-99029337D01*
X123443315Y-99033997D01*
X123454175Y-99059582D01*
X123458812Y-99072392D01*
X123468307Y-99103839D01*
X123470525Y-99108387D01*
X123470528Y-99108394D01*
X123502745Y-99174449D01*
X123505481Y-99180451D01*
X123536186Y-99252787D01*
X123538878Y-99257061D01*
X123553693Y-99280587D01*
X123560319Y-99292491D01*
X123574720Y-99322019D01*
X123577639Y-99326156D01*
X123577639Y-99326157D01*
X123620015Y-99386228D01*
X123623675Y-99391717D01*
X123649057Y-99432022D01*
X123665541Y-99458198D01*
X123668882Y-99461987D01*
X123668886Y-99461993D01*
X123687272Y-99482848D01*
X123695718Y-99493543D01*
X123714648Y-99520378D01*
X123734283Y-99541881D01*
X123773999Y-99581597D01*
X123779418Y-99587367D01*
X123822724Y-99636489D01*
X123822727Y-99636492D01*
X123826072Y-99640286D01*
X123829980Y-99643496D01*
X123829981Y-99643497D01*
X123858363Y-99666810D01*
X123867482Y-99675080D01*
X125878233Y-101685831D01*
X125912259Y-101748143D01*
X125907194Y-101818958D01*
X125903839Y-101827077D01*
X125884489Y-101869636D01*
X125878893Y-101881943D01*
X125877621Y-101890826D01*
X125877620Y-101890829D01*
X125864466Y-101982684D01*
X125858244Y-102026129D01*
X125878893Y-102170315D01*
X125939181Y-102302911D01*
X125978373Y-102351657D01*
X127994595Y-104367879D01*
X128028621Y-104430191D01*
X128031500Y-104456974D01*
X128031500Y-110536987D01*
X128011498Y-110605108D01*
X127957842Y-110651601D01*
X127887568Y-110661705D01*
X127822988Y-110632211D01*
X127799234Y-110604689D01*
X127779198Y-110573238D01*
X127704816Y-110476301D01*
X127541199Y-110263070D01*
X127541194Y-110263064D01*
X127539535Y-110260902D01*
X127294509Y-109993503D01*
X127288960Y-109986644D01*
X127288933Y-109986666D01*
X127285813Y-109982931D01*
X127282990Y-109978966D01*
X127274223Y-109969982D01*
X127251887Y-109953242D01*
X127238357Y-109941511D01*
X120653258Y-103356412D01*
X120619232Y-103294100D01*
X120624297Y-103223285D01*
X120666844Y-103166449D01*
X120727216Y-103142230D01*
X120919971Y-103118904D01*
X120924235Y-103118388D01*
X121189127Y-103048895D01*
X121193087Y-103047255D01*
X121193092Y-103047253D01*
X121345331Y-102984193D01*
X121442136Y-102944095D01*
X121678582Y-102805927D01*
X121894089Y-102636948D01*
X121938191Y-102591439D01*
X122074208Y-102451080D01*
X122084669Y-102440285D01*
X122087202Y-102436837D01*
X122087206Y-102436832D01*
X122244257Y-102223032D01*
X122246795Y-102219577D01*
X122302332Y-102117291D01*
X122375418Y-101982684D01*
X122375419Y-101982682D01*
X122377468Y-101978908D01*
X122464667Y-101748143D01*
X122472751Y-101726749D01*
X122472752Y-101726745D01*
X122474269Y-101722731D01*
X122515975Y-101540632D01*
X122534449Y-101459971D01*
X122534450Y-101459967D01*
X122535407Y-101455787D01*
X122542026Y-101381630D01*
X122559531Y-101185481D01*
X122559531Y-101185479D01*
X122559751Y-101183015D01*
X122560097Y-101150059D01*
X122560167Y-101143338D01*
X122560167Y-101143337D01*
X122560193Y-101140854D01*
X122558946Y-101122564D01*
X122541859Y-100871909D01*
X122541858Y-100871903D01*
X122541567Y-100867632D01*
X122537479Y-100847889D01*
X122486901Y-100603663D01*
X122486032Y-100599466D01*
X122394617Y-100341319D01*
X122269013Y-100097966D01*
X122111545Y-99873911D01*
X121974088Y-99725989D01*
X121928046Y-99676442D01*
X121928043Y-99676439D01*
X121925125Y-99673299D01*
X121921810Y-99670585D01*
X121921806Y-99670582D01*
X121741865Y-99523302D01*
X121713205Y-99499844D01*
X121479704Y-99356755D01*
X121475768Y-99355027D01*
X121232873Y-99248403D01*
X121232869Y-99248402D01*
X121228945Y-99246679D01*
X120965566Y-99171654D01*
X120961324Y-99171050D01*
X120961318Y-99171049D01*
X120760834Y-99142516D01*
X120694443Y-99133067D01*
X120550589Y-99132314D01*
X120424877Y-99131656D01*
X120424871Y-99131656D01*
X120420591Y-99131634D01*
X120416339Y-99132194D01*
X120416336Y-99132194D01*
X120411760Y-99132796D01*
X120341612Y-99121855D01*
X120288514Y-99074726D01*
X120269326Y-99006371D01*
X120290139Y-98938494D01*
X120306222Y-98918779D01*
X127514510Y-91710491D01*
X128847485Y-91710491D01*
X128858068Y-91934893D01*
X128908222Y-92153875D01*
X128996361Y-92360514D01*
X128999438Y-92365198D01*
X128999441Y-92365204D01*
X129025840Y-92405393D01*
X129044361Y-92451816D01*
X129044739Y-92455671D01*
X129106747Y-92690365D01*
X129108803Y-92694982D01*
X129108803Y-92694983D01*
X129127097Y-92736071D01*
X129205482Y-92912125D01*
X129338402Y-93115247D01*
X129341812Y-93118981D01*
X129498476Y-93290551D01*
X129502086Y-93294505D01*
X129561793Y-93341828D01*
X129688357Y-93442142D01*
X129688363Y-93442146D01*
X129692326Y-93445287D01*
X129777648Y-93492972D01*
X129871010Y-93545150D01*
X129904226Y-93563714D01*
X129959799Y-93583941D01*
X130127576Y-93645008D01*
X130127581Y-93645009D01*
X130132333Y-93646739D01*
X130137302Y-93647687D01*
X130137306Y-93647688D01*
X130262167Y-93671506D01*
X130300985Y-93685826D01*
X130427618Y-93758056D01*
X130432485Y-93760832D01*
X130437762Y-93762701D01*
X130437767Y-93762703D01*
X130638961Y-93833949D01*
X130638964Y-93833950D01*
X130644251Y-93835822D01*
X130865950Y-93872127D01*
X130871563Y-93872039D01*
X130871566Y-93872039D01*
X130990345Y-93870173D01*
X131090573Y-93868598D01*
X131096078Y-93867518D01*
X131305514Y-93826429D01*
X131305518Y-93826428D01*
X131311022Y-93825348D01*
X131316248Y-93823310D01*
X131316253Y-93823309D01*
X131483616Y-93758056D01*
X131520327Y-93743743D01*
X131711874Y-93626363D01*
X131716067Y-93622628D01*
X131716070Y-93622625D01*
X131875417Y-93480651D01*
X131879607Y-93476918D01*
X132018226Y-93300132D01*
X132123347Y-93101593D01*
X132126212Y-93092618D01*
X132158884Y-92990240D01*
X135420373Y-92990240D01*
X135430631Y-93251332D01*
X135431606Y-93260161D01*
X135478550Y-93517205D01*
X135480759Y-93525807D01*
X135563452Y-93773669D01*
X135566856Y-93781887D01*
X135683647Y-94015623D01*
X135688171Y-94023271D01*
X135803480Y-94190108D01*
X135813801Y-94198462D01*
X135827451Y-94191340D01*
X136960106Y-93058685D01*
X136967720Y-93044741D01*
X136967589Y-93042908D01*
X136963338Y-93036293D01*
X135827947Y-91900902D01*
X135815106Y-91893890D01*
X135804417Y-91901686D01*
X135752791Y-91967172D01*
X135747786Y-91974536D01*
X135616548Y-92200478D01*
X135612644Y-92208448D01*
X135514548Y-92450636D01*
X135511804Y-92459080D01*
X135448811Y-92712673D01*
X135447284Y-92721424D01*
X135420652Y-92981356D01*
X135420373Y-92990240D01*
X132158884Y-92990240D01*
X132189942Y-92892922D01*
X132189942Y-92892921D01*
X132191648Y-92887576D01*
X132211594Y-92736071D01*
X132220025Y-92672034D01*
X132248748Y-92607107D01*
X132255852Y-92599386D01*
X133326677Y-91528561D01*
X136180173Y-91528561D01*
X136187153Y-91541688D01*
X137319316Y-92673851D01*
X137333260Y-92681465D01*
X137335093Y-92681334D01*
X137341708Y-92677083D01*
X138476932Y-91541859D01*
X138483786Y-91529307D01*
X138475578Y-91518236D01*
X138385890Y-91449789D01*
X138378441Y-91444896D01*
X138150481Y-91317232D01*
X138142431Y-91313444D01*
X137898745Y-91219168D01*
X137890255Y-91216556D01*
X137635706Y-91157556D01*
X137626928Y-91156166D01*
X137366606Y-91133619D01*
X137357735Y-91133479D01*
X137096824Y-91147838D01*
X137088014Y-91148952D01*
X136831735Y-91199928D01*
X136823178Y-91202269D01*
X136576624Y-91288853D01*
X136568490Y-91292373D01*
X136336605Y-91412828D01*
X136329033Y-91417467D01*
X136188575Y-91517840D01*
X136180173Y-91528561D01*
X133326677Y-91528561D01*
X133565189Y-91290049D01*
X133627501Y-91256023D01*
X133652302Y-91253160D01*
X133706868Y-91252303D01*
X133712373Y-91251223D01*
X133921809Y-91210134D01*
X133921813Y-91210133D01*
X133927317Y-91209053D01*
X133932543Y-91207015D01*
X133932548Y-91207014D01*
X134121153Y-91133479D01*
X134136622Y-91127448D01*
X134328169Y-91010068D01*
X134332362Y-91006333D01*
X134332365Y-91006330D01*
X134491712Y-90864356D01*
X134495902Y-90860623D01*
X134634521Y-90683837D01*
X134739642Y-90485298D01*
X134742192Y-90477310D01*
X134806237Y-90276627D01*
X134806237Y-90276626D01*
X134807943Y-90271281D01*
X134835319Y-90063339D01*
X134836320Y-90055739D01*
X134865043Y-89990812D01*
X134872147Y-89983091D01*
X136294295Y-88560944D01*
X136356607Y-88526918D01*
X136427423Y-88531983D01*
X136472485Y-88560944D01*
X136902318Y-88990777D01*
X136984865Y-89057804D01*
X136991028Y-89060884D01*
X136991032Y-89060886D01*
X137084037Y-89107357D01*
X137143084Y-89136861D01*
X137215285Y-89153862D01*
X137308124Y-89175723D01*
X137308126Y-89175723D01*
X137315247Y-89177400D01*
X137322563Y-89177394D01*
X137322566Y-89177394D01*
X137403873Y-89177323D01*
X137492117Y-89177246D01*
X137598771Y-89151936D01*
X137657088Y-89138097D01*
X137657089Y-89138097D01*
X137664209Y-89136407D01*
X137670745Y-89133127D01*
X137670750Y-89133125D01*
X137816141Y-89060160D01*
X137816145Y-89060157D01*
X137822289Y-89057074D01*
X137901186Y-88992842D01*
X137901228Y-88992808D01*
X137901234Y-88992802D01*
X137903722Y-88990777D01*
X139530634Y-87363865D01*
X139597661Y-87281318D01*
X139600741Y-87275155D01*
X139600743Y-87275151D01*
X139673449Y-87129641D01*
X139676718Y-87123099D01*
X139717257Y-86950936D01*
X139717103Y-86774066D01*
X139676264Y-86601974D01*
X139672984Y-86595438D01*
X139672982Y-86595433D01*
X139600017Y-86450042D01*
X139600014Y-86450038D01*
X139596931Y-86443894D01*
X139579998Y-86423095D01*
X139532665Y-86364955D01*
X139532659Y-86364949D01*
X139530634Y-86362461D01*
X138848169Y-85679996D01*
X138814143Y-85617684D01*
X138819208Y-85546869D01*
X138861755Y-85490033D01*
X138928275Y-85465222D01*
X138997649Y-85480313D01*
X139016815Y-85493189D01*
X139128618Y-85584211D01*
X139135894Y-85589325D01*
X139353677Y-85720441D01*
X139361591Y-85724474D01*
X139595686Y-85823601D01*
X139604091Y-85826478D01*
X139849813Y-85891630D01*
X139858545Y-85893296D01*
X140110998Y-85923175D01*
X140119866Y-85923593D01*
X140374006Y-85917604D01*
X140382861Y-85916767D01*
X140633622Y-85875029D01*
X140642256Y-85872956D01*
X140884640Y-85796300D01*
X140892902Y-85793029D01*
X141122058Y-85682990D01*
X141129782Y-85678584D01*
X141312381Y-85556576D01*
X141320669Y-85546658D01*
X141313412Y-85532479D01*
X139845085Y-84064152D01*
X140567571Y-84064152D01*
X140567702Y-84065985D01*
X140571953Y-84072600D01*
X141673190Y-85173837D01*
X141686591Y-85181155D01*
X141696492Y-85174169D01*
X141707290Y-85161325D01*
X141712516Y-85154130D01*
X141847030Y-84938445D01*
X141851201Y-84930567D01*
X141953980Y-84698085D01*
X141956996Y-84689708D01*
X142025995Y-84445054D01*
X142027799Y-84436346D01*
X142061806Y-84183165D01*
X142062334Y-84176772D01*
X142065808Y-84066242D01*
X142065681Y-84059799D01*
X142047641Y-83805006D01*
X142046388Y-83796203D01*
X141992883Y-83547682D01*
X141990404Y-83539149D01*
X141902417Y-83300650D01*
X141898762Y-83292555D01*
X141778044Y-83068827D01*
X141773285Y-83061329D01*
X141695167Y-82955565D01*
X141684039Y-82947123D01*
X141671446Y-82953947D01*
X140575185Y-84050208D01*
X140567571Y-84064152D01*
X139845085Y-84064152D01*
X138734586Y-82953653D01*
X138721745Y-82946641D01*
X138711056Y-82954436D01*
X138665278Y-83012505D01*
X138660285Y-83019853D01*
X138532603Y-83239675D01*
X138528695Y-83247649D01*
X138433260Y-83483267D01*
X138430511Y-83491729D01*
X138369230Y-83738433D01*
X138367701Y-83747194D01*
X138341790Y-84000079D01*
X138341511Y-84008962D01*
X138351491Y-84262980D01*
X138352465Y-84271804D01*
X138398141Y-84521895D01*
X138400345Y-84530482D01*
X138480799Y-84771633D01*
X138484203Y-84779851D01*
X138597830Y-85007255D01*
X138602348Y-85014894D01*
X138749419Y-85227688D01*
X138747679Y-85228890D01*
X138771389Y-85286606D01*
X138758579Y-85356437D01*
X138710049Y-85408258D01*
X138641207Y-85425615D01*
X138573910Y-85402998D01*
X138556977Y-85388804D01*
X137903722Y-84735549D01*
X137821175Y-84668522D01*
X137815012Y-84665442D01*
X137815008Y-84665440D01*
X137669498Y-84592734D01*
X137669499Y-84592734D01*
X137662956Y-84589465D01*
X137568462Y-84567215D01*
X137497916Y-84550603D01*
X137497914Y-84550603D01*
X137490793Y-84548926D01*
X137483477Y-84548932D01*
X137483474Y-84548932D01*
X137402167Y-84549003D01*
X137313923Y-84549080D01*
X137227877Y-84569500D01*
X137148952Y-84588229D01*
X137148951Y-84588229D01*
X137141831Y-84589919D01*
X137135295Y-84593199D01*
X137135290Y-84593201D01*
X136989899Y-84666166D01*
X136989895Y-84666169D01*
X136983751Y-84669252D01*
X136978418Y-84673594D01*
X136978416Y-84673595D01*
X136904812Y-84733518D01*
X136904806Y-84733524D01*
X136902318Y-84735549D01*
X136320109Y-85317758D01*
X136257797Y-85351784D01*
X136231014Y-85354663D01*
X135882750Y-85354663D01*
X135879232Y-85354614D01*
X135784584Y-85351970D01*
X135784581Y-85351970D01*
X135779529Y-85351829D01*
X135701636Y-85362222D01*
X135695095Y-85362921D01*
X135666402Y-85365230D01*
X135621811Y-85368817D01*
X135621807Y-85368818D01*
X135616769Y-85369223D01*
X135584856Y-85377062D01*
X135571476Y-85379589D01*
X135538914Y-85383934D01*
X135463702Y-85406641D01*
X135457347Y-85408380D01*
X135438450Y-85413022D01*
X135381028Y-85427126D01*
X135376375Y-85429101D01*
X135376372Y-85429102D01*
X135364133Y-85434297D01*
X135350788Y-85439962D01*
X135337977Y-85444599D01*
X135311376Y-85452630D01*
X135311369Y-85452633D01*
X135306526Y-85454095D01*
X135235872Y-85488555D01*
X135229938Y-85491260D01*
X135157578Y-85521975D01*
X135153298Y-85524670D01*
X135153287Y-85524676D01*
X135129781Y-85539479D01*
X135117874Y-85546107D01*
X135116312Y-85546869D01*
X135088346Y-85560509D01*
X135076905Y-85568580D01*
X135024137Y-85605804D01*
X135018648Y-85609464D01*
X134956448Y-85648634D01*
X134952167Y-85651330D01*
X134948378Y-85654671D01*
X134948372Y-85654675D01*
X134927517Y-85673061D01*
X134916822Y-85681507D01*
X134889987Y-85700437D01*
X134868484Y-85720072D01*
X134828768Y-85759788D01*
X134822998Y-85765207D01*
X134773876Y-85808513D01*
X134773873Y-85808516D01*
X134770079Y-85811861D01*
X134766869Y-85815769D01*
X134766868Y-85815770D01*
X134743555Y-85844152D01*
X134735285Y-85853271D01*
X132735857Y-87852699D01*
X132673545Y-87886725D01*
X132648744Y-87889588D01*
X132594178Y-87890445D01*
X132588673Y-87891525D01*
X132379238Y-87932614D01*
X132379234Y-87932615D01*
X132373730Y-87933695D01*
X132368504Y-87935733D01*
X132368499Y-87935734D01*
X132226522Y-87991089D01*
X132164424Y-88015300D01*
X131972877Y-88132680D01*
X131968684Y-88136415D01*
X131968681Y-88136418D01*
X131847938Y-88243997D01*
X131805144Y-88282125D01*
X131666525Y-88458911D01*
X131561405Y-88657451D01*
X131493103Y-88871467D01*
X131492372Y-88877022D01*
X131492371Y-88877025D01*
X131464726Y-89087009D01*
X131436003Y-89151936D01*
X131428899Y-89159657D01*
X130119562Y-90468994D01*
X130057250Y-90503020D01*
X130032449Y-90505883D01*
X129977883Y-90506740D01*
X129972378Y-90507820D01*
X129762943Y-90548909D01*
X129762939Y-90548910D01*
X129757435Y-90549990D01*
X129752209Y-90552028D01*
X129752204Y-90552029D01*
X129610227Y-90607384D01*
X129548129Y-90631595D01*
X129356582Y-90748975D01*
X129352389Y-90752710D01*
X129352386Y-90752713D01*
X129305103Y-90794841D01*
X129188849Y-90898420D01*
X129050230Y-91075206D01*
X129047605Y-91080164D01*
X128956010Y-91253160D01*
X128945110Y-91273746D01*
X128943404Y-91279092D01*
X128943403Y-91279094D01*
X128931232Y-91317232D01*
X128876808Y-91487762D01*
X128847485Y-91710491D01*
X127514510Y-91710491D01*
X136643448Y-82581553D01*
X139087052Y-82581553D01*
X139094032Y-82594679D01*
X140190351Y-83690998D01*
X140204295Y-83698612D01*
X140206128Y-83698481D01*
X140212743Y-83694230D01*
X141312292Y-82594681D01*
X141319146Y-82582129D01*
X141310939Y-82571059D01*
X141229393Y-82508825D01*
X141221964Y-82503945D01*
X141000168Y-82379733D01*
X140992134Y-82375952D01*
X140755028Y-82284223D01*
X140746555Y-82281616D01*
X140498899Y-82224213D01*
X140490123Y-82222823D01*
X140236854Y-82200888D01*
X140227983Y-82200748D01*
X139974139Y-82214718D01*
X139965337Y-82215830D01*
X139715995Y-82265428D01*
X139707442Y-82267768D01*
X139467584Y-82351998D01*
X139459418Y-82355532D01*
X139233832Y-82472716D01*
X139226260Y-82477355D01*
X139095455Y-82570830D01*
X139087052Y-82581553D01*
X136643448Y-82581553D01*
X141024910Y-78200091D01*
X141039675Y-78187446D01*
X141059054Y-78173288D01*
X141068466Y-78161043D01*
X141085815Y-78142640D01*
X141213080Y-78032285D01*
X141227398Y-78021551D01*
X141277025Y-77989587D01*
X141390402Y-77916561D01*
X141406095Y-77907965D01*
X141582331Y-77827124D01*
X141599075Y-77820841D01*
X141706509Y-77789023D01*
X141784984Y-77765782D01*
X141802459Y-77761932D01*
X141898373Y-77747848D01*
X141994290Y-77733765D01*
X142012128Y-77732429D01*
X142111418Y-77732067D01*
X142206012Y-77731723D01*
X142223865Y-77732928D01*
G37*
%TD.AperFunction*%
%TD*%
M02*
