M48
; DRILL file {KiCad (6.0.5)} date Sun Jul  3 21:19:50 2022
; FORMAT={-:-/ absolute / metric / decimal}
; #@! TF.CreationDate,2022-07-03T21:19:50+09:00
; #@! TF.GenerationSoftware,Kicad,Pcbnew,(6.0.5)
; #@! TF.FileFunction,Plated,1,2,PTH
FMAT,2
METRIC
; #@! TA.AperFunction,Plated,PTH,ComponentDrill
T1C0.700
; #@! TA.AperFunction,Plated,PTH,ComponentDrill
T2C0.800
; #@! TA.AperFunction,Plated,PTH,ComponentDrill
T3C1.000
; #@! TA.AperFunction,Plated,PTH,ComponentDrill
T4C1.100
%
G90
G05
T1
X127.0Y-70.612
X132.08Y-70.612
X138.684Y-70.612
X143.764Y-70.612
X149.86Y-70.612
X154.94Y-70.612
X161.036Y-70.83
X166.116Y-70.83
T2
X129.58Y-67.564
X132.08Y-67.564
X141.264Y-67.564
X143.764Y-67.564
X152.44Y-67.564
X154.94Y-67.564
X163.616Y-67.782
X166.116Y-67.782
T3
X125.999Y-50.267
X128.539Y-50.267
X131.079Y-50.267
X133.619Y-50.267
X136.159Y-50.267
X138.699Y-50.267
X141.239Y-50.267
X143.779Y-50.267
X146.319Y-50.267
X148.859Y-50.267
X151.399Y-50.267
X153.939Y-50.267
X156.479Y-50.267
X170.967Y-55.392
X170.967Y-57.932
X170.967Y-60.472
X170.967Y-63.012
X170.967Y-65.552
X170.967Y-68.092
X170.967Y-70.632
T4
X127.104Y-75.764
X127.104Y-80.264
X133.604Y-75.764
X133.604Y-80.264
X138.482Y-75.764
X138.482Y-80.264
X144.982Y-75.764
X144.982Y-80.264
X149.86Y-75.982
X149.86Y-80.482
X156.36Y-75.982
X156.36Y-80.482
X161.036Y-75.982
X161.036Y-80.482
X167.536Y-75.982
X167.536Y-80.482
T3
G00X179.34Y-66.644
M15
G01X181.34Y-66.644
M16
G05
G00X179.34Y-72.644
M15
G01X181.34Y-72.644
M16
G05
T0
M30
