G04 #@! TF.GenerationSoftware,KiCad,Pcbnew,7.0.1-0*
G04 #@! TF.CreationDate,2023-04-18T17:24:15+09:00*
G04 #@! TF.ProjectId,____,b8e3a4ed-2e6b-4696-9361-645f70636258,rev?*
G04 #@! TF.SameCoordinates,Original*
G04 #@! TF.FileFunction,Copper,L1,Top*
G04 #@! TF.FilePolarity,Positive*
%FSLAX46Y46*%
G04 Gerber Fmt 4.6, Leading zero omitted, Abs format (unit mm)*
G04 Created by KiCad (PCBNEW 7.0.1-0) date 2023-04-18 17:24:15*
%MOMM*%
%LPD*%
G01*
G04 APERTURE LIST*
G04 #@! TA.AperFunction,ComponentPad*
%ADD10R,1.700000X1.700000*%
G04 #@! TD*
G04 #@! TA.AperFunction,ComponentPad*
%ADD11O,1.700000X1.700000*%
G04 #@! TD*
G04 #@! TA.AperFunction,ComponentPad*
%ADD12C,1.600000*%
G04 #@! TD*
G04 #@! TA.AperFunction,ComponentPad*
%ADD13O,1.600000X1.600000*%
G04 #@! TD*
G04 #@! TA.AperFunction,ComponentPad*
%ADD14C,1.524000*%
G04 #@! TD*
G04 #@! TA.AperFunction,ComponentPad*
%ADD15C,1.700000*%
G04 #@! TD*
G04 #@! TA.AperFunction,ComponentPad*
%ADD16C,2.000000*%
G04 #@! TD*
G04 #@! TA.AperFunction,Conductor*
%ADD17C,0.700000*%
G04 #@! TD*
G04 #@! TA.AperFunction,Conductor*
%ADD18C,0.500000*%
G04 #@! TD*
G04 #@! TA.AperFunction,Conductor*
%ADD19C,0.600000*%
G04 #@! TD*
G04 APERTURE END LIST*
D10*
X135890000Y-108324000D03*
D11*
X135890000Y-110864000D03*
X135890000Y-113404000D03*
X135890000Y-115944000D03*
D12*
X143764000Y-109728000D03*
D13*
X151384000Y-109728000D03*
D14*
X136144000Y-100330000D03*
X138684000Y-100330000D03*
X141224000Y-100330000D03*
X143764000Y-100330000D03*
X136144000Y-92710000D03*
X138684000Y-92710000D03*
X141224000Y-92710000D03*
X143764000Y-92710000D03*
D15*
X149860000Y-93426000D03*
X154940000Y-93426000D03*
X152400000Y-93426000D03*
X155194000Y-104902000D03*
X152654000Y-104902000D03*
X150114000Y-104902000D03*
X147574000Y-104902000D03*
X145034000Y-104902000D03*
X142494000Y-104902000D03*
X139954000Y-104902000D03*
X139954000Y-120142000D03*
X142494000Y-120142000D03*
X145034000Y-120142000D03*
X147574000Y-120142000D03*
X150114000Y-120142000D03*
X152654000Y-120142000D03*
X155194000Y-120142000D03*
D12*
X143764000Y-115062000D03*
D13*
X151384000Y-115062000D03*
D16*
X155491251Y-101111731D03*
X148991251Y-101111731D03*
X155491251Y-96611731D03*
X148991251Y-96611731D03*
D17*
X135890000Y-113324000D02*
X135126522Y-113324000D01*
X135126522Y-113324000D02*
X132585524Y-110783002D01*
X132585524Y-110783002D02*
X132585524Y-96268476D01*
X132585524Y-96268476D02*
X136144000Y-92710000D01*
X135890000Y-115824000D02*
X135890000Y-116078000D01*
X135890000Y-116078000D02*
X139954000Y-120142000D01*
X135890000Y-110824000D02*
X134465000Y-110824000D01*
X134465000Y-110824000D02*
X133965000Y-110324000D01*
X133965000Y-110324000D02*
X133965000Y-107081000D01*
X133965000Y-107081000D02*
X136144000Y-104902000D01*
X136144000Y-104902000D02*
X139954000Y-104902000D01*
X141130584Y-118140000D02*
X136314584Y-113324000D01*
X136314584Y-113324000D02*
X135890000Y-113324000D01*
X141224000Y-110998000D02*
X138550000Y-108324000D01*
X138550000Y-108324000D02*
X135890000Y-108324000D01*
D18*
X155491251Y-96611731D02*
X153550000Y-98552982D01*
X153550000Y-104006000D02*
X152654000Y-104902000D01*
X153550000Y-98552982D02*
X153550000Y-104006000D01*
D19*
X152400000Y-93426000D02*
X152400000Y-102616000D01*
X152400000Y-102616000D02*
X150114000Y-104902000D01*
D17*
X145034000Y-104902000D02*
X145884000Y-105752000D01*
X145884000Y-105752000D02*
X145884000Y-112942000D01*
X145884000Y-112942000D02*
X143764000Y-115062000D01*
X142494000Y-104902000D02*
X142494000Y-108458000D01*
X142494000Y-108458000D02*
X143764000Y-109728000D01*
X138684000Y-100330000D02*
X142494000Y-104140000D01*
X142494000Y-104140000D02*
X142494000Y-104902000D01*
X141224000Y-100330000D02*
X145034000Y-104140000D01*
X145034000Y-104140000D02*
X145034000Y-104902000D01*
X152654000Y-120142000D02*
X152654000Y-120136415D01*
X152654000Y-120136415D02*
X150657585Y-118140000D01*
X150657585Y-118140000D02*
X141130584Y-118140000D01*
X141224000Y-114996874D02*
X141224000Y-110998000D01*
X143067126Y-116840000D02*
X141224000Y-114996874D01*
X153094081Y-116840000D02*
X143067126Y-116840000D01*
X155194000Y-118939919D02*
X153094081Y-116840000D01*
X155194000Y-120142000D02*
X155194000Y-118939919D01*
X151384000Y-115062000D02*
X153323044Y-115062000D01*
X153323044Y-115062000D02*
X157003504Y-118742460D01*
X157003504Y-118742460D02*
X157003504Y-120570492D01*
X157003504Y-120570492D02*
X156567327Y-121870716D01*
X156567327Y-121870716D02*
X156264043Y-122174000D01*
X156264043Y-122174000D02*
X150943919Y-122174000D01*
X150943919Y-122174000D02*
X150114000Y-121344081D01*
X150114000Y-121344081D02*
X150114000Y-120142000D01*
X151384000Y-109728000D02*
X151384000Y-115062000D01*
X156994000Y-108436000D02*
X155702000Y-109728000D01*
X156994000Y-102614480D02*
X156994000Y-108436000D01*
X155491251Y-101111731D02*
X156994000Y-102614480D01*
X155702000Y-109728000D02*
X151384000Y-109728000D01*
X154940000Y-93426000D02*
X156142081Y-93426000D01*
X156142081Y-93426000D02*
X157441251Y-94725170D01*
X157441251Y-99161731D02*
X155491251Y-101111731D01*
X157441251Y-94725170D02*
X157441251Y-99161731D01*
X149860000Y-93426000D02*
X150941251Y-94507251D01*
X150941251Y-102274749D02*
X150114000Y-103102000D01*
X146536000Y-103102000D02*
X143764000Y-100330000D01*
X150941251Y-94507251D02*
X150941251Y-102274749D01*
X150114000Y-103102000D02*
X146536000Y-103102000D01*
X143764000Y-92710000D02*
X143764000Y-95884480D01*
X143764000Y-95884480D02*
X148991251Y-101111731D01*
X143764000Y-92710000D02*
X136144000Y-100330000D01*
X141224000Y-92710000D02*
X142936000Y-90998000D01*
X142936000Y-90998000D02*
X147432000Y-90998000D01*
X147432000Y-90998000D02*
X149860000Y-93426000D01*
X138684000Y-92710000D02*
X141224000Y-92710000D01*
X136144000Y-92710000D02*
X138684000Y-92710000D01*
M02*
