M48
; DRILL file {KiCad (6.0.5)} date Tue Nov  8 23:00:52 2022
; FORMAT={-:-/ absolute / metric / decimal}
; #@! TF.CreationDate,2022-11-08T23:00:52+09:00
; #@! TF.GenerationSoftware,Kicad,Pcbnew,(6.0.5)
; #@! TF.FileFunction,Plated,1,2,PTH
FMAT,2
METRIC
; #@! TA.AperFunction,Plated,PTH,ViaDrill
T1C0.400
; #@! TA.AperFunction,Plated,PTH,ComponentDrill
T2C0.762
; #@! TA.AperFunction,Plated,PTH,ComponentDrill
T3C0.800
; #@! TA.AperFunction,Plated,PTH,ComponentDrill
T4C0.950
; #@! TA.AperFunction,Plated,PTH,ComponentDrill
T5C1.000
; #@! TA.AperFunction,Plated,PTH,ComponentDrill
T6C1.090
; #@! TA.AperFunction,Plated,PTH,ComponentDrill
T7C1.100
%
G90
G05
T1
X116.325Y-93.98
X116.325Y-96.513
X118.0Y-85.962
X119.507Y-80.391
X120.65Y-79.248
X122.174Y-78.74
X123.444Y-78.74
X123.444Y-98.806
X123.444Y-101.854
X128.016Y-64.008
X128.016Y-66.548
X128.016Y-69.088
X128.016Y-71.628
X128.016Y-74.168
X130.556Y-59.69
X131.28Y-86.36
X131.28Y-96.52
X131.318Y-121.92
X131.788Y-83.82
X131.789Y-85.09
X131.789Y-94.973
X132.238Y-77.641
X132.334Y-105.664
X132.334Y-111.252
X132.688Y-69.342
X132.963Y-76.708
X133.238Y-86.614
X133.238Y-87.884
X133.687Y-71.628
X135.382Y-59.69
X135.382Y-64.77
X135.382Y-75.438
X136.906Y-102.87
X139.421Y-106.68
X139.421Y-109.474
X139.774Y-83.894
X140.97Y-88.9
X140.97Y-91.44
X140.97Y-93.98
X140.97Y-96.52
X140.97Y-99.06
X140.97Y-103.886
X141.224Y-109.474
X141.317Y-106.079
X144.018Y-66.802
X144.018Y-69.342
X145.034Y-72.381
X145.044Y-74.517
X146.812Y-90.932
X147.066Y-66.294
X147.066Y-84.836
X147.066Y-98.806
X151.13Y-63.5
X152.4Y-68.58
X152.4Y-73.66
X152.4Y-78.74
X152.4Y-120.65
X162.56Y-84.836
X165.1Y-68.58
X165.1Y-73.66
X165.1Y-78.74
X165.1Y-120.65
X166.37Y-63.5
X169.164Y-98.806
X173.736Y-90.17
X174.752Y-97.79
X180.848Y-82.296
X180.848Y-92.71
X186.69Y-67.31
X186.944Y-72.898
X187.198Y-89.662
X187.198Y-93.472
X187.452Y-78.486
X189.23Y-59.69
X201.168Y-70.612
T2
X110.845Y-78.156
X110.845Y-112.344
X111.817Y-75.81
X111.817Y-114.69
X112.789Y-73.463
X112.789Y-117.037
X118.015Y-99.695
X118.015Y-104.775
X120.555Y-102.235
X136.963Y-49.289
X136.963Y-141.211
X139.31Y-48.317
X139.31Y-142.183
X139.446Y-119.729
X141.656Y-47.345
X141.656Y-143.155
X141.986Y-117.189
X144.526Y-119.729
X175.844Y-47.345
X175.844Y-143.155
X178.19Y-48.317
X178.19Y-142.183
X180.537Y-49.289
X180.537Y-141.211
X204.711Y-73.463
X204.711Y-117.037
X205.683Y-75.81
X205.683Y-114.69
X206.655Y-78.156
X206.655Y-112.344
T3
X127.01Y-81.265
X127.01Y-83.805
X127.01Y-86.345
X127.01Y-88.885
X127.01Y-91.425
X127.01Y-93.965
X127.01Y-96.505
X127.01Y-99.045
X127.01Y-101.585
X127.01Y-104.125
X127.01Y-106.665
X127.01Y-109.205
X127.01Y-111.745
X127.01Y-114.285
X134.63Y-81.265
X134.63Y-83.805
X134.63Y-86.345
X134.63Y-88.885
X134.63Y-91.425
X134.63Y-93.965
X134.63Y-96.505
X134.63Y-99.045
X134.63Y-101.585
X134.63Y-104.125
X134.63Y-106.665
X134.63Y-109.205
X134.63Y-111.745
X134.63Y-114.285
X168.91Y-76.2
X171.41Y-76.2
T4
X118.0Y-87.69
X118.0Y-90.19
X118.0Y-92.69
X118.0Y-95.19
X144.98Y-107.425
X147.48Y-107.425
X149.98Y-107.425
X152.48Y-107.425
X154.98Y-107.425
X155.0Y-62.467
X157.48Y-107.425
X157.5Y-62.467
X160.0Y-62.467
X162.5Y-62.467
X163.89Y-107.425
X166.39Y-107.425
X168.89Y-107.425
X171.39Y-107.425
T5
X123.19Y-59.69
X123.19Y-62.23
X123.19Y-64.77
X123.19Y-67.31
X123.19Y-69.85
X123.19Y-72.39
X123.19Y-74.93
X138.43Y-59.69
X138.43Y-62.23
X138.43Y-64.77
X138.43Y-67.31
X138.43Y-69.85
X138.43Y-72.39
X138.43Y-74.93
X142.75Y-60.452
X142.75Y-62.992
X142.75Y-65.532
X142.75Y-68.072
X142.75Y-70.612
X142.75Y-73.152
X142.75Y-75.692
X142.75Y-78.232
X174.75Y-60.452
X174.75Y-62.992
X174.75Y-65.532
X174.75Y-68.072
X174.75Y-70.612
X174.75Y-73.152
X174.75Y-75.692
X174.75Y-78.232
X179.07Y-59.69
X179.07Y-62.23
X179.07Y-64.77
X179.07Y-67.31
X179.07Y-69.85
X179.07Y-72.39
X179.07Y-74.93
X182.89Y-106.68
X185.42Y-118.11
X185.42Y-120.61
X190.49Y-106.68
X194.31Y-59.69
X194.31Y-62.23
X194.31Y-64.77
X194.31Y-67.31
X194.31Y-69.85
X194.31Y-72.39
X194.31Y-74.93
X194.31Y-78.74
X194.31Y-81.28
X194.31Y-83.82
X194.31Y-86.36
X194.31Y-88.9
X194.31Y-91.44
X194.31Y-93.98
X194.31Y-96.52
T6
X177.8Y-118.11
X177.8Y-120.65
X177.8Y-123.19
T7
X149.075Y-118.4
X149.075Y-122.9
X155.575Y-118.4
X155.575Y-122.9
X161.85Y-118.4
X161.85Y-122.9
X168.35Y-118.4
X168.35Y-122.9
X177.8Y-105.41
X177.8Y-113.03
T0
M30
